<?xml version="1.0" encoding="UTF-8" standalone="no"?>
<!DOCTYPE svg PUBLIC "-//W3C//DTD SVG 1.1//EN"
 "http://www.w3.org/Graphics/SVG/1.1/DTD/svg11.dtd">
<!-- Generated by graphviz version 8.0.2 (20230410.1723)
 -->
<!-- Title: states Pages: 1 -->
<svg width="228pt" height="120pt"
 viewBox="0.00 0.00 228.00 120.11" xmlns="http://www.w3.org/2000/svg" xmlns:xlink="http://www.w3.org/1999/xlink">
<g id="graph0" class="graph" transform="scale(1 1) rotate(0) translate(4 116.11)">
<title>states</title>
<polygon fill="white" stroke="none" points="-4,4 -4,-116.11 224,-116.11 224,4 -4,4"/>
<!-- server -->
<g id="node1" class="node">
<title>server</title>
<polygon fill="none" stroke="black" points="54,-73.11 0,-73.11 0,-37.11 54,-37.11 54,-73.11"/>
<text text-anchor="middle" x="27" y="-51.41" font-family="Times New Roman,serif" font-size="14.00">Server</text>
</g>
<!-- client1 -->
<g id="node2" class="node">
<title>client1</title>
<polygon fill="none" stroke="black" points="220,-105.11 166,-105.11 166,-69.11 220,-69.11 220,-105.11"/>
<text text-anchor="middle" x="193" y="-83.41" font-family="Times New Roman,serif" font-size="14.00">Client</text>
</g>
<!-- server&#45;&gt;client1 -->
<g id="edge1" class="edge">
<title>server&#45;&gt;client1</title>
<path fill="none" stroke="black" d="M45.56,-73.56C53.01,-80.11 62.23,-86.7 72,-90.11 98.79,-99.46 131.02,-98.02 155.34,-94.61"/>
<polygon fill="black" stroke="black" points="155.57,-97.96 164.9,-92.95 154.48,-91.05 155.57,-97.96"/>
<text text-anchor="middle" x="110" y="-100.91" font-family="Times New Roman,serif" font-size="14.00">RPCs + state</text>
</g>
<!-- client2 -->
<g id="node3" class="node">
<title>client2</title>
<polygon fill="none" stroke="black" points="220,-40.11 166,-40.11 166,-4.11 220,-4.11 220,-40.11"/>
<text text-anchor="middle" x="193" y="-18.41" font-family="Times New Roman,serif" font-size="14.00">Client</text>
</g>
<!-- server&#45;&gt;client2 -->
<g id="edge2" class="edge">
<title>server&#45;&gt;client2</title>
<path fill="none" stroke="black" d="M54.25,-44.55C60.03,-42.52 66.16,-40.56 72,-39.11 99.49,-32.24 131.27,-27.89 155.21,-25.32"/>
<polygon fill="black" stroke="black" points="155.36,-28.72 164.95,-24.22 154.65,-21.75 155.36,-28.72"/>
<text text-anchor="middle" x="110" y="-42.91" font-family="Times New Roman,serif" font-size="14.00">RPCs + state</text>
</g>
<!-- client1&#45;&gt;server -->
<g id="edge3" class="edge">
<title>client1&#45;&gt;server</title>
<path fill="none" stroke="black" d="M165.76,-76.52C159.98,-74.48 153.84,-72.54 148,-71.11 120.51,-64.36 88.73,-60.28 64.79,-57.94"/>
<polygon fill="black" stroke="black" points="65.33,-54.38 55.05,-56.95 64.69,-61.35 65.33,-54.38"/>
<text text-anchor="middle" x="110" y="-74.91" font-family="Times New Roman,serif" font-size="14.00">RPCs</text>
</g>
<!-- client2&#45;&gt;server -->
<g id="edge4" class="edge">
<title>client2&#45;&gt;server</title>
<path fill="none" stroke="black" d="M165.58,-11.16C140.47,-2.48 102.17,6.17 72,-7.11 61.71,-11.63 52.77,-19.89 45.69,-28.29"/>
<polygon fill="black" stroke="black" points="42.35,-25.89 39.01,-35.95 47.89,-30.17 42.35,-25.89"/>
<text text-anchor="middle" x="110" y="-10.91" font-family="Times New Roman,serif" font-size="14.00">RPCs</text>
</g>
</g>
</svg>
