<?xml version="1.0" encoding="UTF-8" standalone="no"?>
<!DOCTYPE svg PUBLIC "-//W3C//DTD SVG 1.1//EN"
 "http://www.w3.org/Graphics/SVG/1.1/DTD/svg11.dtd">
<!-- Generated by graphviz version 8.0.2 (20230410.1723)
 -->
<!-- Title: g Pages: 1 -->
<svg width="265pt" height="173pt"
 viewBox="0.00 0.00 265.00 173.00" xmlns="http://www.w3.org/2000/svg" xmlns:xlink="http://www.w3.org/1999/xlink">
<g id="graph0" class="graph" transform="scale(1 1) rotate(0) translate(4 169)">
<title>g</title>
<polygon fill="white" stroke="none" points="-4,4 -4,-169 261,-169 261,4 -4,4"/>
<g id="clust1" class="cluster">
<title>cluster_RplHierarchy</title>
<polygon fill="none" stroke="black" points="8,-8 8,-157 249,-157 249,-8 8,-8"/>
<text text-anchor="middle" x="128.5" y="-141.8" font-family="Helvetica,sans-Serif" font-size="14.00">Replication hierarchy</text>
</g>
<!-- nodeR1 -->
<g id="node1" class="node">
<title>nodeR1</title>
<polygon fill="lightblue" stroke="black" points="135.5,-89.5 135.5,-125.5 240.5,-125.5 240.5,-89.5 135.5,-89.5"/>
<text text-anchor="middle" x="150" y="-103.8" font-family="Helvetica,sans-Serif" font-size="14.00">r1</text>
<polyline fill="none" stroke="black" points="164.5,-89.5 164.5,-125.5"/>
<text text-anchor="middle" x="177.5" y="-103.8" font-family="Helvetica,sans-Serif" font-size="14.00">A</text>
<polyline fill="none" stroke="black" points="190.5,-89.5 190.5,-125.5"/>
<text text-anchor="middle" x="203" y="-103.8" font-family="Helvetica,sans-Serif" font-size="14.00">b</text>
<polyline fill="none" stroke="black" points="215.5,-89.5 215.5,-125.5"/>
<text text-anchor="middle" x="228" y="-103.8" font-family="Helvetica,sans-Serif" font-size="14.00">d</text>
</g>
<!-- nodeR4 -->
<g id="node4" class="node">
<title>nodeR4</title>
<polygon fill="lightcyan" stroke="black" points="180,-16.5 180,-52.5 234,-52.5 234,-16.5 180,-16.5"/>
<text text-anchor="middle" x="194.5" y="-30.8" font-family="Helvetica,sans-Serif" font-size="14.00">r4</text>
<polyline fill="none" stroke="black" points="209,-16.5 209,-52.5"/>
<text text-anchor="middle" x="221.5" y="-30.8" font-family="Helvetica,sans-Serif" font-size="14.00">J</text>
</g>
<!-- nodeR1&#45;&gt;nodeR4 -->
<g id="edge2" class="edge">
<title>nodeR1&#45;&gt;nodeR4</title>
<path fill="none" stroke="black" d="M195.32,-79.14C197.75,-70.06 200.38,-60.23 202.53,-52.21"/>
<polygon fill="black" stroke="black" points="191.71,-78.11 192.5,-88.67 198.47,-79.92 191.71,-78.11"/>
</g>
<!-- nodeR2 -->
<g id="node2" class="node">
<title>nodeR2</title>
<polygon fill="#eedd82" stroke="black" points="16.5,-89.5 16.5,-125.5 117.5,-125.5 117.5,-89.5 16.5,-89.5"/>
<text text-anchor="middle" x="31" y="-103.8" font-family="Helvetica,sans-Serif" font-size="14.00">r2</text>
<polyline fill="none" stroke="black" points="45.5,-89.5 45.5,-125.5"/>
<text text-anchor="middle" x="59" y="-103.8" font-family="Helvetica,sans-Serif" font-size="14.00">D</text>
<polyline fill="none" stroke="black" points="72.5,-89.5 72.5,-125.5"/>
<text text-anchor="middle" x="83" y="-103.8" font-family="Helvetica,sans-Serif" font-size="14.00">f</text>
<polyline fill="none" stroke="black" points="93.5,-89.5 93.5,-125.5"/>
<text text-anchor="middle" x="105.5" y="-103.8" font-family="Helvetica,sans-Serif" font-size="14.00">h</text>
</g>
<!-- nodeR3 -->
<g id="node3" class="node">
<title>nodeR3</title>
<polygon fill="lightcoral" stroke="black" points="16,-16.5 16,-52.5 162,-52.5 162,-16.5 16,-16.5"/>
<text text-anchor="middle" x="30.5" y="-30.8" font-family="Helvetica,sans-Serif" font-size="14.00">r3</text>
<polyline fill="none" stroke="black" points="45,-16.5 45,-52.5"/>
<text text-anchor="middle" x="59" y="-30.8" font-family="Helvetica,sans-Serif" font-size="14.00">G</text>
<polyline fill="none" stroke="black" points="73,-16.5 73,-52.5"/>
<text text-anchor="middle" x="83" y="-30.8" font-family="Helvetica,sans-Serif" font-size="14.00">i</text>
<polyline fill="none" stroke="black" points="93,-16.5 93,-52.5"/>
<text text-anchor="middle" x="106" y="-30.8" font-family="Helvetica,sans-Serif" font-size="14.00">H</text>
<polyline fill="none" stroke="black" points="119,-16.5 119,-52.5"/>
<text text-anchor="middle" x="129" y="-30.8" font-family="Helvetica,sans-Serif" font-size="14.00">j</text>
<polyline fill="none" stroke="black" points="139,-16.5 139,-52.5"/>
<text text-anchor="middle" x="150.5" y="-30.8" font-family="Helvetica,sans-Serif" font-size="14.00">k</text>
</g>
<!-- nodeR2&#45;&gt;nodeR3 -->
<g id="edge1" class="edge">
<title>nodeR2&#45;&gt;nodeR3</title>
<path fill="none" stroke="black" d="M75.38,-79.44C78.22,-70.28 81.31,-60.32 83.82,-52.21"/>
<polygon fill="black" stroke="black" points="71.83,-78.09 72.21,-88.67 78.52,-80.16 71.83,-78.09"/>
</g>
</g>
</svg>
