<?xml version="1.0" encoding="UTF-8" standalone="no"?>
<!DOCTYPE svg PUBLIC "-//W3C//DTD SVG 1.1//EN"
 "http://www.w3.org/Graphics/SVG/1.1/DTD/svg11.dtd">
<!-- Generated by graphviz version 8.0.2 (20230410.1723)
 -->
<!-- Title: states Pages: 1 -->
<svg width="382pt" height="117pt"
 viewBox="0.00 0.00 381.50 117.00" xmlns="http://www.w3.org/2000/svg" xmlns:xlink="http://www.w3.org/1999/xlink">
<g id="graph0" class="graph" transform="scale(1 1) rotate(0) translate(4 113)">
<title>states</title>
<polygon fill="white" stroke="none" points="-4,4 -4,-113 377.5,-113 377.5,4 -4,4"/>
<!-- replication -->
<g id="node1" class="node">
<title>replication</title>
<polygon fill="none" stroke="black" points="103,-36 0,-36 0,0 103,0 103,-36"/>
<text text-anchor="middle" x="51.5" y="-14.3" font-family="Times New Roman,serif" font-size="14.00">enf::Replication</text>
</g>
<!-- rplNode -->
<g id="node2" class="node">
<title>rplNode</title>
<polygon fill="none" stroke="black" points="258,-36 167,-36 167,0 258,0 258,-36"/>
<text text-anchor="middle" x="212.5" y="-14.3" font-family="Times New Roman,serif" font-size="14.00">enf::RplNode</text>
</g>
<!-- replication&#45;&gt;rplNode -->
<g id="edge1" class="edge">
<title>replication&#45;&gt;rplNode</title>
<path fill="none" stroke="black" stroke-dasharray="5,2" d="M103.33,-18C120.07,-18 138.71,-18 155.79,-18"/>
<polygon fill="black" stroke="black" points="155.74,-21.5 165.74,-18 155.74,-14.5 155.74,-21.5"/>
<text text-anchor="middle" x="135" y="-3.8" font-family="Times New Roman,serif" font-size="14.00">Register</text>
</g>
<!-- userItem -->
<g id="node4" class="node">
<title>userItem</title>
<polygon fill="none" stroke="black" points="361.5,-36 293.5,-36 293.5,0 361.5,0 361.5,-36"/>
<text text-anchor="middle" x="327.5" y="-14.3" font-family="Times New Roman,serif" font-size="14.00">UserItem</text>
</g>
<!-- rplNode&#45;&gt;userItem -->
<g id="edge3" class="edge">
<title>rplNode&#45;&gt;userItem</title>
<path fill="none" stroke="black" d="M258.32,-18C266.31,-18 274.3,-18 282.29,-18"/>
<polygon fill="black" stroke="black" points="282.18,-21.5 292.18,-18 282.18,-14.5 282.18,-21.5"/>
</g>
<!-- baseItem -->
<g id="node3" class="node">
<title>baseItem</title>
<polygon fill="none" stroke="black" points="373.5,-109 281.5,-109 281.5,-73 373.5,-73 373.5,-109"/>
<text text-anchor="middle" x="327.5" y="-87.3" font-family="Times New Roman,serif" font-size="14.00">enf::BaseItem</text>
</g>
<!-- userItem&#45;&gt;baseItem -->
<g id="edge2" class="edge">
<title>userItem&#45;&gt;baseItem</title>
<path fill="none" stroke="black" d="M327.5,-36.19C327.5,-43.95 327.5,-53.32 327.5,-62.05"/>
<polygon fill="none" stroke="black" points="324,-61.97 327.5,-71.97 331,-61.97 324,-61.97"/>
</g>
</g>
</svg>
