<?xml version="1.0" encoding="UTF-8" standalone="no"?>
<!DOCTYPE svg PUBLIC "-//W3C//DTD SVG 1.1//EN"
 "http://www.w3.org/Graphics/SVG/1.1/DTD/svg11.dtd">
<!-- Generated by graphviz version 8.0.2 (20230410.1723)
 -->
<!-- Title: g Pages: 1 -->
<svg width="348pt" height="216pt"
 viewBox="0.00 0.00 348.00 216.00" xmlns="http://www.w3.org/2000/svg" xmlns:xlink="http://www.w3.org/1999/xlink">
<g id="graph0" class="graph" transform="scale(1 1) rotate(0) translate(4 212)">
<title>g</title>
<polygon fill="white" stroke="none" points="-4,4 -4,-212 344,-212 344,4 -4,4"/>
<g id="clust2" class="cluster">
<title>cluster_RplHierarchy</title>
<polygon fill="none" stroke="black" points="184,-107.5 184,-183.5 332,-183.5 332,-107.5 184,-107.5"/>
<text text-anchor="middle" x="258" y="-168.3" font-family="Helvetica,sans-Serif" font-size="14.00">Replication hierarchy</text>
</g>
<g id="clust1" class="cluster">
<title>cluster_EntityHierarchy</title>
<polygon fill="none" stroke="black" points="8,-8 8,-200 176,-200 176,-8 8,-8"/>
<text text-anchor="middle" x="92" y="-184.8" font-family="Helvetica,sans-Serif" font-size="14.00">Entity hierarchy (prefab)</text>
</g>
<!-- entA -->
<g id="node1" class="node">
<title>entA</title>
<polygon fill="none" stroke="black" points="65,-99.5 65,-168.5 119,-168.5 119,-99.5 65,-99.5"/>
<text text-anchor="middle" x="78.5" y="-130.3" font-family="Helvetica,sans-Serif" font-size="14.00">A</text>
<polyline fill="none" stroke="black" points="92,-99.5 92,-168.5"/>
<text text-anchor="middle" x="105.5" y="-153.3" font-family="Helvetica,sans-Serif" font-size="14.00">a</text>
<polyline fill="none" stroke="black" points="92,-145.5 119,-145.5"/>
<text text-anchor="middle" x="105.5" y="-130.3" font-family="Helvetica,sans-Serif" font-size="14.00">b</text>
<polyline fill="none" stroke="black" points="92,-122.5 119,-122.5"/>
<text text-anchor="middle" x="105.5" y="-107.3" font-family="Helvetica,sans-Serif" font-size="14.00">c</text>
</g>
<!-- entB -->
<g id="node2" class="node">
<title>entB</title>
<polygon fill="lightblue" stroke="black" points="16.5,-16.5 16.5,-62.5 167.5,-62.5 167.5,-16.5 16.5,-16.5"/>
<text text-anchor="middle" x="29.5" y="-35.8" font-family="Helvetica,sans-Serif" font-size="14.00">B</text>
<polyline fill="none" stroke="black" points="42.5,-16.5 42.5,-62.5"/>
<text text-anchor="middle" x="105" y="-47.3" font-family="Helvetica,sans-Serif" font-size="14.00">r: RplComponent</text>
<polyline fill="none" stroke="black" points="42.5,-39.5 167.5,-39.5"/>
<text text-anchor="middle" x="105" y="-24.3" font-family="Helvetica,sans-Serif" font-size="14.00">e</text>
</g>
<!-- entA&#45;&gt;entB -->
<g id="edge1" class="edge">
<title>entA&#45;&gt;entB</title>
<path fill="none" stroke="black" d="M92,-88.9C92,-79.65 92,-70.3 92,-62.3"/>
<polygon fill="black" stroke="black" points="88.5,-88.61 92,-98.61 95.5,-88.61 88.5,-88.61"/>
</g>
<!-- nodeA -->
<g id="node3" class="node">
<title>nodeA</title>
<polygon fill="lightblue" stroke="black" points="222,-116 222,-152 294,-152 294,-116 222,-116"/>
<text text-anchor="middle" x="232.5" y="-130.3" font-family="Helvetica,sans-Serif" font-size="14.00">r</text>
<polyline fill="none" stroke="black" points="243,-116 243,-152"/>
<text text-anchor="middle" x="256" y="-130.3" font-family="Helvetica,sans-Serif" font-size="14.00">B</text>
<polyline fill="none" stroke="black" points="269,-116 269,-152"/>
<text text-anchor="middle" x="281.5" y="-130.3" font-family="Helvetica,sans-Serif" font-size="14.00">e</text>
</g>
</g>
</svg>
