<?xml version="1.0" encoding="UTF-8" standalone="no"?>
<!DOCTYPE svg PUBLIC "-//W3C//DTD SVG 1.1//EN"
 "http://www.w3.org/Graphics/SVG/1.1/DTD/svg11.dtd">
<!-- Generated by graphviz version 8.0.2 (20230410.1723)
 -->
<!-- Title: WorldOccluderEntityClass Pages: 1 -->
<svg width="139pt" height="192pt"
 viewBox="0.00 0.00 139.00 192.00" xmlns="http://www.w3.org/2000/svg" xmlns:xlink="http://www.w3.org/1999/xlink">
<g id="graph0" class="graph" transform="scale(1 1) rotate(0) translate(4 188)">
<title>WorldOccluderEntityClass</title>
<!-- Node1 -->
<g id="node1" class="node">
<title>Node1</title>
<g id="a_node1"><a xlink:title=" ">
<polygon fill="#999999" stroke="#666666" points="131,-19 0,-19 0,0 131,0 131,-19"/>
<text text-anchor="middle" x="65.5" y="-7" font-family="Helvetica,sans-Serif" font-size="10.00">WorldOccluderEntityClass</text>
</a>
</g>
</g>
<!-- Node2 -->
<g id="node2" class="node">
<title>Node2</title>
<g id="a_node2"><a xlink:href="interfaceVolumeEntityClass.html" target="_top" xlink:title=" ">
<polygon fill="white" stroke="#666666" points="115.5,-74 15.5,-74 15.5,-55 115.5,-55 115.5,-74"/>
<text text-anchor="middle" x="65.5" y="-62" font-family="Helvetica,sans-Serif" font-size="10.00">VolumeEntityClass</text>
</a>
</g>
</g>
<!-- Node2&#45;&gt;Node1 -->
<g id="edge1" class="edge">
<title>Node2&#45;&gt;Node1</title>
<path fill="none" stroke="#63b8ff" d="M65.5,-43.93C65.5,-35.53 65.5,-26.13 65.5,-19.44"/>
<polygon fill="#63b8ff" stroke="#63b8ff" points="62,-43.75 65.5,-53.75 69,-43.75 62,-43.75"/>
</g>
<!-- Node3 -->
<g id="node3" class="node">
<title>Node3</title>
<g id="a_node3"><a xlink:href="interfaceGenericEntityClass.html" target="_top" xlink:title=" ">
<polygon fill="white" stroke="#666666" points="116,-129 15,-129 15,-110 116,-110 116,-129"/>
<text text-anchor="middle" x="65.5" y="-117" font-family="Helvetica,sans-Serif" font-size="10.00">GenericEntityClass</text>
</a>
</g>
</g>
<!-- Node3&#45;&gt;Node2 -->
<g id="edge2" class="edge">
<title>Node3&#45;&gt;Node2</title>
<path fill="none" stroke="#63b8ff" d="M65.5,-98.93C65.5,-90.53 65.5,-81.13 65.5,-74.44"/>
<polygon fill="#63b8ff" stroke="#63b8ff" points="62,-98.75 65.5,-108.75 69,-98.75 62,-98.75"/>
</g>
<!-- Node4 -->
<g id="node4" class="node">
<title>Node4</title>
<g id="a_node4"><a xlink:href="interfaceEntityPrefabData.html" target="_top" xlink:title="Shared object with constant data for enf::EntitySource from prefab.">
<polygon fill="white" stroke="#666666" points="110.5,-184 20.5,-184 20.5,-165 110.5,-165 110.5,-184"/>
<text text-anchor="middle" x="65.5" y="-172" font-family="Helvetica,sans-Serif" font-size="10.00">EntityPrefabData</text>
</a>
</g>
</g>
<!-- Node4&#45;&gt;Node3 -->
<g id="edge3" class="edge">
<title>Node4&#45;&gt;Node3</title>
<path fill="none" stroke="#63b8ff" d="M65.5,-153.93C65.5,-145.53 65.5,-136.13 65.5,-129.44"/>
<polygon fill="#63b8ff" stroke="#63b8ff" points="62,-153.75 65.5,-163.75 69,-153.75 62,-153.75"/>
</g>
</g>
</svg>
