<?xml version="1.0" encoding="UTF-8" standalone="no"?>
<!DOCTYPE svg PUBLIC "-//W3C//DTD SVG 1.1//EN"
 "http://www.w3.org/Graphics/SVG/1.1/DTD/svg11.dtd">
<!-- Generated by graphviz version 8.0.2 (20230410.1723)
 -->
<!-- Title: LayoutWidgetBase Pages: 1 -->
<svg width="256pt" height="192pt"
 viewBox="0.00 0.00 256.00 192.00" xmlns="http://www.w3.org/2000/svg" xmlns:xlink="http://www.w3.org/1999/xlink">
<g id="graph0" class="graph" transform="scale(1 1) rotate(0) translate(4 188)">
<title>LayoutWidgetBase</title>
<!-- Node1 -->
<g id="node1" class="node">
<title>Node1</title>
<g id="a_node1"><a xlink:title="LayoutWidgetBase class.">
<polygon fill="#999999" stroke="#666666" points="175.5,-74 76.5,-74 76.5,-55 175.5,-55 175.5,-74"/>
<text text-anchor="middle" x="126" y="-62" font-family="Helvetica,sans-Serif" font-size="10.00">LayoutWidgetBase</text>
</a>
</g>
</g>
<!-- Node4 -->
<g id="node4" class="node">
<title>Node4</title>
<g id="a_node4"><a xlink:href="interfaceHorizontalLayoutWidget.html" target="_top" xlink:title=" ">
<polygon fill="white" stroke="#666666" points="120,-19 0,-19 0,0 120,0 120,-19"/>
<text text-anchor="middle" x="60" y="-7" font-family="Helvetica,sans-Serif" font-size="10.00">HorizontalLayoutWidget</text>
</a>
</g>
</g>
<!-- Node1&#45;&gt;Node4 -->
<g id="edge3" class="edge">
<title>Node1&#45;&gt;Node4</title>
<path fill="none" stroke="#63b8ff" d="M106.25,-47.64C94.73,-38.39 80.61,-27.05 71.03,-19.36"/>
<polygon fill="#63b8ff" stroke="#63b8ff" points="103.82,-50.98 113.8,-54.51 108.2,-45.52 103.82,-50.98"/>
</g>
<!-- Node5 -->
<g id="node5" class="node">
<title>Node5</title>
<g id="a_node5"><a xlink:href="interfaceVerticalLayoutWidget.html" target="_top" xlink:title=" ">
<polygon fill="white" stroke="#666666" points="248,-19 138,-19 138,0 248,0 248,-19"/>
<text text-anchor="middle" x="193" y="-7" font-family="Helvetica,sans-Serif" font-size="10.00">VerticalLayoutWidget</text>
</a>
</g>
</g>
<!-- Node1&#45;&gt;Node5 -->
<g id="edge4" class="edge">
<title>Node1&#45;&gt;Node5</title>
<path fill="none" stroke="#63b8ff" d="M145.7,-47.92C157.46,-38.61 171.98,-27.13 181.8,-19.36"/>
<polygon fill="#63b8ff" stroke="#63b8ff" points="144.04,-45.56 138.37,-54.51 148.38,-51.05 144.04,-45.56"/>
</g>
<!-- Node2 -->
<g id="node2" class="node">
<title>Node2</title>
<g id="a_node2"><a xlink:href="interfaceWidget.html" target="_top" xlink:title=" ">
<polygon fill="white" stroke="#666666" points="149.5,-129 102.5,-129 102.5,-110 149.5,-110 149.5,-129"/>
<text text-anchor="middle" x="126" y="-117" font-family="Helvetica,sans-Serif" font-size="10.00">Widget</text>
</a>
</g>
</g>
<!-- Node2&#45;&gt;Node1 -->
<g id="edge1" class="edge">
<title>Node2&#45;&gt;Node1</title>
<path fill="none" stroke="#63b8ff" d="M126,-98.93C126,-90.53 126,-81.13 126,-74.44"/>
<polygon fill="#63b8ff" stroke="#63b8ff" points="122.5,-98.75 126,-108.75 129.5,-98.75 122.5,-98.75"/>
</g>
<!-- Node3 -->
<g id="node3" class="node">
<title>Node3</title>
<g id="a_node3"><a xlink:href="interfaceManaged.html" target="_top" xlink:title=" ">
<polygon fill="white" stroke="#666666" points="154,-184 98,-184 98,-165 154,-165 154,-184"/>
<text text-anchor="middle" x="126" y="-172" font-family="Helvetica,sans-Serif" font-size="10.00">Managed</text>
</a>
</g>
</g>
<!-- Node3&#45;&gt;Node2 -->
<g id="edge2" class="edge">
<title>Node3&#45;&gt;Node2</title>
<path fill="none" stroke="#63b8ff" d="M126,-153.93C126,-145.53 126,-136.13 126,-129.44"/>
<polygon fill="#63b8ff" stroke="#63b8ff" points="122.5,-153.75 126,-163.75 129.5,-153.75 122.5,-153.75"/>
</g>
</g>
</svg>
