<?xml version="1.0" encoding="UTF-8" standalone="no"?>
<!DOCTYPE svg PUBLIC "-//W3C//DTD SVG 1.1//EN"
 "http://www.w3.org/Graphics/SVG/1.1/DTD/svg11.dtd">
<!-- Generated by graphviz version 8.0.2 (20230410.1723)
 -->
<!-- Title: DecoratorPathCompletedTest Pages: 1 -->
<svg width="152pt" height="247pt"
 viewBox="0.00 0.00 152.00 247.00" xmlns="http://www.w3.org/2000/svg" xmlns:xlink="http://www.w3.org/1999/xlink">
<g id="graph0" class="graph" transform="scale(1 1) rotate(0) translate(4 243)">
<title>DecoratorPathCompletedTest</title>
<!-- Node1 -->
<g id="node1" class="node">
<title>Node1</title>
<g id="a_node1"><a xlink:title=" ">
<polygon fill="#999999" stroke="#666666" points="144,-19 0,-19 0,0 144,0 144,-19"/>
<text text-anchor="middle" x="72" y="-7" font-family="Helvetica,sans-Serif" font-size="10.00">DecoratorPathCompletedTest</text>
</a>
</g>
</g>
<!-- Node2 -->
<g id="node2" class="node">
<title>Node2</title>
<g id="a_node2"><a xlink:href="interfaceDecorator.html" target="_top" xlink:title=" ">
<polygon fill="white" stroke="#666666" points="101.5,-74 42.5,-74 42.5,-55 101.5,-55 101.5,-74"/>
<text text-anchor="middle" x="72" y="-62" font-family="Helvetica,sans-Serif" font-size="10.00">Decorator</text>
</a>
</g>
</g>
<!-- Node2&#45;&gt;Node1 -->
<g id="edge1" class="edge">
<title>Node2&#45;&gt;Node1</title>
<path fill="none" stroke="#63b8ff" d="M72,-43.93C72,-35.53 72,-26.13 72,-19.44"/>
<polygon fill="#63b8ff" stroke="#63b8ff" points="68.5,-43.75 72,-53.75 75.5,-43.75 68.5,-43.75"/>
</g>
<!-- Node3 -->
<g id="node3" class="node">
<title>Node3</title>
<g id="a_node3"><a xlink:href="interfaceNode.html" target="_top" xlink:title=" ">
<polygon fill="white" stroke="#666666" points="91.5,-129 52.5,-129 52.5,-110 91.5,-110 91.5,-129"/>
<text text-anchor="middle" x="72" y="-117" font-family="Helvetica,sans-Serif" font-size="10.00">Node</text>
</a>
</g>
</g>
<!-- Node3&#45;&gt;Node2 -->
<g id="edge2" class="edge">
<title>Node3&#45;&gt;Node2</title>
<path fill="none" stroke="#63b8ff" d="M72,-98.93C72,-90.53 72,-81.13 72,-74.44"/>
<polygon fill="#63b8ff" stroke="#63b8ff" points="68.5,-98.75 72,-108.75 75.5,-98.75 68.5,-98.75"/>
</g>
<!-- Node4 -->
<g id="node4" class="node">
<title>Node4</title>
<g id="a_node4"><a xlink:href="interfaceScriptAndConfig.html" target="_top" xlink:title="Base class for classes which combine enf::Class and enf::BaseClass (in C++).">
<polygon fill="white" stroke="#666666" points="115,-184 29,-184 29,-165 115,-165 115,-184"/>
<text text-anchor="middle" x="72" y="-172" font-family="Helvetica,sans-Serif" font-size="10.00">ScriptAndConfig</text>
</a>
</g>
</g>
<!-- Node4&#45;&gt;Node3 -->
<g id="edge3" class="edge">
<title>Node4&#45;&gt;Node3</title>
<path fill="none" stroke="#63b8ff" d="M72,-153.93C72,-145.53 72,-136.13 72,-129.44"/>
<polygon fill="#63b8ff" stroke="#63b8ff" points="68.5,-153.75 72,-163.75 75.5,-153.75 68.5,-153.75"/>
</g>
<!-- Node5 -->
<g id="node5" class="node">
<title>Node5</title>
<g id="a_node5"><a xlink:href="interfaceManaged.html" target="_top" xlink:title=" ">
<polygon fill="white" stroke="#666666" points="100,-239 44,-239 44,-220 100,-220 100,-239"/>
<text text-anchor="middle" x="72" y="-227" font-family="Helvetica,sans-Serif" font-size="10.00">Managed</text>
</a>
</g>
</g>
<!-- Node5&#45;&gt;Node4 -->
<g id="edge4" class="edge">
<title>Node5&#45;&gt;Node4</title>
<path fill="none" stroke="#63b8ff" d="M72,-208.93C72,-200.53 72,-191.13 72,-184.44"/>
<polygon fill="#63b8ff" stroke="#63b8ff" points="68.5,-208.75 72,-218.75 75.5,-208.75 68.5,-208.75"/>
</g>
</g>
</svg>
