<?xml version="1.0" encoding="UTF-8" standalone="no"?>
<!DOCTYPE svg PUBLIC "-//W3C//DTD SVG 1.1//EN"
 "http://www.w3.org/Graphics/SVG/1.1/DTD/svg11.dtd">
<!-- Generated by graphviz version 8.0.2 (20230410.1723)
 -->
<!-- Title: SplineTerrainGeneratorEntityBase Pages: 1 -->
<svg width="172pt" height="247pt"
 viewBox="0.00 0.00 172.00 247.00" xmlns="http://www.w3.org/2000/svg" xmlns:xlink="http://www.w3.org/1999/xlink">
<g id="graph0" class="graph" transform="scale(1 1) rotate(0) translate(4 243)">
<title>SplineTerrainGeneratorEntityBase</title>
<!-- Node1 -->
<g id="node1" class="node">
<title>Node1</title>
<g id="a_node1"><a xlink:title=" ">
<polygon fill="#999999" stroke="#666666" points="164,-19 0,-19 0,0 164,0 164,-19"/>
<text text-anchor="middle" x="82" y="-7" font-family="Helvetica,sans-Serif" font-size="10.00">SplineTerrainGeneratorEntityBase</text>
</a>
</g>
</g>
<!-- Node2 -->
<g id="node2" class="node">
<title>Node2</title>
<g id="a_node2"><a xlink:href="interfaceGeneratorBaseEntity.html" target="_top" xlink:title=" ">
<polygon fill="white" stroke="#666666" points="135.5,-74 28.5,-74 28.5,-55 135.5,-55 135.5,-74"/>
<text text-anchor="middle" x="82" y="-62" font-family="Helvetica,sans-Serif" font-size="10.00">GeneratorBaseEntity</text>
</a>
</g>
</g>
<!-- Node2&#45;&gt;Node1 -->
<g id="edge1" class="edge">
<title>Node2&#45;&gt;Node1</title>
<path fill="none" stroke="#63b8ff" d="M82,-43.93C82,-35.53 82,-26.13 82,-19.44"/>
<polygon fill="#63b8ff" stroke="#63b8ff" points="78.5,-43.75 82,-53.75 85.5,-43.75 78.5,-43.75"/>
</g>
<!-- Node3 -->
<g id="node3" class="node">
<title>Node3</title>
<g id="a_node3"><a xlink:href="interfaceGenericEntity.html" target="_top" xlink:title="Base entity class.">
<polygon fill="white" stroke="#666666" points="120,-129 44,-129 44,-110 120,-110 120,-129"/>
<text text-anchor="middle" x="82" y="-117" font-family="Helvetica,sans-Serif" font-size="10.00">GenericEntity</text>
</a>
</g>
</g>
<!-- Node3&#45;&gt;Node2 -->
<g id="edge2" class="edge">
<title>Node3&#45;&gt;Node2</title>
<path fill="none" stroke="#63b8ff" d="M82,-98.93C82,-90.53 82,-81.13 82,-74.44"/>
<polygon fill="#63b8ff" stroke="#63b8ff" points="78.5,-98.75 82,-108.75 85.5,-98.75 78.5,-98.75"/>
</g>
<!-- Node4 -->
<g id="node4" class="node">
<title>Node4</title>
<g id="a_node4"><a xlink:href="interfaceIEntity.html" target="_top" xlink:title=" ">
<polygon fill="white" stroke="#666666" points="104,-184 60,-184 60,-165 104,-165 104,-184"/>
<text text-anchor="middle" x="82" y="-172" font-family="Helvetica,sans-Serif" font-size="10.00">IEntity</text>
</a>
</g>
</g>
<!-- Node4&#45;&gt;Node3 -->
<g id="edge3" class="edge">
<title>Node4&#45;&gt;Node3</title>
<path fill="none" stroke="#63b8ff" d="M82,-153.93C82,-145.53 82,-136.13 82,-129.44"/>
<polygon fill="#63b8ff" stroke="#63b8ff" points="78.5,-153.75 82,-163.75 85.5,-153.75 78.5,-153.75"/>
</g>
<!-- Node5 -->
<g id="node5" class="node">
<title>Node5</title>
<g id="a_node5"><a xlink:href="interfaceManaged.html" target="_top" xlink:title=" ">
<polygon fill="white" stroke="#666666" points="110,-239 54,-239 54,-220 110,-220 110,-239"/>
<text text-anchor="middle" x="82" y="-227" font-family="Helvetica,sans-Serif" font-size="10.00">Managed</text>
</a>
</g>
</g>
<!-- Node5&#45;&gt;Node4 -->
<g id="edge4" class="edge">
<title>Node5&#45;&gt;Node4</title>
<path fill="none" stroke="#63b8ff" d="M82,-208.93C82,-200.53 82,-191.13 82,-184.44"/>
<polygon fill="#63b8ff" stroke="#63b8ff" points="78.5,-208.75 82,-218.75 85.5,-208.75 78.5,-208.75"/>
</g>
</g>
</svg>
