<?xml version="1.0" encoding="UTF-8" standalone="no"?>
<!DOCTYPE svg PUBLIC "-//W3C//DTD SVG 1.1//EN"
 "http://www.w3.org/Graphics/SVG/1.1/DTD/svg11.dtd">
<!-- Generated by graphviz version 8.0.2 (20230410.1723)
 -->
<!-- Title: AIFormationComponentClass Pages: 1 -->
<svg width="151pt" height="192pt"
 viewBox="0.00 0.00 151.00 192.00" xmlns="http://www.w3.org/2000/svg" xmlns:xlink="http://www.w3.org/1999/xlink">
<g id="graph0" class="graph" transform="scale(1 1) rotate(0) translate(4 188)">
<title>AIFormationComponentClass</title>
<!-- Node1 -->
<g id="node1" class="node">
<title>Node1</title>
<g id="a_node1"><a xlink:title=" ">
<polygon fill="#999999" stroke="#666666" points="143,-19 0,-19 0,0 143,0 143,-19"/>
<text text-anchor="middle" x="71.5" y="-7" font-family="Helvetica,sans-Serif" font-size="10.00">AIFormationComponentClass</text>
</a>
</g>
</g>
<!-- Node2 -->
<g id="node2" class="node">
<title>Node2</title>
<g id="a_node2"><a xlink:href="interfaceAIComponentClass.html" target="_top" xlink:title=" ">
<polygon fill="white" stroke="#666666" points="121.5,-74 21.5,-74 21.5,-55 121.5,-55 121.5,-74"/>
<text text-anchor="middle" x="71.5" y="-62" font-family="Helvetica,sans-Serif" font-size="10.00">AIComponentClass</text>
</a>
</g>
</g>
<!-- Node2&#45;&gt;Node1 -->
<g id="edge1" class="edge">
<title>Node2&#45;&gt;Node1</title>
<path fill="none" stroke="#63b8ff" d="M71.5,-43.93C71.5,-35.53 71.5,-26.13 71.5,-19.44"/>
<polygon fill="#63b8ff" stroke="#63b8ff" points="68,-43.75 71.5,-53.75 75,-43.75 68,-43.75"/>
</g>
<!-- Node3 -->
<g id="node3" class="node">
<title>Node3</title>
<g id="a_node3"><a xlink:href="interfaceGenericComponentClass.html" target="_top" xlink:title=" ">
<polygon fill="white" stroke="#666666" points="134,-129 9,-129 9,-110 134,-110 134,-129"/>
<text text-anchor="middle" x="71.5" y="-117" font-family="Helvetica,sans-Serif" font-size="10.00">GenericComponentClass</text>
</a>
</g>
</g>
<!-- Node3&#45;&gt;Node2 -->
<g id="edge2" class="edge">
<title>Node3&#45;&gt;Node2</title>
<path fill="none" stroke="#63b8ff" d="M71.5,-98.93C71.5,-90.53 71.5,-81.13 71.5,-74.44"/>
<polygon fill="#63b8ff" stroke="#63b8ff" points="68,-98.75 71.5,-108.75 75,-98.75 68,-98.75"/>
</g>
<!-- Node4 -->
<g id="node4" class="node">
<title>Node4</title>
<g id="a_node4"><a xlink:href="interfaceEntityComponentPrefabData.html" target="_top" xlink:title="Shared object with constant data for components from prefab.">
<polygon fill="white" stroke="#666666" points="141.5,-184 1.5,-184 1.5,-165 141.5,-165 141.5,-184"/>
<text text-anchor="middle" x="71.5" y="-172" font-family="Helvetica,sans-Serif" font-size="10.00">EntityComponentPrefabData</text>
</a>
</g>
</g>
<!-- Node4&#45;&gt;Node3 -->
<g id="edge3" class="edge">
<title>Node4&#45;&gt;Node3</title>
<path fill="none" stroke="#63b8ff" d="M71.5,-153.93C71.5,-145.53 71.5,-136.13 71.5,-129.44"/>
<polygon fill="#63b8ff" stroke="#63b8ff" points="68,-153.75 71.5,-163.75 75,-153.75 68,-153.75"/>
</g>
</g>
</svg>
