<?xml version="1.0" encoding="UTF-8" standalone="no"?>
<!DOCTYPE svg PUBLIC "-//W3C//DTD SVG 1.1//EN"
 "http://www.w3.org/Graphics/SVG/1.1/DTD/svg11.dtd">
<!-- Generated by graphviz version 8.0.2 (20230410.1723)
 -->
<!-- Title: Tuple5&lt; Class T1, Class T2, Class T3, Class T4, Class T5 &gt; Pages: 1 -->
<svg width="131pt" height="159pt"
 viewBox="0.00 0.00 131.00 159.00" xmlns="http://www.w3.org/2000/svg" xmlns:xlink="http://www.w3.org/1999/xlink">
<g id="graph0" class="graph" transform="scale(1 1) rotate(0) translate(4 155)">
<title>Tuple5&lt; Class T1, Class T2, Class T3, Class T4, Class T5 &gt;</title>
<!-- Node1 -->
<g id="node1" class="node">
<title>Node1</title>
<g id="a_node1"><a xlink:title="Tuple class template with five parameters.">
<polygon fill="#999999" stroke="#666666" points="123,-41 0,-41 0,0 123,0 123,-41"/>
<text text-anchor="start" x="8" y="-29" font-family="Helvetica,sans-Serif" font-size="10.00">Tuple5&lt; Class T1, Class</text>
<text text-anchor="start" x="8" y="-18" font-family="Helvetica,sans-Serif" font-size="10.00"> T2, Class T3, Class T4,</text>
<text text-anchor="middle" x="61.5" y="-7" font-family="Helvetica,sans-Serif" font-size="10.00"> Class T5 &gt;</text>
</a>
</g>
</g>
<!-- Node2 -->
<g id="node2" class="node">
<title>Node2</title>
<g id="a_node2"><a xlink:href="interfaceTuple.html" target="_top" xlink:title="Base Tuple class with no parameters.">
<polygon fill="white" stroke="#666666" points="81.5,-96 41.5,-96 41.5,-77 81.5,-77 81.5,-96"/>
<text text-anchor="middle" x="61.5" y="-84" font-family="Helvetica,sans-Serif" font-size="10.00">Tuple</text>
</a>
</g>
</g>
<!-- Node2&#45;&gt;Node1 -->
<g id="edge1" class="edge">
<title>Node2&#45;&gt;Node1</title>
<path fill="none" stroke="#63b8ff" d="M61.5,-65.69C61.5,-57.96 61.5,-49.11 61.5,-41.38"/>
<polygon fill="#63b8ff" stroke="#63b8ff" points="58,-65.6 61.5,-75.6 65,-65.6 58,-65.6"/>
</g>
<!-- Node3 -->
<g id="node3" class="node">
<title>Node3</title>
<g id="a_node3"><a xlink:href="interfaceManaged.html" target="_top" xlink:title=" ">
<polygon fill="white" stroke="#666666" points="89.5,-151 33.5,-151 33.5,-132 89.5,-132 89.5,-151"/>
<text text-anchor="middle" x="61.5" y="-139" font-family="Helvetica,sans-Serif" font-size="10.00">Managed</text>
</a>
</g>
</g>
<!-- Node3&#45;&gt;Node2 -->
<g id="edge2" class="edge">
<title>Node3&#45;&gt;Node2</title>
<path fill="none" stroke="#63b8ff" d="M61.5,-120.93C61.5,-112.53 61.5,-103.13 61.5,-96.44"/>
<polygon fill="#63b8ff" stroke="#63b8ff" points="58,-120.75 61.5,-130.75 65,-120.75 58,-120.75"/>
</g>
</g>
</svg>
