<?xml version="1.0" encoding="UTF-8" standalone="no"?>
<!DOCTYPE svg PUBLIC "-//W3C//DTD SVG 1.1//EN"
 "http://www.w3.org/Graphics/SVG/1.1/DTD/svg11.dtd">
<!-- Generated by graphviz version 8.0.2 (20230410.1723)
 -->
<!-- Title: WorkshopCatalogue Pages: 1 -->
<svg width="260pt" height="137pt"
 viewBox="0.00 0.00 260.00 137.00" xmlns="http://www.w3.org/2000/svg" xmlns:xlink="http://www.w3.org/1999/xlink">
<g id="graph0" class="graph" transform="scale(1 1) rotate(0) translate(4 133)">
<title>WorkshopCatalogue</title>
<!-- Node1 -->
<g id="node1" class="node">
<title>Node1</title>
<g id="a_node1"><a xlink:title=" ">
<polygon fill="#999999" stroke="#666666" points="197.5,-129 93.5,-129 93.5,-110 197.5,-110 197.5,-129"/>
<text text-anchor="middle" x="145.5" y="-117" font-family="Helvetica,sans-Serif" font-size="10.00">WorkshopCatalogue</text>
</a>
</g>
</g>
<!-- Node2 -->
<g id="node2" class="node">
<title>Node2</title>
<g id="a_node2"><a xlink:href="interfaceDownloadableCatalogue.html" target="_top" xlink:title=" ">
<polygon fill="white" stroke="#666666" points="144.5,-74 24.5,-74 24.5,-55 144.5,-55 144.5,-74"/>
<text text-anchor="middle" x="84.5" y="-62" font-family="Helvetica,sans-Serif" font-size="10.00">DownloadableCatalogue</text>
</a>
</g>
</g>
<!-- Node1&#45;&gt;Node2 -->
<g id="edge1" class="edge">
<title>Node1&#45;&gt;Node2</title>
<path fill="none" stroke="#63b8ff" d="M126.93,-102.37C116.34,-93.16 103.46,-81.98 94.69,-74.36"/>
<polygon fill="#63b8ff" stroke="#63b8ff" points="124.31,-105.59 134.15,-109.51 128.9,-100.31 124.31,-105.59"/>
</g>
<!-- Node5 -->
<g id="node5" class="node">
<title>Node5</title>
<g id="a_node5"><a xlink:href="interfaceWorkshopAuthor.html" target="_top" xlink:title=" ">
<polygon fill="white" stroke="#666666" points="252,-74 163,-74 163,-55 252,-55 252,-74"/>
<text text-anchor="middle" x="207.5" y="-62" font-family="Helvetica,sans-Serif" font-size="10.00">WorkshopAuthor</text>
</a>
</g>
</g>
<!-- Node1&#45;&gt;Node5 -->
<g id="edge4" class="edge">
<title>Node1&#45;&gt;Node5</title>
<path fill="none" stroke="#63b8ff" d="M164.37,-102.37C175.14,-93.16 188.22,-81.98 197.14,-74.36"/>
<polygon fill="#63b8ff" stroke="#63b8ff" points="162.34,-100.35 157.02,-109.51 166.89,-105.67 162.34,-100.35"/>
</g>
<!-- Node3 -->
<g id="node3" class="node">
<title>Node3</title>
<g id="a_node3"><a xlink:href="interfaceWorkshopApi.html" target="_top" xlink:title=" ">
<polygon fill="white" stroke="#666666" points="75,-19 0,-19 0,0 75,0 75,-19"/>
<text text-anchor="middle" x="37.5" y="-7" font-family="Helvetica,sans-Serif" font-size="10.00">WorkshopApi</text>
</a>
</g>
</g>
<!-- Node2&#45;&gt;Node3 -->
<g id="edge2" class="edge">
<title>Node2&#45;&gt;Node3</title>
<path fill="none" stroke="#63b8ff" d="M69.67,-46.78C61.64,-37.72 52.04,-26.9 45.43,-19.44"/>
<polygon fill="#63b8ff" stroke="#63b8ff" points="66.49,-48.59 75.74,-53.75 71.72,-43.94 66.49,-48.59"/>
</g>
<!-- Node4 -->
<g id="node4" class="node">
<title>Node4</title>
<g id="a_node4"><a xlink:href="interfaceWorldSaveApi.html" target="_top" xlink:title=" ">
<polygon fill="white" stroke="#666666" points="170,-19 93,-19 93,0 170,0 170,-19"/>
<text text-anchor="middle" x="131.5" y="-7" font-family="Helvetica,sans-Serif" font-size="10.00">WorldSaveApi</text>
</a>
</g>
</g>
<!-- Node2&#45;&gt;Node4 -->
<g id="edge3" class="edge">
<title>Node2&#45;&gt;Node4</title>
<path fill="none" stroke="#63b8ff" d="M99.33,-46.78C107.36,-37.72 116.96,-26.9 123.57,-19.44"/>
<polygon fill="#63b8ff" stroke="#63b8ff" points="97.28,-43.94 93.26,-53.75 102.51,-48.59 97.28,-43.94"/>
</g>
</g>
</svg>
