<?xml version="1.0" encoding="UTF-8" standalone="no"?>
<!DOCTYPE svg PUBLIC "-//W3C//DTD SVG 1.1//EN"
 "http://www.w3.org/Graphics/SVG/1.1/DTD/svg11.dtd">
<!-- Generated by graphviz version 8.0.2 (20230410.1723)
 -->
<!-- Title: AIControlComponentClass Pages: 1 -->
<svg width="148pt" height="247pt"
 viewBox="0.00 0.00 148.00 247.00" xmlns="http://www.w3.org/2000/svg" xmlns:xlink="http://www.w3.org/1999/xlink">
<g id="graph0" class="graph" transform="scale(1 1) rotate(0) translate(4 243)">
<title>AIControlComponentClass</title>
<!-- Node1 -->
<g id="node1" class="node">
<title>Node1</title>
<g id="a_node1"><a xlink:title=" ">
<polygon fill="#999999" stroke="#666666" points="135.5,-19 4.5,-19 4.5,0 135.5,0 135.5,-19"/>
<text text-anchor="middle" x="70" y="-7" font-family="Helvetica,sans-Serif" font-size="10.00">AIControlComponentClass</text>
</a>
</g>
</g>
<!-- Node2 -->
<g id="node2" class="node">
<title>Node2</title>
<g id="a_node2"><a xlink:href="interfaceAIComponentEntityClass.html" target="_top" xlink:title=" ">
<polygon fill="white" stroke="#666666" points="132.5,-74 7.5,-74 7.5,-55 132.5,-55 132.5,-74"/>
<text text-anchor="middle" x="70" y="-62" font-family="Helvetica,sans-Serif" font-size="10.00">AIComponentEntityClass</text>
</a>
</g>
</g>
<!-- Node2&#45;&gt;Node1 -->
<g id="edge1" class="edge">
<title>Node2&#45;&gt;Node1</title>
<path fill="none" stroke="#63b8ff" d="M70,-43.93C70,-35.53 70,-26.13 70,-19.44"/>
<polygon fill="#63b8ff" stroke="#63b8ff" points="66.5,-43.75 70,-53.75 73.5,-43.75 66.5,-43.75"/>
</g>
<!-- Node3 -->
<g id="node3" class="node">
<title>Node3</title>
<g id="a_node3"><a xlink:href="interfaceAIComponentClass.html" target="_top" xlink:title=" ">
<polygon fill="white" stroke="#666666" points="120,-129 20,-129 20,-110 120,-110 120,-129"/>
<text text-anchor="middle" x="70" y="-117" font-family="Helvetica,sans-Serif" font-size="10.00">AIComponentClass</text>
</a>
</g>
</g>
<!-- Node3&#45;&gt;Node2 -->
<g id="edge2" class="edge">
<title>Node3&#45;&gt;Node2</title>
<path fill="none" stroke="#63b8ff" d="M70,-98.93C70,-90.53 70,-81.13 70,-74.44"/>
<polygon fill="#63b8ff" stroke="#63b8ff" points="66.5,-98.75 70,-108.75 73.5,-98.75 66.5,-98.75"/>
</g>
<!-- Node4 -->
<g id="node4" class="node">
<title>Node4</title>
<g id="a_node4"><a xlink:href="interfaceGenericComponentClass.html" target="_top" xlink:title=" ">
<polygon fill="white" stroke="#666666" points="132.5,-184 7.5,-184 7.5,-165 132.5,-165 132.5,-184"/>
<text text-anchor="middle" x="70" y="-172" font-family="Helvetica,sans-Serif" font-size="10.00">GenericComponentClass</text>
</a>
</g>
</g>
<!-- Node4&#45;&gt;Node3 -->
<g id="edge3" class="edge">
<title>Node4&#45;&gt;Node3</title>
<path fill="none" stroke="#63b8ff" d="M70,-153.93C70,-145.53 70,-136.13 70,-129.44"/>
<polygon fill="#63b8ff" stroke="#63b8ff" points="66.5,-153.75 70,-163.75 73.5,-153.75 66.5,-153.75"/>
</g>
<!-- Node5 -->
<g id="node5" class="node">
<title>Node5</title>
<g id="a_node5"><a xlink:href="interfaceEntityComponentPrefabData.html" target="_top" xlink:title="Shared object with constant data for components from prefab.">
<polygon fill="white" stroke="#666666" points="140,-239 0,-239 0,-220 140,-220 140,-239"/>
<text text-anchor="middle" x="70" y="-227" font-family="Helvetica,sans-Serif" font-size="10.00">EntityComponentPrefabData</text>
</a>
</g>
</g>
<!-- Node5&#45;&gt;Node4 -->
<g id="edge4" class="edge">
<title>Node5&#45;&gt;Node4</title>
<path fill="none" stroke="#63b8ff" d="M70,-208.93C70,-200.53 70,-191.13 70,-184.44"/>
<polygon fill="#63b8ff" stroke="#63b8ff" points="66.5,-208.75 70,-218.75 73.5,-208.75 66.5,-208.75"/>
</g>
</g>
</svg>
