<?xml version="1.0" encoding="UTF-8" standalone="no"?>
<!DOCTYPE svg PUBLIC "-//W3C//DTD SVG 1.1//EN"
 "http://www.w3.org/Graphics/SVG/1.1/DTD/svg11.dtd">
<!-- Generated by graphviz version 8.0.2 (20230410.1723)
 -->
<!-- Title: ParticleEditor Pages: 1 -->
<svg width="87pt" height="137pt"
 viewBox="0.00 0.00 87.00 137.00" xmlns="http://www.w3.org/2000/svg" xmlns:xlink="http://www.w3.org/1999/xlink">
<g id="graph0" class="graph" transform="scale(1 1) rotate(0) translate(4 133)">
<title>ParticleEditor</title>
<!-- Node1 -->
<g id="node1" class="node">
<title>Node1</title>
<g id="a_node1"><a xlink:title=" ">
<polygon fill="#999999" stroke="#666666" points="77,-19 2,-19 2,0 77,0 77,-19"/>
<text text-anchor="middle" x="39.5" y="-7" font-family="Helvetica,sans-Serif" font-size="10.00">ParticleEditor</text>
</a>
</g>
</g>
<!-- Node2 -->
<g id="node2" class="node">
<title>Node2</title>
<g id="a_node2"><a xlink:href="interfaceWBModuleDef.html" target="_top" xlink:title=" ">
<polygon fill="white" stroke="#666666" points="79,-74 0,-74 0,-55 79,-55 79,-74"/>
<text text-anchor="middle" x="39.5" y="-62" font-family="Helvetica,sans-Serif" font-size="10.00">WBModuleDef</text>
</a>
</g>
</g>
<!-- Node2&#45;&gt;Node1 -->
<g id="edge1" class="edge">
<title>Node2&#45;&gt;Node1</title>
<path fill="none" stroke="#63b8ff" d="M39.5,-43.93C39.5,-35.53 39.5,-26.13 39.5,-19.44"/>
<polygon fill="#63b8ff" stroke="#63b8ff" points="36,-43.75 39.5,-53.75 43,-43.75 36,-43.75"/>
</g>
<!-- Node3 -->
<g id="node3" class="node">
<title>Node3</title>
<g id="a_node3"><a xlink:href="interfacepointer.html" target="_top" xlink:title="Plain C++ pointer, no weak pointers, no memory management.">
<polygon fill="white" stroke="#666666" points="62.5,-129 16.5,-129 16.5,-110 62.5,-110 62.5,-129"/>
<text text-anchor="middle" x="39.5" y="-117" font-family="Helvetica,sans-Serif" font-size="10.00">pointer</text>
</a>
</g>
</g>
<!-- Node3&#45;&gt;Node2 -->
<g id="edge2" class="edge">
<title>Node3&#45;&gt;Node2</title>
<path fill="none" stroke="#63b8ff" d="M39.5,-98.93C39.5,-90.53 39.5,-81.13 39.5,-74.44"/>
<polygon fill="#63b8ff" stroke="#63b8ff" points="36,-98.75 39.5,-108.75 43,-98.75 36,-98.75"/>
</g>
</g>
</svg>
