<?xml version="1.0" encoding="UTF-8" standalone="no"?>
<!DOCTYPE svg PUBLIC "-//W3C//DTD SVG 1.1//EN"
 "http://www.w3.org/Graphics/SVG/1.1/DTD/svg11.dtd">
<!-- Generated by graphviz version 8.0.2 (20230410.1723)
 -->
<!-- Title: TimeBasedGraphWidget Pages: 1 -->
<svg width="173pt" height="357pt"
 viewBox="0.00 0.00 173.00 357.00" xmlns="http://www.w3.org/2000/svg" xmlns:xlink="http://www.w3.org/1999/xlink">
<g id="graph0" class="graph" transform="scale(1 1) rotate(0) translate(4 353)">
<title>TimeBasedGraphWidget</title>
<!-- Node1 -->
<g id="node1" class="node">
<title>Node1</title>
<g id="a_node1"><a xlink:title=" ">
<polygon fill="#999999" stroke="#666666" points="143.5,-74 21.5,-74 21.5,-55 143.5,-55 143.5,-74"/>
<text text-anchor="middle" x="82.5" y="-62" font-family="Helvetica,sans-Serif" font-size="10.00">TimeBasedGraphWidget</text>
</a>
</g>
</g>
<!-- Node7 -->
<g id="node7" class="node">
<title>Node7</title>
<g id="a_node7"><a xlink:href="interfaceTimeBasedGraphWithAxesWidget.html" target="_top" xlink:title=" ">
<polygon fill="white" stroke="#666666" points="165,-19 0,-19 0,0 165,0 165,-19"/>
<text text-anchor="middle" x="82.5" y="-7" font-family="Helvetica,sans-Serif" font-size="10.00">TimeBasedGraphWithAxesWidget</text>
</a>
</g>
</g>
<!-- Node1&#45;&gt;Node7 -->
<g id="edge6" class="edge">
<title>Node1&#45;&gt;Node7</title>
<path fill="none" stroke="#63b8ff" d="M82.5,-43.93C82.5,-35.53 82.5,-26.13 82.5,-19.44"/>
<polygon fill="#63b8ff" stroke="#63b8ff" points="79,-43.75 82.5,-53.75 86,-43.75 79,-43.75"/>
</g>
<!-- Node2 -->
<g id="node2" class="node">
<title>Node2</title>
<g id="a_node2"><a xlink:href="interfaceRingBufferGraphWidget.html" target="_top" xlink:title=" ">
<polygon fill="white" stroke="#666666" points="141.5,-129 23.5,-129 23.5,-110 141.5,-110 141.5,-129"/>
<text text-anchor="middle" x="82.5" y="-117" font-family="Helvetica,sans-Serif" font-size="10.00">RingBufferGraphWidget</text>
</a>
</g>
</g>
<!-- Node2&#45;&gt;Node1 -->
<g id="edge1" class="edge">
<title>Node2&#45;&gt;Node1</title>
<path fill="none" stroke="#63b8ff" d="M82.5,-98.93C82.5,-90.53 82.5,-81.13 82.5,-74.44"/>
<polygon fill="#63b8ff" stroke="#63b8ff" points="79,-98.75 82.5,-108.75 86,-98.75 79,-98.75"/>
</g>
<!-- Node3 -->
<g id="node3" class="node">
<title>Node3</title>
<g id="a_node3"><a xlink:href="interfaceBasicGraphWidget.html" target="_top" xlink:title=" ">
<polygon fill="white" stroke="#666666" points="131.5,-184 33.5,-184 33.5,-165 131.5,-165 131.5,-184"/>
<text text-anchor="middle" x="82.5" y="-172" font-family="Helvetica,sans-Serif" font-size="10.00">BasicGraphWidget</text>
</a>
</g>
</g>
<!-- Node3&#45;&gt;Node2 -->
<g id="edge2" class="edge">
<title>Node3&#45;&gt;Node2</title>
<path fill="none" stroke="#63b8ff" d="M82.5,-153.93C82.5,-145.53 82.5,-136.13 82.5,-129.44"/>
<polygon fill="#63b8ff" stroke="#63b8ff" points="79,-153.75 82.5,-163.75 86,-153.75 79,-153.75"/>
</g>
<!-- Node4 -->
<g id="node4" class="node">
<title>Node4</title>
<g id="a_node4"><a xlink:href="interfaceUIWidget.html" target="_top" xlink:title=" ">
<polygon fill="white" stroke="#666666" points="110.5,-239 54.5,-239 54.5,-220 110.5,-220 110.5,-239"/>
<text text-anchor="middle" x="82.5" y="-227" font-family="Helvetica,sans-Serif" font-size="10.00">UIWidget</text>
</a>
</g>
</g>
<!-- Node4&#45;&gt;Node3 -->
<g id="edge3" class="edge">
<title>Node4&#45;&gt;Node3</title>
<path fill="none" stroke="#63b8ff" d="M82.5,-208.93C82.5,-200.53 82.5,-191.13 82.5,-184.44"/>
<polygon fill="#63b8ff" stroke="#63b8ff" points="79,-208.75 82.5,-218.75 86,-208.75 79,-208.75"/>
</g>
<!-- Node5 -->
<g id="node5" class="node">
<title>Node5</title>
<g id="a_node5"><a xlink:href="interfaceWidget.html" target="_top" xlink:title=" ">
<polygon fill="white" stroke="#666666" points="106,-294 59,-294 59,-275 106,-275 106,-294"/>
<text text-anchor="middle" x="82.5" y="-282" font-family="Helvetica,sans-Serif" font-size="10.00">Widget</text>
</a>
</g>
</g>
<!-- Node5&#45;&gt;Node4 -->
<g id="edge4" class="edge">
<title>Node5&#45;&gt;Node4</title>
<path fill="none" stroke="#63b8ff" d="M82.5,-263.93C82.5,-255.53 82.5,-246.13 82.5,-239.44"/>
<polygon fill="#63b8ff" stroke="#63b8ff" points="79,-263.75 82.5,-273.75 86,-263.75 79,-263.75"/>
</g>
<!-- Node6 -->
<g id="node6" class="node">
<title>Node6</title>
<g id="a_node6"><a xlink:href="interfaceManaged.html" target="_top" xlink:title=" ">
<polygon fill="white" stroke="#666666" points="110.5,-349 54.5,-349 54.5,-330 110.5,-330 110.5,-349"/>
<text text-anchor="middle" x="82.5" y="-337" font-family="Helvetica,sans-Serif" font-size="10.00">Managed</text>
</a>
</g>
</g>
<!-- Node6&#45;&gt;Node5 -->
<g id="edge5" class="edge">
<title>Node6&#45;&gt;Node5</title>
<path fill="none" stroke="#63b8ff" d="M82.5,-318.93C82.5,-310.53 82.5,-301.13 82.5,-294.44"/>
<polygon fill="#63b8ff" stroke="#63b8ff" points="79,-318.75 82.5,-328.75 86,-318.75 79,-318.75"/>
</g>
</g>
</svg>
