<?xml version="1.0" encoding="UTF-8" standalone="no"?>
<!DOCTYPE svg PUBLIC "-//W3C//DTD SVG 1.1//EN"
 "http://www.w3.org/Graphics/SVG/1.1/DTD/svg11.dtd">
<!-- Generated by graphviz version 8.0.2 (20230410.1723)
 -->
<!-- Title: BaseSerializationSaveContainer Pages: 1 -->
<svg width="354pt" height="258pt"
 viewBox="0.00 0.00 353.50 258.00" xmlns="http://www.w3.org/2000/svg" xmlns:xlink="http://www.w3.org/1999/xlink">
<g id="graph0" class="graph" transform="scale(1 1) rotate(0) translate(4 254)">
<title>BaseSerializationSaveContainer</title>
<!-- Node1 -->
<g id="node1" class="node">
<title>Node1</title>
<g id="a_node1"><a xlink:title="Base class providing interface for save container.">
<polygon fill="#999999" stroke="#666666" points="271,-140 116,-140 116,-121 271,-121 271,-140"/>
<text text-anchor="middle" x="193.5" y="-128" font-family="Helvetica,sans-Serif" font-size="10.00">BaseSerializationSaveContainer</text>
</a>
</g>
</g>
<!-- Node4 -->
<g id="node4" class="node">
<title>Node4</title>
<g id="a_node4"><a xlink:href="interfaceBaseJsonSerializationSaveContainer.html" target="_top" xlink:title="Container for saving data in json format IMPORTANT* This should never be instantiated,...">
<polygon fill="white" stroke="#666666" points="181.5,-85 47.5,-85 47.5,-55 181.5,-55 181.5,-85"/>
<text text-anchor="start" x="55.5" y="-73" font-family="Helvetica,sans-Serif" font-size="10.00">BaseJsonSerializationSave</text>
<text text-anchor="middle" x="114.5" y="-62" font-family="Helvetica,sans-Serif" font-size="10.00">Container</text>
</a>
</g>
</g>
<!-- Node1&#45;&gt;Node4 -->
<g id="edge3" class="edge">
<title>Node1&#45;&gt;Node4</title>
<path fill="none" stroke="#63b8ff" d="M173.01,-114.33C160.98,-105.42 145.86,-94.22 134,-85.44"/>
<polygon fill="#63b8ff" stroke="#63b8ff" points="170.38,-117.48 180.5,-120.62 174.55,-111.85 170.38,-117.48"/>
</g>
<!-- Node7 -->
<g id="node7" class="node">
<title>Node7</title>
<g id="a_node7"><a xlink:href="interfaceBinSerializationSaveContainer.html" target="_top" xlink:title="Container for saving data in binary format.">
<polygon fill="white" stroke="#666666" points="345.5,-79.5 199.5,-79.5 199.5,-60.5 345.5,-60.5 345.5,-79.5"/>
<text text-anchor="middle" x="272.5" y="-67.5" font-family="Helvetica,sans-Serif" font-size="10.00">BinSerializationSaveContainer</text>
</a>
</g>
</g>
<!-- Node1&#45;&gt;Node7 -->
<g id="edge6" class="edge">
<title>Node1&#45;&gt;Node7</title>
<path fill="none" stroke="#63b8ff" d="M213.96,-114.35C228.69,-103.44 248.05,-89.11 260.39,-79.97"/>
<polygon fill="#63b8ff" stroke="#63b8ff" points="212.45,-111.85 206.5,-120.62 216.62,-117.48 212.45,-111.85"/>
</g>
<!-- Node2 -->
<g id="node2" class="node">
<title>Node2</title>
<g id="a_node2"><a xlink:href="interfaceBaseSerializationContainer.html" target="_top" xlink:title="Base class for serialization containers.">
<polygon fill="white" stroke="#666666" points="260.5,-195 126.5,-195 126.5,-176 260.5,-176 260.5,-195"/>
<text text-anchor="middle" x="193.5" y="-183" font-family="Helvetica,sans-Serif" font-size="10.00">BaseSerializationContainer</text>
</a>
</g>
</g>
<!-- Node2&#45;&gt;Node1 -->
<g id="edge1" class="edge">
<title>Node2&#45;&gt;Node1</title>
<path fill="none" stroke="#63b8ff" d="M193.5,-164.93C193.5,-156.53 193.5,-147.13 193.5,-140.44"/>
<polygon fill="#63b8ff" stroke="#63b8ff" points="190,-164.75 193.5,-174.75 197,-164.75 190,-164.75"/>
</g>
<!-- Node3 -->
<g id="node3" class="node">
<title>Node3</title>
<g id="a_node3"><a xlink:href="interfaceManaged.html" target="_top" xlink:title=" ">
<polygon fill="white" stroke="#666666" points="221.5,-250 165.5,-250 165.5,-231 221.5,-231 221.5,-250"/>
<text text-anchor="middle" x="193.5" y="-238" font-family="Helvetica,sans-Serif" font-size="10.00">Managed</text>
</a>
</g>
</g>
<!-- Node3&#45;&gt;Node2 -->
<g id="edge2" class="edge">
<title>Node3&#45;&gt;Node2</title>
<path fill="none" stroke="#63b8ff" d="M193.5,-219.93C193.5,-211.53 193.5,-202.13 193.5,-195.44"/>
<polygon fill="#63b8ff" stroke="#63b8ff" points="190,-219.75 193.5,-229.75 197,-219.75 190,-219.75"/>
</g>
<!-- Node5 -->
<g id="node5" class="node">
<title>Node5</title>
<g id="a_node5"><a xlink:href="interfaceJsonSaveContainer.html" target="_top" xlink:title="Container for saving data in json format.">
<polygon fill="white" stroke="#666666" points="99,-19 0,-19 0,0 99,0 99,-19"/>
<text text-anchor="middle" x="49.5" y="-7" font-family="Helvetica,sans-Serif" font-size="10.00">JsonSaveContainer</text>
</a>
</g>
</g>
<!-- Node4&#45;&gt;Node5 -->
<g id="edge4" class="edge">
<title>Node4&#45;&gt;Node5</title>
<path fill="none" stroke="#63b8ff" d="M90.48,-47.38C79.61,-37.6 67.39,-26.6 59.14,-19.18"/>
<polygon fill="#63b8ff" stroke="#63b8ff" points="87.66,-49.45 97.43,-53.54 92.34,-44.25 87.66,-49.45"/>
</g>
<!-- Node6 -->
<g id="node6" class="node">
<title>Node6</title>
<g id="a_node6"><a xlink:href="interfacePrettyJsonSaveContainer.html" target="_top" xlink:title="Container for saving data in pretty json format.">
<polygon fill="white" stroke="#666666" points="242,-19 117,-19 117,0 242,0 242,-19"/>
<text text-anchor="middle" x="179.5" y="-7" font-family="Helvetica,sans-Serif" font-size="10.00">PrettyJsonSaveContainer</text>
</a>
</g>
</g>
<!-- Node4&#45;&gt;Node6 -->
<g id="edge5" class="edge">
<title>Node4&#45;&gt;Node6</title>
<path fill="none" stroke="#63b8ff" d="M138.52,-47.38C149.39,-37.6 161.61,-26.6 169.86,-19.18"/>
<polygon fill="#63b8ff" stroke="#63b8ff" points="136.66,-44.25 131.57,-53.54 141.34,-49.45 136.66,-44.25"/>
</g>
</g>
</svg>
