<?xml version="1.0" encoding="UTF-8" standalone="no"?>
<!DOCTYPE svg PUBLIC "-//W3C//DTD SVG 1.1//EN"
 "http://www.w3.org/Graphics/SVG/1.1/DTD/svg11.dtd">
<!-- Generated by graphviz version 8.0.2 (20230410.1723)
 -->
<!-- Title: PhysicsJoint Pages: 1 -->
<svg width="478pt" height="212pt"
 viewBox="0.00 0.00 478.00 212.00" xmlns="http://www.w3.org/2000/svg" xmlns:xlink="http://www.w3.org/1999/xlink">
<g id="graph0" class="graph" transform="scale(1 1) rotate(0) translate(4 208)">
<title>PhysicsJoint</title>
<!-- Node1 -->
<g id="node1" class="node">
<title>Node1</title>
<g id="a_node1"><a xlink:title="Wrapper over joint simulation.">
<polygon fill="#999999" stroke="#666666" points="154,-111 82,-111 82,-92 154,-92 154,-111"/>
<text text-anchor="middle" x="118" y="-99" font-family="Helvetica,sans-Serif" font-size="10.00">PhysicsJoint</text>
</a>
</g>
</g>
<!-- Node3 -->
<g id="node3" class="node">
<title>Node3</title>
<g id="a_node3"><a xlink:href="interfacePhysics6DOFJoint.html" target="_top" xlink:title="6 DOF joint simulation.">
<polygon fill="white" stroke="#666666" points="298.5,-204 200.5,-204 200.5,-185 298.5,-185 298.5,-204"/>
<text text-anchor="middle" x="249.5" y="-192" font-family="Helvetica,sans-Serif" font-size="10.00">Physics6DOFJoint</text>
</a>
</g>
</g>
<!-- Node1&#45;&gt;Node3 -->
<g id="edge2" class="edge">
<title>Node1&#45;&gt;Node3</title>
<path fill="none" stroke="#63b8ff" d="M132.24,-119.77C145.23,-136.46 166.45,-160.74 190,-175.5 195.79,-179.13 202.34,-182.13 208.91,-184.6"/>
<polygon fill="#63b8ff" stroke="#63b8ff" points="134.73,-118.26 125.92,-112.38 129.14,-122.47 134.73,-118.26"/>
</g>
<!-- Node5 -->
<g id="node5" class="node">
<title>Node5</title>
<g id="a_node5"><a xlink:href="interfacePhysicsBallSocketJoint.html" target="_top" xlink:title="Ball socket joint simulation.">
<polygon fill="white" stroke="#666666" points="309,-167 190,-167 190,-148 309,-148 309,-167"/>
<text text-anchor="middle" x="249.5" y="-155" font-family="Helvetica,sans-Serif" font-size="10.00">PhysicsBallSocketJoint</text>
</a>
</g>
</g>
<!-- Node1&#45;&gt;Node5 -->
<g id="edge4" class="edge">
<title>Node1&#45;&gt;Node5</title>
<path fill="none" stroke="#63b8ff" d="M145.49,-116.64C158.63,-123.81 174.88,-132.16 190,-138.5 197.88,-141.8 206.54,-144.9 214.74,-147.59"/>
<polygon fill="#63b8ff" stroke="#63b8ff" points="147.56,-113.24 137.12,-111.45 144.17,-119.36 147.56,-113.24"/>
</g>
<!-- Node6 -->
<g id="node6" class="node">
<title>Node6</title>
<g id="a_node6"><a xlink:href="interfacePhysicsConeTwistJoint.html" target="_top" xlink:title="Cone twist joint simulation.">
<polygon fill="white" stroke="#666666" points="308,-130 191,-130 191,-111 308,-111 308,-130"/>
<text text-anchor="middle" x="249.5" y="-118" font-family="Helvetica,sans-Serif" font-size="10.00">PhysicsConeTwistJoint</text>
</a>
</g>
</g>
<!-- Node1&#45;&gt;Node6 -->
<g id="edge5" class="edge">
<title>Node1&#45;&gt;Node6</title>
<path fill="none" stroke="#63b8ff" d="M165.02,-108.25C173.34,-109.47 182.12,-110.76 190.73,-112.02"/>
<polygon fill="#63b8ff" stroke="#63b8ff" points="165.79,-104.68 155.39,-106.69 164.77,-111.61 165.79,-104.68"/>
</g>
<!-- Node7 -->
<g id="node7" class="node">
<title>Node7</title>
<g id="a_node7"><a xlink:href="interfacePhysicsFixedJoint.html" target="_top" xlink:title="Fixed joint simulation.">
<polygon fill="white" stroke="#666666" points="297.5,-93 201.5,-93 201.5,-74 297.5,-74 297.5,-93"/>
<text text-anchor="middle" x="249.5" y="-81" font-family="Helvetica,sans-Serif" font-size="10.00">PhysicsFixedJoint</text>
</a>
</g>
</g>
<!-- Node1&#45;&gt;Node7 -->
<g id="edge6" class="edge">
<title>Node1&#45;&gt;Node7</title>
<path fill="none" stroke="#63b8ff" d="M165.21,-95.08C176.83,-93.46 189.33,-91.72 201.01,-90.1"/>
<polygon fill="#63b8ff" stroke="#63b8ff" points="164.81,-91.74 155.39,-96.58 165.77,-98.67 164.81,-91.74"/>
</g>
<!-- Node8 -->
<g id="node8" class="node">
<title>Node8</title>
<g id="a_node8"><a xlink:href="interfacePhysicsHingeJoint.html" target="_top" xlink:title="Hinge joint simulation.">
<polygon fill="white" stroke="#666666" points="298,-56 201,-56 201,-37 298,-37 298,-56"/>
<text text-anchor="middle" x="249.5" y="-44" font-family="Helvetica,sans-Serif" font-size="10.00">PhysicsHingeJoint</text>
</a>
</g>
</g>
<!-- Node1&#45;&gt;Node8 -->
<g id="edge7" class="edge">
<title>Node1&#45;&gt;Node8</title>
<path fill="none" stroke="#63b8ff" d="M145.18,-86.4C158.35,-79.18 174.73,-70.77 190,-64.5 197.18,-61.55 205.02,-58.83 212.56,-56.43"/>
<polygon fill="#63b8ff" stroke="#63b8ff" points="143.83,-83.7 136.8,-91.63 147.24,-89.82 143.83,-83.7"/>
</g>
<!-- Node9 -->
<g id="node9" class="node">
<title>Node9</title>
<g id="a_node9"><a xlink:href="interfacePhysicsSliderJoint.html" target="_top" xlink:title="Slider joint simulation.">
<polygon fill="white" stroke="#666666" points="298,-19 201,-19 201,0 298,0 298,-19"/>
<text text-anchor="middle" x="249.5" y="-7" font-family="Helvetica,sans-Serif" font-size="10.00">PhysicsSliderJoint</text>
</a>
</g>
</g>
<!-- Node1&#45;&gt;Node9 -->
<g id="edge8" class="edge">
<title>Node1&#45;&gt;Node9</title>
<path fill="none" stroke="#63b8ff" d="M132.19,-83.15C145.14,-66.39 166.34,-42.08 190,-27.5 195.16,-24.32 200.92,-21.67 206.76,-19.46"/>
<polygon fill="#63b8ff" stroke="#63b8ff" points="129.08,-80.47 125.88,-90.57 134.68,-84.66 129.08,-80.47"/>
</g>
<!-- Node2 -->
<g id="node2" class="node">
<title>Node2</title>
<g id="a_node2"><a xlink:href="interfacepointer.html" target="_top" xlink:title="Plain C++ pointer, no weak pointers, no memory management.">
<polygon fill="white" stroke="#666666" points="46,-111 0,-111 0,-92 46,-92 46,-111"/>
<text text-anchor="middle" x="23" y="-99" font-family="Helvetica,sans-Serif" font-size="10.00">pointer</text>
</a>
</g>
</g>
<!-- Node2&#45;&gt;Node1 -->
<g id="edge1" class="edge">
<title>Node2&#45;&gt;Node1</title>
<path fill="none" stroke="#63b8ff" d="M56.88,-101.5C64.91,-101.5 73.53,-101.5 81.67,-101.5"/>
<polygon fill="#63b8ff" stroke="#63b8ff" points="57.04,-98 47.04,-101.5 57.04,-105 57.04,-98"/>
</g>
<!-- Node4 -->
<g id="node4" class="node">
<title>Node4</title>
<g id="a_node4"><a xlink:href="interfacePhysics6DOFSpringJoint.html" target="_top" xlink:title="6 DOF spring joint simulation.">
<polygon fill="white" stroke="#666666" points="470,-204 345,-204 345,-185 470,-185 470,-204"/>
<text text-anchor="middle" x="407.5" y="-192" font-family="Helvetica,sans-Serif" font-size="10.00">Physics6DOFSpringJoint</text>
</a>
</g>
</g>
<!-- Node3&#45;&gt;Node4 -->
<g id="edge3" class="edge">
<title>Node3&#45;&gt;Node4</title>
<path fill="none" stroke="#63b8ff" d="M309.43,-194.5C320.98,-194.5 333.13,-194.5 344.77,-194.5"/>
<polygon fill="#63b8ff" stroke="#63b8ff" points="309.58,-191 299.58,-194.5 309.58,-198 309.58,-191"/>
</g>
</g>
</svg>
