<?xml version="1.0" encoding="UTF-8" standalone="no"?>
<!DOCTYPE svg PUBLIC "-//W3C//DTD SVG 1.1//EN"
 "http://www.w3.org/Graphics/SVG/1.1/DTD/svg11.dtd">
<!-- Generated by graphviz version 8.0.2 (20230410.1723)
 -->
<!-- Title: CanvasWidgetCommand Pages: 1 -->
<svg width="388pt" height="212pt"
 viewBox="0.00 0.00 388.00 212.00" xmlns="http://www.w3.org/2000/svg" xmlns:xlink="http://www.w3.org/1999/xlink">
<g id="graph0" class="graph" transform="scale(1 1) rotate(0) translate(4 208)">
<title>CanvasWidgetCommand</title>
<!-- Node1 -->
<g id="node1" class="node">
<title>Node1</title>
<g id="a_node1"><a xlink:title=" ">
<polygon fill="#999999" stroke="#666666" points="215,-111 92,-111 92,-92 215,-92 215,-111"/>
<text text-anchor="middle" x="153.5" y="-99" font-family="Helvetica,sans-Serif" font-size="10.00">CanvasWidgetCommand</text>
</a>
</g>
</g>
<!-- Node3 -->
<g id="node3" class="node">
<title>Node3</title>
<g id="a_node3"><a xlink:href="interfaceCompositeDrawCommand.html" target="_top" xlink:title="Draws all commands from internal array in order.">
<polygon fill="white" stroke="#666666" points="380,-204 251,-204 251,-185 380,-185 380,-204"/>
<text text-anchor="middle" x="315.5" y="-192" font-family="Helvetica,sans-Serif" font-size="10.00">CompositeDrawCommand</text>
</a>
</g>
</g>
<!-- Node1&#45;&gt;Node3 -->
<g id="edge2" class="edge">
<title>Node1&#45;&gt;Node3</title>
<path fill="none" stroke="#63b8ff" d="M171.81,-118.35C190.1,-135.29 220.46,-161.05 251,-176.5 257.24,-179.66 264.11,-182.33 270.95,-184.57"/>
<polygon fill="#63b8ff" stroke="#63b8ff" points="174.97,-116.58 165.3,-112.26 170.17,-121.67 174.97,-116.58"/>
</g>
<!-- Node4 -->
<g id="node4" class="node">
<title>Node4</title>
<g id="a_node4"><a xlink:href="interfaceImageDrawCommand.html" target="_top" xlink:title=" ">
<polygon fill="white" stroke="#666666" points="370,-167 261,-167 261,-148 370,-148 370,-167"/>
<text text-anchor="middle" x="315.5" y="-155" font-family="Helvetica,sans-Serif" font-size="10.00">ImageDrawCommand</text>
</a>
</g>
</g>
<!-- Node1&#45;&gt;Node4 -->
<g id="edge3" class="edge">
<title>Node1&#45;&gt;Node4</title>
<path fill="none" stroke="#63b8ff" d="M187.63,-115.49C206.12,-123.05 229.65,-132.29 251,-139.5 259.36,-142.32 268.43,-145.08 277.04,-147.55"/>
<polygon fill="#63b8ff" stroke="#63b8ff" points="189.24,-111.95 178.66,-111.37 186.57,-118.42 189.24,-111.95"/>
</g>
<!-- Node5 -->
<g id="node5" class="node">
<title>Node5</title>
<g id="a_node5"><a xlink:href="interfaceLineDrawCommand.html" target="_top" xlink:title=" ">
<polygon fill="white" stroke="#666666" points="366,-130 265,-130 265,-111 366,-111 366,-130"/>
<text text-anchor="middle" x="315.5" y="-118" font-family="Helvetica,sans-Serif" font-size="10.00">LineDrawCommand</text>
</a>
</g>
</g>
<!-- Node1&#45;&gt;Node5 -->
<g id="edge4" class="edge">
<title>Node1&#45;&gt;Node5</title>
<path fill="none" stroke="#63b8ff" d="M226.24,-110.02C239.21,-111.56 252.47,-113.13 264.64,-114.58"/>
<polygon fill="#63b8ff" stroke="#63b8ff" points="226.79,-106.44 216.45,-108.74 225.96,-113.39 226.79,-106.44"/>
</g>
<!-- Node6 -->
<g id="node6" class="node">
<title>Node6</title>
<g id="a_node6"><a xlink:href="interfacePolygonDrawCommand.html" target="_top" xlink:title=" ">
<polygon fill="white" stroke="#666666" points="374.5,-93 256.5,-93 256.5,-74 374.5,-74 374.5,-93"/>
<text text-anchor="middle" x="315.5" y="-81" font-family="Helvetica,sans-Serif" font-size="10.00">PolygonDrawCommand</text>
</a>
</g>
</g>
<!-- Node1&#45;&gt;Node6 -->
<g id="edge5" class="edge">
<title>Node1&#45;&gt;Node6</title>
<path fill="none" stroke="#63b8ff" d="M226.2,-93.43C236.2,-92.31 246.38,-91.16 256.1,-90.07"/>
<polygon fill="#63b8ff" stroke="#63b8ff" points="225.99,-90.05 216.45,-94.64 226.77,-97 225.99,-90.05"/>
</g>
<!-- Node7 -->
<g id="node7" class="node">
<title>Node7</title>
<g id="a_node7"><a xlink:href="interfaceTextDrawCommand.html" target="_top" xlink:title=" ">
<polygon fill="white" stroke="#666666" points="366,-56 265,-56 265,-37 366,-37 366,-56"/>
<text text-anchor="middle" x="315.5" y="-44" font-family="Helvetica,sans-Serif" font-size="10.00">TextDrawCommand</text>
</a>
</g>
</g>
<!-- Node1&#45;&gt;Node7 -->
<g id="edge6" class="edge">
<title>Node1&#45;&gt;Node7</title>
<path fill="none" stroke="#63b8ff" d="M188.67,-87.54C207.01,-80.26 230.08,-71.46 251,-64.5 259.48,-61.68 268.69,-58.91 277.39,-56.41"/>
<polygon fill="#63b8ff" stroke="#63b8ff" points="187.46,-84.65 179.47,-91.62 190.06,-91.15 187.46,-84.65"/>
</g>
<!-- Node8 -->
<g id="node8" class="node">
<title>Node8</title>
<g id="a_node8"><a xlink:href="interfaceTriMeshDrawCommand.html" target="_top" xlink:title=" ">
<polygon fill="white" stroke="#666666" points="374,-19 257,-19 257,0 374,0 374,-19"/>
<text text-anchor="middle" x="315.5" y="-7" font-family="Helvetica,sans-Serif" font-size="10.00">TriMeshDrawCommand</text>
</a>
</g>
</g>
<!-- Node1&#45;&gt;Node8 -->
<g id="edge7" class="edge">
<title>Node1&#45;&gt;Node8</title>
<path fill="none" stroke="#63b8ff" d="M172.65,-84.16C191.04,-67.45 221,-42.56 251,-27.5 257.25,-24.36 264.12,-21.7 270.97,-19.46"/>
<polygon fill="#63b8ff" stroke="#63b8ff" points="170.55,-81.26 165.6,-90.62 175.31,-86.39 170.55,-81.26"/>
</g>
<!-- Node2 -->
<g id="node2" class="node">
<title>Node2</title>
<g id="a_node2"><a xlink:href="interfaceManaged.html" target="_top" xlink:title=" ">
<polygon fill="white" stroke="#666666" points="56,-111 0,-111 0,-92 56,-92 56,-111"/>
<text text-anchor="middle" x="28" y="-99" font-family="Helvetica,sans-Serif" font-size="10.00">Managed</text>
</a>
</g>
</g>
<!-- Node2&#45;&gt;Node1 -->
<g id="edge1" class="edge">
<title>Node2&#45;&gt;Node1</title>
<path fill="none" stroke="#63b8ff" d="M67.24,-101.5C74.97,-101.5 83.27,-101.5 91.55,-101.5"/>
<polygon fill="#63b8ff" stroke="#63b8ff" points="67.41,-98 57.41,-101.5 67.41,-105 67.41,-98"/>
</g>
</g>
</svg>
