<?xml version="1.0" encoding="UTF-8" standalone="no"?>
<!DOCTYPE svg PUBLIC "-//W3C//DTD SVG 1.1//EN"
 "http://www.w3.org/Graphics/SVG/1.1/DTD/svg11.dtd">
<!-- Generated by graphviz version 8.0.2 (20230410.1723)
 -->
<!-- Title: WBModuleDef Pages: 1 -->
<svg width="325pt" height="360pt"
 viewBox="0.00 0.00 325.00 360.00" xmlns="http://www.w3.org/2000/svg" xmlns:xlink="http://www.w3.org/1999/xlink">
<g id="graph0" class="graph" transform="scale(1 1) rotate(0) translate(4 356)">
<title>WBModuleDef</title>
<!-- Node1 -->
<g id="node1" class="node">
<title>Node1</title>
<g id="a_node1"><a xlink:title=" ">
<polygon fill="#999999" stroke="#666666" points="161,-185 82,-185 82,-166 161,-166 161,-185"/>
<text text-anchor="middle" x="121.5" y="-173" font-family="Helvetica,sans-Serif" font-size="10.00">WBModuleDef</text>
</a>
</g>
</g>
<!-- Node3 -->
<g id="node3" class="node">
<title>Node3</title>
<g id="a_node3"><a xlink:href="interfaceAnimEditor.html" target="_top" xlink:title=" ">
<polygon fill="white" stroke="#666666" points="289.5,-352 224.5,-352 224.5,-333 289.5,-333 289.5,-352"/>
<text text-anchor="middle" x="257" y="-340" font-family="Helvetica,sans-Serif" font-size="10.00">AnimEditor</text>
</a>
</g>
</g>
<!-- Node1&#45;&gt;Node3 -->
<g id="edge2" class="edge">
<title>Node1&#45;&gt;Node3</title>
<path fill="none" stroke="#63b8ff" d="M127.05,-195.43C135.37,-227.36 156.08,-289.92 197,-324.5 204.69,-331 214.69,-335.15 224.26,-337.8"/>
<polygon fill="#63b8ff" stroke="#63b8ff" points="130.31,-195.03 124.53,-186.16 123.51,-196.7 130.31,-195.03"/>
</g>
<!-- Node4 -->
<g id="node4" class="node">
<title>Node4</title>
<g id="a_node4"><a xlink:href="interfaceAudioEditor.html" target="_top" xlink:title=" ">
<polygon fill="white" stroke="#666666" points="290.5,-315 223.5,-315 223.5,-296 290.5,-296 290.5,-315"/>
<text text-anchor="middle" x="257" y="-303" font-family="Helvetica,sans-Serif" font-size="10.00">AudioEditor</text>
</a>
</g>
</g>
<!-- Node1&#45;&gt;Node4 -->
<g id="edge3" class="edge">
<title>Node1&#45;&gt;Node4</title>
<path fill="none" stroke="#63b8ff" d="M130.46,-195.05C141.65,-220.11 164.37,-263.2 197,-287.5 204.65,-293.19 214.11,-297.1 223.19,-299.78"/>
<polygon fill="#63b8ff" stroke="#63b8ff" points="133.41,-194.05 126.26,-186.23 126.97,-196.8 133.41,-194.05"/>
</g>
<!-- Node5 -->
<g id="node5" class="node">
<title>Node5</title>
<g id="a_node5"><a xlink:href="interfaceBehaviorEditor.html" target="_top" xlink:title=" ">
<polygon fill="white" stroke="#666666" points="296.5,-278 217.5,-278 217.5,-259 296.5,-259 296.5,-278"/>
<text text-anchor="middle" x="257" y="-266" font-family="Helvetica,sans-Serif" font-size="10.00">BehaviorEditor</text>
</a>
</g>
</g>
<!-- Node1&#45;&gt;Node5 -->
<g id="edge4" class="edge">
<title>Node1&#45;&gt;Node5</title>
<path fill="none" stroke="#63b8ff" d="M136.25,-193.82C149.91,-210.81 172.33,-235.63 197,-250.5 203.15,-254.2 210.12,-257.2 217.06,-259.61"/>
<polygon fill="#63b8ff" stroke="#63b8ff" points="138.52,-192.03 129.61,-186.3 133,-196.34 138.52,-192.03"/>
</g>
<!-- Node6 -->
<g id="node6" class="node">
<title>Node6</title>
<g id="a_node6"><a xlink:href="interfaceLocalizationEditor.html" target="_top" xlink:title=" ">
<polygon fill="white" stroke="#666666" points="304,-241 210,-241 210,-222 304,-222 304,-241"/>
<text text-anchor="middle" x="257" y="-229" font-family="Helvetica,sans-Serif" font-size="10.00">LocalizationEditor</text>
</a>
</g>
</g>
<!-- Node1&#45;&gt;Node6 -->
<g id="edge5" class="edge">
<title>Node1&#45;&gt;Node6</title>
<path fill="none" stroke="#63b8ff" d="M149.32,-190.62C163.26,-198.11 180.75,-206.94 197,-213.5 204.25,-216.43 212.16,-219.15 219.77,-221.54"/>
<polygon fill="#63b8ff" stroke="#63b8ff" points="151.31,-187.18 140.85,-185.45 147.95,-193.32 151.31,-187.18"/>
</g>
<!-- Node7 -->
<g id="node7" class="node">
<title>Node7</title>
<g id="a_node7"><a xlink:href="interfaceNavmeshGeneratorMain.html" target="_top" xlink:title=" ">
<polygon fill="white" stroke="#666666" points="317,-204 197,-204 197,-185 317,-185 317,-204"/>
<text text-anchor="middle" x="257" y="-192" font-family="Helvetica,sans-Serif" font-size="10.00">NavmeshGeneratorMain</text>
</a>
</g>
</g>
<!-- Node1&#45;&gt;Node7 -->
<g id="edge6" class="edge">
<title>Node1&#45;&gt;Node7</title>
<path fill="none" stroke="#63b8ff" d="M172.1,-182.56C180.09,-183.7 188.43,-184.88 196.62,-186.05"/>
<polygon fill="#63b8ff" stroke="#63b8ff" points="172.87,-178.99 162.47,-181.05 171.88,-185.92 172.87,-178.99"/>
</g>
<!-- Node8 -->
<g id="node8" class="node">
<title>Node8</title>
<g id="a_node8"><a xlink:href="interfaceParticleEditor.html" target="_top" xlink:title=" ">
<polygon fill="white" stroke="#666666" points="294.5,-167 219.5,-167 219.5,-148 294.5,-148 294.5,-167"/>
<text text-anchor="middle" x="257" y="-155" font-family="Helvetica,sans-Serif" font-size="10.00">ParticleEditor</text>
</a>
</g>
</g>
<!-- Node1&#45;&gt;Node8 -->
<g id="edge7" class="edge">
<title>Node1&#45;&gt;Node8</title>
<path fill="none" stroke="#63b8ff" d="M172,-168.83C187.57,-166.73 204.5,-164.44 219.04,-162.48"/>
<polygon fill="#63b8ff" stroke="#63b8ff" points="171.92,-165.44 162.47,-170.25 172.85,-172.38 171.92,-165.44"/>
</g>
<!-- Node9 -->
<g id="node9" class="node">
<title>Node9</title>
<g id="a_node9"><a xlink:href="interfaceProcAnimEditor.html" target="_top" xlink:title=" ">
<polygon fill="white" stroke="#666666" points="299.5,-130 214.5,-130 214.5,-111 299.5,-111 299.5,-130"/>
<text text-anchor="middle" x="257" y="-118" font-family="Helvetica,sans-Serif" font-size="10.00">ProcAnimEditor</text>
</a>
</g>
</g>
<!-- Node1&#45;&gt;Node9 -->
<g id="edge8" class="edge">
<title>Node1&#45;&gt;Node9</title>
<path fill="none" stroke="#63b8ff" d="M149.92,-160.53C163.78,-153.31 181.02,-144.86 197,-138.5 204.36,-135.57 212.4,-132.83 220.11,-130.42"/>
<polygon fill="#63b8ff" stroke="#63b8ff" points="148.69,-157.75 141.49,-165.52 151.96,-163.93 148.69,-157.75"/>
</g>
<!-- Node10 -->
<g id="node10" class="node">
<title>Node10</title>
<g id="a_node10"><a xlink:href="interfaceResourceManager.html" target="_top" xlink:title=" ">
<polygon fill="white" stroke="#666666" points="304.5,-93 209.5,-93 209.5,-74 304.5,-74 304.5,-93"/>
<text text-anchor="middle" x="257" y="-81" font-family="Helvetica,sans-Serif" font-size="10.00">ResourceManager</text>
</a>
</g>
</g>
<!-- Node1&#45;&gt;Node10 -->
<g id="edge9" class="edge">
<title>Node1&#45;&gt;Node10</title>
<path fill="none" stroke="#63b8ff" d="M136.53,-157.16C150.24,-140.41 172.58,-116.11 197,-101.5 202.33,-98.31 208.27,-95.64 214.28,-93.42"/>
<polygon fill="#63b8ff" stroke="#63b8ff" points="133.32,-154.57 129.83,-164.58 138.8,-158.93 133.32,-154.57"/>
</g>
<!-- Node11 -->
<g id="node11" class="node">
<title>Node11</title>
<g id="a_node11"><a xlink:href="interfaceScriptEditor.html" target="_top" xlink:title=" ">
<polygon fill="white" stroke="#666666" points="291,-56 223,-56 223,-37 291,-37 291,-56"/>
<text text-anchor="middle" x="257" y="-44" font-family="Helvetica,sans-Serif" font-size="10.00">ScriptEditor</text>
</a>
</g>
</g>
<!-- Node1&#45;&gt;Node11 -->
<g id="edge10" class="edge">
<title>Node1&#45;&gt;Node11</title>
<path fill="none" stroke="#63b8ff" d="M130.68,-155.75C141.97,-130.87 164.68,-88.46 197,-64.5 204.48,-58.95 213.7,-55.1 222.6,-52.42"/>
<polygon fill="#63b8ff" stroke="#63b8ff" points="127.2,-153.97 126.42,-164.53 133.62,-156.76 127.2,-153.97"/>
</g>
<!-- Node12 -->
<g id="node12" class="node">
<title>Node12</title>
<g id="a_node12"><a xlink:href="interfaceWorldEditor.html" target="_top" xlink:title=" ">
<polygon fill="white" stroke="#666666" points="291,-19 223,-19 223,0 291,0 291,-19"/>
<text text-anchor="middle" x="257" y="-7" font-family="Helvetica,sans-Serif" font-size="10.00">WorldEditor</text>
</a>
</g>
</g>
<!-- Node1&#45;&gt;Node12 -->
<g id="edge11" class="edge">
<title>Node1&#45;&gt;Node12</title>
<path fill="none" stroke="#63b8ff" d="M127.21,-155.25C135.67,-123.38 156.45,-61.68 197,-27.5 204.29,-21.36 213.64,-17.31 222.74,-14.64"/>
<polygon fill="#63b8ff" stroke="#63b8ff" points="123.67,-153.98 124.64,-164.53 130.46,-155.67 123.67,-153.98"/>
</g>
<!-- Node2 -->
<g id="node2" class="node">
<title>Node2</title>
<g id="a_node2"><a xlink:href="interfacepointer.html" target="_top" xlink:title="Plain C++ pointer, no weak pointers, no memory management.">
<polygon fill="white" stroke="#666666" points="46,-185 0,-185 0,-166 46,-166 46,-185"/>
<text text-anchor="middle" x="23" y="-173" font-family="Helvetica,sans-Serif" font-size="10.00">pointer</text>
</a>
</g>
</g>
<!-- Node2&#45;&gt;Node1 -->
<g id="edge1" class="edge">
<title>Node2&#45;&gt;Node1</title>
<path fill="none" stroke="#63b8ff" d="M57.32,-175.5C65.15,-175.5 73.55,-175.5 81.6,-175.5"/>
<polygon fill="#63b8ff" stroke="#63b8ff" points="57.38,-172 47.38,-175.5 57.38,-179 57.38,-172"/>
</g>
</g>
</svg>
