<?xml version="1.0" encoding="UTF-8" standalone="no"?>
<!DOCTYPE svg PUBLIC "-//W3C//DTD SVG 1.1//EN"
 "http://www.w3.org/Graphics/SVG/1.1/DTD/svg11.dtd">
<!-- Generated by graphviz version 8.0.2 (20230410.1723)
 -->
<!-- Title: WorldEditorPlugin Pages: 1 -->
<svg width="103pt" height="192pt"
 viewBox="0.00 0.00 103.00 192.00" xmlns="http://www.w3.org/2000/svg" xmlns:xlink="http://www.w3.org/1999/xlink">
<g id="graph0" class="graph" transform="scale(1 1) rotate(0) translate(4 188)">
<title>WorldEditorPlugin</title>
<!-- Node1 -->
<g id="node1" class="node">
<title>Node1</title>
<g id="a_node1"><a xlink:title=" ">
<polygon fill="#999999" stroke="#666666" points="95,-74 0,-74 0,-55 95,-55 95,-74"/>
<text text-anchor="middle" x="47.5" y="-62" font-family="Helvetica,sans-Serif" font-size="10.00">WorldEditorPlugin</text>
</a>
</g>
</g>
<!-- Node4 -->
<g id="node4" class="node">
<title>Node4</title>
<g id="a_node4"><a xlink:href="interfacePeerPlugin.html" target="_top" xlink:title=" ">
<polygon fill="white" stroke="#666666" points="79.5,-19 15.5,-19 15.5,0 79.5,0 79.5,-19"/>
<text text-anchor="middle" x="47.5" y="-7" font-family="Helvetica,sans-Serif" font-size="10.00">PeerPlugin</text>
</a>
</g>
</g>
<!-- Node1&#45;&gt;Node4 -->
<g id="edge3" class="edge">
<title>Node1&#45;&gt;Node4</title>
<path fill="none" stroke="#63b8ff" d="M47.5,-43.93C47.5,-35.53 47.5,-26.13 47.5,-19.44"/>
<polygon fill="#63b8ff" stroke="#63b8ff" points="44,-43.75 47.5,-53.75 51,-43.75 44,-43.75"/>
</g>
<!-- Node2 -->
<g id="node2" class="node">
<title>Node2</title>
<g id="a_node2"><a xlink:href="interfaceWorkbenchPlugin.html" target="_top" xlink:title=" ">
<polygon fill="white" stroke="#666666" points="94,-129 1,-129 1,-110 94,-110 94,-129"/>
<text text-anchor="middle" x="47.5" y="-117" font-family="Helvetica,sans-Serif" font-size="10.00">WorkbenchPlugin</text>
</a>
</g>
</g>
<!-- Node2&#45;&gt;Node1 -->
<g id="edge1" class="edge">
<title>Node2&#45;&gt;Node1</title>
<path fill="none" stroke="#63b8ff" d="M47.5,-98.93C47.5,-90.53 47.5,-81.13 47.5,-74.44"/>
<polygon fill="#63b8ff" stroke="#63b8ff" points="44,-98.75 47.5,-108.75 51,-98.75 44,-98.75"/>
</g>
<!-- Node3 -->
<g id="node3" class="node">
<title>Node3</title>
<g id="a_node3"><a xlink:href="interfaceManaged.html" target="_top" xlink:title=" ">
<polygon fill="white" stroke="#666666" points="75.5,-184 19.5,-184 19.5,-165 75.5,-165 75.5,-184"/>
<text text-anchor="middle" x="47.5" y="-172" font-family="Helvetica,sans-Serif" font-size="10.00">Managed</text>
</a>
</g>
</g>
<!-- Node3&#45;&gt;Node2 -->
<g id="edge2" class="edge">
<title>Node3&#45;&gt;Node2</title>
<path fill="none" stroke="#63b8ff" d="M47.5,-153.93C47.5,-145.53 47.5,-136.13 47.5,-129.44"/>
<polygon fill="#63b8ff" stroke="#63b8ff" points="44,-153.75 47.5,-163.75 51,-153.75 44,-153.75"/>
</g>
</g>
</svg>
