<?xml version="1.0" encoding="UTF-8" standalone="no"?>
<!DOCTYPE svg PUBLIC "-//W3C//DTD SVG 1.1//EN"
 "http://www.w3.org/Graphics/SVG/1.1/DTD/svg11.dtd">
<!-- Generated by graphviz version 8.0.2 (20230410.1723)
 -->
<!-- Title: ShapeEntity Pages: 1 -->
<svg width="228pt" height="247pt"
 viewBox="0.00 0.00 227.50 247.00" xmlns="http://www.w3.org/2000/svg" xmlns:xlink="http://www.w3.org/1999/xlink">
<g id="graph0" class="graph" transform="scale(1 1) rotate(0) translate(4 243)">
<title>ShapeEntity</title>
<!-- Node1 -->
<g id="node1" class="node">
<title>Node1</title>
<g id="a_node1"><a xlink:title=" ">
<polygon fill="#999999" stroke="#666666" points="146,-74 76,-74 76,-55 146,-55 146,-74"/>
<text text-anchor="middle" x="111" y="-62" font-family="Helvetica,sans-Serif" font-size="10.00">ShapeEntity</text>
</a>
</g>
</g>
<!-- Node5 -->
<g id="node5" class="node">
<title>Node5</title>
<g id="a_node5"><a xlink:href="interfacePolylineShapeEntity.html" target="_top" xlink:title=" ">
<polygon fill="white" stroke="#666666" points="104,-19 0,-19 0,0 104,0 104,-19"/>
<text text-anchor="middle" x="52" y="-7" font-family="Helvetica,sans-Serif" font-size="10.00">PolylineShapeEntity</text>
</a>
</g>
</g>
<!-- Node1&#45;&gt;Node5 -->
<g id="edge4" class="edge">
<title>Node1&#45;&gt;Node5</title>
<path fill="none" stroke="#63b8ff" d="M93.04,-47.37C82.79,-38.16 70.34,-26.98 61.86,-19.36"/>
<polygon fill="#63b8ff" stroke="#63b8ff" points="90.21,-49.43 99.99,-53.51 94.89,-44.22 90.21,-49.43"/>
</g>
<!-- Node6 -->
<g id="node6" class="node">
<title>Node6</title>
<g id="a_node6"><a xlink:href="interfaceSplineShapeEntity.html" target="_top" xlink:title=" ">
<polygon fill="white" stroke="#666666" points="219.5,-19 122.5,-19 122.5,0 219.5,0 219.5,-19"/>
<text text-anchor="middle" x="171" y="-7" font-family="Helvetica,sans-Serif" font-size="10.00">SplineShapeEntity</text>
</a>
</g>
</g>
<!-- Node1&#45;&gt;Node6 -->
<g id="edge5" class="edge">
<title>Node1&#45;&gt;Node6</title>
<path fill="none" stroke="#63b8ff" d="M129.27,-47.37C139.69,-38.16 152.35,-26.98 160.97,-19.36"/>
<polygon fill="#63b8ff" stroke="#63b8ff" points="127.36,-44.27 122.18,-53.51 131.99,-49.51 127.36,-44.27"/>
</g>
<!-- Node2 -->
<g id="node2" class="node">
<title>Node2</title>
<g id="a_node2"><a xlink:href="interfaceGenericEntity.html" target="_top" xlink:title="Base entity class.">
<polygon fill="white" stroke="#666666" points="149,-129 73,-129 73,-110 149,-110 149,-129"/>
<text text-anchor="middle" x="111" y="-117" font-family="Helvetica,sans-Serif" font-size="10.00">GenericEntity</text>
</a>
</g>
</g>
<!-- Node2&#45;&gt;Node1 -->
<g id="edge1" class="edge">
<title>Node2&#45;&gt;Node1</title>
<path fill="none" stroke="#63b8ff" d="M111,-98.93C111,-90.53 111,-81.13 111,-74.44"/>
<polygon fill="#63b8ff" stroke="#63b8ff" points="107.5,-98.75 111,-108.75 114.5,-98.75 107.5,-98.75"/>
</g>
<!-- Node3 -->
<g id="node3" class="node">
<title>Node3</title>
<g id="a_node3"><a xlink:href="interfaceIEntity.html" target="_top" xlink:title=" ">
<polygon fill="white" stroke="#666666" points="133,-184 89,-184 89,-165 133,-165 133,-184"/>
<text text-anchor="middle" x="111" y="-172" font-family="Helvetica,sans-Serif" font-size="10.00">IEntity</text>
</a>
</g>
</g>
<!-- Node3&#45;&gt;Node2 -->
<g id="edge2" class="edge">
<title>Node3&#45;&gt;Node2</title>
<path fill="none" stroke="#63b8ff" d="M111,-153.93C111,-145.53 111,-136.13 111,-129.44"/>
<polygon fill="#63b8ff" stroke="#63b8ff" points="107.5,-153.75 111,-163.75 114.5,-153.75 107.5,-153.75"/>
</g>
<!-- Node4 -->
<g id="node4" class="node">
<title>Node4</title>
<g id="a_node4"><a xlink:href="interfaceManaged.html" target="_top" xlink:title=" ">
<polygon fill="white" stroke="#666666" points="139,-239 83,-239 83,-220 139,-220 139,-239"/>
<text text-anchor="middle" x="111" y="-227" font-family="Helvetica,sans-Serif" font-size="10.00">Managed</text>
</a>
</g>
</g>
<!-- Node4&#45;&gt;Node3 -->
<g id="edge3" class="edge">
<title>Node4&#45;&gt;Node3</title>
<path fill="none" stroke="#63b8ff" d="M111,-208.93C111,-200.53 111,-191.13 111,-184.44"/>
<polygon fill="#63b8ff" stroke="#63b8ff" points="107.5,-208.75 111,-218.75 114.5,-208.75 107.5,-208.75"/>
</g>
</g>
</svg>
