<?xml version="1.0" encoding="UTF-8" standalone="no"?>
<!DOCTYPE svg PUBLIC "-//W3C//DTD SVG 1.1//EN"
 "http://www.w3.org/Graphics/SVG/1.1/DTD/svg11.dtd">
<!-- Generated by graphviz version 8.0.2 (20230410.1723)
 -->
<!-- Title: GenericComponent Pages: 1 -->
<svg width="685pt" height="582pt"
 viewBox="0.00 0.00 685.00 582.00" xmlns="http://www.w3.org/2000/svg" xmlns:xlink="http://www.w3.org/1999/xlink">
<g id="graph0" class="graph" transform="scale(1 1) rotate(0) translate(4 578)">
<title>GenericComponent</title>
<!-- Node1 -->
<g id="node1" class="node">
<title>Node1</title>
<g id="a_node1"><a xlink:title=" ">
<polygon fill="#999999" stroke="#666666" points="100,-259 0,-259 0,-240 100,-240 100,-259"/>
<text text-anchor="middle" x="50" y="-247" font-family="Helvetica,sans-Serif" font-size="10.00">GenericComponent</text>
</a>
</g>
</g>
<!-- Node2 -->
<g id="node2" class="node">
<title>Node2</title>
<g id="a_node2"><a xlink:href="interfaceAIComponent.html" target="_top" xlink:title=" ">
<polygon fill="white" stroke="#666666" points="252.5,-500 177.5,-500 177.5,-481 252.5,-481 252.5,-500"/>
<text text-anchor="middle" x="215" y="-488" font-family="Helvetica,sans-Serif" font-size="10.00">AIComponent</text>
</a>
</g>
</g>
<!-- Node1&#45;&gt;Node2 -->
<g id="edge1" class="edge">
<title>Node1&#45;&gt;Node2</title>
<path fill="none" stroke="#63b8ff" d="M52.56,-270.12C57.07,-314.31 74.04,-418.51 136,-472.5 147.32,-482.36 162.97,-487.1 177.28,-489.29"/>
<polygon fill="#63b8ff" stroke="#63b8ff" points="55.98,-269.99 51.6,-260.34 49,-270.61 55.98,-269.99"/>
</g>
<!-- Node11 -->
<g id="node11" class="node">
<title>Node11</title>
<g id="a_node11"><a xlink:href="interfaceAnimationControllerComponent.html" target="_top" xlink:title=" ">
<polygon fill="white" stroke="#666666" points="290.5,-463 139.5,-463 139.5,-444 290.5,-444 290.5,-463"/>
<text text-anchor="middle" x="215" y="-451" font-family="Helvetica,sans-Serif" font-size="10.00">AnimationControllerComponent</text>
</a>
</g>
</g>
<!-- Node1&#45;&gt;Node11 -->
<g id="edge10" class="edge">
<title>Node1&#45;&gt;Node11</title>
<path fill="none" stroke="#63b8ff" d="M54.31,-270.11C61.64,-308.79 83.02,-392.26 136,-435.5 139.98,-438.75 144.45,-441.44 149.16,-443.66"/>
<polygon fill="#63b8ff" stroke="#63b8ff" points="57.61,-269.68 52.43,-260.43 50.72,-270.89 57.61,-269.68"/>
</g>
<!-- Node12 -->
<g id="node12" class="node">
<title>Node12</title>
<g id="a_node12"><a xlink:href="interfaceAnimationPlayerComponent.html" target="_top" xlink:title=" ">
<polygon fill="white" stroke="#666666" points="283.5,-426 146.5,-426 146.5,-407 283.5,-407 283.5,-426"/>
<text text-anchor="middle" x="215" y="-414" font-family="Helvetica,sans-Serif" font-size="10.00">AnimationPlayerComponent</text>
</a>
</g>
</g>
<!-- Node1&#45;&gt;Node12 -->
<g id="edge11" class="edge">
<title>Node1&#45;&gt;Node12</title>
<path fill="none" stroke="#63b8ff" d="M56.75,-269.81C67.02,-302.28 91.73,-365.57 136,-398.5 140.35,-401.74 145.18,-404.4 150.25,-406.6"/>
<polygon fill="#63b8ff" stroke="#63b8ff" points="59.83,-268.92 53.6,-260.35 53.13,-270.94 59.83,-268.92"/>
</g>
<!-- Node13 -->
<g id="node13" class="node">
<title>Node13</title>
<g id="a_node13"><a xlink:href="interfaceBaseProcAnimComponent.html" target="_top" xlink:title=" ">
<polygon fill="white" stroke="#666666" points="280.5,-389 149.5,-389 149.5,-370 280.5,-370 280.5,-389"/>
<text text-anchor="middle" x="215" y="-377" font-family="Helvetica,sans-Serif" font-size="10.00">BaseProcAnimComponent</text>
</a>
</g>
</g>
<!-- Node1&#45;&gt;Node13 -->
<g id="edge12" class="edge">
<title>Node1&#45;&gt;Node13</title>
<path fill="none" stroke="#63b8ff" d="M60.37,-269.07C73.58,-294.48 100.13,-338.3 136,-361.5 141.02,-364.75 146.55,-367.41 152.28,-369.59"/>
<polygon fill="#63b8ff" stroke="#63b8ff" points="63.15,-267.8 55.54,-260.43 56.89,-270.94 63.15,-267.8"/>
</g>
<!-- Node14 -->
<g id="node14" class="node">
<title>Node14</title>
<g id="a_node14"><a xlink:href="interfaceBaseRplComponent.html" target="_top" xlink:title=" ">
<polygon fill="white" stroke="#666666" points="266.5,-352 163.5,-352 163.5,-333 266.5,-333 266.5,-352"/>
<text text-anchor="middle" x="215" y="-340" font-family="Helvetica,sans-Serif" font-size="10.00">BaseRplComponent</text>
</a>
</g>
</g>
<!-- Node1&#45;&gt;Node14 -->
<g id="edge13" class="edge">
<title>Node1&#45;&gt;Node14</title>
<path fill="none" stroke="#63b8ff" d="M66.3,-267.4C82.04,-284.65 108.13,-310.17 136,-324.5 144.4,-328.82 153.85,-332.12 163.18,-334.63"/>
<polygon fill="#63b8ff" stroke="#63b8ff" points="69.32,-265.4 60.06,-260.24 64.08,-270.04 69.32,-265.4"/>
</g>
<!-- Node16 -->
<g id="node16" class="node">
<title>Node16</title>
<g id="a_node16"><a xlink:href="interfaceBaseSoundComponent.html" target="_top" xlink:title=" ">
<polygon fill="white" stroke="#666666" points="273,-315 157,-315 157,-296 273,-296 273,-315"/>
<text text-anchor="middle" x="215" y="-303" font-family="Helvetica,sans-Serif" font-size="10.00">BaseSoundComponent</text>
</a>
</g>
</g>
<!-- Node1&#45;&gt;Node16 -->
<g id="edge15" class="edge">
<title>Node1&#45;&gt;Node16</title>
<path fill="none" stroke="#63b8ff" d="M79.61,-263.96C95.84,-271.74 116.71,-281.03 136,-287.5 145.09,-290.55 154.95,-293.26 164.5,-295.6"/>
<polygon fill="#63b8ff" stroke="#63b8ff" points="81.68,-260.59 71.15,-259.35 78.61,-266.88 81.68,-260.59"/>
</g>
<!-- Node19 -->
<g id="node19" class="node">
<title>Node19</title>
<g id="a_node19"><a xlink:href="interfaceCharacterAnimGraphComponent.html" target="_top" xlink:title=" ">
<polygon fill="white" stroke="#666666" points="293.5,-278 136.5,-278 136.5,-259 293.5,-259 293.5,-278"/>
<text text-anchor="middle" x="215" y="-266" font-family="Helvetica,sans-Serif" font-size="10.00">CharacterAnimGraphComponent</text>
</a>
</g>
</g>
<!-- Node1&#45;&gt;Node19 -->
<g id="edge18" class="edge">
<title>Node1&#45;&gt;Node19</title>
<path fill="none" stroke="#63b8ff" d="M111.23,-256.52C119.38,-257.47 127.83,-258.46 136.23,-259.43"/>
<polygon fill="#63b8ff" stroke="#63b8ff" points="111.69,-252.93 101.35,-255.25 110.88,-259.89 111.69,-252.93"/>
</g>
<!-- Node20 -->
<g id="node20" class="node">
<title>Node20</title>
<g id="a_node20"><a xlink:href="interfaceCoverManagerComponent.html" target="_top" xlink:title=" ">
<polygon fill="white" stroke="#666666" points="279,-241 151,-241 151,-222 279,-222 279,-241"/>
<text text-anchor="middle" x="215" y="-229" font-family="Helvetica,sans-Serif" font-size="10.00">CoverManagerComponent</text>
</a>
</g>
</g>
<!-- Node1&#45;&gt;Node20 -->
<g id="edge19" class="edge">
<title>Node1&#45;&gt;Node20</title>
<path fill="none" stroke="#63b8ff" d="M110.99,-242.88C123.9,-241.45 137.6,-239.94 150.64,-238.5"/>
<polygon fill="#63b8ff" stroke="#63b8ff" points="110.9,-239.47 101.35,-244.05 111.67,-246.43 110.9,-239.47"/>
</g>
<!-- Node21 -->
<g id="node21" class="node">
<title>Node21</title>
<g id="a_node21"><a xlink:href="interfaceNavmeshCustomLinkComponent.html" target="_top" xlink:title=" ">
<polygon fill="white" stroke="#666666" points="294,-204 136,-204 136,-185 294,-185 294,-204"/>
<text text-anchor="middle" x="215" y="-192" font-family="Helvetica,sans-Serif" font-size="10.00">NavmeshCustomLinkComponent</text>
</a>
</g>
</g>
<!-- Node1&#45;&gt;Node21 -->
<g id="edge20" class="edge">
<title>Node1&#45;&gt;Node21</title>
<path fill="none" stroke="#63b8ff" d="M81.79,-235.04C97.73,-227.91 117.65,-219.57 136,-213.5 146.19,-210.13 157.3,-207.06 167.87,-204.43"/>
<polygon fill="#63b8ff" stroke="#63b8ff" points="80.6,-232.19 72.94,-239.51 83.5,-238.56 80.6,-232.19"/>
</g>
<!-- Node22 -->
<g id="node22" class="node">
<title>Node22</title>
<g id="a_node22"><a xlink:href="interfaceNavmeshWorldComponent.html" target="_top" xlink:title=" ">
<polygon fill="white" stroke="#666666" points="280.5,-167 149.5,-167 149.5,-148 280.5,-148 280.5,-167"/>
<text text-anchor="middle" x="215" y="-155" font-family="Helvetica,sans-Serif" font-size="10.00">NavmeshWorldComponent</text>
</a>
</g>
</g>
<!-- Node1&#45;&gt;Node22 -->
<g id="edge21" class="edge">
<title>Node1&#45;&gt;Node22</title>
<path fill="none" stroke="#63b8ff" d="M66.61,-231.57C82.41,-214.56 108.39,-189.58 136,-175.5 142.31,-172.28 149.21,-169.63 156.2,-167.45"/>
<polygon fill="#63b8ff" stroke="#63b8ff" points="64.43,-228.87 60.32,-238.64 69.62,-233.56 64.43,-228.87"/>
</g>
<!-- Node23 -->
<g id="node23" class="node">
<title>Node23</title>
<g id="a_node23"><a xlink:href="interfacePawnMovementComponent.html" target="_top" xlink:title=" ">
<polygon fill="white" stroke="#666666" points="282,-130 148,-130 148,-111 282,-111 282,-130"/>
<text text-anchor="middle" x="215" y="-118" font-family="Helvetica,sans-Serif" font-size="10.00">PawnMovementComponent</text>
</a>
</g>
</g>
<!-- Node1&#45;&gt;Node23 -->
<g id="edge22" class="edge">
<title>Node1&#45;&gt;Node23</title>
<path fill="none" stroke="#63b8ff" d="M60.42,-230.1C73.68,-204.92 100.29,-161.49 136,-138.5 141.02,-135.26 146.56,-132.61 152.3,-130.43"/>
<polygon fill="#63b8ff" stroke="#63b8ff" points="56.97,-228.16 55.56,-238.66 63.21,-231.33 56.97,-228.16"/>
</g>
<!-- Node25 -->
<g id="node25" class="node">
<title>Node25</title>
<g id="a_node25"><a xlink:href="interfaceScriptComponent.html" target="_top" xlink:title="Parent class for all components created in script.">
<polygon fill="white" stroke="#666666" points="261,-93 169,-93 169,-74 261,-74 261,-93"/>
<text text-anchor="middle" x="215" y="-81" font-family="Helvetica,sans-Serif" font-size="10.00">ScriptComponent</text>
</a>
</g>
</g>
<!-- Node1&#45;&gt;Node25 -->
<g id="edge24" class="edge">
<title>Node1&#45;&gt;Node25</title>
<path fill="none" stroke="#63b8ff" d="M56.79,-229.33C67.12,-197.07 91.91,-134.2 136,-101.5 145.49,-94.46 157.27,-90.11 168.79,-87.45"/>
<polygon fill="#63b8ff" stroke="#63b8ff" points="53.19,-228.13 53.62,-238.71 59.88,-230.17 53.19,-228.13"/>
</g>
<!-- Node30 -->
<g id="node30" class="node">
<title>Node30</title>
<g id="a_node30"><a xlink:href="interfaceSoundOutputStateComponent.html" target="_top" xlink:title=" ">
<polygon fill="white" stroke="#666666" points="288,-56 142,-56 142,-37 288,-37 288,-56"/>
<text text-anchor="middle" x="215" y="-44" font-family="Helvetica,sans-Serif" font-size="10.00">SoundOutputStateComponent</text>
</a>
</g>
</g>
<!-- Node1&#45;&gt;Node30 -->
<g id="edge29" class="edge">
<title>Node1&#45;&gt;Node30</title>
<path fill="none" stroke="#63b8ff" d="M54.34,-229C61.74,-190.52 83.21,-107.49 136,-64.5 139.99,-61.25 144.45,-58.57 149.17,-56.35"/>
<polygon fill="#63b8ff" stroke="#63b8ff" points="50.76,-228.16 52.45,-238.62 57.65,-229.39 50.76,-228.16"/>
</g>
<!-- Node31 -->
<g id="node31" class="node">
<title>Node31</title>
<g id="a_node31"><a xlink:href="interfaceTouchComponent.html" target="_top" xlink:title=" ">
<polygon fill="white" stroke="#666666" points="261,-19 169,-19 169,0 261,0 261,-19"/>
<text text-anchor="middle" x="215" y="-7" font-family="Helvetica,sans-Serif" font-size="10.00">TouchComponent</text>
</a>
</g>
</g>
<!-- Node1&#45;&gt;Node31 -->
<g id="edge30" class="edge">
<title>Node1&#45;&gt;Node31</title>
<path fill="none" stroke="#63b8ff" d="M52.59,-228.97C57.16,-184.97 74.24,-81.23 136,-27.5 145.12,-19.56 157.05,-14.94 168.83,-12.3"/>
<polygon fill="#63b8ff" stroke="#63b8ff" points="49.04,-228.43 51.61,-238.71 56.01,-229.07 49.04,-228.43"/>
</g>
<!-- Node3 -->
<g id="node3" class="node">
<title>Node3</title>
<g id="a_node3"><a xlink:href="interfaceAIBehaviorTreeComponent.html" target="_top" xlink:title=" ">
<polygon fill="white" stroke="#666666" points="480,-574 349,-574 349,-555 480,-555 480,-574"/>
<text text-anchor="middle" x="414.5" y="-562" font-family="Helvetica,sans-Serif" font-size="10.00">AIBehaviorTreeComponent</text>
</a>
</g>
</g>
<!-- Node2&#45;&gt;Node3 -->
<g id="edge2" class="edge">
<title>Node2&#45;&gt;Node3</title>
<path fill="none" stroke="#63b8ff" d="M242.37,-505.76C264.98,-518.28 298.75,-535.64 330,-546.5 338.96,-549.62 348.67,-552.3 358.18,-554.57"/>
<polygon fill="#63b8ff" stroke="#63b8ff" points="244.25,-502.24 233.82,-500.39 240.82,-508.34 244.25,-502.24"/>
</g>
<!-- Node4 -->
<g id="node4" class="node">
<title>Node4</title>
<g id="a_node4"><a xlink:href="interfaceAICommunicationComponent.html" target="_top" xlink:title=" ">
<polygon fill="white" stroke="#666666" points="486,-537 343,-537 343,-518 486,-518 486,-537"/>
<text text-anchor="middle" x="414.5" y="-525" font-family="Helvetica,sans-Serif" font-size="10.00">AICommunicationComponent</text>
</a>
</g>
</g>
<!-- Node2&#45;&gt;Node4 -->
<g id="edge3" class="edge">
<title>Node2&#45;&gt;Node4</title>
<path fill="none" stroke="#63b8ff" d="M263.43,-499.39C292.6,-504.85 330.06,-511.87 360.25,-517.52"/>
<polygon fill="#63b8ff" stroke="#63b8ff" points="264.16,-495.77 253.69,-497.37 262.87,-502.65 264.16,-495.77"/>
</g>
<!-- Node5 -->
<g id="node5" class="node">
<title>Node5</title>
<g id="a_node5"><a xlink:href="interfaceAIComponentEntity.html" target="_top" xlink:title=" ">
<polygon fill="white" stroke="#666666" points="465,-500 364,-500 364,-481 465,-481 465,-500"/>
<text text-anchor="middle" x="414.5" y="-488" font-family="Helvetica,sans-Serif" font-size="10.00">AIComponentEntity</text>
</a>
</g>
</g>
<!-- Node2&#45;&gt;Node5 -->
<g id="edge4" class="edge">
<title>Node2&#45;&gt;Node5</title>
<path fill="none" stroke="#63b8ff" d="M263.4,-490.5C293.67,-490.5 332.86,-490.5 363.61,-490.5"/>
<polygon fill="#63b8ff" stroke="#63b8ff" points="263.69,-487 253.69,-490.5 263.69,-494 263.69,-487"/>
</g>
<!-- Node9 -->
<g id="node9" class="node">
<title>Node9</title>
<g id="a_node9"><a xlink:href="interfaceAIFormationComponent.html" target="_top" xlink:title=" ">
<polygon fill="white" stroke="#666666" points="474,-463 355,-463 355,-444 474,-444 474,-463"/>
<text text-anchor="middle" x="414.5" y="-451" font-family="Helvetica,sans-Serif" font-size="10.00">AIFormationComponent</text>
</a>
</g>
</g>
<!-- Node2&#45;&gt;Node9 -->
<g id="edge8" class="edge">
<title>Node2&#45;&gt;Node9</title>
<path fill="none" stroke="#63b8ff" d="M263.43,-481.61C292.6,-476.15 330.06,-469.13 360.25,-463.48"/>
<polygon fill="#63b8ff" stroke="#63b8ff" points="262.87,-478.35 253.69,-483.63 264.16,-485.23 262.87,-478.35"/>
</g>
<!-- Node10 -->
<g id="node10" class="node">
<title>Node10</title>
<g id="a_node10"><a xlink:href="interfaceAIPathfindingComponent.html" target="_top" xlink:title=" ">
<polygon fill="white" stroke="#666666" points="476,-426 353,-426 353,-407 476,-407 476,-426"/>
<text text-anchor="middle" x="414.5" y="-414" font-family="Helvetica,sans-Serif" font-size="10.00">AIPathfindingComponent</text>
</a>
</g>
</g>
<!-- Node2&#45;&gt;Node10 -->
<g id="edge9" class="edge">
<title>Node2&#45;&gt;Node10</title>
<path fill="none" stroke="#63b8ff" d="M263.63,-484.05C274.06,-481.42 284.74,-477.71 294,-472.5 313.99,-461.24 309.99,-446.73 330,-435.5 337,-431.57 344.76,-428.45 352.66,-425.98"/>
<polygon fill="#63b8ff" stroke="#63b8ff" points="262.92,-480.84 253.92,-486.42 264.44,-487.68 262.92,-480.84"/>
</g>
<!-- Node6 -->
<g id="node6" class="node">
<title>Node6</title>
<g id="a_node6"><a xlink:href="interfaceAIBaseAimingComponent.html" target="_top" xlink:title=" ">
<polygon fill="white" stroke="#666666" points="670,-537 542,-537 542,-518 670,-518 670,-537"/>
<text text-anchor="middle" x="606" y="-525" font-family="Helvetica,sans-Serif" font-size="10.00">AIBaseAimingComponent</text>
</a>
</g>
</g>
<!-- Node5&#45;&gt;Node6 -->
<g id="edge5" class="edge">
<title>Node5&#45;&gt;Node6</title>
<path fill="none" stroke="#63b8ff" d="M475.81,-502.28C500.94,-507.18 529.82,-512.82 553.89,-517.52"/>
<polygon fill="#63b8ff" stroke="#63b8ff" points="476.77,-498.7 466.29,-500.22 475.43,-505.57 476.77,-498.7"/>
</g>
<!-- Node7 -->
<g id="node7" class="node">
<title>Node7</title>
<g id="a_node7"><a xlink:href="interfaceAIBaseMovementComponent.html" target="_top" xlink:title=" ">
<polygon fill="white" stroke="#666666" points="677,-500 535,-500 535,-481 677,-481 677,-500"/>
<text text-anchor="middle" x="606" y="-488" font-family="Helvetica,sans-Serif" font-size="10.00">AIBaseMovementComponent</text>
</a>
</g>
</g>
<!-- Node5&#45;&gt;Node7 -->
<g id="edge6" class="edge">
<title>Node5&#45;&gt;Node7</title>
<path fill="none" stroke="#63b8ff" d="M476.26,-490.5C494.81,-490.5 515.38,-490.5 534.53,-490.5"/>
<polygon fill="#63b8ff" stroke="#63b8ff" points="476.29,-487 466.29,-490.5 476.29,-494 476.29,-487"/>
</g>
<!-- Node8 -->
<g id="node8" class="node">
<title>Node8</title>
<g id="a_node8"><a xlink:href="interfaceAIControlComponent.html" target="_top" xlink:title=" ">
<polygon fill="white" stroke="#666666" points="659,-463 553,-463 553,-444 659,-444 659,-463"/>
<text text-anchor="middle" x="606" y="-451" font-family="Helvetica,sans-Serif" font-size="10.00">AIControlComponent</text>
</a>
</g>
</g>
<!-- Node5&#45;&gt;Node8 -->
<g id="edge7" class="edge">
<title>Node5&#45;&gt;Node8</title>
<path fill="none" stroke="#63b8ff" d="M475.81,-478.72C500.94,-473.82 529.82,-468.18 553.89,-463.48"/>
<polygon fill="#63b8ff" stroke="#63b8ff" points="475.43,-475.43 466.29,-480.78 476.77,-482.3 475.43,-475.43"/>
</g>
<!-- Node15 -->
<g id="node15" class="node">
<title>Node15</title>
<g id="a_node15"><a xlink:href="interfaceRplComponent.html" target="_top" xlink:title=" ">
<polygon fill="white" stroke="#666666" points="454.5,-352 374.5,-352 374.5,-333 454.5,-333 454.5,-352"/>
<text text-anchor="middle" x="414.5" y="-340" font-family="Helvetica,sans-Serif" font-size="10.00">RplComponent</text>
</a>
</g>
</g>
<!-- Node14&#45;&gt;Node15 -->
<g id="edge14" class="edge">
<title>Node14&#45;&gt;Node15</title>
<path fill="none" stroke="#63b8ff" d="M277.72,-342.5C309.17,-342.5 346.48,-342.5 374.03,-342.5"/>
<polygon fill="#63b8ff" stroke="#63b8ff" points="277.86,-339 267.86,-342.5 277.86,-346 277.86,-339"/>
</g>
<!-- Node17 -->
<g id="node17" class="node">
<title>Node17</title>
<g id="a_node17"><a xlink:href="interfaceSndComponent.html" target="_top" xlink:title=" ">
<polygon fill="white" stroke="#666666" points="456,-315 373,-315 373,-296 456,-296 456,-315"/>
<text text-anchor="middle" x="414.5" y="-303" font-family="Helvetica,sans-Serif" font-size="10.00">SndComponent</text>
</a>
</g>
</g>
<!-- Node16&#45;&gt;Node17 -->
<g id="edge16" class="edge">
<title>Node16&#45;&gt;Node17</title>
<path fill="none" stroke="#63b8ff" d="M284.04,-305.5C313.52,-305.5 347.05,-305.5 372.6,-305.5"/>
<polygon fill="#63b8ff" stroke="#63b8ff" points="284.39,-302 274.39,-305.5 284.39,-309 284.39,-302"/>
</g>
<!-- Node18 -->
<g id="node18" class="node">
<title>Node18</title>
<g id="a_node18"><a xlink:href="interfaceCharacterSndComponent.html" target="_top" xlink:title=" ">
<polygon fill="white" stroke="#666666" points="668.5,-315 543.5,-315 543.5,-296 668.5,-296 668.5,-315"/>
<text text-anchor="middle" x="606" y="-303" font-family="Helvetica,sans-Serif" font-size="10.00">CharacterSndComponent</text>
</a>
</g>
</g>
<!-- Node17&#45;&gt;Node18 -->
<g id="edge17" class="edge">
<title>Node17&#45;&gt;Node18</title>
<path fill="none" stroke="#63b8ff" d="M466.95,-305.5C490.46,-305.5 518.5,-305.5 543.15,-305.5"/>
<polygon fill="#63b8ff" stroke="#63b8ff" points="467.15,-302 457.15,-305.5 467.15,-309 467.15,-302"/>
</g>
<!-- Node24 -->
<g id="node24" class="node">
<title>Node24</title>
<g id="a_node24"><a xlink:href="interfaceCharacterMovementComponent.html" target="_top" xlink:title=" ">
<polygon fill="white" stroke="#666666" points="490.5,-167 338.5,-167 338.5,-148 490.5,-148 490.5,-167"/>
<text text-anchor="middle" x="414.5" y="-155" font-family="Helvetica,sans-Serif" font-size="10.00">CharacterMovementComponent</text>
</a>
</g>
</g>
<!-- Node23&#45;&gt;Node24 -->
<g id="edge23" class="edge">
<title>Node23&#45;&gt;Node24</title>
<path fill="none" stroke="#63b8ff" d="M279.7,-132.43C305.69,-137.3 335.4,-142.87 360.22,-147.52"/>
<polygon fill="#63b8ff" stroke="#63b8ff" points="280.66,-128.87 270.19,-130.46 279.37,-135.75 280.66,-128.87"/>
</g>
<!-- Node26 -->
<g id="node26" class="node">
<title>Node26</title>
<g id="a_node26"><a xlink:href="interfaceRplExample1ComponentColorAnim.html" target="_top" xlink:title=" ">
<polygon fill="white" stroke="#666666" points="499,-130 330,-130 330,-111 499,-111 499,-130"/>
<text text-anchor="middle" x="414.5" y="-118" font-family="Helvetica,sans-Serif" font-size="10.00">RplExample1ComponentColorAnim</text>
</a>
</g>
</g>
<!-- Node25&#45;&gt;Node26 -->
<g id="edge25" class="edge">
<title>Node25&#45;&gt;Node26</title>
<path fill="none" stroke="#63b8ff" d="M272.03,-94C299.75,-99.19 333.03,-105.42 360.35,-110.54"/>
<polygon fill="#63b8ff" stroke="#63b8ff" points="272.78,-90.39 262.31,-91.99 271.49,-97.27 272.78,-90.39"/>
</g>
<!-- Node27 -->
<g id="node27" class="node">
<title>Node27</title>
<g id="a_node27"><a xlink:href="interfaceRplExample2ComponentColorAnim.html" target="_top" xlink:title=" ">
<polygon fill="white" stroke="#666666" points="499,-93 330,-93 330,-74 499,-74 499,-93"/>
<text text-anchor="middle" x="414.5" y="-81" font-family="Helvetica,sans-Serif" font-size="10.00">RplExample2ComponentColorAnim</text>
</a>
</g>
</g>
<!-- Node25&#45;&gt;Node27 -->
<g id="edge26" class="edge">
<title>Node25&#45;&gt;Node27</title>
<path fill="none" stroke="#63b8ff" d="M272.12,-83.5C289.99,-83.5 310.18,-83.5 329.58,-83.5"/>
<polygon fill="#63b8ff" stroke="#63b8ff" points="272.31,-80 262.31,-83.5 272.31,-87 272.31,-80"/>
</g>
<!-- Node28 -->
<g id="node28" class="node">
<title>Node28</title>
<g id="a_node28"><a xlink:href="interfaceRplExample3ComponentColorAnim.html" target="_top" xlink:title=" ">
<polygon fill="white" stroke="#666666" points="499,-56 330,-56 330,-37 499,-37 499,-56"/>
<text text-anchor="middle" x="414.5" y="-44" font-family="Helvetica,sans-Serif" font-size="10.00">RplExample3ComponentColorAnim</text>
</a>
</g>
</g>
<!-- Node25&#45;&gt;Node28 -->
<g id="edge27" class="edge">
<title>Node25&#45;&gt;Node28</title>
<path fill="none" stroke="#63b8ff" d="M272.03,-73C299.75,-67.81 333.03,-61.58 360.35,-56.46"/>
<polygon fill="#63b8ff" stroke="#63b8ff" points="271.49,-69.73 262.31,-75.01 272.78,-76.61 271.49,-69.73"/>
</g>
<!-- Node29 -->
<g id="node29" class="node">
<title>Node29</title>
<g id="a_node29"><a xlink:href="interfaceRplExample3System.html" target="_top" xlink:title=" ">
<polygon fill="white" stroke="#666666" points="468.5,-19 360.5,-19 360.5,0 468.5,0 468.5,-19"/>
<text text-anchor="middle" x="414.5" y="-7" font-family="Helvetica,sans-Serif" font-size="10.00">RplExample3System</text>
</a>
</g>
</g>
<!-- Node25&#45;&gt;Node29 -->
<g id="edge28" class="edge">
<title>Node25&#45;&gt;Node29</title>
<path fill="none" stroke="#63b8ff" d="M271.87,-73.97C279.58,-71.5 287.18,-68.4 294,-64.5 313.92,-53.12 309.93,-38.61 330,-27.5 339.21,-22.4 349.74,-18.74 360.14,-16.12"/>
<polygon fill="#63b8ff" stroke="#63b8ff" points="271.03,-70.85 262.36,-76.96 272.94,-77.59 271.03,-70.85"/>
</g>
</g>
</svg>
