<?xml version="1.0" encoding="UTF-8" standalone="no"?>
<!DOCTYPE svg PUBLIC "-//W3C//DTD SVG 1.1//EN"
 "http://www.w3.org/Graphics/SVG/1.1/DTD/svg11.dtd">
<!-- Generated by graphviz version 8.0.2 (20230410.1723)
 -->
<!-- Title: AITaskCreatePosition Pages: 1 -->
<svg width="118pt" height="247pt"
 viewBox="0.00 0.00 118.00 247.00" xmlns="http://www.w3.org/2000/svg" xmlns:xlink="http://www.w3.org/1999/xlink">
<g id="graph0" class="graph" transform="scale(1 1) rotate(0) translate(4 243)">
<title>AITaskCreatePosition</title>
<!-- Node1 -->
<g id="node1" class="node">
<title>Node1</title>
<g id="a_node1"><a xlink:title=" ">
<polygon fill="#999999" stroke="#666666" points="110,-19 0,-19 0,0 110,0 110,-19"/>
<text text-anchor="middle" x="55" y="-7" font-family="Helvetica,sans-Serif" font-size="10.00">AITaskCreatePosition</text>
</a>
</g>
</g>
<!-- Node2 -->
<g id="node2" class="node">
<title>Node2</title>
<g id="a_node2"><a xlink:href="interfaceAITask.html" target="_top" xlink:title=" ">
<polygon fill="white" stroke="#666666" points="78.5,-74 31.5,-74 31.5,-55 78.5,-55 78.5,-74"/>
<text text-anchor="middle" x="55" y="-62" font-family="Helvetica,sans-Serif" font-size="10.00">AITask</text>
</a>
</g>
</g>
<!-- Node2&#45;&gt;Node1 -->
<g id="edge1" class="edge">
<title>Node2&#45;&gt;Node1</title>
<path fill="none" stroke="#63b8ff" d="M55,-43.93C55,-35.53 55,-26.13 55,-19.44"/>
<polygon fill="#63b8ff" stroke="#63b8ff" points="51.5,-43.75 55,-53.75 58.5,-43.75 51.5,-43.75"/>
</g>
<!-- Node3 -->
<g id="node3" class="node">
<title>Node3</title>
<g id="a_node3"><a xlink:href="interfaceNode.html" target="_top" xlink:title=" ">
<polygon fill="white" stroke="#666666" points="74.5,-129 35.5,-129 35.5,-110 74.5,-110 74.5,-129"/>
<text text-anchor="middle" x="55" y="-117" font-family="Helvetica,sans-Serif" font-size="10.00">Node</text>
</a>
</g>
</g>
<!-- Node3&#45;&gt;Node2 -->
<g id="edge2" class="edge">
<title>Node3&#45;&gt;Node2</title>
<path fill="none" stroke="#63b8ff" d="M55,-98.93C55,-90.53 55,-81.13 55,-74.44"/>
<polygon fill="#63b8ff" stroke="#63b8ff" points="51.5,-98.75 55,-108.75 58.5,-98.75 51.5,-98.75"/>
</g>
<!-- Node4 -->
<g id="node4" class="node">
<title>Node4</title>
<g id="a_node4"><a xlink:href="interfaceScriptAndConfig.html" target="_top" xlink:title="Base class for classes which combine enf::Class and enf::BaseClass (in C++).">
<polygon fill="white" stroke="#666666" points="98,-184 12,-184 12,-165 98,-165 98,-184"/>
<text text-anchor="middle" x="55" y="-172" font-family="Helvetica,sans-Serif" font-size="10.00">ScriptAndConfig</text>
</a>
</g>
</g>
<!-- Node4&#45;&gt;Node3 -->
<g id="edge3" class="edge">
<title>Node4&#45;&gt;Node3</title>
<path fill="none" stroke="#63b8ff" d="M55,-153.93C55,-145.53 55,-136.13 55,-129.44"/>
<polygon fill="#63b8ff" stroke="#63b8ff" points="51.5,-153.75 55,-163.75 58.5,-153.75 51.5,-153.75"/>
</g>
<!-- Node5 -->
<g id="node5" class="node">
<title>Node5</title>
<g id="a_node5"><a xlink:href="interfaceManaged.html" target="_top" xlink:title=" ">
<polygon fill="white" stroke="#666666" points="83,-239 27,-239 27,-220 83,-220 83,-239"/>
<text text-anchor="middle" x="55" y="-227" font-family="Helvetica,sans-Serif" font-size="10.00">Managed</text>
</a>
</g>
</g>
<!-- Node5&#45;&gt;Node4 -->
<g id="edge4" class="edge">
<title>Node5&#45;&gt;Node4</title>
<path fill="none" stroke="#63b8ff" d="M55,-208.93C55,-200.53 55,-191.13 55,-184.44"/>
<polygon fill="#63b8ff" stroke="#63b8ff" points="51.5,-208.75 55,-218.75 58.5,-208.75 51.5,-208.75"/>
</g>
</g>
</svg>
