<?xml version="1.0" encoding="UTF-8" standalone="no"?>
<!DOCTYPE svg PUBLIC "-//W3C//DTD SVG 1.1//EN"
 "http://www.w3.org/Graphics/SVG/1.1/DTD/svg11.dtd">
<!-- Generated by graphviz version 8.0.2 (20230410.1723)
 -->
<!-- Title: BaseSerializationContainer Pages: 1 -->
<svg width="768pt" height="150pt"
 viewBox="0.00 0.00 768.00 150.00" xmlns="http://www.w3.org/2000/svg" xmlns:xlink="http://www.w3.org/1999/xlink">
<g id="graph0" class="graph" transform="scale(1 1) rotate(0) translate(4 146)">
<title>BaseSerializationContainer</title>
<!-- Node1 -->
<g id="node1" class="node">
<title>Node1</title>
<g id="a_node1"><a xlink:title="Base class for serialization containers.">
<polygon fill="#999999" stroke="#666666" points="226,-83 92,-83 92,-64 226,-64 226,-83"/>
<text text-anchor="middle" x="159" y="-71" font-family="Helvetica,sans-Serif" font-size="10.00">BaseSerializationContainer</text>
</a>
</g>
</g>
<!-- Node3 -->
<g id="node3" class="node">
<title>Node3</title>
<g id="a_node3"><a xlink:href="interfaceBaseSerializationLoadContainer.html" target="_top" xlink:title="Base class providing interface for load container.">
<polygon fill="white" stroke="#666666" points="417,-105 262,-105 262,-86 417,-86 417,-105"/>
<text text-anchor="middle" x="339.5" y="-93" font-family="Helvetica,sans-Serif" font-size="10.00">BaseSerializationLoadContainer</text>
</a>
</g>
</g>
<!-- Node1&#45;&gt;Node3 -->
<g id="edge2" class="edge">
<title>Node1&#45;&gt;Node3</title>
<path fill="none" stroke="#63b8ff" d="M237.38,-83.04C245.46,-84.03 253.67,-85.05 261.75,-86.04"/>
<polygon fill="#63b8ff" stroke="#63b8ff" points="237.82,-79.44 227.47,-81.69 236.96,-86.39 237.82,-79.44"/>
</g>
<!-- Node6 -->
<g id="node6" class="node">
<title>Node6</title>
<g id="a_node6"><a xlink:href="interfaceBaseSerializationSaveContainer.html" target="_top" xlink:title="Base class providing interface for save container.">
<polygon fill="white" stroke="#666666" points="417,-62 262,-62 262,-43 417,-43 417,-62"/>
<text text-anchor="middle" x="339.5" y="-50" font-family="Helvetica,sans-Serif" font-size="10.00">BaseSerializationSaveContainer</text>
</a>
</g>
</g>
<!-- Node1&#45;&gt;Node6 -->
<g id="edge5" class="edge">
<title>Node1&#45;&gt;Node6</title>
<path fill="none" stroke="#63b8ff" d="M237.38,-64.4C245.46,-63.45 253.67,-62.48 261.75,-61.53"/>
<polygon fill="#63b8ff" stroke="#63b8ff" points="236.99,-61.04 227.47,-65.68 237.81,-67.99 236.99,-61.04"/>
</g>
<!-- Node2 -->
<g id="node2" class="node">
<title>Node2</title>
<g id="a_node2"><a xlink:href="interfaceManaged.html" target="_top" xlink:title=" ">
<polygon fill="white" stroke="#666666" points="56,-83 0,-83 0,-64 56,-64 56,-83"/>
<text text-anchor="middle" x="28" y="-71" font-family="Helvetica,sans-Serif" font-size="10.00">Managed</text>
</a>
</g>
</g>
<!-- Node2&#45;&gt;Node1 -->
<g id="edge1" class="edge">
<title>Node2&#45;&gt;Node1</title>
<path fill="none" stroke="#63b8ff" d="M67.19,-73.5C74.93,-73.5 83.28,-73.5 91.66,-73.5"/>
<polygon fill="#63b8ff" stroke="#63b8ff" points="67.36,-70 57.36,-73.5 67.36,-77 67.36,-70"/>
</g>
<!-- Node4 -->
<g id="node4" class="node">
<title>Node4</title>
<g id="a_node4"><a xlink:href="interfaceBinSerializationLoadContainer.html" target="_top" xlink:title="Implementation of BaseLoadContainer to read data from json format.">
<polygon fill="white" stroke="#666666" points="599,-142 453,-142 453,-123 599,-123 599,-142"/>
<text text-anchor="middle" x="526" y="-130" font-family="Helvetica,sans-Serif" font-size="10.00">BinSerializationLoadContainer</text>
</a>
</g>
</g>
<!-- Node3&#45;&gt;Node4 -->
<g id="edge3" class="edge">
<title>Node3&#45;&gt;Node4</title>
<path fill="none" stroke="#63b8ff" d="M400.46,-107.52C424.7,-112.38 452.34,-117.93 475.42,-122.56"/>
<polygon fill="#63b8ff" stroke="#63b8ff" points="401.44,-103.95 390.94,-105.42 400.06,-110.81 401.44,-103.95"/>
</g>
<!-- Node5 -->
<g id="node5" class="node">
<title>Node5</title>
<g id="a_node5"><a xlink:href="interfaceJsonLoadContainer.html" target="_top" xlink:title="Container for loading data in json format.">
<polygon fill="white" stroke="#666666" points="575.5,-105 476.5,-105 476.5,-86 575.5,-86 575.5,-105"/>
<text text-anchor="middle" x="526" y="-93" font-family="Helvetica,sans-Serif" font-size="10.00">JsonLoadContainer</text>
</a>
</g>
</g>
<!-- Node3&#45;&gt;Node5 -->
<g id="edge4" class="edge">
<title>Node3&#45;&gt;Node5</title>
<path fill="none" stroke="#63b8ff" d="M428.19,-95.5C444.68,-95.5 461.37,-95.5 476.13,-95.5"/>
<polygon fill="#63b8ff" stroke="#63b8ff" points="428.41,-92 418.41,-95.5 428.41,-99 428.41,-92"/>
</g>
<!-- Node7 -->
<g id="node7" class="node">
<title>Node7</title>
<g id="a_node7"><a xlink:href="interfaceBaseJsonSerializationSaveContainer.html" target="_top" xlink:title="Container for saving data in json format IMPORTANT* This should never be instantiated,...">
<polygon fill="white" stroke="#666666" points="593,-67.5 459,-67.5 459,-37.5 593,-37.5 593,-67.5"/>
<text text-anchor="start" x="467" y="-55.5" font-family="Helvetica,sans-Serif" font-size="10.00">BaseJsonSerializationSave</text>
<text text-anchor="middle" x="526" y="-44.5" font-family="Helvetica,sans-Serif" font-size="10.00">Container</text>
</a>
</g>
</g>
<!-- Node6&#45;&gt;Node7 -->
<g id="edge6" class="edge">
<title>Node6&#45;&gt;Node7</title>
<path fill="none" stroke="#63b8ff" d="M428.11,-52.5C438.43,-52.5 448.82,-52.5 458.78,-52.5"/>
<polygon fill="#63b8ff" stroke="#63b8ff" points="428.41,-49 418.41,-52.5 428.41,-56 428.41,-49"/>
</g>
<!-- Node10 -->
<g id="node10" class="node">
<title>Node10</title>
<g id="a_node10"><a xlink:href="interfaceBinSerializationSaveContainer.html" target="_top" xlink:title="Container for saving data in binary format.">
<polygon fill="white" stroke="#666666" points="599,-19 453,-19 453,0 599,0 599,-19"/>
<text text-anchor="middle" x="526" y="-7" font-family="Helvetica,sans-Serif" font-size="10.00">BinSerializationSaveContainer</text>
</a>
</g>
</g>
<!-- Node6&#45;&gt;Node10 -->
<g id="edge9" class="edge">
<title>Node6&#45;&gt;Node10</title>
<path fill="none" stroke="#63b8ff" d="M393.73,-40.09C421.8,-33.55 455.77,-25.64 482.12,-19.49"/>
<polygon fill="#63b8ff" stroke="#63b8ff" points="393.24,-36.85 384.29,-42.53 394.83,-43.67 393.24,-36.85"/>
</g>
<!-- Node8 -->
<g id="node8" class="node">
<title>Node8</title>
<g id="a_node8"><a xlink:href="interfaceJsonSaveContainer.html" target="_top" xlink:title="Container for saving data in json format.">
<polygon fill="white" stroke="#666666" points="747,-80 648,-80 648,-61 747,-61 747,-80"/>
<text text-anchor="middle" x="697.5" y="-68" font-family="Helvetica,sans-Serif" font-size="10.00">JsonSaveContainer</text>
</a>
</g>
</g>
<!-- Node7&#45;&gt;Node8 -->
<g id="edge7" class="edge">
<title>Node7&#45;&gt;Node8</title>
<path fill="none" stroke="#63b8ff" d="M603.81,-60.66C618.74,-62.24 634,-63.86 647.72,-65.32"/>
<polygon fill="#63b8ff" stroke="#63b8ff" points="604.33,-57.09 594.02,-59.51 603.59,-64.05 604.33,-57.09"/>
</g>
<!-- Node9 -->
<g id="node9" class="node">
<title>Node9</title>
<g id="a_node9"><a xlink:href="interfacePrettyJsonSaveContainer.html" target="_top" xlink:title="Container for saving data in pretty json format.">
<polygon fill="white" stroke="#666666" points="760,-43 635,-43 635,-24 760,-24 760,-43"/>
<text text-anchor="middle" x="697.5" y="-31" font-family="Helvetica,sans-Serif" font-size="10.00">PrettyJsonSaveContainer</text>
</a>
</g>
</g>
<!-- Node7&#45;&gt;Node9 -->
<g id="edge8" class="edge">
<title>Node7&#45;&gt;Node9</title>
<path fill="none" stroke="#63b8ff" d="M603.7,-43.9C614.03,-42.74 624.51,-41.57 634.54,-40.44"/>
<polygon fill="#63b8ff" stroke="#63b8ff" points="603.57,-40.51 594.02,-45.1 604.35,-47.46 603.57,-40.51"/>
</g>
</g>
</svg>
