<?xml version="1.0" encoding="UTF-8" standalone="no"?>
<!DOCTYPE svg PUBLIC "-//W3C//DTD SVG 1.1//EN"
 "http://www.w3.org/Graphics/SVG/1.1/DTD/svg11.dtd">
<!-- Generated by graphviz version 8.0.2 (20230410.1723)
 -->
<!-- Title: CharacterMovementComponentClass Pages: 1 -->
<svg width="167pt" height="203pt"
 viewBox="0.00 0.00 167.00 203.00" xmlns="http://www.w3.org/2000/svg" xmlns:xlink="http://www.w3.org/1999/xlink">
<g id="graph0" class="graph" transform="scale(1 1) rotate(0) translate(4 199)">
<title>CharacterMovementComponentClass</title>
<!-- Node1 -->
<g id="node1" class="node">
<title>Node1</title>
<g id="a_node1"><a xlink:title=" ">
<polygon fill="#999999" stroke="#666666" points="155.5,-30 3.5,-30 3.5,0 155.5,0 155.5,-30"/>
<text text-anchor="start" x="11.5" y="-18" font-family="Helvetica,sans-Serif" font-size="10.00">CharacterMovementComponent</text>
<text text-anchor="middle" x="79.5" y="-7" font-family="Helvetica,sans-Serif" font-size="10.00">Class</text>
</a>
</g>
</g>
<!-- Node2 -->
<g id="node2" class="node">
<title>Node2</title>
<g id="a_node2"><a xlink:href="interfacePawnMovementComponentClass.html" target="_top" xlink:title=" ">
<polygon fill="white" stroke="#666666" points="159,-85 0,-85 0,-66 159,-66 159,-85"/>
<text text-anchor="middle" x="79.5" y="-73" font-family="Helvetica,sans-Serif" font-size="10.00">PawnMovementComponentClass</text>
</a>
</g>
</g>
<!-- Node2&#45;&gt;Node1 -->
<g id="edge1" class="edge">
<title>Node2&#45;&gt;Node1</title>
<path fill="none" stroke="#63b8ff" d="M79.5,-55.08C79.5,-46.92 79.5,-37.6 79.5,-30.11"/>
<polygon fill="#63b8ff" stroke="#63b8ff" points="76,-54.87 79.5,-64.87 83,-54.87 76,-54.87"/>
</g>
<!-- Node3 -->
<g id="node3" class="node">
<title>Node3</title>
<g id="a_node3"><a xlink:href="interfaceGenericComponentClass.html" target="_top" xlink:title=" ">
<polygon fill="white" stroke="#666666" points="142,-140 17,-140 17,-121 142,-121 142,-140"/>
<text text-anchor="middle" x="79.5" y="-128" font-family="Helvetica,sans-Serif" font-size="10.00">GenericComponentClass</text>
</a>
</g>
</g>
<!-- Node3&#45;&gt;Node2 -->
<g id="edge2" class="edge">
<title>Node3&#45;&gt;Node2</title>
<path fill="none" stroke="#63b8ff" d="M79.5,-109.93C79.5,-101.53 79.5,-92.13 79.5,-85.44"/>
<polygon fill="#63b8ff" stroke="#63b8ff" points="76,-109.75 79.5,-119.75 83,-109.75 76,-109.75"/>
</g>
<!-- Node4 -->
<g id="node4" class="node">
<title>Node4</title>
<g id="a_node4"><a xlink:href="interfaceEntityComponentPrefabData.html" target="_top" xlink:title="Shared object with constant data for components from prefab.">
<polygon fill="white" stroke="#666666" points="149.5,-195 9.5,-195 9.5,-176 149.5,-176 149.5,-195"/>
<text text-anchor="middle" x="79.5" y="-183" font-family="Helvetica,sans-Serif" font-size="10.00">EntityComponentPrefabData</text>
</a>
</g>
</g>
<!-- Node4&#45;&gt;Node3 -->
<g id="edge3" class="edge">
<title>Node4&#45;&gt;Node3</title>
<path fill="none" stroke="#63b8ff" d="M79.5,-164.93C79.5,-156.53 79.5,-147.13 79.5,-140.44"/>
<polygon fill="#63b8ff" stroke="#63b8ff" points="76,-164.75 79.5,-174.75 83,-164.75 76,-164.75"/>
</g>
</g>
</svg>
