<?xml version="1.0" encoding="UTF-8" standalone="no"?>
<!DOCTYPE svg PUBLIC "-//W3C//DTD SVG 1.1//EN"
 "http://www.w3.org/Graphics/SVG/1.1/DTD/svg11.dtd">
<!-- Generated by graphviz version 8.0.2 (20230410.1723)
 -->
<!-- Title: GenericEntityClass Pages: 1 -->
<svg width="597pt" height="1556pt"
 viewBox="0.00 0.00 597.00 1556.00" xmlns="http://www.w3.org/2000/svg" xmlns:xlink="http://www.w3.org/1999/xlink">
<g id="graph0" class="graph" transform="scale(1 1) rotate(0) translate(4 1552)">
<title>GenericEntityClass</title>
<!-- Node1 -->
<g id="node1" class="node">
<title>Node1</title>
<g id="a_node1"><a xlink:title=" ">
<polygon fill="#999999" stroke="#666666" points="227,-777 126,-777 126,-758 227,-758 227,-777"/>
<text text-anchor="middle" x="176.5" y="-765" font-family="Helvetica,sans-Serif" font-size="10.00">GenericEntityClass</text>
</a>
</g>
</g>
<!-- Node3 -->
<g id="node3" class="node">
<title>Node3</title>
<g id="a_node3"><a xlink:href="interfaceAIWaypointClass.html" target="_top" xlink:title=" ">
<polygon fill="white" stroke="#666666" points="383.5,-1548 291.5,-1548 291.5,-1529 383.5,-1529 383.5,-1548"/>
<text text-anchor="middle" x="337.5" y="-1536" font-family="Helvetica,sans-Serif" font-size="10.00">AIWaypointClass</text>
</a>
</g>
</g>
<!-- Node1&#45;&gt;Node3 -->
<g id="edge2" class="edge">
<title>Node1&#45;&gt;Node3</title>
<path fill="none" stroke="#63b8ff" d="M178.46,-787.98C184.01,-902.7 213.52,-1462.57 263,-1519.5 270.18,-1527.76 280.43,-1532.66 291,-1535.51"/>
<polygon fill="#63b8ff" stroke="#63b8ff" points="181.92,-788.08 177.95,-778.26 174.93,-788.41 181.92,-788.08"/>
</g>
<!-- Node5 -->
<g id="node5" class="node">
<title>Node5</title>
<g id="a_node5"><a xlink:href="interfaceAIWorldClass.html" target="_top" xlink:title=" ">
<polygon fill="white" stroke="#666666" points="375.5,-1511 299.5,-1511 299.5,-1492 375.5,-1492 375.5,-1511"/>
<text text-anchor="middle" x="337.5" y="-1499" font-family="Helvetica,sans-Serif" font-size="10.00">AIWorldClass</text>
</a>
</g>
</g>
<!-- Node1&#45;&gt;Node5 -->
<g id="edge4" class="edge">
<title>Node1&#45;&gt;Node5</title>
<path fill="none" stroke="#63b8ff" d="M178.59,-788C184.67,-899.38 215.91,-1428.64 263,-1482.5 272.02,-1492.82 285.84,-1497.89 299.08,-1500.27"/>
<polygon fill="#63b8ff" stroke="#63b8ff" points="182.04,-788.08 178.01,-778.29 175.05,-788.46 182.04,-788.08"/>
</g>
<!-- Node6 -->
<g id="node6" class="node">
<title>Node6</title>
<g id="a_node6"><a xlink:href="interfaceAutotestGridClass.html" target="_top" xlink:title=" ">
<polygon fill="white" stroke="#666666" points="385.5,-1474 289.5,-1474 289.5,-1455 385.5,-1455 385.5,-1474"/>
<text text-anchor="middle" x="337.5" y="-1462" font-family="Helvetica,sans-Serif" font-size="10.00">AutotestGridClass</text>
</a>
</g>
</g>
<!-- Node1&#45;&gt;Node6 -->
<g id="edge5" class="edge">
<title>Node1&#45;&gt;Node6</title>
<path fill="none" stroke="#63b8ff" d="M177.11,-788.03C175.62,-890.38 174.13,-1344.51 263,-1445.5 269.79,-1453.22 279.27,-1458 289.16,-1460.91"/>
<polygon fill="#63b8ff" stroke="#63b8ff" points="180.62,-788.4 177.29,-778.34 173.63,-788.28 180.62,-788.4"/>
</g>
<!-- Node7 -->
<g id="node7" class="node">
<title>Node7</title>
<g id="a_node7"><a xlink:href="interfaceBaseWeatherManagerEntityClass.html" target="_top" xlink:title=" ">
<polygon fill="white" stroke="#666666" points="407,-1436.5 268,-1436.5 268,-1406.5 407,-1406.5 407,-1436.5"/>
<text text-anchor="start" x="276" y="-1424.5" font-family="Helvetica,sans-Serif" font-size="10.00">BaseWeatherManagerEntity</text>
<text text-anchor="middle" x="337.5" y="-1413.5" font-family="Helvetica,sans-Serif" font-size="10.00">Class</text>
</a>
</g>
</g>
<!-- Node1&#45;&gt;Node7 -->
<g id="edge6" class="edge">
<title>Node1&#45;&gt;Node7</title>
<path fill="none" stroke="#63b8ff" d="M177.49,-788.25C177.84,-886.11 184.05,-1300.65 263,-1396.5 266.08,-1400.25 269.76,-1403.43 273.79,-1406.14"/>
<polygon fill="#63b8ff" stroke="#63b8ff" points="180.99,-788.48 177.47,-778.49 173.99,-788.49 180.99,-788.48"/>
</g>
<!-- Node8 -->
<g id="node8" class="node">
<title>Node8</title>
<g id="a_node8"><a xlink:href="interfaceCinematicEntityClass.html" target="_top" xlink:title=" ">
<polygon fill="white" stroke="#666666" points="392.5,-1388 282.5,-1388 282.5,-1369 392.5,-1369 392.5,-1388"/>
<text text-anchor="middle" x="337.5" y="-1376" font-family="Helvetica,sans-Serif" font-size="10.00">CinematicEntityClass</text>
</a>
</g>
</g>
<!-- Node1&#45;&gt;Node8 -->
<g id="edge7" class="edge">
<title>Node1&#45;&gt;Node8</title>
<path fill="none" stroke="#63b8ff" d="M177.53,-788.34C178.11,-883.12 185.24,-1272.72 263,-1359.5 268.19,-1365.29 274.89,-1369.42 282.13,-1372.35"/>
<polygon fill="#63b8ff" stroke="#63b8ff" points="181.03,-788.39 177.49,-778.41 174.03,-788.42 181.03,-788.39"/>
</g>
<!-- Node9 -->
<g id="node9" class="node">
<title>Node9</title>
<g id="a_node9"><a xlink:href="interfaceCrossroadEntityClass.html" target="_top" xlink:title=" ">
<polygon fill="white" stroke="#666666" points="393,-1351 282,-1351 282,-1332 393,-1332 393,-1351"/>
<text text-anchor="middle" x="337.5" y="-1339" font-family="Helvetica,sans-Serif" font-size="10.00">CrossroadEntityClass</text>
</a>
</g>
</g>
<!-- Node1&#45;&gt;Node9 -->
<g id="edge8" class="edge">
<title>Node1&#45;&gt;Node9</title>
<path fill="none" stroke="#63b8ff" d="M177.75,-788.17C179.28,-879 189.92,-1241.71 263,-1322.5 268.13,-1328.17 274.71,-1332.24 281.81,-1335.16"/>
<polygon fill="#63b8ff" stroke="#63b8ff" points="181.24,-788.17 177.59,-778.22 174.24,-788.27 181.24,-788.17"/>
</g>
<!-- Node10 -->
<g id="node10" class="node">
<title>Node10</title>
<g id="a_node10"><a xlink:href="interfaceDecalEntityClass.html" target="_top" xlink:title=" ">
<polygon fill="white" stroke="#666666" points="383.5,-1314 291.5,-1314 291.5,-1295 383.5,-1295 383.5,-1314"/>
<text text-anchor="middle" x="337.5" y="-1302" font-family="Helvetica,sans-Serif" font-size="10.00">DecalEntityClass</text>
</a>
</g>
</g>
<!-- Node1&#45;&gt;Node10 -->
<g id="edge9" class="edge">
<title>Node1&#45;&gt;Node10</title>
<path fill="none" stroke="#63b8ff" d="M178,-788.17C180.53,-875.2 194.63,-1210.73 263,-1285.5 270.38,-1293.57 280.7,-1298.41 291.28,-1301.26"/>
<polygon fill="#63b8ff" stroke="#63b8ff" points="181.48,-788.3 177.71,-778.39 174.48,-788.49 181.48,-788.3"/>
</g>
<!-- Node11 -->
<g id="node11" class="node">
<title>Node11</title>
<g id="a_node11"><a xlink:href="interfaceDeferredDecalEntityClass.html" target="_top" xlink:title=" ">
<polygon fill="white" stroke="#666666" points="401.5,-1277 273.5,-1277 273.5,-1258 401.5,-1258 401.5,-1277"/>
<text text-anchor="middle" x="337.5" y="-1265" font-family="Helvetica,sans-Serif" font-size="10.00">DeferredDecalEntityClass</text>
</a>
</g>
</g>
<!-- Node1&#45;&gt;Node11 -->
<g id="edge10" class="edge">
<title>Node1&#45;&gt;Node11</title>
<path fill="none" stroke="#63b8ff" d="M178.29,-788.27C181.89,-871.51 199.36,-1179.76 263,-1248.5 266.4,-1252.18 270.41,-1255.18 274.78,-1257.63"/>
<polygon fill="#63b8ff" stroke="#63b8ff" points="181.76,-788.33 177.85,-778.49 174.76,-788.62 181.76,-788.33"/>
</g>
<!-- Node12 -->
<g id="node12" class="node">
<title>Node12</title>
<g id="a_node12"><a xlink:href="interfaceEntityWithRplPropClass.html" target="_top" xlink:title="[RplProp example]">
<polygon fill="white" stroke="#666666" points="398.5,-1240 276.5,-1240 276.5,-1221 398.5,-1221 398.5,-1240"/>
<text text-anchor="middle" x="337.5" y="-1228" font-family="Helvetica,sans-Serif" font-size="10.00">EntityWithRplPropClass</text>
</a>
</g>
</g>
<!-- Node1&#45;&gt;Node12 -->
<g id="edge11" class="edge">
<title>Node1&#45;&gt;Node12</title>
<path fill="none" stroke="#63b8ff" d="M178.64,-788.42C183.37,-867.77 204.08,-1148.77 263,-1211.5 266.79,-1215.54 271.31,-1218.76 276.23,-1221.33"/>
<polygon fill="#63b8ff" stroke="#63b8ff" points="182.08,-788.27 178.01,-778.49 175.09,-788.67 182.08,-788.27"/>
</g>
<!-- Node13 -->
<g id="node13" class="node">
<title>Node13</title>
<g id="a_node13"><a xlink:href="interfaceEntityWithRplRpcClass.html" target="_top" xlink:title="[RplRpc example]">
<polygon fill="white" stroke="#666666" points="397,-1203 278,-1203 278,-1184 397,-1184 397,-1203"/>
<text text-anchor="middle" x="337.5" y="-1191" font-family="Helvetica,sans-Serif" font-size="10.00">EntityWithRplRpcClass</text>
</a>
</g>
</g>
<!-- Node1&#45;&gt;Node13 -->
<g id="edge12" class="edge">
<title>Node1&#45;&gt;Node13</title>
<path fill="none" stroke="#63b8ff" d="M179.01,-788.11C184.89,-862.77 208.67,-1117.62 263,-1174.5 267.19,-1178.88 272.24,-1182.31 277.72,-1184.97"/>
<polygon fill="#63b8ff" stroke="#63b8ff" points="182.44,-788.09 178.19,-778.38 175.46,-788.62 182.44,-788.09"/>
</g>
<!-- Node14 -->
<g id="node14" class="node">
<title>Node14</title>
<g id="a_node14"><a xlink:href="interfaceFPS__AutotestClass.html" target="_top" xlink:title=" ">
<polygon fill="white" stroke="#666666" points="389,-1166 286,-1166 286,-1147 389,-1147 389,-1166"/>
<text text-anchor="middle" x="337.5" y="-1154" font-family="Helvetica,sans-Serif" font-size="10.00">FPS_AutotestClass</text>
</a>
</g>
</g>
<!-- Node1&#45;&gt;Node14 -->
<g id="edge13" class="edge">
<title>Node1&#45;&gt;Node14</title>
<path fill="none" stroke="#63b8ff" d="M179.47,-788.01C186.6,-858.09 213.3,-1086.5 263,-1137.5 269.16,-1143.82 277.13,-1148.14 285.55,-1151.06"/>
<polygon fill="#63b8ff" stroke="#63b8ff" points="182.86,-787.78 178.39,-778.17 175.9,-788.47 182.86,-787.78"/>
</g>
<!-- Node15 -->
<g id="node15" class="node">
<title>Node15</title>
<g id="a_node15"><a xlink:href="interfaceGeneratorBaseEntityClass.html" target="_top" xlink:title=" ">
<polygon fill="white" stroke="#666666" points="403.5,-1129 271.5,-1129 271.5,-1110 403.5,-1110 403.5,-1129"/>
<text text-anchor="middle" x="337.5" y="-1117" font-family="Helvetica,sans-Serif" font-size="10.00">GeneratorBaseEntityClass</text>
</a>
</g>
</g>
<!-- Node1&#45;&gt;Node15 -->
<g id="edge14" class="edge">
<title>Node1&#45;&gt;Node15</title>
<path fill="none" stroke="#63b8ff" d="M180.04,-788.05C188.52,-853.49 217.93,-1055.36 263,-1100.5 266.63,-1104.14 270.86,-1107.11 275.43,-1109.53"/>
<polygon fill="#63b8ff" stroke="#63b8ff" points="183.39,-787.66 178.66,-778.18 176.44,-788.54 183.39,-787.66"/>
</g>
<!-- Node20 -->
<g id="node20" class="node">
<title>Node20</title>
<g id="a_node20"><a xlink:href="interfaceGenericControllerClass.html" target="_top" xlink:title=" ">
<polygon fill="#fff0f0" stroke="red" points="395.5,-1092 279.5,-1092 279.5,-1073 395.5,-1073 395.5,-1092"/>
<text text-anchor="middle" x="337.5" y="-1080" font-family="Helvetica,sans-Serif" font-size="10.00">GenericControllerClass</text>
</a>
</g>
</g>
<!-- Node1&#45;&gt;Node20 -->
<g id="edge19" class="edge">
<title>Node1&#45;&gt;Node20</title>
<path fill="none" stroke="#63b8ff" d="M176.97,-788.21C176.78,-841.89 184.01,-986.71 263,-1063.5 267.63,-1068 273.18,-1071.48 279.13,-1074.15"/>
<polygon fill="#63b8ff" stroke="#63b8ff" points="180.48,-788.44 177.12,-778.4 173.48,-788.35 180.48,-788.44"/>
</g>
<!-- Node24 -->
<g id="node21" class="node">
<title>Node24</title>
<g id="a_node21"><a xlink:href="interfaceGenericTerrainEntityClass.html" target="_top" xlink:title=" ">
<polygon fill="white" stroke="#666666" points="402.5,-1055 272.5,-1055 272.5,-1036 402.5,-1036 402.5,-1055"/>
<text text-anchor="middle" x="337.5" y="-1043" font-family="Helvetica,sans-Serif" font-size="10.00">GenericTerrainEntityClass</text>
</a>
</g>
</g>
<!-- Node1&#45;&gt;Node24 -->
<g id="edge20" class="edge">
<title>Node1&#45;&gt;Node24</title>
<path fill="none" stroke="#63b8ff" d="M177.98,-788.23C180.26,-837.23 193.05,-961.02 263,-1026.5 266.94,-1030.19 271.51,-1033.19 276.4,-1035.62"/>
<polygon fill="#63b8ff" stroke="#63b8ff" points="181.45,-788.33 177.59,-778.46 174.45,-788.58 181.45,-788.33"/>
</g>
<!-- Node25 -->
<g id="node22" class="node">
<title>Node25</title>
<g id="a_node22"><a xlink:href="interfaceGenericWorldEntityClass.html" target="_top" xlink:title=" ">
<polygon fill="#fff0f0" stroke="red" points="400.5,-1018 274.5,-1018 274.5,-999 400.5,-999 400.5,-1018"/>
<text text-anchor="middle" x="337.5" y="-1006" font-family="Helvetica,sans-Serif" font-size="10.00">GenericWorldEntityClass</text>
</a>
</g>
</g>
<!-- Node1&#45;&gt;Node25 -->
<g id="edge21" class="edge">
<title>Node1&#45;&gt;Node25</title>
<path fill="none" stroke="#63b8ff" d="M179.25,-787.91C184.13,-831.67 201.85,-934.99 263,-989.5 267.13,-993.18 271.89,-996.17 276.95,-998.59"/>
<polygon fill="#63b8ff" stroke="#63b8ff" points="182.66,-787.84 178.19,-778.23 175.7,-788.53 182.66,-787.84"/>
</g>
<!-- Node27 -->
<g id="node23" class="node">
<title>Node27</title>
<g id="a_node23"><a xlink:href="interfaceGenericWorldFogEntityClass.html" target="_top" xlink:title=" ">
<polygon fill="white" stroke="#666666" points="409,-981 266,-981 266,-962 409,-962 409,-981"/>
<text text-anchor="middle" x="337.5" y="-969" font-family="Helvetica,sans-Serif" font-size="10.00">GenericWorldFogEntityClass</text>
</a>
</g>
</g>
<!-- Node1&#45;&gt;Node27 -->
<g id="edge22" class="edge">
<title>Node1&#45;&gt;Node27</title>
<path fill="none" stroke="#63b8ff" d="M181.06,-788.13C188.78,-826.5 210.79,-908.93 263,-952.5 267.45,-956.22 272.55,-959.22 277.93,-961.64"/>
<polygon fill="#63b8ff" stroke="#63b8ff" points="184.31,-787.5 179.03,-778.32 177.43,-788.79 184.31,-787.5"/>
</g>
<!-- Node28 -->
<g id="node24" class="node">
<title>Node28</title>
<g id="a_node24"><a xlink:href="interfaceGenericWorldLightEntityClass.html" target="_top" xlink:title=" ">
<polygon fill="white" stroke="#666666" points="411,-944 264,-944 264,-925 411,-925 411,-944"/>
<text text-anchor="middle" x="337.5" y="-932" font-family="Helvetica,sans-Serif" font-size="10.00">GenericWorldLightEntityClass</text>
</a>
</g>
</g>
<!-- Node1&#45;&gt;Node28 -->
<g id="edge23" class="edge">
<title>Node1&#45;&gt;Node28</title>
<path fill="none" stroke="#63b8ff" d="M183.45,-787.54C194.04,-819.61 219.24,-882.23 263,-915.5 267.83,-919.17 273.29,-922.13 279.01,-924.53"/>
<polygon fill="#63b8ff" stroke="#63b8ff" points="186.55,-786.71 180.21,-778.22 179.87,-788.81 186.55,-786.71"/>
</g>
<!-- Node29 -->
<g id="node25" class="node">
<title>Node29</title>
<g id="a_node25"><a xlink:href="interfaceGenericWorldPPEffectClass.html" target="_top" xlink:title=" ">
<polygon fill="white" stroke="#666666" points="407,-907 268,-907 268,-888 407,-888 407,-907"/>
<text text-anchor="middle" x="337.5" y="-895" font-family="Helvetica,sans-Serif" font-size="10.00">GenericWorldPPEffectClass</text>
</a>
</g>
</g>
<!-- Node1&#45;&gt;Node29 -->
<g id="edge24" class="edge">
<title>Node1&#45;&gt;Node29</title>
<path fill="none" stroke="#63b8ff" d="M187.09,-786.76C200.57,-811.78 227.48,-855.04 263,-878.5 268.61,-882.2 274.9,-885.19 281.38,-887.59"/>
<polygon fill="#63b8ff" stroke="#63b8ff" points="189.87,-785.52 182.16,-778.26 183.66,-788.75 189.87,-785.52"/>
</g>
<!-- Node30 -->
<g id="node26" class="node">
<title>Node30</title>
<g id="a_node26"><a xlink:href="interfaceGenericWorldRainEntityClass.html" target="_top" xlink:title=" ">
<polygon fill="white" stroke="#666666" points="410.5,-870 264.5,-870 264.5,-851 410.5,-851 410.5,-870"/>
<text text-anchor="middle" x="337.5" y="-858" font-family="Helvetica,sans-Serif" font-size="10.00">GenericWorldRainEntityClass</text>
</a>
</g>
</g>
<!-- Node1&#45;&gt;Node30 -->
<g id="edge25" class="edge">
<title>Node1&#45;&gt;Node30</title>
<path fill="none" stroke="#63b8ff" d="M193.3,-785.27C209.27,-802.16 235.47,-827.05 263,-841.5 270,-845.17 277.76,-848.17 285.53,-850.6"/>
<polygon fill="#63b8ff" stroke="#63b8ff" points="196.28,-783.25 186.93,-778.27 191.13,-787.99 196.28,-783.25"/>
</g>
<!-- Node31 -->
<g id="node27" class="node">
<title>Node31</title>
<g id="a_node27"><a xlink:href="interfaceGenericWorldWindEntityClass.html" target="_top" xlink:title=" ">
<polygon fill="white" stroke="#666666" points="412,-833 263,-833 263,-814 412,-814 412,-833"/>
<text text-anchor="middle" x="337.5" y="-821" font-family="Helvetica,sans-Serif" font-size="10.00">GenericWorldWindEntityClass</text>
</a>
</g>
</g>
<!-- Node1&#45;&gt;Node31 -->
<g id="edge26" class="edge">
<title>Node1&#45;&gt;Node31</title>
<path fill="none" stroke="#63b8ff" d="M207.82,-781.99C223.97,-789.36 244.3,-798.08 263,-804.5 272.72,-807.84 283.34,-810.91 293.41,-813.56"/>
<polygon fill="#63b8ff" stroke="#63b8ff" points="209.42,-778.41 198.88,-777.39 206.48,-784.77 209.42,-778.41"/>
</g>
<!-- Node32 -->
<g id="node28" class="node">
<title>Node32</title>
<g id="a_node28"><a xlink:href="interfaceLightEntityClass.html" target="_top" xlink:title=" ">
<polygon fill="white" stroke="#666666" points="381.5,-796 293.5,-796 293.5,-777 381.5,-777 381.5,-796"/>
<text text-anchor="middle" x="337.5" y="-784" font-family="Helvetica,sans-Serif" font-size="10.00">LightEntityClass</text>
</a>
</g>
</g>
<!-- Node1&#45;&gt;Node32 -->
<g id="edge27" class="edge">
<title>Node1&#45;&gt;Node32</title>
<path fill="none" stroke="#63b8ff" d="M238.26,-774.76C256.58,-776.95 276.31,-779.31 293.24,-781.33"/>
<polygon fill="#63b8ff" stroke="#63b8ff" points="238.72,-771.17 228.37,-773.46 237.89,-778.12 238.72,-771.17"/>
</g>
<!-- Node33 -->
<g id="node29" class="node">
<title>Node33</title>
<g id="a_node29"><a xlink:href="interfaceMotionAutoTestClass.html" target="_top" xlink:title=" ">
<polygon fill="white" stroke="#666666" points="392.5,-759 282.5,-759 282.5,-740 392.5,-740 392.5,-759"/>
<text text-anchor="middle" x="337.5" y="-747" font-family="Helvetica,sans-Serif" font-size="10.00">MotionAutoTestClass</text>
</a>
</g>
</g>
<!-- Node1&#45;&gt;Node33 -->
<g id="edge28" class="edge">
<title>Node1&#45;&gt;Node33</title>
<path fill="none" stroke="#63b8ff" d="M238.21,-760.63C252.65,-758.99 267.97,-757.26 282.11,-755.66"/>
<polygon fill="#63b8ff" stroke="#63b8ff" points="237.92,-757.25 228.37,-761.85 238.7,-764.21 237.92,-757.25"/>
</g>
<!-- Node34 -->
<g id="node30" class="node">
<title>Node34</title>
<g id="a_node30"><a xlink:href="interfaceMotionZoneClass.html" target="_top" xlink:title=" ">
<polygon fill="white" stroke="#666666" points="383.5,-722 291.5,-722 291.5,-703 383.5,-703 383.5,-722"/>
<text text-anchor="middle" x="337.5" y="-710" font-family="Helvetica,sans-Serif" font-size="10.00">MotionZoneClass</text>
</a>
</g>
</g>
<!-- Node1&#45;&gt;Node34 -->
<g id="edge29" class="edge">
<title>Node1&#45;&gt;Node34</title>
<path fill="none" stroke="#63b8ff" d="M207.79,-752.91C223.93,-745.52 244.26,-736.8 263,-730.5 271.97,-727.49 281.7,-724.74 291.07,-722.36"/>
<polygon fill="#63b8ff" stroke="#63b8ff" points="206.44,-750.14 198.85,-757.54 209.39,-756.49 206.44,-750.14"/>
</g>
<!-- Node35 -->
<g id="node31" class="node">
<title>Node35</title>
<g id="a_node31"><a xlink:href="interfaceMotionZonePointClass.html" target="_top" xlink:title=" ">
<polygon fill="white" stroke="#666666" points="394.5,-685 280.5,-685 280.5,-666 394.5,-666 394.5,-685"/>
<text text-anchor="middle" x="337.5" y="-673" font-family="Helvetica,sans-Serif" font-size="10.00">MotionZonePointClass</text>
</a>
</g>
</g>
<!-- Node1&#45;&gt;Node35 -->
<g id="edge30" class="edge">
<title>Node1&#45;&gt;Node35</title>
<path fill="none" stroke="#63b8ff" d="M193.26,-749.65C209.2,-732.71 235.37,-707.77 263,-693.5 269.19,-690.3 275.96,-687.66 282.82,-685.48"/>
<polygon fill="#63b8ff" stroke="#63b8ff" points="191.08,-746.95 186.91,-756.69 196.24,-751.68 191.08,-746.95"/>
</g>
<!-- Node36 -->
<g id="node32" class="node">
<title>Node36</title>
<g id="a_node32"><a xlink:href="interfaceParticleEffectEntityClass.html" target="_top" xlink:title=" ">
<polygon fill="#fff0f0" stroke="red" points="400,-648 275,-648 275,-629 400,-629 400,-648"/>
<text text-anchor="middle" x="337.5" y="-636" font-family="Helvetica,sans-Serif" font-size="10.00">ParticleEffectEntityClass</text>
</a>
</g>
</g>
<!-- Node1&#45;&gt;Node36 -->
<g id="edge31" class="edge">
<title>Node1&#45;&gt;Node36</title>
<path fill="none" stroke="#63b8ff" d="M187.05,-748.17C200.47,-723.07 227.33,-679.73 263,-656.5 267.95,-653.27 273.44,-650.63 279.11,-648.45"/>
<polygon fill="#63b8ff" stroke="#63b8ff" points="183.61,-746.21 182.13,-756.7 189.83,-749.42 183.61,-746.21"/>
</g>
<!-- Node38 -->
<g id="node33" class="node">
<title>Node38</title>
<g id="a_node33"><a xlink:href="interfacePawnEntityClass.html" target="_top" xlink:title=" ">
<polygon fill="#fff0f0" stroke="red" points="383,-611 292,-611 292,-592 383,-592 383,-611"/>
<text text-anchor="middle" x="337.5" y="-599" font-family="Helvetica,sans-Serif" font-size="10.00">PawnEntityClass</text>
</a>
</g>
</g>
<!-- Node1&#45;&gt;Node38 -->
<g id="edge32" class="edge">
<title>Node1&#45;&gt;Node38</title>
<path fill="none" stroke="#63b8ff" d="M183.41,-747.39C193.92,-715.23 219.02,-652.48 263,-619.5 271.3,-613.27 281.48,-609.17 291.59,-606.48"/>
<polygon fill="#63b8ff" stroke="#63b8ff" points="179.81,-746.16 180.18,-756.75 186.5,-748.24 179.81,-746.16"/>
</g>
<!-- Node40 -->
<g id="node34" class="node">
<title>Node40</title>
<g id="a_node34"><a xlink:href="interfacePawnRelatedEntityClass.html" target="_top" xlink:title=" ">
<polygon fill="white" stroke="#666666" points="399.5,-574 275.5,-574 275.5,-555 399.5,-555 399.5,-574"/>
<text text-anchor="middle" x="337.5" y="-562" font-family="Helvetica,sans-Serif" font-size="10.00">PawnRelatedEntityClass</text>
</a>
</g>
</g>
<!-- Node1&#45;&gt;Node40 -->
<g id="edge33" class="edge">
<title>Node1&#45;&gt;Node40</title>
<path fill="none" stroke="#63b8ff" d="M180.95,-747.06C188.55,-708.69 210.4,-625.83 263,-582.5 266.95,-579.24 271.41,-576.56 276.12,-574.35"/>
<polygon fill="#63b8ff" stroke="#63b8ff" points="177.37,-746.18 179,-756.65 184.26,-747.45 177.37,-746.18"/>
</g>
<!-- Node41 -->
<g id="node35" class="node">
<title>Node41</title>
<g id="a_node35"><a xlink:href="interfaceRagdollTestEntityClass.html" target="_top" xlink:title=" ">
<polygon fill="white" stroke="#666666" points="396.5,-537 278.5,-537 278.5,-518 396.5,-518 396.5,-537"/>
<text text-anchor="middle" x="337.5" y="-525" font-family="Helvetica,sans-Serif" font-size="10.00">RagdollTestEntityClass</text>
</a>
</g>
</g>
<!-- Node1&#45;&gt;Node41 -->
<g id="edge34" class="edge">
<title>Node1&#45;&gt;Node41</title>
<path fill="none" stroke="#63b8ff" d="M179.2,-747.03C183.97,-703.15 201.5,-599.62 263,-545.5 267.44,-541.59 272.59,-538.51 278.06,-536.07"/>
<polygon fill="#63b8ff" stroke="#63b8ff" points="175.64,-746.45 178.16,-756.74 182.61,-747.12 175.64,-746.45"/>
</g>
<!-- Node42 -->
<g id="node36" class="node">
<title>Node42</title>
<g id="a_node36"><a xlink:href="interfaceRiverPartEntityClass.html" target="_top" xlink:title=" ">
<polygon fill="white" stroke="#666666" points="390.5,-500 284.5,-500 284.5,-481 390.5,-481 390.5,-500"/>
<text text-anchor="middle" x="337.5" y="-488" font-family="Helvetica,sans-Serif" font-size="10.00">RiverPartEntityClass</text>
</a>
</g>
</g>
<!-- Node1&#45;&gt;Node42 -->
<g id="edge35" class="edge">
<title>Node1&#45;&gt;Node42</title>
<path fill="none" stroke="#63b8ff" d="M177.92,-746.71C180.09,-697.58 192.63,-573.54 263,-508.5 268.98,-502.97 276.38,-499.06 284.15,-496.32"/>
<polygon fill="#63b8ff" stroke="#63b8ff" points="174.4,-746.4 177.56,-756.51 181.39,-746.63 174.4,-746.4"/>
</g>
<!-- Node43 -->
<g id="node37" class="node">
<title>Node43</title>
<g id="a_node37"><a xlink:href="interfaceRoadEntityClass.html" target="_top" xlink:title=" ">
<polygon fill="white" stroke="#666666" points="382,-463 293,-463 293,-444 382,-444 382,-463"/>
<text text-anchor="middle" x="337.5" y="-451" font-family="Helvetica,sans-Serif" font-size="10.00">RoadEntityClass</text>
</a>
</g>
</g>
<!-- Node1&#45;&gt;Node43 -->
<g id="edge36" class="edge">
<title>Node1&#45;&gt;Node43</title>
<path fill="none" stroke="#63b8ff" d="M176.91,-746.73C176.59,-692.91 183.52,-547.78 263,-471.5 271.06,-463.77 281.87,-459.19 292.71,-456.51"/>
<polygon fill="#63b8ff" stroke="#63b8ff" points="173.43,-746.63 177.09,-756.57 180.43,-746.52 173.43,-746.63"/>
</g>
<!-- Node44 -->
<g id="node38" class="node">
<title>Node44</title>
<g id="a_node38"><a xlink:href="interfaceRplExample3ControllerClass.html" target="_top" xlink:title=" ">
<polygon fill="white" stroke="#666666" points="407.5,-426 267.5,-426 267.5,-407 407.5,-407 407.5,-426"/>
<text text-anchor="middle" x="337.5" y="-414" font-family="Helvetica,sans-Serif" font-size="10.00">RplExample3ControllerClass</text>
</a>
</g>
</g>
<!-- Node1&#45;&gt;Node44 -->
<g id="edge37" class="edge">
<title>Node1&#45;&gt;Node44</title>
<path fill="none" stroke="#63b8ff" d="M180.01,-746.93C188.43,-681.41 217.65,-479.35 263,-434.5 266.27,-431.27 270.02,-428.58 274.06,-426.35"/>
<polygon fill="#63b8ff" stroke="#63b8ff" points="176.42,-746.45 178.65,-756.81 183.37,-747.33 176.42,-746.45"/>
</g>
<!-- Node45 -->
<g id="node39" class="node">
<title>Node45</title>
<g id="a_node39"><a xlink:href="interfaceRplExampleDebugShapeClass.html" target="_top" xlink:title="[Codec example]">
<polygon fill="white" stroke="#666666" points="412,-389 263,-389 263,-370 412,-370 412,-389"/>
<text text-anchor="middle" x="337.5" y="-377" font-family="Helvetica,sans-Serif" font-size="10.00">RplExampleDebugShapeClass</text>
</a>
</g>
</g>
<!-- Node1&#45;&gt;Node45 -->
<g id="edge38" class="edge">
<title>Node1&#45;&gt;Node45</title>
<path fill="none" stroke="#63b8ff" d="M179.44,-746.96C186.49,-676.81 212.98,-448.18 263,-397.5 266.14,-394.32 269.74,-391.67 273.62,-389.46"/>
<polygon fill="#63b8ff" stroke="#63b8ff" points="175.87,-746.52 178.38,-756.81 182.84,-747.2 175.87,-746.52"/>
</g>
<!-- Node46 -->
<g id="node40" class="node">
<title>Node46</title>
<g id="a_node40"><a xlink:href="interfaceRplTestEntityClass.html" target="_top" xlink:title=" ">
<polygon fill="white" stroke="#666666" points="387.5,-352 287.5,-352 287.5,-333 387.5,-333 387.5,-352"/>
<text text-anchor="middle" x="337.5" y="-340" font-family="Helvetica,sans-Serif" font-size="10.00">RplTestEntityClass</text>
</a>
</g>
</g>
<!-- Node1&#45;&gt;Node46 -->
<g id="edge39" class="edge">
<title>Node1&#45;&gt;Node46</title>
<path fill="none" stroke="#63b8ff" d="M178.99,-746.87C184.78,-672.13 208.31,-417.03 263,-360.5 269.58,-353.7 278.27,-349.3 287.36,-346.49"/>
<polygon fill="#63b8ff" stroke="#63b8ff" points="175.44,-746.37 178.18,-756.6 182.42,-746.89 175.44,-746.37"/>
</g>
<!-- Node47 -->
<g id="node41" class="node">
<title>Node47</title>
<g id="a_node41"><a xlink:href="interfaceScreenshot__AutotestClass.html" target="_top" xlink:title=" ">
<polygon fill="white" stroke="#666666" points="404,-315 271,-315 271,-296 404,-296 404,-315"/>
<text text-anchor="middle" x="337.5" y="-303" font-family="Helvetica,sans-Serif" font-size="10.00">Screenshot_AutotestClass</text>
</a>
</g>
</g>
<!-- Node1&#45;&gt;Node47 -->
<g id="edge40" class="edge">
<title>Node1&#45;&gt;Node47</title>
<path fill="none" stroke="#63b8ff" d="M178.61,-746.55C183.25,-667.12 203.68,-385.86 263,-323.5 266.08,-320.26 269.64,-317.57 273.49,-315.33"/>
<polygon fill="#63b8ff" stroke="#63b8ff" points="175.06,-746.32 178,-756.5 182.05,-746.71 175.06,-746.32"/>
</g>
<!-- Node48 -->
<g id="node42" class="node">
<title>Node48</title>
<g id="a_node42"><a xlink:href="interfaceScreenshot__WaypointClass.html" target="_top" xlink:title=" ">
<polygon fill="white" stroke="#666666" points="406,-278 269,-278 269,-259 406,-259 406,-278"/>
<text text-anchor="middle" x="337.5" y="-266" font-family="Helvetica,sans-Serif" font-size="10.00">Screenshot_WaypointClass</text>
</a>
</g>
</g>
<!-- Node1&#45;&gt;Node48 -->
<g id="edge41" class="edge">
<title>Node1&#45;&gt;Node48</title>
<path fill="none" stroke="#63b8ff" d="M178.27,-746.7C181.77,-663.38 198.92,-354.83 263,-286.5 265.97,-283.34 269.39,-280.69 273.1,-278.48"/>
<polygon fill="#63b8ff" stroke="#63b8ff" points="174.74,-746.37 177.84,-756.5 181.73,-746.65 174.74,-746.37"/>
</g>
<!-- Node49 -->
<g id="node43" class="node">
<title>Node49</title>
<g id="a_node43"><a xlink:href="interfaceScriptCameraClass.html" target="_top" xlink:title=" ">
<polygon fill="white" stroke="#666666" points="388,-241 287,-241 287,-222 388,-222 388,-241"/>
<text text-anchor="middle" x="337.5" y="-229" font-family="Helvetica,sans-Serif" font-size="10.00">ScriptCameraClass</text>
</a>
</g>
</g>
<!-- Node1&#45;&gt;Node49 -->
<g id="edge42" class="edge">
<title>Node1&#45;&gt;Node49</title>
<path fill="none" stroke="#63b8ff" d="M177.98,-746.8C180.4,-659.68 194.16,-323.83 263,-249.5 269.34,-242.66 277.81,-238.22 286.75,-235.39"/>
<polygon fill="#63b8ff" stroke="#63b8ff" points="174.46,-746.51 177.7,-756.59 181.45,-746.69 174.46,-746.51"/>
</g>
<!-- Node50 -->
<g id="node44" class="node">
<title>Node50</title>
<g id="a_node44"><a xlink:href="interfaceShapeEntityClass.html" target="_top" xlink:title=" ">
<polygon fill="#fff0f0" stroke="red" points="385,-204 290,-204 290,-185 385,-185 385,-204"/>
<text text-anchor="middle" x="337.5" y="-192" font-family="Helvetica,sans-Serif" font-size="10.00">ShapeEntityClass</text>
</a>
</g>
</g>
<!-- Node1&#45;&gt;Node50 -->
<g id="edge43" class="edge">
<title>Node1&#45;&gt;Node50</title>
<path fill="none" stroke="#63b8ff" d="M177.73,-746.81C179.14,-655.88 189.4,-292.82 263,-212.5 270.01,-204.85 279.69,-200.2 289.73,-197.44"/>
<polygon fill="#63b8ff" stroke="#63b8ff" points="174.21,-746.73 177.58,-756.77 181.21,-746.82 174.21,-746.73"/>
</g>
<!-- Node53 -->
<g id="node45" class="node">
<title>Node53</title>
<g id="a_node45"><a xlink:href="interfaceSndWorldClass.html" target="_top" xlink:title=" ">
<polygon fill="white" stroke="#666666" points="379.5,-167 295.5,-167 295.5,-148 379.5,-148 379.5,-167"/>
<text text-anchor="middle" x="337.5" y="-155" font-family="Helvetica,sans-Serif" font-size="10.00">SndWorldClass</text>
</a>
</g>
</g>
<!-- Node1&#45;&gt;Node53 -->
<g id="edge44" class="edge">
<title>Node1&#45;&gt;Node53</title>
<path fill="none" stroke="#63b8ff" d="M177.51,-746.64C177.97,-651.75 184.68,-261.78 263,-175.5 271.21,-166.45 283.16,-161.6 295.04,-159.1"/>
<polygon fill="#63b8ff" stroke="#63b8ff" points="174,-746.57 177.48,-756.58 181,-746.59 174,-746.57"/>
</g>
<!-- Node54 -->
<g id="node46" class="node">
<title>Node54</title>
<g id="a_node46"><a xlink:href="interfaceStaticModelEntityClass.html" target="_top" xlink:title=" ">
<polygon fill="#fff0f0" stroke="red" points="397,-130 278,-130 278,-111 397,-111 397,-130"/>
<text text-anchor="middle" x="337.5" y="-118" font-family="Helvetica,sans-Serif" font-size="10.00">StaticModelEntityClass</text>
</a>
</g>
</g>
<!-- Node1&#45;&gt;Node54 -->
<g id="edge45" class="edge">
<title>Node1&#45;&gt;Node54</title>
<path fill="none" stroke="#63b8ff" d="M177.31,-746.92C176.85,-648.97 179.83,-230.9 263,-138.5 267.13,-133.91 272.22,-130.4 277.78,-127.73"/>
<polygon fill="#63b8ff" stroke="#63b8ff" points="173.82,-746.93 177.39,-756.9 180.82,-746.88 173.82,-746.93"/>
</g>
<!-- Node56 -->
<g id="node47" class="node">
<title>Node56</title>
<g id="a_node47"><a xlink:href="interfaceVolumeEntityClass.html" target="_top" xlink:title=" ">
<polygon fill="#fff0f0" stroke="red" points="387.5,-93 287.5,-93 287.5,-74 387.5,-74 387.5,-93"/>
<text text-anchor="middle" x="337.5" y="-81" font-family="Helvetica,sans-Serif" font-size="10.00">VolumeEntityClass</text>
</a>
</g>
</g>
<!-- Node1&#45;&gt;Node56 -->
<g id="edge46" class="edge">
<title>Node1&#45;&gt;Node56</title>
<path fill="none" stroke="#63b8ff" d="M177.14,-747C175.8,-645.74 175.02,-199.97 263,-101.5 269.39,-94.35 278.11,-89.81 287.32,-86.98"/>
<polygon fill="#63b8ff" stroke="#63b8ff" points="173.65,-746.87 177.31,-756.82 180.65,-746.77 173.65,-746.87"/>
</g>
<!-- Node59 -->
<g id="node48" class="node">
<title>Node59</title>
<g id="a_node48"><a xlink:href="interfaceVolumeReceiverEntityClass.html" target="_top" xlink:title=" ">
<polygon fill="#fff0f0" stroke="red" points="406,-56 269,-56 269,-37 406,-37 406,-56"/>
<text text-anchor="middle" x="337.5" y="-44" font-family="Helvetica,sans-Serif" font-size="10.00">VolumeReceiverEntityClass</text>
</a>
</g>
</g>
<!-- Node1&#45;&gt;Node59 -->
<g id="edge47" class="edge">
<title>Node1&#45;&gt;Node59</title>
<path fill="none" stroke="#63b8ff" d="M178.64,-746.65C184.88,-635.62 216.39,-117.02 263,-64.5 265.88,-61.26 269.23,-58.55 272.9,-56.3"/>
<polygon fill="#63b8ff" stroke="#63b8ff" points="175.09,-746.44 178.03,-756.62 182.08,-746.83 175.09,-746.44"/>
</g>
<!-- Node61 -->
<g id="node49" class="node">
<title>Node61</title>
<g id="a_node49"><a xlink:href="interfaceWorldDecalClass.html" target="_top" xlink:title=" ">
<polygon fill="white" stroke="#666666" points="383.5,-19 291.5,-19 291.5,0 383.5,0 383.5,-19"/>
<text text-anchor="middle" x="337.5" y="-7" font-family="Helvetica,sans-Serif" font-size="10.00">WorldDecalClass</text>
</a>
</g>
</g>
<!-- Node1&#45;&gt;Node61 -->
<g id="edge48" class="edge">
<title>Node1&#45;&gt;Node61</title>
<path fill="none" stroke="#63b8ff" d="M178.49,-746.98C184.15,-633.23 213.94,-83.12 263,-27.5 270.21,-19.32 280.48,-14.56 291.05,-11.85"/>
<polygon fill="#63b8ff" stroke="#63b8ff" points="174.96,-746.47 177.97,-756.63 181.95,-746.82 174.96,-746.47"/>
</g>
<!-- Node2 -->
<g id="node2" class="node">
<title>Node2</title>
<g id="a_node2"><a xlink:href="interfaceEntityPrefabData.html" target="_top" xlink:title="Shared object with constant data for enf::EntitySource from prefab.">
<polygon fill="white" stroke="#666666" points="90,-777 0,-777 0,-758 90,-758 90,-777"/>
<text text-anchor="middle" x="45" y="-765" font-family="Helvetica,sans-Serif" font-size="10.00">EntityPrefabData</text>
</a>
</g>
</g>
<!-- Node2&#45;&gt;Node1 -->
<g id="edge1" class="edge">
<title>Node2&#45;&gt;Node1</title>
<path fill="none" stroke="#63b8ff" d="M101.15,-767.5C109.31,-767.5 117.67,-767.5 125.71,-767.5"/>
<polygon fill="#63b8ff" stroke="#63b8ff" points="101.2,-764 91.2,-767.5 101.2,-771 101.2,-764"/>
</g>
<!-- Node4 -->
<g id="node4" class="node">
<title>Node4</title>
<g id="a_node4"><a xlink:href="interfaceAIWaypointCycleClass.html" target="_top" xlink:title=" ">
<polygon fill="white" stroke="#666666" points="576.5,-1548 460.5,-1548 460.5,-1529 576.5,-1529 576.5,-1548"/>
<text text-anchor="middle" x="518.5" y="-1536" font-family="Helvetica,sans-Serif" font-size="10.00">AIWaypointCycleClass</text>
</a>
</g>
</g>
<!-- Node3&#45;&gt;Node4 -->
<g id="edge3" class="edge">
<title>Node3&#45;&gt;Node4</title>
<path fill="none" stroke="#63b8ff" d="M394.61,-1538.5C415.47,-1538.5 439.15,-1538.5 460.12,-1538.5"/>
<polygon fill="#63b8ff" stroke="#63b8ff" points="394.67,-1535 384.67,-1538.5 394.67,-1542 394.67,-1535"/>
</g>
<!-- Node16 -->
<g id="node16" class="node">
<title>Node16</title>
<g id="a_node16"><a xlink:href="interfaceLakeGeneratorEntityClass.html" target="_top" xlink:title=" ">
<polygon fill="white" stroke="#666666" points="584,-1184 453,-1184 453,-1165 584,-1165 584,-1184"/>
<text text-anchor="middle" x="518.5" y="-1172" font-family="Helvetica,sans-Serif" font-size="10.00">LakeGeneratorEntityClass</text>
</a>
</g>
</g>
<!-- Node15&#45;&gt;Node16 -->
<g id="edge15" class="edge">
<title>Node15&#45;&gt;Node16</title>
<path fill="none" stroke="#63b8ff" d="M396.32,-1132.35C401.67,-1133.93 406.96,-1135.65 412,-1137.5 428.79,-1143.67 431.29,-1149.11 448,-1155.5 456.88,-1158.9 466.61,-1161.95 475.91,-1164.57"/>
<polygon fill="#63b8ff" stroke="#63b8ff" points="397.59,-1128.8 387.02,-1129.49 395.71,-1135.54 397.59,-1128.8"/>
</g>
<!-- Node17 -->
<g id="node17" class="node">
<title>Node17</title>
<g id="a_node17"><a xlink:href="interfaceRiverEntityClass.html" target="_top" xlink:title=" ">
<polygon fill="white" stroke="#666666" points="562.5,-1147 474.5,-1147 474.5,-1128 562.5,-1128 562.5,-1147"/>
<text text-anchor="middle" x="518.5" y="-1135" font-family="Helvetica,sans-Serif" font-size="10.00">RiverEntityClass</text>
</a>
</g>
</g>
<!-- Node15&#45;&gt;Node17 -->
<g id="edge16" class="edge">
<title>Node15&#45;&gt;Node17</title>
<path fill="none" stroke="#63b8ff" d="M414.7,-1127.16C434.99,-1129.2 456.2,-1131.34 474.06,-1133.13"/>
<polygon fill="#63b8ff" stroke="#63b8ff" points="415.18,-1123.59 404.88,-1126.07 414.48,-1130.56 415.18,-1123.59"/>
</g>
<!-- Node18 -->
<g id="node18" class="node">
<title>Node18</title>
<g id="a_node18"><a xlink:href="interfaceRoadGeneratorEntityClass.html" target="_top" xlink:title=" ">
<polygon fill="white" stroke="#666666" points="584.5,-1110 452.5,-1110 452.5,-1091 584.5,-1091 584.5,-1110"/>
<text text-anchor="middle" x="518.5" y="-1098" font-family="Helvetica,sans-Serif" font-size="10.00">RoadGeneratorEntityClass</text>
</a>
</g>
</g>
<!-- Node15&#45;&gt;Node18 -->
<g id="edge17" class="edge">
<title>Node15&#45;&gt;Node18</title>
<path fill="none" stroke="#63b8ff" d="M414.75,-1111.41C427.25,-1110.08 440.1,-1108.72 452.29,-1107.42"/>
<polygon fill="#63b8ff" stroke="#63b8ff" points="414.46,-1108.02 404.88,-1112.56 415.2,-1114.98 414.46,-1108.02"/>
</g>
<!-- Node19 -->
<g id="node19" class="node">
<title>Node19</title>
<g id="a_node19"><a xlink:href="interfaceSplineTerrainGeneratorEntityBaseClass.html" target="_top" xlink:title=" ">
<polygon fill="white" stroke="#666666" points="589,-1072.5 448,-1072.5 448,-1042.5 589,-1042.5 589,-1072.5"/>
<text text-anchor="start" x="456" y="-1060.5" font-family="Helvetica,sans-Serif" font-size="10.00">SplineTerrainGeneratorEntity</text>
<text text-anchor="middle" x="518.5" y="-1049.5" font-family="Helvetica,sans-Serif" font-size="10.00">BaseClass</text>
</a>
</g>
</g>
<!-- Node15&#45;&gt;Node19 -->
<g id="edge18" class="edge">
<title>Node15&#45;&gt;Node19</title>
<path fill="none" stroke="#63b8ff" d="M394.02,-1106.63C400.15,-1104.77 406.25,-1102.72 412,-1100.5 428.87,-1093.97 431.4,-1088.7 448,-1081.5 454.91,-1078.5 462.33,-1075.61 469.65,-1072.94"/>
<polygon fill="#63b8ff" stroke="#63b8ff" points="393.37,-1103.46 384.72,-1109.58 395.3,-1110.19 393.37,-1103.46"/>
</g>
</g>
</svg>
