<?xml version="1.0" encoding="UTF-8" standalone="no"?>
<!DOCTYPE svg PUBLIC "-//W3C//DTD SVG 1.1//EN"
 "http://www.w3.org/Graphics/SVG/1.1/DTD/svg11.dtd">
<!-- Generated by graphviz version 8.0.2 (20230410.1723)
 -->
<!-- Title: PhysicsFixedJoint Pages: 1 -->
<svg width="104pt" height="137pt"
 viewBox="0.00 0.00 104.00 137.00" xmlns="http://www.w3.org/2000/svg" xmlns:xlink="http://www.w3.org/1999/xlink">
<g id="graph0" class="graph" transform="scale(1 1) rotate(0) translate(4 133)">
<title>PhysicsFixedJoint</title>
<!-- Node1 -->
<g id="node1" class="node">
<title>Node1</title>
<g id="a_node1"><a xlink:title="Fixed joint simulation.">
<polygon fill="#999999" stroke="#666666" points="96,-19 0,-19 0,0 96,0 96,-19"/>
<text text-anchor="middle" x="48" y="-7" font-family="Helvetica,sans-Serif" font-size="10.00">PhysicsFixedJoint</text>
</a>
</g>
</g>
<!-- Node2 -->
<g id="node2" class="node">
<title>Node2</title>
<g id="a_node2"><a xlink:href="interfacePhysicsJoint.html" target="_top" xlink:title="Wrapper over joint simulation.">
<polygon fill="white" stroke="#666666" points="84,-74 12,-74 12,-55 84,-55 84,-74"/>
<text text-anchor="middle" x="48" y="-62" font-family="Helvetica,sans-Serif" font-size="10.00">PhysicsJoint</text>
</a>
</g>
</g>
<!-- Node2&#45;&gt;Node1 -->
<g id="edge1" class="edge">
<title>Node2&#45;&gt;Node1</title>
<path fill="none" stroke="#63b8ff" d="M48,-43.93C48,-35.53 48,-26.13 48,-19.44"/>
<polygon fill="#63b8ff" stroke="#63b8ff" points="44.5,-43.75 48,-53.75 51.5,-43.75 44.5,-43.75"/>
</g>
<!-- Node3 -->
<g id="node3" class="node">
<title>Node3</title>
<g id="a_node3"><a xlink:href="interfacepointer.html" target="_top" xlink:title="Plain C++ pointer, no weak pointers, no memory management.">
<polygon fill="white" stroke="#666666" points="71,-129 25,-129 25,-110 71,-110 71,-129"/>
<text text-anchor="middle" x="48" y="-117" font-family="Helvetica,sans-Serif" font-size="10.00">pointer</text>
</a>
</g>
</g>
<!-- Node3&#45;&gt;Node2 -->
<g id="edge2" class="edge">
<title>Node3&#45;&gt;Node2</title>
<path fill="none" stroke="#63b8ff" d="M48,-98.93C48,-90.53 48,-81.13 48,-74.44"/>
<polygon fill="#63b8ff" stroke="#63b8ff" points="44.5,-98.75 48,-108.75 51.5,-98.75 44.5,-98.75"/>
</g>
</g>
</svg>
