<?xml version="1.0" encoding="UTF-8" standalone="no"?>
<!DOCTYPE svg PUBLIC "-//W3C//DTD SVG 1.1//EN"
 "http://www.w3.org/Graphics/SVG/1.1/DTD/svg11.dtd">
<!-- Generated by graphviz version 8.0.2 (20230410.1723)
 -->
<!-- Title: WorldSaveItem Pages: 1 -->
<svg width="110pt" height="192pt"
 viewBox="0.00 0.00 110.00 192.00" xmlns="http://www.w3.org/2000/svg" xmlns:xlink="http://www.w3.org/1999/xlink">
<g id="graph0" class="graph" transform="scale(1 1) rotate(0) translate(4 188)">
<title>WorldSaveItem</title>
<!-- Node1 -->
<g id="node1" class="node">
<title>Node1</title>
<g id="a_node1"><a xlink:title=" ">
<polygon fill="#999999" stroke="#666666" points="92,-19 10,-19 10,0 92,0 92,-19"/>
<text text-anchor="middle" x="51" y="-7" font-family="Helvetica,sans-Serif" font-size="10.00">WorldSaveItem</text>
</a>
</g>
</g>
<!-- Node2 -->
<g id="node2" class="node">
<title>Node2</title>
<g id="a_node2"><a xlink:href="interfaceWorkshopItem.html" target="_top" xlink:title=" ">
<polygon fill="white" stroke="#666666" points="91,-74 11,-74 11,-55 91,-55 91,-74"/>
<text text-anchor="middle" x="51" y="-62" font-family="Helvetica,sans-Serif" font-size="10.00">WorkshopItem</text>
</a>
</g>
</g>
<!-- Node2&#45;&gt;Node1 -->
<g id="edge1" class="edge">
<title>Node2&#45;&gt;Node1</title>
<path fill="none" stroke="#63b8ff" d="M51,-43.93C51,-35.53 51,-26.13 51,-19.44"/>
<polygon fill="#63b8ff" stroke="#63b8ff" points="47.5,-43.75 51,-53.75 54.5,-43.75 47.5,-43.75"/>
</g>
<!-- Node3 -->
<g id="node3" class="node">
<title>Node3</title>
<g id="a_node3"><a xlink:href="interfaceDownloadableItem.html" target="_top" xlink:title=" ">
<polygon fill="white" stroke="#666666" points="98.5,-129 3.5,-129 3.5,-110 98.5,-110 98.5,-129"/>
<text text-anchor="middle" x="51" y="-117" font-family="Helvetica,sans-Serif" font-size="10.00">DownloadableItem</text>
</a>
</g>
</g>
<!-- Node3&#45;&gt;Node2 -->
<g id="edge2" class="edge">
<title>Node3&#45;&gt;Node2</title>
<path fill="none" stroke="#63b8ff" d="M51,-98.93C51,-90.53 51,-81.13 51,-74.44"/>
<polygon fill="#63b8ff" stroke="#63b8ff" points="47.5,-98.75 51,-108.75 54.5,-98.75 47.5,-98.75"/>
</g>
<!-- Node4 -->
<g id="node4" class="node">
<title>Node4</title>
<g id="a_node4"><a xlink:href="interfaceBaseWorkshopItem.html" target="_top" xlink:title=" ">
<polygon fill="white" stroke="#666666" points="102,-184 0,-184 0,-165 102,-165 102,-184"/>
<text text-anchor="middle" x="51" y="-172" font-family="Helvetica,sans-Serif" font-size="10.00">BaseWorkshopItem</text>
</a>
</g>
</g>
<!-- Node4&#45;&gt;Node3 -->
<g id="edge3" class="edge">
<title>Node4&#45;&gt;Node3</title>
<path fill="none" stroke="#63b8ff" d="M51,-153.93C51,-145.53 51,-136.13 51,-129.44"/>
<polygon fill="#63b8ff" stroke="#63b8ff" points="47.5,-153.75 51,-163.75 54.5,-153.75 47.5,-153.75"/>
</g>
</g>
</svg>
