<?xml version="1.0" encoding="UTF-8" standalone="no"?>
<!DOCTYPE svg PUBLIC "-//W3C//DTD SVG 1.1//EN"
 "http://www.w3.org/Graphics/SVG/1.1/DTD/svg11.dtd">
<!-- Generated by graphviz version 8.0.2 (20230410.1723)
 -->
<!-- Title: DecoratorTestHasAimRequest Pages: 1 -->
<svg width="156pt" height="247pt"
 viewBox="0.00 0.00 156.00 247.00" xmlns="http://www.w3.org/2000/svg" xmlns:xlink="http://www.w3.org/1999/xlink">
<g id="graph0" class="graph" transform="scale(1 1) rotate(0) translate(4 243)">
<title>DecoratorTestHasAimRequest</title>
<!-- Node1 -->
<g id="node1" class="node">
<title>Node1</title>
<g id="a_node1"><a xlink:title=" ">
<polygon fill="#999999" stroke="#666666" points="148,-19 0,-19 0,0 148,0 148,-19"/>
<text text-anchor="middle" x="74" y="-7" font-family="Helvetica,sans-Serif" font-size="10.00">DecoratorTestHasAimRequest</text>
</a>
</g>
</g>
<!-- Node2 -->
<g id="node2" class="node">
<title>Node2</title>
<g id="a_node2"><a xlink:href="interfaceBaseDecoratorTest.html" target="_top" xlink:title=" ">
<polygon fill="white" stroke="#666666" points="124,-74 24,-74 24,-55 124,-55 124,-74"/>
<text text-anchor="middle" x="74" y="-62" font-family="Helvetica,sans-Serif" font-size="10.00">BaseDecoratorTest</text>
</a>
</g>
</g>
<!-- Node2&#45;&gt;Node1 -->
<g id="edge1" class="edge">
<title>Node2&#45;&gt;Node1</title>
<path fill="none" stroke="#63b8ff" d="M74,-43.93C74,-35.53 74,-26.13 74,-19.44"/>
<polygon fill="#63b8ff" stroke="#63b8ff" points="70.5,-43.75 74,-53.75 77.5,-43.75 70.5,-43.75"/>
</g>
<!-- Node3 -->
<g id="node3" class="node">
<title>Node3</title>
<g id="a_node3"><a xlink:href="interfaceNodePortsContainer.html" target="_top" xlink:title=" ">
<polygon fill="white" stroke="#666666" points="126,-129 22,-129 22,-110 126,-110 126,-129"/>
<text text-anchor="middle" x="74" y="-117" font-family="Helvetica,sans-Serif" font-size="10.00">NodePortsContainer</text>
</a>
</g>
</g>
<!-- Node3&#45;&gt;Node2 -->
<g id="edge2" class="edge">
<title>Node3&#45;&gt;Node2</title>
<path fill="none" stroke="#63b8ff" d="M74,-98.93C74,-90.53 74,-81.13 74,-74.44"/>
<polygon fill="#63b8ff" stroke="#63b8ff" points="70.5,-98.75 74,-108.75 77.5,-98.75 70.5,-98.75"/>
</g>
<!-- Node4 -->
<g id="node4" class="node">
<title>Node4</title>
<g id="a_node4"><a xlink:href="interfaceScriptAndConfig.html" target="_top" xlink:title="Base class for classes which combine enf::Class and enf::BaseClass (in C++).">
<polygon fill="white" stroke="#666666" points="117,-184 31,-184 31,-165 117,-165 117,-184"/>
<text text-anchor="middle" x="74" y="-172" font-family="Helvetica,sans-Serif" font-size="10.00">ScriptAndConfig</text>
</a>
</g>
</g>
<!-- Node4&#45;&gt;Node3 -->
<g id="edge3" class="edge">
<title>Node4&#45;&gt;Node3</title>
<path fill="none" stroke="#63b8ff" d="M74,-153.93C74,-145.53 74,-136.13 74,-129.44"/>
<polygon fill="#63b8ff" stroke="#63b8ff" points="70.5,-153.75 74,-163.75 77.5,-153.75 70.5,-153.75"/>
</g>
<!-- Node5 -->
<g id="node5" class="node">
<title>Node5</title>
<g id="a_node5"><a xlink:href="interfaceManaged.html" target="_top" xlink:title=" ">
<polygon fill="white" stroke="#666666" points="102,-239 46,-239 46,-220 102,-220 102,-239"/>
<text text-anchor="middle" x="74" y="-227" font-family="Helvetica,sans-Serif" font-size="10.00">Managed</text>
</a>
</g>
</g>
<!-- Node5&#45;&gt;Node4 -->
<g id="edge4" class="edge">
<title>Node5&#45;&gt;Node4</title>
<path fill="none" stroke="#63b8ff" d="M74,-208.93C74,-200.53 74,-191.13 74,-184.44"/>
<polygon fill="#63b8ff" stroke="#63b8ff" points="70.5,-208.75 74,-218.75 77.5,-208.75 70.5,-208.75"/>
</g>
</g>
</svg>
