<?xml version="1.0" encoding="UTF-8" standalone="no"?>
<!DOCTYPE svg PUBLIC "-//W3C//DTD SVG 1.1//EN"
 "http://www.w3.org/Graphics/SVG/1.1/DTD/svg11.dtd">
<!-- Generated by graphviz version 8.0.2 (20230410.1723)
 -->
<!-- Title: AIGroup Pages: 1 -->
<svg width="100pt" height="357pt"
 viewBox="0.00 0.00 100.00 357.00" xmlns="http://www.w3.org/2000/svg" xmlns:xlink="http://www.w3.org/1999/xlink">
<g id="graph0" class="graph" transform="scale(1 1) rotate(0) translate(4 353)">
<title>AIGroup</title>
<!-- Node1 -->
<g id="node1" class="node">
<title>Node1</title>
<g id="a_node1"><a xlink:title=" ">
<polygon fill="#999999" stroke="#666666" points="72,-74 20,-74 20,-55 72,-55 72,-74"/>
<text text-anchor="middle" x="46" y="-62" font-family="Helvetica,sans-Serif" font-size="10.00">AIGroup</text>
</a>
</g>
</g>
<!-- Node7 -->
<g id="node7" class="node">
<title>Node7</title>
<g id="a_node7"><a xlink:href="interfaceAISpawnerGroup.html" target="_top" xlink:title=" ">
<polygon fill="white" stroke="#666666" points="90.5,-19 1.5,-19 1.5,0 90.5,0 90.5,-19"/>
<text text-anchor="middle" x="46" y="-7" font-family="Helvetica,sans-Serif" font-size="10.00">AISpawnerGroup</text>
</a>
</g>
</g>
<!-- Node1&#45;&gt;Node7 -->
<g id="edge6" class="edge">
<title>Node1&#45;&gt;Node7</title>
<path fill="none" stroke="#63b8ff" d="M46,-43.93C46,-35.53 46,-26.13 46,-19.44"/>
<polygon fill="#63b8ff" stroke="#63b8ff" points="42.5,-43.75 46,-53.75 49.5,-43.75 42.5,-43.75"/>
</g>
<!-- Node2 -->
<g id="node2" class="node">
<title>Node2</title>
<g id="a_node2"><a xlink:href="interfaceAIAgent.html" target="_top" xlink:title=" ">
<polygon fill="white" stroke="#666666" points="71.5,-129 20.5,-129 20.5,-110 71.5,-110 71.5,-129"/>
<text text-anchor="middle" x="46" y="-117" font-family="Helvetica,sans-Serif" font-size="10.00">AIAgent</text>
</a>
</g>
</g>
<!-- Node2&#45;&gt;Node1 -->
<g id="edge1" class="edge">
<title>Node2&#45;&gt;Node1</title>
<path fill="none" stroke="#63b8ff" d="M46,-98.93C46,-90.53 46,-81.13 46,-74.44"/>
<polygon fill="#63b8ff" stroke="#63b8ff" points="42.5,-98.75 46,-108.75 49.5,-98.75 42.5,-98.75"/>
</g>
<!-- Node3 -->
<g id="node3" class="node">
<title>Node3</title>
<g id="a_node3"><a xlink:href="interfaceGenericController.html" target="_top" xlink:title=" ">
<polygon fill="white" stroke="#666666" points="92,-184 0,-184 0,-165 92,-165 92,-184"/>
<text text-anchor="middle" x="46" y="-172" font-family="Helvetica,sans-Serif" font-size="10.00">GenericController</text>
</a>
</g>
</g>
<!-- Node3&#45;&gt;Node2 -->
<g id="edge2" class="edge">
<title>Node3&#45;&gt;Node2</title>
<path fill="none" stroke="#63b8ff" d="M46,-153.93C46,-145.53 46,-136.13 46,-129.44"/>
<polygon fill="#63b8ff" stroke="#63b8ff" points="42.5,-153.75 46,-163.75 49.5,-153.75 42.5,-153.75"/>
</g>
<!-- Node4 -->
<g id="node4" class="node">
<title>Node4</title>
<g id="a_node4"><a xlink:href="interfaceGenericEntity.html" target="_top" xlink:title="Base entity class.">
<polygon fill="white" stroke="#666666" points="84,-239 8,-239 8,-220 84,-220 84,-239"/>
<text text-anchor="middle" x="46" y="-227" font-family="Helvetica,sans-Serif" font-size="10.00">GenericEntity</text>
</a>
</g>
</g>
<!-- Node4&#45;&gt;Node3 -->
<g id="edge3" class="edge">
<title>Node4&#45;&gt;Node3</title>
<path fill="none" stroke="#63b8ff" d="M46,-208.93C46,-200.53 46,-191.13 46,-184.44"/>
<polygon fill="#63b8ff" stroke="#63b8ff" points="42.5,-208.75 46,-218.75 49.5,-208.75 42.5,-208.75"/>
</g>
<!-- Node5 -->
<g id="node5" class="node">
<title>Node5</title>
<g id="a_node5"><a xlink:href="interfaceIEntity.html" target="_top" xlink:title=" ">
<polygon fill="white" stroke="#666666" points="68,-294 24,-294 24,-275 68,-275 68,-294"/>
<text text-anchor="middle" x="46" y="-282" font-family="Helvetica,sans-Serif" font-size="10.00">IEntity</text>
</a>
</g>
</g>
<!-- Node5&#45;&gt;Node4 -->
<g id="edge4" class="edge">
<title>Node5&#45;&gt;Node4</title>
<path fill="none" stroke="#63b8ff" d="M46,-263.93C46,-255.53 46,-246.13 46,-239.44"/>
<polygon fill="#63b8ff" stroke="#63b8ff" points="42.5,-263.75 46,-273.75 49.5,-263.75 42.5,-263.75"/>
</g>
<!-- Node6 -->
<g id="node6" class="node">
<title>Node6</title>
<g id="a_node6"><a xlink:href="interfaceManaged.html" target="_top" xlink:title=" ">
<polygon fill="white" stroke="#666666" points="74,-349 18,-349 18,-330 74,-330 74,-349"/>
<text text-anchor="middle" x="46" y="-337" font-family="Helvetica,sans-Serif" font-size="10.00">Managed</text>
</a>
</g>
</g>
<!-- Node6&#45;&gt;Node5 -->
<g id="edge5" class="edge">
<title>Node6&#45;&gt;Node5</title>
<path fill="none" stroke="#63b8ff" d="M46,-318.93C46,-310.53 46,-301.13 46,-294.44"/>
<polygon fill="#63b8ff" stroke="#63b8ff" points="42.5,-318.75 46,-328.75 49.5,-318.75 42.5,-318.75"/>
</g>
</g>
</svg>
