<?xml version="1.0" encoding="UTF-8" standalone="no"?>
<!DOCTYPE svg PUBLIC "-//W3C//DTD SVG 1.1//EN"
 "http://www.w3.org/Graphics/SVG/1.1/DTD/svg11.dtd">
<!-- Generated by graphviz version 8.0.2 (20230410.1723)
 -->
<!-- Title: TraceParam Pages: 1 -->
<svg width="158pt" height="192pt"
 viewBox="0.00 0.00 157.50 192.00" xmlns="http://www.w3.org/2000/svg" xmlns:xlink="http://www.w3.org/1999/xlink">
<g id="graph0" class="graph" transform="scale(1 1) rotate(0) translate(4 188)">
<title>TraceParam</title>
<!-- Node1 -->
<g id="node1" class="node">
<title>Node1</title>
<g id="a_node1"><a xlink:title="Input&amp;Output structure for collision tests.">
<polygon fill="#999999" stroke="#666666" points="106.5,-129 37.5,-129 37.5,-110 106.5,-110 106.5,-129"/>
<text text-anchor="middle" x="72" y="-117" font-family="Helvetica,sans-Serif" font-size="10.00">TraceParam</text>
</a>
</g>
</g>
<!-- Node3 -->
<g id="node3" class="node">
<title>Node3</title>
<g id="a_node3"><a xlink:href="interfaceTraceBox.html" target="_top" xlink:title=" ">
<polygon fill="white" stroke="#666666" points="60,-74 2,-74 2,-55 60,-55 60,-74"/>
<text text-anchor="middle" x="31" y="-62" font-family="Helvetica,sans-Serif" font-size="10.00">TraceBox</text>
</a>
</g>
</g>
<!-- Node1&#45;&gt;Node3 -->
<g id="edge2" class="edge">
<title>Node1&#45;&gt;Node3</title>
<path fill="none" stroke="#63b8ff" d="M58.63,-101.22C51.72,-92.28 43.57,-81.74 37.92,-74.44"/>
<polygon fill="#63b8ff" stroke="#63b8ff" points="56.34,-102.98 65.23,-108.75 61.88,-98.7 56.34,-102.98"/>
</g>
<!-- Node5 -->
<g id="node5" class="node">
<title>Node5</title>
<g id="a_node5"><a xlink:href="interfaceTraceSphere.html" target="_top" xlink:title=" ">
<polygon fill="white" stroke="#666666" points="149.5,-74 78.5,-74 78.5,-55 149.5,-55 149.5,-74"/>
<text text-anchor="middle" x="114" y="-62" font-family="Helvetica,sans-Serif" font-size="10.00">TraceSphere</text>
</a>
</g>
</g>
<!-- Node1&#45;&gt;Node5 -->
<g id="edge4" class="edge">
<title>Node1&#45;&gt;Node5</title>
<path fill="none" stroke="#63b8ff" d="M85.7,-101.22C92.78,-92.28 101.13,-81.74 106.91,-74.44"/>
<polygon fill="#63b8ff" stroke="#63b8ff" points="82.4,-98.74 78.94,-108.75 87.89,-103.08 82.4,-98.74"/>
</g>
<!-- Node2 -->
<g id="node2" class="node">
<title>Node2</title>
<g id="a_node2"><a xlink:href="interfaceManaged.html" target="_top" xlink:title=" ">
<polygon fill="white" stroke="#666666" points="100,-184 44,-184 44,-165 100,-165 100,-184"/>
<text text-anchor="middle" x="72" y="-172" font-family="Helvetica,sans-Serif" font-size="10.00">Managed</text>
</a>
</g>
</g>
<!-- Node2&#45;&gt;Node1 -->
<g id="edge1" class="edge">
<title>Node2&#45;&gt;Node1</title>
<path fill="none" stroke="#63b8ff" d="M72,-153.93C72,-145.53 72,-136.13 72,-129.44"/>
<polygon fill="#63b8ff" stroke="#63b8ff" points="68.5,-153.75 72,-163.75 75.5,-153.75 68.5,-153.75"/>
</g>
<!-- Node4 -->
<g id="node4" class="node">
<title>Node4</title>
<g id="a_node4"><a xlink:href="interfaceTraceOBB.html" target="_top" xlink:title=" ">
<polygon fill="white" stroke="#666666" points="62,-19 0,-19 0,0 62,0 62,-19"/>
<text text-anchor="middle" x="31" y="-7" font-family="Helvetica,sans-Serif" font-size="10.00">TraceOBB</text>
</a>
</g>
</g>
<!-- Node3&#45;&gt;Node4 -->
<g id="edge3" class="edge">
<title>Node3&#45;&gt;Node4</title>
<path fill="none" stroke="#63b8ff" d="M31,-43.93C31,-35.53 31,-26.13 31,-19.44"/>
<polygon fill="#63b8ff" stroke="#63b8ff" points="27.5,-43.75 31,-53.75 34.5,-43.75 27.5,-43.75"/>
</g>
</g>
</svg>
