<?xml version="1.0" encoding="UTF-8" standalone="no"?>
<!DOCTYPE svg PUBLIC "-//W3C//DTD SVG 1.1//EN"
 "http://www.w3.org/Graphics/SVG/1.1/DTD/svg11.dtd">
<!-- Generated by graphviz version 8.0.2 (20230410.1723)
 -->
<!-- Title: WorkbenchPlugin Pages: 1 -->
<svg width="534pt" height="767pt"
 viewBox="0.00 0.00 534.00 767.00" xmlns="http://www.w3.org/2000/svg" xmlns:xlink="http://www.w3.org/1999/xlink">
<g id="graph0" class="graph" transform="scale(1 1) rotate(0) translate(4 763)">
<title>WorkbenchPlugin</title>
<!-- Node1 -->
<g id="node1" class="node">
<title>Node1</title>
<g id="a_node1"><a xlink:title=" ">
<polygon fill="#999999" stroke="#666666" points="185,-389 92,-389 92,-370 185,-370 185,-389"/>
<text text-anchor="middle" x="138.5" y="-377" font-family="Helvetica,sans-Serif" font-size="10.00">WorkbenchPlugin</text>
</a>
</g>
</g>
<!-- Node3 -->
<g id="node3" class="node">
<title>Node3</title>
<g id="a_node3"><a xlink:href="interfaceBatchTextureProcessorPlugin.html" target="_top" xlink:title=" ">
<polygon fill="white" stroke="#666666" points="367,-759 221,-759 221,-740 367,-740 367,-759"/>
<text text-anchor="middle" x="294" y="-747" font-family="Helvetica,sans-Serif" font-size="10.00">BatchTextureProcessorPlugin</text>
</a>
</g>
</g>
<!-- Node1&#45;&gt;Node3 -->
<g id="edge2" class="edge">
<title>Node1&#45;&gt;Node3</title>
<path fill="none" stroke="#63b8ff" d="M141.46,-399.91C148.36,-467.64 173.72,-683.38 221,-731.5 224.16,-734.72 227.8,-737.39 231.74,-739.61"/>
<polygon fill="#63b8ff" stroke="#63b8ff" points="144.88,-399.99 140.41,-390.38 137.92,-400.68 144.88,-399.99"/>
</g>
<!-- Node4 -->
<g id="node4" class="node">
<title>Node4</title>
<g id="a_node4"><a xlink:href="interfaceBuildShoreMap.html" target="_top" xlink:title=" ">
<polygon fill="white" stroke="#666666" points="335.5,-722 252.5,-722 252.5,-703 335.5,-703 335.5,-722"/>
<text text-anchor="middle" x="294" y="-710" font-family="Helvetica,sans-Serif" font-size="10.00">BuildShoreMap</text>
</a>
</g>
</g>
<!-- Node1&#45;&gt;Node4 -->
<g id="edge3" class="edge">
<title>Node1&#45;&gt;Node4</title>
<path fill="none" stroke="#63b8ff" d="M142.09,-400.17C150.4,-463.37 178.42,-652.27 221,-694.5 229.32,-702.76 240.83,-707.42 252.2,-710"/>
<polygon fill="#63b8ff" stroke="#63b8ff" points="145.43,-399.76 140.69,-390.29 138.49,-400.65 145.43,-399.76"/>
</g>
<!-- Node5 -->
<g id="node5" class="node">
<title>Node5</title>
<g id="a_node5"><a xlink:href="interfaceBuildShoreMapWEPlugin.html" target="_top" xlink:title=" ">
<polygon fill="white" stroke="#666666" points="357,-685 231,-685 231,-666 357,-666 357,-685"/>
<text text-anchor="middle" x="294" y="-673" font-family="Helvetica,sans-Serif" font-size="10.00">BuildShoreMapWEPlugin</text>
</a>
</g>
</g>
<!-- Node1&#45;&gt;Node5 -->
<g id="edge4" class="edge">
<title>Node1&#45;&gt;Node5</title>
<path fill="none" stroke="#63b8ff" d="M139.06,-400.33C139.17,-451.87 146.95,-586.36 221,-657.5 224.35,-660.71 228.17,-663.38 232.28,-665.59"/>
<polygon fill="#63b8ff" stroke="#63b8ff" points="142.57,-400.38 139.16,-390.35 135.57,-400.32 142.57,-400.38"/>
</g>
<!-- Node6 -->
<g id="node6" class="node">
<title>Node6</title>
<g id="a_node6"><a xlink:href="interfaceCameraOrientationTool.html" target="_top" xlink:title=" ">
<polygon fill="white" stroke="#666666" points="352,-648 236,-648 236,-629 352,-629 352,-648"/>
<text text-anchor="middle" x="294" y="-636" font-family="Helvetica,sans-Serif" font-size="10.00">CameraOrientationTool</text>
</a>
</g>
</g>
<!-- Node1&#45;&gt;Node6 -->
<g id="edge5" class="edge">
<title>Node1&#45;&gt;Node6</title>
<path fill="none" stroke="#63b8ff" d="M140.15,-400.05C142.77,-446.55 155.87,-560.45 221,-620.5 225.26,-624.43 230.25,-627.53 235.58,-629.98"/>
<polygon fill="#63b8ff" stroke="#63b8ff" points="143.61,-400.12 139.67,-390.29 136.62,-400.43 143.61,-400.12"/>
</g>
<!-- Node7 -->
<g id="node7" class="node">
<title>Node7</title>
<g id="a_node7"><a xlink:href="interfaceEntityOrientationTool.html" target="_top" xlink:title=" ">
<polygon fill="white" stroke="#666666" points="347.5,-611 240.5,-611 240.5,-592 347.5,-592 347.5,-611"/>
<text text-anchor="middle" x="294" y="-599" font-family="Helvetica,sans-Serif" font-size="10.00">EntityOrientationTool</text>
</a>
</g>
</g>
<!-- Node1&#45;&gt;Node7 -->
<g id="edge6" class="edge">
<title>Node1&#45;&gt;Node7</title>
<path fill="none" stroke="#63b8ff" d="M141.61,-400.23C146.97,-441.57 164.91,-534.52 221,-583.5 226.53,-588.33 233.17,-591.9 240.15,-594.54"/>
<polygon fill="#63b8ff" stroke="#63b8ff" points="144.98,-399.9 140.35,-390.37 138.03,-400.71 144.98,-399.9"/>
</g>
<!-- Node8 -->
<g id="node8" class="node">
<title>Node8</title>
<g id="a_node8"><a xlink:href="interfaceEntityRelativePlugin.html" target="_top" xlink:title=" ">
<polygon fill="white" stroke="#666666" points="345.5,-574 242.5,-574 242.5,-555 345.5,-555 345.5,-574"/>
<text text-anchor="middle" x="294" y="-562" font-family="Helvetica,sans-Serif" font-size="10.00">EntityRelativePlugin</text>
</a>
</g>
</g>
<!-- Node1&#45;&gt;Node8 -->
<g id="edge7" class="edge">
<title>Node1&#45;&gt;Node8</title>
<path fill="none" stroke="#63b8ff" d="M143.52,-399.62C151.65,-434.95 173.48,-508 221,-546.5 227.21,-551.53 234.63,-555.18 242.32,-557.82"/>
<polygon fill="#63b8ff" stroke="#63b8ff" points="146.8,-399.23 141.27,-390.19 139.95,-400.71 146.8,-399.23"/>
</g>
<!-- Node9 -->
<g id="node9" class="node">
<title>Node9</title>
<g id="a_node9"><a xlink:href="interfaceGenerateFlowMaps.html" target="_top" xlink:title=" ">
<polygon fill="white" stroke="#666666" points="344.5,-537 243.5,-537 243.5,-518 344.5,-518 344.5,-537"/>
<text text-anchor="middle" x="294" y="-525" font-family="Helvetica,sans-Serif" font-size="10.00">GenerateFlowMaps</text>
</a>
</g>
</g>
<!-- Node1&#45;&gt;Node9 -->
<g id="edge8" class="edge">
<title>Node1&#45;&gt;Node9</title>
<path fill="none" stroke="#63b8ff" d="M146.51,-399.58C157.64,-428.45 182.18,-481.32 221,-509.5 227.57,-514.27 235.27,-517.78 243.14,-520.36"/>
<polygon fill="#63b8ff" stroke="#63b8ff" points="149.52,-398.63 142.78,-390.46 142.95,-401.05 149.52,-398.63"/>
</g>
<!-- Node10 -->
<g id="node10" class="node">
<title>Node10</title>
<g id="a_node10"><a xlink:href="interfaceGenerateFlowMapsWEPlugin.html" target="_top" xlink:title=" ">
<polygon fill="white" stroke="#666666" points="366,-500 222,-500 222,-481 366,-481 366,-500"/>
<text text-anchor="middle" x="294" y="-488" font-family="Helvetica,sans-Serif" font-size="10.00">GenerateFlowMapsWEPlugin</text>
</a>
</g>
</g>
<!-- Node1&#45;&gt;Node10 -->
<g id="edge9" class="edge">
<title>Node1&#45;&gt;Node10</title>
<path fill="none" stroke="#63b8ff" d="M150.99,-398.45C164.9,-419.74 190.31,-453.77 221,-472.5 226.28,-475.72 232.11,-478.37 238.1,-480.54"/>
<polygon fill="#63b8ff" stroke="#63b8ff" points="153.57,-396.99 145.27,-390.4 147.65,-400.73 153.57,-396.99"/>
</g>
<!-- Node11 -->
<g id="node11" class="node">
<title>Node11</title>
<g id="a_node11"><a xlink:href="interfaceLocalizationEditorPlugin.html" target="_top" xlink:title=" ">
<polygon fill="white" stroke="#666666" points="354.5,-463 233.5,-463 233.5,-444 354.5,-444 354.5,-463"/>
<text text-anchor="middle" x="294" y="-451" font-family="Helvetica,sans-Serif" font-size="10.00">LocalizationEditorPlugin</text>
</a>
</g>
</g>
<!-- Node1&#45;&gt;Node11 -->
<g id="edge10" class="edge">
<title>Node1&#45;&gt;Node11</title>
<path fill="none" stroke="#63b8ff" d="M159.87,-396.1C175.7,-408.26 198.65,-424.36 221,-434.5 228.89,-438.08 237.58,-441.08 246.11,-443.57"/>
<polygon fill="#63b8ff" stroke="#63b8ff" points="162.45,-392.89 152.43,-389.46 158.13,-398.39 162.45,-392.89"/>
</g>
<!-- Node13 -->
<g id="node13" class="node">
<title>Node13</title>
<g id="a_node13"><a xlink:href="interfaceResaveMetaPlugin.html" target="_top" xlink:title=" ">
<polygon fill="white" stroke="#666666" points="342.5,-426 245.5,-426 245.5,-407 342.5,-407 342.5,-426"/>
<text text-anchor="middle" x="294" y="-414" font-family="Helvetica,sans-Serif" font-size="10.00">ResaveMetaPlugin</text>
</a>
</g>
</g>
<!-- Node1&#45;&gt;Node13 -->
<g id="edge12" class="edge">
<title>Node1&#45;&gt;Node13</title>
<path fill="none" stroke="#63b8ff" d="M191.29,-391.98C210.99,-396.73 233.15,-402.07 251.75,-406.56"/>
<polygon fill="#63b8ff" stroke="#63b8ff" points="192.18,-388.36 181.64,-389.42 190.54,-395.16 192.18,-388.36"/>
</g>
<!-- Node14 -->
<g id="node14" class="node">
<title>Node14</title>
<g id="a_node14"><a xlink:href="interfaceResavePlugin.html" target="_top" xlink:title=" ">
<polygon fill="white" stroke="#666666" points="331.5,-389 256.5,-389 256.5,-370 331.5,-370 331.5,-389"/>
<text text-anchor="middle" x="294" y="-377" font-family="Helvetica,sans-Serif" font-size="10.00">ResavePlugin</text>
</a>
</g>
</g>
<!-- Node1&#45;&gt;Node14 -->
<g id="edge13" class="edge">
<title>Node1&#45;&gt;Node14</title>
<path fill="none" stroke="#63b8ff" d="M196.02,-379.5C216.05,-379.5 238.06,-379.5 256.04,-379.5"/>
<polygon fill="#63b8ff" stroke="#63b8ff" points="196.14,-376 186.14,-379.5 196.14,-383 196.14,-376"/>
</g>
<!-- Node15 -->
<g id="node15" class="node">
<title>Node15</title>
<g id="a_node15"><a xlink:href="interfaceResourceManagerPlugin.html" target="_top" xlink:title=" ">
<polygon fill="white" stroke="#666666" points="355,-352 233,-352 233,-333 355,-333 355,-352"/>
<text text-anchor="middle" x="294" y="-340" font-family="Helvetica,sans-Serif" font-size="10.00">ResourceManagerPlugin</text>
</a>
</g>
</g>
<!-- Node1&#45;&gt;Node15 -->
<g id="edge14" class="edge">
<title>Node1&#45;&gt;Node15</title>
<path fill="none" stroke="#63b8ff" d="M191.29,-367.02C210.99,-362.27 233.15,-356.93 251.75,-352.44"/>
<polygon fill="#63b8ff" stroke="#63b8ff" points="190.54,-363.84 181.64,-369.58 192.18,-370.64 190.54,-363.84"/>
</g>
<!-- Node19 -->
<g id="node19" class="node">
<title>Node19</title>
<g id="a_node19"><a xlink:href="interfaceResourceProcessorPlugin.html" target="_top" xlink:title=" ">
<polygon fill="white" stroke="#666666" points="358.5,-315 229.5,-315 229.5,-296 358.5,-296 358.5,-315"/>
<text text-anchor="middle" x="294" y="-303" font-family="Helvetica,sans-Serif" font-size="10.00">ResourceProcessorPlugin</text>
</a>
</g>
</g>
<!-- Node1&#45;&gt;Node19 -->
<g id="edge18" class="edge">
<title>Node1&#45;&gt;Node19</title>
<path fill="none" stroke="#63b8ff" d="M159.51,-362.72C175.3,-350.25 198.37,-333.7 221,-323.5 228.05,-320.32 235.75,-317.65 243.41,-315.41"/>
<polygon fill="#63b8ff" stroke="#63b8ff" points="157.68,-360.5 152.11,-369.51 162.08,-365.94 157.68,-360.5"/>
</g>
<!-- Node20 -->
<g id="node20" class="node">
<title>Node20</title>
<g id="a_node20"><a xlink:href="interfaceResourceTestPlugin.html" target="_top" xlink:title=" ">
<polygon fill="white" stroke="#666666" points="346,-278 242,-278 242,-259 346,-259 346,-278"/>
<text text-anchor="middle" x="294" y="-266" font-family="Helvetica,sans-Serif" font-size="10.00">ResourceTestPlugin</text>
</a>
</g>
</g>
<!-- Node1&#45;&gt;Node20 -->
<g id="edge19" class="edge">
<title>Node1&#45;&gt;Node20</title>
<path fill="none" stroke="#63b8ff" d="M150.99,-360.55C164.9,-339.26 190.31,-305.23 221,-286.5 227.38,-282.61 234.56,-279.55 241.86,-277.16"/>
<polygon fill="#63b8ff" stroke="#63b8ff" points="147.65,-358.27 145.27,-368.6 153.57,-362.01 147.65,-358.27"/>
</g>
<!-- Node21 -->
<g id="node21" class="node">
<title>Node21</title>
<g id="a_node21"><a xlink:href="interfaceSCR__MapExporterPlugin.html" target="_top" xlink:title=" ">
<polygon fill="white" stroke="#666666" points="356.5,-241 231.5,-241 231.5,-222 356.5,-222 356.5,-241"/>
<text text-anchor="middle" x="294" y="-229" font-family="Helvetica,sans-Serif" font-size="10.00">SCR_MapExporterPlugin</text>
</a>
</g>
</g>
<!-- Node1&#45;&gt;Node21 -->
<g id="edge20" class="edge">
<title>Node1&#45;&gt;Node21</title>
<path fill="none" stroke="#63b8ff" d="M146.51,-359.42C157.64,-330.55 182.18,-277.68 221,-249.5 225.48,-246.25 230.49,-243.58 235.72,-241.39"/>
<polygon fill="#63b8ff" stroke="#63b8ff" points="142.95,-357.95 142.78,-368.54 149.52,-360.37 142.95,-357.95"/>
</g>
<!-- Node22 -->
<g id="node22" class="node">
<title>Node22</title>
<g id="a_node22"><a xlink:href="interfaceSendToBlenderPlugin.html" target="_top" xlink:title=" ">
<polygon fill="white" stroke="#666666" points="349,-204 239,-204 239,-185 349,-185 349,-204"/>
<text text-anchor="middle" x="294" y="-192" font-family="Helvetica,sans-Serif" font-size="10.00">SendToBlenderPlugin</text>
</a>
</g>
</g>
<!-- Node1&#45;&gt;Node22 -->
<g id="edge21" class="edge">
<title>Node1&#45;&gt;Node22</title>
<path fill="none" stroke="#63b8ff" d="M143.52,-359.38C151.65,-324.05 173.48,-251 221,-212.5 226.21,-208.28 232.27,-205.04 238.62,-202.54"/>
<polygon fill="#63b8ff" stroke="#63b8ff" points="139.95,-358.29 141.27,-368.81 146.8,-359.77 139.95,-358.29"/>
</g>
<!-- Node23 -->
<g id="node23" class="node">
<title>Node23</title>
<g id="a_node23"><a xlink:href="interfaceValidateFBXPlugin.html" target="_top" xlink:title=" ">
<polygon fill="white" stroke="#666666" points="342.5,-167 245.5,-167 245.5,-148 342.5,-148 342.5,-167"/>
<text text-anchor="middle" x="294" y="-155" font-family="Helvetica,sans-Serif" font-size="10.00">ValidateFBXPlugin</text>
</a>
</g>
</g>
<!-- Node1&#45;&gt;Node23 -->
<g id="edge22" class="edge">
<title>Node1&#45;&gt;Node23</title>
<path fill="none" stroke="#63b8ff" d="M141.61,-358.77C146.97,-317.43 164.91,-224.48 221,-175.5 227.89,-169.48 236.5,-165.42 245.34,-162.69"/>
<polygon fill="#63b8ff" stroke="#63b8ff" points="138.03,-358.29 140.35,-368.63 144.98,-359.1 138.03,-358.29"/>
</g>
<!-- Node24 -->
<g id="node24" class="node">
<title>Node24</title>
<g id="a_node24"><a xlink:href="interfaceValidateMaterialPlugin.html" target="_top" xlink:title=" ">
<polygon fill="white" stroke="#666666" points="350.5,-130 237.5,-130 237.5,-111 350.5,-111 350.5,-130"/>
<text text-anchor="middle" x="294" y="-118" font-family="Helvetica,sans-Serif" font-size="10.00">ValidateMaterialPlugin</text>
</a>
</g>
</g>
<!-- Node1&#45;&gt;Node24 -->
<g id="edge23" class="edge">
<title>Node1&#45;&gt;Node24</title>
<path fill="none" stroke="#63b8ff" d="M140.15,-358.95C142.77,-312.45 155.87,-198.55 221,-138.5 225.64,-134.22 231.14,-130.92 237.01,-128.38"/>
<polygon fill="#63b8ff" stroke="#63b8ff" points="136.62,-358.57 139.67,-368.71 143.61,-358.88 136.62,-358.57"/>
</g>
<!-- Node25 -->
<g id="node25" class="node">
<title>Node25</title>
<g id="a_node25"><a xlink:href="interfaceWorldEditorPlugin.html" target="_top" xlink:title=" ">
<polygon fill="white" stroke="#666666" points="341.5,-93 246.5,-93 246.5,-74 341.5,-74 341.5,-93"/>
<text text-anchor="middle" x="294" y="-81" font-family="Helvetica,sans-Serif" font-size="10.00">WorldEditorPlugin</text>
</a>
</g>
</g>
<!-- Node1&#45;&gt;Node25 -->
<g id="edge24" class="edge">
<title>Node1&#45;&gt;Node25</title>
<path fill="none" stroke="#63b8ff" d="M139.06,-358.67C139.17,-307.13 146.95,-172.64 221,-101.5 227.97,-94.81 237.03,-90.49 246.37,-87.73"/>
<polygon fill="#63b8ff" stroke="#63b8ff" points="135.57,-358.68 139.16,-368.65 142.57,-358.62 135.57,-358.68"/>
</g>
<!-- Node27 -->
<g id="node27" class="node">
<title>Node27</title>
<g id="a_node27"><a xlink:href="interfaceWorldRunPlugin.html" target="_top" xlink:title=" ">
<polygon fill="white" stroke="#666666" points="337,-56 251,-56 251,-37 337,-37 337,-56"/>
<text text-anchor="middle" x="294" y="-44" font-family="Helvetica,sans-Serif" font-size="10.00">WorldRunPlugin</text>
</a>
</g>
</g>
<!-- Node1&#45;&gt;Node27 -->
<g id="edge26" class="edge">
<title>Node1&#45;&gt;Node27</title>
<path fill="none" stroke="#63b8ff" d="M142.09,-358.83C150.4,-295.63 178.42,-106.73 221,-64.5 228.96,-56.61 239.82,-52 250.7,-49.36"/>
<polygon fill="#63b8ff" stroke="#63b8ff" points="138.49,-358.35 140.69,-368.71 145.43,-359.24 138.49,-358.35"/>
</g>
<!-- Node28 -->
<g id="node28" class="node">
<title>Node28</title>
<g id="a_node28"><a xlink:href="interfaceWorldTestPlugin.html" target="_top" xlink:title=" ">
<polygon fill="white" stroke="#666666" points="338,-19 250,-19 250,0 338,0 338,-19"/>
<text text-anchor="middle" x="294" y="-7" font-family="Helvetica,sans-Serif" font-size="10.00">WorldTestPlugin</text>
</a>
</g>
</g>
<!-- Node1&#45;&gt;Node28 -->
<g id="edge27" class="edge">
<title>Node1&#45;&gt;Node28</title>
<path fill="none" stroke="#63b8ff" d="M141.46,-359.09C148.36,-291.36 173.72,-75.62 221,-27.5 228.68,-19.69 239.19,-15.08 249.82,-12.41"/>
<polygon fill="#63b8ff" stroke="#63b8ff" points="137.92,-358.32 140.41,-368.62 144.88,-359.01 137.92,-358.32"/>
</g>
<!-- Node2 -->
<g id="node2" class="node">
<title>Node2</title>
<g id="a_node2"><a xlink:href="interfaceManaged.html" target="_top" xlink:title=" ">
<polygon fill="white" stroke="#666666" points="56,-389 0,-389 0,-370 56,-370 56,-389"/>
<text text-anchor="middle" x="28" y="-377" font-family="Helvetica,sans-Serif" font-size="10.00">Managed</text>
</a>
</g>
</g>
<!-- Node2&#45;&gt;Node1 -->
<g id="edge1" class="edge">
<title>Node2&#45;&gt;Node1</title>
<path fill="none" stroke="#63b8ff" d="M67.13,-379.5C75.02,-379.5 83.42,-379.5 91.56,-379.5"/>
<polygon fill="#63b8ff" stroke="#63b8ff" points="67.38,-376 57.38,-379.5 67.38,-383 67.38,-376"/>
</g>
<!-- Node12 -->
<g id="node12" class="node">
<title>Node12</title>
<g id="a_node12"><a xlink:href="interfaceCheckLocalizationPlugin.html" target="_top" xlink:title=" ">
<polygon fill="white" stroke="#666666" points="526,-463 403,-463 403,-444 526,-444 526,-463"/>
<text text-anchor="middle" x="464.5" y="-451" font-family="Helvetica,sans-Serif" font-size="10.00">CheckLocalizationPlugin</text>
</a>
</g>
</g>
<!-- Node11&#45;&gt;Node12 -->
<g id="edge11" class="edge">
<title>Node11&#45;&gt;Node12</title>
<path fill="none" stroke="#63b8ff" d="M365.58,-453.5C377.91,-453.5 390.64,-453.5 402.68,-453.5"/>
<polygon fill="#63b8ff" stroke="#63b8ff" points="365.88,-450 355.88,-453.5 365.88,-457 365.88,-450"/>
</g>
<!-- Node16 -->
<g id="node16" class="node">
<title>Node16</title>
<g id="a_node16"><a xlink:href="interfaceResourceImportPlugin.html" target="_top" xlink:title=" ">
<polygon fill="white" stroke="#666666" points="520.5,-389 408.5,-389 408.5,-370 520.5,-370 520.5,-389"/>
<text text-anchor="middle" x="464.5" y="-377" font-family="Helvetica,sans-Serif" font-size="10.00">ResourceImportPlugin</text>
</a>
</g>
</g>
<!-- Node15&#45;&gt;Node16 -->
<g id="edge15" class="edge">
<title>Node15&#45;&gt;Node16</title>
<path fill="none" stroke="#63b8ff" d="M350.65,-354.72C372.57,-359.53 397.43,-364.99 418.22,-369.56"/>
<polygon fill="#63b8ff" stroke="#63b8ff" points="351.67,-351.14 341.15,-352.42 350.17,-357.98 351.67,-351.14"/>
</g>
<!-- Node17 -->
<g id="node17" class="node">
<title>Node17</title>
<g id="a_node17"><a xlink:href="interfaceTerrainImportPlugin.html" target="_top" xlink:title=" ">
<polygon fill="white" stroke="#666666" points="514.5,-352 414.5,-352 414.5,-333 514.5,-333 514.5,-352"/>
<text text-anchor="middle" x="464.5" y="-340" font-family="Helvetica,sans-Serif" font-size="10.00">TerrainImportPlugin</text>
</a>
</g>
</g>
<!-- Node15&#45;&gt;Node17 -->
<g id="edge16" class="edge">
<title>Node15&#45;&gt;Node17</title>
<path fill="none" stroke="#63b8ff" d="M366.35,-342.5C382.43,-342.5 399.15,-342.5 414.09,-342.5"/>
<polygon fill="#63b8ff" stroke="#63b8ff" points="366.36,-339 356.36,-342.5 366.36,-346 366.36,-339"/>
</g>
<!-- Node18 -->
<g id="node18" class="node">
<title>Node18</title>
<g id="a_node18"><a xlink:href="interfaceTextureImportPlugin.html" target="_top" xlink:title=" ">
<polygon fill="white" stroke="#666666" points="516,-315 413,-315 413,-296 516,-296 516,-315"/>
<text text-anchor="middle" x="464.5" y="-303" font-family="Helvetica,sans-Serif" font-size="10.00">TextureImportPlugin</text>
</a>
</g>
</g>
<!-- Node15&#45;&gt;Node18 -->
<g id="edge17" class="edge">
<title>Node15&#45;&gt;Node18</title>
<path fill="none" stroke="#63b8ff" d="M350.65,-330.28C372.57,-325.47 397.43,-320.01 418.22,-315.44"/>
<polygon fill="#63b8ff" stroke="#63b8ff" points="350.17,-327.02 341.15,-332.58 351.67,-333.86 350.17,-327.02"/>
</g>
<!-- Node26 -->
<g id="node26" class="node">
<title>Node26</title>
<g id="a_node26"><a xlink:href="interfacePeerPlugin.html" target="_top" xlink:title=" ">
<polygon fill="white" stroke="#666666" points="496.5,-93 432.5,-93 432.5,-74 496.5,-74 496.5,-93"/>
<text text-anchor="middle" x="464.5" y="-81" font-family="Helvetica,sans-Serif" font-size="10.00">PeerPlugin</text>
</a>
</g>
</g>
<!-- Node25&#45;&gt;Node26 -->
<g id="edge25" class="edge">
<title>Node25&#45;&gt;Node26</title>
<path fill="none" stroke="#63b8ff" d="M352.7,-83.5C379.35,-83.5 409.96,-83.5 432.24,-83.5"/>
<polygon fill="#63b8ff" stroke="#63b8ff" points="352.94,-80 342.94,-83.5 352.94,-87 352.94,-80"/>
</g>
</g>
</svg>
