<?xml version="1.0" encoding="UTF-8" standalone="no"?>
<!DOCTYPE svg PUBLIC "-//W3C//DTD SVG 1.1//EN"
 "http://www.w3.org/Graphics/SVG/1.1/DTD/svg11.dtd">
<!-- Generated by graphviz version 8.0.2 (20230410.1723)
 -->
<!-- Title: DecoratorScripted Pages: 1 -->
<svg width="103pt" height="247pt"
 viewBox="0.00 0.00 103.00 247.00" xmlns="http://www.w3.org/2000/svg" xmlns:xlink="http://www.w3.org/1999/xlink">
<g id="graph0" class="graph" transform="scale(1 1) rotate(0) translate(4 243)">
<title>DecoratorScripted</title>
<!-- Node1 -->
<g id="node1" class="node">
<title>Node1</title>
<g id="a_node1"><a xlink:title=" ">
<polygon fill="#999999" stroke="#666666" points="95,-19 0,-19 0,0 95,0 95,-19"/>
<text text-anchor="middle" x="47.5" y="-7" font-family="Helvetica,sans-Serif" font-size="10.00">DecoratorScripted</text>
</a>
</g>
</g>
<!-- Node2 -->
<g id="node2" class="node">
<title>Node2</title>
<g id="a_node2"><a xlink:href="interfaceDecorator.html" target="_top" xlink:title=" ">
<polygon fill="white" stroke="#666666" points="77,-74 18,-74 18,-55 77,-55 77,-74"/>
<text text-anchor="middle" x="47.5" y="-62" font-family="Helvetica,sans-Serif" font-size="10.00">Decorator</text>
</a>
</g>
</g>
<!-- Node2&#45;&gt;Node1 -->
<g id="edge1" class="edge">
<title>Node2&#45;&gt;Node1</title>
<path fill="none" stroke="#63b8ff" d="M47.5,-43.93C47.5,-35.53 47.5,-26.13 47.5,-19.44"/>
<polygon fill="#63b8ff" stroke="#63b8ff" points="44,-43.75 47.5,-53.75 51,-43.75 44,-43.75"/>
</g>
<!-- Node3 -->
<g id="node3" class="node">
<title>Node3</title>
<g id="a_node3"><a xlink:href="interfaceNode.html" target="_top" xlink:title=" ">
<polygon fill="white" stroke="#666666" points="67,-129 28,-129 28,-110 67,-110 67,-129"/>
<text text-anchor="middle" x="47.5" y="-117" font-family="Helvetica,sans-Serif" font-size="10.00">Node</text>
</a>
</g>
</g>
<!-- Node3&#45;&gt;Node2 -->
<g id="edge2" class="edge">
<title>Node3&#45;&gt;Node2</title>
<path fill="none" stroke="#63b8ff" d="M47.5,-98.93C47.5,-90.53 47.5,-81.13 47.5,-74.44"/>
<polygon fill="#63b8ff" stroke="#63b8ff" points="44,-98.75 47.5,-108.75 51,-98.75 44,-98.75"/>
</g>
<!-- Node4 -->
<g id="node4" class="node">
<title>Node4</title>
<g id="a_node4"><a xlink:href="interfaceScriptAndConfig.html" target="_top" xlink:title="Base class for classes which combine enf::Class and enf::BaseClass (in C++).">
<polygon fill="white" stroke="#666666" points="90.5,-184 4.5,-184 4.5,-165 90.5,-165 90.5,-184"/>
<text text-anchor="middle" x="47.5" y="-172" font-family="Helvetica,sans-Serif" font-size="10.00">ScriptAndConfig</text>
</a>
</g>
</g>
<!-- Node4&#45;&gt;Node3 -->
<g id="edge3" class="edge">
<title>Node4&#45;&gt;Node3</title>
<path fill="none" stroke="#63b8ff" d="M47.5,-153.93C47.5,-145.53 47.5,-136.13 47.5,-129.44"/>
<polygon fill="#63b8ff" stroke="#63b8ff" points="44,-153.75 47.5,-163.75 51,-153.75 44,-153.75"/>
</g>
<!-- Node5 -->
<g id="node5" class="node">
<title>Node5</title>
<g id="a_node5"><a xlink:href="interfaceManaged.html" target="_top" xlink:title=" ">
<polygon fill="white" stroke="#666666" points="75.5,-239 19.5,-239 19.5,-220 75.5,-220 75.5,-239"/>
<text text-anchor="middle" x="47.5" y="-227" font-family="Helvetica,sans-Serif" font-size="10.00">Managed</text>
</a>
</g>
</g>
<!-- Node5&#45;&gt;Node4 -->
<g id="edge4" class="edge">
<title>Node5&#45;&gt;Node4</title>
<path fill="none" stroke="#63b8ff" d="M47.5,-208.93C47.5,-200.53 47.5,-191.13 47.5,-184.44"/>
<polygon fill="#63b8ff" stroke="#63b8ff" points="44,-208.75 47.5,-218.75 51,-208.75 44,-208.75"/>
</g>
</g>
</svg>
