<?xml version="1.0" encoding="UTF-8" standalone="no"?>
<!DOCTYPE svg PUBLIC "-//W3C//DTD SVG 1.1//EN"
 "http://www.w3.org/Graphics/SVG/1.1/DTD/svg11.dtd">
<!-- Generated by graphviz version 8.0.2 (20230410.1723)
 -->
<!-- Title: PanelWidget Pages: 1 -->
<svg width="80pt" height="192pt"
 viewBox="0.00 0.00 80.00 192.00" xmlns="http://www.w3.org/2000/svg" xmlns:xlink="http://www.w3.org/1999/xlink">
<g id="graph0" class="graph" transform="scale(1 1) rotate(0) translate(4 188)">
<title>PanelWidget</title>
<!-- Node1 -->
<g id="node1" class="node">
<title>Node1</title>
<g id="a_node1"><a xlink:title=" ">
<polygon fill="#999999" stroke="#666666" points="72,-19 0,-19 0,0 72,0 72,-19"/>
<text text-anchor="middle" x="36" y="-7" font-family="Helvetica,sans-Serif" font-size="10.00">PanelWidget</text>
</a>
</g>
</g>
<!-- Node2 -->
<g id="node2" class="node">
<title>Node2</title>
<g id="a_node2"><a xlink:href="interfaceUIWidget.html" target="_top" xlink:title=" ">
<polygon fill="white" stroke="#666666" points="64,-74 8,-74 8,-55 64,-55 64,-74"/>
<text text-anchor="middle" x="36" y="-62" font-family="Helvetica,sans-Serif" font-size="10.00">UIWidget</text>
</a>
</g>
</g>
<!-- Node2&#45;&gt;Node1 -->
<g id="edge1" class="edge">
<title>Node2&#45;&gt;Node1</title>
<path fill="none" stroke="#63b8ff" d="M36,-43.93C36,-35.53 36,-26.13 36,-19.44"/>
<polygon fill="#63b8ff" stroke="#63b8ff" points="32.5,-43.75 36,-53.75 39.5,-43.75 32.5,-43.75"/>
</g>
<!-- Node3 -->
<g id="node3" class="node">
<title>Node3</title>
<g id="a_node3"><a xlink:href="interfaceWidget.html" target="_top" xlink:title=" ">
<polygon fill="white" stroke="#666666" points="59.5,-129 12.5,-129 12.5,-110 59.5,-110 59.5,-129"/>
<text text-anchor="middle" x="36" y="-117" font-family="Helvetica,sans-Serif" font-size="10.00">Widget</text>
</a>
</g>
</g>
<!-- Node3&#45;&gt;Node2 -->
<g id="edge2" class="edge">
<title>Node3&#45;&gt;Node2</title>
<path fill="none" stroke="#63b8ff" d="M36,-98.93C36,-90.53 36,-81.13 36,-74.44"/>
<polygon fill="#63b8ff" stroke="#63b8ff" points="32.5,-98.75 36,-108.75 39.5,-98.75 32.5,-98.75"/>
</g>
<!-- Node4 -->
<g id="node4" class="node">
<title>Node4</title>
<g id="a_node4"><a xlink:href="interfaceManaged.html" target="_top" xlink:title=" ">
<polygon fill="white" stroke="#666666" points="64,-184 8,-184 8,-165 64,-165 64,-184"/>
<text text-anchor="middle" x="36" y="-172" font-family="Helvetica,sans-Serif" font-size="10.00">Managed</text>
</a>
</g>
</g>
<!-- Node4&#45;&gt;Node3 -->
<g id="edge3" class="edge">
<title>Node4&#45;&gt;Node3</title>
<path fill="none" stroke="#63b8ff" d="M36,-153.93C36,-145.53 36,-136.13 36,-129.44"/>
<polygon fill="#63b8ff" stroke="#63b8ff" points="32.5,-153.75 36,-163.75 39.5,-153.75 32.5,-153.75"/>
</g>
</g>
</svg>
