<?xml version="1.0" encoding="UTF-8" standalone="no"?>
<!DOCTYPE svg PUBLIC "-//W3C//DTD SVG 1.1//EN"
 "http://www.w3.org/Graphics/SVG/1.1/DTD/svg11.dtd">
<!-- Generated by graphviz version 8.0.2 (20230410.1723)
 -->
<!-- Title: GenericWorldWindEntity Pages: 1 -->
<svg width="132pt" height="192pt"
 viewBox="0.00 0.00 132.00 192.00" xmlns="http://www.w3.org/2000/svg" xmlns:xlink="http://www.w3.org/1999/xlink">
<g id="graph0" class="graph" transform="scale(1 1) rotate(0) translate(4 188)">
<title>GenericWorldWindEntity</title>
<!-- Node1 -->
<g id="node1" class="node">
<title>Node1</title>
<g id="a_node1"><a xlink:title=" ">
<polygon fill="#999999" stroke="#666666" points="124,-19 0,-19 0,0 124,0 124,-19"/>
<text text-anchor="middle" x="62" y="-7" font-family="Helvetica,sans-Serif" font-size="10.00">GenericWorldWindEntity</text>
</a>
</g>
</g>
<!-- Node2 -->
<g id="node2" class="node">
<title>Node2</title>
<g id="a_node2"><a xlink:href="interfaceGenericEntity.html" target="_top" xlink:title="Base entity class.">
<polygon fill="white" stroke="#666666" points="100,-74 24,-74 24,-55 100,-55 100,-74"/>
<text text-anchor="middle" x="62" y="-62" font-family="Helvetica,sans-Serif" font-size="10.00">GenericEntity</text>
</a>
</g>
</g>
<!-- Node2&#45;&gt;Node1 -->
<g id="edge1" class="edge">
<title>Node2&#45;&gt;Node1</title>
<path fill="none" stroke="#63b8ff" d="M62,-43.93C62,-35.53 62,-26.13 62,-19.44"/>
<polygon fill="#63b8ff" stroke="#63b8ff" points="58.5,-43.75 62,-53.75 65.5,-43.75 58.5,-43.75"/>
</g>
<!-- Node3 -->
<g id="node3" class="node">
<title>Node3</title>
<g id="a_node3"><a xlink:href="interfaceIEntity.html" target="_top" xlink:title=" ">
<polygon fill="white" stroke="#666666" points="84,-129 40,-129 40,-110 84,-110 84,-129"/>
<text text-anchor="middle" x="62" y="-117" font-family="Helvetica,sans-Serif" font-size="10.00">IEntity</text>
</a>
</g>
</g>
<!-- Node3&#45;&gt;Node2 -->
<g id="edge2" class="edge">
<title>Node3&#45;&gt;Node2</title>
<path fill="none" stroke="#63b8ff" d="M62,-98.93C62,-90.53 62,-81.13 62,-74.44"/>
<polygon fill="#63b8ff" stroke="#63b8ff" points="58.5,-98.75 62,-108.75 65.5,-98.75 58.5,-98.75"/>
</g>
<!-- Node4 -->
<g id="node4" class="node">
<title>Node4</title>
<g id="a_node4"><a xlink:href="interfaceManaged.html" target="_top" xlink:title=" ">
<polygon fill="white" stroke="#666666" points="90,-184 34,-184 34,-165 90,-165 90,-184"/>
<text text-anchor="middle" x="62" y="-172" font-family="Helvetica,sans-Serif" font-size="10.00">Managed</text>
</a>
</g>
</g>
<!-- Node4&#45;&gt;Node3 -->
<g id="edge3" class="edge">
<title>Node4&#45;&gt;Node3</title>
<path fill="none" stroke="#63b8ff" d="M62,-153.93C62,-145.53 62,-136.13 62,-129.44"/>
<polygon fill="#63b8ff" stroke="#63b8ff" points="58.5,-153.75 62,-163.75 65.5,-153.75 58.5,-153.75"/>
</g>
</g>
</svg>
