<?xml version="1.0" encoding="UTF-8" standalone="no"?>
<!DOCTYPE svg PUBLIC "-//W3C//DTD SVG 1.1//EN"
 "http://www.w3.org/Graphics/SVG/1.1/DTD/svg11.dtd">
<!-- Generated by graphviz version 8.0.2 (20230410.1723)
 -->
<!-- Title: SimpleListboxWidget Pages: 1 -->
<svg width="374pt" height="302pt"
 viewBox="0.00 0.00 373.50 302.00" xmlns="http://www.w3.org/2000/svg" xmlns:xlink="http://www.w3.org/1999/xlink">
<g id="graph0" class="graph" transform="scale(1 1) rotate(0) translate(4 298)">
<title>SimpleListboxWidget</title>
<!-- Node1 -->
<g id="node1" class="node">
<title>Node1</title>
<g id="a_node1"><a xlink:title="base class, for listboxes with items of the same height">
<polygon fill="#999999" stroke="#666666" points="235,-74 126,-74 126,-55 235,-55 235,-74"/>
<text text-anchor="middle" x="180.5" y="-62" font-family="Helvetica,sans-Serif" font-size="10.00">SimpleListboxWidget</text>
</a>
</g>
</g>
<!-- Node6 -->
<g id="node6" class="node">
<title>Node6</title>
<g id="a_node6"><a xlink:href="interfaceGenericListboxWidget.html" target="_top" xlink:title=" ">
<polygon fill="white" stroke="#666666" points="113,-19 0,-19 0,0 113,0 113,-19"/>
<text text-anchor="middle" x="56.5" y="-7" font-family="Helvetica,sans-Serif" font-size="10.00">GenericListboxWidget</text>
</a>
</g>
</g>
<!-- Node1&#45;&gt;Node6 -->
<g id="edge5" class="edge">
<title>Node1&#45;&gt;Node6</title>
<path fill="none" stroke="#63b8ff" d="M149.37,-50.19C126.8,-40.55 96.92,-27.78 77.22,-19.36"/>
<polygon fill="#63b8ff" stroke="#63b8ff" points="147.89,-53.8 158.47,-54.51 150.65,-47.36 147.89,-53.8"/>
</g>
<!-- Node7 -->
<g id="node7" class="node">
<title>Node7</title>
<g id="a_node7"><a xlink:href="interfaceTextListboxWidget.html" target="_top" xlink:title=" ">
<polygon fill="white" stroke="#666666" points="229.5,-19 131.5,-19 131.5,0 229.5,0 229.5,-19"/>
<text text-anchor="middle" x="180.5" y="-7" font-family="Helvetica,sans-Serif" font-size="10.00">TextListboxWidget</text>
</a>
</g>
</g>
<!-- Node1&#45;&gt;Node7 -->
<g id="edge6" class="edge">
<title>Node1&#45;&gt;Node7</title>
<path fill="none" stroke="#63b8ff" d="M180.5,-43.93C180.5,-35.53 180.5,-26.13 180.5,-19.44"/>
<polygon fill="#63b8ff" stroke="#63b8ff" points="177,-43.75 180.5,-53.75 184,-43.75 177,-43.75"/>
</g>
<!-- Node8 -->
<g id="node8" class="node">
<title>Node8</title>
<g id="a_node8"><a xlink:href="interfaceUniversalListboxWidget.html" target="_top" xlink:title=" ">
<polygon fill="white" stroke="#666666" points="365.5,-19 247.5,-19 247.5,0 365.5,0 365.5,-19"/>
<text text-anchor="middle" x="306.5" y="-7" font-family="Helvetica,sans-Serif" font-size="10.00">UniversalListboxWidget</text>
</a>
</g>
</g>
<!-- Node1&#45;&gt;Node8 -->
<g id="edge7" class="edge">
<title>Node1&#45;&gt;Node8</title>
<path fill="none" stroke="#63b8ff" d="M211.83,-50.32C234.79,-40.67 265.34,-27.82 285.44,-19.36"/>
<polygon fill="#63b8ff" stroke="#63b8ff" points="210.73,-47.41 202.87,-54.51 213.45,-53.86 210.73,-47.41"/>
</g>
<!-- Node2 -->
<g id="node2" class="node">
<title>Node2</title>
<g id="a_node2"><a xlink:href="interfaceBaseListboxWidget.html" target="_top" xlink:title=" ">
<polygon fill="white" stroke="#666666" points="231,-129 130,-129 130,-110 231,-110 231,-129"/>
<text text-anchor="middle" x="180.5" y="-117" font-family="Helvetica,sans-Serif" font-size="10.00">BaseListboxWidget</text>
</a>
</g>
</g>
<!-- Node2&#45;&gt;Node1 -->
<g id="edge1" class="edge">
<title>Node2&#45;&gt;Node1</title>
<path fill="none" stroke="#63b8ff" d="M180.5,-98.93C180.5,-90.53 180.5,-81.13 180.5,-74.44"/>
<polygon fill="#63b8ff" stroke="#63b8ff" points="177,-98.75 180.5,-108.75 184,-98.75 177,-98.75"/>
</g>
<!-- Node3 -->
<g id="node3" class="node">
<title>Node3</title>
<g id="a_node3"><a xlink:href="interfaceUIWidget.html" target="_top" xlink:title=" ">
<polygon fill="white" stroke="#666666" points="208.5,-184 152.5,-184 152.5,-165 208.5,-165 208.5,-184"/>
<text text-anchor="middle" x="180.5" y="-172" font-family="Helvetica,sans-Serif" font-size="10.00">UIWidget</text>
</a>
</g>
</g>
<!-- Node3&#45;&gt;Node2 -->
<g id="edge2" class="edge">
<title>Node3&#45;&gt;Node2</title>
<path fill="none" stroke="#63b8ff" d="M180.5,-153.93C180.5,-145.53 180.5,-136.13 180.5,-129.44"/>
<polygon fill="#63b8ff" stroke="#63b8ff" points="177,-153.75 180.5,-163.75 184,-153.75 177,-153.75"/>
</g>
<!-- Node4 -->
<g id="node4" class="node">
<title>Node4</title>
<g id="a_node4"><a xlink:href="interfaceWidget.html" target="_top" xlink:title=" ">
<polygon fill="white" stroke="#666666" points="204,-239 157,-239 157,-220 204,-220 204,-239"/>
<text text-anchor="middle" x="180.5" y="-227" font-family="Helvetica,sans-Serif" font-size="10.00">Widget</text>
</a>
</g>
</g>
<!-- Node4&#45;&gt;Node3 -->
<g id="edge3" class="edge">
<title>Node4&#45;&gt;Node3</title>
<path fill="none" stroke="#63b8ff" d="M180.5,-208.93C180.5,-200.53 180.5,-191.13 180.5,-184.44"/>
<polygon fill="#63b8ff" stroke="#63b8ff" points="177,-208.75 180.5,-218.75 184,-208.75 177,-208.75"/>
</g>
<!-- Node5 -->
<g id="node5" class="node">
<title>Node5</title>
<g id="a_node5"><a xlink:href="interfaceManaged.html" target="_top" xlink:title=" ">
<polygon fill="white" stroke="#666666" points="208.5,-294 152.5,-294 152.5,-275 208.5,-275 208.5,-294"/>
<text text-anchor="middle" x="180.5" y="-282" font-family="Helvetica,sans-Serif" font-size="10.00">Managed</text>
</a>
</g>
</g>
<!-- Node5&#45;&gt;Node4 -->
<g id="edge4" class="edge">
<title>Node5&#45;&gt;Node4</title>
<path fill="none" stroke="#63b8ff" d="M180.5,-263.93C180.5,-255.53 180.5,-246.13 180.5,-239.44"/>
<polygon fill="#63b8ff" stroke="#63b8ff" points="177,-263.75 180.5,-273.75 184,-263.75 177,-263.75"/>
</g>
</g>
</svg>
