<?xml version="1.0" encoding="UTF-8" standalone="no"?>
<!DOCTYPE svg PUBLIC "-//W3C//DTD SVG 1.1//EN"
 "http://www.w3.org/Graphics/SVG/1.1/DTD/svg11.dtd">
<!-- Generated by graphviz version 8.0.2 (20230410.1723)
 -->
<!-- Title: AIComponentClass Pages: 1 -->
<svg width="839pt" height="187pt"
 viewBox="0.00 0.00 839.00 187.00" xmlns="http://www.w3.org/2000/svg" xmlns:xlink="http://www.w3.org/1999/xlink">
<g id="graph0" class="graph" transform="scale(1 1) rotate(0) translate(4 183)">
<title>AIComponentClass</title>
<!-- Node1 -->
<g id="node1" class="node">
<title>Node1</title>
<g id="a_node1"><a xlink:title=" ">
<polygon fill="#999999" stroke="#666666" points="437,-93 337,-93 337,-74 437,-74 437,-93"/>
<text text-anchor="middle" x="387" y="-81" font-family="Helvetica,sans-Serif" font-size="10.00">AIComponentClass</text>
</a>
</g>
</g>
<!-- Node4 -->
<g id="node4" class="node">
<title>Node4</title>
<g id="a_node4"><a xlink:href="interfaceAIBehaviorTreeComponentClass.html" target="_top" xlink:title=" ">
<polygon fill="white" stroke="#666666" points="628,-179 473,-179 473,-160 628,-160 628,-179"/>
<text text-anchor="middle" x="550.5" y="-167" font-family="Helvetica,sans-Serif" font-size="10.00">AIBehaviorTreeComponentClass</text>
</a>
</g>
</g>
<!-- Node1&#45;&gt;Node4 -->
<g id="edge3" class="edge">
<title>Node1&#45;&gt;Node4</title>
<path fill="none" stroke="#63b8ff" d="M405.04,-100.58C421.21,-115.83 446.85,-137.69 473,-150.5 480.5,-154.17 488.76,-157.17 497.01,-159.61"/>
<polygon fill="#63b8ff" stroke="#63b8ff" points="408.12,-98.72 398.5,-94.29 403.26,-103.75 408.12,-98.72"/>
</g>
<!-- Node5 -->
<g id="node5" class="node">
<title>Node5</title>
<g id="a_node5"><a xlink:href="interfaceAICommunicationComponentClass.html" target="_top" xlink:title=" ">
<polygon fill="white" stroke="#666666" points="622,-141.5 479,-141.5 479,-111.5 622,-111.5 622,-141.5"/>
<text text-anchor="start" x="487" y="-129.5" font-family="Helvetica,sans-Serif" font-size="10.00">AICommunicationComponent</text>
<text text-anchor="middle" x="550.5" y="-118.5" font-family="Helvetica,sans-Serif" font-size="10.00">Class</text>
</a>
</g>
</g>
<!-- Node1&#45;&gt;Node5 -->
<g id="edge4" class="edge">
<title>Node1&#45;&gt;Node5</title>
<path fill="none" stroke="#63b8ff" d="M435.94,-96.26C453.34,-100.9 473.18,-106.18 491.37,-111.02"/>
<polygon fill="#63b8ff" stroke="#63b8ff" points="437.02,-92.66 426.46,-93.47 435.22,-99.43 437.02,-92.66"/>
</g>
<!-- Node6 -->
<g id="node6" class="node">
<title>Node6</title>
<g id="a_node6"><a xlink:href="interfaceAIComponentEntityClass.html" target="_top" xlink:title=" ">
<polygon fill="white" stroke="#666666" points="613,-93 488,-93 488,-74 613,-74 613,-93"/>
<text text-anchor="middle" x="550.5" y="-81" font-family="Helvetica,sans-Serif" font-size="10.00">AIComponentEntityClass</text>
</a>
</g>
</g>
<!-- Node1&#45;&gt;Node6 -->
<g id="edge5" class="edge">
<title>Node1&#45;&gt;Node6</title>
<path fill="none" stroke="#63b8ff" d="M447.99,-83.5C460.92,-83.5 474.61,-83.5 487.62,-83.5"/>
<polygon fill="#63b8ff" stroke="#63b8ff" points="448.33,-80 438.33,-83.5 448.33,-87 448.33,-80"/>
</g>
<!-- Node10 -->
<g id="node10" class="node">
<title>Node10</title>
<g id="a_node10"><a xlink:href="interfaceAIFormationComponentClass.html" target="_top" xlink:title=" ">
<polygon fill="white" stroke="#666666" points="622,-56 479,-56 479,-37 622,-37 622,-56"/>
<text text-anchor="middle" x="550.5" y="-44" font-family="Helvetica,sans-Serif" font-size="10.00">AIFormationComponentClass</text>
</a>
</g>
</g>
<!-- Node1&#45;&gt;Node10 -->
<g id="edge9" class="edge">
<title>Node1&#45;&gt;Node10</title>
<path fill="none" stroke="#63b8ff" d="M441.91,-71.15C462.78,-66.37 486.35,-60.97 506.1,-56.44"/>
<polygon fill="#63b8ff" stroke="#63b8ff" points="441.24,-67.94 432.28,-73.58 442.81,-74.76 441.24,-67.94"/>
</g>
<!-- Node11 -->
<g id="node11" class="node">
<title>Node11</title>
<g id="a_node11"><a xlink:href="interfaceAIPathfindingComponentClass.html" target="_top" xlink:title=" ">
<polygon fill="white" stroke="#666666" points="624.5,-19 476.5,-19 476.5,0 624.5,0 624.5,-19"/>
<text text-anchor="middle" x="550.5" y="-7" font-family="Helvetica,sans-Serif" font-size="10.00">AIPathfindingComponentClass</text>
</a>
</g>
</g>
<!-- Node1&#45;&gt;Node11 -->
<g id="edge10" class="edge">
<title>Node1&#45;&gt;Node11</title>
<path fill="none" stroke="#63b8ff" d="M408.19,-67.23C424.72,-54.67 449.17,-37.77 473,-27.5 480.39,-24.31 488.44,-21.64 496.45,-19.41"/>
<polygon fill="#63b8ff" stroke="#63b8ff" points="406.63,-64.79 400.88,-73.69 410.93,-70.32 406.63,-64.79"/>
</g>
<!-- Node2 -->
<g id="node2" class="node">
<title>Node2</title>
<g id="a_node2"><a xlink:href="interfaceGenericComponentClass.html" target="_top" xlink:title=" ">
<polygon fill="white" stroke="#666666" points="301,-93 176,-93 176,-74 301,-74 301,-93"/>
<text text-anchor="middle" x="238.5" y="-81" font-family="Helvetica,sans-Serif" font-size="10.00">GenericComponentClass</text>
</a>
</g>
</g>
<!-- Node2&#45;&gt;Node1 -->
<g id="edge1" class="edge">
<title>Node2&#45;&gt;Node1</title>
<path fill="none" stroke="#63b8ff" d="M312.15,-83.5C320.51,-83.5 328.87,-83.5 336.82,-83.5"/>
<polygon fill="#63b8ff" stroke="#63b8ff" points="312.2,-80 302.2,-83.5 312.2,-87 312.2,-80"/>
</g>
<!-- Node3 -->
<g id="node3" class="node">
<title>Node3</title>
<g id="a_node3"><a xlink:href="interfaceEntityComponentPrefabData.html" target="_top" xlink:title="Shared object with constant data for components from prefab.">
<polygon fill="white" stroke="#666666" points="140,-93 0,-93 0,-74 140,-74 140,-93"/>
<text text-anchor="middle" x="70" y="-81" font-family="Helvetica,sans-Serif" font-size="10.00">EntityComponentPrefabData</text>
</a>
</g>
</g>
<!-- Node3&#45;&gt;Node2 -->
<g id="edge2" class="edge">
<title>Node3&#45;&gt;Node2</title>
<path fill="none" stroke="#63b8ff" d="M151.03,-83.5C159.33,-83.5 167.67,-83.5 175.73,-83.5"/>
<polygon fill="#63b8ff" stroke="#63b8ff" points="151.16,-80 141.16,-83.5 151.16,-87 151.16,-80"/>
</g>
<!-- Node7 -->
<g id="node7" class="node">
<title>Node7</title>
<g id="a_node7"><a xlink:href="interfaceAIBaseAimingComponentClass.html" target="_top" xlink:title=" ">
<polygon fill="white" stroke="#666666" points="823.5,-130 671.5,-130 671.5,-111 823.5,-111 823.5,-130"/>
<text text-anchor="middle" x="747.5" y="-118" font-family="Helvetica,sans-Serif" font-size="10.00">AIBaseAimingComponentClass</text>
</a>
</g>
</g>
<!-- Node6&#45;&gt;Node7 -->
<g id="edge6" class="edge">
<title>Node6&#45;&gt;Node7</title>
<path fill="none" stroke="#63b8ff" d="M614.73,-95.5C640.31,-100.35 669.5,-105.89 693.89,-110.52"/>
<polygon fill="#63b8ff" stroke="#63b8ff" points="615.49,-91.89 605.01,-93.46 614.19,-98.77 615.49,-91.89"/>
</g>
<!-- Node8 -->
<g id="node8" class="node">
<title>Node8</title>
<g id="a_node8"><a xlink:href="interfaceAIBaseMovementComponentClass.html" target="_top" xlink:title=" ">
<polygon fill="white" stroke="#666666" points="831,-93 664,-93 664,-74 831,-74 831,-93"/>
<text text-anchor="middle" x="747.5" y="-81" font-family="Helvetica,sans-Serif" font-size="10.00">AIBaseMovementComponentClass</text>
</a>
</g>
</g>
<!-- Node6&#45;&gt;Node8 -->
<g id="edge7" class="edge">
<title>Node6&#45;&gt;Node8</title>
<path fill="none" stroke="#63b8ff" d="M624.12,-83.5C637.01,-83.5 650.51,-83.5 663.65,-83.5"/>
<polygon fill="#63b8ff" stroke="#63b8ff" points="624.47,-80 614.47,-83.5 624.47,-87 624.47,-80"/>
</g>
<!-- Node9 -->
<g id="node9" class="node">
<title>Node9</title>
<g id="a_node9"><a xlink:href="interfaceAIControlComponentClass.html" target="_top" xlink:title=" ">
<polygon fill="white" stroke="#666666" points="813,-56 682,-56 682,-37 813,-37 813,-56"/>
<text text-anchor="middle" x="747.5" y="-44" font-family="Helvetica,sans-Serif" font-size="10.00">AIControlComponentClass</text>
</a>
</g>
</g>
<!-- Node6&#45;&gt;Node9 -->
<g id="edge8" class="edge">
<title>Node6&#45;&gt;Node9</title>
<path fill="none" stroke="#63b8ff" d="M614.73,-71.5C640.31,-66.65 669.5,-61.11 693.89,-56.48"/>
<polygon fill="#63b8ff" stroke="#63b8ff" points="614.19,-68.23 605.01,-73.54 615.49,-75.11 614.19,-68.23"/>
</g>
</g>
</svg>
