<?xml version="1.0" encoding="UTF-8" standalone="no"?>
<!DOCTYPE svg PUBLIC "-//W3C//DTD SVG 1.1//EN"
 "http://www.w3.org/Graphics/SVG/1.1/DTD/svg11.dtd">
<!-- Generated by graphviz version 8.0.2 (20230410.1723)
 -->
<!-- Title: BaseSinglePortContainer Pages: 1 -->
<svg width="282pt" height="247pt"
 viewBox="0.00 0.00 282.00 247.00" xmlns="http://www.w3.org/2000/svg" xmlns:xlink="http://www.w3.org/1999/xlink">
<g id="graph0" class="graph" transform="scale(1 1) rotate(0) translate(4 243)">
<title>BaseSinglePortContainer</title>
<!-- Node1 -->
<g id="node1" class="node">
<title>Node1</title>
<g id="a_node1"><a xlink:title=" ">
<polygon fill="#999999" stroke="#666666" points="197.5,-74 72.5,-74 72.5,-55 197.5,-55 197.5,-74"/>
<text text-anchor="middle" x="135" y="-62" font-family="Helvetica,sans-Serif" font-size="10.00">BaseSinglePortContainer</text>
</a>
</g>
</g>
<!-- Node5 -->
<g id="node5" class="node">
<title>Node5</title>
<g id="a_node5"><a xlink:href="interfaceSingleInputPortContainer.html" target="_top" xlink:title=" ">
<polygon fill="white" stroke="#666666" points="124,-19 0,-19 0,0 124,0 124,-19"/>
<text text-anchor="middle" x="62" y="-7" font-family="Helvetica,sans-Serif" font-size="10.00">SingleInputPortContainer</text>
</a>
</g>
</g>
<!-- Node1&#45;&gt;Node5 -->
<g id="edge4" class="edge">
<title>Node1&#45;&gt;Node5</title>
<path fill="none" stroke="#63b8ff" d="M113.91,-48.19C101.03,-38.84 85.01,-27.21 74.2,-19.36"/>
<polygon fill="#63b8ff" stroke="#63b8ff" points="111.47,-51.47 121.62,-54.51 115.58,-45.8 111.47,-51.47"/>
</g>
<!-- Node6 -->
<g id="node6" class="node">
<title>Node6</title>
<g id="a_node6"><a xlink:href="interfaceSingleOutputPortContainer.html" target="_top" xlink:title=" ">
<polygon fill="white" stroke="#666666" points="274,-19 142,-19 142,0 274,0 274,-19"/>
<text text-anchor="middle" x="208" y="-7" font-family="Helvetica,sans-Serif" font-size="10.00">SingleOutputPortContainer</text>
</a>
</g>
</g>
<!-- Node1&#45;&gt;Node6 -->
<g id="edge5" class="edge">
<title>Node1&#45;&gt;Node6</title>
<path fill="none" stroke="#63b8ff" d="M156.09,-48.19C168.97,-38.84 184.99,-27.21 195.8,-19.36"/>
<polygon fill="#63b8ff" stroke="#63b8ff" points="154.42,-45.8 148.38,-54.51 158.53,-51.47 154.42,-45.8"/>
</g>
<!-- Node2 -->
<g id="node2" class="node">
<title>Node2</title>
<g id="a_node2"><a xlink:href="interfaceNodePortsContainer.html" target="_top" xlink:title=" ">
<polygon fill="white" stroke="#666666" points="187,-129 83,-129 83,-110 187,-110 187,-129"/>
<text text-anchor="middle" x="135" y="-117" font-family="Helvetica,sans-Serif" font-size="10.00">NodePortsContainer</text>
</a>
</g>
</g>
<!-- Node2&#45;&gt;Node1 -->
<g id="edge1" class="edge">
<title>Node2&#45;&gt;Node1</title>
<path fill="none" stroke="#63b8ff" d="M135,-98.93C135,-90.53 135,-81.13 135,-74.44"/>
<polygon fill="#63b8ff" stroke="#63b8ff" points="131.5,-98.75 135,-108.75 138.5,-98.75 131.5,-98.75"/>
</g>
<!-- Node3 -->
<g id="node3" class="node">
<title>Node3</title>
<g id="a_node3"><a xlink:href="interfaceScriptAndConfig.html" target="_top" xlink:title="Base class for classes which combine enf::Class and enf::BaseClass (in C++).">
<polygon fill="white" stroke="#666666" points="178,-184 92,-184 92,-165 178,-165 178,-184"/>
<text text-anchor="middle" x="135" y="-172" font-family="Helvetica,sans-Serif" font-size="10.00">ScriptAndConfig</text>
</a>
</g>
</g>
<!-- Node3&#45;&gt;Node2 -->
<g id="edge2" class="edge">
<title>Node3&#45;&gt;Node2</title>
<path fill="none" stroke="#63b8ff" d="M135,-153.93C135,-145.53 135,-136.13 135,-129.44"/>
<polygon fill="#63b8ff" stroke="#63b8ff" points="131.5,-153.75 135,-163.75 138.5,-153.75 131.5,-153.75"/>
</g>
<!-- Node4 -->
<g id="node4" class="node">
<title>Node4</title>
<g id="a_node4"><a xlink:href="interfaceManaged.html" target="_top" xlink:title=" ">
<polygon fill="white" stroke="#666666" points="163,-239 107,-239 107,-220 163,-220 163,-239"/>
<text text-anchor="middle" x="135" y="-227" font-family="Helvetica,sans-Serif" font-size="10.00">Managed</text>
</a>
</g>
</g>
<!-- Node4&#45;&gt;Node3 -->
<g id="edge3" class="edge">
<title>Node4&#45;&gt;Node3</title>
<path fill="none" stroke="#63b8ff" d="M135,-208.93C135,-200.53 135,-191.13 135,-184.44"/>
<polygon fill="#63b8ff" stroke="#63b8ff" points="131.5,-208.75 135,-218.75 138.5,-208.75 131.5,-208.75"/>
</g>
</g>
</svg>
