<?xml version="1.0" encoding="UTF-8" standalone="no"?>
<!DOCTYPE svg PUBLIC "-//W3C//DTD SVG 1.1//EN"
 "http://www.w3.org/Graphics/SVG/1.1/DTD/svg11.dtd">
<!-- Generated by graphviz version 8.0.2 (20230410.1723)
 -->
<!-- Title: ScriptComponent Pages: 1 -->
<svg width="441pt" height="138pt"
 viewBox="0.00 0.00 441.00 138.00" xmlns="http://www.w3.org/2000/svg" xmlns:xlink="http://www.w3.org/1999/xlink">
<g id="graph0" class="graph" transform="scale(1 1) rotate(0) translate(4 134)">
<title>ScriptComponent</title>
<!-- Node1 -->
<g id="node1" class="node">
<title>Node1</title>
<g id="a_node1"><a xlink:title="Parent class for all components created in script.">
<polygon fill="#999999" stroke="#666666" points="228,-74 136,-74 136,-55 228,-55 228,-74"/>
<text text-anchor="middle" x="182" y="-62" font-family="Helvetica,sans-Serif" font-size="10.00">ScriptComponent</text>
</a>
</g>
</g>
<!-- Node3 -->
<g id="node3" class="node">
<title>Node3</title>
<g id="a_node3"><a xlink:href="interfaceRplExample1ComponentColorAnim.html" target="_top" xlink:title=" ">
<polygon fill="white" stroke="#666666" points="433,-130 264,-130 264,-111 433,-111 433,-130"/>
<text text-anchor="middle" x="348.5" y="-118" font-family="Helvetica,sans-Serif" font-size="10.00">RplExample1ComponentColorAnim</text>
</a>
</g>
</g>
<!-- Node1&#45;&gt;Node3 -->
<g id="edge2" class="edge">
<title>Node1&#45;&gt;Node3</title>
<path fill="none" stroke="#63b8ff" d="M210.59,-79.35C225.96,-87.13 245.65,-96.31 264,-102.5 273.13,-105.58 283.01,-108.26 292.67,-110.54"/>
<polygon fill="#63b8ff" stroke="#63b8ff" points="212.66,-75.96 202.17,-74.48 209.44,-82.18 212.66,-75.96"/>
</g>
<!-- Node4 -->
<g id="node4" class="node">
<title>Node4</title>
<g id="a_node4"><a xlink:href="interfaceRplExample2ComponentColorAnim.html" target="_top" xlink:title=" ">
<polygon fill="white" stroke="#666666" points="433,-93 264,-93 264,-74 433,-74 433,-93"/>
<text text-anchor="middle" x="348.5" y="-81" font-family="Helvetica,sans-Serif" font-size="10.00">RplExample2ComponentColorAnim</text>
</a>
</g>
</g>
<!-- Node1&#45;&gt;Node4 -->
<g id="edge3" class="edge">
<title>Node1&#45;&gt;Node4</title>
<path fill="none" stroke="#63b8ff" d="M239.29,-71C247.2,-71.92 255.47,-72.87 263.76,-73.83"/>
<polygon fill="#63b8ff" stroke="#63b8ff" points="239.72,-67.41 229.39,-69.74 238.92,-74.37 239.72,-67.41"/>
</g>
<!-- Node5 -->
<g id="node5" class="node">
<title>Node5</title>
<g id="a_node5"><a xlink:href="interfaceRplExample3ComponentColorAnim.html" target="_top" xlink:title=" ">
<polygon fill="white" stroke="#666666" points="433,-56 264,-56 264,-37 433,-37 433,-56"/>
<text text-anchor="middle" x="348.5" y="-44" font-family="Helvetica,sans-Serif" font-size="10.00">RplExample3ComponentColorAnim</text>
</a>
</g>
</g>
<!-- Node1&#45;&gt;Node5 -->
<g id="edge4" class="edge">
<title>Node1&#45;&gt;Node5</title>
<path fill="none" stroke="#63b8ff" d="M239.29,-58.34C247.2,-57.47 255.47,-56.57 263.76,-55.66"/>
<polygon fill="#63b8ff" stroke="#63b8ff" points="238.95,-54.97 229.39,-59.53 239.71,-61.93 238.95,-54.97"/>
</g>
<!-- Node6 -->
<g id="node6" class="node">
<title>Node6</title>
<g id="a_node6"><a xlink:href="interfaceRplExample3System.html" target="_top" xlink:title=" ">
<polygon fill="white" stroke="#666666" points="402.5,-19 294.5,-19 294.5,0 402.5,0 402.5,-19"/>
<text text-anchor="middle" x="348.5" y="-7" font-family="Helvetica,sans-Serif" font-size="10.00">RplExample3System</text>
</a>
</g>
</g>
<!-- Node1&#45;&gt;Node6 -->
<g id="edge5" class="edge">
<title>Node1&#45;&gt;Node6</title>
<path fill="none" stroke="#63b8ff" d="M210.93,-49.92C226.27,-42.39 245.82,-33.53 264,-27.5 273.57,-24.32 283.95,-21.57 294.03,-19.23"/>
<polygon fill="#63b8ff" stroke="#63b8ff" points="209.89,-47.03 202.52,-54.64 213.03,-53.29 209.89,-47.03"/>
</g>
<!-- Node2 -->
<g id="node2" class="node">
<title>Node2</title>
<g id="a_node2"><a xlink:href="interfaceGenericComponent.html" target="_top" xlink:title=" ">
<polygon fill="white" stroke="#666666" points="100,-74 0,-74 0,-55 100,-55 100,-74"/>
<text text-anchor="middle" x="50" y="-62" font-family="Helvetica,sans-Serif" font-size="10.00">GenericComponent</text>
</a>
</g>
</g>
<!-- Node2&#45;&gt;Node1 -->
<g id="edge1" class="edge">
<title>Node2&#45;&gt;Node1</title>
<path fill="none" stroke="#63b8ff" d="M110.95,-64.5C119.25,-64.5 127.66,-64.5 135.64,-64.5"/>
<polygon fill="#63b8ff" stroke="#63b8ff" points="111.15,-61 101.15,-64.5 111.15,-68 111.15,-61"/>
</g>
</g>
</svg>
