<?xml version="1.0" encoding="UTF-8" standalone="no"?>
<!DOCTYPE svg PUBLIC "-//W3C//DTD SVG 1.1//EN"
 "http://www.w3.org/Graphics/SVG/1.1/DTD/svg11.dtd">
<!-- Generated by graphviz version 8.0.2 (20230410.1723)
 -->
<!-- Title: BaseSerializationContext Pages: 1 -->
<svg width="320pt" height="203pt"
 viewBox="0.00 0.00 320.00 203.00" xmlns="http://www.w3.org/2000/svg" xmlns:xlink="http://www.w3.org/1999/xlink">
<g id="graph0" class="graph" transform="scale(1 1) rotate(0) translate(4 199)">
<title>BaseSerializationContext</title>
<!-- Node1 -->
<g id="node1" class="node">
<title>Node1</title>
<g id="a_node1"><a xlink:title="Base class for serialization contexts.">
<polygon fill="#999999" stroke="#666666" points="218.5,-140 92.5,-140 92.5,-121 218.5,-121 218.5,-140"/>
<text text-anchor="middle" x="155.5" y="-128" font-family="Helvetica,sans-Serif" font-size="10.00">BaseSerializationContext</text>
</a>
</g>
</g>
<!-- Node3 -->
<g id="node3" class="node">
<title>Node3</title>
<g id="a_node3"><a xlink:href="interfaceBaseSerializationLoadContext.html" target="_top" xlink:title="Base serialization context for loading data back to the game.">
<polygon fill="white" stroke="#666666" points="147,-85 0,-85 0,-66 147,-66 147,-85"/>
<text text-anchor="middle" x="73.5" y="-73" font-family="Helvetica,sans-Serif" font-size="10.00">BaseSerializationLoadContext</text>
</a>
</g>
</g>
<!-- Node1&#45;&gt;Node3 -->
<g id="edge2" class="edge">
<title>Node1&#45;&gt;Node3</title>
<path fill="none" stroke="#63b8ff" d="M132.65,-114.73C118.04,-105.29 99.58,-93.36 87.2,-85.36"/>
<polygon fill="#63b8ff" stroke="#63b8ff" points="130.29,-118.02 140.59,-120.51 134.09,-112.14 130.29,-118.02"/>
</g>
<!-- Node5 -->
<g id="node5" class="node">
<title>Node5</title>
<g id="a_node5"><a xlink:href="interfaceBaseSerializationSaveContext.html" target="_top" xlink:title="Base serialization context for saving data from game.">
<polygon fill="white" stroke="#666666" points="312,-85 165,-85 165,-66 312,-66 312,-85"/>
<text text-anchor="middle" x="238.5" y="-73" font-family="Helvetica,sans-Serif" font-size="10.00">BaseSerializationSaveContext</text>
</a>
</g>
</g>
<!-- Node1&#45;&gt;Node5 -->
<g id="edge4" class="edge">
<title>Node1&#45;&gt;Node5</title>
<path fill="none" stroke="#63b8ff" d="M178.63,-114.73C193.42,-105.29 212.1,-93.36 224.63,-85.36"/>
<polygon fill="#63b8ff" stroke="#63b8ff" points="177.12,-112.18 170.58,-120.51 180.89,-118.08 177.12,-112.18"/>
</g>
<!-- Node2 -->
<g id="node2" class="node">
<title>Node2</title>
<g id="a_node2"><a xlink:href="interfaceManaged.html" target="_top" xlink:title=" ">
<polygon fill="white" stroke="#666666" points="183.5,-195 127.5,-195 127.5,-176 183.5,-176 183.5,-195"/>
<text text-anchor="middle" x="155.5" y="-183" font-family="Helvetica,sans-Serif" font-size="10.00">Managed</text>
</a>
</g>
</g>
<!-- Node2&#45;&gt;Node1 -->
<g id="edge1" class="edge">
<title>Node2&#45;&gt;Node1</title>
<path fill="none" stroke="#63b8ff" d="M155.5,-164.93C155.5,-156.53 155.5,-147.13 155.5,-140.44"/>
<polygon fill="#63b8ff" stroke="#63b8ff" points="152,-164.75 155.5,-174.75 159,-164.75 152,-164.75"/>
</g>
<!-- Node4 -->
<g id="node4" class="node">
<title>Node4</title>
<g id="a_node4"><a xlink:href="interfaceContainerSerializationLoadContext.html" target="_top" xlink:title="Base serialization context for saving data to BaseSerializationSaveContainer based class.">
<polygon fill="white" stroke="#666666" points="139.5,-30 7.5,-30 7.5,0 139.5,0 139.5,-30"/>
<text text-anchor="start" x="15.5" y="-18" font-family="Helvetica,sans-Serif" font-size="10.00">ContainerSerializationLoad</text>
<text text-anchor="middle" x="73.5" y="-7" font-family="Helvetica,sans-Serif" font-size="10.00">Context</text>
</a>
</g>
</g>
<!-- Node3&#45;&gt;Node4 -->
<g id="edge3" class="edge">
<title>Node3&#45;&gt;Node4</title>
<path fill="none" stroke="#63b8ff" d="M73.5,-55.08C73.5,-46.92 73.5,-37.6 73.5,-30.11"/>
<polygon fill="#63b8ff" stroke="#63b8ff" points="70,-54.87 73.5,-64.87 77,-54.87 70,-54.87"/>
</g>
<!-- Node6 -->
<g id="node6" class="node">
<title>Node6</title>
<g id="a_node6"><a xlink:href="interfaceContainerSerializationSaveContext.html" target="_top" xlink:title="Base serialization context for saving data to BaseSerializationSaveContainer based class.">
<polygon fill="white" stroke="#666666" points="304.5,-30 172.5,-30 172.5,0 304.5,0 304.5,-30"/>
<text text-anchor="start" x="180.5" y="-18" font-family="Helvetica,sans-Serif" font-size="10.00">ContainerSerializationSave</text>
<text text-anchor="middle" x="238.5" y="-7" font-family="Helvetica,sans-Serif" font-size="10.00">Context</text>
</a>
</g>
</g>
<!-- Node5&#45;&gt;Node6 -->
<g id="edge5" class="edge">
<title>Node5&#45;&gt;Node6</title>
<path fill="none" stroke="#63b8ff" d="M238.5,-55.08C238.5,-46.92 238.5,-37.6 238.5,-30.11"/>
<polygon fill="#63b8ff" stroke="#63b8ff" points="235,-54.87 238.5,-64.87 242,-54.87 235,-54.87"/>
</g>
</g>
</svg>
