<?xml version="1.0" encoding="UTF-8" standalone="no"?>
<!DOCTYPE svg PUBLIC "-//W3C//DTD SVG 1.1//EN"
 "http://www.w3.org/Graphics/SVG/1.1/DTD/svg11.dtd">
<!-- Generated by graphviz version 8.0.2 (20230410.1723)
 -->
<!-- Title: MotionAutoTest Pages: 1 -->
<svg width="93pt" height="192pt"
 viewBox="0.00 0.00 93.00 192.00" xmlns="http://www.w3.org/2000/svg" xmlns:xlink="http://www.w3.org/1999/xlink">
<g id="graph0" class="graph" transform="scale(1 1) rotate(0) translate(4 188)">
<title>MotionAutoTest</title>
<!-- Node1 -->
<g id="node1" class="node">
<title>Node1</title>
<g id="a_node1"><a xlink:title=" ">
<polygon fill="#999999" stroke="#666666" points="85,-19 0,-19 0,0 85,0 85,-19"/>
<text text-anchor="middle" x="42.5" y="-7" font-family="Helvetica,sans-Serif" font-size="10.00">MotionAutoTest</text>
</a>
</g>
</g>
<!-- Node2 -->
<g id="node2" class="node">
<title>Node2</title>
<g id="a_node2"><a xlink:href="interfaceGenericEntity.html" target="_top" xlink:title="Base entity class.">
<polygon fill="white" stroke="#666666" points="80.5,-74 4.5,-74 4.5,-55 80.5,-55 80.5,-74"/>
<text text-anchor="middle" x="42.5" y="-62" font-family="Helvetica,sans-Serif" font-size="10.00">GenericEntity</text>
</a>
</g>
</g>
<!-- Node2&#45;&gt;Node1 -->
<g id="edge1" class="edge">
<title>Node2&#45;&gt;Node1</title>
<path fill="none" stroke="#63b8ff" d="M42.5,-43.93C42.5,-35.53 42.5,-26.13 42.5,-19.44"/>
<polygon fill="#63b8ff" stroke="#63b8ff" points="39,-43.75 42.5,-53.75 46,-43.75 39,-43.75"/>
</g>
<!-- Node3 -->
<g id="node3" class="node">
<title>Node3</title>
<g id="a_node3"><a xlink:href="interfaceIEntity.html" target="_top" xlink:title=" ">
<polygon fill="white" stroke="#666666" points="64.5,-129 20.5,-129 20.5,-110 64.5,-110 64.5,-129"/>
<text text-anchor="middle" x="42.5" y="-117" font-family="Helvetica,sans-Serif" font-size="10.00">IEntity</text>
</a>
</g>
</g>
<!-- Node3&#45;&gt;Node2 -->
<g id="edge2" class="edge">
<title>Node3&#45;&gt;Node2</title>
<path fill="none" stroke="#63b8ff" d="M42.5,-98.93C42.5,-90.53 42.5,-81.13 42.5,-74.44"/>
<polygon fill="#63b8ff" stroke="#63b8ff" points="39,-98.75 42.5,-108.75 46,-98.75 39,-98.75"/>
</g>
<!-- Node4 -->
<g id="node4" class="node">
<title>Node4</title>
<g id="a_node4"><a xlink:href="interfaceManaged.html" target="_top" xlink:title=" ">
<polygon fill="white" stroke="#666666" points="70.5,-184 14.5,-184 14.5,-165 70.5,-165 70.5,-184"/>
<text text-anchor="middle" x="42.5" y="-172" font-family="Helvetica,sans-Serif" font-size="10.00">Managed</text>
</a>
</g>
</g>
<!-- Node4&#45;&gt;Node3 -->
<g id="edge3" class="edge">
<title>Node4&#45;&gt;Node3</title>
<path fill="none" stroke="#63b8ff" d="M42.5,-153.93C42.5,-145.53 42.5,-136.13 42.5,-129.44"/>
<polygon fill="#63b8ff" stroke="#63b8ff" points="39,-153.75 42.5,-163.75 46,-153.75 39,-153.75"/>
</g>
</g>
</svg>
