<?xml version="1.0" encoding="UTF-8" standalone="no"?>
<!DOCTYPE svg PUBLIC "-//W3C//DTD SVG 1.1//EN"
 "http://www.w3.org/Graphics/SVG/1.1/DTD/svg11.dtd">
<!-- Generated by graphviz version 8.0.2 (20230410.1723)
 -->
<!-- Title: AITaskMove Pages: 1 -->
<svg width="204pt" height="302pt"
 viewBox="0.00 0.00 204.00 302.00" xmlns="http://www.w3.org/2000/svg" xmlns:xlink="http://www.w3.org/1999/xlink">
<g id="graph0" class="graph" transform="scale(1 1) rotate(0) translate(4 298)">
<title>AITaskMove</title>
<!-- Node1 -->
<g id="node1" class="node">
<title>Node1</title>
<g id="a_node1"><a xlink:title=" ">
<polygon fill="#999999" stroke="#666666" points="140,-74 71,-74 71,-55 140,-55 140,-74"/>
<text text-anchor="middle" x="105.5" y="-62" font-family="Helvetica,sans-Serif" font-size="10.00">AITaskMove</text>
</a>
</g>
</g>
<!-- Node6 -->
<g id="node6" class="node">
<title>Node6</title>
<g id="a_node6"><a xlink:href="interfaceAITaskMoveToEntity.html" target="_top" xlink:title=" ">
<polygon fill="white" stroke="#666666" points="105,-19 0,-19 0,0 105,0 105,-19"/>
<text text-anchor="middle" x="52.5" y="-7" font-family="Helvetica,sans-Serif" font-size="10.00">AITaskMoveToEntity</text>
</a>
</g>
</g>
<!-- Node1&#45;&gt;Node6 -->
<g id="edge5" class="edge">
<title>Node1&#45;&gt;Node6</title>
<path fill="none" stroke="#63b8ff" d="M89.06,-47.06C79.95,-37.95 68.97,-26.97 61.44,-19.44"/>
<polygon fill="#63b8ff" stroke="#63b8ff" points="86.2,-49.15 95.75,-53.75 91.15,-44.2 86.2,-49.15"/>
</g>
<!-- Node7 -->
<g id="node7" class="node">
<title>Node7</title>
<g id="a_node7"><a xlink:href="interfaceAITaskOrient.html" target="_top" xlink:title=" ">
<polygon fill="white" stroke="#666666" points="196,-19 123,-19 123,0 196,0 196,-19"/>
<text text-anchor="middle" x="159.5" y="-7" font-family="Helvetica,sans-Serif" font-size="10.00">AITaskOrient</text>
</a>
</g>
</g>
<!-- Node1&#45;&gt;Node7 -->
<g id="edge6" class="edge">
<title>Node1&#45;&gt;Node7</title>
<path fill="none" stroke="#63b8ff" d="M122.25,-47.06C131.54,-37.95 142.72,-26.97 150.39,-19.44"/>
<polygon fill="#63b8ff" stroke="#63b8ff" points="120.1,-44.25 115.42,-53.75 125.01,-49.24 120.1,-44.25"/>
</g>
<!-- Node2 -->
<g id="node2" class="node">
<title>Node2</title>
<g id="a_node2"><a xlink:href="interfaceAITask.html" target="_top" xlink:title=" ">
<polygon fill="white" stroke="#666666" points="129,-129 82,-129 82,-110 129,-110 129,-129"/>
<text text-anchor="middle" x="105.5" y="-117" font-family="Helvetica,sans-Serif" font-size="10.00">AITask</text>
</a>
</g>
</g>
<!-- Node2&#45;&gt;Node1 -->
<g id="edge1" class="edge">
<title>Node2&#45;&gt;Node1</title>
<path fill="none" stroke="#63b8ff" d="M105.5,-98.93C105.5,-90.53 105.5,-81.13 105.5,-74.44"/>
<polygon fill="#63b8ff" stroke="#63b8ff" points="102,-98.75 105.5,-108.75 109,-98.75 102,-98.75"/>
</g>
<!-- Node3 -->
<g id="node3" class="node">
<title>Node3</title>
<g id="a_node3"><a xlink:href="interfaceNode.html" target="_top" xlink:title=" ">
<polygon fill="white" stroke="#666666" points="125,-184 86,-184 86,-165 125,-165 125,-184"/>
<text text-anchor="middle" x="105.5" y="-172" font-family="Helvetica,sans-Serif" font-size="10.00">Node</text>
</a>
</g>
</g>
<!-- Node3&#45;&gt;Node2 -->
<g id="edge2" class="edge">
<title>Node3&#45;&gt;Node2</title>
<path fill="none" stroke="#63b8ff" d="M105.5,-153.93C105.5,-145.53 105.5,-136.13 105.5,-129.44"/>
<polygon fill="#63b8ff" stroke="#63b8ff" points="102,-153.75 105.5,-163.75 109,-153.75 102,-153.75"/>
</g>
<!-- Node4 -->
<g id="node4" class="node">
<title>Node4</title>
<g id="a_node4"><a xlink:href="interfaceScriptAndConfig.html" target="_top" xlink:title="Base class for classes which combine enf::Class and enf::BaseClass (in C++).">
<polygon fill="white" stroke="#666666" points="148.5,-239 62.5,-239 62.5,-220 148.5,-220 148.5,-239"/>
<text text-anchor="middle" x="105.5" y="-227" font-family="Helvetica,sans-Serif" font-size="10.00">ScriptAndConfig</text>
</a>
</g>
</g>
<!-- Node4&#45;&gt;Node3 -->
<g id="edge3" class="edge">
<title>Node4&#45;&gt;Node3</title>
<path fill="none" stroke="#63b8ff" d="M105.5,-208.93C105.5,-200.53 105.5,-191.13 105.5,-184.44"/>
<polygon fill="#63b8ff" stroke="#63b8ff" points="102,-208.75 105.5,-218.75 109,-208.75 102,-208.75"/>
</g>
<!-- Node5 -->
<g id="node5" class="node">
<title>Node5</title>
<g id="a_node5"><a xlink:href="interfaceManaged.html" target="_top" xlink:title=" ">
<polygon fill="white" stroke="#666666" points="133.5,-294 77.5,-294 77.5,-275 133.5,-275 133.5,-294"/>
<text text-anchor="middle" x="105.5" y="-282" font-family="Helvetica,sans-Serif" font-size="10.00">Managed</text>
</a>
</g>
</g>
<!-- Node5&#45;&gt;Node4 -->
<g id="edge4" class="edge">
<title>Node5&#45;&gt;Node4</title>
<path fill="none" stroke="#63b8ff" d="M105.5,-263.93C105.5,-255.53 105.5,-246.13 105.5,-239.44"/>
<polygon fill="#63b8ff" stroke="#63b8ff" points="102,-263.75 105.5,-273.75 109,-263.75 102,-263.75"/>
</g>
</g>
</svg>
