<?xml version="1.0" encoding="UTF-8" standalone="no"?>
<!DOCTYPE svg PUBLIC "-//W3C//DTD SVG 1.1//EN"
 "http://www.w3.org/Graphics/SVG/1.1/DTD/svg11.dtd">
<!-- Generated by graphviz version 8.0.2 (20230410.1723)
 -->
<!-- Title: EntityComponentPrefabData Pages: 1 -->
<svg width="898pt" height="658pt"
 viewBox="0.00 0.00 898.00 658.00" xmlns="http://www.w3.org/2000/svg" xmlns:xlink="http://www.w3.org/1999/xlink">
<g id="graph0" class="graph" transform="scale(1 1) rotate(0) translate(4 654)">
<title>EntityComponentPrefabData</title>
<!-- Node1 -->
<g id="node1" class="node">
<title>Node1</title>
<g id="a_node1"><a xlink:title="Shared object with constant data for components from prefab.">
<polygon fill="#999999" stroke="#666666" points="140,-291 0,-291 0,-272 140,-272 140,-291"/>
<text text-anchor="middle" x="70" y="-279" font-family="Helvetica,sans-Serif" font-size="10.00">EntityComponentPrefabData</text>
</a>
</g>
</g>
<!-- Node2 -->
<g id="node2" class="node">
<title>Node2</title>
<g id="a_node2"><a xlink:href="interfaceGenericComponentClass.html" target="_top" xlink:title=" ">
<polygon fill="white" stroke="#666666" points="301,-291 176,-291 176,-272 301,-272 301,-291"/>
<text text-anchor="middle" x="238.5" y="-279" font-family="Helvetica,sans-Serif" font-size="10.00">GenericComponentClass</text>
</a>
</g>
</g>
<!-- Node1&#45;&gt;Node2 -->
<g id="edge1" class="edge">
<title>Node1&#45;&gt;Node2</title>
<path fill="none" stroke="#63b8ff" d="M151.03,-281.5C159.33,-281.5 167.67,-281.5 175.73,-281.5"/>
<polygon fill="#63b8ff" stroke="#63b8ff" points="151.16,-278 141.16,-281.5 151.16,-285 151.16,-278"/>
</g>
<!-- Node3 -->
<g id="node3" class="node">
<title>Node3</title>
<g id="a_node3"><a xlink:href="interfaceAIComponentClass.html" target="_top" xlink:title=" ">
<polygon fill="white" stroke="#666666" points="466.5,-564 366.5,-564 366.5,-545 466.5,-545 466.5,-564"/>
<text text-anchor="middle" x="416.5" y="-552" font-family="Helvetica,sans-Serif" font-size="10.00">AIComponentClass</text>
</a>
</g>
</g>
<!-- Node2&#45;&gt;Node3 -->
<g id="edge2" class="edge">
<title>Node2&#45;&gt;Node3</title>
<path fill="none" stroke="#63b8ff" d="M241.12,-302.29C246.07,-350.88 265.35,-472.55 337,-535.5 345.22,-542.72 355.71,-547.3 366.34,-550.19"/>
<polygon fill="#63b8ff" stroke="#63b8ff" points="244.52,-301.99 240.13,-292.34 237.55,-302.62 244.52,-301.99"/>
</g>
<!-- Node12 -->
<g id="node12" class="node">
<title>Node12</title>
<g id="a_node12"><a xlink:href="interfaceAnimationControllerComponentClass.html" target="_top" xlink:title=" ">
<polygon fill="white" stroke="#666666" points="492,-526.5 341,-526.5 341,-496.5 492,-496.5 492,-526.5"/>
<text text-anchor="start" x="349" y="-514.5" font-family="Helvetica,sans-Serif" font-size="10.00">AnimationControllerComponent</text>
<text text-anchor="middle" x="416.5" y="-503.5" font-family="Helvetica,sans-Serif" font-size="10.00">Class</text>
</a>
</g>
</g>
<!-- Node2&#45;&gt;Node12 -->
<g id="edge11" class="edge">
<title>Node2&#45;&gt;Node12</title>
<path fill="none" stroke="#63b8ff" d="M243.43,-301.99C252.43,-343.28 278.42,-436.87 337,-487.5 340.77,-490.76 344.98,-493.58 349.44,-496.02"/>
<polygon fill="#63b8ff" stroke="#63b8ff" points="246.69,-301.47 241.25,-292.38 239.84,-302.88 246.69,-301.47"/>
</g>
<!-- Node13 -->
<g id="node13" class="node">
<title>Node13</title>
<g id="a_node13"><a xlink:href="interfaceAnimationPlayerComponentClass.html" target="_top" xlink:title=" ">
<polygon fill="white" stroke="#666666" points="485,-478.5 348,-478.5 348,-448.5 485,-448.5 485,-478.5"/>
<text text-anchor="start" x="356" y="-466.5" font-family="Helvetica,sans-Serif" font-size="10.00">AnimationPlayerComponent</text>
<text text-anchor="middle" x="416.5" y="-455.5" font-family="Helvetica,sans-Serif" font-size="10.00">Class</text>
</a>
</g>
</g>
<!-- Node2&#45;&gt;Node13 -->
<g id="edge12" class="edge">
<title>Node2&#45;&gt;Node13</title>
<path fill="none" stroke="#63b8ff" d="M246.37,-301.31C259.01,-334.78 289.09,-402.52 337,-439.5 341.29,-442.81 346.03,-445.66 351,-448.13"/>
<polygon fill="#63b8ff" stroke="#63b8ff" points="249.47,-300.56 242.76,-292.36 242.89,-302.95 249.47,-300.56"/>
</g>
<!-- Node14 -->
<g id="node14" class="node">
<title>Node14</title>
<g id="a_node14"><a xlink:href="interfaceBaseProcAnimComponentClass.html" target="_top" xlink:title=" ">
<polygon fill="white" stroke="#666666" points="494.5,-430 338.5,-430 338.5,-411 494.5,-411 494.5,-430"/>
<text text-anchor="middle" x="416.5" y="-418" font-family="Helvetica,sans-Serif" font-size="10.00">BaseProcAnimComponentClass</text>
</a>
</g>
</g>
<!-- Node2&#45;&gt;Node14 -->
<g id="edge13" class="edge">
<title>Node2&#45;&gt;Node14</title>
<path fill="none" stroke="#63b8ff" d="M249.49,-300.71C264.63,-327.82 296.01,-376.86 337,-402.5 342.22,-405.76 347.96,-408.44 353.89,-410.62"/>
<polygon fill="#63b8ff" stroke="#63b8ff" points="252.17,-299.31 244.34,-292.18 246.01,-302.64 252.17,-299.31"/>
</g>
<!-- Node15 -->
<g id="node15" class="node">
<title>Node15</title>
<g id="a_node15"><a xlink:href="interfaceBaseRplComponentClass.html" target="_top" xlink:title=" ">
<polygon fill="white" stroke="#666666" points="480.5,-393 352.5,-393 352.5,-374 480.5,-374 480.5,-393"/>
<text text-anchor="middle" x="416.5" y="-381" font-family="Helvetica,sans-Serif" font-size="10.00">BaseRplComponentClass</text>
</a>
</g>
</g>
<!-- Node2&#45;&gt;Node15 -->
<g id="edge14" class="edge">
<title>Node2&#45;&gt;Node15</title>
<path fill="none" stroke="#63b8ff" d="M255.03,-299.27C272.87,-318.54 303.98,-348.8 337,-365.5 343.36,-368.72 350.31,-371.37 357.35,-373.55"/>
<polygon fill="#63b8ff" stroke="#63b8ff" points="258.1,-297.34 248.8,-292.27 252.91,-302.04 258.1,-297.34"/>
</g>
<!-- Node17 -->
<g id="node17" class="node">
<title>Node17</title>
<g id="a_node17"><a xlink:href="interfaceBaseSoundComponentClass.html" target="_top" xlink:title=" ">
<polygon fill="white" stroke="#666666" points="487,-356 346,-356 346,-337 487,-337 487,-356"/>
<text text-anchor="middle" x="416.5" y="-344" font-family="Helvetica,sans-Serif" font-size="10.00">BaseSoundComponentClass</text>
</a>
</g>
</g>
<!-- Node2&#45;&gt;Node17 -->
<g id="edge16" class="edge">
<title>Node2&#45;&gt;Node17</title>
<path fill="none" stroke="#63b8ff" d="M267.31,-296.48C286.47,-306.34 312.76,-318.95 337,-327.5 346.79,-330.95 357.47,-334 367.72,-336.58"/>
<polygon fill="#63b8ff" stroke="#63b8ff" points="269.2,-293 258.72,-291.47 265.96,-299.2 269.2,-293"/>
</g>
<!-- Node20 -->
<g id="node20" class="node">
<title>Node20</title>
<g id="a_node20"><a xlink:href="interfaceCharacterAnimGraphComponentClass.html" target="_top" xlink:title=" ">
<polygon fill="white" stroke="#666666" points="495,-318.5 338,-318.5 338,-288.5 495,-288.5 495,-318.5"/>
<text text-anchor="start" x="346" y="-306.5" font-family="Helvetica,sans-Serif" font-size="10.00">CharacterAnimGraphComponent</text>
<text text-anchor="middle" x="416.5" y="-295.5" font-family="Helvetica,sans-Serif" font-size="10.00">Class</text>
</a>
</g>
</g>
<!-- Node2&#45;&gt;Node20 -->
<g id="edge19" class="edge">
<title>Node2&#45;&gt;Node20</title>
<path fill="none" stroke="#63b8ff" d="M311.72,-290.53C320.25,-291.59 328.98,-292.68 337.58,-293.76"/>
<polygon fill="#63b8ff" stroke="#63b8ff" points="312.41,-286.96 302.06,-289.19 311.54,-293.91 312.41,-286.96"/>
</g>
<!-- Node21 -->
<g id="node21" class="node">
<title>Node21</title>
<g id="a_node21"><a xlink:href="interfaceCoverManagerComponentClass.html" target="_top" xlink:title=" ">
<polygon fill="white" stroke="#666666" points="492.5,-270 340.5,-270 340.5,-251 492.5,-251 492.5,-270"/>
<text text-anchor="middle" x="416.5" y="-258" font-family="Helvetica,sans-Serif" font-size="10.00">CoverManagerComponentClass</text>
</a>
</g>
</g>
<!-- Node2&#45;&gt;Node21 -->
<g id="edge20" class="edge">
<title>Node2&#45;&gt;Node21</title>
<path fill="none" stroke="#63b8ff" d="M311.84,-272.87C321.15,-271.76 330.69,-270.62 340.04,-269.5"/>
<polygon fill="#63b8ff" stroke="#63b8ff" points="311.57,-269.5 302.06,-274.16 312.4,-276.45 311.57,-269.5"/>
</g>
<!-- Node22 -->
<g id="node22" class="node">
<title>Node22</title>
<g id="a_node22"><a xlink:href="interfaceNavmeshCustomLinkComponentClass.html" target="_top" xlink:title=" ">
<polygon fill="white" stroke="#666666" points="495.5,-232.5 337.5,-232.5 337.5,-202.5 495.5,-202.5 495.5,-232.5"/>
<text text-anchor="start" x="345.5" y="-220.5" font-family="Helvetica,sans-Serif" font-size="10.00">NavmeshCustomLinkComponent</text>
<text text-anchor="middle" x="416.5" y="-209.5" font-family="Helvetica,sans-Serif" font-size="10.00">Class</text>
</a>
</g>
</g>
<!-- Node2&#45;&gt;Node22 -->
<g id="edge21" class="edge">
<title>Node2&#45;&gt;Node22</title>
<path fill="none" stroke="#63b8ff" d="M273.05,-267.38C291.75,-259.69 315.53,-250.2 337,-242.5 346.02,-239.26 355.7,-236.01 365.07,-232.97"/>
<polygon fill="#63b8ff" stroke="#63b8ff" points="271.86,-264.5 263.96,-271.56 274.54,-270.97 271.86,-264.5"/>
</g>
<!-- Node23 -->
<g id="node23" class="node">
<title>Node23</title>
<g id="a_node23"><a xlink:href="interfaceNavmeshWorldComponentClass.html" target="_top" xlink:title=" ">
<polygon fill="white" stroke="#666666" points="494.5,-184 338.5,-184 338.5,-165 494.5,-165 494.5,-184"/>
<text text-anchor="middle" x="416.5" y="-172" font-family="Helvetica,sans-Serif" font-size="10.00">NavmeshWorldComponentClass</text>
</a>
</g>
</g>
<!-- Node2&#45;&gt;Node23 -->
<g id="edge22" class="edge">
<title>Node2&#45;&gt;Node23</title>
<path fill="none" stroke="#63b8ff" d="M254.61,-263.25C272.28,-243.12 303.43,-211.23 337,-193.5 343.94,-189.83 351.61,-186.86 359.34,-184.46"/>
<polygon fill="#63b8ff" stroke="#63b8ff" points="251.32,-260.71 247.48,-270.58 256.64,-265.26 251.32,-260.71"/>
</g>
<!-- Node24 -->
<g id="node24" class="node">
<title>Node24</title>
<g id="a_node24"><a xlink:href="interfacePawnMovementComponentClass.html" target="_top" xlink:title=" ">
<polygon fill="white" stroke="#666666" points="496,-147 337,-147 337,-128 496,-128 496,-147"/>
<text text-anchor="middle" x="416.5" y="-135" font-family="Helvetica,sans-Serif" font-size="10.00">PawnMovementComponentClass</text>
</a>
</g>
</g>
<!-- Node2&#45;&gt;Node24 -->
<g id="edge23" class="edge">
<title>Node2&#45;&gt;Node24</title>
<path fill="none" stroke="#63b8ff" d="M249.17,-262.09C264.08,-234.25 295.37,-183.36 337,-156.5 342.77,-152.78 349.21,-149.78 355.85,-147.37"/>
<polygon fill="#63b8ff" stroke="#63b8ff" points="245.77,-260.05 244.27,-270.54 251.98,-263.27 245.77,-260.05"/>
</g>
<!-- Node26 -->
<g id="node26" class="node">
<title>Node26</title>
<g id="a_node26"><a xlink:href="interfaceScriptComponentClass.html" target="_top" xlink:title=" ">
<polygon fill="white" stroke="#666666" points="474.5,-110 358.5,-110 358.5,-91 474.5,-91 474.5,-110"/>
<text text-anchor="middle" x="416.5" y="-98" font-family="Helvetica,sans-Serif" font-size="10.00">ScriptComponentClass</text>
</a>
</g>
</g>
<!-- Node2&#45;&gt;Node26 -->
<g id="edge25" class="edge">
<title>Node2&#45;&gt;Node26</title>
<path fill="none" stroke="#63b8ff" d="M245.82,-261.38C257.78,-226.77 287.07,-156.15 337,-119.5 343.33,-114.85 350.65,-111.33 358.22,-108.66"/>
<polygon fill="#63b8ff" stroke="#63b8ff" points="242.25,-260.05 242.43,-270.64 248.9,-262.25 242.25,-260.05"/>
</g>
<!-- Node31 -->
<g id="node31" class="node">
<title>Node31</title>
<g id="a_node31"><a xlink:href="interfaceSoundOutputStateComponentClass.html" target="_top" xlink:title=" ">
<polygon fill="white" stroke="#666666" points="489.5,-72.5 343.5,-72.5 343.5,-42.5 489.5,-42.5 489.5,-72.5"/>
<text text-anchor="start" x="351.5" y="-60.5" font-family="Helvetica,sans-Serif" font-size="10.00">SoundOutputStateComponent</text>
<text text-anchor="middle" x="416.5" y="-49.5" font-family="Helvetica,sans-Serif" font-size="10.00">Class</text>
</a>
</g>
</g>
<!-- Node2&#45;&gt;Node31 -->
<g id="edge30" class="edge">
<title>Node2&#45;&gt;Node31</title>
<path fill="none" stroke="#63b8ff" d="M243.68,-261.34C253.06,-221.1 279.65,-130.49 337,-81.5 340.9,-78.17 345.26,-75.3 349.86,-72.83"/>
<polygon fill="#63b8ff" stroke="#63b8ff" points="240.08,-260.38 241.34,-270.9 246.92,-261.89 240.08,-260.38"/>
</g>
<!-- Node32 -->
<g id="node32" class="node">
<title>Node32</title>
<g id="a_node32"><a xlink:href="interfaceTouchComponentClass.html" target="_top" xlink:title=" ">
<polygon fill="white" stroke="#666666" points="475,-24 358,-24 358,-5 475,-5 475,-24"/>
<text text-anchor="middle" x="416.5" y="-12" font-family="Helvetica,sans-Serif" font-size="10.00">TouchComponentClass</text>
</a>
</g>
</g>
<!-- Node2&#45;&gt;Node32 -->
<g id="edge31" class="edge">
<title>Node2&#45;&gt;Node32</title>
<path fill="none" stroke="#63b8ff" d="M241.32,-260.87C246.68,-213.18 266.74,-94.74 337,-33.5 343.03,-28.25 350.26,-24.39 357.86,-21.57"/>
<polygon fill="#63b8ff" stroke="#63b8ff" points="237.76,-260.33 240.23,-270.63 244.72,-261.03 237.76,-260.33"/>
</g>
<!-- Node4 -->
<g id="node4" class="node">
<title>Node4</title>
<g id="a_node4"><a xlink:href="interfaceAIBehaviorTreeComponentClass.html" target="_top" xlink:title=" ">
<polygon fill="white" stroke="#666666" points="687,-650 532,-650 532,-631 687,-631 687,-650"/>
<text text-anchor="middle" x="609.5" y="-638" font-family="Helvetica,sans-Serif" font-size="10.00">AIBehaviorTreeComponentClass</text>
</a>
</g>
</g>
<!-- Node3&#45;&gt;Node4 -->
<g id="edge3" class="edge">
<title>Node3&#45;&gt;Node4</title>
<path fill="none" stroke="#63b8ff" d="M440.31,-570.5C462.73,-585.57 498.36,-607.81 532,-621.5 540.75,-625.06 550.34,-628.08 559.68,-630.59"/>
<polygon fill="#63b8ff" stroke="#63b8ff" points="442.51,-567.08 432.28,-564.34 438.57,-572.87 442.51,-567.08"/>
</g>
<!-- Node5 -->
<g id="node5" class="node">
<title>Node5</title>
<g id="a_node5"><a xlink:href="interfaceAICommunicationComponentClass.html" target="_top" xlink:title=" ">
<polygon fill="white" stroke="#666666" points="681,-612.5 538,-612.5 538,-582.5 681,-582.5 681,-612.5"/>
<text text-anchor="start" x="546" y="-600.5" font-family="Helvetica,sans-Serif" font-size="10.00">AICommunicationComponent</text>
<text text-anchor="middle" x="609.5" y="-589.5" font-family="Helvetica,sans-Serif" font-size="10.00">Class</text>
</a>
</g>
</g>
<!-- Node3&#45;&gt;Node5 -->
<g id="edge4" class="edge">
<title>Node3&#45;&gt;Node5</title>
<path fill="none" stroke="#63b8ff" d="M472.45,-566.87C493.44,-571.6 517.63,-577.04 539.75,-582.02"/>
<polygon fill="#63b8ff" stroke="#63b8ff" points="473.32,-563.26 462.8,-564.47 471.79,-570.08 473.32,-563.26"/>
</g>
<!-- Node6 -->
<g id="node6" class="node">
<title>Node6</title>
<g id="a_node6"><a xlink:href="interfaceAIComponentEntityClass.html" target="_top" xlink:title=" ">
<polygon fill="white" stroke="#666666" points="672,-564 547,-564 547,-545 672,-545 672,-564"/>
<text text-anchor="middle" x="609.5" y="-552" font-family="Helvetica,sans-Serif" font-size="10.00">AIComponentEntityClass</text>
</a>
</g>
</g>
<!-- Node3&#45;&gt;Node6 -->
<g id="edge5" class="edge">
<title>Node3&#45;&gt;Node6</title>
<path fill="none" stroke="#63b8ff" d="M477.59,-554.5C499.64,-554.5 524.63,-554.5 546.82,-554.5"/>
<polygon fill="#63b8ff" stroke="#63b8ff" points="477.69,-551 467.69,-554.5 477.69,-558 477.69,-551"/>
</g>
<!-- Node10 -->
<g id="node10" class="node">
<title>Node10</title>
<g id="a_node10"><a xlink:href="interfaceAIFormationComponentClass.html" target="_top" xlink:title=" ">
<polygon fill="white" stroke="#666666" points="681,-527 538,-527 538,-508 681,-508 681,-527"/>
<text text-anchor="middle" x="609.5" y="-515" font-family="Helvetica,sans-Serif" font-size="10.00">AIFormationComponentClass</text>
</a>
</g>
</g>
<!-- Node3&#45;&gt;Node10 -->
<g id="edge9" class="edge">
<title>Node3&#45;&gt;Node10</title>
<path fill="none" stroke="#63b8ff" d="M477.39,-542.9C502.98,-537.94 532.57,-532.21 557.14,-527.45"/>
<polygon fill="#63b8ff" stroke="#63b8ff" points="476.84,-539.63 467.69,-544.97 478.17,-546.51 476.84,-539.63"/>
</g>
<!-- Node11 -->
<g id="node11" class="node">
<title>Node11</title>
<g id="a_node11"><a xlink:href="interfaceAIPathfindingComponentClass.html" target="_top" xlink:title=" ">
<polygon fill="white" stroke="#666666" points="683.5,-490 535.5,-490 535.5,-471 683.5,-471 683.5,-490"/>
<text text-anchor="middle" x="609.5" y="-478" font-family="Helvetica,sans-Serif" font-size="10.00">AIPathfindingComponentClass</text>
</a>
</g>
</g>
<!-- Node3&#45;&gt;Node11 -->
<g id="edge10" class="edge">
<title>Node3&#45;&gt;Node11</title>
<path fill="none" stroke="#63b8ff" d="M477.17,-543.76C483.73,-541.51 490.14,-538.79 496,-535.5 515.73,-524.43 512.3,-510.63 532,-499.5 538.55,-495.8 545.82,-492.81 553.19,-490.4"/>
<polygon fill="#63b8ff" stroke="#63b8ff" points="476.35,-540.66 467.81,-546.93 478.39,-547.36 476.35,-540.66"/>
</g>
<!-- Node7 -->
<g id="node7" class="node">
<title>Node7</title>
<g id="a_node7"><a xlink:href="interfaceAIBaseAimingComponentClass.html" target="_top" xlink:title=" ">
<polygon fill="white" stroke="#666666" points="882.5,-601 730.5,-601 730.5,-582 882.5,-582 882.5,-601"/>
<text text-anchor="middle" x="806.5" y="-589" font-family="Helvetica,sans-Serif" font-size="10.00">AIBaseAimingComponentClass</text>
</a>
</g>
</g>
<!-- Node6&#45;&gt;Node7 -->
<g id="edge6" class="edge">
<title>Node6&#45;&gt;Node7</title>
<path fill="none" stroke="#63b8ff" d="M673.73,-566.5C699.31,-571.35 728.5,-576.89 752.89,-581.52"/>
<polygon fill="#63b8ff" stroke="#63b8ff" points="674.49,-562.89 664.01,-564.46 673.19,-569.77 674.49,-562.89"/>
</g>
<!-- Node8 -->
<g id="node8" class="node">
<title>Node8</title>
<g id="a_node8"><a xlink:href="interfaceAIBaseMovementComponentClass.html" target="_top" xlink:title=" ">
<polygon fill="white" stroke="#666666" points="890,-564 723,-564 723,-545 890,-545 890,-564"/>
<text text-anchor="middle" x="806.5" y="-552" font-family="Helvetica,sans-Serif" font-size="10.00">AIBaseMovementComponentClass</text>
</a>
</g>
</g>
<!-- Node6&#45;&gt;Node8 -->
<g id="edge7" class="edge">
<title>Node6&#45;&gt;Node8</title>
<path fill="none" stroke="#63b8ff" d="M683.12,-554.5C696.01,-554.5 709.51,-554.5 722.65,-554.5"/>
<polygon fill="#63b8ff" stroke="#63b8ff" points="683.47,-551 673.47,-554.5 683.47,-558 683.47,-551"/>
</g>
<!-- Node9 -->
<g id="node9" class="node">
<title>Node9</title>
<g id="a_node9"><a xlink:href="interfaceAIControlComponentClass.html" target="_top" xlink:title=" ">
<polygon fill="white" stroke="#666666" points="872,-527 741,-527 741,-508 872,-508 872,-527"/>
<text text-anchor="middle" x="806.5" y="-515" font-family="Helvetica,sans-Serif" font-size="10.00">AIControlComponentClass</text>
</a>
</g>
</g>
<!-- Node6&#45;&gt;Node9 -->
<g id="edge8" class="edge">
<title>Node6&#45;&gt;Node9</title>
<path fill="none" stroke="#63b8ff" d="M673.73,-542.5C699.31,-537.65 728.5,-532.11 752.89,-527.48"/>
<polygon fill="#63b8ff" stroke="#63b8ff" points="673.19,-539.23 664.01,-544.54 674.49,-546.11 673.19,-539.23"/>
</g>
<!-- Node16 -->
<g id="node16" class="node">
<title>Node16</title>
<g id="a_node16"><a xlink:href="interfaceRplComponentClass.html" target="_top" xlink:title=" ">
<polygon fill="white" stroke="#666666" points="662,-393 557,-393 557,-374 662,-374 662,-393"/>
<text text-anchor="middle" x="609.5" y="-381" font-family="Helvetica,sans-Serif" font-size="10.00">RplComponentClass</text>
</a>
</g>
</g>
<!-- Node15&#45;&gt;Node16 -->
<g id="edge15" class="edge">
<title>Node15&#45;&gt;Node16</title>
<path fill="none" stroke="#63b8ff" d="M491.7,-383.5C513.45,-383.5 536.76,-383.5 556.78,-383.5"/>
<polygon fill="#63b8ff" stroke="#63b8ff" points="491.83,-380 481.83,-383.5 491.83,-387 491.83,-380"/>
</g>
<!-- Node18 -->
<g id="node18" class="node">
<title>Node18</title>
<g id="a_node18"><a xlink:href="interfaceSndComponentClass.html" target="_top" xlink:title=" ">
<polygon fill="white" stroke="#666666" points="663.5,-356 555.5,-356 555.5,-337 663.5,-337 663.5,-356"/>
<text text-anchor="middle" x="609.5" y="-344" font-family="Helvetica,sans-Serif" font-size="10.00">SndComponentClass</text>
</a>
</g>
</g>
<!-- Node17&#45;&gt;Node18 -->
<g id="edge17" class="edge">
<title>Node17&#45;&gt;Node18</title>
<path fill="none" stroke="#63b8ff" d="M498.15,-346.5C517.38,-346.5 537.43,-346.5 555.08,-346.5"/>
<polygon fill="#63b8ff" stroke="#63b8ff" points="498.27,-343 488.27,-346.5 498.27,-350 498.27,-343"/>
</g>
<!-- Node19 -->
<g id="node19" class="node">
<title>Node19</title>
<g id="a_node19"><a xlink:href="interfaceCharacterSndComponentClass.html" target="_top" xlink:title=" ">
<polygon fill="white" stroke="#666666" points="881.5,-356 731.5,-356 731.5,-337 881.5,-337 881.5,-356"/>
<text text-anchor="middle" x="806.5" y="-344" font-family="Helvetica,sans-Serif" font-size="10.00">CharacterSndComponentClass</text>
</a>
</g>
</g>
<!-- Node18&#45;&gt;Node19 -->
<g id="edge18" class="edge">
<title>Node18&#45;&gt;Node19</title>
<path fill="none" stroke="#63b8ff" d="M674.76,-346.5C692.78,-346.5 712.52,-346.5 731.08,-346.5"/>
<polygon fill="#63b8ff" stroke="#63b8ff" points="674.78,-343 664.78,-346.5 674.78,-350 674.78,-343"/>
</g>
<!-- Node25 -->
<g id="node25" class="node">
<title>Node25</title>
<g id="a_node25"><a xlink:href="interfaceCharacterMovementComponentClass.html" target="_top" xlink:title=" ">
<polygon fill="white" stroke="#666666" points="685.5,-211.5 533.5,-211.5 533.5,-181.5 685.5,-181.5 685.5,-211.5"/>
<text text-anchor="start" x="541.5" y="-199.5" font-family="Helvetica,sans-Serif" font-size="10.00">CharacterMovementComponent</text>
<text text-anchor="middle" x="609.5" y="-188.5" font-family="Helvetica,sans-Serif" font-size="10.00">Class</text>
</a>
</g>
</g>
<!-- Node24&#45;&gt;Node25 -->
<g id="edge24" class="edge">
<title>Node24&#45;&gt;Node25</title>
<path fill="none" stroke="#63b8ff" d="M475.13,-150.18C482.21,-152.11 489.31,-154.22 496,-156.5 512.58,-162.14 515.62,-166.31 532,-172.5 539.81,-175.45 548.17,-178.34 556.38,-181.03"/>
<polygon fill="#63b8ff" stroke="#63b8ff" points="476.36,-146.62 465.8,-147.48 474.6,-153.4 476.36,-146.62"/>
</g>
<!-- Node27 -->
<g id="node27" class="node">
<title>Node27</title>
<g id="a_node27"><a xlink:href="interfaceRplExample1ComponentColorAnimClass.html" target="_top" xlink:title="[Replication example common shape]">
<polygon fill="white" stroke="#666666" points="682.5,-163.5 536.5,-163.5 536.5,-133.5 682.5,-133.5 682.5,-163.5"/>
<text text-anchor="start" x="544.5" y="-151.5" font-family="Helvetica,sans-Serif" font-size="10.00">RplExample1ComponentColor</text>
<text text-anchor="middle" x="609.5" y="-140.5" font-family="Helvetica,sans-Serif" font-size="10.00">AnimClass</text>
</a>
</g>
</g>
<!-- Node26&#45;&gt;Node27 -->
<g id="edge26" class="edge">
<title>Node26&#45;&gt;Node27</title>
<path fill="none" stroke="#63b8ff" d="M469.65,-113.01C478.45,-115.15 487.49,-117.37 496,-119.5 513.32,-123.83 532.11,-128.63 549.28,-133.06"/>
<polygon fill="#63b8ff" stroke="#63b8ff" points="470.63,-109.4 460.08,-110.44 468.98,-116.2 470.63,-109.4"/>
</g>
<!-- Node28 -->
<g id="node28" class="node">
<title>Node28</title>
<g id="a_node28"><a xlink:href="interfaceRplExample2ComponentColorAnimClass.html" target="_top" xlink:title="[Replication example 1]">
<polygon fill="white" stroke="#666666" points="682.5,-115.5 536.5,-115.5 536.5,-85.5 682.5,-85.5 682.5,-115.5"/>
<text text-anchor="start" x="544.5" y="-103.5" font-family="Helvetica,sans-Serif" font-size="10.00">RplExample2ComponentColor</text>
<text text-anchor="middle" x="609.5" y="-92.5" font-family="Helvetica,sans-Serif" font-size="10.00">AnimClass</text>
</a>
</g>
</g>
<!-- Node26&#45;&gt;Node28 -->
<g id="edge27" class="edge">
<title>Node26&#45;&gt;Node28</title>
<path fill="none" stroke="#63b8ff" d="M485.45,-100.5C501.95,-100.5 519.64,-100.5 536.33,-100.5"/>
<polygon fill="#63b8ff" stroke="#63b8ff" points="485.81,-97 475.81,-100.5 485.81,-104 485.81,-97"/>
</g>
<!-- Node29 -->
<g id="node29" class="node">
<title>Node29</title>
<g id="a_node29"><a xlink:href="interfaceRplExample3ComponentColorAnimClass.html" target="_top" xlink:title="[Replication example 2]">
<polygon fill="white" stroke="#666666" points="682.5,-67.5 536.5,-67.5 536.5,-37.5 682.5,-37.5 682.5,-67.5"/>
<text text-anchor="start" x="544.5" y="-55.5" font-family="Helvetica,sans-Serif" font-size="10.00">RplExample3ComponentColor</text>
<text text-anchor="middle" x="609.5" y="-44.5" font-family="Helvetica,sans-Serif" font-size="10.00">AnimClass</text>
</a>
</g>
</g>
<!-- Node26&#45;&gt;Node29 -->
<g id="edge28" class="edge">
<title>Node26&#45;&gt;Node29</title>
<path fill="none" stroke="#63b8ff" d="M469.65,-87.99C478.45,-85.85 487.49,-83.63 496,-81.5 513.32,-77.17 532.11,-72.37 549.28,-67.94"/>
<polygon fill="#63b8ff" stroke="#63b8ff" points="468.98,-84.8 460.08,-90.56 470.63,-91.6 468.98,-84.8"/>
</g>
<!-- Node30 -->
<g id="node30" class="node">
<title>Node30</title>
<g id="a_node30"><a xlink:href="interfaceRplExample3SystemClass.html" target="_top" xlink:title=" ">
<polygon fill="white" stroke="#666666" points="676,-19 543,-19 543,0 676,0 676,-19"/>
<text text-anchor="middle" x="609.5" y="-7" font-family="Helvetica,sans-Serif" font-size="10.00">RplExample3SystemClass</text>
</a>
</g>
</g>
<!-- Node26&#45;&gt;Node30 -->
<g id="edge29" class="edge">
<title>Node26&#45;&gt;Node30</title>
<path fill="none" stroke="#63b8ff" d="M484.9,-87.84C488.8,-86 492.53,-83.9 496,-81.5 519.41,-65.29 508.64,-44.78 532,-28.5 537.28,-24.82 543.19,-21.85 549.34,-19.46"/>
<polygon fill="#63b8ff" stroke="#63b8ff" points="483.91,-84.87 475.96,-91.88 486.54,-91.35 483.91,-84.87"/>
</g>
</g>
</svg>
