<?xml version="1.0" encoding="UTF-8" standalone="no"?>
<!DOCTYPE svg PUBLIC "-//W3C//DTD SVG 1.1//EN"
 "http://www.w3.org/Graphics/SVG/1.1/DTD/svg11.dtd">
<!-- Generated by graphviz version 8.0.2 (20230410.1723)
 -->
<!-- Title: CommonEditorProps Pages: 1 -->
<svg width="361pt" height="82pt"
 viewBox="0.00 0.00 360.50 82.00" xmlns="http://www.w3.org/2000/svg" xmlns:xlink="http://www.w3.org/1999/xlink">
<g id="graph0" class="graph" transform="scale(1 1) rotate(0) translate(4 78)">
<title>CommonEditorProps</title>
<!-- Node1 -->
<g id="node1" class="node">
<title>Node1</title>
<g id="a_node1"><a xlink:title=" ">
<polygon fill="#999999" stroke="#666666" points="236.5,-74 129.5,-74 129.5,-55 236.5,-55 236.5,-74"/>
<text text-anchor="middle" x="183" y="-62" font-family="Helvetica,sans-Serif" font-size="10.00">CommonEditorProps</text>
</a>
</g>
</g>
<!-- Node2 -->
<g id="node2" class="node">
<title>Node2</title>
<g id="a_node2"><a xlink:href="interfaceBaseContainerProps.html" target="_top" xlink:title="An Attribute for BaseContainer.">
<polygon fill="white" stroke="#666666" points="106,-19 0,-19 0,0 106,0 106,-19"/>
<text text-anchor="middle" x="53" y="-7" font-family="Helvetica,sans-Serif" font-size="10.00">BaseContainerProps</text>
</a>
</g>
</g>
<!-- Node1&#45;&gt;Node2 -->
<g id="edge1" class="edge">
<title>Node1&#45;&gt;Node2</title>
<path fill="none" stroke="#63b8ff" d="M151,-50.45C127.27,-40.78 95.56,-27.85 74.73,-19.36"/>
<polygon fill="#63b8ff" stroke="#63b8ff" points="149.37,-53.97 159.95,-54.51 152.01,-47.49 149.37,-53.97"/>
</g>
<!-- Node3 -->
<g id="node3" class="node">
<title>Node3</title>
<g id="a_node3"><a xlink:href="interfaceComponentEditorProps.html" target="_top" xlink:title=" ">
<polygon fill="white" stroke="#666666" points="241.5,-19 124.5,-19 124.5,0 241.5,0 241.5,-19"/>
<text text-anchor="middle" x="183" y="-7" font-family="Helvetica,sans-Serif" font-size="10.00">ComponentEditorProps</text>
</a>
</g>
</g>
<!-- Node1&#45;&gt;Node3 -->
<g id="edge2" class="edge">
<title>Node1&#45;&gt;Node3</title>
<path fill="none" stroke="#63b8ff" d="M183,-43.93C183,-35.53 183,-26.13 183,-19.44"/>
<polygon fill="#63b8ff" stroke="#63b8ff" points="179.5,-43.75 183,-53.75 186.5,-43.75 179.5,-43.75"/>
</g>
<!-- Node4 -->
<g id="node4" class="node">
<title>Node4</title>
<g id="a_node4"><a xlink:href="interfaceEntityEditorProps.html" target="_top" xlink:title=" ">
<polygon fill="white" stroke="#666666" points="352.5,-19 259.5,-19 259.5,0 352.5,0 352.5,-19"/>
<text text-anchor="middle" x="306" y="-7" font-family="Helvetica,sans-Serif" font-size="10.00">EntityEditorProps</text>
</a>
</g>
</g>
<!-- Node1&#45;&gt;Node4 -->
<g id="edge3" class="edge">
<title>Node1&#45;&gt;Node4</title>
<path fill="none" stroke="#63b8ff" d="M213.88,-50.19C236.26,-40.55 265.9,-27.78 285.44,-19.36"/>
<polygon fill="#63b8ff" stroke="#63b8ff" points="212.66,-47.34 204.87,-54.51 215.43,-53.77 212.66,-47.34"/>
</g>
</g>
</svg>
