<?xml version="1.0" encoding="UTF-8" standalone="no"?>
<!DOCTYPE svg PUBLIC "-//W3C//DTD SVG 1.1//EN"
 "http://www.w3.org/Graphics/SVG/1.1/DTD/svg11.dtd">
<!-- Generated by graphviz version 8.0.2 (20230410.1723)
 -->
<!-- Title: BaseDecoratorTest Pages: 1 -->
<svg width="796pt" height="150pt"
 viewBox="0.00 0.00 796.00 150.00" xmlns="http://www.w3.org/2000/svg" xmlns:xlink="http://www.w3.org/1999/xlink">
<g id="graph0" class="graph" transform="scale(1 1) rotate(0) translate(4 146)">
<title>BaseDecoratorTest</title>
<!-- Node1 -->
<g id="node1" class="node">
<title>Node1</title>
<g id="a_node1"><a xlink:title=" ">
<polygon fill="#999999" stroke="#666666" points="454,-83 354,-83 354,-64 454,-64 454,-83"/>
<text text-anchor="middle" x="404" y="-71" font-family="Helvetica,sans-Serif" font-size="10.00">BaseDecoratorTest</text>
</a>
</g>
</g>
<!-- Node5 -->
<g id="node5" class="node">
<title>Node5</title>
<g id="a_node5"><a xlink:href="interfaceDecoratorTestHasAimRequest.html" target="_top" xlink:title=" ">
<polygon fill="white" stroke="#666666" points="640.5,-142 492.5,-142 492.5,-123 640.5,-123 640.5,-142"/>
<text text-anchor="middle" x="566.5" y="-130" font-family="Helvetica,sans-Serif" font-size="10.00">DecoratorTestHasAimRequest</text>
</a>
</g>
</g>
<!-- Node1&#45;&gt;Node5 -->
<g id="edge4" class="edge">
<title>Node1&#45;&gt;Node5</title>
<path fill="none" stroke="#63b8ff" d="M432.23,-88.49C448.6,-97.03 470.06,-107.41 490,-114.5 498.51,-117.53 507.73,-120.2 516.72,-122.5"/>
<polygon fill="#63b8ff" stroke="#63b8ff" points="434.23,-85.06 423.75,-83.46 430.94,-91.24 434.23,-85.06"/>
</g>
<!-- Node6 -->
<g id="node6" class="node">
<title>Node6</title>
<g id="a_node6"><a xlink:href="interfaceDecoratorTestHasMoveRequest.html" target="_top" xlink:title=" ">
<polygon fill="white" stroke="#666666" points="643,-105 490,-105 490,-86 643,-86 643,-105"/>
<text text-anchor="middle" x="566.5" y="-93" font-family="Helvetica,sans-Serif" font-size="10.00">DecoratorTestHasMoveRequest</text>
</a>
</g>
</g>
<!-- Node1&#45;&gt;Node6 -->
<g id="edge5" class="edge">
<title>Node1&#45;&gt;Node6</title>
<path fill="none" stroke="#63b8ff" d="M465.17,-81.75C474.12,-82.97 483.42,-84.25 492.6,-85.51"/>
<polygon fill="#63b8ff" stroke="#63b8ff" points="465.85,-78.17 455.46,-80.28 464.9,-85.11 465.85,-78.17"/>
</g>
<!-- Node7 -->
<g id="node7" class="node">
<title>Node7</title>
<g id="a_node7"><a xlink:href="interfaceDecoratorTestIsAimedWithThreshold.html" target="_top" xlink:title=" ">
<polygon fill="white" stroke="#666666" points="633,-67.5 500,-67.5 500,-37.5 633,-37.5 633,-67.5"/>
<text text-anchor="start" x="508" y="-55.5" font-family="Helvetica,sans-Serif" font-size="10.00">DecoratorTestIsAimedWith</text>
<text text-anchor="middle" x="566.5" y="-44.5" font-family="Helvetica,sans-Serif" font-size="10.00">Threshold</text>
</a>
</g>
</g>
<!-- Node1&#45;&gt;Node7 -->
<g id="edge6" class="edge">
<title>Node1&#45;&gt;Node7</title>
<path fill="none" stroke="#63b8ff" d="M465.08,-65.64C476.36,-64.16 488.21,-62.61 499.65,-61.12"/>
<polygon fill="#63b8ff" stroke="#63b8ff" points="464.93,-62.26 455.46,-67.03 465.83,-69.2 464.93,-62.26"/>
</g>
<!-- Node8 -->
<g id="node8" class="node">
<title>Node8</title>
<g id="a_node8"><a xlink:href="interfaceDecoratorTestScripted.html" target="_top" xlink:title=" ">
<polygon fill="white" stroke="#666666" points="623,-19 510,-19 510,0 623,0 623,-19"/>
<text text-anchor="middle" x="566.5" y="-7" font-family="Helvetica,sans-Serif" font-size="10.00">DecoratorTestScripted</text>
</a>
</g>
</g>
<!-- Node1&#45;&gt;Node8 -->
<g id="edge7" class="edge">
<title>Node1&#45;&gt;Node8</title>
<path fill="none" stroke="#63b8ff" d="M429.76,-58.35C446.33,-48.73 468.89,-36.61 490,-28.5 499.08,-25.01 509.03,-21.98 518.64,-19.43"/>
<polygon fill="#63b8ff" stroke="#63b8ff" points="428.58,-55.57 421.75,-63.68 432.14,-61.6 428.58,-55.57"/>
</g>
<!-- Node2 -->
<g id="node2" class="node">
<title>Node2</title>
<g id="a_node2"><a xlink:href="interfaceNodePortsContainer.html" target="_top" xlink:title=" ">
<polygon fill="white" stroke="#666666" points="318,-83 214,-83 214,-64 318,-64 318,-83"/>
<text text-anchor="middle" x="266" y="-71" font-family="Helvetica,sans-Serif" font-size="10.00">NodePortsContainer</text>
</a>
</g>
</g>
<!-- Node2&#45;&gt;Node1 -->
<g id="edge1" class="edge">
<title>Node2&#45;&gt;Node1</title>
<path fill="none" stroke="#63b8ff" d="M329.15,-73.5C337.4,-73.5 345.77,-73.5 353.76,-73.5"/>
<polygon fill="#63b8ff" stroke="#63b8ff" points="329.42,-70 319.42,-73.5 329.42,-77 329.42,-70"/>
</g>
<!-- Node3 -->
<g id="node3" class="node">
<title>Node3</title>
<g id="a_node3"><a xlink:href="interfaceScriptAndConfig.html" target="_top" xlink:title="Base class for classes which combine enf::Class and enf::BaseClass (in C++).">
<polygon fill="white" stroke="#666666" points="178,-83 92,-83 92,-64 178,-64 178,-83"/>
<text text-anchor="middle" x="135" y="-71" font-family="Helvetica,sans-Serif" font-size="10.00">ScriptAndConfig</text>
</a>
</g>
</g>
<!-- Node3&#45;&gt;Node2 -->
<g id="edge2" class="edge">
<title>Node3&#45;&gt;Node2</title>
<path fill="none" stroke="#63b8ff" d="M189.1,-73.5C197.22,-73.5 205.58,-73.5 213.66,-73.5"/>
<polygon fill="#63b8ff" stroke="#63b8ff" points="189.24,-70 179.24,-73.5 189.24,-77 189.24,-70"/>
</g>
<!-- Node4 -->
<g id="node4" class="node">
<title>Node4</title>
<g id="a_node4"><a xlink:href="interfaceManaged.html" target="_top" xlink:title=" ">
<polygon fill="white" stroke="#666666" points="56,-83 0,-83 0,-64 56,-64 56,-83"/>
<text text-anchor="middle" x="28" y="-71" font-family="Helvetica,sans-Serif" font-size="10.00">Managed</text>
</a>
</g>
</g>
<!-- Node4&#45;&gt;Node3 -->
<g id="edge3" class="edge">
<title>Node4&#45;&gt;Node3</title>
<path fill="none" stroke="#63b8ff" d="M67.2,-73.5C75.18,-73.5 83.64,-73.5 91.76,-73.5"/>
<polygon fill="#63b8ff" stroke="#63b8ff" points="67.31,-70 57.31,-73.5 67.31,-77 67.31,-70"/>
</g>
<!-- Node9 -->
<g id="node9" class="node">
<title>Node9</title>
<g id="a_node9"><a xlink:href="interfaceDecoratorTestNotNull.html" target="_top" xlink:title=" ">
<polygon fill="white" stroke="#666666" points="788,-19 679,-19 679,0 788,0 788,-19"/>
<text text-anchor="middle" x="733.5" y="-7" font-family="Helvetica,sans-Serif" font-size="10.00">DecoratorTestNotNull</text>
</a>
</g>
</g>
<!-- Node8&#45;&gt;Node9 -->
<g id="edge8" class="edge">
<title>Node8&#45;&gt;Node9</title>
<path fill="none" stroke="#63b8ff" d="M634.01,-9.5C648.85,-9.5 664.4,-9.5 678.65,-9.5"/>
<polygon fill="#63b8ff" stroke="#63b8ff" points="634.36,-6 624.36,-9.5 634.36,-13 634.36,-6"/>
</g>
</g>
</svg>
