<?xml version="1.0" encoding="UTF-8" standalone="no"?>
<!DOCTYPE svg PUBLIC "-//W3C//DTD SVG 1.1//EN"
 "http://www.w3.org/Graphics/SVG/1.1/DTD/svg11.dtd">
<!-- Generated by graphviz version 8.0.2 (20230410.1723)
 -->
<!-- Title: pointer Pages: 1 -->
<svg width="365pt" height="1026pt"
 viewBox="0.00 0.00 365.00 1026.00" xmlns="http://www.w3.org/2000/svg" xmlns:xlink="http://www.w3.org/1999/xlink">
<g id="graph0" class="graph" transform="scale(1 1) rotate(0) translate(4 1022)">
<title>pointer</title>
<!-- Node1 -->
<g id="node1" class="node">
<title>Node1</title>
<g id="a_node1"><a xlink:title="Plain C++ pointer, no weak pointers, no memory management.">
<polygon fill="#999999" stroke="#666666" points="46,-537 0,-537 0,-518 46,-518 46,-537"/>
<text text-anchor="middle" x="23" y="-525" font-family="Helvetica,sans-Serif" font-size="10.00">pointer</text>
</a>
</g>
</g>
<!-- Node2 -->
<g id="node2" class="node">
<title>Node2</title>
<g id="a_node2"><a xlink:href="interfaceAnimation.html" target="_top" xlink:title=" ">
<polygon fill="white" stroke="#666666" points="171.5,-981 111.5,-981 111.5,-962 171.5,-962 171.5,-981"/>
<text text-anchor="middle" x="141.5" y="-969" font-family="Helvetica,sans-Serif" font-size="10.00">Animation</text>
</a>
</g>
</g>
<!-- Node1&#45;&gt;Node2 -->
<g id="edge1" class="edge">
<title>Node1&#45;&gt;Node2</title>
<path fill="none" stroke="#63b8ff" d="M23.97,-547.93C24.27,-624.23 29.16,-891.25 82,-953.5 89.29,-962.09 100.57,-966.65 111.29,-969.05"/>
<polygon fill="#63b8ff" stroke="#63b8ff" points="27.47,-548.38 23.95,-538.39 20.47,-548.39 27.47,-548.38"/>
</g>
<!-- Node3 -->
<g id="node3" class="node">
<title>Node3</title>
<g id="a_node3"><a xlink:href="interfaceBaseResourceObject.html" target="_top" xlink:title=" ">
<polygon fill="white" stroke="#666666" points="196,-944 87,-944 87,-925 196,-925 196,-944"/>
<text text-anchor="middle" x="141.5" y="-932" font-family="Helvetica,sans-Serif" font-size="10.00">BaseResourceObject</text>
</a>
</g>
</g>
<!-- Node1&#45;&gt;Node3 -->
<g id="edge2" class="edge">
<title>Node1&#45;&gt;Node3</title>
<path fill="none" stroke="#63b8ff" d="M24.27,-547.97C25.61,-619.99 33.71,-860.34 82,-916.5 84.77,-919.72 88.1,-922.38 91.76,-924.56"/>
<polygon fill="#63b8ff" stroke="#63b8ff" points="27.75,-548.17 24.09,-538.23 20.75,-548.29 27.75,-548.17"/>
</g>
<!-- Node16 -->
<g id="node7" class="node">
<title>Node16</title>
<g id="a_node7"><a xlink:href="interfaceBaseWorld.html" target="_top" xlink:title=" ">
<polygon fill="white" stroke="#666666" points="174,-907 109,-907 109,-888 174,-888 174,-907"/>
<text text-anchor="middle" x="141.5" y="-895" font-family="Helvetica,sans-Serif" font-size="10.00">BaseWorld</text>
</a>
</g>
</g>
<!-- Node1&#45;&gt;Node16 -->
<g id="edge6" class="edge">
<title>Node1&#45;&gt;Node16</title>
<path fill="none" stroke="#63b8ff" d="M24.63,-548.17C27.1,-615.87 38.28,-829.43 82,-879.5 88.78,-887.26 98.82,-891.73 108.68,-894.28"/>
<polygon fill="#63b8ff" stroke="#63b8ff" points="28.1,-548.18 24.26,-538.3 21.1,-548.42 28.1,-548.18"/>
</g>
<!-- Node18 -->
<g id="node9" class="node">
<title>Node18</title>
<g id="a_node9"><a xlink:href="interfaceDecal.html" target="_top" xlink:title=" ">
<polygon fill="white" stroke="#666666" points="162,-870 121,-870 121,-851 162,-851 162,-870"/>
<text text-anchor="middle" x="141.5" y="-858" font-family="Helvetica,sans-Serif" font-size="10.00">Decal</text>
</a>
</g>
</g>
<!-- Node1&#45;&gt;Node18 -->
<g id="edge8" class="edge">
<title>Node1&#45;&gt;Node18</title>
<path fill="none" stroke="#63b8ff" d="M25.06,-548.01C28.71,-610.73 42.75,-798.4 82,-842.5 91.68,-853.38 107.75,-857.77 120.6,-859.5"/>
<polygon fill="#63b8ff" stroke="#63b8ff" points="28.51,-548 24.47,-538.21 21.52,-548.39 28.51,-548"/>
</g>
<!-- Node20 -->
<g id="node11" class="node">
<title>Node20</title>
<g id="a_node11"><a xlink:href="interfaceEntityID.html" target="_top" xlink:title=" ">
<polygon fill="white" stroke="#666666" points="167,-833 116,-833 116,-814 167,-814 167,-833"/>
<text text-anchor="middle" x="141.5" y="-821" font-family="Helvetica,sans-Serif" font-size="10.00">EntityID</text>
</a>
</g>
</g>
<!-- Node1&#45;&gt;Node20 -->
<g id="edge10" class="edge">
<title>Node1&#45;&gt;Node20</title>
<path fill="none" stroke="#63b8ff" d="M25.63,-548.19C30.58,-605.99 47.27,-767.39 82,-805.5 90.59,-814.93 103.98,-819.47 115.78,-821.64"/>
<polygon fill="#63b8ff" stroke="#63b8ff" points="29.03,-547.91 24.73,-538.23 22.06,-548.49 29.03,-547.91"/>
</g>
<!-- Node21 -->
<g id="node12" class="node">
<title>Node21</title>
<g id="a_node12"><a xlink:href="interfaceLightHandle.html" target="_top" xlink:title=" ">
<polygon fill="white" stroke="#666666" points="175.5,-796 107.5,-796 107.5,-777 175.5,-777 175.5,-796"/>
<text text-anchor="middle" x="141.5" y="-784" font-family="Helvetica,sans-Serif" font-size="10.00">LightHandle</text>
</a>
</g>
</g>
<!-- Node1&#45;&gt;Node21 -->
<g id="edge11" class="edge">
<title>Node1&#45;&gt;Node21</title>
<path fill="none" stroke="#63b8ff" d="M26.34,-548.15C32.68,-600.46 51.72,-736.27 82,-768.5 88.62,-775.55 97.93,-779.86 107.17,-782.49"/>
<polygon fill="#63b8ff" stroke="#63b8ff" points="29.71,-547.81 25.07,-538.28 22.76,-548.62 29.71,-547.81"/>
</g>
<!-- Node22 -->
<g id="node13" class="node">
<title>Node22</title>
<g id="a_node13"><a xlink:href="interfaceMaterial.html" target="_top" xlink:title=" ">
<polygon fill="white" stroke="#666666" points="167,-759 116,-759 116,-740 167,-740 167,-759"/>
<text text-anchor="middle" x="141.5" y="-747" font-family="Helvetica,sans-Serif" font-size="10.00">Material</text>
</a>
</g>
</g>
<!-- Node1&#45;&gt;Node22 -->
<g id="edge12" class="edge">
<title>Node1&#45;&gt;Node22</title>
<path fill="none" stroke="#63b8ff" d="M23.76,-548.09C24.43,-588.83 31.82,-680.23 82,-731.5 90.84,-740.54 104.11,-745.06 115.77,-747.32"/>
<polygon fill="#63b8ff" stroke="#63b8ff" points="27.25,-548.16 23.73,-538.17 20.25,-548.18 27.25,-548.16"/>
</g>
<!-- Node23 -->
<g id="node14" class="node">
<title>Node23</title>
<g id="a_node14"><a xlink:href="interfaceNativeComponent.html" target="_top" xlink:title=" ">
<polygon fill="white" stroke="#666666" points="187.5,-722 95.5,-722 95.5,-703 187.5,-703 187.5,-722"/>
<text text-anchor="middle" x="141.5" y="-710" font-family="Helvetica,sans-Serif" font-size="10.00">NativeComponent</text>
</a>
</g>
</g>
<!-- Node1&#45;&gt;Node23 -->
<g id="edge13" class="edge">
<title>Node1&#45;&gt;Node23</title>
<path fill="none" stroke="#63b8ff" d="M25.32,-548.19C28.68,-583.26 40.51,-654.47 82,-694.5 85.82,-698.19 90.39,-701.12 95.25,-703.46"/>
<polygon fill="#63b8ff" stroke="#63b8ff" points="28.74,-548.09 24.45,-538.4 21.77,-548.65 28.74,-548.09"/>
</g>
<!-- Node25 -->
<g id="node16" class="node">
<title>Node25</title>
<g id="a_node16"><a xlink:href="interfaceParseHandle.html" target="_top" xlink:title=" ">
<polygon fill="white" stroke="#666666" points="177.5,-685 105.5,-685 105.5,-666 177.5,-666 177.5,-685"/>
<text text-anchor="middle" x="141.5" y="-673" font-family="Helvetica,sans-Serif" font-size="10.00">ParseHandle</text>
</a>
</g>
</g>
<!-- Node1&#45;&gt;Node25 -->
<g id="edge15" class="edge">
<title>Node1&#45;&gt;Node25</title>
<path fill="none" stroke="#63b8ff" d="M27.65,-547.99C33.81,-576.59 48.98,-628.25 82,-657.5 88.52,-663.28 96.87,-667.2 105.2,-669.86"/>
<polygon fill="#63b8ff" stroke="#63b8ff" points="30.9,-547.41 25.54,-538.27 24.04,-548.76 30.9,-547.41"/>
</g>
<!-- Node26 -->
<g id="node17" class="node">
<title>Node26</title>
<g id="a_node17"><a xlink:href="interfaceParticles.html" target="_top" xlink:title="Script API to Particle Effect Component.">
<polygon fill="white" stroke="#666666" points="169,-648 114,-648 114,-629 169,-629 169,-648"/>
<text text-anchor="middle" x="141.5" y="-636" font-family="Helvetica,sans-Serif" font-size="10.00">Particles</text>
</a>
</g>
</g>
<!-- Node1&#45;&gt;Node26 -->
<g id="edge16" class="edge">
<title>Node1&#45;&gt;Node26</title>
<path fill="none" stroke="#63b8ff" d="M31.43,-547.35C40.33,-568.48 57.2,-601.42 82,-620.5 91.1,-627.5 102.93,-631.8 113.57,-634.43"/>
<polygon fill="#63b8ff" stroke="#63b8ff" points="34.36,-546.25 27.41,-538.26 27.86,-548.85 34.36,-546.25"/>
</g>
<!-- Node27 -->
<g id="node18" class="node">
<title>Node27</title>
<g id="a_node18"><a xlink:href="interfacePhysicsBlock.html" target="_top" xlink:title="Disables collisions between two entities.">
<polygon fill="white" stroke="#666666" points="180,-611 103,-611 103,-592 180,-592 180,-611"/>
<text text-anchor="middle" x="141.5" y="-599" font-family="Helvetica,sans-Serif" font-size="10.00">PhysicsBlock</text>
</a>
</g>
</g>
<!-- Node1&#45;&gt;Node27 -->
<g id="edge17" class="edge">
<title>Node1&#45;&gt;Node27</title>
<path fill="none" stroke="#63b8ff" d="M38.54,-545.43C49.36,-557.72 65.12,-573.54 82,-583.5 88.31,-587.23 95.47,-590.25 102.57,-592.68"/>
<polygon fill="#63b8ff" stroke="#63b8ff" points="40.72,-543.6 31.58,-538.25 35.39,-548.13 40.72,-543.6"/>
</g>
<!-- Node28 -->
<g id="node19" class="node">
<title>Node28</title>
<g id="a_node19"><a xlink:href="interfacePhysicsGeom.html" target="_top" xlink:title="Geometric shapes relevant for physics simulation.">
<polygon fill="white" stroke="#666666" points="180.5,-574 102.5,-574 102.5,-555 180.5,-555 180.5,-574"/>
<text text-anchor="middle" x="141.5" y="-562" font-family="Helvetica,sans-Serif" font-size="10.00">PhysicsGeom</text>
</a>
</g>
</g>
<!-- Node1&#45;&gt;Node28 -->
<g id="edge18" class="edge">
<title>Node1&#45;&gt;Node28</title>
<path fill="none" stroke="#63b8ff" d="M56.68,-538.32C64.93,-541.02 73.78,-543.89 82,-546.5 90.3,-549.14 99.29,-551.93 107.67,-554.51"/>
<polygon fill="#63b8ff" stroke="#63b8ff" points="57.87,-534.7 47.28,-534.9 55.69,-541.35 57.87,-534.7"/>
</g>
<!-- Node29 -->
<g id="node20" class="node">
<title>Node29</title>
<g id="a_node20"><a xlink:href="interfacePhysicsJoint.html" target="_top" xlink:title="Wrapper over joint simulation.">
<polygon fill="white" stroke="#666666" points="177.5,-537 105.5,-537 105.5,-518 177.5,-518 177.5,-537"/>
<text text-anchor="middle" x="141.5" y="-525" font-family="Helvetica,sans-Serif" font-size="10.00">PhysicsJoint</text>
</a>
</g>
</g>
<!-- Node1&#45;&gt;Node29 -->
<g id="edge19" class="edge">
<title>Node1&#45;&gt;Node29</title>
<path fill="none" stroke="#63b8ff" d="M57.32,-527.5C72.32,-527.5 90.05,-527.5 105.27,-527.5"/>
<polygon fill="#63b8ff" stroke="#63b8ff" points="57.46,-524 47.46,-527.5 57.46,-531 57.46,-524"/>
</g>
<!-- Node37 -->
<g id="node27" class="node">
<title>Node37</title>
<g id="a_node27"><a xlink:href="interfacePhysicsMaterial.html" target="_top" xlink:title="Surface properties relevant for physics simulation.">
<polygon fill="white" stroke="#666666" points="184.5,-500 98.5,-500 98.5,-481 184.5,-481 184.5,-500"/>
<text text-anchor="middle" x="141.5" y="-488" font-family="Helvetica,sans-Serif" font-size="10.00">PhysicsMaterial</text>
</a>
</g>
</g>
<!-- Node1&#45;&gt;Node37 -->
<g id="edge26" class="edge">
<title>Node1&#45;&gt;Node37</title>
<path fill="none" stroke="#63b8ff" d="M56.72,-517.11C73.19,-511.88 93.05,-505.57 109.3,-500.41"/>
<polygon fill="#63b8ff" stroke="#63b8ff" points="55.93,-514 47.46,-520.37 58.05,-520.67 55.93,-514"/>
</g>
<!-- Node38 -->
<g id="node28" class="node">
<title>Node38</title>
<g id="a_node28"><a xlink:href="interfacePhysicsRagdoll.html" target="_top" xlink:title="Wrapper over Ragdoll simulation.">
<polygon fill="white" stroke="#666666" points="183.5,-463 99.5,-463 99.5,-444 183.5,-444 183.5,-463"/>
<text text-anchor="middle" x="141.5" y="-451" font-family="Helvetica,sans-Serif" font-size="10.00">PhysicsRagdoll</text>
</a>
</g>
</g>
<!-- Node1&#45;&gt;Node38 -->
<g id="edge27" class="edge">
<title>Node1&#45;&gt;Node38</title>
<path fill="none" stroke="#63b8ff" d="M39.02,-509.56C49.88,-497.59 65.49,-482.32 82,-472.5 88.06,-468.9 94.88,-465.89 101.67,-463.41"/>
<polygon fill="#63b8ff" stroke="#63b8ff" points="35.97,-506.73 32.01,-516.56 41.23,-511.35 35.97,-506.73"/>
</g>
<!-- Node39 -->
<g id="node29" class="node">
<title>Node39</title>
<g id="a_node29"><a xlink:href="interfaceProcessHandle.html" target="_top" xlink:title="Handle to a running process.">
<polygon fill="white" stroke="#666666" points="183,-426 100,-426 100,-407 183,-407 183,-426"/>
<text text-anchor="middle" x="141.5" y="-414" font-family="Helvetica,sans-Serif" font-size="10.00">ProcessHandle</text>
</a>
</g>
</g>
<!-- Node1&#45;&gt;Node39 -->
<g id="edge28" class="edge">
<title>Node1&#45;&gt;Node39</title>
<path fill="none" stroke="#63b8ff" d="M31.69,-507.61C40.71,-486.76 57.62,-454.47 82,-435.5 87.23,-431.43 93.35,-428.22 99.63,-425.69"/>
<polygon fill="#63b8ff" stroke="#63b8ff" points="28.15,-506.01 27.58,-516.59 34.62,-508.67 28.15,-506.01"/>
</g>
<!-- Node40 -->
<g id="node30" class="node">
<title>Node40</title>
<g id="a_node30"><a xlink:href="interfaceRplNode.html" target="_top" xlink:title=" ">
<polygon fill="white" stroke="#666666" points="168,-389 115,-389 115,-370 168,-370 168,-389"/>
<text text-anchor="middle" x="141.5" y="-377" font-family="Helvetica,sans-Serif" font-size="10.00">RplNode</text>
</a>
</g>
</g>
<!-- Node1&#45;&gt;Node40 -->
<g id="edge29" class="edge">
<title>Node1&#45;&gt;Node40</title>
<path fill="none" stroke="#63b8ff" d="M27.76,-507.24C34.05,-478.94 49.37,-427.77 82,-398.5 90.98,-390.44 103.43,-385.8 114.54,-383.12"/>
<polygon fill="#63b8ff" stroke="#63b8ff" points="24.16,-506.34 25.59,-516.83 31.02,-507.74 24.16,-506.34"/>
</g>
<!-- Node41 -->
<g id="node31" class="node">
<title>Node41</title>
<g id="a_node31"><a xlink:href="interfaceScreenshotPixelData.html" target="_top" xlink:title="data for screenshot in RGBA8 format &#45;&gt; each channel has 8 bits and four channels are used (mostly RGB...">
<polygon fill="white" stroke="#666666" points="195.5,-352 87.5,-352 87.5,-333 195.5,-333 195.5,-352"/>
<text text-anchor="middle" x="141.5" y="-340" font-family="Helvetica,sans-Serif" font-size="10.00">ScreenshotPixelData</text>
</a>
</g>
</g>
<!-- Node1&#45;&gt;Node41 -->
<g id="edge30" class="edge">
<title>Node1&#45;&gt;Node41</title>
<path fill="none" stroke="#63b8ff" d="M25.43,-507C28.94,-472.23 41,-401.6 82,-361.5 85.82,-357.77 90.37,-354.77 95.24,-352.36"/>
<polygon fill="#63b8ff" stroke="#63b8ff" points="21.88,-506.43 24.51,-516.69 28.85,-507.03 21.88,-506.43"/>
</g>
<!-- Node42 -->
<g id="node32" class="node">
<title>Node42</title>
<g id="a_node32"><a xlink:href="interfaceSharedItem.html" target="_top" xlink:title=" ">
<polygon fill="white" stroke="#666666" points="174.5,-315 108.5,-315 108.5,-296 174.5,-296 174.5,-315"/>
<text text-anchor="middle" x="141.5" y="-303" font-family="Helvetica,sans-Serif" font-size="10.00">SharedItem</text>
</a>
</g>
</g>
<!-- Node1&#45;&gt;Node42 -->
<g id="edge31" class="edge">
<title>Node1&#45;&gt;Node42</title>
<path fill="none" stroke="#63b8ff" d="M23.86,-507.08C24.71,-466.65 32.41,-375.89 82,-324.5 88.97,-317.28 98.71,-312.8 108.24,-310.02"/>
<polygon fill="#63b8ff" stroke="#63b8ff" points="20.35,-506.88 23.78,-516.91 27.35,-506.94 20.35,-506.88"/>
</g>
<!-- Node43 -->
<g id="node33" class="node">
<title>Node43</title>
<g id="a_node33"><a xlink:href="interfaceTransformResetParams.html" target="_top" xlink:title="Read&#45;only wrapper for GenericEntity::OnTransformResetImpl and GenericComponent::OnTransformReset para...">
<polygon fill="white" stroke="#666666" points="201,-278 82,-278 82,-259 201,-259 201,-278"/>
<text text-anchor="middle" x="141.5" y="-266" font-family="Helvetica,sans-Serif" font-size="10.00">TransformResetParams</text>
</a>
</g>
</g>
<!-- Node1&#45;&gt;Node43 -->
<g id="edge32" class="edge">
<title>Node1&#45;&gt;Node43</title>
<path fill="none" stroke="#63b8ff" d="M26.38,-506.96C32.82,-454.93 52.07,-319.82 82,-287.5 85.41,-283.82 89.54,-280.85 94.01,-278.45"/>
<polygon fill="#63b8ff" stroke="#63b8ff" points="22.8,-506.43 25.09,-516.77 29.75,-507.26 22.8,-506.43"/>
</g>
<!-- Node44 -->
<g id="node34" class="node">
<title>Node44</title>
<g id="a_node34"><a xlink:href="interfaceTypeID.html" target="_top" xlink:title="Script representation for C++ RTTI types.">
<polygon fill="white" stroke="#666666" points="165,-241 118,-241 118,-222 165,-222 165,-241"/>
<text text-anchor="middle" x="141.5" y="-229" font-family="Helvetica,sans-Serif" font-size="10.00">TypeID</text>
</a>
</g>
</g>
<!-- Node1&#45;&gt;Node44 -->
<g id="edge33" class="edge">
<title>Node1&#45;&gt;Node44</title>
<path fill="none" stroke="#63b8ff" d="M25.67,-506.88C30.73,-449.35 47.68,-288.73 82,-250.5 90.99,-240.49 105.3,-235.73 117.52,-233.48"/>
<polygon fill="#63b8ff" stroke="#63b8ff" points="22.13,-506.26 24.77,-516.52 29.1,-506.85 22.13,-506.26"/>
</g>
<!-- Node45 -->
<g id="node35" class="node">
<title>Node45</title>
<g id="a_node35"><a xlink:href="interfaceWBModuleDef.html" target="_top" xlink:title=" ">
<polygon fill="white" stroke="#666666" points="181,-204 102,-204 102,-185 181,-185 181,-204"/>
<text text-anchor="middle" x="141.5" y="-192" font-family="Helvetica,sans-Serif" font-size="10.00">WBModuleDef</text>
</a>
</g>
</g>
<!-- Node1&#45;&gt;Node45 -->
<g id="edge34" class="edge">
<title>Node1&#45;&gt;Node45</title>
<path fill="none" stroke="#63b8ff" d="M25.13,-506.67C28.93,-443.81 43.29,-257.66 82,-213.5 87.21,-207.56 94.29,-203.46 101.74,-200.64"/>
<polygon fill="#63b8ff" stroke="#63b8ff" points="21.58,-506.33 24.5,-516.52 28.57,-506.73 21.58,-506.33"/>
</g>
<!-- Node56 -->
<g id="node46" class="node">
<title>Node56</title>
<g id="a_node46"><a xlink:href="interfaceWorldControllerInfo.html" target="_top" xlink:title=" ">
<polygon fill="white" stroke="#666666" points="190.5,-167 92.5,-167 92.5,-148 190.5,-148 190.5,-167"/>
<text text-anchor="middle" x="141.5" y="-155" font-family="Helvetica,sans-Serif" font-size="10.00">WorldControllerInfo</text>
</a>
</g>
</g>
<!-- Node1&#45;&gt;Node56 -->
<g id="edge45" class="edge">
<title>Node1&#45;&gt;Node56</title>
<path fill="none" stroke="#63b8ff" d="M24.67,-506.91C27.26,-439.49 38.78,-226.76 82,-176.5 85.2,-172.78 89.14,-169.78 93.45,-167.36"/>
<polygon fill="#63b8ff" stroke="#63b8ff" points="21.14,-506.62 24.28,-516.74 28.14,-506.87 21.14,-506.62"/>
</g>
<!-- Node57 -->
<g id="node47" class="node">
<title>Node57</title>
<g id="a_node47"><a xlink:href="interfaceWorldSystemInfo.html" target="_top" xlink:title=" ">
<polygon fill="white" stroke="#666666" points="187,-130 96,-130 96,-111 187,-111 187,-130"/>
<text text-anchor="middle" x="141.5" y="-118" font-family="Helvetica,sans-Serif" font-size="10.00">WorldSystemInfo</text>
</a>
</g>
</g>
<!-- Node1&#45;&gt;Node57 -->
<g id="edge46" class="edge">
<title>Node1&#45;&gt;Node57</title>
<path fill="none" stroke="#63b8ff" d="M24.3,-507.11C25.78,-435.36 34.26,-195.89 82,-139.5 85.73,-135.1 90.48,-131.71 95.67,-129.1"/>
<polygon fill="#63b8ff" stroke="#63b8ff" points="20.79,-506.74 24.11,-516.81 27.79,-506.87 20.79,-506.74"/>
</g>
<!-- Node58 -->
<g id="node48" class="node">
<title>Node58</title>
<g id="a_node48"><a xlink:href="interfacehandle64.html" target="_top" xlink:title="Plain 64bit data, no weak pointers, no memory management.">
<polygon fill="white" stroke="#666666" points="169.5,-56 113.5,-56 113.5,-37 169.5,-37 169.5,-56"/>
<text text-anchor="middle" x="141.5" y="-44" font-family="Helvetica,sans-Serif" font-size="10.00">handle64</text>
</a>
</g>
</g>
<!-- Node1&#45;&gt;Node58 -->
<g id="edge47" class="edge">
<title>Node1&#45;&gt;Node58</title>
<path fill="none" stroke="#63b8ff" d="M25.02,-506.83C29.02,-431.86 45.16,-174.77 82,-102.5 92.02,-82.83 111.76,-66.23 125.52,-56.32"/>
<polygon fill="#63b8ff" stroke="#63b8ff" points="21.49,-506.43 24.47,-516.6 28.48,-506.79 21.49,-506.43"/>
</g>
<!-- Node4 -->
<g id="node4" class="node">
<title>Node4</title>
<g id="a_node4"><a xlink:href="interfaceAnimationSource.html" target="_top" xlink:title=" ">
<polygon fill="white" stroke="#666666" points="342.5,-1018 251.5,-1018 251.5,-999 342.5,-999 342.5,-1018"/>
<text text-anchor="middle" x="297" y="-1006" font-family="Helvetica,sans-Serif" font-size="10.00">AnimationSource</text>
</a>
</g>
</g>
<!-- Node3&#45;&gt;Node4 -->
<g id="edge3" class="edge">
<title>Node3&#45;&gt;Node4</title>
<path fill="none" stroke="#63b8ff" d="M192.12,-948.68C195.2,-950.15 198.19,-951.75 201,-953.5 220.48,-965.62 217.41,-978.55 237,-990.5 242.21,-993.68 248.03,-996.33 253.92,-998.54"/>
<polygon fill="#63b8ff" stroke="#63b8ff" points="193.64,-945.1 183.07,-944.44 190.92,-951.55 193.64,-945.1"/>
</g>
<!-- Node5 -->
<g id="node5" class="node">
<title>Node5</title>
<g id="a_node5"><a xlink:href="interfaceBaseContainer.html" target="_top" xlink:title=" ">
<polygon fill="#fff0f0" stroke="red" points="337,-981 257,-981 257,-962 337,-962 337,-981"/>
<text text-anchor="middle" x="297" y="-969" font-family="Helvetica,sans-Serif" font-size="10.00">BaseContainer</text>
</a>
</g>
</g>
<!-- Node3&#45;&gt;Node5 -->
<g id="edge4" class="edge">
<title>Node3&#45;&gt;Node5</title>
<path fill="none" stroke="#63b8ff" d="M194.32,-946.99C214.67,-951.9 237.65,-957.43 256.61,-962"/>
<polygon fill="#63b8ff" stroke="#63b8ff" points="195.18,-943.36 184.64,-944.42 193.54,-950.16 195.18,-943.36"/>
</g>
<!-- Node14 -->
<g id="node6" class="node">
<title>Node14</title>
<g id="a_node6"><a xlink:href="interfaceVObject.html" target="_top" xlink:title="Visual object.">
<polygon fill="#fff0f0" stroke="red" points="323,-944 271,-944 271,-925 323,-925 323,-944"/>
<text text-anchor="middle" x="297" y="-932" font-family="Helvetica,sans-Serif" font-size="10.00">VObject</text>
</a>
</g>
</g>
<!-- Node3&#45;&gt;Node14 -->
<g id="edge5" class="edge">
<title>Node3&#45;&gt;Node14</title>
<path fill="none" stroke="#63b8ff" d="M207.02,-934.5C229.39,-934.5 253.19,-934.5 270.53,-934.5"/>
<polygon fill="#63b8ff" stroke="#63b8ff" points="207.19,-931 197.19,-934.5 207.19,-938 207.19,-931"/>
</g>
<!-- Node17 -->
<g id="node8" class="node">
<title>Node17</title>
<g id="a_node8"><a xlink:href="interfaceWorld.html" target="_top" xlink:title="derived class connected to gamelib to implement game related features">
<polygon fill="white" stroke="#666666" points="318,-907 276,-907 276,-888 318,-888 318,-907"/>
<text text-anchor="middle" x="297" y="-895" font-family="Helvetica,sans-Serif" font-size="10.00">World</text>
</a>
</g>
</g>
<!-- Node16&#45;&gt;Node17 -->
<g id="edge7" class="edge">
<title>Node16&#45;&gt;Node17</title>
<path fill="none" stroke="#63b8ff" d="M185.21,-897.5C214.87,-897.5 253.03,-897.5 275.95,-897.5"/>
<polygon fill="#63b8ff" stroke="#63b8ff" points="185.31,-894 175.31,-897.5 185.31,-901 185.31,-894"/>
</g>
<!-- Node19 -->
<g id="node10" class="node">
<title>Node19</title>
<g id="a_node10"><a xlink:href="interfaceTrackDecal.html" target="_top" xlink:title=" ">
<polygon fill="white" stroke="#666666" points="329.5,-870 264.5,-870 264.5,-851 329.5,-851 329.5,-870"/>
<text text-anchor="middle" x="297" y="-858" font-family="Helvetica,sans-Serif" font-size="10.00">TrackDecal</text>
</a>
</g>
</g>
<!-- Node18&#45;&gt;Node19 -->
<g id="edge9" class="edge">
<title>Node18&#45;&gt;Node19</title>
<path fill="none" stroke="#63b8ff" d="M173.11,-860.5C199.45,-860.5 237.31,-860.5 264.04,-860.5"/>
<polygon fill="#63b8ff" stroke="#63b8ff" points="173.25,-857 163.25,-860.5 173.25,-864 173.25,-857"/>
</g>
<!-- Node24 -->
<g id="node15" class="node">
<title>Node24</title>
<g id="a_node15"><a xlink:href="interfacePhysics.html" target="_top" xlink:title="Wrapper over a physics simulation of an entity.">
<polygon fill="white" stroke="#666666" points="323,-722 271,-722 271,-703 323,-703 323,-722"/>
<text text-anchor="middle" x="297" y="-710" font-family="Helvetica,sans-Serif" font-size="10.00">Physics</text>
</a>
</g>
</g>
<!-- Node23&#45;&gt;Node24 -->
<g id="edge14" class="edge">
<title>Node23&#45;&gt;Node24</title>
<path fill="none" stroke="#63b8ff" d="M198.47,-712.5C223.21,-712.5 251.07,-712.5 270.66,-712.5"/>
<polygon fill="#63b8ff" stroke="#63b8ff" points="198.72,-709 188.72,-712.5 198.72,-716 198.72,-709"/>
</g>
<!-- Node30 -->
<g id="node21" class="node">
<title>Node30</title>
<g id="a_node21"><a xlink:href="interfacePhysics6DOFJoint.html" target="_top" xlink:title="6 DOF joint simulation.">
<polygon fill="#fff0f0" stroke="red" points="346,-630 248,-630 248,-611 346,-611 346,-630"/>
<text text-anchor="middle" x="297" y="-618" font-family="Helvetica,sans-Serif" font-size="10.00">Physics6DOFJoint</text>
</a>
</g>
</g>
<!-- Node29&#45;&gt;Node30 -->
<g id="edge20" class="edge">
<title>Node29&#45;&gt;Node30</title>
<path fill="none" stroke="#63b8ff" d="M187.71,-538.62C192.44,-540.8 196.98,-543.4 201,-546.5 224.43,-564.56 213.41,-584.65 237,-602.5 241.27,-605.73 246.12,-608.39 251.17,-610.57"/>
<polygon fill="#63b8ff" stroke="#63b8ff" points="189.42,-535.13 178.84,-534.7 186.84,-541.64 189.42,-535.13"/>
</g>
<!-- Node32 -->
<g id="node22" class="node">
<title>Node32</title>
<g id="a_node22"><a xlink:href="interfacePhysicsBallSocketJoint.html" target="_top" xlink:title="Ball socket joint simulation.">
<polygon fill="white" stroke="#666666" points="356.5,-593 237.5,-593 237.5,-574 356.5,-574 356.5,-593"/>
<text text-anchor="middle" x="297" y="-581" font-family="Helvetica,sans-Serif" font-size="10.00">PhysicsBallSocketJoint</text>
</a>
</g>
</g>
<!-- Node29&#45;&gt;Node32 -->
<g id="edge21" class="edge">
<title>Node29&#45;&gt;Node32</title>
<path fill="none" stroke="#63b8ff" d="M186.98,-541.06C191.76,-542.78 196.51,-544.6 201,-546.5 217.66,-553.54 220.27,-558.61 237,-565.5 244.13,-568.44 251.91,-571.15 259.42,-573.52"/>
<polygon fill="#63b8ff" stroke="#63b8ff" points="188.18,-537.42 177.58,-537.48 185.9,-544.04 188.18,-537.42"/>
</g>
<!-- Node33 -->
<g id="node23" class="node">
<title>Node33</title>
<g id="a_node23"><a xlink:href="interfacePhysicsConeTwistJoint.html" target="_top" xlink:title="Cone twist joint simulation.">
<polygon fill="white" stroke="#666666" points="355.5,-556 238.5,-556 238.5,-537 355.5,-537 355.5,-556"/>
<text text-anchor="middle" x="297" y="-544" font-family="Helvetica,sans-Serif" font-size="10.00">PhysicsConeTwistJoint</text>
</a>
</g>
</g>
<!-- Node29&#45;&gt;Node33 -->
<g id="edge22" class="edge">
<title>Node29&#45;&gt;Node33</title>
<path fill="none" stroke="#63b8ff" d="M188.19,-533.15C203.85,-535.09 221.59,-537.29 238.09,-539.33"/>
<polygon fill="#63b8ff" stroke="#63b8ff" points="189.07,-529.61 178.72,-531.86 188.21,-536.56 189.07,-529.61"/>
</g>
<!-- Node34 -->
<g id="node24" class="node">
<title>Node34</title>
<g id="a_node24"><a xlink:href="interfacePhysicsFixedJoint.html" target="_top" xlink:title="Fixed joint simulation.">
<polygon fill="white" stroke="#666666" points="345,-519 249,-519 249,-500 345,-500 345,-519"/>
<text text-anchor="middle" x="297" y="-507" font-family="Helvetica,sans-Serif" font-size="10.00">PhysicsFixedJoint</text>
</a>
</g>
</g>
<!-- Node29&#45;&gt;Node34 -->
<g id="edge23" class="edge">
<title>Node29&#45;&gt;Node34</title>
<path fill="none" stroke="#63b8ff" d="M188.52,-522.1C207.54,-519.87 229.58,-517.29 248.73,-515.04"/>
<polygon fill="#63b8ff" stroke="#63b8ff" points="188.24,-518.73 178.72,-523.37 189.06,-525.68 188.24,-518.73"/>
</g>
<!-- Node35 -->
<g id="node25" class="node">
<title>Node35</title>
<g id="a_node25"><a xlink:href="interfacePhysicsHingeJoint.html" target="_top" xlink:title="Hinge joint simulation.">
<polygon fill="white" stroke="#666666" points="345.5,-482 248.5,-482 248.5,-463 345.5,-463 345.5,-482"/>
<text text-anchor="middle" x="297" y="-470" font-family="Helvetica,sans-Serif" font-size="10.00">PhysicsHingeJoint</text>
</a>
</g>
</g>
<!-- Node29&#45;&gt;Node35 -->
<g id="edge24" class="edge">
<title>Node29&#45;&gt;Node35</title>
<path fill="none" stroke="#63b8ff" d="M188.05,-514.29C192.46,-512.77 196.84,-511.17 201,-509.5 217.61,-502.85 220.44,-498.26 237,-491.5 244.97,-488.25 253.72,-485.17 261.99,-482.48"/>
<polygon fill="#63b8ff" stroke="#63b8ff" points="187.19,-511.22 178.78,-517.67 189.38,-517.87 187.19,-511.22"/>
</g>
<!-- Node36 -->
<g id="node26" class="node">
<title>Node36</title>
<g id="a_node26"><a xlink:href="interfacePhysicsSliderJoint.html" target="_top" xlink:title="Slider joint simulation.">
<polygon fill="white" stroke="#666666" points="345.5,-445 248.5,-445 248.5,-426 345.5,-426 345.5,-445"/>
<text text-anchor="middle" x="297" y="-433" font-family="Helvetica,sans-Serif" font-size="10.00">PhysicsSliderJoint</text>
</a>
</g>
</g>
<!-- Node29&#45;&gt;Node36 -->
<g id="edge25" class="edge">
<title>Node29&#45;&gt;Node36</title>
<path fill="none" stroke="#63b8ff" d="M188.05,-517C192.65,-514.93 197.07,-512.45 201,-509.5 224.35,-491.94 213.77,-472.21 237,-454.5 241.79,-450.85 247.31,-447.88 253.01,-445.48"/>
<polygon fill="#63b8ff" stroke="#63b8ff" points="186.89,-514.08 178.8,-520.92 189.39,-520.62 186.89,-514.08"/>
</g>
<!-- Node46 -->
<g id="node36" class="node">
<title>Node46</title>
<g id="a_node36"><a xlink:href="interfaceAnimEditor.html" target="_top" xlink:title=" ">
<polygon fill="white" stroke="#666666" points="329.5,-389 264.5,-389 264.5,-370 329.5,-370 329.5,-389"/>
<text text-anchor="middle" x="297" y="-377" font-family="Helvetica,sans-Serif" font-size="10.00">AnimEditor</text>
</a>
</g>
</g>
<!-- Node45&#45;&gt;Node46 -->
<g id="edge35" class="edge">
<title>Node45&#45;&gt;Node46</title>
<path fill="none" stroke="#63b8ff" d="M190.98,-205.58C194.68,-207.76 198.1,-210.37 201,-213.5 247.03,-263.14 190.53,-312.28 237,-361.5 244.13,-369.05 254.33,-373.47 264.25,-376.04"/>
<polygon fill="#63b8ff" stroke="#63b8ff" points="192.85,-202.12 182.32,-200.98 189.85,-208.44 192.85,-202.12"/>
</g>
<!-- Node47 -->
<g id="node37" class="node">
<title>Node47</title>
<g id="a_node37"><a xlink:href="interfaceAudioEditor.html" target="_top" xlink:title=" ">
<polygon fill="white" stroke="#666666" points="330.5,-352 263.5,-352 263.5,-333 330.5,-333 330.5,-352"/>
<text text-anchor="middle" x="297" y="-340" font-family="Helvetica,sans-Serif" font-size="10.00">AudioEditor</text>
</a>
</g>
</g>
<!-- Node45&#45;&gt;Node47 -->
<g id="edge36" class="edge">
<title>Node45&#45;&gt;Node47</title>
<path fill="none" stroke="#63b8ff" d="M191.2,-206.08C194.78,-208.16 198.11,-210.61 201,-213.5 237.67,-250.18 200.01,-288.15 237,-324.5 244.03,-331.41 253.62,-335.67 263.04,-338.31"/>
<polygon fill="#63b8ff" stroke="#63b8ff" points="192.83,-202.51 182.3,-201.41 189.85,-208.84 192.83,-202.51"/>
</g>
<!-- Node48 -->
<g id="node38" class="node">
<title>Node48</title>
<g id="a_node38"><a xlink:href="interfaceBehaviorEditor.html" target="_top" xlink:title=" ">
<polygon fill="white" stroke="#666666" points="336.5,-315 257.5,-315 257.5,-296 336.5,-296 336.5,-315"/>
<text text-anchor="middle" x="297" y="-303" font-family="Helvetica,sans-Serif" font-size="10.00">BehaviorEditor</text>
</a>
</g>
</g>
<!-- Node45&#45;&gt;Node48 -->
<g id="edge37" class="edge">
<title>Node45&#45;&gt;Node48</title>
<path fill="none" stroke="#63b8ff" d="M191.09,-206.7C194.64,-208.64 198,-210.89 201,-213.5 228.59,-237.51 209.19,-263.74 237,-287.5 242.78,-292.44 249.89,-296.02 257.15,-298.62"/>
<polygon fill="#63b8ff" stroke="#63b8ff" points="192.89,-203.22 182.34,-202.24 189.98,-209.58 192.89,-203.22"/>
</g>
<!-- Node49 -->
<g id="node39" class="node">
<title>Node49</title>
<g id="a_node39"><a xlink:href="interfaceLocalizationEditor.html" target="_top" xlink:title=" ">
<polygon fill="white" stroke="#666666" points="344,-278 250,-278 250,-259 344,-259 344,-278"/>
<text text-anchor="middle" x="297" y="-266" font-family="Helvetica,sans-Serif" font-size="10.00">LocalizationEditor</text>
</a>
</g>
</g>
<!-- Node45&#45;&gt;Node49 -->
<g id="edge38" class="edge">
<title>Node45&#45;&gt;Node49</title>
<path fill="none" stroke="#63b8ff" d="M191.52,-208.4C194.82,-209.94 198.01,-211.64 201,-213.5 220.48,-225.62 217.41,-238.55 237,-250.5 242.21,-253.68 248.03,-256.33 253.92,-258.54"/>
<polygon fill="#63b8ff" stroke="#63b8ff" points="193.03,-204.82 182.45,-204.21 190.34,-211.28 193.03,-204.82"/>
</g>
<!-- Node50 -->
<g id="node40" class="node">
<title>Node50</title>
<g id="a_node40"><a xlink:href="interfaceNavmeshGeneratorMain.html" target="_top" xlink:title=" ">
<polygon fill="white" stroke="#666666" points="357,-241 237,-241 237,-222 357,-222 357,-241"/>
<text text-anchor="middle" x="297" y="-229" font-family="Helvetica,sans-Serif" font-size="10.00">NavmeshGeneratorMain</text>
</a>
</g>
</g>
<!-- Node45&#45;&gt;Node50 -->
<g id="edge39" class="edge">
<title>Node45&#45;&gt;Node50</title>
<path fill="none" stroke="#63b8ff" d="M191.83,-206.39C212.07,-211.27 235.24,-216.86 254.59,-221.52"/>
<polygon fill="#63b8ff" stroke="#63b8ff" points="192.78,-202.78 182.23,-203.84 191.14,-209.58 192.78,-202.78"/>
</g>
<!-- Node51 -->
<g id="node41" class="node">
<title>Node51</title>
<g id="a_node41"><a xlink:href="interfaceParticleEditor.html" target="_top" xlink:title=" ">
<polygon fill="white" stroke="#666666" points="334.5,-204 259.5,-204 259.5,-185 334.5,-185 334.5,-204"/>
<text text-anchor="middle" x="297" y="-192" font-family="Helvetica,sans-Serif" font-size="10.00">ParticleEditor</text>
</a>
</g>
</g>
<!-- Node45&#45;&gt;Node51 -->
<g id="edge40" class="edge">
<title>Node45&#45;&gt;Node51</title>
<path fill="none" stroke="#63b8ff" d="M191.96,-194.5C213.79,-194.5 238.99,-194.5 259.13,-194.5"/>
<polygon fill="#63b8ff" stroke="#63b8ff" points="192.23,-191 182.23,-194.5 192.23,-198 192.23,-191"/>
</g>
<!-- Node52 -->
<g id="node42" class="node">
<title>Node52</title>
<g id="a_node42"><a xlink:href="interfaceProcAnimEditor.html" target="_top" xlink:title=" ">
<polygon fill="white" stroke="#666666" points="339.5,-167 254.5,-167 254.5,-148 339.5,-148 339.5,-167"/>
<text text-anchor="middle" x="297" y="-155" font-family="Helvetica,sans-Serif" font-size="10.00">ProcAnimEditor</text>
</a>
</g>
</g>
<!-- Node45&#45;&gt;Node52 -->
<g id="edge41" class="edge">
<title>Node45&#45;&gt;Node52</title>
<path fill="none" stroke="#63b8ff" d="M191.83,-182.61C212.07,-177.73 235.24,-172.14 254.59,-167.48"/>
<polygon fill="#63b8ff" stroke="#63b8ff" points="191.14,-179.42 182.23,-185.16 192.78,-186.22 191.14,-179.42"/>
</g>
<!-- Node53 -->
<g id="node43" class="node">
<title>Node53</title>
<g id="a_node43"><a xlink:href="interfaceResourceManager.html" target="_top" xlink:title=" ">
<polygon fill="white" stroke="#666666" points="344.5,-130 249.5,-130 249.5,-111 344.5,-111 344.5,-130"/>
<text text-anchor="middle" x="297" y="-118" font-family="Helvetica,sans-Serif" font-size="10.00">ResourceManager</text>
</a>
</g>
</g>
<!-- Node45&#45;&gt;Node53 -->
<g id="edge42" class="edge">
<title>Node45&#45;&gt;Node53</title>
<path fill="none" stroke="#63b8ff" d="M191.52,-181.48C194.82,-179.99 198.01,-178.33 201,-176.5 220.57,-164.53 217.5,-151.6 237,-139.5 242.85,-135.87 249.47,-132.87 256.09,-130.4"/>
<polygon fill="#63b8ff" stroke="#63b8ff" points="190.43,-178.55 182.45,-185.52 193.04,-185.05 190.43,-178.55"/>
</g>
<!-- Node54 -->
<g id="node44" class="node">
<title>Node54</title>
<g id="a_node44"><a xlink:href="interfaceScriptEditor.html" target="_top" xlink:title=" ">
<polygon fill="white" stroke="#666666" points="331,-93 263,-93 263,-74 331,-74 331,-93"/>
<text text-anchor="middle" x="297" y="-81" font-family="Helvetica,sans-Serif" font-size="10.00">ScriptEditor</text>
</a>
</g>
</g>
<!-- Node45&#45;&gt;Node54 -->
<g id="edge43" class="edge">
<title>Node45&#45;&gt;Node54</title>
<path fill="none" stroke="#63b8ff" d="M191.08,-183.16C194.64,-181.27 198,-179.07 201,-176.5 228.78,-152.71 209.38,-126.47 237,-102.5 244.23,-96.22 253.57,-92.01 262.67,-89.19"/>
<polygon fill="#63b8ff" stroke="#63b8ff" points="190.06,-180.23 182.32,-187.46 192.89,-186.63 190.06,-180.23"/>
</g>
<!-- Node55 -->
<g id="node45" class="node">
<title>Node55</title>
<g id="a_node45"><a xlink:href="interfaceWorldEditor.html" target="_top" xlink:title=" ">
<polygon fill="white" stroke="#666666" points="331,-56 263,-56 263,-37 331,-37 331,-56"/>
<text text-anchor="middle" x="297" y="-44" font-family="Helvetica,sans-Serif" font-size="10.00">WorldEditor</text>
</a>
</g>
</g>
<!-- Node45&#45;&gt;Node55 -->
<g id="edge44" class="edge">
<title>Node45&#45;&gt;Node55</title>
<path fill="none" stroke="#63b8ff" d="M191.19,-183.78C194.77,-181.75 198.1,-179.35 201,-176.5 237.95,-140.11 200.29,-102.13 237,-65.5 243.93,-58.58 253.39,-54.18 262.7,-51.38"/>
<polygon fill="#63b8ff" stroke="#63b8ff" points="189.92,-180.96 182.27,-188.29 192.82,-187.33 189.92,-180.96"/>
</g>
<!-- Node59 -->
<g id="node49" class="node">
<title>Node59</title>
<g id="a_node49"><a xlink:href="interfaceWorldTimestamp.html" target="_top" xlink:title="Type storing timestamps of the world.">
<polygon fill="white" stroke="#666666" points="342,-19 252,-19 252,0 342,0 342,-19"/>
<text text-anchor="middle" x="297" y="-7" font-family="Helvetica,sans-Serif" font-size="10.00">WorldTimestamp</text>
</a>
</g>
</g>
<!-- Node58&#45;&gt;Node59 -->
<g id="edge48" class="edge">
<title>Node58&#45;&gt;Node59</title>
<path fill="none" stroke="#63b8ff" d="M180.46,-37.35C202.98,-31.92 231.54,-25.04 254.63,-19.47"/>
<polygon fill="#63b8ff" stroke="#63b8ff" points="179.84,-34.14 170.94,-39.89 181.48,-40.94 179.84,-34.14"/>
</g>
</g>
</svg>
