<?xml version="1.0" encoding="UTF-8" standalone="no"?>
<!DOCTYPE svg PUBLIC "-//W3C//DTD SVG 1.1//EN"
 "http://www.w3.org/Graphics/SVG/1.1/DTD/svg11.dtd">
<!-- Generated by graphviz version 8.0.2 (20230410.1723)
 -->
<!-- Title: AIMessage Pages: 1 -->
<svg width="156pt" height="192pt"
 viewBox="0.00 0.00 156.00 192.00" xmlns="http://www.w3.org/2000/svg" xmlns:xlink="http://www.w3.org/1999/xlink">
<g id="graph0" class="graph" transform="scale(1 1) rotate(0) translate(4 188)">
<title>AIMessage</title>
<!-- Node1 -->
<g id="node1" class="node">
<title>Node1</title>
<g id="a_node1"><a xlink:title="Base class for all messages related to AI.">
<polygon fill="#999999" stroke="#666666" points="113.5,-74 48.5,-74 48.5,-55 113.5,-55 113.5,-74"/>
<text text-anchor="middle" x="81" y="-62" font-family="Helvetica,sans-Serif" font-size="10.00">AIMessage</text>
</a>
</g>
</g>
<!-- Node4 -->
<g id="node4" class="node">
<title>Node4</title>
<g id="a_node4"><a xlink:href="interfaceAIDangerEvent.html" target="_top" xlink:title="Event which gets broadcasted from danger&#45;causing places to AI.">
<polygon fill="white" stroke="#666666" points="80,-19 0,-19 0,0 80,0 80,-19"/>
<text text-anchor="middle" x="40" y="-7" font-family="Helvetica,sans-Serif" font-size="10.00">AIDangerEvent</text>
</a>
</g>
</g>
<!-- Node1&#45;&gt;Node4 -->
<g id="edge3" class="edge">
<title>Node1&#45;&gt;Node4</title>
<path fill="none" stroke="#63b8ff" d="M67.63,-46.22C60.72,-37.28 52.57,-26.74 46.92,-19.44"/>
<polygon fill="#63b8ff" stroke="#63b8ff" points="65.34,-47.98 74.23,-53.75 70.88,-43.7 65.34,-47.98"/>
</g>
<!-- Node5 -->
<g id="node5" class="node">
<title>Node5</title>
<g id="a_node5"><a xlink:href="interfaceAIOrder.html" target="_top" xlink:title="Specialized message to send orders between AI agents.">
<polygon fill="white" stroke="#666666" points="148,-19 98,-19 98,0 148,0 148,-19"/>
<text text-anchor="middle" x="123" y="-7" font-family="Helvetica,sans-Serif" font-size="10.00">AIOrder</text>
</a>
</g>
</g>
<!-- Node1&#45;&gt;Node5 -->
<g id="edge4" class="edge">
<title>Node1&#45;&gt;Node5</title>
<path fill="none" stroke="#63b8ff" d="M94.7,-46.22C101.78,-37.28 110.13,-26.74 115.91,-19.44"/>
<polygon fill="#63b8ff" stroke="#63b8ff" points="91.4,-43.74 87.94,-53.75 96.89,-48.08 91.4,-43.74"/>
</g>
<!-- Node2 -->
<g id="node2" class="node">
<title>Node2</title>
<g id="a_node2"><a xlink:href="interfaceScriptAndConfig.html" target="_top" xlink:title="Base class for classes which combine enf::Class and enf::BaseClass (in C++).">
<polygon fill="white" stroke="#666666" points="124,-129 38,-129 38,-110 124,-110 124,-129"/>
<text text-anchor="middle" x="81" y="-117" font-family="Helvetica,sans-Serif" font-size="10.00">ScriptAndConfig</text>
</a>
</g>
</g>
<!-- Node2&#45;&gt;Node1 -->
<g id="edge1" class="edge">
<title>Node2&#45;&gt;Node1</title>
<path fill="none" stroke="#63b8ff" d="M81,-98.93C81,-90.53 81,-81.13 81,-74.44"/>
<polygon fill="#63b8ff" stroke="#63b8ff" points="77.5,-98.75 81,-108.75 84.5,-98.75 77.5,-98.75"/>
</g>
<!-- Node3 -->
<g id="node3" class="node">
<title>Node3</title>
<g id="a_node3"><a xlink:href="interfaceManaged.html" target="_top" xlink:title=" ">
<polygon fill="white" stroke="#666666" points="109,-184 53,-184 53,-165 109,-165 109,-184"/>
<text text-anchor="middle" x="81" y="-172" font-family="Helvetica,sans-Serif" font-size="10.00">Managed</text>
</a>
</g>
</g>
<!-- Node3&#45;&gt;Node2 -->
<g id="edge2" class="edge">
<title>Node3&#45;&gt;Node2</title>
<path fill="none" stroke="#63b8ff" d="M81,-153.93C81,-145.53 81,-136.13 81,-129.44"/>
<polygon fill="#63b8ff" stroke="#63b8ff" points="77.5,-153.75 81,-163.75 84.5,-153.75 77.5,-153.75"/>
</g>
</g>
</svg>
