<?xml version="1.0" encoding="UTF-8" standalone="no"?>
<!DOCTYPE svg PUBLIC "-//W3C//DTD SVG 1.1//EN"
 "http://www.w3.org/Graphics/SVG/1.1/DTD/svg11.dtd">
<!-- Generated by graphviz version 8.0.2 (20230410.1723)
 -->
<!-- Title: LakeGeneratorEntityClass Pages: 1 -->
<svg width="140pt" height="192pt"
 viewBox="0.00 0.00 140.00 192.00" xmlns="http://www.w3.org/2000/svg" xmlns:xlink="http://www.w3.org/1999/xlink">
<g id="graph0" class="graph" transform="scale(1 1) rotate(0) translate(4 188)">
<title>LakeGeneratorEntityClass</title>
<!-- Node1 -->
<g id="node1" class="node">
<title>Node1</title>
<g id="a_node1"><a xlink:title=" ">
<polygon fill="#999999" stroke="#666666" points="131.5,-19 0.5,-19 0.5,0 131.5,0 131.5,-19"/>
<text text-anchor="middle" x="66" y="-7" font-family="Helvetica,sans-Serif" font-size="10.00">LakeGeneratorEntityClass</text>
</a>
</g>
</g>
<!-- Node2 -->
<g id="node2" class="node">
<title>Node2</title>
<g id="a_node2"><a xlink:href="interfaceGeneratorBaseEntityClass.html" target="_top" xlink:title=" ">
<polygon fill="white" stroke="#666666" points="132,-74 0,-74 0,-55 132,-55 132,-74"/>
<text text-anchor="middle" x="66" y="-62" font-family="Helvetica,sans-Serif" font-size="10.00">GeneratorBaseEntityClass</text>
</a>
</g>
</g>
<!-- Node2&#45;&gt;Node1 -->
<g id="edge1" class="edge">
<title>Node2&#45;&gt;Node1</title>
<path fill="none" stroke="#63b8ff" d="M66,-43.93C66,-35.53 66,-26.13 66,-19.44"/>
<polygon fill="#63b8ff" stroke="#63b8ff" points="62.5,-43.75 66,-53.75 69.5,-43.75 62.5,-43.75"/>
</g>
<!-- Node3 -->
<g id="node3" class="node">
<title>Node3</title>
<g id="a_node3"><a xlink:href="interfaceGenericEntityClass.html" target="_top" xlink:title=" ">
<polygon fill="white" stroke="#666666" points="116.5,-129 15.5,-129 15.5,-110 116.5,-110 116.5,-129"/>
<text text-anchor="middle" x="66" y="-117" font-family="Helvetica,sans-Serif" font-size="10.00">GenericEntityClass</text>
</a>
</g>
</g>
<!-- Node3&#45;&gt;Node2 -->
<g id="edge2" class="edge">
<title>Node3&#45;&gt;Node2</title>
<path fill="none" stroke="#63b8ff" d="M66,-98.93C66,-90.53 66,-81.13 66,-74.44"/>
<polygon fill="#63b8ff" stroke="#63b8ff" points="62.5,-98.75 66,-108.75 69.5,-98.75 62.5,-98.75"/>
</g>
<!-- Node4 -->
<g id="node4" class="node">
<title>Node4</title>
<g id="a_node4"><a xlink:href="interfaceEntityPrefabData.html" target="_top" xlink:title="Shared object with constant data for enf::EntitySource from prefab.">
<polygon fill="white" stroke="#666666" points="111,-184 21,-184 21,-165 111,-165 111,-184"/>
<text text-anchor="middle" x="66" y="-172" font-family="Helvetica,sans-Serif" font-size="10.00">EntityPrefabData</text>
</a>
</g>
</g>
<!-- Node4&#45;&gt;Node3 -->
<g id="edge3" class="edge">
<title>Node4&#45;&gt;Node3</title>
<path fill="none" stroke="#63b8ff" d="M66,-153.93C66,-145.53 66,-136.13 66,-129.44"/>
<polygon fill="#63b8ff" stroke="#63b8ff" points="62.5,-153.75 66,-163.75 69.5,-153.75 62.5,-153.75"/>
</g>
</g>
</svg>
