<?xml version="1.0" encoding="UTF-8" standalone="no"?>
<!DOCTYPE svg PUBLIC "-//W3C//DTD SVG 1.1//EN"
 "http://www.w3.org/Graphics/SVG/1.1/DTD/svg11.dtd">
<!-- Generated by graphviz version 8.0.2 (20230410.1723)
 -->
<!-- Title: ParticleEffectEntityClass Pages: 1 -->
<svg width="133pt" height="203pt"
 viewBox="0.00 0.00 133.00 203.00" xmlns="http://www.w3.org/2000/svg" xmlns:xlink="http://www.w3.org/1999/xlink">
<g id="graph0" class="graph" transform="scale(1 1) rotate(0) translate(4 199)">
<title>ParticleEffectEntityClass</title>
<!-- Node1 -->
<g id="node1" class="node">
<title>Node1</title>
<g id="a_node1"><a xlink:title=" ">
<polygon fill="#999999" stroke="#666666" points="125,-85 0,-85 0,-66 125,-66 125,-85"/>
<text text-anchor="middle" x="62.5" y="-73" font-family="Helvetica,sans-Serif" font-size="10.00">ParticleEffectEntityClass</text>
</a>
</g>
</g>
<!-- Node4 -->
<g id="node4" class="node">
<title>Node4</title>
<g id="a_node4"><a xlink:href="interfaceReplicatedParticleEffectEntityClass.html" target="_top" xlink:title=" ">
<polygon fill="white" stroke="#666666" points="122.5,-30 2.5,-30 2.5,0 122.5,0 122.5,-30"/>
<text text-anchor="start" x="10.5" y="-18" font-family="Helvetica,sans-Serif" font-size="10.00">ReplicatedParticleEffect</text>
<text text-anchor="middle" x="62.5" y="-7" font-family="Helvetica,sans-Serif" font-size="10.00">EntityClass</text>
</a>
</g>
</g>
<!-- Node1&#45;&gt;Node4 -->
<g id="edge3" class="edge">
<title>Node1&#45;&gt;Node4</title>
<path fill="none" stroke="#63b8ff" d="M62.5,-55.08C62.5,-46.92 62.5,-37.6 62.5,-30.11"/>
<polygon fill="#63b8ff" stroke="#63b8ff" points="59,-54.87 62.5,-64.87 66,-54.87 59,-54.87"/>
</g>
<!-- Node2 -->
<g id="node2" class="node">
<title>Node2</title>
<g id="a_node2"><a xlink:href="interfaceGenericEntityClass.html" target="_top" xlink:title=" ">
<polygon fill="white" stroke="#666666" points="113,-140 12,-140 12,-121 113,-121 113,-140"/>
<text text-anchor="middle" x="62.5" y="-128" font-family="Helvetica,sans-Serif" font-size="10.00">GenericEntityClass</text>
</a>
</g>
</g>
<!-- Node2&#45;&gt;Node1 -->
<g id="edge1" class="edge">
<title>Node2&#45;&gt;Node1</title>
<path fill="none" stroke="#63b8ff" d="M62.5,-109.93C62.5,-101.53 62.5,-92.13 62.5,-85.44"/>
<polygon fill="#63b8ff" stroke="#63b8ff" points="59,-109.75 62.5,-119.75 66,-109.75 59,-109.75"/>
</g>
<!-- Node3 -->
<g id="node3" class="node">
<title>Node3</title>
<g id="a_node3"><a xlink:href="interfaceEntityPrefabData.html" target="_top" xlink:title="Shared object with constant data for enf::EntitySource from prefab.">
<polygon fill="white" stroke="#666666" points="107.5,-195 17.5,-195 17.5,-176 107.5,-176 107.5,-195"/>
<text text-anchor="middle" x="62.5" y="-183" font-family="Helvetica,sans-Serif" font-size="10.00">EntityPrefabData</text>
</a>
</g>
</g>
<!-- Node3&#45;&gt;Node2 -->
<g id="edge2" class="edge">
<title>Node3&#45;&gt;Node2</title>
<path fill="none" stroke="#63b8ff" d="M62.5,-164.93C62.5,-156.53 62.5,-147.13 62.5,-140.44"/>
<polygon fill="#63b8ff" stroke="#63b8ff" points="59,-164.75 62.5,-174.75 66,-164.75 59,-164.75"/>
</g>
</g>
</svg>
