<?xml version="1.0" encoding="UTF-8" standalone="no"?>
<!DOCTYPE svg PUBLIC "-//W3C//DTD SVG 1.1//EN"
 "http://www.w3.org/Graphics/SVG/1.1/DTD/svg11.dtd">
<!-- Generated by graphviz version 8.0.2 (20230410.1723)
 -->
<!-- Title: DownloadableCatalogue Pages: 1 -->
<svg width="178pt" height="137pt"
 viewBox="0.00 0.00 178.00 137.00" xmlns="http://www.w3.org/2000/svg" xmlns:xlink="http://www.w3.org/1999/xlink">
<g id="graph0" class="graph" transform="scale(1 1) rotate(0) translate(4 133)">
<title>DownloadableCatalogue</title>
<!-- Node1 -->
<g id="node1" class="node">
<title>Node1</title>
<g id="a_node1"><a xlink:title=" ">
<polygon fill="#999999" stroke="#666666" points="144.5,-74 24.5,-74 24.5,-55 144.5,-55 144.5,-74"/>
<text text-anchor="middle" x="84.5" y="-62" font-family="Helvetica,sans-Serif" font-size="10.00">DownloadableCatalogue</text>
</a>
</g>
</g>
<!-- Node3 -->
<g id="node3" class="node">
<title>Node3</title>
<g id="a_node3"><a xlink:href="interfaceWorkshopApi.html" target="_top" xlink:title=" ">
<polygon fill="white" stroke="#666666" points="75,-19 0,-19 0,0 75,0 75,-19"/>
<text text-anchor="middle" x="37.5" y="-7" font-family="Helvetica,sans-Serif" font-size="10.00">WorkshopApi</text>
</a>
</g>
</g>
<!-- Node1&#45;&gt;Node3 -->
<g id="edge2" class="edge">
<title>Node1&#45;&gt;Node3</title>
<path fill="none" stroke="#63b8ff" d="M69.67,-46.78C61.64,-37.72 52.04,-26.9 45.43,-19.44"/>
<polygon fill="#63b8ff" stroke="#63b8ff" points="66.49,-48.59 75.74,-53.75 71.72,-43.94 66.49,-48.59"/>
</g>
<!-- Node4 -->
<g id="node4" class="node">
<title>Node4</title>
<g id="a_node4"><a xlink:href="interfaceWorldSaveApi.html" target="_top" xlink:title=" ">
<polygon fill="white" stroke="#666666" points="170,-19 93,-19 93,0 170,0 170,-19"/>
<text text-anchor="middle" x="131.5" y="-7" font-family="Helvetica,sans-Serif" font-size="10.00">WorldSaveApi</text>
</a>
</g>
</g>
<!-- Node1&#45;&gt;Node4 -->
<g id="edge3" class="edge">
<title>Node1&#45;&gt;Node4</title>
<path fill="none" stroke="#63b8ff" d="M99.33,-46.78C107.36,-37.72 116.96,-26.9 123.57,-19.44"/>
<polygon fill="#63b8ff" stroke="#63b8ff" points="97.28,-43.94 93.26,-53.75 102.51,-48.59 97.28,-43.94"/>
</g>
<!-- Node2 -->
<g id="node2" class="node">
<title>Node2</title>
<g id="a_node2"><a xlink:href="interfaceWorkshopCatalogue.html" target="_top" xlink:title=" ">
<polygon fill="white" stroke="#666666" points="136.5,-129 32.5,-129 32.5,-110 136.5,-110 136.5,-129"/>
<text text-anchor="middle" x="84.5" y="-117" font-family="Helvetica,sans-Serif" font-size="10.00">WorkshopCatalogue</text>
</a>
</g>
</g>
<!-- Node2&#45;&gt;Node1 -->
<g id="edge1" class="edge">
<title>Node2&#45;&gt;Node1</title>
<path fill="none" stroke="#63b8ff" d="M84.5,-98.93C84.5,-90.53 84.5,-81.13 84.5,-74.44"/>
<polygon fill="#63b8ff" stroke="#63b8ff" points="81,-98.75 84.5,-108.75 88,-98.75 81,-98.75"/>
</g>
</g>
</svg>
