<?xml version="1.0" encoding="UTF-8" standalone="no"?>
<!DOCTYPE svg PUBLIC "-//W3C//DTD SVG 1.1//EN"
 "http://www.w3.org/Graphics/SVG/1.1/DTD/svg11.dtd">
<!-- Generated by graphviz version 8.0.2 (20230410.1723)
 -->
<!-- Title: Node Pages: 1 -->
<svg width="753pt" height="1229pt"
 viewBox="0.00 0.00 753.00 1229.00" xmlns="http://www.w3.org/2000/svg" xmlns:xlink="http://www.w3.org/1999/xlink">
<g id="graph0" class="graph" transform="scale(1 1) rotate(0) translate(4 1225)">
<title>Node</title>
<!-- Node1 -->
<g id="node1" class="node">
<title>Node1</title>
<g id="a_node1"><a xlink:title=" ">
<polygon fill="#999999" stroke="#666666" points="253,-241 214,-241 214,-222 253,-222 253,-241"/>
<text text-anchor="middle" x="233.5" y="-229" font-family="Helvetica,sans-Serif" font-size="10.00">Node</text>
</a>
</g>
</g>
<!-- Node4 -->
<g id="node4" class="node">
<title>Node4</title>
<g id="a_node4"><a xlink:href="interfaceAITask.html" target="_top" xlink:title=" ">
<polygon fill="white" stroke="#666666" points="350,-869 303,-869 303,-850 350,-850 350,-869"/>
<text text-anchor="middle" x="326.5" y="-857" font-family="Helvetica,sans-Serif" font-size="10.00">AITask</text>
</a>
</g>
</g>
<!-- Node1&#45;&gt;Node4 -->
<g id="edge3" class="edge">
<title>Node1&#45;&gt;Node4</title>
<path fill="none" stroke="#63b8ff" d="M237.47,-252.01C251.84,-351.19 313.86,-779.18 324.07,-849.66"/>
<polygon fill="#63b8ff" stroke="#63b8ff" points="240.83,-251.76 235.93,-242.36 233.9,-252.76 240.83,-251.76"/>
</g>
<!-- Node26 -->
<g id="node26" class="node">
<title>Node26</title>
<g id="a_node26"><a xlink:href="interfaceDecorator.html" target="_top" xlink:title=" ">
<polygon fill="white" stroke="#666666" points="356,-426 297,-426 297,-407 356,-407 356,-426"/>
<text text-anchor="middle" x="326.5" y="-414" font-family="Helvetica,sans-Serif" font-size="10.00">Decorator</text>
</a>
</g>
</g>
<!-- Node1&#45;&gt;Node26 -->
<g id="edge25" class="edge">
<title>Node1&#45;&gt;Node26</title>
<path fill="none" stroke="#63b8ff" d="M236.11,-251.99C239.79,-286.19 251.66,-355.41 289,-398.5 291.78,-401.7 295.26,-404.39 298.96,-406.64"/>
<polygon fill="#63b8ff" stroke="#63b8ff" points="239.54,-252.08 235.12,-242.45 232.57,-252.73 239.54,-252.08"/>
</g>
<!-- Node34 -->
<g id="node34" class="node">
<title>Node34</title>
<g id="a_node34"><a xlink:href="interfaceForEachChild.html" target="_top" xlink:title=" ">
<polygon fill="white" stroke="#666666" points="364,-389 289,-389 289,-370 364,-370 364,-389"/>
<text text-anchor="middle" x="326.5" y="-377" font-family="Helvetica,sans-Serif" font-size="10.00">ForEachChild</text>
</a>
</g>
</g>
<!-- Node1&#45;&gt;Node34 -->
<g id="edge33" class="edge">
<title>Node1&#45;&gt;Node34</title>
<path fill="none" stroke="#63b8ff" d="M238.32,-251.69C244.53,-279.53 259.22,-329.84 289,-361.5 292,-364.69 295.69,-367.39 299.56,-369.65"/>
<polygon fill="#63b8ff" stroke="#63b8ff" points="241.62,-251.34 236.16,-242.26 234.76,-252.76 241.62,-251.34"/>
</g>
<!-- Node35 -->
<g id="node35" class="node">
<title>Node35</title>
<g id="a_node35"><a xlink:href="interfaceOnEvent.html" target="_top" xlink:title=" ">
<polygon fill="white" stroke="#666666" points="353,-352 300,-352 300,-333 353,-333 353,-352"/>
<text text-anchor="middle" x="326.5" y="-340" font-family="Helvetica,sans-Serif" font-size="10.00">OnEvent</text>
</a>
</g>
</g>
<!-- Node1&#45;&gt;Node35 -->
<g id="edge34" class="edge">
<title>Node1&#45;&gt;Node35</title>
<path fill="none" stroke="#63b8ff" d="M242.17,-251.55C250.88,-272.09 266.81,-303.85 289,-324.5 292.31,-327.58 296.25,-330.25 300.29,-332.51"/>
<polygon fill="#63b8ff" stroke="#63b8ff" points="245.08,-250.4 238.08,-242.44 238.59,-253.02 245.08,-250.4"/>
</g>
<!-- Node37 -->
<g id="node37" class="node">
<title>Node37</title>
<g id="a_node37"><a xlink:href="interfaceParallel.html" target="_top" xlink:title=" ">
<polygon fill="white" stroke="#666666" points="351,-315 302,-315 302,-296 351,-296 351,-315"/>
<text text-anchor="middle" x="326.5" y="-303" font-family="Helvetica,sans-Serif" font-size="10.00">Parallel</text>
</a>
</g>
</g>
<!-- Node1&#45;&gt;Node37 -->
<g id="edge36" class="edge">
<title>Node1&#45;&gt;Node37</title>
<path fill="none" stroke="#63b8ff" d="M249.12,-249.45C259.4,-261.29 273.96,-276.57 289,-287.5 293.11,-290.49 297.8,-293.22 302.41,-295.61"/>
<polygon fill="#63b8ff" stroke="#63b8ff" points="251.28,-247.58 242.16,-242.2 245.93,-252.1 251.28,-247.58"/>
</g>
<!-- Node38 -->
<g id="node38" class="node">
<title>Node38</title>
<g id="a_node38"><a xlink:href="interfaceRepeater.html" target="_top" xlink:title=" ">
<polygon fill="white" stroke="#666666" points="354.5,-278 298.5,-278 298.5,-259 354.5,-259 354.5,-278"/>
<text text-anchor="middle" x="326.5" y="-266" font-family="Helvetica,sans-Serif" font-size="10.00">Repeater</text>
</a>
</g>
</g>
<!-- Node1&#45;&gt;Node38 -->
<g id="edge37" class="edge">
<title>Node1&#45;&gt;Node38</title>
<path fill="none" stroke="#63b8ff" d="M263.45,-243.27C275.58,-248.2 289.53,-253.88 301.13,-258.59"/>
<polygon fill="#63b8ff" stroke="#63b8ff" points="264.94,-239.69 254.36,-239.17 262.3,-246.18 264.94,-239.69"/>
</g>
<!-- Node39 -->
<g id="node39" class="node">
<title>Node39</title>
<g id="a_node39"><a xlink:href="interfaceRootNode.html" target="_top" xlink:title=" ">
<polygon fill="white" stroke="#666666" points="356,-241 297,-241 297,-222 356,-222 356,-241"/>
<text text-anchor="middle" x="326.5" y="-229" font-family="Helvetica,sans-Serif" font-size="10.00">RootNode</text>
</a>
</g>
</g>
<!-- Node1&#45;&gt;Node39 -->
<g id="edge38" class="edge">
<title>Node1&#45;&gt;Node39</title>
<path fill="none" stroke="#63b8ff" d="M264.06,-231.5C274.51,-231.5 286.24,-231.5 296.63,-231.5"/>
<polygon fill="#63b8ff" stroke="#63b8ff" points="264.36,-228 254.36,-231.5 264.36,-235 264.36,-228"/>
</g>
<!-- Node40 -->
<g id="node40" class="node">
<title>Node40</title>
<g id="a_node40"><a xlink:href="interfaceRunBT.html" target="_top" xlink:title=" ">
<polygon fill="white" stroke="#666666" points="349.5,-204 303.5,-204 303.5,-185 349.5,-185 349.5,-204"/>
<text text-anchor="middle" x="326.5" y="-192" font-family="Helvetica,sans-Serif" font-size="10.00">RunBT</text>
</a>
</g>
</g>
<!-- Node1&#45;&gt;Node40 -->
<g id="edge39" class="edge">
<title>Node1&#45;&gt;Node40</title>
<path fill="none" stroke="#63b8ff" d="M263.54,-219.69C276.36,-214.48 291.2,-208.45 303.14,-203.59"/>
<polygon fill="#63b8ff" stroke="#63b8ff" points="262.3,-216.82 254.36,-223.83 264.94,-223.31 262.3,-216.82"/>
</g>
<!-- Node41 -->
<g id="node41" class="node">
<title>Node41</title>
<g id="a_node41"><a xlink:href="interfaceRunOnEntity.html" target="_top" xlink:title=" ">
<polygon fill="white" stroke="#666666" points="362.5,-167 290.5,-167 290.5,-148 362.5,-148 362.5,-167"/>
<text text-anchor="middle" x="326.5" y="-155" font-family="Helvetica,sans-Serif" font-size="10.00">RunOnEntity</text>
</a>
</g>
</g>
<!-- Node1&#45;&gt;Node41 -->
<g id="edge40" class="edge">
<title>Node1&#45;&gt;Node41</title>
<path fill="none" stroke="#63b8ff" d="M249.12,-213.55C259.4,-201.71 273.96,-186.43 289,-175.5 293.11,-172.51 297.8,-169.78 302.41,-167.39"/>
<polygon fill="#63b8ff" stroke="#63b8ff" points="245.93,-210.9 242.16,-220.8 251.28,-215.42 245.93,-210.9"/>
</g>
<!-- Node42 -->
<g id="node42" class="node">
<title>Node42</title>
<g id="a_node42"><a xlink:href="interfaceRunOnce.html" target="_top" xlink:title=" ">
<polygon fill="white" stroke="#666666" points="355,-130 298,-130 298,-111 355,-111 355,-130"/>
<text text-anchor="middle" x="326.5" y="-118" font-family="Helvetica,sans-Serif" font-size="10.00">RunOnce</text>
</a>
</g>
</g>
<!-- Node1&#45;&gt;Node42 -->
<g id="edge41" class="edge">
<title>Node1&#45;&gt;Node42</title>
<path fill="none" stroke="#63b8ff" d="M242.17,-211.45C250.88,-190.91 266.81,-159.15 289,-138.5 292.31,-135.42 296.25,-132.75 300.29,-130.49"/>
<polygon fill="#63b8ff" stroke="#63b8ff" points="238.59,-209.98 238.08,-220.56 245.08,-212.6 238.59,-209.98"/>
</g>
<!-- Node43 -->
<g id="node43" class="node">
<title>Node43</title>
<g id="a_node43"><a xlink:href="interfaceSelector.html" target="_top" xlink:title=" ">
<polygon fill="white" stroke="#666666" points="353,-93 300,-93 300,-74 353,-74 353,-93"/>
<text text-anchor="middle" x="326.5" y="-81" font-family="Helvetica,sans-Serif" font-size="10.00">Selector</text>
</a>
</g>
</g>
<!-- Node1&#45;&gt;Node43 -->
<g id="edge42" class="edge">
<title>Node1&#45;&gt;Node43</title>
<path fill="none" stroke="#63b8ff" d="M238.32,-211.31C244.53,-183.47 259.22,-133.16 289,-101.5 292,-98.31 295.69,-95.61 299.56,-93.35"/>
<polygon fill="#63b8ff" stroke="#63b8ff" points="234.76,-210.24 236.16,-220.74 241.62,-211.66 234.76,-210.24"/>
</g>
<!-- Node44 -->
<g id="node44" class="node">
<title>Node44</title>
<g id="a_node44"><a xlink:href="interfaceSequence.html" target="_top" xlink:title=" ">
<polygon fill="white" stroke="#666666" points="356.5,-56 296.5,-56 296.5,-37 356.5,-37 356.5,-56"/>
<text text-anchor="middle" x="326.5" y="-44" font-family="Helvetica,sans-Serif" font-size="10.00">Sequence</text>
</a>
</g>
</g>
<!-- Node1&#45;&gt;Node44 -->
<g id="edge43" class="edge">
<title>Node1&#45;&gt;Node44</title>
<path fill="none" stroke="#63b8ff" d="M236.11,-211.01C239.79,-176.81 251.66,-107.59 289,-64.5 291.78,-61.3 295.26,-58.61 298.96,-56.36"/>
<polygon fill="#63b8ff" stroke="#63b8ff" points="232.57,-210.27 235.12,-220.55 239.54,-210.92 232.57,-210.27"/>
</g>
<!-- Node45 -->
<g id="node45" class="node">
<title>Node45</title>
<g id="a_node45"><a xlink:href="interfaceSwitch.html" target="_top" xlink:title=" ">
<polygon fill="white" stroke="#666666" points="349.5,-19 303.5,-19 303.5,0 349.5,0 349.5,-19"/>
<text text-anchor="middle" x="326.5" y="-7" font-family="Helvetica,sans-Serif" font-size="10.00">Switch</text>
</a>
</g>
</g>
<!-- Node1&#45;&gt;Node45 -->
<g id="edge44" class="edge">
<title>Node1&#45;&gt;Node45</title>
<path fill="none" stroke="#63b8ff" d="M234.62,-210.78C235.9,-170.85 244.02,-82.36 289,-27.5 292.76,-22.91 297.99,-19.4 303.31,-16.74"/>
<polygon fill="#63b8ff" stroke="#63b8ff" points="231.1,-210.66 234.4,-220.73 238.1,-210.8 231.1,-210.66"/>
</g>
<!-- Node2 -->
<g id="node2" class="node">
<title>Node2</title>
<g id="a_node2"><a xlink:href="interfaceScriptAndConfig.html" target="_top" xlink:title="Base class for classes which combine enf::Class and enf::BaseClass (in C++).">
<polygon fill="white" stroke="#666666" points="178,-241 92,-241 92,-222 178,-222 178,-241"/>
<text text-anchor="middle" x="135" y="-229" font-family="Helvetica,sans-Serif" font-size="10.00">ScriptAndConfig</text>
</a>
</g>
</g>
<!-- Node2&#45;&gt;Node1 -->
<g id="edge1" class="edge">
<title>Node2&#45;&gt;Node1</title>
<path fill="none" stroke="#63b8ff" d="M189.09,-231.5C197.9,-231.5 206.49,-231.5 213.67,-231.5"/>
<polygon fill="#63b8ff" stroke="#63b8ff" points="189.33,-228 179.33,-231.5 189.33,-235 189.33,-228"/>
</g>
<!-- Node3 -->
<g id="node3" class="node">
<title>Node3</title>
<g id="a_node3"><a xlink:href="interfaceManaged.html" target="_top" xlink:title=" ">
<polygon fill="white" stroke="#666666" points="56,-241 0,-241 0,-222 56,-222 56,-241"/>
<text text-anchor="middle" x="28" y="-229" font-family="Helvetica,sans-Serif" font-size="10.00">Managed</text>
</a>
</g>
</g>
<!-- Node3&#45;&gt;Node2 -->
<g id="edge2" class="edge">
<title>Node3&#45;&gt;Node2</title>
<path fill="none" stroke="#63b8ff" d="M67.2,-231.5C75.18,-231.5 83.64,-231.5 91.76,-231.5"/>
<polygon fill="#63b8ff" stroke="#63b8ff" points="67.31,-228 57.31,-231.5 67.31,-235 67.31,-228"/>
</g>
<!-- Node5 -->
<g id="node5" class="node">
<title>Node5</title>
<g id="a_node5"><a xlink:href="interfaceAITaskAim.html" target="_top" xlink:title=" ">
<polygon fill="white" stroke="#666666" points="505.5,-1221 441.5,-1221 441.5,-1202 505.5,-1202 505.5,-1221"/>
<text text-anchor="middle" x="473.5" y="-1209" font-family="Helvetica,sans-Serif" font-size="10.00">AITaskAim</text>
</a>
</g>
</g>
<!-- Node4&#45;&gt;Node5 -->
<g id="edge4" class="edge">
<title>Node4&#45;&gt;Node5</title>
<path fill="none" stroke="#63b8ff" d="M329.16,-880.09C334.88,-945.68 355.83,-1148 400,-1193.5 410.66,-1204.48 426.9,-1209.16 441.3,-1211.02"/>
<polygon fill="#63b8ff" stroke="#63b8ff" points="332.57,-879.87 328.25,-870.2 325.6,-880.45 332.57,-879.87"/>
</g>
<!-- Node6 -->
<g id="node6" class="node">
<title>Node6</title>
<g id="a_node6"><a xlink:href="interfaceAITaskCallMethod.html" target="_top" xlink:title=" ">
<polygon fill="white" stroke="#666666" points="521,-1184 426,-1184 426,-1165 521,-1165 521,-1184"/>
<text text-anchor="middle" x="473.5" y="-1172" font-family="Helvetica,sans-Serif" font-size="10.00">AITaskCallMethod</text>
</a>
</g>
</g>
<!-- Node4&#45;&gt;Node6 -->
<g id="edge5" class="edge">
<title>Node4&#45;&gt;Node6</title>
<path fill="none" stroke="#63b8ff" d="M329.77,-880.16C336.86,-940.85 360.49,-1116.83 400,-1156.5 406.96,-1163.48 416.17,-1167.91 425.69,-1170.67"/>
<polygon fill="#63b8ff" stroke="#63b8ff" points="333.15,-879.88 328.54,-870.34 326.2,-880.67 333.15,-879.88"/>
</g>
<!-- Node7 -->
<g id="node7" class="node">
<title>Node7</title>
<g id="a_node7"><a xlink:href="interfaceAITaskCreateGroup.html" target="_top" xlink:title=" ">
<polygon fill="white" stroke="#666666" points="524,-1147 423,-1147 423,-1128 524,-1128 524,-1147"/>
<text text-anchor="middle" x="473.5" y="-1135" font-family="Helvetica,sans-Serif" font-size="10.00">AITaskCreateGroup</text>
</a>
</g>
</g>
<!-- Node4&#45;&gt;Node7 -->
<g id="edge6" class="edge">
<title>Node4&#45;&gt;Node7</title>
<path fill="none" stroke="#63b8ff" d="M326.76,-880.26C326.2,-929.36 332,-1053.41 400,-1119.5 406.32,-1125.65 414.4,-1129.8 422.86,-1132.58"/>
<polygon fill="#63b8ff" stroke="#63b8ff" points="330.27,-880.55 327,-870.48 323.28,-880.4 330.27,-880.55"/>
</g>
<!-- Node8 -->
<g id="node8" class="node">
<title>Node8</title>
<g id="a_node8"><a xlink:href="interfaceAITaskCreatePosition.html" target="_top" xlink:title=" ">
<polygon fill="white" stroke="#666666" points="528.5,-1110 418.5,-1110 418.5,-1091 528.5,-1091 528.5,-1110"/>
<text text-anchor="middle" x="473.5" y="-1098" font-family="Helvetica,sans-Serif" font-size="10.00">AITaskCreatePosition</text>
</a>
</g>
</g>
<!-- Node4&#45;&gt;Node8 -->
<g id="edge7" class="edge">
<title>Node4&#45;&gt;Node8</title>
<path fill="none" stroke="#63b8ff" d="M327.9,-880.24C329.91,-924.28 341.04,-1027.58 400,-1082.5 405.22,-1087.36 411.54,-1090.97 418.25,-1093.63"/>
<polygon fill="#63b8ff" stroke="#63b8ff" points="331.36,-880.14 327.53,-870.26 324.37,-880.37 331.36,-880.14"/>
</g>
<!-- Node9 -->
<g id="node9" class="node">
<title>Node9</title>
<g id="a_node9"><a xlink:href="interfaceAITaskFindEntity.html" target="_top" xlink:title=" ">
<polygon fill="white" stroke="#666666" points="519,-1073 428,-1073 428,-1054 519,-1054 519,-1073"/>
<text text-anchor="middle" x="473.5" y="-1061" font-family="Helvetica,sans-Serif" font-size="10.00">AITaskFindEntity</text>
</a>
</g>
</g>
<!-- Node4&#45;&gt;Node9 -->
<g id="edge8" class="edge">
<title>Node4&#45;&gt;Node9</title>
<path fill="none" stroke="#63b8ff" d="M329.44,-880.2C334.2,-918.73 349.97,-1001.51 400,-1045.5 407.79,-1052.35 417.79,-1056.68 427.86,-1059.39"/>
<polygon fill="#63b8ff" stroke="#63b8ff" points="332.82,-879.91 328.26,-870.35 325.86,-880.68 332.82,-879.91"/>
</g>
<!-- Node10 -->
<g id="node10" class="node">
<title>Node10</title>
<g id="a_node10"><a xlink:href="interfaceAITaskGetAimingPosition.html" target="_top" xlink:title=" ">
<polygon fill="white" stroke="#666666" points="537.5,-1036 409.5,-1036 409.5,-1017 537.5,-1017 537.5,-1036"/>
<text text-anchor="middle" x="473.5" y="-1024" font-family="Helvetica,sans-Serif" font-size="10.00">AITaskGetAimingPosition</text>
</a>
</g>
</g>
<!-- Node4&#45;&gt;Node10 -->
<g id="edge9" class="edge">
<title>Node4&#45;&gt;Node10</title>
<path fill="none" stroke="#63b8ff" d="M331.56,-879.67C339.14,-911.94 358.58,-974.96 400,-1008.5 404.03,-1011.76 408.57,-1014.45 413.37,-1016.65"/>
<polygon fill="#63b8ff" stroke="#63b8ff" points="334.84,-879.3 329.29,-870.28 328.01,-880.8 334.84,-879.3"/>
</g>
<!-- Node11 -->
<g id="node11" class="node">
<title>Node11</title>
<g id="a_node11"><a xlink:href="interfaceAITaskGetControlledEntity.html" target="_top" xlink:title=" ">
<polygon fill="white" stroke="#666666" points="539,-999 408,-999 408,-980 539,-980 539,-999"/>
<text text-anchor="middle" x="473.5" y="-987" font-family="Helvetica,sans-Serif" font-size="10.00">AITaskGetControlledEntity</text>
</a>
</g>
</g>
<!-- Node4&#45;&gt;Node11 -->
<g id="edge10" class="edge">
<title>Node4&#45;&gt;Node11</title>
<path fill="none" stroke="#63b8ff" d="M334.91,-879.31C345.44,-904.65 367.15,-948.06 400,-971.5 404.54,-974.74 409.6,-977.4 414.88,-979.58"/>
<polygon fill="#63b8ff" stroke="#63b8ff" points="337.91,-878.38 330.98,-870.37 331.4,-880.96 337.91,-878.38"/>
</g>
<!-- Node12 -->
<g id="node12" class="node">
<title>Node12</title>
<g id="a_node12"><a xlink:href="interfaceAITaskGetGroupChildren.html" target="_top" xlink:title=" ">
<polygon fill="white" stroke="#666666" points="535.5,-962 411.5,-962 411.5,-943 535.5,-943 535.5,-962"/>
<text text-anchor="middle" x="473.5" y="-950" font-family="Helvetica,sans-Serif" font-size="10.00">AITaskGetGroupChildren</text>
</a>
</g>
</g>
<!-- Node4&#45;&gt;Node12 -->
<g id="edge11" class="edge">
<title>Node4&#45;&gt;Node12</title>
<path fill="none" stroke="#63b8ff" d="M340.6,-878.12C353.7,-895.33 375.38,-920.31 400,-934.5 405.62,-937.74 411.81,-940.4 418.13,-942.58"/>
<polygon fill="#63b8ff" stroke="#63b8ff" points="343,-876.47 334.25,-870.48 337.36,-880.61 343,-876.47"/>
</g>
<!-- Node13 -->
<g id="node13" class="node">
<title>Node13</title>
<g id="a_node13"><a xlink:href="interfaceAITaskGetWaypoint.html" target="_top" xlink:title=" ">
<polygon fill="white" stroke="#666666" points="525.5,-925 421.5,-925 421.5,-906 525.5,-906 525.5,-925"/>
<text text-anchor="middle" x="473.5" y="-913" font-family="Helvetica,sans-Serif" font-size="10.00">AITaskGetWaypoint</text>
</a>
</g>
</g>
<!-- Node4&#45;&gt;Node13 -->
<g id="edge12" class="edge">
<title>Node4&#45;&gt;Node13</title>
<path fill="none" stroke="#63b8ff" d="M352.87,-874.72C366.48,-882.38 383.75,-891.33 400,-897.5 408.12,-900.59 416.96,-903.29 425.58,-905.6"/>
<polygon fill="#63b8ff" stroke="#63b8ff" points="355.09,-871.38 344.68,-869.42 351.6,-877.44 355.09,-871.38"/>
</g>
<!-- Node14 -->
<g id="node14" class="node">
<title>Node14</title>
<g id="a_node14"><a xlink:href="interfaceAITaskIdle.html" target="_top" xlink:title=" ">
<polygon fill="white" stroke="#666666" points="504.5,-888 442.5,-888 442.5,-869 504.5,-869 504.5,-888"/>
<text text-anchor="middle" x="473.5" y="-876" font-family="Helvetica,sans-Serif" font-size="10.00">AITaskIdle</text>
</a>
</g>
</g>
<!-- Node4&#45;&gt;Node14 -->
<g id="edge13" class="edge">
<title>Node4&#45;&gt;Node14</title>
<path fill="none" stroke="#63b8ff" d="M361.06,-863.9C385.51,-867.1 418.37,-871.41 442.07,-874.51"/>
<polygon fill="#63b8ff" stroke="#63b8ff" points="361.85,-860.34 351.48,-862.51 360.94,-867.28 361.85,-860.34"/>
</g>
<!-- Node15 -->
<g id="node15" class="node">
<title>Node15</title>
<g id="a_node15"><a xlink:href="interfaceAITaskMove.html" target="_top" xlink:title=" ">
<polygon fill="white" stroke="#666666" points="508,-851 439,-851 439,-832 508,-832 508,-851"/>
<text text-anchor="middle" x="473.5" y="-839" font-family="Helvetica,sans-Serif" font-size="10.00">AITaskMove</text>
</a>
</g>
</g>
<!-- Node4&#45;&gt;Node15 -->
<g id="edge14" class="edge">
<title>Node4&#45;&gt;Node15</title>
<path fill="none" stroke="#63b8ff" d="M361.22,-855.31C384.47,-852.43 415.27,-848.6 438.57,-845.71"/>
<polygon fill="#63b8ff" stroke="#63b8ff" points="360.97,-851.94 351.48,-856.65 361.83,-858.89 360.97,-851.94"/>
</g>
<!-- Node18 -->
<g id="node18" class="node">
<title>Node18</title>
<g id="a_node18"><a xlink:href="interfaceAITaskRequestAction.html" target="_top" xlink:title=" ">
<polygon fill="white" stroke="#666666" points="528.5,-814 418.5,-814 418.5,-795 528.5,-795 528.5,-814"/>
<text text-anchor="middle" x="473.5" y="-802" font-family="Helvetica,sans-Serif" font-size="10.00">AITaskRequestAction</text>
</a>
</g>
</g>
<!-- Node4&#45;&gt;Node18 -->
<g id="edge17" class="edge">
<title>Node4&#45;&gt;Node18</title>
<path fill="none" stroke="#63b8ff" d="M354.47,-844.46C367.87,-837.41 384.48,-829.32 400,-823.5 409.14,-820.08 419.14,-817.03 428.73,-814.43"/>
<polygon fill="#63b8ff" stroke="#63b8ff" points="353.08,-841.77 345.92,-849.58 356.39,-847.94 353.08,-841.77"/>
</g>
<!-- Node19 -->
<g id="node19" class="node">
<title>Node19</title>
<g id="a_node19"><a xlink:href="interfaceAITaskResetPathfindingFilters.html" target="_top" xlink:title=" ">
<polygon fill="white" stroke="#666666" points="547,-777 400,-777 400,-758 547,-758 547,-777"/>
<text text-anchor="middle" x="473.5" y="-765" font-family="Helvetica,sans-Serif" font-size="10.00">AITaskResetPathfindingFilters</text>
</a>
</g>
</g>
<!-- Node4&#45;&gt;Node19 -->
<g id="edge18" class="edge">
<title>Node4&#45;&gt;Node19</title>
<path fill="none" stroke="#63b8ff" d="M340.97,-841.18C354.19,-824.5 375.84,-800.42 400,-786.5 406.43,-782.8 413.59,-779.8 420.83,-777.38"/>
<polygon fill="#63b8ff" stroke="#63b8ff" points="337.84,-838.51 334.53,-848.58 343.39,-842.77 337.84,-838.51"/>
</g>
<!-- Node20 -->
<g id="node20" class="node">
<title>Node20</title>
<g id="a_node20"><a xlink:href="interfaceAITaskReturnState.html" target="_top" xlink:title=" ">
<polygon fill="white" stroke="#666666" points="522.5,-740 424.5,-740 424.5,-721 522.5,-721 522.5,-740"/>
<text text-anchor="middle" x="473.5" y="-728" font-family="Helvetica,sans-Serif" font-size="10.00">AITaskReturnState</text>
</a>
</g>
</g>
<!-- Node4&#45;&gt;Node20 -->
<g id="edge19" class="edge">
<title>Node4&#45;&gt;Node20</title>
<path fill="none" stroke="#63b8ff" d="M335.36,-839.4C346.15,-814.48 367.93,-772.5 400,-749.5 407.19,-744.34 415.68,-740.59 424.26,-737.85"/>
<polygon fill="#63b8ff" stroke="#63b8ff" points="331.77,-837.93 331.18,-848.51 338.23,-840.61 331.77,-837.93"/>
</g>
<!-- Node21 -->
<g id="node21" class="node">
<title>Node21</title>
<g id="a_node21"><a xlink:href="interfaceAITaskScripted.html" target="_top" xlink:title=" ">
<polygon fill="white" stroke="#666666" points="515,-703 432,-703 432,-684 515,-684 515,-703"/>
<text text-anchor="middle" x="473.5" y="-691" font-family="Helvetica,sans-Serif" font-size="10.00">AITaskScripted</text>
</a>
</g>
</g>
<!-- Node4&#45;&gt;Node21 -->
<g id="edge20" class="edge">
<title>Node4&#45;&gt;Node21</title>
<path fill="none" stroke="#63b8ff" d="M331.8,-839.24C339.63,-807.35 359.34,-745.68 400,-712.5 408.97,-705.18 420.47,-700.65 431.65,-697.86"/>
<polygon fill="#63b8ff" stroke="#63b8ff" points="328.18,-838.35 329.35,-848.88 335,-839.92 328.18,-838.35"/>
</g>
<!-- Node22 -->
<g id="node22" class="node">
<title>Node22</title>
<g id="a_node22"><a xlink:href="interfaceAITaskSetMovementSpeed.html" target="_top" xlink:title=" ">
<polygon fill="white" stroke="#666666" points="540.5,-666 406.5,-666 406.5,-647 540.5,-647 540.5,-666"/>
<text text-anchor="middle" x="473.5" y="-654" font-family="Helvetica,sans-Serif" font-size="10.00">AITaskSetMovementSpeed</text>
</a>
</g>
</g>
<!-- Node4&#45;&gt;Node22 -->
<g id="edge21" class="edge">
<title>Node4&#45;&gt;Node22</title>
<path fill="none" stroke="#63b8ff" d="M329.57,-839.07C334.53,-801.05 350.64,-719.3 400,-675.5 404.18,-671.79 409.01,-668.78 414.14,-666.36"/>
<polygon fill="#63b8ff" stroke="#63b8ff" points="326,-838.44 328.32,-848.78 332.95,-839.25 326,-838.44"/>
</g>
<!-- Node23 -->
<g id="node23" class="node">
<title>Node23</title>
<g id="a_node23"><a xlink:href="interfaceAITaskSetPathfindingFilters.html" target="_top" xlink:title=" ">
<polygon fill="white" stroke="#666666" points="542,-629 405,-629 405,-610 542,-610 542,-629"/>
<text text-anchor="middle" x="473.5" y="-617" font-family="Helvetica,sans-Serif" font-size="10.00">AITaskSetPathfindingFilters</text>
</a>
</g>
</g>
<!-- Node4&#45;&gt;Node23 -->
<g id="edge22" class="edge">
<title>Node4&#45;&gt;Node23</title>
<path fill="none" stroke="#63b8ff" d="M328.01,-839C330.26,-795.46 341.8,-693.27 400,-638.5 403.89,-634.84 408.39,-631.87 413.2,-629.46"/>
<polygon fill="#63b8ff" stroke="#63b8ff" points="324.48,-838.73 327.59,-848.86 331.48,-839 324.48,-838.73"/>
</g>
<!-- Node24 -->
<g id="node24" class="node">
<title>Node24</title>
<g id="a_node24"><a xlink:href="interfaceAITaskSetVariable.html" target="_top" xlink:title=" ">
<polygon fill="white" stroke="#666666" points="522,-592 425,-592 425,-573 522,-573 522,-592"/>
<text text-anchor="middle" x="473.5" y="-580" font-family="Helvetica,sans-Serif" font-size="10.00">AITaskSetVariable</text>
</a>
</g>
</g>
<!-- Node4&#45;&gt;Node24 -->
<g id="edge23" class="edge">
<title>Node4&#45;&gt;Node24</title>
<path fill="none" stroke="#63b8ff" d="M326.87,-838.64C326.58,-789.83 332.99,-667.34 400,-601.5 406.78,-594.84 415.58,-590.44 424.71,-587.54"/>
<polygon fill="#63b8ff" stroke="#63b8ff" points="323.39,-838.69 327.06,-848.63 330.38,-838.57 323.39,-838.69"/>
</g>
<!-- Node25 -->
<g id="node25" class="node">
<title>Node25</title>
<g id="a_node25"><a xlink:href="interfaceAITaskStop.html" target="_top" xlink:title=" ">
<polygon fill="white" stroke="#666666" points="507,-555 440,-555 440,-536 507,-536 507,-555"/>
<text text-anchor="middle" x="473.5" y="-543" font-family="Helvetica,sans-Serif" font-size="10.00">AITaskStop</text>
</a>
</g>
</g>
<!-- Node4&#45;&gt;Node25 -->
<g id="edge24" class="edge">
<title>Node4&#45;&gt;Node25</title>
<path fill="none" stroke="#63b8ff" d="M329.82,-839C337.03,-778.78 360.97,-604.14 400,-564.5 410.32,-554.02 425.65,-549.09 439.56,-546.86"/>
<polygon fill="#63b8ff" stroke="#63b8ff" points="326.25,-838.4 328.57,-848.74 333.2,-839.21 326.25,-838.4"/>
</g>
<!-- Node16 -->
<g id="node16" class="node">
<title>Node16</title>
<g id="a_node16"><a xlink:href="interfaceAITaskMoveToEntity.html" target="_top" xlink:title=" ">
<polygon fill="white" stroke="#666666" points="716.5,-869 611.5,-869 611.5,-850 716.5,-850 716.5,-869"/>
<text text-anchor="middle" x="664" y="-857" font-family="Helvetica,sans-Serif" font-size="10.00">AITaskMoveToEntity</text>
</a>
</g>
</g>
<!-- Node15&#45;&gt;Node16 -->
<g id="edge15" class="edge">
<title>Node15&#45;&gt;Node16</title>
<path fill="none" stroke="#63b8ff" d="M519.12,-845.76C546.71,-848.4 582.25,-851.79 611.11,-854.54"/>
<polygon fill="#63b8ff" stroke="#63b8ff" points="519.49,-842.18 509.2,-844.72 518.82,-849.15 519.49,-842.18"/>
</g>
<!-- Node17 -->
<g id="node17" class="node">
<title>Node17</title>
<g id="a_node17"><a xlink:href="interfaceAITaskOrient.html" target="_top" xlink:title=" ">
<polygon fill="white" stroke="#666666" points="700.5,-832 627.5,-832 627.5,-813 700.5,-813 700.5,-832"/>
<text text-anchor="middle" x="664" y="-820" font-family="Helvetica,sans-Serif" font-size="10.00">AITaskOrient</text>
</a>
</g>
</g>
<!-- Node15&#45;&gt;Node17 -->
<g id="edge16" class="edge">
<title>Node15&#45;&gt;Node17</title>
<path fill="none" stroke="#63b8ff" d="M518.91,-837.02C551.87,-833.7 596.26,-829.23 627.02,-826.13"/>
<polygon fill="#63b8ff" stroke="#63b8ff" points="518.8,-833.62 509.2,-838.1 519.5,-840.58 518.8,-833.62"/>
</g>
<!-- Node27 -->
<g id="node27" class="node">
<title>Node27</title>
<g id="a_node27"><a xlink:href="interfaceDecoTestDistanceToEntity.html" target="_top" xlink:title=" ">
<polygon fill="white" stroke="#666666" points="539.5,-518 407.5,-518 407.5,-499 539.5,-499 539.5,-518"/>
<text text-anchor="middle" x="473.5" y="-506" font-family="Helvetica,sans-Serif" font-size="10.00">DecoTestDistanceToEntity</text>
</a>
</g>
</g>
<!-- Node26&#45;&gt;Node27 -->
<g id="edge26" class="edge">
<title>Node26&#45;&gt;Node27</title>
<path fill="none" stroke="#63b8ff" d="M340.66,-434.87C353.79,-451.85 375.5,-476.49 400,-490.5 405.63,-493.72 411.82,-496.37 418.15,-498.55"/>
<polygon fill="#63b8ff" stroke="#63b8ff" points="343.08,-433.26 334.28,-427.35 337.47,-437.45 343.08,-433.26"/>
</g>
<!-- Node28 -->
<g id="node28" class="node">
<title>Node28</title>
<g id="a_node28"><a xlink:href="interfaceDecoTestVariable.html" target="_top" xlink:title=" ">
<polygon fill="white" stroke="#666666" points="520,-481 427,-481 427,-462 520,-462 520,-481"/>
<text text-anchor="middle" x="473.5" y="-469" font-family="Helvetica,sans-Serif" font-size="10.00">DecoTestVariable</text>
</a>
</g>
</g>
<!-- Node26&#45;&gt;Node28 -->
<g id="edge27" class="edge">
<title>Node26&#45;&gt;Node28</title>
<path fill="none" stroke="#63b8ff" d="M353.85,-431.79C367.32,-439.13 384.18,-447.59 400,-453.5 408.5,-456.68 417.78,-459.46 426.77,-461.83"/>
<polygon fill="#63b8ff" stroke="#63b8ff" points="355.72,-428.27 345.28,-426.46 352.32,-434.39 355.72,-428.27"/>
</g>
<!-- Node29 -->
<g id="node29" class="node">
<title>Node29</title>
<g id="a_node29"><a xlink:href="interfaceDecoratorEntity.html" target="_top" xlink:title=" ">
<polygon fill="white" stroke="#666666" points="515.5,-444 431.5,-444 431.5,-425 515.5,-425 515.5,-444"/>
<text text-anchor="middle" x="473.5" y="-432" font-family="Helvetica,sans-Serif" font-size="10.00">DecoratorEntity</text>
</a>
</g>
</g>
<!-- Node26&#45;&gt;Node29 -->
<g id="edge28" class="edge">
<title>Node26&#45;&gt;Node29</title>
<path fill="none" stroke="#63b8ff" d="M367.34,-421.45C387.18,-423.91 411.16,-426.88 431.2,-429.37"/>
<polygon fill="#63b8ff" stroke="#63b8ff" points="367.85,-417.86 357.49,-420.1 366.99,-424.8 367.85,-417.86"/>
</g>
<!-- Node30 -->
<g id="node30" class="node">
<title>Node30</title>
<g id="a_node30"><a xlink:href="interfaceDecoratorPathCompletedTest.html" target="_top" xlink:title=" ">
<polygon fill="white" stroke="#666666" points="545.5,-407 401.5,-407 401.5,-388 545.5,-388 545.5,-407"/>
<text text-anchor="middle" x="473.5" y="-395" font-family="Helvetica,sans-Serif" font-size="10.00">DecoratorPathCompletedTest</text>
</a>
</g>
</g>
<!-- Node26&#45;&gt;Node30 -->
<g id="edge29" class="edge">
<title>Node26&#45;&gt;Node30</title>
<path fill="none" stroke="#63b8ff" d="M367.07,-411.32C377.68,-409.93 389.48,-408.38 401.24,-406.84"/>
<polygon fill="#63b8ff" stroke="#63b8ff" points="366.95,-407.93 357.49,-412.7 367.86,-414.87 366.95,-407.93"/>
</g>
<!-- Node31 -->
<g id="node31" class="node">
<title>Node31</title>
<g id="a_node31"><a xlink:href="interfaceDecoratorScripted.html" target="_top" xlink:title=" ">
<polygon fill="white" stroke="#666666" points="521,-370 426,-370 426,-351 521,-351 521,-370"/>
<text text-anchor="middle" x="473.5" y="-358" font-family="Helvetica,sans-Serif" font-size="10.00">DecoratorScripted</text>
</a>
</g>
</g>
<!-- Node26&#45;&gt;Node31 -->
<g id="edge30" class="edge">
<title>Node26&#45;&gt;Node31</title>
<path fill="none" stroke="#63b8ff" d="M357.8,-401.64C359.9,-400.58 361.98,-399.53 364,-398.5 380.11,-390.28 383.14,-386.06 400,-379.5 408.85,-376.06 418.55,-373.03 427.89,-370.47"/>
<polygon fill="#63b8ff" stroke="#63b8ff" points="356.41,-398.92 349.01,-406.51 359.52,-405.19 356.41,-398.92"/>
</g>
<!-- Node32 -->
<g id="node32" class="node">
<title>Node32</title>
<g id="a_node32"><a xlink:href="interfaceDecoratorTimedBase.html" target="_top" xlink:title=" ">
<polygon fill="white" stroke="#666666" points="527,-333 420,-333 420,-314 527,-314 527,-333"/>
<text text-anchor="middle" x="473.5" y="-321" font-family="Helvetica,sans-Serif" font-size="10.00">DecoratorTimedBase</text>
</a>
</g>
</g>
<!-- Node26&#45;&gt;Node32 -->
<g id="edge31" class="edge">
<title>Node26&#45;&gt;Node32</title>
<path fill="none" stroke="#63b8ff" d="M361.28,-400.75C362.22,-400.03 363.13,-399.28 364,-398.5 386.07,-378.79 376.06,-359.88 400,-342.5 405.9,-338.22 412.68,-334.9 419.69,-332.33"/>
<polygon fill="#63b8ff" stroke="#63b8ff" points="359.72,-398.24 353.22,-406.6 363.52,-404.12 359.72,-398.24"/>
</g>
<!-- Node33 -->
<g id="node33" class="node">
<title>Node33</title>
<g id="a_node33"><a xlink:href="interfaceDecoratorTimedDangerPerception.html" target="_top" xlink:title=" ">
<polygon fill="white" stroke="#666666" points="745,-333 583,-333 583,-314 745,-314 745,-333"/>
<text text-anchor="middle" x="664" y="-321" font-family="Helvetica,sans-Serif" font-size="10.00">DecoratorTimedDangerPerception</text>
</a>
</g>
</g>
<!-- Node32&#45;&gt;Node33 -->
<g id="edge32" class="edge">
<title>Node32&#45;&gt;Node33</title>
<path fill="none" stroke="#63b8ff" d="M538,-323.5C552.36,-323.5 567.79,-323.5 582.74,-323.5"/>
<polygon fill="#63b8ff" stroke="#63b8ff" points="538.26,-320 528.26,-323.5 538.26,-327 538.26,-320"/>
</g>
<!-- Node36 -->
<g id="node36" class="node">
<title>Node36</title>
<g id="a_node36"><a xlink:href="interfaceAIOnMessage.html" target="_top" xlink:title=" ">
<polygon fill="white" stroke="#666666" points="512.5,-296 434.5,-296 434.5,-277 512.5,-277 512.5,-296"/>
<text text-anchor="middle" x="473.5" y="-284" font-family="Helvetica,sans-Serif" font-size="10.00">AIOnMessage</text>
</a>
</g>
</g>
<!-- Node35&#45;&gt;Node36 -->
<g id="edge35" class="edge">
<title>Node35&#45;&gt;Node36</title>
<path fill="none" stroke="#63b8ff" d="M357.8,-327.64C359.9,-326.58 361.98,-325.53 364,-324.5 380.11,-316.28 383.14,-312.06 400,-305.5 410.91,-301.25 423.11,-297.65 434.35,-294.75"/>
<polygon fill="#63b8ff" stroke="#63b8ff" points="356.41,-324.92 349.01,-332.51 359.52,-331.19 356.41,-324.92"/>
</g>
</g>
</svg>
