<?xml version="1.0" encoding="UTF-8" standalone="no"?>
<!DOCTYPE svg PUBLIC "-//W3C//DTD SVG 1.1//EN"
 "http://www.w3.org/Graphics/SVG/1.1/DTD/svg11.dtd">
<!-- Generated by graphviz version 8.0.2 (20230410.1723)
 -->
<!-- Title: TextWidget Pages: 1 -->
<svg width="230pt" height="192pt"
 viewBox="0.00 0.00 230.00 192.00" xmlns="http://www.w3.org/2000/svg" xmlns:xlink="http://www.w3.org/1999/xlink">
<g id="graph0" class="graph" transform="scale(1 1) rotate(0) translate(4 188)">
<title>TextWidget</title>
<!-- Node1 -->
<g id="node1" class="node">
<title>Node1</title>
<g id="a_node1"><a xlink:title="Widget representing text.">
<polygon fill="#999999" stroke="#666666" points="152,-74 86,-74 86,-55 152,-55 152,-74"/>
<text text-anchor="middle" x="119" y="-62" font-family="Helvetica,sans-Serif" font-size="10.00">TextWidget</text>
</a>
</g>
</g>
<!-- Node4 -->
<g id="node4" class="node">
<title>Node4</title>
<g id="a_node4"><a xlink:href="interfaceMultilineEditBoxWidget.html" target="_top" xlink:title=" ">
<polygon fill="white" stroke="#666666" points="118,-19 0,-19 0,0 118,0 118,-19"/>
<text text-anchor="middle" x="59" y="-7" font-family="Helvetica,sans-Serif" font-size="10.00">MultilineEditBoxWidget</text>
</a>
</g>
</g>
<!-- Node1&#45;&gt;Node4 -->
<g id="edge3" class="edge">
<title>Node1&#45;&gt;Node4</title>
<path fill="none" stroke="#63b8ff" d="M100.73,-47.37C90.31,-38.16 77.65,-26.98 69.03,-19.36"/>
<polygon fill="#63b8ff" stroke="#63b8ff" points="98.01,-49.51 107.82,-53.51 102.64,-44.27 98.01,-49.51"/>
</g>
<!-- Node5 -->
<g id="node5" class="node">
<title>Node5</title>
<g id="a_node5"><a xlink:href="interfaceRichTextWidget.html" target="_top" xlink:title=" ">
<polygon fill="white" stroke="#666666" points="222,-19 136,-19 136,0 222,0 222,-19"/>
<text text-anchor="middle" x="179" y="-7" font-family="Helvetica,sans-Serif" font-size="10.00">RichTextWidget</text>
</a>
</g>
</g>
<!-- Node1&#45;&gt;Node5 -->
<g id="edge4" class="edge">
<title>Node1&#45;&gt;Node5</title>
<path fill="none" stroke="#63b8ff" d="M137.27,-47.37C147.69,-38.16 160.35,-26.98 168.97,-19.36"/>
<polygon fill="#63b8ff" stroke="#63b8ff" points="135.36,-44.27 130.18,-53.51 139.99,-49.51 135.36,-44.27"/>
</g>
<!-- Node2 -->
<g id="node2" class="node">
<title>Node2</title>
<g id="a_node2"><a xlink:href="interfaceWidget.html" target="_top" xlink:title=" ">
<polygon fill="white" stroke="#666666" points="142.5,-129 95.5,-129 95.5,-110 142.5,-110 142.5,-129"/>
<text text-anchor="middle" x="119" y="-117" font-family="Helvetica,sans-Serif" font-size="10.00">Widget</text>
</a>
</g>
</g>
<!-- Node2&#45;&gt;Node1 -->
<g id="edge1" class="edge">
<title>Node2&#45;&gt;Node1</title>
<path fill="none" stroke="#63b8ff" d="M119,-98.93C119,-90.53 119,-81.13 119,-74.44"/>
<polygon fill="#63b8ff" stroke="#63b8ff" points="115.5,-98.75 119,-108.75 122.5,-98.75 115.5,-98.75"/>
</g>
<!-- Node3 -->
<g id="node3" class="node">
<title>Node3</title>
<g id="a_node3"><a xlink:href="interfaceManaged.html" target="_top" xlink:title=" ">
<polygon fill="white" stroke="#666666" points="147,-184 91,-184 91,-165 147,-165 147,-184"/>
<text text-anchor="middle" x="119" y="-172" font-family="Helvetica,sans-Serif" font-size="10.00">Managed</text>
</a>
</g>
</g>
<!-- Node3&#45;&gt;Node2 -->
<g id="edge2" class="edge">
<title>Node3&#45;&gt;Node2</title>
<path fill="none" stroke="#63b8ff" d="M119,-153.93C119,-145.53 119,-136.13 119,-129.44"/>
<polygon fill="#63b8ff" stroke="#63b8ff" points="115.5,-153.75 119,-163.75 122.5,-153.75 115.5,-153.75"/>
</g>
</g>
</svg>
