<?xml version="1.0" encoding="UTF-8" standalone="no"?>
<!DOCTYPE svg PUBLIC "-//W3C//DTD SVG 1.1//EN"
 "http://www.w3.org/Graphics/SVG/1.1/DTD/svg11.dtd">
<!-- Generated by graphviz version 8.0.2 (20230410.1723)
 -->
<!-- Title: RplExample3ComponentColorAnimClass Pages: 1 -->
<svg width="154pt" height="203pt"
 viewBox="0.00 0.00 154.00 203.00" xmlns="http://www.w3.org/2000/svg" xmlns:xlink="http://www.w3.org/1999/xlink">
<g id="graph0" class="graph" transform="scale(1 1) rotate(0) translate(4 199)">
<title>RplExample3ComponentColorAnimClass</title>
<!-- Node1 -->
<g id="node1" class="node">
<title>Node1</title>
<g id="a_node1"><a xlink:title="[Replication example 2]">
<polygon fill="#999999" stroke="#666666" points="146,-30 0,-30 0,0 146,0 146,-30"/>
<text text-anchor="start" x="8" y="-18" font-family="Helvetica,sans-Serif" font-size="10.00">RplExample3ComponentColor</text>
<text text-anchor="middle" x="73" y="-7" font-family="Helvetica,sans-Serif" font-size="10.00">AnimClass</text>
</a>
</g>
</g>
<!-- Node2 -->
<g id="node2" class="node">
<title>Node2</title>
<g id="a_node2"><a xlink:href="interfaceScriptComponentClass.html" target="_top" xlink:title=" ">
<polygon fill="white" stroke="#666666" points="131,-85 15,-85 15,-66 131,-66 131,-85"/>
<text text-anchor="middle" x="73" y="-73" font-family="Helvetica,sans-Serif" font-size="10.00">ScriptComponentClass</text>
</a>
</g>
</g>
<!-- Node2&#45;&gt;Node1 -->
<g id="edge1" class="edge">
<title>Node2&#45;&gt;Node1</title>
<path fill="none" stroke="#63b8ff" d="M73,-55.08C73,-46.92 73,-37.6 73,-30.11"/>
<polygon fill="#63b8ff" stroke="#63b8ff" points="69.5,-54.87 73,-64.87 76.5,-54.87 69.5,-54.87"/>
</g>
<!-- Node3 -->
<g id="node3" class="node">
<title>Node3</title>
<g id="a_node3"><a xlink:href="interfaceGenericComponentClass.html" target="_top" xlink:title=" ">
<polygon fill="white" stroke="#666666" points="135.5,-140 10.5,-140 10.5,-121 135.5,-121 135.5,-140"/>
<text text-anchor="middle" x="73" y="-128" font-family="Helvetica,sans-Serif" font-size="10.00">GenericComponentClass</text>
</a>
</g>
</g>
<!-- Node3&#45;&gt;Node2 -->
<g id="edge2" class="edge">
<title>Node3&#45;&gt;Node2</title>
<path fill="none" stroke="#63b8ff" d="M73,-109.93C73,-101.53 73,-92.13 73,-85.44"/>
<polygon fill="#63b8ff" stroke="#63b8ff" points="69.5,-109.75 73,-119.75 76.5,-109.75 69.5,-109.75"/>
</g>
<!-- Node4 -->
<g id="node4" class="node">
<title>Node4</title>
<g id="a_node4"><a xlink:href="interfaceEntityComponentPrefabData.html" target="_top" xlink:title="Shared object with constant data for components from prefab.">
<polygon fill="white" stroke="#666666" points="143,-195 3,-195 3,-176 143,-176 143,-195"/>
<text text-anchor="middle" x="73" y="-183" font-family="Helvetica,sans-Serif" font-size="10.00">EntityComponentPrefabData</text>
</a>
</g>
</g>
<!-- Node4&#45;&gt;Node3 -->
<g id="edge3" class="edge">
<title>Node4&#45;&gt;Node3</title>
<path fill="none" stroke="#63b8ff" d="M73,-164.93C73,-156.53 73,-147.13 73,-140.44"/>
<polygon fill="#63b8ff" stroke="#63b8ff" points="69.5,-164.75 73,-174.75 76.5,-164.75 69.5,-164.75"/>
</g>
</g>
</svg>
