<?xml version="1.0" encoding="UTF-8" standalone="no"?>
<!DOCTYPE svg PUBLIC "-//W3C//DTD SVG 1.1//EN"
 "http://www.w3.org/Graphics/SVG/1.1/DTD/svg11.dtd">
<!-- Generated by graphviz version 8.0.2 (20230410.1723)
 -->
<!-- Title: ScriptAndConfig Pages: 1 -->
<svg width="682pt" height="878pt"
 viewBox="0.00 0.00 682.00 878.00" xmlns="http://www.w3.org/2000/svg" xmlns:xlink="http://www.w3.org/1999/xlink">
<g id="graph0" class="graph" transform="scale(1 1) rotate(0) translate(4 874)">
<title>ScriptAndConfig</title>
<!-- Node1 -->
<g id="node1" class="node">
<title>Node1</title>
<g id="a_node1"><a xlink:title="Base class for classes which combine enf::Class and enf::BaseClass (in C++).">
<polygon fill="#999999" stroke="#666666" points="178,-444 92,-444 92,-425 178,-425 178,-444"/>
<text text-anchor="middle" x="135" y="-432" font-family="Helvetica,sans-Serif" font-size="10.00">ScriptAndConfig</text>
</a>
</g>
</g>
<!-- Node3 -->
<g id="node3" class="node">
<title>Node3</title>
<g id="a_node3"><a xlink:href="interfaceAIFormationDefinition.html" target="_top" xlink:title=" ">
<polygon fill="white" stroke="#666666" points="336,-870 227,-870 227,-851 336,-851 336,-870"/>
<text text-anchor="middle" x="281.5" y="-858" font-family="Helvetica,sans-Serif" font-size="10.00">AIFormationDefinition</text>
</a>
</g>
</g>
<!-- Node1&#45;&gt;Node3 -->
<g id="edge2" class="edge">
<title>Node1&#45;&gt;Node3</title>
<path fill="none" stroke="#63b8ff" d="M137.12,-455.12C141.59,-529.83 160.58,-784.89 214,-842.5 217.58,-846.36 221.89,-849.42 226.58,-851.85"/>
<polygon fill="#63b8ff" stroke="#63b8ff" points="140.57,-455.17 136.51,-445.39 133.58,-455.57 140.57,-455.17"/>
</g>
<!-- Node4 -->
<g id="node4" class="node">
<title>Node4</title>
<g id="a_node4"><a xlink:href="interfaceAIMessage.html" target="_top" xlink:title="Base class for all messages related to AI.">
<polygon fill="white" stroke="#666666" points="314,-833 249,-833 249,-814 314,-814 314,-833"/>
<text text-anchor="middle" x="281.5" y="-821" font-family="Helvetica,sans-Serif" font-size="10.00">AIMessage</text>
</a>
</g>
</g>
<!-- Node1&#45;&gt;Node4 -->
<g id="edge3" class="edge">
<title>Node1&#45;&gt;Node4</title>
<path fill="none" stroke="#63b8ff" d="M137.61,-455.41C143.46,-525.81 165.76,-752.74 214,-804.5 222.92,-814.07 236.3,-818.94 248.73,-821.37"/>
<polygon fill="#63b8ff" stroke="#63b8ff" points="141.03,-455.18 136.74,-445.49 134.05,-455.74 141.03,-455.18"/>
</g>
<!-- Node7 -->
<g id="node7" class="node">
<title>Node7</title>
<g id="a_node7"><a xlink:href="interfaceBaseAimPoint.html" target="_top" xlink:title=" ">
<polygon fill="white" stroke="#666666" points="321,-796 242,-796 242,-777 321,-777 321,-796"/>
<text text-anchor="middle" x="281.5" y="-784" font-family="Helvetica,sans-Serif" font-size="10.00">BaseAimPoint</text>
</a>
</g>
</g>
<!-- Node1&#45;&gt;Node7 -->
<g id="edge6" class="edge">
<title>Node1&#45;&gt;Node7</title>
<path fill="none" stroke="#63b8ff" d="M138.1,-455.01C145.18,-520.28 170.23,-721.57 214,-767.5 221.29,-775.15 231.43,-779.78 241.59,-782.57"/>
<polygon fill="#63b8ff" stroke="#63b8ff" points="141.52,-455.05 136.99,-445.47 134.56,-455.79 141.52,-455.05"/>
</g>
<!-- Node8 -->
<g id="node8" class="node">
<title>Node8</title>
<g id="a_node8"><a xlink:href="interfaceBaseSystem.html" target="_top" xlink:title="To create a system, you just need to create a class which inherits from BaseSystem,...">
<polygon fill="white" stroke="#666666" points="318,-759 245,-759 245,-740 318,-740 318,-759"/>
<text text-anchor="middle" x="281.5" y="-747" font-family="Helvetica,sans-Serif" font-size="10.00">BaseSystem</text>
</a>
</g>
</g>
<!-- Node1&#45;&gt;Node8 -->
<g id="edge7" class="edge">
<title>Node1&#45;&gt;Node8</title>
<path fill="none" stroke="#63b8ff" d="M138.75,-455.04C147.23,-515.39 174.77,-690.45 214,-730.5 222.15,-738.82 233.67,-743.56 244.84,-746.25"/>
<polygon fill="#63b8ff" stroke="#63b8ff" points="142.1,-454.71 137.27,-445.28 135.17,-455.66 142.1,-454.71"/>
</g>
<!-- Node10 -->
<g id="node10" class="node">
<title>Node10</title>
<g id="a_node10"><a xlink:href="interfaceBehaviorTree.html" target="_top" xlink:title=" ">
<polygon fill="white" stroke="#666666" points="317.5,-722 245.5,-722 245.5,-703 317.5,-703 317.5,-722"/>
<text text-anchor="middle" x="281.5" y="-710" font-family="Helvetica,sans-Serif" font-size="10.00">BehaviorTree</text>
</a>
</g>
</g>
<!-- Node1&#45;&gt;Node10 -->
<g id="edge9" class="edge">
<title>Node1&#45;&gt;Node10</title>
<path fill="none" stroke="#63b8ff" d="M135.93,-455.38C136.94,-504.24 146.47,-626.93 214,-693.5 222.29,-701.68 233.85,-706.39 245.01,-709.08"/>
<polygon fill="#63b8ff" stroke="#63b8ff" points="139.42,-455.35 135.83,-445.38 132.42,-455.41 139.42,-455.35"/>
</g>
<!-- Node11 -->
<g id="node11" class="node">
<title>Node11</title>
<g id="a_node11"><a xlink:href="interfaceCinematicTrackBase.html" target="_top" xlink:title=" ">
<polygon fill="white" stroke="#666666" points="335,-685 228,-685 228,-666 335,-666 335,-685"/>
<text text-anchor="middle" x="281.5" y="-673" font-family="Helvetica,sans-Serif" font-size="10.00">CinematicTrackBase</text>
</a>
</g>
</g>
<!-- Node1&#45;&gt;Node11 -->
<g id="edge10" class="edge">
<title>Node1&#45;&gt;Node11</title>
<path fill="none" stroke="#63b8ff" d="M137.14,-455.03C140.67,-498.64 155.15,-601.05 214,-656.5 218.02,-660.29 222.74,-663.33 227.79,-665.77"/>
<polygon fill="#63b8ff" stroke="#63b8ff" points="140.57,-454.89 136.39,-445.15 133.58,-455.37 140.57,-454.89"/>
</g>
<!-- Node12 -->
<g id="node12" class="node">
<title>Node12</title>
<g id="a_node12"><a xlink:href="interfaceCinematicTrackModifier.html" target="_top" xlink:title=" ">
<polygon fill="white" stroke="#666666" points="340.5,-648 222.5,-648 222.5,-629 340.5,-629 340.5,-648"/>
<text text-anchor="middle" x="281.5" y="-636" font-family="Helvetica,sans-Serif" font-size="10.00">CinematicTrackModifier</text>
</a>
</g>
</g>
<!-- Node1&#45;&gt;Node12 -->
<g id="edge11" class="edge">
<title>Node1&#45;&gt;Node12</title>
<path fill="none" stroke="#63b8ff" d="M138.78,-454.97C145.04,-493.08 163.86,-575.07 214,-619.5 218.13,-623.16 222.93,-626.12 228.02,-628.51"/>
<polygon fill="#63b8ff" stroke="#63b8ff" points="142.11,-454.6 137.16,-445.24 135.19,-455.65 142.11,-454.6"/>
</g>
<!-- Node14 -->
<g id="node14" class="node">
<title>Node14</title>
<g id="a_node14"><a xlink:href="interfaceInputMappingKeyData.html" target="_top" xlink:title="Base class for input mapping key custom data config.">
<polygon fill="white" stroke="#666666" points="337.5,-611 225.5,-611 225.5,-592 337.5,-592 337.5,-611"/>
<text text-anchor="middle" x="281.5" y="-599" font-family="Helvetica,sans-Serif" font-size="10.00">InputMappingKeyData</text>
</a>
</g>
</g>
<!-- Node1&#45;&gt;Node14 -->
<g id="edge13" class="edge">
<title>Node1&#45;&gt;Node14</title>
<path fill="none" stroke="#63b8ff" d="M141.01,-454.39C150.07,-486.25 172.23,-548.58 214,-582.5 218.57,-586.21 223.82,-589.19 229.33,-591.6"/>
<polygon fill="#63b8ff" stroke="#63b8ff" points="144.23,-453.89 138.25,-445.14 137.47,-455.71 144.23,-453.89"/>
</g>
<!-- Node15 -->
<g id="node15" class="node">
<title>Node15</title>
<g id="a_node15"><a xlink:href="interfaceModuleGameSettings.html" target="_top" xlink:title="By inheriting of this class you define a settings module.">
<polygon fill="white" stroke="#666666" points="336.5,-574 226.5,-574 226.5,-555 336.5,-555 336.5,-574"/>
<text text-anchor="middle" x="281.5" y="-562" font-family="Helvetica,sans-Serif" font-size="10.00">ModuleGameSettings</text>
</a>
</g>
</g>
<!-- Node1&#45;&gt;Node15 -->
<g id="edge14" class="edge">
<title>Node1&#45;&gt;Node15</title>
<path fill="none" stroke="#63b8ff" d="M144.56,-453.96C156.51,-478.9 180.56,-521.72 214,-545.5 219.19,-549.19 225.07,-552.16 231.15,-554.56"/>
<polygon fill="#63b8ff" stroke="#63b8ff" points="147.42,-452.81 140.05,-445.19 141.06,-455.74 147.42,-452.81"/>
</g>
<!-- Node16 -->
<g id="node16" class="node">
<title>Node16</title>
<g id="a_node16"><a xlink:href="interfaceNode.html" target="_top" xlink:title=" ">
<polygon fill="white" stroke="#666666" points="301,-537 262,-537 262,-518 301,-518 301,-537"/>
<text text-anchor="middle" x="281.5" y="-525" font-family="Helvetica,sans-Serif" font-size="10.00">Node</text>
</a>
</g>
</g>
<!-- Node1&#45;&gt;Node16 -->
<g id="edge15" class="edge">
<title>Node1&#45;&gt;Node16</title>
<path fill="none" stroke="#63b8ff" d="M150.41,-452.45C164.82,-469.26 188.46,-493.92 214,-508.5 228.91,-517.01 247.91,-521.94 261.78,-524.64"/>
<polygon fill="#63b8ff" stroke="#63b8ff" points="152.84,-450.91 143.75,-445.47 147.47,-455.39 152.84,-450.91"/>
</g>
<!-- Node59 -->
<g id="node34" class="node">
<title>Node59</title>
<g id="a_node34"><a xlink:href="interfaceNodePortsContainer.html" target="_top" xlink:title=" ">
<polygon fill="white" stroke="#666666" points="333.5,-500 229.5,-500 229.5,-481 333.5,-481 333.5,-500"/>
<text text-anchor="middle" x="281.5" y="-488" font-family="Helvetica,sans-Serif" font-size="10.00">NodePortsContainer</text>
</a>
</g>
</g>
<!-- Node1&#45;&gt;Node59 -->
<g id="edge33" class="edge">
<title>Node1&#45;&gt;Node59</title>
<path fill="none" stroke="#63b8ff" d="M164.02,-449.17C178.66,-456.48 197.02,-465.1 214,-471.5 222.76,-474.8 232.36,-477.86 241.47,-480.51"/>
<polygon fill="#63b8ff" stroke="#63b8ff" points="166.04,-445.76 155.54,-444.36 162.87,-452 166.04,-445.76"/>
</g>
<!-- Node69 -->
<g id="node37" class="node">
<title>Node69</title>
<g id="a_node37"><a xlink:href="interfacePawnEntityController.html" target="_top" xlink:title=" ">
<polygon fill="white" stroke="#666666" points="335,-463 228,-463 228,-444 335,-444 335,-463"/>
<text text-anchor="middle" x="281.5" y="-451" font-family="Helvetica,sans-Serif" font-size="10.00">PawnEntityController</text>
</a>
</g>
</g>
<!-- Node1&#45;&gt;Node69 -->
<g id="edge36" class="edge">
<title>Node1&#45;&gt;Node69</title>
<path fill="none" stroke="#63b8ff" d="M189.02,-441.47C201.64,-443.13 215.11,-444.9 227.73,-446.56"/>
<polygon fill="#63b8ff" stroke="#63b8ff" points="189.55,-437.88 179.18,-440.05 188.64,-444.82 189.55,-437.88"/>
</g>
<!-- Node70 -->
<g id="node38" class="node">
<title>Node70</title>
<g id="a_node38"><a xlink:href="interfacePointInfo.html" target="_top" xlink:title="PointInfo &#45; declare object, allows to define position (before named ComponentPositionInfo)">
<polygon fill="white" stroke="#666666" points="308.5,-426 254.5,-426 254.5,-407 308.5,-407 308.5,-426"/>
<text text-anchor="middle" x="281.5" y="-414" font-family="Helvetica,sans-Serif" font-size="10.00">PointInfo</text>
</a>
</g>
</g>
<!-- Node1&#45;&gt;Node70 -->
<g id="edge37" class="edge">
<title>Node1&#45;&gt;Node70</title>
<path fill="none" stroke="#63b8ff" d="M188.88,-427.91C211.2,-425.13 236.17,-422.02 254.4,-419.75"/>
<polygon fill="#63b8ff" stroke="#63b8ff" points="188.67,-424.54 179.18,-429.25 189.54,-431.48 188.67,-424.54"/>
</g>
<!-- Node71 -->
<g id="node39" class="node">
<title>Node71</title>
<g id="a_node39"><a xlink:href="interfaceScriptedWidgetTooltip.html" target="_top" xlink:title="Base class for custom UI tooltips.">
<polygon fill="white" stroke="#666666" points="337.5,-389 225.5,-389 225.5,-370 337.5,-370 337.5,-389"/>
<text text-anchor="middle" x="281.5" y="-377" font-family="Helvetica,sans-Serif" font-size="10.00">ScriptedWidgetTooltip</text>
</a>
</g>
</g>
<!-- Node1&#45;&gt;Node71 -->
<g id="edge38" class="edge">
<title>Node1&#45;&gt;Node71</title>
<path fill="none" stroke="#63b8ff" d="M163.98,-419.73C178.61,-412.4 196.98,-403.78 214,-397.5 222.08,-394.52 230.87,-391.79 239.34,-389.41"/>
<polygon fill="#63b8ff" stroke="#63b8ff" points="162.83,-416.9 155.51,-424.57 166.01,-423.14 162.83,-416.9"/>
</g>
<!-- Node72 -->
<g id="node40" class="node">
<title>Node72</title>
<g id="a_node40"><a xlink:href="interfaceShapePointDataScriptBase.html" target="_top" xlink:title=" ">
<polygon fill="white" stroke="#666666" points="349,-352 214,-352 214,-333 349,-333 349,-352"/>
<text text-anchor="middle" x="281.5" y="-340" font-family="Helvetica,sans-Serif" font-size="10.00">ShapePointDataScriptBase</text>
</a>
</g>
</g>
<!-- Node1&#45;&gt;Node72 -->
<g id="edge39" class="edge">
<title>Node1&#45;&gt;Node72</title>
<path fill="none" stroke="#63b8ff" d="M150.53,-416.28C164.92,-399.41 188.46,-374.84 214,-360.5 219.74,-357.28 226.08,-354.61 232.5,-352.41"/>
<polygon fill="#63b8ff" stroke="#63b8ff" points="147.2,-413.81 143.52,-423.74 152.59,-418.27 147.2,-413.81"/>
</g>
<!-- Node73 -->
<g id="node41" class="node">
<title>Node73</title>
<g id="a_node41"><a xlink:href="interfaceWeatherFogPattern.html" target="_top" xlink:title=" ">
<polygon fill="white" stroke="#666666" points="332,-315 231,-315 231,-296 332,-296 332,-315"/>
<text text-anchor="middle" x="281.5" y="-303" font-family="Helvetica,sans-Serif" font-size="10.00">WeatherFogPattern</text>
</a>
</g>
</g>
<!-- Node1&#45;&gt;Node73 -->
<g id="edge40" class="edge">
<title>Node1&#45;&gt;Node73</title>
<path fill="none" stroke="#63b8ff" d="M144.51,-414.96C156.41,-389.96 180.4,-347.05 214,-323.5 219.09,-319.93 224.86,-317.07 230.82,-314.77"/>
<polygon fill="#63b8ff" stroke="#63b8ff" points="141,-413.22 140.03,-423.77 147.37,-416.13 141,-413.22"/>
</g>
<!-- Node74 -->
<g id="node42" class="node">
<title>Node74</title>
<g id="a_node42"><a xlink:href="interfaceWeatherLightningPattern.html" target="_top" xlink:title=" ">
<polygon fill="white" stroke="#666666" points="343.5,-278 219.5,-278 219.5,-259 343.5,-259 343.5,-278"/>
<text text-anchor="middle" x="281.5" y="-266" font-family="Helvetica,sans-Serif" font-size="10.00">WeatherLightningPattern</text>
</a>
</g>
</g>
<!-- Node1&#45;&gt;Node74 -->
<g id="edge41" class="edge">
<title>Node1&#45;&gt;Node74</title>
<path fill="none" stroke="#63b8ff" d="M140.96,-414.54C149.94,-382.58 172,-320.12 214,-286.5 218.02,-283.29 222.56,-280.64 227.34,-278.47"/>
<polygon fill="#63b8ff" stroke="#63b8ff" points="137.41,-413.26 138.22,-423.82 144.17,-415.06 137.41,-413.26"/>
</g>
<!-- Node75 -->
<g id="node43" class="node">
<title>Node75</title>
<g id="a_node43"><a xlink:href="interfaceWeatherRainPattern.html" target="_top" xlink:title=" ">
<polygon fill="white" stroke="#666666" points="333.5,-241 229.5,-241 229.5,-222 333.5,-222 333.5,-241"/>
<text text-anchor="middle" x="281.5" y="-229" font-family="Helvetica,sans-Serif" font-size="10.00">WeatherRainPattern</text>
</a>
</g>
</g>
<!-- Node1&#45;&gt;Node75 -->
<g id="edge42" class="edge">
<title>Node1&#45;&gt;Node75</title>
<path fill="none" stroke="#63b8ff" d="M138.72,-413.97C144.89,-375.75 163.55,-293.58 214,-249.5 218.41,-245.64 223.57,-242.6 229.03,-240.21"/>
<polygon fill="#63b8ff" stroke="#63b8ff" points="135.13,-413.33 137.13,-423.73 142.05,-414.35 135.13,-413.33"/>
</g>
<!-- Node76 -->
<g id="node44" class="node">
<title>Node76</title>
<g id="a_node44"><a xlink:href="interfaceWeatherState.html" target="_top" xlink:title=" ">
<polygon fill="white" stroke="#666666" points="320,-204 243,-204 243,-185 320,-185 320,-204"/>
<text text-anchor="middle" x="281.5" y="-192" font-family="Helvetica,sans-Serif" font-size="10.00">WeatherState</text>
</a>
</g>
</g>
<!-- Node1&#45;&gt;Node76 -->
<g id="edge43" class="edge">
<title>Node1&#45;&gt;Node76</title>
<path fill="none" stroke="#63b8ff" d="M137.08,-413.91C140.5,-370.17 154.76,-267.53 214,-212.5 221.89,-205.17 232.45,-200.77 242.83,-198.15"/>
<polygon fill="#63b8ff" stroke="#63b8ff" points="133.52,-413.61 136.36,-423.81 140.51,-414.07 133.52,-413.61"/>
</g>
<!-- Node77 -->
<g id="node45" class="node">
<title>Node77</title>
<g id="a_node45"><a xlink:href="interfaceWeatherStateMachine.html" target="_top" xlink:title=" ">
<polygon fill="white" stroke="#666666" points="338,-167 225,-167 225,-148 338,-148 338,-167"/>
<text text-anchor="middle" x="281.5" y="-155" font-family="Helvetica,sans-Serif" font-size="10.00">WeatherStateMachine</text>
</a>
</g>
</g>
<!-- Node1&#45;&gt;Node77 -->
<g id="edge44" class="edge">
<title>Node1&#45;&gt;Node77</title>
<path fill="none" stroke="#63b8ff" d="M135.86,-413.87C136.71,-365.08 145.87,-241.74 214,-175.5 217.34,-172.25 221.21,-169.57 225.37,-167.36"/>
<polygon fill="#63b8ff" stroke="#63b8ff" points="132.36,-413.57 135.8,-423.59 139.36,-413.61 132.36,-413.57"/>
</g>
<!-- Node78 -->
<g id="node46" class="node">
<title>Node78</title>
<g id="a_node46"><a xlink:href="interfaceWeatherTransition.html" target="_top" xlink:title=" ">
<polygon fill="white" stroke="#666666" points="329,-130 234,-130 234,-111 329,-111 329,-130"/>
<text text-anchor="middle" x="281.5" y="-118" font-family="Helvetica,sans-Serif" font-size="10.00">WeatherTransition</text>
</a>
</g>
</g>
<!-- Node1&#45;&gt;Node78 -->
<g id="edge45" class="edge">
<title>Node1&#45;&gt;Node78</title>
<path fill="none" stroke="#63b8ff" d="M138.72,-413.93C147.13,-353.51 174.49,-178.27 214,-138.5 219.48,-132.98 226.46,-129.11 233.83,-126.4"/>
<polygon fill="#63b8ff" stroke="#63b8ff" points="135.14,-413.33 137.26,-423.71 142.08,-414.27 135.14,-413.33"/>
</g>
<!-- Node79 -->
<g id="node47" class="node">
<title>Node79</title>
<g id="a_node47"><a xlink:href="interfaceWeatherVariant.html" target="_top" xlink:title=" ">
<polygon fill="white" stroke="#666666" points="323.5,-93 239.5,-93 239.5,-74 323.5,-74 323.5,-93"/>
<text text-anchor="middle" x="281.5" y="-81" font-family="Helvetica,sans-Serif" font-size="10.00">WeatherVariant</text>
</a>
</g>
</g>
<!-- Node1&#45;&gt;Node79 -->
<g id="edge46" class="edge">
<title>Node1&#45;&gt;Node79</title>
<path fill="none" stroke="#63b8ff" d="M138.07,-413.97C145.08,-348.62 169.91,-147.12 214,-101.5 220.73,-94.53 229.86,-90.17 239.2,-87.47"/>
<polygon fill="#63b8ff" stroke="#63b8ff" points="134.53,-413.2 136.97,-423.51 141.49,-413.93 134.53,-413.2"/>
</g>
<!-- Node80 -->
<g id="node48" class="node">
<title>Node80</title>
<g id="a_node48"><a xlink:href="interfaceWeatherWindPattern.html" target="_top" xlink:title=" ">
<polygon fill="white" stroke="#666666" points="335,-56 228,-56 228,-37 335,-37 335,-56"/>
<text text-anchor="middle" x="281.5" y="-44" font-family="Helvetica,sans-Serif" font-size="10.00">WeatherWindPattern</text>
</a>
</g>
</g>
<!-- Node1&#45;&gt;Node80 -->
<g id="edge47" class="edge">
<title>Node1&#45;&gt;Node80</title>
<path fill="none" stroke="#63b8ff" d="M137.55,-414.03C143.25,-344.07 165.3,-116.04 214,-64.5 217.86,-60.41 222.55,-57.22 227.62,-54.73"/>
<polygon fill="#63b8ff" stroke="#63b8ff" points="133.99,-413.6 136.7,-423.84 140.97,-414.15 133.99,-413.6"/>
</g>
<!-- Node81 -->
<g id="node49" class="node">
<title>Node81</title>
<g id="a_node49"><a xlink:href="interfaceWorldController.html" target="_top" xlink:title=" ">
<polygon fill="white" stroke="#666666" points="323,-19 240,-19 240,0 323,0 323,-19"/>
<text text-anchor="middle" x="281.5" y="-7" font-family="Helvetica,sans-Serif" font-size="10.00">WorldController</text>
</a>
</g>
</g>
<!-- Node1&#45;&gt;Node81 -->
<g id="edge48" class="edge">
<title>Node1&#45;&gt;Node81</title>
<path fill="none" stroke="#63b8ff" d="M137.13,-413.93C141.63,-339.41 160.7,-84.96 214,-27.5 220.75,-20.22 230.12,-15.77 239.69,-13.08"/>
<polygon fill="#63b8ff" stroke="#63b8ff" points="133.59,-413.45 136.51,-423.64 140.58,-413.85 133.59,-413.45"/>
</g>
<!-- Node2 -->
<g id="node2" class="node">
<title>Node2</title>
<g id="a_node2"><a xlink:href="interfaceManaged.html" target="_top" xlink:title=" ">
<polygon fill="white" stroke="#666666" points="56,-444 0,-444 0,-425 56,-425 56,-444"/>
<text text-anchor="middle" x="28" y="-432" font-family="Helvetica,sans-Serif" font-size="10.00">Managed</text>
</a>
</g>
</g>
<!-- Node2&#45;&gt;Node1 -->
<g id="edge1" class="edge">
<title>Node2&#45;&gt;Node1</title>
<path fill="none" stroke="#63b8ff" d="M67.2,-434.5C75.18,-434.5 83.64,-434.5 91.76,-434.5"/>
<polygon fill="#63b8ff" stroke="#63b8ff" points="67.31,-431 57.31,-434.5 67.31,-438 67.31,-431"/>
</g>
<!-- Node5 -->
<g id="node5" class="node">
<title>Node5</title>
<g id="a_node5"><a xlink:href="interfaceAIDangerEvent.html" target="_top" xlink:title="Event which gets broadcasted from danger&#45;causing places to AI.">
<polygon fill="white" stroke="#666666" points="496.5,-870 416.5,-870 416.5,-851 496.5,-851 496.5,-870"/>
<text text-anchor="middle" x="456.5" y="-858" font-family="Helvetica,sans-Serif" font-size="10.00">AIDangerEvent</text>
</a>
</g>
</g>
<!-- Node4&#45;&gt;Node5 -->
<g id="edge4" class="edge">
<title>Node4&#45;&gt;Node5</title>
<path fill="none" stroke="#63b8ff" d="M324.83,-832.55C352.67,-838.51 388.85,-846.24 416.07,-852.07"/>
<polygon fill="#63b8ff" stroke="#63b8ff" points="325.74,-828.96 315.23,-830.29 324.28,-835.8 325.74,-828.96"/>
</g>
<!-- Node6 -->
<g id="node6" class="node">
<title>Node6</title>
<g id="a_node6"><a xlink:href="interfaceAIOrder.html" target="_top" xlink:title="Specialized message to send orders between AI agents.">
<polygon fill="white" stroke="#666666" points="481.5,-833 431.5,-833 431.5,-814 481.5,-814 481.5,-833"/>
<text text-anchor="middle" x="456.5" y="-821" font-family="Helvetica,sans-Serif" font-size="10.00">AIOrder</text>
</a>
</g>
</g>
<!-- Node4&#45;&gt;Node6 -->
<g id="edge5" class="edge">
<title>Node4&#45;&gt;Node6</title>
<path fill="none" stroke="#63b8ff" d="M325.06,-823.5C358.45,-823.5 403.74,-823.5 431.22,-823.5"/>
<polygon fill="#63b8ff" stroke="#63b8ff" points="325.23,-820 315.23,-823.5 325.23,-827 325.23,-820"/>
</g>
<!-- Node9 -->
<g id="node9" class="node">
<title>Node9</title>
<g id="a_node9"><a xlink:href="interfaceSndSystem.html" target="_top" xlink:title=" ">
<polygon fill="white" stroke="#666666" points="490.5,-796 422.5,-796 422.5,-777 490.5,-777 490.5,-796"/>
<text text-anchor="middle" x="456.5" y="-784" font-family="Helvetica,sans-Serif" font-size="10.00">SndSystem</text>
</a>
</g>
</g>
<!-- Node8&#45;&gt;Node9 -->
<g id="edge8" class="edge">
<title>Node8&#45;&gt;Node9</title>
<path fill="none" stroke="#63b8ff" d="M328.78,-759.4C358.17,-765.68 395.53,-773.67 422.05,-779.35"/>
<polygon fill="#63b8ff" stroke="#63b8ff" points="329.86,-755.84 319.35,-757.17 328.39,-762.68 329.86,-755.84"/>
</g>
<!-- Node13 -->
<g id="node13" class="node">
<title>Node13</title>
<g id="a_node13"><a xlink:href="interfaceNoiseCinematicTrackModifier.html" target="_top" xlink:title=" ">
<polygon fill="white" stroke="#666666" points="528,-759 385,-759 385,-740 528,-740 528,-759"/>
<text text-anchor="middle" x="456.5" y="-747" font-family="Helvetica,sans-Serif" font-size="10.00">NoiseCinematicTrackModifier</text>
</a>
</g>
</g>
<!-- Node12&#45;&gt;Node13 -->
<g id="edge12" class="edge">
<title>Node12&#45;&gt;Node13</title>
<path fill="none" stroke="#63b8ff" d="M345.62,-653.93C346.78,-654.74 347.91,-655.6 349,-656.5 377.18,-679.81 356.81,-707.2 385,-730.5 389.49,-734.21 394.65,-737.21 400.08,-739.62"/>
<polygon fill="#63b8ff" stroke="#63b8ff" points="347.52,-650.42 337.1,-648.49 344.05,-656.49 347.52,-650.42"/>
</g>
<!-- Node17 -->
<g id="node17" class="node">
<title>Node17</title>
<g id="a_node17"><a xlink:href="interfaceAITask.html" target="_top" xlink:title=" ">
<polygon fill="#fff0f0" stroke="red" points="480,-722 433,-722 433,-703 480,-703 480,-722"/>
<text text-anchor="middle" x="456.5" y="-710" font-family="Helvetica,sans-Serif" font-size="10.00">AITask</text>
</a>
</g>
</g>
<!-- Node16&#45;&gt;Node17 -->
<g id="edge16" class="edge">
<title>Node16&#45;&gt;Node17</title>
<path fill="none" stroke="#63b8ff" d="M312.24,-528.93C325.14,-531.06 339.44,-535.7 349,-545.5 396.25,-593.98 337.73,-645.05 385,-693.5 397.39,-706.2 417.32,-710.69 432.83,-712.16"/>
<polygon fill="#63b8ff" stroke="#63b8ff" points="312.77,-525.35 302.42,-527.64 311.94,-532.3 312.77,-525.35"/>
</g>
<!-- Node39 -->
<g id="node22" class="node">
<title>Node39</title>
<g id="a_node22"><a xlink:href="interfaceDecorator.html" target="_top" xlink:title=" ">
<polygon fill="#fff0f0" stroke="red" points="486,-685 427,-685 427,-666 486,-666 486,-685"/>
<text text-anchor="middle" x="456.5" y="-673" font-family="Helvetica,sans-Serif" font-size="10.00">Decorator</text>
</a>
</g>
</g>
<!-- Node16&#45;&gt;Node39 -->
<g id="edge21" class="edge">
<title>Node16&#45;&gt;Node39</title>
<path fill="none" stroke="#63b8ff" d="M312.17,-529.31C324.93,-531.53 339.15,-536.12 349,-545.5 386.57,-581.26 347.42,-620.76 385,-656.5 396.12,-667.07 412.47,-671.89 426.63,-674.04"/>
<polygon fill="#63b8ff" stroke="#63b8ff" points="312.84,-525.74 302.47,-527.92 311.94,-532.68 312.84,-525.74"/>
</g>
<!-- Node47 -->
<g id="node23" class="node">
<title>Node47</title>
<g id="a_node23"><a xlink:href="interfaceForEachChild.html" target="_top" xlink:title=" ">
<polygon fill="white" stroke="#666666" points="494,-648 419,-648 419,-629 494,-629 494,-648"/>
<text text-anchor="middle" x="456.5" y="-636" font-family="Helvetica,sans-Serif" font-size="10.00">ForEachChild</text>
</a>
</g>
</g>
<!-- Node16&#45;&gt;Node47 -->
<g id="edge22" class="edge">
<title>Node16&#45;&gt;Node47</title>
<path fill="none" stroke="#63b8ff" d="M311.85,-530.01C324.43,-532.37 338.59,-536.89 349,-545.5 377.18,-568.81 356.81,-596.2 385,-619.5 394.48,-627.33 406.9,-631.96 418.66,-634.68"/>
<polygon fill="#63b8ff" stroke="#63b8ff" points="312.74,-526.46 302.33,-528.45 311.71,-533.38 312.74,-526.46"/>
</g>
<!-- Node48 -->
<g id="node24" class="node">
<title>Node48</title>
<g id="a_node24"><a xlink:href="interfaceOnEvent.html" target="_top" xlink:title=" ">
<polygon fill="#fff0f0" stroke="red" points="483,-611 430,-611 430,-592 483,-592 483,-611"/>
<text text-anchor="middle" x="456.5" y="-599" font-family="Helvetica,sans-Serif" font-size="10.00">OnEvent</text>
</a>
</g>
</g>
<!-- Node16&#45;&gt;Node48 -->
<g id="edge23" class="edge">
<title>Node16&#45;&gt;Node48</title>
<path fill="none" stroke="#63b8ff" d="M311.82,-531.91C323.92,-534.61 337.71,-538.86 349,-545.5 368.78,-557.13 365.22,-570.88 385,-582.5 398.66,-590.53 415.79,-595.24 429.74,-597.97"/>
<polygon fill="#63b8ff" stroke="#63b8ff" points="312.8,-528.34 302.31,-529.86 311.46,-535.21 312.8,-528.34"/>
</g>
<!-- Node50 -->
<g id="node25" class="node">
<title>Node50</title>
<g id="a_node25"><a xlink:href="interfaceParallel.html" target="_top" xlink:title=" ">
<polygon fill="white" stroke="#666666" points="481,-574 432,-574 432,-555 481,-555 481,-574"/>
<text text-anchor="middle" x="456.5" y="-562" font-family="Helvetica,sans-Serif" font-size="10.00">Parallel</text>
</a>
</g>
</g>
<!-- Node16&#45;&gt;Node50 -->
<g id="edge24" class="edge">
<title>Node16&#45;&gt;Node50</title>
<path fill="none" stroke="#63b8ff" d="M311.94,-533.8C345.73,-541.02 400.51,-552.74 431.72,-559.41"/>
<polygon fill="#63b8ff" stroke="#63b8ff" points="312.85,-530.2 302.34,-531.53 311.39,-537.04 312.85,-530.2"/>
</g>
<!-- Node51 -->
<g id="node26" class="node">
<title>Node51</title>
<g id="a_node26"><a xlink:href="interfaceRepeater.html" target="_top" xlink:title=" ">
<polygon fill="white" stroke="#666666" points="484.5,-537 428.5,-537 428.5,-518 484.5,-518 484.5,-537"/>
<text text-anchor="middle" x="456.5" y="-525" font-family="Helvetica,sans-Serif" font-size="10.00">Repeater</text>
</a>
</g>
</g>
<!-- Node16&#45;&gt;Node51 -->
<g id="edge25" class="edge">
<title>Node16&#45;&gt;Node51</title>
<path fill="none" stroke="#63b8ff" d="M311.98,-527.5C344.53,-527.5 396.51,-527.5 428.17,-527.5"/>
<polygon fill="#63b8ff" stroke="#63b8ff" points="312.34,-524 302.34,-527.5 312.34,-531 312.34,-524"/>
</g>
<!-- Node52 -->
<g id="node27" class="node">
<title>Node52</title>
<g id="a_node27"><a xlink:href="interfaceRootNode.html" target="_top" xlink:title=" ">
<polygon fill="white" stroke="#666666" points="486,-500 427,-500 427,-481 486,-481 486,-500"/>
<text text-anchor="middle" x="456.5" y="-488" font-family="Helvetica,sans-Serif" font-size="10.00">RootNode</text>
</a>
</g>
</g>
<!-- Node16&#45;&gt;Node52 -->
<g id="edge26" class="edge">
<title>Node16&#45;&gt;Node52</title>
<path fill="none" stroke="#63b8ff" d="M311.82,-521.23C343.84,-514.38 394.8,-503.48 426.64,-496.67"/>
<polygon fill="#63b8ff" stroke="#63b8ff" points="311.39,-517.96 302.34,-523.47 312.85,-524.8 311.39,-517.96"/>
</g>
<!-- Node53 -->
<g id="node28" class="node">
<title>Node53</title>
<g id="a_node28"><a xlink:href="interfaceRunBT.html" target="_top" xlink:title=" ">
<polygon fill="white" stroke="#666666" points="479.5,-463 433.5,-463 433.5,-444 479.5,-444 479.5,-463"/>
<text text-anchor="middle" x="456.5" y="-451" font-family="Helvetica,sans-Serif" font-size="10.00">RunBT</text>
</a>
</g>
</g>
<!-- Node16&#45;&gt;Node53 -->
<g id="edge27" class="edge">
<title>Node16&#45;&gt;Node53</title>
<path fill="none" stroke="#63b8ff" d="M311.83,-522.58C323.92,-519.69 337.72,-515.24 349,-508.5 368.69,-496.73 365.14,-482.99 385,-471.5 399.76,-462.96 418.56,-458.42 433.03,-456.04"/>
<polygon fill="#63b8ff" stroke="#63b8ff" points="311.37,-519.31 302.32,-524.81 312.83,-526.16 311.37,-519.31"/>
</g>
<!-- Node54 -->
<g id="node29" class="node">
<title>Node54</title>
<g id="a_node29"><a xlink:href="interfaceRunOnEntity.html" target="_top" xlink:title=" ">
<polygon fill="white" stroke="#666666" points="492.5,-426 420.5,-426 420.5,-407 492.5,-407 492.5,-426"/>
<text text-anchor="middle" x="456.5" y="-414" font-family="Helvetica,sans-Serif" font-size="10.00">RunOnEntity</text>
</a>
</g>
</g>
<!-- Node16&#45;&gt;Node54 -->
<g id="edge28" class="edge">
<title>Node16&#45;&gt;Node54</title>
<path fill="none" stroke="#63b8ff" d="M311.86,-524.5C324.45,-521.94 338.61,-517.22 349,-508.5 377.02,-484.99 356.65,-457.61 385,-434.5 394.89,-426.44 407.95,-421.94 420.14,-419.44"/>
<polygon fill="#63b8ff" stroke="#63b8ff" points="311.64,-521.15 302.34,-526.23 312.78,-528.06 311.64,-521.15"/>
</g>
<!-- Node55 -->
<g id="node30" class="node">
<title>Node55</title>
<g id="a_node30"><a xlink:href="interfaceRunOnce.html" target="_top" xlink:title=" ">
<polygon fill="white" stroke="#666666" points="485,-389 428,-389 428,-370 485,-370 485,-389"/>
<text text-anchor="middle" x="456.5" y="-377" font-family="Helvetica,sans-Serif" font-size="10.00">RunOnce</text>
</a>
</g>
</g>
<!-- Node16&#45;&gt;Node55 -->
<g id="edge29" class="edge">
<title>Node16&#45;&gt;Node55</title>
<path fill="none" stroke="#63b8ff" d="M312.2,-525.2C324.96,-522.79 339.18,-517.98 349,-508.5 386.31,-472.48 347.18,-432.99 385,-397.5 396.42,-386.78 413.32,-382.22 427.71,-380.37"/>
<polygon fill="#63b8ff" stroke="#63b8ff" points="311.88,-521.86 302.49,-526.77 312.9,-528.78 311.88,-521.86"/>
</g>
<!-- Node56 -->
<g id="node31" class="node">
<title>Node56</title>
<g id="a_node31"><a xlink:href="interfaceSelector.html" target="_top" xlink:title=" ">
<polygon fill="white" stroke="#666666" points="483,-352 430,-352 430,-333 483,-333 483,-352"/>
<text text-anchor="middle" x="456.5" y="-340" font-family="Helvetica,sans-Serif" font-size="10.00">Selector</text>
</a>
</g>
</g>
<!-- Node16&#45;&gt;Node56 -->
<g id="edge30" class="edge">
<title>Node16&#45;&gt;Node56</title>
<path fill="none" stroke="#63b8ff" d="M312.27,-525.59C325.17,-523.26 339.48,-518.41 349,-508.5 395.91,-459.69 337.4,-408.64 385,-360.5 396.63,-348.73 414.82,-344.29 429.81,-342.77"/>
<polygon fill="#63b8ff" stroke="#63b8ff" points="311.89,-522.24 302.45,-527.05 312.82,-529.18 311.89,-522.24"/>
</g>
<!-- Node57 -->
<g id="node32" class="node">
<title>Node57</title>
<g id="a_node32"><a xlink:href="interfaceSequence.html" target="_top" xlink:title=" ">
<polygon fill="white" stroke="#666666" points="486.5,-315 426.5,-315 426.5,-296 486.5,-296 486.5,-315"/>
<text text-anchor="middle" x="456.5" y="-303" font-family="Helvetica,sans-Serif" font-size="10.00">Sequence</text>
</a>
</g>
</g>
<!-- Node16&#45;&gt;Node57 -->
<g id="edge31" class="edge">
<title>Node16&#45;&gt;Node57</title>
<path fill="none" stroke="#63b8ff" d="M311.83,-525.9C324.95,-523.66 339.55,-518.8 349,-508.5 405.63,-446.78 327.51,-384.42 385,-323.5 395.49,-312.38 411.82,-307.75 426.11,-305.96"/>
<polygon fill="#63b8ff" stroke="#63b8ff" points="311.79,-522.5 302.3,-527.23 312.66,-529.45 311.79,-522.5"/>
</g>
<!-- Node58 -->
<g id="node33" class="node">
<title>Node58</title>
<g id="a_node33"><a xlink:href="interfaceSwitch.html" target="_top" xlink:title=" ">
<polygon fill="white" stroke="#666666" points="479.5,-278 433.5,-278 433.5,-259 479.5,-259 479.5,-278"/>
<text text-anchor="middle" x="456.5" y="-266" font-family="Helvetica,sans-Serif" font-size="10.00">Switch</text>
</a>
</g>
</g>
<!-- Node16&#45;&gt;Node58 -->
<g id="edge32" class="edge">
<title>Node16&#45;&gt;Node58</title>
<path fill="none" stroke="#63b8ff" d="M311.97,-526.03C325.12,-523.82 339.71,-518.95 349,-508.5 415.41,-433.79 317.54,-360.26 385,-286.5 397.11,-273.26 417.47,-269.17 433.21,-268.15"/>
<polygon fill="#63b8ff" stroke="#63b8ff" points="311.91,-522.64 302.41,-527.32 312.76,-529.58 311.91,-522.64"/>
</g>
<!-- Node18 -->
<g id="node18" class="node">
<title>Node18</title>
<g id="a_node18"><a xlink:href="interfaceAITaskAim.html" target="_top" xlink:title=" ">
<polygon fill="white" stroke="#666666" points="651,-777 587,-777 587,-758 651,-758 651,-777"/>
<text text-anchor="middle" x="619" y="-765" font-family="Helvetica,sans-Serif" font-size="10.00">AITaskAim</text>
</a>
</g>
</g>
<!-- Node17&#45;&gt;Node18 -->
<g id="edge17" class="edge">
<title>Node17&#45;&gt;Node18</title>
<path fill="none" stroke="#63b8ff" d="M490.84,-719.46C502.74,-722.35 516.13,-726.07 528,-730.5 544.76,-736.75 547.53,-741.52 564,-748.5 571.5,-751.68 579.74,-754.77 587.47,-757.51"/>
<polygon fill="#63b8ff" stroke="#63b8ff" points="491.95,-715.9 481.42,-717.05 490.37,-722.72 491.95,-715.9"/>
</g>
<!-- Node19 -->
<g id="node19" class="node">
<title>Node19</title>
<g id="a_node19"><a xlink:href="interfaceAITaskCallMethod.html" target="_top" xlink:title=" ">
<polygon fill="white" stroke="#666666" points="666.5,-740 571.5,-740 571.5,-721 666.5,-721 666.5,-740"/>
<text text-anchor="middle" x="619" y="-728" font-family="Helvetica,sans-Serif" font-size="10.00">AITaskCallMethod</text>
</a>
</g>
</g>
<!-- Node17&#45;&gt;Node19 -->
<g id="edge18" class="edge">
<title>Node17&#45;&gt;Node19</title>
<path fill="none" stroke="#63b8ff" d="M491.2,-716.28C514.42,-718.88 545.6,-722.38 571.23,-725.25"/>
<polygon fill="#63b8ff" stroke="#63b8ff" points="491.82,-712.72 481.5,-715.08 491.04,-719.67 491.82,-712.72"/>
</g>
<!-- Node20 -->
<g id="node20" class="node">
<title>Node20</title>
<g id="a_node20"><a xlink:href="interfaceAITaskCreateGroup.html" target="_top" xlink:title=" ">
<polygon fill="white" stroke="#666666" points="669.5,-703 568.5,-703 568.5,-684 669.5,-684 669.5,-703"/>
<text text-anchor="middle" x="619" y="-691" font-family="Helvetica,sans-Serif" font-size="10.00">AITaskCreateGroup</text>
</a>
</g>
</g>
<!-- Node17&#45;&gt;Node20 -->
<g id="edge19" class="edge">
<title>Node17&#45;&gt;Node20</title>
<path fill="none" stroke="#63b8ff" d="M491.13,-708.52C513.47,-705.87 543.18,-702.36 568.24,-699.39"/>
<polygon fill="#63b8ff" stroke="#63b8ff" points="491.01,-705.13 481.5,-709.78 491.84,-712.08 491.01,-705.13"/>
</g>
<!-- Node21 -->
<g id="node21" class="node">
<title>Node21</title>
<g id="a_node21"><a xlink:href="interfaceAITaskCreatePosition.html" target="_top" xlink:title=" ">
<polygon fill="white" stroke="#666666" points="674,-666 564,-666 564,-647 674,-647 674,-666"/>
<text text-anchor="middle" x="619" y="-654" font-family="Helvetica,sans-Serif" font-size="10.00">AITaskCreatePosition</text>
</a>
</g>
</g>
<!-- Node17&#45;&gt;Node21 -->
<g id="edge20" class="edge">
<title>Node17&#45;&gt;Node21</title>
<path fill="none" stroke="#63b8ff" d="M490.88,-705.12C502.78,-702.07 516.17,-698.15 528,-693.5 544.84,-686.88 547.36,-681.61 564,-674.5 570.82,-671.59 578.27,-668.84 585.41,-666.4"/>
<polygon fill="#63b8ff" stroke="#63b8ff" points="490.34,-701.9 481.46,-707.68 492,-708.7 490.34,-701.9"/>
</g>
<!-- Node60 -->
<g id="node35" class="node">
<title>Node60</title>
<g id="a_node35"><a xlink:href="interfaceBaseDecoratorTest.html" target="_top" xlink:title=" ">
<polygon fill="#fff0f0" stroke="red" points="506.5,-241 406.5,-241 406.5,-222 506.5,-222 506.5,-241"/>
<text text-anchor="middle" x="456.5" y="-229" font-family="Helvetica,sans-Serif" font-size="10.00">BaseDecoratorTest</text>
</a>
</g>
</g>
<!-- Node59&#45;&gt;Node60 -->
<g id="edge34" class="edge">
<title>Node59&#45;&gt;Node60</title>
<path fill="none" stroke="#63b8ff" d="M343,-477.01C345.17,-475.37 347.19,-473.54 349,-471.5 415.41,-396.79 317.54,-323.26 385,-249.5 390.71,-243.25 398.26,-239.05 406.3,-236.23"/>
<polygon fill="#63b8ff" stroke="#63b8ff" points="341.75,-474.27 334.98,-482.42 345.36,-480.28 341.75,-474.27"/>
</g>
<!-- Node66 -->
<g id="node36" class="node">
<title>Node66</title>
<g id="a_node36"><a xlink:href="interfaceBaseSinglePortContainer.html" target="_top" xlink:title=" ">
<polygon fill="#fff0f0" stroke="red" points="519,-204 394,-204 394,-185 519,-185 519,-204"/>
<text text-anchor="middle" x="456.5" y="-192" font-family="Helvetica,sans-Serif" font-size="10.00">BaseSinglePortContainer</text>
</a>
</g>
</g>
<!-- Node59&#45;&gt;Node66 -->
<g id="edge35" class="edge">
<title>Node59&#45;&gt;Node66</title>
<path fill="none" stroke="#63b8ff" d="M342.93,-477.15C345.13,-475.48 347.17,-473.6 349,-471.5 425.22,-383.77 307.54,-299.14 385,-212.5 387.86,-209.3 391.21,-206.63 394.86,-204.41"/>
<polygon fill="#63b8ff" stroke="#63b8ff" points="341.52,-474.52 334.76,-482.67 345.13,-480.52 341.52,-474.52"/>
</g>
</g>
</svg>
