<?xml version="1.0" encoding="UTF-8" standalone="no"?>
<!DOCTYPE svg PUBLIC "-//W3C//DTD SVG 1.1//EN"
 "http://www.w3.org/Graphics/SVG/1.1/DTD/svg11.dtd">
<!-- Generated by graphviz version 8.0.2 (20230410.1723)
 -->
<!-- Title: Editor_Entities_Order Pages: 1 -->
<svg width="951pt" height="306pt"
 viewBox="0.00 0.00 951.00 305.50" xmlns="http://www.w3.org/2000/svg" xmlns:xlink="http://www.w3.org/1999/xlink">
<g id="graph0" class="graph" transform="scale(1 1) rotate(0) translate(4 301.5)">
<title>Editor_Entities_Order</title>
<polygon fill="white" stroke="none" points="-4,4 -4,-301.5 947,-301.5 947,4 -4,4"/>
<g id="clust4" class="cluster">
<title>cluster_SCR_EditorManagerCore</title>
<g id="a_clust4"><a xlink:href="interfaceSCR__EditorManagerCore.html" target="_top" xlink:title="SCR_EditorManagerCore">
<polygon fill="#d9d9d9" stroke="#d9d9d9" points="328,-162 328,-289.5 546,-289.5 546,-162 328,-162"/>
<text text-anchor="middle" x="437" y="-275.9" font-family="sans-serif" font-size="12.00">SCR_EditorManagerCore</text>
</a>
</g>
</g>
<g id="clust6" class="cluster">
<title>cluster_SCR_EditorModeEntity</title>
<g id="a_clust6"><a xlink:href="interfaceSCR__EditorModeEntity.html" target="_top" xlink:title="SCR_EditorModeEntity">
<polygon fill="#d9d9d9" stroke="#d9d9d9" points="726,-85 726,-141 884,-141 884,-85 726,-85"/>
<text text-anchor="middle" x="805" y="-127.4" font-family="sans-serif" font-size="12.00">SCR_EditorModeEntity</text>
</a>
</g>
</g>
<g id="clust5" class="cluster">
<title>cluster_SCR_EditorManagerEntity</title>
<g id="a_clust5"><a xlink:href="interfaceSCR__EditorManagerEntity.html" target="_top" xlink:title="SCR_EditorManagerEntity">
<polygon fill="#d9d9d9" stroke="#d9d9d9" points="554,-8 554,-289.5 718,-289.5 718,-8 554,-8"/>
<text text-anchor="middle" x="636" y="-275.9" font-family="sans-serif" font-size="12.00">SCR_EditorManagerEntity</text>
</a>
</g>
</g>
<g id="clust3" class="cluster">
<title>cluster_SCR_BaseGameMode</title>
<g id="a_clust3"><a xlink:href="interfaceSCR__BaseGameMode.html" target="_top" xlink:title="SCR_BaseGameMode">
<polygon fill="#d9d9d9" stroke="#d9d9d9" points="160,-233.5 160,-289.5 320,-289.5 320,-233.5 160,-233.5"/>
<text text-anchor="middle" x="240" y="-275.9" font-family="sans-serif" font-size="12.00">SCR_BaseGameMode</text>
</a>
</g>
</g>
<g id="clust7" class="cluster">
<title>cluster_Legend</title>
<polygon fill="white" stroke="#7f7f7f" points="726,-233.5 726,-289.5 935,-289.5 935,-233.5 726,-233.5"/>
<text text-anchor="middle" x="830.5" y="-275.9" font-family="sans-serif" font-size="12.00">Legend</text>
</g>
<!-- label_1 -->
<g id="node1" class="node">
<title>label_1</title>
<polygon fill="white" stroke="none" points="150.5,-266 25.5,-266 25.5,-236 150.5,-236 150.5,-266"/>
<text text-anchor="middle" x="88" y="-254" font-family="sans-serif" font-size="10.00">Player joins,</text>
<text text-anchor="middle" x="88" y="-243" font-family="sans-serif" font-size="10.00">create editor manager</text>
</g>
<!-- label_2 -->
<g id="node2" class="node">
<title>label_2</title>
<polygon fill="white" stroke="none" points="157,-200 19,-200 19,-159 157,-159 157,-200"/>
<text text-anchor="middle" x="88" y="-188" font-family="sans-serif" font-size="10.00">Call custom event</text>
<text text-anchor="middle" x="88" y="-177" font-family="sans-serif" font-size="10.00">(used by the game mode</text>
<text text-anchor="middle" x="88" y="-166" font-family="sans-serif" font-size="10.00">or other systems)</text>
</g>
<!-- label_1&#45;&gt;label_2 -->
<g id="edge1" class="edge">
<title>label_1&#45;&gt;label_2</title>
<path fill="none" stroke="black" d="M88,-236.19C88,-236.19 88,-210.99 88,-210.99"/>
<polygon fill="black" stroke="black" points="91.5,-210.99 88,-200.99 84.5,-210.99 91.5,-210.99"/>
</g>
<!-- label_3 -->
<g id="node3" class="node">
<title>label_3</title>
<polygon fill="white" stroke="none" points="176,-123 0,-123 0,-82 176,-82 176,-123"/>
<text text-anchor="middle" x="88" y="-111" font-family="sans-serif" font-size="10.00">Create editor modes</text>
<text text-anchor="middle" x="88" y="-100" font-family="sans-serif" font-size="10.00">(either specific ones in the Event,</text>
<text text-anchor="middle" x="88" y="-89" font-family="sans-serif" font-size="10.00">or default ones afterwards)</text>
</g>
<!-- label_2&#45;&gt;label_3 -->
<g id="edge2" class="edge">
<title>label_2&#45;&gt;label_3</title>
<path fill="none" stroke="black" d="M88,-159.27C88,-159.27 88,-133.86 88,-133.86"/>
<polygon fill="black" stroke="black" points="91.5,-133.86 88,-123.86 84.5,-133.86 91.5,-133.86"/>
</g>
<!-- label_4 -->
<g id="node4" class="node">
<title>label_4</title>
<polygon fill="white" stroke="none" points="147,-46 29,-46 29,-5 147,-5 147,-46"/>
<text text-anchor="middle" x="88" y="-34" font-family="sans-serif" font-size="10.00">Set current mode</text>
<text text-anchor="middle" x="88" y="-23" font-family="sans-serif" font-size="10.00">and auto&#45;open editor</text>
<text text-anchor="middle" x="88" y="-12" font-family="sans-serif" font-size="10.00">(when enabled)</text>
</g>
<!-- label_3&#45;&gt;label_4 -->
<g id="edge3" class="edge">
<title>label_3&#45;&gt;label_4</title>
<path fill="none" stroke="black" d="M88,-82.27C88,-82.27 88,-56.86 88,-56.86"/>
<polygon fill="black" stroke="black" points="91.5,-56.86 88,-46.86 84.5,-56.86 91.5,-56.86"/>
</g>
<!-- Event_OnPlayerConnected -->
<g id="node5" class="node">
<title>Event_OnPlayerConnected</title>
<polygon fill="white" stroke="black" points="311.5,-260.5 168.5,-260.5 168.5,-241.5 311.5,-241.5 311.5,-260.5"/>
<text text-anchor="middle" x="240" y="-248.5" font-family="sans-serif" font-size="10.00">Event_OnPlayerConnected</text>
</g>
<!-- CreateEditorManager -->
<g id="node6" class="node">
<title>CreateEditorManager</title>
<polygon fill="white" stroke="black" points="496.5,-260.5 377.5,-260.5 377.5,-241.5 496.5,-241.5 496.5,-260.5"/>
<text text-anchor="middle" x="437" y="-248.5" font-family="sans-serif" font-size="10.00">CreateEditorManager</text>
</g>
<!-- Event_OnPlayerConnected&#45;&gt;CreateEditorManager -->
<g id="edge4" class="edge">
<title>Event_OnPlayerConnected&#45;&gt;CreateEditorManager</title>
<path fill="none" stroke="black" d="M311.96,-251C311.96,-251 366.2,-251 366.2,-251"/>
<polygon fill="black" stroke="black" points="366.2,-254.5 376.2,-251 366.2,-247.5 366.2,-254.5"/>
</g>
<!-- Manager_InitServer -->
<g id="node8" class="node">
<title>Manager_InitServer</title>
<polygon fill="white" stroke="black" points="624,-260.5 562,-260.5 562,-241.5 624,-241.5 624,-260.5"/>
<text text-anchor="middle" x="593" y="-248.5" font-family="sans-serif" font-size="10.00">InitServer</text>
</g>
<!-- CreateEditorManager&#45;&gt;Manager_InitServer -->
<g id="edge5" class="edge">
<title>CreateEditorManager&#45;&gt;Manager_InitServer</title>
<path fill="none" stroke="black" d="M496.87,-251C496.87,-251 550.86,-251 550.86,-251"/>
<polygon fill="black" stroke="black" points="550.86,-254.5 560.86,-251 550.86,-247.5 550.86,-254.5"/>
</g>
<!-- Event_OnEditorManagerCreatedServer -->
<g id="node7" class="node">
<title>Event_OnEditorManagerCreatedServer</title>
<polygon fill="white" stroke="black" points="538,-189 336,-189 336,-170 538,-170 538,-189"/>
<text text-anchor="middle" x="437" y="-177" font-family="sans-serif" font-size="10.00">Event_OnEditorManagerCreatedServer</text>
</g>
<!-- CreateEditorMode -->
<g id="node11" class="node">
<title>CreateEditorMode</title>
<polygon fill="white" stroke="black" points="687.5,-112 584.5,-112 584.5,-93 687.5,-93 687.5,-112"/>
<text text-anchor="middle" x="636" y="-100" font-family="sans-serif" font-size="10.00">CreateEditorMode</text>
</g>
<!-- Event_OnEditorManagerCreatedServer&#45;&gt;CreateEditorMode -->
<g id="edge8" class="edge">
<title>Event_OnEditorManagerCreatedServer&#45;&gt;CreateEditorMode</title>
<path fill="none" stroke="black" d="M538.15,-176C573.37,-176 604.25,-176 604.25,-176 604.25,-176 604.25,-123.41 604.25,-123.41"/>
<polygon fill="black" stroke="black" points="607.75,-123.41 604.25,-113.41 600.75,-123.41 607.75,-123.41"/>
</g>
<!-- Manager_InitServer&#45;&gt;Event_OnEditorManagerCreatedServer -->
<g id="edge7" class="edge">
<title>Manager_InitServer&#45;&gt;Event_OnEditorManagerCreatedServer</title>
<path fill="none" stroke="black" d="M573.25,-241.11C573.25,-222.03 573.25,-182 573.25,-182 573.25,-182 549.16,-182 549.16,-182"/>
<polygon fill="black" stroke="black" points="549.16,-178.5 539.16,-182 549.16,-185.5 549.16,-178.5"/>
</g>
<!-- Manager_InitOwner -->
<g id="node9" class="node">
<title>Manager_InitOwner</title>
<polygon fill="plum" stroke="black" points="703.5,-260.5 642.5,-260.5 642.5,-241.5 703.5,-241.5 703.5,-260.5"/>
<text text-anchor="middle" x="673" y="-248.5" font-family="sans-serif" font-size="10.00">InitOwner</text>
</g>
<!-- Manager_InitServer&#45;&gt;Manager_InitOwner -->
<g id="edge6" class="edge">
<title>Manager_InitServer&#45;&gt;Manager_InitOwner</title>
<path fill="none" stroke="black" d="M624.16,-251C624.16,-251 631.06,-251 631.06,-251"/>
<polygon fill="black" stroke="black" points="631.06,-254.5 641.06,-251 631.06,-247.5 631.06,-254.5"/>
</g>
<!-- Manager_PostInitServer -->
<g id="node10" class="node">
<title>Manager_PostInitServer</title>
<polygon fill="white" stroke="black" points="709.5,-35 626.5,-35 626.5,-16 709.5,-16 709.5,-35"/>
<text text-anchor="middle" x="668" y="-23" font-family="sans-serif" font-size="10.00">PostInitServer</text>
</g>
<!-- Mode_InitServer -->
<g id="node12" class="node">
<title>Mode_InitServer</title>
<polygon fill="white" stroke="black" points="796,-112 734,-112 734,-93 796,-93 796,-112"/>
<text text-anchor="middle" x="765" y="-100" font-family="sans-serif" font-size="10.00">InitServer</text>
</g>
<!-- CreateEditorMode&#45;&gt;Mode_InitServer -->
<g id="edge9" class="edge">
<title>CreateEditorMode&#45;&gt;Mode_InitServer</title>
<path fill="none" stroke="black" d="M687.73,-105C687.73,-105 722.69,-105 722.69,-105"/>
<polygon fill="black" stroke="black" points="722.69,-108.5 732.69,-105 722.69,-101.5 722.69,-108.5"/>
</g>
<!-- Mode_InitServer&#45;&gt;Manager_PostInitServer -->
<g id="edge11" class="edge">
<title>Mode_InitServer&#45;&gt;Manager_PostInitServer</title>
<path fill="none" stroke="black" d="M733.5,-99C715.11,-99 695.5,-99 695.5,-99 695.5,-99 695.5,-46.41 695.5,-46.41"/>
<polygon fill="black" stroke="black" points="699,-46.41 695.5,-36.41 692,-46.41 699,-46.41"/>
</g>
<!-- Mode_InitOwner -->
<g id="node13" class="node">
<title>Mode_InitOwner</title>
<polygon fill="plum" stroke="black" points="875.5,-112 814.5,-112 814.5,-93 875.5,-93 875.5,-112"/>
<text text-anchor="middle" x="845" y="-100" font-family="sans-serif" font-size="10.00">InitOwner</text>
</g>
<!-- Mode_InitServer&#45;&gt;Mode_InitOwner -->
<g id="edge10" class="edge">
<title>Mode_InitServer&#45;&gt;Mode_InitOwner</title>
<path fill="none" stroke="black" d="M796.16,-102C796.16,-102 803.06,-102 803.06,-102"/>
<polygon fill="black" stroke="black" points="803.06,-105.5 813.06,-102 803.06,-98.5 803.06,-105.5"/>
</g>
<!-- Legend_Client -->
<g id="node14" class="node">
<title>Legend_Client</title>
<polygon fill="plum" stroke="black" points="926.5,-260.5 841.5,-260.5 841.5,-241.5 926.5,-241.5 926.5,-260.5"/>
<text text-anchor="middle" x="884" y="-248.5" font-family="sans-serif" font-size="10.00">Client function</text>
</g>
<!-- Legend_Server -->
<g id="node15" class="node">
<title>Legend_Server</title>
<polygon fill="white" stroke="black" points="823.5,-260.5 734.5,-260.5 734.5,-241.5 823.5,-241.5 823.5,-260.5"/>
<text text-anchor="middle" x="779" y="-248.5" font-family="sans-serif" font-size="10.00">Server function</text>
</g>
</g>
</svg>
