<?xml version="1.0" encoding="UTF-8" standalone="no"?>
<!DOCTYPE svg PUBLIC "-//W3C//DTD SVG 1.1//EN"
 "http://www.w3.org/Graphics/SVG/1.1/DTD/svg11.dtd">
<!-- Generated by graphviz version 8.0.2 (20230410.1723)
 -->
<!-- Title: SCR_BaseEditorComponent_Order Pages: 1 -->
<svg width="286pt" height="778pt"
 viewBox="0.00 0.00 285.50 778.00" xmlns="http://www.w3.org/2000/svg" xmlns:xlink="http://www.w3.org/1999/xlink">
<g id="graph0" class="graph" transform="scale(1 1) rotate(0) translate(4 774)">
<title>SCR_BaseEditorComponent_Order</title>
<polygon fill="white" stroke="none" points="-4,4 -4,-774 281.5,-774 281.5,4 -4,4"/>
<g id="clust1" class="cluster">
<title>cluster_Opened</title>
<polygon fill="#f2f2f2" stroke="#f2f2f2" points="8,-126 8,-668 250,-668 250,-126 8,-126"/>
<text text-anchor="middle" x="129" y="-651.2" font-family="sans-serif" font-size="16.00" fill="#7f7f7f">Editor Open</text>
</g>
<g id="clust2" class="cluster">
<title>cluster_Mode</title>
<polygon fill="#d9d9d9" stroke="#d9d9d9" points="32,-181 32,-516 224,-516 224,-181 32,-181"/>
<text text-anchor="middle" x="128" y="-499.2" font-family="sans-serif" font-size="16.00" fill="#7f7f7f">Editor Mode Active</text>
</g>
<g id="clust3" class="cluster">
<title>cluster_Frame</title>
<polygon fill="#bfbfbf" stroke="#bfbfbf" points="56,-236 56,-384 200,-384 200,-236 56,-236"/>
<text text-anchor="middle" x="128" y="-367.2" font-family="sans-serif" font-size="16.00" fill="#7f7f7f">Each Frame</text>
</g>
<!-- EOnEditorInit -->
<g id="node1" class="node">
<title>EOnEditorInit</title>
<g id="a_node1"><a xlink:href="interfaceSCR__BaseEditorComponent.html#aaf0b194c8320c8c6fa71aa27ed832bec" target="_top" xlink:title="{ EOnEditorInit | EOnEditorInitServer }">
<polygon fill="white" stroke="black" points="110,-731.5 110,-769.5 220,-769.5 220,-731.5 110,-731.5"/>
<text text-anchor="middle" x="165" y="-757.5" font-family="sans-serif" font-size="10.00">EOnEditorInit</text>
<polyline fill="none" stroke="black" points="110,-750.5 220,-750.5"/>
<text text-anchor="middle" x="165" y="-738.5" font-family="sans-serif" font-size="10.00">EOnEditorInitServer</text>
</a>
</g>
</g>
<!-- EOnEditorRequest1 -->
<g id="node2" class="node">
<title>EOnEditorRequest1</title>
<g id="a_node2"><a xlink:href="interfaceSCR__BaseEditorComponent.html#a15e6f5bfa51517ebdbcda40a58c4bbbc" target="_top" xlink:title="EOnEditorRequest1">
<polygon fill="white" stroke="black" points="219.5,-695 110.5,-695 110.5,-676 219.5,-676 219.5,-695"/>
<text text-anchor="middle" x="165" y="-683" font-family="sans-serif" font-size="10.00">EOnEditorRequest1</text>
</a>
</g>
</g>
<!-- EOnEditorInit&#45;&gt;EOnEditorRequest1 -->
<g id="edge1" class="edge">
<title>EOnEditorInit&#45;&gt;EOnEditorRequest1</title>
<path fill="none" stroke="black" d="M165,-731.7C165,-731.7 165,-706.42 165,-706.42"/>
<polygon fill="black" stroke="black" points="168.5,-706.42 165,-696.42 161.5,-706.42 168.5,-706.42"/>
</g>
<!-- EOnEditorOpen -->
<g id="node5" class="node">
<title>EOnEditorOpen</title>
<g id="a_node5"><a xlink:href="interfaceSCR__BaseEditorComponent.html#a2eb724a9bd2937c6df3aa2c4626affc0" target="_top" xlink:title="{ EOnEditorOpen | EOnEditorOpenServer }">
<polygon fill="white" stroke="black" points="104.5,-579.5 104.5,-617.5 225.5,-617.5 225.5,-579.5 104.5,-579.5"/>
<text text-anchor="middle" x="165" y="-605.5" font-family="sans-serif" font-size="10.00">EOnEditorOpen</text>
<polyline fill="none" stroke="black" points="104.5,-598.5 225.5,-598.5"/>
<text text-anchor="middle" x="165" y="-586.5" font-family="sans-serif" font-size="10.00">EOnEditorOpenServer</text>
</a>
</g>
</g>
<!-- EOnEditorRequest1&#45;&gt;EOnEditorOpen -->
<g id="edge2" class="edge">
<title>EOnEditorRequest1&#45;&gt;EOnEditorOpen</title>
<path fill="none" stroke="black" d="M165,-675.52C165,-675.52 165,-628.18 165,-628.18"/>
<polygon fill="black" stroke="black" points="168.5,-628.18 165,-618.18 161.5,-628.18 168.5,-628.18"/>
</g>
<!-- EOnEditorClose -->
<g id="node3" class="node">
<title>EOnEditorClose</title>
<g id="a_node3"><a xlink:href="interfaceSCR__BaseEditorComponent.html#ab097e29dd37f015bc804652a20300126" target="_top" xlink:title="{ EOnEditorClose | EOnEditorCloseServer }">
<polygon fill="white" stroke="black" points="153,-75.5 153,-113.5 275,-113.5 275,-75.5 153,-75.5"/>
<text text-anchor="middle" x="214" y="-101.5" font-family="sans-serif" font-size="10.00">EOnEditorClose</text>
<polyline fill="none" stroke="black" points="153,-94.5 275,-94.5"/>
<text text-anchor="middle" x="214" y="-82.5" font-family="sans-serif" font-size="10.00">EOnEditorCloseServer</text>
</a>
</g>
</g>
<!-- EOnEditorDelete -->
<g id="node4" class="node">
<title>EOnEditorDelete</title>
<g id="a_node4"><a xlink:href="interfaceSCR__BaseEditorComponent.html#af06e80b2269a3024842a90b421914f19" target="_top" xlink:title="{ EOnEditorDelete | EOnEditorDeleteServer }">
<polygon fill="white" stroke="black" points="150.5,-0.5 150.5,-38.5 277.5,-38.5 277.5,-0.5 150.5,-0.5"/>
<text text-anchor="middle" x="214" y="-26.5" font-family="sans-serif" font-size="10.00">EOnEditorDelete</text>
<polyline fill="none" stroke="black" points="150.5,-19.5 277.5,-19.5"/>
<text text-anchor="middle" x="214" y="-7.5" font-family="sans-serif" font-size="10.00">EOnEditorDeleteServer</text>
</a>
</g>
</g>
<!-- EOnEditorClose&#45;&gt;EOnEditorDelete -->
<g id="edge11" class="edge">
<title>EOnEditorClose&#45;&gt;EOnEditorDelete</title>
<path fill="none" stroke="black" d="M214,-75.57C214,-75.57 214,-49.42 214,-49.42"/>
<polygon fill="black" stroke="black" points="217.5,-49.42 214,-39.42 210.5,-49.42 217.5,-49.42"/>
</g>
<!-- EOnEditorClose&#45;&gt;EOnEditorOpen -->
<g id="edge14" class="edge">
<title>EOnEditorClose&#45;&gt;EOnEditorOpen</title>
<path fill="none" stroke="black" d="M250.25,-113.32C250.25,-204.72 250.25,-598 250.25,-598 250.25,-598 236.13,-598 236.13,-598"/>
<polygon fill="black" stroke="black" points="236.13,-594.5 226.13,-598 236.13,-601.5 236.13,-594.5"/>
</g>
<!-- EOnEditorPreActivate -->
<g id="node6" class="node">
<title>EOnEditorPreActivate</title>
<g id="a_node6"><a xlink:href="interfaceSCR__BaseEditorComponent.html#a99219b349aec7e8c41931c4465f5fbce" target="_top" xlink:title="EOnEditorPreActivate">
<polygon fill="white" stroke="black" points="224.5,-543 105.5,-543 105.5,-524 224.5,-524 224.5,-543"/>
<text text-anchor="middle" x="165" y="-531" font-family="sans-serif" font-size="10.00">EOnEditorPreActivate</text>
</a>
</g>
</g>
<!-- EOnEditorOpen&#45;&gt;EOnEditorPreActivate -->
<g id="edge3" class="edge">
<title>EOnEditorOpen&#45;&gt;EOnEditorPreActivate</title>
<path fill="none" stroke="black" d="M165,-579.7C165,-579.7 165,-554.42 165,-554.42"/>
<polygon fill="black" stroke="black" points="168.5,-554.42 165,-544.42 161.5,-554.42 168.5,-554.42"/>
</g>
<!-- EOnEditorActivate -->
<g id="node7" class="node">
<title>EOnEditorActivate</title>
<g id="a_node7"><a xlink:href="interfaceSCR__BaseEditorComponent.html#a4ca2d8485298ce3b8a90b6f677f31835" target="_top" xlink:title="EOnEditorActivate">
<polygon fill="white" stroke="black" points="192.5,-466 89.5,-466 89.5,-447 192.5,-447 192.5,-466"/>
<text text-anchor="middle" x="141" y="-454" font-family="sans-serif" font-size="10.00">EOnEditorActivate</text>
</a>
</g>
</g>
<!-- EOnEditorPreActivate&#45;&gt;EOnEditorActivate -->
<g id="edge4" class="edge">
<title>EOnEditorPreActivate&#45;&gt;EOnEditorActivate</title>
<path fill="none" stroke="black" d="M149,-523.75C149,-523.75 149,-477.42 149,-477.42"/>
<polygon fill="black" stroke="black" points="152.5,-477.42 149,-467.42 145.5,-477.42 152.5,-477.42"/>
</g>
<!-- EOnEditorPostActivate -->
<g id="node8" class="node">
<title>EOnEditorPostActivate</title>
<g id="a_node8"><a xlink:href="interfaceSCR__BaseEditorComponent.html#a56317515b2b51c2f6c9493d3535ee0c0" target="_top" xlink:title="EOnEditorPostActivate">
<polygon fill="white" stroke="black" points="195,-411 71,-411 71,-392 195,-392 195,-411"/>
<text text-anchor="middle" x="133" y="-399" font-family="sans-serif" font-size="10.00">EOnEditorPostActivate</text>
</a>
</g>
</g>
<!-- EOnEditorActivate&#45;&gt;EOnEditorPostActivate -->
<g id="edge5" class="edge">
<title>EOnEditorActivate&#45;&gt;EOnEditorPostActivate</title>
<path fill="none" stroke="black" d="M141,-446.67C141,-446.67 141,-422.25 141,-422.25"/>
<polygon fill="black" stroke="black" points="144.5,-422.25 141,-412.25 137.5,-422.25 144.5,-422.25"/>
</g>
<!-- EOnFrame -->
<g id="node10" class="node">
<title>EOnFrame</title>
<g id="a_node10"><a xlink:href="" target="_top" xlink:title="EOnFrame">
<polygon fill="white" stroke="black" points="161.5,-334 94.5,-334 94.5,-315 161.5,-315 161.5,-334"/>
<text text-anchor="middle" x="128" y="-322" font-family="sans-serif" font-size="10.00">EOnFrame</text>
</a>
</g>
</g>
<!-- EOnEditorPostActivate&#45;&gt;EOnFrame -->
<g id="edge6" class="edge">
<title>EOnEditorPostActivate&#45;&gt;EOnFrame</title>
<path fill="none" stroke="black" d="M128,-391.75C128,-391.75 128,-345.42 128,-345.42"/>
<polygon fill="black" stroke="black" points="131.5,-345.42 128,-335.42 124.5,-345.42 131.5,-345.42"/>
</g>
<!-- EOnEditorDeactivate -->
<g id="node9" class="node">
<title>EOnEditorDeactivate</title>
<g id="a_node9"><a xlink:href="interfaceSCR__BaseEditorComponent.html#a760fd3c6993a61f487bbf41e13280e79" target="_top" xlink:title="EOnEditorDeactivate">
<polygon fill="white" stroke="black" points="200,-224 84,-224 84,-205 200,-205 200,-224"/>
<text text-anchor="middle" x="142" y="-212" font-family="sans-serif" font-size="10.00">EOnEditorDeactivate</text>
</a>
</g>
</g>
<!-- EOnEditorDeactivate&#45;&gt;EOnEditorPreActivate -->
<g id="edge13" class="edge">
<title>EOnEditorDeactivate&#45;&gt;EOnEditorPreActivate</title>
<path fill="none" stroke="black" d="M200.29,-214C203.38,-214 205.25,-214 205.25,-214 205.25,-214 205.25,-512.59 205.25,-512.59"/>
<polygon fill="black" stroke="black" points="201.75,-512.59 205.25,-522.59 208.75,-512.59 201.75,-512.59"/>
</g>
<!-- EOnEditorRequest2 -->
<g id="node12" class="node">
<title>EOnEditorRequest2</title>
<g id="a_node12"><a xlink:href="interfaceSCR__BaseEditorComponent.html#a15e6f5bfa51517ebdbcda40a58c4bbbc" target="_top" xlink:title="EOnEditorRequest2">
<polygon fill="white" stroke="black" points="210.5,-169 101.5,-169 101.5,-150 210.5,-150 210.5,-169"/>
<text text-anchor="middle" x="156" y="-157" font-family="sans-serif" font-size="10.00">EOnEditorRequest2</text>
</a>
</g>
</g>
<!-- EOnEditorDeactivate&#45;&gt;EOnEditorRequest2 -->
<g id="edge9" class="edge">
<title>EOnEditorDeactivate&#45;&gt;EOnEditorRequest2</title>
<path fill="none" stroke="black" d="M150.75,-204.67C150.75,-204.67 150.75,-180.25 150.75,-180.25"/>
<polygon fill="black" stroke="black" points="154.25,-180.25 150.75,-170.25 147.25,-180.25 154.25,-180.25"/>
</g>
<!-- EOnEditorDebug -->
<g id="node11" class="node">
<title>EOnEditorDebug</title>
<g id="a_node11"><a xlink:href="interfaceSCR__BaseEditorComponent.html#a6f9df54e39cf75cf90a930c45829f9d7" target="_top" xlink:title="EOnEditorDebug">
<polygon fill="white" stroke="black" stroke-dasharray="5,2" points="175.5,-279 80.5,-279 80.5,-260 175.5,-260 175.5,-279"/>
<text text-anchor="middle" x="128" y="-267" font-family="sans-serif" font-size="10.00">EOnEditorDebug</text>
</a>
</g>
</g>
<!-- EOnFrame&#45;&gt;EOnEditorDebug -->
<g id="edge7" class="edge">
<title>EOnFrame&#45;&gt;EOnEditorDebug</title>
<path fill="none" stroke="black" d="M139.17,-314.67C139.17,-314.67 139.17,-290.25 139.17,-290.25"/>
<polygon fill="black" stroke="black" points="142.67,-290.25 139.17,-280.25 135.67,-290.25 142.67,-290.25"/>
</g>
<!-- EOnEditorDebug&#45;&gt;EOnEditorDeactivate -->
<g id="edge8" class="edge">
<title>EOnEditorDebug&#45;&gt;EOnEditorDeactivate</title>
<path fill="none" stroke="black" d="M129.75,-259.67C129.75,-259.67 129.75,-235.25 129.75,-235.25"/>
<polygon fill="black" stroke="black" points="133.25,-235.25 129.75,-225.25 126.25,-235.25 133.25,-235.25"/>
</g>
<!-- EOnEditorDebug&#45;&gt;EOnFrame -->
<g id="edge12" class="edge">
<title>EOnEditorDebug&#45;&gt;EOnFrame</title>
<path fill="none" stroke="black" d="M116.83,-279.33C116.83,-279.33 116.83,-303.75 116.83,-303.75"/>
<polygon fill="black" stroke="black" points="113.33,-303.75 116.83,-313.75 120.33,-303.75 113.33,-303.75"/>
</g>
<!-- EOnEditorRequest2&#45;&gt;EOnEditorClose -->
<g id="edge10" class="edge">
<title>EOnEditorRequest2&#45;&gt;EOnEditorClose</title>
<path fill="none" stroke="black" d="M181.75,-149.63C181.75,-149.63 181.75,-124.38 181.75,-124.38"/>
<polygon fill="black" stroke="black" points="185.25,-124.38 181.75,-114.38 178.25,-124.38 185.25,-124.38"/>
</g>
</g>
</svg>
