<?xml version="1.0" encoding="UTF-8" standalone="no"?>
<!DOCTYPE svg PUBLIC "-//W3C//DTD SVG 1.1//EN"
 "http://www.w3.org/Graphics/SVG/1.1/DTD/svg11.dtd">
<!-- Generated by graphviz version 8.0.2 (20230410.1723)
 -->
<!-- Title: Editor_Entities Pages: 1 -->
<svg width="745pt" height="420pt"
 viewBox="0.00 0.00 745.00 420.00" xmlns="http://www.w3.org/2000/svg" xmlns:xlink="http://www.w3.org/1999/xlink">
<g id="graph0" class="graph" transform="scale(1 1) rotate(0) translate(4 416)">
<title>Editor_Entities</title>
<polygon fill="white" stroke="none" points="-4,4 -4,-416 741,-416 741,4 -4,4"/>
<g id="clust3" class="cluster">
<title>cluster_Mode_1</title>
<g id="a_clust3"><a xlink:href="interfaceSCR__EditorModeEntity.html" target="_top" xlink:title="SCR_EditorModeEntity 1">
<polygon fill="#87ceff" stroke="#87ceff" points="554,-34 554,-215 730,-215 730,-34 554,-34"/>
<text text-anchor="middle" x="642" y="-201.4" font-family="sans-serif bold" font-size="12.00">SCR_EditorModeEntity 1</text>
</a>
</g>
</g>
<g id="clust2" class="cluster">
<title>cluster_Mode_n</title>
<g id="a_clust2"><a xlink:href="interfaceSCR__EditorModeEntity.html" target="_top" xlink:title="SCR_EditorModeEntity n">
<polygon fill="#87ceff" stroke="#87ceff" points="554,-223 554,-404 730,-404 730,-223 554,-223"/>
<text text-anchor="middle" x="642" y="-390.4" font-family="sans-serif bold" font-size="12.00">SCR_EditorModeEntity n</text>
</a>
</g>
</g>
<g id="clust1" class="cluster">
<title>cluster_Manager</title>
<g id="a_clust1"><a xlink:href="interfaceSCR__EditorManagerEntity.html" target="_top" xlink:title="SCR_EditorManagerEntity">
<polygon fill="#87ceff" stroke="#87ceff" points="275,-8 275,-189 459,-189 459,-8 275,-8"/>
<text text-anchor="middle" x="367" y="-175.4" font-family="sans-serif bold" font-size="12.00">SCR_EditorManagerEntity</text>
</a>
</g>
</g>
<!-- Manager_Component_1 -->
<g id="node1" class="node">
<title>Manager_Component_1</title>
<g id="a_node1"><a xlink:href="interfaceSCR__BaseEditorComponent.html" target="_top" xlink:title="SCR_BaseEditorComponent 1">
<polygon fill="#fff68f" stroke="#fff68f" points="446,-160 288,-160 288,-124 446,-124 446,-160"/>
<text text-anchor="middle" x="367" y="-139.5" font-family="sans-serif" font-size="10.00">SCR_BaseEditorComponent 1</text>
</a>
</g>
</g>
<!-- Manager_Component_2 -->
<g id="node2" class="node">
<title>Manager_Component_2</title>
<g id="a_node2"><a xlink:href="interfaceSCR__BaseEditorComponent.html" target="_top" xlink:title="SCR_BaseEditorComponent 2">
<polygon fill="#fff68f" stroke="#fff68f" points="446,-106 288,-106 288,-70 446,-70 446,-106"/>
<text text-anchor="middle" x="367" y="-85.5" font-family="sans-serif" font-size="10.00">SCR_BaseEditorComponent 2</text>
</a>
</g>
</g>
<!-- Mode_n_Component_1 -->
<g id="node4" class="node">
<title>Mode_n_Component_1</title>
<g id="a_node4"><a xlink:href="interfaceSCR__BaseEditorComponent.html" target="_top" xlink:title="SCR_BaseEditorComponent 1">
<polygon fill="#fff68f" stroke="#fff68f" points="721,-375 563,-375 563,-339 721,-339 721,-375"/>
<text text-anchor="middle" x="642" y="-354.5" font-family="sans-serif" font-size="10.00">SCR_BaseEditorComponent 1</text>
</a>
</g>
</g>
<!-- Manager_Component_2&#45;&gt;Mode_n_Component_1 -->
<g id="edge3" class="edge">
<title>Manager_Component_2&#45;&gt;Mode_n_Component_1</title>
<path fill="none" stroke="#87ceff" d="M459,-101C484.33,-101 505,-101 505,-101 505,-101 505,-357 505,-357 505,-357 552.2,-357 552.2,-357"/>
<polygon fill="#87ceff" stroke="#87ceff" points="553.5,-353 553.5,-361 545.5,-361 545.5,-353 553.5,-353"/>
<polyline fill="none" stroke="#87ceff" points="545.5,-357 543.5,-357"/>
<text text-anchor="middle" x="506.5" y="-123.8" font-family="sans-serif" font-size="9.00" fill="#4a708b">m_ModePrefabs</text>
<text text-anchor="middle" x="506.5" y="-113.8" font-family="sans-serif" font-size="9.00" fill="#4a708b">Attribute</text>
</g>
<!-- Mode_1_Component_n -->
<g id="node9" class="node">
<title>Mode_1_Component_n</title>
<g id="a_node9"><a xlink:href="interfaceSCR__BaseEditorComponent.html" target="_top" xlink:title="SCR_BaseEditorComponent n">
<polygon fill="#fff68f" stroke="#fff68f" points="721,-78 563,-78 563,-42 721,-42 721,-78"/>
<text text-anchor="middle" x="642" y="-57.5" font-family="sans-serif" font-size="10.00">SCR_BaseEditorComponent n</text>
</a>
</g>
</g>
<!-- Manager_Component_2&#45;&gt;Mode_1_Component_n -->
<g id="edge2" class="edge">
<title>Manager_Component_2&#45;&gt;Mode_1_Component_n</title>
<path fill="none" stroke="#87ceff" d="M459,-74C487.26,-74 552.41,-74 552.41,-74"/>
<polygon fill="#87ceff" stroke="#87ceff" points="553.5,-70 553.5,-78 545.5,-78 545.5,-70 553.5,-70"/>
<polyline fill="none" stroke="#87ceff" points="545.5,-74 543.5,-74"/>
<text text-anchor="middle" x="506.5" y="-77.8" font-family="sans-serif" font-size="9.00" fill="#4a708b">m_ModePrefabs</text>
<text text-anchor="middle" x="506.5" y="-67.8" font-family="sans-serif" font-size="9.00" fill="#4a708b">Attribute</text>
</g>
<!-- Manager_Component_n -->
<g id="node3" class="node">
<title>Manager_Component_n</title>
<g id="a_node3"><a xlink:href="interfaceSCR__BaseEditorComponent.html" target="_top" xlink:title="SCR_BaseEditorComponent n">
<polygon fill="#fff68f" stroke="#fff68f" points="446,-52 288,-52 288,-16 446,-16 446,-52"/>
<text text-anchor="middle" x="367" y="-31.5" font-family="sans-serif" font-size="10.00">SCR_BaseEditorComponent n</text>
</a>
</g>
</g>
<!-- Mode_n_Component_2 -->
<g id="node5" class="node">
<title>Mode_n_Component_2</title>
<g id="a_node5"><a xlink:href="interfaceSCR__BaseEditorComponent.html" target="_top" xlink:title="SCR_BaseEditorComponent 2">
<polygon fill="#fff68f" stroke="#fff68f" points="721,-321 563,-321 563,-285 721,-285 721,-321"/>
<text text-anchor="middle" x="642" y="-300.5" font-family="sans-serif" font-size="10.00">SCR_BaseEditorComponent 2</text>
</a>
</g>
</g>
<!-- Mode_n_Component_n -->
<g id="node6" class="node">
<title>Mode_n_Component_n</title>
<g id="a_node6"><a xlink:href="interfaceSCR__BaseEditorComponent.html" target="_top" xlink:title="SCR_BaseEditorComponent n">
<polygon fill="#fff68f" stroke="#fff68f" points="721,-267 563,-267 563,-231 721,-231 721,-267"/>
<text text-anchor="middle" x="642" y="-246.5" font-family="sans-serif" font-size="10.00">SCR_BaseEditorComponent n</text>
</a>
</g>
</g>
<!-- Mode_1_Component_1 -->
<g id="node7" class="node">
<title>Mode_1_Component_1</title>
<g id="a_node7"><a xlink:href="interfaceSCR__BaseEditorComponent.html" target="_top" xlink:title="SCR_BaseEditorComponent 1">
<polygon fill="#fff68f" stroke="#fff68f" points="721,-186 563,-186 563,-150 721,-150 721,-186"/>
<text text-anchor="middle" x="642" y="-165.5" font-family="sans-serif" font-size="10.00">SCR_BaseEditorComponent 1</text>
</a>
</g>
</g>
<!-- Mode_1_Component_2 -->
<g id="node8" class="node">
<title>Mode_1_Component_2</title>
<g id="a_node8"><a xlink:href="interfaceSCR__BaseEditorComponent.html" target="_top" xlink:title="SCR_BaseEditorComponent 2">
<polygon fill="#fff68f" stroke="#fff68f" points="721,-132 563,-132 563,-96 721,-96 721,-132"/>
<text text-anchor="middle" x="642" y="-111.5" font-family="sans-serif" font-size="10.00">SCR_BaseEditorComponent 2</text>
</a>
</g>
</g>
<!-- Core -->
<g id="node10" class="node">
<title>Core</title>
<g id="a_node10"><a xlink:href="interfaceSCR__EditorManagerCore.html" target="_top" xlink:title="SCR_EditorManagerCore\nConfig">
<polygon fill="#d9d9d9" stroke="#d9d9d9" points="134,-106 0,-106 0,-70 134,-70 134,-106"/>
<text text-anchor="middle" x="67" y="-91" font-family="sans-serif" font-size="10.00">SCR_EditorManagerCore</text>
<text text-anchor="middle" x="67" y="-80" font-family="sans-serif" font-size="10.00">Config</text>
</a>
</g>
</g>
<!-- Core&#45;&gt;Manager_Component_2 -->
<g id="edge1" class="edge">
<title>Core&#45;&gt;Manager_Component_2</title>
<path fill="none" stroke="#87ceff" d="M134.33,-88C134.33,-88 230.01,-88 264.75,-88"/>
<polygon fill="#87ceff" stroke="#87ceff" points="274.5,-84 274.5,-92 266.5,-92 266.5,-84 274.5,-84"/>
<polyline fill="none" stroke="#87ceff" points="266.5,-88 264.5,-88"/>
<text text-anchor="middle" x="208.5" y="-100.8" font-family="sans-serif" font-size="9.00" fill="#4a708b">m_EditorManagerPrefab</text>
<text text-anchor="middle" x="208.5" y="-90.8" font-family="sans-serif" font-size="9.00" fill="#4a708b">Attribute</text>
</g>
</g>
</svg>
