<?xml version="1.0" encoding="UTF-8" standalone="no"?>
<!DOCTYPE svg PUBLIC "-//W3C//DTD SVG 1.1//EN"
 "http://www.w3.org/Graphics/SVG/1.1/DTD/svg11.dtd">
<!-- Generated by graphviz version 8.0.2 (20230410.1723)
 -->
<!-- Title: SCR_CampaignArmoryStorageComponentClass Pages: 1 -->
<svg width="169pt" height="467pt"
 viewBox="0.00 0.00 169.00 467.00" xmlns="http://www.w3.org/2000/svg" xmlns:xlink="http://www.w3.org/1999/xlink">
<g id="graph0" class="graph" transform="scale(1 1) rotate(0) translate(4 463)">
<title>SCR_CampaignArmoryStorageComponentClass</title>
<!-- Node1 -->
<g id="node1" class="node">
<title>Node1</title>
<g id="a_node1"><a xlink:title=" ">
<polygon fill="#999999" stroke="#666666" points="156,-30 5,-30 5,0 156,0 156,-30"/>
<text text-anchor="start" x="13" y="-18" font-family="Helvetica,sans-Serif" font-size="10.00">SCR_CampaignArmoryStorage</text>
<text text-anchor="middle" x="80.5" y="-7" font-family="Helvetica,sans-Serif" font-size="10.00">ComponentClass</text>
</a>
</g>
</g>
<!-- Node2 -->
<g id="node2" class="node">
<title>Node2</title>
<g id="a_node2"><a xlink:href="interfaceUniversalInventoryStorageComponentClass.html" target="_top" xlink:title=" ">
<polygon fill="white" stroke="#666666" points="144.5,-96 16.5,-96 16.5,-66 144.5,-66 144.5,-96"/>
<text text-anchor="start" x="24.5" y="-84" font-family="Helvetica,sans-Serif" font-size="10.00">UniversalInventoryStorage</text>
<text text-anchor="middle" x="80.5" y="-73" font-family="Helvetica,sans-Serif" font-size="10.00">ComponentClass</text>
</a>
</g>
</g>
<!-- Node2&#45;&gt;Node1 -->
<g id="edge1" class="edge">
<title>Node2&#45;&gt;Node1</title>
<path fill="none" stroke="#63b8ff" d="M80.5,-54.97C80.5,-46.55 80.5,-37.45 80.5,-30.16"/>
<polygon fill="#63b8ff" stroke="#63b8ff" points="77,-54.8 80.5,-64.8 84,-54.8 77,-54.8"/>
</g>
<!-- Node3 -->
<g id="node3" class="node">
<title>Node3</title>
<g id="a_node3"><a xlink:href="interfaceBaseUniversalInventoryStorageComponentClass.html" target="_top" xlink:title=" ">
<polygon fill="white" stroke="#666666" points="155.5,-162 5.5,-162 5.5,-132 155.5,-132 155.5,-162"/>
<text text-anchor="start" x="13.5" y="-150" font-family="Helvetica,sans-Serif" font-size="10.00">BaseUniversalInventoryStorage</text>
<text text-anchor="middle" x="80.5" y="-139" font-family="Helvetica,sans-Serif" font-size="10.00">ComponentClass</text>
</a>
</g>
</g>
<!-- Node3&#45;&gt;Node2 -->
<g id="edge2" class="edge">
<title>Node3&#45;&gt;Node2</title>
<path fill="none" stroke="#63b8ff" d="M80.5,-120.97C80.5,-112.55 80.5,-103.45 80.5,-96.16"/>
<polygon fill="#63b8ff" stroke="#63b8ff" points="77,-120.8 80.5,-130.8 84,-120.8 77,-120.8"/>
</g>
<!-- Node4 -->
<g id="node4" class="node">
<title>Node4</title>
<g id="a_node4"><a xlink:href="interfaceScriptedBaseInventoryStorageComponentClass.html" target="_top" xlink:title=" ">
<polygon fill="white" stroke="#666666" points="154,-228 7,-228 7,-198 154,-198 154,-228"/>
<text text-anchor="start" x="15" y="-216" font-family="Helvetica,sans-Serif" font-size="10.00">ScriptedBaseInventoryStorage</text>
<text text-anchor="middle" x="80.5" y="-205" font-family="Helvetica,sans-Serif" font-size="10.00">ComponentClass</text>
</a>
</g>
</g>
<!-- Node4&#45;&gt;Node3 -->
<g id="edge3" class="edge">
<title>Node4&#45;&gt;Node3</title>
<path fill="none" stroke="#63b8ff" d="M80.5,-186.97C80.5,-178.55 80.5,-169.45 80.5,-162.16"/>
<polygon fill="#63b8ff" stroke="#63b8ff" points="77,-186.8 80.5,-196.8 84,-186.8 77,-186.8"/>
</g>
<!-- Node5 -->
<g id="node5" class="node">
<title>Node5</title>
<g id="a_node5"><a xlink:href="interfaceBaseInventoryStorageComponentClass.html" target="_top" xlink:title=" ">
<polygon fill="white" stroke="#666666" points="161,-294 0,-294 0,-264 161,-264 161,-294"/>
<text text-anchor="start" x="8" y="-282" font-family="Helvetica,sans-Serif" font-size="10.00">BaseInventoryStorageComponent</text>
<text text-anchor="middle" x="80.5" y="-271" font-family="Helvetica,sans-Serif" font-size="10.00">Class</text>
</a>
</g>
</g>
<!-- Node5&#45;&gt;Node4 -->
<g id="edge4" class="edge">
<title>Node5&#45;&gt;Node4</title>
<path fill="none" stroke="#63b8ff" d="M80.5,-252.97C80.5,-244.55 80.5,-235.45 80.5,-228.16"/>
<polygon fill="#63b8ff" stroke="#63b8ff" points="77,-252.8 80.5,-262.8 84,-252.8 77,-252.8"/>
</g>
<!-- Node6 -->
<g id="node6" class="node">
<title>Node6</title>
<g id="a_node6"><a xlink:href="interfaceInventoryItemComponentClass.html" target="_top" xlink:title=" ">
<polygon fill="white" stroke="#666666" points="154.5,-349 6.5,-349 6.5,-330 154.5,-330 154.5,-349"/>
<text text-anchor="middle" x="80.5" y="-337" font-family="Helvetica,sans-Serif" font-size="10.00">InventoryItemComponentClass</text>
</a>
</g>
</g>
<!-- Node6&#45;&gt;Node5 -->
<g id="edge5" class="edge">
<title>Node6&#45;&gt;Node5</title>
<path fill="none" stroke="#63b8ff" d="M80.5,-319.08C80.5,-310.92 80.5,-301.6 80.5,-294.11"/>
<polygon fill="#63b8ff" stroke="#63b8ff" points="77,-318.87 80.5,-328.87 84,-318.87 77,-318.87"/>
</g>
<!-- Node7 -->
<g id="node7" class="node">
<title>Node7</title>
<g id="a_node7"><a xlink:href="interfaceGameComponentClass.html" target="_top" xlink:title=" ">
<polygon fill="white" stroke="#666666" points="139,-404 22,-404 22,-385 139,-385 139,-404"/>
<text text-anchor="middle" x="80.5" y="-392" font-family="Helvetica,sans-Serif" font-size="10.00">GameComponentClass</text>
</a>
</g>
</g>
<!-- Node7&#45;&gt;Node6 -->
<g id="edge6" class="edge">
<title>Node7&#45;&gt;Node6</title>
<path fill="none" stroke="#63b8ff" d="M80.5,-373.93C80.5,-365.53 80.5,-356.13 80.5,-349.44"/>
<polygon fill="#63b8ff" stroke="#63b8ff" points="77,-373.75 80.5,-383.75 84,-373.75 77,-373.75"/>
</g>
<!-- Node8 -->
<g id="node8" class="node">
<title>Node8</title>
<g id="a_node8"><a xlink:title=" ">
<polygon fill="white" stroke="#666666" points="143,-459 18,-459 18,-440 143,-440 143,-459"/>
<text text-anchor="middle" x="80.5" y="-447" font-family="Helvetica,sans-Serif" font-size="10.00">GenericComponentClass</text>
</a>
</g>
</g>
<!-- Node8&#45;&gt;Node7 -->
<g id="edge7" class="edge">
<title>Node8&#45;&gt;Node7</title>
<path fill="none" stroke="#63b8ff" d="M80.5,-428.93C80.5,-420.53 80.5,-411.13 80.5,-404.44"/>
<polygon fill="#63b8ff" stroke="#63b8ff" points="77,-428.75 80.5,-438.75 84,-428.75 77,-428.75"/>
</g>
</g>
</svg>
