<?xml version="1.0" encoding="UTF-8" standalone="no"?>
<!DOCTYPE svg PUBLIC "-//W3C//DTD SVG 1.1//EN"
 "http://www.w3.org/Graphics/SVG/1.1/DTD/svg11.dtd">
<!-- Generated by graphviz version 8.0.2 (20230410.1723)
 -->
<!-- Title: SCR_EntityCatalogEntry Pages: 1 -->
<svg width="358pt" height="148pt"
 viewBox="0.00 0.00 357.50 148.00" xmlns="http://www.w3.org/2000/svg" xmlns:xlink="http://www.w3.org/1999/xlink">
<g id="graph0" class="graph" transform="scale(1 1) rotate(0) translate(4 144)">
<title>SCR_EntityCatalogEntry</title>
<!-- Node1 -->
<g id="node1" class="node">
<title>Node1</title>
<g id="a_node1"><a xlink:title="Entity Entry within the SCR_EntityCatalog.">
<polygon fill="#999999" stroke="#666666" points="240.5,-140 116.5,-140 116.5,-121 240.5,-121 240.5,-140"/>
<text text-anchor="middle" x="178.5" y="-128" font-family="Helvetica,sans-Serif" font-size="10.00">SCR_EntityCatalogEntry</text>
</a>
</g>
</g>
<!-- Node2 -->
<g id="node2" class="node">
<title>Node2</title>
<g id="a_node2"><a xlink:href="interfaceSCR__EntityCatalogEntryNonEditable.html" target="_top" xlink:title="Entity Entry within the SCR_EntityCatalog.">
<polygon fill="white" stroke="#666666" points="249,-85 108,-85 108,-55 249,-55 249,-85"/>
<text text-anchor="start" x="116" y="-73" font-family="Helvetica,sans-Serif" font-size="10.00">SCR_EntityCatalogEntryNon</text>
<text text-anchor="middle" x="178.5" y="-62" font-family="Helvetica,sans-Serif" font-size="10.00">Editable</text>
</a>
</g>
</g>
<!-- Node1&#45;&gt;Node2 -->
<g id="edge1" class="edge">
<title>Node1&#45;&gt;Node2</title>
<path fill="none" stroke="#63b8ff" d="M178.5,-110.08C178.5,-101.92 178.5,-92.6 178.5,-85.11"/>
<polygon fill="#63b8ff" stroke="#63b8ff" points="175,-109.87 178.5,-119.87 182,-109.87 175,-109.87"/>
</g>
<!-- Node3 -->
<g id="node3" class="node">
<title>Node3</title>
<g id="a_node3"><a xlink:href="interfaceSCR__EntityCatalogEntryCustomInfo.html" target="_top" xlink:title="Entity Entry within the SCR_EntityCatalog.">
<polygon fill="white" stroke="#666666" points="173,-19 0,-19 0,0 173,0 173,-19"/>
<text text-anchor="middle" x="86.5" y="-7" font-family="Helvetica,sans-Serif" font-size="10.00">SCR_EntityCatalogEntryCustomInfo</text>
</a>
</g>
</g>
<!-- Node2&#45;&gt;Node3 -->
<g id="edge2" class="edge">
<title>Node2&#45;&gt;Node3</title>
<path fill="none" stroke="#63b8ff" d="M146.8,-48.84C130.99,-38.79 112.67,-27.14 100.41,-19.35"/>
<polygon fill="#63b8ff" stroke="#63b8ff" points="144.44,-52.13 154.76,-54.54 148.2,-46.22 144.44,-52.13"/>
</g>
<!-- Node4 -->
<g id="node4" class="node">
<title>Node4</title>
<g id="a_node4"><a xlink:href="interfaceSCR__EntityCatalogInventoryItem.html" target="_top" xlink:title="Entity Entry within the SCR_EntityCatalog.">
<polygon fill="white" stroke="#666666" points="349.5,-19 191.5,-19 191.5,0 349.5,0 349.5,-19"/>
<text text-anchor="middle" x="270.5" y="-7" font-family="Helvetica,sans-Serif" font-size="10.00">SCR_EntityCatalogInventoryItem</text>
</a>
</g>
</g>
<!-- Node2&#45;&gt;Node4 -->
<g id="edge3" class="edge">
<title>Node2&#45;&gt;Node4</title>
<path fill="none" stroke="#63b8ff" d="M210.2,-48.84C226.01,-38.79 244.33,-27.14 256.59,-19.35"/>
<polygon fill="#63b8ff" stroke="#63b8ff" points="208.8,-46.22 202.24,-54.54 212.56,-52.13 208.8,-46.22"/>
</g>
</g>
</svg>
