<?xml version="1.0" encoding="UTF-8" standalone="no"?>
<!DOCTYPE svg PUBLIC "-//W3C//DTD SVG 1.1//EN"
 "http://www.w3.org/Graphics/SVG/1.1/DTD/svg11.dtd">
<!-- Generated by graphviz version 8.0.2 (20230410.1723)
 -->
<!-- Title: SCR_VehicleDamageManagerComponentClass Pages: 1 -->
<svg width="340pt" height="401pt"
 viewBox="0.00 0.00 339.50 401.00" xmlns="http://www.w3.org/2000/svg" xmlns:xlink="http://www.w3.org/1999/xlink">
<g id="graph0" class="graph" transform="scale(1 1) rotate(0) translate(4 397)">
<title>SCR_VehicleDamageManagerComponentClass</title>
<!-- Node1 -->
<g id="node1" class="node">
<title>Node1</title>
<g id="a_node1"><a xlink:title=" ">
<polygon fill="#999999" stroke="#666666" points="240.5,-96 92.5,-96 92.5,-66 240.5,-66 240.5,-96"/>
<text text-anchor="start" x="100.5" y="-84" font-family="Helvetica,sans-Serif" font-size="10.00">SCR_VehicleDamageManager</text>
<text text-anchor="middle" x="166.5" y="-73" font-family="Helvetica,sans-Serif" font-size="10.00">ComponentClass</text>
</a>
</g>
</g>
<!-- Node7 -->
<g id="node7" class="node">
<title>Node7</title>
<g id="a_node7"><a xlink:href="interfaceSCR__HelicopterDamageManagerComponentClass.html" target="_top" xlink:title=" ">
<polygon fill="white" stroke="#666666" points="159,-30 0,-30 0,0 159,0 159,-30"/>
<text text-anchor="start" x="8" y="-18" font-family="Helvetica,sans-Serif" font-size="10.00">SCR_HelicopterDamageManager</text>
<text text-anchor="middle" x="79.5" y="-7" font-family="Helvetica,sans-Serif" font-size="10.00">ComponentClass</text>
</a>
</g>
</g>
<!-- Node1&#45;&gt;Node7 -->
<g id="edge6" class="edge">
<title>Node1&#45;&gt;Node7</title>
<path fill="none" stroke="#63b8ff" d="M138.66,-59.52C125.76,-50.03 110.74,-38.98 99.05,-30.39"/>
<polygon fill="#63b8ff" stroke="#63b8ff" points="136.06,-62.69 146.19,-65.8 140.21,-57.05 136.06,-62.69"/>
</g>
<!-- Node8 -->
<g id="node8" class="node">
<title>Node8</title>
<g id="a_node8"><a xlink:href="interfaceSCR__WheeledDamageManagerComponentClass.html" target="_top" xlink:title=" ">
<polygon fill="white" stroke="#666666" points="331.5,-30 177.5,-30 177.5,0 331.5,0 331.5,-30"/>
<text text-anchor="start" x="185.5" y="-18" font-family="Helvetica,sans-Serif" font-size="10.00">SCR_WheeledDamageManager</text>
<text text-anchor="middle" x="254.5" y="-7" font-family="Helvetica,sans-Serif" font-size="10.00">ComponentClass</text>
</a>
</g>
</g>
<!-- Node1&#45;&gt;Node8 -->
<g id="edge7" class="edge">
<title>Node1&#45;&gt;Node8</title>
<path fill="none" stroke="#63b8ff" d="M194.66,-59.52C207.71,-50.03 222.91,-38.98 234.72,-30.39"/>
<polygon fill="#63b8ff" stroke="#63b8ff" points="193.06,-57.08 187.03,-65.8 197.18,-62.75 193.06,-57.08"/>
</g>
<!-- Node2 -->
<g id="node2" class="node">
<title>Node2</title>
<g id="a_node2"><a xlink:href="interfaceSCR__DamageManagerComponentClass.html" target="_top" xlink:title=" ">
<polygon fill="white" stroke="#666666" points="249,-162 84,-162 84,-132 249,-132 249,-162"/>
<text text-anchor="start" x="92" y="-150" font-family="Helvetica,sans-Serif" font-size="10.00">SCR_DamageManagerComponent</text>
<text text-anchor="middle" x="166.5" y="-139" font-family="Helvetica,sans-Serif" font-size="10.00">Class</text>
</a>
</g>
</g>
<!-- Node2&#45;&gt;Node1 -->
<g id="edge1" class="edge">
<title>Node2&#45;&gt;Node1</title>
<path fill="none" stroke="#63b8ff" d="M166.5,-120.97C166.5,-112.55 166.5,-103.45 166.5,-96.16"/>
<polygon fill="#63b8ff" stroke="#63b8ff" points="163,-120.8 166.5,-130.8 170,-120.8 163,-120.8"/>
</g>
<!-- Node3 -->
<g id="node3" class="node">
<title>Node3</title>
<g id="a_node3"><a xlink:href="interfaceDamageManagerComponentClass.html" target="_top" xlink:title=" ">
<polygon fill="white" stroke="#666666" points="248.5,-217 84.5,-217 84.5,-198 248.5,-198 248.5,-217"/>
<text text-anchor="middle" x="166.5" y="-205" font-family="Helvetica,sans-Serif" font-size="10.00">DamageManagerComponentClass</text>
</a>
</g>
</g>
<!-- Node3&#45;&gt;Node2 -->
<g id="edge2" class="edge">
<title>Node3&#45;&gt;Node2</title>
<path fill="none" stroke="#63b8ff" d="M166.5,-187.08C166.5,-178.92 166.5,-169.6 166.5,-162.11"/>
<polygon fill="#63b8ff" stroke="#63b8ff" points="163,-186.87 166.5,-196.87 170,-186.87 163,-186.87"/>
</g>
<!-- Node4 -->
<g id="node4" class="node">
<title>Node4</title>
<g id="a_node4"><a xlink:href="interfaceHitZoneContainerComponentClass.html" target="_top" xlink:title=" ">
<polygon fill="white" stroke="#666666" points="236.5,-283 96.5,-283 96.5,-253 236.5,-253 236.5,-283"/>
<text text-anchor="start" x="104.5" y="-271" font-family="Helvetica,sans-Serif" font-size="10.00">HitZoneContainerComponent</text>
<text text-anchor="middle" x="166.5" y="-260" font-family="Helvetica,sans-Serif" font-size="10.00">Class</text>
</a>
</g>
</g>
<!-- Node4&#45;&gt;Node3 -->
<g id="edge3" class="edge">
<title>Node4&#45;&gt;Node3</title>
<path fill="none" stroke="#63b8ff" d="M166.5,-241.59C166.5,-232.85 166.5,-223.65 166.5,-217.18"/>
<polygon fill="#63b8ff" stroke="#63b8ff" points="163,-241.54 166.5,-251.54 170,-241.54 163,-241.54"/>
</g>
<!-- Node5 -->
<g id="node5" class="node">
<title>Node5</title>
<g id="a_node5"><a xlink:href="interfaceGameComponentClass.html" target="_top" xlink:title=" ">
<polygon fill="white" stroke="#666666" points="225,-338 108,-338 108,-319 225,-319 225,-338"/>
<text text-anchor="middle" x="166.5" y="-326" font-family="Helvetica,sans-Serif" font-size="10.00">GameComponentClass</text>
</a>
</g>
</g>
<!-- Node5&#45;&gt;Node4 -->
<g id="edge4" class="edge">
<title>Node5&#45;&gt;Node4</title>
<path fill="none" stroke="#63b8ff" d="M166.5,-308.08C166.5,-299.92 166.5,-290.6 166.5,-283.11"/>
<polygon fill="#63b8ff" stroke="#63b8ff" points="163,-307.87 166.5,-317.87 170,-307.87 163,-307.87"/>
</g>
<!-- Node6 -->
<g id="node6" class="node">
<title>Node6</title>
<g id="a_node6"><a xlink:title=" ">
<polygon fill="white" stroke="#666666" points="229,-393 104,-393 104,-374 229,-374 229,-393"/>
<text text-anchor="middle" x="166.5" y="-381" font-family="Helvetica,sans-Serif" font-size="10.00">GenericComponentClass</text>
</a>
</g>
</g>
<!-- Node6&#45;&gt;Node5 -->
<g id="edge5" class="edge">
<title>Node6&#45;&gt;Node5</title>
<path fill="none" stroke="#63b8ff" d="M166.5,-362.93C166.5,-354.53 166.5,-345.13 166.5,-338.44"/>
<polygon fill="#63b8ff" stroke="#63b8ff" points="163,-362.75 166.5,-372.75 170,-362.75 163,-362.75"/>
</g>
</g>
</svg>
