<?xml version="1.0" encoding="UTF-8" standalone="no"?>
<!DOCTYPE svg PUBLIC "-//W3C//DTD SVG 1.1//EN"
 "http://www.w3.org/Graphics/SVG/1.1/DTD/svg11.dtd">
<!-- Generated by graphviz version 8.0.2 (20230410.1723)
 -->
<!-- Title: SCR_EditorBaseEntityClass Pages: 1 -->
<svg width="476pt" height="113pt"
 viewBox="0.00 0.00 476.00 112.50" xmlns="http://www.w3.org/2000/svg" xmlns:xlink="http://www.w3.org/1999/xlink">
<g id="graph0" class="graph" transform="scale(1 1) rotate(0) translate(4 108.5)">
<title>SCR_EditorBaseEntityClass</title>
<!-- Node1 -->
<g id="node1" class="node">
<title>Node1</title>
<g id="a_node1"><a xlink:title=" ">
<polygon fill="#999999" stroke="#666666" points="277,-67.5 137,-67.5 137,-48.5 277,-48.5 277,-67.5"/>
<text text-anchor="middle" x="207" y="-55.5" font-family="Helvetica,sans-Serif" font-size="10.00">SCR_EditorBaseEntityClass</text>
</a>
</g>
</g>
<!-- Node3 -->
<g id="node3" class="node">
<title>Node3</title>
<g id="a_node3"><a xlink:href="interfaceSCR__EditorManagerEntityClass.html" target="_top" xlink:title=" ">
<polygon fill="white" stroke="#666666" points="468,-104.5 313,-104.5 313,-85.5 468,-85.5 468,-104.5"/>
<text text-anchor="middle" x="390.5" y="-92.5" font-family="Helvetica,sans-Serif" font-size="10.00">SCR_EditorManagerEntityClass</text>
</a>
</g>
</g>
<!-- Node1&#45;&gt;Node3 -->
<g id="edge2" class="edge">
<title>Node1&#45;&gt;Node3</title>
<path fill="none" stroke="#63b8ff" d="M267.3,-70.09C291.07,-74.93 318.13,-80.45 340.73,-85.06"/>
<polygon fill="#63b8ff" stroke="#63b8ff" points="268.14,-66.48 257.64,-67.92 266.74,-73.34 268.14,-66.48"/>
</g>
<!-- Node4 -->
<g id="node4" class="node">
<title>Node4</title>
<g id="a_node4"><a xlink:href="interfaceSCR__EditorModeEntityClass.html" target="_top" xlink:title=" ">
<polygon fill="white" stroke="#666666" points="461.5,-67.5 319.5,-67.5 319.5,-48.5 461.5,-48.5 461.5,-67.5"/>
<text text-anchor="middle" x="390.5" y="-55.5" font-family="Helvetica,sans-Serif" font-size="10.00">SCR_EditorModeEntityClass</text>
</a>
</g>
</g>
<!-- Node1&#45;&gt;Node4 -->
<g id="edge3" class="edge">
<title>Node1&#45;&gt;Node4</title>
<path fill="none" stroke="#63b8ff" d="M288.11,-58C298.49,-58 309.05,-58 319.24,-58"/>
<polygon fill="#63b8ff" stroke="#63b8ff" points="288.39,-54.5 278.39,-58 288.39,-61.5 288.39,-54.5"/>
</g>
<!-- Node5 -->
<g id="node5" class="node">
<title>Node5</title>
<g id="a_node5"><a xlink:href="interfaceSCR__EditorSettingsEntityClass.html" target="_top" xlink:title=" ">
<polygon fill="white" stroke="#666666" points="455,-30 326,-30 326,0 455,0 455,-30"/>
<text text-anchor="start" x="334" y="-18" font-family="Helvetica,sans-Serif" font-size="10.00">SCR_EditorSettingsEntity</text>
<text text-anchor="middle" x="390.5" y="-7" font-family="Helvetica,sans-Serif" font-size="10.00">Class</text>
</a>
</g>
</g>
<!-- Node1&#45;&gt;Node5 -->
<g id="edge4" class="edge">
<title>Node1&#45;&gt;Node5</title>
<path fill="none" stroke="#63b8ff" d="M260.7,-45.51C280.98,-40.71 304.35,-35.17 325.57,-30.15"/>
<polygon fill="#63b8ff" stroke="#63b8ff" points="260.02,-42.32 251.1,-48.03 261.63,-49.13 260.02,-42.32"/>
</g>
<!-- Node2 -->
<g id="node2" class="node">
<title>Node2</title>
<g id="a_node2"><a xlink:title=" ">
<polygon fill="white" stroke="#666666" points="101,-67.5 0,-67.5 0,-48.5 101,-48.5 101,-67.5"/>
<text text-anchor="middle" x="50.5" y="-55.5" font-family="Helvetica,sans-Serif" font-size="10.00">GenericEntityClass</text>
</a>
</g>
</g>
<!-- Node2&#45;&gt;Node1 -->
<g id="edge1" class="edge">
<title>Node2&#45;&gt;Node1</title>
<path fill="none" stroke="#63b8ff" d="M112.05,-58C120.12,-58 128.45,-58 136.66,-58"/>
<polygon fill="#63b8ff" stroke="#63b8ff" points="112.24,-54.5 102.24,-58 112.24,-61.5 112.24,-54.5"/>
</g>
</g>
</svg>
