<?xml version="1.0" encoding="UTF-8" standalone="no"?>
<!DOCTYPE svg PUBLIC "-//W3C//DTD SVG 1.1//EN"
 "http://www.w3.org/Graphics/SVG/1.1/DTD/svg11.dtd">
<!-- Generated by graphviz version 8.0.2 (20230410.1723)
 -->
<!-- Title: BaseTriggerComponent Pages: 1 -->
<svg width="932pt" height="138pt"
 viewBox="0.00 0.00 932.00 138.00" xmlns="http://www.w3.org/2000/svg" xmlns:xlink="http://www.w3.org/1999/xlink">
<g id="graph0" class="graph" transform="scale(1 1) rotate(0) translate(4 134)">
<title>BaseTriggerComponent</title>
<!-- Node1 -->
<g id="node1" class="node">
<title>Node1</title>
<g id="a_node1"><a xlink:title=" ">
<polygon fill="#999999" stroke="#666666" points="547,-74 429,-74 429,-55 547,-55 547,-74"/>
<text text-anchor="middle" x="488" y="-62" font-family="Helvetica,sans-Serif" font-size="10.00">BaseTriggerComponent</text>
</a>
</g>
</g>
<!-- Node5 -->
<g id="node5" class="node">
<title>Node5</title>
<g id="a_node5"><a xlink:href="interfaceCollisionTriggerComponent.html" target="_top" xlink:title=" ">
<polygon fill="white" stroke="#666666" points="720.5,-130 588.5,-130 588.5,-111 720.5,-111 720.5,-130"/>
<text text-anchor="middle" x="654.5" y="-118" font-family="Helvetica,sans-Serif" font-size="10.00">CollisionTriggerComponent</text>
</a>
</g>
</g>
<!-- Node1&#45;&gt;Node5 -->
<g id="edge4" class="edge">
<title>Node1&#45;&gt;Node5</title>
<path fill="none" stroke="#63b8ff" d="M521.06,-78.71C539.05,-86.36 562.03,-95.62 583,-102.5 591.88,-105.41 601.52,-108.15 610.73,-110.56"/>
<polygon fill="#63b8ff" stroke="#63b8ff" points="522.67,-75.16 512.1,-74.42 519.9,-81.59 522.67,-75.16"/>
</g>
<!-- Node6 -->
<g id="node6" class="node">
<title>Node6</title>
<g id="a_node6"><a xlink:href="interfaceProximityTriggerComponent.html" target="_top" xlink:title=" ">
<polygon fill="white" stroke="#666666" points="723,-93 586,-93 586,-74 723,-74 723,-93"/>
<text text-anchor="middle" x="654.5" y="-81" font-family="Helvetica,sans-Serif" font-size="10.00">ProximityTriggerComponent</text>
</a>
</g>
</g>
<!-- Node1&#45;&gt;Node6 -->
<g id="edge5" class="edge">
<title>Node1&#45;&gt;Node6</title>
<path fill="none" stroke="#63b8ff" d="M558.36,-72.51C567.4,-73.56 576.66,-74.63 585.68,-75.67"/>
<polygon fill="#63b8ff" stroke="#63b8ff" points="558.8,-68.92 548.46,-71.25 557.99,-75.88 558.8,-68.92"/>
</g>
<!-- Node7 -->
<g id="node7" class="node">
<title>Node7</title>
<g id="a_node7"><a xlink:href="interfaceSCR__BaseTriggerComponent.html" target="_top" xlink:title=" ">
<polygon fill="white" stroke="#666666" points="726,-56 583,-56 583,-37 726,-37 726,-56"/>
<text text-anchor="middle" x="654.5" y="-44" font-family="Helvetica,sans-Serif" font-size="10.00">SCR_BaseTriggerComponent</text>
</a>
</g>
</g>
<!-- Node1&#45;&gt;Node7 -->
<g id="edge6" class="edge">
<title>Node1&#45;&gt;Node7</title>
<path fill="none" stroke="#63b8ff" d="M558.27,-56.92C566.3,-56.04 574.5,-55.14 582.55,-54.26"/>
<polygon fill="#63b8ff" stroke="#63b8ff" points="558.02,-53.54 548.46,-58.1 558.78,-60.49 558.02,-53.54"/>
</g>
<!-- Node10 -->
<g id="node10" class="node">
<title>Node10</title>
<g id="a_node10"><a xlink:href="interfaceTimerTriggerComponent.html" target="_top" xlink:title=" ">
<polygon fill="white" stroke="#666666" points="714,-19 595,-19 595,0 714,0 714,-19"/>
<text text-anchor="middle" x="654.5" y="-7" font-family="Helvetica,sans-Serif" font-size="10.00">TimerTriggerComponent</text>
</a>
</g>
</g>
<!-- Node1&#45;&gt;Node10 -->
<g id="edge9" class="edge">
<title>Node1&#45;&gt;Node10</title>
<path fill="none" stroke="#63b8ff" d="M521.82,-50.42C539.71,-43.04 562.35,-34.17 583,-27.5 591.9,-24.63 601.54,-21.91 610.75,-19.5"/>
<polygon fill="#63b8ff" stroke="#63b8ff" points="520.77,-47.48 512.89,-54.56 523.46,-53.94 520.77,-47.48"/>
</g>
<!-- Node2 -->
<g id="node2" class="node">
<title>Node2</title>
<g id="a_node2"><a xlink:href="interfaceBaseProjectileComponent.html" target="_top" xlink:title=" ">
<polygon fill="white" stroke="#666666" points="393,-74 264,-74 264,-55 393,-55 393,-74"/>
<text text-anchor="middle" x="328.5" y="-62" font-family="Helvetica,sans-Serif" font-size="10.00">BaseProjectileComponent</text>
</a>
</g>
</g>
<!-- Node2&#45;&gt;Node1 -->
<g id="edge1" class="edge">
<title>Node2&#45;&gt;Node1</title>
<path fill="none" stroke="#63b8ff" d="M403.9,-64.5C412.16,-64.5 420.48,-64.5 428.5,-64.5"/>
<polygon fill="#63b8ff" stroke="#63b8ff" points="404.11,-61 394.11,-64.5 404.11,-68 404.11,-61"/>
</g>
<!-- Node3 -->
<g id="node3" class="node">
<title>Node3</title>
<g id="a_node3"><a xlink:href="interfaceGameComponent.html" target="_top" xlink:title=" ">
<polygon fill="white" stroke="#666666" points="228,-74 136,-74 136,-55 228,-55 228,-74"/>
<text text-anchor="middle" x="182" y="-62" font-family="Helvetica,sans-Serif" font-size="10.00">GameComponent</text>
</a>
</g>
</g>
<!-- Node3&#45;&gt;Node2 -->
<g id="edge2" class="edge">
<title>Node3&#45;&gt;Node2</title>
<path fill="none" stroke="#63b8ff" d="M239.05,-64.5C247.08,-64.5 255.38,-64.5 263.55,-64.5"/>
<polygon fill="#63b8ff" stroke="#63b8ff" points="239.32,-61 229.32,-64.5 239.32,-68 239.32,-61"/>
</g>
<!-- Node4 -->
<g id="node4" class="node">
<title>Node4</title>
<g id="a_node4"><a xlink:title=" ">
<polygon fill="white" stroke="#666666" points="100,-74 0,-74 0,-55 100,-55 100,-74"/>
<text text-anchor="middle" x="50" y="-62" font-family="Helvetica,sans-Serif" font-size="10.00">GenericComponent</text>
</a>
</g>
</g>
<!-- Node4&#45;&gt;Node3 -->
<g id="edge3" class="edge">
<title>Node4&#45;&gt;Node3</title>
<path fill="none" stroke="#63b8ff" d="M110.95,-64.5C119.25,-64.5 127.66,-64.5 135.64,-64.5"/>
<polygon fill="#63b8ff" stroke="#63b8ff" points="111.15,-61 101.15,-64.5 111.15,-68 111.15,-61"/>
</g>
<!-- Node8 -->
<g id="node8" class="node">
<title>Node8</title>
<g id="a_node8"><a xlink:href="interfaceSCR__ExplosiveTriggerComponent.html" target="_top" xlink:title=" ">
<polygon fill="white" stroke="#666666" points="924,-74 762,-74 762,-55 924,-55 924,-74"/>
<text text-anchor="middle" x="843" y="-62" font-family="Helvetica,sans-Serif" font-size="10.00">SCR_ExplosiveTriggerComponent</text>
</a>
</g>
</g>
<!-- Node7&#45;&gt;Node8 -->
<g id="edge7" class="edge">
<title>Node7&#45;&gt;Node8</title>
<path fill="none" stroke="#63b8ff" d="M737.21,-54.39C745.31,-55.17 753.52,-55.96 761.6,-56.74"/>
<polygon fill="#63b8ff" stroke="#63b8ff" points="737.56,-50.81 727.27,-53.33 736.89,-57.78 737.56,-50.81"/>
</g>
<!-- Node9 -->
<g id="node9" class="node">
<title>Node9</title>
<g id="a_node9"><a xlink:href="interfaceSCR__PressureTriggerComponent.html" target="_top" xlink:title=" ">
<polygon fill="white" stroke="#666666" points="923,-37 763,-37 763,-18 923,-18 923,-37"/>
<text text-anchor="middle" x="843" y="-25" font-family="Helvetica,sans-Serif" font-size="10.00">SCR_PressureTriggerComponent</text>
</a>
</g>
</g>
<!-- Node7&#45;&gt;Node9 -->
<g id="edge8" class="edge">
<title>Node7&#45;&gt;Node9</title>
<path fill="none" stroke="#63b8ff" d="M736.94,-38.2C745.44,-37.34 754.07,-36.46 762.54,-35.6"/>
<polygon fill="#63b8ff" stroke="#63b8ff" points="736.87,-34.79 727.27,-39.29 737.58,-41.76 736.87,-34.79"/>
</g>
</g>
</svg>
