<?xml version="1.0" encoding="UTF-8" standalone="no"?>
<!DOCTYPE svg PUBLIC "-//W3C//DTD SVG 1.1//EN"
 "http://www.w3.org/Graphics/SVG/1.1/DTD/svg11.dtd">
<!-- Generated by graphviz version 8.0.2 (20230410.1723)
 -->
<!-- Title: SCR_HealthCharacterEditorAttribute Pages: 1 -->
<svg width="175pt" height="269pt"
 viewBox="0.00 0.00 175.00 269.00" xmlns="http://www.w3.org/2000/svg" xmlns:xlink="http://www.w3.org/1999/xlink">
<g id="graph0" class="graph" transform="scale(1 1) rotate(0) translate(4 265)">
<title>SCR_HealthCharacterEditorAttribute</title>
<!-- Node1 -->
<g id="node1" class="node">
<title>Node1</title>
<g id="a_node1"><a xlink:title=" ">
<polygon fill="#999999" stroke="#666666" points="152,-30 15,-30 15,0 152,0 152,-30"/>
<text text-anchor="start" x="23" y="-18" font-family="Helvetica,sans-Serif" font-size="10.00">SCR_HealthCharacterEditor</text>
<text text-anchor="middle" x="83.5" y="-7" font-family="Helvetica,sans-Serif" font-size="10.00">Attribute</text>
</a>
</g>
</g>
<!-- Node2 -->
<g id="node2" class="node">
<title>Node2</title>
<g id="a_node2"><a xlink:href="interfaceSCR__HealthEditorAttribute.html" target="_top" xlink:title="Entity Health Attribute for getting and setting varriables in Editor Attribute window.">
<polygon fill="white" stroke="#666666" points="149.5,-85 17.5,-85 17.5,-66 149.5,-66 149.5,-85"/>
<text text-anchor="middle" x="83.5" y="-73" font-family="Helvetica,sans-Serif" font-size="10.00">SCR_HealthEditorAttribute</text>
</a>
</g>
</g>
<!-- Node2&#45;&gt;Node1 -->
<g id="edge1" class="edge">
<title>Node2&#45;&gt;Node1</title>
<path fill="none" stroke="#63b8ff" d="M83.5,-55.08C83.5,-46.92 83.5,-37.6 83.5,-30.11"/>
<polygon fill="#63b8ff" stroke="#63b8ff" points="80,-54.87 83.5,-64.87 87,-54.87 80,-54.87"/>
</g>
<!-- Node3 -->
<g id="node3" class="node">
<title>Node3</title>
<g id="a_node3"><a xlink:href="interfaceSCR__ValidTypeBaseValueListEditorAttribute.html" target="_top" xlink:title=" ">
<polygon fill="white" stroke="#666666" points="157.5,-151 9.5,-151 9.5,-121 157.5,-121 157.5,-151"/>
<text text-anchor="start" x="17.5" y="-139" font-family="Helvetica,sans-Serif" font-size="10.00">SCR_ValidTypeBaseValueList</text>
<text text-anchor="middle" x="83.5" y="-128" font-family="Helvetica,sans-Serif" font-size="10.00">EditorAttribute</text>
</a>
</g>
</g>
<!-- Node3&#45;&gt;Node2 -->
<g id="edge2" class="edge">
<title>Node3&#45;&gt;Node2</title>
<path fill="none" stroke="#63b8ff" d="M83.5,-109.59C83.5,-100.85 83.5,-91.65 83.5,-85.18"/>
<polygon fill="#63b8ff" stroke="#63b8ff" points="80,-109.54 83.5,-119.54 87,-109.54 80,-109.54"/>
</g>
<!-- Node4 -->
<g id="node4" class="node">
<title>Node4</title>
<g id="a_node4"><a xlink:href="interfaceSCR__BaseValueListEditorAttribute.html" target="_top" xlink:title="Attribute base for slider values for other attributes to inherent from.">
<polygon fill="white" stroke="#666666" points="167,-206 0,-206 0,-187 167,-187 167,-206"/>
<text text-anchor="middle" x="83.5" y="-194" font-family="Helvetica,sans-Serif" font-size="10.00">SCR_BaseValueListEditorAttribute</text>
</a>
</g>
</g>
<!-- Node4&#45;&gt;Node3 -->
<g id="edge3" class="edge">
<title>Node4&#45;&gt;Node3</title>
<path fill="none" stroke="#63b8ff" d="M83.5,-176.08C83.5,-167.92 83.5,-158.6 83.5,-151.11"/>
<polygon fill="#63b8ff" stroke="#63b8ff" points="80,-175.87 83.5,-185.87 87,-175.87 80,-175.87"/>
</g>
<!-- Node5 -->
<g id="node5" class="node">
<title>Node5</title>
<g id="a_node5"><a xlink:href="interfaceSCR__BaseEditorAttribute.html" target="_top" xlink:title="Base Attribute Script for other attributes to inherent from to get and set varriables in Editor Attri...">
<polygon fill="white" stroke="#666666" points="147,-261 20,-261 20,-242 147,-242 147,-261"/>
<text text-anchor="middle" x="83.5" y="-249" font-family="Helvetica,sans-Serif" font-size="10.00">SCR_BaseEditorAttribute</text>
</a>
</g>
</g>
<!-- Node5&#45;&gt;Node4 -->
<g id="edge4" class="edge">
<title>Node5&#45;&gt;Node4</title>
<path fill="none" stroke="#63b8ff" d="M83.5,-230.93C83.5,-222.53 83.5,-213.13 83.5,-206.44"/>
<polygon fill="#63b8ff" stroke="#63b8ff" points="80,-230.75 83.5,-240.75 87,-230.75 80,-230.75"/>
</g>
</g>
</svg>
