<?xml version="1.0" encoding="UTF-8" standalone="no"?>
<!DOCTYPE svg PUBLIC "-//W3C//DTD SVG 1.1//EN"
 "http://www.w3.org/Graphics/SVG/1.1/DTD/svg11.dtd">
<!-- Generated by graphviz version 8.0.2 (20230410.1723)
 -->
<!-- Title: SCR_BaseAreaMeshComponent Pages: 1 -->
<svg width="694pt" height="333pt"
 viewBox="0.00 0.00 694.00 333.00" xmlns="http://www.w3.org/2000/svg" xmlns:xlink="http://www.w3.org/1999/xlink">
<g id="graph0" class="graph" transform="scale(1 1) rotate(0) translate(4 329)">
<title>SCR_BaseAreaMeshComponent</title>
<!-- Node1 -->
<g id="node1" class="node">
<title>Node1</title>
<g id="a_node1"><a xlink:title=" ">
<polygon fill="#999999" stroke="#666666" points="286,-168.5 128,-168.5 128,-149.5 286,-149.5 286,-168.5"/>
<text text-anchor="middle" x="207" y="-156.5" font-family="Helvetica,sans-Serif" font-size="10.00">SCR_BaseAreaMeshComponent</text>
</a>
</g>
</g>
<!-- Node3 -->
<g id="node3" class="node">
<title>Node3</title>
<g id="a_node3"><a xlink:href="interfaceSCR__CapturePointAreaMeshComponent.html" target="_top" xlink:title=" ">
<polygon fill="white" stroke="#666666" points="487.5,-325 344.5,-325 344.5,-295 487.5,-295 487.5,-325"/>
<text text-anchor="start" x="352.5" y="-313" font-family="Helvetica,sans-Serif" font-size="10.00">SCR_CapturePointAreaMesh</text>
<text text-anchor="middle" x="416" y="-302" font-family="Helvetica,sans-Serif" font-size="10.00">Component</text>
</a>
</g>
</g>
<!-- Node1&#45;&gt;Node3 -->
<g id="edge2" class="edge">
<title>Node1&#45;&gt;Node3</title>
<path fill="none" stroke="#63b8ff" d="M219.61,-177.83C237.87,-205.8 275.99,-258.05 322,-286 328.84,-290.16 336.39,-293.6 344.13,-296.45"/>
<polygon fill="#63b8ff" stroke="#63b8ff" points="222.13,-176.26 213.81,-169.71 216.22,-180.02 222.13,-176.26"/>
</g>
<!-- Node4 -->
<g id="node4" class="node">
<title>Node4</title>
<g id="a_node4"><a xlink:href="interfaceSCR__CustomAreaMeshComponent.html" target="_top" xlink:title=" ">
<polygon fill="white" stroke="#666666" points="501,-276.5 331,-276.5 331,-257.5 501,-257.5 501,-276.5"/>
<text text-anchor="middle" x="416" y="-264.5" font-family="Helvetica,sans-Serif" font-size="10.00">SCR_CustomAreaMeshComponent</text>
</a>
</g>
</g>
<!-- Node1&#45;&gt;Node4 -->
<g id="edge3" class="edge">
<title>Node1&#45;&gt;Node4</title>
<path fill="none" stroke="#63b8ff" d="M224.97,-176.46C245.85,-196.89 283.32,-230.16 322,-248 329.93,-251.66 338.56,-254.62 347.27,-257.01"/>
<polygon fill="#63b8ff" stroke="#63b8ff" points="227.87,-174.42 218.32,-169.83 222.92,-179.37 227.87,-174.42"/>
</g>
<!-- Node5 -->
<g id="node5" class="node">
<title>Node5</title>
<g id="a_node5"><a xlink:href="interfaceSCR__MilitaryBaseAreaMeshComponent.html" target="_top" xlink:title=" ">
<polygon fill="white" stroke="#666666" points="486,-239 346,-239 346,-209 486,-209 486,-239"/>
<text text-anchor="start" x="354" y="-227" font-family="Helvetica,sans-Serif" font-size="10.00">SCR_MilitaryBaseAreaMesh</text>
<text text-anchor="middle" x="416" y="-216" font-family="Helvetica,sans-Serif" font-size="10.00">Component</text>
</a>
</g>
</g>
<!-- Node1&#45;&gt;Node5 -->
<g id="edge4" class="edge">
<title>Node1&#45;&gt;Node5</title>
<path fill="none" stroke="#63b8ff" d="M244.85,-172.72C267.07,-180.79 296,-190.96 322,-199 332.54,-202.26 343.83,-205.5 354.78,-208.52"/>
<polygon fill="#63b8ff" stroke="#63b8ff" points="246.13,-169.09 235.53,-168.94 243.72,-175.67 246.13,-169.09"/>
</g>
<!-- Node6 -->
<g id="node6" class="node">
<title>Node6</title>
<g id="a_node6"><a xlink:href="interfaceSCR__SpawnPointAreaMeshComponent.html" target="_top" xlink:title=" ">
<polygon fill="white" stroke="#666666" points="510,-190.5 322,-190.5 322,-171.5 510,-171.5 510,-190.5"/>
<text text-anchor="middle" x="416" y="-178.5" font-family="Helvetica,sans-Serif" font-size="10.00">SCR_SpawnPointAreaMeshComponent</text>
</a>
</g>
</g>
<!-- Node1&#45;&gt;Node6 -->
<g id="edge5" class="edge">
<title>Node1&#45;&gt;Node6</title>
<path fill="none" stroke="#63b8ff" d="M296.93,-168.45C305.12,-169.32 313.44,-170.21 321.66,-171.08"/>
<polygon fill="#63b8ff" stroke="#63b8ff" points="297.57,-164.89 287.26,-167.32 296.83,-171.85 297.57,-164.89"/>
</g>
<!-- Node7 -->
<g id="node7" class="node">
<title>Node7</title>
<g id="a_node7"><a xlink:href="interfaceSCR__SupportStationAreaMeshComponent.html" target="_top" xlink:title=" ">
<polygon fill="white" stroke="#666666" points="491.5,-153 340.5,-153 340.5,-123 491.5,-123 491.5,-153"/>
<text text-anchor="start" x="348.5" y="-141" font-family="Helvetica,sans-Serif" font-size="10.00">SCR_SupportStationAreaMesh</text>
<text text-anchor="middle" x="416" y="-130" font-family="Helvetica,sans-Serif" font-size="10.00">Component</text>
</a>
</g>
</g>
<!-- Node1&#45;&gt;Node7 -->
<g id="edge6" class="edge">
<title>Node1&#45;&gt;Node7</title>
<path fill="none" stroke="#63b8ff" d="M297.11,-149.96C311.43,-148.51 326.11,-147.02 340.05,-145.6"/>
<polygon fill="#63b8ff" stroke="#63b8ff" points="296.85,-146.57 287.26,-151.06 297.56,-153.53 296.85,-146.57"/>
</g>
<!-- Node8 -->
<g id="node8" class="node">
<title>Node8</title>
<g id="a_node8"><a xlink:href="interfaceSCR__TriggerAreaMeshComponent.html" target="_top" xlink:title=" ">
<polygon fill="white" stroke="#666666" points="498.5,-104.5 333.5,-104.5 333.5,-85.5 498.5,-85.5 498.5,-104.5"/>
<text text-anchor="middle" x="416" y="-92.5" font-family="Helvetica,sans-Serif" font-size="10.00">SCR_TriggerAreaMeshComponent</text>
</a>
</g>
</g>
<!-- Node1&#45;&gt;Node8 -->
<g id="edge7" class="edge">
<title>Node1&#45;&gt;Node8</title>
<path fill="none" stroke="#63b8ff" d="M239.91,-144.67C262.48,-134.96 293.65,-122.42 322,-114 333.53,-110.57 346.05,-107.56 358.05,-104.99"/>
<polygon fill="#63b8ff" stroke="#63b8ff" points="238.65,-141.84 230.88,-149.04 241.44,-148.25 238.65,-141.84"/>
</g>
<!-- Node10 -->
<g id="node10" class="node">
<title>Node10</title>
<g id="a_node10"><a xlink:href="interfaceSCR__WaypointAreaMeshComponent.html" target="_top" xlink:title=" ">
<polygon fill="white" stroke="#666666" points="504.5,-67.5 327.5,-67.5 327.5,-48.5 504.5,-48.5 504.5,-67.5"/>
<text text-anchor="middle" x="416" y="-55.5" font-family="Helvetica,sans-Serif" font-size="10.00">SCR_WaypointAreaMeshComponent</text>
</a>
</g>
</g>
<!-- Node1&#45;&gt;Node10 -->
<g id="edge9" class="edge">
<title>Node1&#45;&gt;Node10</title>
<path fill="none" stroke="#63b8ff" d="M226.11,-141.84C247.36,-122.7 284.48,-92.32 322,-76 329.39,-72.79 337.36,-70.14 345.41,-67.97"/>
<polygon fill="#63b8ff" stroke="#63b8ff" points="224.02,-138.93 219.02,-148.27 228.75,-144.08 224.02,-138.93"/>
</g>
<!-- Node11 -->
<g id="node11" class="node">
<title>Node11</title>
<g id="a_node11"><a xlink:href="interfaceSCR__ZoneRestrictionAreaMeshComponent.html" target="_top" xlink:title=" ">
<polygon fill="white" stroke="#666666" points="493,-30 339,-30 339,0 493,0 493,-30"/>
<text text-anchor="start" x="347" y="-18" font-family="Helvetica,sans-Serif" font-size="10.00">SCR_ZoneRestrictionAreaMesh</text>
<text text-anchor="middle" x="416" y="-7" font-family="Helvetica,sans-Serif" font-size="10.00">Component</text>
</a>
</g>
</g>
<!-- Node1&#45;&gt;Node11 -->
<g id="edge10" class="edge">
<title>Node1&#45;&gt;Node11</title>
<path fill="none" stroke="#63b8ff" d="M220.42,-140.44C239.21,-113.85 277.44,-65.21 322,-39 327.61,-35.7 333.66,-32.85 339.9,-30.39"/>
<polygon fill="#63b8ff" stroke="#63b8ff" points="217.2,-137.95 214.4,-148.16 222.96,-141.92 217.2,-137.95"/>
</g>
<!-- Node2 -->
<g id="node2" class="node">
<title>Node2</title>
<g id="a_node2"><a xlink:title=" ">
<polygon fill="white" stroke="#666666" points="92,-168.5 0,-168.5 0,-149.5 92,-149.5 92,-168.5"/>
<text text-anchor="middle" x="46" y="-156.5" font-family="Helvetica,sans-Serif" font-size="10.00">ScriptComponent</text>
</a>
</g>
</g>
<!-- Node2&#45;&gt;Node1 -->
<g id="edge1" class="edge">
<title>Node2&#45;&gt;Node1</title>
<path fill="none" stroke="#63b8ff" d="M103.12,-159C111.07,-159 119.37,-159 127.65,-159"/>
<polygon fill="#63b8ff" stroke="#63b8ff" points="103.14,-155.5 93.14,-159 103.14,-162.5 103.14,-155.5"/>
</g>
<!-- Node9 -->
<g id="node9" class="node">
<title>Node9</title>
<g id="a_node9"><a xlink:href="interfaceSCR__CampaignBuildingAreaMeshComponent.html" target="_top" xlink:title=" ">
<polygon fill="white" stroke="#666666" points="686,-110 546,-110 546,-80 686,-80 686,-110"/>
<text text-anchor="start" x="554" y="-98" font-family="Helvetica,sans-Serif" font-size="10.00">SCR_CampaignBuildingArea</text>
<text text-anchor="middle" x="616" y="-87" font-family="Helvetica,sans-Serif" font-size="10.00">MeshComponent</text>
</a>
</g>
</g>
<!-- Node8&#45;&gt;Node9 -->
<g id="edge8" class="edge">
<title>Node8&#45;&gt;Node9</title>
<path fill="none" stroke="#63b8ff" d="M509.96,-95C521.99,-95 534.14,-95 545.7,-95"/>
<polygon fill="#63b8ff" stroke="#63b8ff" points="509.96,-91.5 499.96,-95 509.96,-98.5 509.96,-91.5"/>
</g>
</g>
</svg>
