<?xml version="1.0" encoding="UTF-8" standalone="no"?>
<!DOCTYPE svg PUBLIC "-//W3C//DTD SVG 1.1//EN"
 "http://www.w3.org/Graphics/SVG/1.1/DTD/svg11.dtd">
<!-- Generated by graphviz version 8.0.2 (20230410.1723)
 -->
<!-- Title: SCR_WelcomeScreenThreeHorizontalColumns Pages: 1 -->
<svg width="190pt" height="159pt"
 viewBox="0.00 0.00 190.00 159.00" xmlns="http://www.w3.org/2000/svg" xmlns:xlink="http://www.w3.org/1999/xlink">
<g id="graph0" class="graph" transform="scale(1 1) rotate(0) translate(4 155)">
<title>SCR_WelcomeScreenThreeHorizontalColumns</title>
<!-- Node1 -->
<g id="node1" class="node">
<title>Node1</title>
<g id="a_node1"><a xlink:title="Class handling layout for ThreeHorizontalColumns.">
<polygon fill="#999999" stroke="#666666" points="182,-30 0,-30 0,0 182,0 182,-30"/>
<text text-anchor="start" x="8" y="-18" font-family="Helvetica,sans-Serif" font-size="10.00">SCR_WelcomeScreenThreeHorizontal</text>
<text text-anchor="middle" x="91" y="-7" font-family="Helvetica,sans-Serif" font-size="10.00">Columns</text>
</a>
</g>
</g>
<!-- Node2 -->
<g id="node2" class="node">
<title>Node2</title>
<g id="a_node2"><a xlink:href="interfaceSCR__DeployMenuBaseScreenLayout.html" target="_top" xlink:title="Base class for Deploy menu layouts.">
<polygon fill="white" stroke="#666666" points="165.5,-96 16.5,-96 16.5,-66 165.5,-66 165.5,-96"/>
<text text-anchor="start" x="24.5" y="-84" font-family="Helvetica,sans-Serif" font-size="10.00">SCR_DeployMenuBaseScreen</text>
<text text-anchor="middle" x="91" y="-73" font-family="Helvetica,sans-Serif" font-size="10.00">Layout</text>
</a>
</g>
</g>
<!-- Node2&#45;&gt;Node1 -->
<g id="edge1" class="edge">
<title>Node2&#45;&gt;Node1</title>
<path fill="none" stroke="#63b8ff" d="M91,-54.97C91,-46.55 91,-37.45 91,-30.16"/>
<polygon fill="#63b8ff" stroke="#63b8ff" points="87.5,-54.8 91,-64.8 94.5,-54.8 87.5,-54.8"/>
</g>
<!-- Node3 -->
<g id="node3" class="node">
<title>Node3</title>
<g id="a_node3"><a xlink:title=" ">
<polygon fill="white" stroke="#666666" points="134,-151 48,-151 48,-132 134,-132 134,-151"/>
<text text-anchor="middle" x="91" y="-139" font-family="Helvetica,sans-Serif" font-size="10.00">ScriptAndConfig</text>
</a>
</g>
</g>
<!-- Node3&#45;&gt;Node2 -->
<g id="edge2" class="edge">
<title>Node3&#45;&gt;Node2</title>
<path fill="none" stroke="#63b8ff" d="M91,-121.08C91,-112.92 91,-103.6 91,-96.11"/>
<polygon fill="#63b8ff" stroke="#63b8ff" points="87.5,-120.87 91,-130.87 94.5,-120.87 87.5,-120.87"/>
</g>
</g>
</svg>
