<?xml version="1.0" encoding="UTF-8" standalone="no"?>
<!DOCTYPE svg PUBLIC "-//W3C//DTD SVG 1.1//EN"
 "http://www.w3.org/Graphics/SVG/1.1/DTD/svg11.dtd">
<!-- Generated by graphviz version 8.0.2 (20230410.1723)
 -->
<!-- Title: SCR_ScenarioFrameworkLogic Pages: 1 -->
<svg width="474pt" height="124pt"
 viewBox="0.00 0.00 474.00 124.00" xmlns="http://www.w3.org/2000/svg" xmlns:xlink="http://www.w3.org/1999/xlink">
<g id="graph0" class="graph" transform="scale(1 1) rotate(0) translate(4 120)">
<title>SCR_ScenarioFrameworkLogic</title>
<!-- Node1 -->
<g id="node1" class="node">
<title>Node1</title>
<g id="a_node1"><a xlink:title=" ">
<polygon fill="#999999" stroke="#666666" points="264,-67.5 112,-67.5 112,-48.5 264,-48.5 264,-67.5"/>
<text text-anchor="middle" x="188" y="-55.5" font-family="Helvetica,sans-Serif" font-size="10.00">SCR_ScenarioFrameworkLogic</text>
</a>
</g>
</g>
<!-- Node3 -->
<g id="node3" class="node">
<title>Node3</title>
<g id="a_node3"><a xlink:href="interfaceSCR__ScenarioFrameworkLogicCounter.html" target="_top" xlink:title=" ">
<polygon fill="white" stroke="#666666" points="459,-116 307,-116 307,-86 459,-86 459,-116"/>
<text text-anchor="start" x="315" y="-104" font-family="Helvetica,sans-Serif" font-size="10.00">SCR_ScenarioFrameworkLogic</text>
<text text-anchor="middle" x="383" y="-93" font-family="Helvetica,sans-Serif" font-size="10.00">Counter</text>
</a>
</g>
</g>
<!-- Node1&#45;&gt;Node3 -->
<g id="edge2" class="edge">
<title>Node1&#45;&gt;Node3</title>
<path fill="none" stroke="#63b8ff" d="M244.24,-70.31C265.51,-75.05 290.08,-80.52 312.53,-85.52"/>
<polygon fill="#63b8ff" stroke="#63b8ff" points="245.29,-66.73 234.76,-67.97 243.76,-73.56 245.29,-66.73"/>
</g>
<!-- Node4 -->
<g id="node4" class="node">
<title>Node4</title>
<g id="a_node4"><a xlink:href="interfaceSCR__ScenarioFrameworkLogicOR.html" target="_top" xlink:title=" ">
<polygon fill="white" stroke="#666666" points="466,-67.5 300,-67.5 300,-48.5 466,-48.5 466,-67.5"/>
<text text-anchor="middle" x="383" y="-55.5" font-family="Helvetica,sans-Serif" font-size="10.00">SCR_ScenarioFrameworkLogicOR</text>
</a>
</g>
</g>
<!-- Node1&#45;&gt;Node4 -->
<g id="edge3" class="edge">
<title>Node1&#45;&gt;Node4</title>
<path fill="none" stroke="#63b8ff" d="M275.35,-58C283.41,-58 291.56,-58 299.58,-58"/>
<polygon fill="#63b8ff" stroke="#63b8ff" points="275.45,-54.5 265.45,-58 275.45,-61.5 275.45,-54.5"/>
</g>
<!-- Node5 -->
<g id="node5" class="node">
<title>Node5</title>
<g id="a_node5"><a xlink:href="interfaceSCR__ScenarioFrameworkLogicSwitch.html" target="_top" xlink:title=" ">
<polygon fill="white" stroke="#666666" points="459,-30 307,-30 307,0 459,0 459,-30"/>
<text text-anchor="start" x="315" y="-18" font-family="Helvetica,sans-Serif" font-size="10.00">SCR_ScenarioFrameworkLogic</text>
<text text-anchor="middle" x="383" y="-7" font-family="Helvetica,sans-Serif" font-size="10.00">Switch</text>
</a>
</g>
</g>
<!-- Node1&#45;&gt;Node5 -->
<g id="edge4" class="edge">
<title>Node1&#45;&gt;Node5</title>
<path fill="none" stroke="#63b8ff" d="M244.24,-45.69C265.51,-40.95 290.08,-35.48 312.53,-30.48"/>
<polygon fill="#63b8ff" stroke="#63b8ff" points="243.76,-42.44 234.76,-48.03 245.29,-49.27 243.76,-42.44"/>
</g>
<!-- Node2 -->
<g id="node2" class="node">
<title>Node2</title>
<g id="a_node2"><a xlink:title=" ">
<polygon fill="white" stroke="#666666" points="76,-67.5 0,-67.5 0,-48.5 76,-48.5 76,-67.5"/>
<text text-anchor="middle" x="38" y="-55.5" font-family="Helvetica,sans-Serif" font-size="10.00">GenericEntity</text>
</a>
</g>
</g>
<!-- Node2&#45;&gt;Node1 -->
<g id="edge1" class="edge">
<title>Node2&#45;&gt;Node1</title>
<path fill="none" stroke="#63b8ff" d="M87.1,-58C94.94,-58 103.24,-58 111.55,-58"/>
<polygon fill="#63b8ff" stroke="#63b8ff" points="87.35,-54.5 77.35,-58 87.35,-61.5 87.35,-54.5"/>
</g>
</g>
</svg>
