<?xml version="1.0" encoding="UTF-8" standalone="no"?>
<!DOCTYPE svg PUBLIC "-//W3C//DTD SVG 1.1//EN"
 "http://www.w3.org/Graphics/SVG/1.1/DTD/svg11.dtd">
<!-- Generated by graphviz version 8.0.2 (20230410.1723)
 -->
<!-- Title: SCR_GroupSubMenuBase Pages: 1 -->
<svg width="286pt" height="247pt"
 viewBox="0.00 0.00 286.00 247.00" xmlns="http://www.w3.org/2000/svg" xmlns:xlink="http://www.w3.org/1999/xlink">
<g id="graph0" class="graph" transform="scale(1 1) rotate(0) translate(4 243)">
<title>SCR_GroupSubMenuBase</title>
<!-- Node1 -->
<g id="node1" class="node">
<title>Node1</title>
<g id="a_node1"><a xlink:title=" ">
<polygon fill="#999999" stroke="#666666" points="195,-74 63,-74 63,-55 195,-55 195,-74"/>
<text text-anchor="middle" x="129" y="-62" font-family="Helvetica,sans-Serif" font-size="10.00">SCR_GroupSubMenuBase</text>
</a>
</g>
</g>
<!-- Node5 -->
<g id="node5" class="node">
<title>Node5</title>
<g id="a_node5"><a xlink:href="interfaceSCR__GroupSubMenu.html" target="_top" xlink:title=" ">
<polygon fill="white" stroke="#666666" points="110,-19 0,-19 0,0 110,0 110,-19"/>
<text text-anchor="middle" x="55" y="-7" font-family="Helvetica,sans-Serif" font-size="10.00">SCR_GroupSubMenu</text>
</a>
</g>
</g>
<!-- Node1&#45;&gt;Node5 -->
<g id="edge4" class="edge">
<title>Node1&#45;&gt;Node5</title>
<path fill="none" stroke="#63b8ff" d="M107.62,-48.19C94.56,-38.84 78.32,-27.21 67.37,-19.36"/>
<polygon fill="#63b8ff" stroke="#63b8ff" points="105.28,-51.53 115.45,-54.51 109.35,-45.84 105.28,-51.53"/>
</g>
<!-- Node6 -->
<g id="node6" class="node">
<title>Node6</title>
<g id="a_node6"><a xlink:href="interfaceSCR__GroupSubMenuPlayerlist.html" target="_top" xlink:title=" ">
<polygon fill="white" stroke="#666666" points="278,-19 128,-19 128,0 278,0 278,-19"/>
<text text-anchor="middle" x="203" y="-7" font-family="Helvetica,sans-Serif" font-size="10.00">SCR_GroupSubMenuPlayerlist</text>
</a>
</g>
</g>
<!-- Node1&#45;&gt;Node6 -->
<g id="edge5" class="edge">
<title>Node1&#45;&gt;Node6</title>
<path fill="none" stroke="#63b8ff" d="M150.38,-48.19C163.44,-38.84 179.68,-27.21 190.63,-19.36"/>
<polygon fill="#63b8ff" stroke="#63b8ff" points="148.65,-45.84 142.55,-54.51 152.72,-51.53 148.65,-45.84"/>
</g>
<!-- Node2 -->
<g id="node2" class="node">
<title>Node2</title>
<g id="a_node2"><a xlink:href="interfaceSCR__SubMenuBase.html" target="_top" xlink:title=" ">
<polygon fill="white" stroke="#666666" points="182,-129 76,-129 76,-110 182,-110 182,-129"/>
<text text-anchor="middle" x="129" y="-117" font-family="Helvetica,sans-Serif" font-size="10.00">SCR_SubMenuBase</text>
</a>
</g>
</g>
<!-- Node2&#45;&gt;Node1 -->
<g id="edge1" class="edge">
<title>Node2&#45;&gt;Node1</title>
<path fill="none" stroke="#63b8ff" d="M129,-98.93C129,-90.53 129,-81.13 129,-74.44"/>
<polygon fill="#63b8ff" stroke="#63b8ff" points="125.5,-98.75 129,-108.75 132.5,-98.75 125.5,-98.75"/>
</g>
<!-- Node3 -->
<g id="node3" class="node">
<title>Node3</title>
<g id="a_node3"><a xlink:href="interfaceSCR__ScriptedWidgetComponent.html" target="_top" xlink:title=" ">
<polygon fill="white" stroke="#666666" points="208,-184 50,-184 50,-165 208,-165 208,-184"/>
<text text-anchor="middle" x="129" y="-172" font-family="Helvetica,sans-Serif" font-size="10.00">SCR_ScriptedWidgetComponent</text>
</a>
</g>
</g>
<!-- Node3&#45;&gt;Node2 -->
<g id="edge2" class="edge">
<title>Node3&#45;&gt;Node2</title>
<path fill="none" stroke="#63b8ff" d="M129,-153.93C129,-145.53 129,-136.13 129,-129.44"/>
<polygon fill="#63b8ff" stroke="#63b8ff" points="125.5,-153.75 129,-163.75 132.5,-153.75 125.5,-153.75"/>
</g>
<!-- Node4 -->
<g id="node4" class="node">
<title>Node4</title>
<g id="a_node4"><a xlink:title=" ">
<polygon fill="white" stroke="#666666" points="195.5,-239 62.5,-239 62.5,-220 195.5,-220 195.5,-239"/>
<text text-anchor="middle" x="129" y="-227" font-family="Helvetica,sans-Serif" font-size="10.00">ScriptedWidgetComponent</text>
</a>
</g>
</g>
<!-- Node4&#45;&gt;Node3 -->
<g id="edge3" class="edge">
<title>Node4&#45;&gt;Node3</title>
<path fill="none" stroke="#63b8ff" d="M129,-208.93C129,-200.53 129,-191.13 129,-184.44"/>
<polygon fill="#63b8ff" stroke="#63b8ff" points="125.5,-208.75 129,-218.75 132.5,-208.75 125.5,-208.75"/>
</g>
</g>
</svg>
