<?xml version="1.0" encoding="UTF-8" standalone="no"?>
<!DOCTYPE svg PUBLIC "-//W3C//DTD SVG 1.1//EN"
 "http://www.w3.org/Graphics/SVG/1.1/DTD/svg11.dtd">
<!-- Generated by graphviz version 8.0.2 (20230410.1723)
 -->
<!-- Title: SCR_BasePresetsEditorAttribute Pages: 1 -->
<svg width="1533pt" height="430pt"
 viewBox="0.00 0.00 1533.00 429.50" xmlns="http://www.w3.org/2000/svg" xmlns:xlink="http://www.w3.org/1999/xlink">
<g id="graph0" class="graph" transform="scale(1 1) rotate(0) translate(4 425.5)">
<title>SCR_BasePresetsEditorAttribute</title>
<!-- Node1 -->
<g id="node1" class="node">
<title>Node1</title>
<g id="a_node1"><a xlink:title="Attribute base for Name, icon and float value for other attributes to inherent from.">
<polygon fill="#999999" stroke="#666666" points="499,-147 338,-147 338,-128 499,-128 499,-147"/>
<text text-anchor="middle" x="418.5" y="-135" font-family="Helvetica,sans-Serif" font-size="10.00">SCR_BasePresetsEditorAttribute</text>
</a>
</g>
</g>
<!-- Node4 -->
<g id="node4" class="node">
<title>Node4</title>
<g id="a_node4"><a xlink:href="interfaceSCR__BaseFactionEditableAttribute.html" target="_top" xlink:title="Group Faction Attribute for getting and setting varriables in Editor Attribute window.">
<polygon fill="white" stroke="#666666" points="704,-346 535,-346 535,-327 704,-327 704,-346"/>
<text text-anchor="middle" x="619.5" y="-334" font-family="Helvetica,sans-Serif" font-size="10.00">SCR_BaseFactionEditableAttribute</text>
</a>
</g>
</g>
<!-- Node1&#45;&gt;Node4 -->
<g id="edge3" class="edge">
<title>Node1&#45;&gt;Node4</title>
<path fill="none" stroke="#63b8ff" d="M437.1,-155.1C477.7,-195.7 576.86,-294.86 608.57,-326.57"/>
<polygon fill="#63b8ff" stroke="#63b8ff" points="439.91,-152.96 430.37,-148.37 434.96,-157.91 439.91,-152.96"/>
</g>
<!-- Node8 -->
<g id="node8" class="node">
<title>Node8</title>
<g id="a_node8"><a xlink:href="interfaceSCR__BaseMultiSelectPresetsEditorAttribute.html" target="_top" xlink:title=" ">
<polygon fill="white" stroke="#666666" points="693,-174.5 546,-174.5 546,-144.5 693,-144.5 693,-174.5"/>
<text text-anchor="start" x="554" y="-162.5" font-family="Helvetica,sans-Serif" font-size="10.00">SCR_BaseMultiSelectPresets</text>
<text text-anchor="middle" x="619.5" y="-151.5" font-family="Helvetica,sans-Serif" font-size="10.00">EditorAttribute</text>
</a>
</g>
</g>
<!-- Node1&#45;&gt;Node8 -->
<g id="edge7" class="edge">
<title>Node1&#45;&gt;Node8</title>
<path fill="none" stroke="#63b8ff" d="M510.18,-147.52C522.1,-148.84 534.2,-150.18 545.77,-151.46"/>
<polygon fill="#63b8ff" stroke="#63b8ff" points="510.62,-143.94 500.29,-146.32 509.85,-150.9 510.62,-143.94"/>
</g>
<!-- Node26 -->
<g id="node26" class="node">
<title>Node26</title>
<g id="a_node26"><a xlink:href="interfaceSCR__TimePresetsEditorAttribute.html" target="_top" xlink:title="Daytime Attribute for getting and setting varriables in Editor Attribute window.">
<polygon fill="white" stroke="#666666" points="699,-126 540,-126 540,-107 699,-107 699,-126"/>
<text text-anchor="middle" x="619.5" y="-114" font-family="Helvetica,sans-Serif" font-size="10.00">SCR_TimePresetsEditorAttribute</text>
</a>
</g>
</g>
<!-- Node1&#45;&gt;Node26 -->
<g id="edge25" class="edge">
<title>Node1&#45;&gt;Node26</title>
<path fill="none" stroke="#63b8ff" d="M509.98,-127.95C519.88,-126.91 529.91,-125.85 539.66,-124.82"/>
<polygon fill="#63b8ff" stroke="#63b8ff" points="509.87,-124.55 500.29,-129.08 510.61,-131.51 509.87,-124.55"/>
</g>
<!-- Node27 -->
<g id="node27" class="node">
<title>Node27</title>
<g id="a_node27"><a xlink:href="interfaceSCR__WeatherInstantEditorAttribute.html" target="_top" xlink:title="Weather Attribute for getting and setting varriables in Editor Attribute window.">
<polygon fill="white" stroke="#666666" points="686.5,-88.5 552.5,-88.5 552.5,-58.5 686.5,-58.5 686.5,-88.5"/>
<text text-anchor="start" x="560.5" y="-76.5" font-family="Helvetica,sans-Serif" font-size="10.00">SCR_WeatherInstantEditor</text>
<text text-anchor="middle" x="619.5" y="-65.5" font-family="Helvetica,sans-Serif" font-size="10.00">Attribute</text>
</a>
</g>
</g>
<!-- Node1&#45;&gt;Node27 -->
<g id="edge26" class="edge">
<title>Node1&#45;&gt;Node27</title>
<path fill="none" stroke="#63b8ff" d="M457.05,-123.93C479.56,-115.93 508.8,-105.79 535,-97.5 544.06,-94.63 553.72,-91.72 563.13,-88.96"/>
<polygon fill="#63b8ff" stroke="#63b8ff" points="456.14,-120.89 447.9,-127.55 458.49,-127.48 456.14,-120.89"/>
</g>
<!-- Node2 -->
<g id="node2" class="node">
<title>Node2</title>
<g id="a_node2"><a xlink:href="interfaceSCR__BaseFloatValueHolderEditorAttribute.html" target="_top" xlink:title="Attribute base for Name, icon and float value for other attributes to inherent from.">
<polygon fill="white" stroke="#666666" points="302,-152.5 163,-152.5 163,-122.5 302,-122.5 302,-152.5"/>
<text text-anchor="start" x="171" y="-140.5" font-family="Helvetica,sans-Serif" font-size="10.00">SCR_BaseFloatValueHolder</text>
<text text-anchor="middle" x="232.5" y="-129.5" font-family="Helvetica,sans-Serif" font-size="10.00">EditorAttribute</text>
</a>
</g>
</g>
<!-- Node2&#45;&gt;Node1 -->
<g id="edge1" class="edge">
<title>Node2&#45;&gt;Node1</title>
<path fill="none" stroke="#63b8ff" d="M313.22,-137.5C321.32,-137.5 329.55,-137.5 337.65,-137.5"/>
<polygon fill="#63b8ff" stroke="#63b8ff" points="313.28,-134 303.28,-137.5 313.28,-141 313.28,-134"/>
</g>
<!-- Node3 -->
<g id="node3" class="node">
<title>Node3</title>
<g id="a_node3"><a xlink:href="interfaceSCR__BaseEditorAttribute.html" target="_top" xlink:title="Base Attribute Script for other attributes to inherent from to get and set varriables in Editor Attri...">
<polygon fill="white" stroke="#666666" points="127,-147 0,-147 0,-128 127,-128 127,-147"/>
<text text-anchor="middle" x="63.5" y="-135" font-family="Helvetica,sans-Serif" font-size="10.00">SCR_BaseEditorAttribute</text>
</a>
</g>
</g>
<!-- Node3&#45;&gt;Node2 -->
<g id="edge2" class="edge">
<title>Node3&#45;&gt;Node2</title>
<path fill="none" stroke="#63b8ff" d="M138.14,-137.5C146.28,-137.5 154.54,-137.5 162.61,-137.5"/>
<polygon fill="#63b8ff" stroke="#63b8ff" points="138.16,-134 128.16,-137.5 138.16,-141 138.16,-134"/>
</g>
<!-- Node5 -->
<g id="node5" class="node">
<title>Node5</title>
<g id="a_node5"><a xlink:href="interfaceSCR__AIGroupFactionEditorAttribute.html" target="_top" xlink:title="Group Faction Attribute for getting and setting varriables in Editor Attribute window.">
<polygon fill="white" stroke="#666666" points="888.5,-421.5 753.5,-421.5 753.5,-391.5 888.5,-391.5 888.5,-421.5"/>
<text text-anchor="start" x="761.5" y="-409.5" font-family="Helvetica,sans-Serif" font-size="10.00">SCR_AIGroupFactionEditor</text>
<text text-anchor="middle" x="821" y="-398.5" font-family="Helvetica,sans-Serif" font-size="10.00">Attribute</text>
</a>
</g>
</g>
<!-- Node4&#45;&gt;Node5 -->
<g id="edge4" class="edge">
<title>Node4&#45;&gt;Node5</title>
<path fill="none" stroke="#63b8ff" d="M654.5,-350.38C678.28,-359.89 710.87,-372.54 740,-382.5 748.51,-385.41 757.59,-388.32 766.46,-391.05"/>
<polygon fill="#63b8ff" stroke="#63b8ff" points="656.15,-346.87 645.56,-346.38 653.53,-353.36 656.15,-346.87"/>
</g>
<!-- Node6 -->
<g id="node6" class="node">
<title>Node6</title>
<g id="a_node6"><a xlink:href="interfaceSCR__ArsenalFactionEditorAttribute.html" target="_top" xlink:title="Arsenal Faction Attribute for getting and setting varriables in Editor Attribute window.">
<polygon fill="white" stroke="#666666" points="887.5,-373.5 754.5,-373.5 754.5,-343.5 887.5,-343.5 887.5,-373.5"/>
<text text-anchor="start" x="762.5" y="-361.5" font-family="Helvetica,sans-Serif" font-size="10.00">SCR_ArsenalFactionEditor</text>
<text text-anchor="middle" x="821" y="-350.5" font-family="Helvetica,sans-Serif" font-size="10.00">Attribute</text>
</a>
</g>
</g>
<!-- Node4&#45;&gt;Node6 -->
<g id="edge5" class="edge">
<title>Node4&#45;&gt;Node6</title>
<path fill="none" stroke="#63b8ff" d="M714.83,-346.9C728.09,-348.36 741.48,-349.84 754.06,-351.23"/>
<polygon fill="#63b8ff" stroke="#63b8ff" points="715.56,-343.35 705.24,-345.73 714.79,-350.31 715.56,-343.35"/>
</g>
<!-- Node7 -->
<g id="node7" class="node">
<title>Node7</title>
<g id="a_node7"><a xlink:href="interfaceSCR__EntityFactionEditorAttribute.html" target="_top" xlink:title="A Generic entity faction changer.">
<polygon fill="white" stroke="#666666" points="902,-325 740,-325 740,-306 902,-306 902,-325"/>
<text text-anchor="middle" x="821" y="-313" font-family="Helvetica,sans-Serif" font-size="10.00">SCR_EntityFactionEditorAttribute</text>
</a>
</g>
</g>
<!-- Node4&#45;&gt;Node7 -->
<g id="edge6" class="edge">
<title>Node4&#45;&gt;Node7</title>
<path fill="none" stroke="#63b8ff" d="M715.03,-326.55C723.27,-325.68 731.55,-324.81 739.67,-323.96"/>
<polygon fill="#63b8ff" stroke="#63b8ff" points="714.82,-323.16 705.24,-327.69 715.55,-330.12 714.82,-323.16"/>
</g>
<!-- Node9 -->
<g id="node9" class="node">
<title>Node9</title>
<g id="a_node9"><a xlink:href="interfaceSCR__ArsenalEnabledTypesEditorAttribute.html" target="_top" xlink:title=" ">
<polygon fill="white" stroke="#666666" points="902,-287.5 740,-287.5 740,-257.5 902,-257.5 902,-287.5"/>
<text text-anchor="start" x="748" y="-275.5" font-family="Helvetica,sans-Serif" font-size="10.00">SCR_ArsenalEnabledTypesEditor</text>
<text text-anchor="middle" x="821" y="-264.5" font-family="Helvetica,sans-Serif" font-size="10.00">Attribute</text>
</a>
</g>
</g>
<!-- Node8&#45;&gt;Node9 -->
<g id="edge8" class="edge">
<title>Node8&#45;&gt;Node9</title>
<path fill="none" stroke="#63b8ff" d="M645.21,-181.99C668.26,-201.93 704.34,-230.57 740,-248.5 746.35,-251.69 753.2,-254.54 760.12,-257.06"/>
<polygon fill="#63b8ff" stroke="#63b8ff" points="647.87,-178.79 638.05,-174.82 643.25,-184.05 647.87,-178.79"/>
</g>
<!-- Node10 -->
<g id="node10" class="node">
<title>Node10</title>
<g id="a_node10"><a xlink:href="interfaceSCR__GameOverFactionsEditorAttribute.html" target="_top" xlink:title=" ">
<polygon fill="white" stroke="#666666" points="896.5,-239.5 745.5,-239.5 745.5,-209.5 896.5,-209.5 896.5,-239.5"/>
<text text-anchor="start" x="753.5" y="-227.5" font-family="Helvetica,sans-Serif" font-size="10.00">SCR_GameOverFactionsEditor</text>
<text text-anchor="middle" x="821" y="-216.5" font-family="Helvetica,sans-Serif" font-size="10.00">Attribute</text>
</a>
</g>
</g>
<!-- Node8&#45;&gt;Node10 -->
<g id="edge9" class="edge">
<title>Node8&#45;&gt;Node10</title>
<path fill="none" stroke="#63b8ff" d="M676.06,-178.36C696.18,-185.11 719.08,-192.73 740,-199.5 749.69,-202.64 760.06,-205.93 770.02,-209.05"/>
<polygon fill="#63b8ff" stroke="#63b8ff" points="677.42,-174.78 666.83,-174.91 675.19,-181.42 677.42,-174.78"/>
</g>
<!-- Node11 -->
<g id="node11" class="node">
<title>Node11</title>
<g id="a_node11"><a xlink:href="interfaceSCR__LoadoutBaseEditorAttribute.html" target="_top" xlink:title=" ">
<polygon fill="white" stroke="#666666" points="901.5,-191 740.5,-191 740.5,-172 901.5,-172 901.5,-191"/>
<text text-anchor="middle" x="821" y="-179" font-family="Helvetica,sans-Serif" font-size="10.00">SCR_LoadoutBaseEditorAttribute</text>
</a>
</g>
</g>
<!-- Node8&#45;&gt;Node11 -->
<g id="edge10" class="edge">
<title>Node8&#45;&gt;Node11</title>
<path fill="none" stroke="#63b8ff" d="M704.22,-168.73C716.16,-170.05 728.4,-171.4 740.26,-172.71"/>
<polygon fill="#63b8ff" stroke="#63b8ff" points="704.69,-165.15 694.37,-167.54 703.93,-172.11 704.69,-165.15"/>
</g>
<!-- Node22 -->
<g id="node22" class="node">
<title>Node22</title>
<g id="a_node22"><a xlink:href="interfaceSCR__LoadoutSavingBlackListEditorAttribute.html" target="_top" xlink:title=" ">
<polygon fill="white" stroke="#666666" points="894,-153.5 748,-153.5 748,-123.5 894,-123.5 894,-153.5"/>
<text text-anchor="start" x="756" y="-141.5" font-family="Helvetica,sans-Serif" font-size="10.00">SCR_LoadoutSavingBlackList</text>
<text text-anchor="middle" x="821" y="-130.5" font-family="Helvetica,sans-Serif" font-size="10.00">EditorAttribute</text>
</a>
</g>
</g>
<!-- Node8&#45;&gt;Node22 -->
<g id="edge21" class="edge">
<title>Node8&#45;&gt;Node22</title>
<path fill="none" stroke="#63b8ff" d="M704.29,-150.68C718.7,-149.16 733.58,-147.6 747.66,-146.11"/>
<polygon fill="#63b8ff" stroke="#63b8ff" points="703.95,-147.3 694.37,-151.83 704.68,-154.26 703.95,-147.3"/>
</g>
<!-- Node23 -->
<g id="node23" class="node">
<title>Node23</title>
<g id="a_node23"><a xlink:href="interfaceSCR__ModesEditorAttribute.html" target="_top" xlink:title="Modes and Budget attribute for getting and setting varriables in Editor Attribute window.">
<polygon fill="white" stroke="#666666" points="888,-105 754,-105 754,-86 888,-86 888,-105"/>
<text text-anchor="middle" x="821" y="-93" font-family="Helvetica,sans-Serif" font-size="10.00">SCR_ModesEditorAttribute</text>
</a>
</g>
</g>
<!-- Node8&#45;&gt;Node23 -->
<g id="edge22" class="edge">
<title>Node8&#45;&gt;Node23</title>
<path fill="none" stroke="#63b8ff" d="M688.41,-140.53C693.73,-138.63 698.99,-136.61 704,-134.5 720.87,-127.39 722.94,-121.12 740,-114.5 749.18,-110.94 759.23,-107.91 769,-105.4"/>
<polygon fill="#63b8ff" stroke="#63b8ff" points="687.46,-137.49 679.12,-144.03 689.72,-144.12 687.46,-137.49"/>
</g>
<!-- Node24 -->
<g id="node24" class="node">
<title>Node24</title>
<g id="a_node24"><a xlink:href="interfaceSCR__PlayableFactionsEditorAttribute.html" target="_top" xlink:title=" ">
<polygon fill="white" stroke="#666666" points="892.5,-67.5 749.5,-67.5 749.5,-37.5 892.5,-37.5 892.5,-67.5"/>
<text text-anchor="start" x="757.5" y="-55.5" font-family="Helvetica,sans-Serif" font-size="10.00">SCR_PlayableFactionsEditor</text>
<text text-anchor="middle" x="821" y="-44.5" font-family="Helvetica,sans-Serif" font-size="10.00">Attribute</text>
</a>
</g>
</g>
<!-- Node8&#45;&gt;Node24 -->
<g id="edge23" class="edge">
<title>Node8&#45;&gt;Node24</title>
<path fill="none" stroke="#63b8ff" d="M697.49,-138.98C699.74,-137.58 701.92,-136.09 704,-134.5 728.1,-116.06 715.91,-94.94 740,-76.5 744.26,-73.24 748.96,-70.42 753.88,-67.98"/>
<polygon fill="#63b8ff" stroke="#63b8ff" points="695.96,-136.36 688.83,-144.2 699.3,-142.52 695.96,-136.36"/>
</g>
<!-- Node25 -->
<g id="node25" class="node">
<title>Node25</title>
<g id="a_node25"><a xlink:href="interfaceSCR__PlayerModesEditorAttribute.html" target="_top" xlink:title=" ">
<polygon fill="white" stroke="#666666" points="901.5,-19 740.5,-19 740.5,0 901.5,0 901.5,-19"/>
<text text-anchor="middle" x="821" y="-7" font-family="Helvetica,sans-Serif" font-size="10.00">SCR_PlayerModesEditorAttribute</text>
</a>
</g>
</g>
<!-- Node8&#45;&gt;Node25 -->
<g id="edge24" class="edge">
<title>Node8&#45;&gt;Node25</title>
<path fill="none" stroke="#63b8ff" d="M699.77,-138.2C701.24,-137.03 702.65,-135.8 704,-134.5 739.82,-99.97 703.2,-61.99 740,-28.5 744.01,-24.85 748.6,-21.86 753.49,-19.43"/>
<polygon fill="#63b8ff" stroke="#63b8ff" points="698.17,-135.74 691.82,-144.22 702.07,-141.54 698.17,-135.74"/>
</g>
<!-- Node12 -->
<g id="node12" class="node">
<title>Node12</title>
<g id="a_node12"><a xlink:href="interfaceSCR__ArsenalBaseEditorAttribute.html" target="_top" xlink:title=" ">
<polygon fill="white" stroke="#666666" points="1098,-251 938,-251 938,-232 1098,-232 1098,-251"/>
<text text-anchor="middle" x="1018" y="-239" font-family="Helvetica,sans-Serif" font-size="10.00">SCR_ArsenalBaseEditorAttribute</text>
</a>
</g>
</g>
<!-- Node11&#45;&gt;Node12 -->
<g id="edge11" class="edge">
<title>Node11&#45;&gt;Node12</title>
<path fill="none" stroke="#63b8ff" d="M878.59,-194.12C886.49,-196.12 894.47,-198.27 902,-200.5 933.3,-209.77 968.56,-222.72 991.69,-231.57"/>
<polygon fill="#63b8ff" stroke="#63b8ff" points="879.46,-190.49 868.92,-191.5 877.79,-197.29 879.46,-190.49"/>
</g>
<!-- Node18 -->
<g id="node18" class="node">
<title>Node18</title>
<g id="a_node18"><a xlink:href="interfaceSCR__FactionLoadoutBaseEditorAttribute.html" target="_top" xlink:title=" ">
<polygon fill="white" stroke="#666666" points="1096.5,-136.5 939.5,-136.5 939.5,-106.5 1096.5,-106.5 1096.5,-136.5"/>
<text text-anchor="start" x="947.5" y="-124.5" font-family="Helvetica,sans-Serif" font-size="10.00">SCR_FactionLoadoutBaseEditor</text>
<text text-anchor="middle" x="1018" y="-113.5" font-family="Helvetica,sans-Serif" font-size="10.00">Attribute</text>
</a>
</g>
</g>
<!-- Node11&#45;&gt;Node18 -->
<g id="edge17" class="edge">
<title>Node11&#45;&gt;Node18</title>
<path fill="none" stroke="#63b8ff" d="M878.59,-168.88C886.49,-166.88 894.47,-164.73 902,-162.5 927.3,-155.01 955.19,-145.11 977.17,-136.91"/>
<polygon fill="#63b8ff" stroke="#63b8ff" points="877.79,-165.71 868.92,-171.5 879.46,-172.51 877.79,-165.71"/>
</g>
<!-- Node13 -->
<g id="node13" class="node">
<title>Node13</title>
<g id="a_node13"><a xlink:href="interfaceSCR__ArsenalEquipmentEditorAttribute.html" target="_top" xlink:title=" ">
<polygon fill="white" stroke="#666666" points="1297.5,-342.5 1150.5,-342.5 1150.5,-312.5 1297.5,-312.5 1297.5,-342.5"/>
<text text-anchor="start" x="1158.5" y="-330.5" font-family="Helvetica,sans-Serif" font-size="10.00">SCR_ArsenalEquipmentEditor</text>
<text text-anchor="middle" x="1224" y="-319.5" font-family="Helvetica,sans-Serif" font-size="10.00">Attribute</text>
</a>
</g>
</g>
<!-- Node12&#45;&gt;Node13 -->
<g id="edge12" class="edge">
<title>Node12&#45;&gt;Node13</title>
<path fill="none" stroke="#63b8ff" d="M1043.68,-256.98C1066.44,-270.72 1101.51,-290.56 1134,-303.5 1141.88,-306.64 1150.31,-309.5 1158.73,-312.08"/>
<polygon fill="#63b8ff" stroke="#63b8ff" points="1045.8,-253.56 1035.44,-251.33 1042.14,-259.53 1045.8,-253.56"/>
</g>
<!-- Node14 -->
<g id="node14" class="node">
<title>Node14</title>
<g id="a_node14"><a xlink:href="interfaceSCR__ArsenalOutfitEditorAttribute.html" target="_top" xlink:title=" ">
<polygon fill="white" stroke="#666666" points="1304.5,-294 1143.5,-294 1143.5,-275 1304.5,-275 1304.5,-294"/>
<text text-anchor="middle" x="1224" y="-282" font-family="Helvetica,sans-Serif" font-size="10.00">SCR_ArsenalOutfitEditorAttribute</text>
</a>
</g>
</g>
<!-- Node12&#45;&gt;Node14 -->
<g id="edge13" class="edge">
<title>Node12&#45;&gt;Node14</title>
<path fill="none" stroke="#63b8ff" d="M1077.04,-253.73C1108.23,-260.31 1146.19,-268.31 1175.59,-274.51"/>
<polygon fill="#63b8ff" stroke="#63b8ff" points="1077.82,-250.11 1067.31,-251.47 1076.38,-256.96 1077.82,-250.11"/>
</g>
<!-- Node15 -->
<g id="node15" class="node">
<title>Node15</title>
<g id="a_node15"><a xlink:href="interfaceSCR__ArsenalWeaponRackEquipmentEditorAttribute.html" target="_top" xlink:title=" ">
<polygon fill="white" stroke="#666666" points="1314,-256.5 1134,-256.5 1134,-226.5 1314,-226.5 1314,-256.5"/>
<text text-anchor="start" x="1142" y="-244.5" font-family="Helvetica,sans-Serif" font-size="10.00">SCR_ArsenalWeaponRackEquipment</text>
<text text-anchor="middle" x="1224" y="-233.5" font-family="Helvetica,sans-Serif" font-size="10.00">EditorAttribute</text>
</a>
</g>
</g>
<!-- Node12&#45;&gt;Node15 -->
<g id="edge14" class="edge">
<title>Node12&#45;&gt;Node15</title>
<path fill="none" stroke="#63b8ff" d="M1109.36,-241.5C1117.41,-241.5 1125.56,-241.5 1133.61,-241.5"/>
<polygon fill="#63b8ff" stroke="#63b8ff" points="1109.46,-238 1099.46,-241.5 1109.46,-245 1109.46,-238"/>
</g>
<!-- Node16 -->
<g id="node16" class="node">
<title>Node16</title>
<g id="a_node16"><a xlink:href="interfaceSCR__ArsenalWeaponsEditorAttribute.html" target="_top" xlink:title=" ">
<polygon fill="white" stroke="#666666" points="1295,-208.5 1153,-208.5 1153,-178.5 1295,-178.5 1295,-208.5"/>
<text text-anchor="start" x="1161" y="-196.5" font-family="Helvetica,sans-Serif" font-size="10.00">SCR_ArsenalWeaponsEditor</text>
<text text-anchor="middle" x="1224" y="-185.5" font-family="Helvetica,sans-Serif" font-size="10.00">Attribute</text>
</a>
</g>
</g>
<!-- Node12&#45;&gt;Node16 -->
<g id="edge15" class="edge">
<title>Node12&#45;&gt;Node16</title>
<path fill="none" stroke="#63b8ff" d="M1071.73,-229.09C1097.9,-222.93 1129.76,-215.44 1157.48,-208.92"/>
<polygon fill="#63b8ff" stroke="#63b8ff" points="1071.2,-225.86 1062.27,-231.55 1072.8,-232.67 1071.2,-225.86"/>
</g>
<!-- Node17 -->
<g id="node17" class="node">
<title>Node17</title>
<g id="a_node17"><a xlink:href="interfaceSCR__ArsenalWeaponRackWeaponsEditorAttribute.html" target="_top" xlink:title=" ">
<polygon fill="white" stroke="#666666" points="1525,-208.5 1350,-208.5 1350,-178.5 1525,-178.5 1525,-208.5"/>
<text text-anchor="start" x="1358" y="-196.5" font-family="Helvetica,sans-Serif" font-size="10.00">SCR_ArsenalWeaponRackWeapons</text>
<text text-anchor="middle" x="1437.5" y="-185.5" font-family="Helvetica,sans-Serif" font-size="10.00">EditorAttribute</text>
</a>
</g>
</g>
<!-- Node16&#45;&gt;Node17 -->
<g id="edge16" class="edge">
<title>Node16&#45;&gt;Node17</title>
<path fill="none" stroke="#63b8ff" d="M1306.2,-193.5C1320.48,-193.5 1335.4,-193.5 1349.82,-193.5"/>
<polygon fill="#63b8ff" stroke="#63b8ff" points="1306.43,-190 1296.43,-193.5 1306.43,-197 1306.43,-190"/>
</g>
<!-- Node19 -->
<g id="node19" class="node">
<title>Node19</title>
<g id="a_node19"><a xlink:href="interfaceSCR__FactionLoadoutEquipmentEditorAttribute.html" target="_top" xlink:title=" ">
<polygon fill="white" stroke="#666666" points="1301.5,-160.5 1146.5,-160.5 1146.5,-130.5 1301.5,-130.5 1301.5,-160.5"/>
<text text-anchor="start" x="1154.5" y="-148.5" font-family="Helvetica,sans-Serif" font-size="10.00">SCR_FactionLoadoutEquipment</text>
<text text-anchor="middle" x="1224" y="-137.5" font-family="Helvetica,sans-Serif" font-size="10.00">EditorAttribute</text>
</a>
</g>
</g>
<!-- Node18&#45;&gt;Node19 -->
<g id="edge18" class="edge">
<title>Node18&#45;&gt;Node19</title>
<path fill="none" stroke="#63b8ff" d="M1107.66,-131.93C1120.45,-133.43 1133.52,-134.97 1146.06,-136.45"/>
<polygon fill="#63b8ff" stroke="#63b8ff" points="1108.34,-128.37 1098,-130.68 1107.52,-135.32 1108.34,-128.37"/>
</g>
<!-- Node20 -->
<g id="node20" class="node">
<title>Node20</title>
<g id="a_node20"><a xlink:href="interfaceSCR__FactionLoadoutOutfitEditorAttribute.html" target="_top" xlink:title=" ">
<polygon fill="white" stroke="#666666" points="1290,-112.5 1158,-112.5 1158,-82.5 1290,-82.5 1290,-112.5"/>
<text text-anchor="start" x="1166" y="-100.5" font-family="Helvetica,sans-Serif" font-size="10.00">SCR_FactionLoadoutOutfit</text>
<text text-anchor="middle" x="1224" y="-89.5" font-family="Helvetica,sans-Serif" font-size="10.00">EditorAttribute</text>
</a>
</g>
</g>
<!-- Node18&#45;&gt;Node20 -->
<g id="edge19" class="edge">
<title>Node18&#45;&gt;Node20</title>
<path fill="none" stroke="#63b8ff" d="M1107.9,-111.04C1124.62,-109.07 1141.82,-107.05 1157.66,-105.19"/>
<polygon fill="#63b8ff" stroke="#63b8ff" points="1107.52,-107.68 1098,-112.32 1108.34,-114.63 1107.52,-107.68"/>
</g>
<!-- Node21 -->
<g id="node21" class="node">
<title>Node21</title>
<g id="a_node21"><a xlink:href="interfaceSCR__FactionLoadoutWeaponsEditorAttribute.html" target="_top" xlink:title=" ">
<polygon fill="white" stroke="#666666" points="1299,-64.5 1149,-64.5 1149,-34.5 1299,-34.5 1299,-64.5"/>
<text text-anchor="start" x="1157" y="-52.5" font-family="Helvetica,sans-Serif" font-size="10.00">SCR_FactionLoadoutWeapons</text>
<text text-anchor="middle" x="1224" y="-41.5" font-family="Helvetica,sans-Serif" font-size="10.00">EditorAttribute</text>
</a>
</g>
</g>
<!-- Node18&#45;&gt;Node21 -->
<g id="edge20" class="edge">
<title>Node18&#45;&gt;Node21</title>
<path fill="none" stroke="#63b8ff" d="M1062.78,-101.63C1084.02,-92.39 1110.07,-81.68 1134,-73.5 1142.78,-70.5 1152.15,-67.62 1161.4,-64.97"/>
<polygon fill="#63b8ff" stroke="#63b8ff" points="1061.51,-98.8 1053.76,-106.02 1064.33,-105.21 1061.51,-98.8"/>
</g>
</g>
</svg>
