<?xml version="1.0" encoding="UTF-8" standalone="no"?>
<!DOCTYPE svg PUBLIC "-//W3C//DTD SVG 1.1//EN"
 "http://www.w3.org/Graphics/SVG/1.1/DTD/svg11.dtd">
<!-- Generated by graphviz version 8.0.2 (20230410.1723)
 -->
<!-- Title: SCR_EntityWaypointClass Pages: 1 -->
<svg width="314pt" height="247pt"
 viewBox="0.00 0.00 313.50 247.00" xmlns="http://www.w3.org/2000/svg" xmlns:xlink="http://www.w3.org/1999/xlink">
<g id="graph0" class="graph" transform="scale(1 1) rotate(0) translate(4 243)">
<title>SCR_EntityWaypointClass</title>
<!-- Node1 -->
<g id="node1" class="node">
<title>Node1</title>
<g id="a_node1"><a xlink:title=" ">
<polygon fill="#999999" stroke="#666666" points="217,-129 83,-129 83,-110 217,-110 217,-129"/>
<text text-anchor="middle" x="150" y="-117" font-family="Helvetica,sans-Serif" font-size="10.00">SCR_EntityWaypointClass</text>
</a>
</g>
</g>
<!-- Node4 -->
<g id="node4" class="node">
<title>Node4</title>
<g id="a_node4"><a xlink:href="interfaceSCR__TimedWaypointClass.html" target="_top" xlink:title=" ">
<polygon fill="white" stroke="#666666" points="217,-74 83,-74 83,-55 217,-55 217,-74"/>
<text text-anchor="middle" x="150" y="-62" font-family="Helvetica,sans-Serif" font-size="10.00">SCR_TimedWaypointClass</text>
</a>
</g>
</g>
<!-- Node1&#45;&gt;Node4 -->
<g id="edge3" class="edge">
<title>Node1&#45;&gt;Node4</title>
<path fill="none" stroke="#63b8ff" d="M150,-98.93C150,-90.53 150,-81.13 150,-74.44"/>
<polygon fill="#63b8ff" stroke="#63b8ff" points="146.5,-98.75 150,-108.75 153.5,-98.75 146.5,-98.75"/>
</g>
<!-- Node2 -->
<g id="node2" class="node">
<title>Node2</title>
<g id="a_node2"><a xlink:href="interfaceSCR__AIWaypointClass.html" target="_top" xlink:title=" ">
<polygon fill="white" stroke="#666666" points="208.5,-184 91.5,-184 91.5,-165 208.5,-165 208.5,-184"/>
<text text-anchor="middle" x="150" y="-172" font-family="Helvetica,sans-Serif" font-size="10.00">SCR_AIWaypointClass</text>
</a>
</g>
</g>
<!-- Node2&#45;&gt;Node1 -->
<g id="edge1" class="edge">
<title>Node2&#45;&gt;Node1</title>
<path fill="none" stroke="#63b8ff" d="M150,-153.93C150,-145.53 150,-136.13 150,-129.44"/>
<polygon fill="#63b8ff" stroke="#63b8ff" points="146.5,-153.75 150,-163.75 153.5,-153.75 146.5,-153.75"/>
</g>
<!-- Node3 -->
<g id="node3" class="node">
<title>Node3</title>
<g id="a_node3"><a xlink:title=" ">
<polygon fill="white" stroke="#666666" points="196,-239 104,-239 104,-220 196,-220 196,-239"/>
<text text-anchor="middle" x="150" y="-227" font-family="Helvetica,sans-Serif" font-size="10.00">AIWaypointClass</text>
</a>
</g>
</g>
<!-- Node3&#45;&gt;Node2 -->
<g id="edge2" class="edge">
<title>Node3&#45;&gt;Node2</title>
<path fill="none" stroke="#63b8ff" d="M150,-208.93C150,-200.53 150,-191.13 150,-184.44"/>
<polygon fill="#63b8ff" stroke="#63b8ff" points="146.5,-208.75 150,-218.75 153.5,-208.75 146.5,-208.75"/>
</g>
<!-- Node5 -->
<g id="node5" class="node">
<title>Node5</title>
<g id="a_node5"><a xlink:href="interfaceSCR__DefendWaypointClass.html" target="_top" xlink:title=" ">
<polygon fill="white" stroke="#666666" points="138,-19 0,-19 0,0 138,0 138,-19"/>
<text text-anchor="middle" x="69" y="-7" font-family="Helvetica,sans-Serif" font-size="10.00">SCR_DefendWaypointClass</text>
</a>
</g>
</g>
<!-- Node4&#45;&gt;Node5 -->
<g id="edge4" class="edge">
<title>Node4&#45;&gt;Node5</title>
<path fill="none" stroke="#63b8ff" d="M127.43,-48.73C113,-39.29 94.76,-27.36 82.54,-19.36"/>
<polygon fill="#63b8ff" stroke="#63b8ff" points="124.98,-51.96 135.26,-54.51 128.81,-46.11 124.98,-51.96"/>
</g>
<!-- Node6 -->
<g id="node6" class="node">
<title>Node6</title>
<g id="a_node6"><a xlink:href="interfaceSCR__SuppressWaypointClass.html" target="_top" xlink:title=" ">
<polygon fill="white" stroke="#666666" points="305.5,-19 156.5,-19 156.5,0 305.5,0 305.5,-19"/>
<text text-anchor="middle" x="231" y="-7" font-family="Helvetica,sans-Serif" font-size="10.00">SCR_SuppressWaypointClass</text>
</a>
</g>
</g>
<!-- Node4&#45;&gt;Node6 -->
<g id="edge5" class="edge">
<title>Node4&#45;&gt;Node6</title>
<path fill="none" stroke="#63b8ff" d="M172.57,-48.73C187,-39.29 205.24,-27.36 217.46,-19.36"/>
<polygon fill="#63b8ff" stroke="#63b8ff" points="171.19,-46.11 164.74,-54.51 175.02,-51.96 171.19,-46.11"/>
</g>
</g>
</svg>
