<?xml version="1.0" encoding="UTF-8" standalone="no"?>
<!DOCTYPE svg PUBLIC "-//W3C//DTD SVG 1.1//EN"
 "http://www.w3.org/Graphics/SVG/1.1/DTD/svg11.dtd">
<!-- Generated by graphviz version 8.0.2 (20230410.1723)
 -->
<!-- Title: SCR_BuildingTutorialStage9Class Pages: 1 -->
<svg width="148pt" height="159pt"
 viewBox="0.00 0.00 148.00 159.00" xmlns="http://www.w3.org/2000/svg" xmlns:xlink="http://www.w3.org/1999/xlink">
<g id="graph0" class="graph" transform="scale(1 1) rotate(0) translate(4 155)">
<title>SCR_BuildingTutorialStage9Class</title>
<!-- Node1 -->
<g id="node1" class="node">
<title>Node1</title>
<g id="a_node1"><a xlink:title=" ">
<polygon fill="#999999" stroke="#666666" points="139.5,-30 0.5,-30 0.5,0 139.5,0 139.5,-30"/>
<text text-anchor="start" x="8.5" y="-18" font-family="Helvetica,sans-Serif" font-size="10.00">SCR_BuildingTutorialStage9</text>
<text text-anchor="middle" x="70" y="-7" font-family="Helvetica,sans-Serif" font-size="10.00">Class</text>
</a>
</g>
</g>
<!-- Node2 -->
<g id="node2" class="node">
<title>Node2</title>
<g id="a_node2"><a xlink:href="interfaceSCR__BaseCampaignTutorialArlandStageClass.html" target="_top" xlink:title=" ">
<polygon fill="white" stroke="#666666" points="140,-96 0,-96 0,-66 140,-66 140,-96"/>
<text text-anchor="start" x="8" y="-84" font-family="Helvetica,sans-Serif" font-size="10.00">SCR_BaseCampaignTutorial</text>
<text text-anchor="middle" x="70" y="-73" font-family="Helvetica,sans-Serif" font-size="10.00">ArlandStageClass</text>
</a>
</g>
</g>
<!-- Node2&#45;&gt;Node1 -->
<g id="edge1" class="edge">
<title>Node2&#45;&gt;Node1</title>
<path fill="none" stroke="#63b8ff" d="M70,-54.97C70,-46.55 70,-37.45 70,-30.16"/>
<polygon fill="#63b8ff" stroke="#63b8ff" points="66.5,-54.8 70,-64.8 73.5,-54.8 66.5,-54.8"/>
</g>
<!-- Node3 -->
<g id="node3" class="node">
<title>Node3</title>
<g id="a_node3"><a xlink:title=" ">
<polygon fill="white" stroke="#666666" points="120.5,-151 19.5,-151 19.5,-132 120.5,-132 120.5,-151"/>
<text text-anchor="middle" x="70" y="-139" font-family="Helvetica,sans-Serif" font-size="10.00">GenericEntityClass</text>
</a>
</g>
</g>
<!-- Node3&#45;&gt;Node2 -->
<g id="edge2" class="edge">
<title>Node3&#45;&gt;Node2</title>
<path fill="none" stroke="#63b8ff" d="M70,-121.08C70,-112.92 70,-103.6 70,-96.11"/>
<polygon fill="#63b8ff" stroke="#63b8ff" points="66.5,-120.87 70,-130.87 73.5,-120.87 66.5,-120.87"/>
</g>
</g>
</svg>
