<?xml version="1.0" encoding="UTF-8" standalone="no"?>
<!DOCTYPE svg PUBLIC "-//W3C//DTD SVG 1.1//EN"
 "http://www.w3.org/Graphics/SVG/1.1/DTD/svg11.dtd">
<!-- Generated by graphviz version 8.0.2 (20230410.1723)
 -->
<!-- Title: DropAndMoveOperationCallback Pages: 1 -->
<svg width="164pt" height="203pt"
 viewBox="0.00 0.00 164.00 203.00" xmlns="http://www.w3.org/2000/svg" xmlns:xlink="http://www.w3.org/1999/xlink">
<g id="graph0" class="graph" transform="scale(1 1) rotate(0) translate(4 199)">
<title>DropAndMoveOperationCallback</title>
<!-- Node1 -->
<g id="node1" class="node">
<title>Node1</title>
<g id="a_node1"><a xlink:title=" ">
<polygon fill="#999999" stroke="#666666" points="156,-19 0,-19 0,0 156,0 156,-19"/>
<text text-anchor="middle" x="78" y="-7" font-family="Helvetica,sans-Serif" font-size="10.00">DropAndMoveOperationCallback</text>
</a>
</g>
</g>
<!-- Node2 -->
<g id="node2" class="node">
<title>Node2</title>
<g id="a_node2"><a xlink:href="interfaceScriptedInventoryOperationCallback.html" target="_top" xlink:title=" ">
<polygon fill="white" stroke="#666666" points="144.5,-85 11.5,-85 11.5,-55 144.5,-55 144.5,-85"/>
<text text-anchor="start" x="19.5" y="-73" font-family="Helvetica,sans-Serif" font-size="10.00">ScriptedInventoryOperation</text>
<text text-anchor="middle" x="78" y="-62" font-family="Helvetica,sans-Serif" font-size="10.00">Callback</text>
</a>
</g>
</g>
<!-- Node2&#45;&gt;Node1 -->
<g id="edge1" class="edge">
<title>Node2&#45;&gt;Node1</title>
<path fill="none" stroke="#63b8ff" d="M78,-43.59C78,-34.85 78,-25.65 78,-19.18"/>
<polygon fill="#63b8ff" stroke="#63b8ff" points="74.5,-43.54 78,-53.54 81.5,-43.54 74.5,-43.54"/>
</g>
<!-- Node3 -->
<g id="node3" class="node">
<title>Node3</title>
<g id="a_node3"><a xlink:href="interfaceInventoryOperationCallback.html" target="_top" xlink:title=" ">
<polygon fill="white" stroke="#666666" points="145,-140 11,-140 11,-121 145,-121 145,-140"/>
<text text-anchor="middle" x="78" y="-128" font-family="Helvetica,sans-Serif" font-size="10.00">InventoryOperationCallback</text>
</a>
</g>
</g>
<!-- Node3&#45;&gt;Node2 -->
<g id="edge2" class="edge">
<title>Node3&#45;&gt;Node2</title>
<path fill="none" stroke="#63b8ff" d="M78,-110.08C78,-101.92 78,-92.6 78,-85.11"/>
<polygon fill="#63b8ff" stroke="#63b8ff" points="74.5,-109.87 78,-119.87 81.5,-109.87 74.5,-109.87"/>
</g>
<!-- Node4 -->
<g id="node4" class="node">
<title>Node4</title>
<g id="a_node4"><a xlink:title=" ">
<polygon fill="white" stroke="#666666" points="106,-195 50,-195 50,-176 106,-176 106,-195"/>
<text text-anchor="middle" x="78" y="-183" font-family="Helvetica,sans-Serif" font-size="10.00">Managed</text>
</a>
</g>
</g>
<!-- Node4&#45;&gt;Node3 -->
<g id="edge3" class="edge">
<title>Node4&#45;&gt;Node3</title>
<path fill="none" stroke="#63b8ff" d="M78,-164.93C78,-156.53 78,-147.13 78,-140.44"/>
<polygon fill="#63b8ff" stroke="#63b8ff" points="74.5,-164.75 78,-174.75 81.5,-164.75 74.5,-164.75"/>
</g>
</g>
</svg>
