<?xml version="1.0" encoding="UTF-8" standalone="no"?>
<!DOCTYPE svg PUBLIC "-//W3C//DTD SVG 1.1//EN"
 "http://www.w3.org/Graphics/SVG/1.1/DTD/svg11.dtd">
<!-- Generated by graphviz version 8.0.2 (20230410.1723)
 -->
<!-- Title: SCR_KeybindDialogBase Pages: 1 -->
<svg width="324pt" height="192pt"
 viewBox="0.00 0.00 324.00 192.00" xmlns="http://www.w3.org/2000/svg" xmlns:xlink="http://www.w3.org/1999/xlink">
<g id="graph0" class="graph" transform="scale(1 1) rotate(0) translate(4 188)">
<title>SCR_KeybindDialogBase</title>
<!-- Node1 -->
<g id="node1" class="node">
<title>Node1</title>
<g id="a_node1"><a xlink:title=" ">
<polygon fill="#999999" stroke="#666666" points="224,-74 97,-74 97,-55 224,-55 224,-74"/>
<text text-anchor="middle" x="160.5" y="-62" font-family="Helvetica,sans-Serif" font-size="10.00">SCR_KeybindDialogBase</text>
</a>
</g>
</g>
<!-- Node4 -->
<g id="node4" class="node">
<title>Node4</title>
<g id="a_node4"><a xlink:href="interfaceSCR__AdvancedKeybindDialogUI.html" target="_top" xlink:title=" ">
<polygon fill="white" stroke="#666666" points="155,-19 0,-19 0,0 155,0 155,-19"/>
<text text-anchor="middle" x="77.5" y="-7" font-family="Helvetica,sans-Serif" font-size="10.00">SCR_AdvancedKeybindDialogUI</text>
</a>
</g>
</g>
<!-- Node1&#45;&gt;Node4 -->
<g id="edge3" class="edge">
<title>Node1&#45;&gt;Node4</title>
<path fill="none" stroke="#63b8ff" d="M137.37,-48.73C122.58,-39.29 103.9,-27.36 91.37,-19.36"/>
<polygon fill="#63b8ff" stroke="#63b8ff" points="135.11,-52.08 145.42,-54.51 138.88,-46.18 135.11,-52.08"/>
</g>
<!-- Node5 -->
<g id="node5" class="node">
<title>Node5</title>
<g id="a_node5"><a xlink:href="interfaceSCR__SimpleKeybindDialogUI.html" target="_top" xlink:title=" ">
<polygon fill="white" stroke="#666666" points="316,-19 173,-19 173,0 316,0 316,-19"/>
<text text-anchor="middle" x="244.5" y="-7" font-family="Helvetica,sans-Serif" font-size="10.00">SCR_SimpleKeybindDialogUI</text>
</a>
</g>
</g>
<!-- Node1&#45;&gt;Node5 -->
<g id="edge4" class="edge">
<title>Node1&#45;&gt;Node5</title>
<path fill="none" stroke="#63b8ff" d="M183.91,-48.73C198.87,-39.29 217.78,-27.36 230.46,-19.36"/>
<polygon fill="#63b8ff" stroke="#63b8ff" points="182.34,-46.21 175.75,-54.51 186.07,-52.13 182.34,-46.21"/>
</g>
<!-- Node2 -->
<g id="node2" class="node">
<title>Node2</title>
<g id="a_node2"><a xlink:href="interfaceSCR__ConfigurableDialogUi.html" target="_top" xlink:title=" ">
<polygon fill="white" stroke="#666666" points="226,-129 95,-129 95,-110 226,-110 226,-129"/>
<text text-anchor="middle" x="160.5" y="-117" font-family="Helvetica,sans-Serif" font-size="10.00">SCR_ConfigurableDialogUi</text>
</a>
</g>
</g>
<!-- Node2&#45;&gt;Node1 -->
<g id="edge1" class="edge">
<title>Node2&#45;&gt;Node1</title>
<path fill="none" stroke="#63b8ff" d="M160.5,-98.93C160.5,-90.53 160.5,-81.13 160.5,-74.44"/>
<polygon fill="#63b8ff" stroke="#63b8ff" points="157,-98.75 160.5,-108.75 164,-98.75 157,-98.75"/>
</g>
<!-- Node3 -->
<g id="node3" class="node">
<title>Node3</title>
<g id="a_node3"><a xlink:title=" ">
<polygon fill="white" stroke="#666666" points="227,-184 94,-184 94,-165 227,-165 227,-184"/>
<text text-anchor="middle" x="160.5" y="-172" font-family="Helvetica,sans-Serif" font-size="10.00">ScriptedWidgetComponent</text>
</a>
</g>
</g>
<!-- Node3&#45;&gt;Node2 -->
<g id="edge2" class="edge">
<title>Node3&#45;&gt;Node2</title>
<path fill="none" stroke="#63b8ff" d="M160.5,-153.93C160.5,-145.53 160.5,-136.13 160.5,-129.44"/>
<polygon fill="#63b8ff" stroke="#63b8ff" points="157,-153.75 160.5,-163.75 164,-153.75 157,-153.75"/>
</g>
</g>
</svg>
