<?xml version="1.0" encoding="UTF-8" standalone="no"?>
<!DOCTYPE svg PUBLIC "-//W3C//DTD SVG 1.1//EN"
 "http://www.w3.org/Graphics/SVG/1.1/DTD/svg11.dtd">
<!-- Generated by graphviz version 8.0.2 (20230410.1723)
 -->
<!-- Title: SCR_EditorAttributePresetEntry Pages: 1 -->
<svg width="158pt" height="159pt"
 viewBox="0.00 0.00 158.00 159.00" xmlns="http://www.w3.org/2000/svg" xmlns:xlink="http://www.w3.org/1999/xlink">
<g id="graph0" class="graph" transform="scale(1 1) rotate(0) translate(4 155)">
<title>SCR_EditorAttributePresetEntry</title>
<!-- Node1 -->
<g id="node1" class="node">
<title>Node1</title>
<g id="a_node1"><a xlink:title=" ">
<polygon fill="#999999" stroke="#666666" points="141.5,-96 8.5,-96 8.5,-66 141.5,-66 141.5,-96"/>
<text text-anchor="start" x="16.5" y="-84" font-family="Helvetica,sans-Serif" font-size="10.00">SCR_EditorAttributePreset</text>
<text text-anchor="middle" x="75" y="-73" font-family="Helvetica,sans-Serif" font-size="10.00">Entry</text>
</a>
</g>
</g>
<!-- Node3 -->
<g id="node3" class="node">
<title>Node3</title>
<g id="a_node3"><a xlink:href="interfaceSCR__EditorAttributePresetMultiSelectEntry.html" target="_top" xlink:title=" ">
<polygon fill="white" stroke="#666666" points="141.5,-30 8.5,-30 8.5,0 141.5,0 141.5,-30"/>
<text text-anchor="start" x="16.5" y="-18" font-family="Helvetica,sans-Serif" font-size="10.00">SCR_EditorAttributePreset</text>
<text text-anchor="middle" x="75" y="-7" font-family="Helvetica,sans-Serif" font-size="10.00">MultiSelectEntry</text>
</a>
</g>
</g>
<!-- Node1&#45;&gt;Node3 -->
<g id="edge2" class="edge">
<title>Node1&#45;&gt;Node3</title>
<path fill="none" stroke="#63b8ff" d="M75,-54.97C75,-46.55 75,-37.45 75,-30.16"/>
<polygon fill="#63b8ff" stroke="#63b8ff" points="71.5,-54.8 75,-64.8 78.5,-54.8 71.5,-54.8"/>
</g>
<!-- Node2 -->
<g id="node2" class="node">
<title>Node2</title>
<g id="a_node2"><a xlink:href="interfaceSCR__BaseEditorAttributeEntry.html" target="_top" xlink:title=" ">
<polygon fill="white" stroke="#666666" points="150,-151 0,-151 0,-132 150,-132 150,-151"/>
<text text-anchor="middle" x="75" y="-139" font-family="Helvetica,sans-Serif" font-size="10.00">SCR_BaseEditorAttributeEntry</text>
</a>
</g>
</g>
<!-- Node2&#45;&gt;Node1 -->
<g id="edge1" class="edge">
<title>Node2&#45;&gt;Node1</title>
<path fill="none" stroke="#63b8ff" d="M75,-121.08C75,-112.92 75,-103.6 75,-96.11"/>
<polygon fill="#63b8ff" stroke="#63b8ff" points="71.5,-120.87 75,-130.87 78.5,-120.87 71.5,-120.87"/>
</g>
</g>
</svg>
