<?xml version="1.0" encoding="UTF-8" standalone="no"?>
<!DOCTYPE svg PUBLIC "-//W3C//DTD SVG 1.1//EN"
 "http://www.w3.org/Graphics/SVG/1.1/DTD/svg11.dtd">
<!-- Generated by graphviz version 8.0.2 (20230410.1723)
 -->
<!-- Title: SCR_PhysicalHitZonesRegenDamageEffect Pages: 1 -->
<svg width="155pt" height="423pt"
 viewBox="0.00 0.00 155.00 423.00" xmlns="http://www.w3.org/2000/svg" xmlns:xlink="http://www.w3.org/1999/xlink">
<g id="graph0" class="graph" transform="scale(1 1) rotate(0) translate(4 419)">
<title>SCR_PhysicalHitZonesRegenDamageEffect</title>
<!-- Node1 -->
<g id="node1" class="node">
<title>Node1</title>
<g id="a_node1"><a xlink:title=" ">
<polygon fill="#999999" stroke="#666666" points="146.5,-30 0.5,-30 0.5,0 146.5,0 146.5,-30"/>
<text text-anchor="start" x="8.5" y="-18" font-family="Helvetica,sans-Serif" font-size="10.00">SCR_PhysicalHitZonesRegen</text>
<text text-anchor="middle" x="73.5" y="-7" font-family="Helvetica,sans-Serif" font-size="10.00">DamageEffect</text>
</a>
</g>
</g>
<!-- Node2 -->
<g id="node2" class="node">
<title>Node2</title>
<g id="a_node2"><a xlink:href="interfaceSCR__DotDamageEffect.html" target="_top" xlink:title=" ">
<polygon fill="white" stroke="#666666" points="132.5,-85 14.5,-85 14.5,-66 132.5,-66 132.5,-85"/>
<text text-anchor="middle" x="73.5" y="-73" font-family="Helvetica,sans-Serif" font-size="10.00">SCR_DotDamageEffect</text>
</a>
</g>
</g>
<!-- Node2&#45;&gt;Node1 -->
<g id="edge1" class="edge">
<title>Node2&#45;&gt;Node1</title>
<path fill="none" stroke="#63b8ff" d="M73.5,-55.08C73.5,-46.92 73.5,-37.6 73.5,-30.11"/>
<polygon fill="#63b8ff" stroke="#63b8ff" points="70,-54.87 73.5,-64.87 77,-54.87 70,-54.87"/>
</g>
<!-- Node3 -->
<g id="node3" class="node">
<title>Node3</title>
<g id="a_node3"><a xlink:href="interfaceDotDamageEffect.html" target="_top" xlink:title=" ">
<polygon fill="white" stroke="#666666" points="119.5,-140 27.5,-140 27.5,-121 119.5,-121 119.5,-140"/>
<text text-anchor="middle" x="73.5" y="-128" font-family="Helvetica,sans-Serif" font-size="10.00">DotDamageEffect</text>
</a>
</g>
</g>
<!-- Node3&#45;&gt;Node2 -->
<g id="edge2" class="edge">
<title>Node3&#45;&gt;Node2</title>
<path fill="none" stroke="#63b8ff" d="M73.5,-109.93C73.5,-101.53 73.5,-92.13 73.5,-85.44"/>
<polygon fill="#63b8ff" stroke="#63b8ff" points="70,-109.75 73.5,-119.75 77,-109.75 70,-109.75"/>
</g>
<!-- Node4 -->
<g id="node4" class="node">
<title>Node4</title>
<g id="a_node4"><a xlink:href="interfaceSCR__PersistentDamageEffect.html" target="_top" xlink:title=" ">
<polygon fill="white" stroke="#666666" points="147,-195 0,-195 0,-176 147,-176 147,-195"/>
<text text-anchor="middle" x="73.5" y="-183" font-family="Helvetica,sans-Serif" font-size="10.00">SCR_PersistentDamageEffect</text>
</a>
</g>
</g>
<!-- Node4&#45;&gt;Node3 -->
<g id="edge3" class="edge">
<title>Node4&#45;&gt;Node3</title>
<path fill="none" stroke="#63b8ff" d="M73.5,-164.93C73.5,-156.53 73.5,-147.13 73.5,-140.44"/>
<polygon fill="#63b8ff" stroke="#63b8ff" points="70,-164.75 73.5,-174.75 77,-164.75 70,-164.75"/>
</g>
<!-- Node5 -->
<g id="node5" class="node">
<title>Node5</title>
<g id="a_node5"><a xlink:href="interfacePersistentDamageEffect.html" target="_top" xlink:title=" ">
<polygon fill="white" stroke="#666666" points="134.5,-250 12.5,-250 12.5,-231 134.5,-231 134.5,-250"/>
<text text-anchor="middle" x="73.5" y="-238" font-family="Helvetica,sans-Serif" font-size="10.00">PersistentDamageEffect</text>
</a>
</g>
</g>
<!-- Node5&#45;&gt;Node4 -->
<g id="edge4" class="edge">
<title>Node5&#45;&gt;Node4</title>
<path fill="none" stroke="#63b8ff" d="M73.5,-219.93C73.5,-211.53 73.5,-202.13 73.5,-195.44"/>
<polygon fill="#63b8ff" stroke="#63b8ff" points="70,-219.75 73.5,-229.75 77,-219.75 70,-219.75"/>
</g>
<!-- Node6 -->
<g id="node6" class="node">
<title>Node6</title>
<g id="a_node6"><a xlink:href="interfaceSCR__DamageEffect.html" target="_top" xlink:title=" ">
<polygon fill="white" stroke="#666666" points="125,-305 22,-305 22,-286 125,-286 125,-305"/>
<text text-anchor="middle" x="73.5" y="-293" font-family="Helvetica,sans-Serif" font-size="10.00">SCR_DamageEffect</text>
</a>
</g>
</g>
<!-- Node6&#45;&gt;Node5 -->
<g id="edge5" class="edge">
<title>Node6&#45;&gt;Node5</title>
<path fill="none" stroke="#63b8ff" d="M73.5,-274.93C73.5,-266.53 73.5,-257.13 73.5,-250.44"/>
<polygon fill="#63b8ff" stroke="#63b8ff" points="70,-274.75 73.5,-284.75 77,-274.75 70,-274.75"/>
</g>
<!-- Node7 -->
<g id="node7" class="node">
<title>Node7</title>
<g id="a_node7"><a xlink:href="interfaceBaseDamageEffect.html" target="_top" xlink:title=" ">
<polygon fill="white" stroke="#666666" points="123.5,-360 23.5,-360 23.5,-341 123.5,-341 123.5,-360"/>
<text text-anchor="middle" x="73.5" y="-348" font-family="Helvetica,sans-Serif" font-size="10.00">BaseDamageEffect</text>
</a>
</g>
</g>
<!-- Node7&#45;&gt;Node6 -->
<g id="edge6" class="edge">
<title>Node7&#45;&gt;Node6</title>
<path fill="none" stroke="#63b8ff" d="M73.5,-329.93C73.5,-321.53 73.5,-312.13 73.5,-305.44"/>
<polygon fill="#63b8ff" stroke="#63b8ff" points="70,-329.75 73.5,-339.75 77,-329.75 70,-329.75"/>
</g>
<!-- Node8 -->
<g id="node8" class="node">
<title>Node8</title>
<g id="a_node8"><a xlink:title=" ">
<polygon fill="white" stroke="#666666" points="116.5,-415 30.5,-415 30.5,-396 116.5,-396 116.5,-415"/>
<text text-anchor="middle" x="73.5" y="-403" font-family="Helvetica,sans-Serif" font-size="10.00">ScriptAndConfig</text>
</a>
</g>
</g>
<!-- Node8&#45;&gt;Node7 -->
<g id="edge7" class="edge">
<title>Node8&#45;&gt;Node7</title>
<path fill="none" stroke="#63b8ff" d="M73.5,-384.93C73.5,-376.53 73.5,-367.13 73.5,-360.44"/>
<polygon fill="#63b8ff" stroke="#63b8ff" points="70,-384.75 73.5,-394.75 77,-384.75 70,-384.75"/>
</g>
</g>
</svg>
