<?xml version="1.0" encoding="UTF-8" standalone="no"?>
<!DOCTYPE svg PUBLIC "-//W3C//DTD SVG 1.1//EN"
 "http://www.w3.org/Graphics/SVG/1.1/DTD/svg11.dtd">
<!-- Generated by graphviz version 8.0.2 (20230410.1723)
 -->
<!-- Title: CharacterCommand Pages: 1 -->
<svg width="324pt" height="582pt"
 viewBox="0.00 0.00 324.00 582.00" xmlns="http://www.w3.org/2000/svg" xmlns:xlink="http://www.w3.org/1999/xlink">
<g id="graph0" class="graph" transform="scale(1 1) rotate(0) translate(4 578)">
<title>CharacterCommand</title>
<!-- Node1 -->
<g id="node1" class="node">
<title>Node1</title>
<g id="a_node1"><a xlink:title=" ">
<polygon fill="#999999" stroke="#666666" points="103,-296 0,-296 0,-277 103,-277 103,-296"/>
<text text-anchor="middle" x="51.5" y="-284" font-family="Helvetica,sans-Serif" font-size="10.00">CharacterCommand</text>
</a>
</g>
</g>
<!-- Node2 -->
<g id="node2" class="node">
<title>Node2</title>
<g id="a_node2"><a xlink:href="interfaceCharacterCommandClimb.html" target="_top" xlink:title="command itself">
<polygon fill="white" stroke="#666666" points="291.5,-574 163.5,-574 163.5,-555 291.5,-555 291.5,-574"/>
<text text-anchor="middle" x="227.5" y="-562" font-family="Helvetica,sans-Serif" font-size="10.00">CharacterCommandClimb</text>
</a>
</g>
</g>
<!-- Node1&#45;&gt;Node2 -->
<g id="edge1" class="edge">
<title>Node1&#45;&gt;Node2</title>
<path fill="none" stroke="#63b8ff" d="M52.81,-307.21C54.73,-356.69 66.86,-482.43 139,-546.5 145.96,-552.68 154.46,-556.95 163.4,-559.87"/>
<polygon fill="#63b8ff" stroke="#63b8ff" points="56.28,-307.25 52.51,-297.36 49.29,-307.45 56.28,-307.25"/>
</g>
<!-- Node3 -->
<g id="node3" class="node">
<title>Node3</title>
<g id="a_node3"><a xlink:href="interfaceCharacterCommandDamage.html" target="_top" xlink:title=" ">
<polygon fill="white" stroke="#666666" points="297,-537 158,-537 158,-518 297,-518 297,-537"/>
<text text-anchor="middle" x="227.5" y="-525" font-family="Helvetica,sans-Serif" font-size="10.00">CharacterCommandDamage</text>
</a>
</g>
</g>
<!-- Node1&#45;&gt;Node3 -->
<g id="edge2" class="edge">
<title>Node1&#45;&gt;Node3</title>
<path fill="none" stroke="#63b8ff" d="M54.11,-307.24C58.74,-351.68 76.1,-456.32 139,-509.5 144.57,-514.21 151.04,-517.79 157.9,-520.51"/>
<polygon fill="#63b8ff" stroke="#63b8ff" points="57.52,-307.04 53.12,-297.4 50.55,-307.68 57.52,-307.04"/>
</g>
<!-- Node4 -->
<g id="node4" class="node">
<title>Node4</title>
<g id="a_node4"><a xlink:href="interfaceCharacterCommandDamageFullBody.html" target="_top" xlink:title=" ">
<polygon fill="white" stroke="#666666" points="316,-500 139,-500 139,-481 316,-481 316,-500"/>
<text text-anchor="middle" x="227.5" y="-488" font-family="Helvetica,sans-Serif" font-size="10.00">CharacterCommandDamageFullBody</text>
</a>
</g>
</g>
<!-- Node1&#45;&gt;Node4 -->
<g id="edge3" class="edge">
<title>Node1&#45;&gt;Node4</title>
<path fill="none" stroke="#63b8ff" d="M55.89,-307.24C63.39,-346.13 85.2,-429.95 139,-472.5 143.01,-475.67 147.45,-478.33 152.12,-480.55"/>
<polygon fill="#63b8ff" stroke="#63b8ff" points="59.17,-306.72 53.97,-297.5 52.28,-307.96 59.17,-306.72"/>
</g>
<!-- Node5 -->
<g id="node5" class="node">
<title>Node5</title>
<g id="a_node5"><a xlink:href="interfaceCharacterCommandDeath.html" target="_top" xlink:title=" ">
<polygon fill="white" stroke="#666666" points="291.5,-463 163.5,-463 163.5,-444 291.5,-444 291.5,-463"/>
<text text-anchor="middle" x="227.5" y="-451" font-family="Helvetica,sans-Serif" font-size="10.00">CharacterCommandDeath</text>
</a>
</g>
</g>
<!-- Node1&#45;&gt;Node5 -->
<g id="edge4" class="edge">
<title>Node1&#45;&gt;Node5</title>
<path fill="none" stroke="#63b8ff" d="M58.36,-306.93C68.85,-339.59 94.03,-403.13 139,-435.5 146.18,-440.66 154.49,-444.42 163.09,-447.14"/>
<polygon fill="#63b8ff" stroke="#63b8ff" points="61.42,-305.96 55.16,-297.42 54.73,-308 61.42,-305.96"/>
</g>
<!-- Node6 -->
<g id="node6" class="node">
<title>Node6</title>
<g id="a_node6"><a xlink:href="interfaceCharacterCommandFall.html" target="_top" xlink:title=" ">
<polygon fill="white" stroke="#666666" points="287,-426 168,-426 168,-407 287,-407 287,-426"/>
<text text-anchor="middle" x="227.5" y="-414" font-family="Helvetica,sans-Serif" font-size="10.00">CharacterCommandFall</text>
</a>
</g>
</g>
<!-- Node1&#45;&gt;Node6 -->
<g id="edge5" class="edge">
<title>Node1&#45;&gt;Node6</title>
<path fill="none" stroke="#63b8ff" d="M62.05,-306.2C75.5,-331.76 102.53,-375.73 139,-398.5 147.68,-403.92 157.71,-407.74 167.8,-410.43"/>
<polygon fill="#63b8ff" stroke="#63b8ff" points="64.77,-304.83 57.12,-297.5 58.52,-308 64.77,-304.83"/>
</g>
<!-- Node7 -->
<g id="node7" class="node">
<title>Node7</title>
<g id="a_node7"><a xlink:href="interfaceCharacterCommandGadget.html" target="_top" xlink:title=" ">
<polygon fill="white" stroke="#666666" points="294.5,-389 160.5,-389 160.5,-370 294.5,-370 294.5,-389"/>
<text text-anchor="middle" x="227.5" y="-377" font-family="Helvetica,sans-Serif" font-size="10.00">CharacterCommandGadget</text>
</a>
</g>
</g>
<!-- Node1&#45;&gt;Node7 -->
<g id="edge6" class="edge">
<title>Node1&#45;&gt;Node7</title>
<path fill="none" stroke="#63b8ff" d="M67.63,-304.06C83.59,-321.42 110.36,-347.36 139,-361.5 145.68,-364.8 152.92,-367.49 160.29,-369.69"/>
<polygon fill="#63b8ff" stroke="#63b8ff" points="70.98,-302.44 61.7,-297.32 65.76,-307.11 70.98,-302.44"/>
</g>
<!-- Node8 -->
<g id="node8" class="node">
<title>Node8</title>
<g id="a_node8"><a xlink:href="interfaceCharacterCommandItemChange.html" target="_top" xlink:title=" ">
<polygon fill="white" stroke="#666666" points="305,-352 150,-352 150,-333 305,-333 305,-352"/>
<text text-anchor="middle" x="227.5" y="-340" font-family="Helvetica,sans-Serif" font-size="10.00">CharacterCommandItemChange</text>
</a>
</g>
</g>
<!-- Node1&#45;&gt;Node8 -->
<g id="edge7" class="edge">
<title>Node1&#45;&gt;Node8</title>
<path fill="none" stroke="#63b8ff" d="M81.58,-301.12C98.09,-308.94 119.33,-318.23 139,-324.5 148.61,-327.56 158.97,-330.23 169.1,-332.5"/>
<polygon fill="#63b8ff" stroke="#63b8ff" points="83.49,-297.67 72.97,-296.47 80.45,-303.97 83.49,-297.67"/>
</g>
<!-- Node9 -->
<g id="node9" class="node">
<title>Node9</title>
<g id="a_node9"><a xlink:href="interfaceCharacterCommandItemUse.html" target="_top" xlink:title=" ">
<polygon fill="white" stroke="#666666" points="297,-315 158,-315 158,-296 297,-296 297,-315"/>
<text text-anchor="middle" x="227.5" y="-303" font-family="Helvetica,sans-Serif" font-size="10.00">CharacterCommandItemUse</text>
</a>
</g>
</g>
<!-- Node1&#45;&gt;Node9 -->
<g id="edge8" class="edge">
<title>Node1&#45;&gt;Node9</title>
<path fill="none" stroke="#63b8ff" d="M113.87,-293.2C128,-294.74 143.11,-296.39 157.53,-297.97"/>
<polygon fill="#63b8ff" stroke="#63b8ff" points="114.62,-289.65 104.3,-292.05 113.86,-296.61 114.62,-289.65"/>
</g>
<!-- Node10 -->
<g id="node10" class="node">
<title>Node10</title>
<g id="a_node10"><a xlink:href="interfaceCharacterCommandLadder.html" target="_top" xlink:title=" ">
<polygon fill="white" stroke="#666666" points="293.5,-278 161.5,-278 161.5,-259 293.5,-259 293.5,-278"/>
<text text-anchor="middle" x="227.5" y="-266" font-family="Helvetica,sans-Serif" font-size="10.00">CharacterCommandLadder</text>
</a>
</g>
</g>
<!-- Node1&#45;&gt;Node10 -->
<g id="edge9" class="edge">
<title>Node1&#45;&gt;Node10</title>
<path fill="none" stroke="#63b8ff" d="M114.14,-280.12C129.34,-278.55 145.67,-276.86 161.05,-275.27"/>
<polygon fill="#63b8ff" stroke="#63b8ff" points="113.88,-276.73 104.3,-281.25 114.6,-283.7 113.88,-276.73"/>
</g>
<!-- Node11 -->
<g id="node11" class="node">
<title>Node11</title>
<g id="a_node11"><a xlink:href="interfaceCharacterCommandMelee.html" target="_top" xlink:title=" ">
<polygon fill="white" stroke="#666666" points="292,-241 163,-241 163,-222 292,-222 292,-241"/>
<text text-anchor="middle" x="227.5" y="-229" font-family="Helvetica,sans-Serif" font-size="10.00">CharacterCommandMelee</text>
</a>
</g>
</g>
<!-- Node1&#45;&gt;Node11 -->
<g id="edge10" class="edge">
<title>Node1&#45;&gt;Node11</title>
<path fill="none" stroke="#63b8ff" d="M83,-272.22C99.34,-264.97 119.98,-256.47 139,-250.5 149.98,-247.06 161.92,-244.01 173.35,-241.43"/>
<polygon fill="#63b8ff" stroke="#63b8ff" points="82.11,-269.23 74.43,-276.53 84.99,-275.61 82.11,-269.23"/>
</g>
<!-- Node12 -->
<g id="node12" class="node">
<title>Node12</title>
<g id="a_node12"><a xlink:href="interfaceCharacterCommandMove.html" target="_top" xlink:title="CharacterCommandMove.">
<polygon fill="white" stroke="#666666" points="290,-204 165,-204 165,-185 290,-185 290,-204"/>
<text text-anchor="middle" x="227.5" y="-192" font-family="Helvetica,sans-Serif" font-size="10.00">CharacterCommandMove</text>
</a>
</g>
</g>
<!-- Node1&#45;&gt;Node12 -->
<g id="edge11" class="edge">
<title>Node1&#45;&gt;Node12</title>
<path fill="none" stroke="#63b8ff" d="M68.46,-268.75C84.59,-251.93 111.07,-227.24 139,-213.5 147.09,-209.52 156,-206.37 164.96,-203.87"/>
<polygon fill="#63b8ff" stroke="#63b8ff" points="66.27,-266.03 62.01,-275.73 71.39,-270.81 66.27,-266.03"/>
</g>
<!-- Node13 -->
<g id="node13" class="node">
<title>Node13</title>
<g id="a_node13"><a xlink:href="interfaceCharacterCommandSlide.html" target="_top" xlink:title=" ">
<polygon fill="white" stroke="#666666" points="290,-167 165,-167 165,-148 290,-148 290,-167"/>
<text text-anchor="middle" x="227.5" y="-155" font-family="Helvetica,sans-Serif" font-size="10.00">CharacterCommandSlide</text>
</a>
</g>
</g>
<!-- Node1&#45;&gt;Node13 -->
<g id="edge12" class="edge">
<title>Node1&#45;&gt;Node13</title>
<path fill="none" stroke="#63b8ff" d="M62.17,-267.2C75.77,-242.17 102.96,-199.05 139,-176.5 146.77,-171.64 155.61,-168 164.61,-165.29"/>
<polygon fill="#63b8ff" stroke="#63b8ff" points="58.73,-265.23 57.19,-275.71 64.93,-268.48 58.73,-265.23"/>
</g>
<!-- Node14 -->
<g id="node14" class="node">
<title>Node14</title>
<g id="a_node14"><a xlink:href="interfaceCharacterCommandSwim.html" target="_top" xlink:title="CharacterCommandSwim &#45; swimming implementation.">
<polygon fill="white" stroke="#666666" points="291,-130 164,-130 164,-111 291,-111 291,-130"/>
<text text-anchor="middle" x="227.5" y="-118" font-family="Helvetica,sans-Serif" font-size="10.00">CharacterCommandSwim</text>
</a>
</g>
</g>
<!-- Node1&#45;&gt;Node14 -->
<g id="edge13" class="edge">
<title>Node1&#45;&gt;Node14</title>
<path fill="none" stroke="#63b8ff" d="M58.49,-266.39C69.14,-234.25 94.56,-171.66 139,-139.5 146.3,-134.21 154.79,-130.35 163.55,-127.53"/>
<polygon fill="#63b8ff" stroke="#63b8ff" points="54.89,-265.15 55.22,-275.74 61.57,-267.26 54.89,-265.15"/>
</g>
<!-- Node15 -->
<g id="node15" class="node">
<title>Node15</title>
<g id="a_node15"><a xlink:href="interfaceCharacterCommandUnconscious.html" target="_top" xlink:title=" ">
<polygon fill="white" stroke="#666666" points="307,-93 148,-93 148,-74 307,-74 307,-93"/>
<text text-anchor="middle" x="227.5" y="-81" font-family="Helvetica,sans-Serif" font-size="10.00">CharacterCommandUnconscious</text>
</a>
</g>
</g>
<!-- Node1&#45;&gt;Node15 -->
<g id="edge14" class="edge">
<title>Node1&#45;&gt;Node15</title>
<path fill="none" stroke="#63b8ff" d="M56,-266.04C63.7,-227.64 85.82,-144.86 139,-102.5 143.62,-98.82 148.8,-95.81 154.26,-93.36"/>
<polygon fill="#63b8ff" stroke="#63b8ff" points="52.42,-265.16 54.02,-275.63 59.3,-266.45 52.42,-265.16"/>
</g>
<!-- Node16 -->
<g id="node16" class="node">
<title>Node16</title>
<g id="a_node16"><a xlink:href="interfaceCharacterCommandVehicle.html" target="_top" xlink:title=" ">
<polygon fill="white" stroke="#666666" points="295,-56 160,-56 160,-37 295,-37 295,-56"/>
<text text-anchor="middle" x="227.5" y="-44" font-family="Helvetica,sans-Serif" font-size="10.00">CharacterCommandVehicle</text>
</a>
</g>
</g>
<!-- Node1&#45;&gt;Node16 -->
<g id="edge15" class="edge">
<title>Node1&#45;&gt;Node16</title>
<path fill="none" stroke="#63b8ff" d="M54.22,-265.99C59.06,-222.05 76.8,-118.51 139,-65.5 145.03,-60.36 152.14,-56.51 159.64,-53.65"/>
<polygon fill="#63b8ff" stroke="#63b8ff" points="50.66,-265.42 53.17,-275.71 57.63,-266.1 50.66,-265.42"/>
</g>
<!-- Node17 -->
<g id="node17" class="node">
<title>Node17</title>
<g id="a_node17"><a xlink:href="interfaceCharacterCommandWeapon.html" target="_top" xlink:title=" ">
<polygon fill="white" stroke="#666666" points="297,-19 158,-19 158,0 297,0 297,-19"/>
<text text-anchor="middle" x="227.5" y="-7" font-family="Helvetica,sans-Serif" font-size="10.00">CharacterCommandWeapon</text>
</a>
</g>
</g>
<!-- Node1&#45;&gt;Node17 -->
<g id="edge16" class="edge">
<title>Node1&#45;&gt;Node17</title>
<path fill="none" stroke="#63b8ff" d="M52.91,-266C55.06,-217 67.64,-92.43 139,-28.5 144.44,-23.62 150.83,-19.9 157.65,-17.07"/>
<polygon fill="#63b8ff" stroke="#63b8ff" points="49.39,-265.63 52.56,-275.74 56.38,-265.86 49.39,-265.63"/>
</g>
</g>
</svg>
