<?xml version="1.0" encoding="UTF-8" standalone="no"?>
<!DOCTYPE svg PUBLIC "-//W3C//DTD SVG 1.1//EN"
 "http://www.w3.org/Graphics/SVG/1.1/DTD/svg11.dtd">
<!-- Generated by graphviz version 8.0.2 (20230410.1723)
 -->
<!-- Title: SCR_AIToggleFlashlights Pages: 1 -->
<svg width="306pt" height="148pt"
 viewBox="0.00 0.00 306.00 148.00" xmlns="http://www.w3.org/2000/svg" xmlns:xlink="http://www.w3.org/1999/xlink">
<g id="graph0" class="graph" transform="scale(1 1) rotate(0) translate(4 144)">
<title>SCR_AIToggleFlashlights</title>
<!-- Node1 -->
<g id="node1" class="node">
<title>Node1</title>
<g id="a_node1"><a xlink:title=" ">
<polygon fill="#999999" stroke="#666666" points="212.5,-85 85.5,-85 85.5,-66 212.5,-66 212.5,-85"/>
<text text-anchor="middle" x="149" y="-73" font-family="Helvetica,sans-Serif" font-size="10.00">SCR_AIToggleFlashlights</text>
</a>
</g>
</g>
<!-- Node3 -->
<g id="node3" class="node">
<title>Node3</title>
<g id="a_node3"><a xlink:href="interfaceSCR__AIToggleFlashlightsOnAbort.html" target="_top" xlink:title=" ">
<polygon fill="white" stroke="#666666" points="140,-30 0,-30 0,0 140,0 140,-30"/>
<text text-anchor="start" x="8" y="-18" font-family="Helvetica,sans-Serif" font-size="10.00">SCR_AIToggleFlashlightsOn</text>
<text text-anchor="middle" x="70" y="-7" font-family="Helvetica,sans-Serif" font-size="10.00">Abort</text>
</a>
</g>
</g>
<!-- Node1&#45;&gt;Node3 -->
<g id="edge2" class="edge">
<title>Node1&#45;&gt;Node3</title>
<path fill="none" stroke="#63b8ff" d="M128.51,-59.33C116.48,-50.42 101.36,-39.22 89.5,-30.44"/>
<polygon fill="#63b8ff" stroke="#63b8ff" points="125.88,-62.48 136,-65.62 130.05,-56.85 125.88,-62.48"/>
</g>
<!-- Node4 -->
<g id="node4" class="node">
<title>Node4</title>
<g id="a_node4"><a xlink:href="interfaceSCR__AIToggleFlashlightsOnSimulate.html" target="_top" xlink:title=" ">
<polygon fill="white" stroke="#666666" points="298,-30 158,-30 158,0 298,0 298,-30"/>
<text text-anchor="start" x="166" y="-18" font-family="Helvetica,sans-Serif" font-size="10.00">SCR_AIToggleFlashlightsOn</text>
<text text-anchor="middle" x="228" y="-7" font-family="Helvetica,sans-Serif" font-size="10.00">Simulate</text>
</a>
</g>
</g>
<!-- Node1&#45;&gt;Node4 -->
<g id="edge3" class="edge">
<title>Node1&#45;&gt;Node4</title>
<path fill="none" stroke="#63b8ff" d="M169.49,-59.33C181.52,-50.42 196.64,-39.22 208.5,-30.44"/>
<polygon fill="#63b8ff" stroke="#63b8ff" points="167.95,-56.85 162,-65.62 172.12,-62.48 167.95,-56.85"/>
</g>
<!-- Node2 -->
<g id="node2" class="node">
<title>Node2</title>
<g id="a_node2"><a xlink:title=" ">
<polygon fill="white" stroke="#666666" points="190.5,-140 107.5,-140 107.5,-121 190.5,-121 190.5,-140"/>
<text text-anchor="middle" x="149" y="-128" font-family="Helvetica,sans-Serif" font-size="10.00">AITaskScripted</text>
</a>
</g>
</g>
<!-- Node2&#45;&gt;Node1 -->
<g id="edge1" class="edge">
<title>Node2&#45;&gt;Node1</title>
<path fill="none" stroke="#63b8ff" d="M149,-109.93C149,-101.53 149,-92.13 149,-85.44"/>
<polygon fill="#63b8ff" stroke="#63b8ff" points="145.5,-109.75 149,-119.75 152.5,-109.75 145.5,-109.75"/>
</g>
</g>
</svg>
