<?xml version="1.0" encoding="UTF-8" standalone="no"?>
<!DOCTYPE svg PUBLIC "-//W3C//DTD SVG 1.1//EN"
 "http://www.w3.org/Graphics/SVG/1.1/DTD/svg11.dtd">
<!-- Generated by graphviz version 8.0.2 (20230410.1723)
 -->
<!-- Title: SCR_MineInventoryItemComponent Pages: 1 -->
<svg width="179pt" height="313pt"
 viewBox="0.00 0.00 179.00 313.00" xmlns="http://www.w3.org/2000/svg" xmlns:xlink="http://www.w3.org/1999/xlink">
<g id="graph0" class="graph" transform="scale(1 1) rotate(0) translate(4 309)">
<title>SCR_MineInventoryItemComponent</title>
<!-- Node1 -->
<g id="node1" class="node">
<title>Node1</title>
<g id="a_node1"><a xlink:title=" ">
<polygon fill="#999999" stroke="#666666" points="170.5,-19 0.5,-19 0.5,0 170.5,0 170.5,-19"/>
<text text-anchor="middle" x="85.5" y="-7" font-family="Helvetica,sans-Serif" font-size="10.00">SCR_MineInventoryItemComponent</text>
</a>
</g>
</g>
<!-- Node2 -->
<g id="node2" class="node">
<title>Node2</title>
<g id="a_node2"><a xlink:href="interfaceSCR__PlaceableInventoryItemComponent.html" target="_top" xlink:title=" ">
<polygon fill="white" stroke="#666666" points="156.5,-85 14.5,-85 14.5,-55 156.5,-55 156.5,-85"/>
<text text-anchor="start" x="22.5" y="-73" font-family="Helvetica,sans-Serif" font-size="10.00">SCR_PlaceableInventoryItem</text>
<text text-anchor="middle" x="85.5" y="-62" font-family="Helvetica,sans-Serif" font-size="10.00">Component</text>
</a>
</g>
</g>
<!-- Node2&#45;&gt;Node1 -->
<g id="edge1" class="edge">
<title>Node2&#45;&gt;Node1</title>
<path fill="none" stroke="#63b8ff" d="M85.5,-43.59C85.5,-34.85 85.5,-25.65 85.5,-19.18"/>
<polygon fill="#63b8ff" stroke="#63b8ff" points="82,-43.54 85.5,-53.54 89,-43.54 82,-43.54"/>
</g>
<!-- Node3 -->
<g id="node3" class="node">
<title>Node3</title>
<g id="a_node3"><a xlink:href="interfaceSCR__BaseInventoryItemComponent.html" target="_top" xlink:title=" ">
<polygon fill="white" stroke="#666666" points="171,-140 0,-140 0,-121 171,-121 171,-140"/>
<text text-anchor="middle" x="85.5" y="-128" font-family="Helvetica,sans-Serif" font-size="10.00">SCR_BaseInventoryItemComponent</text>
</a>
</g>
</g>
<!-- Node3&#45;&gt;Node2 -->
<g id="edge2" class="edge">
<title>Node3&#45;&gt;Node2</title>
<path fill="none" stroke="#63b8ff" d="M85.5,-110.08C85.5,-101.92 85.5,-92.6 85.5,-85.11"/>
<polygon fill="#63b8ff" stroke="#63b8ff" points="82,-109.87 85.5,-119.87 89,-109.87 82,-109.87"/>
</g>
<!-- Node4 -->
<g id="node4" class="node">
<title>Node4</title>
<g id="a_node4"><a xlink:href="interfaceInventoryItemComponent.html" target="_top" xlink:title=" ">
<polygon fill="white" stroke="#666666" points="147,-195 24,-195 24,-176 147,-176 147,-195"/>
<text text-anchor="middle" x="85.5" y="-183" font-family="Helvetica,sans-Serif" font-size="10.00">InventoryItemComponent</text>
</a>
</g>
</g>
<!-- Node4&#45;&gt;Node3 -->
<g id="edge3" class="edge">
<title>Node4&#45;&gt;Node3</title>
<path fill="none" stroke="#63b8ff" d="M85.5,-164.93C85.5,-156.53 85.5,-147.13 85.5,-140.44"/>
<polygon fill="#63b8ff" stroke="#63b8ff" points="82,-164.75 85.5,-174.75 89,-164.75 82,-164.75"/>
</g>
<!-- Node5 -->
<g id="node5" class="node">
<title>Node5</title>
<g id="a_node5"><a xlink:href="interfaceGameComponent.html" target="_top" xlink:title=" ">
<polygon fill="white" stroke="#666666" points="131.5,-250 39.5,-250 39.5,-231 131.5,-231 131.5,-250"/>
<text text-anchor="middle" x="85.5" y="-238" font-family="Helvetica,sans-Serif" font-size="10.00">GameComponent</text>
</a>
</g>
</g>
<!-- Node5&#45;&gt;Node4 -->
<g id="edge4" class="edge">
<title>Node5&#45;&gt;Node4</title>
<path fill="none" stroke="#63b8ff" d="M85.5,-219.93C85.5,-211.53 85.5,-202.13 85.5,-195.44"/>
<polygon fill="#63b8ff" stroke="#63b8ff" points="82,-219.75 85.5,-229.75 89,-219.75 82,-219.75"/>
</g>
<!-- Node6 -->
<g id="node6" class="node">
<title>Node6</title>
<g id="a_node6"><a xlink:title=" ">
<polygon fill="white" stroke="#666666" points="135.5,-305 35.5,-305 35.5,-286 135.5,-286 135.5,-305"/>
<text text-anchor="middle" x="85.5" y="-293" font-family="Helvetica,sans-Serif" font-size="10.00">GenericComponent</text>
</a>
</g>
</g>
<!-- Node6&#45;&gt;Node5 -->
<g id="edge5" class="edge">
<title>Node6&#45;&gt;Node5</title>
<path fill="none" stroke="#63b8ff" d="M85.5,-274.93C85.5,-266.53 85.5,-257.13 85.5,-250.44"/>
<polygon fill="#63b8ff" stroke="#63b8ff" points="82,-274.75 85.5,-284.75 89,-274.75 82,-274.75"/>
</g>
</g>
</svg>
