<?xml version="1.0" encoding="UTF-8" standalone="no"?>
<!DOCTYPE svg PUBLIC "-//W3C//DTD SVG 1.1//EN"
 "http://www.w3.org/Graphics/SVG/1.1/DTD/svg11.dtd">
<!-- Generated by graphviz version 8.0.2 (20230410.1723)
 -->
<!-- Title: SCR_LineTerrainShaperGeneratorEntityClass Pages: 1 -->
<svg width="171pt" height="214pt"
 viewBox="0.00 0.00 171.00 214.00" xmlns="http://www.w3.org/2000/svg" xmlns:xlink="http://www.w3.org/1999/xlink">
<g id="graph0" class="graph" transform="scale(1 1) rotate(0) translate(4 210)">
<title>SCR_LineTerrainShaperGeneratorEntityClass</title>
<!-- Node1 -->
<g id="node1" class="node">
<title>Node1</title>
<g id="a_node1"><a xlink:title=" ">
<polygon fill="#999999" stroke="#666666" points="163,-30 0,-30 0,0 163,0 163,-30"/>
<text text-anchor="start" x="8" y="-18" font-family="Helvetica,sans-Serif" font-size="10.00">SCR_LineTerrainShaperGenerator</text>
<text text-anchor="middle" x="81.5" y="-7" font-family="Helvetica,sans-Serif" font-size="10.00">EntityClass</text>
</a>
</g>
</g>
<!-- Node2 -->
<g id="node2" class="node">
<title>Node2</title>
<g id="a_node2"><a xlink:href="interfaceSCR__LineTerrainShaperGeneratorBaseEntityClass.html" target="_top" xlink:title=" ">
<polygon fill="white" stroke="#666666" points="163,-96 0,-96 0,-66 163,-66 163,-96"/>
<text text-anchor="start" x="8" y="-84" font-family="Helvetica,sans-Serif" font-size="10.00">SCR_LineTerrainShaperGenerator</text>
<text text-anchor="middle" x="81.5" y="-73" font-family="Helvetica,sans-Serif" font-size="10.00">BaseEntityClass</text>
</a>
</g>
</g>
<!-- Node2&#45;&gt;Node1 -->
<g id="edge1" class="edge">
<title>Node2&#45;&gt;Node1</title>
<path fill="none" stroke="#63b8ff" d="M81.5,-54.97C81.5,-46.55 81.5,-37.45 81.5,-30.16"/>
<polygon fill="#63b8ff" stroke="#63b8ff" points="78,-54.8 81.5,-64.8 85,-54.8 78,-54.8"/>
</g>
<!-- Node3 -->
<g id="node3" class="node">
<title>Node3</title>
<g id="a_node3"><a xlink:href="interfaceSCR__GeneratorBaseEntityClass.html" target="_top" xlink:title=" ">
<polygon fill="white" stroke="#666666" points="160.5,-151 2.5,-151 2.5,-132 160.5,-132 160.5,-151"/>
<text text-anchor="middle" x="81.5" y="-139" font-family="Helvetica,sans-Serif" font-size="10.00">SCR_GeneratorBaseEntityClass</text>
</a>
</g>
</g>
<!-- Node3&#45;&gt;Node2 -->
<g id="edge2" class="edge">
<title>Node3&#45;&gt;Node2</title>
<path fill="none" stroke="#63b8ff" d="M81.5,-121.08C81.5,-112.92 81.5,-103.6 81.5,-96.11"/>
<polygon fill="#63b8ff" stroke="#63b8ff" points="78,-120.87 81.5,-130.87 85,-120.87 78,-120.87"/>
</g>
<!-- Node4 -->
<g id="node4" class="node">
<title>Node4</title>
<g id="a_node4"><a xlink:title=" ">
<polygon fill="white" stroke="#666666" points="147.5,-206 15.5,-206 15.5,-187 147.5,-187 147.5,-206"/>
<text text-anchor="middle" x="81.5" y="-194" font-family="Helvetica,sans-Serif" font-size="10.00">GeneratorBaseEntityClass</text>
</a>
</g>
</g>
<!-- Node4&#45;&gt;Node3 -->
<g id="edge3" class="edge">
<title>Node4&#45;&gt;Node3</title>
<path fill="none" stroke="#63b8ff" d="M81.5,-175.93C81.5,-167.53 81.5,-158.13 81.5,-151.44"/>
<polygon fill="#63b8ff" stroke="#63b8ff" points="78,-175.75 81.5,-185.75 85,-175.75 78,-175.75"/>
</g>
</g>
</svg>
