<?xml version="1.0" encoding="UTF-8" standalone="no"?>
<!DOCTYPE svg PUBLIC "-//W3C//DTD SVG 1.1//EN"
 "http://www.w3.org/Graphics/SVG/1.1/DTD/svg11.dtd">
<!-- Generated by graphviz version 8.0.2 (20230410.1723)
 -->
<!-- Title: CargoCompartmentSlot Pages: 1 -->
<svg width="322pt" height="247pt"
 viewBox="0.00 0.00 321.50 247.00" xmlns="http://www.w3.org/2000/svg" xmlns:xlink="http://www.w3.org/1999/xlink">
<g id="graph0" class="graph" transform="scale(1 1) rotate(0) translate(4 243)">
<title>CargoCompartmentSlot</title>
<!-- Node1 -->
<g id="node1" class="node">
<title>Node1</title>
<g id="a_node1"><a xlink:title=" ">
<polygon fill="#999999" stroke="#666666" points="215,-74 97,-74 97,-55 215,-55 215,-74"/>
<text text-anchor="middle" x="156" y="-62" font-family="Helvetica,sans-Serif" font-size="10.00">CargoCompartmentSlot</text>
</a>
</g>
</g>
<!-- Node5 -->
<g id="node5" class="node">
<title>Node5</title>
<g id="a_node5"><a xlink:href="interfaceSCR__DoctorCompartmentSlot.html" target="_top" xlink:title=" ">
<polygon fill="white" stroke="#666666" points="146,-19 0,-19 0,0 146,0 146,-19"/>
<text text-anchor="middle" x="73" y="-7" font-family="Helvetica,sans-Serif" font-size="10.00">SCR_DoctorCompartmentSlot</text>
</a>
</g>
</g>
<!-- Node1&#45;&gt;Node5 -->
<g id="edge4" class="edge">
<title>Node1&#45;&gt;Node5</title>
<path fill="none" stroke="#63b8ff" d="M132.87,-48.73C118.08,-39.29 99.4,-27.36 86.87,-19.36"/>
<polygon fill="#63b8ff" stroke="#63b8ff" points="130.61,-52.08 140.92,-54.51 134.38,-46.18 130.61,-52.08"/>
</g>
<!-- Node6 -->
<g id="node6" class="node">
<title>Node6</title>
<g id="a_node6"><a xlink:href="interfaceSCR__PatientCompartmentSlot.html" target="_top" xlink:title=" ">
<polygon fill="white" stroke="#666666" points="313.5,-19 164.5,-19 164.5,0 313.5,0 313.5,-19"/>
<text text-anchor="middle" x="239" y="-7" font-family="Helvetica,sans-Serif" font-size="10.00">SCR_PatientCompartmentSlot</text>
</a>
</g>
</g>
<!-- Node1&#45;&gt;Node6 -->
<g id="edge5" class="edge">
<title>Node1&#45;&gt;Node6</title>
<path fill="none" stroke="#63b8ff" d="M179.13,-48.73C193.92,-39.29 212.6,-27.36 225.13,-19.36"/>
<polygon fill="#63b8ff" stroke="#63b8ff" points="177.62,-46.18 171.08,-54.51 181.39,-52.08 177.62,-46.18"/>
</g>
<!-- Node2 -->
<g id="node2" class="node">
<title>Node2</title>
<g id="a_node2"><a xlink:href="interfaceBaseCompartmentSlot.html" target="_top" xlink:title=" ">
<polygon fill="white" stroke="#666666" points="213.5,-129 98.5,-129 98.5,-110 213.5,-110 213.5,-129"/>
<text text-anchor="middle" x="156" y="-117" font-family="Helvetica,sans-Serif" font-size="10.00">BaseCompartmentSlot</text>
</a>
</g>
</g>
<!-- Node2&#45;&gt;Node1 -->
<g id="edge1" class="edge">
<title>Node2&#45;&gt;Node1</title>
<path fill="none" stroke="#63b8ff" d="M156,-98.93C156,-90.53 156,-81.13 156,-74.44"/>
<polygon fill="#63b8ff" stroke="#63b8ff" points="152.5,-98.75 156,-108.75 159.5,-98.75 152.5,-98.75"/>
</g>
<!-- Node3 -->
<g id="node3" class="node">
<title>Node3</title>
<g id="a_node3"><a xlink:href="interfaceExtBaseCompartmentSlot.html" target="_top" xlink:title=" ">
<polygon fill="white" stroke="#666666" points="221,-184 91,-184 91,-165 221,-165 221,-184"/>
<text text-anchor="middle" x="156" y="-172" font-family="Helvetica,sans-Serif" font-size="10.00">ExtBaseCompartmentSlot</text>
</a>
</g>
</g>
<!-- Node3&#45;&gt;Node2 -->
<g id="edge2" class="edge">
<title>Node3&#45;&gt;Node2</title>
<path fill="none" stroke="#63b8ff" d="M156,-153.93C156,-145.53 156,-136.13 156,-129.44"/>
<polygon fill="#63b8ff" stroke="#63b8ff" points="152.5,-153.75 156,-163.75 159.5,-153.75 152.5,-153.75"/>
</g>
<!-- Node4 -->
<g id="node4" class="node">
<title>Node4</title>
<g id="a_node4"><a xlink:title=" ">
<polygon fill="white" stroke="#666666" points="199,-239 113,-239 113,-220 199,-220 199,-239"/>
<text text-anchor="middle" x="156" y="-227" font-family="Helvetica,sans-Serif" font-size="10.00">ScriptAndConfig</text>
</a>
</g>
</g>
<!-- Node4&#45;&gt;Node3 -->
<g id="edge3" class="edge">
<title>Node4&#45;&gt;Node3</title>
<path fill="none" stroke="#63b8ff" d="M156,-208.93C156,-200.53 156,-191.13 156,-184.44"/>
<polygon fill="#63b8ff" stroke="#63b8ff" points="152.5,-208.75 156,-218.75 159.5,-208.75 152.5,-208.75"/>
</g>
</g>
</svg>
