<?xml version="1.0" encoding="UTF-8" standalone="no"?>
<!DOCTYPE svg PUBLIC "-//W3C//DTD SVG 1.1//EN"
 "http://www.w3.org/Graphics/SVG/1.1/DTD/svg11.dtd">
<!-- Generated by graphviz version 8.0.2 (20230410.1723)
 -->
<!-- Title: ScriptedGameTriggerEntityClass Pages: 1 -->
<svg width="1210pt" height="350pt"
 viewBox="0.00 0.00 1210.00 349.50" xmlns="http://www.w3.org/2000/svg" xmlns:xlink="http://www.w3.org/1999/xlink">
<g id="graph0" class="graph" transform="scale(1 1) rotate(0) translate(4 345.5)">
<title>ScriptedGameTriggerEntityClass</title>
<!-- Node1 -->
<g id="node1" class="node">
<title>Node1</title>
<g id="a_node1"><a xlink:title=" ">
<polygon fill="#999999" stroke="#666666" points="452,-158.5 318,-158.5 318,-128.5 452,-128.5 452,-158.5"/>
<text text-anchor="start" x="326" y="-146.5" font-family="Helvetica,sans-Serif" font-size="10.00">ScriptedGameTriggerEntity</text>
<text text-anchor="middle" x="385" y="-135.5" font-family="Helvetica,sans-Serif" font-size="10.00">Class</text>
</a>
</g>
</g>
<!-- Node4 -->
<g id="node4" class="node">
<title>Node4</title>
<g id="a_node4"><a xlink:href="interfaceSCR__BaseTriggerEntityClass.html" target="_top" xlink:title=" ">
<polygon fill="white" stroke="#666666" points="638.5,-264 494.5,-264 494.5,-245 638.5,-245 638.5,-264"/>
<text text-anchor="middle" x="566.5" y="-252" font-family="Helvetica,sans-Serif" font-size="10.00">SCR_BaseTriggerEntityClass</text>
</a>
</g>
</g>
<!-- Node1&#45;&gt;Node4 -->
<g id="edge3" class="edge">
<title>Node1&#45;&gt;Node4</title>
<path fill="none" stroke="#63b8ff" d="M405.64,-166.85C424.61,-187.9 455.22,-218.13 488,-235.5 494.98,-239.2 502.69,-242.19 510.46,-244.61"/>
<polygon fill="#63b8ff" stroke="#63b8ff" points="408.73,-164.92 399.49,-159.73 403.47,-169.55 408.73,-164.92"/>
</g>
<!-- Node12 -->
<g id="node12" class="node">
<title>Node12</title>
<g id="a_node12"><a xlink:href="interfaceSCR__CaptureAreaClass.html" target="_top" xlink:title=" ">
<polygon fill="white" stroke="#666666" points="627,-227 506,-227 506,-208 627,-208 627,-227"/>
<text text-anchor="middle" x="566.5" y="-215" font-family="Helvetica,sans-Serif" font-size="10.00">SCR_CaptureAreaClass</text>
</a>
</g>
</g>
<!-- Node1&#45;&gt;Node12 -->
<g id="edge11" class="edge">
<title>Node1&#45;&gt;Node12</title>
<path fill="none" stroke="#63b8ff" d="M419.61,-164.43C439.02,-175.8 464.23,-189.35 488,-198.5 497.05,-201.98 506.95,-204.98 516.55,-207.5"/>
<polygon fill="#63b8ff" stroke="#63b8ff" points="421.69,-161 411.31,-158.9 418.11,-167.02 421.69,-161"/>
</g>
<!-- Node13 -->
<g id="node13" class="node">
<title>Node13</title>
<g id="a_node13"><a xlink:href="interfaceSCR__FiringRangeLineAreaClass.html" target="_top" xlink:title=" ">
<polygon fill="white" stroke="#666666" points="645,-190 488,-190 488,-171 645,-171 645,-190"/>
<text text-anchor="middle" x="566.5" y="-178" font-family="Helvetica,sans-Serif" font-size="10.00">SCR_FiringRangeLineAreaClass</text>
</a>
</g>
</g>
<!-- Node1&#45;&gt;Node13 -->
<g id="edge12" class="edge">
<title>Node1&#45;&gt;Node13</title>
<path fill="none" stroke="#63b8ff" d="M463.03,-159.38C481.38,-163.16 500.46,-167.09 517.11,-170.53"/>
<polygon fill="#63b8ff" stroke="#63b8ff" points="463.83,-155.76 453.33,-157.17 462.42,-162.62 463.83,-155.76"/>
</g>
<!-- Node14 -->
<g id="node14" class="node">
<title>Node14</title>
<g id="a_node14"><a xlink:href="interfaceSCR__FiringRangeManagerClass.html" target="_top" xlink:title=" ">
<polygon fill="white" stroke="#666666" points="644.5,-153 488.5,-153 488.5,-134 644.5,-134 644.5,-153"/>
<text text-anchor="middle" x="566.5" y="-141" font-family="Helvetica,sans-Serif" font-size="10.00">SCR_FiringRangeManagerClass</text>
</a>
</g>
</g>
<!-- Node1&#45;&gt;Node14 -->
<g id="edge13" class="edge">
<title>Node1&#45;&gt;Node14</title>
<path fill="none" stroke="#63b8ff" d="M463.14,-143.5C471.45,-143.5 479.91,-143.5 488.22,-143.5"/>
<polygon fill="#63b8ff" stroke="#63b8ff" points="463.33,-140 453.33,-143.5 463.33,-147 463.33,-140"/>
</g>
<!-- Node15 -->
<g id="node15" class="node">
<title>Node15</title>
<g id="a_node15"><a xlink:href="interfaceSCR__FreeRoamBuildingBaseTriggerEntityClass.html" target="_top" xlink:title=" ">
<polygon fill="white" stroke="#666666" points="638.5,-115.5 494.5,-115.5 494.5,-85.5 638.5,-85.5 638.5,-115.5"/>
<text text-anchor="start" x="502.5" y="-103.5" font-family="Helvetica,sans-Serif" font-size="10.00">SCR_FreeRoamBuildingBase</text>
<text text-anchor="middle" x="566.5" y="-92.5" font-family="Helvetica,sans-Serif" font-size="10.00">TriggerEntityClass</text>
</a>
</g>
</g>
<!-- Node1&#45;&gt;Node15 -->
<g id="edge14" class="edge">
<title>Node1&#45;&gt;Node15</title>
<path fill="none" stroke="#63b8ff" d="M461.06,-125.52C474.3,-122.35 487.99,-119.07 500.92,-115.97"/>
<polygon fill="#63b8ff" stroke="#63b8ff" points="460.46,-122.3 451.55,-128.04 462.09,-129.11 460.46,-122.3"/>
</g>
<!-- Node17 -->
<g id="node17" class="node">
<title>Node17</title>
<g id="a_node17"><a xlink:href="interfaceSCR__PlayerHubAreaTriggerEntityClass.html" target="_top" xlink:title=" ">
<polygon fill="white" stroke="#666666" points="635,-67.5 498,-67.5 498,-37.5 635,-37.5 635,-67.5"/>
<text text-anchor="start" x="506" y="-55.5" font-family="Helvetica,sans-Serif" font-size="10.00">SCR_PlayerHubAreaTrigger</text>
<text text-anchor="middle" x="566.5" y="-44.5" font-family="Helvetica,sans-Serif" font-size="10.00">EntityClass</text>
</a>
</g>
</g>
<!-- Node1&#45;&gt;Node17 -->
<g id="edge16" class="edge">
<title>Node1&#45;&gt;Node17</title>
<path fill="none" stroke="#63b8ff" d="M414.5,-121.64C434.28,-107.27 461.7,-88.91 488,-76.5 494.62,-73.38 501.76,-70.53 508.91,-67.98"/>
<polygon fill="#63b8ff" stroke="#63b8ff" points="412.68,-119.37 406.71,-128.12 416.84,-125 412.68,-119.37"/>
</g>
<!-- Node18 -->
<g id="node18" class="node">
<title>Node18</title>
<g id="a_node18"><a xlink:href="interfaceSCR__SpawnAreaClass.html" target="_top" xlink:title=" ">
<polygon fill="white" stroke="#666666" points="624.5,-19 508.5,-19 508.5,0 624.5,0 624.5,-19"/>
<text text-anchor="middle" x="566.5" y="-7" font-family="Helvetica,sans-Serif" font-size="10.00">SCR_SpawnAreaClass</text>
</a>
</g>
</g>
<!-- Node1&#45;&gt;Node18 -->
<g id="edge17" class="edge">
<title>Node1&#45;&gt;Node18</title>
<path fill="none" stroke="#63b8ff" d="M401,-119.17C418.57,-92.77 450.15,-51.34 488,-28.5 494.17,-24.78 501.03,-21.79 508.04,-19.38"/>
<polygon fill="#63b8ff" stroke="#63b8ff" points="397.68,-116.86 395.17,-127.16 403.55,-120.67 397.68,-116.86"/>
</g>
<!-- Node2 -->
<g id="node2" class="node">
<title>Node2</title>
<g id="a_node2"><a xlink:href="interfaceBaseGameTriggerEntityClass.html" target="_top" xlink:title=" ">
<polygon fill="white" stroke="#666666" points="282,-153 137,-153 137,-134 282,-134 282,-153"/>
<text text-anchor="middle" x="209.5" y="-141" font-family="Helvetica,sans-Serif" font-size="10.00">BaseGameTriggerEntityClass</text>
</a>
</g>
</g>
<!-- Node2&#45;&gt;Node1 -->
<g id="edge1" class="edge">
<title>Node2&#45;&gt;Node1</title>
<path fill="none" stroke="#63b8ff" d="M293.05,-143.5C301.25,-143.5 309.51,-143.5 317.52,-143.5"/>
<polygon fill="#63b8ff" stroke="#63b8ff" points="293.32,-140 283.32,-143.5 293.32,-147 293.32,-140"/>
</g>
<!-- Node3 -->
<g id="node3" class="node">
<title>Node3</title>
<g id="a_node3"><a xlink:title=" ">
<polygon fill="white" stroke="#666666" points="101,-153 0,-153 0,-134 101,-134 101,-153"/>
<text text-anchor="middle" x="50.5" y="-141" font-family="Helvetica,sans-Serif" font-size="10.00">GenericEntityClass</text>
</a>
</g>
</g>
<!-- Node3&#45;&gt;Node2 -->
<g id="edge2" class="edge">
<title>Node3&#45;&gt;Node2</title>
<path fill="none" stroke="#63b8ff" d="M112.02,-143.5C120.13,-143.5 128.5,-143.5 136.78,-143.5"/>
<polygon fill="#63b8ff" stroke="#63b8ff" points="112.18,-140 102.18,-143.5 112.18,-147 112.18,-140"/>
</g>
<!-- Node5 -->
<g id="node5" class="node">
<title>Node5</title>
<g id="a_node5"><a xlink:href="interfaceSCR__BaseFactionTriggerEntityClass.html" target="_top" xlink:title=" ">
<polygon fill="white" stroke="#666666" points="836,-317.5 684,-317.5 684,-287.5 836,-287.5 836,-317.5"/>
<text text-anchor="start" x="692" y="-305.5" font-family="Helvetica,sans-Serif" font-size="10.00">SCR_BaseFactionTriggerEntity</text>
<text text-anchor="middle" x="760" y="-294.5" font-family="Helvetica,sans-Serif" font-size="10.00">Class</text>
</a>
</g>
</g>
<!-- Node4&#45;&gt;Node5 -->
<g id="edge4" class="edge">
<title>Node4&#45;&gt;Node5</title>
<path fill="none" stroke="#63b8ff" d="M617.66,-267.07C642.1,-273.2 671.71,-280.62 697.5,-287.08"/>
<polygon fill="#63b8ff" stroke="#63b8ff" points="618.73,-263.48 608.18,-264.45 617.03,-270.27 618.73,-263.48"/>
</g>
<!-- Node9 -->
<g id="node9" class="node">
<title>Node9</title>
<g id="a_node9"><a xlink:href="interfaceSCR__PlayersPresentTriggerEntityClass.html" target="_top" xlink:title=" ">
<polygon fill="white" stroke="#666666" points="829,-269.5 691,-269.5 691,-239.5 829,-239.5 829,-269.5"/>
<text text-anchor="start" x="699" y="-257.5" font-family="Helvetica,sans-Serif" font-size="10.00">SCR_PlayersPresentTrigger</text>
<text text-anchor="middle" x="760" y="-246.5" font-family="Helvetica,sans-Serif" font-size="10.00">EntityClass</text>
</a>
</g>
</g>
<!-- Node4&#45;&gt;Node9 -->
<g id="edge8" class="edge">
<title>Node4&#45;&gt;Node9</title>
<path fill="none" stroke="#63b8ff" d="M649.7,-254.5C663.41,-254.5 677.5,-254.5 690.81,-254.5"/>
<polygon fill="#63b8ff" stroke="#63b8ff" points="649.81,-251 639.81,-254.5 649.81,-258 649.81,-251"/>
</g>
<!-- Node10 -->
<g id="node10" class="node">
<title>Node10</title>
<g id="a_node10"><a xlink:href="interfaceSCR__ScenarioFrameworkTriggerEntityClass.html" target="_top" xlink:title=" ">
<polygon fill="white" stroke="#666666" points="839,-221.5 681,-221.5 681,-191.5 839,-191.5 839,-221.5"/>
<text text-anchor="start" x="689" y="-209.5" font-family="Helvetica,sans-Serif" font-size="10.00">SCR_ScenarioFrameworkTrigger</text>
<text text-anchor="middle" x="760" y="-198.5" font-family="Helvetica,sans-Serif" font-size="10.00">EntityClass</text>
</a>
</g>
</g>
<!-- Node4&#45;&gt;Node10 -->
<g id="edge9" class="edge">
<title>Node4&#45;&gt;Node10</title>
<path fill="none" stroke="#63b8ff" d="M618.97,-241.95C627.66,-239.81 636.59,-237.6 645,-235.5 662.44,-231.15 681.36,-226.36 698.68,-221.95"/>
<polygon fill="#63b8ff" stroke="#63b8ff" points="618.42,-238.72 609.54,-244.51 620.09,-245.52 618.42,-238.72"/>
</g>
<!-- Node6 -->
<g id="node6" class="node">
<title>Node6</title>
<g id="a_node6"><a xlink:href="interfaceSCR__FactionControlTriggerEntityClass.html" target="_top" xlink:title=" ">
<polygon fill="white" stroke="#666666" points="1011.5,-341.5 877.5,-341.5 877.5,-311.5 1011.5,-311.5 1011.5,-341.5"/>
<text text-anchor="start" x="885.5" y="-329.5" font-family="Helvetica,sans-Serif" font-size="10.00">SCR_FactionControlTrigger</text>
<text text-anchor="middle" x="944.5" y="-318.5" font-family="Helvetica,sans-Serif" font-size="10.00">EntityClass</text>
</a>
</g>
</g>
<!-- Node5&#45;&gt;Node6 -->
<g id="edge5" class="edge">
<title>Node5&#45;&gt;Node6</title>
<path fill="none" stroke="#63b8ff" d="M847.16,-313.83C857.24,-315.16 867.39,-316.49 877.14,-317.77"/>
<polygon fill="#63b8ff" stroke="#63b8ff" points="847.65,-310.23 837.28,-312.4 846.74,-317.17 847.65,-310.23"/>
</g>
<!-- Node8 -->
<g id="node8" class="node">
<title>Node8</title>
<g id="a_node8"><a xlink:href="interfaceSCR__FactionPlayerTriggerEntityClass.html" target="_top" xlink:title=" ">
<polygon fill="white" stroke="#666666" points="1010,-293.5 879,-293.5 879,-263.5 1010,-263.5 1010,-293.5"/>
<text text-anchor="start" x="887" y="-281.5" font-family="Helvetica,sans-Serif" font-size="10.00">SCR_FactionPlayerTrigger</text>
<text text-anchor="middle" x="944.5" y="-270.5" font-family="Helvetica,sans-Serif" font-size="10.00">EntityClass</text>
</a>
</g>
</g>
<!-- Node5&#45;&gt;Node8 -->
<g id="edge7" class="edge">
<title>Node5&#45;&gt;Node8</title>
<path fill="none" stroke="#63b8ff" d="M846.89,-291.2C857.55,-289.8 868.31,-288.39 878.58,-287.04"/>
<polygon fill="#63b8ff" stroke="#63b8ff" points="846.74,-287.83 837.28,-292.6 847.65,-294.77 846.74,-287.83"/>
</g>
<!-- Node7 -->
<g id="node7" class="node">
<title>Node7</title>
<g id="a_node7"><a xlink:href="interfaceSCR__FactionDominanceTriggerEntityClass.html" target="_top" xlink:title=" ">
<polygon fill="white" stroke="#666666" points="1202,-341.5 1050,-341.5 1050,-311.5 1202,-311.5 1202,-341.5"/>
<text text-anchor="start" x="1058" y="-329.5" font-family="Helvetica,sans-Serif" font-size="10.00">SCR_FactionDominanceTrigger</text>
<text text-anchor="middle" x="1126" y="-318.5" font-family="Helvetica,sans-Serif" font-size="10.00">EntityClass</text>
</a>
</g>
</g>
<!-- Node6&#45;&gt;Node7 -->
<g id="edge6" class="edge">
<title>Node6&#45;&gt;Node7</title>
<path fill="none" stroke="#63b8ff" d="M1022.61,-326.5C1031.55,-326.5 1040.65,-326.5 1049.56,-326.5"/>
<polygon fill="#63b8ff" stroke="#63b8ff" points="1022.83,-323 1012.83,-326.5 1022.83,-330 1022.83,-323"/>
</g>
<!-- Node11 -->
<g id="node11" class="node">
<title>Node11</title>
<g id="a_node11"><a xlink:href="interfaceSCR__CharacterTriggerEntityClass.html" target="_top" xlink:title=" ">
<polygon fill="white" stroke="#666666" points="1014,-221.5 875,-221.5 875,-191.5 1014,-191.5 1014,-221.5"/>
<text text-anchor="start" x="883" y="-209.5" font-family="Helvetica,sans-Serif" font-size="10.00">SCR_CharacterTriggerEntity</text>
<text text-anchor="middle" x="944.5" y="-198.5" font-family="Helvetica,sans-Serif" font-size="10.00">Class</text>
</a>
</g>
</g>
<!-- Node10&#45;&gt;Node11 -->
<g id="edge10" class="edge">
<title>Node10&#45;&gt;Node11</title>
<path fill="none" stroke="#63b8ff" d="M850.2,-206.5C858.4,-206.5 866.62,-206.5 874.59,-206.5"/>
<polygon fill="#63b8ff" stroke="#63b8ff" points="850.46,-203 840.46,-206.5 850.46,-210 850.46,-203"/>
</g>
<!-- Node16 -->
<g id="node16" class="node">
<title>Node16</title>
<g id="a_node16"><a xlink:href="interfaceSCR__FreeRoamBuildingClientTriggerEntityClass.html" target="_top" xlink:title=" ">
<polygon fill="white" stroke="#666666" points="833,-115.5 687,-115.5 687,-85.5 833,-85.5 833,-115.5"/>
<text text-anchor="start" x="695" y="-103.5" font-family="Helvetica,sans-Serif" font-size="10.00">SCR_FreeRoamBuildingClient</text>
<text text-anchor="middle" x="760" y="-92.5" font-family="Helvetica,sans-Serif" font-size="10.00">TriggerEntityClass</text>
</a>
</g>
</g>
<!-- Node15&#45;&gt;Node16 -->
<g id="edge15" class="edge">
<title>Node15&#45;&gt;Node16</title>
<path fill="none" stroke="#63b8ff" d="M649.55,-100.5C661.9,-100.5 674.55,-100.5 686.67,-100.5"/>
<polygon fill="#63b8ff" stroke="#63b8ff" points="649.81,-97 639.81,-100.5 649.81,-104 649.81,-97"/>
</g>
</g>
</svg>
