<?xml version="1.0" encoding="UTF-8" standalone="no"?>
<!DOCTYPE svg PUBLIC "-//W3C//DTD SVG 1.1//EN"
 "http://www.w3.org/Graphics/SVG/1.1/DTD/svg11.dtd">
<!-- Generated by graphviz version 8.0.2 (20230410.1723)
 -->
<!-- Title: SCR_AIGetWaypointParameters Pages: 1 -->
<svg width="509pt" height="199pt"
 viewBox="0.00 0.00 509.00 198.50" xmlns="http://www.w3.org/2000/svg" xmlns:xlink="http://www.w3.org/1999/xlink">
<g id="graph0" class="graph" transform="scale(1 1) rotate(0) translate(4 194.5)">
<title>SCR_AIGetWaypointParameters</title>
<!-- Node1 -->
<g id="node1" class="node">
<title>Node1</title>
<g id="a_node1"><a xlink:title=" ">
<polygon fill="#999999" stroke="#666666" points="277,-110.5 119,-110.5 119,-91.5 277,-91.5 277,-110.5"/>
<text text-anchor="middle" x="198" y="-98.5" font-family="Helvetica,sans-Serif" font-size="10.00">SCR_AIGetWaypointParameters</text>
</a>
</g>
</g>
<!-- Node3 -->
<g id="node3" class="node">
<title>Node3</title>
<g id="a_node3"><a xlink:href="interfaceSCR__AIGetDefendWaypointParameters.html" target="_top" xlink:title=" ">
<polygon fill="white" stroke="#666666" points="501,-190.5 313,-190.5 313,-171.5 501,-171.5 501,-190.5"/>
<text text-anchor="middle" x="407" y="-178.5" font-family="Helvetica,sans-Serif" font-size="10.00">SCR_AIGetDefendWaypointParameters</text>
</a>
</g>
</g>
<!-- Node1&#45;&gt;Node3 -->
<g id="edge2" class="edge">
<title>Node1&#45;&gt;Node3</title>
<path fill="none" stroke="#63b8ff" d="M222.86,-116.81C245.25,-130.95 280.12,-151.2 313,-163 321.82,-166.17 331.33,-168.82 340.77,-171.02"/>
<polygon fill="#63b8ff" stroke="#63b8ff" points="225.09,-113.44 214.79,-110.99 221.31,-119.33 225.09,-113.44"/>
</g>
<!-- Node4 -->
<g id="node4" class="node">
<title>Node4</title>
<g id="a_node4"><a xlink:href="interfaceSCR__AIGetEntityWaypointParameters.html" target="_top" xlink:title=" ">
<polygon fill="white" stroke="#666666" points="499,-153.5 315,-153.5 315,-134.5 499,-134.5 499,-153.5"/>
<text text-anchor="middle" x="407" y="-141.5" font-family="Helvetica,sans-Serif" font-size="10.00">SCR_AIGetEntityWaypointParameters</text>
</a>
</g>
</g>
<!-- Node1&#45;&gt;Node4 -->
<g id="edge3" class="edge">
<title>Node1&#45;&gt;Node4</title>
<path fill="none" stroke="#63b8ff" d="M256.77,-113.23C274.78,-117.03 294.71,-121.21 313,-125 327.36,-127.98 342.98,-131.18 357.24,-134.1"/>
<polygon fill="#63b8ff" stroke="#63b8ff" points="257.64,-109.63 247.13,-110.99 256.19,-116.48 257.64,-109.63"/>
</g>
<!-- Node5 -->
<g id="node5" class="node">
<title>Node5</title>
<g id="a_node5"><a xlink:href="interfaceSCR__AIGetInNearestWaypointParameters.html" target="_top" xlink:title=" ">
<polygon fill="white" stroke="#666666" points="481.5,-116 332.5,-116 332.5,-86 481.5,-86 481.5,-116"/>
<text text-anchor="start" x="340.5" y="-104" font-family="Helvetica,sans-Serif" font-size="10.00">SCR_AIGetInNearestWaypoint</text>
<text text-anchor="middle" x="407" y="-93" font-family="Helvetica,sans-Serif" font-size="10.00">Parameters</text>
</a>
</g>
</g>
<!-- Node1&#45;&gt;Node5 -->
<g id="edge4" class="edge">
<title>Node1&#45;&gt;Node5</title>
<path fill="none" stroke="#63b8ff" d="M287.9,-101C302.63,-101 317.76,-101 332.07,-101"/>
<polygon fill="#63b8ff" stroke="#63b8ff" points="288.26,-97.5 278.26,-101 288.26,-104.5 288.26,-97.5"/>
</g>
<!-- Node6 -->
<g id="node6" class="node">
<title>Node6</title>
<g id="a_node6"><a xlink:href="interfaceSCR__AIGetTimedWaypointParameters.html" target="_top" xlink:title=" ">
<polygon fill="white" stroke="#666666" points="499.5,-67.5 314.5,-67.5 314.5,-48.5 499.5,-48.5 499.5,-67.5"/>
<text text-anchor="middle" x="407" y="-55.5" font-family="Helvetica,sans-Serif" font-size="10.00">SCR_AIGetTimedWaypointParameters</text>
</a>
</g>
</g>
<!-- Node1&#45;&gt;Node6 -->
<g id="edge5" class="edge">
<title>Node1&#45;&gt;Node6</title>
<path fill="none" stroke="#63b8ff" d="M256.77,-88.77C274.78,-84.97 294.71,-80.79 313,-77 327.36,-74.02 342.98,-70.82 357.24,-67.9"/>
<polygon fill="#63b8ff" stroke="#63b8ff" points="256.19,-85.52 247.13,-91.01 257.64,-92.37 256.19,-85.52"/>
</g>
<!-- Node7 -->
<g id="node7" class="node">
<title>Node7</title>
<g id="a_node7"><a xlink:href="interfaceSCR__AIGetVehicleWaypointParameters.html" target="_top" xlink:title=" ">
<polygon fill="white" stroke="#666666" points="477,-30 337,-30 337,0 477,0 477,-30"/>
<text text-anchor="start" x="345" y="-18" font-family="Helvetica,sans-Serif" font-size="10.00">SCR_AIGetVehicleWaypoint</text>
<text text-anchor="middle" x="407" y="-7" font-family="Helvetica,sans-Serif" font-size="10.00">Parameters</text>
</a>
</g>
</g>
<!-- Node1&#45;&gt;Node7 -->
<g id="edge6" class="edge">
<title>Node1&#45;&gt;Node7</title>
<path fill="none" stroke="#63b8ff" d="M223.42,-85.42C245.94,-71.62 280.68,-51.73 313,-39 321.07,-35.82 329.69,-32.94 338.32,-30.38"/>
<polygon fill="#63b8ff" stroke="#63b8ff" points="221.92,-82.86 215.27,-91.11 225.61,-88.8 221.92,-82.86"/>
</g>
<!-- Node2 -->
<g id="node2" class="node">
<title>Node2</title>
<g id="a_node2"><a xlink:title=" ">
<polygon fill="white" stroke="#666666" points="83,-110.5 0,-110.5 0,-91.5 83,-91.5 83,-110.5"/>
<text text-anchor="middle" x="41.5" y="-98.5" font-family="Helvetica,sans-Serif" font-size="10.00">AITaskScripted</text>
</a>
</g>
</g>
<!-- Node2&#45;&gt;Node1 -->
<g id="edge1" class="edge">
<title>Node2&#45;&gt;Node1</title>
<path fill="none" stroke="#63b8ff" d="M94.32,-101C102.19,-101 110.46,-101 118.74,-101"/>
<polygon fill="#63b8ff" stroke="#63b8ff" points="94.5,-97.5 84.5,-101 94.5,-104.5 94.5,-97.5"/>
</g>
</g>
</svg>
