<?xml version="1.0" encoding="UTF-8" standalone="no"?>
<!DOCTYPE svg PUBLIC "-//W3C//DTD SVG 1.1//EN"
 "http://www.w3.org/Graphics/SVG/1.1/DTD/svg11.dtd">
<!-- Generated by graphviz version 8.0.2 (20230410.1723)
 -->
<!-- Title: SCR_CustomEditableEntityUIComponent Pages: 1 -->
<svg width="192pt" height="214pt"
 viewBox="0.00 0.00 192.00 214.00" xmlns="http://www.w3.org/2000/svg" xmlns:xlink="http://www.w3.org/1999/xlink">
<g id="graph0" class="graph" transform="scale(1 1) rotate(0) translate(4 210)">
<title>SCR_CustomEditableEntityUIComponent</title>
<!-- Node1 -->
<g id="node1" class="node">
<title>Node1</title>
<g id="a_node1"><a xlink:title=" ">
<polygon fill="#999999" stroke="#666666" points="160.5,-96 23.5,-96 23.5,-66 160.5,-66 160.5,-96"/>
<text text-anchor="start" x="31.5" y="-84" font-family="Helvetica,sans-Serif" font-size="10.00">SCR_CustomEditableEntity</text>
<text text-anchor="middle" x="92" y="-73" font-family="Helvetica,sans-Serif" font-size="10.00">UIComponent</text>
</a>
</g>
</g>
<!-- Node4 -->
<g id="node4" class="node">
<title>Node4</title>
<g id="a_node4"><a xlink:href="interfaceSCR__CharacterEditableEntityUIComponent.html" target="_top" xlink:title=" ">
<polygon fill="white" stroke="#666666" points="164.5,-30 19.5,-30 19.5,0 164.5,0 164.5,-30"/>
<text text-anchor="start" x="27.5" y="-18" font-family="Helvetica,sans-Serif" font-size="10.00">SCR_CharacterEditableEntity</text>
<text text-anchor="middle" x="92" y="-7" font-family="Helvetica,sans-Serif" font-size="10.00">UIComponent</text>
</a>
</g>
</g>
<!-- Node1&#45;&gt;Node4 -->
<g id="edge3" class="edge">
<title>Node1&#45;&gt;Node4</title>
<path fill="none" stroke="#63b8ff" d="M92,-54.97C92,-46.55 92,-37.45 92,-30.16"/>
<polygon fill="#63b8ff" stroke="#63b8ff" points="88.5,-54.8 92,-64.8 95.5,-54.8 88.5,-54.8"/>
</g>
<!-- Node2 -->
<g id="node2" class="node">
<title>Node2</title>
<g id="a_node2"><a xlink:href="interfaceSCR__BaseEditableEntityUIComponent.html" target="_top" xlink:title="Component to manage visualisation of individual entity widget.">
<polygon fill="white" stroke="#666666" points="184,-151 0,-151 0,-132 184,-132 184,-151"/>
<text text-anchor="middle" x="92" y="-139" font-family="Helvetica,sans-Serif" font-size="10.00">SCR_BaseEditableEntityUIComponent</text>
</a>
</g>
</g>
<!-- Node2&#45;&gt;Node1 -->
<g id="edge1" class="edge">
<title>Node2&#45;&gt;Node1</title>
<path fill="none" stroke="#63b8ff" d="M92,-121.08C92,-112.92 92,-103.6 92,-96.11"/>
<polygon fill="#63b8ff" stroke="#63b8ff" points="88.5,-120.87 92,-130.87 95.5,-120.87 88.5,-120.87"/>
</g>
<!-- Node3 -->
<g id="node3" class="node">
<title>Node3</title>
<g id="a_node3"><a xlink:title=" ">
<polygon fill="white" stroke="#666666" points="158.5,-206 25.5,-206 25.5,-187 158.5,-187 158.5,-206"/>
<text text-anchor="middle" x="92" y="-194" font-family="Helvetica,sans-Serif" font-size="10.00">ScriptedWidgetComponent</text>
</a>
</g>
</g>
<!-- Node3&#45;&gt;Node2 -->
<g id="edge2" class="edge">
<title>Node3&#45;&gt;Node2</title>
<path fill="none" stroke="#63b8ff" d="M92,-175.93C92,-167.53 92,-158.13 92,-151.44"/>
<polygon fill="#63b8ff" stroke="#63b8ff" points="88.5,-175.75 92,-185.75 95.5,-175.75 88.5,-175.75"/>
</g>
</g>
</svg>
