<?xml version="1.0" encoding="UTF-8" standalone="no"?>
<!DOCTYPE svg PUBLIC "-//W3C//DTD SVG 1.1//EN"
 "http://www.w3.org/Graphics/SVG/1.1/DTD/svg11.dtd">
<!-- Generated by graphviz version 8.0.2 (20230410.1723)
 -->
<!-- Title: ScriptedBaseInventoryStorageComponent Pages: 1 -->
<svg width="1999pt" height="252pt"
 viewBox="0.00 0.00 1999.00 251.50" xmlns="http://www.w3.org/2000/svg" xmlns:xlink="http://www.w3.org/1999/xlink">
<g id="graph0" class="graph" transform="scale(1 1) rotate(0) translate(4 247.5)">
<title>ScriptedBaseInventoryStorageComponent</title>
<!-- Node1 -->
<g id="node1" class="node">
<title>Node1</title>
<g id="a_node1"><a xlink:title=" ">
<polygon fill="#999999" stroke="#666666" points="767,-136 620,-136 620,-106 767,-106 767,-136"/>
<text text-anchor="start" x="628" y="-124" font-family="Helvetica,sans-Serif" font-size="10.00">ScriptedBaseInventoryStorage</text>
<text text-anchor="middle" x="693.5" y="-113" font-family="Helvetica,sans-Serif" font-size="10.00">Component</text>
</a>
</g>
</g>
<!-- Node6 -->
<g id="node6" class="node">
<title>Node6</title>
<g id="a_node6"><a xlink:href="interfaceAttachmentsStorageComponent.html" target="_top" xlink:title=" ">
<polygon fill="white" stroke="#666666" points="965.5,-243.5 810.5,-243.5 810.5,-224.5 965.5,-224.5 965.5,-243.5"/>
<text text-anchor="middle" x="888" y="-231.5" font-family="Helvetica,sans-Serif" font-size="10.00">AttachmentsStorageComponent</text>
</a>
</g>
</g>
<!-- Node1&#45;&gt;Node6 -->
<g id="edge5" class="edge">
<title>Node1&#45;&gt;Node6</title>
<path fill="none" stroke="#63b8ff" d="M714.91,-144.32C735.13,-165.93 768.05,-197.33 803,-215 810.34,-218.71 818.4,-221.7 826.54,-224.12"/>
<polygon fill="#63b8ff" stroke="#63b8ff" points="717.89,-142.3 708.55,-137.29 712.72,-147.03 717.89,-142.3"/>
</g>
<!-- Node7 -->
<g id="node7" class="node">
<title>Node7</title>
<g id="a_node7"><a xlink:href="interfaceBaseEquipedWeaponStorageComponent.html" target="_top" xlink:title=" ">
<polygon fill="white" stroke="#666666" points="960,-206 816,-206 816,-176 960,-176 960,-206"/>
<text text-anchor="start" x="824" y="-194" font-family="Helvetica,sans-Serif" font-size="10.00">BaseEquipedWeaponStorage</text>
<text text-anchor="middle" x="888" y="-183" font-family="Helvetica,sans-Serif" font-size="10.00">Component</text>
</a>
</g>
</g>
<!-- Node1&#45;&gt;Node7 -->
<g id="edge6" class="edge">
<title>Node1&#45;&gt;Node7</title>
<path fill="none" stroke="#63b8ff" d="M737.7,-140.76C757.4,-149.39 781.15,-159.28 803,-167 811.44,-169.98 820.45,-172.86 829.32,-175.53"/>
<polygon fill="#63b8ff" stroke="#63b8ff" points="739.37,-137.22 728.8,-136.37 736.53,-143.62 739.37,-137.22"/>
</g>
<!-- Node9 -->
<g id="node9" class="node">
<title>Node9</title>
<g id="a_node9"><a xlink:href="interfaceBaseUniversalInventoryStorageComponent.html" target="_top" xlink:title=" ">
<polygon fill="white" stroke="#666666" points="963,-158 813,-158 813,-128 963,-128 963,-158"/>
<text text-anchor="start" x="821" y="-146" font-family="Helvetica,sans-Serif" font-size="10.00">BaseUniversalInventoryStorage</text>
<text text-anchor="middle" x="888" y="-135" font-family="Helvetica,sans-Serif" font-size="10.00">Component</text>
</a>
</g>
</g>
<!-- Node1&#45;&gt;Node9 -->
<g id="edge8" class="edge">
<title>Node1&#45;&gt;Node9</title>
<path fill="none" stroke="#63b8ff" d="M778.15,-130.56C789.58,-131.87 801.26,-133.2 812.52,-134.49"/>
<polygon fill="#63b8ff" stroke="#63b8ff" points="778.61,-126.98 768.28,-129.32 777.81,-133.93 778.61,-126.98"/>
</g>
<!-- Node18 -->
<g id="node18" class="node">
<title>Node18</title>
<g id="a_node18"><a xlink:href="interfaceClothNodeStorageComponent.html" target="_top" xlink:title=" ">
<polygon fill="white" stroke="#666666" points="960.5,-109.5 815.5,-109.5 815.5,-90.5 960.5,-90.5 960.5,-109.5"/>
<text text-anchor="middle" x="888" y="-97.5" font-family="Helvetica,sans-Serif" font-size="10.00">ClothNodeStorageComponent</text>
</a>
</g>
</g>
<!-- Node1&#45;&gt;Node18 -->
<g id="edge17" class="edge">
<title>Node1&#45;&gt;Node18</title>
<path fill="none" stroke="#63b8ff" d="M778.03,-111.89C790.37,-110.54 803,-109.16 815.08,-107.85"/>
<polygon fill="#63b8ff" stroke="#63b8ff" points="777.84,-108.5 768.28,-113.06 778.6,-115.46 777.84,-108.5"/>
</g>
<!-- Node19 -->
<g id="node19" class="node">
<title>Node19</title>
<g id="a_node19"><a xlink:href="interfaceEquipedLoadoutStorageComponent.html" target="_top" xlink:title=" ">
<polygon fill="white" stroke="#666666" points="973,-72.5 803,-72.5 803,-53.5 973,-53.5 973,-72.5"/>
<text text-anchor="middle" x="888" y="-60.5" font-family="Helvetica,sans-Serif" font-size="10.00">EquipedLoadoutStorageComponent</text>
</a>
</g>
</g>
<!-- Node1&#45;&gt;Node19 -->
<g id="edge18" class="edge">
<title>Node1&#45;&gt;Node19</title>
<path fill="none" stroke="#63b8ff" d="M742.28,-101.72C761.02,-94.6 782.83,-86.85 803,-81 813.17,-78.05 824.16,-75.35 834.73,-73"/>
<polygon fill="#63b8ff" stroke="#63b8ff" points="741.3,-98.73 733.22,-105.59 743.81,-105.26 741.3,-98.73"/>
</g>
<!-- Node23 -->
<g id="node23" class="node">
<title>Node23</title>
<g id="a_node23"><a xlink:href="interfaceWeaponAttachmentsStorageComponent.html" target="_top" xlink:title=" ">
<polygon fill="white" stroke="#666666" points="959,-33 817,-33 817,-3 959,-3 959,-33"/>
<text text-anchor="start" x="825" y="-21" font-family="Helvetica,sans-Serif" font-size="10.00">WeaponAttachmentsStorage</text>
<text text-anchor="middle" x="888" y="-10" font-family="Helvetica,sans-Serif" font-size="10.00">Component</text>
</a>
</g>
</g>
<!-- Node1&#45;&gt;Node23 -->
<g id="edge22" class="edge">
<title>Node1&#45;&gt;Node23</title>
<path fill="none" stroke="#63b8ff" d="M720.58,-98.88C741.67,-81.92 772.74,-58.94 803,-44 811.08,-40.01 819.89,-36.48 828.68,-33.41"/>
<polygon fill="#63b8ff" stroke="#63b8ff" points="718.71,-96.71 713.18,-105.74 723.14,-102.13 718.71,-96.71"/>
</g>
<!-- Node2 -->
<g id="node2" class="node">
<title>Node2</title>
<g id="a_node2"><a xlink:href="interfaceBaseInventoryStorageComponent.html" target="_top" xlink:title=" ">
<polygon fill="white" stroke="#666666" points="584,-130.5 423,-130.5 423,-111.5 584,-111.5 584,-130.5"/>
<text text-anchor="middle" x="503.5" y="-118.5" font-family="Helvetica,sans-Serif" font-size="10.00">BaseInventoryStorageComponent</text>
</a>
</g>
</g>
<!-- Node2&#45;&gt;Node1 -->
<g id="edge1" class="edge">
<title>Node2&#45;&gt;Node1</title>
<path fill="none" stroke="#63b8ff" d="M594.99,-121C603.22,-121 611.47,-121 619.51,-121"/>
<polygon fill="#63b8ff" stroke="#63b8ff" points="595.23,-117.5 585.23,-121 595.23,-124.5 595.23,-117.5"/>
</g>
<!-- Node3 -->
<g id="node3" class="node">
<title>Node3</title>
<g id="a_node3"><a xlink:href="interfaceInventoryItemComponent.html" target="_top" xlink:title=" ">
<polygon fill="white" stroke="#666666" points="387,-130.5 264,-130.5 264,-111.5 387,-111.5 387,-130.5"/>
<text text-anchor="middle" x="325.5" y="-118.5" font-family="Helvetica,sans-Serif" font-size="10.00">InventoryItemComponent</text>
</a>
</g>
</g>
<!-- Node3&#45;&gt;Node2 -->
<g id="edge2" class="edge">
<title>Node3&#45;&gt;Node2</title>
<path fill="none" stroke="#63b8ff" d="M397.96,-121C406.06,-121 414.35,-121 422.55,-121"/>
<polygon fill="#63b8ff" stroke="#63b8ff" points="398.07,-117.5 388.07,-121 398.07,-124.5 398.07,-117.5"/>
</g>
<!-- Node4 -->
<g id="node4" class="node">
<title>Node4</title>
<g id="a_node4"><a xlink:href="interfaceGameComponent.html" target="_top" xlink:title=" ">
<polygon fill="white" stroke="#666666" points="228,-130.5 136,-130.5 136,-111.5 228,-111.5 228,-130.5"/>
<text text-anchor="middle" x="182" y="-118.5" font-family="Helvetica,sans-Serif" font-size="10.00">GameComponent</text>
</a>
</g>
</g>
<!-- Node4&#45;&gt;Node3 -->
<g id="edge3" class="edge">
<title>Node4&#45;&gt;Node3</title>
<path fill="none" stroke="#63b8ff" d="M238.95,-121C247.02,-121 255.35,-121 263.51,-121"/>
<polygon fill="#63b8ff" stroke="#63b8ff" points="239.16,-117.5 229.16,-121 239.16,-124.5 239.16,-117.5"/>
</g>
<!-- Node5 -->
<g id="node5" class="node">
<title>Node5</title>
<g id="a_node5"><a xlink:title=" ">
<polygon fill="white" stroke="#666666" points="100,-130.5 0,-130.5 0,-111.5 100,-111.5 100,-130.5"/>
<text text-anchor="middle" x="50" y="-118.5" font-family="Helvetica,sans-Serif" font-size="10.00">GenericComponent</text>
</a>
</g>
</g>
<!-- Node5&#45;&gt;Node4 -->
<g id="edge4" class="edge">
<title>Node5&#45;&gt;Node4</title>
<path fill="none" stroke="#63b8ff" d="M110.95,-121C119.25,-121 127.66,-121 135.64,-121"/>
<polygon fill="#63b8ff" stroke="#63b8ff" points="111.15,-117.5 101.15,-121 111.15,-124.5 111.15,-117.5"/>
</g>
<!-- Node8 -->
<g id="node8" class="node">
<title>Node8</title>
<g id="a_node8"><a xlink:href="interfaceEquipedWeaponStorageComponent.html" target="_top" xlink:title=" ">
<polygon fill="white" stroke="#666666" points="1180,-200.5 1009,-200.5 1009,-181.5 1180,-181.5 1180,-200.5"/>
<text text-anchor="middle" x="1094.5" y="-188.5" font-family="Helvetica,sans-Serif" font-size="10.00">EquipedWeaponStorageComponent</text>
</a>
</g>
</g>
<!-- Node7&#45;&gt;Node8 -->
<g id="edge7" class="edge">
<title>Node7&#45;&gt;Node8</title>
<path fill="none" stroke="#63b8ff" d="M971.04,-191C983.47,-191 996.32,-191 1008.81,-191"/>
<polygon fill="#63b8ff" stroke="#63b8ff" points="971.24,-187.5 961.24,-191 971.24,-194.5 971.24,-187.5"/>
</g>
<!-- Node10 -->
<g id="node10" class="node">
<title>Node10</title>
<g id="a_node10"><a xlink:href="interfaceUniversalInventoryStorageComponent.html" target="_top" xlink:title=" ">
<polygon fill="white" stroke="#666666" points="1158.5,-160 1030.5,-160 1030.5,-130 1158.5,-130 1158.5,-160"/>
<text text-anchor="start" x="1038.5" y="-148" font-family="Helvetica,sans-Serif" font-size="10.00">UniversalInventoryStorage</text>
<text text-anchor="middle" x="1094.5" y="-137" font-family="Helvetica,sans-Serif" font-size="10.00">Component</text>
</a>
</g>
</g>
<!-- Node9&#45;&gt;Node10 -->
<g id="edge9" class="edge">
<title>Node9&#45;&gt;Node10</title>
<path fill="none" stroke="#63b8ff" d="M974.33,-143.83C993.07,-144.02 1012.58,-144.21 1030.27,-144.38"/>
<polygon fill="#63b8ff" stroke="#63b8ff" points="974.44,-140.33 964.41,-143.73 974.37,-147.33 974.44,-140.33"/>
</g>
<!-- Node11 -->
<g id="node11" class="node">
<title>Node11</title>
<g id="a_node11"><a xlink:href="interfaceBaseEquipmentStorageComponent.html" target="_top" xlink:title=" ">
<polygon fill="white" stroke="#666666" points="1385,-203.5 1216,-203.5 1216,-184.5 1385,-184.5 1385,-203.5"/>
<text text-anchor="middle" x="1300.5" y="-191.5" font-family="Helvetica,sans-Serif" font-size="10.00">BaseEquipmentStorageComponent</text>
</a>
</g>
</g>
<!-- Node10&#45;&gt;Node11 -->
<g id="edge10" class="edge">
<title>Node10&#45;&gt;Node11</title>
<path fill="none" stroke="#63b8ff" d="M1166.88,-163.03C1183.02,-167.03 1200.09,-171.21 1216,-175 1228.58,-178 1242.26,-181.15 1254.83,-184.01"/>
<polygon fill="#63b8ff" stroke="#63b8ff" points="1167.98,-159.44 1157.43,-160.43 1166.29,-166.24 1167.98,-159.44"/>
</g>
<!-- Node16 -->
<g id="node16" class="node">
<title>Node16</title>
<g id="a_node16"><a xlink:href="interfaceSCR__CampaignArmoryStorageComponent.html" target="_top" xlink:title=" ">
<polygon fill="white" stroke="#666666" points="1376,-166 1225,-166 1225,-136 1376,-136 1376,-166"/>
<text text-anchor="start" x="1233" y="-154" font-family="Helvetica,sans-Serif" font-size="10.00">SCR_CampaignArmoryStorage</text>
<text text-anchor="middle" x="1300.5" y="-143" font-family="Helvetica,sans-Serif" font-size="10.00">Component</text>
</a>
</g>
</g>
<!-- Node10&#45;&gt;Node16 -->
<g id="edge15" class="edge">
<title>Node10&#45;&gt;Node16</title>
<path fill="none" stroke="#63b8ff" d="M1169.86,-147.19C1187.72,-147.71 1206.79,-148.27 1224.66,-148.8"/>
<polygon fill="#63b8ff" stroke="#63b8ff" points="1170.03,-143.66 1159.93,-146.87 1169.82,-150.66 1170.03,-143.66"/>
</g>
<!-- Node17 -->
<g id="node17" class="node">
<title>Node17</title>
<g id="a_node17"><a xlink:href="interfaceSCR__UniversalInventoryStorageComponent.html" target="_top" xlink:title="Current storage variant allows dynamic scaling of slots and handles Move/Insert/Remove operations it ...">
<polygon fill="white" stroke="#666666" points="1377,-118 1224,-118 1224,-88 1377,-88 1377,-118"/>
<text text-anchor="start" x="1232" y="-106" font-family="Helvetica,sans-Serif" font-size="10.00">SCR_UniversalInventoryStorage</text>
<text text-anchor="middle" x="1300.5" y="-95" font-family="Helvetica,sans-Serif" font-size="10.00">Component</text>
</a>
</g>
</g>
<!-- Node10&#45;&gt;Node17 -->
<g id="edge16" class="edge">
<title>Node10&#45;&gt;Node17</title>
<path fill="none" stroke="#63b8ff" d="M1169.55,-129.75C1187.37,-126.09 1206.43,-122.16 1224.3,-118.48"/>
<polygon fill="#63b8ff" stroke="#63b8ff" points="1169.02,-126.5 1159.93,-131.94 1170.43,-133.35 1169.02,-126.5"/>
</g>
<!-- Node12 -->
<g id="node12" class="node">
<title>Node12</title>
<g id="a_node12"><a xlink:href="interfaceEquipmentStorageComponent.html" target="_top" xlink:title="Current storage variant uses equipment storage slots to attach equipment to different item variants (...">
<polygon fill="white" stroke="#666666" points="1572,-203.5 1426,-203.5 1426,-184.5 1572,-184.5 1572,-203.5"/>
<text text-anchor="middle" x="1499" y="-191.5" font-family="Helvetica,sans-Serif" font-size="10.00">EquipmentStorageComponent</text>
</a>
</g>
</g>
<!-- Node11&#45;&gt;Node12 -->
<g id="edge11" class="edge">
<title>Node11&#45;&gt;Node12</title>
<path fill="none" stroke="#63b8ff" d="M1396.1,-194C1405.99,-194 1415.94,-194 1425.53,-194"/>
<polygon fill="#63b8ff" stroke="#63b8ff" points="1396.4,-190.5 1386.4,-194 1396.4,-197.5 1396.4,-190.5"/>
</g>
<!-- Node13 -->
<g id="node13" class="node">
<title>Node13</title>
<g id="a_node13"><a xlink:href="interfaceSCR__EquipmentStorageComponent.html" target="_top" xlink:title="Equipment storage are slots which are part of their parent entity but not taking up the standard carg...">
<polygon fill="white" stroke="#666666" points="1785,-203.5 1613,-203.5 1613,-184.5 1785,-184.5 1785,-203.5"/>
<text text-anchor="middle" x="1699" y="-191.5" font-family="Helvetica,sans-Serif" font-size="10.00">SCR_EquipmentStorageComponent</text>
</a>
</g>
</g>
<!-- Node12&#45;&gt;Node13 -->
<g id="edge12" class="edge">
<title>Node12&#45;&gt;Node13</title>
<path fill="none" stroke="#63b8ff" d="M1583.24,-194C1593,-194 1602.98,-194 1612.77,-194"/>
<polygon fill="#63b8ff" stroke="#63b8ff" points="1583.32,-190.5 1573.32,-194 1583.32,-197.5 1583.32,-190.5"/>
</g>
<!-- Node14 -->
<g id="node14" class="node">
<title>Node14</title>
<g id="a_node14"><a xlink:href="interfaceSCR__SalineStorageComponent.html" target="_top" xlink:title=" ">
<polygon fill="white" stroke="#666666" points="1982,-222.5 1830,-222.5 1830,-203.5 1982,-203.5 1982,-222.5"/>
<text text-anchor="middle" x="1906" y="-210.5" font-family="Helvetica,sans-Serif" font-size="10.00">SCR_SalineStorageComponent</text>
</a>
</g>
</g>
<!-- Node13&#45;&gt;Node14 -->
<g id="edge13" class="edge">
<title>Node13&#45;&gt;Node14</title>
<path fill="none" stroke="#63b8ff" d="M1796.22,-202.92C1807.49,-203.96 1818.87,-205.02 1829.81,-206.03"/>
<polygon fill="#63b8ff" stroke="#63b8ff" points="1796.73,-199.36 1786.45,-201.92 1796.09,-206.33 1796.73,-199.36"/>
</g>
<!-- Node15 -->
<g id="node15" class="node">
<title>Node15</title>
<g id="a_node15"><a xlink:href="interfaceSCR__TourniquetStorageComponent.html" target="_top" xlink:title=" ">
<polygon fill="white" stroke="#666666" points="1991,-185.5 1821,-185.5 1821,-166.5 1991,-166.5 1991,-185.5"/>
<text text-anchor="middle" x="1906" y="-173.5" font-family="Helvetica,sans-Serif" font-size="10.00">SCR_TourniquetStorageComponent</text>
</a>
</g>
</g>
<!-- Node13&#45;&gt;Node15 -->
<g id="edge14" class="edge">
<title>Node13&#45;&gt;Node15</title>
<path fill="none" stroke="#63b8ff" d="M1796.17,-185.56C1804.35,-184.84 1812.59,-184.11 1820.67,-183.4"/>
<polygon fill="#63b8ff" stroke="#63b8ff" points="1796.11,-182.14 1786.45,-186.5 1796.72,-189.11 1796.11,-182.14"/>
</g>
<!-- Node20 -->
<g id="node20" class="node">
<title>Node20</title>
<g id="a_node20"><a xlink:href="interfaceSCR__EquipedLoadoutStorageComponent.html" target="_top" xlink:title=" ">
<polygon fill="white" stroke="#666666" points="1167.5,-78 1021.5,-78 1021.5,-48 1167.5,-48 1167.5,-78"/>
<text text-anchor="start" x="1029.5" y="-66" font-family="Helvetica,sans-Serif" font-size="10.00">SCR_EquipedLoadoutStorage</text>
<text text-anchor="middle" x="1094.5" y="-55" font-family="Helvetica,sans-Serif" font-size="10.00">Component</text>
</a>
</g>
</g>
<!-- Node19&#45;&gt;Node20 -->
<g id="edge19" class="edge">
<title>Node19&#45;&gt;Node20</title>
<path fill="none" stroke="#63b8ff" d="M984.2,-63C996.6,-63 1009.14,-63 1021.08,-63"/>
<polygon fill="#63b8ff" stroke="#63b8ff" points="984.36,-59.5 974.36,-63 984.36,-66.5 984.36,-59.5"/>
</g>
<!-- Node21 -->
<g id="node21" class="node">
<title>Node21</title>
<g id="a_node21"><a xlink:href="interfaceCharacterInventoryStorageComponent.html" target="_top" xlink:title=" ">
<polygon fill="white" stroke="#666666" points="1366,-70 1235,-70 1235,-40 1366,-40 1366,-70"/>
<text text-anchor="start" x="1243" y="-58" font-family="Helvetica,sans-Serif" font-size="10.00">CharacterInventoryStorage</text>
<text text-anchor="middle" x="1300.5" y="-47" font-family="Helvetica,sans-Serif" font-size="10.00">Component</text>
</a>
</g>
</g>
<!-- Node20&#45;&gt;Node21 -->
<g id="edge20" class="edge">
<title>Node20&#45;&gt;Node21</title>
<path fill="none" stroke="#63b8ff" d="M1178.85,-59.73C1197.47,-59 1216.96,-58.24 1234.7,-57.54"/>
<polygon fill="#63b8ff" stroke="#63b8ff" points="1178.85,-56.27 1169,-60.16 1179.13,-63.26 1178.85,-56.27"/>
</g>
<!-- Node22 -->
<g id="node22" class="node">
<title>Node22</title>
<g id="a_node22"><a xlink:href="interfaceSCR__CharacterInventoryStorageComponent.html" target="_top" xlink:title=" ">
<polygon fill="white" stroke="#666666" points="1577,-70 1421,-70 1421,-40 1577,-40 1577,-70"/>
<text text-anchor="start" x="1429" y="-58" font-family="Helvetica,sans-Serif" font-size="10.00">SCR_CharacterInventoryStorage</text>
<text text-anchor="middle" x="1499" y="-47" font-family="Helvetica,sans-Serif" font-size="10.00">Component</text>
</a>
</g>
</g>
<!-- Node21&#45;&gt;Node22 -->
<g id="edge21" class="edge">
<title>Node21&#45;&gt;Node22</title>
<path fill="none" stroke="#63b8ff" d="M1377.12,-55C1391.35,-55 1406.25,-55 1420.54,-55"/>
<polygon fill="#63b8ff" stroke="#63b8ff" points="1377.39,-51.5 1367.39,-55 1377.39,-58.5 1377.39,-51.5"/>
</g>
<!-- Node24 -->
<g id="node24" class="node">
<title>Node24</title>
<g id="a_node24"><a xlink:href="interfaceSCR__WeaponAttachmentsStorageComponent.html" target="_top" xlink:title=" ">
<polygon fill="white" stroke="#666666" points="1178,-30 1011,-30 1011,0 1178,0 1178,-30"/>
<text text-anchor="start" x="1019" y="-18" font-family="Helvetica,sans-Serif" font-size="10.00">SCR_WeaponAttachmentsStorage</text>
<text text-anchor="middle" x="1094.5" y="-7" font-family="Helvetica,sans-Serif" font-size="10.00">Component</text>
</a>
</g>
</g>
<!-- Node23&#45;&gt;Node24 -->
<g id="edge23" class="edge">
<title>Node23&#45;&gt;Node24</title>
<path fill="none" stroke="#63b8ff" d="M970.38,-16.81C983.63,-16.61 997.38,-16.41 1010.67,-16.22"/>
<polygon fill="#63b8ff" stroke="#63b8ff" points="970.32,-13.32 960.38,-16.97 970.43,-20.32 970.32,-13.32"/>
</g>
</g>
</svg>
