<?xml version="1.0" encoding="UTF-8" standalone="no"?>
<!DOCTYPE svg PUBLIC "-//W3C//DTD SVG 1.1//EN"
 "http://www.w3.org/Graphics/SVG/1.1/DTD/svg11.dtd">
<!-- Generated by graphviz version 8.0.2 (20230410.1723)
 -->
<!-- Title: BaseWeaponAimModifier Pages: 1 -->
<svg width="323pt" height="192pt"
 viewBox="0.00 0.00 323.00 192.00" xmlns="http://www.w3.org/2000/svg" xmlns:xlink="http://www.w3.org/1999/xlink">
<g id="graph0" class="graph" transform="scale(1 1) rotate(0) translate(4 188)">
<title>BaseWeaponAimModifier</title>
<!-- Node1 -->
<g id="node1" class="node">
<title>Node1</title>
<g id="a_node1"><a xlink:title=" ">
<polygon fill="#999999" stroke="#666666" points="238,-129 112,-129 112,-110 238,-110 238,-129"/>
<text text-anchor="middle" x="175" y="-117" font-family="Helvetica,sans-Serif" font-size="10.00">BaseWeaponAimModifier</text>
</a>
</g>
</g>
<!-- Node3 -->
<g id="node3" class="node">
<title>Node3</title>
<g id="a_node3"><a xlink:href="interfaceScriptedWeaponAimModifier.html" target="_top" xlink:title=" ">
<polygon fill="white" stroke="#666666" points="169,-74 29,-74 29,-55 169,-55 169,-74"/>
<text text-anchor="middle" x="99" y="-62" font-family="Helvetica,sans-Serif" font-size="10.00">ScriptedWeaponAimModifier</text>
</a>
</g>
</g>
<!-- Node1&#45;&gt;Node3 -->
<g id="edge2" class="edge">
<title>Node1&#45;&gt;Node3</title>
<path fill="none" stroke="#63b8ff" d="M153.43,-103.46C139.96,-94.06 123.06,-82.28 111.7,-74.36"/>
<polygon fill="#63b8ff" stroke="#63b8ff" points="150.9,-106.66 161.11,-109.51 154.91,-100.92 150.9,-106.66"/>
</g>
<!-- Node6 -->
<g id="node6" class="node">
<title>Node6</title>
<g id="a_node6"><a xlink:href="interfaceSwayWeaponAimModifier.html" target="_top" xlink:title=" ">
<polygon fill="white" stroke="#666666" points="315,-74 187,-74 187,-55 315,-55 315,-74"/>
<text text-anchor="middle" x="251" y="-62" font-family="Helvetica,sans-Serif" font-size="10.00">SwayWeaponAimModifier</text>
</a>
</g>
</g>
<!-- Node1&#45;&gt;Node6 -->
<g id="edge5" class="edge">
<title>Node1&#45;&gt;Node6</title>
<path fill="none" stroke="#63b8ff" d="M196.57,-103.46C210.04,-94.06 226.94,-82.28 238.3,-74.36"/>
<polygon fill="#63b8ff" stroke="#63b8ff" points="195.09,-100.92 188.89,-109.51 199.1,-106.66 195.09,-100.92"/>
</g>
<!-- Node2 -->
<g id="node2" class="node">
<title>Node2</title>
<g id="a_node2"><a xlink:title=" ">
<polygon fill="white" stroke="#666666" points="218,-184 132,-184 132,-165 218,-165 218,-184"/>
<text text-anchor="middle" x="175" y="-172" font-family="Helvetica,sans-Serif" font-size="10.00">ScriptAndConfig</text>
</a>
</g>
</g>
<!-- Node2&#45;&gt;Node1 -->
<g id="edge1" class="edge">
<title>Node2&#45;&gt;Node1</title>
<path fill="none" stroke="#63b8ff" d="M175,-153.93C175,-145.53 175,-136.13 175,-129.44"/>
<polygon fill="#63b8ff" stroke="#63b8ff" points="171.5,-153.75 175,-163.75 178.5,-153.75 171.5,-153.75"/>
</g>
<!-- Node4 -->
<g id="node4" class="node">
<title>Node4</title>
<g id="a_node4"><a xlink:href="interfaceOnHitAimModifier.html" target="_top" xlink:title="ONHIT AIM MODIFIER.">
<polygon fill="white" stroke="#666666" points="92,-19 0,-19 0,0 92,0 92,-19"/>
<text text-anchor="middle" x="46" y="-7" font-family="Helvetica,sans-Serif" font-size="10.00">OnHitAimModifier</text>
</a>
</g>
</g>
<!-- Node3&#45;&gt;Node4 -->
<g id="edge3" class="edge">
<title>Node3&#45;&gt;Node4</title>
<path fill="none" stroke="#63b8ff" d="M82.56,-47.06C73.45,-37.95 62.47,-26.97 54.94,-19.44"/>
<polygon fill="#63b8ff" stroke="#63b8ff" points="79.7,-49.15 89.25,-53.75 84.65,-44.2 79.7,-49.15"/>
</g>
<!-- Node5 -->
<g id="node5" class="node">
<title>Node5</title>
<g id="a_node5"><a xlink:href="interfaceTestAimModifier.html" target="_top" xlink:title=" ">
<polygon fill="white" stroke="#666666" points="196,-19 110,-19 110,0 196,0 196,-19"/>
<text text-anchor="middle" x="153" y="-7" font-family="Helvetica,sans-Serif" font-size="10.00">TestAimModifier</text>
</a>
</g>
</g>
<!-- Node3&#45;&gt;Node5 -->
<g id="edge4" class="edge">
<title>Node3&#45;&gt;Node5</title>
<path fill="none" stroke="#63b8ff" d="M115.75,-47.06C125.04,-37.95 136.22,-26.97 143.89,-19.44"/>
<polygon fill="#63b8ff" stroke="#63b8ff" points="113.6,-44.25 108.92,-53.75 118.51,-49.24 113.6,-44.25"/>
</g>
</g>
</svg>
