<?xml version="1.0" encoding="UTF-8" standalone="no"?>
<!DOCTYPE svg PUBLIC "-//W3C//DTD SVG 1.1//EN"
 "http://www.w3.org/Graphics/SVG/1.1/DTD/svg11.dtd">
<!-- Generated by graphviz version 8.0.2 (20230410.1723)
 -->
<!-- Title: SCR_InventorySpinBoxComponent Pages: 1 -->
<svg width="175pt" height="357pt"
 viewBox="0.00 0.00 175.00 357.00" xmlns="http://www.w3.org/2000/svg" xmlns:xlink="http://www.w3.org/1999/xlink">
<g id="graph0" class="graph" transform="scale(1 1) rotate(0) translate(4 353)">
<title>SCR_InventorySpinBoxComponent</title>
<!-- Node1 -->
<g id="node1" class="node">
<title>Node1</title>
<g id="a_node1"><a xlink:title=" ">
<polygon fill="#999999" stroke="#666666" points="167,-19 0,-19 0,0 167,0 167,-19"/>
<text text-anchor="middle" x="83.5" y="-7" font-family="Helvetica,sans-Serif" font-size="10.00">SCR_InventorySpinBoxComponent</text>
</a>
</g>
</g>
<!-- Node2 -->
<g id="node2" class="node">
<title>Node2</title>
<g id="a_node2"><a xlink:href="interfaceSCR__SpinBoxComponent.html" target="_top" xlink:title=" ">
<polygon fill="white" stroke="#666666" points="147.5,-74 19.5,-74 19.5,-55 147.5,-55 147.5,-74"/>
<text text-anchor="middle" x="83.5" y="-62" font-family="Helvetica,sans-Serif" font-size="10.00">SCR_SpinBoxComponent</text>
</a>
</g>
</g>
<!-- Node2&#45;&gt;Node1 -->
<g id="edge1" class="edge">
<title>Node2&#45;&gt;Node1</title>
<path fill="none" stroke="#63b8ff" d="M83.5,-43.93C83.5,-35.53 83.5,-26.13 83.5,-19.44"/>
<polygon fill="#63b8ff" stroke="#63b8ff" points="80,-43.75 83.5,-53.75 87,-43.75 80,-43.75"/>
</g>
<!-- Node3 -->
<g id="node3" class="node">
<title>Node3</title>
<g id="a_node3"><a xlink:href="interfaceSCR__SelectionWidgetComponent.html" target="_top" xlink:title=" ">
<polygon fill="white" stroke="#666666" points="165,-129 2,-129 2,-110 165,-110 165,-129"/>
<text text-anchor="middle" x="83.5" y="-117" font-family="Helvetica,sans-Serif" font-size="10.00">SCR_SelectionWidgetComponent</text>
</a>
</g>
</g>
<!-- Node3&#45;&gt;Node2 -->
<g id="edge2" class="edge">
<title>Node3&#45;&gt;Node2</title>
<path fill="none" stroke="#63b8ff" d="M83.5,-98.93C83.5,-90.53 83.5,-81.13 83.5,-74.44"/>
<polygon fill="#63b8ff" stroke="#63b8ff" points="80,-98.75 83.5,-108.75 87,-98.75 80,-98.75"/>
</g>
<!-- Node4 -->
<g id="node4" class="node">
<title>Node4</title>
<g id="a_node4"><a xlink:href="interfaceSCR__ChangeableComponentBase.html" target="_top" xlink:title="Base class for all widgets that can change their internal state as editbox or spinbox.">
<polygon fill="white" stroke="#666666" points="166,-184 1,-184 1,-165 166,-165 166,-184"/>
<text text-anchor="middle" x="83.5" y="-172" font-family="Helvetica,sans-Serif" font-size="10.00">SCR_ChangeableComponentBase</text>
</a>
</g>
</g>
<!-- Node4&#45;&gt;Node3 -->
<g id="edge3" class="edge">
<title>Node4&#45;&gt;Node3</title>
<path fill="none" stroke="#63b8ff" d="M83.5,-153.93C83.5,-145.53 83.5,-136.13 83.5,-129.44"/>
<polygon fill="#63b8ff" stroke="#63b8ff" points="80,-153.75 83.5,-163.75 87,-153.75 80,-153.75"/>
</g>
<!-- Node5 -->
<g id="node5" class="node">
<title>Node5</title>
<g id="a_node5"><a xlink:href="interfaceSCR__WLibComponentBase.html" target="_top" xlink:title="Base class for all final Reforger interactive elements.">
<polygon fill="white" stroke="#666666" points="152,-239 15,-239 15,-220 152,-220 152,-239"/>
<text text-anchor="middle" x="83.5" y="-227" font-family="Helvetica,sans-Serif" font-size="10.00">SCR_WLibComponentBase</text>
</a>
</g>
</g>
<!-- Node5&#45;&gt;Node4 -->
<g id="edge4" class="edge">
<title>Node5&#45;&gt;Node4</title>
<path fill="none" stroke="#63b8ff" d="M83.5,-208.93C83.5,-200.53 83.5,-191.13 83.5,-184.44"/>
<polygon fill="#63b8ff" stroke="#63b8ff" points="80,-208.75 83.5,-218.75 87,-208.75 80,-208.75"/>
</g>
<!-- Node6 -->
<g id="node6" class="node">
<title>Node6</title>
<g id="a_node6"><a xlink:href="interfaceSCR__ScriptedWidgetComponent.html" target="_top" xlink:title=" ">
<polygon fill="white" stroke="#666666" points="162.5,-294 4.5,-294 4.5,-275 162.5,-275 162.5,-294"/>
<text text-anchor="middle" x="83.5" y="-282" font-family="Helvetica,sans-Serif" font-size="10.00">SCR_ScriptedWidgetComponent</text>
</a>
</g>
</g>
<!-- Node6&#45;&gt;Node5 -->
<g id="edge5" class="edge">
<title>Node6&#45;&gt;Node5</title>
<path fill="none" stroke="#63b8ff" d="M83.5,-263.93C83.5,-255.53 83.5,-246.13 83.5,-239.44"/>
<polygon fill="#63b8ff" stroke="#63b8ff" points="80,-263.75 83.5,-273.75 87,-263.75 80,-263.75"/>
</g>
<!-- Node7 -->
<g id="node7" class="node">
<title>Node7</title>
<g id="a_node7"><a xlink:title=" ">
<polygon fill="white" stroke="#666666" points="150,-349 17,-349 17,-330 150,-330 150,-349"/>
<text text-anchor="middle" x="83.5" y="-337" font-family="Helvetica,sans-Serif" font-size="10.00">ScriptedWidgetComponent</text>
</a>
</g>
</g>
<!-- Node7&#45;&gt;Node6 -->
<g id="edge6" class="edge">
<title>Node7&#45;&gt;Node6</title>
<path fill="none" stroke="#63b8ff" d="M83.5,-318.93C83.5,-310.53 83.5,-301.13 83.5,-294.44"/>
<polygon fill="#63b8ff" stroke="#63b8ff" points="80,-318.75 83.5,-328.75 87,-318.75 80,-318.75"/>
</g>
</g>
</svg>
