<?xml version="1.0" encoding="UTF-8" standalone="no"?>
<!DOCTYPE svg PUBLIC "-//W3C//DTD SVG 1.1//EN"
 "http://www.w3.org/Graphics/SVG/1.1/DTD/svg11.dtd">
<!-- Generated by graphviz version 8.0.2 (20230410.1723)
 -->
<!-- Title: SCR_ResourceConsumer Pages: 1 -->
<svg width="136pt" height="192pt"
 viewBox="0.00 0.00 136.00 192.00" xmlns="http://www.w3.org/2000/svg" xmlns:xlink="http://www.w3.org/1999/xlink">
<g id="graph0" class="graph" transform="scale(1 1) rotate(0) translate(4 188)">
<title>SCR_ResourceConsumer</title>
<!-- Node1 -->
<g id="node1" class="node">
<title>Node1</title>
<g id="a_node1"><a xlink:title=" ">
<polygon fill="#999999" stroke="#666666" points="128,-19 0,-19 0,0 128,0 128,-19"/>
<text text-anchor="middle" x="64" y="-7" font-family="Helvetica,sans-Serif" font-size="10.00">SCR_ResourceConsumer</text>
</a>
</g>
</g>
<!-- Node2 -->
<g id="node2" class="node">
<title>Node2</title>
<g id="a_node2"><a xlink:href="interfaceSCR__ResourceInteractor.html" target="_top" xlink:title=" ">
<polygon fill="white" stroke="#666666" points="126,-74 2,-74 2,-55 126,-55 126,-74"/>
<text text-anchor="middle" x="64" y="-62" font-family="Helvetica,sans-Serif" font-size="10.00">SCR_ResourceInteractor</text>
</a>
</g>
</g>
<!-- Node2&#45;&gt;Node1 -->
<g id="edge1" class="edge">
<title>Node2&#45;&gt;Node1</title>
<path fill="none" stroke="#63b8ff" d="M64,-43.93C64,-35.53 64,-26.13 64,-19.44"/>
<polygon fill="#63b8ff" stroke="#63b8ff" points="60.5,-43.75 64,-53.75 67.5,-43.75 60.5,-43.75"/>
</g>
<!-- Node3 -->
<g id="node3" class="node">
<title>Node3</title>
<g id="a_node3"><a xlink:href="interfaceSCR__ResourceActor.html" target="_top" xlink:title=" ">
<polygon fill="white" stroke="#666666" points="117.5,-129 10.5,-129 10.5,-110 117.5,-110 117.5,-129"/>
<text text-anchor="middle" x="64" y="-117" font-family="Helvetica,sans-Serif" font-size="10.00">SCR_ResourceActor</text>
</a>
</g>
</g>
<!-- Node3&#45;&gt;Node2 -->
<g id="edge2" class="edge">
<title>Node3&#45;&gt;Node2</title>
<path fill="none" stroke="#63b8ff" d="M64,-98.93C64,-90.53 64,-81.13 64,-74.44"/>
<polygon fill="#63b8ff" stroke="#63b8ff" points="60.5,-98.75 64,-108.75 67.5,-98.75 60.5,-98.75"/>
</g>
<!-- Node4 -->
<g id="node4" class="node">
<title>Node4</title>
<g id="a_node4"><a xlink:title=" ">
<polygon fill="white" stroke="#666666" points="107,-184 21,-184 21,-165 107,-165 107,-184"/>
<text text-anchor="middle" x="64" y="-172" font-family="Helvetica,sans-Serif" font-size="10.00">ScriptAndConfig</text>
</a>
</g>
</g>
<!-- Node4&#45;&gt;Node3 -->
<g id="edge3" class="edge">
<title>Node4&#45;&gt;Node3</title>
<path fill="none" stroke="#63b8ff" d="M64,-153.93C64,-145.53 64,-136.13 64,-129.44"/>
<polygon fill="#63b8ff" stroke="#63b8ff" points="60.5,-153.75 64,-163.75 67.5,-153.75 60.5,-153.75"/>
</g>
</g>
</svg>
