<?xml version="1.0" encoding="UTF-8" standalone="no"?>
<!DOCTYPE svg PUBLIC "-//W3C//DTD SVG 1.1//EN"
 "http://www.w3.org/Graphics/SVG/1.1/DTD/svg11.dtd">
<!-- Generated by graphviz version 8.0.2 (20230410.1723)
 -->
<!-- Title: SCR_BaseLoadingScreenComponent Pages: 1 -->
<svg width="338pt" height="137pt"
 viewBox="0.00 0.00 337.50 137.00" xmlns="http://www.w3.org/2000/svg" xmlns:xlink="http://www.w3.org/1999/xlink">
<g id="graph0" class="graph" transform="scale(1 1) rotate(0) translate(4 133)">
<title>SCR_BaseLoadingScreenComponent</title>
<!-- Node1 -->
<g id="node1" class="node">
<title>Node1</title>
<g id="a_node1"><a xlink:title=" ">
<polygon fill="#999999" stroke="#666666" points="254.5,-74 75.5,-74 75.5,-55 254.5,-55 254.5,-74"/>
<text text-anchor="middle" x="165" y="-62" font-family="Helvetica,sans-Serif" font-size="10.00">SCR_BaseLoadingScreenComponent</text>
</a>
</g>
</g>
<!-- Node3 -->
<g id="node3" class="node">
<title>Node3</title>
<g id="a_node3"><a xlink:href="interfaceSCR__LoadingScreenComponent.html" target="_top" xlink:title=" ">
<polygon fill="white" stroke="#666666" points="156,-19 0,-19 0,0 156,0 156,-19"/>
<text text-anchor="middle" x="78" y="-7" font-family="Helvetica,sans-Serif" font-size="10.00">SCR_LoadingScreenComponent</text>
</a>
</g>
</g>
<!-- Node1&#45;&gt;Node3 -->
<g id="edge2" class="edge">
<title>Node1&#45;&gt;Node3</title>
<path fill="none" stroke="#63b8ff" d="M141.2,-49C125.63,-39.52 105.8,-27.43 92.54,-19.36"/>
<polygon fill="#63b8ff" stroke="#63b8ff" points="138.88,-52.3 149.24,-54.51 142.52,-46.32 138.88,-52.3"/>
</g>
<!-- Node4 -->
<g id="node4" class="node">
<title>Node4</title>
<g id="a_node4"><a xlink:href="interfaceSCR__PreloadScreenComponent.html" target="_top" xlink:title=" ">
<polygon fill="white" stroke="#666666" points="329.5,-19 174.5,-19 174.5,0 329.5,0 329.5,-19"/>
<text text-anchor="middle" x="252" y="-7" font-family="Helvetica,sans-Serif" font-size="10.00">SCR_PreloadScreenComponent</text>
</a>
</g>
</g>
<!-- Node1&#45;&gt;Node4 -->
<g id="edge3" class="edge">
<title>Node1&#45;&gt;Node4</title>
<path fill="none" stroke="#63b8ff" d="M188.8,-49C204.37,-39.52 224.2,-27.43 237.46,-19.36"/>
<polygon fill="#63b8ff" stroke="#63b8ff" points="187.48,-46.32 180.76,-54.51 191.12,-52.3 187.48,-46.32"/>
</g>
<!-- Node2 -->
<g id="node2" class="node">
<title>Node2</title>
<g id="a_node2"><a xlink:title=" ">
<polygon fill="white" stroke="#666666" points="231.5,-129 98.5,-129 98.5,-110 231.5,-110 231.5,-129"/>
<text text-anchor="middle" x="165" y="-117" font-family="Helvetica,sans-Serif" font-size="10.00">ScriptedWidgetComponent</text>
</a>
</g>
</g>
<!-- Node2&#45;&gt;Node1 -->
<g id="edge1" class="edge">
<title>Node2&#45;&gt;Node1</title>
<path fill="none" stroke="#63b8ff" d="M165,-98.93C165,-90.53 165,-81.13 165,-74.44"/>
<polygon fill="#63b8ff" stroke="#63b8ff" points="161.5,-98.75 165,-108.75 168.5,-98.75 161.5,-98.75"/>
</g>
</g>
</svg>
