<?xml version="1.0" encoding="UTF-8" standalone="no"?>
<!DOCTYPE svg PUBLIC "-//W3C//DTD SVG 1.1//EN"
 "http://www.w3.org/Graphics/SVG/1.1/DTD/svg11.dtd">
<!-- Generated by graphviz version 8.0.2 (20230410.1723)
 -->
<!-- Title: SCR_SettingsBindingBase Pages: 1 -->
<svg width="310pt" height="82pt"
 viewBox="0.00 0.00 310.00 82.00" xmlns="http://www.w3.org/2000/svg" xmlns:xlink="http://www.w3.org/1999/xlink">
<g id="graph0" class="graph" transform="scale(1 1) rotate(0) translate(4 78)">
<title>SCR_SettingsBindingBase</title>
<!-- Node1 -->
<g id="node1" class="node">
<title>Node1</title>
<g id="a_node1"><a xlink:title=" ">
<polygon fill="#999999" stroke="#666666" points="214,-74 81,-74 81,-55 214,-55 214,-74"/>
<text text-anchor="middle" x="147.5" y="-62" font-family="Helvetica,sans-Serif" font-size="10.00">SCR_SettingsBindingBase</text>
</a>
</g>
</g>
<!-- Node2 -->
<g id="node2" class="node">
<title>Node2</title>
<g id="a_node2"><a xlink:href="interfaceSCR__SettingBindingEngine.html" target="_top" xlink:title=" ">
<polygon fill="white" stroke="#666666" points="135,-19 0,-19 0,0 135,0 135,-19"/>
<text text-anchor="middle" x="67.5" y="-7" font-family="Helvetica,sans-Serif" font-size="10.00">SCR_SettingBindingEngine</text>
</a>
</g>
</g>
<!-- Node1&#45;&gt;Node2 -->
<g id="edge1" class="edge">
<title>Node1&#45;&gt;Node2</title>
<path fill="none" stroke="#63b8ff" d="M124.8,-48.46C110.61,-39.06 92.83,-27.28 80.87,-19.36"/>
<polygon fill="#63b8ff" stroke="#63b8ff" points="122.66,-51.9 132.93,-54.51 126.53,-46.07 122.66,-51.9"/>
</g>
<!-- Node3 -->
<g id="node3" class="node">
<title>Node3</title>
<g id="a_node3"><a xlink:href="interfaceSCR__SettingBindingGameplay.html" target="_top" xlink:title=" ">
<polygon fill="white" stroke="#666666" points="302,-19 153,-19 153,0 302,0 302,-19"/>
<text text-anchor="middle" x="227.5" y="-7" font-family="Helvetica,sans-Serif" font-size="10.00">SCR_SettingBindingGameplay</text>
</a>
</g>
</g>
<!-- Node1&#45;&gt;Node3 -->
<g id="edge2" class="edge">
<title>Node1&#45;&gt;Node3</title>
<path fill="none" stroke="#63b8ff" d="M170.2,-48.46C184.39,-39.06 202.17,-27.28 214.13,-19.36"/>
<polygon fill="#63b8ff" stroke="#63b8ff" points="168.47,-46.07 162.07,-54.51 172.34,-51.9 168.47,-46.07"/>
</g>
</g>
</svg>
