<?xml version="1.0" encoding="UTF-8" standalone="no"?>
<!DOCTYPE svg PUBLIC "-//W3C//DTD SVG 1.1//EN"
 "http://www.w3.org/Graphics/SVG/1.1/DTD/svg11.dtd">
<!-- Generated by graphviz version 8.0.2 (20230410.1723)
 -->
<!-- Title: SCR_ServicePointComponent Pages: 1 -->
<svg width="448pt" height="258pt"
 viewBox="0.00 0.00 447.50 258.00" xmlns="http://www.w3.org/2000/svg" xmlns:xlink="http://www.w3.org/1999/xlink">
<g id="graph0" class="graph" transform="scale(1 1) rotate(0) translate(4 254)">
<title>SCR_ServicePointComponent</title>
<!-- Node1 -->
<g id="node1" class="node">
<title>Node1</title>
<g id="a_node1"><a xlink:title=" ">
<polygon fill="#999999" stroke="#666666" points="253,-140 107,-140 107,-121 253,-121 253,-140"/>
<text text-anchor="middle" x="180" y="-128" font-family="Helvetica,sans-Serif" font-size="10.00">SCR_ServicePointComponent</text>
</a>
</g>
</g>
<!-- Node4 -->
<g id="node4" class="node">
<title>Node4</title>
<g id="a_node4"><a xlink:href="interfaceSCR__AntennaServicePointComponent.html" target="_top" xlink:title=" ">
<polygon fill="white" stroke="#666666" points="182,-85 0,-85 0,-66 182,-66 182,-85"/>
<text text-anchor="middle" x="91" y="-73" font-family="Helvetica,sans-Serif" font-size="10.00">SCR_AntennaServicePointComponent</text>
</a>
</g>
</g>
<!-- Node1&#45;&gt;Node4 -->
<g id="edge3" class="edge">
<title>Node1&#45;&gt;Node4</title>
<path fill="none" stroke="#63b8ff" d="M155.65,-115C139.73,-105.52 119.44,-93.43 105.87,-85.36"/>
<polygon fill="#63b8ff" stroke="#63b8ff" points="153.52,-118.4 163.9,-120.51 157.1,-112.39 153.52,-118.4"/>
</g>
<!-- Node5 -->
<g id="node5" class="node">
<title>Node5</title>
<g id="a_node5"><a xlink:href="interfaceSCR__SlotServiceComponent.html" target="_top" xlink:title="Service with basic slot handling functionalities.">
<polygon fill="white" stroke="#666666" points="340,-85 200,-85 200,-66 340,-66 340,-85"/>
<text text-anchor="middle" x="270" y="-73" font-family="Helvetica,sans-Serif" font-size="10.00">SCR_SlotServiceComponent</text>
</a>
</g>
</g>
<!-- Node1&#45;&gt;Node5 -->
<g id="edge4" class="edge">
<title>Node1&#45;&gt;Node5</title>
<path fill="none" stroke="#63b8ff" d="M204.62,-115C220.73,-105.52 241.24,-93.43 254.96,-85.36"/>
<polygon fill="#63b8ff" stroke="#63b8ff" points="203.11,-112.42 196.27,-120.51 206.66,-118.45 203.11,-112.42"/>
</g>
<!-- Node2 -->
<g id="node2" class="node">
<title>Node2</title>
<g id="a_node2"><a xlink:href="interfaceSCR__MilitaryBaseLogicComponent.html" target="_top" xlink:title=" ">
<polygon fill="white" stroke="#666666" points="264.5,-195 95.5,-195 95.5,-176 264.5,-176 264.5,-195"/>
<text text-anchor="middle" x="180" y="-183" font-family="Helvetica,sans-Serif" font-size="10.00">SCR_MilitaryBaseLogicComponent</text>
</a>
</g>
</g>
<!-- Node2&#45;&gt;Node1 -->
<g id="edge1" class="edge">
<title>Node2&#45;&gt;Node1</title>
<path fill="none" stroke="#63b8ff" d="M180,-164.93C180,-156.53 180,-147.13 180,-140.44"/>
<polygon fill="#63b8ff" stroke="#63b8ff" points="176.5,-164.75 180,-174.75 183.5,-164.75 176.5,-164.75"/>
</g>
<!-- Node3 -->
<g id="node3" class="node">
<title>Node3</title>
<g id="a_node3"><a xlink:title=" ">
<polygon fill="white" stroke="#666666" points="226,-250 134,-250 134,-231 226,-231 226,-250"/>
<text text-anchor="middle" x="180" y="-238" font-family="Helvetica,sans-Serif" font-size="10.00">ScriptComponent</text>
</a>
</g>
</g>
<!-- Node3&#45;&gt;Node2 -->
<g id="edge2" class="edge">
<title>Node3&#45;&gt;Node2</title>
<path fill="none" stroke="#63b8ff" d="M180,-219.93C180,-211.53 180,-202.13 180,-195.44"/>
<polygon fill="#63b8ff" stroke="#63b8ff" points="176.5,-219.75 180,-229.75 183.5,-219.75 176.5,-219.75"/>
</g>
<!-- Node6 -->
<g id="node6" class="node">
<title>Node6</title>
<g id="a_node6"><a xlink:href="interfaceSCR__CatalogEntitySpawnerComponent.html" target="_top" xlink:title="Component allowing user to request spawning entities using asset catalogs Requires ActionManager with...">
<polygon fill="white" stroke="#666666" points="254,-30 116,-30 116,0 254,0 254,-30"/>
<text text-anchor="start" x="124" y="-18" font-family="Helvetica,sans-Serif" font-size="10.00">SCR_CatalogEntitySpawner</text>
<text text-anchor="middle" x="185" y="-7" font-family="Helvetica,sans-Serif" font-size="10.00">Component</text>
</a>
</g>
</g>
<!-- Node5&#45;&gt;Node6 -->
<g id="edge5" class="edge">
<title>Node5&#45;&gt;Node6</title>
<path fill="none" stroke="#63b8ff" d="M248.33,-59.59C235.33,-50.64 218.86,-39.3 205.98,-30.44"/>
<polygon fill="#63b8ff" stroke="#63b8ff" points="245.87,-62.83 256.09,-65.62 249.84,-57.06 245.87,-62.83"/>
</g>
<!-- Node7 -->
<g id="node7" class="node">
<title>Node7</title>
<g id="a_node7"><a xlink:href="interfaceSCR__DefenderSpawnerComponent.html" target="_top" xlink:title="Service providing group of defenders defined in faction. Requires SCR_EnableDefenderAction on ActionM...">
<polygon fill="white" stroke="#666666" points="439.5,-24.5 272.5,-24.5 272.5,-5.5 439.5,-5.5 439.5,-24.5"/>
<text text-anchor="middle" x="356" y="-12.5" font-family="Helvetica,sans-Serif" font-size="10.00">SCR_DefenderSpawnerComponent</text>
</a>
</g>
</g>
<!-- Node5&#45;&gt;Node7 -->
<g id="edge6" class="edge">
<title>Node5&#45;&gt;Node7</title>
<path fill="none" stroke="#63b8ff" d="M291.82,-59.66C307.91,-48.72 329.26,-34.19 342.82,-24.97"/>
<polygon fill="#63b8ff" stroke="#63b8ff" points="290.36,-57.1 284.06,-65.62 294.3,-62.88 290.36,-57.1"/>
</g>
</g>
</svg>
