<?xml version="1.0" encoding="UTF-8" standalone="no"?>
<!DOCTYPE svg PUBLIC "-//W3C//DTD SVG 1.1//EN"
 "http://www.w3.org/Graphics/SVG/1.1/DTD/svg11.dtd">
<!-- Generated by graphviz version 8.0.2 (20230410.1723)
 -->
<!-- Title: SCR_ScenarioFrameworkActionInputBase Pages: 1 -->
<svg width="558pt" height="86pt"
 viewBox="0.00 0.00 558.00 86.00" xmlns="http://www.w3.org/2000/svg" xmlns:xlink="http://www.w3.org/1999/xlink">
<g id="graph0" class="graph" transform="scale(1 1) rotate(0) translate(4 82)">
<title>SCR_ScenarioFrameworkActionInputBase</title>
<!-- Node1 -->
<g id="node1" class="node">
<title>Node1</title>
<g id="a_node1"><a xlink:title=" ">
<polygon fill="#999999" stroke="#666666" points="156,-54 0,-54 0,-24 156,-24 156,-54"/>
<text text-anchor="start" x="8" y="-42" font-family="Helvetica,sans-Serif" font-size="10.00">SCR_ScenarioFrameworkAction</text>
<text text-anchor="middle" x="78" y="-31" font-family="Helvetica,sans-Serif" font-size="10.00">InputBase</text>
</a>
</g>
</g>
<!-- Node2 -->
<g id="node2" class="node">
<title>Node2</title>
<g id="a_node2"><a xlink:href="interfaceSCR__ScenarioFrameworkActionInputCheckEntitiesInTrigger.html" target="_top" xlink:title=" ">
<polygon fill="white" stroke="#666666" points="353,-78 197,-78 197,-48 353,-48 353,-78"/>
<text text-anchor="start" x="205" y="-66" font-family="Helvetica,sans-Serif" font-size="10.00">SCR_ScenarioFrameworkAction</text>
<text text-anchor="middle" x="275" y="-55" font-family="Helvetica,sans-Serif" font-size="10.00">InputCheckEntitiesInTrigger</text>
</a>
</g>
</g>
<!-- Node1&#45;&gt;Node2 -->
<g id="edge1" class="edge">
<title>Node1&#45;&gt;Node2</title>
<path fill="none" stroke="#63b8ff" d="M167.03,-49.83C176.94,-51.05 186.99,-52.29 196.74,-53.49"/>
<polygon fill="#63b8ff" stroke="#63b8ff" points="167.7,-46.27 157.35,-48.52 166.85,-53.22 167.7,-46.27"/>
</g>
<!-- Node4 -->
<g id="node4" class="node">
<title>Node4</title>
<g id="a_node4"><a xlink:href="interfaceSCR__ScenarioFrameworkActionInputOnTaskEventIncreaseCounter.html" target="_top" xlink:title=" ">
<polygon fill="white" stroke="#666666" points="358,-30 192,-30 192,0 358,0 358,-30"/>
<text text-anchor="start" x="200" y="-18" font-family="Helvetica,sans-Serif" font-size="10.00">SCR_ScenarioFrameworkAction</text>
<text text-anchor="middle" x="275" y="-7" font-family="Helvetica,sans-Serif" font-size="10.00">InputOnTaskEventIncreaseCounter</text>
</a>
</g>
</g>
<!-- Node1&#45;&gt;Node4 -->
<g id="edge3" class="edge">
<title>Node1&#45;&gt;Node4</title>
<path fill="none" stroke="#63b8ff" d="M167.03,-28.16C175.22,-27.16 183.49,-26.14 191.62,-25.14"/>
<polygon fill="#63b8ff" stroke="#63b8ff" points="166.85,-24.78 157.35,-29.48 167.7,-31.73 166.85,-24.78"/>
</g>
<!-- Node3 -->
<g id="node3" class="node">
<title>Node3</title>
<g id="a_node3"><a xlink:href="interfaceSCR__ScenarioFrameworkActionInputCheckEntitiesInAreaTrigger.html" target="_top" xlink:title=" ">
<polygon fill="white" stroke="#666666" points="550,-78 394,-78 394,-48 550,-48 550,-78"/>
<text text-anchor="start" x="402" y="-66" font-family="Helvetica,sans-Serif" font-size="10.00">SCR_ScenarioFrameworkAction</text>
<text text-anchor="middle" x="472" y="-55" font-family="Helvetica,sans-Serif" font-size="10.00">InputCheckEntitiesInAreaTrigger</text>
</a>
</g>
</g>
<!-- Node2&#45;&gt;Node3 -->
<g id="edge2" class="edge">
<title>Node2&#45;&gt;Node3</title>
<path fill="none" stroke="#63b8ff" d="M364.35,-63C374.16,-63 384.09,-63 393.74,-63"/>
<polygon fill="#63b8ff" stroke="#63b8ff" points="364.35,-59.5 354.35,-63 364.35,-66.5 364.35,-59.5"/>
</g>
</g>
</svg>
