<?xml version="1.0" encoding="UTF-8" standalone="no"?>
<!DOCTYPE svg PUBLIC "-//W3C//DTD SVG 1.1//EN"
 "http://www.w3.org/Graphics/SVG/1.1/DTD/svg11.dtd">
<!-- Generated by graphviz version 8.0.2 (20230410.1723)
 -->
<!-- Title: SCR_WidgetListEntryBoolSpinBox Pages: 1 -->
<svg width="176pt" height="192pt"
 viewBox="0.00 0.00 176.00 192.00" xmlns="http://www.w3.org/2000/svg" xmlns:xlink="http://www.w3.org/1999/xlink">
<g id="graph0" class="graph" transform="scale(1 1) rotate(0) translate(4 188)">
<title>SCR_WidgetListEntryBoolSpinBox</title>
<!-- Node1 -->
<g id="node1" class="node">
<title>Node1</title>
<g id="a_node1"><a xlink:title=" ">
<polygon fill="#999999" stroke="#666666" points="168,-19 0,-19 0,0 168,0 168,-19"/>
<text text-anchor="middle" x="84" y="-7" font-family="Helvetica,sans-Serif" font-size="10.00">SCR_WidgetListEntryBoolSpinBox</text>
</a>
</g>
</g>
<!-- Node2 -->
<g id="node2" class="node">
<title>Node2</title>
<g id="a_node2"><a xlink:href="interfaceSCR__WidgetListEntrySpinBox.html" target="_top" xlink:title="Configurable widget list entry selection specific for spinbox.">
<polygon fill="white" stroke="#666666" points="158.5,-74 9.5,-74 9.5,-55 158.5,-55 158.5,-74"/>
<text text-anchor="middle" x="84" y="-62" font-family="Helvetica,sans-Serif" font-size="10.00">SCR_WidgetListEntrySpinBox</text>
</a>
</g>
</g>
<!-- Node2&#45;&gt;Node1 -->
<g id="edge1" class="edge">
<title>Node2&#45;&gt;Node1</title>
<path fill="none" stroke="#63b8ff" d="M84,-43.93C84,-35.53 84,-26.13 84,-19.44"/>
<polygon fill="#63b8ff" stroke="#63b8ff" points="80.5,-43.75 84,-53.75 87.5,-43.75 80.5,-43.75"/>
</g>
<!-- Node3 -->
<g id="node3" class="node">
<title>Node3</title>
<g id="a_node3"><a xlink:href="interfaceSCR__WidgetListEntrySelection.html" target="_top" xlink:title="Configurable widget list entry list selection.">
<polygon fill="white" stroke="#666666" points="160,-129 8,-129 8,-110 160,-110 160,-129"/>
<text text-anchor="middle" x="84" y="-117" font-family="Helvetica,sans-Serif" font-size="10.00">SCR_WidgetListEntrySelection</text>
</a>
</g>
</g>
<!-- Node3&#45;&gt;Node2 -->
<g id="edge2" class="edge">
<title>Node3&#45;&gt;Node2</title>
<path fill="none" stroke="#63b8ff" d="M84,-98.93C84,-90.53 84,-81.13 84,-74.44"/>
<polygon fill="#63b8ff" stroke="#63b8ff" points="80.5,-98.75 84,-108.75 87.5,-98.75 80.5,-98.75"/>
</g>
<!-- Node4 -->
<g id="node4" class="node">
<title>Node4</title>
<g id="a_node4"><a xlink:href="interfaceSCR__WidgetListEntry.html" target="_top" xlink:title="Configurable class for widget.">
<polygon fill="white" stroke="#666666" points="140,-184 28,-184 28,-165 140,-165 140,-184"/>
<text text-anchor="middle" x="84" y="-172" font-family="Helvetica,sans-Serif" font-size="10.00">SCR_WidgetListEntry</text>
</a>
</g>
</g>
<!-- Node4&#45;&gt;Node3 -->
<g id="edge3" class="edge">
<title>Node4&#45;&gt;Node3</title>
<path fill="none" stroke="#63b8ff" d="M84,-153.93C84,-145.53 84,-136.13 84,-129.44"/>
<polygon fill="#63b8ff" stroke="#63b8ff" points="80.5,-153.75 84,-163.75 87.5,-153.75 80.5,-153.75"/>
</g>
</g>
</svg>
