<?xml version="1.0" encoding="UTF-8" standalone="no"?>
<!DOCTYPE svg PUBLIC "-//W3C//DTD SVG 1.1//EN"
 "http://www.w3.org/Graphics/SVG/1.1/DTD/svg11.dtd">
<!-- Generated by graphviz version 8.0.2 (20230410.1723)
 -->
<!-- Title: SCR_GameModeSectorControl Pages: 1 -->
<svg width="160pt" height="192pt"
 viewBox="0.00 0.00 160.00 192.00" xmlns="http://www.w3.org/2000/svg" xmlns:xlink="http://www.w3.org/1999/xlink">
<g id="graph0" class="graph" transform="scale(1 1) rotate(0) translate(4 188)">
<title>SCR_GameModeSectorControl</title>
<!-- Node1 -->
<g id="node1" class="node">
<title>Node1</title>
<g id="a_node1"><a xlink:title="Encapsulates the team sector control game mode functionality.">
<polygon fill="#999999" stroke="#666666" points="152,-19 0,-19 0,0 152,0 152,-19"/>
<text text-anchor="middle" x="76" y="-7" font-family="Helvetica,sans-Serif" font-size="10.00">SCR_GameModeSectorControl</text>
</a>
</g>
</g>
<!-- Node2 -->
<g id="node2" class="node">
<title>Node2</title>
<g id="a_node2"><a xlink:href="interfaceSCR__BaseGameMode.html" target="_top" xlink:title=" ">
<polygon fill="white" stroke="#666666" points="133.5,-74 18.5,-74 18.5,-55 133.5,-55 133.5,-74"/>
<text text-anchor="middle" x="76" y="-62" font-family="Helvetica,sans-Serif" font-size="10.00">SCR_BaseGameMode</text>
</a>
</g>
</g>
<!-- Node2&#45;&gt;Node1 -->
<g id="edge1" class="edge">
<title>Node2&#45;&gt;Node1</title>
<path fill="none" stroke="#63b8ff" d="M76,-43.93C76,-35.53 76,-26.13 76,-19.44"/>
<polygon fill="#63b8ff" stroke="#63b8ff" points="72.5,-43.75 76,-53.75 79.5,-43.75 72.5,-43.75"/>
</g>
<!-- Node3 -->
<g id="node3" class="node">
<title>Node3</title>
<g id="a_node3"><a xlink:href="interfaceBaseGameMode.html" target="_top" xlink:title=" ">
<polygon fill="white" stroke="#666666" points="120.5,-129 31.5,-129 31.5,-110 120.5,-110 120.5,-129"/>
<text text-anchor="middle" x="76" y="-117" font-family="Helvetica,sans-Serif" font-size="10.00">BaseGameMode</text>
</a>
</g>
</g>
<!-- Node3&#45;&gt;Node2 -->
<g id="edge2" class="edge">
<title>Node3&#45;&gt;Node2</title>
<path fill="none" stroke="#63b8ff" d="M76,-98.93C76,-90.53 76,-81.13 76,-74.44"/>
<polygon fill="#63b8ff" stroke="#63b8ff" points="72.5,-98.75 76,-108.75 79.5,-98.75 72.5,-98.75"/>
</g>
<!-- Node4 -->
<g id="node4" class="node">
<title>Node4</title>
<g id="a_node4"><a xlink:title=" ">
<polygon fill="white" stroke="#666666" points="114,-184 38,-184 38,-165 114,-165 114,-184"/>
<text text-anchor="middle" x="76" y="-172" font-family="Helvetica,sans-Serif" font-size="10.00">GenericEntity</text>
</a>
</g>
</g>
<!-- Node4&#45;&gt;Node3 -->
<g id="edge3" class="edge">
<title>Node4&#45;&gt;Node3</title>
<path fill="none" stroke="#63b8ff" d="M76,-153.93C76,-145.53 76,-136.13 76,-129.44"/>
<polygon fill="#63b8ff" stroke="#63b8ff" points="72.5,-153.75 76,-163.75 79.5,-153.75 72.5,-153.75"/>
</g>
</g>
</svg>
