<?xml version="1.0" encoding="UTF-8" standalone="no"?>
<!DOCTYPE svg PUBLIC "-//W3C//DTD SVG 1.1//EN"
 "http://www.w3.org/Graphics/SVG/1.1/DTD/svg11.dtd">
<!-- Generated by graphviz version 8.0.2 (20230410.1723)
 -->
<!-- Title: SCR_AIOrder_CombatType Pages: 1 -->
<svg width="143pt" height="137pt"
 viewBox="0.00 0.00 143.00 137.00" xmlns="http://www.w3.org/2000/svg" xmlns:xlink="http://www.w3.org/1999/xlink">
<g id="graph0" class="graph" transform="scale(1 1) rotate(0) translate(4 133)">
<title>SCR_AIOrder_CombatType</title>
<!-- Node1 -->
<g id="node1" class="node">
<title>Node1</title>
<g id="a_node1"><a xlink:title=" ">
<polygon fill="#999999" stroke="#666666" points="135,-19 0,-19 0,0 135,0 135,-19"/>
<text text-anchor="middle" x="67.5" y="-7" font-family="Helvetica,sans-Serif" font-size="10.00">SCR_AIOrder_CombatType</text>
</a>
</g>
</g>
<!-- Node2 -->
<g id="node2" class="node">
<title>Node2</title>
<g id="a_node2"><a xlink:href="interfaceSCR__AIOrderBase.html" target="_top" xlink:title=" ">
<polygon fill="white" stroke="#666666" points="116.5,-74 18.5,-74 18.5,-55 116.5,-55 116.5,-74"/>
<text text-anchor="middle" x="67.5" y="-62" font-family="Helvetica,sans-Serif" font-size="10.00">SCR_AIOrderBase</text>
</a>
</g>
</g>
<!-- Node2&#45;&gt;Node1 -->
<g id="edge1" class="edge">
<title>Node2&#45;&gt;Node1</title>
<path fill="none" stroke="#63b8ff" d="M67.5,-43.93C67.5,-35.53 67.5,-26.13 67.5,-19.44"/>
<polygon fill="#63b8ff" stroke="#63b8ff" points="64,-43.75 67.5,-53.75 71,-43.75 64,-43.75"/>
</g>
<!-- Node3 -->
<g id="node3" class="node">
<title>Node3</title>
<g id="a_node3"><a xlink:title=" ">
<polygon fill="white" stroke="#666666" points="92.5,-129 42.5,-129 42.5,-110 92.5,-110 92.5,-129"/>
<text text-anchor="middle" x="67.5" y="-117" font-family="Helvetica,sans-Serif" font-size="10.00">AIOrder</text>
</a>
</g>
</g>
<!-- Node3&#45;&gt;Node2 -->
<g id="edge2" class="edge">
<title>Node3&#45;&gt;Node2</title>
<path fill="none" stroke="#63b8ff" d="M67.5,-98.93C67.5,-90.53 67.5,-81.13 67.5,-74.44"/>
<polygon fill="#63b8ff" stroke="#63b8ff" points="64,-98.75 67.5,-108.75 71,-98.75 64,-98.75"/>
</g>
</g>
</svg>
