<?xml version="1.0" encoding="UTF-8" standalone="no"?>
<!DOCTYPE svg PUBLIC "-//W3C//DTD SVG 1.1//EN"
 "http://www.w3.org/Graphics/SVG/1.1/DTD/svg11.dtd">
<!-- Generated by graphviz version 8.0.2 (20230410.1723)
 -->
<!-- Title: SCR_BoardingWaypointClass Pages: 1 -->
<svg width="322pt" height="203pt"
 viewBox="0.00 0.00 321.50 203.00" xmlns="http://www.w3.org/2000/svg" xmlns:xlink="http://www.w3.org/1999/xlink">
<g id="graph0" class="graph" transform="scale(1 1) rotate(0) translate(4 199)">
<title>SCR_BoardingWaypointClass</title>
<!-- Node1 -->
<g id="node1" class="node">
<title>Node1</title>
<g id="a_node1"><a xlink:title=" ">
<polygon fill="#999999" stroke="#666666" points="229.5,-85 83.5,-85 83.5,-66 229.5,-66 229.5,-85"/>
<text text-anchor="middle" x="156.5" y="-73" font-family="Helvetica,sans-Serif" font-size="10.00">SCR_BoardingWaypointClass</text>
</a>
</g>
</g>
<!-- Node4 -->
<g id="node4" class="node">
<title>Node4</title>
<g id="a_node4"><a xlink:href="interfaceSCR__BoardingEntityWaypointClass.html" target="_top" xlink:title=" ">
<polygon fill="white" stroke="#666666" points="147,-30 0,-30 0,0 147,0 147,-30"/>
<text text-anchor="start" x="8" y="-18" font-family="Helvetica,sans-Serif" font-size="10.00">SCR_BoardingEntityWaypoint</text>
<text text-anchor="middle" x="73.5" y="-7" font-family="Helvetica,sans-Serif" font-size="10.00">Class</text>
</a>
</g>
</g>
<!-- Node1&#45;&gt;Node4 -->
<g id="edge3" class="edge">
<title>Node1&#45;&gt;Node4</title>
<path fill="none" stroke="#63b8ff" d="M134.97,-59.33C122.33,-50.42 106.44,-39.22 93.99,-30.44"/>
<polygon fill="#63b8ff" stroke="#63b8ff" points="132.7,-62.71 142.89,-65.62 136.74,-56.99 132.7,-62.71"/>
</g>
<!-- Node5 -->
<g id="node5" class="node">
<title>Node5</title>
<g id="a_node5"><a xlink:href="interfaceSCR__BoardingTimedWaypointClass.html" target="_top" xlink:title=" ">
<polygon fill="white" stroke="#666666" points="313.5,-30 165.5,-30 165.5,0 313.5,0 313.5,-30"/>
<text text-anchor="start" x="173.5" y="-18" font-family="Helvetica,sans-Serif" font-size="10.00">SCR_BoardingTimedWaypoint</text>
<text text-anchor="middle" x="239.5" y="-7" font-family="Helvetica,sans-Serif" font-size="10.00">Class</text>
</a>
</g>
</g>
<!-- Node1&#45;&gt;Node5 -->
<g id="edge4" class="edge">
<title>Node1&#45;&gt;Node5</title>
<path fill="none" stroke="#63b8ff" d="M178.03,-59.33C190.67,-50.42 206.56,-39.22 219.01,-30.44"/>
<polygon fill="#63b8ff" stroke="#63b8ff" points="176.26,-56.99 170.11,-65.62 180.3,-62.71 176.26,-56.99"/>
</g>
<!-- Node2 -->
<g id="node2" class="node">
<title>Node2</title>
<g id="a_node2"><a xlink:href="interfaceSCR__AIWaypointClass.html" target="_top" xlink:title=" ">
<polygon fill="white" stroke="#666666" points="215,-140 98,-140 98,-121 215,-121 215,-140"/>
<text text-anchor="middle" x="156.5" y="-128" font-family="Helvetica,sans-Serif" font-size="10.00">SCR_AIWaypointClass</text>
</a>
</g>
</g>
<!-- Node2&#45;&gt;Node1 -->
<g id="edge1" class="edge">
<title>Node2&#45;&gt;Node1</title>
<path fill="none" stroke="#63b8ff" d="M156.5,-109.93C156.5,-101.53 156.5,-92.13 156.5,-85.44"/>
<polygon fill="#63b8ff" stroke="#63b8ff" points="153,-109.75 156.5,-119.75 160,-109.75 153,-109.75"/>
</g>
<!-- Node3 -->
<g id="node3" class="node">
<title>Node3</title>
<g id="a_node3"><a xlink:title=" ">
<polygon fill="white" stroke="#666666" points="202.5,-195 110.5,-195 110.5,-176 202.5,-176 202.5,-195"/>
<text text-anchor="middle" x="156.5" y="-183" font-family="Helvetica,sans-Serif" font-size="10.00">AIWaypointClass</text>
</a>
</g>
</g>
<!-- Node3&#45;&gt;Node2 -->
<g id="edge2" class="edge">
<title>Node3&#45;&gt;Node2</title>
<path fill="none" stroke="#63b8ff" d="M156.5,-164.93C156.5,-156.53 156.5,-147.13 156.5,-140.44"/>
<polygon fill="#63b8ff" stroke="#63b8ff" points="153,-164.75 156.5,-174.75 160,-164.75 153,-164.75"/>
</g>
</g>
</svg>
