<?xml version="1.0" encoding="UTF-8" standalone="no"?>
<!DOCTYPE svg PUBLIC "-//W3C//DTD SVG 1.1//EN"
 "http://www.w3.org/Graphics/SVG/1.1/DTD/svg11.dtd">
<!-- Generated by graphviz version 8.0.2 (20230410.1723)
 -->
<!-- Title: SCR_MapModuleBase Pages: 1 -->
<svg width="280pt" height="137pt"
 viewBox="0.00 0.00 280.00 137.00" xmlns="http://www.w3.org/2000/svg" xmlns:xlink="http://www.w3.org/1999/xlink">
<g id="graph0" class="graph" transform="scale(1 1) rotate(0) translate(4 133)">
<title>SCR_MapModuleBase</title>
<!-- Node1 -->
<g id="node1" class="node">
<title>Node1</title>
<g id="a_node1"><a xlink:title="Map module base class.">
<polygon fill="#999999" stroke="#666666" points="190,-74 75,-74 75,-55 190,-55 190,-74"/>
<text text-anchor="middle" x="132.5" y="-62" font-family="Helvetica,sans-Serif" font-size="10.00">SCR_MapModuleBase</text>
</a>
</g>
</g>
<!-- Node3 -->
<g id="node3" class="node">
<title>Node3</title>
<g id="a_node3"><a xlink:href="interfaceSCR__MapCursorModule.html" target="_top" xlink:title="Map cursor behavior and mode setup.">
<polygon fill="white" stroke="#666666" points="121,-19 0,-19 0,0 121,0 121,-19"/>
<text text-anchor="middle" x="60.5" y="-7" font-family="Helvetica,sans-Serif" font-size="10.00">SCR_MapCursorModule</text>
</a>
</g>
</g>
<!-- Node1&#45;&gt;Node3 -->
<g id="edge2" class="edge">
<title>Node1&#45;&gt;Node3</title>
<path fill="none" stroke="#63b8ff" d="M111.7,-48.19C98.99,-38.84 83.19,-27.21 72.53,-19.36"/>
<polygon fill="#63b8ff" stroke="#63b8ff" points="109.16,-51.4 119.29,-54.51 113.31,-45.76 109.16,-51.4"/>
</g>
<!-- Node4 -->
<g id="node4" class="node">
<title>Node4</title>
<g id="a_node4"><a xlink:href="interfaceSCR__MapSelectionModule.html" target="_top" xlink:title=" ">
<polygon fill="white" stroke="#666666" points="272,-19 139,-19 139,0 272,0 272,-19"/>
<text text-anchor="middle" x="205.5" y="-7" font-family="Helvetica,sans-Serif" font-size="10.00">SCR_MapSelectionModule</text>
</a>
</g>
</g>
<!-- Node1&#45;&gt;Node4 -->
<g id="edge3" class="edge">
<title>Node1&#45;&gt;Node4</title>
<path fill="none" stroke="#63b8ff" d="M153.59,-48.19C166.47,-38.84 182.49,-27.21 193.3,-19.36"/>
<polygon fill="#63b8ff" stroke="#63b8ff" points="151.92,-45.8 145.88,-54.51 156.03,-51.47 151.92,-45.8"/>
</g>
<!-- Node2 -->
<g id="node2" class="node">
<title>Node2</title>
<g id="a_node2"><a xlink:title=" ">
<polygon fill="white" stroke="#666666" points="160.5,-129 104.5,-129 104.5,-110 160.5,-110 160.5,-129"/>
<text text-anchor="middle" x="132.5" y="-117" font-family="Helvetica,sans-Serif" font-size="10.00">Managed</text>
</a>
</g>
</g>
<!-- Node2&#45;&gt;Node1 -->
<g id="edge1" class="edge">
<title>Node2&#45;&gt;Node1</title>
<path fill="none" stroke="#63b8ff" d="M132.5,-98.93C132.5,-90.53 132.5,-81.13 132.5,-74.44"/>
<polygon fill="#63b8ff" stroke="#63b8ff" points="129,-98.75 132.5,-108.75 136,-98.75 129,-98.75"/>
</g>
</g>
</svg>
