<?xml version="1.0" encoding="UTF-8" standalone="no"?>
<!DOCTYPE svg PUBLIC "-//W3C//DTD SVG 1.1//EN"
 "http://www.w3.org/Graphics/SVG/1.1/DTD/svg11.dtd">
<!-- Generated by graphviz version 8.0.2 (20230410.1723)
 -->
<!-- Title: SCR_BaseFactionTriggerEntityClass Pages: 1 -->
<svg width="301pt" height="401pt"
 viewBox="0.00 0.00 300.50 401.00" xmlns="http://www.w3.org/2000/svg" xmlns:xlink="http://www.w3.org/1999/xlink">
<g id="graph0" class="graph" transform="scale(1 1) rotate(0) translate(4 397)">
<title>SCR_BaseFactionTriggerEntityClass</title>
<!-- Node1 -->
<g id="node1" class="node">
<title>Node1</title>
<g id="a_node1"><a xlink:title=" ">
<polygon fill="#999999" stroke="#666666" points="227,-162 75,-162 75,-132 227,-132 227,-162"/>
<text text-anchor="start" x="83" y="-150" font-family="Helvetica,sans-Serif" font-size="10.00">SCR_BaseFactionTriggerEntity</text>
<text text-anchor="middle" x="151" y="-139" font-family="Helvetica,sans-Serif" font-size="10.00">Class</text>
</a>
</g>
</g>
<!-- Node6 -->
<g id="node6" class="node">
<title>Node6</title>
<g id="a_node6"><a xlink:href="interfaceSCR__FactionControlTriggerEntityClass.html" target="_top" xlink:title=" ">
<polygon fill="white" stroke="#666666" points="143,-96 9,-96 9,-66 143,-66 143,-96"/>
<text text-anchor="start" x="17" y="-84" font-family="Helvetica,sans-Serif" font-size="10.00">SCR_FactionControlTrigger</text>
<text text-anchor="middle" x="76" y="-73" font-family="Helvetica,sans-Serif" font-size="10.00">EntityClass</text>
</a>
</g>
</g>
<!-- Node1&#45;&gt;Node6 -->
<g id="edge5" class="edge">
<title>Node1&#45;&gt;Node6</title>
<path fill="none" stroke="#63b8ff" d="M126.04,-124.7C115.14,-115.4 102.64,-104.73 92.86,-96.39"/>
<polygon fill="#63b8ff" stroke="#63b8ff" points="123.48,-127.97 133.36,-131.8 128.02,-122.64 123.48,-127.97"/>
</g>
<!-- Node8 -->
<g id="node8" class="node">
<title>Node8</title>
<g id="a_node8"><a xlink:href="interfaceSCR__FactionPlayerTriggerEntityClass.html" target="_top" xlink:title=" ">
<polygon fill="white" stroke="#666666" points="292.5,-96 161.5,-96 161.5,-66 292.5,-66 292.5,-96"/>
<text text-anchor="start" x="169.5" y="-84" font-family="Helvetica,sans-Serif" font-size="10.00">SCR_FactionPlayerTrigger</text>
<text text-anchor="middle" x="227" y="-73" font-family="Helvetica,sans-Serif" font-size="10.00">EntityClass</text>
</a>
</g>
</g>
<!-- Node1&#45;&gt;Node8 -->
<g id="edge7" class="edge">
<title>Node1&#45;&gt;Node8</title>
<path fill="none" stroke="#63b8ff" d="M175.97,-124.97C187.09,-115.61 199.91,-104.81 209.92,-96.39"/>
<polygon fill="#63b8ff" stroke="#63b8ff" points="174.26,-122.68 168.87,-131.8 178.77,-128.03 174.26,-122.68"/>
</g>
<!-- Node2 -->
<g id="node2" class="node">
<title>Node2</title>
<g id="a_node2"><a xlink:href="interfaceSCR__BaseTriggerEntityClass.html" target="_top" xlink:title=" ">
<polygon fill="white" stroke="#666666" points="223,-217 79,-217 79,-198 223,-198 223,-217"/>
<text text-anchor="middle" x="151" y="-205" font-family="Helvetica,sans-Serif" font-size="10.00">SCR_BaseTriggerEntityClass</text>
</a>
</g>
</g>
<!-- Node2&#45;&gt;Node1 -->
<g id="edge1" class="edge">
<title>Node2&#45;&gt;Node1</title>
<path fill="none" stroke="#63b8ff" d="M151,-187.08C151,-178.92 151,-169.6 151,-162.11"/>
<polygon fill="#63b8ff" stroke="#63b8ff" points="147.5,-186.87 151,-196.87 154.5,-186.87 147.5,-186.87"/>
</g>
<!-- Node3 -->
<g id="node3" class="node">
<title>Node3</title>
<g id="a_node3"><a xlink:href="interfaceScriptedGameTriggerEntityClass.html" target="_top" xlink:title=" ">
<polygon fill="white" stroke="#666666" points="218,-283 84,-283 84,-253 218,-253 218,-283"/>
<text text-anchor="start" x="92" y="-271" font-family="Helvetica,sans-Serif" font-size="10.00">ScriptedGameTriggerEntity</text>
<text text-anchor="middle" x="151" y="-260" font-family="Helvetica,sans-Serif" font-size="10.00">Class</text>
</a>
</g>
</g>
<!-- Node3&#45;&gt;Node2 -->
<g id="edge2" class="edge">
<title>Node3&#45;&gt;Node2</title>
<path fill="none" stroke="#63b8ff" d="M151,-241.59C151,-232.85 151,-223.65 151,-217.18"/>
<polygon fill="#63b8ff" stroke="#63b8ff" points="147.5,-241.54 151,-251.54 154.5,-241.54 147.5,-241.54"/>
</g>
<!-- Node4 -->
<g id="node4" class="node">
<title>Node4</title>
<g id="a_node4"><a xlink:href="interfaceBaseGameTriggerEntityClass.html" target="_top" xlink:title=" ">
<polygon fill="white" stroke="#666666" points="223.5,-338 78.5,-338 78.5,-319 223.5,-319 223.5,-338"/>
<text text-anchor="middle" x="151" y="-326" font-family="Helvetica,sans-Serif" font-size="10.00">BaseGameTriggerEntityClass</text>
</a>
</g>
</g>
<!-- Node4&#45;&gt;Node3 -->
<g id="edge3" class="edge">
<title>Node4&#45;&gt;Node3</title>
<path fill="none" stroke="#63b8ff" d="M151,-308.08C151,-299.92 151,-290.6 151,-283.11"/>
<polygon fill="#63b8ff" stroke="#63b8ff" points="147.5,-307.87 151,-317.87 154.5,-307.87 147.5,-307.87"/>
</g>
<!-- Node5 -->
<g id="node5" class="node">
<title>Node5</title>
<g id="a_node5"><a xlink:title=" ">
<polygon fill="white" stroke="#666666" points="201.5,-393 100.5,-393 100.5,-374 201.5,-374 201.5,-393"/>
<text text-anchor="middle" x="151" y="-381" font-family="Helvetica,sans-Serif" font-size="10.00">GenericEntityClass</text>
</a>
</g>
</g>
<!-- Node5&#45;&gt;Node4 -->
<g id="edge4" class="edge">
<title>Node5&#45;&gt;Node4</title>
<path fill="none" stroke="#63b8ff" d="M151,-362.93C151,-354.53 151,-345.13 151,-338.44"/>
<polygon fill="#63b8ff" stroke="#63b8ff" points="147.5,-362.75 151,-372.75 154.5,-362.75 147.5,-362.75"/>
</g>
<!-- Node7 -->
<g id="node7" class="node">
<title>Node7</title>
<g id="a_node7"><a xlink:href="interfaceSCR__FactionDominanceTriggerEntityClass.html" target="_top" xlink:title=" ">
<polygon fill="white" stroke="#666666" points="152,-30 0,-30 0,0 152,0 152,-30"/>
<text text-anchor="start" x="8" y="-18" font-family="Helvetica,sans-Serif" font-size="10.00">SCR_FactionDominanceTrigger</text>
<text text-anchor="middle" x="76" y="-7" font-family="Helvetica,sans-Serif" font-size="10.00">EntityClass</text>
</a>
</g>
</g>
<!-- Node6&#45;&gt;Node7 -->
<g id="edge6" class="edge">
<title>Node6&#45;&gt;Node7</title>
<path fill="none" stroke="#63b8ff" d="M76,-54.97C76,-46.55 76,-37.45 76,-30.16"/>
<polygon fill="#63b8ff" stroke="#63b8ff" points="72.5,-54.8 76,-64.8 79.5,-54.8 72.5,-54.8"/>
</g>
</g>
</svg>
