<?xml version="1.0" encoding="UTF-8" standalone="no"?>
<!DOCTYPE svg PUBLIC "-//W3C//DTD SVG 1.1//EN"
 "http://www.w3.org/Graphics/SVG/1.1/DTD/svg11.dtd">
<!-- Generated by graphviz version 8.0.2 (20230410.1723)
 -->
<!-- Title: SCR_BaseSpawnable Pages: 1 -->
<svg width="401pt" height="82pt"
 viewBox="0.00 0.00 401.00 82.00" xmlns="http://www.w3.org/2000/svg" xmlns:xlink="http://www.w3.org/1999/xlink">
<g id="graph0" class="graph" transform="scale(1 1) rotate(0) translate(4 78)">
<title>SCR_BaseSpawnable</title>
<!-- Node1 -->
<g id="node1" class="node">
<title>Node1</title>
<g id="a_node1"><a xlink:title=" ">
<polygon fill="#999999" stroke="#666666" points="252.5,-74 140.5,-74 140.5,-55 252.5,-55 252.5,-74"/>
<text text-anchor="middle" x="196.5" y="-62" font-family="Helvetica,sans-Serif" font-size="10.00">SCR_BaseSpawnable</text>
</a>
</g>
</g>
<!-- Node2 -->
<g id="node2" class="node">
<title>Node2</title>
<g id="a_node2"><a xlink:href="interfaceSCR__DebrisSpawnable.html" target="_top" xlink:title=" ">
<polygon fill="white" stroke="#666666" points="117,-19 0,-19 0,0 117,0 117,-19"/>
<text text-anchor="middle" x="58.5" y="-7" font-family="Helvetica,sans-Serif" font-size="10.00">SCR_DebrisSpawnable</text>
</a>
</g>
</g>
<!-- Node1&#45;&gt;Node2 -->
<g id="edge1" class="edge">
<title>Node1&#45;&gt;Node2</title>
<path fill="none" stroke="#63b8ff" d="M162.87,-50.58C137.65,-40.9 103.78,-27.89 81.56,-19.36"/>
<polygon fill="#63b8ff" stroke="#63b8ff" points="161.5,-54.19 172.09,-54.51 164.01,-47.66 161.5,-54.19"/>
</g>
<!-- Node3 -->
<g id="node3" class="node">
<title>Node3</title>
<g id="a_node3"><a xlink:href="interfaceSCR__ParticleSpawnable.html" target="_top" xlink:title=" ">
<polygon fill="white" stroke="#666666" points="257.5,-19 135.5,-19 135.5,0 257.5,0 257.5,-19"/>
<text text-anchor="middle" x="196.5" y="-7" font-family="Helvetica,sans-Serif" font-size="10.00">SCR_ParticleSpawnable</text>
</a>
</g>
</g>
<!-- Node1&#45;&gt;Node3 -->
<g id="edge2" class="edge">
<title>Node1&#45;&gt;Node3</title>
<path fill="none" stroke="#63b8ff" d="M196.5,-43.93C196.5,-35.53 196.5,-26.13 196.5,-19.44"/>
<polygon fill="#63b8ff" stroke="#63b8ff" points="193,-43.75 196.5,-53.75 200,-43.75 193,-43.75"/>
</g>
<!-- Node4 -->
<g id="node4" class="node">
<title>Node4</title>
<g id="a_node4"><a xlink:href="interfaceSCR__PrefabSpawnable.html" target="_top" xlink:title=" ">
<polygon fill="white" stroke="#666666" points="393,-19 276,-19 276,0 393,0 393,-19"/>
<text text-anchor="middle" x="334.5" y="-7" font-family="Helvetica,sans-Serif" font-size="10.00">SCR_PrefabSpawnable</text>
</a>
</g>
</g>
<!-- Node1&#45;&gt;Node4 -->
<g id="edge3" class="edge">
<title>Node1&#45;&gt;Node4</title>
<path fill="none" stroke="#63b8ff" d="M230.13,-50.58C255.35,-40.9 289.22,-27.89 311.44,-19.36"/>
<polygon fill="#63b8ff" stroke="#63b8ff" points="228.99,-47.66 220.91,-54.51 231.5,-54.19 228.99,-47.66"/>
</g>
</g>
</svg>
