<?xml version="1.0" encoding="UTF-8" standalone="no"?>
<!DOCTYPE svg PUBLIC "-//W3C//DTD SVG 1.1//EN"
 "http://www.w3.org/Graphics/SVG/1.1/DTD/svg11.dtd">
<!-- Generated by graphviz version 8.0.2 (20230410.1723)
 -->
<!-- Title: SCR_AttachItemFromInventoryAction Pages: 1 -->
<svg width="158pt" height="258pt"
 viewBox="0.00 0.00 158.00 258.00" xmlns="http://www.w3.org/2000/svg" xmlns:xlink="http://www.w3.org/1999/xlink">
<g id="graph0" class="graph" transform="scale(1 1) rotate(0) translate(4 254)">
<title>SCR_AttachItemFromInventoryAction</title>
<!-- Node1 -->
<g id="node1" class="node">
<title>Node1</title>
<g id="a_node1"><a xlink:title="Equip weapon attachment.">
<polygon fill="#999999" stroke="#666666" points="150,-30 0,-30 0,0 150,0 150,-30"/>
<text text-anchor="start" x="8" y="-18" font-family="Helvetica,sans-Serif" font-size="10.00">SCR_AttachItemFromInventory</text>
<text text-anchor="middle" x="75" y="-7" font-family="Helvetica,sans-Serif" font-size="10.00">Action</text>
</a>
</g>
</g>
<!-- Node2 -->
<g id="node2" class="node">
<title>Node2</title>
<g id="a_node2"><a xlink:href="interfaceSCR__InventoryAction.html" target="_top" xlink:title="modded version for to be used with the inventory 2.0">
<polygon fill="white" stroke="#666666" points="129,-85 21,-85 21,-66 129,-66 129,-85"/>
<text text-anchor="middle" x="75" y="-73" font-family="Helvetica,sans-Serif" font-size="10.00">SCR_InventoryAction</text>
</a>
</g>
</g>
<!-- Node2&#45;&gt;Node1 -->
<g id="edge1" class="edge">
<title>Node2&#45;&gt;Node1</title>
<path fill="none" stroke="#63b8ff" d="M75,-55.08C75,-46.92 75,-37.6 75,-30.11"/>
<polygon fill="#63b8ff" stroke="#63b8ff" points="71.5,-54.87 75,-64.87 78.5,-54.87 71.5,-54.87"/>
</g>
<!-- Node3 -->
<g id="node3" class="node">
<title>Node3</title>
<g id="a_node3"><a xlink:href="interfaceScriptedUserAction.html" target="_top" xlink:title=" ">
<polygon fill="white" stroke="#666666" points="125.5,-140 24.5,-140 24.5,-121 125.5,-121 125.5,-140"/>
<text text-anchor="middle" x="75" y="-128" font-family="Helvetica,sans-Serif" font-size="10.00">ScriptedUserAction</text>
</a>
</g>
</g>
<!-- Node3&#45;&gt;Node2 -->
<g id="edge2" class="edge">
<title>Node3&#45;&gt;Node2</title>
<path fill="none" stroke="#63b8ff" d="M75,-109.93C75,-101.53 75,-92.13 75,-85.44"/>
<polygon fill="#63b8ff" stroke="#63b8ff" points="71.5,-109.75 75,-119.75 78.5,-109.75 71.5,-109.75"/>
</g>
<!-- Node4 -->
<g id="node4" class="node">
<title>Node4</title>
<g id="a_node4"><a xlink:href="interfaceBaseUserAction.html" target="_top" xlink:title=" ">
<polygon fill="white" stroke="#666666" points="118.5,-195 31.5,-195 31.5,-176 118.5,-176 118.5,-195"/>
<text text-anchor="middle" x="75" y="-183" font-family="Helvetica,sans-Serif" font-size="10.00">BaseUserAction</text>
</a>
</g>
</g>
<!-- Node4&#45;&gt;Node3 -->
<g id="edge3" class="edge">
<title>Node4&#45;&gt;Node3</title>
<path fill="none" stroke="#63b8ff" d="M75,-164.93C75,-156.53 75,-147.13 75,-140.44"/>
<polygon fill="#63b8ff" stroke="#63b8ff" points="71.5,-164.75 75,-174.75 78.5,-164.75 71.5,-164.75"/>
</g>
<!-- Node5 -->
<g id="node5" class="node">
<title>Node5</title>
<g id="a_node5"><a xlink:title=" ">
<polygon fill="white" stroke="#666666" points="118,-250 32,-250 32,-231 118,-231 118,-250"/>
<text text-anchor="middle" x="75" y="-238" font-family="Helvetica,sans-Serif" font-size="10.00">ScriptAndConfig</text>
</a>
</g>
</g>
<!-- Node5&#45;&gt;Node4 -->
<g id="edge4" class="edge">
<title>Node5&#45;&gt;Node4</title>
<path fill="none" stroke="#63b8ff" d="M75,-219.93C75,-211.53 75,-202.13 75,-195.44"/>
<polygon fill="#63b8ff" stroke="#63b8ff" points="71.5,-219.75 75,-229.75 78.5,-219.75 71.5,-219.75"/>
</g>
</g>
</svg>
