<?xml version="1.0" encoding="UTF-8" standalone="no"?>
<!DOCTYPE svg PUBLIC "-//W3C//DTD SVG 1.1//EN"
 "http://www.w3.org/Graphics/SVG/1.1/DTD/svg11.dtd">
<!-- Generated by graphviz version 8.0.2 (20230410.1723)
 -->
<!-- Title: SCR_InventoryStorageManagerComponentClass Pages: 1 -->
<svg width="184pt" height="346pt"
 viewBox="0.00 0.00 184.00 346.00" xmlns="http://www.w3.org/2000/svg" xmlns:xlink="http://www.w3.org/1999/xlink">
<g id="graph0" class="graph" transform="scale(1 1) rotate(0) translate(4 342)">
<title>SCR_InventoryStorageManagerComponentClass</title>
<!-- Node1 -->
<g id="node1" class="node">
<title>Node1</title>
<g id="a_node1"><a xlink:title=" ">
<polygon fill="#999999" stroke="#666666" points="164,-96 12,-96 12,-66 164,-66 164,-96"/>
<text text-anchor="start" x="20" y="-84" font-family="Helvetica,sans-Serif" font-size="10.00">SCR_InventoryStorageManager</text>
<text text-anchor="middle" x="88" y="-73" font-family="Helvetica,sans-Serif" font-size="10.00">ComponentClass</text>
</a>
</g>
</g>
<!-- Node6 -->
<g id="node6" class="node">
<title>Node6</title>
<g id="a_node6"><a xlink:href="interfaceSCR__TurretInventoryStorageManagerComponentClass.html" target="_top" xlink:title=" ">
<polygon fill="white" stroke="#666666" points="157.5,-30 18.5,-30 18.5,0 157.5,0 157.5,-30"/>
<text text-anchor="start" x="26.5" y="-18" font-family="Helvetica,sans-Serif" font-size="10.00">SCR_TurretInventoryStorage</text>
<text text-anchor="middle" x="88" y="-7" font-family="Helvetica,sans-Serif" font-size="10.00">ManagerComponentClass</text>
</a>
</g>
</g>
<!-- Node1&#45;&gt;Node6 -->
<g id="edge5" class="edge">
<title>Node1&#45;&gt;Node6</title>
<path fill="none" stroke="#63b8ff" d="M88,-54.97C88,-46.55 88,-37.45 88,-30.16"/>
<polygon fill="#63b8ff" stroke="#63b8ff" points="84.5,-54.8 88,-64.8 91.5,-54.8 84.5,-54.8"/>
</g>
<!-- Node2 -->
<g id="node2" class="node">
<title>Node2</title>
<g id="a_node2"><a xlink:href="interfaceScriptedInventoryStorageManagerComponentClass.html" target="_top" xlink:title=" ">
<polygon fill="white" stroke="#666666" points="152,-162 24,-162 24,-132 152,-132 152,-162"/>
<text text-anchor="start" x="32" y="-150" font-family="Helvetica,sans-Serif" font-size="10.00">ScriptedInventoryStorage</text>
<text text-anchor="middle" x="88" y="-139" font-family="Helvetica,sans-Serif" font-size="10.00">ManagerComponentClass</text>
</a>
</g>
</g>
<!-- Node2&#45;&gt;Node1 -->
<g id="edge1" class="edge">
<title>Node2&#45;&gt;Node1</title>
<path fill="none" stroke="#63b8ff" d="M88,-120.97C88,-112.55 88,-103.45 88,-96.16"/>
<polygon fill="#63b8ff" stroke="#63b8ff" points="84.5,-120.8 88,-130.8 91.5,-120.8 84.5,-120.8"/>
</g>
<!-- Node3 -->
<g id="node3" class="node">
<title>Node3</title>
<g id="a_node3"><a xlink:href="interfaceInventoryStorageManagerComponentClass.html" target="_top" xlink:title=" ">
<polygon fill="white" stroke="#666666" points="176,-228 0,-228 0,-198 176,-198 176,-228"/>
<text text-anchor="start" x="8" y="-216" font-family="Helvetica,sans-Serif" font-size="10.00">InventoryStorageManagerComponent</text>
<text text-anchor="middle" x="88" y="-205" font-family="Helvetica,sans-Serif" font-size="10.00">Class</text>
</a>
</g>
</g>
<!-- Node3&#45;&gt;Node2 -->
<g id="edge2" class="edge">
<title>Node3&#45;&gt;Node2</title>
<path fill="none" stroke="#63b8ff" d="M88,-186.97C88,-178.55 88,-169.45 88,-162.16"/>
<polygon fill="#63b8ff" stroke="#63b8ff" points="84.5,-186.8 88,-196.8 91.5,-186.8 84.5,-186.8"/>
</g>
<!-- Node4 -->
<g id="node4" class="node">
<title>Node4</title>
<g id="a_node4"><a xlink:href="interfaceGameComponentClass.html" target="_top" xlink:title=" ">
<polygon fill="white" stroke="#666666" points="146.5,-283 29.5,-283 29.5,-264 146.5,-264 146.5,-283"/>
<text text-anchor="middle" x="88" y="-271" font-family="Helvetica,sans-Serif" font-size="10.00">GameComponentClass</text>
</a>
</g>
</g>
<!-- Node4&#45;&gt;Node3 -->
<g id="edge3" class="edge">
<title>Node4&#45;&gt;Node3</title>
<path fill="none" stroke="#63b8ff" d="M88,-253.08C88,-244.92 88,-235.6 88,-228.11"/>
<polygon fill="#63b8ff" stroke="#63b8ff" points="84.5,-252.87 88,-262.87 91.5,-252.87 84.5,-252.87"/>
</g>
<!-- Node5 -->
<g id="node5" class="node">
<title>Node5</title>
<g id="a_node5"><a xlink:title=" ">
<polygon fill="white" stroke="#666666" points="150.5,-338 25.5,-338 25.5,-319 150.5,-319 150.5,-338"/>
<text text-anchor="middle" x="88" y="-326" font-family="Helvetica,sans-Serif" font-size="10.00">GenericComponentClass</text>
</a>
</g>
</g>
<!-- Node5&#45;&gt;Node4 -->
<g id="edge4" class="edge">
<title>Node5&#45;&gt;Node4</title>
<path fill="none" stroke="#63b8ff" d="M88,-307.93C88,-299.53 88,-290.13 88,-283.44"/>
<polygon fill="#63b8ff" stroke="#63b8ff" points="84.5,-307.75 88,-317.75 91.5,-307.75 84.5,-307.75"/>
</g>
</g>
</svg>
