<?xml version="1.0" encoding="UTF-8" standalone="no"?>
<!DOCTYPE svg PUBLIC "-//W3C//DTD SVG 1.1//EN"
 "http://www.w3.org/Graphics/SVG/1.1/DTD/svg11.dtd">
<!-- Generated by graphviz version 8.0.2 (20230410.1723)
 -->
<!-- Title: ScriptedRadioMessage Pages: 1 -->
<svg width="513pt" height="258pt"
 viewBox="0.00 0.00 512.50 258.00" xmlns="http://www.w3.org/2000/svg" xmlns:xlink="http://www.w3.org/1999/xlink">
<g id="graph0" class="graph" transform="scale(1 1) rotate(0) translate(4 254)">
<title>ScriptedRadioMessage</title>
<!-- Node1 -->
<g id="node1" class="node">
<title>Node1</title>
<g id="a_node1"><a xlink:title=" ">
<polygon fill="#999999" stroke="#666666" points="314,-140 197,-140 197,-121 314,-121 314,-140"/>
<text text-anchor="middle" x="255.5" y="-128" font-family="Helvetica,sans-Serif" font-size="10.00">ScriptedRadioMessage</text>
</a>
</g>
</g>
<!-- Node4 -->
<g id="node4" class="node">
<title>Node4</title>
<g id="a_node4"><a xlink:href="interfaceSCR__CampaignRadioMsg.html" target="_top" xlink:title=" ">
<polygon fill="white" stroke="#666666" points="178,-79.5 49,-79.5 49,-60.5 178,-60.5 178,-79.5"/>
<text text-anchor="middle" x="113.5" y="-67.5" font-family="Helvetica,sans-Serif" font-size="10.00">SCR_CampaignRadioMsg</text>
</a>
</g>
</g>
<!-- Node1&#45;&gt;Node4 -->
<g id="edge3" class="edge">
<title>Node1&#45;&gt;Node4</title>
<path fill="none" stroke="#63b8ff" d="M223.85,-116.46C196.9,-105.36 158.91,-89.71 135.27,-79.97"/>
<polygon fill="#63b8ff" stroke="#63b8ff" points="222.35,-120.04 232.93,-120.62 225.02,-113.57 222.35,-120.04"/>
</g>
<!-- Node5 -->
<g id="node5" class="node">
<title>Node5</title>
<g id="a_node5"><a xlink:href="interfaceSCR__RequestMessage.html" target="_top" xlink:title=" ">
<polygon fill="white" stroke="#666666" points="314.5,-79.5 196.5,-79.5 196.5,-60.5 314.5,-60.5 314.5,-79.5"/>
<text text-anchor="middle" x="255.5" y="-67.5" font-family="Helvetica,sans-Serif" font-size="10.00">SCR_RequestMessage</text>
</a>
</g>
</g>
<!-- Node1&#45;&gt;Node5 -->
<g id="edge4" class="edge">
<title>Node1&#45;&gt;Node5</title>
<path fill="none" stroke="#63b8ff" d="M255.5,-109.99C255.5,-99.72 255.5,-87.63 255.5,-79.67"/>
<polygon fill="#63b8ff" stroke="#63b8ff" points="252,-109.87 255.5,-119.87 259,-109.87 252,-109.87"/>
</g>
<!-- Node9 -->
<g id="node9" class="node">
<title>Node9</title>
<g id="a_node9"><a xlink:href="interfaceSCR__RequestReinforcementsMessage.html" target="_top" xlink:title=" ">
<polygon fill="white" stroke="#666666" points="478.5,-85 332.5,-85 332.5,-55 478.5,-55 478.5,-85"/>
<text text-anchor="start" x="340.5" y="-73" font-family="Helvetica,sans-Serif" font-size="10.00">SCR_RequestReinforcements</text>
<text text-anchor="middle" x="405.5" y="-62" font-family="Helvetica,sans-Serif" font-size="10.00">Message</text>
</a>
</g>
</g>
<!-- Node1&#45;&gt;Node9 -->
<g id="edge8" class="edge">
<title>Node1&#45;&gt;Node9</title>
<path fill="none" stroke="#63b8ff" d="M288.51,-116.63C312.14,-107.41 343.98,-94.99 368.48,-85.44"/>
<polygon fill="#63b8ff" stroke="#63b8ff" points="287.33,-113.72 279.28,-120.62 289.87,-120.24 287.33,-113.72"/>
</g>
<!-- Node2 -->
<g id="node2" class="node">
<title>Node2</title>
<g id="a_node2"><a xlink:href="interfaceBaseRadioMessage.html" target="_top" xlink:title=" ">
<polygon fill="white" stroke="#666666" points="307.5,-195 203.5,-195 203.5,-176 307.5,-176 307.5,-195"/>
<text text-anchor="middle" x="255.5" y="-183" font-family="Helvetica,sans-Serif" font-size="10.00">BaseRadioMessage</text>
</a>
</g>
</g>
<!-- Node2&#45;&gt;Node1 -->
<g id="edge1" class="edge">
<title>Node2&#45;&gt;Node1</title>
<path fill="none" stroke="#63b8ff" d="M255.5,-164.93C255.5,-156.53 255.5,-147.13 255.5,-140.44"/>
<polygon fill="#63b8ff" stroke="#63b8ff" points="252,-164.75 255.5,-174.75 259,-164.75 252,-164.75"/>
</g>
<!-- Node3 -->
<g id="node3" class="node">
<title>Node3</title>
<g id="a_node3"><a xlink:title=" ">
<polygon fill="white" stroke="#666666" points="298.5,-250 212.5,-250 212.5,-231 298.5,-231 298.5,-250"/>
<text text-anchor="middle" x="255.5" y="-238" font-family="Helvetica,sans-Serif" font-size="10.00">ScriptAndConfig</text>
</a>
</g>
</g>
<!-- Node3&#45;&gt;Node2 -->
<g id="edge2" class="edge">
<title>Node3&#45;&gt;Node2</title>
<path fill="none" stroke="#63b8ff" d="M255.5,-219.93C255.5,-211.53 255.5,-202.13 255.5,-195.44"/>
<polygon fill="#63b8ff" stroke="#63b8ff" points="252,-219.75 255.5,-229.75 259,-219.75 252,-219.75"/>
</g>
<!-- Node6 -->
<g id="node6" class="node">
<title>Node6</title>
<g id="a_node6"><a xlink:href="interfaceSCR__RequestEvacuationMessage.html" target="_top" xlink:title=" ">
<polygon fill="white" stroke="#666666" points="165,-19 0,-19 0,0 165,0 165,-19"/>
<text text-anchor="middle" x="82.5" y="-7" font-family="Helvetica,sans-Serif" font-size="10.00">SCR_RequestEvacuationMessage</text>
</a>
</g>
</g>
<!-- Node5&#45;&gt;Node6 -->
<g id="edge5" class="edge">
<title>Node5&#45;&gt;Node6</title>
<path fill="none" stroke="#63b8ff" d="M219.1,-56.69C186.17,-45.56 138.47,-29.42 109.02,-19.47"/>
<polygon fill="#63b8ff" stroke="#63b8ff" points="217.63,-60.23 228.23,-60.12 219.87,-53.6 217.63,-60.23"/>
</g>
<!-- Node7 -->
<g id="node7" class="node">
<title>Node7</title>
<g id="a_node7"><a xlink:href="interfaceSCR__RequestRefuelMessage.html" target="_top" xlink:title=" ">
<polygon fill="white" stroke="#666666" points="328,-19 183,-19 183,0 328,0 328,-19"/>
<text text-anchor="middle" x="255.5" y="-7" font-family="Helvetica,sans-Serif" font-size="10.00">SCR_RequestRefuelMessage</text>
</a>
</g>
</g>
<!-- Node5&#45;&gt;Node7 -->
<g id="edge6" class="edge">
<title>Node5&#45;&gt;Node7</title>
<path fill="none" stroke="#63b8ff" d="M255.5,-49.49C255.5,-39.22 255.5,-27.13 255.5,-19.17"/>
<polygon fill="#63b8ff" stroke="#63b8ff" points="252,-49.37 255.5,-59.37 259,-49.37 252,-49.37"/>
</g>
<!-- Node8 -->
<g id="node8" class="node">
<title>Node8</title>
<g id="a_node8"><a xlink:href="interfaceSCR__RequestTransportMessage.html" target="_top" xlink:title=" ">
<polygon fill="white" stroke="#666666" points="504.5,-19 346.5,-19 346.5,0 504.5,0 504.5,-19"/>
<text text-anchor="middle" x="425.5" y="-7" font-family="Helvetica,sans-Serif" font-size="10.00">SCR_RequestTransportMessage</text>
</a>
</g>
</g>
<!-- Node5&#45;&gt;Node8 -->
<g id="edge7" class="edge">
<title>Node5&#45;&gt;Node8</title>
<path fill="none" stroke="#63b8ff" d="M291.69,-56.55C324.03,-45.42 370.63,-29.38 399.44,-19.47"/>
<polygon fill="#63b8ff" stroke="#63b8ff" points="290.64,-53.55 282.32,-60.12 292.91,-60.17 290.64,-53.55"/>
</g>
</g>
</svg>
