<?xml version="1.0" encoding="UTF-8" standalone="no"?>
<!DOCTYPE svg PUBLIC "-//W3C//DTD SVG 1.1//EN"
 "http://www.w3.org/Graphics/SVG/1.1/DTD/svg11.dtd">
<!-- Generated by graphviz version 8.0.2 (20230410.1723)
 -->
<!-- Title: SCR_WidgetEditFormat Pages: 1 -->
<svg width="479pt" height="148pt"
 viewBox="0.00 0.00 478.50 148.00" xmlns="http://www.w3.org/2000/svg" xmlns:xlink="http://www.w3.org/1999/xlink">
<g id="graph0" class="graph" transform="scale(1 1) rotate(0) translate(4 144)">
<title>SCR_WidgetEditFormat</title>
<!-- Node1 -->
<g id="node1" class="node">
<title>Node1</title>
<g id="a_node1"><a xlink:title="Classes for handling limits of configurable widget entries.">
<polygon fill="#999999" stroke="#666666" points="286.5,-140 165.5,-140 165.5,-121 286.5,-121 286.5,-140"/>
<text text-anchor="middle" x="226" y="-128" font-family="Helvetica,sans-Serif" font-size="10.00">SCR_WidgetEditFormat</text>
</a>
</g>
</g>
<!-- Node2 -->
<g id="node2" class="node">
<title>Node2</title>
<g id="a_node2"><a xlink:href="interfaceSCR__WidgetEditFormatIP.html" target="_top" xlink:title="Format for ip.">
<polygon fill="white" stroke="#666666" points="130,-79.5 0,-79.5 0,-60.5 130,-60.5 130,-79.5"/>
<text text-anchor="middle" x="65" y="-67.5" font-family="Helvetica,sans-Serif" font-size="10.00">SCR_WidgetEditFormatIP</text>
</a>
</g>
</g>
<!-- Node1&#45;&gt;Node2 -->
<g id="edge1" class="edge">
<title>Node1&#45;&gt;Node2</title>
<path fill="none" stroke="#63b8ff" d="M191.32,-116.9C160.71,-105.78 116.85,-89.84 89.68,-79.97"/>
<polygon fill="#63b8ff" stroke="#63b8ff" points="189.95,-120.49 200.55,-120.62 192.34,-113.91 189.95,-120.49"/>
</g>
<!-- Node3 -->
<g id="node3" class="node">
<title>Node3</title>
<g id="a_node3"><a xlink:href="interfaceSCR__WidgetEditFormatNumberRange.html" target="_top" xlink:title="Is string of count.">
<polygon fill="white" stroke="#666666" points="303.5,-85 148.5,-85 148.5,-55 303.5,-55 303.5,-85"/>
<text text-anchor="start" x="156.5" y="-73" font-family="Helvetica,sans-Serif" font-size="10.00">SCR_WidgetEditFormatNumber</text>
<text text-anchor="middle" x="226" y="-62" font-family="Helvetica,sans-Serif" font-size="10.00">Range</text>
</a>
</g>
</g>
<!-- Node1&#45;&gt;Node3 -->
<g id="edge2" class="edge">
<title>Node1&#45;&gt;Node3</title>
<path fill="none" stroke="#63b8ff" d="M226,-110.08C226,-101.92 226,-92.6 226,-85.11"/>
<polygon fill="#63b8ff" stroke="#63b8ff" points="222.5,-109.87 226,-119.87 229.5,-109.87 222.5,-109.87"/>
</g>
<!-- Node4 -->
<g id="node4" class="node">
<title>Node4</title>
<g id="a_node4"><a xlink:href="interfaceSCR__WidgetEditFormatRange.html" target="_top" xlink:title="Is string of count.">
<polygon fill="white" stroke="#666666" points="470.5,-79.5 321.5,-79.5 321.5,-60.5 470.5,-60.5 470.5,-79.5"/>
<text text-anchor="middle" x="396" y="-67.5" font-family="Helvetica,sans-Serif" font-size="10.00">SCR_WidgetEditFormatRange</text>
</a>
</g>
</g>
<!-- Node1&#45;&gt;Node4 -->
<g id="edge3" class="edge">
<title>Node1&#45;&gt;Node4</title>
<path fill="none" stroke="#63b8ff" d="M262.19,-117.05C294.53,-105.92 341.13,-89.88 369.94,-79.97"/>
<polygon fill="#63b8ff" stroke="#63b8ff" points="261.14,-114.05 252.82,-120.62 263.41,-120.67 261.14,-114.05"/>
</g>
<!-- Node5 -->
<g id="node5" class="node">
<title>Node5</title>
<g id="a_node5"><a xlink:href="interfaceSCR__WidgetEditFormatName.html" target="_top" xlink:title="Format for name with specific messages and variable limitations.">
<polygon fill="white" stroke="#666666" points="469,-19 323,-19 323,0 469,0 469,-19"/>
<text text-anchor="middle" x="396" y="-7" font-family="Helvetica,sans-Serif" font-size="10.00">SCR_WidgetEditFormatName</text>
</a>
</g>
</g>
<!-- Node4&#45;&gt;Node5 -->
<g id="edge4" class="edge">
<title>Node4&#45;&gt;Node5</title>
<path fill="none" stroke="#63b8ff" d="M396,-49.49C396,-39.22 396,-27.13 396,-19.17"/>
<polygon fill="#63b8ff" stroke="#63b8ff" points="392.5,-49.37 396,-59.37 399.5,-49.37 392.5,-49.37"/>
</g>
</g>
</svg>
