<?xml version="1.0" encoding="UTF-8" standalone="no"?>
<!DOCTYPE svg PUBLIC "-//W3C//DTD SVG 1.1//EN"
 "http://www.w3.org/Graphics/SVG/1.1/DTD/svg11.dtd">
<!-- Generated by graphviz version 8.0.2 (20230410.1723)
 -->
<!-- Title: SCR_BaseGameMode Pages: 1 -->
<svg width="548pt" height="175pt"
 viewBox="0.00 0.00 548.00 175.00" xmlns="http://www.w3.org/2000/svg" xmlns:xlink="http://www.w3.org/1999/xlink">
<g id="graph0" class="graph" transform="scale(1 1) rotate(0) translate(4 171)">
<title>SCR_BaseGameMode</title>
<!-- Node1 -->
<g id="node1" class="node">
<title>Node1</title>
<g id="a_node1"><a xlink:title=" ">
<polygon fill="#999999" stroke="#666666" points="352,-93 237,-93 237,-74 352,-74 352,-93"/>
<text text-anchor="middle" x="294.5" y="-81" font-family="Helvetica,sans-Serif" font-size="10.00">SCR_BaseGameMode</text>
</a>
</g>
</g>
<!-- Node4 -->
<g id="node4" class="node">
<title>Node4</title>
<g id="a_node4"><a xlink:href="interfaceSCR__GameModeCampaign.html" target="_top" xlink:title=" ">
<polygon fill="white" stroke="#666666" points="532,-167 396,-167 396,-148 532,-148 532,-167"/>
<text text-anchor="middle" x="464" y="-155" font-family="Helvetica,sans-Serif" font-size="10.00">SCR_GameModeCampaign</text>
</a>
</g>
</g>
<!-- Node1&#45;&gt;Node4 -->
<g id="edge3" class="edge">
<title>Node1&#45;&gt;Node4</title>
<path fill="none" stroke="#63b8ff" d="M317.53,-99.52C335.65,-112.03 362.42,-128.99 388,-139.5 395.68,-142.66 404.04,-145.34 412.3,-147.59"/>
<polygon fill="#63b8ff" stroke="#63b8ff" points="320.09,-96.34 309.89,-93.45 316.06,-102.07 320.09,-96.34"/>
</g>
<!-- Node5 -->
<g id="node5" class="node">
<title>Node5</title>
<g id="a_node5"><a xlink:href="interfaceSCR__GameModeCleanSweep.html" target="_top" xlink:title=" ">
<polygon fill="white" stroke="#666666" points="537,-130 391,-130 391,-111 537,-111 537,-130"/>
<text text-anchor="middle" x="464" y="-118" font-family="Helvetica,sans-Serif" font-size="10.00">SCR_GameModeCleanSweep</text>
</a>
</g>
</g>
<!-- Node1&#45;&gt;Node5 -->
<g id="edge4" class="edge">
<title>Node1&#45;&gt;Node5</title>
<path fill="none" stroke="#63b8ff" d="M351.12,-95.79C372.84,-100.58 397.41,-106.01 417.99,-110.56"/>
<polygon fill="#63b8ff" stroke="#63b8ff" points="351.91,-92.15 341.39,-93.42 350.4,-98.99 351.91,-92.15"/>
</g>
<!-- Node6 -->
<g id="node6" class="node">
<title>Node6</title>
<g id="a_node6"><a xlink:href="interfaceSCR__GameModeEditor.html" target="_top" xlink:title=" ">
<polygon fill="white" stroke="#666666" points="523,-93 405,-93 405,-74 523,-74 523,-93"/>
<text text-anchor="middle" x="464" y="-81" font-family="Helvetica,sans-Serif" font-size="10.00">SCR_GameModeEditor</text>
</a>
</g>
</g>
<!-- Node1&#45;&gt;Node6 -->
<g id="edge5" class="edge">
<title>Node1&#45;&gt;Node6</title>
<path fill="none" stroke="#63b8ff" d="M363.09,-83.5C376.85,-83.5 391.23,-83.5 404.64,-83.5"/>
<polygon fill="#63b8ff" stroke="#63b8ff" points="363.21,-80 353.21,-83.5 363.21,-87 363.21,-80"/>
</g>
<!-- Node7 -->
<g id="node7" class="node">
<title>Node7</title>
<g id="a_node7"><a xlink:href="interfaceSCR__GameModeLastStand.html" target="_top" xlink:title=" ">
<polygon fill="white" stroke="#666666" points="532.5,-56 395.5,-56 395.5,-37 532.5,-37 532.5,-56"/>
<text text-anchor="middle" x="464" y="-44" font-family="Helvetica,sans-Serif" font-size="10.00">SCR_GameModeLastStand</text>
</a>
</g>
</g>
<!-- Node1&#45;&gt;Node7 -->
<g id="edge6" class="edge">
<title>Node1&#45;&gt;Node7</title>
<path fill="none" stroke="#63b8ff" d="M351.12,-71.21C372.84,-66.42 397.41,-60.99 417.99,-56.44"/>
<polygon fill="#63b8ff" stroke="#63b8ff" points="350.4,-68.01 341.39,-73.58 351.91,-74.85 350.4,-68.01"/>
</g>
<!-- Node8 -->
<g id="node8" class="node">
<title>Node8</title>
<g id="a_node8"><a xlink:href="interfaceSCR__GameModeSectorControl.html" target="_top" xlink:title="Encapsulates the team sector control game mode functionality.">
<polygon fill="white" stroke="#666666" points="540,-19 388,-19 388,0 540,0 540,-19"/>
<text text-anchor="middle" x="464" y="-7" font-family="Helvetica,sans-Serif" font-size="10.00">SCR_GameModeSectorControl</text>
</a>
</g>
</g>
<!-- Node1&#45;&gt;Node8 -->
<g id="edge7" class="edge">
<title>Node1&#45;&gt;Node8</title>
<path fill="none" stroke="#63b8ff" d="M317.53,-67.48C335.65,-54.97 362.42,-38.01 388,-27.5 395.68,-24.34 404.04,-21.66 412.3,-19.41"/>
<polygon fill="#63b8ff" stroke="#63b8ff" points="316.06,-64.93 309.89,-73.55 320.09,-70.66 316.06,-64.93"/>
</g>
<!-- Node2 -->
<g id="node2" class="node">
<title>Node2</title>
<g id="a_node2"><a xlink:href="interfaceBaseGameMode.html" target="_top" xlink:title=" ">
<polygon fill="white" stroke="#666666" points="201,-93 112,-93 112,-74 201,-74 201,-93"/>
<text text-anchor="middle" x="156.5" y="-81" font-family="Helvetica,sans-Serif" font-size="10.00">BaseGameMode</text>
</a>
</g>
</g>
<!-- Node2&#45;&gt;Node1 -->
<g id="edge1" class="edge">
<title>Node2&#45;&gt;Node1</title>
<path fill="none" stroke="#63b8ff" d="M212.16,-83.5C220.3,-83.5 228.7,-83.5 236.88,-83.5"/>
<polygon fill="#63b8ff" stroke="#63b8ff" points="212.28,-80 202.28,-83.5 212.28,-87 212.28,-80"/>
</g>
<!-- Node3 -->
<g id="node3" class="node">
<title>Node3</title>
<g id="a_node3"><a xlink:title=" ">
<polygon fill="white" stroke="#666666" points="76,-93 0,-93 0,-74 76,-74 76,-93"/>
<text text-anchor="middle" x="38" y="-81" font-family="Helvetica,sans-Serif" font-size="10.00">GenericEntity</text>
</a>
</g>
</g>
<!-- Node3&#45;&gt;Node2 -->
<g id="edge2" class="edge">
<title>Node3&#45;&gt;Node2</title>
<path fill="none" stroke="#63b8ff" d="M87.09,-83.5C95.26,-83.5 103.71,-83.5 111.76,-83.5"/>
<polygon fill="#63b8ff" stroke="#63b8ff" points="87.18,-80 77.18,-83.5 87.18,-87 87.18,-80"/>
</g>
</g>
</svg>
