<?xml version="1.0" encoding="UTF-8" standalone="no"?>
<!DOCTYPE svg PUBLIC "-//W3C//DTD SVG 1.1//EN"
 "http://www.w3.org/Graphics/SVG/1.1/DTD/svg11.dtd">
<!-- Generated by graphviz version 8.0.2 (20230410.1723)
 -->
<!-- Title: SCR_BackendImageComponent Pages: 1 -->
<svg width="342pt" height="203pt"
 viewBox="0.00 0.00 341.50 203.00" xmlns="http://www.w3.org/2000/svg" xmlns:xlink="http://www.w3.org/1999/xlink">
<g id="graph0" class="graph" transform="scale(1 1) rotate(0) translate(4 199)">
<title>SCR_BackendImageComponent</title>
<!-- Node1 -->
<g id="node1" class="node">
<title>Node1</title>
<g id="a_node1"><a xlink:title="This component implements basic image and loading overlay handling m_sImageWidgetName must be an Imag...">
<polygon fill="#999999" stroke="#666666" points="238.5,-85 82.5,-85 82.5,-66 238.5,-66 238.5,-85"/>
<text text-anchor="middle" x="160.5" y="-73" font-family="Helvetica,sans-Serif" font-size="10.00">SCR_BackendImageComponent</text>
</a>
</g>
</g>
<!-- Node4 -->
<g id="node4" class="node">
<title>Node4</title>
<g id="a_node4"><a xlink:href="interfaceSCR__ScenarioBackendImageComponent.html" target="_top" xlink:title="Same as SCR_BackendImageComponent, but implements default image based on scenario.">
<polygon fill="white" stroke="#666666" points="145,-30 0,-30 0,0 145,0 145,-30"/>
<text text-anchor="start" x="8" y="-18" font-family="Helvetica,sans-Serif" font-size="10.00">SCR_ScenarioBackendImage</text>
<text text-anchor="middle" x="72.5" y="-7" font-family="Helvetica,sans-Serif" font-size="10.00">Component</text>
</a>
</g>
</g>
<!-- Node1&#45;&gt;Node4 -->
<g id="edge3" class="edge">
<title>Node1&#45;&gt;Node4</title>
<path fill="none" stroke="#63b8ff" d="M138.07,-59.59C124.6,-50.64 107.56,-39.3 94.22,-30.44"/>
<polygon fill="#63b8ff" stroke="#63b8ff" points="135.87,-62.99 146.13,-65.62 139.74,-57.16 135.87,-62.99"/>
</g>
<!-- Node5 -->
<g id="node5" class="node">
<title>Node5</title>
<g id="a_node5"><a xlink:href="interfaceSCR__WorkshopItemBackendImageComponent.html" target="_top" xlink:title="Same as SCR_BackendImageComponent, but implements default image based on tag of Workshop Item.">
<polygon fill="white" stroke="#666666" points="333.5,-30 163.5,-30 163.5,0 333.5,0 333.5,-30"/>
<text text-anchor="start" x="171.5" y="-18" font-family="Helvetica,sans-Serif" font-size="10.00">SCR_WorkshopItemBackendImage</text>
<text text-anchor="middle" x="248.5" y="-7" font-family="Helvetica,sans-Serif" font-size="10.00">Component</text>
</a>
</g>
</g>
<!-- Node1&#45;&gt;Node5 -->
<g id="edge4" class="edge">
<title>Node1&#45;&gt;Node5</title>
<path fill="none" stroke="#63b8ff" d="M182.93,-59.59C196.4,-50.64 213.44,-39.3 226.78,-30.44"/>
<polygon fill="#63b8ff" stroke="#63b8ff" points="181.26,-57.16 174.87,-65.62 185.13,-62.99 181.26,-57.16"/>
</g>
<!-- Node2 -->
<g id="node2" class="node">
<title>Node2</title>
<g id="a_node2"><a xlink:href="interfaceSCR__ScriptedWidgetComponent.html" target="_top" xlink:title=" ">
<polygon fill="white" stroke="#666666" points="239.5,-140 81.5,-140 81.5,-121 239.5,-121 239.5,-140"/>
<text text-anchor="middle" x="160.5" y="-128" font-family="Helvetica,sans-Serif" font-size="10.00">SCR_ScriptedWidgetComponent</text>
</a>
</g>
</g>
<!-- Node2&#45;&gt;Node1 -->
<g id="edge1" class="edge">
<title>Node2&#45;&gt;Node1</title>
<path fill="none" stroke="#63b8ff" d="M160.5,-109.93C160.5,-101.53 160.5,-92.13 160.5,-85.44"/>
<polygon fill="#63b8ff" stroke="#63b8ff" points="157,-109.75 160.5,-119.75 164,-109.75 157,-109.75"/>
</g>
<!-- Node3 -->
<g id="node3" class="node">
<title>Node3</title>
<g id="a_node3"><a xlink:title=" ">
<polygon fill="white" stroke="#666666" points="227,-195 94,-195 94,-176 227,-176 227,-195"/>
<text text-anchor="middle" x="160.5" y="-183" font-family="Helvetica,sans-Serif" font-size="10.00">ScriptedWidgetComponent</text>
</a>
</g>
</g>
<!-- Node3&#45;&gt;Node2 -->
<g id="edge2" class="edge">
<title>Node3&#45;&gt;Node2</title>
<path fill="none" stroke="#63b8ff" d="M160.5,-164.93C160.5,-156.53 160.5,-147.13 160.5,-140.44"/>
<polygon fill="#63b8ff" stroke="#63b8ff" points="157,-164.75 160.5,-174.75 164,-164.75 157,-164.75"/>
</g>
</g>
</svg>
