<?xml version="1.0" encoding="UTF-8" standalone="no"?>
<!DOCTYPE svg PUBLIC "-//W3C//DTD SVG 1.1//EN"
 "http://www.w3.org/Graphics/SVG/1.1/DTD/svg11.dtd">
<!-- Generated by graphviz version 8.0.2 (20230410.1723)
 -->
<!-- Title: SCR_CustomTooltipTargetEditorUIComponent Pages: 1 -->
<svg width="165pt" height="269pt"
 viewBox="0.00 0.00 165.00 269.00" xmlns="http://www.w3.org/2000/svg" xmlns:xlink="http://www.w3.org/1999/xlink">
<g id="graph0" class="graph" transform="scale(1 1) rotate(0) translate(4 265)">
<title>SCR_CustomTooltipTargetEditorUIComponent</title>
<!-- Node1 -->
<g id="node1" class="node">
<title>Node1</title>
<g id="a_node1"><a xlink:title=" ">
<polygon fill="#999999" stroke="#666666" points="157,-30 0,-30 0,0 157,0 157,-30"/>
<text text-anchor="start" x="8" y="-18" font-family="Helvetica,sans-Serif" font-size="10.00">SCR_CustomTooltipTargetEditor</text>
<text text-anchor="middle" x="78.5" y="-7" font-family="Helvetica,sans-Serif" font-size="10.00">UIComponent</text>
</a>
</g>
</g>
<!-- Node2 -->
<g id="node2" class="node">
<title>Node2</title>
<g id="a_node2"><a xlink:href="interfaceSCR__BaseTooltipTargetEditorUIComponent.html" target="_top" xlink:title=" ">
<polygon fill="white" stroke="#666666" points="151.5,-96 5.5,-96 5.5,-66 151.5,-66 151.5,-96"/>
<text text-anchor="start" x="13.5" y="-84" font-family="Helvetica,sans-Serif" font-size="10.00">SCR_BaseTooltipTargetEditor</text>
<text text-anchor="middle" x="78.5" y="-73" font-family="Helvetica,sans-Serif" font-size="10.00">UIComponent</text>
</a>
</g>
</g>
<!-- Node2&#45;&gt;Node1 -->
<g id="edge1" class="edge">
<title>Node2&#45;&gt;Node1</title>
<path fill="none" stroke="#63b8ff" d="M78.5,-54.97C78.5,-46.55 78.5,-37.45 78.5,-30.16"/>
<polygon fill="#63b8ff" stroke="#63b8ff" points="75,-54.8 78.5,-64.8 82,-54.8 75,-54.8"/>
</g>
<!-- Node3 -->
<g id="node3" class="node">
<title>Node3</title>
<g id="a_node3"><a xlink:href="interfaceSCR__BaseEditorUIComponent.html" target="_top" xlink:title=" ">
<polygon fill="white" stroke="#666666" points="153,-151 4,-151 4,-132 153,-132 153,-151"/>
<text text-anchor="middle" x="78.5" y="-139" font-family="Helvetica,sans-Serif" font-size="10.00">SCR_BaseEditorUIComponent</text>
</a>
</g>
</g>
<!-- Node3&#45;&gt;Node2 -->
<g id="edge2" class="edge">
<title>Node3&#45;&gt;Node2</title>
<path fill="none" stroke="#63b8ff" d="M78.5,-121.08C78.5,-112.92 78.5,-103.6 78.5,-96.11"/>
<polygon fill="#63b8ff" stroke="#63b8ff" points="75,-120.87 78.5,-130.87 82,-120.87 75,-120.87"/>
</g>
<!-- Node4 -->
<g id="node4" class="node">
<title>Node4</title>
<g id="a_node4"><a xlink:href="interfaceMenuRootSubComponent.html" target="_top" xlink:title="Widget component which is linked to menu it&#39;s part of.">
<polygon fill="white" stroke="#666666" points="142.5,-206 14.5,-206 14.5,-187 142.5,-187 142.5,-206"/>
<text text-anchor="middle" x="78.5" y="-194" font-family="Helvetica,sans-Serif" font-size="10.00">MenuRootSubComponent</text>
</a>
</g>
</g>
<!-- Node4&#45;&gt;Node3 -->
<g id="edge3" class="edge">
<title>Node4&#45;&gt;Node3</title>
<path fill="none" stroke="#63b8ff" d="M78.5,-175.93C78.5,-167.53 78.5,-158.13 78.5,-151.44"/>
<polygon fill="#63b8ff" stroke="#63b8ff" points="75,-175.75 78.5,-185.75 82,-175.75 75,-175.75"/>
</g>
<!-- Node5 -->
<g id="node5" class="node">
<title>Node5</title>
<g id="a_node5"><a xlink:title=" ">
<polygon fill="white" stroke="#666666" points="145,-261 12,-261 12,-242 145,-242 145,-261"/>
<text text-anchor="middle" x="78.5" y="-249" font-family="Helvetica,sans-Serif" font-size="10.00">ScriptedWidgetComponent</text>
</a>
</g>
</g>
<!-- Node5&#45;&gt;Node4 -->
<g id="edge4" class="edge">
<title>Node5&#45;&gt;Node4</title>
<path fill="none" stroke="#63b8ff" d="M78.5,-230.93C78.5,-222.53 78.5,-213.13 78.5,-206.44"/>
<polygon fill="#63b8ff" stroke="#63b8ff" points="75,-230.75 78.5,-240.75 82,-230.75 75,-230.75"/>
</g>
</g>
</svg>
