<?xml version="1.0" encoding="UTF-8" standalone="no"?>
<!DOCTYPE svg PUBLIC "-//W3C//DTD SVG 1.1//EN"
 "http://www.w3.org/Graphics/SVG/1.1/DTD/svg11.dtd">
<!-- Generated by graphviz version 8.0.2 (20230410.1723)
 -->
<!-- Title: SCR_CampaignMapInfoDisplay Pages: 1 -->
<svg width="160pt" height="357pt"
 viewBox="0.00 0.00 160.00 357.00" xmlns="http://www.w3.org/2000/svg" xmlns:xlink="http://www.w3.org/1999/xlink">
<g id="graph0" class="graph" transform="scale(1 1) rotate(0) translate(4 353)">
<title>SCR_CampaignMapInfoDisplay</title>
<!-- Node1 -->
<g id="node1" class="node">
<title>Node1</title>
<g id="a_node1"><a xlink:title=" ">
<polygon fill="#999999" stroke="#666666" points="152,-19 0,-19 0,0 152,0 152,-19"/>
<text text-anchor="middle" x="76" y="-7" font-family="Helvetica,sans-Serif" font-size="10.00">SCR_CampaignMapInfoDisplay</text>
</a>
</g>
</g>
<!-- Node2 -->
<g id="node2" class="node">
<title>Node2</title>
<g id="a_node2"><a xlink:href="interfaceSCR__CampaignInfoDisplay.html" target="_top" xlink:title=" ">
<polygon fill="white" stroke="#666666" points="142.5,-74 9.5,-74 9.5,-55 142.5,-55 142.5,-74"/>
<text text-anchor="middle" x="76" y="-62" font-family="Helvetica,sans-Serif" font-size="10.00">SCR_CampaignInfoDisplay</text>
</a>
</g>
</g>
<!-- Node2&#45;&gt;Node1 -->
<g id="edge1" class="edge">
<title>Node2&#45;&gt;Node1</title>
<path fill="none" stroke="#63b8ff" d="M76,-43.93C76,-35.53 76,-26.13 76,-19.44"/>
<polygon fill="#63b8ff" stroke="#63b8ff" points="72.5,-43.75 76,-53.75 79.5,-43.75 72.5,-43.75"/>
</g>
<!-- Node3 -->
<g id="node3" class="node">
<title>Node3</title>
<g id="a_node3"><a xlink:href="interfaceSCR__InfoDisplayExtended.html" target="_top" xlink:title=" ">
<polygon fill="white" stroke="#666666" points="141.5,-129 10.5,-129 10.5,-110 141.5,-110 141.5,-129"/>
<text text-anchor="middle" x="76" y="-117" font-family="Helvetica,sans-Serif" font-size="10.00">SCR_InfoDisplayExtended</text>
</a>
</g>
</g>
<!-- Node3&#45;&gt;Node2 -->
<g id="edge2" class="edge">
<title>Node3&#45;&gt;Node2</title>
<path fill="none" stroke="#63b8ff" d="M76,-98.93C76,-90.53 76,-81.13 76,-74.44"/>
<polygon fill="#63b8ff" stroke="#63b8ff" points="72.5,-98.75 76,-108.75 79.5,-98.75 72.5,-98.75"/>
</g>
<!-- Node4 -->
<g id="node4" class="node">
<title>Node4</title>
<g id="a_node4"><a xlink:href="interfaceSCR__InfoDisplay.html" target="_top" xlink:title=" ">
<polygon fill="white" stroke="#666666" points="120.5,-184 31.5,-184 31.5,-165 120.5,-165 120.5,-184"/>
<text text-anchor="middle" x="76" y="-172" font-family="Helvetica,sans-Serif" font-size="10.00">SCR_InfoDisplay</text>
</a>
</g>
</g>
<!-- Node4&#45;&gt;Node3 -->
<g id="edge3" class="edge">
<title>Node4&#45;&gt;Node3</title>
<path fill="none" stroke="#63b8ff" d="M76,-153.93C76,-145.53 76,-136.13 76,-129.44"/>
<polygon fill="#63b8ff" stroke="#63b8ff" points="72.5,-153.75 76,-163.75 79.5,-153.75 72.5,-153.75"/>
</g>
<!-- Node5 -->
<g id="node5" class="node">
<title>Node5</title>
<g id="a_node5"><a xlink:href="interfaceGroupInfoDisplay.html" target="_top" xlink:title=" ">
<polygon fill="white" stroke="#666666" points="121,-239 31,-239 31,-220 121,-220 121,-239"/>
<text text-anchor="middle" x="76" y="-227" font-family="Helvetica,sans-Serif" font-size="10.00">GroupInfoDisplay</text>
</a>
</g>
</g>
<!-- Node5&#45;&gt;Node4 -->
<g id="edge4" class="edge">
<title>Node5&#45;&gt;Node4</title>
<path fill="none" stroke="#63b8ff" d="M76,-208.93C76,-200.53 76,-191.13 76,-184.44"/>
<polygon fill="#63b8ff" stroke="#63b8ff" points="72.5,-208.75 76,-218.75 79.5,-208.75 72.5,-208.75"/>
</g>
<!-- Node6 -->
<g id="node6" class="node">
<title>Node6</title>
<g id="a_node6"><a xlink:href="interfaceBaseInfoDisplay.html" target="_top" xlink:title=" ">
<polygon fill="white" stroke="#666666" points="119,-294 33,-294 33,-275 119,-275 119,-294"/>
<text text-anchor="middle" x="76" y="-282" font-family="Helvetica,sans-Serif" font-size="10.00">BaseInfoDisplay</text>
</a>
</g>
</g>
<!-- Node6&#45;&gt;Node5 -->
<g id="edge5" class="edge">
<title>Node6&#45;&gt;Node5</title>
<path fill="none" stroke="#63b8ff" d="M76,-263.93C76,-255.53 76,-246.13 76,-239.44"/>
<polygon fill="#63b8ff" stroke="#63b8ff" points="72.5,-263.75 76,-273.75 79.5,-263.75 72.5,-263.75"/>
</g>
<!-- Node7 -->
<g id="node7" class="node">
<title>Node7</title>
<g id="a_node7"><a xlink:title=" ">
<polygon fill="white" stroke="#666666" points="119,-349 33,-349 33,-330 119,-330 119,-349"/>
<text text-anchor="middle" x="76" y="-337" font-family="Helvetica,sans-Serif" font-size="10.00">ScriptAndConfig</text>
</a>
</g>
</g>
<!-- Node7&#45;&gt;Node6 -->
<g id="edge6" class="edge">
<title>Node7&#45;&gt;Node6</title>
<path fill="none" stroke="#63b8ff" d="M76,-318.93C76,-310.53 76,-301.13 76,-294.44"/>
<polygon fill="#63b8ff" stroke="#63b8ff" points="72.5,-318.75 76,-328.75 79.5,-318.75 72.5,-318.75"/>
</g>
</g>
</svg>
