<?xml version="1.0" encoding="UTF-8" standalone="no"?>
<!DOCTYPE svg PUBLIC "-//W3C//DTD SVG 1.1//EN"
 "http://www.w3.org/Graphics/SVG/1.1/DTD/svg11.dtd">
<!-- Generated by graphviz version 8.0.2 (20230410.1723)
 -->
<!-- Title: SCR_AIInfoReaction Pages: 1 -->
<svg width="252pt" height="182pt"
 viewBox="0.00 0.00 252.00 182.00" xmlns="http://www.w3.org/2000/svg" xmlns:xlink="http://www.w3.org/1999/xlink">
<g id="graph0" class="graph" transform="scale(1 1) rotate(0) translate(4 178)">
<title>SCR_AIInfoReaction</title>
<!-- Node1 -->
<g id="node1" class="node">
<title>Node1</title>
<g id="a_node1"><a xlink:title=" ">
<polygon fill="#999999" stroke="#666666" points="104,-96.5 0,-96.5 0,-77.5 104,-77.5 104,-96.5"/>
<text text-anchor="middle" x="52" y="-84.5" font-family="Helvetica,sans-Serif" font-size="10.00">SCR_AIInfoReaction</text>
</a>
</g>
</g>
<!-- Node2 -->
<g id="node2" class="node">
<title>Node2</title>
<g id="a_node2"><a xlink:href="interfaceSCR__AIInfoReaction__FoundCorpse.html" target="_top" xlink:title=" ">
<polygon fill="white" stroke="#666666" points="244,-174 140,-174 140,-144 244,-144 244,-174"/>
<text text-anchor="start" x="148" y="-162" font-family="Helvetica,sans-Serif" font-size="10.00">SCR_AIInfoReaction</text>
<text text-anchor="middle" x="192" y="-151" font-family="Helvetica,sans-Serif" font-size="10.00">_FoundCorpse</text>
</a>
</g>
</g>
<!-- Node1&#45;&gt;Node2 -->
<g id="edge1" class="edge">
<title>Node1&#45;&gt;Node2</title>
<path fill="none" stroke="#63b8ff" d="M79.51,-102.21C96.63,-111.88 119.45,-124.51 140,-135 145.58,-137.85 151.55,-140.77 157.38,-143.56"/>
<polygon fill="#63b8ff" stroke="#63b8ff" points="81.58,-98.79 71.16,-96.89 78.12,-104.88 81.58,-98.79"/>
</g>
<!-- Node3 -->
<g id="node3" class="node">
<title>Node3</title>
<g id="a_node3"><a xlink:href="interfaceSCR__AIInfoReaction__NoAmmo.html" target="_top" xlink:title=" ">
<polygon fill="white" stroke="#666666" points="244,-126 140,-126 140,-96 244,-96 244,-126"/>
<text text-anchor="start" x="148" y="-114" font-family="Helvetica,sans-Serif" font-size="10.00">SCR_AIInfoReaction</text>
<text text-anchor="middle" x="192" y="-103" font-family="Helvetica,sans-Serif" font-size="10.00">_NoAmmo</text>
</a>
</g>
</g>
<!-- Node1&#45;&gt;Node3 -->
<g id="edge2" class="edge">
<title>Node1&#45;&gt;Node3</title>
<path fill="none" stroke="#63b8ff" d="M115.05,-97.79C123.25,-99.22 131.58,-100.67 139.57,-102.06"/>
<polygon fill="#63b8ff" stroke="#63b8ff" points="115.84,-94.2 105.39,-95.94 114.64,-101.1 115.84,-94.2"/>
</g>
<!-- Node4 -->
<g id="node4" class="node">
<title>Node4</title>
<g id="a_node4"><a xlink:href="interfaceSCR__AIInfoReaction__UnderFire.html" target="_top" xlink:title=" ">
<polygon fill="white" stroke="#666666" points="244,-78 140,-78 140,-48 244,-48 244,-78"/>
<text text-anchor="start" x="148" y="-66" font-family="Helvetica,sans-Serif" font-size="10.00">SCR_AIInfoReaction</text>
<text text-anchor="middle" x="192" y="-55" font-family="Helvetica,sans-Serif" font-size="10.00">_UnderFire</text>
</a>
</g>
</g>
<!-- Node1&#45;&gt;Node4 -->
<g id="edge3" class="edge">
<title>Node1&#45;&gt;Node4</title>
<path fill="none" stroke="#63b8ff" d="M115.05,-76.21C123.25,-74.78 131.58,-73.33 139.57,-71.94"/>
<polygon fill="#63b8ff" stroke="#63b8ff" points="114.64,-72.9 105.39,-78.06 115.84,-79.8 114.64,-72.9"/>
</g>
<!-- Node5 -->
<g id="node5" class="node">
<title>Node5</title>
<g id="a_node5"><a xlink:href="interfaceSCR__AIInfoReaction__Wounded.html" target="_top" xlink:title=" ">
<polygon fill="white" stroke="#666666" points="244,-30 140,-30 140,0 244,0 244,-30"/>
<text text-anchor="start" x="148" y="-18" font-family="Helvetica,sans-Serif" font-size="10.00">SCR_AIInfoReaction</text>
<text text-anchor="middle" x="192" y="-7" font-family="Helvetica,sans-Serif" font-size="10.00">_Wounded</text>
</a>
</g>
</g>
<!-- Node1&#45;&gt;Node5 -->
<g id="edge4" class="edge">
<title>Node1&#45;&gt;Node5</title>
<path fill="none" stroke="#63b8ff" d="M79.51,-71.79C96.63,-62.12 119.45,-49.49 140,-39 145.58,-36.15 151.55,-33.23 157.38,-30.44"/>
<polygon fill="#63b8ff" stroke="#63b8ff" points="78.12,-69.12 71.16,-77.11 81.58,-75.21 78.12,-69.12"/>
</g>
</g>
</svg>
