<?xml version="1.0" encoding="UTF-8" standalone="no"?>
<!DOCTYPE svg PUBLIC "-//W3C//DTD SVG 1.1//EN"
 "http://www.w3.org/Graphics/SVG/1.1/DTD/svg11.dtd">
<!-- Generated by graphviz version 8.0.2 (20230410.1723)
 -->
<!-- Title: SCR_VotingEditorIn Pages: 1 -->
<svg width="274pt" height="192pt"
 viewBox="0.00 0.00 273.50 192.00" xmlns="http://www.w3.org/2000/svg" xmlns:xlink="http://www.w3.org/1999/xlink">
<g id="graph0" class="graph" transform="scale(1 1) rotate(0) translate(4 188)">
<title>SCR_VotingEditorIn</title>
<!-- Node1 -->
<g id="node1" class="node">
<title>Node1</title>
<g id="a_node1"><a xlink:title=" ">
<polygon fill="#999999" stroke="#666666" points="178,-74 75,-74 75,-55 178,-55 178,-74"/>
<text text-anchor="middle" x="126.5" y="-62" font-family="Helvetica,sans-Serif" font-size="10.00">SCR_VotingEditorIn</text>
</a>
</g>
</g>
<!-- Node4 -->
<g id="node4" class="node">
<title>Node4</title>
<g id="a_node4"><a xlink:href="interfaceSCR__VotingEditorOut.html" target="_top" xlink:title=" ">
<polygon fill="white" stroke="#666666" points="111,-19 0,-19 0,0 111,0 111,-19"/>
<text text-anchor="middle" x="55.5" y="-7" font-family="Helvetica,sans-Serif" font-size="10.00">SCR_VotingEditorOut</text>
</a>
</g>
</g>
<!-- Node1&#45;&gt;Node4 -->
<g id="edge3" class="edge">
<title>Node1&#45;&gt;Node4</title>
<path fill="none" stroke="#63b8ff" d="M105.99,-48.19C93.46,-38.84 77.88,-27.21 67.37,-19.36"/>
<polygon fill="#63b8ff" stroke="#63b8ff" points="103.35,-51.33 113.46,-54.51 107.54,-45.72 103.35,-51.33"/>
</g>
<!-- Node5 -->
<g id="node5" class="node">
<title>Node5</title>
<g id="a_node5"><a xlink:href="interfaceSCR__VotingEditorWithdraw.html" target="_top" xlink:title=" ">
<polygon fill="white" stroke="#666666" points="265.5,-19 129.5,-19 129.5,0 265.5,0 265.5,-19"/>
<text text-anchor="middle" x="197.5" y="-7" font-family="Helvetica,sans-Serif" font-size="10.00">SCR_VotingEditorWithdraw</text>
</a>
</g>
</g>
<!-- Node1&#45;&gt;Node5 -->
<g id="edge4" class="edge">
<title>Node1&#45;&gt;Node5</title>
<path fill="none" stroke="#63b8ff" d="M147.01,-48.19C159.54,-38.84 175.12,-27.21 185.63,-19.36"/>
<polygon fill="#63b8ff" stroke="#63b8ff" points="145.46,-45.72 139.54,-54.51 149.65,-51.33 145.46,-45.72"/>
</g>
<!-- Node2 -->
<g id="node2" class="node">
<title>Node2</title>
<g id="a_node2"><a xlink:href="interfaceSCR__VotingReferendum.html" target="_top" xlink:title="Referendum about specific outcome.">
<polygon fill="white" stroke="#666666" points="187.5,-129 65.5,-129 65.5,-110 187.5,-110 187.5,-129"/>
<text text-anchor="middle" x="126.5" y="-117" font-family="Helvetica,sans-Serif" font-size="10.00">SCR_VotingReferendum</text>
</a>
</g>
</g>
<!-- Node2&#45;&gt;Node1 -->
<g id="edge1" class="edge">
<title>Node2&#45;&gt;Node1</title>
<path fill="none" stroke="#63b8ff" d="M126.5,-98.93C126.5,-90.53 126.5,-81.13 126.5,-74.44"/>
<polygon fill="#63b8ff" stroke="#63b8ff" points="123,-98.75 126.5,-108.75 130,-98.75 123,-98.75"/>
</g>
<!-- Node3 -->
<g id="node3" class="node">
<title>Node3</title>
<g id="a_node3"><a xlink:href="interfaceSCR__VotingBase.html" target="_top" xlink:title="Base class for voting types.">
<polygon fill="white" stroke="#666666" points="172.5,-184 80.5,-184 80.5,-165 172.5,-165 172.5,-184"/>
<text text-anchor="middle" x="126.5" y="-172" font-family="Helvetica,sans-Serif" font-size="10.00">SCR_VotingBase</text>
</a>
</g>
</g>
<!-- Node3&#45;&gt;Node2 -->
<g id="edge2" class="edge">
<title>Node3&#45;&gt;Node2</title>
<path fill="none" stroke="#63b8ff" d="M126.5,-153.93C126.5,-145.53 126.5,-136.13 126.5,-129.44"/>
<polygon fill="#63b8ff" stroke="#63b8ff" points="123,-153.75 126.5,-163.75 130,-153.75 123,-153.75"/>
</g>
</g>
</svg>
