<?xml version="1.0" encoding="UTF-8" standalone="no"?>
<!DOCTYPE svg PUBLIC "-//W3C//DTD SVG 1.1//EN"
 "http://www.w3.org/Graphics/SVG/1.1/DTD/svg11.dtd">
<!-- Generated by graphviz version 8.0.2 (20230410.1723)
 -->
<!-- Title: SCR_2DOpticsComponentClass Pages: 1 -->
<svg width="165pt" height="423pt"
 viewBox="0.00 0.00 165.00 423.00" xmlns="http://www.w3.org/2000/svg" xmlns:xlink="http://www.w3.org/1999/xlink">
<g id="graph0" class="graph" transform="scale(1 1) rotate(0) translate(4 419)">
<title>SCR_2DOpticsComponentClass</title>
<!-- Node1 -->
<g id="node1" class="node">
<title>Node1</title>
<g id="a_node1"><a xlink:title=" ">
<polygon fill="#999999" stroke="#666666" points="157,-140 0,-140 0,-121 157,-121 157,-140"/>
<text text-anchor="middle" x="78.5" y="-128" font-family="Helvetica,sans-Serif" font-size="10.00">SCR_2DOpticsComponentClass</text>
</a>
</g>
</g>
<!-- Node7 -->
<g id="node7" class="node">
<title>Node7</title>
<g id="a_node7"><a xlink:href="interfaceSCR__2DSightsComponentClass.html" target="_top" xlink:title=" ">
<polygon fill="white" stroke="#666666" points="156.5,-85 0.5,-85 0.5,-66 156.5,-66 156.5,-85"/>
<text text-anchor="middle" x="78.5" y="-73" font-family="Helvetica,sans-Serif" font-size="10.00">SCR_2DSightsComponentClass</text>
</a>
</g>
</g>
<!-- Node1&#45;&gt;Node7 -->
<g id="edge6" class="edge">
<title>Node1&#45;&gt;Node7</title>
<path fill="none" stroke="#63b8ff" d="M78.5,-109.93C78.5,-101.53 78.5,-92.13 78.5,-85.44"/>
<polygon fill="#63b8ff" stroke="#63b8ff" points="75,-109.75 78.5,-119.75 82,-109.75 75,-109.75"/>
</g>
<!-- Node2 -->
<g id="node2" class="node">
<title>Node2</title>
<g id="a_node2"><a xlink:href="interfaceScriptedSightsComponentClass.html" target="_top" xlink:title=" ">
<polygon fill="white" stroke="#666666" points="156,-195 1,-195 1,-176 156,-176 156,-195"/>
<text text-anchor="middle" x="78.5" y="-183" font-family="Helvetica,sans-Serif" font-size="10.00">ScriptedSightsComponentClass</text>
</a>
</g>
</g>
<!-- Node2&#45;&gt;Node1 -->
<g id="edge1" class="edge">
<title>Node2&#45;&gt;Node1</title>
<path fill="none" stroke="#63b8ff" d="M78.5,-164.93C78.5,-156.53 78.5,-147.13 78.5,-140.44"/>
<polygon fill="#63b8ff" stroke="#63b8ff" points="75,-164.75 78.5,-174.75 82,-164.75 75,-164.75"/>
</g>
<!-- Node3 -->
<g id="node3" class="node">
<title>Node3</title>
<g id="a_node3"><a xlink:href="interfaceSightsComponentClass.html" target="_top" xlink:title=" ">
<polygon fill="white" stroke="#666666" points="138,-250 19,-250 19,-231 138,-231 138,-250"/>
<text text-anchor="middle" x="78.5" y="-238" font-family="Helvetica,sans-Serif" font-size="10.00">SightsComponentClass</text>
</a>
</g>
</g>
<!-- Node3&#45;&gt;Node2 -->
<g id="edge2" class="edge">
<title>Node3&#45;&gt;Node2</title>
<path fill="none" stroke="#63b8ff" d="M78.5,-219.93C78.5,-211.53 78.5,-202.13 78.5,-195.44"/>
<polygon fill="#63b8ff" stroke="#63b8ff" points="75,-219.75 78.5,-229.75 82,-219.75 75,-219.75"/>
</g>
<!-- Node4 -->
<g id="node4" class="node">
<title>Node4</title>
<g id="a_node4"><a xlink:href="interfaceBaseSightsComponentClass.html" target="_top" xlink:title=" ">
<polygon fill="white" stroke="#666666" points="149,-305 8,-305 8,-286 149,-286 149,-305"/>
<text text-anchor="middle" x="78.5" y="-293" font-family="Helvetica,sans-Serif" font-size="10.00">BaseSightsComponentClass</text>
</a>
</g>
</g>
<!-- Node4&#45;&gt;Node3 -->
<g id="edge3" class="edge">
<title>Node4&#45;&gt;Node3</title>
<path fill="none" stroke="#63b8ff" d="M78.5,-274.93C78.5,-266.53 78.5,-257.13 78.5,-250.44"/>
<polygon fill="#63b8ff" stroke="#63b8ff" points="75,-274.75 78.5,-284.75 82,-274.75 75,-274.75"/>
</g>
<!-- Node5 -->
<g id="node5" class="node">
<title>Node5</title>
<g id="a_node5"><a xlink:href="interfaceGameComponentClass.html" target="_top" xlink:title=" ">
<polygon fill="white" stroke="#666666" points="137,-360 20,-360 20,-341 137,-341 137,-360"/>
<text text-anchor="middle" x="78.5" y="-348" font-family="Helvetica,sans-Serif" font-size="10.00">GameComponentClass</text>
</a>
</g>
</g>
<!-- Node5&#45;&gt;Node4 -->
<g id="edge4" class="edge">
<title>Node5&#45;&gt;Node4</title>
<path fill="none" stroke="#63b8ff" d="M78.5,-329.93C78.5,-321.53 78.5,-312.13 78.5,-305.44"/>
<polygon fill="#63b8ff" stroke="#63b8ff" points="75,-329.75 78.5,-339.75 82,-329.75 75,-329.75"/>
</g>
<!-- Node6 -->
<g id="node6" class="node">
<title>Node6</title>
<g id="a_node6"><a xlink:title=" ">
<polygon fill="white" stroke="#666666" points="141,-415 16,-415 16,-396 141,-396 141,-415"/>
<text text-anchor="middle" x="78.5" y="-403" font-family="Helvetica,sans-Serif" font-size="10.00">GenericComponentClass</text>
</a>
</g>
</g>
<!-- Node6&#45;&gt;Node5 -->
<g id="edge5" class="edge">
<title>Node6&#45;&gt;Node5</title>
<path fill="none" stroke="#63b8ff" d="M78.5,-384.93C78.5,-376.53 78.5,-367.13 78.5,-360.44"/>
<polygon fill="#63b8ff" stroke="#63b8ff" points="75,-384.75 78.5,-394.75 82,-384.75 75,-384.75"/>
</g>
<!-- Node8 -->
<g id="node8" class="node">
<title>Node8</title>
<g id="a_node8"><a xlink:href="interfaceSCR__2DPIPSightsComponentClass.html" target="_top" xlink:title=" ">
<polygon fill="white" stroke="#666666" points="152,-30 5,-30 5,0 152,0 152,-30"/>
<text text-anchor="start" x="13" y="-18" font-family="Helvetica,sans-Serif" font-size="10.00">SCR_2DPIPSightsComponent</text>
<text text-anchor="middle" x="78.5" y="-7" font-family="Helvetica,sans-Serif" font-size="10.00">Class</text>
</a>
</g>
</g>
<!-- Node7&#45;&gt;Node8 -->
<g id="edge7" class="edge">
<title>Node7&#45;&gt;Node8</title>
<path fill="none" stroke="#63b8ff" d="M78.5,-55.08C78.5,-46.92 78.5,-37.6 78.5,-30.11"/>
<polygon fill="#63b8ff" stroke="#63b8ff" points="75,-54.87 78.5,-64.87 82,-54.87 75,-54.87"/>
</g>
</g>
</svg>
