<?xml version="1.0" encoding="UTF-8" standalone="no"?>
<!DOCTYPE svg PUBLIC "-//W3C//DTD SVG 1.1//EN"
 "http://www.w3.org/Graphics/SVG/1.1/DTD/svg11.dtd">
<!-- Generated by graphviz version 8.0.2 (20230410.1723)
 -->
<!-- Title: SCR_GroupButton Pages: 1 -->
<svg width="166pt" height="357pt"
 viewBox="0.00 0.00 166.00 357.00" xmlns="http://www.w3.org/2000/svg" xmlns:xlink="http://www.w3.org/1999/xlink">
<g id="graph0" class="graph" transform="scale(1 1) rotate(0) translate(4 353)">
<title>SCR_GroupButton</title>
<!-- Node1 -->
<g id="node1" class="node">
<title>Node1</title>
<g id="a_node1"><a xlink:title="Component attached to the group button.">
<polygon fill="#999999" stroke="#666666" points="127.5,-19 30.5,-19 30.5,0 127.5,0 127.5,-19"/>
<text text-anchor="middle" x="79" y="-7" font-family="Helvetica,sans-Serif" font-size="10.00">SCR_GroupButton</text>
</a>
</g>
</g>
<!-- Node2 -->
<g id="node2" class="node">
<title>Node2</title>
<g id="a_node2"><a xlink:href="interfaceSCR__DeployButtonBase.html" target="_top" xlink:title=" ">
<polygon fill="white" stroke="#666666" points="140.5,-74 17.5,-74 17.5,-55 140.5,-55 140.5,-74"/>
<text text-anchor="middle" x="79" y="-62" font-family="Helvetica,sans-Serif" font-size="10.00">SCR_DeployButtonBase</text>
</a>
</g>
</g>
<!-- Node2&#45;&gt;Node1 -->
<g id="edge1" class="edge">
<title>Node2&#45;&gt;Node1</title>
<path fill="none" stroke="#63b8ff" d="M79,-43.93C79,-35.53 79,-26.13 79,-19.44"/>
<polygon fill="#63b8ff" stroke="#63b8ff" points="75.5,-43.75 79,-53.75 82.5,-43.75 75.5,-43.75"/>
</g>
<!-- Node3 -->
<g id="node3" class="node">
<title>Node3</title>
<g id="a_node3"><a xlink:href="interfaceSCR__ButtonImageComponent.html" target="_top" xlink:title=" ">
<polygon fill="white" stroke="#666666" points="152,-129 6,-129 6,-110 152,-110 152,-129"/>
<text text-anchor="middle" x="79" y="-117" font-family="Helvetica,sans-Serif" font-size="10.00">SCR_ButtonImageComponent</text>
</a>
</g>
</g>
<!-- Node3&#45;&gt;Node2 -->
<g id="edge2" class="edge">
<title>Node3&#45;&gt;Node2</title>
<path fill="none" stroke="#63b8ff" d="M79,-98.93C79,-90.53 79,-81.13 79,-74.44"/>
<polygon fill="#63b8ff" stroke="#63b8ff" points="75.5,-98.75 79,-108.75 82.5,-98.75 75.5,-98.75"/>
</g>
<!-- Node4 -->
<g id="node4" class="node">
<title>Node4</title>
<g id="a_node4"><a xlink:href="interfaceSCR__ButtonBaseComponent.html" target="_top" xlink:title="Base class for any button, regardless its own content.">
<polygon fill="white" stroke="#666666" points="150.5,-184 7.5,-184 7.5,-165 150.5,-165 150.5,-184"/>
<text text-anchor="middle" x="79" y="-172" font-family="Helvetica,sans-Serif" font-size="10.00">SCR_ButtonBaseComponent</text>
</a>
</g>
</g>
<!-- Node4&#45;&gt;Node3 -->
<g id="edge3" class="edge">
<title>Node4&#45;&gt;Node3</title>
<path fill="none" stroke="#63b8ff" d="M79,-153.93C79,-145.53 79,-136.13 79,-129.44"/>
<polygon fill="#63b8ff" stroke="#63b8ff" points="75.5,-153.75 79,-163.75 82.5,-153.75 75.5,-153.75"/>
</g>
<!-- Node5 -->
<g id="node5" class="node">
<title>Node5</title>
<g id="a_node5"><a xlink:href="interfaceSCR__WLibComponentBase.html" target="_top" xlink:title="Base class for all final Reforger interactive elements.">
<polygon fill="white" stroke="#666666" points="147.5,-239 10.5,-239 10.5,-220 147.5,-220 147.5,-239"/>
<text text-anchor="middle" x="79" y="-227" font-family="Helvetica,sans-Serif" font-size="10.00">SCR_WLibComponentBase</text>
</a>
</g>
</g>
<!-- Node5&#45;&gt;Node4 -->
<g id="edge4" class="edge">
<title>Node5&#45;&gt;Node4</title>
<path fill="none" stroke="#63b8ff" d="M79,-208.93C79,-200.53 79,-191.13 79,-184.44"/>
<polygon fill="#63b8ff" stroke="#63b8ff" points="75.5,-208.75 79,-218.75 82.5,-208.75 75.5,-208.75"/>
</g>
<!-- Node6 -->
<g id="node6" class="node">
<title>Node6</title>
<g id="a_node6"><a xlink:href="interfaceSCR__ScriptedWidgetComponent.html" target="_top" xlink:title=" ">
<polygon fill="white" stroke="#666666" points="158,-294 0,-294 0,-275 158,-275 158,-294"/>
<text text-anchor="middle" x="79" y="-282" font-family="Helvetica,sans-Serif" font-size="10.00">SCR_ScriptedWidgetComponent</text>
</a>
</g>
</g>
<!-- Node6&#45;&gt;Node5 -->
<g id="edge5" class="edge">
<title>Node6&#45;&gt;Node5</title>
<path fill="none" stroke="#63b8ff" d="M79,-263.93C79,-255.53 79,-246.13 79,-239.44"/>
<polygon fill="#63b8ff" stroke="#63b8ff" points="75.5,-263.75 79,-273.75 82.5,-263.75 75.5,-263.75"/>
</g>
<!-- Node7 -->
<g id="node7" class="node">
<title>Node7</title>
<g id="a_node7"><a xlink:title=" ">
<polygon fill="white" stroke="#666666" points="145.5,-349 12.5,-349 12.5,-330 145.5,-330 145.5,-349"/>
<text text-anchor="middle" x="79" y="-337" font-family="Helvetica,sans-Serif" font-size="10.00">ScriptedWidgetComponent</text>
</a>
</g>
</g>
<!-- Node7&#45;&gt;Node6 -->
<g id="edge6" class="edge">
<title>Node7&#45;&gt;Node6</title>
<path fill="none" stroke="#63b8ff" d="M79,-318.93C79,-310.53 79,-301.13 79,-294.44"/>
<polygon fill="#63b8ff" stroke="#63b8ff" points="75.5,-318.75 79,-328.75 82.5,-318.75 75.5,-318.75"/>
</g>
</g>
</svg>
