<?xml version="1.0" encoding="UTF-8" standalone="no"?>
<!DOCTYPE svg PUBLIC "-//W3C//DTD SVG 1.1//EN"
 "http://www.w3.org/Graphics/SVG/1.1/DTD/svg11.dtd">
<!-- Generated by graphviz version 8.0.2 (20230410.1723)
 -->
<!-- Title: SCR_AISuppressionVolumeClusterBox Pages: 1 -->
<svg width="194pt" height="192pt"
 viewBox="0.00 0.00 194.00 192.00" xmlns="http://www.w3.org/2000/svg" xmlns:xlink="http://www.w3.org/1999/xlink">
<g id="graph0" class="graph" transform="scale(1 1) rotate(0) translate(4 188)">
<title>SCR_AISuppressionVolumeClusterBox</title>
<!-- Node1 -->
<g id="node1" class="node">
<title>Node1</title>
<g id="a_node1"><a xlink:title=" ">
<polygon fill="#999999" stroke="#666666" points="186,-19 0,-19 0,0 186,0 186,-19"/>
<text text-anchor="middle" x="93" y="-7" font-family="Helvetica,sans-Serif" font-size="10.00">SCR_AISuppressionVolumeClusterBox</text>
</a>
</g>
</g>
<!-- Node2 -->
<g id="node2" class="node">
<title>Node2</title>
<g id="a_node2"><a xlink:href="interfaceSCR__AISuppressionObjectVolumeBox.html" target="_top" xlink:title=" ">
<polygon fill="white" stroke="#666666" points="185,-74 1,-74 1,-55 185,-55 185,-74"/>
<text text-anchor="middle" x="93" y="-62" font-family="Helvetica,sans-Serif" font-size="10.00">SCR_AISuppressionObjectVolumeBox</text>
</a>
</g>
</g>
<!-- Node2&#45;&gt;Node1 -->
<g id="edge1" class="edge">
<title>Node2&#45;&gt;Node1</title>
<path fill="none" stroke="#63b8ff" d="M93,-43.93C93,-35.53 93,-26.13 93,-19.44"/>
<polygon fill="#63b8ff" stroke="#63b8ff" points="89.5,-43.75 93,-53.75 96.5,-43.75 89.5,-43.75"/>
</g>
<!-- Node3 -->
<g id="node3" class="node">
<title>Node3</title>
<g id="a_node3"><a xlink:href="interfaceSCR__AISuppressionVolumeBox.html" target="_top" xlink:title=" ">
<polygon fill="white" stroke="#666666" points="170.5,-129 15.5,-129 15.5,-110 170.5,-110 170.5,-129"/>
<text text-anchor="middle" x="93" y="-117" font-family="Helvetica,sans-Serif" font-size="10.00">SCR_AISuppressionVolumeBox</text>
</a>
</g>
</g>
<!-- Node3&#45;&gt;Node2 -->
<g id="edge2" class="edge">
<title>Node3&#45;&gt;Node2</title>
<path fill="none" stroke="#63b8ff" d="M93,-98.93C93,-90.53 93,-81.13 93,-74.44"/>
<polygon fill="#63b8ff" stroke="#63b8ff" points="89.5,-98.75 93,-108.75 96.5,-98.75 89.5,-98.75"/>
</g>
<!-- Node4 -->
<g id="node4" class="node">
<title>Node4</title>
<g id="a_node4"><a xlink:href="interfaceSCR__AISuppressionVolumeBase.html" target="_top" xlink:title=" ">
<polygon fill="white" stroke="#666666" points="173.5,-184 12.5,-184 12.5,-165 173.5,-165 173.5,-184"/>
<text text-anchor="middle" x="93" y="-172" font-family="Helvetica,sans-Serif" font-size="10.00">SCR_AISuppressionVolumeBase</text>
</a>
</g>
</g>
<!-- Node4&#45;&gt;Node3 -->
<g id="edge3" class="edge">
<title>Node4&#45;&gt;Node3</title>
<path fill="none" stroke="#63b8ff" d="M93,-153.93C93,-145.53 93,-136.13 93,-129.44"/>
<polygon fill="#63b8ff" stroke="#63b8ff" points="89.5,-153.75 93,-163.75 96.5,-153.75 89.5,-153.75"/>
</g>
</g>
</svg>
