<?xml version="1.0" encoding="UTF-8" standalone="no"?>
<!DOCTYPE svg PUBLIC "-//W3C//DTD SVG 1.1//EN"
 "http://www.w3.org/Graphics/SVG/1.1/DTD/svg11.dtd">
<!-- Generated by graphviz version 8.0.2 (20230410.1723)
 -->
<!-- Title: SCR_BaseScoringSystemComponent Pages: 1 -->
<svg width="189pt" height="192pt"
 viewBox="0.00 0.00 189.00 192.00" xmlns="http://www.w3.org/2000/svg" xmlns:xlink="http://www.w3.org/1999/xlink">
<g id="graph0" class="graph" transform="scale(1 1) rotate(0) translate(4 188)">
<title>SCR_BaseScoringSystemComponent</title>
<!-- Node1 -->
<g id="node1" class="node">
<title>Node1</title>
<g id="a_node1"><a xlink:title="This component serves as a base and interface for game mode scoring system.">
<polygon fill="#999999" stroke="#666666" points="181,-74 0,-74 0,-55 181,-55 181,-74"/>
<text text-anchor="middle" x="90.5" y="-62" font-family="Helvetica,sans-Serif" font-size="10.00">SCR_BaseScoringSystemComponent</text>
</a>
</g>
</g>
<!-- Node4 -->
<g id="node4" class="node">
<title>Node4</title>
<g id="a_node4"><a xlink:href="interfaceSCR__ScoringSystemComponent.html" target="_top" xlink:title="This component implements logic of handling certain score limits.">
<polygon fill="white" stroke="#666666" points="169.5,-19 11.5,-19 11.5,0 169.5,0 169.5,-19"/>
<text text-anchor="middle" x="90.5" y="-7" font-family="Helvetica,sans-Serif" font-size="10.00">SCR_ScoringSystemComponent</text>
</a>
</g>
</g>
<!-- Node1&#45;&gt;Node4 -->
<g id="edge3" class="edge">
<title>Node1&#45;&gt;Node4</title>
<path fill="none" stroke="#63b8ff" d="M90.5,-43.93C90.5,-35.53 90.5,-26.13 90.5,-19.44"/>
<polygon fill="#63b8ff" stroke="#63b8ff" points="87,-43.75 90.5,-53.75 94,-43.75 87,-43.75"/>
</g>
<!-- Node2 -->
<g id="node2" class="node">
<title>Node2</title>
<g id="a_node2"><a xlink:href="interfaceSCR__BaseGameModeComponent.html" target="_top" xlink:title="Interface for game mode extending components.">
<polygon fill="white" stroke="#666666" points="172.5,-129 8.5,-129 8.5,-110 172.5,-110 172.5,-129"/>
<text text-anchor="middle" x="90.5" y="-117" font-family="Helvetica,sans-Serif" font-size="10.00">SCR_BaseGameModeComponent</text>
</a>
</g>
</g>
<!-- Node2&#45;&gt;Node1 -->
<g id="edge1" class="edge">
<title>Node2&#45;&gt;Node1</title>
<path fill="none" stroke="#63b8ff" d="M90.5,-98.93C90.5,-90.53 90.5,-81.13 90.5,-74.44"/>
<polygon fill="#63b8ff" stroke="#63b8ff" points="87,-98.75 90.5,-108.75 94,-98.75 87,-98.75"/>
</g>
<!-- Node3 -->
<g id="node3" class="node">
<title>Node3</title>
<g id="a_node3"><a xlink:title=" ">
<polygon fill="white" stroke="#666666" points="136.5,-184 44.5,-184 44.5,-165 136.5,-165 136.5,-184"/>
<text text-anchor="middle" x="90.5" y="-172" font-family="Helvetica,sans-Serif" font-size="10.00">ScriptComponent</text>
</a>
</g>
</g>
<!-- Node3&#45;&gt;Node2 -->
<g id="edge2" class="edge">
<title>Node3&#45;&gt;Node2</title>
<path fill="none" stroke="#63b8ff" d="M90.5,-153.93C90.5,-145.53 90.5,-136.13 90.5,-129.44"/>
<polygon fill="#63b8ff" stroke="#63b8ff" points="87,-153.75 90.5,-163.75 94,-153.75 87,-153.75"/>
</g>
</g>
</svg>
