<?xml version="1.0" encoding="UTF-8" standalone="no"?>
<!DOCTYPE svg PUBLIC "-//W3C//DTD SVG 1.1//EN"
 "http://www.w3.org/Graphics/SVG/1.1/DTD/svg11.dtd">
<!-- Generated by graphviz version 8.0.2 (20230410.1723)
 -->
<!-- Title: SCR_TreePartV2 Pages: 1 -->
<svg width="102pt" height="192pt"
 viewBox="0.00 0.00 102.00 192.00" xmlns="http://www.w3.org/2000/svg" xmlns:xlink="http://www.w3.org/1999/xlink">
<g id="graph0" class="graph" transform="scale(1 1) rotate(0) translate(4 188)">
<title>SCR_TreePartV2</title>
<!-- Node1 -->
<g id="node1" class="node">
<title>Node1</title>
<g id="a_node1"><a xlink:title=" ">
<polygon fill="#999999" stroke="#666666" points="92.5,-19 1.5,-19 1.5,0 92.5,0 92.5,-19"/>
<text text-anchor="middle" x="47" y="-7" font-family="Helvetica,sans-Serif" font-size="10.00">SCR_TreePartV2</text>
</a>
</g>
</g>
<!-- Node2 -->
<g id="node2" class="node">
<title>Node2</title>
<g id="a_node2"><a xlink:href="interfaceTree.html" target="_top" xlink:title=" ">
<polygon fill="white" stroke="#666666" points="64.5,-74 29.5,-74 29.5,-55 64.5,-55 64.5,-74"/>
<text text-anchor="middle" x="47" y="-62" font-family="Helvetica,sans-Serif" font-size="10.00">Tree</text>
</a>
</g>
</g>
<!-- Node2&#45;&gt;Node1 -->
<g id="edge1" class="edge">
<title>Node2&#45;&gt;Node1</title>
<path fill="none" stroke="#63b8ff" d="M47,-43.93C47,-35.53 47,-26.13 47,-19.44"/>
<polygon fill="#63b8ff" stroke="#63b8ff" points="43.5,-43.75 47,-53.75 50.5,-43.75 43.5,-43.75"/>
</g>
<!-- Node3 -->
<g id="node3" class="node">
<title>Node3</title>
<g id="a_node3"><a xlink:href="interfaceBaseTree.html" target="_top" xlink:title=" ">
<polygon fill="white" stroke="#666666" points="76,-129 18,-129 18,-110 76,-110 76,-129"/>
<text text-anchor="middle" x="47" y="-117" font-family="Helvetica,sans-Serif" font-size="10.00">BaseTree</text>
</a>
</g>
</g>
<!-- Node3&#45;&gt;Node2 -->
<g id="edge2" class="edge">
<title>Node3&#45;&gt;Node2</title>
<path fill="none" stroke="#63b8ff" d="M47,-98.93C47,-90.53 47,-81.13 47,-74.44"/>
<polygon fill="#63b8ff" stroke="#63b8ff" points="43.5,-98.75 47,-108.75 50.5,-98.75 43.5,-98.75"/>
</g>
<!-- Node4 -->
<g id="node4" class="node">
<title>Node4</title>
<g id="a_node4"><a xlink:title=" ">
<polygon fill="white" stroke="#666666" points="94,-184 0,-184 0,-165 94,-165 94,-184"/>
<text text-anchor="middle" x="47" y="-172" font-family="Helvetica,sans-Serif" font-size="10.00">StaticModelEntity</text>
</a>
</g>
</g>
<!-- Node4&#45;&gt;Node3 -->
<g id="edge3" class="edge">
<title>Node4&#45;&gt;Node3</title>
<path fill="none" stroke="#63b8ff" d="M47,-153.93C47,-145.53 47,-136.13 47,-129.44"/>
<polygon fill="#63b8ff" stroke="#63b8ff" points="43.5,-153.75 47,-163.75 50.5,-153.75 43.5,-153.75"/>
</g>
</g>
</svg>
