<?xml version="1.0" encoding="UTF-8" standalone="no"?>
<!DOCTYPE svg PUBLIC "-//W3C//DTD SVG 1.1//EN"
 "http://www.w3.org/Graphics/SVG/1.1/DTD/svg11.dtd">
<!-- Generated by graphviz version 8.0.2 (20230410.1723)
 -->
<!-- Title: AABGridMap Pages: 1 -->
<svg width="84pt" height="137pt"
 viewBox="0.00 0.00 84.00 137.00" xmlns="http://www.w3.org/2000/svg" xmlns:xlink="http://www.w3.org/1999/xlink">
<g id="graph0" class="graph" transform="scale(1 1) rotate(0) translate(4 133)">
<title>AABGridMap</title>
<!-- Node1 -->
<g id="node1" class="node">
<title>Node1</title>
<g id="a_node1"><a xlink:title="Represent a grid map.">
<polygon fill="#999999" stroke="#666666" points="75,-19 1,-19 1,0 75,0 75,-19"/>
<text text-anchor="middle" x="38" y="-7" font-family="Helvetica,sans-Serif" font-size="10.00">AABGridMap</text>
</a>
</g>
</g>
<!-- Node2 -->
<g id="node2" class="node">
<title>Node2</title>
<g id="a_node2"><a xlink:href="interfaceBaseGridMap.html" target="_top" xlink:title="Represent a grid map.">
<polygon fill="white" stroke="#666666" points="76,-74 0,-74 0,-55 76,-55 76,-74"/>
<text text-anchor="middle" x="38" y="-62" font-family="Helvetica,sans-Serif" font-size="10.00">BaseGridMap</text>
</a>
</g>
</g>
<!-- Node2&#45;&gt;Node1 -->
<g id="edge1" class="edge">
<title>Node2&#45;&gt;Node1</title>
<path fill="none" stroke="#63b8ff" d="M38,-43.93C38,-35.53 38,-26.13 38,-19.44"/>
<polygon fill="#63b8ff" stroke="#63b8ff" points="34.5,-43.75 38,-53.75 41.5,-43.75 34.5,-43.75"/>
</g>
<!-- Node3 -->
<g id="node3" class="node">
<title>Node3</title>
<g id="a_node3"><a xlink:title=" ">
<polygon fill="white" stroke="#666666" points="66,-129 10,-129 10,-110 66,-110 66,-129"/>
<text text-anchor="middle" x="38" y="-117" font-family="Helvetica,sans-Serif" font-size="10.00">Managed</text>
</a>
</g>
</g>
<!-- Node3&#45;&gt;Node2 -->
<g id="edge2" class="edge">
<title>Node3&#45;&gt;Node2</title>
<path fill="none" stroke="#63b8ff" d="M38,-98.93C38,-90.53 38,-81.13 38,-74.44"/>
<polygon fill="#63b8ff" stroke="#63b8ff" points="34.5,-98.75 38,-108.75 41.5,-98.75 34.5,-98.75"/>
</g>
</g>
</svg>
