<?xml version="1.0" encoding="UTF-8" standalone="no"?>
<!DOCTYPE svg PUBLIC "-//W3C//DTD SVG 1.1//EN"
 "http://www.w3.org/Graphics/SVG/1.1/DTD/svg11.dtd">
<!-- Generated by graphviz version 8.0.2 (20230410.1723)
 -->
<!-- Title: SCR_ScenarioFrameworkAIAction Pages: 1 -->
<svg width="374pt" height="566pt"
 viewBox="0.00 0.00 374.00 566.00" xmlns="http://www.w3.org/2000/svg" xmlns:xlink="http://www.w3.org/1999/xlink">
<g id="graph0" class="graph" transform="scale(1 1) rotate(0) translate(4 562)">
<title>SCR_ScenarioFrameworkAIAction</title>
<!-- Node1 -->
<g id="node1" class="node">
<title>Node1</title>
<g id="a_node1"><a xlink:title=" ">
<polygon fill="#999999" stroke="#666666" points="165,-288.5 0,-288.5 0,-269.5 165,-269.5 165,-288.5"/>
<text text-anchor="middle" x="82.5" y="-276.5" font-family="Helvetica,sans-Serif" font-size="10.00">SCR_ScenarioFrameworkAIAction</text>
</a>
</g>
</g>
<!-- Node2 -->
<g id="node2" class="node">
<title>Node2</title>
<g id="a_node2"><a xlink:href="interfaceSCR__ScenarioFrameworkAIActionDisableLOD.html" target="_top" xlink:title=" ">
<polygon fill="white" stroke="#666666" points="366,-558 201,-558 201,-528 366,-528 366,-558"/>
<text text-anchor="start" x="209" y="-546" font-family="Helvetica,sans-Serif" font-size="10.00">SCR_ScenarioFrameworkAIAction</text>
<text text-anchor="middle" x="283.5" y="-535" font-family="Helvetica,sans-Serif" font-size="10.00">DisableLOD</text>
</a>
</g>
</g>
<!-- Node1&#45;&gt;Node2 -->
<g id="edge1" class="edge">
<title>Node1&#45;&gt;Node2</title>
<path fill="none" stroke="#63b8ff" d="M87.64,-299.46C98.09,-345.72 129.9,-459 201,-519 204.95,-522.33 209.34,-525.2 213.97,-527.67"/>
<polygon fill="#63b8ff" stroke="#63b8ff" points="90.91,-299.02 85.39,-289.98 84.07,-300.5 90.91,-299.02"/>
</g>
<!-- Node3 -->
<g id="node3" class="node">
<title>Node3</title>
<g id="a_node3"><a xlink:href="interfaceSCR__ScenarioFrameworkAIActionOnThreatStateChanged.html" target="_top" xlink:title=" ">
<polygon fill="white" stroke="#666666" points="366,-510 201,-510 201,-480 366,-480 366,-510"/>
<text text-anchor="start" x="209" y="-498" font-family="Helvetica,sans-Serif" font-size="10.00">SCR_ScenarioFrameworkAIAction</text>
<text text-anchor="middle" x="283.5" y="-487" font-family="Helvetica,sans-Serif" font-size="10.00">OnThreatStateChanged</text>
</a>
</g>
</g>
<!-- Node1&#45;&gt;Node3 -->
<g id="edge2" class="edge">
<title>Node1&#45;&gt;Node3</title>
<path fill="none" stroke="#63b8ff" d="M90.08,-298.75C104.09,-337.71 140.59,-424.69 201,-471 205.33,-474.32 210.11,-477.18 215.12,-479.65"/>
<polygon fill="#63b8ff" stroke="#63b8ff" points="93.18,-298 86.59,-289.7 86.57,-300.29 93.18,-298"/>
</g>
<!-- Node4 -->
<g id="node4" class="node">
<title>Node4</title>
<g id="a_node4"><a xlink:href="interfaceSCR__ScenarioFrameworkAIActionOnWaypointCompleted.html" target="_top" xlink:title=" ">
<polygon fill="white" stroke="#666666" points="366,-462 201,-462 201,-432 366,-432 366,-462"/>
<text text-anchor="start" x="209" y="-450" font-family="Helvetica,sans-Serif" font-size="10.00">SCR_ScenarioFrameworkAIAction</text>
<text text-anchor="middle" x="283.5" y="-439" font-family="Helvetica,sans-Serif" font-size="10.00">OnWaypointCompleted</text>
</a>
</g>
</g>
<!-- Node1&#45;&gt;Node4 -->
<g id="edge3" class="edge">
<title>Node1&#45;&gt;Node4</title>
<path fill="none" stroke="#63b8ff" d="M93.85,-297.97C111.64,-328.84 151.02,-389.79 201,-423 205.91,-426.26 211.28,-429.1 216.84,-431.55"/>
<polygon fill="#63b8ff" stroke="#63b8ff" points="96.61,-296.74 88.65,-289.75 90.51,-300.18 96.61,-296.74"/>
</g>
<!-- Node5 -->
<g id="node5" class="node">
<title>Node5</title>
<g id="a_node5"><a xlink:href="interfaceSCR__ScenarioFrameworkAIActionSetCharacterStance.html" target="_top" xlink:title=" ">
<polygon fill="white" stroke="#666666" points="366,-414 201,-414 201,-384 366,-384 366,-414"/>
<text text-anchor="start" x="209" y="-402" font-family="Helvetica,sans-Serif" font-size="10.00">SCR_ScenarioFrameworkAIAction</text>
<text text-anchor="middle" x="283.5" y="-391" font-family="Helvetica,sans-Serif" font-size="10.00">SetCharacterStance</text>
</a>
</g>
</g>
<!-- Node1&#45;&gt;Node5 -->
<g id="edge4" class="edge">
<title>Node1&#45;&gt;Node5</title>
<path fill="none" stroke="#63b8ff" d="M100.48,-296.67C122,-318.09 161.1,-353.94 201,-375 207.13,-378.24 213.76,-381.09 220.49,-383.6"/>
<polygon fill="#63b8ff" stroke="#63b8ff" points="103.4,-294.63 93.89,-289.97 98.42,-299.54 103.4,-294.63"/>
</g>
<!-- Node6 -->
<g id="node6" class="node">
<title>Node6</title>
<g id="a_node6"><a xlink:href="interfaceSCR__ScenarioFrameworkAIActionSetCombatType.html" target="_top" xlink:title=" ">
<polygon fill="white" stroke="#666666" points="366,-366 201,-366 201,-336 366,-336 366,-366"/>
<text text-anchor="start" x="209" y="-354" font-family="Helvetica,sans-Serif" font-size="10.00">SCR_ScenarioFrameworkAIAction</text>
<text text-anchor="middle" x="283.5" y="-343" font-family="Helvetica,sans-Serif" font-size="10.00">SetCombatType</text>
</a>
</g>
</g>
<!-- Node1&#45;&gt;Node6 -->
<g id="edge5" class="edge">
<title>Node1&#45;&gt;Node6</title>
<path fill="none" stroke="#63b8ff" d="M115.84,-293.25C139.25,-303.3 171.79,-316.76 201,-327 209.49,-329.98 218.56,-332.9 227.46,-335.62"/>
<polygon fill="#63b8ff" stroke="#63b8ff" points="117.33,-289.65 106.77,-288.89 114.55,-296.07 117.33,-289.65"/>
</g>
<!-- Node7 -->
<g id="node7" class="node">
<title>Node7</title>
<g id="a_node7"><a xlink:href="interfaceSCR__ScenarioFrameworkAIActionSetFormation.html" target="_top" xlink:title=" ">
<polygon fill="white" stroke="#666666" points="366,-318 201,-318 201,-288 366,-288 366,-318"/>
<text text-anchor="start" x="209" y="-306" font-family="Helvetica,sans-Serif" font-size="10.00">SCR_ScenarioFrameworkAIAction</text>
<text text-anchor="middle" x="283.5" y="-295" font-family="Helvetica,sans-Serif" font-size="10.00">SetFormation</text>
</a>
</g>
</g>
<!-- Node1&#45;&gt;Node7 -->
<g id="edge6" class="edge">
<title>Node1&#45;&gt;Node7</title>
<path fill="none" stroke="#63b8ff" d="M176.06,-290.16C184.28,-291.15 192.57,-292.15 200.69,-293.13"/>
<polygon fill="#63b8ff" stroke="#63b8ff" points="176.65,-286.59 166.3,-288.87 175.81,-293.54 176.65,-286.59"/>
</g>
<!-- Node8 -->
<g id="node8" class="node">
<title>Node8</title>
<g id="a_node8"><a xlink:href="interfaceSCR__ScenarioFrameworkAIActionSetHoldFire.html" target="_top" xlink:title=" ">
<polygon fill="white" stroke="#666666" points="366,-270 201,-270 201,-240 366,-240 366,-270"/>
<text text-anchor="start" x="209" y="-258" font-family="Helvetica,sans-Serif" font-size="10.00">SCR_ScenarioFrameworkAIAction</text>
<text text-anchor="middle" x="283.5" y="-247" font-family="Helvetica,sans-Serif" font-size="10.00">SetHoldFire</text>
</a>
</g>
</g>
<!-- Node1&#45;&gt;Node8 -->
<g id="edge7" class="edge">
<title>Node1&#45;&gt;Node8</title>
<path fill="none" stroke="#63b8ff" d="M176.06,-267.84C184.28,-266.85 192.57,-265.85 200.69,-264.87"/>
<polygon fill="#63b8ff" stroke="#63b8ff" points="175.81,-264.46 166.3,-269.13 176.65,-271.41 175.81,-264.46"/>
</g>
<!-- Node9 -->
<g id="node9" class="node">
<title>Node9</title>
<g id="a_node9"><a xlink:href="interfaceSCR__ScenarioFrameworkAIActionSetMaxAutonomousDistance.html" target="_top" xlink:title=" ">
<polygon fill="white" stroke="#666666" points="366,-222 201,-222 201,-192 366,-192 366,-222"/>
<text text-anchor="start" x="209" y="-210" font-family="Helvetica,sans-Serif" font-size="10.00">SCR_ScenarioFrameworkAIAction</text>
<text text-anchor="middle" x="283.5" y="-199" font-family="Helvetica,sans-Serif" font-size="10.00">SetMaxAutonomousDistance</text>
</a>
</g>
</g>
<!-- Node1&#45;&gt;Node9 -->
<g id="edge8" class="edge">
<title>Node1&#45;&gt;Node9</title>
<path fill="none" stroke="#63b8ff" d="M115.84,-264.75C139.25,-254.7 171.79,-241.24 201,-231 209.49,-228.02 218.56,-225.1 227.46,-222.38"/>
<polygon fill="#63b8ff" stroke="#63b8ff" points="114.55,-261.93 106.77,-269.11 117.33,-268.35 114.55,-261.93"/>
</g>
<!-- Node10 -->
<g id="node10" class="node">
<title>Node10</title>
<g id="a_node10"><a xlink:href="interfaceSCR__ScenarioFrameworkAIActionSetMovementType.html" target="_top" xlink:title=" ">
<polygon fill="white" stroke="#666666" points="366,-174 201,-174 201,-144 366,-144 366,-174"/>
<text text-anchor="start" x="209" y="-162" font-family="Helvetica,sans-Serif" font-size="10.00">SCR_ScenarioFrameworkAIAction</text>
<text text-anchor="middle" x="283.5" y="-151" font-family="Helvetica,sans-Serif" font-size="10.00">SetMovementType</text>
</a>
</g>
</g>
<!-- Node1&#45;&gt;Node10 -->
<g id="edge9" class="edge">
<title>Node1&#45;&gt;Node10</title>
<path fill="none" stroke="#63b8ff" d="M100.48,-261.33C122,-239.91 161.1,-204.06 201,-183 207.13,-179.76 213.76,-176.91 220.49,-174.4"/>
<polygon fill="#63b8ff" stroke="#63b8ff" points="98.42,-258.46 93.89,-268.03 103.4,-263.37 98.42,-258.46"/>
</g>
<!-- Node11 -->
<g id="node11" class="node">
<title>Node11</title>
<g id="a_node11"><a xlink:href="interfaceSCR__ScenarioFrameworkAIActionSetPerceptionFactor.html" target="_top" xlink:title=" ">
<polygon fill="white" stroke="#666666" points="366,-126 201,-126 201,-96 366,-96 366,-126"/>
<text text-anchor="start" x="209" y="-114" font-family="Helvetica,sans-Serif" font-size="10.00">SCR_ScenarioFrameworkAIAction</text>
<text text-anchor="middle" x="283.5" y="-103" font-family="Helvetica,sans-Serif" font-size="10.00">SetPerceptionFactor</text>
</a>
</g>
</g>
<!-- Node1&#45;&gt;Node11 -->
<g id="edge10" class="edge">
<title>Node1&#45;&gt;Node11</title>
<path fill="none" stroke="#63b8ff" d="M93.85,-260.03C111.64,-229.16 151.02,-168.21 201,-135 205.91,-131.74 211.28,-128.9 216.84,-126.45"/>
<polygon fill="#63b8ff" stroke="#63b8ff" points="90.51,-257.82 88.65,-268.25 96.61,-261.26 90.51,-257.82"/>
</g>
<!-- Node12 -->
<g id="node12" class="node">
<title>Node12</title>
<g id="a_node12"><a xlink:href="interfaceSCR__ScenarioFrameworkAIActionSetSkill.html" target="_top" xlink:title=" ">
<polygon fill="white" stroke="#666666" points="366,-78 201,-78 201,-48 366,-48 366,-78"/>
<text text-anchor="start" x="209" y="-66" font-family="Helvetica,sans-Serif" font-size="10.00">SCR_ScenarioFrameworkAIAction</text>
<text text-anchor="middle" x="283.5" y="-55" font-family="Helvetica,sans-Serif" font-size="10.00">SetSkill</text>
</a>
</g>
</g>
<!-- Node1&#45;&gt;Node12 -->
<g id="edge11" class="edge">
<title>Node1&#45;&gt;Node12</title>
<path fill="none" stroke="#63b8ff" d="M90.08,-259.25C104.09,-220.29 140.59,-133.31 201,-87 205.33,-83.68 210.11,-80.82 215.12,-78.35"/>
<polygon fill="#63b8ff" stroke="#63b8ff" points="86.57,-257.71 86.59,-268.3 93.18,-260 86.57,-257.71"/>
</g>
<!-- Node13 -->
<g id="node13" class="node">
<title>Node13</title>
<g id="a_node13"><a xlink:href="interfaceSCR__ScenarioFrameworkAIAddWaypoint.html" target="_top" xlink:title=" ">
<polygon fill="white" stroke="#666666" points="361,-30 206,-30 206,0 361,0 361,-30"/>
<text text-anchor="start" x="214" y="-18" font-family="Helvetica,sans-Serif" font-size="10.00">SCR_ScenarioFrameworkAIAdd</text>
<text text-anchor="middle" x="283.5" y="-7" font-family="Helvetica,sans-Serif" font-size="10.00">Waypoint</text>
</a>
</g>
</g>
<!-- Node1&#45;&gt;Node13 -->
<g id="edge12" class="edge">
<title>Node1&#45;&gt;Node13</title>
<path fill="none" stroke="#63b8ff" d="M87.64,-258.54C98.09,-212.28 129.9,-99 201,-39 204.95,-35.67 209.34,-32.8 213.97,-30.33"/>
<polygon fill="#63b8ff" stroke="#63b8ff" points="84.07,-257.5 85.39,-268.02 90.91,-258.98 84.07,-257.5"/>
</g>
</g>
</svg>
