<?xml version="1.0" encoding="UTF-8" standalone="no"?>
<!DOCTYPE svg PUBLIC "-//W3C//DTD SVG 1.1//EN"
 "http://www.w3.org/Graphics/SVG/1.1/DTD/svg11.dtd">
<!-- Generated by graphviz version 8.0.2 (20230410.1723)
 -->
<!-- Title: SCR_BaseToolbarItemEditorUIComponent Pages: 1 -->
<svg width="690pt" height="134pt"
 viewBox="0.00 0.00 690.00 134.00" xmlns="http://www.w3.org/2000/svg" xmlns:xlink="http://www.w3.org/1999/xlink">
<g id="graph0" class="graph" transform="scale(1 1) rotate(0) translate(4 130)">
<title>SCR_BaseToolbarItemEditorUIComponent</title>
<!-- Node1 -->
<g id="node1" class="node">
<title>Node1</title>
<g id="a_node1"><a xlink:title=" ">
<polygon fill="#999999" stroke="#666666" points="309,-102 169,-102 169,-72 309,-72 309,-102"/>
<text text-anchor="start" x="177" y="-90" font-family="Helvetica,sans-Serif" font-size="10.00">SCR_BaseToolbarItemEditor</text>
<text text-anchor="middle" x="239" y="-79" font-family="Helvetica,sans-Serif" font-size="10.00">UIComponent</text>
</a>
</g>
</g>
<!-- Node3 -->
<g id="node3" class="node">
<title>Node3</title>
<g id="a_node3"><a xlink:href="interfaceSCR__ActionToolbarItemEditorUIComponent.html" target="_top" xlink:title=" ">
<polygon fill="white" stroke="#666666" points="491,-126 345,-126 345,-96 491,-96 491,-126"/>
<text text-anchor="start" x="353" y="-114" font-family="Helvetica,sans-Serif" font-size="10.00">SCR_ActionToolbarItemEditor</text>
<text text-anchor="middle" x="418" y="-103" font-family="Helvetica,sans-Serif" font-size="10.00">UIComponent</text>
</a>
</g>
</g>
<!-- Node1&#45;&gt;Node3 -->
<g id="edge2" class="edge">
<title>Node1&#45;&gt;Node3</title>
<path fill="none" stroke="#63b8ff" d="M320.08,-97.86C328.24,-98.96 336.48,-100.08 344.55,-101.18"/>
<polygon fill="#63b8ff" stroke="#63b8ff" points="320.83,-94.29 310.45,-96.42 319.89,-101.23 320.83,-94.29"/>
</g>
<!-- Node4 -->
<g id="node4" class="node">
<title>Node4</title>
<g id="a_node4"><a xlink:href="interfaceSCR__EntityToolbarItemEditorUIComponent.html" target="_top" xlink:title=" ">
<polygon fill="white" stroke="#666666" points="489.5,-78 346.5,-78 346.5,-48 489.5,-48 489.5,-78"/>
<text text-anchor="start" x="354.5" y="-66" font-family="Helvetica,sans-Serif" font-size="10.00">SCR_EntityToolbarItemEditor</text>
<text text-anchor="middle" x="418" y="-55" font-family="Helvetica,sans-Serif" font-size="10.00">UIComponent</text>
</a>
</g>
</g>
<!-- Node1&#45;&gt;Node4 -->
<g id="edge3" class="edge">
<title>Node1&#45;&gt;Node4</title>
<path fill="none" stroke="#63b8ff" d="M320.25,-76.12C328.84,-74.95 337.53,-73.77 346.01,-72.63"/>
<polygon fill="#63b8ff" stroke="#63b8ff" points="319.89,-72.77 310.45,-77.58 320.83,-79.71 319.89,-72.77"/>
</g>
<!-- Node2 -->
<g id="node2" class="node">
<title>Node2</title>
<g id="a_node2"><a xlink:title=" ">
<polygon fill="white" stroke="#666666" points="133,-96.5 0,-96.5 0,-77.5 133,-77.5 133,-96.5"/>
<text text-anchor="middle" x="66.5" y="-84.5" font-family="Helvetica,sans-Serif" font-size="10.00">ScriptedWidgetComponent</text>
</a>
</g>
</g>
<!-- Node2&#45;&gt;Node1 -->
<g id="edge1" class="edge">
<title>Node2&#45;&gt;Node1</title>
<path fill="none" stroke="#63b8ff" d="M144.34,-87C152.42,-87 160.6,-87 168.59,-87"/>
<polygon fill="#63b8ff" stroke="#63b8ff" points="144.42,-83.5 134.42,-87 144.42,-90.5 144.42,-83.5"/>
</g>
<!-- Node5 -->
<g id="node5" class="node">
<title>Node5</title>
<g id="a_node5"><a xlink:href="interfaceSCR__FactionsToolbarItemEditorUIComponent.html" target="_top" xlink:title=" ">
<polygon fill="white" stroke="#666666" points="682,-126 527,-126 527,-96 682,-96 682,-126"/>
<text text-anchor="start" x="535" y="-114" font-family="Helvetica,sans-Serif" font-size="10.00">SCR_FactionsToolbarItemEditor</text>
<text text-anchor="middle" x="604.5" y="-103" font-family="Helvetica,sans-Serif" font-size="10.00">UIComponent</text>
</a>
</g>
</g>
<!-- Node4&#45;&gt;Node5 -->
<g id="edge4" class="edge">
<title>Node4&#45;&gt;Node5</title>
<path fill="none" stroke="#63b8ff" d="M488.95,-81.2C507.17,-85.94 526.61,-91 544.22,-95.58"/>
<polygon fill="#63b8ff" stroke="#63b8ff" points="489.95,-77.58 479.39,-78.45 488.19,-84.36 489.95,-77.58"/>
</g>
<!-- Node6 -->
<g id="node6" class="node">
<title>Node6</title>
<g id="a_node6"><a xlink:href="interfaceSCR__GroupToolbarItemEditorUIComponent.html" target="_top" xlink:title=" ">
<polygon fill="white" stroke="#666666" points="676.5,-78 532.5,-78 532.5,-48 676.5,-48 676.5,-78"/>
<text text-anchor="start" x="540.5" y="-66" font-family="Helvetica,sans-Serif" font-size="10.00">SCR_GroupToolbarItemEditor</text>
<text text-anchor="middle" x="604.5" y="-55" font-family="Helvetica,sans-Serif" font-size="10.00">UIComponent</text>
</a>
</g>
</g>
<!-- Node4&#45;&gt;Node6 -->
<g id="edge5" class="edge">
<title>Node4&#45;&gt;Node6</title>
<path fill="none" stroke="#63b8ff" d="M500.69,-63C511.22,-63 521.93,-63 532.27,-63"/>
<polygon fill="#63b8ff" stroke="#63b8ff" points="500.8,-59.5 490.8,-63 500.8,-66.5 500.8,-59.5"/>
</g>
<!-- Node7 -->
<g id="node7" class="node">
<title>Node7</title>
<g id="a_node7"><a xlink:href="interfaceSCR__PlayerToolbarItemEditorUIComponent.html" target="_top" xlink:title=" ">
<polygon fill="white" stroke="#666666" points="677.5,-30 531.5,-30 531.5,0 677.5,0 677.5,-30"/>
<text text-anchor="start" x="539.5" y="-18" font-family="Helvetica,sans-Serif" font-size="10.00">SCR_PlayerToolbarItemEditor</text>
<text text-anchor="middle" x="604.5" y="-7" font-family="Helvetica,sans-Serif" font-size="10.00">UIComponent</text>
</a>
</g>
</g>
<!-- Node4&#45;&gt;Node7 -->
<g id="edge6" class="edge">
<title>Node4&#45;&gt;Node7</title>
<path fill="none" stroke="#63b8ff" d="M488.95,-44.8C507.17,-40.06 526.61,-35 544.22,-30.42"/>
<polygon fill="#63b8ff" stroke="#63b8ff" points="488.19,-41.64 479.39,-47.55 489.95,-48.42 488.19,-41.64"/>
</g>
</g>
</svg>
