<?xml version="1.0" encoding="UTF-8" standalone="no"?>
<!DOCTYPE svg PUBLIC "-//W3C//DTD SVG 1.1//EN"
 "http://www.w3.org/Graphics/SVG/1.1/DTD/svg11.dtd">
<!-- Generated by graphviz version 8.0.2 (20230410.1723)
 -->
<!-- Title: SCR_ScenarioFrameworkTaskExtractSupportEntityClass Pages: 1 -->
<svg width="157pt" height="225pt"
 viewBox="0.00 0.00 157.00 225.00" xmlns="http://www.w3.org/2000/svg" xmlns:xlink="http://www.w3.org/1999/xlink">
<g id="graph0" class="graph" transform="scale(1 1) rotate(0) translate(4 221)">
<title>SCR_ScenarioFrameworkTaskExtractSupportEntityClass</title>
<!-- Node1 -->
<g id="node1" class="node">
<title>Node1</title>
<g id="a_node1"><a xlink:title=" ">
<polygon fill="#999999" stroke="#666666" points="149,-30 0,-30 0,0 149,0 149,-30"/>
<text text-anchor="start" x="8" y="-18" font-family="Helvetica,sans-Serif" font-size="10.00">SCR_ScenarioFrameworkTask</text>
<text text-anchor="middle" x="74.5" y="-7" font-family="Helvetica,sans-Serif" font-size="10.00">ExtractSupportEntityClass</text>
</a>
</g>
</g>
<!-- Node2 -->
<g id="node2" class="node">
<title>Node2</title>
<g id="a_node2"><a xlink:href="interfaceSCR__ScenarioFrameworkTaskSupportEntityClass.html" target="_top" xlink:title=" ">
<polygon fill="white" stroke="#666666" points="149,-96 0,-96 0,-66 149,-66 149,-96"/>
<text text-anchor="start" x="8" y="-84" font-family="Helvetica,sans-Serif" font-size="10.00">SCR_ScenarioFrameworkTask</text>
<text text-anchor="middle" x="74.5" y="-73" font-family="Helvetica,sans-Serif" font-size="10.00">SupportEntityClass</text>
</a>
</g>
</g>
<!-- Node2&#45;&gt;Node1 -->
<g id="edge1" class="edge">
<title>Node2&#45;&gt;Node1</title>
<path fill="none" stroke="#63b8ff" d="M74.5,-54.97C74.5,-46.55 74.5,-37.45 74.5,-30.16"/>
<polygon fill="#63b8ff" stroke="#63b8ff" points="71,-54.8 74.5,-64.8 78,-54.8 71,-54.8"/>
</g>
<!-- Node3 -->
<g id="node3" class="node">
<title>Node3</title>
<g id="a_node3"><a xlink:href="interfaceSCR__BaseTaskSupportEntityClass.html" target="_top" xlink:title=" ">
<polygon fill="white" stroke="#666666" points="147,-162 2,-162 2,-132 147,-132 147,-162"/>
<text text-anchor="start" x="10" y="-150" font-family="Helvetica,sans-Serif" font-size="10.00">SCR_BaseTaskSupportEntity</text>
<text text-anchor="middle" x="74.5" y="-139" font-family="Helvetica,sans-Serif" font-size="10.00">Class</text>
</a>
</g>
</g>
<!-- Node3&#45;&gt;Node2 -->
<g id="edge2" class="edge">
<title>Node3&#45;&gt;Node2</title>
<path fill="none" stroke="#63b8ff" d="M74.5,-120.97C74.5,-112.55 74.5,-103.45 74.5,-96.16"/>
<polygon fill="#63b8ff" stroke="#63b8ff" points="71,-120.8 74.5,-130.8 78,-120.8 71,-120.8"/>
</g>
<!-- Node4 -->
<g id="node4" class="node">
<title>Node4</title>
<g id="a_node4"><a xlink:title=" ">
<polygon fill="white" stroke="#666666" points="125,-217 24,-217 24,-198 125,-198 125,-217"/>
<text text-anchor="middle" x="74.5" y="-205" font-family="Helvetica,sans-Serif" font-size="10.00">GenericEntityClass</text>
</a>
</g>
</g>
<!-- Node4&#45;&gt;Node3 -->
<g id="edge3" class="edge">
<title>Node4&#45;&gt;Node3</title>
<path fill="none" stroke="#63b8ff" d="M74.5,-187.08C74.5,-178.92 74.5,-169.6 74.5,-162.11"/>
<polygon fill="#63b8ff" stroke="#63b8ff" points="71,-186.87 74.5,-196.87 78,-186.87 71,-186.87"/>
</g>
</g>
</svg>
