<?xml version="1.0" encoding="UTF-8" standalone="no"?>
<!DOCTYPE svg PUBLIC "-//W3C//DTD SVG 1.1//EN"
 "http://www.w3.org/Graphics/SVG/1.1/DTD/svg11.dtd">
<!-- Generated by graphviz version 8.0.2 (20230410.1723)
 -->
<!-- Title: SCR_Faction_BIKI Pages: 1 -->
<svg width="106pt" height="247pt"
 viewBox="0.00 0.00 106.00 247.00" xmlns="http://www.w3.org/2000/svg" xmlns:xlink="http://www.w3.org/1999/xlink">
<g id="graph0" class="graph" transform="scale(1 1) rotate(0) translate(4 243)">
<title>SCR_Faction_BIKI</title>
<!-- Node1 -->
<g id="node1" class="node">
<title>Node1</title>
<g id="a_node1"><a xlink:title=" ">
<polygon fill="#999999" stroke="#666666" points="98,-19 0,-19 0,0 98,0 98,-19"/>
<text text-anchor="middle" x="49" y="-7" font-family="Helvetica,sans-Serif" font-size="10.00">SCR_Faction_BIKI</text>
</a>
</g>
</g>
<!-- Node2 -->
<g id="node2" class="node">
<title>Node2</title>
<g id="a_node2"><a xlink:href="interfaceSCR__Faction.html" target="_top" xlink:title=" ">
<polygon fill="white" stroke="#666666" points="86,-74 12,-74 12,-55 86,-55 86,-74"/>
<text text-anchor="middle" x="49" y="-62" font-family="Helvetica,sans-Serif" font-size="10.00">SCR_Faction</text>
</a>
</g>
</g>
<!-- Node2&#45;&gt;Node1 -->
<g id="edge1" class="edge">
<title>Node2&#45;&gt;Node1</title>
<path fill="none" stroke="#63b8ff" d="M49,-43.93C49,-35.53 49,-26.13 49,-19.44"/>
<polygon fill="#63b8ff" stroke="#63b8ff" points="45.5,-43.75 49,-53.75 52.5,-43.75 45.5,-43.75"/>
</g>
<!-- Node3 -->
<g id="node3" class="node">
<title>Node3</title>
<g id="a_node3"><a xlink:href="interfaceScriptedFaction.html" target="_top" xlink:title=" ">
<polygon fill="white" stroke="#666666" points="91.5,-129 6.5,-129 6.5,-110 91.5,-110 91.5,-129"/>
<text text-anchor="middle" x="49" y="-117" font-family="Helvetica,sans-Serif" font-size="10.00">ScriptedFaction</text>
</a>
</g>
</g>
<!-- Node3&#45;&gt;Node2 -->
<g id="edge2" class="edge">
<title>Node3&#45;&gt;Node2</title>
<path fill="none" stroke="#63b8ff" d="M49,-98.93C49,-90.53 49,-81.13 49,-74.44"/>
<polygon fill="#63b8ff" stroke="#63b8ff" points="45.5,-98.75 49,-108.75 52.5,-98.75 45.5,-98.75"/>
</g>
<!-- Node4 -->
<g id="node4" class="node">
<title>Node4</title>
<g id="a_node4"><a xlink:href="interfaceFaction.html" target="_top" xlink:title=" ">
<polygon fill="white" stroke="#666666" points="73.5,-184 24.5,-184 24.5,-165 73.5,-165 73.5,-184"/>
<text text-anchor="middle" x="49" y="-172" font-family="Helvetica,sans-Serif" font-size="10.00">Faction</text>
</a>
</g>
</g>
<!-- Node4&#45;&gt;Node3 -->
<g id="edge3" class="edge">
<title>Node4&#45;&gt;Node3</title>
<path fill="none" stroke="#63b8ff" d="M49,-153.93C49,-145.53 49,-136.13 49,-129.44"/>
<polygon fill="#63b8ff" stroke="#63b8ff" points="45.5,-153.75 49,-163.75 52.5,-153.75 45.5,-153.75"/>
</g>
<!-- Node5 -->
<g id="node5" class="node">
<title>Node5</title>
<g id="a_node5"><a xlink:title=" ">
<polygon fill="white" stroke="#666666" points="92,-239 6,-239 6,-220 92,-220 92,-239"/>
<text text-anchor="middle" x="49" y="-227" font-family="Helvetica,sans-Serif" font-size="10.00">ScriptAndConfig</text>
</a>
</g>
</g>
<!-- Node5&#45;&gt;Node4 -->
<g id="edge4" class="edge">
<title>Node5&#45;&gt;Node4</title>
<path fill="none" stroke="#63b8ff" d="M49,-208.93C49,-200.53 49,-191.13 49,-184.44"/>
<polygon fill="#63b8ff" stroke="#63b8ff" points="45.5,-208.75 49,-218.75 52.5,-208.75 45.5,-208.75"/>
</g>
</g>
</svg>
