<?xml version="1.0" encoding="UTF-8" standalone="no"?>
<!DOCTYPE svg PUBLIC "-//W3C//DTD SVG 1.1//EN"
 "http://www.w3.org/Graphics/SVG/1.1/DTD/svg11.dtd">
<!-- Generated by graphviz version 8.0.2 (20230410.1723)
 -->
<!-- Title: SCR_DSSessionCallback Pages: 1 -->
<svg width="376pt" height="137pt"
 viewBox="0.00 0.00 375.50 137.00" xmlns="http://www.w3.org/2000/svg" xmlns:xlink="http://www.w3.org/1999/xlink">
<g id="graph0" class="graph" transform="scale(1 1) rotate(0) translate(4 133)">
<title>SCR_DSSessionCallback</title>
<!-- Node1 -->
<g id="node1" class="node">
<title>Node1</title>
<g id="a_node1"><a xlink:title="Callback for easy handling of world saving and loading.">
<polygon fill="#999999" stroke="#666666" points="248,-74 120,-74 120,-55 248,-55 248,-74"/>
<text text-anchor="middle" x="184" y="-62" font-family="Helvetica,sans-Serif" font-size="10.00">SCR_DSSessionCallback</text>
</a>
</g>
</g>
<!-- Node3 -->
<g id="node3" class="node">
<title>Node3</title>
<g id="a_node3"><a xlink:href="interfaceSCR__DisposableDSSessionCallback.html" target="_top" xlink:title=" ">
<polygon fill="white" stroke="#666666" points="176,-19 0,-19 0,0 176,0 176,-19"/>
<text text-anchor="middle" x="88" y="-7" font-family="Helvetica,sans-Serif" font-size="10.00">SCR_DisposableDSSessionCallback</text>
</a>
</g>
</g>
<!-- Node1&#45;&gt;Node3 -->
<g id="edge2" class="edge">
<title>Node1&#45;&gt;Node3</title>
<path fill="none" stroke="#63b8ff" d="M158.22,-49.27C140.97,-39.74 118.81,-27.51 104.04,-19.36"/>
<polygon fill="#63b8ff" stroke="#63b8ff" points="156.27,-52.74 166.71,-54.51 159.65,-46.61 156.27,-52.74"/>
</g>
<!-- Node4 -->
<g id="node4" class="node">
<title>Node4</title>
<g id="a_node4"><a xlink:href="interfaceSCR__NumberedDSSessionCallback.html" target="_top" xlink:title=" ">
<polygon fill="white" stroke="#666666" points="367.5,-19 194.5,-19 194.5,0 367.5,0 367.5,-19"/>
<text text-anchor="middle" x="281" y="-7" font-family="Helvetica,sans-Serif" font-size="10.00">SCR_NumberedDSSessionCallback</text>
</a>
</g>
</g>
<!-- Node1&#45;&gt;Node4 -->
<g id="edge3" class="edge">
<title>Node1&#45;&gt;Node4</title>
<path fill="none" stroke="#63b8ff" d="M210.05,-49.27C227.48,-39.74 249.87,-27.51 264.79,-19.36"/>
<polygon fill="#63b8ff" stroke="#63b8ff" points="208.55,-46.64 201.45,-54.51 211.91,-52.79 208.55,-46.64"/>
</g>
<!-- Node2 -->
<g id="node2" class="node">
<title>Node2</title>
<g id="a_node2"><a xlink:title=" ">
<polygon fill="white" stroke="#666666" points="235.5,-129 132.5,-129 132.5,-110 235.5,-110 235.5,-129"/>
<text text-anchor="middle" x="184" y="-117" font-family="Helvetica,sans-Serif" font-size="10.00">DSSessionCallback</text>
</a>
</g>
</g>
<!-- Node2&#45;&gt;Node1 -->
<g id="edge1" class="edge">
<title>Node2&#45;&gt;Node1</title>
<path fill="none" stroke="#63b8ff" d="M184,-98.93C184,-90.53 184,-81.13 184,-74.44"/>
<polygon fill="#63b8ff" stroke="#63b8ff" points="180.5,-98.75 184,-108.75 187.5,-98.75 180.5,-98.75"/>
</g>
</g>
</svg>
