<?xml version="1.0" encoding="UTF-8" standalone="no"?>
<!DOCTYPE svg PUBLIC "-//W3C//DTD SVG 1.1//EN"
 "http://www.w3.org/Graphics/SVG/1.1/DTD/svg11.dtd">
<!-- Generated by graphviz version 8.0.2 (20230410.1723)
 -->
<!-- Title: SCR_GameGameModeStateComponent Pages: 1 -->
<svg width="199pt" height="192pt"
 viewBox="0.00 0.00 199.00 192.00" xmlns="http://www.w3.org/2000/svg" xmlns:xlink="http://www.w3.org/1999/xlink">
<g id="graph0" class="graph" transform="scale(1 1) rotate(0) translate(4 188)">
<title>SCR_GameGameModeStateComponent</title>
<!-- Node1 -->
<g id="node1" class="node">
<title>Node1</title>
<g id="a_node1"><a xlink:title=" ">
<polygon fill="#999999" stroke="#666666" points="191,-19 0,-19 0,0 191,0 191,-19"/>
<text text-anchor="middle" x="95.5" y="-7" font-family="Helvetica,sans-Serif" font-size="10.00">SCR_GameGameModeStateComponent</text>
</a>
</g>
</g>
<!-- Node2 -->
<g id="node2" class="node">
<title>Node2</title>
<g id="a_node2"><a xlink:href="interfaceSCR__BaseGameModeStateComponent.html" target="_top" xlink:title="Base component for handling game mode states.">
<polygon fill="white" stroke="#666666" points="189.5,-74 1.5,-74 1.5,-55 189.5,-55 189.5,-74"/>
<text text-anchor="middle" x="95.5" y="-62" font-family="Helvetica,sans-Serif" font-size="10.00">SCR_BaseGameModeStateComponent</text>
</a>
</g>
</g>
<!-- Node2&#45;&gt;Node1 -->
<g id="edge1" class="edge">
<title>Node2&#45;&gt;Node1</title>
<path fill="none" stroke="#63b8ff" d="M95.5,-43.93C95.5,-35.53 95.5,-26.13 95.5,-19.44"/>
<polygon fill="#63b8ff" stroke="#63b8ff" points="92,-43.75 95.5,-53.75 99,-43.75 92,-43.75"/>
</g>
<!-- Node3 -->
<g id="node3" class="node">
<title>Node3</title>
<g id="a_node3"><a xlink:href="interfaceSCR__BaseGameModeComponent.html" target="_top" xlink:title="Interface for game mode extending components.">
<polygon fill="white" stroke="#666666" points="177.5,-129 13.5,-129 13.5,-110 177.5,-110 177.5,-129"/>
<text text-anchor="middle" x="95.5" y="-117" font-family="Helvetica,sans-Serif" font-size="10.00">SCR_BaseGameModeComponent</text>
</a>
</g>
</g>
<!-- Node3&#45;&gt;Node2 -->
<g id="edge2" class="edge">
<title>Node3&#45;&gt;Node2</title>
<path fill="none" stroke="#63b8ff" d="M95.5,-98.93C95.5,-90.53 95.5,-81.13 95.5,-74.44"/>
<polygon fill="#63b8ff" stroke="#63b8ff" points="92,-98.75 95.5,-108.75 99,-98.75 92,-98.75"/>
</g>
<!-- Node4 -->
<g id="node4" class="node">
<title>Node4</title>
<g id="a_node4"><a xlink:title=" ">
<polygon fill="white" stroke="#666666" points="141.5,-184 49.5,-184 49.5,-165 141.5,-165 141.5,-184"/>
<text text-anchor="middle" x="95.5" y="-172" font-family="Helvetica,sans-Serif" font-size="10.00">ScriptComponent</text>
</a>
</g>
</g>
<!-- Node4&#45;&gt;Node3 -->
<g id="edge3" class="edge">
<title>Node4&#45;&gt;Node3</title>
<path fill="none" stroke="#63b8ff" d="M95.5,-153.93C95.5,-145.53 95.5,-136.13 95.5,-129.44"/>
<polygon fill="#63b8ff" stroke="#63b8ff" points="92,-153.75 95.5,-163.75 99,-153.75 92,-153.75"/>
</g>
</g>
</svg>
