<?xml version="1.0" encoding="UTF-8" standalone="no"?>
<!DOCTYPE svg PUBLIC "-//W3C//DTD SVG 1.1//EN"
 "http://www.w3.org/Graphics/SVG/1.1/DTD/svg11.dtd">
<!-- Generated by graphviz version 8.0.2 (20230410.1723)
 -->
<!-- Title: SCR_BaseAttributeDynamicDescription Pages: 1 -->
<svg width="528pt" height="470pt"
 viewBox="0.00 0.00 528.00 470.00" xmlns="http://www.w3.org/2000/svg" xmlns:xlink="http://www.w3.org/1999/xlink">
<g id="graph0" class="graph" transform="scale(1 1) rotate(0) translate(4 466)">
<title>SCR_BaseAttributeDynamicDescription</title>
<!-- Node1 -->
<g id="node1" class="node">
<title>Node1</title>
<g id="a_node1"><a xlink:title="Holds logic when a dynamic description should be shown when attributes are hovered over.">
<polygon fill="#999999" stroke="#666666" points="140,-246 0,-246 0,-216 140,-216 140,-246"/>
<text text-anchor="start" x="8" y="-234" font-family="Helvetica,sans-Serif" font-size="10.00">SCR_BaseAttributeDynamic</text>
<text text-anchor="middle" x="70" y="-223" font-family="Helvetica,sans-Serif" font-size="10.00">Description</text>
</a>
</g>
</g>
<!-- Node2 -->
<g id="node2" class="node">
<title>Node2</title>
<g id="a_node2"><a xlink:href="interfaceSCR__ArsenalSaveTypeAttributeDynamicDescription.html" target="_top" xlink:title="Dynamic description for arsenal save types. What they mean when they are set.">
<polygon fill="white" stroke="#666666" points="337,-462 183,-462 183,-432 337,-432 337,-462"/>
<text text-anchor="start" x="191" y="-450" font-family="Helvetica,sans-Serif" font-size="10.00">SCR_ArsenalSaveTypeAttribute</text>
<text text-anchor="middle" x="260" y="-439" font-family="Helvetica,sans-Serif" font-size="10.00">DynamicDescription</text>
</a>
</g>
</g>
<!-- Node1&#45;&gt;Node2 -->
<g id="edge1" class="edge">
<title>Node1&#45;&gt;Node2</title>
<path fill="none" stroke="#63b8ff" d="M78,-256.64C90.59,-297.91 121.02,-378.91 176,-423 180.1,-426.28 184.62,-429.12 189.39,-431.57"/>
<polygon fill="#63b8ff" stroke="#63b8ff" points="81.15,-255.96 74.98,-247.35 74.43,-257.93 81.15,-255.96"/>
</g>
<!-- Node3 -->
<g id="node3" class="node">
<title>Node3</title>
<g id="a_node3"><a xlink:href="interfaceSCR__BaseButtonAttributeDynamicDescription.html" target="_top" xlink:title="Holds logic when a dynamic description should be shown when attributes are hovered over.">
<polygon fill="white" stroke="#666666" points="344,-414 176,-414 176,-384 344,-384 344,-414"/>
<text text-anchor="start" x="184" y="-402" font-family="Helvetica,sans-Serif" font-size="10.00">SCR_BaseButtonAttributeDynamic</text>
<text text-anchor="middle" x="260" y="-391" font-family="Helvetica,sans-Serif" font-size="10.00">Description</text>
</a>
</g>
</g>
<!-- Node1&#45;&gt;Node3 -->
<g id="edge2" class="edge">
<title>Node1&#45;&gt;Node3</title>
<path fill="none" stroke="#63b8ff" d="M82.55,-255.76C98.85,-288.01 131.64,-343.92 176,-375 180.67,-378.27 185.78,-381.1 191.1,-383.54"/>
<polygon fill="#63b8ff" stroke="#63b8ff" points="85.39,-254.62 77.84,-247.19 79.11,-257.71 85.39,-254.62"/>
</g>
<!-- Node5 -->
<g id="node5" class="node">
<title>Node5</title>
<g id="a_node5"><a xlink:href="interfaceSCR__BasicDisabledAttributeDynamicDescription.html" target="_top" xlink:title="Shows the dynamic description if the attribute is disabled.">
<polygon fill="white" stroke="#666666" points="330.5,-366 189.5,-366 189.5,-336 330.5,-336 330.5,-366"/>
<text text-anchor="start" x="197.5" y="-354" font-family="Helvetica,sans-Serif" font-size="10.00">SCR_BasicDisabledAttribute</text>
<text text-anchor="middle" x="260" y="-343" font-family="Helvetica,sans-Serif" font-size="10.00">DynamicDescription</text>
</a>
</g>
</g>
<!-- Node1&#45;&gt;Node5 -->
<g id="edge4" class="edge">
<title>Node1&#45;&gt;Node5</title>
<path fill="none" stroke="#63b8ff" d="M90.74,-254.4C110.29,-276.17 142.15,-308.02 176,-327 181.76,-330.23 187.99,-333.06 194.36,-335.52"/>
<polygon fill="#63b8ff" stroke="#63b8ff" points="92.86,-252.51 83.62,-247.32 87.6,-257.14 92.86,-252.51"/>
</g>
<!-- Node6 -->
<g id="node6" class="node">
<title>Node6</title>
<g id="a_node6"><a xlink:href="interfaceSCR__BoolAttributeDynamicDescription.html" target="_top" xlink:title="Shows dynamic description if bool meets the condition.">
<polygon fill="white" stroke="#666666" points="328.5,-318 191.5,-318 191.5,-288 328.5,-288 328.5,-318"/>
<text text-anchor="start" x="199.5" y="-306" font-family="Helvetica,sans-Serif" font-size="10.00">SCR_BoolAttributeDynamic</text>
<text text-anchor="middle" x="260" y="-295" font-family="Helvetica,sans-Serif" font-size="10.00">Description</text>
</a>
</g>
</g>
<!-- Node1&#45;&gt;Node6 -->
<g id="edge5" class="edge">
<title>Node1&#45;&gt;Node6</title>
<path fill="none" stroke="#63b8ff" d="M110.97,-250.95C130.33,-260.18 154.08,-270.87 176,-279 184.16,-282.03 192.88,-284.91 201.49,-287.57"/>
<polygon fill="#63b8ff" stroke="#63b8ff" points="112.81,-247.47 102.28,-246.28 109.77,-253.78 112.81,-247.47"/>
</g>
<!-- Node7 -->
<g id="node7" class="node">
<title>Node7</title>
<g id="a_node7"><a xlink:href="interfaceSCR__CharacterBloodAttributeDynamicDescription.html" target="_top" xlink:title="Holds logic when a dynamic description to show a description if value is set above or below the Uncon...">
<polygon fill="white" stroke="#666666" points="333,-270 187,-270 187,-240 333,-240 333,-270"/>
<text text-anchor="start" x="195" y="-258" font-family="Helvetica,sans-Serif" font-size="10.00">SCR_CharacterBloodAttribute</text>
<text text-anchor="middle" x="260" y="-247" font-family="Helvetica,sans-Serif" font-size="10.00">DynamicDescription</text>
</a>
</g>
</g>
<!-- Node1&#45;&gt;Node7 -->
<g id="edge6" class="edge">
<title>Node1&#45;&gt;Node7</title>
<path fill="none" stroke="#63b8ff" d="M151.19,-241.24C162.97,-242.74 175.05,-244.28 186.67,-245.77"/>
<polygon fill="#63b8ff" stroke="#63b8ff" points="151.83,-237.66 141.47,-239.87 150.95,-244.61 151.83,-237.66"/>
</g>
<!-- Node8 -->
<g id="node8" class="node">
<title>Node8</title>
<g id="a_node8"><a xlink:href="interfaceSCR__DateAttributeDynamicDescription.html" target="_top" xlink:title="Dynamic description for SCR_DateEditorAttribute to show sunrise, sunset and moonphase.">
<polygon fill="white" stroke="#666666" points="328.5,-222 191.5,-222 191.5,-192 328.5,-192 328.5,-222"/>
<text text-anchor="start" x="199.5" y="-210" font-family="Helvetica,sans-Serif" font-size="10.00">SCR_DateAttributeDynamic</text>
<text text-anchor="middle" x="260" y="-199" font-family="Helvetica,sans-Serif" font-size="10.00">Description</text>
</a>
</g>
</g>
<!-- Node1&#45;&gt;Node8 -->
<g id="edge7" class="edge">
<title>Node1&#45;&gt;Node8</title>
<path fill="none" stroke="#63b8ff" d="M151.05,-220.78C164.38,-219.08 178.08,-217.33 191.07,-215.67"/>
<polygon fill="#63b8ff" stroke="#63b8ff" points="150.95,-217.39 141.47,-222.13 151.83,-224.34 150.95,-217.39"/>
</g>
<!-- Node9 -->
<g id="node9" class="node">
<title>Node9</title>
<g id="a_node9"><a xlink:href="interfaceSCR__DayDurationAttributeDynamicDescription.html" target="_top" xlink:title="Dynamic description for daytime duration to display to compare the ingame time with realife time.">
<polygon fill="white" stroke="#666666" points="326,-174 194,-174 194,-144 326,-144 326,-174"/>
<text text-anchor="start" x="202" y="-162" font-family="Helvetica,sans-Serif" font-size="10.00">SCR_DayDurationAttribute</text>
<text text-anchor="middle" x="260" y="-151" font-family="Helvetica,sans-Serif" font-size="10.00">DynamicDescription</text>
</a>
</g>
</g>
<!-- Node1&#45;&gt;Node9 -->
<g id="edge8" class="edge">
<title>Node1&#45;&gt;Node9</title>
<path fill="none" stroke="#63b8ff" d="M110.97,-211.05C130.33,-201.82 154.08,-191.13 176,-183 184.16,-179.97 192.88,-177.09 201.49,-174.43"/>
<polygon fill="#63b8ff" stroke="#63b8ff" points="109.77,-208.22 102.28,-215.72 112.81,-214.53 109.77,-208.22"/>
</g>
<!-- Node10 -->
<g id="node10" class="node">
<title>Node10</title>
<g id="a_node10"><a xlink:href="interfaceSCR__GameOverTypeAttributeDynamicDescription.html" target="_top" xlink:title="A description that shows extra information for the player regarding the selected gameover type.">
<polygon fill="white" stroke="#666666" points="333,-126 187,-126 187,-96 333,-96 333,-126"/>
<text text-anchor="start" x="195" y="-114" font-family="Helvetica,sans-Serif" font-size="10.00">SCR_GameOverTypeAttribute</text>
<text text-anchor="middle" x="260" y="-103" font-family="Helvetica,sans-Serif" font-size="10.00">DynamicDescription</text>
</a>
</g>
</g>
<!-- Node1&#45;&gt;Node10 -->
<g id="edge9" class="edge">
<title>Node1&#45;&gt;Node10</title>
<path fill="none" stroke="#63b8ff" d="M90.74,-207.6C110.29,-185.83 142.15,-153.98 176,-135 181.76,-131.77 187.99,-128.94 194.36,-126.48"/>
<polygon fill="#63b8ff" stroke="#63b8ff" points="87.6,-204.86 83.62,-214.68 92.86,-209.49 87.6,-204.86"/>
</g>
<!-- Node11 -->
<g id="node11" class="node">
<title>Node11</title>
<g id="a_node11"><a xlink:href="interfaceSCR__LoadoutSavingBlackListAttributeDynamicDescription.html" target="_top" xlink:title="Dynamic description for SCR_LoadoutSavingBlackListEditorAttribute to show when player saved loadouts ...">
<polygon fill="white" stroke="#666666" points="333,-78 187,-78 187,-48 333,-48 333,-78"/>
<text text-anchor="start" x="195" y="-66" font-family="Helvetica,sans-Serif" font-size="10.00">SCR_LoadoutSavingBlackList</text>
<text text-anchor="middle" x="260" y="-55" font-family="Helvetica,sans-Serif" font-size="10.00">AttributeDynamicDescription</text>
</a>
</g>
</g>
<!-- Node1&#45;&gt;Node11 -->
<g id="edge10" class="edge">
<title>Node1&#45;&gt;Node11</title>
<path fill="none" stroke="#63b8ff" d="M82.55,-206.24C98.85,-173.99 131.64,-118.08 176,-87 180.67,-83.73 185.78,-80.9 191.1,-78.46"/>
<polygon fill="#63b8ff" stroke="#63b8ff" points="79.11,-204.29 77.84,-214.81 85.39,-207.38 79.11,-204.29"/>
</g>
<!-- Node12 -->
<g id="node12" class="node">
<title>Node12</title>
<g id="a_node12"><a xlink:href="interfaceSCR__ValueAttributeDynamicDescription.html" target="_top" xlink:title="Shows dynamic description if value meets the condition.">
<polygon fill="white" stroke="#666666" points="331,-30 189,-30 189,0 331,0 331,-30"/>
<text text-anchor="start" x="197" y="-18" font-family="Helvetica,sans-Serif" font-size="10.00">SCR_ValueAttributeDynamic</text>
<text text-anchor="middle" x="260" y="-7" font-family="Helvetica,sans-Serif" font-size="10.00">Description</text>
</a>
</g>
</g>
<!-- Node1&#45;&gt;Node12 -->
<g id="edge11" class="edge">
<title>Node1&#45;&gt;Node12</title>
<path fill="none" stroke="#63b8ff" d="M78,-205.36C90.59,-164.09 121.02,-83.09 176,-39 180.1,-35.72 184.62,-32.88 189.39,-30.43"/>
<polygon fill="#63b8ff" stroke="#63b8ff" points="74.43,-204.07 74.98,-214.65 81.15,-206.04 74.43,-204.07"/>
</g>
<!-- Node4 -->
<g id="node4" class="node">
<title>Node4</title>
<g id="a_node4"><a xlink:href="interfaceSCR__PlayableFactionKillingAttributeDynamicDescription.html" target="_top" xlink:title="Dynamic description for SCR_PlayableFactionEditorAttribute and SCR_PlayableFactionsEditorAttribute to...">
<polygon fill="white" stroke="#666666" points="520,-414 380,-414 380,-384 520,-384 520,-414"/>
<text text-anchor="start" x="388" y="-402" font-family="Helvetica,sans-Serif" font-size="10.00">SCR_PlayableFactionKilling</text>
<text text-anchor="middle" x="450" y="-391" font-family="Helvetica,sans-Serif" font-size="10.00">AttributeDynamicDescription</text>
</a>
</g>
</g>
<!-- Node3&#45;&gt;Node4 -->
<g id="edge3" class="edge">
<title>Node3&#45;&gt;Node4</title>
<path fill="none" stroke="#63b8ff" d="M355.1,-399C363.34,-399 371.58,-399 379.57,-399"/>
<polygon fill="#63b8ff" stroke="#63b8ff" points="355.28,-395.5 345.28,-399 355.28,-402.5 355.28,-395.5"/>
</g>
</g>
</svg>
