<?xml version="1.0" encoding="UTF-8" standalone="no"?>
<!DOCTYPE svg PUBLIC "-//W3C//DTD SVG 1.1//EN"
 "http://www.w3.org/Graphics/SVG/1.1/DTD/svg11.dtd">
<!-- Generated by graphviz version 8.0.2 (20230410.1723)
 -->
<!-- Title: SCR_BaseEffectParticleAction Pages: 1 -->
<svg width="360pt" height="134pt"
 viewBox="0.00 0.00 360.00 134.00" xmlns="http://www.w3.org/2000/svg" xmlns:xlink="http://www.w3.org/1999/xlink">
<g id="graph0" class="graph" transform="scale(1 1) rotate(0) translate(4 130)">
<title>SCR_BaseEffectParticleAction</title>
<!-- Node1 -->
<g id="node1" class="node">
<title>Node1</title>
<g id="a_node1"><a xlink:title=" ">
<polygon fill="#999999" stroke="#666666" points="150,-72.5 0,-72.5 0,-53.5 150,-53.5 150,-72.5"/>
<text text-anchor="middle" x="75" y="-60.5" font-family="Helvetica,sans-Serif" font-size="10.00">SCR_BaseEffectParticleAction</text>
</a>
</g>
</g>
<!-- Node2 -->
<g id="node2" class="node">
<title>Node2</title>
<g id="a_node2"><a xlink:href="interfaceSCR__BaseEffectParticleHelicopterEventAction.html" target="_top" xlink:title=" ">
<polygon fill="white" stroke="#666666" points="352,-126 186,-126 186,-96 352,-96 352,-126"/>
<text text-anchor="start" x="194" y="-114" font-family="Helvetica,sans-Serif" font-size="10.00">SCR_BaseEffectParticleHelicopter</text>
<text text-anchor="middle" x="269" y="-103" font-family="Helvetica,sans-Serif" font-size="10.00">EventAction</text>
</a>
</g>
</g>
<!-- Node1&#45;&gt;Node2 -->
<g id="edge1" class="edge">
<title>Node1&#45;&gt;Node2</title>
<path fill="none" stroke="#63b8ff" d="M126.29,-75.57C150.79,-81.7 180.48,-89.12 206.34,-95.58"/>
<polygon fill="#63b8ff" stroke="#63b8ff" points="127.33,-71.98 116.78,-72.95 125.64,-78.77 127.33,-71.98"/>
</g>
<!-- Node3 -->
<g id="node3" class="node">
<title>Node3</title>
<g id="a_node3"><a xlink:href="interfaceSCR__BaseEffectParticleHelicopterRotorControlAction.html" target="_top" xlink:title="Specific action which controls the particles from the rotor wash.">
<polygon fill="white" stroke="#666666" points="352,-78 186,-78 186,-48 352,-48 352,-78"/>
<text text-anchor="start" x="194" y="-66" font-family="Helvetica,sans-Serif" font-size="10.00">SCR_BaseEffectParticleHelicopter</text>
<text text-anchor="middle" x="269" y="-55" font-family="Helvetica,sans-Serif" font-size="10.00">RotorControlAction</text>
</a>
</g>
</g>
<!-- Node1&#45;&gt;Node3 -->
<g id="edge2" class="edge">
<title>Node1&#45;&gt;Node3</title>
<path fill="none" stroke="#63b8ff" d="M161.22,-63C169.35,-63 177.58,-63 185.67,-63"/>
<polygon fill="#63b8ff" stroke="#63b8ff" points="161.23,-59.5 151.23,-63 161.23,-66.5 161.23,-59.5"/>
</g>
<!-- Node4 -->
<g id="node4" class="node">
<title>Node4</title>
<g id="a_node4"><a xlink:href="interfaceSCR__BaseEffectParticleSignalAction.html" target="_top" xlink:title=" ">
<polygon fill="white" stroke="#666666" points="343.5,-30 194.5,-30 194.5,0 343.5,0 343.5,-30"/>
<text text-anchor="start" x="202.5" y="-18" font-family="Helvetica,sans-Serif" font-size="10.00">SCR_BaseEffectParticleSignal</text>
<text text-anchor="middle" x="269" y="-7" font-family="Helvetica,sans-Serif" font-size="10.00">Action</text>
</a>
</g>
</g>
<!-- Node1&#45;&gt;Node4 -->
<g id="edge3" class="edge">
<title>Node1&#45;&gt;Node4</title>
<path fill="none" stroke="#63b8ff" d="M126.29,-50.43C150.79,-44.3 180.48,-36.88 206.34,-30.42"/>
<polygon fill="#63b8ff" stroke="#63b8ff" points="125.64,-47.23 116.78,-53.05 127.33,-54.02 125.64,-47.23"/>
</g>
</g>
</svg>
