<?xml version="1.0" encoding="UTF-8" standalone="no"?>
<!DOCTYPE svg PUBLIC "-//W3C//DTD SVG 1.1//EN"
 "http://www.w3.org/Graphics/SVG/1.1/DTD/svg11.dtd">
<!-- Generated by graphviz version 8.0.2 (20230410.1723)
 -->
<!-- Title: SCR_CallsignBaseComponentClass Pages: 1 -->
<svg width="346pt" height="159pt"
 viewBox="0.00 0.00 346.00 159.00" xmlns="http://www.w3.org/2000/svg" xmlns:xlink="http://www.w3.org/1999/xlink">
<g id="graph0" class="graph" transform="scale(1 1) rotate(0) translate(4 155)">
<title>SCR_CallsignBaseComponentClass</title>
<!-- Node1 -->
<g id="node1" class="node">
<title>Node1</title>
<g id="a_node1"><a xlink:title=" ">
<polygon fill="#999999" stroke="#666666" points="247.5,-96 98.5,-96 98.5,-66 247.5,-66 247.5,-96"/>
<text text-anchor="start" x="106.5" y="-84" font-family="Helvetica,sans-Serif" font-size="10.00">SCR_CallsignBaseComponent</text>
<text text-anchor="middle" x="173" y="-73" font-family="Helvetica,sans-Serif" font-size="10.00">Class</text>
</a>
</g>
</g>
<!-- Node3 -->
<g id="node3" class="node">
<title>Node3</title>
<g id="a_node3"><a xlink:href="interfaceSCR__CallsignCharacterComponentClass.html" target="_top" xlink:title=" ">
<polygon fill="white" stroke="#666666" points="168,-30 0,-30 0,0 168,0 168,-30"/>
<text text-anchor="start" x="8" y="-18" font-family="Helvetica,sans-Serif" font-size="10.00">SCR_CallsignCharacterComponent</text>
<text text-anchor="middle" x="84" y="-7" font-family="Helvetica,sans-Serif" font-size="10.00">Class</text>
</a>
</g>
</g>
<!-- Node1&#45;&gt;Node3 -->
<g id="edge2" class="edge">
<title>Node1&#45;&gt;Node3</title>
<path fill="none" stroke="#63b8ff" d="M144.53,-59.52C131.32,-50.03 115.95,-38.98 104,-30.39"/>
<polygon fill="#63b8ff" stroke="#63b8ff" points="142.09,-62.8 152.25,-65.8 146.17,-57.12 142.09,-62.8"/>
</g>
<!-- Node4 -->
<g id="node4" class="node">
<title>Node4</title>
<g id="a_node4"><a xlink:href="interfaceSCR__CallsignGroupComponentClass.html" target="_top" xlink:title=" ">
<polygon fill="white" stroke="#666666" points="338,-30 186,-30 186,0 338,0 338,-30"/>
<text text-anchor="start" x="194" y="-18" font-family="Helvetica,sans-Serif" font-size="10.00">SCR_CallsignGroupComponent</text>
<text text-anchor="middle" x="262" y="-7" font-family="Helvetica,sans-Serif" font-size="10.00">Class</text>
</a>
</g>
</g>
<!-- Node1&#45;&gt;Node4 -->
<g id="edge3" class="edge">
<title>Node1&#45;&gt;Node4</title>
<path fill="none" stroke="#63b8ff" d="M201.47,-59.52C214.68,-50.03 230.05,-38.98 242,-30.39"/>
<polygon fill="#63b8ff" stroke="#63b8ff" points="199.83,-57.12 193.75,-65.8 203.91,-62.8 199.83,-57.12"/>
</g>
<!-- Node2 -->
<g id="node2" class="node">
<title>Node2</title>
<g id="a_node2"><a xlink:title=" ">
<polygon fill="white" stroke="#666666" points="231,-151 115,-151 115,-132 231,-132 231,-151"/>
<text text-anchor="middle" x="173" y="-139" font-family="Helvetica,sans-Serif" font-size="10.00">ScriptComponentClass</text>
</a>
</g>
</g>
<!-- Node2&#45;&gt;Node1 -->
<g id="edge1" class="edge">
<title>Node2&#45;&gt;Node1</title>
<path fill="none" stroke="#63b8ff" d="M173,-121.08C173,-112.92 173,-103.6 173,-96.11"/>
<polygon fill="#63b8ff" stroke="#63b8ff" points="169.5,-120.87 173,-130.87 176.5,-120.87 169.5,-120.87"/>
</g>
</g>
</svg>
