<?xml version="1.0" encoding="UTF-8" standalone="no"?>
<!DOCTYPE svg PUBLIC "-//W3C//DTD SVG 1.1//EN"
 "http://www.w3.org/Graphics/SVG/1.1/DTD/svg11.dtd">
<!-- Generated by graphviz version 8.0.2 (20230410.1723)
 -->
<!-- Title: SCR_RequestMessage Pages: 1 -->
<svg width="513pt" height="247pt"
 viewBox="0.00 0.00 512.50 247.00" xmlns="http://www.w3.org/2000/svg" xmlns:xlink="http://www.w3.org/1999/xlink">
<g id="graph0" class="graph" transform="scale(1 1) rotate(0) translate(4 243)">
<title>SCR_RequestMessage</title>
<!-- Node1 -->
<g id="node1" class="node">
<title>Node1</title>
<g id="a_node1"><a xlink:title=" ">
<polygon fill="#999999" stroke="#666666" points="314.5,-74 196.5,-74 196.5,-55 314.5,-55 314.5,-74"/>
<text text-anchor="middle" x="255.5" y="-62" font-family="Helvetica,sans-Serif" font-size="10.00">SCR_RequestMessage</text>
</a>
</g>
</g>
<!-- Node5 -->
<g id="node5" class="node">
<title>Node5</title>
<g id="a_node5"><a xlink:href="interfaceSCR__RequestEvacuationMessage.html" target="_top" xlink:title=" ">
<polygon fill="white" stroke="#666666" points="165,-19 0,-19 0,0 165,0 165,-19"/>
<text text-anchor="middle" x="82.5" y="-7" font-family="Helvetica,sans-Serif" font-size="10.00">SCR_RequestEvacuationMessage</text>
</a>
</g>
</g>
<!-- Node1&#45;&gt;Node5 -->
<g id="edge4" class="edge">
<title>Node1&#45;&gt;Node5</title>
<path fill="none" stroke="#63b8ff" d="M215.89,-51.36C184.14,-41.64 140.32,-28.21 111.7,-19.45"/>
<polygon fill="#63b8ff" stroke="#63b8ff" points="214.57,-54.93 225.15,-54.51 216.62,-48.23 214.57,-54.93"/>
</g>
<!-- Node6 -->
<g id="node6" class="node">
<title>Node6</title>
<g id="a_node6"><a xlink:href="interfaceSCR__RequestRefuelMessage.html" target="_top" xlink:title=" ">
<polygon fill="white" stroke="#666666" points="328,-19 183,-19 183,0 328,0 328,-19"/>
<text text-anchor="middle" x="255.5" y="-7" font-family="Helvetica,sans-Serif" font-size="10.00">SCR_RequestRefuelMessage</text>
</a>
</g>
</g>
<!-- Node1&#45;&gt;Node6 -->
<g id="edge5" class="edge">
<title>Node1&#45;&gt;Node6</title>
<path fill="none" stroke="#63b8ff" d="M255.5,-43.93C255.5,-35.53 255.5,-26.13 255.5,-19.44"/>
<polygon fill="#63b8ff" stroke="#63b8ff" points="252,-43.75 255.5,-53.75 259,-43.75 252,-43.75"/>
</g>
<!-- Node7 -->
<g id="node7" class="node">
<title>Node7</title>
<g id="a_node7"><a xlink:href="interfaceSCR__RequestTransportMessage.html" target="_top" xlink:title=" ">
<polygon fill="white" stroke="#666666" points="504.5,-19 346.5,-19 346.5,0 504.5,0 504.5,-19"/>
<text text-anchor="middle" x="425.5" y="-7" font-family="Helvetica,sans-Serif" font-size="10.00">SCR_RequestTransportMessage</text>
</a>
</g>
</g>
<!-- Node1&#45;&gt;Node7 -->
<g id="edge6" class="edge">
<title>Node1&#45;&gt;Node7</title>
<path fill="none" stroke="#63b8ff" d="M294.83,-51.24C325.99,-41.52 368.81,-28.18 396.8,-19.45"/>
<polygon fill="#63b8ff" stroke="#63b8ff" points="293.84,-48.19 285.34,-54.51 295.93,-54.87 293.84,-48.19"/>
</g>
<!-- Node2 -->
<g id="node2" class="node">
<title>Node2</title>
<g id="a_node2"><a xlink:href="interfaceScriptedRadioMessage.html" target="_top" xlink:title=" ">
<polygon fill="white" stroke="#666666" points="314,-129 197,-129 197,-110 314,-110 314,-129"/>
<text text-anchor="middle" x="255.5" y="-117" font-family="Helvetica,sans-Serif" font-size="10.00">ScriptedRadioMessage</text>
</a>
</g>
</g>
<!-- Node2&#45;&gt;Node1 -->
<g id="edge1" class="edge">
<title>Node2&#45;&gt;Node1</title>
<path fill="none" stroke="#63b8ff" d="M255.5,-98.93C255.5,-90.53 255.5,-81.13 255.5,-74.44"/>
<polygon fill="#63b8ff" stroke="#63b8ff" points="252,-98.75 255.5,-108.75 259,-98.75 252,-98.75"/>
</g>
<!-- Node3 -->
<g id="node3" class="node">
<title>Node3</title>
<g id="a_node3"><a xlink:href="interfaceBaseRadioMessage.html" target="_top" xlink:title=" ">
<polygon fill="white" stroke="#666666" points="307.5,-184 203.5,-184 203.5,-165 307.5,-165 307.5,-184"/>
<text text-anchor="middle" x="255.5" y="-172" font-family="Helvetica,sans-Serif" font-size="10.00">BaseRadioMessage</text>
</a>
</g>
</g>
<!-- Node3&#45;&gt;Node2 -->
<g id="edge2" class="edge">
<title>Node3&#45;&gt;Node2</title>
<path fill="none" stroke="#63b8ff" d="M255.5,-153.93C255.5,-145.53 255.5,-136.13 255.5,-129.44"/>
<polygon fill="#63b8ff" stroke="#63b8ff" points="252,-153.75 255.5,-163.75 259,-153.75 252,-153.75"/>
</g>
<!-- Node4 -->
<g id="node4" class="node">
<title>Node4</title>
<g id="a_node4"><a xlink:title=" ">
<polygon fill="white" stroke="#666666" points="298.5,-239 212.5,-239 212.5,-220 298.5,-220 298.5,-239"/>
<text text-anchor="middle" x="255.5" y="-227" font-family="Helvetica,sans-Serif" font-size="10.00">ScriptAndConfig</text>
</a>
</g>
</g>
<!-- Node4&#45;&gt;Node3 -->
<g id="edge3" class="edge">
<title>Node4&#45;&gt;Node3</title>
<path fill="none" stroke="#63b8ff" d="M255.5,-208.93C255.5,-200.53 255.5,-191.13 255.5,-184.44"/>
<polygon fill="#63b8ff" stroke="#63b8ff" points="252,-208.75 255.5,-218.75 259,-208.75 252,-208.75"/>
</g>
</g>
</svg>
