<?xml version="1.0" encoding="UTF-8" standalone="no"?>
<!DOCTYPE svg PUBLIC "-//W3C//DTD SVG 1.1//EN"
 "http://www.w3.org/Graphics/SVG/1.1/DTD/svg11.dtd">
<!-- Generated by graphviz version 8.0.2 (20230410.1723)
 -->
<!-- Title: NotificationsSystem Pages: 1 -->
<svg width="112pt" height="137pt"
 viewBox="0.00 0.00 112.00 137.00" xmlns="http://www.w3.org/2000/svg" xmlns:xlink="http://www.w3.org/1999/xlink">
<g id="graph0" class="graph" transform="scale(1 1) rotate(0) translate(4 133)">
<title>NotificationsSystem</title>
<!-- Node1 -->
<g id="node1" class="node">
<title>Node1</title>
<g id="a_node1"><a xlink:title="TODO: When systems can be replicated, just move overything from SCR_NotificationsComponent.">
<polygon fill="#999999" stroke="#666666" points="104,-19 0,-19 0,0 104,0 104,-19"/>
<text text-anchor="middle" x="52" y="-7" font-family="Helvetica,sans-Serif" font-size="10.00">NotificationsSystem</text>
</a>
</g>
</g>
<!-- Node2 -->
<g id="node2" class="node">
<title>Node2</title>
<g id="a_node2"><a xlink:href="interfaceGameSystem.html" target="_top" xlink:title=" ">
<polygon fill="white" stroke="#666666" points="90.5,-74 13.5,-74 13.5,-55 90.5,-55 90.5,-74"/>
<text text-anchor="middle" x="52" y="-62" font-family="Helvetica,sans-Serif" font-size="10.00">GameSystem</text>
</a>
</g>
</g>
<!-- Node2&#45;&gt;Node1 -->
<g id="edge1" class="edge">
<title>Node2&#45;&gt;Node1</title>
<path fill="none" stroke="#63b8ff" d="M52,-43.93C52,-35.53 52,-26.13 52,-19.44"/>
<polygon fill="#63b8ff" stroke="#63b8ff" points="48.5,-43.75 52,-53.75 55.5,-43.75 48.5,-43.75"/>
</g>
<!-- Node3 -->
<g id="node3" class="node">
<title>Node3</title>
<g id="a_node3"><a xlink:title=" ">
<polygon fill="white" stroke="#666666" points="88.5,-129 15.5,-129 15.5,-110 88.5,-110 88.5,-129"/>
<text text-anchor="middle" x="52" y="-117" font-family="Helvetica,sans-Serif" font-size="10.00">BaseSystem</text>
</a>
</g>
</g>
<!-- Node3&#45;&gt;Node2 -->
<g id="edge2" class="edge">
<title>Node3&#45;&gt;Node2</title>
<path fill="none" stroke="#63b8ff" d="M52,-98.93C52,-90.53 52,-81.13 52,-74.44"/>
<polygon fill="#63b8ff" stroke="#63b8ff" points="48.5,-98.75 52,-108.75 55.5,-98.75 48.5,-98.75"/>
</g>
</g>
</svg>
