<?xml version="1.0" encoding="UTF-8" standalone="no"?>
<!DOCTYPE svg PUBLIC "-//W3C//DTD SVG 1.1//EN"
 "http://www.w3.org/Graphics/SVG/1.1/DTD/svg11.dtd">
<!-- Generated by graphviz version 8.0.2 (20230410.1723)
 -->
<!-- Title: VehicleBaseSimulation Pages: 1 -->
<svg width="589pt" height="175pt"
 viewBox="0.00 0.00 589.00 175.00" xmlns="http://www.w3.org/2000/svg" xmlns:xlink="http://www.w3.org/1999/xlink">
<g id="graph0" class="graph" transform="scale(1 1) rotate(0) translate(4 171)">
<title>VehicleBaseSimulation</title>
<!-- Node1 -->
<g id="node1" class="node">
<title>Node1</title>
<g id="a_node1"><a xlink:title=" ">
<polygon fill="#999999" stroke="#666666" points="381,-93 264,-93 264,-74 381,-74 381,-93"/>
<text text-anchor="middle" x="322.5" y="-81" font-family="Helvetica,sans-Serif" font-size="10.00">VehicleBaseSimulation</text>
</a>
</g>
</g>
<!-- Node4 -->
<g id="node4" class="node">
<title>Node4</title>
<g id="a_node4"><a xlink:href="interfaceVehicleFixedWingSimulation.html" target="_top" xlink:title=" ">
<polygon fill="white" stroke="#666666" points="569.5,-167 428.5,-167 428.5,-148 569.5,-148 569.5,-167"/>
<text text-anchor="middle" x="499" y="-155" font-family="Helvetica,sans-Serif" font-size="10.00">VehicleFixedWingSimulation</text>
</a>
</g>
</g>
<!-- Node1&#45;&gt;Node4 -->
<g id="edge3" class="edge">
<title>Node1&#45;&gt;Node4</title>
<path fill="none" stroke="#63b8ff" d="M345.68,-99.59C363.99,-112.15 391.07,-129.17 417,-139.5 424.9,-142.65 433.45,-145.3 441.95,-147.52"/>
<polygon fill="#63b8ff" stroke="#63b8ff" points="347.92,-96.18 337.72,-93.31 343.9,-101.91 347.92,-96.18"/>
</g>
<!-- Node5 -->
<g id="node5" class="node">
<title>Node5</title>
<g id="a_node5"><a xlink:href="interfaceVehicleHelicopterSimulation.html" target="_top" xlink:title=" ">
<polygon fill="white" stroke="#666666" points="568,-130 430,-130 430,-111 568,-111 568,-130"/>
<text text-anchor="middle" x="499" y="-118" font-family="Helvetica,sans-Serif" font-size="10.00">VehicleHelicopterSimulation</text>
</a>
</g>
</g>
<!-- Node1&#45;&gt;Node5 -->
<g id="edge4" class="edge">
<title>Node1&#45;&gt;Node5</title>
<path fill="none" stroke="#63b8ff" d="M380.82,-95.65C403.6,-100.48 429.48,-105.97 451.11,-110.56"/>
<polygon fill="#63b8ff" stroke="#63b8ff" points="381.77,-92.07 371.26,-93.42 380.32,-98.91 381.77,-92.07"/>
</g>
<!-- Node6 -->
<g id="node6" class="node">
<title>Node6</title>
<g id="a_node6"><a xlink:href="interfaceVehicleTrackedSimulation.html" target="_top" xlink:title=" ">
<polygon fill="white" stroke="#666666" points="563.5,-93 434.5,-93 434.5,-74 563.5,-74 563.5,-93"/>
<text text-anchor="middle" x="499" y="-81" font-family="Helvetica,sans-Serif" font-size="10.00">VehicleTrackedSimulation</text>
</a>
</g>
</g>
<!-- Node1&#45;&gt;Node6 -->
<g id="edge5" class="edge">
<title>Node1&#45;&gt;Node6</title>
<path fill="none" stroke="#63b8ff" d="M392.06,-83.5C405.92,-83.5 420.43,-83.5 434.11,-83.5"/>
<polygon fill="#63b8ff" stroke="#63b8ff" points="392.12,-80 382.12,-83.5 392.12,-87 392.12,-80"/>
</g>
<!-- Node7 -->
<g id="node7" class="node">
<title>Node7</title>
<g id="a_node7"><a xlink:href="interfaceVehicleWheeledSimulation.html" target="_top" xlink:title=" ">
<polygon fill="white" stroke="#666666" points="565.5,-56 432.5,-56 432.5,-37 565.5,-37 565.5,-56"/>
<text text-anchor="middle" x="499" y="-44" font-family="Helvetica,sans-Serif" font-size="10.00">VehicleWheeledSimulation</text>
</a>
</g>
</g>
<!-- Node1&#45;&gt;Node7 -->
<g id="edge6" class="edge">
<title>Node1&#45;&gt;Node7</title>
<path fill="none" stroke="#63b8ff" d="M380.82,-71.35C403.6,-66.52 429.48,-61.03 451.11,-56.44"/>
<polygon fill="#63b8ff" stroke="#63b8ff" points="380.32,-68.09 371.26,-73.58 381.77,-74.93 380.32,-68.09"/>
</g>
<!-- Node8 -->
<g id="node8" class="node">
<title>Node8</title>
<g id="a_node8"><a xlink:href="interfaceVehicleWheeledSimulation__SA__B.html" target="_top" xlink:title=" ">
<polygon fill="white" stroke="#666666" points="581,-19 417,-19 417,0 581,0 581,-19"/>
<text text-anchor="middle" x="499" y="-7" font-family="Helvetica,sans-Serif" font-size="10.00">VehicleWheeledSimulation_SA_B</text>
</a>
</g>
</g>
<!-- Node1&#45;&gt;Node8 -->
<g id="edge7" class="edge">
<title>Node1&#45;&gt;Node8</title>
<path fill="none" stroke="#63b8ff" d="M345.68,-67.41C363.99,-54.85 391.07,-37.83 417,-27.5 424.9,-24.35 433.45,-21.7 441.95,-19.48"/>
<polygon fill="#63b8ff" stroke="#63b8ff" points="343.9,-65.09 337.72,-73.69 347.92,-70.82 343.9,-65.09"/>
</g>
<!-- Node2 -->
<g id="node2" class="node">
<title>Node2</title>
<g id="a_node2"><a xlink:href="interfaceGameComponent.html" target="_top" xlink:title=" ">
<polygon fill="white" stroke="#666666" points="228,-93 136,-93 136,-74 228,-74 228,-93"/>
<text text-anchor="middle" x="182" y="-81" font-family="Helvetica,sans-Serif" font-size="10.00">GameComponent</text>
</a>
</g>
</g>
<!-- Node2&#45;&gt;Node1 -->
<g id="edge1" class="edge">
<title>Node2&#45;&gt;Node1</title>
<path fill="none" stroke="#63b8ff" d="M239.24,-83.5C247.38,-83.5 255.76,-83.5 263.92,-83.5"/>
<polygon fill="#63b8ff" stroke="#63b8ff" points="239.35,-80 229.35,-83.5 239.35,-87 239.35,-80"/>
</g>
<!-- Node3 -->
<g id="node3" class="node">
<title>Node3</title>
<g id="a_node3"><a xlink:title=" ">
<polygon fill="white" stroke="#666666" points="100,-93 0,-93 0,-74 100,-74 100,-93"/>
<text text-anchor="middle" x="50" y="-81" font-family="Helvetica,sans-Serif" font-size="10.00">GenericComponent</text>
</a>
</g>
</g>
<!-- Node3&#45;&gt;Node2 -->
<g id="edge2" class="edge">
<title>Node3&#45;&gt;Node2</title>
<path fill="none" stroke="#63b8ff" d="M110.95,-83.5C119.25,-83.5 127.66,-83.5 135.64,-83.5"/>
<polygon fill="#63b8ff" stroke="#63b8ff" points="111.15,-80 101.15,-83.5 111.15,-87 111.15,-80"/>
</g>
</g>
</svg>
