<?xml version="1.0" encoding="UTF-8" standalone="no"?>
<!DOCTYPE svg PUBLIC "-//W3C//DTD SVG 1.1//EN"
 "http://www.w3.org/Graphics/SVG/1.1/DTD/svg11.dtd">
<!-- Generated by graphviz version 8.0.2 (20230410.1723)
 -->
<!-- Title: SCR_HealthVehicleEditorAttribute Pages: 1 -->
<svg width="175pt" height="258pt"
 viewBox="0.00 0.00 175.00 258.00" xmlns="http://www.w3.org/2000/svg" xmlns:xlink="http://www.w3.org/1999/xlink">
<g id="graph0" class="graph" transform="scale(1 1) rotate(0) translate(4 254)">
<title>SCR_HealthVehicleEditorAttribute</title>
<!-- Node1 -->
<g id="node1" class="node">
<title>Node1</title>
<g id="a_node1"><a xlink:title=" ">
<polygon fill="#999999" stroke="#666666" points="165.5,-19 1.5,-19 1.5,0 165.5,0 165.5,-19"/>
<text text-anchor="middle" x="83.5" y="-7" font-family="Helvetica,sans-Serif" font-size="10.00">SCR_HealthVehicleEditorAttribute</text>
</a>
</g>
</g>
<!-- Node2 -->
<g id="node2" class="node">
<title>Node2</title>
<g id="a_node2"><a xlink:href="interfaceSCR__HealthEditorAttribute.html" target="_top" xlink:title="Entity Health Attribute for getting and setting varriables in Editor Attribute window.">
<polygon fill="white" stroke="#666666" points="149.5,-74 17.5,-74 17.5,-55 149.5,-55 149.5,-74"/>
<text text-anchor="middle" x="83.5" y="-62" font-family="Helvetica,sans-Serif" font-size="10.00">SCR_HealthEditorAttribute</text>
</a>
</g>
</g>
<!-- Node2&#45;&gt;Node1 -->
<g id="edge1" class="edge">
<title>Node2&#45;&gt;Node1</title>
<path fill="none" stroke="#63b8ff" d="M83.5,-43.93C83.5,-35.53 83.5,-26.13 83.5,-19.44"/>
<polygon fill="#63b8ff" stroke="#63b8ff" points="80,-43.75 83.5,-53.75 87,-43.75 80,-43.75"/>
</g>
<!-- Node3 -->
<g id="node3" class="node">
<title>Node3</title>
<g id="a_node3"><a xlink:href="interfaceSCR__ValidTypeBaseValueListEditorAttribute.html" target="_top" xlink:title=" ">
<polygon fill="white" stroke="#666666" points="157.5,-140 9.5,-140 9.5,-110 157.5,-110 157.5,-140"/>
<text text-anchor="start" x="17.5" y="-128" font-family="Helvetica,sans-Serif" font-size="10.00">SCR_ValidTypeBaseValueList</text>
<text text-anchor="middle" x="83.5" y="-117" font-family="Helvetica,sans-Serif" font-size="10.00">EditorAttribute</text>
</a>
</g>
</g>
<!-- Node3&#45;&gt;Node2 -->
<g id="edge2" class="edge">
<title>Node3&#45;&gt;Node2</title>
<path fill="none" stroke="#63b8ff" d="M83.5,-98.59C83.5,-89.85 83.5,-80.65 83.5,-74.18"/>
<polygon fill="#63b8ff" stroke="#63b8ff" points="80,-98.54 83.5,-108.54 87,-98.54 80,-98.54"/>
</g>
<!-- Node4 -->
<g id="node4" class="node">
<title>Node4</title>
<g id="a_node4"><a xlink:href="interfaceSCR__BaseValueListEditorAttribute.html" target="_top" xlink:title="Attribute base for slider values for other attributes to inherent from.">
<polygon fill="white" stroke="#666666" points="167,-195 0,-195 0,-176 167,-176 167,-195"/>
<text text-anchor="middle" x="83.5" y="-183" font-family="Helvetica,sans-Serif" font-size="10.00">SCR_BaseValueListEditorAttribute</text>
</a>
</g>
</g>
<!-- Node4&#45;&gt;Node3 -->
<g id="edge3" class="edge">
<title>Node4&#45;&gt;Node3</title>
<path fill="none" stroke="#63b8ff" d="M83.5,-165.08C83.5,-156.92 83.5,-147.6 83.5,-140.11"/>
<polygon fill="#63b8ff" stroke="#63b8ff" points="80,-164.87 83.5,-174.87 87,-164.87 80,-164.87"/>
</g>
<!-- Node5 -->
<g id="node5" class="node">
<title>Node5</title>
<g id="a_node5"><a xlink:href="interfaceSCR__BaseEditorAttribute.html" target="_top" xlink:title="Base Attribute Script for other attributes to inherent from to get and set varriables in Editor Attri...">
<polygon fill="white" stroke="#666666" points="147,-250 20,-250 20,-231 147,-231 147,-250"/>
<text text-anchor="middle" x="83.5" y="-238" font-family="Helvetica,sans-Serif" font-size="10.00">SCR_BaseEditorAttribute</text>
</a>
</g>
</g>
<!-- Node5&#45;&gt;Node4 -->
<g id="edge4" class="edge">
<title>Node5&#45;&gt;Node4</title>
<path fill="none" stroke="#63b8ff" d="M83.5,-219.93C83.5,-211.53 83.5,-202.13 83.5,-195.44"/>
<polygon fill="#63b8ff" stroke="#63b8ff" points="80,-219.75 83.5,-229.75 87,-219.75 80,-219.75"/>
</g>
</g>
</svg>
