<?xml version="1.0" encoding="UTF-8" standalone="no"?>
<!DOCTYPE svg PUBLIC "-//W3C//DTD SVG 1.1//EN"
 "http://www.w3.org/Graphics/SVG/1.1/DTD/svg11.dtd">
<!-- Generated by graphviz version 8.0.2 (20230410.1723)
 -->
<!-- Title: DamageManagerComponentClass Pages: 1 -->
<svg width="1491pt" height="340pt"
 viewBox="0.00 0.00 1491.00 340.00" xmlns="http://www.w3.org/2000/svg" xmlns:xlink="http://www.w3.org/1999/xlink">
<g id="graph0" class="graph" transform="scale(1 1) rotate(0) translate(4 336)">
<title>DamageManagerComponentClass</title>
<!-- Node1 -->
<g id="node1" class="node">
<title>Node1</title>
<g id="a_node1"><a xlink:title=" ">
<polygon fill="#999999" stroke="#666666" points="654,-182.5 490,-182.5 490,-163.5 654,-163.5 654,-182.5"/>
<text text-anchor="middle" x="572" y="-170.5" font-family="Helvetica,sans-Serif" font-size="10.00">DamageManagerComponentClass</text>
</a>
</g>
</g>
<!-- Node5 -->
<g id="node5" class="node">
<title>Node5</title>
<g id="a_node5"><a xlink:href="interfaceSCR__DamageManagerComponentClass.html" target="_top" xlink:title=" ">
<polygon fill="white" stroke="#666666" points="855,-188 690,-188 690,-158 855,-158 855,-188"/>
<text text-anchor="start" x="698" y="-176" font-family="Helvetica,sans-Serif" font-size="10.00">SCR_DamageManagerComponent</text>
<text text-anchor="middle" x="772.5" y="-165" font-family="Helvetica,sans-Serif" font-size="10.00">Class</text>
</a>
</g>
</g>
<!-- Node1&#45;&gt;Node5 -->
<g id="edge4" class="edge">
<title>Node1&#45;&gt;Node5</title>
<path fill="none" stroke="#63b8ff" d="M665.05,-173C673.27,-173 681.55,-173 689.67,-173"/>
<polygon fill="#63b8ff" stroke="#63b8ff" points="665.31,-169.5 655.31,-173 665.31,-176.5 665.31,-169.5"/>
</g>
<!-- Node2 -->
<g id="node2" class="node">
<title>Node2</title>
<g id="a_node2"><a xlink:href="interfaceHitZoneContainerComponentClass.html" target="_top" xlink:title=" ">
<polygon fill="white" stroke="#666666" points="454,-188 314,-188 314,-158 454,-158 454,-188"/>
<text text-anchor="start" x="322" y="-176" font-family="Helvetica,sans-Serif" font-size="10.00">HitZoneContainerComponent</text>
<text text-anchor="middle" x="384" y="-165" font-family="Helvetica,sans-Serif" font-size="10.00">Class</text>
</a>
</g>
</g>
<!-- Node2&#45;&gt;Node1 -->
<g id="edge1" class="edge">
<title>Node2&#45;&gt;Node1</title>
<path fill="none" stroke="#63b8ff" d="M465.23,-173C473.36,-173 481.62,-173 489.76,-173"/>
<polygon fill="#63b8ff" stroke="#63b8ff" points="465.26,-169.5 455.26,-173 465.26,-176.5 465.26,-169.5"/>
</g>
<!-- Node3 -->
<g id="node3" class="node">
<title>Node3</title>
<g id="a_node3"><a xlink:href="interfaceGameComponentClass.html" target="_top" xlink:title=" ">
<polygon fill="white" stroke="#666666" points="278,-182.5 161,-182.5 161,-163.5 278,-163.5 278,-182.5"/>
<text text-anchor="middle" x="219.5" y="-170.5" font-family="Helvetica,sans-Serif" font-size="10.00">GameComponentClass</text>
</a>
</g>
</g>
<!-- Node3&#45;&gt;Node2 -->
<g id="edge2" class="edge">
<title>Node3&#45;&gt;Node2</title>
<path fill="none" stroke="#63b8ff" d="M289.19,-173C297.32,-173 305.62,-173 313.76,-173"/>
<polygon fill="#63b8ff" stroke="#63b8ff" points="289.25,-169.5 279.25,-173 289.25,-176.5 289.25,-169.5"/>
</g>
<!-- Node4 -->
<g id="node4" class="node">
<title>Node4</title>
<g id="a_node4"><a xlink:title=" ">
<polygon fill="white" stroke="#666666" points="125,-182.5 0,-182.5 0,-163.5 125,-163.5 125,-182.5"/>
<text text-anchor="middle" x="62.5" y="-170.5" font-family="Helvetica,sans-Serif" font-size="10.00">GenericComponentClass</text>
</a>
</g>
</g>
<!-- Node4&#45;&gt;Node3 -->
<g id="edge3" class="edge">
<title>Node4&#45;&gt;Node3</title>
<path fill="none" stroke="#63b8ff" d="M135.96,-173C144.2,-173 152.52,-173 160.53,-173"/>
<polygon fill="#63b8ff" stroke="#63b8ff" points="136.21,-169.5 126.21,-173 136.21,-176.5 136.21,-169.5"/>
</g>
<!-- Node6 -->
<g id="node6" class="node">
<title>Node6</title>
<g id="a_node6"><a xlink:href="interfaceExtendedDamageManagerComponentClass.html" target="_top" xlink:title=" ">
<polygon fill="white" stroke="#666666" points="1077,-332 896,-332 896,-302 1077,-302 1077,-332"/>
<text text-anchor="start" x="904" y="-320" font-family="Helvetica,sans-Serif" font-size="10.00">ExtendedDamageManagerComponent</text>
<text text-anchor="middle" x="986.5" y="-309" font-family="Helvetica,sans-Serif" font-size="10.00">Class</text>
</a>
</g>
</g>
<!-- Node5&#45;&gt;Node6 -->
<g id="edge5" class="edge">
<title>Node5&#45;&gt;Node6</title>
<path fill="none" stroke="#63b8ff" d="M790.23,-196.69C810.81,-224.04 848.32,-268.43 891,-293 896.72,-296.29 902.89,-299.14 909.24,-301.6"/>
<polygon fill="#63b8ff" stroke="#63b8ff" points="792.66,-195.09 783.91,-189.11 787.02,-199.24 792.66,-195.09"/>
</g>
<!-- Node9 -->
<g id="node9" class="node">
<title>Node9</title>
<g id="a_node9"><a xlink:href="interfaceSCR__ArmorDamageManagerComponentClass.html" target="_top" xlink:title=" ">
<polygon fill="white" stroke="#666666" points="1082,-284 891,-284 891,-254 1082,-254 1082,-284"/>
<text text-anchor="start" x="899" y="-272" font-family="Helvetica,sans-Serif" font-size="10.00">SCR_ArmorDamageManagerComponent</text>
<text text-anchor="middle" x="986.5" y="-261" font-family="Helvetica,sans-Serif" font-size="10.00">Class</text>
</a>
</g>
</g>
<!-- Node5&#45;&gt;Node9 -->
<g id="edge8" class="edge">
<title>Node5&#45;&gt;Node9</title>
<path fill="none" stroke="#63b8ff" d="M803,-194.55C825.98,-210.46 859.23,-231.6 891,-245 898.56,-248.19 906.65,-251.03 914.8,-253.55"/>
<polygon fill="#63b8ff" stroke="#63b8ff" points="805.31,-191.19 795.11,-188.3 801.28,-196.92 805.31,-191.19"/>
</g>
<!-- Node10 -->
<g id="node10" class="node">
<title>Node10</title>
<g id="a_node10"><a xlink:href="interfaceSCR__DestructibleBuildingComponentClass.html" target="_top" xlink:title=" ">
<polygon fill="white" stroke="#666666" points="1050.5,-236 922.5,-236 922.5,-206 1050.5,-206 1050.5,-236"/>
<text text-anchor="start" x="930.5" y="-224" font-family="Helvetica,sans-Serif" font-size="10.00">SCR_DestructibleBuilding</text>
<text text-anchor="middle" x="986.5" y="-213" font-family="Helvetica,sans-Serif" font-size="10.00">ComponentClass</text>
</a>
</g>
</g>
<!-- Node5&#45;&gt;Node10 -->
<g id="edge9" class="edge">
<title>Node5&#45;&gt;Node10</title>
<path fill="none" stroke="#63b8ff" d="M852.18,-190.81C875.22,-196.03 900.1,-201.66 922.06,-206.64"/>
<polygon fill="#63b8ff" stroke="#63b8ff" points="853.27,-187.25 842.75,-188.45 851.73,-194.07 853.27,-187.25"/>
</g>
<!-- Node11 -->
<g id="node11" class="node">
<title>Node11</title>
<g id="a_node11"><a xlink:href="interfaceSCR__DestructionDamageManagerComponentClass.html" target="_top" xlink:title=" ">
<polygon fill="white" stroke="#666666" points="1069,-188 904,-188 904,-158 1069,-158 1069,-188"/>
<text text-anchor="start" x="912" y="-176" font-family="Helvetica,sans-Serif" font-size="10.00">SCR_DestructionDamageManager</text>
<text text-anchor="middle" x="986.5" y="-165" font-family="Helvetica,sans-Serif" font-size="10.00">ComponentClass</text>
</a>
</g>
</g>
<!-- Node5&#45;&gt;Node11 -->
<g id="edge10" class="edge">
<title>Node5&#45;&gt;Node11</title>
<path fill="none" stroke="#63b8ff" d="M866.33,-173C878.8,-173 891.5,-173 903.75,-173"/>
<polygon fill="#63b8ff" stroke="#63b8ff" points="866.46,-169.5 856.46,-173 866.46,-176.5 866.46,-169.5"/>
</g>
<!-- Node15 -->
<g id="node15" class="node">
<title>Node15</title>
<g id="a_node15"><a xlink:href="interfaceSCR__MineDamageManagerClass.html" target="_top" xlink:title=" ">
<polygon fill="white" stroke="#666666" points="1067,-139.5 906,-139.5 906,-120.5 1067,-120.5 1067,-139.5"/>
<text text-anchor="middle" x="986.5" y="-127.5" font-family="Helvetica,sans-Serif" font-size="10.00">SCR_MineDamageManagerClass</text>
</a>
</g>
</g>
<!-- Node5&#45;&gt;Node15 -->
<g id="edge14" class="edge">
<title>Node5&#45;&gt;Node15</title>
<path fill="none" stroke="#63b8ff" d="M859.56,-155.39C870.15,-153.23 880.82,-151.06 891,-149 905.6,-146.04 921.47,-142.84 935.96,-139.93"/>
<polygon fill="#63b8ff" stroke="#63b8ff" points="859.13,-152.11 850.03,-157.54 860.52,-158.97 859.13,-152.11"/>
</g>
<!-- Node16 -->
<g id="node16" class="node">
<title>Node16</title>
<g id="a_node16"><a xlink:href="interfaceSCR__RotorDamageManagerComponentClass.html" target="_top" xlink:title=" ">
<polygon fill="white" stroke="#666666" points="1080.5,-102 892.5,-102 892.5,-72 1080.5,-72 1080.5,-102"/>
<text text-anchor="start" x="900.5" y="-90" font-family="Helvetica,sans-Serif" font-size="10.00">SCR_RotorDamageManagerComponent</text>
<text text-anchor="middle" x="986.5" y="-79" font-family="Helvetica,sans-Serif" font-size="10.00">Class</text>
</a>
</g>
</g>
<!-- Node5&#45;&gt;Node16 -->
<g id="edge15" class="edge">
<title>Node5&#45;&gt;Node16</title>
<path fill="none" stroke="#63b8ff" d="M807.64,-152.21C830.56,-138.96 861.8,-122.23 891,-111 899.14,-107.87 907.82,-105.03 916.51,-102.49"/>
<polygon fill="#63b8ff" stroke="#63b8ff" points="806.21,-149.58 799.35,-157.66 809.75,-155.62 806.21,-149.58"/>
</g>
<!-- Node17 -->
<g id="node17" class="node">
<title>Node17</title>
<g id="a_node17"><a xlink:href="interfaceSCR__VehicleDamageManagerComponentClass.html" target="_top" xlink:title=" ">
<polygon fill="white" stroke="#666666" points="1060.5,-54 912.5,-54 912.5,-24 1060.5,-24 1060.5,-54"/>
<text text-anchor="start" x="920.5" y="-42" font-family="Helvetica,sans-Serif" font-size="10.00">SCR_VehicleDamageManager</text>
<text text-anchor="middle" x="986.5" y="-31" font-family="Helvetica,sans-Serif" font-size="10.00">ComponentClass</text>
</a>
</g>
</g>
<!-- Node5&#45;&gt;Node17 -->
<g id="edge16" class="edge">
<title>Node5&#45;&gt;Node17</title>
<path fill="none" stroke="#63b8ff" d="M792.31,-149.39C813.61,-124.23 850.65,-85.07 891,-63 897.68,-59.34 904.94,-56.23 912.35,-53.59"/>
<polygon fill="#63b8ff" stroke="#63b8ff" points="789.15,-146.72 785.45,-156.65 794.53,-151.19 789.15,-146.72"/>
</g>
<!-- Node7 -->
<g id="node7" class="node">
<title>Node7</title>
<g id="a_node7"><a xlink:href="interfaceSCR__ExtendedDamageManagerComponentClass.html" target="_top" xlink:title=" ">
<polygon fill="white" stroke="#666666" points="1282,-332 1125,-332 1125,-302 1282,-302 1282,-332"/>
<text text-anchor="start" x="1133" y="-320" font-family="Helvetica,sans-Serif" font-size="10.00">SCR_ExtendedDamageManager</text>
<text text-anchor="middle" x="1203.5" y="-309" font-family="Helvetica,sans-Serif" font-size="10.00">ComponentClass</text>
</a>
</g>
</g>
<!-- Node6&#45;&gt;Node7 -->
<g id="edge6" class="edge">
<title>Node6&#45;&gt;Node7</title>
<path fill="none" stroke="#63b8ff" d="M1088.13,-317C1100.36,-317 1112.71,-317 1124.54,-317"/>
<polygon fill="#63b8ff" stroke="#63b8ff" points="1088.43,-313.5 1078.43,-317 1088.43,-320.5 1088.43,-313.5"/>
</g>
<!-- Node8 -->
<g id="node8" class="node">
<title>Node8</title>
<g id="a_node8"><a xlink:href="interfaceSCR__CharacterDamageManagerComponentClass.html" target="_top" xlink:title=" ">
<polygon fill="white" stroke="#666666" points="1483,-332 1325,-332 1325,-302 1483,-302 1483,-332"/>
<text text-anchor="start" x="1333" y="-320" font-family="Helvetica,sans-Serif" font-size="10.00">SCR_CharacterDamageManager</text>
<text text-anchor="middle" x="1404" y="-309" font-family="Helvetica,sans-Serif" font-size="10.00">ComponentClass</text>
</a>
</g>
</g>
<!-- Node7&#45;&gt;Node8 -->
<g id="edge7" class="edge">
<title>Node7&#45;&gt;Node8</title>
<path fill="none" stroke="#63b8ff" d="M1293.23,-317C1303.72,-317 1314.36,-317 1324.69,-317"/>
<polygon fill="#63b8ff" stroke="#63b8ff" points="1293.38,-313.5 1283.38,-317 1293.38,-320.5 1293.38,-313.5"/>
</g>
<!-- Node12 -->
<g id="node12" class="node">
<title>Node12</title>
<g id="a_node12"><a xlink:href="interfaceSCR__DestructionFractalComponentClass.html" target="_top" xlink:title=" ">
<polygon fill="white" stroke="#666666" points="1289,-212 1118,-212 1118,-182 1289,-182 1289,-212"/>
<text text-anchor="start" x="1126" y="-200" font-family="Helvetica,sans-Serif" font-size="10.00">SCR_DestructionFractalComponent</text>
<text text-anchor="middle" x="1203.5" y="-189" font-family="Helvetica,sans-Serif" font-size="10.00">Class</text>
</a>
</g>
</g>
<!-- Node11&#45;&gt;Node12 -->
<g id="edge11" class="edge">
<title>Node11&#45;&gt;Node12</title>
<path fill="none" stroke="#63b8ff" d="M1080.23,-183.35C1092.65,-184.74 1105.34,-186.15 1117.62,-187.52"/>
<polygon fill="#63b8ff" stroke="#63b8ff" points="1080.72,-179.77 1070.4,-182.14 1079.95,-186.73 1080.72,-179.77"/>
</g>
<!-- Node13 -->
<g id="node13" class="node">
<title>Node13</title>
<g id="a_node13"><a xlink:href="interfaceSCR__DestructionMultiPhaseComponentClass.html" target="_top" xlink:title=" ">
<polygon fill="white" stroke="#666666" points="1273.5,-164 1133.5,-164 1133.5,-134 1273.5,-134 1273.5,-164"/>
<text text-anchor="start" x="1141.5" y="-152" font-family="Helvetica,sans-Serif" font-size="10.00">SCR_DestructionMultiPhase</text>
<text text-anchor="middle" x="1203.5" y="-141" font-family="Helvetica,sans-Serif" font-size="10.00">ComponentClass</text>
</a>
</g>
</g>
<!-- Node11&#45;&gt;Node13 -->
<g id="edge12" class="edge">
<title>Node11&#45;&gt;Node13</title>
<path fill="none" stroke="#63b8ff" d="M1080.08,-162.67C1097.86,-160.68 1116.2,-158.63 1133.1,-156.75"/>
<polygon fill="#63b8ff" stroke="#63b8ff" points="1079.95,-159.27 1070.4,-163.86 1080.72,-166.23 1079.95,-159.27"/>
</g>
<!-- Node14 -->
<g id="node14" class="node">
<title>Node14</title>
<g id="a_node14"><a xlink:href="interfaceSCR__DestructionTireComponentClass.html" target="_top" xlink:title=" ">
<polygon fill="white" stroke="#666666" points="1482.5,-164 1325.5,-164 1325.5,-134 1482.5,-134 1482.5,-164"/>
<text text-anchor="start" x="1333.5" y="-152" font-family="Helvetica,sans-Serif" font-size="10.00">SCR_DestructionTireComponent</text>
<text text-anchor="middle" x="1404" y="-141" font-family="Helvetica,sans-Serif" font-size="10.00">Class</text>
</a>
</g>
</g>
<!-- Node13&#45;&gt;Node14 -->
<g id="edge13" class="edge">
<title>Node13&#45;&gt;Node14</title>
<path fill="none" stroke="#63b8ff" d="M1284.54,-149C1297.93,-149 1311.8,-149 1325.14,-149"/>
<polygon fill="#63b8ff" stroke="#63b8ff" points="1284.93,-145.5 1274.93,-149 1284.93,-152.5 1284.93,-145.5"/>
</g>
<!-- Node18 -->
<g id="node18" class="node">
<title>Node18</title>
<g id="a_node18"><a xlink:href="interfaceSCR__HelicopterDamageManagerComponentClass.html" target="_top" xlink:title=" ">
<polygon fill="white" stroke="#666666" points="1283,-78 1124,-78 1124,-48 1283,-48 1283,-78"/>
<text text-anchor="start" x="1132" y="-66" font-family="Helvetica,sans-Serif" font-size="10.00">SCR_HelicopterDamageManager</text>
<text text-anchor="middle" x="1203.5" y="-55" font-family="Helvetica,sans-Serif" font-size="10.00">ComponentClass</text>
</a>
</g>
</g>
<!-- Node17&#45;&gt;Node18 -->
<g id="edge17" class="edge">
<title>Node17&#45;&gt;Node18</title>
<path fill="none" stroke="#63b8ff" d="M1071.44,-48.37C1088.6,-50.29 1106.59,-52.29 1123.56,-54.19"/>
<polygon fill="#63b8ff" stroke="#63b8ff" points="1072.22,-44.82 1061.89,-47.19 1071.44,-51.78 1072.22,-44.82"/>
</g>
<!-- Node19 -->
<g id="node19" class="node">
<title>Node19</title>
<g id="a_node19"><a xlink:href="interfaceSCR__WheeledDamageManagerComponentClass.html" target="_top" xlink:title=" ">
<polygon fill="white" stroke="#666666" points="1280.5,-30 1126.5,-30 1126.5,0 1280.5,0 1280.5,-30"/>
<text text-anchor="start" x="1134.5" y="-18" font-family="Helvetica,sans-Serif" font-size="10.00">SCR_WheeledDamageManager</text>
<text text-anchor="middle" x="1203.5" y="-7" font-family="Helvetica,sans-Serif" font-size="10.00">ComponentClass</text>
</a>
</g>
</g>
<!-- Node17&#45;&gt;Node19 -->
<g id="edge18" class="edge">
<title>Node17&#45;&gt;Node19</title>
<path fill="none" stroke="#63b8ff" d="M1071.64,-29.61C1089.61,-27.6 1108.49,-25.49 1126.14,-23.52"/>
<polygon fill="#63b8ff" stroke="#63b8ff" points="1071.44,-26.22 1061.89,-30.81 1072.22,-33.18 1071.44,-26.22"/>
</g>
</g>
</svg>
