<?xml version="1.0" encoding="UTF-8" standalone="no"?>
<!DOCTYPE svg PUBLIC "-//W3C//DTD SVG 1.1//EN"
 "http://www.w3.org/Graphics/SVG/1.1/DTD/svg11.dtd">
<!-- Generated by graphviz version 8.0.2 (20230410.1723)
 -->
<!-- Title: SCR_MilitaryBaseLogicComponent Pages: 1 -->
<svg width="946pt" height="245pt"
 viewBox="0.00 0.00 946.00 245.00" xmlns="http://www.w3.org/2000/svg" xmlns:xlink="http://www.w3.org/1999/xlink">
<g id="graph0" class="graph" transform="scale(1 1) rotate(0) translate(4 241)">
<title>SCR_MilitaryBaseLogicComponent</title>
<!-- Node1 -->
<g id="node1" class="node">
<title>Node1</title>
<g id="a_node1"><a xlink:title=" ">
<polygon fill="#999999" stroke="#666666" points="297,-151 128,-151 128,-132 297,-132 297,-151"/>
<text text-anchor="middle" x="212.5" y="-139" font-family="Helvetica,sans-Serif" font-size="10.00">SCR_MilitaryBaseLogicComponent</text>
</a>
</g>
</g>
<!-- Node3 -->
<g id="node3" class="node">
<title>Node3</title>
<g id="a_node3"><a xlink:href="interfaceSCR__AmbientRadioChatterComponent.html" target="_top" xlink:title=" ">
<polygon fill="white" stroke="#666666" points="517,-237 333,-237 333,-218 517,-218 517,-237"/>
<text text-anchor="middle" x="425" y="-225" font-family="Helvetica,sans-Serif" font-size="10.00">SCR_AmbientRadioChatterComponent</text>
</a>
</g>
</g>
<!-- Node1&#45;&gt;Node3 -->
<g id="edge2" class="edge">
<title>Node1&#45;&gt;Node3</title>
<path fill="none" stroke="#63b8ff" d="M236.99,-157.53C260.36,-172.78 297.72,-195.29 333,-208.5 342.67,-212.12 353.2,-215.12 363.54,-217.58"/>
<polygon fill="#63b8ff" stroke="#63b8ff" points="239.15,-154.1 228.88,-151.49 235.28,-159.94 239.15,-154.1"/>
</g>
<!-- Node4 -->
<g id="node4" class="node">
<title>Node4</title>
<g id="a_node4"><a xlink:href="interfaceSCR__CampaignBuildingProviderComponent.html" target="_top" xlink:title=" ">
<polygon fill="white" stroke="#666666" points="502.5,-199.5 347.5,-199.5 347.5,-169.5 502.5,-169.5 502.5,-199.5"/>
<text text-anchor="start" x="355.5" y="-187.5" font-family="Helvetica,sans-Serif" font-size="10.00">SCR_CampaignBuildingProvider</text>
<text text-anchor="middle" x="425" y="-176.5" font-family="Helvetica,sans-Serif" font-size="10.00">Component</text>
</a>
</g>
</g>
<!-- Node1&#45;&gt;Node4 -->
<g id="edge3" class="edge">
<title>Node1&#45;&gt;Node4</title>
<path fill="none" stroke="#63b8ff" d="M272.79,-153.61C296.21,-158.4 323.41,-163.95 348.23,-169.02"/>
<polygon fill="#63b8ff" stroke="#63b8ff" points="273.82,-150.05 263.32,-151.47 272.42,-156.9 273.82,-150.05"/>
</g>
<!-- Node5 -->
<g id="node5" class="node">
<title>Node5</title>
<g id="a_node5"><a xlink:href="interfaceSCR__FlagComponent.html" target="_top" xlink:title=" ">
<polygon fill="white" stroke="#666666" points="480,-151 370,-151 370,-132 480,-132 480,-151"/>
<text text-anchor="middle" x="425" y="-139" font-family="Helvetica,sans-Serif" font-size="10.00">SCR_FlagComponent</text>
</a>
</g>
</g>
<!-- Node1&#45;&gt;Node5 -->
<g id="edge4" class="edge">
<title>Node1&#45;&gt;Node5</title>
<path fill="none" stroke="#63b8ff" d="M308.21,-141.5C329.21,-141.5 350.77,-141.5 369.51,-141.5"/>
<polygon fill="#63b8ff" stroke="#63b8ff" points="308.3,-138 298.3,-141.5 308.3,-145 308.3,-138"/>
</g>
<!-- Node6 -->
<g id="node6" class="node">
<title>Node6</title>
<g id="a_node6"><a xlink:href="interfaceSCR__SeizingComponent.html" target="_top" xlink:title=" ">
<polygon fill="white" stroke="#666666" points="487,-114 363,-114 363,-95 487,-95 487,-114"/>
<text text-anchor="middle" x="425" y="-102" font-family="Helvetica,sans-Serif" font-size="10.00">SCR_SeizingComponent</text>
</a>
</g>
</g>
<!-- Node1&#45;&gt;Node6 -->
<g id="edge5" class="edge">
<title>Node1&#45;&gt;Node6</title>
<path fill="none" stroke="#63b8ff" d="M281.02,-129.63C308.81,-124.75 340.65,-119.15 367.21,-114.48"/>
<polygon fill="#63b8ff" stroke="#63b8ff" points="280.43,-126.36 271.19,-131.54 281.64,-133.25 280.43,-126.36"/>
</g>
<!-- Node8 -->
<g id="node8" class="node">
<title>Node8</title>
<g id="a_node8"><a xlink:href="interfaceSCR__ServicePointComponent.html" target="_top" xlink:title=" ">
<polygon fill="white" stroke="#666666" points="498,-77 352,-77 352,-58 498,-58 498,-77"/>
<text text-anchor="middle" x="425" y="-65" font-family="Helvetica,sans-Serif" font-size="10.00">SCR_ServicePointComponent</text>
</a>
</g>
</g>
<!-- Node1&#45;&gt;Node8 -->
<g id="edge7" class="edge">
<title>Node1&#45;&gt;Node8</title>
<path fill="none" stroke="#63b8ff" d="M240.55,-126.5C264.28,-113.91 300.04,-96.3 333,-85.5 342.49,-82.39 352.72,-79.73 362.77,-77.49"/>
<polygon fill="#63b8ff" stroke="#63b8ff" points="239.31,-123.73 232.16,-131.55 242.63,-129.89 239.31,-123.73"/>
</g>
<!-- Node2 -->
<g id="node2" class="node">
<title>Node2</title>
<g id="a_node2"><a xlink:title=" ">
<polygon fill="white" stroke="#666666" points="92,-151 0,-151 0,-132 92,-132 92,-151"/>
<text text-anchor="middle" x="46" y="-139" font-family="Helvetica,sans-Serif" font-size="10.00">ScriptComponent</text>
</a>
</g>
</g>
<!-- Node2&#45;&gt;Node1 -->
<g id="edge1" class="edge">
<title>Node2&#45;&gt;Node1</title>
<path fill="none" stroke="#63b8ff" d="M103.29,-141.5C111.2,-141.5 119.47,-141.5 127.76,-141.5"/>
<polygon fill="#63b8ff" stroke="#63b8ff" points="103.39,-138 93.39,-141.5 103.39,-145 103.39,-138"/>
</g>
<!-- Node7 -->
<g id="node7" class="node">
<title>Node7</title>
<g id="a_node7"><a xlink:href="interfaceSCR__CampaignSeizingComponent.html" target="_top" xlink:title=" ">
<polygon fill="white" stroke="#666666" points="727.5,-114 560.5,-114 560.5,-95 727.5,-95 727.5,-114"/>
<text text-anchor="middle" x="644" y="-102" font-family="Helvetica,sans-Serif" font-size="10.00">SCR_CampaignSeizingComponent</text>
</a>
</g>
</g>
<!-- Node6&#45;&gt;Node7 -->
<g id="edge6" class="edge">
<title>Node6&#45;&gt;Node7</title>
<path fill="none" stroke="#63b8ff" d="M498.18,-104.5C518.11,-104.5 539.89,-104.5 560.37,-104.5"/>
<polygon fill="#63b8ff" stroke="#63b8ff" points="498.31,-101 488.31,-104.5 498.31,-108 498.31,-101"/>
</g>
<!-- Node9 -->
<g id="node9" class="node">
<title>Node9</title>
<g id="a_node9"><a xlink:href="interfaceSCR__AntennaServicePointComponent.html" target="_top" xlink:title=" ">
<polygon fill="white" stroke="#666666" points="735,-77 553,-77 553,-58 735,-58 735,-77"/>
<text text-anchor="middle" x="644" y="-65" font-family="Helvetica,sans-Serif" font-size="10.00">SCR_AntennaServicePointComponent</text>
</a>
</g>
</g>
<!-- Node8&#45;&gt;Node9 -->
<g id="edge8" class="edge">
<title>Node8&#45;&gt;Node9</title>
<path fill="none" stroke="#63b8ff" d="M509.01,-67.5C523.25,-67.5 538.1,-67.5 552.53,-67.5"/>
<polygon fill="#63b8ff" stroke="#63b8ff" points="509.26,-64 499.26,-67.5 509.26,-71 509.26,-64"/>
</g>
<!-- Node10 -->
<g id="node10" class="node">
<title>Node10</title>
<g id="a_node10"><a xlink:href="interfaceSCR__SlotServiceComponent.html" target="_top" xlink:title="Service with basic slot handling functionalities.">
<polygon fill="white" stroke="#666666" points="714,-40 574,-40 574,-21 714,-21 714,-40"/>
<text text-anchor="middle" x="644" y="-28" font-family="Helvetica,sans-Serif" font-size="10.00">SCR_SlotServiceComponent</text>
</a>
</g>
</g>
<!-- Node8&#45;&gt;Node10 -->
<g id="edge9" class="edge">
<title>Node8&#45;&gt;Node10</title>
<path fill="none" stroke="#63b8ff" d="M495.22,-55.7C523.96,-50.8 556.95,-45.17 584.46,-40.48"/>
<polygon fill="#63b8ff" stroke="#63b8ff" points="494.71,-52.4 485.44,-57.54 495.88,-59.31 494.71,-52.4"/>
</g>
<!-- Node11 -->
<g id="node11" class="node">
<title>Node11</title>
<g id="a_node11"><a xlink:href="interfaceSCR__CatalogEntitySpawnerComponent.html" target="_top" xlink:title="Component allowing user to request spawning entities using asset catalogs Requires ActionManager with...">
<polygon fill="white" stroke="#666666" points="923.5,-67.5 785.5,-67.5 785.5,-37.5 923.5,-37.5 923.5,-67.5"/>
<text text-anchor="start" x="793.5" y="-55.5" font-family="Helvetica,sans-Serif" font-size="10.00">SCR_CatalogEntitySpawner</text>
<text text-anchor="middle" x="854.5" y="-44.5" font-family="Helvetica,sans-Serif" font-size="10.00">Component</text>
</a>
</g>
</g>
<!-- Node10&#45;&gt;Node11 -->
<g id="edge10" class="edge">
<title>Node10&#45;&gt;Node11</title>
<path fill="none" stroke="#63b8ff" d="M725.25,-38.97C745,-41.05 765.96,-43.26 785.08,-45.28"/>
<polygon fill="#63b8ff" stroke="#63b8ff" points="725.74,-35.39 715.43,-37.83 725,-42.36 725.74,-35.39"/>
</g>
<!-- Node12 -->
<g id="node12" class="node">
<title>Node12</title>
<g id="a_node12"><a xlink:href="interfaceSCR__DefenderSpawnerComponent.html" target="_top" xlink:title="Service providing group of defenders defined in faction. Requires SCR_EnableDefenderAction on ActionM...">
<polygon fill="white" stroke="#666666" points="938,-19 771,-19 771,0 938,0 938,-19"/>
<text text-anchor="middle" x="854.5" y="-7" font-family="Helvetica,sans-Serif" font-size="10.00">SCR_DefenderSpawnerComponent</text>
</a>
</g>
</g>
<!-- Node10&#45;&gt;Node12 -->
<g id="edge11" class="edge">
<title>Node10&#45;&gt;Node12</title>
<path fill="none" stroke="#63b8ff" d="M725.14,-22.43C740.04,-20.93 755.64,-19.36 770.63,-17.85"/>
<polygon fill="#63b8ff" stroke="#63b8ff" points="725.03,-19.02 715.43,-23.51 725.73,-25.99 725.03,-19.02"/>
</g>
</g>
</svg>
