<?xml version="1.0" encoding="UTF-8" standalone="no"?>
<!DOCTYPE svg PUBLIC "-//W3C//DTD SVG 1.1//EN"
 "http://www.w3.org/Graphics/SVG/1.1/DTD/svg11.dtd">
<!-- Generated by graphviz version 8.0.2 (20230410.1723)
 -->
<!-- Title: SCR_ScenarioFrameworkWaypointHeal Pages: 1 -->
<svg width="197pt" height="214pt"
 viewBox="0.00 0.00 197.00 214.00" xmlns="http://www.w3.org/2000/svg" xmlns:xlink="http://www.w3.org/1999/xlink">
<g id="graph0" class="graph" transform="scale(1 1) rotate(0) translate(4 210)">
<title>SCR_ScenarioFrameworkWaypointHeal</title>
<!-- Node1 -->
<g id="node1" class="node">
<title>Node1</title>
<g id="a_node1"><a xlink:title=" ">
<polygon fill="#999999" stroke="#666666" points="189,-19 0,-19 0,0 189,0 189,-19"/>
<text text-anchor="middle" x="94.5" y="-7" font-family="Helvetica,sans-Serif" font-size="10.00">SCR_ScenarioFrameworkWaypointHeal</text>
</a>
</g>
</g>
<!-- Node2 -->
<g id="node2" class="node">
<title>Node2</title>
<g id="a_node2"><a xlink:href="interfaceSCR__ScenarioFrameworkWaypointEntity.html" target="_top" xlink:title=" ">
<polygon fill="white" stroke="#666666" points="179.5,-85 9.5,-85 9.5,-55 179.5,-55 179.5,-85"/>
<text text-anchor="start" x="17.5" y="-73" font-family="Helvetica,sans-Serif" font-size="10.00">SCR_ScenarioFrameworkWaypoint</text>
<text text-anchor="middle" x="94.5" y="-62" font-family="Helvetica,sans-Serif" font-size="10.00">Entity</text>
</a>
</g>
</g>
<!-- Node2&#45;&gt;Node1 -->
<g id="edge1" class="edge">
<title>Node2&#45;&gt;Node1</title>
<path fill="none" stroke="#63b8ff" d="M94.5,-43.59C94.5,-34.85 94.5,-25.65 94.5,-19.18"/>
<polygon fill="#63b8ff" stroke="#63b8ff" points="91,-43.54 94.5,-53.54 98,-43.54 91,-43.54"/>
</g>
<!-- Node3 -->
<g id="node3" class="node">
<title>Node3</title>
<g id="a_node3"><a xlink:href="interfaceSCR__ScenarioFrameworkWaypointScripted.html" target="_top" xlink:title=" ">
<polygon fill="white" stroke="#666666" points="179.5,-151 9.5,-151 9.5,-121 179.5,-121 179.5,-151"/>
<text text-anchor="start" x="17.5" y="-139" font-family="Helvetica,sans-Serif" font-size="10.00">SCR_ScenarioFrameworkWaypoint</text>
<text text-anchor="middle" x="94.5" y="-128" font-family="Helvetica,sans-Serif" font-size="10.00">Scripted</text>
</a>
</g>
</g>
<!-- Node3&#45;&gt;Node2 -->
<g id="edge2" class="edge">
<title>Node3&#45;&gt;Node2</title>
<path fill="none" stroke="#63b8ff" d="M94.5,-109.97C94.5,-101.55 94.5,-92.45 94.5,-85.16"/>
<polygon fill="#63b8ff" stroke="#63b8ff" points="91,-109.8 94.5,-119.8 98,-109.8 91,-109.8"/>
</g>
<!-- Node4 -->
<g id="node4" class="node">
<title>Node4</title>
<g id="a_node4"><a xlink:href="interfaceSCR__ScenarioFrameworkWaypoint.html" target="_top" xlink:title=" ">
<polygon fill="white" stroke="#666666" points="179.5,-206 9.5,-206 9.5,-187 179.5,-187 179.5,-206"/>
<text text-anchor="middle" x="94.5" y="-194" font-family="Helvetica,sans-Serif" font-size="10.00">SCR_ScenarioFrameworkWaypoint</text>
</a>
</g>
</g>
<!-- Node4&#45;&gt;Node3 -->
<g id="edge3" class="edge">
<title>Node4&#45;&gt;Node3</title>
<path fill="none" stroke="#63b8ff" d="M94.5,-176.08C94.5,-167.92 94.5,-158.6 94.5,-151.11"/>
<polygon fill="#63b8ff" stroke="#63b8ff" points="91,-175.87 94.5,-185.87 98,-175.87 91,-175.87"/>
</g>
</g>
</svg>
