<?xml version="1.0" encoding="UTF-8" standalone="no"?>
<!DOCTYPE svg PUBLIC "-//W3C//DTD SVG 1.1//EN"
 "http://www.w3.org/Graphics/SVG/1.1/DTD/svg11.dtd">
<!-- Generated by graphviz version 8.0.2 (20230410.1723)
 -->
<!-- Title: NwkMovementComponentClass Pages: 1 -->
<svg width="691pt" height="268pt"
 viewBox="0.00 0.00 691.00 268.00" xmlns="http://www.w3.org/2000/svg" xmlns:xlink="http://www.w3.org/1999/xlink">
<g id="graph0" class="graph" transform="scale(1 1) rotate(0) translate(4 264)">
<title>NwkMovementComponentClass</title>
<!-- Node1 -->
<g id="node1" class="node">
<title>Node1</title>
<g id="a_node1"><a xlink:title=" ">
<polygon fill="#999999" stroke="#666666" points="468,-144.5 314,-144.5 314,-125.5 468,-125.5 468,-144.5"/>
<text text-anchor="middle" x="391" y="-132.5" font-family="Helvetica,sans-Serif" font-size="10.00">NwkMovementComponentClass</text>
</a>
</g>
</g>
<!-- Node4 -->
<g id="node4" class="node">
<title>Node4</title>
<g id="a_node4"><a xlink:href="interfaceNwkBufferedCarMovementComponentClass.html" target="_top" xlink:title=" ">
<polygon fill="white" stroke="#666666" points="683,-260 504,-260 504,-230 683,-230 683,-260"/>
<text text-anchor="start" x="512" y="-248" font-family="Helvetica,sans-Serif" font-size="10.00">NwkBufferedCarMovementComponent</text>
<text text-anchor="middle" x="593.5" y="-237" font-family="Helvetica,sans-Serif" font-size="10.00">Class</text>
</a>
</g>
</g>
<!-- Node1&#45;&gt;Node4 -->
<g id="edge3" class="edge">
<title>Node1&#45;&gt;Node4</title>
<path fill="none" stroke="#63b8ff" d="M409.85,-152.32C430.77,-171.72 467.28,-202.82 504,-221 510.56,-224.25 517.62,-227.11 524.79,-229.61"/>
<polygon fill="#63b8ff" stroke="#63b8ff" points="412.55,-150.12 402.88,-145.8 407.75,-155.21 412.55,-150.12"/>
</g>
<!-- Node5 -->
<g id="node5" class="node">
<title>Node5</title>
<g id="a_node5"><a xlink:href="interfaceNwkCarMovementComponentClass.html" target="_top" xlink:title=" ">
<polygon fill="white" stroke="#666666" points="678,-211.5 509,-211.5 509,-192.5 678,-192.5 678,-211.5"/>
<text text-anchor="middle" x="593.5" y="-199.5" font-family="Helvetica,sans-Serif" font-size="10.00">NwkCarMovementComponentClass</text>
</a>
</g>
</g>
<!-- Node1&#45;&gt;Node5 -->
<g id="edge4" class="edge">
<title>Node1&#45;&gt;Node5</title>
<path fill="none" stroke="#63b8ff" d="M421.61,-149.56C443.85,-160.03 475.29,-173.86 504,-183 514.93,-186.48 526.82,-189.52 538.24,-192.09"/>
<polygon fill="#63b8ff" stroke="#63b8ff" points="423.32,-146.02 412.79,-144.87 420.3,-152.34 423.32,-146.02"/>
</g>
<!-- Node6 -->
<g id="node6" class="node">
<title>Node6</title>
<g id="a_node6"><a xlink:href="interfaceNwkHeliMovementComponentClass.html" target="_top" xlink:title=" ">
<polygon fill="white" stroke="#666666" points="666.5,-174 520.5,-174 520.5,-144 666.5,-144 666.5,-174"/>
<text text-anchor="start" x="528.5" y="-162" font-family="Helvetica,sans-Serif" font-size="10.00">NwkHeliMovementComponent</text>
<text text-anchor="middle" x="593.5" y="-151" font-family="Helvetica,sans-Serif" font-size="10.00">Class</text>
</a>
</g>
</g>
<!-- Node1&#45;&gt;Node6 -->
<g id="edge5" class="edge">
<title>Node1&#45;&gt;Node6</title>
<path fill="none" stroke="#63b8ff" d="M479.27,-145.45C492.97,-147.09 506.99,-148.76 520.3,-150.36"/>
<polygon fill="#63b8ff" stroke="#63b8ff" points="479.72,-141.86 469.37,-144.14 478.89,-148.81 479.72,-141.86"/>
</g>
<!-- Node7 -->
<g id="node7" class="node">
<title>Node7</title>
<g id="a_node7"><a xlink:href="interfaceNwkPhysicsMovementComponentClass.html" target="_top" xlink:title=" ">
<polygon fill="white" stroke="#666666" points="675.5,-126 511.5,-126 511.5,-96 675.5,-96 675.5,-126"/>
<text text-anchor="start" x="519.5" y="-114" font-family="Helvetica,sans-Serif" font-size="10.00">NwkPhysicsMovementComponent</text>
<text text-anchor="middle" x="593.5" y="-103" font-family="Helvetica,sans-Serif" font-size="10.00">Class</text>
</a>
</g>
</g>
<!-- Node1&#45;&gt;Node7 -->
<g id="edge6" class="edge">
<title>Node1&#45;&gt;Node7</title>
<path fill="none" stroke="#63b8ff" d="M479.27,-124.55C489.81,-123.29 500.55,-122.01 511,-120.76"/>
<polygon fill="#63b8ff" stroke="#63b8ff" points="478.89,-121.19 469.37,-125.86 479.72,-128.14 478.89,-121.19"/>
</g>
<!-- Node8 -->
<g id="node8" class="node">
<title>Node8</title>
<g id="a_node8"><a xlink:href="interfaceNwkSimpleMovementComponentClass.html" target="_top" xlink:title=" ">
<polygon fill="white" stroke="#666666" points="673,-78 514,-78 514,-48 673,-48 673,-78"/>
<text text-anchor="start" x="522" y="-66" font-family="Helvetica,sans-Serif" font-size="10.00">NwkSimpleMovementComponent</text>
<text text-anchor="middle" x="593.5" y="-55" font-family="Helvetica,sans-Serif" font-size="10.00">Class</text>
</a>
</g>
</g>
<!-- Node1&#45;&gt;Node8 -->
<g id="edge7" class="edge">
<title>Node1&#45;&gt;Node8</title>
<path fill="none" stroke="#63b8ff" d="M422.58,-120.52C444.84,-110.31 475.89,-96.78 504,-87 512.72,-83.97 522.03,-81.07 531.22,-78.42"/>
<polygon fill="#63b8ff" stroke="#63b8ff" points="421.31,-117.71 413.71,-125.09 424.25,-124.06 421.31,-117.71"/>
</g>
<!-- Node9 -->
<g id="node9" class="node">
<title>Node9</title>
<g id="a_node9"><a xlink:href="interfaceNwkVehicleMovementComponentClass.html" target="_top" xlink:title=" ">
<polygon fill="white" stroke="#666666" points="674,-30 513,-30 513,0 674,0 674,-30"/>
<text text-anchor="start" x="521" y="-18" font-family="Helvetica,sans-Serif" font-size="10.00">NwkVehicleMovementComponent</text>
<text text-anchor="middle" x="593.5" y="-7" font-family="Helvetica,sans-Serif" font-size="10.00">Class</text>
</a>
</g>
</g>
<!-- Node1&#45;&gt;Node9 -->
<g id="edge8" class="edge">
<title>Node1&#45;&gt;Node9</title>
<path fill="none" stroke="#63b8ff" d="M407.9,-117.2C428.16,-95.6 465.21,-59.53 504,-39 510.19,-35.72 516.87,-32.86 523.68,-30.38"/>
<polygon fill="#63b8ff" stroke="#63b8ff" points="405.72,-114.49 401.53,-124.22 410.87,-119.23 405.72,-114.49"/>
</g>
<!-- Node2 -->
<g id="node2" class="node">
<title>Node2</title>
<g id="a_node2"><a xlink:href="interfaceGameComponentClass.html" target="_top" xlink:title=" ">
<polygon fill="white" stroke="#666666" points="278,-144.5 161,-144.5 161,-125.5 278,-125.5 278,-144.5"/>
<text text-anchor="middle" x="219.5" y="-132.5" font-family="Helvetica,sans-Serif" font-size="10.00">GameComponentClass</text>
</a>
</g>
</g>
<!-- Node2&#45;&gt;Node1 -->
<g id="edge1" class="edge">
<title>Node2&#45;&gt;Node1</title>
<path fill="none" stroke="#63b8ff" d="M289.15,-135C297.17,-135 305.4,-135 313.52,-135"/>
<polygon fill="#63b8ff" stroke="#63b8ff" points="289.36,-131.5 279.36,-135 289.36,-138.5 289.36,-131.5"/>
</g>
<!-- Node3 -->
<g id="node3" class="node">
<title>Node3</title>
<g id="a_node3"><a xlink:title=" ">
<polygon fill="white" stroke="#666666" points="125,-144.5 0,-144.5 0,-125.5 125,-125.5 125,-144.5"/>
<text text-anchor="middle" x="62.5" y="-132.5" font-family="Helvetica,sans-Serif" font-size="10.00">GenericComponentClass</text>
</a>
</g>
</g>
<!-- Node3&#45;&gt;Node2 -->
<g id="edge2" class="edge">
<title>Node3&#45;&gt;Node2</title>
<path fill="none" stroke="#63b8ff" d="M135.96,-135C144.2,-135 152.52,-135 160.53,-135"/>
<polygon fill="#63b8ff" stroke="#63b8ff" points="136.21,-131.5 126.21,-135 136.21,-138.5 136.21,-131.5"/>
</g>
</g>
</svg>
