<?xml version="1.0" encoding="UTF-8" standalone="no"?>
<!DOCTYPE svg PUBLIC "-//W3C//DTD SVG 1.1//EN"
 "http://www.w3.org/Graphics/SVG/1.1/DTD/svg11.dtd">
<!-- Generated by graphviz version 8.0.2 (20230410.1723)
 -->
<!-- Title: SCR_BasePlayerBudgetEditorAttribute Pages: 1 -->
<svg width="719pt" height="182pt"
 viewBox="0.00 0.00 719.00 182.00" xmlns="http://www.w3.org/2000/svg" xmlns:xlink="http://www.w3.org/1999/xlink">
<g id="graph0" class="graph" transform="scale(1 1) rotate(0) translate(4 178)">
<title>SCR_BasePlayerBudgetEditorAttribute</title>
<!-- Node1 -->
<g id="node1" class="node">
<title>Node1</title>
<g id="a_node1"><a xlink:title="Modes and Budget attribute for getting and setting varriables in Editor Attribute window.">
<polygon fill="#999999" stroke="#666666" points="515,-102 366,-102 366,-72 515,-72 515,-102"/>
<text text-anchor="start" x="374" y="-90" font-family="Helvetica,sans-Serif" font-size="10.00">SCR_BasePlayerBudgetEditor</text>
<text text-anchor="middle" x="440.5" y="-79" font-family="Helvetica,sans-Serif" font-size="10.00">Attribute</text>
</a>
</g>
</g>
<!-- Node4 -->
<g id="node4" class="node">
<title>Node4</title>
<g id="a_node4"><a xlink:href="interfaceSCR__PlayerBudgetAIEditorAttribute.html" target="_top" xlink:title="Modes and Budget attribute for getting and setting varriables in Editor Attribute window.">
<polygon fill="white" stroke="#666666" points="698.5,-174 563.5,-174 563.5,-144 698.5,-144 698.5,-174"/>
<text text-anchor="start" x="571.5" y="-162" font-family="Helvetica,sans-Serif" font-size="10.00">SCR_PlayerBudgetAIEditor</text>
<text text-anchor="middle" x="631" y="-151" font-family="Helvetica,sans-Serif" font-size="10.00">Attribute</text>
</a>
</g>
</g>
<!-- Node1&#45;&gt;Node4 -->
<g id="edge3" class="edge">
<title>Node1&#45;&gt;Node4</title>
<path fill="none" stroke="#63b8ff" d="M483.48,-106.79C503.67,-115.95 528.35,-126.63 551,-135 559.07,-137.98 567.69,-140.88 576.17,-143.58"/>
<polygon fill="#63b8ff" stroke="#63b8ff" points="485.22,-103.28 474.67,-102.3 482.31,-109.65 485.22,-103.28"/>
</g>
<!-- Node5 -->
<g id="node5" class="node">
<title>Node5</title>
<g id="a_node5"><a xlink:href="interfaceSCR__PlayerBudgetPropEditorAttribute.html" target="_top" xlink:title="Modes and Budget attribute for getting and setting varriables in Editor Attribute window.">
<polygon fill="white" stroke="#666666" points="704,-126 558,-126 558,-96 704,-96 704,-126"/>
<text text-anchor="start" x="566" y="-114" font-family="Helvetica,sans-Serif" font-size="10.00">SCR_PlayerBudgetPropEditor</text>
<text text-anchor="middle" x="631" y="-103" font-family="Helvetica,sans-Serif" font-size="10.00">Attribute</text>
</a>
</g>
</g>
<!-- Node1&#45;&gt;Node5 -->
<g id="edge4" class="edge">
<title>Node1&#45;&gt;Node5</title>
<path fill="none" stroke="#63b8ff" d="M526.33,-97.8C536.84,-99.14 547.5,-100.5 557.8,-101.81"/>
<polygon fill="#63b8ff" stroke="#63b8ff" points="526.82,-94.21 516.46,-96.42 525.94,-101.15 526.82,-94.21"/>
</g>
<!-- Node6 -->
<g id="node6" class="node">
<title>Node6</title>
<g id="a_node6"><a xlink:href="interfaceSCR__PlayerBudgetSystemEditorAttribute.html" target="_top" xlink:title="Modes and Budget attribute for getting and setting varriables in Editor Attribute window.">
<polygon fill="white" stroke="#666666" points="711,-78 551,-78 551,-48 711,-48 711,-78"/>
<text text-anchor="start" x="559" y="-66" font-family="Helvetica,sans-Serif" font-size="10.00">SCR_PlayerBudgetSystemEditor</text>
<text text-anchor="middle" x="631" y="-55" font-family="Helvetica,sans-Serif" font-size="10.00">Attribute</text>
</a>
</g>
</g>
<!-- Node1&#45;&gt;Node6 -->
<g id="edge5" class="edge">
<title>Node1&#45;&gt;Node6</title>
<path fill="none" stroke="#63b8ff" d="M526.12,-76.23C534.28,-75.19 542.54,-74.13 550.66,-73.1"/>
<polygon fill="#63b8ff" stroke="#63b8ff" points="525.94,-72.85 516.46,-77.58 526.82,-79.79 525.94,-72.85"/>
</g>
<!-- Node7 -->
<g id="node7" class="node">
<title>Node7</title>
<g id="a_node7"><a xlink:href="interfaceSCR__PlayerBudgetVehicleEditorAttribute.html" target="_top" xlink:title="Modes and Budget attribute for getting and setting varriables in Editor Attribute window.">
<polygon fill="white" stroke="#666666" points="710,-30 552,-30 552,0 710,0 710,-30"/>
<text text-anchor="start" x="560" y="-18" font-family="Helvetica,sans-Serif" font-size="10.00">SCR_PlayerBudgetVehicleEditor</text>
<text text-anchor="middle" x="631" y="-7" font-family="Helvetica,sans-Serif" font-size="10.00">Attribute</text>
</a>
</g>
</g>
<!-- Node1&#45;&gt;Node7 -->
<g id="edge6" class="edge">
<title>Node1&#45;&gt;Node7</title>
<path fill="none" stroke="#63b8ff" d="M483.48,-67.21C503.67,-58.05 528.35,-47.37 551,-39 559.07,-36.02 567.69,-33.12 576.17,-30.42"/>
<polygon fill="#63b8ff" stroke="#63b8ff" points="482.31,-64.35 474.67,-71.7 485.22,-70.72 482.31,-64.35"/>
</g>
<!-- Node2 -->
<g id="node2" class="node">
<title>Node2</title>
<g id="a_node2"><a xlink:href="interfaceSCR__BaseValueListEditorAttribute.html" target="_top" xlink:title="Attribute base for slider values for other attributes to inherent from.">
<polygon fill="white" stroke="#666666" points="330,-96.5 163,-96.5 163,-77.5 330,-77.5 330,-96.5"/>
<text text-anchor="middle" x="246.5" y="-84.5" font-family="Helvetica,sans-Serif" font-size="10.00">SCR_BaseValueListEditorAttribute</text>
</a>
</g>
</g>
<!-- Node2&#45;&gt;Node1 -->
<g id="edge1" class="edge">
<title>Node2&#45;&gt;Node1</title>
<path fill="none" stroke="#63b8ff" d="M341.13,-87C349.39,-87 357.66,-87 365.72,-87"/>
<polygon fill="#63b8ff" stroke="#63b8ff" points="341.32,-83.5 331.32,-87 341.32,-90.5 341.32,-83.5"/>
</g>
<!-- Node3 -->
<g id="node3" class="node">
<title>Node3</title>
<g id="a_node3"><a xlink:href="interfaceSCR__BaseEditorAttribute.html" target="_top" xlink:title="Base Attribute Script for other attributes to inherent from to get and set varriables in Editor Attri...">
<polygon fill="white" stroke="#666666" points="127,-96.5 0,-96.5 0,-77.5 127,-77.5 127,-96.5"/>
<text text-anchor="middle" x="63.5" y="-84.5" font-family="Helvetica,sans-Serif" font-size="10.00">SCR_BaseEditorAttribute</text>
</a>
</g>
</g>
<!-- Node3&#45;&gt;Node2 -->
<g id="edge2" class="edge">
<title>Node3&#45;&gt;Node2</title>
<path fill="none" stroke="#63b8ff" d="M138.18,-87C146.27,-87 154.54,-87 162.73,-87"/>
<polygon fill="#63b8ff" stroke="#63b8ff" points="138.3,-83.5 128.3,-87 138.3,-90.5 138.3,-83.5"/>
</g>
</g>
</svg>
