<?xml version="1.0" encoding="UTF-8" standalone="no"?>
<!DOCTYPE svg PUBLIC "-//W3C//DTD SVG 1.1//EN"
 "http://www.w3.org/Graphics/SVG/1.1/DTD/svg11.dtd">
<!-- Generated by graphviz version 8.0.2 (20230410.1723)
 -->
<!-- Title: SCR_ArsenalOutfitEditorAttribute Pages: 1 -->
<svg width="169pt" height="379pt"
 viewBox="0.00 0.00 169.00 379.00" xmlns="http://www.w3.org/2000/svg" xmlns:xlink="http://www.w3.org/1999/xlink">
<g id="graph0" class="graph" transform="scale(1 1) rotate(0) translate(4 375)">
<title>SCR_ArsenalOutfitEditorAttribute</title>
<!-- Node1 -->
<g id="node1" class="node">
<title>Node1</title>
<g id="a_node1"><a xlink:title=" ">
<polygon fill="#999999" stroke="#666666" points="161,-19 0,-19 0,0 161,0 161,-19"/>
<text text-anchor="middle" x="80.5" y="-7" font-family="Helvetica,sans-Serif" font-size="10.00">SCR_ArsenalOutfitEditorAttribute</text>
</a>
</g>
</g>
<!-- Node2 -->
<g id="node2" class="node">
<title>Node2</title>
<g id="a_node2"><a xlink:href="interfaceSCR__ArsenalBaseEditorAttribute.html" target="_top" xlink:title=" ">
<polygon fill="white" stroke="#666666" points="160.5,-74 0.5,-74 0.5,-55 160.5,-55 160.5,-74"/>
<text text-anchor="middle" x="80.5" y="-62" font-family="Helvetica,sans-Serif" font-size="10.00">SCR_ArsenalBaseEditorAttribute</text>
</a>
</g>
</g>
<!-- Node2&#45;&gt;Node1 -->
<g id="edge1" class="edge">
<title>Node2&#45;&gt;Node1</title>
<path fill="none" stroke="#63b8ff" d="M80.5,-43.93C80.5,-35.53 80.5,-26.13 80.5,-19.44"/>
<polygon fill="#63b8ff" stroke="#63b8ff" points="77,-43.75 80.5,-53.75 84,-43.75 77,-43.75"/>
</g>
<!-- Node3 -->
<g id="node3" class="node">
<title>Node3</title>
<g id="a_node3"><a xlink:href="interfaceSCR__LoadoutBaseEditorAttribute.html" target="_top" xlink:title=" ">
<polygon fill="white" stroke="#666666" points="161,-129 0,-129 0,-110 161,-110 161,-129"/>
<text text-anchor="middle" x="80.5" y="-117" font-family="Helvetica,sans-Serif" font-size="10.00">SCR_LoadoutBaseEditorAttribute</text>
</a>
</g>
</g>
<!-- Node3&#45;&gt;Node2 -->
<g id="edge2" class="edge">
<title>Node3&#45;&gt;Node2</title>
<path fill="none" stroke="#63b8ff" d="M80.5,-98.93C80.5,-90.53 80.5,-81.13 80.5,-74.44"/>
<polygon fill="#63b8ff" stroke="#63b8ff" points="77,-98.75 80.5,-108.75 84,-98.75 77,-98.75"/>
</g>
<!-- Node4 -->
<g id="node4" class="node">
<title>Node4</title>
<g id="a_node4"><a xlink:href="interfaceSCR__BaseMultiSelectPresetsEditorAttribute.html" target="_top" xlink:title=" ">
<polygon fill="white" stroke="#666666" points="154,-195 7,-195 7,-165 154,-165 154,-195"/>
<text text-anchor="start" x="15" y="-183" font-family="Helvetica,sans-Serif" font-size="10.00">SCR_BaseMultiSelectPresets</text>
<text text-anchor="middle" x="80.5" y="-172" font-family="Helvetica,sans-Serif" font-size="10.00">EditorAttribute</text>
</a>
</g>
</g>
<!-- Node4&#45;&gt;Node3 -->
<g id="edge3" class="edge">
<title>Node4&#45;&gt;Node3</title>
<path fill="none" stroke="#63b8ff" d="M80.5,-153.59C80.5,-144.85 80.5,-135.65 80.5,-129.18"/>
<polygon fill="#63b8ff" stroke="#63b8ff" points="77,-153.54 80.5,-163.54 84,-153.54 77,-153.54"/>
</g>
<!-- Node5 -->
<g id="node5" class="node">
<title>Node5</title>
<g id="a_node5"><a xlink:href="interfaceSCR__BasePresetsEditorAttribute.html" target="_top" xlink:title="Attribute base for Name, icon and float value for other attributes to inherent from.">
<polygon fill="white" stroke="#666666" points="161,-250 0,-250 0,-231 161,-231 161,-250"/>
<text text-anchor="middle" x="80.5" y="-238" font-family="Helvetica,sans-Serif" font-size="10.00">SCR_BasePresetsEditorAttribute</text>
</a>
</g>
</g>
<!-- Node5&#45;&gt;Node4 -->
<g id="edge4" class="edge">
<title>Node5&#45;&gt;Node4</title>
<path fill="none" stroke="#63b8ff" d="M80.5,-220.08C80.5,-211.92 80.5,-202.6 80.5,-195.11"/>
<polygon fill="#63b8ff" stroke="#63b8ff" points="77,-219.87 80.5,-229.87 84,-219.87 77,-219.87"/>
</g>
<!-- Node6 -->
<g id="node6" class="node">
<title>Node6</title>
<g id="a_node6"><a xlink:href="interfaceSCR__BaseFloatValueHolderEditorAttribute.html" target="_top" xlink:title="Attribute base for Name, icon and float value for other attributes to inherent from.">
<polygon fill="white" stroke="#666666" points="150,-316 11,-316 11,-286 150,-286 150,-316"/>
<text text-anchor="start" x="19" y="-304" font-family="Helvetica,sans-Serif" font-size="10.00">SCR_BaseFloatValueHolder</text>
<text text-anchor="middle" x="80.5" y="-293" font-family="Helvetica,sans-Serif" font-size="10.00">EditorAttribute</text>
</a>
</g>
</g>
<!-- Node6&#45;&gt;Node5 -->
<g id="edge5" class="edge">
<title>Node6&#45;&gt;Node5</title>
<path fill="none" stroke="#63b8ff" d="M80.5,-274.59C80.5,-265.85 80.5,-256.65 80.5,-250.18"/>
<polygon fill="#63b8ff" stroke="#63b8ff" points="77,-274.54 80.5,-284.54 84,-274.54 77,-274.54"/>
</g>
<!-- Node7 -->
<g id="node7" class="node">
<title>Node7</title>
<g id="a_node7"><a xlink:href="interfaceSCR__BaseEditorAttribute.html" target="_top" xlink:title="Base Attribute Script for other attributes to inherent from to get and set varriables in Editor Attri...">
<polygon fill="white" stroke="#666666" points="144,-371 17,-371 17,-352 144,-352 144,-371"/>
<text text-anchor="middle" x="80.5" y="-359" font-family="Helvetica,sans-Serif" font-size="10.00">SCR_BaseEditorAttribute</text>
</a>
</g>
</g>
<!-- Node7&#45;&gt;Node6 -->
<g id="edge6" class="edge">
<title>Node7&#45;&gt;Node6</title>
<path fill="none" stroke="#63b8ff" d="M80.5,-341.08C80.5,-332.92 80.5,-323.6 80.5,-316.11"/>
<polygon fill="#63b8ff" stroke="#63b8ff" points="77,-340.87 80.5,-350.87 84,-340.87 77,-340.87"/>
</g>
</g>
</svg>
