<?xml version="1.0" encoding="UTF-8" standalone="no"?>
<!DOCTYPE svg PUBLIC "-//W3C//DTD SVG 1.1//EN"
 "http://www.w3.org/Graphics/SVG/1.1/DTD/svg11.dtd">
<!-- Generated by graphviz version 8.0.2 (20230410.1723)
 -->
<!-- Title: SCR_ModDetailsSuperMenuComponent Pages: 1 -->
<svg width="198pt" height="192pt"
 viewBox="0.00 0.00 198.00 192.00" xmlns="http://www.w3.org/2000/svg" xmlns:xlink="http://www.w3.org/1999/xlink">
<g id="graph0" class="graph" transform="scale(1 1) rotate(0) translate(4 188)">
<title>SCR_ModDetailsSuperMenuComponent</title>
<!-- Node1 -->
<g id="node1" class="node">
<title>Node1</title>
<g id="a_node1"><a xlink:title=" ">
<polygon fill="#999999" stroke="#666666" points="190,-19 0,-19 0,0 190,0 190,-19"/>
<text text-anchor="middle" x="95" y="-7" font-family="Helvetica,sans-Serif" font-size="10.00">SCR_ModDetailsSuperMenuComponent</text>
</a>
</g>
</g>
<!-- Node2 -->
<g id="node2" class="node">
<title>Node2</title>
<g id="a_node2"><a xlink:href="interfaceSCR__SuperMenuComponent.html" target="_top" xlink:title="Handles tab menus.">
<polygon fill="white" stroke="#666666" points="165.5,-74 24.5,-74 24.5,-55 165.5,-55 165.5,-74"/>
<text text-anchor="middle" x="95" y="-62" font-family="Helvetica,sans-Serif" font-size="10.00">SCR_SuperMenuComponent</text>
</a>
</g>
</g>
<!-- Node2&#45;&gt;Node1 -->
<g id="edge1" class="edge">
<title>Node2&#45;&gt;Node1</title>
<path fill="none" stroke="#63b8ff" d="M95,-43.93C95,-35.53 95,-26.13 95,-19.44"/>
<polygon fill="#63b8ff" stroke="#63b8ff" points="91.5,-43.75 95,-53.75 98.5,-43.75 91.5,-43.75"/>
</g>
<!-- Node3 -->
<g id="node3" class="node">
<title>Node3</title>
<g id="a_node3"><a xlink:href="interfaceSCR__ScriptedWidgetComponent.html" target="_top" xlink:title=" ">
<polygon fill="white" stroke="#666666" points="174,-129 16,-129 16,-110 174,-110 174,-129"/>
<text text-anchor="middle" x="95" y="-117" font-family="Helvetica,sans-Serif" font-size="10.00">SCR_ScriptedWidgetComponent</text>
</a>
</g>
</g>
<!-- Node3&#45;&gt;Node2 -->
<g id="edge2" class="edge">
<title>Node3&#45;&gt;Node2</title>
<path fill="none" stroke="#63b8ff" d="M95,-98.93C95,-90.53 95,-81.13 95,-74.44"/>
<polygon fill="#63b8ff" stroke="#63b8ff" points="91.5,-98.75 95,-108.75 98.5,-98.75 91.5,-98.75"/>
</g>
<!-- Node4 -->
<g id="node4" class="node">
<title>Node4</title>
<g id="a_node4"><a xlink:title=" ">
<polygon fill="white" stroke="#666666" points="161.5,-184 28.5,-184 28.5,-165 161.5,-165 161.5,-184"/>
<text text-anchor="middle" x="95" y="-172" font-family="Helvetica,sans-Serif" font-size="10.00">ScriptedWidgetComponent</text>
</a>
</g>
</g>
<!-- Node4&#45;&gt;Node3 -->
<g id="edge3" class="edge">
<title>Node4&#45;&gt;Node3</title>
<path fill="none" stroke="#63b8ff" d="M95,-153.93C95,-145.53 95,-136.13 95,-129.44"/>
<polygon fill="#63b8ff" stroke="#63b8ff" points="91.5,-153.75 95,-163.75 98.5,-153.75 91.5,-153.75"/>
</g>
</g>
</svg>
