<?xml version="1.0" encoding="UTF-8" standalone="no"?>
<!DOCTYPE svg PUBLIC "-//W3C//DTD SVG 1.1//EN"
 "http://www.w3.org/Graphics/SVG/1.1/DTD/svg11.dtd">
<!-- Generated by graphviz version 8.0.2 (20230410.1723)
 -->
<!-- Title: SCR_DeployMenuBase Pages: 1 -->
<svg width="427pt" height="247pt"
 viewBox="0.00 0.00 426.50 247.00" xmlns="http://www.w3.org/2000/svg" xmlns:xlink="http://www.w3.org/1999/xlink">
<g id="graph0" class="graph" transform="scale(1 1) rotate(0) translate(4 243)">
<title>SCR_DeployMenuBase</title>
<!-- Node1 -->
<g id="node1" class="node">
<title>Node1</title>
<g id="a_node1"><a xlink:title="Base deploy menu class.">
<polygon fill="#999999" stroke="#666666" points="258,-129 139,-129 139,-110 258,-110 258,-129"/>
<text text-anchor="middle" x="198.5" y="-117" font-family="Helvetica,sans-Serif" font-size="10.00">SCR_DeployMenuBase</text>
</a>
</g>
</g>
<!-- Node4 -->
<g id="node4" class="node">
<title>Node4</title>
<g id="a_node4"><a xlink:href="interfaceSCR__DeployMenuMain.html" target="_top" xlink:title="Main deploy menu with the map present.">
<polygon fill="white" stroke="#666666" points="117,-74 0,-74 0,-55 117,-55 117,-74"/>
<text text-anchor="middle" x="58.5" y="-62" font-family="Helvetica,sans-Serif" font-size="10.00">SCR_DeployMenuMain</text>
</a>
</g>
</g>
<!-- Node1&#45;&gt;Node4 -->
<g id="edge3" class="edge">
<title>Node1&#45;&gt;Node4</title>
<path fill="none" stroke="#63b8ff" d="M164.72,-105.71C139.1,-96.01 104.54,-82.93 81.9,-74.36"/>
<polygon fill="#63b8ff" stroke="#63b8ff" points="163.16,-109.24 173.75,-109.51 165.64,-102.7 163.16,-109.24"/>
</g>
<!-- Node5 -->
<g id="node5" class="node">
<title>Node5</title>
<g id="a_node5"><a xlink:href="interfaceSCR__RoleSelectionMenu.html" target="_top" xlink:title="Role selection menu for setting up player faction, group and loadout.">
<polygon fill="white" stroke="#666666" points="261.5,-74 135.5,-74 135.5,-55 261.5,-55 261.5,-74"/>
<text text-anchor="middle" x="198.5" y="-62" font-family="Helvetica,sans-Serif" font-size="10.00">SCR_RoleSelectionMenu</text>
</a>
</g>
</g>
<!-- Node1&#45;&gt;Node5 -->
<g id="edge4" class="edge">
<title>Node1&#45;&gt;Node5</title>
<path fill="none" stroke="#63b8ff" d="M198.5,-98.93C198.5,-90.53 198.5,-81.13 198.5,-74.44"/>
<polygon fill="#63b8ff" stroke="#63b8ff" points="195,-98.75 198.5,-108.75 202,-98.75 195,-98.75"/>
</g>
<!-- Node6 -->
<g id="node6" class="node">
<title>Node6</title>
<g id="a_node6"><a xlink:href="interfaceSCR__WelcomeScreenMenu.html" target="_top" xlink:title="Class that handles Welcome screen menu.">
<polygon fill="white" stroke="#666666" points="417.5,-74 279.5,-74 279.5,-55 417.5,-55 417.5,-74"/>
<text text-anchor="middle" x="348.5" y="-62" font-family="Helvetica,sans-Serif" font-size="10.00">SCR_WelcomeScreenMenu</text>
</a>
</g>
</g>
<!-- Node1&#45;&gt;Node6 -->
<g id="edge5" class="edge">
<title>Node1&#45;&gt;Node6</title>
<path fill="none" stroke="#63b8ff" d="M234.29,-105.85C261.69,-96.17 298.8,-83.06 323.18,-74.45"/>
<polygon fill="#63b8ff" stroke="#63b8ff" points="233.21,-102.88 224.95,-109.51 235.54,-109.48 233.21,-102.88"/>
</g>
<!-- Node2 -->
<g id="node2" class="node">
<title>Node2</title>
<g id="a_node2"><a xlink:href="interfaceChimeraMenuBase.html" target="_top" xlink:title="Constant variables used in various menus.">
<polygon fill="white" stroke="#666666" points="248,-184 149,-184 149,-165 248,-165 248,-184"/>
<text text-anchor="middle" x="198.5" y="-172" font-family="Helvetica,sans-Serif" font-size="10.00">ChimeraMenuBase</text>
</a>
</g>
</g>
<!-- Node2&#45;&gt;Node1 -->
<g id="edge1" class="edge">
<title>Node2&#45;&gt;Node1</title>
<path fill="none" stroke="#63b8ff" d="M198.5,-153.93C198.5,-145.53 198.5,-136.13 198.5,-129.44"/>
<polygon fill="#63b8ff" stroke="#63b8ff" points="195,-153.75 198.5,-163.75 202,-153.75 195,-153.75"/>
</g>
<!-- Node3 -->
<g id="node3" class="node">
<title>Node3</title>
<g id="a_node3"><a xlink:title=" ">
<polygon fill="white" stroke="#666666" points="230,-239 167,-239 167,-220 230,-220 230,-239"/>
<text text-anchor="middle" x="198.5" y="-227" font-family="Helvetica,sans-Serif" font-size="10.00">MenuBase</text>
</a>
</g>
</g>
<!-- Node3&#45;&gt;Node2 -->
<g id="edge2" class="edge">
<title>Node3&#45;&gt;Node2</title>
<path fill="none" stroke="#63b8ff" d="M198.5,-208.93C198.5,-200.53 198.5,-191.13 198.5,-184.44"/>
<polygon fill="#63b8ff" stroke="#63b8ff" points="195,-208.75 198.5,-218.75 202,-208.75 195,-208.75"/>
</g>
<!-- Node7 -->
<g id="node7" class="node">
<title>Node7</title>
<g id="a_node7"><a xlink:href="interfaceSCR__DebriefingScreenMenu.html" target="_top" xlink:title=" ">
<polygon fill="white" stroke="#666666" points="418.5,-19 278.5,-19 278.5,0 418.5,0 418.5,-19"/>
<text text-anchor="middle" x="348.5" y="-7" font-family="Helvetica,sans-Serif" font-size="10.00">SCR_DebriefingScreenMenu</text>
</a>
</g>
</g>
<!-- Node6&#45;&gt;Node7 -->
<g id="edge6" class="edge">
<title>Node6&#45;&gt;Node7</title>
<path fill="none" stroke="#63b8ff" d="M348.5,-43.93C348.5,-35.53 348.5,-26.13 348.5,-19.44"/>
<polygon fill="#63b8ff" stroke="#63b8ff" points="345,-43.75 348.5,-53.75 352,-43.75 345,-43.75"/>
</g>
</g>
</svg>
