<?xml version="1.0" encoding="UTF-8" standalone="no"?>
<!DOCTYPE svg PUBLIC "-//W3C//DTD SVG 1.1//EN"
 "http://www.w3.org/Graphics/SVG/1.1/DTD/svg11.dtd">
<!-- Generated by graphviz version 8.0.2 (20230410.1723)
 -->
<!-- Title: SCR_SettingsSubMenuBase Pages: 1 -->
<svg width="855pt" height="261pt"
 viewBox="0.00 0.00 855.00 261.00" xmlns="http://www.w3.org/2000/svg" xmlns:xlink="http://www.w3.org/1999/xlink">
<g id="graph0" class="graph" transform="scale(1 1) rotate(0) translate(4 257)">
<title>SCR_SettingsSubMenuBase</title>
<!-- Node1 -->
<g id="node1" class="node">
<title>Node1</title>
<g id="a_node1"><a xlink:title=" ">
<polygon fill="#999999" stroke="#666666" points="647,-142 505,-142 505,-123 647,-123 647,-142"/>
<text text-anchor="middle" x="576" y="-130" font-family="Helvetica,sans-Serif" font-size="10.00">SCR_SettingsSubMenuBase</text>
</a>
</g>
</g>
<!-- Node5 -->
<g id="node5" class="node">
<title>Node5</title>
<g id="a_node5"><a xlink:href="interfaceSCR__AudioSettingsSubMenu.html" target="_top" xlink:title=" ">
<polygon fill="white" stroke="#666666" points="837,-253 693,-253 693,-234 837,-234 837,-253"/>
<text text-anchor="middle" x="765" y="-241" font-family="Helvetica,sans-Serif" font-size="10.00">SCR_AudioSettingsSubMenu</text>
</a>
</g>
</g>
<!-- Node1&#45;&gt;Node5 -->
<g id="edge4" class="edge">
<title>Node1&#45;&gt;Node5</title>
<path fill="none" stroke="#63b8ff" d="M592.37,-150.65C611.42,-171.94 645.94,-206.7 683,-225.5 689.42,-228.76 696.43,-231.43 703.54,-233.62"/>
<polygon fill="#63b8ff" stroke="#63b8ff" points="594.4,-148.67 585.19,-143.44 589.13,-153.27 594.4,-148.67"/>
</g>
<!-- Node6 -->
<g id="node6" class="node">
<title>Node6</title>
<g id="a_node6"><a xlink:href="interfaceSCR__EditorSettingsSubMenu.html" target="_top" xlink:title=" ">
<polygon fill="white" stroke="#666666" points="837.5,-216 692.5,-216 692.5,-197 837.5,-197 837.5,-216"/>
<text text-anchor="middle" x="765" y="-204" font-family="Helvetica,sans-Serif" font-size="10.00">SCR_EditorSettingsSubMenu</text>
</a>
</g>
</g>
<!-- Node1&#45;&gt;Node6 -->
<g id="edge5" class="edge">
<title>Node1&#45;&gt;Node6</title>
<path fill="none" stroke="#63b8ff" d="M601.67,-147.97C622.62,-160.5 653.83,-177.77 683,-188.5 691.52,-191.63 700.75,-194.31 709.83,-196.57"/>
<polygon fill="#63b8ff" stroke="#63b8ff" points="603.91,-144.63 593.55,-142.42 600.27,-150.61 603.91,-144.63"/>
</g>
<!-- Node7 -->
<g id="node7" class="node">
<title>Node7</title>
<g id="a_node7"><a xlink:href="interfaceSCR__GameplaySettingsSubMenu.html" target="_top" xlink:title=" ">
<polygon fill="white" stroke="#666666" points="847,-179 683,-179 683,-160 847,-160 847,-179"/>
<text text-anchor="middle" x="765" y="-167" font-family="Helvetica,sans-Serif" font-size="10.00">SCR_GameplaySettingsSubMenu</text>
</a>
</g>
</g>
<!-- Node1&#45;&gt;Node7 -->
<g id="edge6" class="edge">
<title>Node1&#45;&gt;Node7</title>
<path fill="none" stroke="#63b8ff" d="M637.77,-144.52C662.34,-149.38 690.36,-154.93 713.75,-159.56"/>
<polygon fill="#63b8ff" stroke="#63b8ff" points="638.6,-140.92 628.11,-142.42 637.24,-147.79 638.6,-140.92"/>
</g>
<!-- Node8 -->
<g id="node8" class="node">
<title>Node8</title>
<g id="a_node8"><a xlink:href="interfaceSCR__InterfaceSettingsSubMenu.html" target="_top" xlink:title=" ">
<polygon fill="white" stroke="#666666" points="843,-142 687,-142 687,-123 843,-123 843,-142"/>
<text text-anchor="middle" x="765" y="-130" font-family="Helvetica,sans-Serif" font-size="10.00">SCR_InterfaceSettingsSubMenu</text>
</a>
</g>
</g>
<!-- Node1&#45;&gt;Node8 -->
<g id="edge7" class="edge">
<title>Node1&#45;&gt;Node8</title>
<path fill="none" stroke="#63b8ff" d="M658.39,-132.5C667.8,-132.5 677.39,-132.5 686.75,-132.5"/>
<polygon fill="#63b8ff" stroke="#63b8ff" points="658.43,-129 648.43,-132.5 658.43,-136 658.43,-129"/>
</g>
<!-- Node9 -->
<g id="node9" class="node">
<title>Node9</title>
<g id="a_node9"><a xlink:href="interfaceSCR__KeybindSetting.html" target="_top" xlink:title=" ">
<polygon fill="white" stroke="#666666" points="819,-105 711,-105 711,-86 819,-86 819,-105"/>
<text text-anchor="middle" x="765" y="-93" font-family="Helvetica,sans-Serif" font-size="10.00">SCR_KeybindSetting</text>
</a>
</g>
</g>
<!-- Node1&#45;&gt;Node9 -->
<g id="edge8" class="edge">
<title>Node1&#45;&gt;Node9</title>
<path fill="none" stroke="#63b8ff" d="M637.77,-120.48C662.34,-115.62 690.36,-110.07 713.75,-105.44"/>
<polygon fill="#63b8ff" stroke="#63b8ff" points="637.24,-117.21 628.11,-122.58 638.6,-124.08 637.24,-117.21"/>
</g>
<!-- Node10 -->
<g id="node10" class="node">
<title>Node10</title>
<g id="a_node10"><a xlink:href="interfaceSCR__VideoSettingsConsoleSubMenu.html" target="_top" xlink:title=" ">
<polygon fill="white" stroke="#666666" points="834,-67.5 696,-67.5 696,-37.5 834,-37.5 834,-67.5"/>
<text text-anchor="start" x="704" y="-55.5" font-family="Helvetica,sans-Serif" font-size="10.00">SCR_VideoSettingsConsole</text>
<text text-anchor="middle" x="765" y="-44.5" font-family="Helvetica,sans-Serif" font-size="10.00">SubMenu</text>
</a>
</g>
</g>
<!-- Node1&#45;&gt;Node10 -->
<g id="edge9" class="edge">
<title>Node1&#45;&gt;Node10</title>
<path fill="none" stroke="#63b8ff" d="M602.61,-117.12C623.66,-104.94 654.55,-88.1 683,-76.5 690.61,-73.4 698.76,-70.51 706.86,-67.88"/>
<polygon fill="#63b8ff" stroke="#63b8ff" points="601.26,-114.45 594.4,-122.52 604.79,-120.49 601.26,-114.45"/>
</g>
<!-- Node11 -->
<g id="node11" class="node">
<title>Node11</title>
<g id="a_node11"><a xlink:href="interfaceSCR__VideoSettingsSubMenu.html" target="_top" xlink:title=" ">
<polygon fill="white" stroke="#666666" points="837,-19 693,-19 693,0 837,0 837,-19"/>
<text text-anchor="middle" x="765" y="-7" font-family="Helvetica,sans-Serif" font-size="10.00">SCR_VideoSettingsSubMenu</text>
</a>
</g>
</g>
<!-- Node1&#45;&gt;Node11 -->
<g id="edge10" class="edge">
<title>Node1&#45;&gt;Node11</title>
<path fill="none" stroke="#63b8ff" d="M590.56,-113.99C608.84,-90.41 643.69,-50.13 683,-28.5 689.71,-24.81 697.11,-21.83 704.63,-19.43"/>
<polygon fill="#63b8ff" stroke="#63b8ff" points="587.21,-111.61 583.97,-121.69 592.8,-115.83 587.21,-111.61"/>
</g>
<!-- Node2 -->
<g id="node2" class="node">
<title>Node2</title>
<g id="a_node2"><a xlink:href="interfaceSCR__SubMenuBase.html" target="_top" xlink:title=" ">
<polygon fill="white" stroke="#666666" points="469,-142 363,-142 363,-123 469,-123 469,-142"/>
<text text-anchor="middle" x="416" y="-130" font-family="Helvetica,sans-Serif" font-size="10.00">SCR_SubMenuBase</text>
</a>
</g>
</g>
<!-- Node2&#45;&gt;Node1 -->
<g id="edge1" class="edge">
<title>Node2&#45;&gt;Node1</title>
<path fill="none" stroke="#63b8ff" d="M480,-132.5C488.07,-132.5 496.38,-132.5 504.56,-132.5"/>
<polygon fill="#63b8ff" stroke="#63b8ff" points="480.17,-129 470.17,-132.5 480.17,-136 480.17,-129"/>
</g>
<!-- Node3 -->
<g id="node3" class="node">
<title>Node3</title>
<g id="a_node3"><a xlink:href="interfaceSCR__ScriptedWidgetComponent.html" target="_top" xlink:title=" ">
<polygon fill="white" stroke="#666666" points="327,-142 169,-142 169,-123 327,-123 327,-142"/>
<text text-anchor="middle" x="248" y="-130" font-family="Helvetica,sans-Serif" font-size="10.00">SCR_ScriptedWidgetComponent</text>
</a>
</g>
</g>
<!-- Node3&#45;&gt;Node2 -->
<g id="edge2" class="edge">
<title>Node3&#45;&gt;Node2</title>
<path fill="none" stroke="#63b8ff" d="M337.93,-132.5C346.44,-132.5 354.87,-132.5 362.85,-132.5"/>
<polygon fill="#63b8ff" stroke="#63b8ff" points="338.14,-129 328.14,-132.5 338.14,-136 338.14,-129"/>
</g>
<!-- Node4 -->
<g id="node4" class="node">
<title>Node4</title>
<g id="a_node4"><a xlink:title=" ">
<polygon fill="white" stroke="#666666" points="133,-142 0,-142 0,-123 133,-123 133,-142"/>
<text text-anchor="middle" x="66.5" y="-130" font-family="Helvetica,sans-Serif" font-size="10.00">ScriptedWidgetComponent</text>
</a>
</g>
</g>
<!-- Node4&#45;&gt;Node3 -->
<g id="edge3" class="edge">
<title>Node4&#45;&gt;Node3</title>
<path fill="none" stroke="#63b8ff" d="M144.25,-132.5C152.35,-132.5 160.59,-132.5 168.7,-132.5"/>
<polygon fill="#63b8ff" stroke="#63b8ff" points="144.32,-129 134.32,-132.5 144.32,-136 144.32,-129"/>
</g>
</g>
</svg>
