<?xml version="1.0" encoding="UTF-8" standalone="no"?>
<!DOCTYPE svg PUBLIC "-//W3C//DTD SVG 1.1//EN"
 "http://www.w3.org/Graphics/SVG/1.1/DTD/svg11.dtd">
<!-- Generated by graphviz version 8.0.2 (20230410.1723)
 -->
<!-- Title: BaseAimingComponent Pages: 1 -->
<svg width="435pt" height="247pt"
 viewBox="0.00 0.00 434.50 247.00" xmlns="http://www.w3.org/2000/svg" xmlns:xlink="http://www.w3.org/1999/xlink">
<g id="graph0" class="graph" transform="scale(1 1) rotate(0) translate(4 243)">
<title>BaseAimingComponent</title>
<!-- Node1 -->
<g id="node1" class="node">
<title>Node1</title>
<g id="a_node1"><a xlink:title=" ">
<polygon fill="#999999" stroke="#666666" points="356.5,-129 237.5,-129 237.5,-110 356.5,-110 356.5,-129"/>
<text text-anchor="middle" x="297" y="-117" font-family="Helvetica,sans-Serif" font-size="10.00">BaseAimingComponent</text>
</a>
</g>
</g>
<!-- Node4 -->
<g id="node4" class="node">
<title>Node4</title>
<g id="a_node4"><a xlink:href="interfaceAimingComponent.html" target="_top" xlink:title=" ">
<polygon fill="white" stroke="#666666" points="285,-74 189,-74 189,-55 285,-55 285,-74"/>
<text text-anchor="middle" x="237" y="-62" font-family="Helvetica,sans-Serif" font-size="10.00">AimingComponent</text>
</a>
</g>
</g>
<!-- Node1&#45;&gt;Node4 -->
<g id="edge3" class="edge">
<title>Node1&#45;&gt;Node4</title>
<path fill="none" stroke="#63b8ff" d="M278.73,-102.37C268.31,-93.16 255.65,-81.98 247.03,-74.36"/>
<polygon fill="#63b8ff" stroke="#63b8ff" points="276.01,-104.51 285.82,-108.51 280.64,-99.27 276.01,-104.51"/>
</g>
<!-- Node8 -->
<g id="node8" class="node">
<title>Node8</title>
<g id="a_node8"><a xlink:href="interfaceTurretSlotComponent.html" target="_top" xlink:title=" ">
<polygon fill="white" stroke="#666666" points="411,-74 303,-74 303,-55 411,-55 411,-74"/>
<text text-anchor="middle" x="357" y="-62" font-family="Helvetica,sans-Serif" font-size="10.00">TurretSlotComponent</text>
</a>
</g>
</g>
<!-- Node1&#45;&gt;Node8 -->
<g id="edge7" class="edge">
<title>Node1&#45;&gt;Node8</title>
<path fill="none" stroke="#63b8ff" d="M315.27,-102.37C325.69,-93.16 338.35,-81.98 346.97,-74.36"/>
<polygon fill="#63b8ff" stroke="#63b8ff" points="313.36,-99.27 308.18,-108.51 317.99,-104.51 313.36,-99.27"/>
</g>
<!-- Node2 -->
<g id="node2" class="node">
<title>Node2</title>
<g id="a_node2"><a xlink:href="interfaceGameComponent.html" target="_top" xlink:title=" ">
<polygon fill="white" stroke="#666666" points="343,-184 251,-184 251,-165 343,-165 343,-184"/>
<text text-anchor="middle" x="297" y="-172" font-family="Helvetica,sans-Serif" font-size="10.00">GameComponent</text>
</a>
</g>
</g>
<!-- Node2&#45;&gt;Node1 -->
<g id="edge1" class="edge">
<title>Node2&#45;&gt;Node1</title>
<path fill="none" stroke="#63b8ff" d="M297,-153.93C297,-145.53 297,-136.13 297,-129.44"/>
<polygon fill="#63b8ff" stroke="#63b8ff" points="293.5,-153.75 297,-163.75 300.5,-153.75 293.5,-153.75"/>
</g>
<!-- Node3 -->
<g id="node3" class="node">
<title>Node3</title>
<g id="a_node3"><a xlink:title=" ">
<polygon fill="white" stroke="#666666" points="347,-239 247,-239 247,-220 347,-220 347,-239"/>
<text text-anchor="middle" x="297" y="-227" font-family="Helvetica,sans-Serif" font-size="10.00">GenericComponent</text>
</a>
</g>
</g>
<!-- Node3&#45;&gt;Node2 -->
<g id="edge2" class="edge">
<title>Node3&#45;&gt;Node2</title>
<path fill="none" stroke="#63b8ff" d="M297,-208.93C297,-200.53 297,-191.13 297,-184.44"/>
<polygon fill="#63b8ff" stroke="#63b8ff" points="293.5,-208.75 297,-218.75 300.5,-208.75 293.5,-208.75"/>
</g>
<!-- Node5 -->
<g id="node5" class="node">
<title>Node5</title>
<g id="a_node5"><a xlink:href="interfaceCharacterAimingComponent.html" target="_top" xlink:title=" ">
<polygon fill="white" stroke="#666666" points="138,-19 0,-19 0,0 138,0 138,-19"/>
<text text-anchor="middle" x="69" y="-7" font-family="Helvetica,sans-Serif" font-size="10.00">CharacterAimingComponent</text>
</a>
</g>
</g>
<!-- Node4&#45;&gt;Node5 -->
<g id="edge4" class="edge">
<title>Node4&#45;&gt;Node5</title>
<path fill="none" stroke="#63b8ff" d="M198.13,-51.24C167.33,-41.52 125.03,-28.18 97.36,-19.45"/>
<polygon fill="#63b8ff" stroke="#63b8ff" points="196.91,-54.84 207.5,-54.51 199.02,-48.16 196.91,-54.84"/>
</g>
<!-- Node6 -->
<g id="node6" class="node">
<title>Node6</title>
<g id="a_node6"><a xlink:href="interfaceCharacterHeadAimingComponent.html" target="_top" xlink:title=" ">
<polygon fill="white" stroke="#666666" points="317.5,-19 156.5,-19 156.5,0 317.5,0 317.5,-19"/>
<text text-anchor="middle" x="237" y="-7" font-family="Helvetica,sans-Serif" font-size="10.00">CharacterHeadAimingComponent</text>
</a>
</g>
</g>
<!-- Node4&#45;&gt;Node6 -->
<g id="edge5" class="edge">
<title>Node4&#45;&gt;Node6</title>
<path fill="none" stroke="#63b8ff" d="M237,-43.93C237,-35.53 237,-26.13 237,-19.44"/>
<polygon fill="#63b8ff" stroke="#63b8ff" points="233.5,-43.75 237,-53.75 240.5,-43.75 233.5,-43.75"/>
</g>
<!-- Node7 -->
<g id="node7" class="node">
<title>Node7</title>
<g id="a_node7"><a xlink:href="interfaceTurretComponent.html" target="_top" xlink:title=" ">
<polygon fill="white" stroke="#666666" points="426.5,-19 335.5,-19 335.5,0 426.5,0 426.5,-19"/>
<text text-anchor="middle" x="381" y="-7" font-family="Helvetica,sans-Serif" font-size="10.00">TurretComponent</text>
</a>
</g>
</g>
<!-- Node4&#45;&gt;Node7 -->
<g id="edge6" class="edge">
<title>Node4&#45;&gt;Node7</title>
<path fill="none" stroke="#63b8ff" d="M271.74,-50.71C298.1,-41.01 333.64,-27.93 356.93,-19.36"/>
<polygon fill="#63b8ff" stroke="#63b8ff" points="270.6,-47.77 262.43,-54.51 273.02,-54.34 270.6,-47.77"/>
</g>
</g>
</svg>
