<?xml version="1.0" encoding="UTF-8" standalone="no"?>
<!DOCTYPE svg PUBLIC "-//W3C//DTD SVG 1.1//EN"
 "http://www.w3.org/Graphics/SVG/1.1/DTD/svg11.dtd">
<!-- Generated by graphviz version 8.0.2 (20230410.1723)
 -->
<!-- Title: SCR_ContentBrowserEditorUIComponent Pages: 1 -->
<svg width="177pt" height="203pt"
 viewBox="0.00 0.00 177.00 203.00" xmlns="http://www.w3.org/2000/svg" xmlns:xlink="http://www.w3.org/1999/xlink">
<g id="graph0" class="graph" transform="scale(1 1) rotate(0) translate(4 199)">
<title>SCR_ContentBrowserEditorUIComponent</title>
<!-- Node1 -->
<g id="node1" class="node">
<title>Node1</title>
<g id="a_node1"><a xlink:title="The Content Browser Window in the Content Browser Dialog.">
<polygon fill="#999999" stroke="#666666" points="153,-30 16,-30 16,0 153,0 153,-30"/>
<text text-anchor="start" x="24" y="-18" font-family="Helvetica,sans-Serif" font-size="10.00">SCR_ContentBrowserEditor</text>
<text text-anchor="middle" x="84.5" y="-7" font-family="Helvetica,sans-Serif" font-size="10.00">UIComponent</text>
</a>
</g>
</g>
<!-- Node2 -->
<g id="node2" class="node">
<title>Node2</title>
<g id="a_node2"><a xlink:href="interfaceSCR__BasePaginationUIComponent.html" target="_top" xlink:title=" ">
<polygon fill="white" stroke="#666666" points="169,-85 0,-85 0,-66 169,-66 169,-85"/>
<text text-anchor="middle" x="84.5" y="-73" font-family="Helvetica,sans-Serif" font-size="10.00">SCR_BasePaginationUIComponent</text>
</a>
</g>
</g>
<!-- Node2&#45;&gt;Node1 -->
<g id="edge1" class="edge">
<title>Node2&#45;&gt;Node1</title>
<path fill="none" stroke="#63b8ff" d="M84.5,-55.08C84.5,-46.92 84.5,-37.6 84.5,-30.11"/>
<polygon fill="#63b8ff" stroke="#63b8ff" points="81,-54.87 84.5,-64.87 88,-54.87 81,-54.87"/>
</g>
<!-- Node3 -->
<g id="node3" class="node">
<title>Node3</title>
<g id="a_node3"><a xlink:href="interfaceMenuRootSubComponent.html" target="_top" xlink:title="Widget component which is linked to menu it&#39;s part of.">
<polygon fill="white" stroke="#666666" points="148.5,-140 20.5,-140 20.5,-121 148.5,-121 148.5,-140"/>
<text text-anchor="middle" x="84.5" y="-128" font-family="Helvetica,sans-Serif" font-size="10.00">MenuRootSubComponent</text>
</a>
</g>
</g>
<!-- Node3&#45;&gt;Node2 -->
<g id="edge2" class="edge">
<title>Node3&#45;&gt;Node2</title>
<path fill="none" stroke="#63b8ff" d="M84.5,-109.93C84.5,-101.53 84.5,-92.13 84.5,-85.44"/>
<polygon fill="#63b8ff" stroke="#63b8ff" points="81,-109.75 84.5,-119.75 88,-109.75 81,-109.75"/>
</g>
<!-- Node4 -->
<g id="node4" class="node">
<title>Node4</title>
<g id="a_node4"><a xlink:title=" ">
<polygon fill="white" stroke="#666666" points="151,-195 18,-195 18,-176 151,-176 151,-195"/>
<text text-anchor="middle" x="84.5" y="-183" font-family="Helvetica,sans-Serif" font-size="10.00">ScriptedWidgetComponent</text>
</a>
</g>
</g>
<!-- Node4&#45;&gt;Node3 -->
<g id="edge3" class="edge">
<title>Node4&#45;&gt;Node3</title>
<path fill="none" stroke="#63b8ff" d="M84.5,-164.93C84.5,-156.53 84.5,-147.13 84.5,-140.44"/>
<polygon fill="#63b8ff" stroke="#63b8ff" points="81,-164.75 84.5,-174.75 88,-164.75 81,-164.75"/>
</g>
</g>
</svg>
