<?xml version="1.0" encoding="UTF-8" standalone="no"?>
<!DOCTYPE svg PUBLIC "-//W3C//DTD SVG 1.1//EN"
 "http://www.w3.org/Graphics/SVG/1.1/DTD/svg11.dtd">
<!-- Generated by graphviz version 8.0.2 (20230410.1723)
 -->
<!-- Title: SCR_VotingBase Pages: 1 -->
<svg width="402pt" height="192pt"
 viewBox="0.00 0.00 401.50 192.00" xmlns="http://www.w3.org/2000/svg" xmlns:xlink="http://www.w3.org/1999/xlink">
<g id="graph0" class="graph" transform="scale(1 1) rotate(0) translate(4 188)">
<title>SCR_VotingBase</title>
<!-- Node1 -->
<g id="node1" class="node">
<title>Node1</title>
<g id="a_node1"><a xlink:title="Base class for voting types.">
<polygon fill="#999999" stroke="#666666" points="177.5,-184 85.5,-184 85.5,-165 177.5,-165 177.5,-184"/>
<text text-anchor="middle" x="131.5" y="-172" font-family="Helvetica,sans-Serif" font-size="10.00">SCR_VotingBase</text>
</a>
</g>
</g>
<!-- Node2 -->
<g id="node2" class="node">
<title>Node2</title>
<g id="a_node2"><a xlink:href="interfaceSCR__VotingElection.html" target="_top" xlink:title="Election of specific type.">
<polygon fill="white" stroke="#666666" points="118,-129 13,-129 13,-110 118,-110 118,-129"/>
<text text-anchor="middle" x="65.5" y="-117" font-family="Helvetica,sans-Serif" font-size="10.00">SCR_VotingElection</text>
</a>
</g>
</g>
<!-- Node1&#45;&gt;Node2 -->
<g id="edge1" class="edge">
<title>Node1&#45;&gt;Node2</title>
<path fill="none" stroke="#63b8ff" d="M111.75,-157.64C100.23,-148.39 86.11,-137.05 76.53,-129.36"/>
<polygon fill="#63b8ff" stroke="#63b8ff" points="109.32,-160.98 119.3,-164.51 113.7,-155.52 109.32,-160.98"/>
</g>
<!-- Node3 -->
<g id="node3" class="node">
<title>Node3</title>
<g id="a_node3"><a xlink:href="interfaceSCR__VotingReferendum.html" target="_top" xlink:title="Referendum about specific outcome.">
<polygon fill="white" stroke="#666666" points="258.5,-129 136.5,-129 136.5,-110 258.5,-110 258.5,-129"/>
<text text-anchor="middle" x="197.5" y="-117" font-family="Helvetica,sans-Serif" font-size="10.00">SCR_VotingReferendum</text>
</a>
</g>
</g>
<!-- Node1&#45;&gt;Node3 -->
<g id="edge2" class="edge">
<title>Node1&#45;&gt;Node3</title>
<path fill="none" stroke="#63b8ff" d="M151.25,-157.64C162.77,-148.39 176.89,-137.05 186.47,-129.36"/>
<polygon fill="#63b8ff" stroke="#63b8ff" points="149.3,-155.52 143.7,-164.51 153.68,-160.98 149.3,-155.52"/>
</g>
<!-- Node4 -->
<g id="node4" class="node">
<title>Node4</title>
<g id="a_node4"><a xlink:href="interfaceSCR__VotingAdmin.html" target="_top" xlink:title=" ">
<polygon fill="white" stroke="#666666" points="127.5,-74 29.5,-74 29.5,-55 127.5,-55 127.5,-74"/>
<text text-anchor="middle" x="78.5" y="-62" font-family="Helvetica,sans-Serif" font-size="10.00">SCR_VotingAdmin</text>
</a>
</g>
</g>
<!-- Node3&#45;&gt;Node4 -->
<g id="edge3" class="edge">
<title>Node3&#45;&gt;Node4</title>
<path fill="none" stroke="#63b8ff" d="M167.33,-105.06C145.71,-95.43 117.21,-82.74 98.39,-74.36"/>
<polygon fill="#63b8ff" stroke="#63b8ff" points="165.75,-108.64 176.31,-109.51 168.6,-102.24 165.75,-108.64"/>
</g>
<!-- Node5 -->
<g id="node5" class="node">
<title>Node5</title>
<g id="a_node5"><a xlink:href="interfaceSCR__VotingEditorIn.html" target="_top" xlink:title=" ">
<polygon fill="white" stroke="#666666" points="249,-74 146,-74 146,-55 249,-55 249,-74"/>
<text text-anchor="middle" x="197.5" y="-62" font-family="Helvetica,sans-Serif" font-size="10.00">SCR_VotingEditorIn</text>
</a>
</g>
</g>
<!-- Node3&#45;&gt;Node5 -->
<g id="edge4" class="edge">
<title>Node3&#45;&gt;Node5</title>
<path fill="none" stroke="#63b8ff" d="M197.5,-98.93C197.5,-90.53 197.5,-81.13 197.5,-74.44"/>
<polygon fill="#63b8ff" stroke="#63b8ff" points="194,-98.75 197.5,-108.75 201,-98.75 194,-98.75"/>
</g>
<!-- Node8 -->
<g id="node8" class="node">
<title>Node8</title>
<g id="a_node8"><a xlink:href="interfaceSCR__VotingKick.html" target="_top" xlink:title=" ">
<polygon fill="white" stroke="#666666" points="370,-74 281,-74 281,-55 370,-55 370,-74"/>
<text text-anchor="middle" x="325.5" y="-62" font-family="Helvetica,sans-Serif" font-size="10.00">SCR_VotingKick</text>
</a>
</g>
</g>
<!-- Node3&#45;&gt;Node8 -->
<g id="edge7" class="edge">
<title>Node3&#45;&gt;Node8</title>
<path fill="none" stroke="#63b8ff" d="M229.32,-105.32C252.65,-95.67 283.68,-82.82 304.11,-74.36"/>
<polygon fill="#63b8ff" stroke="#63b8ff" points="228.11,-102.45 220.21,-109.51 230.79,-108.92 228.11,-102.45"/>
</g>
<!-- Node6 -->
<g id="node6" class="node">
<title>Node6</title>
<g id="a_node6"><a xlink:href="interfaceSCR__VotingEditorOut.html" target="_top" xlink:title=" ">
<polygon fill="white" stroke="#666666" points="111,-19 0,-19 0,0 111,0 111,-19"/>
<text text-anchor="middle" x="55.5" y="-7" font-family="Helvetica,sans-Serif" font-size="10.00">SCR_VotingEditorOut</text>
</a>
</g>
</g>
<!-- Node5&#45;&gt;Node6 -->
<g id="edge5" class="edge">
<title>Node5&#45;&gt;Node6</title>
<path fill="none" stroke="#63b8ff" d="M163.24,-50.71C137.25,-41.01 102.2,-27.93 79.23,-19.36"/>
<polygon fill="#63b8ff" stroke="#63b8ff" points="161.82,-54.29 172.41,-54.51 164.27,-47.73 161.82,-54.29"/>
</g>
<!-- Node7 -->
<g id="node7" class="node">
<title>Node7</title>
<g id="a_node7"><a xlink:href="interfaceSCR__VotingEditorWithdraw.html" target="_top" xlink:title=" ">
<polygon fill="white" stroke="#666666" points="265.5,-19 129.5,-19 129.5,0 265.5,0 265.5,-19"/>
<text text-anchor="middle" x="197.5" y="-7" font-family="Helvetica,sans-Serif" font-size="10.00">SCR_VotingEditorWithdraw</text>
</a>
</g>
</g>
<!-- Node5&#45;&gt;Node7 -->
<g id="edge6" class="edge">
<title>Node5&#45;&gt;Node7</title>
<path fill="none" stroke="#63b8ff" d="M197.5,-43.93C197.5,-35.53 197.5,-26.13 197.5,-19.44"/>
<polygon fill="#63b8ff" stroke="#63b8ff" points="194,-43.75 197.5,-53.75 201,-43.75 194,-43.75"/>
</g>
<!-- Node9 -->
<g id="node9" class="node">
<title>Node9</title>
<g id="a_node9"><a xlink:href="interfaceSCR__VotingAutoKick.html" target="_top" xlink:title=" ">
<polygon fill="white" stroke="#666666" points="393.5,-19 283.5,-19 283.5,0 393.5,0 393.5,-19"/>
<text text-anchor="middle" x="338.5" y="-7" font-family="Helvetica,sans-Serif" font-size="10.00">SCR_VotingAutoKick</text>
</a>
</g>
</g>
<!-- Node8&#45;&gt;Node9 -->
<g id="edge8" class="edge">
<title>Node8&#45;&gt;Node9</title>
<path fill="none" stroke="#63b8ff" d="M330.23,-44.22C332.31,-35.74 334.65,-26.21 336.31,-19.44"/>
<polygon fill="#63b8ff" stroke="#63b8ff" points="326.63,-43.2 327.65,-53.75 333.43,-44.87 326.63,-43.2"/>
</g>
</g>
</svg>
