<?xml version="1.0" encoding="UTF-8" standalone="no"?>
<!DOCTYPE svg PUBLIC "-//W3C//DTD SVG 1.1//EN"
 "http://www.w3.org/Graphics/SVG/1.1/DTD/svg11.dtd">
<!-- Generated by graphviz version 8.0.2 (20230410.1723)
 -->
<!-- Title: SCR_AIActivityFeatureBase Pages: 1 -->
<svg width="298pt" height="159pt"
 viewBox="0.00 0.00 298.00 159.00" xmlns="http://www.w3.org/2000/svg" xmlns:xlink="http://www.w3.org/1999/xlink">
<g id="graph0" class="graph" transform="scale(1 1) rotate(0) translate(4 155)">
<title>SCR_AIActivityFeatureBase</title>
<!-- Node1 -->
<g id="node1" class="node">
<title>Node1</title>
<g id="a_node1"><a xlink:title=" ">
<polygon fill="#999999" stroke="#666666" points="205.5,-151 67.5,-151 67.5,-132 205.5,-132 205.5,-151"/>
<text text-anchor="middle" x="136.5" y="-139" font-family="Helvetica,sans-Serif" font-size="10.00">SCR_AIActivityFeatureBase</text>
</a>
</g>
</g>
<!-- Node2 -->
<g id="node2" class="node">
<title>Node2</title>
<g id="a_node2"><a xlink:href="interfaceSCR__AIActivityIllumFlareFeature.html" target="_top" xlink:title=" ">
<polygon fill="white" stroke="#666666" points="125,-96 0,-96 0,-66 125,-66 125,-96"/>
<text text-anchor="start" x="8" y="-84" font-family="Helvetica,sans-Serif" font-size="10.00">SCR_AIActivityIllumFlare</text>
<text text-anchor="middle" x="62.5" y="-73" font-family="Helvetica,sans-Serif" font-size="10.00">Feature</text>
</a>
</g>
</g>
<!-- Node1&#45;&gt;Node2 -->
<g id="edge1" class="edge">
<title>Node1&#45;&gt;Node2</title>
<path fill="none" stroke="#63b8ff" d="M116.64,-124.8C105.48,-115.98 91.65,-105.05 80.77,-96.44"/>
<polygon fill="#63b8ff" stroke="#63b8ff" points="114.25,-128.16 124.26,-131.62 118.59,-122.67 114.25,-128.16"/>
</g>
<!-- Node3 -->
<g id="node3" class="node">
<title>Node3</title>
<g id="a_node3"><a xlink:href="interfaceSCR__AIActivitySmokeCoverFeature.html" target="_top" xlink:title=" ">
<polygon fill="white" stroke="#666666" points="280,-96 143,-96 143,-66 280,-66 280,-96"/>
<text text-anchor="start" x="151" y="-84" font-family="Helvetica,sans-Serif" font-size="10.00">SCR_AIActivitySmokeCover</text>
<text text-anchor="middle" x="211.5" y="-73" font-family="Helvetica,sans-Serif" font-size="10.00">Feature</text>
</a>
</g>
</g>
<!-- Node1&#45;&gt;Node3 -->
<g id="edge2" class="edge">
<title>Node1&#45;&gt;Node3</title>
<path fill="none" stroke="#63b8ff" d="M156.29,-125.06C167.66,-116.2 181.84,-105.13 192.99,-96.44"/>
<polygon fill="#63b8ff" stroke="#63b8ff" points="154.62,-122.7 148.89,-131.62 158.93,-128.22 154.62,-122.7"/>
</g>
<!-- Node4 -->
<g id="node4" class="node">
<title>Node4</title>
<g id="a_node4"><a xlink:href="interfaceSCR__AIHealActivitySmokeCoverFeature.html" target="_top" xlink:title=" ">
<polygon fill="white" stroke="#666666" points="290,-30 133,-30 133,0 290,0 290,-30"/>
<text text-anchor="start" x="141" y="-18" font-family="Helvetica,sans-Serif" font-size="10.00">SCR_AIHealActivitySmokeCover</text>
<text text-anchor="middle" x="211.5" y="-7" font-family="Helvetica,sans-Serif" font-size="10.00">Feature</text>
</a>
</g>
</g>
<!-- Node3&#45;&gt;Node4 -->
<g id="edge3" class="edge">
<title>Node3&#45;&gt;Node4</title>
<path fill="none" stroke="#63b8ff" d="M211.5,-54.97C211.5,-46.55 211.5,-37.45 211.5,-30.16"/>
<polygon fill="#63b8ff" stroke="#63b8ff" points="208,-54.8 211.5,-64.8 215,-54.8 208,-54.8"/>
</g>
</g>
</svg>
