<?xml version="1.0" encoding="UTF-8" standalone="no"?>
<!DOCTYPE svg PUBLIC "-//W3C//DTD SVG 1.1//EN"
 "http://www.w3.org/Graphics/SVG/1.1/DTD/svg11.dtd">
<!-- Generated by graphviz version 8.0.2 (20230410.1723)
 -->
<!-- Title: SCR_BaseVariableSightsFOVInfo Pages: 1 -->
<svg width="296pt" height="247pt"
 viewBox="0.00 0.00 295.50 247.00" xmlns="http://www.w3.org/2000/svg" xmlns:xlink="http://www.w3.org/1999/xlink">
<g id="graph0" class="graph" transform="scale(1 1) rotate(0) translate(4 243)">
<title>SCR_BaseVariableSightsFOVInfo</title>
<!-- Node1 -->
<g id="node1" class="node">
<title>Node1</title>
<g id="a_node1"><a xlink:title=" ">
<polygon fill="#999999" stroke="#666666" points="222,-74 59,-74 59,-55 222,-55 222,-74"/>
<text text-anchor="middle" x="140.5" y="-62" font-family="Helvetica,sans-Serif" font-size="10.00">SCR_BaseVariableSightsFOVInfo</text>
</a>
</g>
</g>
<!-- Node5 -->
<g id="node5" class="node">
<title>Node5</title>
<g id="a_node5"><a xlink:href="interfaceSCR__SightsZoomFOVInfo.html" target="_top" xlink:title=" ">
<polygon fill="white" stroke="#666666" points="129,-19 0,-19 0,0 129,0 129,-19"/>
<text text-anchor="middle" x="64.5" y="-7" font-family="Helvetica,sans-Serif" font-size="10.00">SCR_SightsZoomFOVInfo</text>
</a>
</g>
</g>
<!-- Node1&#45;&gt;Node5 -->
<g id="edge4" class="edge">
<title>Node1&#45;&gt;Node5</title>
<path fill="none" stroke="#63b8ff" d="M118.93,-48.46C105.46,-39.06 88.56,-27.28 77.2,-19.36"/>
<polygon fill="#63b8ff" stroke="#63b8ff" points="116.4,-51.66 126.61,-54.51 120.41,-45.92 116.4,-51.66"/>
</g>
<!-- Node6 -->
<g id="node6" class="node">
<title>Node6</title>
<g id="a_node6"><a xlink:href="interfaceSCR__VariableSightsFOVInfo.html" target="_top" xlink:title=" ">
<polygon fill="white" stroke="#666666" points="287.5,-19 147.5,-19 147.5,0 287.5,0 287.5,-19"/>
<text text-anchor="middle" x="217.5" y="-7" font-family="Helvetica,sans-Serif" font-size="10.00">SCR_VariableSightsFOVInfo</text>
</a>
</g>
</g>
<!-- Node1&#45;&gt;Node6 -->
<g id="edge5" class="edge">
<title>Node1&#45;&gt;Node6</title>
<path fill="none" stroke="#63b8ff" d="M162.35,-48.46C176,-39.06 193.12,-27.28 204.63,-19.36"/>
<polygon fill="#63b8ff" stroke="#63b8ff" points="160.81,-45.96 154.56,-54.51 164.78,-51.72 160.81,-45.96"/>
</g>
<!-- Node2 -->
<g id="node2" class="node">
<title>Node2</title>
<g id="a_node2"><a xlink:href="interfaceScriptedSightsFOVInfo.html" target="_top" xlink:title=" ">
<polygon fill="white" stroke="#666666" points="198.5,-129 82.5,-129 82.5,-110 198.5,-110 198.5,-129"/>
<text text-anchor="middle" x="140.5" y="-117" font-family="Helvetica,sans-Serif" font-size="10.00">ScriptedSightsFOVInfo</text>
</a>
</g>
</g>
<!-- Node2&#45;&gt;Node1 -->
<g id="edge1" class="edge">
<title>Node2&#45;&gt;Node1</title>
<path fill="none" stroke="#63b8ff" d="M140.5,-98.93C140.5,-90.53 140.5,-81.13 140.5,-74.44"/>
<polygon fill="#63b8ff" stroke="#63b8ff" points="137,-98.75 140.5,-108.75 144,-98.75 137,-98.75"/>
</g>
<!-- Node3 -->
<g id="node3" class="node">
<title>Node3</title>
<g id="a_node3"><a xlink:href="interfaceSightsFOVInfo.html" target="_top" xlink:title="Sights FOV info is a declare object that defines individual sights magnification levels and their pro...">
<polygon fill="white" stroke="#666666" points="180.5,-184 100.5,-184 100.5,-165 180.5,-165 180.5,-184"/>
<text text-anchor="middle" x="140.5" y="-172" font-family="Helvetica,sans-Serif" font-size="10.00">SightsFOVInfo</text>
</a>
</g>
</g>
<!-- Node3&#45;&gt;Node2 -->
<g id="edge2" class="edge">
<title>Node3&#45;&gt;Node2</title>
<path fill="none" stroke="#63b8ff" d="M140.5,-153.93C140.5,-145.53 140.5,-136.13 140.5,-129.44"/>
<polygon fill="#63b8ff" stroke="#63b8ff" points="137,-153.75 140.5,-163.75 144,-153.75 137,-153.75"/>
</g>
<!-- Node4 -->
<g id="node4" class="node">
<title>Node4</title>
<g id="a_node4"><a xlink:title=" ">
<polygon fill="white" stroke="#666666" points="183.5,-239 97.5,-239 97.5,-220 183.5,-220 183.5,-239"/>
<text text-anchor="middle" x="140.5" y="-227" font-family="Helvetica,sans-Serif" font-size="10.00">ScriptAndConfig</text>
</a>
</g>
</g>
<!-- Node4&#45;&gt;Node3 -->
<g id="edge3" class="edge">
<title>Node4&#45;&gt;Node3</title>
<path fill="none" stroke="#63b8ff" d="M140.5,-208.93C140.5,-200.53 140.5,-191.13 140.5,-184.44"/>
<polygon fill="#63b8ff" stroke="#63b8ff" points="137,-208.75 140.5,-218.75 144,-208.75 137,-208.75"/>
</g>
</g>
</svg>
