<?xml version="1.0" encoding="UTF-8" standalone="no"?>
<!DOCTYPE svg PUBLIC "-//W3C//DTD SVG 1.1//EN"
 "http://www.w3.org/Graphics/SVG/1.1/DTD/svg11.dtd">
<!-- Generated by graphviz version 8.0.2 (20230410.1723)
 -->
<!-- Title: SCR_RepairAtSupportStationAction Pages: 1 -->
<svg width="162pt" height="390pt"
 viewBox="0.00 0.00 162.00 390.00" xmlns="http://www.w3.org/2000/svg" xmlns:xlink="http://www.w3.org/1999/xlink">
<g id="graph0" class="graph" transform="scale(1 1) rotate(0) translate(4 386)">
<title>SCR_RepairAtSupportStationAction</title>
<!-- Node1 -->
<g id="node1" class="node">
<title>Node1</title>
<g id="a_node1"><a xlink:title=" ">
<polygon fill="#999999" stroke="#666666" points="149,-30 5,-30 5,0 149,0 149,-30"/>
<text text-anchor="start" x="13" y="-18" font-family="Helvetica,sans-Serif" font-size="10.00">SCR_RepairAtSupportStation</text>
<text text-anchor="middle" x="77" y="-7" font-family="Helvetica,sans-Serif" font-size="10.00">Action</text>
</a>
</g>
</g>
<!-- Node2 -->
<g id="node2" class="node">
<title>Node2</title>
<g id="a_node2"><a xlink:href="interfaceSCR__BaseDamageHealSupportStationAction.html" target="_top" xlink:title="Allows healing of action owner (not user)">
<polygon fill="white" stroke="#666666" points="154,-96 0,-96 0,-66 154,-66 154,-96"/>
<text text-anchor="start" x="8" y="-84" font-family="Helvetica,sans-Serif" font-size="10.00">SCR_BaseDamageHealSupport</text>
<text text-anchor="middle" x="77" y="-73" font-family="Helvetica,sans-Serif" font-size="10.00">StationAction</text>
</a>
</g>
</g>
<!-- Node2&#45;&gt;Node1 -->
<g id="edge1" class="edge">
<title>Node2&#45;&gt;Node1</title>
<path fill="none" stroke="#63b8ff" d="M77,-54.97C77,-46.55 77,-37.45 77,-30.16"/>
<polygon fill="#63b8ff" stroke="#63b8ff" points="73.5,-54.8 77,-64.8 80.5,-54.8 73.5,-54.8"/>
</g>
<!-- Node3 -->
<g id="node3" class="node">
<title>Node3</title>
<g id="a_node3"><a xlink:href="interfaceSCR__BaseUseSupportStationAction.html" target="_top" xlink:title=" ">
<polygon fill="white" stroke="#666666" points="150,-162 4,-162 4,-132 150,-132 150,-162"/>
<text text-anchor="start" x="12" y="-150" font-family="Helvetica,sans-Serif" font-size="10.00">SCR_BaseUseSupportStation</text>
<text text-anchor="middle" x="77" y="-139" font-family="Helvetica,sans-Serif" font-size="10.00">Action</text>
</a>
</g>
</g>
<!-- Node3&#45;&gt;Node2 -->
<g id="edge2" class="edge">
<title>Node3&#45;&gt;Node2</title>
<path fill="none" stroke="#63b8ff" d="M77,-120.97C77,-112.55 77,-103.45 77,-96.16"/>
<polygon fill="#63b8ff" stroke="#63b8ff" points="73.5,-120.8 77,-130.8 80.5,-120.8 73.5,-120.8"/>
</g>
<!-- Node4 -->
<g id="node4" class="node">
<title>Node4</title>
<g id="a_node4"><a xlink:href="interfaceSCR__ScriptedUserAction.html" target="_top" xlink:title="A scripted action class having optional logic to check if vehicle is valid.">
<polygon fill="white" stroke="#666666" points="140,-217 14,-217 14,-198 140,-198 140,-217"/>
<text text-anchor="middle" x="77" y="-205" font-family="Helvetica,sans-Serif" font-size="10.00">SCR_ScriptedUserAction</text>
</a>
</g>
</g>
<!-- Node4&#45;&gt;Node3 -->
<g id="edge3" class="edge">
<title>Node4&#45;&gt;Node3</title>
<path fill="none" stroke="#63b8ff" d="M77,-187.08C77,-178.92 77,-169.6 77,-162.11"/>
<polygon fill="#63b8ff" stroke="#63b8ff" points="73.5,-186.87 77,-196.87 80.5,-186.87 73.5,-186.87"/>
</g>
<!-- Node5 -->
<g id="node5" class="node">
<title>Node5</title>
<g id="a_node5"><a xlink:href="interfaceScriptedUserAction.html" target="_top" xlink:title=" ">
<polygon fill="white" stroke="#666666" points="127.5,-272 26.5,-272 26.5,-253 127.5,-253 127.5,-272"/>
<text text-anchor="middle" x="77" y="-260" font-family="Helvetica,sans-Serif" font-size="10.00">ScriptedUserAction</text>
</a>
</g>
</g>
<!-- Node5&#45;&gt;Node4 -->
<g id="edge4" class="edge">
<title>Node5&#45;&gt;Node4</title>
<path fill="none" stroke="#63b8ff" d="M77,-241.93C77,-233.53 77,-224.13 77,-217.44"/>
<polygon fill="#63b8ff" stroke="#63b8ff" points="73.5,-241.75 77,-251.75 80.5,-241.75 73.5,-241.75"/>
</g>
<!-- Node6 -->
<g id="node6" class="node">
<title>Node6</title>
<g id="a_node6"><a xlink:href="interfaceBaseUserAction.html" target="_top" xlink:title=" ">
<polygon fill="white" stroke="#666666" points="120.5,-327 33.5,-327 33.5,-308 120.5,-308 120.5,-327"/>
<text text-anchor="middle" x="77" y="-315" font-family="Helvetica,sans-Serif" font-size="10.00">BaseUserAction</text>
</a>
</g>
</g>
<!-- Node6&#45;&gt;Node5 -->
<g id="edge5" class="edge">
<title>Node6&#45;&gt;Node5</title>
<path fill="none" stroke="#63b8ff" d="M77,-296.93C77,-288.53 77,-279.13 77,-272.44"/>
<polygon fill="#63b8ff" stroke="#63b8ff" points="73.5,-296.75 77,-306.75 80.5,-296.75 73.5,-296.75"/>
</g>
<!-- Node7 -->
<g id="node7" class="node">
<title>Node7</title>
<g id="a_node7"><a xlink:title=" ">
<polygon fill="white" stroke="#666666" points="120,-382 34,-382 34,-363 120,-363 120,-382"/>
<text text-anchor="middle" x="77" y="-370" font-family="Helvetica,sans-Serif" font-size="10.00">ScriptAndConfig</text>
</a>
</g>
</g>
<!-- Node7&#45;&gt;Node6 -->
<g id="edge6" class="edge">
<title>Node7&#45;&gt;Node6</title>
<path fill="none" stroke="#63b8ff" d="M77,-351.93C77,-343.53 77,-334.13 77,-327.44"/>
<polygon fill="#63b8ff" stroke="#63b8ff" points="73.5,-351.75 77,-361.75 80.5,-351.75 73.5,-351.75"/>
</g>
</g>
</svg>
