<?xml version="1.0" encoding="UTF-8" standalone="no"?>
<!DOCTYPE svg PUBLIC "-//W3C//DTD SVG 1.1//EN"
 "http://www.w3.org/Graphics/SVG/1.1/DTD/svg11.dtd">
<!-- Generated by graphviz version 8.0.2 (20230410.1723)
 -->
<!-- Title: BaseTriggerComponentClass Pages: 1 -->
<svg width="1033pt" height="172pt"
 viewBox="0.00 0.00 1033.00 171.50" xmlns="http://www.w3.org/2000/svg" xmlns:xlink="http://www.w3.org/1999/xlink">
<g id="graph0" class="graph" transform="scale(1 1) rotate(0) translate(4 167.5)">
<title>BaseTriggerComponentClass</title>
<!-- Node1 -->
<g id="node1" class="node">
<title>Node1</title>
<g id="a_node1"><a xlink:title=" ">
<polygon fill="#999999" stroke="#666666" points="647,-86 504,-86 504,-67 647,-67 647,-86"/>
<text text-anchor="middle" x="575.5" y="-74" font-family="Helvetica,sans-Serif" font-size="10.00">BaseTriggerComponentClass</text>
</a>
</g>
</g>
<!-- Node5 -->
<g id="node5" class="node">
<title>Node5</title>
<g id="a_node5"><a xlink:href="interfaceCollisionTriggerComponentClass.html" target="_top" xlink:title=" ">
<polygon fill="white" stroke="#666666" points="821,-163.5 689,-163.5 689,-133.5 821,-133.5 821,-163.5"/>
<text text-anchor="start" x="697" y="-151.5" font-family="Helvetica,sans-Serif" font-size="10.00">CollisionTriggerComponent</text>
<text text-anchor="middle" x="755" y="-140.5" font-family="Helvetica,sans-Serif" font-size="10.00">Class</text>
</a>
</g>
</g>
<!-- Node1&#45;&gt;Node5 -->
<g id="edge4" class="edge">
<title>Node1&#45;&gt;Node5</title>
<path fill="none" stroke="#63b8ff" d="M606.76,-91.09C627.89,-101.04 656.89,-114.23 683,-124.5 690.51,-127.45 698.54,-130.38 706.41,-133.13"/>
<polygon fill="#63b8ff" stroke="#63b8ff" points="608.59,-87.61 598.06,-86.49 605.6,-93.94 608.59,-87.61"/>
</g>
<!-- Node6 -->
<g id="node6" class="node">
<title>Node6</title>
<g id="a_node6"><a xlink:href="interfaceProximityTriggerComponentClass.html" target="_top" xlink:title=" ">
<polygon fill="white" stroke="#666666" points="823.5,-115.5 686.5,-115.5 686.5,-85.5 823.5,-85.5 823.5,-115.5"/>
<text text-anchor="start" x="694.5" y="-103.5" font-family="Helvetica,sans-Serif" font-size="10.00">ProximityTriggerComponent</text>
<text text-anchor="middle" x="755" y="-92.5" font-family="Helvetica,sans-Serif" font-size="10.00">Class</text>
</a>
</g>
</g>
<!-- Node1&#45;&gt;Node6 -->
<g id="edge5" class="edge">
<title>Node1&#45;&gt;Node6</title>
<path fill="none" stroke="#63b8ff" d="M658.27,-87.56C667.57,-88.81 676.98,-90.09 686.08,-91.32"/>
<polygon fill="#63b8ff" stroke="#63b8ff" points="658.8,-83.96 648.42,-86.09 657.86,-90.9 658.8,-83.96"/>
</g>
<!-- Node7 -->
<g id="node7" class="node">
<title>Node7</title>
<g id="a_node7"><a xlink:href="interfaceSCR__BaseTriggerComponentClass.html" target="_top" xlink:title=" ">
<polygon fill="white" stroke="#666666" points="826.5,-67.5 683.5,-67.5 683.5,-37.5 826.5,-37.5 826.5,-67.5"/>
<text text-anchor="start" x="691.5" y="-55.5" font-family="Helvetica,sans-Serif" font-size="10.00">SCR_BaseTriggerComponent</text>
<text text-anchor="middle" x="755" y="-44.5" font-family="Helvetica,sans-Serif" font-size="10.00">Class</text>
</a>
</g>
</g>
<!-- Node1&#45;&gt;Node7 -->
<g id="edge6" class="edge">
<title>Node1&#45;&gt;Node7</title>
<path fill="none" stroke="#63b8ff" d="M658.28,-65.44C666.6,-64.32 675.01,-63.18 683.19,-62.07"/>
<polygon fill="#63b8ff" stroke="#63b8ff" points="657.86,-62.1 648.42,-66.91 658.8,-69.04 657.86,-62.1"/>
</g>
<!-- Node10 -->
<g id="node10" class="node">
<title>Node10</title>
<g id="a_node10"><a xlink:href="interfaceTimerTriggerComponentClass.html" target="_top" xlink:title=" ">
<polygon fill="white" stroke="#666666" points="827,-19 683,-19 683,0 827,0 827,-19"/>
<text text-anchor="middle" x="755" y="-7" font-family="Helvetica,sans-Serif" font-size="10.00">TimerTriggerComponentClass</text>
</a>
</g>
</g>
<!-- Node1&#45;&gt;Node10 -->
<g id="edge9" class="edge">
<title>Node1&#45;&gt;Node10</title>
<path fill="none" stroke="#63b8ff" d="M605.39,-61.94C626.52,-51.68 656.08,-38.1 683,-28.5 692.37,-25.16 702.63,-22.09 712.35,-19.44"/>
<polygon fill="#63b8ff" stroke="#63b8ff" points="604.17,-59.13 596.74,-66.69 607.26,-65.42 604.17,-59.13"/>
</g>
<!-- Node2 -->
<g id="node2" class="node">
<title>Node2</title>
<g id="a_node2"><a xlink:href="interfaceBaseProjectileComponentClass.html" target="_top" xlink:title=" ">
<polygon fill="white" stroke="#666666" points="468,-86 314,-86 314,-67 468,-67 468,-86"/>
<text text-anchor="middle" x="391" y="-74" font-family="Helvetica,sans-Serif" font-size="10.00">BaseProjectileComponentClass</text>
</a>
</g>
</g>
<!-- Node2&#45;&gt;Node1 -->
<g id="edge1" class="edge">
<title>Node2&#45;&gt;Node1</title>
<path fill="none" stroke="#63b8ff" d="M479.12,-76.5C487.36,-76.5 495.65,-76.5 503.71,-76.5"/>
<polygon fill="#63b8ff" stroke="#63b8ff" points="479.34,-73 469.34,-76.5 479.34,-80 479.34,-73"/>
</g>
<!-- Node3 -->
<g id="node3" class="node">
<title>Node3</title>
<g id="a_node3"><a xlink:href="interfaceGameComponentClass.html" target="_top" xlink:title=" ">
<polygon fill="white" stroke="#666666" points="278,-86 161,-86 161,-67 278,-67 278,-86"/>
<text text-anchor="middle" x="219.5" y="-74" font-family="Helvetica,sans-Serif" font-size="10.00">GameComponentClass</text>
</a>
</g>
</g>
<!-- Node3&#45;&gt;Node2 -->
<g id="edge2" class="edge">
<title>Node3&#45;&gt;Node2</title>
<path fill="none" stroke="#63b8ff" d="M289.15,-76.5C297.17,-76.5 305.4,-76.5 313.52,-76.5"/>
<polygon fill="#63b8ff" stroke="#63b8ff" points="289.36,-73 279.36,-76.5 289.36,-80 289.36,-73"/>
</g>
<!-- Node4 -->
<g id="node4" class="node">
<title>Node4</title>
<g id="a_node4"><a xlink:title=" ">
<polygon fill="white" stroke="#666666" points="125,-86 0,-86 0,-67 125,-67 125,-86"/>
<text text-anchor="middle" x="62.5" y="-74" font-family="Helvetica,sans-Serif" font-size="10.00">GenericComponentClass</text>
</a>
</g>
</g>
<!-- Node4&#45;&gt;Node3 -->
<g id="edge3" class="edge">
<title>Node4&#45;&gt;Node3</title>
<path fill="none" stroke="#63b8ff" d="M135.96,-76.5C144.2,-76.5 152.52,-76.5 160.53,-76.5"/>
<polygon fill="#63b8ff" stroke="#63b8ff" points="136.21,-73 126.21,-76.5 136.21,-80 136.21,-73"/>
</g>
<!-- Node8 -->
<g id="node8" class="node">
<title>Node8</title>
<g id="a_node8"><a xlink:href="interfaceSCR__ExplosiveTriggerComponentClass.html" target="_top" xlink:title=" ">
<polygon fill="white" stroke="#666666" points="1025,-91.5 863,-91.5 863,-61.5 1025,-61.5 1025,-91.5"/>
<text text-anchor="start" x="871" y="-79.5" font-family="Helvetica,sans-Serif" font-size="10.00">SCR_ExplosiveTriggerComponent</text>
<text text-anchor="middle" x="944" y="-68.5" font-family="Helvetica,sans-Serif" font-size="10.00">Class</text>
</a>
</g>
</g>
<!-- Node7&#45;&gt;Node8 -->
<g id="edge7" class="edge">
<title>Node7&#45;&gt;Node8</title>
<path fill="none" stroke="#63b8ff" d="M837.75,-62.99C846.03,-64.05 854.43,-65.13 862.7,-66.19"/>
<polygon fill="#63b8ff" stroke="#63b8ff" points="838.33,-59.41 827.96,-61.61 837.44,-66.35 838.33,-59.41"/>
</g>
<!-- Node9 -->
<g id="node9" class="node">
<title>Node9</title>
<g id="a_node9"><a xlink:href="interfaceSCR__PressureTriggerComponentClass.html" target="_top" xlink:title=" ">
<polygon fill="white" stroke="#666666" points="1024,-43.5 864,-43.5 864,-13.5 1024,-13.5 1024,-43.5"/>
<text text-anchor="start" x="872" y="-31.5" font-family="Helvetica,sans-Serif" font-size="10.00">SCR_PressureTriggerComponent</text>
<text text-anchor="middle" x="944" y="-20.5" font-family="Helvetica,sans-Serif" font-size="10.00">Class</text>
</a>
</g>
</g>
<!-- Node7&#45;&gt;Node9 -->
<g id="edge8" class="edge">
<title>Node7&#45;&gt;Node9</title>
<path fill="none" stroke="#63b8ff" d="M837.75,-42.01C846.35,-40.9 855.08,-39.78 863.64,-38.68"/>
<polygon fill="#63b8ff" stroke="#63b8ff" points="837.44,-38.65 827.96,-43.39 838.33,-45.59 837.44,-38.65"/>
</g>
</g>
</svg>
