<?xml version="1.0" encoding="UTF-8" standalone="no"?>
<!DOCTYPE svg PUBLIC "-//W3C//DTD SVG 1.1//EN"
 "http://www.w3.org/Graphics/SVG/1.1/DTD/svg11.dtd">
<!-- Generated by graphviz version 8.0.2 (20230410.1723)
 -->
<!-- Title: SCR_WorldSetupPluginBasePlugin Pages: 1 -->
<svg width="266pt" height="159pt"
 viewBox="0.00 0.00 266.00 159.00" xmlns="http://www.w3.org/2000/svg" xmlns:xlink="http://www.w3.org/1999/xlink">
<g id="graph0" class="graph" transform="scale(1 1) rotate(0) translate(4 155)">
<title>SCR_WorldSetupPluginBasePlugin</title>
<!-- Node1 -->
<g id="node1" class="node">
<title>Node1</title>
<g id="a_node1"><a xlink:title=" ">
<polygon fill="#999999" stroke="#666666" points="200.5,-96 57.5,-96 57.5,-66 200.5,-66 200.5,-96"/>
<text text-anchor="start" x="65.5" y="-84" font-family="Helvetica,sans-Serif" font-size="10.00">SCR_WorldSetupPluginBase</text>
<text text-anchor="middle" x="129" y="-73" font-family="Helvetica,sans-Serif" font-size="10.00">Plugin</text>
</a>
</g>
</g>
<!-- Node3 -->
<g id="node3" class="node">
<title>Node3</title>
<g id="a_node3"><a xlink:href="interfaceSCR__WorldSetupPlugin__Entities.html" target="_top" xlink:title=" ">
<polygon fill="white" stroke="#666666" points="120,-30 0,-30 0,0 120,0 120,-30"/>
<text text-anchor="start" x="8" y="-18" font-family="Helvetica,sans-Serif" font-size="10.00">SCR_WorldSetupPlugin</text>
<text text-anchor="middle" x="60" y="-7" font-family="Helvetica,sans-Serif" font-size="10.00">_Entities</text>
</a>
</g>
</g>
<!-- Node1&#45;&gt;Node3 -->
<g id="edge2" class="edge">
<title>Node1&#45;&gt;Node3</title>
<path fill="none" stroke="#63b8ff" d="M105.68,-58.37C95.64,-49.06 84.2,-38.44 75.27,-30.16"/>
<polygon fill="#63b8ff" stroke="#63b8ff" points="102.97,-60.56 112.69,-64.8 107.74,-55.43 102.97,-60.56"/>
</g>
<!-- Node4 -->
<g id="node4" class="node">
<title>Node4</title>
<g id="a_node4"><a xlink:href="interfaceSCR__WorldSetupPlugin__GenericWorldEntity.html" target="_top" xlink:title="This Plugin is experimental because it directly writes in the layer file, expecting a certain directo...">
<polygon fill="white" stroke="#666666" points="258,-30 138,-30 138,0 258,0 258,-30"/>
<text text-anchor="start" x="146" y="-18" font-family="Helvetica,sans-Serif" font-size="10.00">SCR_WorldSetupPlugin</text>
<text text-anchor="middle" x="198" y="-7" font-family="Helvetica,sans-Serif" font-size="10.00">_GenericWorldEntity</text>
</a>
</g>
</g>
<!-- Node1&#45;&gt;Node4 -->
<g id="edge3" class="edge">
<title>Node1&#45;&gt;Node4</title>
<path fill="none" stroke="#63b8ff" d="M152.32,-58.37C162.36,-49.06 173.8,-38.44 182.73,-30.16"/>
<polygon fill="#63b8ff" stroke="#63b8ff" points="150.26,-55.43 145.31,-64.8 155.03,-60.56 150.26,-55.43"/>
</g>
<!-- Node2 -->
<g id="node2" class="node">
<title>Node2</title>
<g id="a_node2"><a xlink:title=" ">
<polygon fill="white" stroke="#666666" points="175.5,-151 82.5,-151 82.5,-132 175.5,-132 175.5,-151"/>
<text text-anchor="middle" x="129" y="-139" font-family="Helvetica,sans-Serif" font-size="10.00">WorkbenchPlugin</text>
</a>
</g>
</g>
<!-- Node2&#45;&gt;Node1 -->
<g id="edge1" class="edge">
<title>Node2&#45;&gt;Node1</title>
<path fill="none" stroke="#63b8ff" d="M129,-121.08C129,-112.92 129,-103.6 129,-96.11"/>
<polygon fill="#63b8ff" stroke="#63b8ff" points="125.5,-120.87 129,-130.87 132.5,-120.87 125.5,-120.87"/>
</g>
</g>
</svg>
