<?xml version="1.0" encoding="UTF-8" standalone="no"?>
<!DOCTYPE svg PUBLIC "-//W3C//DTD SVG 1.1//EN"
 "http://www.w3.org/Graphics/SVG/1.1/DTD/svg11.dtd">
<!-- Generated by graphviz version 8.0.2 (20230410.1723)
 -->
<!-- Title: SCR_SubBlockUIName Pages: 1 -->
<svg width="590pt" height="175pt"
 viewBox="0.00 0.00 590.00 175.00" xmlns="http://www.w3.org/2000/svg" xmlns:xlink="http://www.w3.org/1999/xlink">
<g id="graph0" class="graph" transform="scale(1 1) rotate(0) translate(4 171)">
<title>SCR_SubBlockUIName</title>
<!-- Node1 -->
<g id="node1" class="node">
<title>Node1</title>
<g id="a_node1"><a xlink:title=" ">
<polygon fill="#999999" stroke="#666666" points="232,-93 113,-93 113,-74 232,-74 232,-93"/>
<text text-anchor="middle" x="172.5" y="-81" font-family="Helvetica,sans-Serif" font-size="10.00">SCR_SubBlockUIName</text>
</a>
</g>
</g>
<!-- Node3 -->
<g id="node3" class="node">
<title>Node3</title>
<g id="a_node3"><a xlink:href="interfaceSCR__BulletPointBlockUIName.html" target="_top" xlink:title=" ">
<polygon fill="white" stroke="#666666" points="417,-167 268,-167 268,-148 417,-148 417,-167"/>
<text text-anchor="middle" x="342.5" y="-155" font-family="Helvetica,sans-Serif" font-size="10.00">SCR_BulletPointBlockUIName</text>
</a>
</g>
</g>
<!-- Node1&#45;&gt;Node3 -->
<g id="edge2" class="edge">
<title>Node1&#45;&gt;Node3</title>
<path fill="none" stroke="#63b8ff" d="M196.73,-99.45C215.31,-111.6 242.4,-127.98 268,-138.5 276.53,-142.01 285.9,-145.02 294.99,-147.54"/>
<polygon fill="#63b8ff" stroke="#63b8ff" points="198.86,-96 188.59,-93.37 194.98,-101.82 198.86,-96"/>
</g>
<!-- Node4 -->
<g id="node4" class="node">
<title>Node4</title>
<g id="a_node4"><a xlink:href="interfaceSCR__DeviceBlockUIName.html" target="_top" xlink:title=" ">
<polygon fill="white" stroke="#666666" points="407.5,-130 277.5,-130 277.5,-111 407.5,-111 407.5,-130"/>
<text text-anchor="middle" x="342.5" y="-118" font-family="Helvetica,sans-Serif" font-size="10.00">SCR_DeviceBlockUIName</text>
</a>
</g>
</g>
<!-- Node1&#45;&gt;Node4 -->
<g id="edge3" class="edge">
<title>Node1&#45;&gt;Node4</title>
<path fill="none" stroke="#63b8ff" d="M228.99,-95.72C250.84,-100.53 275.62,-105.99 296.35,-110.56"/>
<polygon fill="#63b8ff" stroke="#63b8ff" points="230.04,-92.15 219.52,-93.42 228.53,-98.98 230.04,-92.15"/>
</g>
<!-- Node7 -->
<g id="node7" class="node">
<title>Node7</title>
<g id="a_node7"><a xlink:href="interfaceSCR__ImageBlockUIName.html" target="_top" xlink:title=" ">
<polygon fill="white" stroke="#666666" points="406.5,-93 278.5,-93 278.5,-74 406.5,-74 406.5,-93"/>
<text text-anchor="middle" x="342.5" y="-81" font-family="Helvetica,sans-Serif" font-size="10.00">SCR_ImageBlockUIName</text>
</a>
</g>
</g>
<!-- Node1&#45;&gt;Node7 -->
<g id="edge6" class="edge">
<title>Node1&#45;&gt;Node7</title>
<path fill="none" stroke="#63b8ff" d="M243.23,-83.5C254.82,-83.5 266.78,-83.5 278.2,-83.5"/>
<polygon fill="#63b8ff" stroke="#63b8ff" points="243.26,-80 233.26,-83.5 243.26,-87 243.26,-80"/>
</g>
<!-- Node8 -->
<g id="node8" class="node">
<title>Node8</title>
<g id="a_node8"><a xlink:href="interfaceSCR__SimpleTagBlockUIName.html" target="_top" xlink:title=" ">
<polygon fill="white" stroke="#666666" points="416,-56 269,-56 269,-37 416,-37 416,-56"/>
<text text-anchor="middle" x="342.5" y="-44" font-family="Helvetica,sans-Serif" font-size="10.00">SCR_SimpleTagBlockUIName</text>
</a>
</g>
</g>
<!-- Node1&#45;&gt;Node8 -->
<g id="edge7" class="edge">
<title>Node1&#45;&gt;Node8</title>
<path fill="none" stroke="#63b8ff" d="M228.99,-71.28C250.84,-66.47 275.62,-61.01 296.35,-56.44"/>
<polygon fill="#63b8ff" stroke="#63b8ff" points="228.53,-68.02 219.52,-73.58 230.04,-74.85 228.53,-68.02"/>
</g>
<!-- Node9 -->
<g id="node9" class="node">
<title>Node9</title>
<g id="a_node9"><a xlink:href="interfaceSCR__TipBlockUIName.html" target="_top" xlink:title=" ">
<polygon fill="white" stroke="#666666" points="399.5,-19 285.5,-19 285.5,0 399.5,0 399.5,-19"/>
<text text-anchor="middle" x="342.5" y="-7" font-family="Helvetica,sans-Serif" font-size="10.00">SCR_TipBlockUIName</text>
</a>
</g>
</g>
<!-- Node1&#45;&gt;Node9 -->
<g id="edge8" class="edge">
<title>Node1&#45;&gt;Node9</title>
<path fill="none" stroke="#63b8ff" d="M196.07,-67.53C214.62,-55.06 241.99,-38.12 268,-27.5 275.66,-24.37 284.01,-21.69 292.23,-19.43"/>
<polygon fill="#63b8ff" stroke="#63b8ff" points="194.5,-65.05 188.23,-73.59 198.46,-70.83 194.5,-65.05"/>
</g>
<!-- Node2 -->
<g id="node2" class="node">
<title>Node2</title>
<g id="a_node2"><a xlink:href="interfaceSCR__UIName.html" target="_top" xlink:title="Class used to hold UI name.">
<polygon fill="white" stroke="#666666" points="77,-93 0,-93 0,-74 77,-74 77,-93"/>
<text text-anchor="middle" x="38.5" y="-81" font-family="Helvetica,sans-Serif" font-size="10.00">SCR_UIName</text>
</a>
</g>
</g>
<!-- Node2&#45;&gt;Node1 -->
<g id="edge1" class="edge">
<title>Node2&#45;&gt;Node1</title>
<path fill="none" stroke="#63b8ff" d="M88.09,-83.5C96.19,-83.5 104.67,-83.5 112.98,-83.5"/>
<polygon fill="#63b8ff" stroke="#63b8ff" points="88.33,-80 78.33,-83.5 88.33,-87 88.33,-80"/>
</g>
<!-- Node5 -->
<g id="node5" class="node">
<title>Node5</title>
<g id="a_node5"><a xlink:href="interfaceSCR__ActionBlockUIName.html" target="_top" xlink:title=" ">
<polygon fill="white" stroke="#666666" points="582,-148 453,-148 453,-129 582,-129 582,-148"/>
<text text-anchor="middle" x="517.5" y="-136" font-family="Helvetica,sans-Serif" font-size="10.00">SCR_ActionBlockUIName</text>
</a>
</g>
</g>
<!-- Node4&#45;&gt;Node5 -->
<g id="edge4" class="edge">
<title>Node4&#45;&gt;Node5</title>
<path fill="none" stroke="#63b8ff" d="M418.66,-128.32C429.98,-129.5 441.55,-130.7 452.6,-131.85"/>
<polygon fill="#63b8ff" stroke="#63b8ff" points="419.23,-124.76 408.92,-127.2 418.5,-131.72 419.23,-124.76"/>
</g>
<!-- Node6 -->
<g id="node6" class="node">
<title>Node6</title>
<g id="a_node6"><a xlink:href="interfaceSCR__KeyBlockUIName.html" target="_top" xlink:title=" ">
<polygon fill="white" stroke="#666666" points="577,-111 458,-111 458,-92 577,-92 577,-111"/>
<text text-anchor="middle" x="517.5" y="-99" font-family="Helvetica,sans-Serif" font-size="10.00">SCR_KeyBlockUIName</text>
</a>
</g>
</g>
<!-- Node4&#45;&gt;Node6 -->
<g id="edge5" class="edge">
<title>Node4&#45;&gt;Node6</title>
<path fill="none" stroke="#63b8ff" d="M418.77,-112.23C431.82,-110.8 445.21,-109.33 457.74,-107.95"/>
<polygon fill="#63b8ff" stroke="#63b8ff" points="418.48,-108.85 408.92,-113.43 419.24,-115.81 418.48,-108.85"/>
</g>
</g>
</svg>
