<?xml version="1.0" encoding="UTF-8" standalone="no"?>
<!DOCTYPE svg PUBLIC "-//W3C//DTD SVG 1.1//EN"
 "http://www.w3.org/Graphics/SVG/1.1/DTD/svg11.dtd">
<!-- Generated by graphviz version 8.0.2 (20230410.1723)
 -->
<!-- Title: SCR_BudgetEditorUIComponent Pages: 1 -->
<svg width="165pt" height="258pt"
 viewBox="0.00 0.00 165.00 258.00" xmlns="http://www.w3.org/2000/svg" xmlns:xlink="http://www.w3.org/1999/xlink">
<g id="graph0" class="graph" transform="scale(1 1) rotate(0) translate(4 254)">
<title>SCR_BudgetEditorUIComponent</title>
<!-- Node1 -->
<g id="node1" class="node">
<title>Node1</title>
<g id="a_node1"><a xlink:title=" ">
<polygon fill="#999999" stroke="#666666" points="157,-85 0,-85 0,-66 157,-66 157,-85"/>
<text text-anchor="middle" x="78.5" y="-73" font-family="Helvetica,sans-Serif" font-size="10.00">SCR_BudgetEditorUIComponent</text>
</a>
</g>
</g>
<!-- Node5 -->
<g id="node5" class="node">
<title>Node5</title>
<g id="a_node5"><a xlink:href="interfaceSCR__CampaignBuildingBudgetEditorUIComponent.html" target="_top" xlink:title=" ">
<polygon fill="white" stroke="#666666" points="154,-30 3,-30 3,0 154,0 154,-30"/>
<text text-anchor="start" x="11" y="-18" font-family="Helvetica,sans-Serif" font-size="10.00">SCR_CampaignBuildingBudget</text>
<text text-anchor="middle" x="78.5" y="-7" font-family="Helvetica,sans-Serif" font-size="10.00">EditorUIComponent</text>
</a>
</g>
</g>
<!-- Node1&#45;&gt;Node5 -->
<g id="edge4" class="edge">
<title>Node1&#45;&gt;Node5</title>
<path fill="none" stroke="#63b8ff" d="M78.5,-55.08C78.5,-46.92 78.5,-37.6 78.5,-30.11"/>
<polygon fill="#63b8ff" stroke="#63b8ff" points="75,-54.87 78.5,-64.87 82,-54.87 75,-54.87"/>
</g>
<!-- Node2 -->
<g id="node2" class="node">
<title>Node2</title>
<g id="a_node2"><a xlink:href="interfaceSCR__BaseEditorUIComponent.html" target="_top" xlink:title=" ">
<polygon fill="white" stroke="#666666" points="153,-140 4,-140 4,-121 153,-121 153,-140"/>
<text text-anchor="middle" x="78.5" y="-128" font-family="Helvetica,sans-Serif" font-size="10.00">SCR_BaseEditorUIComponent</text>
</a>
</g>
</g>
<!-- Node2&#45;&gt;Node1 -->
<g id="edge1" class="edge">
<title>Node2&#45;&gt;Node1</title>
<path fill="none" stroke="#63b8ff" d="M78.5,-109.93C78.5,-101.53 78.5,-92.13 78.5,-85.44"/>
<polygon fill="#63b8ff" stroke="#63b8ff" points="75,-109.75 78.5,-119.75 82,-109.75 75,-109.75"/>
</g>
<!-- Node3 -->
<g id="node3" class="node">
<title>Node3</title>
<g id="a_node3"><a xlink:href="interfaceMenuRootSubComponent.html" target="_top" xlink:title="Widget component which is linked to menu it&#39;s part of.">
<polygon fill="white" stroke="#666666" points="142.5,-195 14.5,-195 14.5,-176 142.5,-176 142.5,-195"/>
<text text-anchor="middle" x="78.5" y="-183" font-family="Helvetica,sans-Serif" font-size="10.00">MenuRootSubComponent</text>
</a>
</g>
</g>
<!-- Node3&#45;&gt;Node2 -->
<g id="edge2" class="edge">
<title>Node3&#45;&gt;Node2</title>
<path fill="none" stroke="#63b8ff" d="M78.5,-164.93C78.5,-156.53 78.5,-147.13 78.5,-140.44"/>
<polygon fill="#63b8ff" stroke="#63b8ff" points="75,-164.75 78.5,-174.75 82,-164.75 75,-164.75"/>
</g>
<!-- Node4 -->
<g id="node4" class="node">
<title>Node4</title>
<g id="a_node4"><a xlink:title=" ">
<polygon fill="white" stroke="#666666" points="145,-250 12,-250 12,-231 145,-231 145,-250"/>
<text text-anchor="middle" x="78.5" y="-238" font-family="Helvetica,sans-Serif" font-size="10.00">ScriptedWidgetComponent</text>
</a>
</g>
</g>
<!-- Node4&#45;&gt;Node3 -->
<g id="edge3" class="edge">
<title>Node4&#45;&gt;Node3</title>
<path fill="none" stroke="#63b8ff" d="M78.5,-219.93C78.5,-211.53 78.5,-202.13 78.5,-195.44"/>
<polygon fill="#63b8ff" stroke="#63b8ff" points="75,-219.75 78.5,-229.75 82,-219.75 75,-219.75"/>
</g>
</g>
</svg>
