<?xml version="1.0" encoding="UTF-8" standalone="no"?>
<!DOCTYPE svg PUBLIC "-//W3C//DTD SVG 1.1//EN"
 "http://www.w3.org/Graphics/SVG/1.1/DTD/svg11.dtd">
<!-- Generated by graphviz version 8.0.2 (20230410.1723)
 -->
<!-- Title: SCR_EditableTaskComponent Pages: 1 -->
<svg width="179pt" height="247pt"
 viewBox="0.00 0.00 179.00 247.00" xmlns="http://www.w3.org/2000/svg" xmlns:xlink="http://www.w3.org/1999/xlink">
<g id="graph0" class="graph" transform="scale(1 1) rotate(0) translate(4 243)">
<title>SCR_EditableTaskComponent</title>
<!-- Node1 -->
<g id="node1" class="node">
<title>Node1</title>
<g id="a_node1"><a xlink:title=" ">
<polygon fill="#999999" stroke="#666666" points="159.5,-19 11.5,-19 11.5,0 159.5,0 159.5,-19"/>
<text text-anchor="middle" x="85.5" y="-7" font-family="Helvetica,sans-Serif" font-size="10.00">SCR_EditableTaskComponent</text>
</a>
</g>
</g>
<!-- Node2 -->
<g id="node2" class="node">
<title>Node2</title>
<g id="a_node2"><a xlink:href="interfaceSCR__EditableDescriptorComponent.html" target="_top" xlink:title=" ">
<polygon fill="white" stroke="#666666" points="171,-74 0,-74 0,-55 171,-55 171,-74"/>
<text text-anchor="middle" x="85.5" y="-62" font-family="Helvetica,sans-Serif" font-size="10.00">SCR_EditableDescriptorComponent</text>
</a>
</g>
</g>
<!-- Node2&#45;&gt;Node1 -->
<g id="edge1" class="edge">
<title>Node2&#45;&gt;Node1</title>
<path fill="none" stroke="#63b8ff" d="M85.5,-43.93C85.5,-35.53 85.5,-26.13 85.5,-19.44"/>
<polygon fill="#63b8ff" stroke="#63b8ff" points="82,-43.75 85.5,-53.75 89,-43.75 82,-43.75"/>
</g>
<!-- Node3 -->
<g id="node3" class="node">
<title>Node3</title>
<g id="a_node3"><a xlink:href="interfaceSCR__EditableSystemComponent.html" target="_top" xlink:title=" ">
<polygon fill="white" stroke="#666666" points="166,-129 5,-129 5,-110 166,-110 166,-129"/>
<text text-anchor="middle" x="85.5" y="-117" font-family="Helvetica,sans-Serif" font-size="10.00">SCR_EditableSystemComponent</text>
</a>
</g>
</g>
<!-- Node3&#45;&gt;Node2 -->
<g id="edge2" class="edge">
<title>Node3&#45;&gt;Node2</title>
<path fill="none" stroke="#63b8ff" d="M85.5,-98.93C85.5,-90.53 85.5,-81.13 85.5,-74.44"/>
<polygon fill="#63b8ff" stroke="#63b8ff" points="82,-98.75 85.5,-108.75 89,-98.75 82,-98.75"/>
</g>
<!-- Node4 -->
<g id="node4" class="node">
<title>Node4</title>
<g id="a_node4"><a xlink:href="interfaceSCR__EditableEntityComponent.html" target="_top" xlink:title="Component defining editable entity.">
<polygon fill="white" stroke="#666666" points="161.5,-184 9.5,-184 9.5,-165 161.5,-165 161.5,-184"/>
<text text-anchor="middle" x="85.5" y="-172" font-family="Helvetica,sans-Serif" font-size="10.00">SCR_EditableEntityComponent</text>
</a>
</g>
</g>
<!-- Node4&#45;&gt;Node3 -->
<g id="edge3" class="edge">
<title>Node4&#45;&gt;Node3</title>
<path fill="none" stroke="#63b8ff" d="M85.5,-153.93C85.5,-145.53 85.5,-136.13 85.5,-129.44"/>
<polygon fill="#63b8ff" stroke="#63b8ff" points="82,-153.75 85.5,-163.75 89,-153.75 82,-153.75"/>
</g>
<!-- Node5 -->
<g id="node5" class="node">
<title>Node5</title>
<g id="a_node5"><a xlink:title=" ">
<polygon fill="white" stroke="#666666" points="131.5,-239 39.5,-239 39.5,-220 131.5,-220 131.5,-239"/>
<text text-anchor="middle" x="85.5" y="-227" font-family="Helvetica,sans-Serif" font-size="10.00">ScriptComponent</text>
</a>
</g>
</g>
<!-- Node5&#45;&gt;Node4 -->
<g id="edge4" class="edge">
<title>Node5&#45;&gt;Node4</title>
<path fill="none" stroke="#63b8ff" d="M85.5,-208.93C85.5,-200.53 85.5,-191.13 85.5,-184.44"/>
<polygon fill="#63b8ff" stroke="#63b8ff" points="82,-208.75 85.5,-218.75 89,-208.75 82,-208.75"/>
</g>
</g>
</svg>
