<?xml version="1.0" encoding="UTF-8" standalone="no"?>
<!DOCTYPE svg PUBLIC "-//W3C//DTD SVG 1.1//EN"
 "http://www.w3.org/Graphics/SVG/1.1/DTD/svg11.dtd">
<!-- Generated by graphviz version 8.0.2 (20230410.1723)
 -->
<!-- Title: SCR_NotificationPlayerAndFaction Pages: 1 -->
<svg width="151pt" height="148pt"
 viewBox="0.00 0.00 151.00 148.00" xmlns="http://www.w3.org/2000/svg" xmlns:xlink="http://www.w3.org/1999/xlink">
<g id="graph0" class="graph" transform="scale(1 1) rotate(0) translate(4 144)">
<title>SCR_NotificationPlayerAndFaction</title>
<!-- Node1 -->
<g id="node1" class="node">
<title>Node1</title>
<g id="a_node1"><a xlink:title="Notification Player and Faction of that player Displays a notification: %1 = PlayerID name,...">
<polygon fill="#999999" stroke="#666666" points="139,-30 4,-30 4,0 139,0 139,-30"/>
<text text-anchor="start" x="12" y="-18" font-family="Helvetica,sans-Serif" font-size="10.00">SCR_NotificationPlayerAnd</text>
<text text-anchor="middle" x="71.5" y="-7" font-family="Helvetica,sans-Serif" font-size="10.00">Faction</text>
</a>
</g>
</g>
<!-- Node2 -->
<g id="node2" class="node">
<title>Node2</title>
<g id="a_node2"><a xlink:href="interfaceSCR__NotificationPlayer.html" target="_top" xlink:title="Notification Player Displays a notification: %1 = PlayerID name SCR_NotificationData: m_iParam1 = Pla...">
<polygon fill="white" stroke="#666666" points="130.5,-85 12.5,-85 12.5,-66 130.5,-66 130.5,-85"/>
<text text-anchor="middle" x="71.5" y="-73" font-family="Helvetica,sans-Serif" font-size="10.00">SCR_NotificationPlayer</text>
</a>
</g>
</g>
<!-- Node2&#45;&gt;Node1 -->
<g id="edge1" class="edge">
<title>Node2&#45;&gt;Node1</title>
<path fill="none" stroke="#63b8ff" d="M71.5,-55.08C71.5,-46.92 71.5,-37.6 71.5,-30.11"/>
<polygon fill="#63b8ff" stroke="#63b8ff" points="68,-54.87 71.5,-64.87 75,-54.87 68,-54.87"/>
</g>
<!-- Node3 -->
<g id="node3" class="node">
<title>Node3</title>
<g id="a_node3"><a xlink:href="interfaceSCR__NotificationDisplayData.html" target="_top" xlink:title="Used to get the display information for each notification.">
<polygon fill="white" stroke="#666666" points="143,-140 0,-140 0,-121 143,-121 143,-140"/>
<text text-anchor="middle" x="71.5" y="-128" font-family="Helvetica,sans-Serif" font-size="10.00">SCR_NotificationDisplayData</text>
</a>
</g>
</g>
<!-- Node3&#45;&gt;Node2 -->
<g id="edge2" class="edge">
<title>Node3&#45;&gt;Node2</title>
<path fill="none" stroke="#63b8ff" d="M71.5,-109.93C71.5,-101.53 71.5,-92.13 71.5,-85.44"/>
<polygon fill="#63b8ff" stroke="#63b8ff" points="68,-109.75 71.5,-119.75 75,-109.75 68,-109.75"/>
</g>
</g>
</svg>
