<?xml version="1.0" encoding="UTF-8" standalone="no"?>
<!DOCTYPE svg PUBLIC "-//W3C//DTD SVG 1.1//EN"
 "http://www.w3.org/Graphics/SVG/1.1/DTD/svg11.dtd">
<!-- Generated by graphviz version 8.0.2 (20230410.1723)
 -->
<!-- Title: FactionAffiliationComponent Pages: 1 -->
<svg width="314pt" height="258pt"
 viewBox="0.00 0.00 313.50 258.00" xmlns="http://www.w3.org/2000/svg" xmlns:xlink="http://www.w3.org/1999/xlink">
<g id="graph0" class="graph" transform="scale(1 1) rotate(0) translate(4 254)">
<title>FactionAffiliationComponent</title>
<!-- Node1 -->
<g id="node1" class="node">
<title>Node1</title>
<g id="a_node1"><a xlink:title=" ">
<polygon fill="#999999" stroke="#666666" points="220,-140 83,-140 83,-121 220,-121 220,-140"/>
<text text-anchor="middle" x="151.5" y="-128" font-family="Helvetica,sans-Serif" font-size="10.00">FactionAffiliationComponent</text>
</a>
</g>
</g>
<!-- Node4 -->
<g id="node4" class="node">
<title>Node4</title>
<g id="a_node4"><a xlink:href="interfaceSCR__FactionAffiliationComponent.html" target="_top" xlink:title=" ">
<polygon fill="white" stroke="#666666" points="233,-85 70,-85 70,-66 233,-66 233,-85"/>
<text text-anchor="middle" x="151.5" y="-73" font-family="Helvetica,sans-Serif" font-size="10.00">SCR_FactionAffiliationComponent</text>
</a>
</g>
</g>
<!-- Node1&#45;&gt;Node4 -->
<g id="edge3" class="edge">
<title>Node1&#45;&gt;Node4</title>
<path fill="none" stroke="#63b8ff" d="M151.5,-109.93C151.5,-101.53 151.5,-92.13 151.5,-85.44"/>
<polygon fill="#63b8ff" stroke="#63b8ff" points="148,-109.75 151.5,-119.75 155,-109.75 148,-109.75"/>
</g>
<!-- Node2 -->
<g id="node2" class="node">
<title>Node2</title>
<g id="a_node2"><a xlink:href="interfaceGameComponent.html" target="_top" xlink:title=" ">
<polygon fill="white" stroke="#666666" points="197.5,-195 105.5,-195 105.5,-176 197.5,-176 197.5,-195"/>
<text text-anchor="middle" x="151.5" y="-183" font-family="Helvetica,sans-Serif" font-size="10.00">GameComponent</text>
</a>
</g>
</g>
<!-- Node2&#45;&gt;Node1 -->
<g id="edge1" class="edge">
<title>Node2&#45;&gt;Node1</title>
<path fill="none" stroke="#63b8ff" d="M151.5,-164.93C151.5,-156.53 151.5,-147.13 151.5,-140.44"/>
<polygon fill="#63b8ff" stroke="#63b8ff" points="148,-164.75 151.5,-174.75 155,-164.75 148,-164.75"/>
</g>
<!-- Node3 -->
<g id="node3" class="node">
<title>Node3</title>
<g id="a_node3"><a xlink:title=" ">
<polygon fill="white" stroke="#666666" points="201.5,-250 101.5,-250 101.5,-231 201.5,-231 201.5,-250"/>
<text text-anchor="middle" x="151.5" y="-238" font-family="Helvetica,sans-Serif" font-size="10.00">GenericComponent</text>
</a>
</g>
</g>
<!-- Node3&#45;&gt;Node2 -->
<g id="edge2" class="edge">
<title>Node3&#45;&gt;Node2</title>
<path fill="none" stroke="#63b8ff" d="M151.5,-219.93C151.5,-211.53 151.5,-202.13 151.5,-195.44"/>
<polygon fill="#63b8ff" stroke="#63b8ff" points="148,-219.75 151.5,-229.75 155,-219.75 148,-219.75"/>
</g>
<!-- Node5 -->
<g id="node5" class="node">
<title>Node5</title>
<g id="a_node5"><a xlink:href="interfaceSCR__PlayerFactionAffiliationComponent.html" target="_top" xlink:title="This component should be attached to a PlayerController.">
<polygon fill="white" stroke="#666666" points="141,-30 0,-30 0,0 141,0 141,-30"/>
<text text-anchor="start" x="8" y="-18" font-family="Helvetica,sans-Serif" font-size="10.00">SCR_PlayerFactionAffiliation</text>
<text text-anchor="middle" x="70.5" y="-7" font-family="Helvetica,sans-Serif" font-size="10.00">Component</text>
</a>
</g>
</g>
<!-- Node4&#45;&gt;Node5 -->
<g id="edge4" class="edge">
<title>Node4&#45;&gt;Node5</title>
<path fill="none" stroke="#63b8ff" d="M130.49,-59.33C118.15,-50.42 102.65,-39.22 90.49,-30.44"/>
<polygon fill="#63b8ff" stroke="#63b8ff" points="128.04,-62.6 138.2,-65.62 132.14,-56.92 128.04,-62.6"/>
</g>
<!-- Node6 -->
<g id="node6" class="node">
<title>Node6</title>
<g id="a_node6"><a xlink:href="interfaceSCR__VehicleFactionAffiliationComponent.html" target="_top" xlink:title=" ">
<polygon fill="white" stroke="#666666" points="305.5,-30 159.5,-30 159.5,0 305.5,0 305.5,-30"/>
<text text-anchor="start" x="167.5" y="-18" font-family="Helvetica,sans-Serif" font-size="10.00">SCR_VehicleFactionAffiliation</text>
<text text-anchor="middle" x="232.5" y="-7" font-family="Helvetica,sans-Serif" font-size="10.00">Component</text>
</a>
</g>
</g>
<!-- Node4&#45;&gt;Node6 -->
<g id="edge5" class="edge">
<title>Node4&#45;&gt;Node6</title>
<path fill="none" stroke="#63b8ff" d="M172.51,-59.33C184.85,-50.42 200.35,-39.22 212.51,-30.44"/>
<polygon fill="#63b8ff" stroke="#63b8ff" points="170.86,-56.92 164.8,-65.62 174.96,-62.6 170.86,-56.92"/>
</g>
</g>
</svg>
