<?xml version="1.0" encoding="UTF-8" standalone="no"?>
<!DOCTYPE svg PUBLIC "-//W3C//DTD SVG 1.1//EN"
 "http://www.w3.org/Graphics/SVG/1.1/DTD/svg11.dtd">
<!-- Generated by graphviz version 8.0.2 (20230410.1723)
 -->
<!-- Title: CharacterCamera3rdPersonCrouch Pages: 1 -->
<svg width="167pt" height="324pt"
 viewBox="0.00 0.00 167.00 324.00" xmlns="http://www.w3.org/2000/svg" xmlns:xlink="http://www.w3.org/1999/xlink">
<g id="graph0" class="graph" transform="scale(1 1) rotate(0) translate(4 320)">
<title>CharacterCamera3rdPersonCrouch</title>
<!-- Node1 -->
<g id="node1" class="node">
<title>Node1</title>
<g id="a_node1"><a xlink:title=" ">
<polygon fill="#999999" stroke="#666666" points="148,-96 11,-96 11,-66 148,-66 148,-96"/>
<text text-anchor="start" x="19" y="-84" font-family="Helvetica,sans-Serif" font-size="10.00">CharacterCamera3rdPerson</text>
<text text-anchor="middle" x="79.5" y="-73" font-family="Helvetica,sans-Serif" font-size="10.00">Crouch</text>
</a>
</g>
</g>
<!-- Node6 -->
<g id="node6" class="node">
<title>Node6</title>
<g id="a_node6"><a xlink:href="interfaceCharacterCamera3rdPersonSitting.html" target="_top" xlink:title=" ">
<polygon fill="white" stroke="#666666" points="148,-30 11,-30 11,0 148,0 148,-30"/>
<text text-anchor="start" x="19" y="-18" font-family="Helvetica,sans-Serif" font-size="10.00">CharacterCamera3rdPerson</text>
<text text-anchor="middle" x="79.5" y="-7" font-family="Helvetica,sans-Serif" font-size="10.00">Sitting</text>
</a>
</g>
</g>
<!-- Node1&#45;&gt;Node6 -->
<g id="edge5" class="edge">
<title>Node1&#45;&gt;Node6</title>
<path fill="none" stroke="#63b8ff" d="M79.5,-54.97C79.5,-46.55 79.5,-37.45 79.5,-30.16"/>
<polygon fill="#63b8ff" stroke="#63b8ff" points="76,-54.8 79.5,-64.8 83,-54.8 76,-54.8"/>
</g>
<!-- Node2 -->
<g id="node2" class="node">
<title>Node2</title>
<g id="a_node2"><a xlink:href="interfaceCharacterCamera3rdPersonBase.html" target="_top" xlink:title=" ">
<polygon fill="white" stroke="#666666" points="159,-151 0,-151 0,-132 159,-132 159,-151"/>
<text text-anchor="middle" x="79.5" y="-139" font-family="Helvetica,sans-Serif" font-size="10.00">CharacterCamera3rdPersonBase</text>
</a>
</g>
</g>
<!-- Node2&#45;&gt;Node1 -->
<g id="edge1" class="edge">
<title>Node2&#45;&gt;Node1</title>
<path fill="none" stroke="#63b8ff" d="M79.5,-121.08C79.5,-112.92 79.5,-103.6 79.5,-96.11"/>
<polygon fill="#63b8ff" stroke="#63b8ff" points="76,-120.87 79.5,-130.87 83,-120.87 76,-120.87"/>
</g>
<!-- Node3 -->
<g id="node3" class="node">
<title>Node3</title>
<g id="a_node3"><a xlink:href="interfaceCharacterCameraBase.html" target="_top" xlink:title=" ">
<polygon fill="white" stroke="#666666" points="137,-206 22,-206 22,-187 137,-187 137,-206"/>
<text text-anchor="middle" x="79.5" y="-194" font-family="Helvetica,sans-Serif" font-size="10.00">CharacterCameraBase</text>
</a>
</g>
</g>
<!-- Node3&#45;&gt;Node2 -->
<g id="edge2" class="edge">
<title>Node3&#45;&gt;Node2</title>
<path fill="none" stroke="#63b8ff" d="M79.5,-175.93C79.5,-167.53 79.5,-158.13 79.5,-151.44"/>
<polygon fill="#63b8ff" stroke="#63b8ff" points="76,-175.75 79.5,-185.75 83,-175.75 76,-175.75"/>
</g>
<!-- Node4 -->
<g id="node4" class="node">
<title>Node4</title>
<g id="a_node4"><a xlink:href="interfaceScriptedCameraItem.html" target="_top" xlink:title=" ">
<polygon fill="white" stroke="#666666" points="132,-261 27,-261 27,-242 132,-242 132,-261"/>
<text text-anchor="middle" x="79.5" y="-249" font-family="Helvetica,sans-Serif" font-size="10.00">ScriptedCameraItem</text>
</a>
</g>
</g>
<!-- Node4&#45;&gt;Node3 -->
<g id="edge3" class="edge">
<title>Node4&#45;&gt;Node3</title>
<path fill="none" stroke="#63b8ff" d="M79.5,-230.93C79.5,-222.53 79.5,-213.13 79.5,-206.44"/>
<polygon fill="#63b8ff" stroke="#63b8ff" points="76,-230.75 79.5,-240.75 83,-230.75 76,-230.75"/>
</g>
<!-- Node5 -->
<g id="node5" class="node">
<title>Node5</title>
<g id="a_node5"><a xlink:href="interfaceBaseScriptedCameraItem.html" target="_top" xlink:title=" ">
<polygon fill="white" stroke="#666666" points="143.5,-316 15.5,-316 15.5,-297 143.5,-297 143.5,-316"/>
<text text-anchor="middle" x="79.5" y="-304" font-family="Helvetica,sans-Serif" font-size="10.00">BaseScriptedCameraItem</text>
</a>
</g>
</g>
<!-- Node5&#45;&gt;Node4 -->
<g id="edge4" class="edge">
<title>Node5&#45;&gt;Node4</title>
<path fill="none" stroke="#63b8ff" d="M79.5,-285.93C79.5,-277.53 79.5,-268.13 79.5,-261.44"/>
<polygon fill="#63b8ff" stroke="#63b8ff" points="76,-285.75 79.5,-295.75 83,-285.75 76,-285.75"/>
</g>
</g>
</svg>
