<?xml version="1.0" encoding="UTF-8" standalone="no"?>
<!DOCTYPE svg PUBLIC "-//W3C//DTD SVG 1.1//EN"
 "http://www.w3.org/Graphics/SVG/1.1/DTD/svg11.dtd">
<!-- Generated by graphviz version 8.0.2 (20230410.1723)
 -->
<!-- Title: WeaponSlotComponent Pages: 1 -->
<svg width="772pt" height="138pt"
 viewBox="0.00 0.00 772.00 138.00" xmlns="http://www.w3.org/2000/svg" xmlns:xlink="http://www.w3.org/1999/xlink">
<g id="graph0" class="graph" transform="scale(1 1) rotate(0) translate(4 134)">
<title>WeaponSlotComponent</title>
<!-- Node1 -->
<g id="node1" class="node">
<title>Node1</title>
<g id="a_node1"><a xlink:title=" ">
<polygon fill="#999999" stroke="#666666" points="544,-74 425,-74 425,-55 544,-55 544,-74"/>
<text text-anchor="middle" x="484.5" y="-62" font-family="Helvetica,sans-Serif" font-size="10.00">WeaponSlotComponent</text>
</a>
</g>
</g>
<!-- Node5 -->
<g id="node5" class="node">
<title>Node5</title>
<g id="a_node5"><a xlink:href="interfaceCharacterGrenadeSlotComponent.html" target="_top" xlink:title=" ">
<polygon fill="white" stroke="#666666" points="753,-130 591,-130 591,-111 753,-111 753,-130"/>
<text text-anchor="middle" x="672" y="-118" font-family="Helvetica,sans-Serif" font-size="10.00">CharacterGrenadeSlotComponent</text>
</a>
</g>
</g>
<!-- Node1&#45;&gt;Node5 -->
<g id="edge4" class="edge">
<title>Node1&#45;&gt;Node5</title>
<path fill="none" stroke="#63b8ff" d="M516.88,-78.84C535.02,-86.69 558.46,-96.1 580,-102.5 590.34,-105.57 601.51,-108.27 612.35,-110.58"/>
<polygon fill="#63b8ff" stroke="#63b8ff" points="518.42,-75.25 507.86,-74.43 515.6,-81.66 518.42,-75.25"/>
</g>
<!-- Node6 -->
<g id="node6" class="node">
<title>Node6</title>
<g id="a_node6"><a xlink:href="interfaceCharacterHandWeaponSlotComponent.html" target="_top" xlink:title=" ">
<polygon fill="white" stroke="#666666" points="764,-93 580,-93 580,-74 764,-74 764,-93"/>
<text text-anchor="middle" x="672" y="-81" font-family="Helvetica,sans-Serif" font-size="10.00">CharacterHandWeaponSlotComponent</text>
</a>
</g>
</g>
<!-- Node1&#45;&gt;Node6 -->
<g id="edge5" class="edge">
<title>Node1&#45;&gt;Node6</title>
<path fill="none" stroke="#63b8ff" d="M555.19,-71.64C563.2,-72.46 571.45,-73.3 579.69,-74.15"/>
<polygon fill="#63b8ff" stroke="#63b8ff" points="555.75,-68.08 545.45,-70.54 555.04,-75.04 555.75,-68.08"/>
</g>
<!-- Node7 -->
<g id="node7" class="node">
<title>Node7</title>
<g id="a_node7"><a xlink:href="interfaceCharacterWeaponSlotComponent.html" target="_top" xlink:title=" ">
<polygon fill="white" stroke="#666666" points="752.5,-56 591.5,-56 591.5,-37 752.5,-37 752.5,-56"/>
<text text-anchor="middle" x="672" y="-44" font-family="Helvetica,sans-Serif" font-size="10.00">CharacterWeaponSlotComponent</text>
</a>
</g>
</g>
<!-- Node1&#45;&gt;Node7 -->
<g id="edge6" class="edge">
<title>Node1&#45;&gt;Node7</title>
<path fill="none" stroke="#63b8ff" d="M555.09,-57.75C566.86,-56.6 579.17,-55.41 591.18,-54.25"/>
<polygon fill="#63b8ff" stroke="#63b8ff" points="555.06,-54.33 545.45,-58.78 555.74,-61.3 555.06,-54.33"/>
</g>
<!-- Node8 -->
<g id="node8" class="node">
<title>Node8</title>
<g id="a_node8"><a xlink:href="interfaceGrenadeSlotComponent.html" target="_top" xlink:title=" ">
<polygon fill="white" stroke="#666666" points="732,-19 612,-19 612,0 732,0 732,-19"/>
<text text-anchor="middle" x="672" y="-7" font-family="Helvetica,sans-Serif" font-size="10.00">GrenadeSlotComponent</text>
</a>
</g>
</g>
<!-- Node1&#45;&gt;Node8 -->
<g id="edge7" class="edge">
<title>Node1&#45;&gt;Node8</title>
<path fill="none" stroke="#63b8ff" d="M517.64,-50.27C535.69,-42.7 558.79,-33.7 580,-27.5 590.36,-24.47 601.53,-21.8 612.37,-19.5"/>
<polygon fill="#63b8ff" stroke="#63b8ff" points="516.47,-47.39 508.64,-54.53 519.21,-53.83 516.47,-47.39"/>
</g>
<!-- Node2 -->
<g id="node2" class="node">
<title>Node2</title>
<g id="a_node2"><a xlink:href="interfaceBaseWeaponComponent.html" target="_top" xlink:title=" ">
<polygon fill="white" stroke="#666666" points="389,-74 264,-74 264,-55 389,-55 389,-74"/>
<text text-anchor="middle" x="326.5" y="-62" font-family="Helvetica,sans-Serif" font-size="10.00">BaseWeaponComponent</text>
</a>
</g>
</g>
<!-- Node2&#45;&gt;Node1 -->
<g id="edge1" class="edge">
<title>Node2&#45;&gt;Node1</title>
<path fill="none" stroke="#63b8ff" d="M399.93,-64.5C408.19,-64.5 416.53,-64.5 424.58,-64.5"/>
<polygon fill="#63b8ff" stroke="#63b8ff" points="400.16,-61 390.16,-64.5 400.16,-68 400.16,-61"/>
</g>
<!-- Node3 -->
<g id="node3" class="node">
<title>Node3</title>
<g id="a_node3"><a xlink:href="interfaceGameComponent.html" target="_top" xlink:title=" ">
<polygon fill="white" stroke="#666666" points="228,-74 136,-74 136,-55 228,-55 228,-74"/>
<text text-anchor="middle" x="182" y="-62" font-family="Helvetica,sans-Serif" font-size="10.00">GameComponent</text>
</a>
</g>
</g>
<!-- Node3&#45;&gt;Node2 -->
<g id="edge2" class="edge">
<title>Node3&#45;&gt;Node2</title>
<path fill="none" stroke="#63b8ff" d="M239.46,-64.5C247.38,-64.5 255.55,-64.5 263.56,-64.5"/>
<polygon fill="#63b8ff" stroke="#63b8ff" points="239.48,-61 229.48,-64.5 239.48,-68 239.48,-61"/>
</g>
<!-- Node4 -->
<g id="node4" class="node">
<title>Node4</title>
<g id="a_node4"><a xlink:title=" ">
<polygon fill="white" stroke="#666666" points="100,-74 0,-74 0,-55 100,-55 100,-74"/>
<text text-anchor="middle" x="50" y="-62" font-family="Helvetica,sans-Serif" font-size="10.00">GenericComponent</text>
</a>
</g>
</g>
<!-- Node4&#45;&gt;Node3 -->
<g id="edge3" class="edge">
<title>Node4&#45;&gt;Node3</title>
<path fill="none" stroke="#63b8ff" d="M110.95,-64.5C119.25,-64.5 127.66,-64.5 135.64,-64.5"/>
<polygon fill="#63b8ff" stroke="#63b8ff" points="111.15,-61 101.15,-64.5 111.15,-68 111.15,-61"/>
</g>
</g>
</svg>
