<?xml version="1.0" encoding="UTF-8" standalone="no"?>
<!DOCTYPE svg PUBLIC "-//W3C//DTD SVG 1.1//EN"
 "http://www.w3.org/Graphics/SVG/1.1/DTD/svg11.dtd">
<!-- Generated by graphviz version 8.0.2 (20230410.1723)
 -->
<!-- Title: SCR_CharacterInventoryStorageComponent Pages: 1 -->
<svg width="178pt" height="511pt"
 viewBox="0.00 0.00 178.00 511.00" xmlns="http://www.w3.org/2000/svg" xmlns:xlink="http://www.w3.org/1999/xlink">
<g id="graph0" class="graph" transform="scale(1 1) rotate(0) translate(4 507)">
<title>SCR_CharacterInventoryStorageComponent</title>
<!-- Node1 -->
<g id="node1" class="node">
<title>Node1</title>
<g id="a_node1"><a xlink:title=" ">
<polygon fill="#999999" stroke="#666666" points="163,-30 7,-30 7,0 163,0 163,-30"/>
<text text-anchor="start" x="15" y="-18" font-family="Helvetica,sans-Serif" font-size="10.00">SCR_CharacterInventoryStorage</text>
<text text-anchor="middle" x="85" y="-7" font-family="Helvetica,sans-Serif" font-size="10.00">Component</text>
</a>
</g>
</g>
<!-- Node2 -->
<g id="node2" class="node">
<title>Node2</title>
<g id="a_node2"><a xlink:href="interfaceCharacterInventoryStorageComponent.html" target="_top" xlink:title=" ">
<polygon fill="white" stroke="#666666" points="150.5,-96 19.5,-96 19.5,-66 150.5,-66 150.5,-96"/>
<text text-anchor="start" x="27.5" y="-84" font-family="Helvetica,sans-Serif" font-size="10.00">CharacterInventoryStorage</text>
<text text-anchor="middle" x="85" y="-73" font-family="Helvetica,sans-Serif" font-size="10.00">Component</text>
</a>
</g>
</g>
<!-- Node2&#45;&gt;Node1 -->
<g id="edge1" class="edge">
<title>Node2&#45;&gt;Node1</title>
<path fill="none" stroke="#63b8ff" d="M85,-54.97C85,-46.55 85,-37.45 85,-30.16"/>
<polygon fill="#63b8ff" stroke="#63b8ff" points="81.5,-54.8 85,-64.8 88.5,-54.8 81.5,-54.8"/>
</g>
<!-- Node3 -->
<g id="node3" class="node">
<title>Node3</title>
<g id="a_node3"><a xlink:href="interfaceSCR__EquipedLoadoutStorageComponent.html" target="_top" xlink:title=" ">
<polygon fill="white" stroke="#666666" points="158,-162 12,-162 12,-132 158,-132 158,-162"/>
<text text-anchor="start" x="20" y="-150" font-family="Helvetica,sans-Serif" font-size="10.00">SCR_EquipedLoadoutStorage</text>
<text text-anchor="middle" x="85" y="-139" font-family="Helvetica,sans-Serif" font-size="10.00">Component</text>
</a>
</g>
</g>
<!-- Node3&#45;&gt;Node2 -->
<g id="edge2" class="edge">
<title>Node3&#45;&gt;Node2</title>
<path fill="none" stroke="#63b8ff" d="M85,-120.97C85,-112.55 85,-103.45 85,-96.16"/>
<polygon fill="#63b8ff" stroke="#63b8ff" points="81.5,-120.8 85,-130.8 88.5,-120.8 81.5,-120.8"/>
</g>
<!-- Node4 -->
<g id="node4" class="node">
<title>Node4</title>
<g id="a_node4"><a xlink:href="interfaceEquipedLoadoutStorageComponent.html" target="_top" xlink:title=" ">
<polygon fill="white" stroke="#666666" points="170,-217 0,-217 0,-198 170,-198 170,-217"/>
<text text-anchor="middle" x="85" y="-205" font-family="Helvetica,sans-Serif" font-size="10.00">EquipedLoadoutStorageComponent</text>
</a>
</g>
</g>
<!-- Node4&#45;&gt;Node3 -->
<g id="edge3" class="edge">
<title>Node4&#45;&gt;Node3</title>
<path fill="none" stroke="#63b8ff" d="M85,-187.08C85,-178.92 85,-169.6 85,-162.11"/>
<polygon fill="#63b8ff" stroke="#63b8ff" points="81.5,-186.87 85,-196.87 88.5,-186.87 81.5,-186.87"/>
</g>
<!-- Node5 -->
<g id="node5" class="node">
<title>Node5</title>
<g id="a_node5"><a xlink:href="interfaceScriptedBaseInventoryStorageComponent.html" target="_top" xlink:title=" ">
<polygon fill="white" stroke="#666666" points="158.5,-283 11.5,-283 11.5,-253 158.5,-253 158.5,-283"/>
<text text-anchor="start" x="19.5" y="-271" font-family="Helvetica,sans-Serif" font-size="10.00">ScriptedBaseInventoryStorage</text>
<text text-anchor="middle" x="85" y="-260" font-family="Helvetica,sans-Serif" font-size="10.00">Component</text>
</a>
</g>
</g>
<!-- Node5&#45;&gt;Node4 -->
<g id="edge4" class="edge">
<title>Node5&#45;&gt;Node4</title>
<path fill="none" stroke="#63b8ff" d="M85,-241.59C85,-232.85 85,-223.65 85,-217.18"/>
<polygon fill="#63b8ff" stroke="#63b8ff" points="81.5,-241.54 85,-251.54 88.5,-241.54 81.5,-241.54"/>
</g>
<!-- Node6 -->
<g id="node6" class="node">
<title>Node6</title>
<g id="a_node6"><a xlink:href="interfaceBaseInventoryStorageComponent.html" target="_top" xlink:title=" ">
<polygon fill="white" stroke="#666666" points="165.5,-338 4.5,-338 4.5,-319 165.5,-319 165.5,-338"/>
<text text-anchor="middle" x="85" y="-326" font-family="Helvetica,sans-Serif" font-size="10.00">BaseInventoryStorageComponent</text>
</a>
</g>
</g>
<!-- Node6&#45;&gt;Node5 -->
<g id="edge5" class="edge">
<title>Node6&#45;&gt;Node5</title>
<path fill="none" stroke="#63b8ff" d="M85,-308.08C85,-299.92 85,-290.6 85,-283.11"/>
<polygon fill="#63b8ff" stroke="#63b8ff" points="81.5,-307.87 85,-317.87 88.5,-307.87 81.5,-307.87"/>
</g>
<!-- Node7 -->
<g id="node7" class="node">
<title>Node7</title>
<g id="a_node7"><a xlink:href="interfaceInventoryItemComponent.html" target="_top" xlink:title=" ">
<polygon fill="white" stroke="#666666" points="146.5,-393 23.5,-393 23.5,-374 146.5,-374 146.5,-393"/>
<text text-anchor="middle" x="85" y="-381" font-family="Helvetica,sans-Serif" font-size="10.00">InventoryItemComponent</text>
</a>
</g>
</g>
<!-- Node7&#45;&gt;Node6 -->
<g id="edge6" class="edge">
<title>Node7&#45;&gt;Node6</title>
<path fill="none" stroke="#63b8ff" d="M85,-362.93C85,-354.53 85,-345.13 85,-338.44"/>
<polygon fill="#63b8ff" stroke="#63b8ff" points="81.5,-362.75 85,-372.75 88.5,-362.75 81.5,-362.75"/>
</g>
<!-- Node8 -->
<g id="node8" class="node">
<title>Node8</title>
<g id="a_node8"><a xlink:href="interfaceGameComponent.html" target="_top" xlink:title=" ">
<polygon fill="white" stroke="#666666" points="131,-448 39,-448 39,-429 131,-429 131,-448"/>
<text text-anchor="middle" x="85" y="-436" font-family="Helvetica,sans-Serif" font-size="10.00">GameComponent</text>
</a>
</g>
</g>
<!-- Node8&#45;&gt;Node7 -->
<g id="edge7" class="edge">
<title>Node8&#45;&gt;Node7</title>
<path fill="none" stroke="#63b8ff" d="M85,-417.93C85,-409.53 85,-400.13 85,-393.44"/>
<polygon fill="#63b8ff" stroke="#63b8ff" points="81.5,-417.75 85,-427.75 88.5,-417.75 81.5,-417.75"/>
</g>
<!-- Node9 -->
<g id="node9" class="node">
<title>Node9</title>
<g id="a_node9"><a xlink:title=" ">
<polygon fill="white" stroke="#666666" points="135,-503 35,-503 35,-484 135,-484 135,-503"/>
<text text-anchor="middle" x="85" y="-491" font-family="Helvetica,sans-Serif" font-size="10.00">GenericComponent</text>
</a>
</g>
</g>
<!-- Node9&#45;&gt;Node8 -->
<g id="edge8" class="edge">
<title>Node9&#45;&gt;Node8</title>
<path fill="none" stroke="#63b8ff" d="M85,-472.93C85,-464.53 85,-455.13 85,-448.44"/>
<polygon fill="#63b8ff" stroke="#63b8ff" points="81.5,-472.75 85,-482.75 88.5,-472.75 81.5,-472.75"/>
</g>
</g>
</svg>
