<?xml version="1.0" encoding="UTF-8" standalone="no"?>
<!DOCTYPE svg PUBLIC "-//W3C//DTD SVG 1.1//EN"
 "http://www.w3.org/Graphics/SVG/1.1/DTD/svg11.dtd">
<!-- Generated by graphviz version 8.0.2 (20230410.1723)
 -->
<!-- Title: CharacterCamera1stPersonUnconscious Pages: 1 -->
<svg width="145pt" height="258pt"
 viewBox="0.00 0.00 145.00 258.00" xmlns="http://www.w3.org/2000/svg" xmlns:xlink="http://www.w3.org/1999/xlink">
<g id="graph0" class="graph" transform="scale(1 1) rotate(0) translate(4 254)">
<title>CharacterCamera1stPersonUnconscious</title>
<!-- Node1 -->
<g id="node1" class="node">
<title>Node1</title>
<g id="a_node1"><a xlink:title=" ">
<polygon fill="#999999" stroke="#666666" points="137,-30 0,-30 0,0 137,0 137,-30"/>
<text text-anchor="start" x="8" y="-18" font-family="Helvetica,sans-Serif" font-size="10.00">CharacterCamera1stPerson</text>
<text text-anchor="middle" x="68.5" y="-7" font-family="Helvetica,sans-Serif" font-size="10.00">Unconscious</text>
</a>
</g>
</g>
<!-- Node2 -->
<g id="node2" class="node">
<title>Node2</title>
<g id="a_node2"><a xlink:href="interfaceCharacterCamera1stPerson.html" target="_top" xlink:title=" ">
<polygon fill="white" stroke="#666666" points="137,-85 0,-85 0,-66 137,-66 137,-85"/>
<text text-anchor="middle" x="68.5" y="-73" font-family="Helvetica,sans-Serif" font-size="10.00">CharacterCamera1stPerson</text>
</a>
</g>
</g>
<!-- Node2&#45;&gt;Node1 -->
<g id="edge1" class="edge">
<title>Node2&#45;&gt;Node1</title>
<path fill="none" stroke="#63b8ff" d="M68.5,-55.08C68.5,-46.92 68.5,-37.6 68.5,-30.11"/>
<polygon fill="#63b8ff" stroke="#63b8ff" points="65,-54.87 68.5,-64.87 72,-54.87 65,-54.87"/>
</g>
<!-- Node3 -->
<g id="node3" class="node">
<title>Node3</title>
<g id="a_node3"><a xlink:href="interfaceCharacterCameraBase.html" target="_top" xlink:title=" ">
<polygon fill="white" stroke="#666666" points="126,-140 11,-140 11,-121 126,-121 126,-140"/>
<text text-anchor="middle" x="68.5" y="-128" font-family="Helvetica,sans-Serif" font-size="10.00">CharacterCameraBase</text>
</a>
</g>
</g>
<!-- Node3&#45;&gt;Node2 -->
<g id="edge2" class="edge">
<title>Node3&#45;&gt;Node2</title>
<path fill="none" stroke="#63b8ff" d="M68.5,-109.93C68.5,-101.53 68.5,-92.13 68.5,-85.44"/>
<polygon fill="#63b8ff" stroke="#63b8ff" points="65,-109.75 68.5,-119.75 72,-109.75 65,-109.75"/>
</g>
<!-- Node4 -->
<g id="node4" class="node">
<title>Node4</title>
<g id="a_node4"><a xlink:href="interfaceScriptedCameraItem.html" target="_top" xlink:title=" ">
<polygon fill="white" stroke="#666666" points="121,-195 16,-195 16,-176 121,-176 121,-195"/>
<text text-anchor="middle" x="68.5" y="-183" font-family="Helvetica,sans-Serif" font-size="10.00">ScriptedCameraItem</text>
</a>
</g>
</g>
<!-- Node4&#45;&gt;Node3 -->
<g id="edge3" class="edge">
<title>Node4&#45;&gt;Node3</title>
<path fill="none" stroke="#63b8ff" d="M68.5,-164.93C68.5,-156.53 68.5,-147.13 68.5,-140.44"/>
<polygon fill="#63b8ff" stroke="#63b8ff" points="65,-164.75 68.5,-174.75 72,-164.75 65,-164.75"/>
</g>
<!-- Node5 -->
<g id="node5" class="node">
<title>Node5</title>
<g id="a_node5"><a xlink:href="interfaceBaseScriptedCameraItem.html" target="_top" xlink:title=" ">
<polygon fill="white" stroke="#666666" points="132.5,-250 4.5,-250 4.5,-231 132.5,-231 132.5,-250"/>
<text text-anchor="middle" x="68.5" y="-238" font-family="Helvetica,sans-Serif" font-size="10.00">BaseScriptedCameraItem</text>
</a>
</g>
</g>
<!-- Node5&#45;&gt;Node4 -->
<g id="edge4" class="edge">
<title>Node5&#45;&gt;Node4</title>
<path fill="none" stroke="#63b8ff" d="M68.5,-219.93C68.5,-211.53 68.5,-202.13 68.5,-195.44"/>
<polygon fill="#63b8ff" stroke="#63b8ff" points="65,-219.75 68.5,-229.75 72,-219.75 65,-219.75"/>
</g>
</g>
</svg>
