<?xml version="1.0" encoding="UTF-8" standalone="no"?>
<!DOCTYPE svg PUBLIC "-//W3C//DTD SVG 1.1//EN"
 "http://www.w3.org/Graphics/SVG/1.1/DTD/svg11.dtd">
<!-- Generated by graphviz version 8.0.2 (20230410.1723)
 -->
<!-- Title: SCR_HostScenarioWhileDownloadingDialog Pages: 1 -->
<svg width="188pt" height="148pt"
 viewBox="0.00 0.00 188.00 148.00" xmlns="http://www.w3.org/2000/svg" xmlns:xlink="http://www.w3.org/1999/xlink">
<g id="graph0" class="graph" transform="scale(1 1) rotate(0) translate(4 144)">
<title>SCR_HostScenarioWhileDownloadingDialog</title>
<!-- Node1 -->
<g id="node1" class="node">
<title>Node1</title>
<g id="a_node1"><a xlink:title=" ">
<polygon fill="#999999" stroke="#666666" points="180,-30 0,-30 0,0 180,0 180,-30"/>
<text text-anchor="start" x="8" y="-18" font-family="Helvetica,sans-Serif" font-size="10.00">SCR_HostScenarioWhileDownloading</text>
<text text-anchor="middle" x="90" y="-7" font-family="Helvetica,sans-Serif" font-size="10.00">Dialog</text>
</a>
</g>
</g>
<!-- Node2 -->
<g id="node2" class="node">
<title>Node2</title>
<g id="a_node2"><a xlink:href="interfaceSCR__ConfigurableDialogUi.html" target="_top" xlink:title=" ">
<polygon fill="white" stroke="#666666" points="155.5,-85 24.5,-85 24.5,-66 155.5,-66 155.5,-85"/>
<text text-anchor="middle" x="90" y="-73" font-family="Helvetica,sans-Serif" font-size="10.00">SCR_ConfigurableDialogUi</text>
</a>
</g>
</g>
<!-- Node2&#45;&gt;Node1 -->
<g id="edge1" class="edge">
<title>Node2&#45;&gt;Node1</title>
<path fill="none" stroke="#63b8ff" d="M90,-55.08C90,-46.92 90,-37.6 90,-30.11"/>
<polygon fill="#63b8ff" stroke="#63b8ff" points="86.5,-54.87 90,-64.87 93.5,-54.87 86.5,-54.87"/>
</g>
<!-- Node3 -->
<g id="node3" class="node">
<title>Node3</title>
<g id="a_node3"><a xlink:title=" ">
<polygon fill="white" stroke="#666666" points="156.5,-140 23.5,-140 23.5,-121 156.5,-121 156.5,-140"/>
<text text-anchor="middle" x="90" y="-128" font-family="Helvetica,sans-Serif" font-size="10.00">ScriptedWidgetComponent</text>
</a>
</g>
</g>
<!-- Node3&#45;&gt;Node2 -->
<g id="edge2" class="edge">
<title>Node3&#45;&gt;Node2</title>
<path fill="none" stroke="#63b8ff" d="M90,-109.93C90,-101.53 90,-92.13 90,-85.44"/>
<polygon fill="#63b8ff" stroke="#63b8ff" points="86.5,-109.75 90,-119.75 93.5,-109.75 86.5,-109.75"/>
</g>
</g>
</svg>
