<?xml version="1.0" encoding="UTF-8" standalone="no"?>
<!DOCTYPE svg PUBLIC "-//W3C//DTD SVG 1.1//EN"
 "http://www.w3.org/Graphics/SVG/1.1/DTD/svg11.dtd">
<!-- Generated by graphviz version 8.0.2 (20230410.1723)
 -->
<!-- Title: AIGroupMovementComponent Pages: 1 -->
<svg width="179pt" height="137pt"
 viewBox="0.00 0.00 179.00 137.00" xmlns="http://www.w3.org/2000/svg" xmlns:xlink="http://www.w3.org/1999/xlink">
<g id="graph0" class="graph" transform="scale(1 1) rotate(0) translate(4 133)">
<title>AIGroupMovementComponent</title>
<!-- Node1 -->
<g id="node1" class="node">
<title>Node1</title>
<g id="a_node1"><a xlink:title=" ">
<polygon fill="#999999" stroke="#666666" points="158.5,-74 12.5,-74 12.5,-55 158.5,-55 158.5,-74"/>
<text text-anchor="middle" x="85.5" y="-62" font-family="Helvetica,sans-Serif" font-size="10.00">AIGroupMovementComponent</text>
</a>
</g>
</g>
<!-- Node3 -->
<g id="node3" class="node">
<title>Node3</title>
<g id="a_node3"><a xlink:href="interfaceSCR__AIGroupMovementComponent.html" target="_top" xlink:title=" ">
<polygon fill="white" stroke="#666666" points="171,-19 0,-19 0,0 171,0 171,-19"/>
<text text-anchor="middle" x="85.5" y="-7" font-family="Helvetica,sans-Serif" font-size="10.00">SCR_AIGroupMovementComponent</text>
</a>
</g>
</g>
<!-- Node1&#45;&gt;Node3 -->
<g id="edge2" class="edge">
<title>Node1&#45;&gt;Node3</title>
<path fill="none" stroke="#63b8ff" d="M85.5,-43.93C85.5,-35.53 85.5,-26.13 85.5,-19.44"/>
<polygon fill="#63b8ff" stroke="#63b8ff" points="82,-43.75 85.5,-53.75 89,-43.75 82,-43.75"/>
</g>
<!-- Node2 -->
<g id="node2" class="node">
<title>Node2</title>
<g id="a_node2"><a xlink:title=" ">
<polygon fill="white" stroke="#666666" points="156.5,-129 14.5,-129 14.5,-110 156.5,-110 156.5,-129"/>
<text text-anchor="middle" x="85.5" y="-117" font-family="Helvetica,sans-Serif" font-size="10.00">AIBaseMovementComponent</text>
</a>
</g>
</g>
<!-- Node2&#45;&gt;Node1 -->
<g id="edge1" class="edge">
<title>Node2&#45;&gt;Node1</title>
<path fill="none" stroke="#63b8ff" d="M85.5,-98.93C85.5,-90.53 85.5,-81.13 85.5,-74.44"/>
<polygon fill="#63b8ff" stroke="#63b8ff" points="82,-98.75 85.5,-108.75 89,-98.75 82,-98.75"/>
</g>
</g>
</svg>
