<?xml version="1.0" encoding="UTF-8" standalone="no"?>
<!DOCTYPE svg PUBLIC "-//W3C//DTD SVG 1.1//EN"
 "http://www.w3.org/Graphics/SVG/1.1/DTD/svg11.dtd">
<!-- Generated by graphviz version 8.0.2 (20230410.1723)
 -->
<!-- Title: SCR_AIDefendActivity Pages: 1 -->
<svg width="121pt" height="247pt"
 viewBox="0.00 0.00 121.00 247.00" xmlns="http://www.w3.org/2000/svg" xmlns:xlink="http://www.w3.org/1999/xlink">
<g id="graph0" class="graph" transform="scale(1 1) rotate(0) translate(4 243)">
<title>SCR_AIDefendActivity</title>
<!-- Node1 -->
<g id="node1" class="node">
<title>Node1</title>
<g id="a_node1"><a xlink:title=" ">
<polygon fill="#999999" stroke="#666666" points="113,-19 0,-19 0,0 113,0 113,-19"/>
<text text-anchor="middle" x="56.5" y="-7" font-family="Helvetica,sans-Serif" font-size="10.00">SCR_AIDefendActivity</text>
</a>
</g>
</g>
<!-- Node2 -->
<g id="node2" class="node">
<title>Node2</title>
<g id="a_node2"><a xlink:href="interfaceSCR__AIActivityBase.html" target="_top" xlink:title=" ">
<polygon fill="white" stroke="#666666" points="109,-74 4,-74 4,-55 109,-55 109,-74"/>
<text text-anchor="middle" x="56.5" y="-62" font-family="Helvetica,sans-Serif" font-size="10.00">SCR_AIActivityBase</text>
</a>
</g>
</g>
<!-- Node2&#45;&gt;Node1 -->
<g id="edge1" class="edge">
<title>Node2&#45;&gt;Node1</title>
<path fill="none" stroke="#63b8ff" d="M56.5,-43.93C56.5,-35.53 56.5,-26.13 56.5,-19.44"/>
<polygon fill="#63b8ff" stroke="#63b8ff" points="53,-43.75 56.5,-53.75 60,-43.75 53,-43.75"/>
</g>
<!-- Node3 -->
<g id="node3" class="node">
<title>Node3</title>
<g id="a_node3"><a xlink:href="interfaceSCR__AIActionBase.html" target="_top" xlink:title=" ">
<polygon fill="white" stroke="#666666" points="107,-129 6,-129 6,-110 107,-110 107,-129"/>
<text text-anchor="middle" x="56.5" y="-117" font-family="Helvetica,sans-Serif" font-size="10.00">SCR_AIActionBase</text>
</a>
</g>
</g>
<!-- Node3&#45;&gt;Node2 -->
<g id="edge2" class="edge">
<title>Node3&#45;&gt;Node2</title>
<path fill="none" stroke="#63b8ff" d="M56.5,-98.93C56.5,-90.53 56.5,-81.13 56.5,-74.44"/>
<polygon fill="#63b8ff" stroke="#63b8ff" points="53,-98.75 56.5,-108.75 60,-98.75 53,-98.75"/>
</g>
<!-- Node4 -->
<g id="node4" class="node">
<title>Node4</title>
<g id="a_node4"><a xlink:href="interfaceAIActionBase.html" target="_top" xlink:title=" ">
<polygon fill="white" stroke="#666666" points="94.5,-184 18.5,-184 18.5,-165 94.5,-165 94.5,-184"/>
<text text-anchor="middle" x="56.5" y="-172" font-family="Helvetica,sans-Serif" font-size="10.00">AIActionBase</text>
</a>
</g>
</g>
<!-- Node4&#45;&gt;Node3 -->
<g id="edge3" class="edge">
<title>Node4&#45;&gt;Node3</title>
<path fill="none" stroke="#63b8ff" d="M56.5,-153.93C56.5,-145.53 56.5,-136.13 56.5,-129.44"/>
<polygon fill="#63b8ff" stroke="#63b8ff" points="53,-153.75 56.5,-163.75 60,-153.75 53,-153.75"/>
</g>
<!-- Node5 -->
<g id="node5" class="node">
<title>Node5</title>
<g id="a_node5"><a xlink:title=" ">
<polygon fill="white" stroke="#666666" points="99.5,-239 13.5,-239 13.5,-220 99.5,-220 99.5,-239"/>
<text text-anchor="middle" x="56.5" y="-227" font-family="Helvetica,sans-Serif" font-size="10.00">ScriptAndConfig</text>
</a>
</g>
</g>
<!-- Node5&#45;&gt;Node4 -->
<g id="edge4" class="edge">
<title>Node5&#45;&gt;Node4</title>
<path fill="none" stroke="#63b8ff" d="M56.5,-208.93C56.5,-200.53 56.5,-191.13 56.5,-184.44"/>
<polygon fill="#63b8ff" stroke="#63b8ff" points="53,-208.75 56.5,-218.75 60,-208.75 53,-208.75"/>
</g>
</g>
</svg>
