<?xml version="1.0" encoding="UTF-8" standalone="no"?>
<!DOCTYPE svg PUBLIC "-//W3C//DTD SVG 1.1//EN"
 "http://www.w3.org/Graphics/SVG/1.1/DTD/svg11.dtd">
<!-- Generated by graphviz version 8.0.2 (20230410.1723)
 -->
<!-- Title: SCR_BaseTaskSupportEntity Pages: 1 -->
<svg width="670pt" height="609pt"
 viewBox="0.00 0.00 670.00 609.00" xmlns="http://www.w3.org/2000/svg" xmlns:xlink="http://www.w3.org/1999/xlink">
<g id="graph0" class="graph" transform="scale(1 1) rotate(0) translate(4 605)">
<title>SCR_BaseTaskSupportEntity</title>
<!-- Node1 -->
<g id="node1" class="node">
<title>Node1</title>
<g id="a_node1"><a xlink:title=" ">
<polygon fill="#999999" stroke="#666666" points="257,-435.5 112,-435.5 112,-416.5 257,-416.5 257,-435.5"/>
<text text-anchor="middle" x="184.5" y="-423.5" font-family="Helvetica,sans-Serif" font-size="10.00">SCR_BaseTaskSupportEntity</text>
</a>
</g>
</g>
<!-- Node3 -->
<g id="node3" class="node">
<title>Node3</title>
<g id="a_node3"><a xlink:href="interfaceSCR__CampaignBaseTaskSupportEntity.html" target="_top" xlink:title=" ">
<polygon fill="white" stroke="#666666" points="456,-558 293,-558 293,-528 456,-528 456,-558"/>
<text text-anchor="start" x="301" y="-546" font-family="Helvetica,sans-Serif" font-size="10.00">SCR_CampaignBaseTaskSupport</text>
<text text-anchor="middle" x="374.5" y="-535" font-family="Helvetica,sans-Serif" font-size="10.00">Entity</text>
</a>
</g>
</g>
<!-- Node1&#45;&gt;Node3 -->
<g id="edge2" class="edge">
<title>Node1&#45;&gt;Node3</title>
<path fill="none" stroke="#63b8ff" d="M210.43,-441.51C246.48,-463.95 312.78,-505.21 348.74,-527.59"/>
<polygon fill="#63b8ff" stroke="#63b8ff" points="212.87,-438.29 202.53,-435.98 209.17,-444.23 212.87,-438.29"/>
</g>
<!-- Node6 -->
<g id="node6" class="node">
<title>Node6</title>
<g id="a_node6"><a xlink:href="interfaceSCR__EditorTaskSupportEntity.html" target="_top" xlink:title=" ">
<polygon fill="white" stroke="#666666" points="448.5,-478.5 300.5,-478.5 300.5,-459.5 448.5,-459.5 448.5,-478.5"/>
<text text-anchor="middle" x="374.5" y="-466.5" font-family="Helvetica,sans-Serif" font-size="10.00">SCR_EditorTaskSupportEntity</text>
</a>
</g>
</g>
<!-- Node1&#45;&gt;Node6 -->
<g id="edge5" class="edge">
<title>Node1&#45;&gt;Node6</title>
<path fill="none" stroke="#63b8ff" d="M239.74,-438.41C268.34,-444.95 302.96,-452.86 329.81,-459.01"/>
<polygon fill="#63b8ff" stroke="#63b8ff" points="240.63,-434.79 230.1,-435.97 239.07,-441.61 240.63,-434.79"/>
</g>
<!-- Node9 -->
<g id="node9" class="node">
<title>Node9</title>
<g id="a_node9"><a xlink:href="interfaceSCR__RequestedTaskSupportEntity.html" target="_top" xlink:title=" ">
<polygon fill="white" stroke="#666666" points="446,-398 303,-398 303,-368 446,-368 446,-398"/>
<text text-anchor="start" x="311" y="-386" font-family="Helvetica,sans-Serif" font-size="10.00">SCR_RequestedTaskSupport</text>
<text text-anchor="middle" x="374.5" y="-375" font-family="Helvetica,sans-Serif" font-size="10.00">Entity</text>
</a>
</g>
</g>
<!-- Node1&#45;&gt;Node9 -->
<g id="edge8" class="edge">
<title>Node1&#45;&gt;Node9</title>
<path fill="none" stroke="#63b8ff" d="M239.59,-413.63C260.25,-408.9 284.06,-403.46 305.83,-398.48"/>
<polygon fill="#63b8ff" stroke="#63b8ff" points="239.07,-410.39 230.1,-416.03 240.63,-417.21 239.07,-410.39"/>
</g>
<!-- Node14 -->
<g id="node14" class="node">
<title>Node14</title>
<g id="a_node14"><a xlink:href="interfaceSCR__ScenarioFrameworkTaskSupportEntity.html" target="_top" xlink:title=" ">
<polygon fill="white" stroke="#666666" points="449,-174 300,-174 300,-144 449,-144 449,-174"/>
<text text-anchor="start" x="308" y="-162" font-family="Helvetica,sans-Serif" font-size="10.00">SCR_ScenarioFrameworkTask</text>
<text text-anchor="middle" x="374.5" y="-151" font-family="Helvetica,sans-Serif" font-size="10.00">SupportEntity</text>
</a>
</g>
</g>
<!-- Node1&#45;&gt;Node14 -->
<g id="edge13" class="edge">
<title>Node1&#45;&gt;Node14</title>
<path fill="none" stroke="#63b8ff" d="M198.62,-407.37C233.92,-357.24 330.42,-220.19 362.77,-174.24"/>
<polygon fill="#63b8ff" stroke="#63b8ff" points="195.31,-404.99 192.41,-415.18 201.03,-409.02 195.31,-404.99"/>
</g>
<!-- Node2 -->
<g id="node2" class="node">
<title>Node2</title>
<g id="a_node2"><a xlink:title=" ">
<polygon fill="white" stroke="#666666" points="76,-435.5 0,-435.5 0,-416.5 76,-416.5 76,-435.5"/>
<text text-anchor="middle" x="38" y="-423.5" font-family="Helvetica,sans-Serif" font-size="10.00">GenericEntity</text>
</a>
</g>
</g>
<!-- Node2&#45;&gt;Node1 -->
<g id="edge1" class="edge">
<title>Node2&#45;&gt;Node1</title>
<path fill="none" stroke="#63b8ff" d="M87.04,-426C94.94,-426 103.28,-426 111.6,-426"/>
<polygon fill="#63b8ff" stroke="#63b8ff" points="87.21,-422.5 77.21,-426 87.21,-429.5 87.21,-422.5"/>
</g>
<!-- Node4 -->
<g id="node4" class="node">
<title>Node4</title>
<g id="a_node4"><a xlink:href="interfaceSCR__CampaignBuildingTaskSupportEntity.html" target="_top" xlink:title=" ">
<polygon fill="white" stroke="#666666" points="647.5,-601 506.5,-601 506.5,-571 647.5,-571 647.5,-601"/>
<text text-anchor="start" x="514.5" y="-589" font-family="Helvetica,sans-Serif" font-size="10.00">SCR_CampaignBuildingTask</text>
<text text-anchor="middle" x="577" y="-578" font-family="Helvetica,sans-Serif" font-size="10.00">SupportEntity</text>
</a>
</g>
</g>
<!-- Node3&#45;&gt;Node4 -->
<g id="edge3" class="edge">
<title>Node3&#45;&gt;Node4</title>
<path fill="none" stroke="#63b8ff" d="M458.02,-560.7C474.03,-564.13 490.66,-567.7 506.21,-571.03"/>
<polygon fill="#63b8ff" stroke="#63b8ff" points="459.11,-557.14 448.6,-558.46 457.65,-563.98 459.11,-557.14"/>
</g>
<!-- Node5 -->
<g id="node5" class="node">
<title>Node5</title>
<g id="a_node5"><a xlink:href="interfaceSCR__CampaignTaskSupportEntity.html" target="_top" xlink:title=" ">
<polygon fill="white" stroke="#666666" points="660,-552.5 494,-552.5 494,-533.5 660,-533.5 660,-552.5"/>
<text text-anchor="middle" x="577" y="-540.5" font-family="Helvetica,sans-Serif" font-size="10.00">SCR_CampaignTaskSupportEntity</text>
</a>
</g>
</g>
<!-- Node3&#45;&gt;Node5 -->
<g id="edge4" class="edge">
<title>Node3&#45;&gt;Node5</title>
<path fill="none" stroke="#63b8ff" d="M467.21,-543C476.06,-543 484.99,-543 493.74,-543"/>
<polygon fill="#63b8ff" stroke="#63b8ff" points="467.47,-539.5 457.47,-543 467.47,-546.5 467.47,-539.5"/>
</g>
<!-- Node7 -->
<g id="node7" class="node">
<title>Node7</title>
<g id="a_node7"><a xlink:href="interfaceSCR__MoveTaskSupportEntity.html" target="_top" xlink:title=" ">
<polygon fill="white" stroke="#666666" points="649.5,-515.5 504.5,-515.5 504.5,-496.5 649.5,-496.5 649.5,-515.5"/>
<text text-anchor="middle" x="577" y="-503.5" font-family="Helvetica,sans-Serif" font-size="10.00">SCR_MoveTaskSupportEntity</text>
</a>
</g>
</g>
<!-- Node6&#45;&gt;Node7 -->
<g id="edge6" class="edge">
<title>Node6&#45;&gt;Node7</title>
<path fill="none" stroke="#63b8ff" d="M440.16,-480.93C466.55,-485.8 496.72,-491.37 521.91,-496.02"/>
<polygon fill="#63b8ff" stroke="#63b8ff" points="440.96,-477.34 430.49,-478.96 439.69,-484.22 440.96,-477.34"/>
</g>
<!-- Node8 -->
<g id="node8" class="node">
<title>Node8</title>
<g id="a_node8"><a xlink:href="interfaceSCR__TriggerTaskSupportEntity.html" target="_top" xlink:title=" ">
<polygon fill="white" stroke="#666666" points="653,-478.5 501,-478.5 501,-459.5 653,-459.5 653,-478.5"/>
<text text-anchor="middle" x="577" y="-466.5" font-family="Helvetica,sans-Serif" font-size="10.00">SCR_TriggerTaskSupportEntity</text>
</a>
</g>
</g>
<!-- Node6&#45;&gt;Node8 -->
<g id="edge7" class="edge">
<title>Node6&#45;&gt;Node8</title>
<path fill="none" stroke="#63b8ff" d="M459.55,-469C473.18,-469 487.21,-469 500.61,-469"/>
<polygon fill="#63b8ff" stroke="#63b8ff" points="459.74,-465.5 449.74,-469 459.74,-472.5 459.74,-465.5"/>
</g>
<!-- Node10 -->
<g id="node10" class="node">
<title>Node10</title>
<g id="a_node10"><a xlink:href="interfaceSCR__CampaignDefendTaskSupportEntity.html" target="_top" xlink:title=" ">
<polygon fill="white" stroke="#666666" points="662,-441 492,-441 492,-411 662,-411 662,-441"/>
<text text-anchor="start" x="500" y="-429" font-family="Helvetica,sans-Serif" font-size="10.00">SCR_CampaignDefendTaskSupport</text>
<text text-anchor="middle" x="577" y="-418" font-family="Helvetica,sans-Serif" font-size="10.00">Entity</text>
</a>
</g>
</g>
<!-- Node9&#45;&gt;Node10 -->
<g id="edge9" class="edge">
<title>Node9&#45;&gt;Node10</title>
<path fill="none" stroke="#63b8ff" d="M457.06,-400.49C472.53,-403.81 488.62,-407.26 503.77,-410.51"/>
<polygon fill="#63b8ff" stroke="#63b8ff" points="457.98,-396.9 447.47,-398.22 456.51,-403.74 457.98,-396.9"/>
</g>
<!-- Node11 -->
<g id="node11" class="node">
<title>Node11</title>
<g id="a_node11"><a xlink:href="interfaceSCR__EvacuateTaskSupportEntity.html" target="_top" xlink:title=" ">
<polygon fill="white" stroke="#666666" points="658,-392.5 496,-392.5 496,-373.5 658,-373.5 658,-392.5"/>
<text text-anchor="middle" x="577" y="-380.5" font-family="Helvetica,sans-Serif" font-size="10.00">SCR_EvacuateTaskSupportEntity</text>
</a>
</g>
</g>
<!-- Node9&#45;&gt;Node11 -->
<g id="edge10" class="edge">
<title>Node9&#45;&gt;Node11</title>
<path fill="none" stroke="#63b8ff" d="M457.41,-383C470,-383 482.99,-383 495.55,-383"/>
<polygon fill="#63b8ff" stroke="#63b8ff" points="457.47,-379.5 447.47,-383 457.47,-386.5 457.47,-379.5"/>
</g>
<!-- Node12 -->
<g id="node12" class="node">
<title>Node12</title>
<g id="a_node12"><a xlink:href="interfaceSCR__RefuelTaskSupportEntity.html" target="_top" xlink:title=" ">
<polygon fill="white" stroke="#666666" points="651.5,-355.5 502.5,-355.5 502.5,-336.5 651.5,-336.5 651.5,-355.5"/>
<text text-anchor="middle" x="577" y="-343.5" font-family="Helvetica,sans-Serif" font-size="10.00">SCR_RefuelTaskSupportEntity</text>
</a>
</g>
</g>
<!-- Node9&#45;&gt;Node12 -->
<g id="edge11" class="edge">
<title>Node9&#45;&gt;Node12</title>
<path fill="none" stroke="#63b8ff" d="M457.06,-367.95C478.88,-363.92 501.92,-359.67 521.85,-355.99"/>
<polygon fill="#63b8ff" stroke="#63b8ff" points="456.67,-364.65 447.47,-369.9 457.94,-371.53 456.67,-364.65"/>
</g>
<!-- Node13 -->
<g id="node13" class="node">
<title>Node13</title>
<g id="a_node13"><a xlink:href="interfaceSCR__TransportTaskSupportEntity.html" target="_top" xlink:title=" ">
<polygon fill="white" stroke="#666666" points="645.5,-318 508.5,-318 508.5,-288 645.5,-288 645.5,-318"/>
<text text-anchor="start" x="516.5" y="-306" font-family="Helvetica,sans-Serif" font-size="10.00">SCR_TransportTaskSupport</text>
<text text-anchor="middle" x="577" y="-295" font-family="Helvetica,sans-Serif" font-size="10.00">Entity</text>
</a>
</g>
</g>
<!-- Node9&#45;&gt;Node13 -->
<g id="edge12" class="edge">
<title>Node9&#45;&gt;Node13</title>
<path fill="none" stroke="#63b8ff" d="M413.59,-362.67C436,-351.22 465.14,-337.21 492,-327 500.08,-323.93 508.73,-321.04 517.29,-318.39"/>
<polygon fill="#63b8ff" stroke="#63b8ff" points="412.38,-359.86 405.1,-367.56 415.6,-366.08 412.38,-359.86"/>
</g>
<!-- Node15 -->
<g id="node15" class="node">
<title>Node15</title>
<g id="a_node15"><a xlink:href="interfaceSCR__ScenarioFrameworkTaskClearAreaSupportEntity.html" target="_top" xlink:title=" ">
<polygon fill="white" stroke="#666666" points="651.5,-270 502.5,-270 502.5,-240 651.5,-240 651.5,-270"/>
<text text-anchor="start" x="510.5" y="-258" font-family="Helvetica,sans-Serif" font-size="10.00">SCR_ScenarioFrameworkTask</text>
<text text-anchor="middle" x="577" y="-247" font-family="Helvetica,sans-Serif" font-size="10.00">ClearAreaSupportEntity</text>
</a>
</g>
</g>
<!-- Node14&#45;&gt;Node15 -->
<g id="edge14" class="edge">
<title>Node14&#45;&gt;Node15</title>
<path fill="none" stroke="#63b8ff" d="M405.25,-180.58C428.07,-196.33 460.84,-217.24 492,-231 499.21,-234.19 506.96,-237.07 514.73,-239.64"/>
<polygon fill="#63b8ff" stroke="#63b8ff" points="407.62,-177.27 397.42,-174.4 403.6,-183 407.62,-177.27"/>
</g>
<!-- Node16 -->
<g id="node16" class="node">
<title>Node16</title>
<g id="a_node16"><a xlink:href="interfaceSCR__ScenarioFrameworkTaskDefendSupportEntity.html" target="_top" xlink:title=" ">
<polygon fill="white" stroke="#666666" points="651.5,-222 502.5,-222 502.5,-192 651.5,-192 651.5,-222"/>
<text text-anchor="start" x="510.5" y="-210" font-family="Helvetica,sans-Serif" font-size="10.00">SCR_ScenarioFrameworkTask</text>
<text text-anchor="middle" x="577" y="-199" font-family="Helvetica,sans-Serif" font-size="10.00">DefendSupportEntity</text>
</a>
</g>
</g>
<!-- Node14&#45;&gt;Node16 -->
<g id="edge15" class="edge">
<title>Node14&#45;&gt;Node16</title>
<path fill="none" stroke="#63b8ff" d="M450.69,-177C470.72,-181.8 492.18,-186.93 511.58,-191.58"/>
<polygon fill="#63b8ff" stroke="#63b8ff" points="451.58,-173.38 441.04,-174.45 449.95,-180.18 451.58,-173.38"/>
</g>
<!-- Node17 -->
<g id="node17" class="node">
<title>Node17</title>
<g id="a_node17"><a xlink:href="interfaceSCR__ScenarioFrameworkTaskDeliverSupportEntity.html" target="_top" xlink:title=" ">
<polygon fill="white" stroke="#666666" points="651.5,-174 502.5,-174 502.5,-144 651.5,-144 651.5,-174"/>
<text text-anchor="start" x="510.5" y="-162" font-family="Helvetica,sans-Serif" font-size="10.00">SCR_ScenarioFrameworkTask</text>
<text text-anchor="middle" x="577" y="-151" font-family="Helvetica,sans-Serif" font-size="10.00">DeliverSupportEntity</text>
</a>
</g>
</g>
<!-- Node14&#45;&gt;Node17 -->
<g id="edge16" class="edge">
<title>Node14&#45;&gt;Node17</title>
<path fill="none" stroke="#63b8ff" d="M459.9,-159C473.89,-159 488.31,-159 502.02,-159"/>
<polygon fill="#63b8ff" stroke="#63b8ff" points="460.3,-155.5 450.3,-159 460.3,-162.5 460.3,-155.5"/>
</g>
<!-- Node18 -->
<g id="node18" class="node">
<title>Node18</title>
<g id="a_node18"><a xlink:href="interfaceSCR__ScenarioFrameworkTaskDestroySupportEntity.html" target="_top" xlink:title=" ">
<polygon fill="white" stroke="#666666" points="651.5,-126 502.5,-126 502.5,-96 651.5,-96 651.5,-126"/>
<text text-anchor="start" x="510.5" y="-114" font-family="Helvetica,sans-Serif" font-size="10.00">SCR_ScenarioFrameworkTask</text>
<text text-anchor="middle" x="577" y="-103" font-family="Helvetica,sans-Serif" font-size="10.00">DestroySupportEntity</text>
</a>
</g>
</g>
<!-- Node14&#45;&gt;Node18 -->
<g id="edge17" class="edge">
<title>Node14&#45;&gt;Node18</title>
<path fill="none" stroke="#63b8ff" d="M450.69,-141C470.72,-136.2 492.18,-131.07 511.58,-126.42"/>
<polygon fill="#63b8ff" stroke="#63b8ff" points="449.95,-137.82 441.04,-143.55 451.58,-144.62 449.95,-137.82"/>
</g>
<!-- Node19 -->
<g id="node19" class="node">
<title>Node19</title>
<g id="a_node19"><a xlink:href="interfaceSCR__ScenarioFrameworkTaskExtractSupportEntity.html" target="_top" xlink:title=" ">
<polygon fill="white" stroke="#666666" points="651.5,-78 502.5,-78 502.5,-48 651.5,-48 651.5,-78"/>
<text text-anchor="start" x="510.5" y="-66" font-family="Helvetica,sans-Serif" font-size="10.00">SCR_ScenarioFrameworkTask</text>
<text text-anchor="middle" x="577" y="-55" font-family="Helvetica,sans-Serif" font-size="10.00">ExtractSupportEntity</text>
</a>
</g>
</g>
<!-- Node14&#45;&gt;Node19 -->
<g id="edge18" class="edge">
<title>Node14&#45;&gt;Node19</title>
<path fill="none" stroke="#63b8ff" d="M405.25,-137.42C428.07,-121.67 460.84,-100.76 492,-87 499.21,-83.81 506.96,-80.93 514.73,-78.36"/>
<polygon fill="#63b8ff" stroke="#63b8ff" points="403.6,-135 397.42,-143.6 407.62,-140.73 403.6,-135"/>
</g>
<!-- Node20 -->
<g id="node20" class="node">
<title>Node20</title>
<g id="a_node20"><a xlink:href="interfaceSCR__ScenarioFrameworkTaskKillSupportEntity.html" target="_top" xlink:title=" ">
<polygon fill="white" stroke="#666666" points="651.5,-30 502.5,-30 502.5,0 651.5,0 651.5,-30"/>
<text text-anchor="start" x="510.5" y="-18" font-family="Helvetica,sans-Serif" font-size="10.00">SCR_ScenarioFrameworkTask</text>
<text text-anchor="middle" x="577" y="-7" font-family="Helvetica,sans-Serif" font-size="10.00">KillSupportEntity</text>
</a>
</g>
</g>
<!-- Node14&#45;&gt;Node20 -->
<g id="edge19" class="edge">
<title>Node14&#45;&gt;Node20</title>
<path fill="none" stroke="#63b8ff" d="M392.49,-135.09C413.05,-107.9 450.14,-64.05 492,-39 497.47,-35.73 503.4,-32.89 509.5,-30.42"/>
<polygon fill="#63b8ff" stroke="#63b8ff" points="389.31,-132.5 386.17,-142.62 394.94,-136.67 389.31,-132.5"/>
</g>
</g>
</svg>
