<?xml version="1.0" encoding="UTF-8" standalone="no"?>
<!DOCTYPE svg PUBLIC "-//W3C//DTD SVG 1.1//EN"
 "http://www.w3.org/Graphics/SVG/1.1/DTD/svg11.dtd">
<!-- Generated by graphviz version 8.0.2 (20230410.1723)
 -->
<!-- Title: SerializerInventoryStorageManagerComponentClass Pages: 1 -->
<svg width="184pt" height="214pt"
 viewBox="0.00 0.00 184.00 214.00" xmlns="http://www.w3.org/2000/svg" xmlns:xlink="http://www.w3.org/1999/xlink">
<g id="graph0" class="graph" transform="scale(1 1) rotate(0) translate(4 210)">
<title>SerializerInventoryStorageManagerComponentClass</title>
<!-- Node1 -->
<g id="node1" class="node">
<title>Node1</title>
<g id="a_node1"><a xlink:title=" ">
<polygon fill="#999999" stroke="#666666" points="152.5,-30 23.5,-30 23.5,0 152.5,0 152.5,-30"/>
<text text-anchor="start" x="31.5" y="-18" font-family="Helvetica,sans-Serif" font-size="10.00">SerializerInventoryStorage</text>
<text text-anchor="middle" x="88" y="-7" font-family="Helvetica,sans-Serif" font-size="10.00">ManagerComponentClass</text>
</a>
</g>
</g>
<!-- Node2 -->
<g id="node2" class="node">
<title>Node2</title>
<g id="a_node2"><a xlink:href="interfaceInventoryStorageManagerComponentClass.html" target="_top" xlink:title=" ">
<polygon fill="white" stroke="#666666" points="176,-96 0,-96 0,-66 176,-66 176,-96"/>
<text text-anchor="start" x="8" y="-84" font-family="Helvetica,sans-Serif" font-size="10.00">InventoryStorageManagerComponent</text>
<text text-anchor="middle" x="88" y="-73" font-family="Helvetica,sans-Serif" font-size="10.00">Class</text>
</a>
</g>
</g>
<!-- Node2&#45;&gt;Node1 -->
<g id="edge1" class="edge">
<title>Node2&#45;&gt;Node1</title>
<path fill="none" stroke="#63b8ff" d="M88,-54.97C88,-46.55 88,-37.45 88,-30.16"/>
<polygon fill="#63b8ff" stroke="#63b8ff" points="84.5,-54.8 88,-64.8 91.5,-54.8 84.5,-54.8"/>
</g>
<!-- Node3 -->
<g id="node3" class="node">
<title>Node3</title>
<g id="a_node3"><a xlink:href="interfaceGameComponentClass.html" target="_top" xlink:title=" ">
<polygon fill="white" stroke="#666666" points="146.5,-151 29.5,-151 29.5,-132 146.5,-132 146.5,-151"/>
<text text-anchor="middle" x="88" y="-139" font-family="Helvetica,sans-Serif" font-size="10.00">GameComponentClass</text>
</a>
</g>
</g>
<!-- Node3&#45;&gt;Node2 -->
<g id="edge2" class="edge">
<title>Node3&#45;&gt;Node2</title>
<path fill="none" stroke="#63b8ff" d="M88,-121.08C88,-112.92 88,-103.6 88,-96.11"/>
<polygon fill="#63b8ff" stroke="#63b8ff" points="84.5,-120.87 88,-130.87 91.5,-120.87 84.5,-120.87"/>
</g>
<!-- Node4 -->
<g id="node4" class="node">
<title>Node4</title>
<g id="a_node4"><a xlink:title=" ">
<polygon fill="white" stroke="#666666" points="150.5,-206 25.5,-206 25.5,-187 150.5,-187 150.5,-206"/>
<text text-anchor="middle" x="88" y="-194" font-family="Helvetica,sans-Serif" font-size="10.00">GenericComponentClass</text>
</a>
</g>
</g>
<!-- Node4&#45;&gt;Node3 -->
<g id="edge3" class="edge">
<title>Node4&#45;&gt;Node3</title>
<path fill="none" stroke="#63b8ff" d="M88,-175.93C88,-167.53 88,-158.13 88,-151.44"/>
<polygon fill="#63b8ff" stroke="#63b8ff" points="84.5,-175.75 88,-185.75 91.5,-175.75 84.5,-175.75"/>
</g>
</g>
</svg>
