<?xml version="1.0" encoding="UTF-8" standalone="no"?>
<!DOCTYPE svg PUBLIC "-//W3C//DTD SVG 1.1//EN"
 "http://www.w3.org/Graphics/SVG/1.1/DTD/svg11.dtd">
<!-- Generated by graphviz version 8.0.2 (20230410.1723)
 -->
<!-- Title: SCR_FactionControlTriggerEntity Pages: 1 -->
<svg width="160pt" height="379pt"
 viewBox="0.00 0.00 160.00 379.00" xmlns="http://www.w3.org/2000/svg" xmlns:xlink="http://www.w3.org/1999/xlink">
<g id="graph0" class="graph" transform="scale(1 1) rotate(0) translate(4 375)">
<title>SCR_FactionControlTriggerEntity</title>
<!-- Node1 -->
<g id="node1" class="node">
<title>Node1</title>
<g id="a_node1"><a xlink:title=" ">
<polygon fill="#999999" stroke="#666666" points="143,-96 9,-96 9,-66 143,-66 143,-96"/>
<text text-anchor="start" x="17" y="-84" font-family="Helvetica,sans-Serif" font-size="10.00">SCR_FactionControlTrigger</text>
<text text-anchor="middle" x="76" y="-73" font-family="Helvetica,sans-Serif" font-size="10.00">Entity</text>
</a>
</g>
</g>
<!-- Node7 -->
<g id="node7" class="node">
<title>Node7</title>
<g id="a_node7"><a xlink:href="interfaceSCR__FactionDominanceTriggerEntity.html" target="_top" xlink:title=" ">
<polygon fill="white" stroke="#666666" points="152,-30 0,-30 0,0 152,0 152,-30"/>
<text text-anchor="start" x="8" y="-18" font-family="Helvetica,sans-Serif" font-size="10.00">SCR_FactionDominanceTrigger</text>
<text text-anchor="middle" x="76" y="-7" font-family="Helvetica,sans-Serif" font-size="10.00">Entity</text>
</a>
</g>
</g>
<!-- Node1&#45;&gt;Node7 -->
<g id="edge6" class="edge">
<title>Node1&#45;&gt;Node7</title>
<path fill="none" stroke="#63b8ff" d="M76,-54.97C76,-46.55 76,-37.45 76,-30.16"/>
<polygon fill="#63b8ff" stroke="#63b8ff" points="72.5,-54.8 76,-64.8 79.5,-54.8 72.5,-54.8"/>
</g>
<!-- Node2 -->
<g id="node2" class="node">
<title>Node2</title>
<g id="a_node2"><a xlink:href="interfaceSCR__BaseFactionTriggerEntity.html" target="_top" xlink:title=" ">
<polygon fill="white" stroke="#666666" points="152,-151 0,-151 0,-132 152,-132 152,-151"/>
<text text-anchor="middle" x="76" y="-139" font-family="Helvetica,sans-Serif" font-size="10.00">SCR_BaseFactionTriggerEntity</text>
</a>
</g>
</g>
<!-- Node2&#45;&gt;Node1 -->
<g id="edge1" class="edge">
<title>Node2&#45;&gt;Node1</title>
<path fill="none" stroke="#63b8ff" d="M76,-121.08C76,-112.92 76,-103.6 76,-96.11"/>
<polygon fill="#63b8ff" stroke="#63b8ff" points="72.5,-120.87 76,-130.87 79.5,-120.87 72.5,-120.87"/>
</g>
<!-- Node3 -->
<g id="node3" class="node">
<title>Node3</title>
<g id="a_node3"><a xlink:href="interfaceSCR__BaseTriggerEntity.html" target="_top" xlink:title="Basic scripted trigger which offers external invoekrs for major events like activation or deactivatio...">
<polygon fill="white" stroke="#666666" points="135.5,-206 16.5,-206 16.5,-187 135.5,-187 135.5,-206"/>
<text text-anchor="middle" x="76" y="-194" font-family="Helvetica,sans-Serif" font-size="10.00">SCR_BaseTriggerEntity</text>
</a>
</g>
</g>
<!-- Node3&#45;&gt;Node2 -->
<g id="edge2" class="edge">
<title>Node3&#45;&gt;Node2</title>
<path fill="none" stroke="#63b8ff" d="M76,-175.93C76,-167.53 76,-158.13 76,-151.44"/>
<polygon fill="#63b8ff" stroke="#63b8ff" points="72.5,-175.75 76,-185.75 79.5,-175.75 72.5,-175.75"/>
</g>
<!-- Node4 -->
<g id="node4" class="node">
<title>Node4</title>
<g id="a_node4"><a xlink:href="interfaceScriptedGameTriggerEntity.html" target="_top" xlink:title=" ">
<polygon fill="white" stroke="#666666" points="143,-261 9,-261 9,-242 143,-242 143,-261"/>
<text text-anchor="middle" x="76" y="-249" font-family="Helvetica,sans-Serif" font-size="10.00">ScriptedGameTriggerEntity</text>
</a>
</g>
</g>
<!-- Node4&#45;&gt;Node3 -->
<g id="edge3" class="edge">
<title>Node4&#45;&gt;Node3</title>
<path fill="none" stroke="#63b8ff" d="M76,-230.93C76,-222.53 76,-213.13 76,-206.44"/>
<polygon fill="#63b8ff" stroke="#63b8ff" points="72.5,-230.75 76,-240.75 79.5,-230.75 72.5,-230.75"/>
</g>
<!-- Node5 -->
<g id="node5" class="node">
<title>Node5</title>
<g id="a_node5"><a xlink:href="interfaceBaseGameTriggerEntity.html" target="_top" xlink:title=" ">
<polygon fill="white" stroke="#666666" points="136,-316 16,-316 16,-297 136,-297 136,-316"/>
<text text-anchor="middle" x="76" y="-304" font-family="Helvetica,sans-Serif" font-size="10.00">BaseGameTriggerEntity</text>
</a>
</g>
</g>
<!-- Node5&#45;&gt;Node4 -->
<g id="edge4" class="edge">
<title>Node5&#45;&gt;Node4</title>
<path fill="none" stroke="#63b8ff" d="M76,-285.93C76,-277.53 76,-268.13 76,-261.44"/>
<polygon fill="#63b8ff" stroke="#63b8ff" points="72.5,-285.75 76,-295.75 79.5,-285.75 72.5,-285.75"/>
</g>
<!-- Node6 -->
<g id="node6" class="node">
<title>Node6</title>
<g id="a_node6"><a xlink:title=" ">
<polygon fill="white" stroke="#666666" points="114,-371 38,-371 38,-352 114,-352 114,-371"/>
<text text-anchor="middle" x="76" y="-359" font-family="Helvetica,sans-Serif" font-size="10.00">GenericEntity</text>
</a>
</g>
</g>
<!-- Node6&#45;&gt;Node5 -->
<g id="edge5" class="edge">
<title>Node6&#45;&gt;Node5</title>
<path fill="none" stroke="#63b8ff" d="M76,-340.93C76,-332.53 76,-323.13 76,-316.44"/>
<polygon fill="#63b8ff" stroke="#63b8ff" points="72.5,-340.75 76,-350.75 79.5,-340.75 72.5,-340.75"/>
</g>
</g>
</svg>
