<?xml version="1.0" encoding="UTF-8" standalone="no"?>
<!DOCTYPE svg PUBLIC "-//W3C//DTD SVG 1.1//EN"
 "http://www.w3.org/Graphics/SVG/1.1/DTD/svg11.dtd">
<!-- Generated by graphviz version 8.0.2 (20230410.1723)
 -->
<!-- Title: SCR_EntityCatalogInventoryItem Pages: 1 -->
<svg width="166pt" height="148pt"
 viewBox="0.00 0.00 166.00 148.00" xmlns="http://www.w3.org/2000/svg" xmlns:xlink="http://www.w3.org/1999/xlink">
<g id="graph0" class="graph" transform="scale(1 1) rotate(0) translate(4 144)">
<title>SCR_EntityCatalogInventoryItem</title>
<!-- Node1 -->
<g id="node1" class="node">
<title>Node1</title>
<g id="a_node1"><a xlink:title="Entity Entry within the SCR_EntityCatalog.">
<polygon fill="#999999" stroke="#666666" points="158,-19 0,-19 0,0 158,0 158,-19"/>
<text text-anchor="middle" x="79" y="-7" font-family="Helvetica,sans-Serif" font-size="10.00">SCR_EntityCatalogInventoryItem</text>
</a>
</g>
</g>
<!-- Node2 -->
<g id="node2" class="node">
<title>Node2</title>
<g id="a_node2"><a xlink:href="interfaceSCR__EntityCatalogEntryNonEditable.html" target="_top" xlink:title="Entity Entry within the SCR_EntityCatalog.">
<polygon fill="white" stroke="#666666" points="149.5,-85 8.5,-85 8.5,-55 149.5,-55 149.5,-85"/>
<text text-anchor="start" x="16.5" y="-73" font-family="Helvetica,sans-Serif" font-size="10.00">SCR_EntityCatalogEntryNon</text>
<text text-anchor="middle" x="79" y="-62" font-family="Helvetica,sans-Serif" font-size="10.00">Editable</text>
</a>
</g>
</g>
<!-- Node2&#45;&gt;Node1 -->
<g id="edge1" class="edge">
<title>Node2&#45;&gt;Node1</title>
<path fill="none" stroke="#63b8ff" d="M79,-43.59C79,-34.85 79,-25.65 79,-19.18"/>
<polygon fill="#63b8ff" stroke="#63b8ff" points="75.5,-43.54 79,-53.54 82.5,-43.54 75.5,-43.54"/>
</g>
<!-- Node3 -->
<g id="node3" class="node">
<title>Node3</title>
<g id="a_node3"><a xlink:href="interfaceSCR__EntityCatalogEntry.html" target="_top" xlink:title="Entity Entry within the SCR_EntityCatalog.">
<polygon fill="white" stroke="#666666" points="141,-140 17,-140 17,-121 141,-121 141,-140"/>
<text text-anchor="middle" x="79" y="-128" font-family="Helvetica,sans-Serif" font-size="10.00">SCR_EntityCatalogEntry</text>
</a>
</g>
</g>
<!-- Node3&#45;&gt;Node2 -->
<g id="edge2" class="edge">
<title>Node3&#45;&gt;Node2</title>
<path fill="none" stroke="#63b8ff" d="M79,-110.08C79,-101.92 79,-92.6 79,-85.11"/>
<polygon fill="#63b8ff" stroke="#63b8ff" points="75.5,-109.87 79,-119.87 82.5,-109.87 75.5,-109.87"/>
</g>
</g>
</svg>
