<?xml version="1.0" encoding="UTF-8" standalone="no"?>
<!DOCTYPE svg PUBLIC "-//W3C//DTD SVG 1.1//EN"
 "http://www.w3.org/Graphics/SVG/1.1/DTD/svg11.dtd">
<!-- Generated by graphviz version 8.0.2 (20230410.1723)
 -->
<!-- Title: AttachmentUnderBarrel Pages: 1 -->
<svg width="556pt" height="313pt"
 viewBox="0.00 0.00 556.00 313.00" xmlns="http://www.w3.org/2000/svg" xmlns:xlink="http://www.w3.org/1999/xlink">
<g id="graph0" class="graph" transform="scale(1 1) rotate(0) translate(4 309)">
<title>AttachmentUnderBarrel</title>
<!-- Node1 -->
<g id="node1" class="node">
<title>Node1</title>
<g id="a_node1"><a xlink:title=" ">
<polygon fill="#999999" stroke="#666666" points="291.5,-195 173.5,-195 173.5,-176 291.5,-176 291.5,-195"/>
<text text-anchor="middle" x="232.5" y="-183" font-family="Helvetica,sans-Serif" font-size="10.00">AttachmentUnderBarrel</text>
</a>
</g>
</g>
<!-- Node4 -->
<g id="node4" class="node">
<title>Node4</title>
<g id="a_node4"><a xlink:href="interfaceAttachmentUnderBarrelGP25.html" target="_top" xlink:title=" ">
<polygon fill="white" stroke="#666666" points="143,-140 0,-140 0,-121 143,-121 143,-140"/>
<text text-anchor="middle" x="71.5" y="-128" font-family="Helvetica,sans-Serif" font-size="10.00">AttachmentUnderBarrelGP25</text>
</a>
</g>
</g>
<!-- Node1&#45;&gt;Node4 -->
<g id="edge3" class="edge">
<title>Node1&#45;&gt;Node4</title>
<path fill="none" stroke="#63b8ff" d="M194.86,-172.11C165.38,-162.41 125.08,-149.14 98.68,-140.45"/>
<polygon fill="#63b8ff" stroke="#63b8ff" points="193.6,-175.71 204.19,-175.51 195.78,-169.06 193.6,-175.71"/>
</g>
<!-- Node5 -->
<g id="node5" class="node">
<title>Node5</title>
<g id="a_node5"><a xlink:href="interfaceAttachmentUnderBarrelM203.html" target="_top" xlink:title=" ">
<polygon fill="white" stroke="#666666" points="303.5,-140 161.5,-140 161.5,-121 303.5,-121 303.5,-140"/>
<text text-anchor="middle" x="232.5" y="-128" font-family="Helvetica,sans-Serif" font-size="10.00">AttachmentUnderBarrelM203</text>
</a>
</g>
</g>
<!-- Node1&#45;&gt;Node5 -->
<g id="edge4" class="edge">
<title>Node1&#45;&gt;Node5</title>
<path fill="none" stroke="#63b8ff" d="M232.5,-164.93C232.5,-156.53 232.5,-147.13 232.5,-140.44"/>
<polygon fill="#63b8ff" stroke="#63b8ff" points="229,-164.75 232.5,-174.75 236,-164.75 229,-164.75"/>
</g>
<!-- Node6 -->
<g id="node6" class="node">
<title>Node6</title>
<g id="a_node6"><a xlink:href="interfaceAttachmentUnderbarrelRIS1913.html" target="_top" xlink:title=" ">
<polygon fill="white" stroke="#666666" points="475,-140 322,-140 322,-121 475,-121 475,-140"/>
<text text-anchor="middle" x="398.5" y="-128" font-family="Helvetica,sans-Serif" font-size="10.00">AttachmentUnderbarrelRIS1913</text>
</a>
</g>
</g>
<!-- Node1&#45;&gt;Node6 -->
<g id="edge5" class="edge">
<title>Node1&#45;&gt;Node6</title>
<path fill="none" stroke="#63b8ff" d="M270.91,-172.24C301.34,-162.52 343.14,-149.18 370.48,-140.45"/>
<polygon fill="#63b8ff" stroke="#63b8ff" points="270.12,-169.13 261.66,-175.51 272.25,-175.8 270.12,-169.13"/>
</g>
<!-- Node2 -->
<g id="node2" class="node">
<title>Node2</title>
<g id="a_node2"><a xlink:href="interfaceBaseAttachmentType.html" target="_top" xlink:title=" ">
<polygon fill="white" stroke="#666666" points="287.5,-250 177.5,-250 177.5,-231 287.5,-231 287.5,-250"/>
<text text-anchor="middle" x="232.5" y="-238" font-family="Helvetica,sans-Serif" font-size="10.00">BaseAttachmentType</text>
</a>
</g>
</g>
<!-- Node2&#45;&gt;Node1 -->
<g id="edge1" class="edge">
<title>Node2&#45;&gt;Node1</title>
<path fill="none" stroke="#63b8ff" d="M232.5,-219.93C232.5,-211.53 232.5,-202.13 232.5,-195.44"/>
<polygon fill="#63b8ff" stroke="#63b8ff" points="229,-219.75 232.5,-229.75 236,-219.75 229,-219.75"/>
</g>
<!-- Node3 -->
<g id="node3" class="node">
<title>Node3</title>
<g id="a_node3"><a xlink:title=" ">
<polygon fill="white" stroke="#666666" points="275.5,-305 189.5,-305 189.5,-286 275.5,-286 275.5,-305"/>
<text text-anchor="middle" x="232.5" y="-293" font-family="Helvetica,sans-Serif" font-size="10.00">ScriptAndConfig</text>
</a>
</g>
</g>
<!-- Node3&#45;&gt;Node2 -->
<g id="edge2" class="edge">
<title>Node3&#45;&gt;Node2</title>
<path fill="none" stroke="#63b8ff" d="M232.5,-274.93C232.5,-266.53 232.5,-257.13 232.5,-250.44"/>
<polygon fill="#63b8ff" stroke="#63b8ff" points="229,-274.75 232.5,-284.75 236,-274.75 229,-274.75"/>
</g>
<!-- Node7 -->
<g id="node7" class="node">
<title>Node7</title>
<g id="a_node7"><a xlink:href="interfaceAttachmentRIS1913.html" target="_top" xlink:title=" ">
<polygon fill="white" stroke="#666666" points="376.5,-79.5 272.5,-79.5 272.5,-60.5 376.5,-60.5 376.5,-79.5"/>
<text text-anchor="middle" x="324.5" y="-67.5" font-family="Helvetica,sans-Serif" font-size="10.00">AttachmentRIS1913</text>
</a>
</g>
</g>
<!-- Node6&#45;&gt;Node7 -->
<g id="edge6" class="edge">
<title>Node6&#45;&gt;Node7</title>
<path fill="none" stroke="#63b8ff" d="M378.94,-114.04C365.2,-103.17 347.29,-89.02 335.84,-79.97"/>
<polygon fill="#63b8ff" stroke="#63b8ff" points="376.25,-117.16 386.26,-120.62 380.59,-111.67 376.25,-117.16"/>
</g>
<!-- Node9 -->
<g id="node9" class="node">
<title>Node9</title>
<g id="a_node9"><a xlink:href="interfaceAttachmentUnderbarrelRIS1913Short.html" target="_top" xlink:title=" ">
<polygon fill="white" stroke="#666666" points="548,-85 395,-85 395,-55 548,-55 548,-85"/>
<text text-anchor="start" x="403" y="-73" font-family="Helvetica,sans-Serif" font-size="10.00">AttachmentUnderbarrelRIS1913</text>
<text text-anchor="middle" x="471.5" y="-62" font-family="Helvetica,sans-Serif" font-size="10.00">Short</text>
</a>
</g>
</g>
<!-- Node6&#45;&gt;Node9 -->
<g id="edge8" class="edge">
<title>Node6&#45;&gt;Node9</title>
<path fill="none" stroke="#63b8ff" d="M418.09,-113.8C429.1,-104.98 442.74,-94.05 453.48,-85.44"/>
<polygon fill="#63b8ff" stroke="#63b8ff" points="416.2,-111.63 410.59,-120.62 420.58,-117.09 416.2,-111.63"/>
</g>
<!-- Node8 -->
<g id="node8" class="node">
<title>Node8</title>
<g id="a_node8"><a xlink:href="interfaceAttachmentRIS1913Short.html" target="_top" xlink:title=" ">
<polygon fill="white" stroke="#666666" points="388,-19 261,-19 261,0 388,0 388,-19"/>
<text text-anchor="middle" x="324.5" y="-7" font-family="Helvetica,sans-Serif" font-size="10.00">AttachmentRIS1913Short</text>
</a>
</g>
</g>
<!-- Node7&#45;&gt;Node8 -->
<g id="edge7" class="edge">
<title>Node7&#45;&gt;Node8</title>
<path fill="none" stroke="#63b8ff" d="M324.5,-49.49C324.5,-39.22 324.5,-27.13 324.5,-19.17"/>
<polygon fill="#63b8ff" stroke="#63b8ff" points="321,-49.37 324.5,-59.37 328,-49.37 321,-49.37"/>
</g>
</g>
</svg>
