<?xml version="1.0" encoding="UTF-8" standalone="no"?>
<!DOCTYPE svg PUBLIC "-//W3C//DTD SVG 1.1//EN"
 "http://www.w3.org/Graphics/SVG/1.1/DTD/svg11.dtd">
<!-- Generated by graphviz version 8.0.2 (20230410.1723)
 -->
<!-- Title: SCR_ButtonBoxMultiSelectAttributeUIComponent Pages: 1 -->
<svg width="193pt" height="269pt"
 viewBox="0.00 0.00 193.00 269.00" xmlns="http://www.w3.org/2000/svg" xmlns:xlink="http://www.w3.org/1999/xlink">
<g id="graph0" class="graph" transform="scale(1 1) rotate(0) translate(4 265)">
<title>SCR_ButtonBoxMultiSelectAttributeUIComponent</title>
<!-- Node1 -->
<g id="node1" class="node">
<title>Node1</title>
<g id="a_node1"><a xlink:title=" ">
<polygon fill="#999999" stroke="#666666" points="161,-96 24,-96 24,-66 161,-66 161,-96"/>
<text text-anchor="start" x="32" y="-84" font-family="Helvetica,sans-Serif" font-size="10.00">SCR_ButtonBoxMultiSelect</text>
<text text-anchor="middle" x="92.5" y="-73" font-family="Helvetica,sans-Serif" font-size="10.00">AttributeUIComponent</text>
</a>
</g>
</g>
<!-- Node5 -->
<g id="node5" class="node">
<title>Node5</title>
<g id="a_node5"><a xlink:href="interfaceSCR__OverrideModesEditorAttributeUIComponent.html" target="_top" xlink:title=" ">
<polygon fill="white" stroke="#666666" points="177,-30 8,-30 8,0 177,0 177,-30"/>
<text text-anchor="start" x="16" y="-18" font-family="Helvetica,sans-Serif" font-size="10.00">SCR_OverrideModesEditorAttribute</text>
<text text-anchor="middle" x="92.5" y="-7" font-family="Helvetica,sans-Serif" font-size="10.00">UIComponent</text>
</a>
</g>
</g>
<!-- Node1&#45;&gt;Node5 -->
<g id="edge4" class="edge">
<title>Node1&#45;&gt;Node5</title>
<path fill="none" stroke="#63b8ff" d="M92.5,-54.97C92.5,-46.55 92.5,-37.45 92.5,-30.16"/>
<polygon fill="#63b8ff" stroke="#63b8ff" points="89,-54.8 92.5,-64.8 96,-54.8 89,-54.8"/>
</g>
<!-- Node2 -->
<g id="node2" class="node">
<title>Node2</title>
<g id="a_node2"><a xlink:href="interfaceSCR__ButtonBoxAttributeUIComponent.html" target="_top" xlink:title=" ">
<polygon fill="white" stroke="#666666" points="184,-151 1,-151 1,-132 184,-132 184,-151"/>
<text text-anchor="middle" x="92.5" y="-139" font-family="Helvetica,sans-Serif" font-size="10.00">SCR_ButtonBoxAttributeUIComponent</text>
</a>
</g>
</g>
<!-- Node2&#45;&gt;Node1 -->
<g id="edge1" class="edge">
<title>Node2&#45;&gt;Node1</title>
<path fill="none" stroke="#63b8ff" d="M92.5,-121.08C92.5,-112.92 92.5,-103.6 92.5,-96.11"/>
<polygon fill="#63b8ff" stroke="#63b8ff" points="89,-120.87 92.5,-130.87 96,-120.87 89,-120.87"/>
</g>
<!-- Node3 -->
<g id="node3" class="node">
<title>Node3</title>
<g id="a_node3"><a xlink:href="interfaceSCR__BaseEditorAttributeUIComponent.html" target="_top" xlink:title=" ">
<polygon fill="white" stroke="#666666" points="185,-206 0,-206 0,-187 185,-187 185,-206"/>
<text text-anchor="middle" x="92.5" y="-194" font-family="Helvetica,sans-Serif" font-size="10.00">SCR_BaseEditorAttributeUIComponent</text>
</a>
</g>
</g>
<!-- Node3&#45;&gt;Node2 -->
<g id="edge2" class="edge">
<title>Node3&#45;&gt;Node2</title>
<path fill="none" stroke="#63b8ff" d="M92.5,-175.93C92.5,-167.53 92.5,-158.13 92.5,-151.44"/>
<polygon fill="#63b8ff" stroke="#63b8ff" points="89,-175.75 92.5,-185.75 96,-175.75 89,-175.75"/>
</g>
<!-- Node4 -->
<g id="node4" class="node">
<title>Node4</title>
<g id="a_node4"><a xlink:title=" ">
<polygon fill="white" stroke="#666666" points="159,-261 26,-261 26,-242 159,-242 159,-261"/>
<text text-anchor="middle" x="92.5" y="-249" font-family="Helvetica,sans-Serif" font-size="10.00">ScriptedWidgetComponent</text>
</a>
</g>
</g>
<!-- Node4&#45;&gt;Node3 -->
<g id="edge3" class="edge">
<title>Node4&#45;&gt;Node3</title>
<path fill="none" stroke="#63b8ff" d="M92.5,-230.93C92.5,-222.53 92.5,-213.13 92.5,-206.44"/>
<polygon fill="#63b8ff" stroke="#63b8ff" points="89,-230.75 92.5,-240.75 96,-230.75 89,-230.75"/>
</g>
</g>
</svg>
