<?xml version="1.0" encoding="UTF-8" standalone="no"?>
<!DOCTYPE svg PUBLIC "-//W3C//DTD SVG 1.1//EN"
 "http://www.w3.org/Graphics/SVG/1.1/DTD/svg11.dtd">
<!-- Generated by graphviz version 8.0.2 (20230410.1723)
 -->
<!-- Title: SCR_CharacterTriggerEntity Pages: 1 -->
<svg width="166pt" height="313pt"
 viewBox="0.00 0.00 166.00 313.00" xmlns="http://www.w3.org/2000/svg" xmlns:xlink="http://www.w3.org/1999/xlink">
<g id="graph0" class="graph" transform="scale(1 1) rotate(0) translate(4 309)">
<title>SCR_CharacterTriggerEntity</title>
<!-- Node1 -->
<g id="node1" class="node">
<title>Node1</title>
<g id="a_node1"><a xlink:title=" ">
<polygon fill="#999999" stroke="#666666" points="148.5,-19 9.5,-19 9.5,0 148.5,0 148.5,-19"/>
<text text-anchor="middle" x="79" y="-7" font-family="Helvetica,sans-Serif" font-size="10.00">SCR_CharacterTriggerEntity</text>
</a>
</g>
</g>
<!-- Node2 -->
<g id="node2" class="node">
<title>Node2</title>
<g id="a_node2"><a xlink:href="interfaceSCR__ScenarioFrameworkTriggerEntity.html" target="_top" xlink:title=" ">
<polygon fill="white" stroke="#666666" points="158,-85 0,-85 0,-55 158,-55 158,-85"/>
<text text-anchor="start" x="8" y="-73" font-family="Helvetica,sans-Serif" font-size="10.00">SCR_ScenarioFrameworkTrigger</text>
<text text-anchor="middle" x="79" y="-62" font-family="Helvetica,sans-Serif" font-size="10.00">Entity</text>
</a>
</g>
</g>
<!-- Node2&#45;&gt;Node1 -->
<g id="edge1" class="edge">
<title>Node2&#45;&gt;Node1</title>
<path fill="none" stroke="#63b8ff" d="M79,-43.59C79,-34.85 79,-25.65 79,-19.18"/>
<polygon fill="#63b8ff" stroke="#63b8ff" points="75.5,-43.54 79,-53.54 82.5,-43.54 75.5,-43.54"/>
</g>
<!-- Node3 -->
<g id="node3" class="node">
<title>Node3</title>
<g id="a_node3"><a xlink:href="interfaceSCR__BaseTriggerEntity.html" target="_top" xlink:title="Basic scripted trigger which offers external invoekrs for major events like activation or deactivatio...">
<polygon fill="white" stroke="#666666" points="138.5,-140 19.5,-140 19.5,-121 138.5,-121 138.5,-140"/>
<text text-anchor="middle" x="79" y="-128" font-family="Helvetica,sans-Serif" font-size="10.00">SCR_BaseTriggerEntity</text>
</a>
</g>
</g>
<!-- Node3&#45;&gt;Node2 -->
<g id="edge2" class="edge">
<title>Node3&#45;&gt;Node2</title>
<path fill="none" stroke="#63b8ff" d="M79,-110.08C79,-101.92 79,-92.6 79,-85.11"/>
<polygon fill="#63b8ff" stroke="#63b8ff" points="75.5,-109.87 79,-119.87 82.5,-109.87 75.5,-109.87"/>
</g>
<!-- Node4 -->
<g id="node4" class="node">
<title>Node4</title>
<g id="a_node4"><a xlink:href="interfaceScriptedGameTriggerEntity.html" target="_top" xlink:title=" ">
<polygon fill="white" stroke="#666666" points="146,-195 12,-195 12,-176 146,-176 146,-195"/>
<text text-anchor="middle" x="79" y="-183" font-family="Helvetica,sans-Serif" font-size="10.00">ScriptedGameTriggerEntity</text>
</a>
</g>
</g>
<!-- Node4&#45;&gt;Node3 -->
<g id="edge3" class="edge">
<title>Node4&#45;&gt;Node3</title>
<path fill="none" stroke="#63b8ff" d="M79,-164.93C79,-156.53 79,-147.13 79,-140.44"/>
<polygon fill="#63b8ff" stroke="#63b8ff" points="75.5,-164.75 79,-174.75 82.5,-164.75 75.5,-164.75"/>
</g>
<!-- Node5 -->
<g id="node5" class="node">
<title>Node5</title>
<g id="a_node5"><a xlink:href="interfaceBaseGameTriggerEntity.html" target="_top" xlink:title=" ">
<polygon fill="white" stroke="#666666" points="139,-250 19,-250 19,-231 139,-231 139,-250"/>
<text text-anchor="middle" x="79" y="-238" font-family="Helvetica,sans-Serif" font-size="10.00">BaseGameTriggerEntity</text>
</a>
</g>
</g>
<!-- Node5&#45;&gt;Node4 -->
<g id="edge4" class="edge">
<title>Node5&#45;&gt;Node4</title>
<path fill="none" stroke="#63b8ff" d="M79,-219.93C79,-211.53 79,-202.13 79,-195.44"/>
<polygon fill="#63b8ff" stroke="#63b8ff" points="75.5,-219.75 79,-229.75 82.5,-219.75 75.5,-219.75"/>
</g>
<!-- Node6 -->
<g id="node6" class="node">
<title>Node6</title>
<g id="a_node6"><a xlink:title=" ">
<polygon fill="white" stroke="#666666" points="117,-305 41,-305 41,-286 117,-286 117,-305"/>
<text text-anchor="middle" x="79" y="-293" font-family="Helvetica,sans-Serif" font-size="10.00">GenericEntity</text>
</a>
</g>
</g>
<!-- Node6&#45;&gt;Node5 -->
<g id="edge5" class="edge">
<title>Node6&#45;&gt;Node5</title>
<path fill="none" stroke="#63b8ff" d="M79,-274.93C79,-266.53 79,-257.13 79,-250.44"/>
<polygon fill="#63b8ff" stroke="#63b8ff" points="75.5,-274.75 79,-284.75 82.5,-274.75 75.5,-274.75"/>
</g>
</g>
</svg>
