<?xml version="1.0" encoding="UTF-8" standalone="no"?>
<!DOCTYPE svg PUBLIC "-//W3C//DTD SVG 1.1//EN"
 "http://www.w3.org/Graphics/SVG/1.1/DTD/svg11.dtd">
<!-- Generated by graphviz version 8.0.2 (20230410.1723)
 -->
<!-- Title: SCR_WorkshopItemAction Pages: 1 -->
<svg width="572pt" height="220pt"
 viewBox="0.00 0.00 572.00 219.50" xmlns="http://www.w3.org/2000/svg" xmlns:xlink="http://www.w3.org/1999/xlink">
<g id="graph0" class="graph" transform="scale(1 1) rotate(0) translate(4 215.5)">
<title>SCR_WorkshopItemAction</title>
<!-- Node1 -->
<g id="node1" class="node">
<title>Node1</title>
<g id="a_node1"><a xlink:title=" ">
<polygon fill="#999999" stroke="#666666" points="133,-158 0,-158 0,-139 133,-139 133,-158"/>
<text text-anchor="middle" x="66.5" y="-146" font-family="Helvetica,sans-Serif" font-size="10.00">SCR_WorkshopItemAction</text>
</a>
</g>
</g>
<!-- Node2 -->
<g id="node2" class="node">
<title>Node2</title>
<g id="a_node2"><a xlink:href="interfaceSCR__WorkshopItemActionComposite.html" target="_top" xlink:title="Composite action which includes multiple subactions.">
<polygon fill="white" stroke="#666666" points="350.5,-200 171.5,-200 171.5,-181 350.5,-181 350.5,-200"/>
<text text-anchor="middle" x="261" y="-188" font-family="Helvetica,sans-Serif" font-size="10.00">SCR_WorkshopItemActionComposite</text>
</a>
</g>
</g>
<!-- Node1&#45;&gt;Node2 -->
<g id="edge1" class="edge">
<title>Node1&#45;&gt;Node2</title>
<path fill="none" stroke="#63b8ff" d="M123.85,-160.79C152.66,-167.08 187.26,-174.63 214.37,-180.55"/>
<polygon fill="#63b8ff" stroke="#63b8ff" points="124.64,-157.17 114.12,-158.45 123.14,-164 124.64,-157.17"/>
</g>
<!-- Node4 -->
<g id="node4" class="node">
<title>Node4</title>
<g id="a_node4"><a xlink:href="interfaceSCR__WorkshopItemActionDownload.html" target="_top" xlink:title=" ">
<polygon fill="white" stroke="#666666" points="348.5,-158 173.5,-158 173.5,-139 348.5,-139 348.5,-158"/>
<text text-anchor="middle" x="261" y="-146" font-family="Helvetica,sans-Serif" font-size="10.00">SCR_WorkshopItemActionDownload</text>
</a>
</g>
</g>
<!-- Node1&#45;&gt;Node4 -->
<g id="edge3" class="edge">
<title>Node1&#45;&gt;Node4</title>
<path fill="none" stroke="#63b8ff" d="M144.39,-148.5C153.8,-148.5 163.47,-148.5 173.02,-148.5"/>
<polygon fill="#63b8ff" stroke="#63b8ff" points="144.48,-145 134.48,-148.5 144.48,-152 144.48,-145"/>
</g>
<!-- Node5 -->
<g id="node5" class="node">
<title>Node5</title>
<g id="a_node5"><a xlink:href="interfaceSCR__WorkshopItemActionReportBase.html" target="_top" xlink:title="Action for reporting an item.">
<polygon fill="white" stroke="#666666" points="353,-110 169,-110 169,-91 353,-91 353,-110"/>
<text text-anchor="middle" x="261" y="-98" font-family="Helvetica,sans-Serif" font-size="10.00">SCR_WorkshopItemActionReportBase</text>
</a>
</g>
</g>
<!-- Node1&#45;&gt;Node5 -->
<g id="edge4" class="edge">
<title>Node1&#45;&gt;Node5</title>
<path fill="none" stroke="#63b8ff" d="M117.85,-135.95C149.77,-127.99 190.5,-117.83 220.16,-110.43"/>
<polygon fill="#63b8ff" stroke="#63b8ff" points="117.24,-132.74 108.39,-138.55 118.94,-139.53 117.24,-132.74"/>
</g>
<!-- Node3 -->
<g id="node3" class="node">
<title>Node3</title>
<g id="a_node3"><a xlink:href="interfaceSCR__WorkshopItemActionDownloadDependenciesLatest.html" target="_top" xlink:title="Action for downloading latest dependencies. Doesn&#39;t download this addon, but only downloads dependenc...">
<polygon fill="white" stroke="#666666" points="564,-211.5 389,-211.5 389,-181.5 564,-181.5 564,-211.5"/>
<text text-anchor="start" x="397" y="-199.5" font-family="Helvetica,sans-Serif" font-size="10.00">SCR_WorkshopItemActionDownload</text>
<text text-anchor="middle" x="476.5" y="-188.5" font-family="Helvetica,sans-Serif" font-size="10.00">DependenciesLatest</text>
</a>
</g>
</g>
<!-- Node2&#45;&gt;Node3 -->
<g id="edge2" class="edge">
<title>Node2&#45;&gt;Node3</title>
<path fill="none" stroke="#63b8ff" d="M361.88,-193.31C370.84,-193.56 379.87,-193.81 388.7,-194.06"/>
<polygon fill="#63b8ff" stroke="#63b8ff" points="362.09,-189.78 352,-193 361.89,-196.78 362.09,-189.78"/>
</g>
<!-- Node6 -->
<g id="node6" class="node">
<title>Node6</title>
<g id="a_node6"><a xlink:href="interfaceSCR__WorkshopItemActionAddAuthorBlock.html" target="_top" xlink:title="Action for blocking author.">
<polygon fill="white" stroke="#666666" points="551.5,-163.5 401.5,-163.5 401.5,-133.5 551.5,-133.5 551.5,-163.5"/>
<text text-anchor="start" x="409.5" y="-151.5" font-family="Helvetica,sans-Serif" font-size="10.00">SCR_WorkshopItemActionAdd</text>
<text text-anchor="middle" x="476.5" y="-140.5" font-family="Helvetica,sans-Serif" font-size="10.00">AuthorBlock</text>
</a>
</g>
</g>
<!-- Node5&#45;&gt;Node6 -->
<g id="edge5" class="edge">
<title>Node5&#45;&gt;Node6</title>
<path fill="none" stroke="#63b8ff" d="M316.83,-112.83C344.28,-119 377.79,-126.53 406.93,-133.08"/>
<polygon fill="#63b8ff" stroke="#63b8ff" points="317.76,-109.22 307.24,-110.45 316.23,-116.05 317.76,-109.22"/>
</g>
<!-- Node7 -->
<g id="node7" class="node">
<title>Node7</title>
<g id="a_node7"><a xlink:href="interfaceSCR__WorkshopItemActionCancelReport.html" target="_top" xlink:title="Action for canceling report of an item.">
<polygon fill="white" stroke="#666666" points="558,-115.5 395,-115.5 395,-85.5 558,-85.5 558,-115.5"/>
<text text-anchor="start" x="403" y="-103.5" font-family="Helvetica,sans-Serif" font-size="10.00">SCR_WorkshopItemActionCancel</text>
<text text-anchor="middle" x="476.5" y="-92.5" font-family="Helvetica,sans-Serif" font-size="10.00">Report</text>
</a>
</g>
</g>
<!-- Node5&#45;&gt;Node7 -->
<g id="edge6" class="edge">
<title>Node5&#45;&gt;Node7</title>
<path fill="none" stroke="#63b8ff" d="M364.44,-100.5C374.58,-100.5 384.78,-100.5 394.66,-100.5"/>
<polygon fill="#63b8ff" stroke="#63b8ff" points="364.47,-97 354.47,-100.5 364.47,-104 364.47,-97"/>
</g>
<!-- Node8 -->
<g id="node8" class="node">
<title>Node8</title>
<g id="a_node8"><a xlink:href="interfaceSCR__WorkshopItemActionRemoveAuthorBlock.html" target="_top" xlink:title="Action for removing author mod content blocking.">
<polygon fill="white" stroke="#666666" points="560,-67.5 393,-67.5 393,-37.5 560,-37.5 560,-67.5"/>
<text text-anchor="start" x="401" y="-55.5" font-family="Helvetica,sans-Serif" font-size="10.00">SCR_WorkshopItemActionRemove</text>
<text text-anchor="middle" x="476.5" y="-44.5" font-family="Helvetica,sans-Serif" font-size="10.00">AuthorBlock</text>
</a>
</g>
</g>
<!-- Node5&#45;&gt;Node8 -->
<g id="edge7" class="edge">
<title>Node5&#45;&gt;Node8</title>
<path fill="none" stroke="#63b8ff" d="M316.83,-88.17C344.28,-82 377.79,-74.47 406.93,-67.92"/>
<polygon fill="#63b8ff" stroke="#63b8ff" points="316.23,-84.95 307.24,-90.55 317.76,-91.78 316.23,-84.95"/>
</g>
<!-- Node9 -->
<g id="node9" class="node">
<title>Node9</title>
<g id="a_node9"><a xlink:href="interfaceSCR__WorkshopItemActionReport.html" target="_top" xlink:title="Action for reporting an item.">
<polygon fill="white" stroke="#666666" points="557,-19 396,-19 396,0 557,0 557,-19"/>
<text text-anchor="middle" x="476.5" y="-7" font-family="Helvetica,sans-Serif" font-size="10.00">SCR_WorkshopItemActionReport</text>
</a>
</g>
</g>
<!-- Node5&#45;&gt;Node9 -->
<g id="edge8" class="edge">
<title>Node5&#45;&gt;Node9</title>
<path fill="none" stroke="#63b8ff" d="M285.09,-84.58C309.77,-68.26 350.56,-43.23 389,-28.5 398.33,-24.92 408.5,-21.94 418.48,-19.47"/>
<polygon fill="#63b8ff" stroke="#63b8ff" points="283.51,-82.1 277.15,-90.58 287.41,-87.91 283.51,-82.1"/>
</g>
</g>
</svg>
