<?xml version="1.0" encoding="UTF-8" standalone="no"?>
<!DOCTYPE svg PUBLIC "-//W3C//DTD SVG 1.1//EN"
 "http://www.w3.org/Graphics/SVG/1.1/DTD/svg11.dtd">
<!-- Generated by graphviz version 8.0.2 (20230410.1723)
 -->
<!-- Title: SCR_EditableTaskComponentClass Pages: 1 -->
<svg width="179pt" height="291pt"
 viewBox="0.00 0.00 179.00 291.00" xmlns="http://www.w3.org/2000/svg" xmlns:xlink="http://www.w3.org/1999/xlink">
<g id="graph0" class="graph" transform="scale(1 1) rotate(0) translate(4 287)">
<title>SCR_EditableTaskComponentClass</title>
<!-- Node1 -->
<g id="node1" class="node">
<title>Node1</title>
<g id="a_node1"><a xlink:title=" ">
<polygon fill="#999999" stroke="#666666" points="159.5,-30 11.5,-30 11.5,0 159.5,0 159.5,-30"/>
<text text-anchor="start" x="19.5" y="-18" font-family="Helvetica,sans-Serif" font-size="10.00">SCR_EditableTaskComponent</text>
<text text-anchor="middle" x="85.5" y="-7" font-family="Helvetica,sans-Serif" font-size="10.00">Class</text>
</a>
</g>
</g>
<!-- Node2 -->
<g id="node2" class="node">
<title>Node2</title>
<g id="a_node2"><a xlink:href="interfaceSCR__EditableDescriptorComponentClass.html" target="_top" xlink:title=" ">
<polygon fill="white" stroke="#666666" points="171,-96 0,-96 0,-66 171,-66 171,-96"/>
<text text-anchor="start" x="8" y="-84" font-family="Helvetica,sans-Serif" font-size="10.00">SCR_EditableDescriptorComponent</text>
<text text-anchor="middle" x="85.5" y="-73" font-family="Helvetica,sans-Serif" font-size="10.00">Class</text>
</a>
</g>
</g>
<!-- Node2&#45;&gt;Node1 -->
<g id="edge1" class="edge">
<title>Node2&#45;&gt;Node1</title>
<path fill="none" stroke="#63b8ff" d="M85.5,-54.97C85.5,-46.55 85.5,-37.45 85.5,-30.16"/>
<polygon fill="#63b8ff" stroke="#63b8ff" points="82,-54.8 85.5,-64.8 89,-54.8 82,-54.8"/>
</g>
<!-- Node3 -->
<g id="node3" class="node">
<title>Node3</title>
<g id="a_node3"><a xlink:href="interfaceSCR__EditableSystemComponentClass.html" target="_top" xlink:title=" ">
<polygon fill="white" stroke="#666666" points="166,-162 5,-162 5,-132 166,-132 166,-162"/>
<text text-anchor="start" x="13" y="-150" font-family="Helvetica,sans-Serif" font-size="10.00">SCR_EditableSystemComponent</text>
<text text-anchor="middle" x="85.5" y="-139" font-family="Helvetica,sans-Serif" font-size="10.00">Class</text>
</a>
</g>
</g>
<!-- Node3&#45;&gt;Node2 -->
<g id="edge2" class="edge">
<title>Node3&#45;&gt;Node2</title>
<path fill="none" stroke="#63b8ff" d="M85.5,-120.97C85.5,-112.55 85.5,-103.45 85.5,-96.16"/>
<polygon fill="#63b8ff" stroke="#63b8ff" points="82,-120.8 85.5,-130.8 89,-120.8 82,-120.8"/>
</g>
<!-- Node4 -->
<g id="node4" class="node">
<title>Node4</title>
<g id="a_node4"><a xlink:href="interfaceSCR__EditableEntityComponentClass.html" target="_top" xlink:title=" ">
<polygon fill="white" stroke="#666666" points="161.5,-228 9.5,-228 9.5,-198 161.5,-198 161.5,-228"/>
<text text-anchor="start" x="17.5" y="-216" font-family="Helvetica,sans-Serif" font-size="10.00">SCR_EditableEntityComponent</text>
<text text-anchor="middle" x="85.5" y="-205" font-family="Helvetica,sans-Serif" font-size="10.00">Class</text>
</a>
</g>
</g>
<!-- Node4&#45;&gt;Node3 -->
<g id="edge3" class="edge">
<title>Node4&#45;&gt;Node3</title>
<path fill="none" stroke="#63b8ff" d="M85.5,-186.97C85.5,-178.55 85.5,-169.45 85.5,-162.16"/>
<polygon fill="#63b8ff" stroke="#63b8ff" points="82,-186.8 85.5,-196.8 89,-186.8 82,-186.8"/>
</g>
<!-- Node5 -->
<g id="node5" class="node">
<title>Node5</title>
<g id="a_node5"><a xlink:title=" ">
<polygon fill="white" stroke="#666666" points="143.5,-283 27.5,-283 27.5,-264 143.5,-264 143.5,-283"/>
<text text-anchor="middle" x="85.5" y="-271" font-family="Helvetica,sans-Serif" font-size="10.00">ScriptComponentClass</text>
</a>
</g>
</g>
<!-- Node5&#45;&gt;Node4 -->
<g id="edge4" class="edge">
<title>Node5&#45;&gt;Node4</title>
<path fill="none" stroke="#63b8ff" d="M85.5,-253.08C85.5,-244.92 85.5,-235.6 85.5,-228.11"/>
<polygon fill="#63b8ff" stroke="#63b8ff" points="82,-252.87 85.5,-262.87 89,-252.87 82,-252.87"/>
</g>
</g>
</svg>
