<?xml version="1.0" encoding="UTF-8" standalone="no"?>
<!DOCTYPE svg PUBLIC "-//W3C//DTD SVG 1.1//EN"
 "http://www.w3.org/Graphics/SVG/1.1/DTD/svg11.dtd">
<!-- Generated by graphviz version 8.0.2 (20230410.1723)
 -->
<!-- Title: SCR_RequestedTaskSupportEntityClass Pages: 1 -->
<svg width="675pt" height="182pt"
 viewBox="0.00 0.00 675.00 182.00" xmlns="http://www.w3.org/2000/svg" xmlns:xlink="http://www.w3.org/1999/xlink">
<g id="graph0" class="graph" transform="scale(1 1) rotate(0) translate(4 178)">
<title>SCR_RequestedTaskSupportEntityClass</title>
<!-- Node1 -->
<g id="node1" class="node">
<title>Node1</title>
<g id="a_node1"><a xlink:title=" ">
<polygon fill="#999999" stroke="#666666" points="461,-102 318,-102 318,-72 461,-72 461,-102"/>
<text text-anchor="start" x="326" y="-90" font-family="Helvetica,sans-Serif" font-size="10.00">SCR_RequestedTaskSupport</text>
<text text-anchor="middle" x="389.5" y="-79" font-family="Helvetica,sans-Serif" font-size="10.00">EntityClass</text>
</a>
</g>
</g>
<!-- Node4 -->
<g id="node4" class="node">
<title>Node4</title>
<g id="a_node4"><a xlink:href="interfaceSCR__CampaignDefendTaskSupportEntityClass.html" target="_top" xlink:title=" ">
<polygon fill="white" stroke="#666666" points="667,-174 497,-174 497,-144 667,-144 667,-174"/>
<text text-anchor="start" x="505" y="-162" font-family="Helvetica,sans-Serif" font-size="10.00">SCR_CampaignDefendTaskSupport</text>
<text text-anchor="middle" x="582" y="-151" font-family="Helvetica,sans-Serif" font-size="10.00">EntityClass</text>
</a>
</g>
</g>
<!-- Node1&#45;&gt;Node4 -->
<g id="edge3" class="edge">
<title>Node1&#45;&gt;Node4</title>
<path fill="none" stroke="#63b8ff" d="M431.06,-106.95C450.7,-116.18 474.78,-126.87 497,-135 505.26,-138.02 514.09,-140.91 522.81,-143.56"/>
<polygon fill="#63b8ff" stroke="#63b8ff" points="432.76,-103.41 422.23,-102.28 429.76,-109.74 432.76,-103.41"/>
</g>
<!-- Node5 -->
<g id="node5" class="node">
<title>Node5</title>
<g id="a_node5"><a xlink:href="interfaceSCR__EvacuateTaskSupportEntityClass.html" target="_top" xlink:title=" ">
<polygon fill="white" stroke="#666666" points="663,-126 501,-126 501,-96 663,-96 663,-126"/>
<text text-anchor="start" x="509" y="-114" font-family="Helvetica,sans-Serif" font-size="10.00">SCR_EvacuateTaskSupportEntity</text>
<text text-anchor="middle" x="582" y="-103" font-family="Helvetica,sans-Serif" font-size="10.00">Class</text>
</a>
</g>
</g>
<!-- Node1&#45;&gt;Node5 -->
<g id="edge4" class="edge">
<title>Node1&#45;&gt;Node5</title>
<path fill="none" stroke="#63b8ff" d="M472.06,-97.27C481.55,-98.47 491.23,-99.69 500.71,-100.88"/>
<polygon fill="#63b8ff" stroke="#63b8ff" points="472.79,-93.71 462.44,-95.94 471.92,-100.66 472.79,-93.71"/>
</g>
<!-- Node6 -->
<g id="node6" class="node">
<title>Node6</title>
<g id="a_node6"><a xlink:href="interfaceSCR__RefuelTaskSupportEntityClass.html" target="_top" xlink:title=" ">
<polygon fill="white" stroke="#666666" points="656.5,-78 507.5,-78 507.5,-48 656.5,-48 656.5,-78"/>
<text text-anchor="start" x="515.5" y="-66" font-family="Helvetica,sans-Serif" font-size="10.00">SCR_RefuelTaskSupportEntity</text>
<text text-anchor="middle" x="582" y="-55" font-family="Helvetica,sans-Serif" font-size="10.00">Class</text>
</a>
</g>
</g>
<!-- Node1&#45;&gt;Node6 -->
<g id="edge5" class="edge">
<title>Node1&#45;&gt;Node6</title>
<path fill="none" stroke="#63b8ff" d="M472.04,-76.73C483.7,-75.26 495.64,-73.75 507.14,-72.31"/>
<polygon fill="#63b8ff" stroke="#63b8ff" points="471.92,-73.34 462.44,-78.06 472.79,-80.29 471.92,-73.34"/>
</g>
<!-- Node7 -->
<g id="node7" class="node">
<title>Node7</title>
<g id="a_node7"><a xlink:href="interfaceSCR__TransportTaskSupportEntityClass.html" target="_top" xlink:title=" ">
<polygon fill="white" stroke="#666666" points="650.5,-30 513.5,-30 513.5,0 650.5,0 650.5,-30"/>
<text text-anchor="start" x="521.5" y="-18" font-family="Helvetica,sans-Serif" font-size="10.00">SCR_TransportTaskSupport</text>
<text text-anchor="middle" x="582" y="-7" font-family="Helvetica,sans-Serif" font-size="10.00">EntityClass</text>
</a>
</g>
</g>
<!-- Node1&#45;&gt;Node7 -->
<g id="edge6" class="edge">
<title>Node1&#45;&gt;Node7</title>
<path fill="none" stroke="#63b8ff" d="M431.06,-67.05C450.7,-57.82 474.78,-47.13 497,-39 505.26,-35.98 514.09,-33.09 522.81,-30.44"/>
<polygon fill="#63b8ff" stroke="#63b8ff" points="429.76,-64.26 422.23,-71.72 432.76,-70.59 429.76,-64.26"/>
</g>
<!-- Node2 -->
<g id="node2" class="node">
<title>Node2</title>
<g id="a_node2"><a xlink:href="interfaceSCR__BaseTaskSupportEntityClass.html" target="_top" xlink:title=" ">
<polygon fill="white" stroke="#666666" points="282,-102 137,-102 137,-72 282,-72 282,-102"/>
<text text-anchor="start" x="145" y="-90" font-family="Helvetica,sans-Serif" font-size="10.00">SCR_BaseTaskSupportEntity</text>
<text text-anchor="middle" x="209.5" y="-79" font-family="Helvetica,sans-Serif" font-size="10.00">Class</text>
</a>
</g>
</g>
<!-- Node2&#45;&gt;Node1 -->
<g id="edge1" class="edge">
<title>Node2&#45;&gt;Node1</title>
<path fill="none" stroke="#63b8ff" d="M293.33,-87C301.41,-87 309.56,-87 317.5,-87"/>
<polygon fill="#63b8ff" stroke="#63b8ff" points="293.39,-83.5 283.39,-87 293.39,-90.5 293.39,-83.5"/>
</g>
<!-- Node3 -->
<g id="node3" class="node">
<title>Node3</title>
<g id="a_node3"><a xlink:title=" ">
<polygon fill="white" stroke="#666666" points="101,-96.5 0,-96.5 0,-77.5 101,-77.5 101,-96.5"/>
<text text-anchor="middle" x="50.5" y="-84.5" font-family="Helvetica,sans-Serif" font-size="10.00">GenericEntityClass</text>
</a>
</g>
</g>
<!-- Node3&#45;&gt;Node2 -->
<g id="edge2" class="edge">
<title>Node3&#45;&gt;Node2</title>
<path fill="none" stroke="#63b8ff" d="M112.02,-87C120.13,-87 128.5,-87 136.78,-87"/>
<polygon fill="#63b8ff" stroke="#63b8ff" points="112.18,-83.5 102.18,-87 112.18,-90.5 112.18,-83.5"/>
</g>
</g>
</svg>
