<?xml version="1.0" encoding="UTF-8" standalone="no"?>
<!DOCTYPE svg PUBLIC "-//W3C//DTD SVG 1.1//EN"
 "http://www.w3.org/Graphics/SVG/1.1/DTD/svg11.dtd">
<!-- Generated by graphviz version 8.0.2 (20230410.1723)
 -->
<!-- Title: SCR_AIGetActionParameters Pages: 1 -->
<svg width="628pt" height="1298pt"
 viewBox="0.00 0.00 628.00 1298.00" xmlns="http://www.w3.org/2000/svg" xmlns:xlink="http://www.w3.org/1999/xlink">
<g id="graph0" class="graph" transform="scale(1 1) rotate(0) translate(4 1294)">
<title>SCR_AIGetActionParameters</title>
<!-- Node1 -->
<g id="node1" class="node">
<title>Node1</title>
<g id="a_node1"><a xlink:title="Base class of node which outputs action parameters to Behavior Tree variables.">
<polygon fill="#999999" stroke="#666666" points="400,-696.5 255,-696.5 255,-677.5 400,-677.5 400,-696.5"/>
<text text-anchor="middle" x="327.5" y="-684.5" font-family="Helvetica,sans-Serif" font-size="10.00">SCR_AIGetActionParameters</text>
</a>
</g>
</g>
<!-- Node4 -->
<g id="node4" class="node">
<title>Node4</title>
<g id="a_node4"><a xlink:href="interfaceSCR__AIFireIllumFlareBehaviorParameters.html" target="_top" xlink:title=" ">
<polygon fill="white" stroke="#666666" points="601,-1290 455,-1290 455,-1260 601,-1260 601,-1290"/>
<text text-anchor="start" x="463" y="-1278" font-family="Helvetica,sans-Serif" font-size="10.00">SCR_AIFireIllumFlareBehavior</text>
<text text-anchor="middle" x="528" y="-1267" font-family="Helvetica,sans-Serif" font-size="10.00">Parameters</text>
</a>
</g>
</g>
<!-- Node1&#45;&gt;Node4 -->
<g id="edge3" class="edge">
<title>Node1&#45;&gt;Node4</title>
<path fill="none" stroke="#63b8ff" d="M329.57,-707.76C334.72,-799.71 359.95,-1169.47 436,-1251 441.24,-1256.62 447.62,-1260.98 454.55,-1264.36"/>
<polygon fill="#63b8ff" stroke="#63b8ff" points="333.02,-707.69 328.98,-697.89 326.03,-708.06 333.02,-707.69"/>
</g>
<!-- Node5 -->
<g id="node5" class="node">
<title>Node5</title>
<g id="a_node5"><a xlink:href="interfaceSCR__AIGetAttackBehaviorParameters.html" target="_top" xlink:title=" ">
<polygon fill="white" stroke="#666666" points="619,-1241.5 437,-1241.5 437,-1222.5 619,-1222.5 619,-1241.5"/>
<text text-anchor="middle" x="528" y="-1229.5" font-family="Helvetica,sans-Serif" font-size="10.00">SCR_AIGetAttackBehaviorParameters</text>
</a>
</g>
</g>
<!-- Node1&#45;&gt;Node5 -->
<g id="edge4" class="edge">
<title>Node1&#45;&gt;Node5</title>
<path fill="none" stroke="#63b8ff" d="M329.73,-707.61C335.44,-795.86 362.23,-1140.67 436,-1214 439.2,-1217.18 442.79,-1219.88 446.64,-1222.16"/>
<polygon fill="#63b8ff" stroke="#63b8ff" points="333.17,-707.48 329.05,-697.72 326.18,-707.91 333.17,-707.48"/>
</g>
<!-- Node6 -->
<g id="node6" class="node">
<title>Node6</title>
<g id="a_node6"><a xlink:href="interfaceSCR__AIGetDefendActivityParameters.html" target="_top" xlink:title=" ">
<polygon fill="white" stroke="#666666" points="617.5,-1204.5 438.5,-1204.5 438.5,-1185.5 617.5,-1185.5 617.5,-1204.5"/>
<text text-anchor="middle" x="528" y="-1192.5" font-family="Helvetica,sans-Serif" font-size="10.00">SCR_AIGetDefendActivityParameters</text>
</a>
</g>
</g>
<!-- Node1&#45;&gt;Node6 -->
<g id="edge5" class="edge">
<title>Node1&#45;&gt;Node6</title>
<path fill="none" stroke="#63b8ff" d="M330.09,-707.77C336.98,-792.34 367.13,-1109.54 436,-1177 439.22,-1180.16 442.83,-1182.84 446.69,-1185.11"/>
<polygon fill="#63b8ff" stroke="#63b8ff" points="333.5,-707.53 329.22,-697.84 326.52,-708.08 333.5,-707.53"/>
</g>
<!-- Node7 -->
<g id="node7" class="node">
<title>Node7</title>
<g id="a_node7"><a xlink:href="interfaceSCR__AIGetDefendBehaviorParameters.html" target="_top" xlink:title=" ">
<polygon fill="white" stroke="#666666" points="620,-1167.5 436,-1167.5 436,-1148.5 620,-1148.5 620,-1167.5"/>
<text text-anchor="middle" x="528" y="-1155.5" font-family="Helvetica,sans-Serif" font-size="10.00">SCR_AIGetDefendBehaviorParameters</text>
</a>
</g>
</g>
<!-- Node1&#45;&gt;Node7 -->
<g id="edge6" class="edge">
<title>Node1&#45;&gt;Node7</title>
<path fill="none" stroke="#63b8ff" d="M330.48,-707.42C338.66,-787.27 372.34,-1077.08 436,-1139 439.7,-1142.6 443.9,-1145.6 448.41,-1148.09"/>
<polygon fill="#63b8ff" stroke="#63b8ff" points="333.9,-707.44 329.43,-697.84 326.94,-708.14 333.9,-707.44"/>
</g>
<!-- Node8 -->
<g id="node8" class="node">
<title>Node8</title>
<g id="a_node8"><a xlink:href="interfaceSCR__AIGetFirePositionBehaviorParameters.html" target="_top" xlink:title=" ">
<polygon fill="white" stroke="#666666" points="605.5,-1130 450.5,-1130 450.5,-1100 605.5,-1100 605.5,-1130"/>
<text text-anchor="start" x="458.5" y="-1118" font-family="Helvetica,sans-Serif" font-size="10.00">SCR_AIGetFirePositionBehavior</text>
<text text-anchor="middle" x="528" y="-1107" font-family="Helvetica,sans-Serif" font-size="10.00">Parameters</text>
</a>
</g>
</g>
<!-- Node1&#45;&gt;Node8 -->
<g id="edge7" class="edge">
<title>Node1&#45;&gt;Node8</title>
<path fill="none" stroke="#63b8ff" d="M331.22,-707.5C341.47,-781.75 380.03,-1035.15 436,-1091 440.16,-1095.15 444.96,-1098.62 450.12,-1101.5"/>
<polygon fill="#63b8ff" stroke="#63b8ff" points="334.58,-707.27 329.77,-697.83 327.65,-708.21 334.58,-707.27"/>
</g>
<!-- Node9 -->
<g id="node9" class="node">
<title>Node9</title>
<g id="a_node9"><a xlink:href="interfaceSCR__AIGetFollowActivityParameters.html" target="_top" xlink:title=" ">
<polygon fill="white" stroke="#666666" points="616,-1081.5 440,-1081.5 440,-1062.5 616,-1062.5 616,-1081.5"/>
<text text-anchor="middle" x="528" y="-1069.5" font-family="Helvetica,sans-Serif" font-size="10.00">SCR_AIGetFollowActivityParameters</text>
</a>
</g>
</g>
<!-- Node1&#45;&gt;Node9 -->
<g id="edge8" class="edge">
<title>Node1&#45;&gt;Node9</title>
<path fill="none" stroke="#63b8ff" d="M327.73,-707.49C326.57,-769.89 332.17,-959.09 436,-1054 439.45,-1057.15 443.28,-1059.82 447.37,-1062.07"/>
<polygon fill="#63b8ff" stroke="#63b8ff" points="331.25,-707.86 328.02,-697.77 324.25,-707.67 331.25,-707.86"/>
</g>
<!-- Node10 -->
<g id="node10" class="node">
<title>Node10</title>
<g id="a_node10"><a xlink:href="interfaceSCR__AIGetGetInActivityParameters.html" target="_top" xlink:title=" ">
<polygon fill="white" stroke="#666666" points="614,-1044.5 442,-1044.5 442,-1025.5 614,-1025.5 614,-1044.5"/>
<text text-anchor="middle" x="528" y="-1032.5" font-family="Helvetica,sans-Serif" font-size="10.00">SCR_AIGetGetInActivityParameters</text>
</a>
</g>
</g>
<!-- Node1&#45;&gt;Node10 -->
<g id="edge9" class="edge">
<title>Node1&#45;&gt;Node10</title>
<path fill="none" stroke="#63b8ff" d="M328.58,-707.62C329.98,-765.75 342.39,-932.16 436,-1016 440.09,-1019.66 444.69,-1022.68 449.61,-1025.18"/>
<polygon fill="#63b8ff" stroke="#63b8ff" points="332.07,-707.87 328.42,-697.93 325.07,-707.98 332.07,-707.87"/>
</g>
<!-- Node11 -->
<g id="node11" class="node">
<title>Node11</title>
<g id="a_node11"><a xlink:href="interfaceSCR__AIGetGetInVehicleBehaviorParameters.html" target="_top" xlink:title=" ">
<polygon fill="white" stroke="#666666" points="607.5,-1007 448.5,-1007 448.5,-977 607.5,-977 607.5,-1007"/>
<text text-anchor="start" x="456.5" y="-995" font-family="Helvetica,sans-Serif" font-size="10.00">SCR_AIGetGetInVehicleBehavior</text>
<text text-anchor="middle" x="528" y="-984" font-family="Helvetica,sans-Serif" font-size="10.00">Parameters</text>
</a>
</g>
</g>
<!-- Node1&#45;&gt;Node11 -->
<g id="edge10" class="edge">
<title>Node1&#45;&gt;Node11</title>
<path fill="none" stroke="#63b8ff" d="M330.14,-707.8C335.4,-759.84 356.48,-896.6 436,-968 439.77,-971.38 443.96,-974.3 448.41,-976.81"/>
<polygon fill="#63b8ff" stroke="#63b8ff" points="333.55,-707.64 329.16,-698 326.58,-708.27 333.55,-707.64"/>
</g>
<!-- Node12 -->
<g id="node12" class="node">
<title>Node12</title>
<g id="a_node12"><a xlink:href="interfaceSCR__AIGetGetOutActivityParameters.html" target="_top" xlink:title=" ">
<polygon fill="white" stroke="#666666" points="618,-958.5 438,-958.5 438,-939.5 618,-939.5 618,-958.5"/>
<text text-anchor="middle" x="528" y="-946.5" font-family="Helvetica,sans-Serif" font-size="10.00">SCR_AIGetGetOutActivityParameters</text>
</a>
</g>
</g>
<!-- Node1&#45;&gt;Node12 -->
<g id="edge11" class="edge">
<title>Node1&#45;&gt;Node12</title>
<path fill="none" stroke="#63b8ff" d="M331.15,-707.56C338.42,-755.04 363.23,-872.68 436,-931 440.02,-934.22 444.46,-936.92 449.15,-939.18"/>
<polygon fill="#63b8ff" stroke="#63b8ff" points="334.5,-707.25 329.63,-697.84 327.57,-708.24 334.5,-707.25"/>
</g>
<!-- Node13 -->
<g id="node13" class="node">
<title>Node13</title>
<g id="a_node13"><a xlink:href="interfaceSCR__AIGetHealActivityParameters.html" target="_top" xlink:title=" ">
<polygon fill="white" stroke="#666666" points="612,-921.5 444,-921.5 444,-902.5 612,-902.5 612,-921.5"/>
<text text-anchor="middle" x="528" y="-909.5" font-family="Helvetica,sans-Serif" font-size="10.00">SCR_AIGetHealActivityParameters</text>
</a>
</g>
</g>
<!-- Node1&#45;&gt;Node13 -->
<g id="edge12" class="edge">
<title>Node1&#45;&gt;Node13</title>
<path fill="none" stroke="#63b8ff" d="M332.9,-707.13C343.13,-748.89 372.63,-845.04 436,-893 440.89,-896.7 446.33,-899.72 452.06,-902.18"/>
<polygon fill="#63b8ff" stroke="#63b8ff" points="336.14,-706.61 330.46,-697.66 329.32,-708.2 336.14,-706.61"/>
</g>
<!-- Node14 -->
<g id="node14" class="node">
<title>Node14</title>
<g id="a_node14"><a xlink:href="interfaceSCR__AIGetHealWaitBehaviorParameters.html" target="_top" xlink:title=" ">
<polygon fill="white" stroke="#666666" points="599.5,-884 456.5,-884 456.5,-854 599.5,-854 599.5,-884"/>
<text text-anchor="start" x="464.5" y="-872" font-family="Helvetica,sans-Serif" font-size="10.00">SCR_AIGetHealWaitBehavior</text>
<text text-anchor="middle" x="528" y="-861" font-family="Helvetica,sans-Serif" font-size="10.00">Parameters</text>
</a>
</g>
</g>
<!-- Node1&#45;&gt;Node14 -->
<g id="edge13" class="edge">
<title>Node1&#45;&gt;Node14</title>
<path fill="none" stroke="#63b8ff" d="M336.5,-707.02C351.05,-740.82 385.14,-809.03 436,-845 442.14,-849.34 449.01,-852.9 456.15,-855.81"/>
<polygon fill="#63b8ff" stroke="#63b8ff" points="339.39,-705.86 332.32,-697.97 332.93,-708.55 339.39,-705.86"/>
</g>
<!-- Node15 -->
<g id="node15" class="node">
<title>Node15</title>
<g id="a_node15"><a xlink:href="interfaceSCR__AIGetInvestigateBehaviorParameters.html" target="_top" xlink:title=" ">
<polygon fill="white" stroke="#666666" points="602.5,-836 453.5,-836 453.5,-806 602.5,-806 602.5,-836"/>
<text text-anchor="start" x="461.5" y="-824" font-family="Helvetica,sans-Serif" font-size="10.00">SCR_AIGetInvestigateBehavior</text>
<text text-anchor="middle" x="528" y="-813" font-family="Helvetica,sans-Serif" font-size="10.00">Parameters</text>
</a>
</g>
</g>
<!-- Node1&#45;&gt;Node15 -->
<g id="edge14" class="edge">
<title>Node1&#45;&gt;Node15</title>
<path fill="none" stroke="#63b8ff" d="M341.64,-705.72C359.94,-730.38 395.46,-773.39 436,-797 441.65,-800.29 447.75,-803.14 454.03,-805.6"/>
<polygon fill="#63b8ff" stroke="#63b8ff" points="343.99,-704 335.29,-697.95 338.32,-708.11 343.99,-704"/>
</g>
<!-- Node16 -->
<g id="node16" class="node">
<title>Node16</title>
<g id="a_node16"><a xlink:href="interfaceSCR__AIGetMedicHealBehaviorParameters.html" target="_top" xlink:title=" ">
<polygon fill="white" stroke="#666666" points="602.5,-788 453.5,-788 453.5,-758 602.5,-758 602.5,-788"/>
<text text-anchor="start" x="461.5" y="-776" font-family="Helvetica,sans-Serif" font-size="10.00">SCR_AIGetMedicHealBehavior</text>
<text text-anchor="middle" x="528" y="-765" font-family="Helvetica,sans-Serif" font-size="10.00">Parameters</text>
</a>
</g>
</g>
<!-- Node1&#45;&gt;Node16 -->
<g id="edge15" class="edge">
<title>Node1&#45;&gt;Node16</title>
<path fill="none" stroke="#63b8ff" d="M351.98,-702.99C373.16,-716.81 405.56,-736.47 436,-749 443.71,-752.17 451.95,-755.03 460.22,-757.58"/>
<polygon fill="#63b8ff" stroke="#63b8ff" points="354.09,-699.53 343.82,-696.92 350.22,-705.36 354.09,-699.53"/>
</g>
<!-- Node17 -->
<g id="node17" class="node">
<title>Node17</title>
<g id="a_node17"><a xlink:href="interfaceSCR__AIGetMoveActivityParameters.html" target="_top" xlink:title=" ">
<polygon fill="white" stroke="#666666" points="613.5,-739.5 442.5,-739.5 442.5,-720.5 613.5,-720.5 613.5,-739.5"/>
<text text-anchor="middle" x="528" y="-727.5" font-family="Helvetica,sans-Serif" font-size="10.00">SCR_AIGetMoveActivityParameters</text>
</a>
</g>
</g>
<!-- Node1&#45;&gt;Node17 -->
<g id="edge16" class="edge">
<title>Node1&#45;&gt;Node17</title>
<path fill="none" stroke="#63b8ff" d="M382.74,-699.26C399.78,-703.07 418.66,-707.26 436,-711 449.88,-714 464.97,-717.18 478.8,-720.07"/>
<polygon fill="#63b8ff" stroke="#63b8ff" points="383.93,-695.72 373.4,-696.95 382.4,-702.55 383.93,-695.72"/>
</g>
<!-- Node18 -->
<g id="node18" class="node">
<title>Node18</title>
<g id="a_node18"><a xlink:href="interfaceSCR__AIGetMoveFromDangerBehaviorParameters.html" target="_top" xlink:title=" ">
<polygon fill="white" stroke="#666666" points="617.5,-702 438.5,-702 438.5,-672 617.5,-672 617.5,-702"/>
<text text-anchor="start" x="446.5" y="-690" font-family="Helvetica,sans-Serif" font-size="10.00">SCR_AIGetMoveFromDangerBehavior</text>
<text text-anchor="middle" x="528" y="-679" font-family="Helvetica,sans-Serif" font-size="10.00">Parameters</text>
</a>
</g>
</g>
<!-- Node1&#45;&gt;Node18 -->
<g id="edge17" class="edge">
<title>Node1&#45;&gt;Node18</title>
<path fill="none" stroke="#63b8ff" d="M411.16,-687C420.03,-687 429.09,-687 438.03,-687"/>
<polygon fill="#63b8ff" stroke="#63b8ff" points="411.44,-683.5 401.44,-687 411.44,-690.5 411.44,-683.5"/>
</g>
<!-- Node19 -->
<g id="node19" class="node">
<title>Node19</title>
<g id="a_node19"><a xlink:href="interfaceSCR__AIGetMoveIndividuallyBehaviorParameters.html" target="_top" xlink:title=" ">
<polygon fill="white" stroke="#666666" points="596,-654 460,-654 460,-624 596,-624 596,-654"/>
<text text-anchor="start" x="468" y="-642" font-family="Helvetica,sans-Serif" font-size="10.00">SCR_AIGetMoveIndividually</text>
<text text-anchor="middle" x="528" y="-631" font-family="Helvetica,sans-Serif" font-size="10.00">BehaviorParameters</text>
</a>
</g>
</g>
<!-- Node1&#45;&gt;Node19 -->
<g id="edge18" class="edge">
<title>Node1&#45;&gt;Node19</title>
<path fill="none" stroke="#63b8ff" d="M380.15,-674.51C405.55,-668.37 436.4,-660.91 463.25,-654.42"/>
<polygon fill="#63b8ff" stroke="#63b8ff" points="379.53,-671.3 370.63,-677.05 381.17,-678.11 379.53,-671.3"/>
</g>
<!-- Node20 -->
<g id="node20" class="node">
<title>Node20</title>
<g id="a_node20"><a xlink:href="interfaceSCR__AIGetObserveUnknownFireBehaviorParameters.html" target="_top" xlink:title=" ">
<polygon fill="white" stroke="#666666" points="607,-606 449,-606 449,-576 607,-576 607,-606"/>
<text text-anchor="start" x="457" y="-594" font-family="Helvetica,sans-Serif" font-size="10.00">SCR_AIGetObserveUnknownFire</text>
<text text-anchor="middle" x="528" y="-583" font-family="Helvetica,sans-Serif" font-size="10.00">BehaviorParameters</text>
</a>
</g>
</g>
<!-- Node1&#45;&gt;Node20 -->
<g id="edge19" class="edge">
<title>Node1&#45;&gt;Node20</title>
<path fill="none" stroke="#63b8ff" d="M348.86,-670.32C369.62,-654.08 403.33,-629.75 436,-615 443.15,-611.77 450.81,-608.91 458.55,-606.4"/>
<polygon fill="#63b8ff" stroke="#63b8ff" points="346.93,-668.19 341.29,-677.15 351.29,-673.66 346.93,-668.19"/>
</g>
<!-- Node21 -->
<g id="node21" class="node">
<title>Node21</title>
<g id="a_node21"><a xlink:href="interfaceSCR__AIGetOutVehicleBehaviorParameters.html" target="_top" xlink:title=" ">
<polygon fill="white" stroke="#666666" points="604,-558 452,-558 452,-528 604,-528 604,-558"/>
<text text-anchor="start" x="460" y="-546" font-family="Helvetica,sans-Serif" font-size="10.00">SCR_AIGetOutVehicleBehavior</text>
<text text-anchor="middle" x="528" y="-535" font-family="Helvetica,sans-Serif" font-size="10.00">Parameters</text>
</a>
</g>
</g>
<!-- Node1&#45;&gt;Node21 -->
<g id="edge20" class="edge">
<title>Node1&#45;&gt;Node21</title>
<path fill="none" stroke="#63b8ff" d="M340.2,-668.11C357.7,-641.45 393.26,-593.15 436,-567 441.44,-563.67 447.33,-560.81 453.41,-558.33"/>
<polygon fill="#63b8ff" stroke="#63b8ff" points="336.84,-665.86 334.4,-676.17 342.74,-669.63 336.84,-665.86"/>
</g>
<!-- Node22 -->
<g id="node22" class="node">
<title>Node22</title>
<g id="a_node22"><a xlink:href="interfaceSCR__AIGetPerformActionActivityParameters.html" target="_top" xlink:title=" ">
<polygon fill="white" stroke="#666666" points="608,-510 448,-510 448,-480 608,-480 608,-510"/>
<text text-anchor="start" x="456" y="-498" font-family="Helvetica,sans-Serif" font-size="10.00">SCR_AIGetPerformActionActivity</text>
<text text-anchor="middle" x="528" y="-487" font-family="Helvetica,sans-Serif" font-size="10.00">Parameters</text>
</a>
</g>
</g>
<!-- Node1&#45;&gt;Node22 -->
<g id="edge21" class="edge">
<title>Node1&#45;&gt;Node22</title>
<path fill="none" stroke="#63b8ff" d="M335.56,-667.2C349.23,-631.83 382.72,-557.83 436,-519 440.49,-515.73 445.39,-512.9 450.52,-510.46"/>
<polygon fill="#63b8ff" stroke="#63b8ff" points="332.04,-665.65 331.82,-676.24 338.6,-668.09 332.04,-665.65"/>
</g>
<!-- Node23 -->
<g id="node23" class="node">
<title>Node23</title>
<g id="a_node23"><a xlink:href="interfaceSCR__AIGetPerformActionBehaviorParameters.html" target="_top" xlink:title=" ">
<polygon fill="white" stroke="#666666" points="610.5,-462 445.5,-462 445.5,-432 610.5,-432 610.5,-462"/>
<text text-anchor="start" x="453.5" y="-450" font-family="Helvetica,sans-Serif" font-size="10.00">SCR_AIGetPerformActionBehavior</text>
<text text-anchor="middle" x="528" y="-439" font-family="Helvetica,sans-Serif" font-size="10.00">Parameters</text>
</a>
</g>
</g>
<!-- Node1&#45;&gt;Node23 -->
<g id="edge22" class="edge">
<title>Node1&#45;&gt;Node23</title>
<path fill="none" stroke="#63b8ff" d="M332.74,-666.46C342.72,-623.37 371.87,-523.22 436,-471 440.05,-467.7 444.52,-464.85 449.22,-462.39"/>
<polygon fill="#63b8ff" stroke="#63b8ff" points="329.14,-665.49 330.41,-676.01 335.98,-667 329.14,-665.49"/>
</g>
<!-- Node24 -->
<g id="node24" class="node">
<title>Node24</title>
<g id="a_node24"><a xlink:href="interfaceSCR__AIGetPickupInventoryItemsParameters.html" target="_top" xlink:title=" ">
<polygon fill="white" stroke="#666666" points="595.5,-414 460.5,-414 460.5,-384 595.5,-384 595.5,-414"/>
<text text-anchor="start" x="468.5" y="-402" font-family="Helvetica,sans-Serif" font-size="10.00">SCR_AIGetPickupInventory</text>
<text text-anchor="middle" x="528" y="-391" font-family="Helvetica,sans-Serif" font-size="10.00">ItemsParameters</text>
</a>
</g>
</g>
<!-- Node1&#45;&gt;Node24 -->
<g id="edge23" class="edge">
<title>Node1&#45;&gt;Node24</title>
<path fill="none" stroke="#63b8ff" d="M330.69,-666.44C337.1,-616.77 360.45,-489.39 436,-423 443,-416.85 451.39,-412.25 460.21,-408.82"/>
<polygon fill="#63b8ff" stroke="#63b8ff" points="327.13,-665.73 329.43,-676.07 334.08,-666.55 327.13,-665.73"/>
</g>
<!-- Node25 -->
<g id="node25" class="node">
<title>Node25</title>
<g id="a_node25"><a xlink:href="interfaceSCR__AIGetPilotMoveFromIncomingVehicleBehaviorParameters.html" target="_top" xlink:title=" ">
<polygon fill="white" stroke="#666666" points="613,-366 443,-366 443,-336 613,-336 613,-366"/>
<text text-anchor="start" x="451" y="-354" font-family="Helvetica,sans-Serif" font-size="10.00">SCR_AIGetPilotMoveFromIncoming</text>
<text text-anchor="middle" x="528" y="-343" font-family="Helvetica,sans-Serif" font-size="10.00">VehicleBehaviorParameters</text>
</a>
</g>
</g>
<!-- Node1&#45;&gt;Node25 -->
<g id="edge24" class="edge">
<title>Node1&#45;&gt;Node25</title>
<path fill="none" stroke="#63b8ff" d="M329.24,-666.21C332.4,-610.36 348.96,-455.83 436,-375 439.59,-371.66 443.59,-368.78 447.85,-366.29"/>
<polygon fill="#63b8ff" stroke="#63b8ff" points="325.7,-665.96 328.73,-676.12 332.7,-666.29 325.7,-665.96"/>
</g>
<!-- Node26 -->
<g id="node26" class="node">
<title>Node26</title>
<g id="a_node26"><a xlink:href="interfaceSCR__AIGetProvideAmmoBehaviorParameters.html" target="_top" xlink:title=" ">
<polygon fill="white" stroke="#666666" points="610,-318 446,-318 446,-288 610,-288 610,-318"/>
<text text-anchor="start" x="454" y="-306" font-family="Helvetica,sans-Serif" font-size="10.00">SCR_AIGetProvideAmmoBehavior</text>
<text text-anchor="middle" x="528" y="-295" font-family="Helvetica,sans-Serif" font-size="10.00">Parameters</text>
</a>
</g>
</g>
<!-- Node1&#45;&gt;Node26 -->
<g id="edge25" class="edge">
<title>Node1&#45;&gt;Node26</title>
<path fill="none" stroke="#63b8ff" d="M328.13,-666.38C328.21,-605.16 337.14,-422.72 436,-327 439.4,-323.7 443.2,-320.85 447.27,-318.37"/>
<polygon fill="#63b8ff" stroke="#63b8ff" points="324.64,-666.27 328.21,-676.24 331.64,-666.22 324.64,-666.27"/>
</g>
<!-- Node27 -->
<g id="node27" class="node">
<title>Node27</title>
<g id="a_node27"><a xlink:href="interfaceSCR__AIGetResupplyActivityParameters.html" target="_top" xlink:title=" ">
<polygon fill="white" stroke="#666666" points="597.5,-270 458.5,-270 458.5,-240 597.5,-240 597.5,-270"/>
<text text-anchor="start" x="466.5" y="-258" font-family="Helvetica,sans-Serif" font-size="10.00">SCR_AIGetResupplyActivity</text>
<text text-anchor="middle" x="528" y="-247" font-family="Helvetica,sans-Serif" font-size="10.00">Parameters</text>
</a>
</g>
</g>
<!-- Node1&#45;&gt;Node27 -->
<g id="edge26" class="edge">
<title>Node1&#45;&gt;Node27</title>
<path fill="none" stroke="#63b8ff" d="M331.19,-666.3C341.33,-591.32 379.58,-335.43 436,-279 442.24,-272.76 449.89,-268.09 458.09,-264.59"/>
<polygon fill="#63b8ff" stroke="#63b8ff" points="327.61,-665.7 329.76,-676.07 334.54,-666.62 327.61,-665.7"/>
</g>
<!-- Node28 -->
<g id="node28" class="node">
<title>Node28</title>
<g id="a_node28"><a xlink:href="interfaceSCR__AIGetRetreatFromTargetBehaviorParameters.html" target="_top" xlink:title=" ">
<polygon fill="white" stroke="#666666" points="602,-222 454,-222 454,-192 602,-192 602,-222"/>
<text text-anchor="start" x="462" y="-210" font-family="Helvetica,sans-Serif" font-size="10.00">SCR_AIGetRetreatFromTarget</text>
<text text-anchor="middle" x="528" y="-199" font-family="Helvetica,sans-Serif" font-size="10.00">BehaviorParameters</text>
</a>
</g>
</g>
<!-- Node1&#45;&gt;Node28 -->
<g id="edge27" class="edge">
<title>Node1&#45;&gt;Node28</title>
<path fill="none" stroke="#63b8ff" d="M330.55,-666.5C338.99,-586.31 373.52,-295.15 436,-231 441.13,-225.73 447.27,-221.58 453.9,-218.3"/>
<polygon fill="#63b8ff" stroke="#63b8ff" points="327,-665.82 329.46,-676.12 333.97,-666.53 327,-665.82"/>
</g>
<!-- Node29 -->
<g id="node29" class="node">
<title>Node29</title>
<g id="a_node29"><a xlink:href="interfaceSCR__AIGetRetreatWhileLookAtBehaviorParameters.html" target="_top" xlink:title=" ">
<polygon fill="white" stroke="#666666" points="600,-174 456,-174 456,-144 600,-144 600,-174"/>
<text text-anchor="start" x="464" y="-162" font-family="Helvetica,sans-Serif" font-size="10.00">SCR_AIGetRetreatWhileLook</text>
<text text-anchor="middle" x="528" y="-151" font-family="Helvetica,sans-Serif" font-size="10.00">AtBehaviorParameters</text>
</a>
</g>
</g>
<!-- Node1&#45;&gt;Node29 -->
<g id="edge28" class="edge">
<title>Node1&#45;&gt;Node29</title>
<path fill="none" stroke="#63b8ff" d="M330.05,-666.58C336.93,-581.34 367.45,-254.9 436,-183 441.52,-177.21 448.27,-172.75 455.56,-169.33"/>
<polygon fill="#63b8ff" stroke="#63b8ff" points="326.5,-666.11 329.21,-676.35 333.48,-666.66 326.5,-666.11"/>
</g>
<!-- Node30 -->
<g id="node30" class="node">
<title>Node30</title>
<g id="a_node30"><a xlink:href="interfaceSCR__AIGetSuppressActivityParameters.html" target="_top" xlink:title=" ">
<polygon fill="white" stroke="#666666" points="598,-126 458,-126 458,-96 598,-96 598,-126"/>
<text text-anchor="start" x="466" y="-114" font-family="Helvetica,sans-Serif" font-size="10.00">SCR_AIGetSuppressActivity</text>
<text text-anchor="middle" x="528" y="-103" font-family="Helvetica,sans-Serif" font-size="10.00">Parameters</text>
</a>
</g>
</g>
<!-- Node1&#45;&gt;Node30 -->
<g id="edge29" class="edge">
<title>Node1&#45;&gt;Node30</title>
<path fill="none" stroke="#63b8ff" d="M329.65,-666.41C335.13,-575.92 361.42,-214.63 436,-135 442.03,-128.56 449.57,-123.77 457.7,-120.22"/>
<polygon fill="#63b8ff" stroke="#63b8ff" points="326.1,-666.13 329.02,-676.32 333.09,-666.54 326.1,-666.13"/>
</g>
<!-- Node31 -->
<g id="node31" class="node">
<title>Node31</title>
<g id="a_node31"><a xlink:href="interfaceSCR__AIGetSuppressBehaviorParameters.html" target="_top" xlink:title=" ">
<polygon fill="white" stroke="#666666" points="600.5,-78 455.5,-78 455.5,-48 600.5,-48 600.5,-78"/>
<text text-anchor="start" x="463.5" y="-66" font-family="Helvetica,sans-Serif" font-size="10.00">SCR_AIGetSuppressBehavior</text>
<text text-anchor="middle" x="528" y="-55" font-family="Helvetica,sans-Serif" font-size="10.00">Parameters</text>
</a>
</g>
</g>
<!-- Node1&#45;&gt;Node31 -->
<g id="edge30" class="edge">
<title>Node1&#45;&gt;Node31</title>
<path fill="none" stroke="#63b8ff" d="M329.3,-666.46C333.43,-571.33 355.31,-174.47 436,-87 441.43,-81.12 448.11,-76.6 455.37,-73.16"/>
<polygon fill="#63b8ff" stroke="#63b8ff" points="325.77,-666.26 328.85,-676.4 332.76,-666.55 325.77,-666.26"/>
</g>
<!-- Node32 -->
<g id="node32" class="node">
<title>Node32</title>
<g id="a_node32"><a xlink:href="interfaceSCR__AIGetThrowGrenadeToBehaviorParameters.html" target="_top" xlink:title=" ">
<polygon fill="white" stroke="#666666" points="616,-30 440,-30 440,0 616,0 616,-30"/>
<text text-anchor="start" x="448" y="-18" font-family="Helvetica,sans-Serif" font-size="10.00">SCR_AIGetThrowGrenadeToBehavior</text>
<text text-anchor="middle" x="528" y="-7" font-family="Helvetica,sans-Serif" font-size="10.00">Parameters</text>
</a>
</g>
</g>
<!-- Node1&#45;&gt;Node32 -->
<g id="edge31" class="edge">
<title>Node1&#45;&gt;Node32</title>
<path fill="none" stroke="#63b8ff" d="M329.01,-666.41C331.87,-566.63 349.21,-134.31 436,-39 438.97,-35.74 442.33,-32.9 445.95,-30.43"/>
<polygon fill="#63b8ff" stroke="#63b8ff" points="325.49,-666.02 328.72,-676.11 332.49,-666.21 325.49,-666.02"/>
</g>
<!-- Node2 -->
<g id="node2" class="node">
<title>Node2</title>
<g id="a_node2"><a xlink:href="interfaceSCR__AIActionTask.html" target="_top" xlink:title=" ">
<polygon fill="white" stroke="#666666" points="219,-696.5 119,-696.5 119,-677.5 219,-677.5 219,-696.5"/>
<text text-anchor="middle" x="169" y="-684.5" font-family="Helvetica,sans-Serif" font-size="10.00">SCR_AIActionTask</text>
</a>
</g>
</g>
<!-- Node2&#45;&gt;Node1 -->
<g id="edge1" class="edge">
<title>Node2&#45;&gt;Node1</title>
<path fill="none" stroke="#63b8ff" d="M229.92,-687C238.01,-687 246.39,-687 254.66,-687"/>
<polygon fill="#63b8ff" stroke="#63b8ff" points="230.09,-683.5 220.09,-687 230.09,-690.5 230.09,-683.5"/>
</g>
<!-- Node3 -->
<g id="node3" class="node">
<title>Node3</title>
<g id="a_node3"><a xlink:title=" ">
<polygon fill="white" stroke="#666666" points="83,-696.5 0,-696.5 0,-677.5 83,-677.5 83,-696.5"/>
<text text-anchor="middle" x="41.5" y="-684.5" font-family="Helvetica,sans-Serif" font-size="10.00">AITaskScripted</text>
</a>
</g>
</g>
<!-- Node3&#45;&gt;Node2 -->
<g id="edge2" class="edge">
<title>Node3&#45;&gt;Node2</title>
<path fill="none" stroke="#63b8ff" d="M94.11,-687C102.24,-687 110.62,-687 118.7,-687"/>
<polygon fill="#63b8ff" stroke="#63b8ff" points="94.25,-683.5 84.25,-687 94.25,-690.5 94.25,-683.5"/>
</g>
</g>
</svg>
