<?xml version="1.0" encoding="UTF-8" standalone="no"?>
<!DOCTYPE svg PUBLIC "-//W3C//DTD SVG 1.1//EN"
 "http://www.w3.org/Graphics/SVG/1.1/DTD/svg11.dtd">
<!-- Generated by graphviz version 8.0.2 (20230410.1723)
 -->
<!-- Title: SCR_MapUIElement Pages: 1 -->
<svg width="873pt" height="156pt"
 viewBox="0.00 0.00 873.00 156.00" xmlns="http://www.w3.org/2000/svg" xmlns:xlink="http://www.w3.org/1999/xlink">
<g id="graph0" class="graph" transform="scale(1 1) rotate(0) translate(4 152)">
<title>SCR_MapUIElement</title>
<!-- Node1 -->
<g id="node1" class="node">
<title>Node1</title>
<g id="a_node1"><a xlink:title=" ">
<polygon fill="#999999" stroke="#666666" points="469,-74 363,-74 363,-55 469,-55 469,-74"/>
<text text-anchor="middle" x="416" y="-62" font-family="Helvetica,sans-Serif" font-size="10.00">SCR_MapUIElement</text>
</a>
</g>
</g>
<!-- Node4 -->
<g id="node4" class="node">
<title>Node4</title>
<g id="a_node4"><a xlink:href="interfaceSCR__CampaignMapUIElement.html" target="_top" xlink:title=" ">
<polygon fill="white" stroke="#666666" points="669,-130 520,-130 520,-111 669,-111 669,-130"/>
<text text-anchor="middle" x="594.5" y="-118" font-family="Helvetica,sans-Serif" font-size="10.00">SCR_CampaignMapUIElement</text>
</a>
</g>
</g>
<!-- Node1&#45;&gt;Node4 -->
<g id="edge3" class="edge">
<title>Node1&#45;&gt;Node4</title>
<path fill="none" stroke="#63b8ff" d="M447.34,-78.91C464.06,-86.43 485.36,-95.32 505,-101.5 515.94,-104.94 527.84,-107.97 539.26,-110.53"/>
<polygon fill="#63b8ff" stroke="#63b8ff" points="449.12,-75.42 438.57,-74.44 446.21,-81.78 449.12,-75.42"/>
</g>
<!-- Node7 -->
<g id="node7" class="node">
<title>Node7</title>
<g id="a_node7"><a xlink:href="interfaceSCR__CampaignMapUIPlayerHighlight.html" target="_top" xlink:title=" ">
<polygon fill="white" stroke="#666666" points="684,-93 505,-93 505,-74 684,-74 684,-93"/>
<text text-anchor="middle" x="594.5" y="-81" font-family="Helvetica,sans-Serif" font-size="10.00">SCR_CampaignMapUIPlayerHighlight</text>
</a>
</g>
</g>
<!-- Node1&#45;&gt;Node7 -->
<g id="edge6" class="edge">
<title>Node1&#45;&gt;Node7</title>
<path fill="none" stroke="#63b8ff" d="M480.37,-71.32C488.23,-72.17 496.38,-73.04 504.53,-73.92"/>
<polygon fill="#63b8ff" stroke="#63b8ff" points="480.8,-67.74 470.48,-70.15 480.05,-74.7 480.8,-67.74"/>
</g>
<!-- Node8 -->
<g id="node8" class="node">
<title>Node8</title>
<g id="a_node8"><a xlink:href="interfaceSCR__MapUISpawnPoint.html" target="_top" xlink:title=" ">
<polygon fill="white" stroke="#666666" points="655.5,-56 533.5,-56 533.5,-37 655.5,-37 655.5,-56"/>
<text text-anchor="middle" x="594.5" y="-44" font-family="Helvetica,sans-Serif" font-size="10.00">SCR_MapUISpawnPoint</text>
</a>
</g>
</g>
<!-- Node1&#45;&gt;Node8 -->
<g id="edge7" class="edge">
<title>Node1&#45;&gt;Node8</title>
<path fill="none" stroke="#63b8ff" d="M480.04,-58.07C497.33,-56.31 516.03,-54.4 533.16,-52.65"/>
<polygon fill="#63b8ff" stroke="#63b8ff" points="480.07,-54.65 470.48,-59.15 480.78,-61.62 480.07,-54.65"/>
</g>
<!-- Node9 -->
<g id="node9" class="node">
<title>Node9</title>
<g id="a_node9"><a xlink:href="interfaceSCR__MapUITask.html" target="_top" xlink:title=" ">
<polygon fill="white" stroke="#666666" points="640,-19 549,-19 549,0 640,0 640,-19"/>
<text text-anchor="middle" x="594.5" y="-7" font-family="Helvetica,sans-Serif" font-size="10.00">SCR_MapUITask</text>
</a>
</g>
</g>
<!-- Node1&#45;&gt;Node9 -->
<g id="edge8" class="edge">
<title>Node1&#45;&gt;Node9</title>
<path fill="none" stroke="#63b8ff" d="M446.98,-50.16C463.74,-42.58 485.2,-33.61 505,-27.5 519.08,-23.15 534.76,-19.57 548.95,-16.78"/>
<polygon fill="#63b8ff" stroke="#63b8ff" points="445.82,-47.3 438.2,-54.66 448.75,-53.66 445.82,-47.3"/>
</g>
<!-- Node2 -->
<g id="node2" class="node">
<title>Node2</title>
<g id="a_node2"><a xlink:href="interfaceSCR__ScriptedWidgetComponent.html" target="_top" xlink:title=" ">
<polygon fill="white" stroke="#666666" points="327,-74 169,-74 169,-55 327,-55 327,-74"/>
<text text-anchor="middle" x="248" y="-62" font-family="Helvetica,sans-Serif" font-size="10.00">SCR_ScriptedWidgetComponent</text>
</a>
</g>
</g>
<!-- Node2&#45;&gt;Node1 -->
<g id="edge1" class="edge">
<title>Node2&#45;&gt;Node1</title>
<path fill="none" stroke="#63b8ff" d="M337.93,-64.5C346.44,-64.5 354.87,-64.5 362.85,-64.5"/>
<polygon fill="#63b8ff" stroke="#63b8ff" points="338.14,-61 328.14,-64.5 338.14,-68 338.14,-61"/>
</g>
<!-- Node3 -->
<g id="node3" class="node">
<title>Node3</title>
<g id="a_node3"><a xlink:title=" ">
<polygon fill="white" stroke="#666666" points="133,-74 0,-74 0,-55 133,-55 133,-74"/>
<text text-anchor="middle" x="66.5" y="-62" font-family="Helvetica,sans-Serif" font-size="10.00">ScriptedWidgetComponent</text>
</a>
</g>
</g>
<!-- Node3&#45;&gt;Node2 -->
<g id="edge2" class="edge">
<title>Node3&#45;&gt;Node2</title>
<path fill="none" stroke="#63b8ff" d="M144.25,-64.5C152.35,-64.5 160.59,-64.5 168.7,-64.5"/>
<polygon fill="#63b8ff" stroke="#63b8ff" points="144.32,-61 134.32,-64.5 144.32,-68 144.32,-61"/>
</g>
<!-- Node5 -->
<g id="node5" class="node">
<title>Node5</title>
<g id="a_node5"><a xlink:href="interfaceSCR__CampaignMapUIBase.html" target="_top" xlink:title=" ">
<polygon fill="white" stroke="#666666" points="860.5,-148 724.5,-148 724.5,-129 860.5,-129 860.5,-148"/>
<text text-anchor="middle" x="792.5" y="-136" font-family="Helvetica,sans-Serif" font-size="10.00">SCR_CampaignMapUIBase</text>
</a>
</g>
</g>
<!-- Node4&#45;&gt;Node5 -->
<g id="edge4" class="edge">
<title>Node4&#45;&gt;Node5</title>
<path fill="none" stroke="#63b8ff" d="M679.99,-128.26C694.77,-129.62 709.97,-131.01 724.2,-132.32"/>
<polygon fill="#63b8ff" stroke="#63b8ff" points="680.6,-124.71 670.32,-127.28 679.96,-131.68 680.6,-124.71"/>
</g>
<!-- Node6 -->
<g id="node6" class="node">
<title>Node6</title>
<g id="a_node6"><a xlink:href="interfaceSCR__CampaignMapUIService.html" target="_top" xlink:title=" ">
<polygon fill="white" stroke="#666666" points="865,-111 720,-111 720,-92 865,-92 865,-111"/>
<text text-anchor="middle" x="792.5" y="-99" font-family="Helvetica,sans-Serif" font-size="10.00">SCR_CampaignMapUIService</text>
</a>
</g>
</g>
<!-- Node4&#45;&gt;Node6 -->
<g id="edge5" class="edge">
<title>Node4&#45;&gt;Node6</title>
<path fill="none" stroke="#63b8ff" d="M680.26,-112.28C693.41,-111.01 706.87,-109.7 719.69,-108.46"/>
<polygon fill="#63b8ff" stroke="#63b8ff" points="679.94,-108.9 670.32,-113.34 680.61,-115.86 679.94,-108.9"/>
</g>
</g>
</svg>
