<?xml version="1.0" encoding="UTF-8" standalone="no"?>
<!DOCTYPE svg PUBLIC "-//W3C//DTD SVG 1.1//EN"
 "http://www.w3.org/Graphics/SVG/1.1/DTD/svg11.dtd">
<!-- Generated by graphviz version 8.0.2 (20230410.1723)
 -->
<!-- Title: SCR_CampaignBaseTask Pages: 1 -->
<svg width="429pt" height="192pt"
 viewBox="0.00 0.00 429.00 192.00" xmlns="http://www.w3.org/2000/svg" xmlns:xlink="http://www.w3.org/1999/xlink">
<g id="graph0" class="graph" transform="scale(1 1) rotate(0) translate(4 188)">
<title>SCR_CampaignBaseTask</title>
<!-- Node1 -->
<g id="node1" class="node">
<title>Node1</title>
<g id="a_node1"><a xlink:title="This class is meant to be inherited.">
<polygon fill="#999999" stroke="#666666" points="292,-74 163,-74 163,-55 292,-55 292,-74"/>
<text text-anchor="middle" x="227.5" y="-62" font-family="Helvetica,sans-Serif" font-size="10.00">SCR_CampaignBaseTask</text>
</a>
</g>
</g>
<!-- Node4 -->
<g id="node4" class="node">
<title>Node4</title>
<g id="a_node4"><a xlink:href="interfaceSCR__CampaignBuildingTask.html" target="_top" xlink:title=" ">
<polygon fill="white" stroke="#666666" points="141,-19 0,-19 0,0 141,0 141,-19"/>
<text text-anchor="middle" x="70.5" y="-7" font-family="Helvetica,sans-Serif" font-size="10.00">SCR_CampaignBuildingTask</text>
</a>
</g>
</g>
<!-- Node1&#45;&gt;Node4 -->
<g id="edge3" class="edge">
<title>Node1&#45;&gt;Node4</title>
<path fill="none" stroke="#63b8ff" d="M190.8,-51.11C162.05,-41.41 122.75,-28.14 97,-19.45"/>
<polygon fill="#63b8ff" stroke="#63b8ff" points="189.27,-54.63 199.87,-54.51 191.51,-47.99 189.27,-54.63"/>
</g>
<!-- Node5 -->
<g id="node5" class="node">
<title>Node5</title>
<g id="a_node5"><a xlink:href="interfaceSCR__CampaignDefendTask.html" target="_top" xlink:title=" ">
<polygon fill="white" stroke="#666666" points="296,-19 159,-19 159,0 296,0 296,-19"/>
<text text-anchor="middle" x="227.5" y="-7" font-family="Helvetica,sans-Serif" font-size="10.00">SCR_CampaignDefendTask</text>
</a>
</g>
</g>
<!-- Node1&#45;&gt;Node5 -->
<g id="edge4" class="edge">
<title>Node1&#45;&gt;Node5</title>
<path fill="none" stroke="#63b8ff" d="M227.5,-43.93C227.5,-35.53 227.5,-26.13 227.5,-19.44"/>
<polygon fill="#63b8ff" stroke="#63b8ff" points="224,-43.75 227.5,-53.75 231,-43.75 224,-43.75"/>
</g>
<!-- Node6 -->
<g id="node6" class="node">
<title>Node6</title>
<g id="a_node6"><a xlink:href="interfaceSCR__CampaignTask.html" target="_top" xlink:title=" ">
<polygon fill="white" stroke="#666666" points="421,-19 314,-19 314,0 421,0 421,-19"/>
<text text-anchor="middle" x="367.5" y="-7" font-family="Helvetica,sans-Serif" font-size="10.00">SCR_CampaignTask</text>
</a>
</g>
</g>
<!-- Node1&#45;&gt;Node6 -->
<g id="edge5" class="edge">
<title>Node1&#45;&gt;Node6</title>
<path fill="none" stroke="#63b8ff" d="M261.28,-50.71C286.9,-41.01 321.46,-27.93 344.1,-19.36"/>
<polygon fill="#63b8ff" stroke="#63b8ff" points="260.36,-47.7 252.25,-54.51 262.84,-54.24 260.36,-47.7"/>
</g>
<!-- Node2 -->
<g id="node2" class="node">
<title>Node2</title>
<g id="a_node2"><a xlink:href="interfaceSCR__BaseTask.html" target="_top" xlink:title="A base class for tasks.">
<polygon fill="white" stroke="#666666" points="270.5,-129 184.5,-129 184.5,-110 270.5,-110 270.5,-129"/>
<text text-anchor="middle" x="227.5" y="-117" font-family="Helvetica,sans-Serif" font-size="10.00">SCR_BaseTask</text>
</a>
</g>
</g>
<!-- Node2&#45;&gt;Node1 -->
<g id="edge1" class="edge">
<title>Node2&#45;&gt;Node1</title>
<path fill="none" stroke="#63b8ff" d="M227.5,-98.93C227.5,-90.53 227.5,-81.13 227.5,-74.44"/>
<polygon fill="#63b8ff" stroke="#63b8ff" points="224,-98.75 227.5,-108.75 231,-98.75 224,-98.75"/>
</g>
<!-- Node3 -->
<g id="node3" class="node">
<title>Node3</title>
<g id="a_node3"><a xlink:title=" ">
<polygon fill="white" stroke="#666666" points="265.5,-184 189.5,-184 189.5,-165 265.5,-165 265.5,-184"/>
<text text-anchor="middle" x="227.5" y="-172" font-family="Helvetica,sans-Serif" font-size="10.00">GenericEntity</text>
</a>
</g>
</g>
<!-- Node3&#45;&gt;Node2 -->
<g id="edge2" class="edge">
<title>Node3&#45;&gt;Node2</title>
<path fill="none" stroke="#63b8ff" d="M227.5,-153.93C227.5,-145.53 227.5,-136.13 227.5,-129.44"/>
<polygon fill="#63b8ff" stroke="#63b8ff" points="224,-153.75 227.5,-163.75 231,-153.75 224,-153.75"/>
</g>
</g>
</svg>
