<?xml version="1.0" encoding="UTF-8" standalone="no"?>
<!DOCTYPE svg PUBLIC "-//W3C//DTD SVG 1.1//EN"
 "http://www.w3.org/Graphics/SVG/1.1/DTD/svg11.dtd">
<!-- Generated by graphviz version 8.0.2 (20230410.1723)
 -->
<!-- Title: SCR_SubMenuBase Pages: 1 -->
<svg width="907pt" height="678pt"
 viewBox="0.00 0.00 907.00 678.00" xmlns="http://www.w3.org/2000/svg" xmlns:xlink="http://www.w3.org/1999/xlink">
<g id="graph0" class="graph" transform="scale(1 1) rotate(0) translate(4 674)">
<title>SCR_SubMenuBase</title>
<!-- Node1 -->
<g id="node1" class="node">
<title>Node1</title>
<g id="a_node1"><a xlink:title=" ">
<polygon fill="#999999" stroke="#666666" points="469,-376 363,-376 363,-357 469,-357 469,-376"/>
<text text-anchor="middle" x="416" y="-364" font-family="Helvetica,sans-Serif" font-size="10.00">SCR_SubMenuBase</text>
</a>
</g>
</g>
<!-- Node4 -->
<g id="node4" class="node">
<title>Node4</title>
<g id="a_node4"><a xlink:href="interfaceSCR__AddonsExportSubMenuComponent.html" target="_top" xlink:title=" ">
<polygon fill="white" stroke="#666666" points="699,-670 505,-670 505,-651 699,-651 699,-670"/>
<text text-anchor="middle" x="602" y="-658" font-family="Helvetica,sans-Serif" font-size="10.00">SCR_AddonsExportSubMenuComponent</text>
</a>
</g>
</g>
<!-- Node1&#45;&gt;Node4 -->
<g id="edge3" class="edge">
<title>Node1&#45;&gt;Node4</title>
<path fill="none" stroke="#63b8ff" d="M416.97,-387.38C418.1,-439 428.62,-573.38 505,-641.5 509.06,-645.12 513.6,-648.13 518.45,-650.63"/>
<polygon fill="#63b8ff" stroke="#63b8ff" points="420.46,-387.34 416.85,-377.38 413.46,-387.42 420.46,-387.34"/>
</g>
<!-- Node5 -->
<g id="node5" class="node">
<title>Node5</title>
<g id="a_node5"><a xlink:href="interfaceSCR__AddonsPresetsSubMenuComponent.html" target="_top" xlink:title="Component for addons presets submenu behavior.">
<polygon fill="white" stroke="#666666" points="677,-632.5 527,-632.5 527,-602.5 677,-602.5 677,-632.5"/>
<text text-anchor="start" x="535" y="-620.5" font-family="Helvetica,sans-Serif" font-size="10.00">SCR_AddonsPresetsSubMenu</text>
<text text-anchor="middle" x="602" y="-609.5" font-family="Helvetica,sans-Serif" font-size="10.00">Component</text>
</a>
</g>
</g>
<!-- Node1&#45;&gt;Node5 -->
<g id="edge4" class="edge">
<title>Node1&#45;&gt;Node5</title>
<path fill="none" stroke="#63b8ff" d="M418.81,-387.41C423.86,-432.24 442.13,-538.03 505,-593.5 511.31,-599.07 518.73,-603.39 526.59,-606.73"/>
<polygon fill="#63b8ff" stroke="#63b8ff" points="422.2,-387.08 417.72,-377.47 415.23,-387.77 422.2,-387.08"/>
</g>
<!-- Node6 -->
<g id="node6" class="node">
<title>Node6</title>
<g id="a_node6"><a xlink:href="interfaceSCR__CareerProfileOverviewUI.html" target="_top" xlink:title=" ">
<polygon fill="white" stroke="#666666" points="674,-584 530,-584 530,-565 674,-565 674,-584"/>
<text text-anchor="middle" x="602" y="-572" font-family="Helvetica,sans-Serif" font-size="10.00">SCR_CareerProfileOverviewUI</text>
</a>
</g>
</g>
<!-- Node1&#45;&gt;Node6 -->
<g id="edge5" class="edge">
<title>Node1&#45;&gt;Node6</title>
<path fill="none" stroke="#63b8ff" d="M420.2,-386.95C427.52,-426.47 449.36,-513.21 505,-556.5 512.23,-562.12 520.68,-566.17 529.51,-569.07"/>
<polygon fill="#63b8ff" stroke="#63b8ff" points="423.51,-386.57 418.37,-377.31 416.61,-387.75 423.51,-386.57"/>
</g>
<!-- Node7 -->
<g id="node7" class="node">
<title>Node7</title>
<g id="a_node7"><a xlink:href="interfaceSCR__CommunitySubMenu.html" target="_top" xlink:title=" ">
<polygon fill="white" stroke="#666666" points="668.5,-547 535.5,-547 535.5,-528 668.5,-528 668.5,-547"/>
<text text-anchor="middle" x="602" y="-535" font-family="Helvetica,sans-Serif" font-size="10.00">SCR_CommunitySubMenu</text>
</a>
</g>
</g>
<!-- Node1&#45;&gt;Node7 -->
<g id="edge6" class="edge">
<title>Node1&#45;&gt;Node7</title>
<path fill="none" stroke="#63b8ff" d="M422.63,-386.47C433.05,-419.55 458.63,-485.34 505,-518.5 513.91,-524.87 524.43,-529.24 535.18,-532.21"/>
<polygon fill="#63b8ff" stroke="#63b8ff" points="425.79,-385.82 419.57,-377.24 419.08,-387.82 425.79,-385.82"/>
</g>
<!-- Node8 -->
<g id="node8" class="node">
<title>Node8</title>
<g id="a_node8"><a xlink:href="interfaceSCR__ContentBrowser__AddonsSubMenu.html" target="_top" xlink:title=" ">
<polygon fill="white" stroke="#666666" points="657.5,-509.5 546.5,-509.5 546.5,-479.5 657.5,-479.5 657.5,-509.5"/>
<text text-anchor="start" x="554.5" y="-497.5" font-family="Helvetica,sans-Serif" font-size="10.00">SCR_ContentBrowser</text>
<text text-anchor="middle" x="602" y="-486.5" font-family="Helvetica,sans-Serif" font-size="10.00">_AddonsSubMenu</text>
</a>
</g>
</g>
<!-- Node1&#45;&gt;Node8 -->
<g id="edge7" class="edge">
<title>Node1&#45;&gt;Node8</title>
<path fill="none" stroke="#63b8ff" d="M427.93,-385.6C442.46,-409.23 470.37,-448.94 505,-470.5 517.4,-478.22 532.15,-483.45 546.32,-487.01"/>
<polygon fill="#63b8ff" stroke="#63b8ff" points="430.51,-384.09 422.38,-377.29 424.49,-387.67 430.51,-384.09"/>
</g>
<!-- Node9 -->
<g id="node9" class="node">
<title>Node9</title>
<g id="a_node9"><a xlink:href="interfaceSCR__ContentBrowser__ScenarioSubMenuBase.html" target="_top" xlink:title=" ">
<polygon fill="white" stroke="#666666" points="664,-461.5 540,-461.5 540,-431.5 664,-431.5 664,-461.5"/>
<text text-anchor="start" x="548" y="-449.5" font-family="Helvetica,sans-Serif" font-size="10.00">SCR_ContentBrowser</text>
<text text-anchor="middle" x="602" y="-438.5" font-family="Helvetica,sans-Serif" font-size="10.00">_ScenarioSubMenuBase</text>
</a>
</g>
</g>
<!-- Node1&#45;&gt;Node9 -->
<g id="edge8" class="edge">
<title>Node1&#45;&gt;Node9</title>
<path fill="none" stroke="#63b8ff" d="M438.34,-382.86C455.51,-395.32 480.71,-412.06 505,-422.5 515.89,-427.18 527.89,-431.08 539.6,-434.28"/>
<polygon fill="#63b8ff" stroke="#63b8ff" points="440.79,-379.58 430.68,-376.44 436.63,-385.21 440.79,-379.58"/>
</g>
<!-- Node12 -->
<g id="node12" class="node">
<title>Node12</title>
<g id="a_node12"><a xlink:href="interfaceSCR__DownloadManagerListComponent.html" target="_top" xlink:title="Download manager list that can group download entries into various sections.">
<polygon fill="white" stroke="#666666" points="695.5,-413 508.5,-413 508.5,-394 695.5,-394 695.5,-413"/>
<text text-anchor="middle" x="602" y="-401" font-family="Helvetica,sans-Serif" font-size="10.00">SCR_DownloadManagerListComponent</text>
</a>
</g>
</g>
<!-- Node1&#45;&gt;Node12 -->
<g id="edge11" class="edge">
<title>Node1&#45;&gt;Node12</title>
<path fill="none" stroke="#63b8ff" d="M472.34,-378.69C483.16,-381.01 494.43,-383.37 505,-385.5 518.38,-388.2 532.84,-390.98 546.37,-393.52"/>
<polygon fill="#63b8ff" stroke="#63b8ff" points="473.23,-375.09 462.72,-376.4 471.76,-381.93 473.23,-375.09"/>
</g>
<!-- Node13 -->
<g id="node13" class="node">
<title>Node13</title>
<g id="a_node13"><a xlink:href="interfaceSCR__GroupSubMenuBase.html" target="_top" xlink:title=" ">
<polygon fill="white" stroke="#666666" points="668,-376 536,-376 536,-357 668,-357 668,-376"/>
<text text-anchor="middle" x="602" y="-364" font-family="Helvetica,sans-Serif" font-size="10.00">SCR_GroupSubMenuBase</text>
</a>
</g>
</g>
<!-- Node1&#45;&gt;Node13 -->
<g id="edge12" class="edge">
<title>Node1&#45;&gt;Node13</title>
<path fill="none" stroke="#63b8ff" d="M480.13,-366.5C498,-366.5 517.49,-366.5 535.51,-366.5"/>
<polygon fill="#63b8ff" stroke="#63b8ff" points="480.23,-363 470.23,-366.5 480.23,-370 480.23,-363"/>
</g>
<!-- Node16 -->
<g id="node16" class="node">
<title>Node16</title>
<g id="a_node16"><a xlink:href="interfaceSCR__JoinRequestEntry.html" target="_top" xlink:title=" ">
<polygon fill="white" stroke="#666666" points="661.5,-339 542.5,-339 542.5,-320 661.5,-320 661.5,-339"/>
<text text-anchor="middle" x="602" y="-327" font-family="Helvetica,sans-Serif" font-size="10.00">SCR_JoinRequestEntry</text>
</a>
</g>
</g>
<!-- Node1&#45;&gt;Node16 -->
<g id="edge15" class="edge">
<title>Node1&#45;&gt;Node16</title>
<path fill="none" stroke="#63b8ff" d="M472.34,-354.31C483.16,-351.99 494.43,-349.63 505,-347.5 518.38,-344.8 532.84,-342.02 546.37,-339.48"/>
<polygon fill="#63b8ff" stroke="#63b8ff" points="471.76,-351.07 462.72,-356.6 473.23,-357.91 471.76,-351.07"/>
</g>
<!-- Node17 -->
<g id="node17" class="node">
<title>Node17</title>
<g id="a_node17"><a xlink:href="interfaceSCR__NewsSubMenu.html" target="_top" xlink:title=" ">
<polygon fill="white" stroke="#666666" points="655.5,-302 548.5,-302 548.5,-283 655.5,-283 655.5,-302"/>
<text text-anchor="middle" x="602" y="-290" font-family="Helvetica,sans-Serif" font-size="10.00">SCR_NewsSubMenu</text>
</a>
</g>
</g>
<!-- Node1&#45;&gt;Node17 -->
<g id="edge16" class="edge">
<title>Node1&#45;&gt;Node17</title>
<path fill="none" stroke="#63b8ff" d="M437.87,-349.96C454.96,-337.25 480.27,-320.26 505,-310.5 518.56,-305.14 533.85,-301.36 548.17,-298.69"/>
<polygon fill="#63b8ff" stroke="#63b8ff" points="436.11,-347.66 430.28,-356.51 440.36,-353.23 436.11,-347.66"/>
</g>
<!-- Node18 -->
<g id="node18" class="node">
<title>Node18</title>
<g id="a_node18"><a xlink:href="interfaceSCR__RequestToJoinSubmenu.html" target="_top" xlink:title=" ">
<polygon fill="white" stroke="#666666" points="675.5,-265 528.5,-265 528.5,-246 675.5,-246 675.5,-265"/>
<text text-anchor="middle" x="602" y="-253" font-family="Helvetica,sans-Serif" font-size="10.00">SCR_RequestToJoinSubmenu</text>
</a>
</g>
</g>
<!-- Node1&#45;&gt;Node18 -->
<g id="edge17" class="edge">
<title>Node1&#45;&gt;Node18</title>
<path fill="none" stroke="#63b8ff" d="M429.13,-347.85C444.2,-326.29 472,-291.49 505,-273.5 512.15,-269.6 519.99,-266.54 528.01,-264.12"/>
<polygon fill="#63b8ff" stroke="#63b8ff" points="425.84,-345.47 423.13,-355.71 431.63,-349.39 425.84,-345.47"/>
</g>
<!-- Node19 -->
<g id="node19" class="node">
<title>Node19</title>
<g id="a_node19"><a xlink:href="interfaceSCR__ServerHostingModSubMenu.html" target="_top" xlink:title=" ">
<polygon fill="white" stroke="#666666" points="683,-228 521,-228 521,-209 683,-209 683,-228"/>
<text text-anchor="middle" x="602" y="-216" font-family="Helvetica,sans-Serif" font-size="10.00">SCR_ServerHostingModSubMenu</text>
</a>
</g>
</g>
<!-- Node1&#45;&gt;Node19 -->
<g id="edge18" class="edge">
<title>Node1&#45;&gt;Node19</title>
<path fill="none" stroke="#63b8ff" d="M424.62,-346.52C436.85,-317.33 463.76,-263.55 505,-236.5 509.82,-233.34 515.05,-230.7 520.51,-228.5"/>
<polygon fill="#63b8ff" stroke="#63b8ff" points="421,-345.14 420.52,-355.73 427.49,-347.75 421,-345.14"/>
</g>
<!-- Node20 -->
<g id="node20" class="node">
<title>Node20</title>
<g id="a_node20"><a xlink:href="interfaceSCR__ServerHostingSettingsSubMenu.html" target="_top" xlink:title="Wrapper sub menu clas for server hosting setting tab.">
<polygon fill="white" stroke="#666666" points="671,-190.5 533,-190.5 533,-160.5 671,-160.5 671,-190.5"/>
<text text-anchor="start" x="541" y="-178.5" font-family="Helvetica,sans-Serif" font-size="10.00">SCR_ServerHostingSettings</text>
<text text-anchor="middle" x="602" y="-167.5" font-family="Helvetica,sans-Serif" font-size="10.00">SubMenu</text>
</a>
</g>
</g>
<!-- Node1&#45;&gt;Node20 -->
<g id="edge19" class="edge">
<title>Node1&#45;&gt;Node20</title>
<path fill="none" stroke="#63b8ff" d="M421.83,-346.35C431.38,-310.98 456.13,-237.86 505,-199.5 513.11,-193.14 522.69,-188.44 532.61,-184.97"/>
<polygon fill="#63b8ff" stroke="#63b8ff" points="418.25,-345.24 419.16,-355.79 425.03,-346.97 418.25,-345.24"/>
</g>
<!-- Node21 -->
<g id="node21" class="node">
<title>Node21</title>
<g id="a_node21"><a xlink:href="interfaceSCR__SettingsSubMenuBase.html" target="_top" xlink:title=" ">
<polygon fill="white" stroke="#666666" points="673,-142 531,-142 531,-123 673,-123 673,-142"/>
<text text-anchor="middle" x="602" y="-130" font-family="Helvetica,sans-Serif" font-size="10.00">SCR_SettingsSubMenuBase</text>
</a>
</g>
</g>
<!-- Node1&#45;&gt;Node21 -->
<g id="edge20" class="edge">
<title>Node1&#45;&gt;Node21</title>
<path fill="none" stroke="#63b8ff" d="M419.02,-346.16C424.44,-303.04 443.37,-202.24 505,-151.5 512.48,-145.34 521.38,-140.99 530.71,-137.93"/>
<polygon fill="#63b8ff" stroke="#63b8ff" points="415.45,-345.59 417.8,-355.92 422.4,-346.38 415.45,-345.59"/>
</g>
<!-- Node29 -->
<g id="node29" class="node">
<title>Node29</title>
<g id="a_node29"><a xlink:href="interfaceSCR__WorkshopListAddonsSubmenu.html" target="_top" xlink:title=" ">
<polygon fill="white" stroke="#666666" points="690,-105 514,-105 514,-86 690,-86 690,-105"/>
<text text-anchor="middle" x="602" y="-93" font-family="Helvetica,sans-Serif" font-size="10.00">SCR_WorkshopListAddonsSubmenu</text>
</a>
</g>
</g>
<!-- Node1&#45;&gt;Node29 -->
<g id="edge28" class="edge">
<title>Node1&#45;&gt;Node29</title>
<path fill="none" stroke="#63b8ff" d="M417.58,-345.91C420.13,-297.3 433.68,-174.89 505,-113.5 508.73,-110.29 512.84,-107.58 517.21,-105.29"/>
<polygon fill="#63b8ff" stroke="#63b8ff" points="414.05,-345.46 417.14,-355.6 421.05,-345.75 414.05,-345.46"/>
</g>
<!-- Node2 -->
<g id="node2" class="node">
<title>Node2</title>
<g id="a_node2"><a xlink:href="interfaceSCR__ScriptedWidgetComponent.html" target="_top" xlink:title=" ">
<polygon fill="white" stroke="#666666" points="327,-376 169,-376 169,-357 327,-357 327,-376"/>
<text text-anchor="middle" x="248" y="-364" font-family="Helvetica,sans-Serif" font-size="10.00">SCR_ScriptedWidgetComponent</text>
</a>
</g>
</g>
<!-- Node2&#45;&gt;Node1 -->
<g id="edge1" class="edge">
<title>Node2&#45;&gt;Node1</title>
<path fill="none" stroke="#63b8ff" d="M337.93,-366.5C346.44,-366.5 354.87,-366.5 362.85,-366.5"/>
<polygon fill="#63b8ff" stroke="#63b8ff" points="338.14,-363 328.14,-366.5 338.14,-370 338.14,-363"/>
</g>
<!-- Node3 -->
<g id="node3" class="node">
<title>Node3</title>
<g id="a_node3"><a xlink:title=" ">
<polygon fill="white" stroke="#666666" points="133,-376 0,-376 0,-357 133,-357 133,-376"/>
<text text-anchor="middle" x="66.5" y="-364" font-family="Helvetica,sans-Serif" font-size="10.00">ScriptedWidgetComponent</text>
</a>
</g>
</g>
<!-- Node3&#45;&gt;Node2 -->
<g id="edge2" class="edge">
<title>Node3&#45;&gt;Node2</title>
<path fill="none" stroke="#63b8ff" d="M144.25,-366.5C152.35,-366.5 160.59,-366.5 168.7,-366.5"/>
<polygon fill="#63b8ff" stroke="#63b8ff" points="144.32,-363 134.32,-366.5 144.32,-370 144.32,-363"/>
</g>
<!-- Node10 -->
<g id="node10" class="node">
<title>Node10</title>
<g id="a_node10"><a xlink:href="interfaceSCR__ContentBrowserDetails__OverviewSubMenu.html" target="_top" xlink:title=" ">
<polygon fill="white" stroke="#666666" points="887.5,-509.5 746.5,-509.5 746.5,-479.5 887.5,-479.5 887.5,-509.5"/>
<text text-anchor="start" x="754.5" y="-497.5" font-family="Helvetica,sans-Serif" font-size="10.00">SCR_ContentBrowserDetails</text>
<text text-anchor="middle" x="817" y="-486.5" font-family="Helvetica,sans-Serif" font-size="10.00">_OverviewSubMenu</text>
</a>
</g>
</g>
<!-- Node9&#45;&gt;Node10 -->
<g id="edge9" class="edge">
<title>Node9&#45;&gt;Node10</title>
<path fill="none" stroke="#63b8ff" d="M674.87,-462.7C698.24,-467.96 724.12,-473.79 747.26,-479.01"/>
<polygon fill="#63b8ff" stroke="#63b8ff" points="675.85,-459.1 665.32,-460.32 674.31,-465.93 675.85,-459.1"/>
</g>
<!-- Node11 -->
<g id="node11" class="node">
<title>Node11</title>
<g id="a_node11"><a xlink:href="interfaceSCR__ContentBrowser__ScenarioSubMenu.html" target="_top" xlink:title=" ">
<polygon fill="white" stroke="#666666" points="872.5,-461.5 761.5,-461.5 761.5,-431.5 872.5,-431.5 872.5,-461.5"/>
<text text-anchor="start" x="769.5" y="-449.5" font-family="Helvetica,sans-Serif" font-size="10.00">SCR_ContentBrowser</text>
<text text-anchor="middle" x="817" y="-438.5" font-family="Helvetica,sans-Serif" font-size="10.00">_ScenarioSubMenu</text>
</a>
</g>
</g>
<!-- Node9&#45;&gt;Node11 -->
<g id="edge10" class="edge">
<title>Node9&#45;&gt;Node11</title>
<path fill="none" stroke="#63b8ff" d="M675.31,-446.5C703.43,-446.5 735.11,-446.5 761.28,-446.5"/>
<polygon fill="#63b8ff" stroke="#63b8ff" points="675.32,-443 665.32,-446.5 675.32,-450 675.32,-443"/>
</g>
<!-- Node14 -->
<g id="node14" class="node">
<title>Node14</title>
<g id="a_node14"><a xlink:href="interfaceSCR__GroupSubMenu.html" target="_top" xlink:title=" ">
<polygon fill="white" stroke="#666666" points="872,-395 762,-395 762,-376 872,-376 872,-395"/>
<text text-anchor="middle" x="817" y="-383" font-family="Helvetica,sans-Serif" font-size="10.00">SCR_GroupSubMenu</text>
</a>
</g>
</g>
<!-- Node13&#45;&gt;Node14 -->
<g id="edge13" class="edge">
<title>Node13&#45;&gt;Node14</title>
<path fill="none" stroke="#63b8ff" d="M679.04,-373.28C706.29,-375.71 736.45,-378.4 761.52,-380.64"/>
<polygon fill="#63b8ff" stroke="#63b8ff" points="679.63,-369.73 669.35,-372.33 679,-376.7 679.63,-369.73"/>
</g>
<!-- Node15 -->
<g id="node15" class="node">
<title>Node15</title>
<g id="a_node15"><a xlink:href="interfaceSCR__GroupSubMenuPlayerlist.html" target="_top" xlink:title=" ">
<polygon fill="white" stroke="#666666" points="892,-358 742,-358 742,-339 892,-339 892,-358"/>
<text text-anchor="middle" x="817" y="-346" font-family="Helvetica,sans-Serif" font-size="10.00">SCR_GroupSubMenuPlayerlist</text>
</a>
</g>
</g>
<!-- Node13&#45;&gt;Node15 -->
<g id="edge14" class="edge">
<title>Node13&#45;&gt;Node15</title>
<path fill="none" stroke="#63b8ff" d="M679.17,-360.06C699.55,-358.34 721.56,-356.48 741.83,-354.77"/>
<polygon fill="#63b8ff" stroke="#63b8ff" points="679.02,-356.65 669.35,-360.98 679.61,-363.62 679.02,-356.65"/>
</g>
<!-- Node22 -->
<g id="node22" class="node">
<title>Node22</title>
<g id="a_node22"><a xlink:href="interfaceSCR__AudioSettingsSubMenu.html" target="_top" xlink:title=" ">
<polygon fill="white" stroke="#666666" points="889,-253 745,-253 745,-234 889,-234 889,-253"/>
<text text-anchor="middle" x="817" y="-241" font-family="Helvetica,sans-Serif" font-size="10.00">SCR_AudioSettingsSubMenu</text>
</a>
</g>
</g>
<!-- Node21&#45;&gt;Node22 -->
<g id="edge21" class="edge">
<title>Node21&#45;&gt;Node22</title>
<path fill="none" stroke="#63b8ff" d="M683.56,-142.44C689.06,-144.9 694.28,-147.88 699,-151.5 727.71,-173.51 706.68,-201.99 735,-224.5 739.64,-228.18 744.87,-231.18 750.38,-233.6"/>
<polygon fill="#63b8ff" stroke="#63b8ff" points="684.99,-138.86 674.4,-138.57 682.5,-145.4 684.99,-138.86"/>
</g>
<!-- Node23 -->
<g id="node23" class="node">
<title>Node23</title>
<g id="a_node23"><a xlink:href="interfaceSCR__EditorSettingsSubMenu.html" target="_top" xlink:title=" ">
<polygon fill="white" stroke="#666666" points="889.5,-216 744.5,-216 744.5,-197 889.5,-197 889.5,-216"/>
<text text-anchor="middle" x="817" y="-204" font-family="Helvetica,sans-Serif" font-size="10.00">SCR_EditorSettingsSubMenu</text>
</a>
</g>
</g>
<!-- Node21&#45;&gt;Node23 -->
<g id="edge22" class="edge">
<title>Node21&#45;&gt;Node23</title>
<path fill="none" stroke="#63b8ff" d="M683.71,-144.75C689.01,-146.68 694.16,-148.92 699,-151.5 718.96,-162.16 715.23,-176.5 735,-187.5 741.69,-191.22 749.08,-194.22 756.6,-196.63"/>
<polygon fill="#63b8ff" stroke="#63b8ff" points="684.97,-141.15 674.38,-141.39 682.81,-147.81 684.97,-141.15"/>
</g>
<!-- Node24 -->
<g id="node24" class="node">
<title>Node24</title>
<g id="a_node24"><a xlink:href="interfaceSCR__GameplaySettingsSubMenu.html" target="_top" xlink:title=" ">
<polygon fill="white" stroke="#666666" points="899,-179 735,-179 735,-160 899,-160 899,-179"/>
<text text-anchor="middle" x="817" y="-167" font-family="Helvetica,sans-Serif" font-size="10.00">SCR_GameplaySettingsSubMenu</text>
</a>
</g>
</g>
<!-- Node21&#45;&gt;Node24 -->
<g id="edge23" class="edge">
<title>Node21&#45;&gt;Node24</title>
<path fill="none" stroke="#63b8ff" d="M670.95,-144.3C699.16,-149.2 731.54,-154.83 758.54,-159.52"/>
<polygon fill="#63b8ff" stroke="#63b8ff" points="671.81,-140.73 661.36,-142.46 670.61,-147.62 671.81,-140.73"/>
</g>
<!-- Node25 -->
<g id="node25" class="node">
<title>Node25</title>
<g id="a_node25"><a xlink:href="interfaceSCR__InterfaceSettingsSubMenu.html" target="_top" xlink:title=" ">
<polygon fill="white" stroke="#666666" points="895,-142 739,-142 739,-123 895,-123 895,-142"/>
<text text-anchor="middle" x="817" y="-130" font-family="Helvetica,sans-Serif" font-size="10.00">SCR_InterfaceSettingsSubMenu</text>
</a>
</g>
</g>
<!-- Node21&#45;&gt;Node25 -->
<g id="edge24" class="edge">
<title>Node21&#45;&gt;Node25</title>
<path fill="none" stroke="#63b8ff" d="M684.31,-132.5C702.18,-132.5 721.06,-132.5 738.76,-132.5"/>
<polygon fill="#63b8ff" stroke="#63b8ff" points="684.33,-129 674.33,-132.5 684.33,-136 684.33,-129"/>
</g>
<!-- Node26 -->
<g id="node26" class="node">
<title>Node26</title>
<g id="a_node26"><a xlink:href="interfaceSCR__KeybindSetting.html" target="_top" xlink:title=" ">
<polygon fill="white" stroke="#666666" points="871,-105 763,-105 763,-86 871,-86 871,-105"/>
<text text-anchor="middle" x="817" y="-93" font-family="Helvetica,sans-Serif" font-size="10.00">SCR_KeybindSetting</text>
</a>
</g>
</g>
<!-- Node21&#45;&gt;Node26 -->
<g id="edge25" class="edge">
<title>Node21&#45;&gt;Node26</title>
<path fill="none" stroke="#63b8ff" d="M671.04,-120.68C700.64,-115.54 734.83,-109.6 762.56,-104.78"/>
<polygon fill="#63b8ff" stroke="#63b8ff" points="670.61,-117.38 661.36,-122.54 671.81,-124.27 670.61,-117.38"/>
</g>
<!-- Node27 -->
<g id="node27" class="node">
<title>Node27</title>
<g id="a_node27"><a xlink:href="interfaceSCR__VideoSettingsConsoleSubMenu.html" target="_top" xlink:title=" ">
<polygon fill="white" stroke="#666666" points="886,-67.5 748,-67.5 748,-37.5 886,-37.5 886,-67.5"/>
<text text-anchor="start" x="756" y="-55.5" font-family="Helvetica,sans-Serif" font-size="10.00">SCR_VideoSettingsConsole</text>
<text text-anchor="middle" x="817" y="-44.5" font-family="Helvetica,sans-Serif" font-size="10.00">SubMenu</text>
</a>
</g>
</g>
<!-- Node21&#45;&gt;Node27 -->
<g id="edge26" class="edge">
<title>Node21&#45;&gt;Node27</title>
<path fill="none" stroke="#63b8ff" d="M683.75,-120.33C689.04,-118.38 694.18,-116.12 699,-113.5 719.17,-102.56 715.36,-88.37 735,-76.5 740.4,-73.24 746.27,-70.39 752.3,-67.92"/>
<polygon fill="#63b8ff" stroke="#63b8ff" points="682.84,-117.27 674.43,-123.71 685.02,-123.92 682.84,-117.27"/>
</g>
<!-- Node28 -->
<g id="node28" class="node">
<title>Node28</title>
<g id="a_node28"><a xlink:href="interfaceSCR__VideoSettingsSubMenu.html" target="_top" xlink:title=" ">
<polygon fill="white" stroke="#666666" points="889,-19 745,-19 745,0 889,0 889,-19"/>
<text text-anchor="middle" x="817" y="-7" font-family="Helvetica,sans-Serif" font-size="10.00">SCR_VideoSettingsSubMenu</text>
</a>
</g>
</g>
<!-- Node21&#45;&gt;Node28 -->
<g id="edge27" class="edge">
<title>Node21&#45;&gt;Node28</title>
<path fill="none" stroke="#63b8ff" d="M683.08,-123.18C688.79,-120.6 694.19,-117.41 699,-113.5 730.83,-87.61 703.63,-54.94 735,-28.5 739.31,-24.87 744.18,-21.9 749.35,-19.49"/>
<polygon fill="#63b8ff" stroke="#63b8ff" points="682.29,-120.12 674.22,-126.98 684.81,-126.65 682.29,-120.12"/>
</g>
</g>
</svg>
