<?xml version="1.0" encoding="UTF-8" standalone="no"?>
<!DOCTYPE svg PUBLIC "-//W3C//DTD SVG 1.1//EN"
 "http://www.w3.org/Graphics/SVG/1.1/DTD/svg11.dtd">
<!-- Generated by graphviz version 8.0.2 (20230410.1723)
 -->
<!-- Title: HitZoneContainerComponent Pages: 1 -->
<svg width="1417pt" height="313pt"
 viewBox="0.00 0.00 1417.00 313.00" xmlns="http://www.w3.org/2000/svg" xmlns:xlink="http://www.w3.org/1999/xlink">
<g id="graph0" class="graph" transform="scale(1 1) rotate(0) translate(4 309)">
<title>HitZoneContainerComponent</title>
<!-- Node1 -->
<g id="node1" class="node">
<title>Node1</title>
<g id="a_node1"><a xlink:title=" ">
<polygon fill="#999999" stroke="#666666" points="404,-171.5 264,-171.5 264,-152.5 404,-152.5 404,-171.5"/>
<text text-anchor="middle" x="334" y="-159.5" font-family="Helvetica,sans-Serif" font-size="10.00">HitZoneContainerComponent</text>
</a>
</g>
</g>
<!-- Node4 -->
<g id="node4" class="node">
<title>Node4</title>
<g id="a_node4"><a xlink:href="interfaceDamageManagerComponent.html" target="_top" xlink:title=" ">
<polygon fill="white" stroke="#666666" points="580,-171.5 440,-171.5 440,-152.5 580,-152.5 580,-171.5"/>
<text text-anchor="middle" x="510" y="-159.5" font-family="Helvetica,sans-Serif" font-size="10.00">DamageManagerComponent</text>
</a>
</g>
</g>
<!-- Node1&#45;&gt;Node4 -->
<g id="edge3" class="edge">
<title>Node1&#45;&gt;Node4</title>
<path fill="none" stroke="#63b8ff" d="M415.02,-162C423.26,-162 431.58,-162 439.68,-162"/>
<polygon fill="#63b8ff" stroke="#63b8ff" points="415.27,-158.5 405.27,-162 415.27,-165.5 415.27,-158.5"/>
</g>
<!-- Node2 -->
<g id="node2" class="node">
<title>Node2</title>
<g id="a_node2"><a xlink:href="interfaceGameComponent.html" target="_top" xlink:title=" ">
<polygon fill="white" stroke="#666666" points="228,-171.5 136,-171.5 136,-152.5 228,-152.5 228,-171.5"/>
<text text-anchor="middle" x="182" y="-159.5" font-family="Helvetica,sans-Serif" font-size="10.00">GameComponent</text>
</a>
</g>
</g>
<!-- Node2&#45;&gt;Node1 -->
<g id="edge1" class="edge">
<title>Node2&#45;&gt;Node1</title>
<path fill="none" stroke="#63b8ff" d="M239.38,-162C247.3,-162 255.53,-162 263.66,-162"/>
<polygon fill="#63b8ff" stroke="#63b8ff" points="239.41,-158.5 229.41,-162 239.41,-165.5 239.41,-158.5"/>
</g>
<!-- Node3 -->
<g id="node3" class="node">
<title>Node3</title>
<g id="a_node3"><a xlink:title=" ">
<polygon fill="white" stroke="#666666" points="100,-171.5 0,-171.5 0,-152.5 100,-152.5 100,-171.5"/>
<text text-anchor="middle" x="50" y="-159.5" font-family="Helvetica,sans-Serif" font-size="10.00">GenericComponent</text>
</a>
</g>
</g>
<!-- Node3&#45;&gt;Node2 -->
<g id="edge2" class="edge">
<title>Node3&#45;&gt;Node2</title>
<path fill="none" stroke="#63b8ff" d="M110.95,-162C119.25,-162 127.66,-162 135.64,-162"/>
<polygon fill="#63b8ff" stroke="#63b8ff" points="111.15,-158.5 101.15,-162 111.15,-165.5 111.15,-158.5"/>
</g>
<!-- Node5 -->
<g id="node5" class="node">
<title>Node5</title>
<g id="a_node5"><a xlink:href="interfaceSCR__DamageManagerComponent.html" target="_top" xlink:title=" ">
<polygon fill="white" stroke="#666666" points="781,-171.5 616,-171.5 616,-152.5 781,-152.5 781,-171.5"/>
<text text-anchor="middle" x="698.5" y="-159.5" font-family="Helvetica,sans-Serif" font-size="10.00">SCR_DamageManagerComponent</text>
</a>
</g>
</g>
<!-- Node4&#45;&gt;Node5 -->
<g id="edge4" class="edge">
<title>Node4&#45;&gt;Node5</title>
<path fill="none" stroke="#63b8ff" d="M591.35,-162C599.43,-162 607.63,-162 615.72,-162"/>
<polygon fill="#63b8ff" stroke="#63b8ff" points="591.45,-158.5 581.45,-162 591.45,-165.5 591.45,-158.5"/>
</g>
<!-- Node6 -->
<g id="node6" class="node">
<title>Node6</title>
<g id="a_node6"><a xlink:href="interfaceExtendedDamageManagerComponent.html" target="_top" xlink:title=" ">
<polygon fill="white" stroke="#666666" points="1003,-299.5 822,-299.5 822,-280.5 1003,-280.5 1003,-299.5"/>
<text text-anchor="middle" x="912.5" y="-287.5" font-family="Helvetica,sans-Serif" font-size="10.00">ExtendedDamageManagerComponent</text>
</a>
</g>
</g>
<!-- Node5&#45;&gt;Node6 -->
<g id="edge5" class="edge">
<title>Node5&#45;&gt;Node6</title>
<path fill="none" stroke="#63b8ff" d="M713.45,-180.41C733.47,-205.41 772.82,-249.54 817,-272 823.4,-275.25 830.32,-277.92 837.4,-280.11"/>
<polygon fill="#63b8ff" stroke="#63b8ff" points="715.67,-178.57 706.76,-172.85 710.16,-182.89 715.67,-178.57"/>
</g>
<!-- Node9 -->
<g id="node9" class="node">
<title>Node9</title>
<g id="a_node9"><a xlink:href="interfaceSCR__ArmorDamageManagerComponent.html" target="_top" xlink:title=" ">
<polygon fill="white" stroke="#666666" points="1008,-262.5 817,-262.5 817,-243.5 1008,-243.5 1008,-262.5"/>
<text text-anchor="middle" x="912.5" y="-250.5" font-family="Helvetica,sans-Serif" font-size="10.00">SCR_ArmorDamageManagerComponent</text>
</a>
</g>
</g>
<!-- Node5&#45;&gt;Node9 -->
<g id="edge8" class="edge">
<title>Node5&#45;&gt;Node9</title>
<path fill="none" stroke="#63b8ff" d="M720.85,-178.3C743.51,-194.81 780.95,-219.85 817,-234 826.27,-237.64 836.33,-240.61 846.32,-243.03"/>
<polygon fill="#63b8ff" stroke="#63b8ff" points="723.21,-174.95 713.09,-171.81 719.04,-180.58 723.21,-174.95"/>
</g>
<!-- Node10 -->
<g id="node10" class="node">
<title>Node10</title>
<g id="a_node10"><a xlink:href="interfaceSCR__DestructibleBuildingComponent.html" target="_top" xlink:title=" ">
<polygon fill="white" stroke="#666666" points="976.5,-225 848.5,-225 848.5,-195 976.5,-195 976.5,-225"/>
<text text-anchor="start" x="856.5" y="-213" font-family="Helvetica,sans-Serif" font-size="10.00">SCR_DestructibleBuilding</text>
<text text-anchor="middle" x="912.5" y="-202" font-family="Helvetica,sans-Serif" font-size="10.00">Component</text>
</a>
</g>
</g>
<!-- Node5&#45;&gt;Node10 -->
<g id="edge9" class="edge">
<title>Node5&#45;&gt;Node10</title>
<path fill="none" stroke="#63b8ff" d="M754.11,-174.36C782.9,-180.88 818.36,-188.91 848.33,-195.7"/>
<polygon fill="#63b8ff" stroke="#63b8ff" points="754.95,-170.74 744.43,-171.95 753.41,-177.57 754.95,-170.74"/>
</g>
<!-- Node11 -->
<g id="node11" class="node">
<title>Node11</title>
<g id="a_node11"><a xlink:href="interfaceSCR__DestructionDamageManagerComponent.html" target="_top" xlink:title="Base destruction component, destruction types extend from this.">
<polygon fill="white" stroke="#666666" points="995,-177 830,-177 830,-147 995,-147 995,-177"/>
<text text-anchor="start" x="838" y="-165" font-family="Helvetica,sans-Serif" font-size="10.00">SCR_DestructionDamageManager</text>
<text text-anchor="middle" x="912.5" y="-154" font-family="Helvetica,sans-Serif" font-size="10.00">Component</text>
</a>
</g>
</g>
<!-- Node5&#45;&gt;Node11 -->
<g id="edge10" class="edge">
<title>Node5&#45;&gt;Node11</title>
<path fill="none" stroke="#63b8ff" d="M792.33,-162C804.8,-162 817.5,-162 829.75,-162"/>
<polygon fill="#63b8ff" stroke="#63b8ff" points="792.46,-158.5 782.46,-162 792.46,-165.5 792.46,-158.5"/>
</g>
<!-- Node15 -->
<g id="node15" class="node">
<title>Node15</title>
<g id="a_node15"><a xlink:href="interfaceSCR__MineDamageManager.html" target="_top" xlink:title=" ">
<polygon fill="white" stroke="#666666" points="981,-128.5 844,-128.5 844,-109.5 981,-109.5 981,-128.5"/>
<text text-anchor="middle" x="912.5" y="-116.5" font-family="Helvetica,sans-Serif" font-size="10.00">SCR_MineDamageManager</text>
</a>
</g>
</g>
<!-- Node5&#45;&gt;Node15 -->
<g id="edge14" class="edge">
<title>Node5&#45;&gt;Node15</title>
<path fill="none" stroke="#63b8ff" d="M758.79,-149.85C777.42,-146.05 798.07,-141.84 817,-138 831.6,-135.04 847.47,-131.84 861.96,-128.93"/>
<polygon fill="#63b8ff" stroke="#63b8ff" points="758.18,-146.61 749.09,-152.04 759.58,-153.47 758.18,-146.61"/>
</g>
<!-- Node16 -->
<g id="node16" class="node">
<title>Node16</title>
<g id="a_node16"><a xlink:href="interfaceSCR__RotorDamageManagerComponent.html" target="_top" xlink:title=" ">
<polygon fill="white" stroke="#666666" points="1006.5,-91.5 818.5,-91.5 818.5,-72.5 1006.5,-72.5 1006.5,-91.5"/>
<text text-anchor="middle" x="912.5" y="-79.5" font-family="Helvetica,sans-Serif" font-size="10.00">SCR_RotorDamageManagerComponent</text>
</a>
</g>
</g>
<!-- Node5&#45;&gt;Node16 -->
<g id="edge15" class="edge">
<title>Node5&#45;&gt;Node16</title>
<path fill="none" stroke="#63b8ff" d="M723.85,-146.39C746.95,-132.25 783.1,-111.87 817,-100 826.06,-96.83 835.82,-94.17 845.51,-91.96"/>
<polygon fill="#63b8ff" stroke="#63b8ff" points="722.43,-143.77 715.79,-152.02 726.13,-149.71 722.43,-143.77"/>
</g>
<!-- Node17 -->
<g id="node17" class="node">
<title>Node17</title>
<g id="a_node17"><a xlink:href="interfaceSCR__VehicleDamageManagerComponent.html" target="_top" xlink:title=" ">
<polygon fill="white" stroke="#666666" points="986.5,-54 838.5,-54 838.5,-24 986.5,-24 986.5,-54"/>
<text text-anchor="start" x="846.5" y="-42" font-family="Helvetica,sans-Serif" font-size="10.00">SCR_VehicleDamageManager</text>
<text text-anchor="middle" x="912.5" y="-31" font-family="Helvetica,sans-Serif" font-size="10.00">Component</text>
</a>
</g>
</g>
<!-- Node5&#45;&gt;Node17 -->
<g id="edge16" class="edge">
<title>Node5&#45;&gt;Node17</title>
<path fill="none" stroke="#63b8ff" d="M715.59,-144.19C736.71,-121.9 775.94,-84.09 817,-63 823.63,-59.6 830.76,-56.66 838.05,-54.12"/>
<polygon fill="#63b8ff" stroke="#63b8ff" points="713.41,-141.46 709.17,-151.17 718.54,-146.23 713.41,-141.46"/>
</g>
<!-- Node7 -->
<g id="node7" class="node">
<title>Node7</title>
<g id="a_node7"><a xlink:href="interfaceSCR__ExtendedDamageManagerComponent.html" target="_top" xlink:title=" ">
<polygon fill="white" stroke="#666666" points="1208,-305 1051,-305 1051,-275 1208,-275 1208,-305"/>
<text text-anchor="start" x="1059" y="-293" font-family="Helvetica,sans-Serif" font-size="10.00">SCR_ExtendedDamageManager</text>
<text text-anchor="middle" x="1129.5" y="-282" font-family="Helvetica,sans-Serif" font-size="10.00">Component</text>
</a>
</g>
</g>
<!-- Node6&#45;&gt;Node7 -->
<g id="edge6" class="edge">
<title>Node6&#45;&gt;Node7</title>
<path fill="none" stroke="#63b8ff" d="M1014.13,-290C1026.36,-290 1038.71,-290 1050.54,-290"/>
<polygon fill="#63b8ff" stroke="#63b8ff" points="1014.43,-286.5 1004.43,-290 1014.43,-293.5 1014.43,-286.5"/>
</g>
<!-- Node8 -->
<g id="node8" class="node">
<title>Node8</title>
<g id="a_node8"><a xlink:href="interfaceSCR__CharacterDamageManagerComponent.html" target="_top" xlink:title=" ">
<polygon fill="white" stroke="#666666" points="1409,-305 1251,-305 1251,-275 1409,-275 1409,-305"/>
<text text-anchor="start" x="1259" y="-293" font-family="Helvetica,sans-Serif" font-size="10.00">SCR_CharacterDamageManager</text>
<text text-anchor="middle" x="1330" y="-282" font-family="Helvetica,sans-Serif" font-size="10.00">Component</text>
</a>
</g>
</g>
<!-- Node7&#45;&gt;Node8 -->
<g id="edge7" class="edge">
<title>Node7&#45;&gt;Node8</title>
<path fill="none" stroke="#63b8ff" d="M1219.23,-290C1229.72,-290 1240.36,-290 1250.69,-290"/>
<polygon fill="#63b8ff" stroke="#63b8ff" points="1219.38,-286.5 1209.38,-290 1219.38,-293.5 1219.38,-286.5"/>
</g>
<!-- Node12 -->
<g id="node12" class="node">
<title>Node12</title>
<g id="a_node12"><a xlink:href="interfaceSCR__DestructionFractalComponent.html" target="_top" xlink:title="Fractal destruction component. For objects that should shatter/splinter etc.">
<polygon fill="white" stroke="#666666" points="1215,-193.5 1044,-193.5 1044,-174.5 1215,-174.5 1215,-193.5"/>
<text text-anchor="middle" x="1129.5" y="-181.5" font-family="Helvetica,sans-Serif" font-size="10.00">SCR_DestructionFractalComponent</text>
</a>
</g>
</g>
<!-- Node11&#45;&gt;Node12 -->
<g id="edge11" class="edge">
<title>Node11&#45;&gt;Node12</title>
<path fill="none" stroke="#63b8ff" d="M1006.23,-171.49C1018.65,-172.76 1031.34,-174.06 1043.62,-175.31"/>
<polygon fill="#63b8ff" stroke="#63b8ff" points="1006.7,-167.92 996.4,-170.38 1005.99,-174.88 1006.7,-167.92"/>
</g>
<!-- Node13 -->
<g id="node13" class="node">
<title>Node13</title>
<g id="a_node13"><a xlink:href="interfaceSCR__DestructionMultiPhaseComponent.html" target="_top" xlink:title="Multi&#45;Phase destruction component, for objects that go through several destruction states.">
<polygon fill="white" stroke="#666666" points="1199.5,-156 1059.5,-156 1059.5,-126 1199.5,-126 1199.5,-156"/>
<text text-anchor="start" x="1067.5" y="-144" font-family="Helvetica,sans-Serif" font-size="10.00">SCR_DestructionMultiPhase</text>
<text text-anchor="middle" x="1129.5" y="-133" font-family="Helvetica,sans-Serif" font-size="10.00">Component</text>
</a>
</g>
</g>
<!-- Node11&#45;&gt;Node13 -->
<g id="edge12" class="edge">
<title>Node11&#45;&gt;Node13</title>
<path fill="none" stroke="#63b8ff" d="M1006.33,-152.93C1024.03,-151.2 1042.28,-149.42 1059.1,-147.78"/>
<polygon fill="#63b8ff" stroke="#63b8ff" points="1006.01,-149.55 996.4,-154 1006.69,-156.51 1006.01,-149.55"/>
</g>
<!-- Node14 -->
<g id="node14" class="node">
<title>Node14</title>
<g id="a_node14"><a xlink:href="interfaceSCR__DestructionTireComponent.html" target="_top" xlink:title="Tire destruction component, for destruction and deformation of tires.">
<polygon fill="white" stroke="#666666" points="1408.5,-150.5 1251.5,-150.5 1251.5,-131.5 1408.5,-131.5 1408.5,-150.5"/>
<text text-anchor="middle" x="1330" y="-138.5" font-family="Helvetica,sans-Serif" font-size="10.00">SCR_DestructionTireComponent</text>
</a>
</g>
</g>
<!-- Node13&#45;&gt;Node14 -->
<g id="edge13" class="edge">
<title>Node13&#45;&gt;Node14</title>
<path fill="none" stroke="#63b8ff" d="M1210.54,-141C1223.93,-141 1237.8,-141 1251.14,-141"/>
<polygon fill="#63b8ff" stroke="#63b8ff" points="1210.93,-137.5 1200.93,-141 1210.93,-144.5 1210.93,-137.5"/>
</g>
<!-- Node18 -->
<g id="node18" class="node">
<title>Node18</title>
<g id="a_node18"><a xlink:href="interfaceSCR__HelicopterDamageManagerComponent.html" target="_top" xlink:title=" ">
<polygon fill="white" stroke="#666666" points="1209,-78 1050,-78 1050,-48 1209,-48 1209,-78"/>
<text text-anchor="start" x="1058" y="-66" font-family="Helvetica,sans-Serif" font-size="10.00">SCR_HelicopterDamageManager</text>
<text text-anchor="middle" x="1129.5" y="-55" font-family="Helvetica,sans-Serif" font-size="10.00">Component</text>
</a>
</g>
</g>
<!-- Node17&#45;&gt;Node18 -->
<g id="edge17" class="edge">
<title>Node17&#45;&gt;Node18</title>
<path fill="none" stroke="#63b8ff" d="M997.44,-48.37C1014.6,-50.29 1032.59,-52.29 1049.56,-54.19"/>
<polygon fill="#63b8ff" stroke="#63b8ff" points="998.22,-44.82 987.89,-47.19 997.44,-51.78 998.22,-44.82"/>
</g>
<!-- Node19 -->
<g id="node19" class="node">
<title>Node19</title>
<g id="a_node19"><a xlink:href="interfaceSCR__WheeledDamageManagerComponent.html" target="_top" xlink:title=" ">
<polygon fill="white" stroke="#666666" points="1206.5,-30 1052.5,-30 1052.5,0 1206.5,0 1206.5,-30"/>
<text text-anchor="start" x="1060.5" y="-18" font-family="Helvetica,sans-Serif" font-size="10.00">SCR_WheeledDamageManager</text>
<text text-anchor="middle" x="1129.5" y="-7" font-family="Helvetica,sans-Serif" font-size="10.00">Component</text>
</a>
</g>
</g>
<!-- Node17&#45;&gt;Node19 -->
<g id="edge18" class="edge">
<title>Node17&#45;&gt;Node19</title>
<path fill="none" stroke="#63b8ff" d="M997.64,-29.61C1015.61,-27.6 1034.49,-25.49 1052.14,-23.52"/>
<polygon fill="#63b8ff" stroke="#63b8ff" points="997.44,-26.22 987.89,-30.81 998.22,-33.18 997.44,-26.22"/>
</g>
</g>
</svg>
