<?xml version="1.0" encoding="UTF-8" standalone="no"?>
<!DOCTYPE svg PUBLIC "-//W3C//DTD SVG 1.1//EN"
 "http://www.w3.org/Graphics/SVG/1.1/DTD/svg11.dtd">
<!-- Generated by graphviz version 8.0.2 (20230410.1723)
 -->
<!-- Title: SCR_ResourceSystemSubscriptionHandle&lt; Class OWNER_TYPE &gt; Pages: 1 -->
<svg width="314pt" height="104pt"
 viewBox="0.00 0.00 313.50 104.00" xmlns="http://www.w3.org/2000/svg" xmlns:xlink="http://www.w3.org/1999/xlink">
<g id="graph0" class="graph" transform="scale(1 1) rotate(0) translate(4 100)">
<title>SCR_ResourceSystemSubscriptionHandle&lt; Class OWNER_TYPE &gt;</title>
<!-- Node1 -->
<g id="node1" class="node">
<title>Node1</title>
<g id="a_node1"><a xlink:title=" ">
<polygon fill="#999999" stroke="#666666" points="224.5,-30 53.5,-30 53.5,0 224.5,0 224.5,-30"/>
<text text-anchor="start" x="61.5" y="-18" font-family="Helvetica,sans-Serif" font-size="10.00">SCR_ResourceSystemSubscription</text>
<text text-anchor="middle" x="139" y="-7" font-family="Helvetica,sans-Serif" font-size="10.00">Handle&lt; Class OWNER_TYPE &gt;</text>
</a>
</g>
</g>
<!-- Node2 -->
<g id="node2" class="node">
<title>Node2</title>
<g id="a_node2"><a xlink:title=" ">
<polygon fill="white" stroke="#666666" points="116,-90.5 0,-90.5 0,-71.5 116,-71.5 116,-90.5"/>
<text text-anchor="middle" x="58" y="-78.5" font-family="Helvetica,sans-Serif" font-size="10.00">ScriptComponentClass</text>
</a>
</g>
</g>
<!-- Node2&#45;&gt;Node1 -->
<g id="edge1" class="edge">
<title>Node2&#45;&gt;Node1</title>
<path fill="none" stroke="#63b8ff" d="M77.59,-64.52C90.7,-54.16 107.84,-40.62 120.68,-30.48"/>
<polygon fill="#63b8ff" stroke="#63b8ff" points="75.94,-62.16 70.26,-71.1 80.28,-67.65 75.94,-62.16"/>
</g>
<!-- Node3 -->
<g id="node3" class="node">
<title>Node3</title>
<g id="a_node3"><a xlink:href="interfaceSCR__ResourceSystemSubscriptionHandleBase.html" target="_top" xlink:title=" ">
<polygon fill="white" stroke="#666666" points="305.5,-96 134.5,-96 134.5,-66 305.5,-66 305.5,-96"/>
<text text-anchor="start" x="142.5" y="-84" font-family="Helvetica,sans-Serif" font-size="10.00">SCR_ResourceSystemSubscription</text>
<text text-anchor="middle" x="220" y="-73" font-family="Helvetica,sans-Serif" font-size="10.00">HandleBase</text>
</a>
</g>
</g>
<!-- Node3&#45;&gt;Node1 -->
<g id="edge2" class="edge">
<title>Node3&#45;&gt;Node1</title>
<path fill="none" stroke="#63b8ff" d="M193.74,-59.25C181.8,-49.82 167.98,-38.9 157.21,-30.39"/>
<polygon fill="#63b8ff" stroke="#63b8ff" points="191.01,-62.34 201.02,-65.8 195.35,-56.85 191.01,-62.34"/>
</g>
</g>
</svg>
