<?xml version="1.0" encoding="UTF-8" standalone="no"?>
<!DOCTYPE svg PUBLIC "-//W3C//DTD SVG 1.1//EN"
 "http://www.w3.org/Graphics/SVG/1.1/DTD/svg11.dtd">
<!-- Generated by graphviz version 8.0.2 (20230410.1723)
 -->
<!-- Title: SCR_AISendMessageGeneric Pages: 1 -->
<svg width="404pt" height="192pt"
 viewBox="0.00 0.00 404.00 192.00" xmlns="http://www.w3.org/2000/svg" xmlns:xlink="http://www.w3.org/1999/xlink">
<g id="graph0" class="graph" transform="scale(1 1) rotate(0) translate(4 188)">
<title>SCR_AISendMessageGeneric</title>
<!-- Node1 -->
<g id="node1" class="node">
<title>Node1</title>
<g id="a_node1"><a xlink:title="Class for generic nodes with extra input ports which send messages.">
<polygon fill="#999999" stroke="#666666" points="289.5,-74 142.5,-74 142.5,-55 289.5,-55 289.5,-74"/>
<text text-anchor="middle" x="216" y="-62" font-family="Helvetica,sans-Serif" font-size="10.00">SCR_AISendMessageGeneric</text>
</a>
</g>
</g>
<!-- Node4 -->
<g id="node4" class="node">
<title>Node4</title>
<g id="a_node4"><a xlink:href="interfaceSCR__AISendGoalMessage.html" target="_top" xlink:title=" ">
<polygon fill="white" stroke="#666666" points="134,-19 0,-19 0,0 134,0 134,-19"/>
<text text-anchor="middle" x="67" y="-7" font-family="Helvetica,sans-Serif" font-size="10.00">SCR_AISendGoalMessage</text>
</a>
</g>
</g>
<!-- Node1&#45;&gt;Node4 -->
<g id="edge3" class="edge">
<title>Node1&#45;&gt;Node4</title>
<path fill="none" stroke="#63b8ff" d="M180.42,-50.84C153.11,-41.13 116.11,-27.97 91.9,-19.36"/>
<polygon fill="#63b8ff" stroke="#63b8ff" points="179.13,-54.46 189.72,-54.51 181.48,-47.86 179.13,-54.46"/>
</g>
<!-- Node5 -->
<g id="node5" class="node">
<title>Node5</title>
<g id="a_node5"><a xlink:href="interfaceSCR__AISendInfoMessage.html" target="_top" xlink:title=" ">
<polygon fill="white" stroke="#666666" points="280,-19 152,-19 152,0 280,0 280,-19"/>
<text text-anchor="middle" x="216" y="-7" font-family="Helvetica,sans-Serif" font-size="10.00">SCR_AISendInfoMessage</text>
</a>
</g>
</g>
<!-- Node1&#45;&gt;Node5 -->
<g id="edge4" class="edge">
<title>Node1&#45;&gt;Node5</title>
<path fill="none" stroke="#63b8ff" d="M216,-43.93C216,-35.53 216,-26.13 216,-19.44"/>
<polygon fill="#63b8ff" stroke="#63b8ff" points="212.5,-43.75 216,-53.75 219.5,-43.75 212.5,-43.75"/>
</g>
<!-- Node6 -->
<g id="node6" class="node">
<title>Node6</title>
<g id="a_node6"><a xlink:href="interfaceSCR__AISendOrder.html" target="_top" xlink:title=" ">
<polygon fill="white" stroke="#666666" points="396,-19 298,-19 298,0 396,0 396,-19"/>
<text text-anchor="middle" x="347" y="-7" font-family="Helvetica,sans-Serif" font-size="10.00">SCR_AISendOrder</text>
</a>
</g>
</g>
<!-- Node1&#45;&gt;Node6 -->
<g id="edge5" class="edge">
<title>Node1&#45;&gt;Node6</title>
<path fill="none" stroke="#63b8ff" d="M248.25,-50.45C272.15,-40.78 304.11,-27.85 325.11,-19.36"/>
<polygon fill="#63b8ff" stroke="#63b8ff" points="247.18,-47.51 239.22,-54.51 249.81,-54 247.18,-47.51"/>
</g>
<!-- Node2 -->
<g id="node2" class="node">
<title>Node2</title>
<g id="a_node2"><a xlink:href="interfaceSCR__AISendMessageBase.html" target="_top" xlink:title="Base class for nodes sending message.">
<polygon fill="white" stroke="#666666" points="284,-129 148,-129 148,-110 284,-110 284,-129"/>
<text text-anchor="middle" x="216" y="-117" font-family="Helvetica,sans-Serif" font-size="10.00">SCR_AISendMessageBase</text>
</a>
</g>
</g>
<!-- Node2&#45;&gt;Node1 -->
<g id="edge1" class="edge">
<title>Node2&#45;&gt;Node1</title>
<path fill="none" stroke="#63b8ff" d="M216,-98.93C216,-90.53 216,-81.13 216,-74.44"/>
<polygon fill="#63b8ff" stroke="#63b8ff" points="212.5,-98.75 216,-108.75 219.5,-98.75 212.5,-98.75"/>
</g>
<!-- Node3 -->
<g id="node3" class="node">
<title>Node3</title>
<g id="a_node3"><a xlink:title=" ">
<polygon fill="white" stroke="#666666" points="257.5,-184 174.5,-184 174.5,-165 257.5,-165 257.5,-184"/>
<text text-anchor="middle" x="216" y="-172" font-family="Helvetica,sans-Serif" font-size="10.00">AITaskScripted</text>
</a>
</g>
</g>
<!-- Node3&#45;&gt;Node2 -->
<g id="edge2" class="edge">
<title>Node3&#45;&gt;Node2</title>
<path fill="none" stroke="#63b8ff" d="M216,-153.93C216,-145.53 216,-136.13 216,-129.44"/>
<polygon fill="#63b8ff" stroke="#63b8ff" points="212.5,-153.75 216,-163.75 219.5,-153.75 212.5,-153.75"/>
</g>
</g>
</svg>
