<?xml version="1.0" encoding="UTF-8" standalone="no"?>
<!DOCTYPE svg PUBLIC "-//W3C//DTD SVG 1.1//EN"
 "http://www.w3.org/Graphics/SVG/1.1/DTD/svg11.dtd">
<!-- Generated by graphviz version 8.0.2 (20230410.1723)
 -->
<!-- Title: SCR_ScriptedUserAction Pages: 1 -->
<svg width="1115pt" height="676pt"
 viewBox="0.00 0.00 1115.00 675.50" xmlns="http://www.w3.org/2000/svg" xmlns:xlink="http://www.w3.org/1999/xlink">
<g id="graph0" class="graph" transform="scale(1 1) rotate(0) translate(4 671.5)">
<title>SCR_ScriptedUserAction</title>
<!-- Node1 -->
<g id="node1" class="node">
<title>Node1</title>
<g id="a_node1"><a xlink:title="A scripted action class having optional logic to check if vehicle is valid.">
<polygon fill="#999999" stroke="#666666" points="508,-219 382,-219 382,-200 508,-200 508,-219"/>
<text text-anchor="middle" x="445" y="-207" font-family="Helvetica,sans-Serif" font-size="10.00">SCR_ScriptedUserAction</text>
</a>
</g>
</g>
<!-- Node5 -->
<g id="node5" class="node">
<title>Node5</title>
<g id="a_node5"><a xlink:href="interfaceSCR__BaseAudioScriptedUserAction.html" target="_top" xlink:title="A scripted action class having optional logic for playing audio as well as checking if the faction is...">
<polygon fill="white" stroke="#666666" points="695.5,-605.5 549.5,-605.5 549.5,-575.5 695.5,-575.5 695.5,-605.5"/>
<text text-anchor="start" x="557.5" y="-593.5" font-family="Helvetica,sans-Serif" font-size="10.00">SCR_BaseAudioScriptedUser</text>
<text text-anchor="middle" x="622.5" y="-582.5" font-family="Helvetica,sans-Serif" font-size="10.00">Action</text>
</a>
</g>
</g>
<!-- Node1&#45;&gt;Node5 -->
<g id="edge4" class="edge">
<title>Node1&#45;&gt;Node5</title>
<path fill="none" stroke="#63b8ff" d="M452.77,-229.59C467.44,-272.37 504.08,-375.27 544,-457.5 565.48,-501.74 596.12,-551.09 611.65,-575.35"/>
<polygon fill="#63b8ff" stroke="#63b8ff" points="455.77,-228.52 449.23,-220.18 449.14,-230.78 455.77,-228.52"/>
</g>
<!-- Node10 -->
<g id="node10" class="node">
<title>Node10</title>
<g id="a_node10"><a xlink:href="interfaceSCR__BaseUseSupportStationAction.html" target="_top" xlink:title=" ">
<polygon fill="white" stroke="#666666" points="695.5,-448.5 549.5,-448.5 549.5,-418.5 695.5,-418.5 695.5,-448.5"/>
<text text-anchor="start" x="557.5" y="-436.5" font-family="Helvetica,sans-Serif" font-size="10.00">SCR_BaseUseSupportStation</text>
<text text-anchor="middle" x="622.5" y="-425.5" font-family="Helvetica,sans-Serif" font-size="10.00">Action</text>
</a>
</g>
</g>
<!-- Node1&#45;&gt;Node10 -->
<g id="edge9" class="edge">
<title>Node1&#45;&gt;Node10</title>
<path fill="none" stroke="#63b8ff" d="M460.35,-227.81C494.1,-270.89 578.05,-378.04 609.42,-418.08"/>
<polygon fill="#63b8ff" stroke="#63b8ff" points="462.69,-226.13 453.77,-220.41 457.18,-230.44 462.69,-226.13"/>
</g>
<!-- Node19 -->
<g id="node19" class="node">
<title>Node19</title>
<g id="a_node19"><a xlink:href="interfaceSCR__CampaignBuildingBuildUserAction.html" target="_top" xlink:title=" ">
<polygon fill="white" stroke="#666666" points="693.5,-323.5 551.5,-323.5 551.5,-293.5 693.5,-293.5 693.5,-323.5"/>
<text text-anchor="start" x="559.5" y="-311.5" font-family="Helvetica,sans-Serif" font-size="10.00">SCR_CampaignBuildingBuild</text>
<text text-anchor="middle" x="622.5" y="-300.5" font-family="Helvetica,sans-Serif" font-size="10.00">UserAction</text>
</a>
</g>
</g>
<!-- Node1&#45;&gt;Node19 -->
<g id="edge18" class="edge">
<title>Node1&#45;&gt;Node19</title>
<path fill="none" stroke="#63b8ff" d="M464.26,-226.69C482.99,-243.5 513.6,-268.8 544,-284.5 550.13,-287.67 556.76,-290.5 563.46,-293.01"/>
<polygon fill="#63b8ff" stroke="#63b8ff" points="467.05,-224.58 457.31,-220.41 462.32,-229.74 467.05,-224.58"/>
</g>
<!-- Node20 -->
<g id="node20" class="node">
<title>Node20</title>
<g id="a_node20"><a xlink:href="interfaceSCR__ExplosiveChargeAction.html" target="_top" xlink:title=" ">
<polygon fill="white" stroke="#666666" points="693.5,-275 551.5,-275 551.5,-256 693.5,-256 693.5,-275"/>
<text text-anchor="middle" x="622.5" y="-263" font-family="Helvetica,sans-Serif" font-size="10.00">SCR_ExplosiveChargeAction</text>
</a>
</g>
</g>
<!-- Node1&#45;&gt;Node20 -->
<g id="edge19" class="edge">
<title>Node1&#45;&gt;Node20</title>
<path fill="none" stroke="#63b8ff" d="M478.79,-223.56C497.63,-231.29 521.89,-240.68 544,-247.5 553.5,-250.43 563.79,-253.14 573.67,-255.51"/>
<polygon fill="#63b8ff" stroke="#63b8ff" points="480.22,-219.95 469.65,-219.34 477.53,-226.41 480.22,-219.95"/>
</g>
<!-- Node24 -->
<g id="node24" class="node">
<title>Node24</title>
<g id="a_node24"><a xlink:href="interfaceSCR__PushVehicleAction.html" target="_top" xlink:title=" ">
<polygon fill="white" stroke="#666666" points="685,-238 560,-238 560,-219 685,-219 685,-238"/>
<text text-anchor="middle" x="622.5" y="-226" font-family="Helvetica,sans-Serif" font-size="10.00">SCR_PushVehicleAction</text>
</a>
</g>
</g>
<!-- Node1&#45;&gt;Node24 -->
<g id="edge23" class="edge">
<title>Node1&#45;&gt;Node24</title>
<path fill="none" stroke="#63b8ff" d="M519.06,-217.41C532.55,-218.87 546.51,-220.38 559.63,-221.8"/>
<polygon fill="#63b8ff" stroke="#63b8ff" points="519.69,-213.85 509.37,-216.25 518.93,-220.81 519.69,-213.85"/>
</g>
<!-- Node26 -->
<g id="node26" class="node">
<title>Node26</title>
<g id="a_node26"><a xlink:href="interfaceSCR__RemoteDetonatorAction.html" target="_top" xlink:title=" ">
<polygon fill="white" stroke="#666666" points="695.5,-201 549.5,-201 549.5,-182 695.5,-182 695.5,-201"/>
<text text-anchor="middle" x="622.5" y="-189" font-family="Helvetica,sans-Serif" font-size="10.00">SCR_RemoteDetonatorAction</text>
</a>
</g>
</g>
<!-- Node1&#45;&gt;Node26 -->
<g id="edge25" class="edge">
<title>Node1&#45;&gt;Node26</title>
<path fill="none" stroke="#63b8ff" d="M519.04,-202.01C528.99,-200.99 539.21,-199.94 549.15,-198.92"/>
<polygon fill="#63b8ff" stroke="#63b8ff" points="518.96,-198.6 509.37,-203.1 519.67,-205.56 518.96,-198.6"/>
</g>
<!-- Node29 -->
<g id="node29" class="node">
<title>Node29</title>
<g id="a_node29"><a xlink:href="interfaceSCR__ResourceContainerVehicleLoadAction.html" target="_top" xlink:title=" ">
<polygon fill="white" stroke="#666666" points="701,-163.5 544,-163.5 544,-133.5 701,-133.5 701,-163.5"/>
<text text-anchor="start" x="552" y="-151.5" font-family="Helvetica,sans-Serif" font-size="10.00">SCR_ResourceContainerVehicle</text>
<text text-anchor="middle" x="622.5" y="-140.5" font-family="Helvetica,sans-Serif" font-size="10.00">LoadAction</text>
</a>
</g>
</g>
<!-- Node1&#45;&gt;Node29 -->
<g id="edge28" class="edge">
<title>Node1&#45;&gt;Node29</title>
<path fill="none" stroke="#63b8ff" d="M480.91,-195.73C499.54,-188.53 522.91,-179.74 544,-172.5 552.39,-169.62 561.35,-166.7 570.08,-163.94"/>
<polygon fill="#63b8ff" stroke="#63b8ff" points="479.87,-192.77 471.82,-199.65 482.41,-199.29 479.87,-192.77"/>
</g>
<!-- Node30 -->
<g id="node30" class="node">
<title>Node30</title>
<g id="a_node30"><a xlink:href="interfaceSCR__ResourceContainerVehicleUnloadAction.html" target="_top" xlink:title=" ">
<polygon fill="white" stroke="#666666" points="701,-115.5 544,-115.5 544,-85.5 701,-85.5 701,-115.5"/>
<text text-anchor="start" x="552" y="-103.5" font-family="Helvetica,sans-Serif" font-size="10.00">SCR_ResourceContainerVehicle</text>
<text text-anchor="middle" x="622.5" y="-92.5" font-family="Helvetica,sans-Serif" font-size="10.00">UnloadAction</text>
</a>
</g>
</g>
<!-- Node1&#45;&gt;Node30 -->
<g id="edge29" class="edge">
<title>Node1&#45;&gt;Node30</title>
<path fill="none" stroke="#63b8ff" d="M462.11,-191.68C480.29,-172.56 511.57,-142.53 544,-124.5 549.79,-121.28 556.06,-118.44 562.45,-115.94"/>
<polygon fill="#63b8ff" stroke="#63b8ff" points="459.98,-188.91 455.72,-198.61 465.1,-193.68 459.98,-188.91"/>
</g>
<!-- Node31 -->
<g id="node31" class="node">
<title>Node31</title>
<g id="a_node31"><a xlink:href="interfaceSCR__ResourceEntityRefundAction.html" target="_top" xlink:title=" ">
<polygon fill="white" stroke="#666666" points="692,-67.5 553,-67.5 553,-37.5 692,-37.5 692,-67.5"/>
<text text-anchor="start" x="561" y="-55.5" font-family="Helvetica,sans-Serif" font-size="10.00">SCR_ResourceEntityRefund</text>
<text text-anchor="middle" x="622.5" y="-44.5" font-family="Helvetica,sans-Serif" font-size="10.00">Action</text>
</a>
</g>
</g>
<!-- Node1&#45;&gt;Node31 -->
<g id="edge30" class="edge">
<title>Node1&#45;&gt;Node31</title>
<path fill="none" stroke="#63b8ff" d="M455.22,-190.06C469.95,-161.08 501.51,-106.71 544,-76.5 548.59,-73.24 553.64,-70.41 558.89,-67.95"/>
<polygon fill="#63b8ff" stroke="#63b8ff" points="451.69,-188.31 450.41,-198.82 457.97,-191.4 451.69,-188.31"/>
</g>
<!-- Node32 -->
<g id="node32" class="node">
<title>Node32</title>
<g id="a_node32"><a xlink:href="interfaceSCR__ToggleHandbrakeAction.html" target="_top" xlink:title=" ">
<polygon fill="white" stroke="#666666" points="695,-19 550,-19 550,0 695,0 695,-19"/>
<text text-anchor="middle" x="622.5" y="-7" font-family="Helvetica,sans-Serif" font-size="10.00">SCR_ToggleHandbrakeAction</text>
</a>
</g>
</g>
<!-- Node1&#45;&gt;Node32 -->
<g id="edge31" class="edge">
<title>Node1&#45;&gt;Node32</title>
<path fill="none" stroke="#63b8ff" d="M450.96,-189.69C461.42,-152.15 489.4,-70.65 544,-28.5 548.82,-24.77 554.28,-21.77 560.01,-19.35"/>
<polygon fill="#63b8ff" stroke="#63b8ff" points="447.45,-188.27 448.27,-198.83 454.22,-190.07 447.45,-188.27"/>
</g>
<!-- Node2 -->
<g id="node2" class="node">
<title>Node2</title>
<g id="a_node2"><a xlink:href="interfaceScriptedUserAction.html" target="_top" xlink:title=" ">
<polygon fill="white" stroke="#666666" points="346,-219 245,-219 245,-200 346,-200 346,-219"/>
<text text-anchor="middle" x="295.5" y="-207" font-family="Helvetica,sans-Serif" font-size="10.00">ScriptedUserAction</text>
</a>
</g>
</g>
<!-- Node2&#45;&gt;Node1 -->
<g id="edge1" class="edge">
<title>Node2&#45;&gt;Node1</title>
<path fill="none" stroke="#63b8ff" d="M357.22,-209.5C365.25,-209.5 373.5,-209.5 381.56,-209.5"/>
<polygon fill="#63b8ff" stroke="#63b8ff" points="357.44,-206 347.44,-209.5 357.44,-213 357.44,-206"/>
</g>
<!-- Node3 -->
<g id="node3" class="node">
<title>Node3</title>
<g id="a_node3"><a xlink:href="interfaceBaseUserAction.html" target="_top" xlink:title=" ">
<polygon fill="white" stroke="#666666" points="209,-219 122,-219 122,-200 209,-200 209,-219"/>
<text text-anchor="middle" x="165.5" y="-207" font-family="Helvetica,sans-Serif" font-size="10.00">BaseUserAction</text>
</a>
</g>
</g>
<!-- Node3&#45;&gt;Node2 -->
<g id="edge2" class="edge">
<title>Node3&#45;&gt;Node2</title>
<path fill="none" stroke="#63b8ff" d="M220.34,-209.5C228.44,-209.5 236.77,-209.5 244.78,-209.5"/>
<polygon fill="#63b8ff" stroke="#63b8ff" points="220.48,-206 210.48,-209.5 220.48,-213 220.48,-206"/>
</g>
<!-- Node4 -->
<g id="node4" class="node">
<title>Node4</title>
<g id="a_node4"><a xlink:title=" ">
<polygon fill="white" stroke="#666666" points="86,-219 0,-219 0,-200 86,-200 86,-219"/>
<text text-anchor="middle" x="43" y="-207" font-family="Helvetica,sans-Serif" font-size="10.00">ScriptAndConfig</text>
</a>
</g>
</g>
<!-- Node4&#45;&gt;Node3 -->
<g id="edge3" class="edge">
<title>Node4&#45;&gt;Node3</title>
<path fill="none" stroke="#63b8ff" d="M97.37,-209.5C105.47,-209.5 113.74,-209.5 121.59,-209.5"/>
<polygon fill="#63b8ff" stroke="#63b8ff" points="97.48,-206 87.48,-209.5 97.48,-213 97.48,-206"/>
</g>
<!-- Node6 -->
<g id="node6" class="node">
<title>Node6</title>
<g id="a_node6"><a xlink:href="interfaceSCR__BaseFactionCheckUserAction.html" target="_top" xlink:title=" ">
<polygon fill="white" stroke="#666666" points="894.5,-667.5 749.5,-667.5 749.5,-637.5 894.5,-637.5 894.5,-667.5"/>
<text text-anchor="start" x="757.5" y="-655.5" font-family="Helvetica,sans-Serif" font-size="10.00">SCR_BaseFactionCheckUser</text>
<text text-anchor="middle" x="822" y="-644.5" font-family="Helvetica,sans-Serif" font-size="10.00">Action</text>
</a>
</g>
</g>
<!-- Node5&#45;&gt;Node6 -->
<g id="edge5" class="edge">
<title>Node5&#45;&gt;Node6</title>
<path fill="none" stroke="#63b8ff" d="M678.42,-609.44C696.97,-615.69 717.83,-622.56 737,-628.5 746.27,-631.37 756.16,-634.31 765.77,-637.1"/>
<polygon fill="#63b8ff" stroke="#63b8ff" points="679.69,-605.83 669.09,-605.94 677.44,-612.46 679.69,-605.83"/>
</g>
<!-- Node8 -->
<g id="node8" class="node">
<title>Node8</title>
<g id="a_node8"><a xlink:href="interfaceSCR__CheckFuelAction.html" target="_top" xlink:title=" ">
<polygon fill="white" stroke="#666666" points="880,-619 764,-619 764,-600 880,-600 880,-619"/>
<text text-anchor="middle" x="822" y="-607" font-family="Helvetica,sans-Serif" font-size="10.00">SCR_CheckFuelAction</text>
</a>
</g>
</g>
<!-- Node5&#45;&gt;Node8 -->
<g id="edge7" class="edge">
<title>Node5&#45;&gt;Node8</title>
<path fill="none" stroke="#63b8ff" d="M706.79,-598.51C725.97,-600.36 745.95,-602.28 763.74,-603.99"/>
<polygon fill="#63b8ff" stroke="#63b8ff" points="707.21,-594.94 696.92,-597.47 706.54,-601.91 707.21,-594.94"/>
</g>
<!-- Node9 -->
<g id="node9" class="node">
<title>Node9</title>
<g id="a_node9"><a xlink:href="interfaceSCR__DrainFuelUserAction.html" target="_top" xlink:title="Allows players to drain an entity with a fuel manager. Use with care as it might create a lot of grie...">
<polygon fill="white" stroke="#666666" points="887.5,-582 756.5,-582 756.5,-563 887.5,-563 887.5,-582"/>
<text text-anchor="middle" x="822" y="-570" font-family="Helvetica,sans-Serif" font-size="10.00">SCR_DrainFuelUserAction</text>
</a>
</g>
</g>
<!-- Node5&#45;&gt;Node9 -->
<g id="edge8" class="edge">
<title>Node5&#45;&gt;Node9</title>
<path fill="none" stroke="#63b8ff" d="M706.67,-582.92C723.19,-581.41 740.3,-579.85 756.1,-578.41"/>
<polygon fill="#63b8ff" stroke="#63b8ff" points="706.56,-579.51 696.92,-583.9 707.2,-586.48 706.56,-579.51"/>
</g>
<!-- Node7 -->
<g id="node7" class="node">
<title>Node7</title>
<g id="a_node7"><a xlink:href="interfaceSCR__SaveArsenalLoadout.html" target="_top" xlink:title=" ">
<polygon fill="white" stroke="#666666" points="1090.5,-662 959.5,-662 959.5,-643 1090.5,-643 1090.5,-662"/>
<text text-anchor="middle" x="1025" y="-650" font-family="Helvetica,sans-Serif" font-size="10.00">SCR_SaveArsenalLoadout</text>
</a>
</g>
</g>
<!-- Node6&#45;&gt;Node7 -->
<g id="edge6" class="edge">
<title>Node6&#45;&gt;Node7</title>
<path fill="none" stroke="#63b8ff" d="M905.94,-652.5C923.7,-652.5 942.22,-652.5 959.19,-652.5"/>
<polygon fill="#63b8ff" stroke="#63b8ff" points="906,-649 896,-652.5 906,-656 906,-649"/>
</g>
<!-- Node11 -->
<g id="node11" class="node">
<title>Node11</title>
<g id="a_node11"><a xlink:href="interfaceSCR__BaseDamageHealSupportStationAction.html" target="_top" xlink:title="Allows healing of action owner (not user)">
<polygon fill="white" stroke="#666666" points="899,-544.5 745,-544.5 745,-514.5 899,-514.5 899,-544.5"/>
<text text-anchor="start" x="753" y="-532.5" font-family="Helvetica,sans-Serif" font-size="10.00">SCR_BaseDamageHealSupport</text>
<text text-anchor="middle" x="822" y="-521.5" font-family="Helvetica,sans-Serif" font-size="10.00">StationAction</text>
</a>
</g>
</g>
<!-- Node10&#45;&gt;Node11 -->
<g id="edge10" class="edge">
<title>Node10&#45;&gt;Node11</title>
<path fill="none" stroke="#63b8ff" d="M652.7,-455.34C674.88,-471.08 706.64,-491.87 737,-505.5 744.06,-508.67 751.64,-511.52 759.25,-514.07"/>
<polygon fill="#63b8ff" stroke="#63b8ff" points="654.97,-451.94 644.81,-448.94 650.88,-457.62 654.97,-451.94"/>
</g>
<!-- Node14 -->
<g id="node14" class="node">
<title>Node14</title>
<g id="a_node14"><a xlink:href="interfaceSCR__BaseResupplySupportStationAction.html" target="_top" xlink:title=" ">
<polygon fill="white" stroke="#666666" points="907,-496.5 737,-496.5 737,-466.5 907,-466.5 907,-496.5"/>
<text text-anchor="start" x="745" y="-484.5" font-family="Helvetica,sans-Serif" font-size="10.00">SCR_BaseResupplySupportStation</text>
<text text-anchor="middle" x="822" y="-473.5" font-family="Helvetica,sans-Serif" font-size="10.00">Action</text>
</a>
</g>
</g>
<!-- Node10&#45;&gt;Node14 -->
<g id="edge13" class="edge">
<title>Node10&#45;&gt;Node14</title>
<path fill="none" stroke="#63b8ff" d="M697.56,-451.5C717.29,-456.3 738.43,-461.43 757.54,-466.08"/>
<polygon fill="#63b8ff" stroke="#63b8ff" points="698.62,-447.91 688.08,-448.95 696.97,-454.71 698.62,-447.91"/>
</g>
<!-- Node17 -->
<g id="node17" class="node">
<title>Node17</title>
<g id="a_node17"><a xlink:href="interfaceSCR__LoadCasualtySupportStationUserAction.html" target="_top" xlink:title=" ">
<polygon fill="white" stroke="#666666" points="905,-448.5 739,-448.5 739,-418.5 905,-418.5 905,-448.5"/>
<text text-anchor="start" x="747" y="-436.5" font-family="Helvetica,sans-Serif" font-size="10.00">SCR_LoadCasualtySupportStation</text>
<text text-anchor="middle" x="822" y="-425.5" font-family="Helvetica,sans-Serif" font-size="10.00">UserAction</text>
</a>
</g>
</g>
<!-- Node10&#45;&gt;Node17 -->
<g id="edge16" class="edge">
<title>Node10&#45;&gt;Node17</title>
<path fill="none" stroke="#63b8ff" d="M706.78,-433.5C717.3,-433.5 728.06,-433.5 738.57,-433.5"/>
<polygon fill="#63b8ff" stroke="#63b8ff" points="706.92,-430 696.92,-433.5 706.92,-437 706.92,-430"/>
</g>
<!-- Node18 -->
<g id="node18" class="node">
<title>Node18</title>
<g id="a_node18"><a xlink:href="interfaceSCR__RefuelAtSupportStationAction.html" target="_top" xlink:title=" ">
<polygon fill="white" stroke="#666666" points="893.5,-400.5 750.5,-400.5 750.5,-370.5 893.5,-370.5 893.5,-400.5"/>
<text text-anchor="start" x="758.5" y="-388.5" font-family="Helvetica,sans-Serif" font-size="10.00">SCR_RefuelAtSupportStation</text>
<text text-anchor="middle" x="822" y="-377.5" font-family="Helvetica,sans-Serif" font-size="10.00">Action</text>
</a>
</g>
</g>
<!-- Node10&#45;&gt;Node18 -->
<g id="edge17" class="edge">
<title>Node10&#45;&gt;Node18</title>
<path fill="none" stroke="#63b8ff" d="M697.56,-415.5C717.29,-410.7 738.43,-405.57 757.54,-400.92"/>
<polygon fill="#63b8ff" stroke="#63b8ff" points="696.97,-412.29 688.08,-418.05 698.62,-419.09 696.97,-412.29"/>
</g>
<!-- Node12 -->
<g id="node12" class="node">
<title>Node12</title>
<g id="a_node12"><a xlink:href="interfaceSCR__HealSupportStationAction.html" target="_top" xlink:title=" ">
<polygon fill="white" stroke="#666666" points="1102,-582 948,-582 948,-563 1102,-563 1102,-582"/>
<text text-anchor="middle" x="1025" y="-570" font-family="Helvetica,sans-Serif" font-size="10.00">SCR_HealSupportStationAction</text>
</a>
</g>
</g>
<!-- Node11&#45;&gt;Node12 -->
<g id="edge11" class="edge">
<title>Node11&#45;&gt;Node12</title>
<path fill="none" stroke="#63b8ff" d="M905.99,-547.25C930.36,-552.47 956.16,-557.99 977.39,-562.53"/>
<polygon fill="#63b8ff" stroke="#63b8ff" points="906.79,-543.63 896.28,-544.96 905.33,-550.48 906.79,-543.63"/>
</g>
<!-- Node13 -->
<g id="node13" class="node">
<title>Node13</title>
<g id="a_node13"><a xlink:href="interfaceSCR__RepairAtSupportStationAction.html" target="_top" xlink:title=" ">
<polygon fill="white" stroke="#666666" points="1097,-544.5 953,-544.5 953,-514.5 1097,-514.5 1097,-544.5"/>
<text text-anchor="start" x="961" y="-532.5" font-family="Helvetica,sans-Serif" font-size="10.00">SCR_RepairAtSupportStation</text>
<text text-anchor="middle" x="1025" y="-521.5" font-family="Helvetica,sans-Serif" font-size="10.00">Action</text>
</a>
</g>
</g>
<!-- Node11&#45;&gt;Node13 -->
<g id="edge12" class="edge">
<title>Node11&#45;&gt;Node13</title>
<path fill="none" stroke="#63b8ff" d="M910.08,-529.5C924.32,-529.5 938.94,-529.5 952.74,-529.5"/>
<polygon fill="#63b8ff" stroke="#63b8ff" points="910.28,-526 900.28,-529.5 910.28,-533 910.28,-526"/>
</g>
<!-- Node15 -->
<g id="node15" class="node">
<title>Node15</title>
<g id="a_node15"><a xlink:href="interfaceSCR__ResupplyOtherSupportStationAction.html" target="_top" xlink:title=" ">
<polygon fill="white" stroke="#666666" points="1095,-496.5 955,-496.5 955,-466.5 1095,-466.5 1095,-496.5"/>
<text text-anchor="start" x="963" y="-484.5" font-family="Helvetica,sans-Serif" font-size="10.00">SCR_ResupplyOtherSupport</text>
<text text-anchor="middle" x="1025" y="-473.5" font-family="Helvetica,sans-Serif" font-size="10.00">StationAction</text>
</a>
</g>
</g>
<!-- Node14&#45;&gt;Node15 -->
<g id="edge14" class="edge">
<title>Node14&#45;&gt;Node15</title>
<path fill="none" stroke="#63b8ff" d="M918.17,-481.5C930.51,-481.5 942.96,-481.5 954.77,-481.5"/>
<polygon fill="#63b8ff" stroke="#63b8ff" points="918.37,-478 908.37,-481.5 918.37,-485 918.37,-478"/>
</g>
<!-- Node16 -->
<g id="node16" class="node">
<title>Node16</title>
<g id="a_node16"><a xlink:href="interfaceSCR__ResupplySelfSupportStationAction.html" target="_top" xlink:title=" ">
<polygon fill="white" stroke="#666666" points="1107,-448.5 943,-448.5 943,-418.5 1107,-418.5 1107,-448.5"/>
<text text-anchor="start" x="951" y="-436.5" font-family="Helvetica,sans-Serif" font-size="10.00">SCR_ResupplySelfSupportStation</text>
<text text-anchor="middle" x="1025" y="-425.5" font-family="Helvetica,sans-Serif" font-size="10.00">Action</text>
</a>
</g>
</g>
<!-- Node14&#45;&gt;Node16 -->
<g id="edge15" class="edge">
<title>Node14&#45;&gt;Node16</title>
<path fill="none" stroke="#63b8ff" d="M898.37,-463.5C918.46,-458.7 939.97,-453.57 959.42,-448.92"/>
<polygon fill="#63b8ff" stroke="#63b8ff" points="897.62,-460.32 888.7,-466.05 899.24,-467.13 897.62,-460.32"/>
</g>
<!-- Node21 -->
<g id="node21" class="node">
<title>Node21</title>
<g id="a_node21"><a xlink:href="interfaceSCR__ArmExplosiveChargeWithRemoteFuzeAction.html" target="_top" xlink:title=" ">
<polygon fill="white" stroke="#666666" points="898,-352.5 746,-352.5 746,-322.5 898,-322.5 898,-352.5"/>
<text text-anchor="start" x="754" y="-340.5" font-family="Helvetica,sans-Serif" font-size="10.00">SCR_ArmExplosiveChargeWith</text>
<text text-anchor="middle" x="822" y="-329.5" font-family="Helvetica,sans-Serif" font-size="10.00">RemoteFuzeAction</text>
</a>
</g>
</g>
<!-- Node20&#45;&gt;Node21 -->
<g id="edge20" class="edge">
<title>Node20&#45;&gt;Node21</title>
<path fill="none" stroke="#63b8ff" d="M687.46,-278.77C692.13,-280.47 696.69,-282.37 701,-284.5 719.42,-293.61 718.76,-304.05 737,-313.5 743.19,-316.71 749.87,-319.54 756.67,-322.03"/>
<polygon fill="#63b8ff" stroke="#63b8ff" points="688.71,-275.17 678.12,-275.38 686.53,-281.82 688.71,-275.17"/>
</g>
<!-- Node22 -->
<g id="node22" class="node">
<title>Node22</title>
<g id="a_node22"><a xlink:href="interfaceSCR__ArmExplosiveChargeWithTimedFuzeAction.html" target="_top" xlink:title=" ">
<polygon fill="white" stroke="#666666" points="898,-304.5 746,-304.5 746,-274.5 898,-274.5 898,-304.5"/>
<text text-anchor="start" x="754" y="-292.5" font-family="Helvetica,sans-Serif" font-size="10.00">SCR_ArmExplosiveChargeWith</text>
<text text-anchor="middle" x="822" y="-281.5" font-family="Helvetica,sans-Serif" font-size="10.00">TimedFuzeAction</text>
</a>
</g>
</g>
<!-- Node20&#45;&gt;Node22 -->
<g id="edge21" class="edge">
<title>Node20&#45;&gt;Node22</title>
<path fill="none" stroke="#63b8ff" d="M704.69,-275.37C718.21,-277.01 732.18,-278.71 745.54,-280.33"/>
<polygon fill="#63b8ff" stroke="#63b8ff" points="705.31,-271.79 694.97,-274.06 704.47,-278.74 705.31,-271.79"/>
</g>
<!-- Node23 -->
<g id="node23" class="node">
<title>Node23</title>
<g id="a_node23"><a xlink:href="interfaceSCR__DisarmExplosiveChargeAction.html" target="_top" xlink:title=" ">
<polygon fill="white" stroke="#666666" points="894.5,-256.5 749.5,-256.5 749.5,-226.5 894.5,-226.5 894.5,-256.5"/>
<text text-anchor="start" x="757.5" y="-244.5" font-family="Helvetica,sans-Serif" font-size="10.00">SCR_DisarmExplosiveCharge</text>
<text text-anchor="middle" x="822" y="-233.5" font-family="Helvetica,sans-Serif" font-size="10.00">Action</text>
</a>
</g>
</g>
<!-- Node20&#45;&gt;Node23 -->
<g id="edge22" class="edge">
<title>Node20&#45;&gt;Node23</title>
<path fill="none" stroke="#63b8ff" d="M704.62,-255.64C719.4,-253.85 734.74,-251.98 749.23,-250.22"/>
<polygon fill="#63b8ff" stroke="#63b8ff" points="704.47,-252.26 694.97,-256.94 705.31,-259.21 704.47,-252.26"/>
</g>
<!-- Node25 -->
<g id="node25" class="node">
<title>Node25</title>
<g id="a_node25"><a xlink:href="interfaceSCR__UnflipVehicleAction.html" target="_top" xlink:title=" ">
<polygon fill="white" stroke="#666666" points="885,-208 759,-208 759,-189 885,-189 885,-208"/>
<text text-anchor="middle" x="822" y="-196" font-family="Helvetica,sans-Serif" font-size="10.00">SCR_UnflipVehicleAction</text>
</a>
</g>
</g>
<!-- Node24&#45;&gt;Node25 -->
<g id="edge24" class="edge">
<title>Node24&#45;&gt;Node25</title>
<path fill="none" stroke="#63b8ff" d="M696.3,-217.44C716.75,-214.34 738.8,-210.99 758.59,-207.98"/>
<polygon fill="#63b8ff" stroke="#63b8ff" points="695.81,-214.13 686.45,-219.09 696.86,-221.05 695.81,-214.13"/>
</g>
<!-- Node27 -->
<g id="node27" class="node">
<title>Node27</title>
<g id="a_node27"><a xlink:href="interfaceSCR__DetonateChargesAction.html" target="_top" xlink:title=" ">
<polygon fill="white" stroke="#666666" points="894.5,-171 749.5,-171 749.5,-152 894.5,-152 894.5,-171"/>
<text text-anchor="middle" x="822" y="-159" font-family="Helvetica,sans-Serif" font-size="10.00">SCR_DetonateChargesAction</text>
</a>
</g>
</g>
<!-- Node26&#45;&gt;Node27 -->
<g id="edge26" class="edge">
<title>Node26&#45;&gt;Node27</title>
<path fill="none" stroke="#63b8ff" d="M700.12,-179.86C718.3,-177.1 737.54,-174.18 755.19,-171.5"/>
<polygon fill="#63b8ff" stroke="#63b8ff" points="699.63,-176.55 690.26,-181.51 700.68,-183.47 699.63,-176.55"/>
</g>
<!-- Node28 -->
<g id="node28" class="node">
<title>Node28</title>
<g id="a_node28"><a xlink:href="interfaceSCR__DisconnectChargesAction.html" target="_top" xlink:title=" ">
<polygon fill="white" stroke="#666666" points="899.5,-134 744.5,-134 744.5,-115 899.5,-115 899.5,-134"/>
<text text-anchor="middle" x="822" y="-122" font-family="Helvetica,sans-Serif" font-size="10.00">SCR_DisconnectChargesAction</text>
</a>
</g>
</g>
<!-- Node26&#45;&gt;Node28 -->
<g id="edge27" class="edge">
<title>Node26&#45;&gt;Node28</title>
<path fill="none" stroke="#63b8ff" d="M687.73,-178.22C692.31,-176.53 696.78,-174.63 701,-172.5 719.59,-163.11 718.27,-151.61 737,-142.5 743.71,-139.24 751,-136.56 758.39,-134.37"/>
<polygon fill="#63b8ff" stroke="#63b8ff" points="686.96,-175.12 678.59,-181.61 689.18,-181.76 686.96,-175.12"/>
</g>
</g>
</svg>
