<?xml version="1.0" encoding="UTF-8" standalone="no"?>
<!DOCTYPE svg PUBLIC "-//W3C//DTD SVG 1.1//EN"
 "http://www.w3.org/Graphics/SVG/1.1/DTD/svg11.dtd">
<!-- Generated by graphviz version 8.0.2 (20230410.1723)
 -->
<!-- Title: SCR_BasePrefabCategory Pages: 1 -->
<svg width="250pt" height="82pt"
 viewBox="0.00 0.00 249.50 82.00" xmlns="http://www.w3.org/2000/svg" xmlns:xlink="http://www.w3.org/1999/xlink">
<g id="graph0" class="graph" transform="scale(1 1) rotate(0) translate(4 78)">
<title>SCR_BasePrefabCategory</title>
<!-- Node1 -->
<g id="node1" class="node">
<title>Node1</title>
<g id="a_node1"><a xlink:title="Base class for Prefab Spawning.">
<polygon fill="#999999" stroke="#666666" points="185,-74 54,-74 54,-55 185,-55 185,-74"/>
<text text-anchor="middle" x="119.5" y="-62" font-family="Helvetica,sans-Serif" font-size="10.00">SCR_BasePrefabCategory</text>
</a>
</g>
</g>
<!-- Node2 -->
<g id="node2" class="node">
<title>Node2</title>
<g id="a_node2"><a xlink:href="interfaceSCR__PrefabCategory.html" target="_top" xlink:title="Prefab to be spawned by SCR_PrefabsSpawnerManager.">
<polygon fill="white" stroke="#666666" points="109,-19 0,-19 0,0 109,0 109,-19"/>
<text text-anchor="middle" x="54.5" y="-7" font-family="Helvetica,sans-Serif" font-size="10.00">SCR_PrefabCategory</text>
</a>
</g>
</g>
<!-- Node1&#45;&gt;Node2 -->
<g id="edge1" class="edge">
<title>Node1&#45;&gt;Node2</title>
<path fill="none" stroke="#63b8ff" d="M100.05,-47.64C88.7,-38.39 74.8,-27.05 65.36,-19.36"/>
<polygon fill="#63b8ff" stroke="#63b8ff" points="97.51,-50.9 107.47,-54.51 101.94,-45.48 97.51,-50.9"/>
</g>
<!-- Node3 -->
<g id="node3" class="node">
<title>Node3</title>
<g id="a_node3"><a xlink:href="interfaceSCR__PrefabsCategory.html" target="_top" xlink:title="Categories of prefabs and/or nested categories of prefabs.">
<polygon fill="white" stroke="#666666" points="241.5,-19 127.5,-19 127.5,0 241.5,0 241.5,-19"/>
<text text-anchor="middle" x="184.5" y="-7" font-family="Helvetica,sans-Serif" font-size="10.00">SCR_PrefabsCategory</text>
</a>
</g>
</g>
<!-- Node1&#45;&gt;Node3 -->
<g id="edge2" class="edge">
<title>Node1&#45;&gt;Node3</title>
<path fill="none" stroke="#63b8ff" d="M138.95,-47.64C150.3,-38.39 164.2,-27.05 173.64,-19.36"/>
<polygon fill="#63b8ff" stroke="#63b8ff" points="137.06,-45.48 131.53,-54.51 141.49,-50.9 137.06,-45.48"/>
</g>
</g>
</svg>
