<?xml version="1.0" encoding="UTF-8" standalone="no"?>
<!DOCTYPE svg PUBLIC "-//W3C//DTD SVG 1.1//EN"
 "http://www.w3.org/Graphics/SVG/1.1/DTD/svg11.dtd">
<!-- Generated by graphviz version 8.0.2 (20230410.1723)
 -->
<!-- Title: EditablePrefabsLabel_Base Pages: 1 -->
<svg width="313pt" height="412pt"
 viewBox="0.00 0.00 313.00 412.00" xmlns="http://www.w3.org/2000/svg" xmlns:xlink="http://www.w3.org/1999/xlink">
<g id="graph0" class="graph" transform="scale(1 1) rotate(0) translate(4 408)">
<title>EditablePrefabsLabel_Base</title>
<!-- Node1 -->
<g id="node1" class="node">
<title>Node1</title>
<g id="a_node1"><a xlink:title=" ">
<polygon fill="#999999" stroke="#666666" points="136,-206.5 0,-206.5 0,-187.5 136,-187.5 136,-206.5"/>
<text text-anchor="middle" x="68" y="-194.5" font-family="Helvetica,sans-Serif" font-size="10.00">EditablePrefabsLabel_Base</text>
</a>
</g>
</g>
<!-- Node2 -->
<g id="node2" class="node">
<title>Node2</title>
<g id="a_node2"><a xlink:href="interfaceEditablePrefabsLabel__CharacterRole.html" target="_top" xlink:title=" ">
<polygon fill="white" stroke="#666666" points="292.5,-404 184.5,-404 184.5,-374 292.5,-374 292.5,-404"/>
<text text-anchor="start" x="192.5" y="-392" font-family="Helvetica,sans-Serif" font-size="10.00">EditablePrefabsLabel</text>
<text text-anchor="middle" x="238.5" y="-381" font-family="Helvetica,sans-Serif" font-size="10.00">_CharacterRole</text>
</a>
</g>
</g>
<!-- Node1&#45;&gt;Node2 -->
<g id="edge1" class="edge">
<title>Node1&#45;&gt;Node2</title>
<path fill="none" stroke="#63b8ff" d="M76.09,-216.81C89.5,-251.61 121.84,-323.93 172,-365 176.03,-368.3 180.55,-371.17 185.29,-373.66"/>
<polygon fill="#63b8ff" stroke="#63b8ff" points="79.17,-216.06 72.4,-207.92 72.61,-218.51 79.17,-216.06"/>
</g>
<!-- Node3 -->
<g id="node3" class="node">
<title>Node3</title>
<g id="a_node3"><a xlink:href="interfaceEditablePrefabsLabel__CompositionType.html" target="_top" xlink:title=" ">
<polygon fill="white" stroke="#666666" points="292.5,-356 184.5,-356 184.5,-326 292.5,-326 292.5,-356"/>
<text text-anchor="start" x="192.5" y="-344" font-family="Helvetica,sans-Serif" font-size="10.00">EditablePrefabsLabel</text>
<text text-anchor="middle" x="238.5" y="-333" font-family="Helvetica,sans-Serif" font-size="10.00">_CompositionType</text>
</a>
</g>
</g>
<!-- Node1&#45;&gt;Node3 -->
<g id="edge2" class="edge">
<title>Node1&#45;&gt;Node3</title>
<path fill="none" stroke="#63b8ff" d="M80.83,-216.12C97.94,-242.31 131.97,-289.24 172,-317 176.68,-320.24 181.85,-323.11 187.17,-325.62"/>
<polygon fill="#63b8ff" stroke="#63b8ff" points="83.27,-214.43 74.94,-207.88 77.37,-218.19 83.27,-214.43"/>
</g>
<!-- Node4 -->
<g id="node4" class="node">
<title>Node4</title>
<g id="a_node4"><a xlink:href="interfaceEditablePrefabsLabel__EntityType.html" target="_top" xlink:title=" ">
<polygon fill="white" stroke="#666666" points="292.5,-308 184.5,-308 184.5,-278 292.5,-278 292.5,-308"/>
<text text-anchor="start" x="192.5" y="-296" font-family="Helvetica,sans-Serif" font-size="10.00">EditablePrefabsLabel</text>
<text text-anchor="middle" x="238.5" y="-285" font-family="Helvetica,sans-Serif" font-size="10.00">_EntityType</text>
</a>
</g>
</g>
<!-- Node1&#45;&gt;Node4 -->
<g id="edge3" class="edge">
<title>Node1&#45;&gt;Node4</title>
<path fill="none" stroke="#63b8ff" d="M89.35,-213.62C109.43,-229.42 141.47,-253.08 172,-269 177.91,-272.08 184.3,-274.94 190.69,-277.54"/>
<polygon fill="#63b8ff" stroke="#63b8ff" points="92.02,-210.47 82.02,-206.97 87.65,-215.94 92.02,-210.47"/>
</g>
<!-- Node5 -->
<g id="node5" class="node">
<title>Node5</title>
<g id="a_node5"><a xlink:href="interfaceEditablePrefabsLabel__Faction.html" target="_top" xlink:title=" ">
<polygon fill="white" stroke="#666666" points="292.5,-260 184.5,-260 184.5,-230 292.5,-230 292.5,-260"/>
<text text-anchor="start" x="192.5" y="-248" font-family="Helvetica,sans-Serif" font-size="10.00">EditablePrefabsLabel</text>
<text text-anchor="middle" x="238.5" y="-237" font-family="Helvetica,sans-Serif" font-size="10.00">_Faction</text>
</a>
</g>
</g>
<!-- Node1&#45;&gt;Node5 -->
<g id="edge4" class="edge">
<title>Node1&#45;&gt;Node5</title>
<path fill="none" stroke="#63b8ff" d="M114.39,-209.93C135.85,-216.04 161.63,-223.39 184.04,-229.77"/>
<polygon fill="#63b8ff" stroke="#63b8ff" points="115.49,-206.32 104.91,-206.95 113.57,-213.05 115.49,-206.32"/>
</g>
<!-- Node6 -->
<g id="node6" class="node">
<title>Node6</title>
<g id="a_node6"><a xlink:href="interfaceEditablePrefabsLabel__GroupSize.html" target="_top" xlink:title=" ">
<polygon fill="white" stroke="#666666" points="292.5,-212 184.5,-212 184.5,-182 292.5,-182 292.5,-212"/>
<text text-anchor="start" x="192.5" y="-200" font-family="Helvetica,sans-Serif" font-size="10.00">EditablePrefabsLabel</text>
<text text-anchor="middle" x="238.5" y="-189" font-family="Helvetica,sans-Serif" font-size="10.00">_GroupSize</text>
</a>
</g>
</g>
<!-- Node1&#45;&gt;Node6 -->
<g id="edge5" class="edge">
<title>Node1&#45;&gt;Node6</title>
<path fill="none" stroke="#63b8ff" d="M147.04,-197C159.59,-197 172.33,-197 184.14,-197"/>
<polygon fill="#63b8ff" stroke="#63b8ff" points="147.08,-193.5 137.08,-197 147.08,-200.5 147.08,-193.5"/>
</g>
<!-- Node7 -->
<g id="node7" class="node">
<title>Node7</title>
<g id="a_node7"><a xlink:href="interfaceEditablePrefabsLabel__Size.html" target="_top" xlink:title=" ">
<polygon fill="white" stroke="#666666" points="305,-163.5 172,-163.5 172,-144.5 305,-144.5 305,-163.5"/>
<text text-anchor="middle" x="238.5" y="-151.5" font-family="Helvetica,sans-Serif" font-size="10.00">EditablePrefabsLabel_Size</text>
</a>
</g>
</g>
<!-- Node1&#45;&gt;Node7 -->
<g id="edge6" class="edge">
<title>Node1&#45;&gt;Node7</title>
<path fill="none" stroke="#63b8ff" d="M118.63,-184.33C144.07,-177.84 174.59,-170.05 198.34,-163.99"/>
<polygon fill="#63b8ff" stroke="#63b8ff" points="117.9,-181.16 109.08,-187.03 119.64,-187.95 117.9,-181.16"/>
</g>
<!-- Node8 -->
<g id="node8" class="node">
<title>Node8</title>
<g id="a_node8"><a xlink:href="interfaceEditablePrefabsLabel__Theme.html" target="_top" xlink:title=" ">
<polygon fill="white" stroke="#666666" points="292.5,-126 184.5,-126 184.5,-96 292.5,-96 292.5,-126"/>
<text text-anchor="start" x="192.5" y="-114" font-family="Helvetica,sans-Serif" font-size="10.00">EditablePrefabsLabel</text>
<text text-anchor="middle" x="238.5" y="-103" font-family="Helvetica,sans-Serif" font-size="10.00">_Theme</text>
</a>
</g>
</g>
<!-- Node1&#45;&gt;Node8 -->
<g id="edge7" class="edge">
<title>Node1&#45;&gt;Node8</title>
<path fill="none" stroke="#63b8ff" d="M93.11,-181.13C113.58,-168.05 144.01,-149.51 172,-136 179.02,-132.61 186.62,-129.36 194.07,-126.38"/>
<polygon fill="#63b8ff" stroke="#63b8ff" points="91.41,-178.71 84.91,-187.07 95.21,-184.59 91.41,-178.71"/>
</g>
<!-- Node9 -->
<g id="node9" class="node">
<title>Node9</title>
<g id="a_node9"><a xlink:href="interfaceEditablePrefabsLabel__Trait.html" target="_top" xlink:title=" ">
<polygon fill="white" stroke="#666666" points="292.5,-78 184.5,-78 184.5,-48 292.5,-48 292.5,-78"/>
<text text-anchor="start" x="192.5" y="-66" font-family="Helvetica,sans-Serif" font-size="10.00">EditablePrefabsLabel</text>
<text text-anchor="middle" x="238.5" y="-55" font-family="Helvetica,sans-Serif" font-size="10.00">_Trait</text>
</a>
</g>
</g>
<!-- Node1&#45;&gt;Node9 -->
<g id="edge8" class="edge">
<title>Node1&#45;&gt;Node9</title>
<path fill="none" stroke="#63b8ff" d="M82.24,-178.12C100.09,-153.93 134.04,-112.13 172,-87 176.85,-83.79 182.18,-80.94 187.64,-78.43"/>
<polygon fill="#63b8ff" stroke="#63b8ff" points="78.83,-175.87 75.81,-186.02 84.5,-179.96 78.83,-175.87"/>
</g>
<!-- Node10 -->
<g id="node10" class="node">
<title>Node10</title>
<g id="a_node10"><a xlink:href="interfaceEditablePrefabsLabel__VehicleType.html" target="_top" xlink:title=" ">
<polygon fill="white" stroke="#666666" points="292.5,-30 184.5,-30 184.5,0 292.5,0 292.5,-30"/>
<text text-anchor="start" x="192.5" y="-18" font-family="Helvetica,sans-Serif" font-size="10.00">EditablePrefabsLabel</text>
<text text-anchor="middle" x="238.5" y="-7" font-family="Helvetica,sans-Serif" font-size="10.00">_VehicleType</text>
</a>
</g>
</g>
<!-- Node1&#45;&gt;Node10 -->
<g id="edge9" class="edge">
<title>Node1&#45;&gt;Node10</title>
<path fill="none" stroke="#63b8ff" d="M76.8,-177.47C90.94,-144.41 123.89,-77.29 172,-39 176.07,-35.76 180.63,-32.93 185.39,-30.46"/>
<polygon fill="#63b8ff" stroke="#63b8ff" points="73.32,-175.71 72.73,-186.29 79.79,-178.39 73.32,-175.71"/>
</g>
</g>
</svg>
