<?xml version="1.0" encoding="UTF-8" standalone="no"?>
<!DOCTYPE svg PUBLIC "-//W3C//DTD SVG 1.1//EN"
 "http://www.w3.org/Graphics/SVG/1.1/DTD/svg11.dtd">
<!-- Generated by graphviz version 8.0.2 (20230410.1723)
 -->
<!-- Title: SCR_TextAndWarningTooltipDetail Pages: 1 -->
<svg width="155pt" height="159pt"
 viewBox="0.00 0.00 155.00 159.00" xmlns="http://www.w3.org/2000/svg" xmlns:xlink="http://www.w3.org/1999/xlink">
<g id="graph0" class="graph" transform="scale(1 1) rotate(0) translate(4 155)">
<title>SCR_TextAndWarningTooltipDetail</title>
<!-- Node1 -->
<g id="node1" class="node">
<title>Node1</title>
<g id="a_node1"><a xlink:title=" ">
<polygon fill="#999999" stroke="#666666" points="145,-96 2,-96 2,-66 145,-66 145,-96"/>
<text text-anchor="start" x="10" y="-84" font-family="Helvetica,sans-Serif" font-size="10.00">SCR_TextAndWarningTooltip</text>
<text text-anchor="middle" x="73.5" y="-73" font-family="Helvetica,sans-Serif" font-size="10.00">Detail</text>
</a>
</g>
</g>
<!-- Node3 -->
<g id="node3" class="node">
<title>Node3</title>
<g id="a_node3"><a xlink:href="interfaceSCR__FactionTasksAndSpawnPointsTooltipDetail.html" target="_top" xlink:title=" ">
<polygon fill="white" stroke="#666666" points="147,-30 0,-30 0,0 147,0 147,-30"/>
<text text-anchor="start" x="8" y="-18" font-family="Helvetica,sans-Serif" font-size="10.00">SCR_FactionTasksAndSpawn</text>
<text text-anchor="middle" x="73.5" y="-7" font-family="Helvetica,sans-Serif" font-size="10.00">PointsTooltipDetail</text>
</a>
</g>
</g>
<!-- Node1&#45;&gt;Node3 -->
<g id="edge2" class="edge">
<title>Node1&#45;&gt;Node3</title>
<path fill="none" stroke="#63b8ff" d="M73.5,-54.97C73.5,-46.55 73.5,-37.45 73.5,-30.16"/>
<polygon fill="#63b8ff" stroke="#63b8ff" points="70,-54.8 73.5,-64.8 77,-54.8 70,-54.8"/>
</g>
<!-- Node2 -->
<g id="node2" class="node">
<title>Node2</title>
<g id="a_node2"><a xlink:href="interfaceSCR__EntityTooltipDetail.html" target="_top" xlink:title=" ">
<polygon fill="white" stroke="#666666" points="134,-151 13,-151 13,-132 134,-132 134,-151"/>
<text text-anchor="middle" x="73.5" y="-139" font-family="Helvetica,sans-Serif" font-size="10.00">SCR_EntityTooltipDetail</text>
</a>
</g>
</g>
<!-- Node2&#45;&gt;Node1 -->
<g id="edge1" class="edge">
<title>Node2&#45;&gt;Node1</title>
<path fill="none" stroke="#63b8ff" d="M73.5,-121.08C73.5,-112.92 73.5,-103.6 73.5,-96.11"/>
<polygon fill="#63b8ff" stroke="#63b8ff" points="70,-120.87 73.5,-130.87 77,-120.87 70,-120.87"/>
</g>
</g>
</svg>
