<?xml version="1.0" encoding="UTF-8" standalone="no"?>
<!DOCTYPE svg PUBLIC "-//W3C//DTD SVG 1.1//EN"
 "http://www.w3.org/Graphics/SVG/1.1/DTD/svg11.dtd">
<!-- Generated by graphviz version 8.0.2 (20230410.1723)
 -->
<!-- Title: SCR_StatsPanelBase Pages: 1 -->
<svg width="437pt" height="357pt"
 viewBox="0.00 0.00 437.00 357.00" xmlns="http://www.w3.org/2000/svg" xmlns:xlink="http://www.w3.org/1999/xlink">
<g id="graph0" class="graph" transform="scale(1 1) rotate(0) translate(4 353)">
<title>SCR_StatsPanelBase</title>
<!-- Node1 -->
<g id="node1" class="node">
<title>Node1</title>
<g id="a_node1"><a xlink:title=" ">
<polygon fill="#999999" stroke="#666666" points="255,-74 142,-74 142,-55 255,-55 255,-74"/>
<text text-anchor="middle" x="198.5" y="-62" font-family="Helvetica,sans-Serif" font-size="10.00">SCR_StatsPanelBase</text>
</a>
</g>
</g>
<!-- Node7 -->
<g id="node7" class="node">
<title>Node7</title>
<g id="a_node7"><a xlink:href="interfaceSCR__StatsPanel__FPS.html" target="_top" xlink:title=" ">
<polygon fill="white" stroke="#666666" points="115,-19 0,-19 0,0 115,0 115,-19"/>
<text text-anchor="middle" x="57.5" y="-7" font-family="Helvetica,sans-Serif" font-size="10.00">SCR_StatsPanel_FPS</text>
</a>
</g>
</g>
<!-- Node1&#45;&gt;Node7 -->
<g id="edge6" class="edge">
<title>Node1&#45;&gt;Node7</title>
<path fill="none" stroke="#63b8ff" d="M164.48,-50.71C138.68,-41.01 103.87,-27.93 81.07,-19.36"/>
<polygon fill="#63b8ff" stroke="#63b8ff" points="162.99,-54.27 173.58,-54.51 165.45,-47.71 162.99,-54.27"/>
</g>
<!-- Node8 -->
<g id="node8" class="node">
<title>Node8</title>
<g id="a_node8"><a xlink:href="interfaceSCR__StatsPanel__Latency.html" target="_top" xlink:title=" ">
<polygon fill="white" stroke="#666666" points="263.5,-19 133.5,-19 133.5,0 263.5,0 263.5,-19"/>
<text text-anchor="middle" x="198.5" y="-7" font-family="Helvetica,sans-Serif" font-size="10.00">SCR_StatsPanel_Latency</text>
</a>
</g>
</g>
<!-- Node1&#45;&gt;Node8 -->
<g id="edge7" class="edge">
<title>Node1&#45;&gt;Node8</title>
<path fill="none" stroke="#63b8ff" d="M198.5,-43.93C198.5,-35.53 198.5,-26.13 198.5,-19.44"/>
<polygon fill="#63b8ff" stroke="#63b8ff" points="195,-43.75 198.5,-53.75 202,-43.75 195,-43.75"/>
</g>
<!-- Node9 -->
<g id="node9" class="node">
<title>Node9</title>
<g id="a_node9"><a xlink:href="interfaceSCR__StatsPanel__PacketLoss.html" target="_top" xlink:title=" ">
<polygon fill="white" stroke="#666666" points="429,-19 282,-19 282,0 429,0 429,-19"/>
<text text-anchor="middle" x="355.5" y="-7" font-family="Helvetica,sans-Serif" font-size="10.00">SCR_StatsPanel_PacketLoss</text>
</a>
</g>
</g>
<!-- Node1&#45;&gt;Node9 -->
<g id="edge8" class="edge">
<title>Node1&#45;&gt;Node9</title>
<path fill="none" stroke="#63b8ff" d="M235.2,-51.11C263.95,-41.41 303.25,-28.14 329,-19.45"/>
<polygon fill="#63b8ff" stroke="#63b8ff" points="234.49,-47.99 226.13,-54.51 236.73,-54.63 234.49,-47.99"/>
</g>
<!-- Node2 -->
<g id="node2" class="node">
<title>Node2</title>
<g id="a_node2"><a xlink:href="interfaceSCR__InfoDisplayExtended.html" target="_top" xlink:title=" ">
<polygon fill="white" stroke="#666666" points="264,-129 133,-129 133,-110 264,-110 264,-129"/>
<text text-anchor="middle" x="198.5" y="-117" font-family="Helvetica,sans-Serif" font-size="10.00">SCR_InfoDisplayExtended</text>
</a>
</g>
</g>
<!-- Node2&#45;&gt;Node1 -->
<g id="edge1" class="edge">
<title>Node2&#45;&gt;Node1</title>
<path fill="none" stroke="#63b8ff" d="M198.5,-98.93C198.5,-90.53 198.5,-81.13 198.5,-74.44"/>
<polygon fill="#63b8ff" stroke="#63b8ff" points="195,-98.75 198.5,-108.75 202,-98.75 195,-98.75"/>
</g>
<!-- Node3 -->
<g id="node3" class="node">
<title>Node3</title>
<g id="a_node3"><a xlink:href="interfaceSCR__InfoDisplay.html" target="_top" xlink:title=" ">
<polygon fill="white" stroke="#666666" points="243,-184 154,-184 154,-165 243,-165 243,-184"/>
<text text-anchor="middle" x="198.5" y="-172" font-family="Helvetica,sans-Serif" font-size="10.00">SCR_InfoDisplay</text>
</a>
</g>
</g>
<!-- Node3&#45;&gt;Node2 -->
<g id="edge2" class="edge">
<title>Node3&#45;&gt;Node2</title>
<path fill="none" stroke="#63b8ff" d="M198.5,-153.93C198.5,-145.53 198.5,-136.13 198.5,-129.44"/>
<polygon fill="#63b8ff" stroke="#63b8ff" points="195,-153.75 198.5,-163.75 202,-153.75 195,-153.75"/>
</g>
<!-- Node4 -->
<g id="node4" class="node">
<title>Node4</title>
<g id="a_node4"><a xlink:href="interfaceGroupInfoDisplay.html" target="_top" xlink:title=" ">
<polygon fill="white" stroke="#666666" points="243.5,-239 153.5,-239 153.5,-220 243.5,-220 243.5,-239"/>
<text text-anchor="middle" x="198.5" y="-227" font-family="Helvetica,sans-Serif" font-size="10.00">GroupInfoDisplay</text>
</a>
</g>
</g>
<!-- Node4&#45;&gt;Node3 -->
<g id="edge3" class="edge">
<title>Node4&#45;&gt;Node3</title>
<path fill="none" stroke="#63b8ff" d="M198.5,-208.93C198.5,-200.53 198.5,-191.13 198.5,-184.44"/>
<polygon fill="#63b8ff" stroke="#63b8ff" points="195,-208.75 198.5,-218.75 202,-208.75 195,-208.75"/>
</g>
<!-- Node5 -->
<g id="node5" class="node">
<title>Node5</title>
<g id="a_node5"><a xlink:href="interfaceBaseInfoDisplay.html" target="_top" xlink:title=" ">
<polygon fill="white" stroke="#666666" points="241.5,-294 155.5,-294 155.5,-275 241.5,-275 241.5,-294"/>
<text text-anchor="middle" x="198.5" y="-282" font-family="Helvetica,sans-Serif" font-size="10.00">BaseInfoDisplay</text>
</a>
</g>
</g>
<!-- Node5&#45;&gt;Node4 -->
<g id="edge4" class="edge">
<title>Node5&#45;&gt;Node4</title>
<path fill="none" stroke="#63b8ff" d="M198.5,-263.93C198.5,-255.53 198.5,-246.13 198.5,-239.44"/>
<polygon fill="#63b8ff" stroke="#63b8ff" points="195,-263.75 198.5,-273.75 202,-263.75 195,-263.75"/>
</g>
<!-- Node6 -->
<g id="node6" class="node">
<title>Node6</title>
<g id="a_node6"><a xlink:title=" ">
<polygon fill="white" stroke="#666666" points="241.5,-349 155.5,-349 155.5,-330 241.5,-330 241.5,-349"/>
<text text-anchor="middle" x="198.5" y="-337" font-family="Helvetica,sans-Serif" font-size="10.00">ScriptAndConfig</text>
</a>
</g>
</g>
<!-- Node6&#45;&gt;Node5 -->
<g id="edge5" class="edge">
<title>Node6&#45;&gt;Node5</title>
<path fill="none" stroke="#63b8ff" d="M198.5,-318.93C198.5,-310.53 198.5,-301.13 198.5,-294.44"/>
<polygon fill="#63b8ff" stroke="#63b8ff" points="195,-318.75 198.5,-328.75 202,-318.75 195,-318.75"/>
</g>
</g>
</svg>
