<?xml version="1.0" encoding="UTF-8" standalone="no"?>
<!DOCTYPE svg PUBLIC "-//W3C//DTD SVG 1.1//EN"
 "http://www.w3.org/Graphics/SVG/1.1/DTD/svg11.dtd">
<!-- Generated by graphviz version 8.0.2 (20230410.1723)
 -->
<!-- Title: BaseMuzzleComponent Pages: 1 -->
<svg width="338pt" height="247pt"
 viewBox="0.00 0.00 337.50 247.00" xmlns="http://www.w3.org/2000/svg" xmlns:xlink="http://www.w3.org/1999/xlink">
<g id="graph0" class="graph" transform="scale(1 1) rotate(0) translate(4 243)">
<title>BaseMuzzleComponent</title>
<!-- Node1 -->
<g id="node1" class="node">
<title>Node1</title>
<g id="a_node1"><a xlink:title=" ">
<polygon fill="#999999" stroke="#666666" points="173,-129 53,-129 53,-110 173,-110 173,-129"/>
<text text-anchor="middle" x="113" y="-117" font-family="Helvetica,sans-Serif" font-size="10.00">BaseMuzzleComponent</text>
</a>
</g>
</g>
<!-- Node4 -->
<g id="node4" class="node">
<title>Node4</title>
<g id="a_node4"><a xlink:href="interfaceMuzzleComponent.html" target="_top" xlink:title=" ">
<polygon fill="white" stroke="#666666" points="98,-74 0,-74 0,-55 98,-55 98,-74"/>
<text text-anchor="middle" x="49" y="-62" font-family="Helvetica,sans-Serif" font-size="10.00">MuzzleComponent</text>
</a>
</g>
</g>
<!-- Node1&#45;&gt;Node4 -->
<g id="edge3" class="edge">
<title>Node1&#45;&gt;Node4</title>
<path fill="none" stroke="#63b8ff" d="M93.85,-102.64C82.67,-93.39 68.99,-82.05 59.7,-74.36"/>
<polygon fill="#63b8ff" stroke="#63b8ff" points="91.21,-105.83 101.14,-109.51 95.67,-100.44 91.21,-105.83"/>
</g>
<!-- Node5 -->
<g id="node5" class="node">
<title>Node5</title>
<g id="a_node5"><a xlink:href="interfaceMuzzleInMagComponent.html" target="_top" xlink:title=" ">
<polygon fill="white" stroke="#666666" points="240,-74 116,-74 116,-55 240,-55 240,-74"/>
<text text-anchor="middle" x="178" y="-62" font-family="Helvetica,sans-Serif" font-size="10.00">MuzzleInMagComponent</text>
</a>
</g>
</g>
<!-- Node1&#45;&gt;Node5 -->
<g id="edge4" class="edge">
<title>Node1&#45;&gt;Node5</title>
<path fill="none" stroke="#63b8ff" d="M132.45,-102.64C143.8,-93.39 157.7,-82.05 167.14,-74.36"/>
<polygon fill="#63b8ff" stroke="#63b8ff" points="130.56,-100.48 125.03,-109.51 134.99,-105.9 130.56,-100.48"/>
</g>
<!-- Node2 -->
<g id="node2" class="node">
<title>Node2</title>
<g id="a_node2"><a xlink:href="interfaceGameComponent.html" target="_top" xlink:title=" ">
<polygon fill="white" stroke="#666666" points="159,-184 67,-184 67,-165 159,-165 159,-184"/>
<text text-anchor="middle" x="113" y="-172" font-family="Helvetica,sans-Serif" font-size="10.00">GameComponent</text>
</a>
</g>
</g>
<!-- Node2&#45;&gt;Node1 -->
<g id="edge1" class="edge">
<title>Node2&#45;&gt;Node1</title>
<path fill="none" stroke="#63b8ff" d="M113,-153.93C113,-145.53 113,-136.13 113,-129.44"/>
<polygon fill="#63b8ff" stroke="#63b8ff" points="109.5,-153.75 113,-163.75 116.5,-153.75 109.5,-153.75"/>
</g>
<!-- Node3 -->
<g id="node3" class="node">
<title>Node3</title>
<g id="a_node3"><a xlink:title=" ">
<polygon fill="white" stroke="#666666" points="163,-239 63,-239 63,-220 163,-220 163,-239"/>
<text text-anchor="middle" x="113" y="-227" font-family="Helvetica,sans-Serif" font-size="10.00">GenericComponent</text>
</a>
</g>
</g>
<!-- Node3&#45;&gt;Node2 -->
<g id="edge2" class="edge">
<title>Node3&#45;&gt;Node2</title>
<path fill="none" stroke="#63b8ff" d="M113,-208.93C113,-200.53 113,-191.13 113,-184.44"/>
<polygon fill="#63b8ff" stroke="#63b8ff" points="109.5,-208.75 113,-218.75 116.5,-208.75 109.5,-208.75"/>
</g>
<!-- Node6 -->
<g id="node6" class="node">
<title>Node6</title>
<g id="a_node6"><a xlink:href="interfaceMortarMuzzleComponent.html" target="_top" xlink:title=" ">
<polygon fill="white" stroke="#666666" points="162.5,-19 37.5,-19 37.5,0 162.5,0 162.5,-19"/>
<text text-anchor="middle" x="100" y="-7" font-family="Helvetica,sans-Serif" font-size="10.00">MortarMuzzleComponent</text>
</a>
</g>
</g>
<!-- Node5&#45;&gt;Node6 -->
<g id="edge5" class="edge">
<title>Node5&#45;&gt;Node6</title>
<path fill="none" stroke="#63b8ff" d="M155.87,-48.46C142.03,-39.06 124.7,-27.28 113.04,-19.36"/>
<polygon fill="#63b8ff" stroke="#63b8ff" points="153.53,-51.78 163.77,-54.51 157.46,-45.99 153.53,-51.78"/>
</g>
<!-- Node7 -->
<g id="node7" class="node">
<title>Node7</title>
<g id="a_node7"><a xlink:href="interfaceSCR__MuzzleInMagComponent.html" target="_top" xlink:title=" ">
<polygon fill="white" stroke="#666666" points="329.5,-19 180.5,-19 180.5,0 329.5,0 329.5,-19"/>
<text text-anchor="middle" x="255" y="-7" font-family="Helvetica,sans-Serif" font-size="10.00">SCR_MuzzleInMagComponent</text>
</a>
</g>
</g>
<!-- Node5&#45;&gt;Node7 -->
<g id="edge6" class="edge">
<title>Node5&#45;&gt;Node7</title>
<path fill="none" stroke="#63b8ff" d="M199.85,-48.46C213.5,-39.06 230.62,-27.28 242.13,-19.36"/>
<polygon fill="#63b8ff" stroke="#63b8ff" points="198.31,-45.96 192.06,-54.51 202.28,-51.72 198.31,-45.96"/>
</g>
</g>
</svg>
