<?xml version="1.0" encoding="UTF-8" standalone="no"?>
<!DOCTYPE svg PUBLIC "-//W3C//DTD SVG 1.1//EN"
 "http://www.w3.org/Graphics/SVG/1.1/DTD/svg11.dtd">
<!-- Generated by graphviz version 8.0.2 (20230410.1723)
 -->
<!-- Title: CameraBaseClass Pages: 1 -->
<svg width="539pt" height="192pt"
 viewBox="0.00 0.00 538.50 192.00" xmlns="http://www.w3.org/2000/svg" xmlns:xlink="http://www.w3.org/1999/xlink">
<g id="graph0" class="graph" transform="scale(1 1) rotate(0) translate(4 188)">
<title>CameraBaseClass</title>
<!-- Node1 -->
<g id="node1" class="node">
<title>Node1</title>
<g id="a_node1"><a xlink:title=" ">
<polygon fill="#999999" stroke="#666666" points="300.5,-129 202.5,-129 202.5,-110 300.5,-110 300.5,-129"/>
<text text-anchor="middle" x="251.5" y="-117" font-family="Helvetica,sans-Serif" font-size="10.00">CameraBaseClass</text>
</a>
</g>
</g>
<!-- Node3 -->
<g id="node3" class="node">
<title>Node3</title>
<g id="a_node3"><a xlink:href="interfacePlayerCameraClass.html" target="_top" xlink:title=" ">
<polygon fill="white" stroke="#666666" points="103,-74 0,-74 0,-55 103,-55 103,-74"/>
<text text-anchor="middle" x="51.5" y="-62" font-family="Helvetica,sans-Serif" font-size="10.00">PlayerCameraClass</text>
</a>
</g>
</g>
<!-- Node1&#45;&gt;Node3 -->
<g id="edge2" class="edge">
<title>Node1&#45;&gt;Node3</title>
<path fill="none" stroke="#63b8ff" d="M207.14,-106.74C170.33,-96.99 118.77,-83.33 85.26,-74.45"/>
<polygon fill="#63b8ff" stroke="#63b8ff" points="206.01,-110.33 216.57,-109.51 207.8,-103.56 206.01,-110.33"/>
</g>
<!-- Node4 -->
<g id="node4" class="node">
<title>Node4</title>
<g id="a_node4"><a xlink:href="interfaceSCR__CameraBaseClass.html" target="_top" xlink:title=" ">
<polygon fill="white" stroke="#666666" points="244,-74 121,-74 121,-55 244,-55 244,-74"/>
<text text-anchor="middle" x="182.5" y="-62" font-family="Helvetica,sans-Serif" font-size="10.00">SCR_CameraBaseClass</text>
</a>
</g>
</g>
<!-- Node1&#45;&gt;Node4 -->
<g id="edge3" class="edge">
<title>Node1&#45;&gt;Node4</title>
<path fill="none" stroke="#63b8ff" d="M231.21,-102.92C219.1,-93.61 204.15,-82.13 194.03,-74.36"/>
<polygon fill="#63b8ff" stroke="#63b8ff" points="228.73,-106.19 238.8,-109.51 233,-100.64 228.73,-106.19"/>
</g>
<!-- Node7 -->
<g id="node7" class="node">
<title>Node7</title>
<g id="a_node7"><a xlink:href="interfaceSCR__PIPCameraClass.html" target="_top" xlink:title=" ">
<polygon fill="white" stroke="#666666" points="378.5,-74 262.5,-74 262.5,-55 378.5,-55 378.5,-74"/>
<text text-anchor="middle" x="320.5" y="-62" font-family="Helvetica,sans-Serif" font-size="10.00">SCR_PIPCameraClass</text>
</a>
</g>
</g>
<!-- Node1&#45;&gt;Node7 -->
<g id="edge6" class="edge">
<title>Node1&#45;&gt;Node7</title>
<path fill="none" stroke="#63b8ff" d="M271.79,-102.92C283.9,-93.61 298.85,-82.13 308.97,-74.36"/>
<polygon fill="#63b8ff" stroke="#63b8ff" points="270,-100.64 264.2,-109.51 274.27,-106.19 270,-100.64"/>
</g>
<!-- Node8 -->
<g id="node8" class="node">
<title>Node8</title>
<g id="a_node8"><a xlink:href="interfaceScriptedCameraBaseClass.html" target="_top" xlink:title=" ">
<polygon fill="white" stroke="#666666" points="530.5,-74 396.5,-74 396.5,-55 530.5,-55 530.5,-74"/>
<text text-anchor="middle" x="463.5" y="-62" font-family="Helvetica,sans-Serif" font-size="10.00">ScriptedCameraBaseClass</text>
</a>
</g>
</g>
<!-- Node1&#45;&gt;Node8 -->
<g id="edge7" class="edge">
<title>Node1&#45;&gt;Node8</title>
<path fill="none" stroke="#63b8ff" d="M298.02,-106.87C337.07,-97.11 392.04,-83.37 427.72,-74.45"/>
<polygon fill="#63b8ff" stroke="#63b8ff" points="297.32,-103.69 288.46,-109.51 299.01,-110.48 297.32,-103.69"/>
</g>
<!-- Node2 -->
<g id="node2" class="node">
<title>Node2</title>
<g id="a_node2"><a xlink:title=" ">
<polygon fill="white" stroke="#666666" points="302,-184 201,-184 201,-165 302,-165 302,-184"/>
<text text-anchor="middle" x="251.5" y="-172" font-family="Helvetica,sans-Serif" font-size="10.00">GenericEntityClass</text>
</a>
</g>
</g>
<!-- Node2&#45;&gt;Node1 -->
<g id="edge1" class="edge">
<title>Node2&#45;&gt;Node1</title>
<path fill="none" stroke="#63b8ff" d="M251.5,-153.93C251.5,-145.53 251.5,-136.13 251.5,-129.44"/>
<polygon fill="#63b8ff" stroke="#63b8ff" points="248,-153.75 251.5,-163.75 255,-153.75 248,-153.75"/>
</g>
<!-- Node5 -->
<g id="node5" class="node">
<title>Node5</title>
<g id="a_node5"><a xlink:href="interfaceSCR__DebugCameraEntityClass.html" target="_top" xlink:title=" ">
<polygon fill="white" stroke="#666666" points="179.5,-19 25.5,-19 25.5,0 179.5,0 179.5,-19"/>
<text text-anchor="middle" x="102.5" y="-7" font-family="Helvetica,sans-Serif" font-size="10.00">SCR_DebugCameraEntityClass</text>
</a>
</g>
</g>
<!-- Node4&#45;&gt;Node5 -->
<g id="edge4" class="edge">
<title>Node4&#45;&gt;Node5</title>
<path fill="none" stroke="#63b8ff" d="M159.8,-48.46C145.61,-39.06 127.83,-27.28 115.87,-19.36"/>
<polygon fill="#63b8ff" stroke="#63b8ff" points="157.66,-51.9 167.93,-54.51 161.53,-46.07 157.66,-51.9"/>
</g>
<!-- Node6 -->
<g id="node6" class="node">
<title>Node6</title>
<g id="a_node6"><a xlink:href="interfaceSCR__ManualCameraClass.html" target="_top" xlink:title=" ">
<polygon fill="white" stroke="#666666" points="329.5,-19 197.5,-19 197.5,0 329.5,0 329.5,-19"/>
<text text-anchor="middle" x="263.5" y="-7" font-family="Helvetica,sans-Serif" font-size="10.00">SCR_ManualCameraClass</text>
</a>
</g>
</g>
<!-- Node4&#45;&gt;Node6 -->
<g id="edge5" class="edge">
<title>Node4&#45;&gt;Node6</title>
<path fill="none" stroke="#63b8ff" d="M205.07,-48.73C219.5,-39.29 237.74,-27.36 249.96,-19.36"/>
<polygon fill="#63b8ff" stroke="#63b8ff" points="203.69,-46.11 197.24,-54.51 207.52,-51.96 203.69,-46.11"/>
</g>
</g>
</svg>
