<?xml version="1.0" encoding="UTF-8" standalone="no"?>
<!DOCTYPE svg PUBLIC "-//W3C//DTD SVG 1.1//EN"
 "http://www.w3.org/Graphics/SVG/1.1/DTD/svg11.dtd">
<!-- Generated by graphviz version 8.0.2 (20230410.1723)
 -->
<!-- Title: SCR_MineEquipHolsterAction Pages: 1 -->
<svg width="169pt" height="357pt"
 viewBox="0.00 0.00 169.00 357.00" xmlns="http://www.w3.org/2000/svg" xmlns:xlink="http://www.w3.org/1999/xlink">
<g id="graph0" class="graph" transform="scale(1 1) rotate(0) translate(4 353)">
<title>SCR_MineEquipHolsterAction</title>
<!-- Node1 -->
<g id="node1" class="node">
<title>Node1</title>
<g id="a_node1"><a xlink:title=" ">
<polygon fill="#999999" stroke="#666666" points="153.5,-19 7.5,-19 7.5,0 153.5,0 153.5,-19"/>
<text text-anchor="middle" x="80.5" y="-7" font-family="Helvetica,sans-Serif" font-size="10.00">SCR_MineEquipHolsterAction</text>
</a>
</g>
</g>
<!-- Node2 -->
<g id="node2" class="node">
<title>Node2</title>
<g id="a_node2"><a xlink:href="interfaceSCR__EquipWeaponHolsterAction.html" target="_top" xlink:title="Pickup weapon to holster position, without equipping it.">
<polygon fill="white" stroke="#666666" points="161,-74 0,-74 0,-55 161,-55 161,-74"/>
<text text-anchor="middle" x="80.5" y="-62" font-family="Helvetica,sans-Serif" font-size="10.00">SCR_EquipWeaponHolsterAction</text>
</a>
</g>
</g>
<!-- Node2&#45;&gt;Node1 -->
<g id="edge1" class="edge">
<title>Node2&#45;&gt;Node1</title>
<path fill="none" stroke="#63b8ff" d="M80.5,-43.93C80.5,-35.53 80.5,-26.13 80.5,-19.44"/>
<polygon fill="#63b8ff" stroke="#63b8ff" points="77,-43.75 80.5,-53.75 84,-43.75 77,-43.75"/>
</g>
<!-- Node3 -->
<g id="node3" class="node">
<title>Node3</title>
<g id="a_node3"><a xlink:href="interfaceSCR__BaseWeaponAction.html" target="_top" xlink:title=" ">
<polygon fill="white" stroke="#666666" points="144.5,-129 16.5,-129 16.5,-110 144.5,-110 144.5,-129"/>
<text text-anchor="middle" x="80.5" y="-117" font-family="Helvetica,sans-Serif" font-size="10.00">SCR_BaseWeaponAction</text>
</a>
</g>
</g>
<!-- Node3&#45;&gt;Node2 -->
<g id="edge2" class="edge">
<title>Node3&#45;&gt;Node2</title>
<path fill="none" stroke="#63b8ff" d="M80.5,-98.93C80.5,-90.53 80.5,-81.13 80.5,-74.44"/>
<polygon fill="#63b8ff" stroke="#63b8ff" points="77,-98.75 80.5,-108.75 84,-98.75 77,-98.75"/>
</g>
<!-- Node4 -->
<g id="node4" class="node">
<title>Node4</title>
<g id="a_node4"><a xlink:href="interfaceSCR__InventoryAction.html" target="_top" xlink:title="modded version for to be used with the inventory 2.0">
<polygon fill="white" stroke="#666666" points="134.5,-184 26.5,-184 26.5,-165 134.5,-165 134.5,-184"/>
<text text-anchor="middle" x="80.5" y="-172" font-family="Helvetica,sans-Serif" font-size="10.00">SCR_InventoryAction</text>
</a>
</g>
</g>
<!-- Node4&#45;&gt;Node3 -->
<g id="edge3" class="edge">
<title>Node4&#45;&gt;Node3</title>
<path fill="none" stroke="#63b8ff" d="M80.5,-153.93C80.5,-145.53 80.5,-136.13 80.5,-129.44"/>
<polygon fill="#63b8ff" stroke="#63b8ff" points="77,-153.75 80.5,-163.75 84,-153.75 77,-153.75"/>
</g>
<!-- Node5 -->
<g id="node5" class="node">
<title>Node5</title>
<g id="a_node5"><a xlink:href="interfaceScriptedUserAction.html" target="_top" xlink:title=" ">
<polygon fill="white" stroke="#666666" points="131,-239 30,-239 30,-220 131,-220 131,-239"/>
<text text-anchor="middle" x="80.5" y="-227" font-family="Helvetica,sans-Serif" font-size="10.00">ScriptedUserAction</text>
</a>
</g>
</g>
<!-- Node5&#45;&gt;Node4 -->
<g id="edge4" class="edge">
<title>Node5&#45;&gt;Node4</title>
<path fill="none" stroke="#63b8ff" d="M80.5,-208.93C80.5,-200.53 80.5,-191.13 80.5,-184.44"/>
<polygon fill="#63b8ff" stroke="#63b8ff" points="77,-208.75 80.5,-218.75 84,-208.75 77,-208.75"/>
</g>
<!-- Node6 -->
<g id="node6" class="node">
<title>Node6</title>
<g id="a_node6"><a xlink:href="interfaceBaseUserAction.html" target="_top" xlink:title=" ">
<polygon fill="white" stroke="#666666" points="124,-294 37,-294 37,-275 124,-275 124,-294"/>
<text text-anchor="middle" x="80.5" y="-282" font-family="Helvetica,sans-Serif" font-size="10.00">BaseUserAction</text>
</a>
</g>
</g>
<!-- Node6&#45;&gt;Node5 -->
<g id="edge5" class="edge">
<title>Node6&#45;&gt;Node5</title>
<path fill="none" stroke="#63b8ff" d="M80.5,-263.93C80.5,-255.53 80.5,-246.13 80.5,-239.44"/>
<polygon fill="#63b8ff" stroke="#63b8ff" points="77,-263.75 80.5,-273.75 84,-263.75 77,-263.75"/>
</g>
<!-- Node7 -->
<g id="node7" class="node">
<title>Node7</title>
<g id="a_node7"><a xlink:title=" ">
<polygon fill="white" stroke="#666666" points="123.5,-349 37.5,-349 37.5,-330 123.5,-330 123.5,-349"/>
<text text-anchor="middle" x="80.5" y="-337" font-family="Helvetica,sans-Serif" font-size="10.00">ScriptAndConfig</text>
</a>
</g>
</g>
<!-- Node7&#45;&gt;Node6 -->
<g id="edge6" class="edge">
<title>Node7&#45;&gt;Node6</title>
<path fill="none" stroke="#63b8ff" d="M80.5,-318.93C80.5,-310.53 80.5,-301.13 80.5,-294.44"/>
<polygon fill="#63b8ff" stroke="#63b8ff" points="77,-318.75 80.5,-328.75 84,-318.75 77,-318.75"/>
</g>
</g>
</svg>
