<?xml version="1.0" encoding="UTF-8" standalone="no"?>
<!DOCTYPE svg PUBLIC "-//W3C//DTD SVG 1.1//EN"
 "http://www.w3.org/Graphics/SVG/1.1/DTD/svg11.dtd">
<!-- Generated by graphviz version 8.0.2 (20230410.1723)
 -->
<!-- Title: SCR_BaseCameraComponent Pages: 1 -->
<svg width="190pt" height="137pt"
 viewBox="0.00 0.00 190.00 137.00" xmlns="http://www.w3.org/2000/svg" xmlns:xlink="http://www.w3.org/1999/xlink">
<g id="graph0" class="graph" transform="scale(1 1) rotate(0) translate(4 133)">
<title>SCR_BaseCameraComponent</title>
<!-- Node1 -->
<g id="node1" class="node">
<title>Node1</title>
<g id="a_node1"><a xlink:title="Base component for SCR_CameraBase.">
<polygon fill="#999999" stroke="#666666" points="165,-74 17,-74 17,-55 165,-55 165,-74"/>
<text text-anchor="middle" x="91" y="-62" font-family="Helvetica,sans-Serif" font-size="10.00">SCR_BaseCameraComponent</text>
</a>
</g>
</g>
<!-- Node3 -->
<g id="node3" class="node">
<title>Node3</title>
<g id="a_node3"><a xlink:href="interfaceSCR__PostProcessCameraComponent.html" target="_top" xlink:title="Post&#45;process effect of scripted camera.">
<polygon fill="white" stroke="#666666" points="182,-19 0,-19 0,0 182,0 182,-19"/>
<text text-anchor="middle" x="91" y="-7" font-family="Helvetica,sans-Serif" font-size="10.00">SCR_PostProcessCameraComponent</text>
</a>
</g>
</g>
<!-- Node1&#45;&gt;Node3 -->
<g id="edge2" class="edge">
<title>Node1&#45;&gt;Node3</title>
<path fill="none" stroke="#63b8ff" d="M91,-43.93C91,-35.53 91,-26.13 91,-19.44"/>
<polygon fill="#63b8ff" stroke="#63b8ff" points="87.5,-43.75 91,-53.75 94.5,-43.75 87.5,-43.75"/>
</g>
<!-- Node2 -->
<g id="node2" class="node">
<title>Node2</title>
<g id="a_node2"><a xlink:title=" ">
<polygon fill="white" stroke="#666666" points="137,-129 45,-129 45,-110 137,-110 137,-129"/>
<text text-anchor="middle" x="91" y="-117" font-family="Helvetica,sans-Serif" font-size="10.00">ScriptComponent</text>
</a>
</g>
</g>
<!-- Node2&#45;&gt;Node1 -->
<g id="edge1" class="edge">
<title>Node2&#45;&gt;Node1</title>
<path fill="none" stroke="#63b8ff" d="M91,-98.93C91,-90.53 91,-81.13 91,-74.44"/>
<polygon fill="#63b8ff" stroke="#63b8ff" points="87.5,-98.75 91,-108.75 94.5,-98.75 87.5,-98.75"/>
</g>
</g>
</svg>
