<?xml version="1.0" encoding="UTF-8" standalone="no"?>
<!DOCTYPE svg PUBLIC "-//W3C//DTD SVG 1.1//EN"
 "http://www.w3.org/Graphics/SVG/1.1/DTD/svg11.dtd">
<!-- Generated by graphviz version 8.0.2 (20230410.1723)
 -->
<!-- Title: SCR_ModdedScenarioComponent Pages: 1 -->
<svg width="172pt" height="302pt"
 viewBox="0.00 0.00 172.00 302.00" xmlns="http://www.w3.org/2000/svg" xmlns:xlink="http://www.w3.org/1999/xlink">
<g id="graph0" class="graph" transform="scale(1 1) rotate(0) translate(4 298)">
<title>SCR_ModdedScenarioComponent</title>
<!-- Node1 -->
<g id="node1" class="node">
<title>Node1</title>
<g id="a_node1"><a xlink:title=" ">
<polygon fill="#999999" stroke="#666666" points="164,-19 0,-19 0,0 164,0 164,-19"/>
<text text-anchor="middle" x="82" y="-7" font-family="Helvetica,sans-Serif" font-size="10.00">SCR_ModdedScenarioComponent</text>
</a>
</g>
</g>
<!-- Node2 -->
<g id="node2" class="node">
<title>Node2</title>
<g id="a_node2"><a xlink:href="interfaceSCR__ButtonComponent.html" target="_top" xlink:title="Deprecated button component. Still used in many prefabs, so it works, it&#39;s just stripped of most of t...">
<polygon fill="white" stroke="#666666" points="142,-74 22,-74 22,-55 142,-55 142,-74"/>
<text text-anchor="middle" x="82" y="-62" font-family="Helvetica,sans-Serif" font-size="10.00">SCR_ButtonComponent</text>
</a>
</g>
</g>
<!-- Node2&#45;&gt;Node1 -->
<g id="edge1" class="edge">
<title>Node2&#45;&gt;Node1</title>
<path fill="none" stroke="#63b8ff" d="M82,-43.93C82,-35.53 82,-26.13 82,-19.44"/>
<polygon fill="#63b8ff" stroke="#63b8ff" points="78.5,-43.75 82,-53.75 85.5,-43.75 78.5,-43.75"/>
</g>
<!-- Node3 -->
<g id="node3" class="node">
<title>Node3</title>
<g id="a_node3"><a xlink:href="interfaceSCR__ButtonBaseComponent.html" target="_top" xlink:title="Base class for any button, regardless its own content.">
<polygon fill="white" stroke="#666666" points="153.5,-129 10.5,-129 10.5,-110 153.5,-110 153.5,-129"/>
<text text-anchor="middle" x="82" y="-117" font-family="Helvetica,sans-Serif" font-size="10.00">SCR_ButtonBaseComponent</text>
</a>
</g>
</g>
<!-- Node3&#45;&gt;Node2 -->
<g id="edge2" class="edge">
<title>Node3&#45;&gt;Node2</title>
<path fill="none" stroke="#63b8ff" d="M82,-98.93C82,-90.53 82,-81.13 82,-74.44"/>
<polygon fill="#63b8ff" stroke="#63b8ff" points="78.5,-98.75 82,-108.75 85.5,-98.75 78.5,-98.75"/>
</g>
<!-- Node4 -->
<g id="node4" class="node">
<title>Node4</title>
<g id="a_node4"><a xlink:href="interfaceSCR__WLibComponentBase.html" target="_top" xlink:title="Base class for all final Reforger interactive elements.">
<polygon fill="white" stroke="#666666" points="150.5,-184 13.5,-184 13.5,-165 150.5,-165 150.5,-184"/>
<text text-anchor="middle" x="82" y="-172" font-family="Helvetica,sans-Serif" font-size="10.00">SCR_WLibComponentBase</text>
</a>
</g>
</g>
<!-- Node4&#45;&gt;Node3 -->
<g id="edge3" class="edge">
<title>Node4&#45;&gt;Node3</title>
<path fill="none" stroke="#63b8ff" d="M82,-153.93C82,-145.53 82,-136.13 82,-129.44"/>
<polygon fill="#63b8ff" stroke="#63b8ff" points="78.5,-153.75 82,-163.75 85.5,-153.75 78.5,-153.75"/>
</g>
<!-- Node5 -->
<g id="node5" class="node">
<title>Node5</title>
<g id="a_node5"><a xlink:href="interfaceSCR__ScriptedWidgetComponent.html" target="_top" xlink:title=" ">
<polygon fill="white" stroke="#666666" points="161,-239 3,-239 3,-220 161,-220 161,-239"/>
<text text-anchor="middle" x="82" y="-227" font-family="Helvetica,sans-Serif" font-size="10.00">SCR_ScriptedWidgetComponent</text>
</a>
</g>
</g>
<!-- Node5&#45;&gt;Node4 -->
<g id="edge4" class="edge">
<title>Node5&#45;&gt;Node4</title>
<path fill="none" stroke="#63b8ff" d="M82,-208.93C82,-200.53 82,-191.13 82,-184.44"/>
<polygon fill="#63b8ff" stroke="#63b8ff" points="78.5,-208.75 82,-218.75 85.5,-208.75 78.5,-208.75"/>
</g>
<!-- Node6 -->
<g id="node6" class="node">
<title>Node6</title>
<g id="a_node6"><a xlink:title=" ">
<polygon fill="white" stroke="#666666" points="148.5,-294 15.5,-294 15.5,-275 148.5,-275 148.5,-294"/>
<text text-anchor="middle" x="82" y="-282" font-family="Helvetica,sans-Serif" font-size="10.00">ScriptedWidgetComponent</text>
</a>
</g>
</g>
<!-- Node6&#45;&gt;Node5 -->
<g id="edge5" class="edge">
<title>Node6&#45;&gt;Node5</title>
<path fill="none" stroke="#63b8ff" d="M82,-263.93C82,-255.53 82,-246.13 82,-239.44"/>
<polygon fill="#63b8ff" stroke="#63b8ff" points="78.5,-263.75 82,-273.75 85.5,-263.75 78.5,-263.75"/>
</g>
</g>
</svg>
