<?xml version="1.0" encoding="UTF-8" standalone="no"?>
<!DOCTYPE svg PUBLIC "-//W3C//DTD SVG 1.1//EN"
 "http://www.w3.org/Graphics/SVG/1.1/DTD/svg11.dtd">
<!-- Generated by graphviz version 8.0.2 (20230410.1723)
 -->
<!-- Title: SCR_VotingEditorWithdraw Pages: 1 -->
<svg width="144pt" height="192pt"
 viewBox="0.00 0.00 144.00 192.00" xmlns="http://www.w3.org/2000/svg" xmlns:xlink="http://www.w3.org/1999/xlink">
<g id="graph0" class="graph" transform="scale(1 1) rotate(0) translate(4 188)">
<title>SCR_VotingEditorWithdraw</title>
<!-- Node1 -->
<g id="node1" class="node">
<title>Node1</title>
<g id="a_node1"><a xlink:title=" ">
<polygon fill="#999999" stroke="#666666" points="136,-19 0,-19 0,0 136,0 136,-19"/>
<text text-anchor="middle" x="68" y="-7" font-family="Helvetica,sans-Serif" font-size="10.00">SCR_VotingEditorWithdraw</text>
</a>
</g>
</g>
<!-- Node2 -->
<g id="node2" class="node">
<title>Node2</title>
<g id="a_node2"><a xlink:href="interfaceSCR__VotingEditorIn.html" target="_top" xlink:title=" ">
<polygon fill="white" stroke="#666666" points="119.5,-74 16.5,-74 16.5,-55 119.5,-55 119.5,-74"/>
<text text-anchor="middle" x="68" y="-62" font-family="Helvetica,sans-Serif" font-size="10.00">SCR_VotingEditorIn</text>
</a>
</g>
</g>
<!-- Node2&#45;&gt;Node1 -->
<g id="edge1" class="edge">
<title>Node2&#45;&gt;Node1</title>
<path fill="none" stroke="#63b8ff" d="M68,-43.93C68,-35.53 68,-26.13 68,-19.44"/>
<polygon fill="#63b8ff" stroke="#63b8ff" points="64.5,-43.75 68,-53.75 71.5,-43.75 64.5,-43.75"/>
</g>
<!-- Node3 -->
<g id="node3" class="node">
<title>Node3</title>
<g id="a_node3"><a xlink:href="interfaceSCR__VotingReferendum.html" target="_top" xlink:title="Referendum about specific outcome.">
<polygon fill="white" stroke="#666666" points="129,-129 7,-129 7,-110 129,-110 129,-129"/>
<text text-anchor="middle" x="68" y="-117" font-family="Helvetica,sans-Serif" font-size="10.00">SCR_VotingReferendum</text>
</a>
</g>
</g>
<!-- Node3&#45;&gt;Node2 -->
<g id="edge2" class="edge">
<title>Node3&#45;&gt;Node2</title>
<path fill="none" stroke="#63b8ff" d="M68,-98.93C68,-90.53 68,-81.13 68,-74.44"/>
<polygon fill="#63b8ff" stroke="#63b8ff" points="64.5,-98.75 68,-108.75 71.5,-98.75 64.5,-98.75"/>
</g>
<!-- Node4 -->
<g id="node4" class="node">
<title>Node4</title>
<g id="a_node4"><a xlink:href="interfaceSCR__VotingBase.html" target="_top" xlink:title="Base class for voting types.">
<polygon fill="white" stroke="#666666" points="114,-184 22,-184 22,-165 114,-165 114,-184"/>
<text text-anchor="middle" x="68" y="-172" font-family="Helvetica,sans-Serif" font-size="10.00">SCR_VotingBase</text>
</a>
</g>
</g>
<!-- Node4&#45;&gt;Node3 -->
<g id="edge3" class="edge">
<title>Node4&#45;&gt;Node3</title>
<path fill="none" stroke="#63b8ff" d="M68,-153.93C68,-145.53 68,-136.13 68,-129.44"/>
<polygon fill="#63b8ff" stroke="#63b8ff" points="64.5,-153.75 68,-163.75 71.5,-153.75 64.5,-153.75"/>
</g>
</g>
</svg>
