<?xml version="1.0" encoding="UTF-8" standalone="no"?>
<!DOCTYPE svg PUBLIC "-//W3C//DTD SVG 1.1//EN"
 "http://www.w3.org/Graphics/SVG/1.1/DTD/svg11.dtd">
<!-- Generated by graphviz version 8.0.2 (20230410.1723)
 -->
<!-- Title: SCR_BaseModeEditorUIComponent Pages: 1 -->
<svg width="744pt" height="175pt"
 viewBox="0.00 0.00 744.00 175.00" xmlns="http://www.w3.org/2000/svg" xmlns:xlink="http://www.w3.org/1999/xlink">
<g id="graph0" class="graph" transform="scale(1 1) rotate(0) translate(4 171)">
<title>SCR_BaseModeEditorUIComponent</title>
<!-- Node1 -->
<g id="node1" class="node">
<title>Node1</title>
<g id="a_node1"><a xlink:title=" ">
<polygon fill="#999999" stroke="#666666" points="506,-93 333,-93 333,-74 506,-74 506,-93"/>
<text text-anchor="middle" x="419.5" y="-81" font-family="Helvetica,sans-Serif" font-size="10.00">SCR_BaseModeEditorUIComponent</text>
</a>
</g>
</g>
<!-- Node4 -->
<g id="node4" class="node">
<title>Node4</title>
<g id="a_node4"><a xlink:href="interfaceSCR__AdminModeEditorUIComponent.html" target="_top" xlink:title=" ">
<polygon fill="white" stroke="#666666" points="728,-167 550,-167 550,-148 728,-148 728,-167"/>
<text text-anchor="middle" x="639" y="-155" font-family="Helvetica,sans-Serif" font-size="10.00">SCR_AdminModeEditorUIComponent</text>
</a>
</g>
</g>
<!-- Node1&#45;&gt;Node4 -->
<g id="edge3" class="edge">
<title>Node1&#45;&gt;Node4</title>
<path fill="none" stroke="#63b8ff" d="M448.01,-98.56C472.14,-111.19 508.5,-128.82 542,-139.5 551.86,-142.64 562.46,-145.31 572.91,-147.55"/>
<polygon fill="#63b8ff" stroke="#63b8ff" points="449.93,-95.09 439.46,-93.49 446.65,-101.28 449.93,-95.09"/>
</g>
<!-- Node5 -->
<g id="node5" class="node">
<title>Node5</title>
<g id="a_node5"><a xlink:href="interfaceSCR__CommandModeEditorUIComponent.html" target="_top" xlink:title=" ">
<polygon fill="white" stroke="#666666" points="736,-130 542,-130 542,-111 736,-111 736,-130"/>
<text text-anchor="middle" x="639" y="-118" font-family="Helvetica,sans-Serif" font-size="10.00">SCR_CommandModeEditorUIComponent</text>
</a>
</g>
</g>
<!-- Node1&#45;&gt;Node5 -->
<g id="edge4" class="edge">
<title>Node1&#45;&gt;Node5</title>
<path fill="none" stroke="#63b8ff" d="M489.88,-95.3C518.69,-100.2 551.75,-105.83 579.32,-110.52"/>
<polygon fill="#63b8ff" stroke="#63b8ff" points="490.52,-91.69 480.07,-93.46 489.34,-98.59 490.52,-91.69"/>
</g>
<!-- Node6 -->
<g id="node6" class="node">
<title>Node6</title>
<g id="a_node6"><a xlink:href="interfaceSCR__EditModeEditorUIComponent.html" target="_top" xlink:title=" ">
<polygon fill="white" stroke="#666666" points="722.5,-93 555.5,-93 555.5,-74 722.5,-74 722.5,-93"/>
<text text-anchor="middle" x="639" y="-81" font-family="Helvetica,sans-Serif" font-size="10.00">SCR_EditModeEditorUIComponent</text>
</a>
</g>
</g>
<!-- Node1&#45;&gt;Node6 -->
<g id="edge5" class="edge">
<title>Node1&#45;&gt;Node6</title>
<path fill="none" stroke="#63b8ff" d="M517.45,-83.5C530.03,-83.5 542.82,-83.5 555.15,-83.5"/>
<polygon fill="#63b8ff" stroke="#63b8ff" points="517.46,-80 507.46,-83.5 517.46,-87 517.46,-80"/>
</g>
<!-- Node7 -->
<g id="node7" class="node">
<title>Node7</title>
<g id="a_node7"><a xlink:href="interfaceSCR__PhotoModeEditorUIComponent.html" target="_top" xlink:title=" ">
<polygon fill="white" stroke="#666666" points="727,-56 551,-56 551,-37 727,-37 727,-56"/>
<text text-anchor="middle" x="639" y="-44" font-family="Helvetica,sans-Serif" font-size="10.00">SCR_PhotoModeEditorUIComponent</text>
</a>
</g>
</g>
<!-- Node1&#45;&gt;Node7 -->
<g id="edge6" class="edge">
<title>Node1&#45;&gt;Node7</title>
<path fill="none" stroke="#63b8ff" d="M489.88,-71.7C518.69,-66.8 551.75,-61.17 579.32,-56.48"/>
<polygon fill="#63b8ff" stroke="#63b8ff" points="489.34,-68.41 480.07,-73.54 490.52,-75.31 489.34,-68.41"/>
</g>
<!-- Node8 -->
<g id="node8" class="node">
<title>Node8</title>
<g id="a_node8"><a xlink:href="interfaceSCR__SpectateModeEditorUIComponent.html" target="_top" xlink:title=" ">
<polygon fill="white" stroke="#666666" points="733.5,-19 544.5,-19 544.5,0 733.5,0 733.5,-19"/>
<text text-anchor="middle" x="639" y="-7" font-family="Helvetica,sans-Serif" font-size="10.00">SCR_SpectateModeEditorUIComponent</text>
</a>
</g>
</g>
<!-- Node1&#45;&gt;Node8 -->
<g id="edge7" class="edge">
<title>Node1&#45;&gt;Node8</title>
<path fill="none" stroke="#63b8ff" d="M448.01,-68.44C472.14,-55.81 508.5,-38.18 542,-27.5 551.86,-24.36 562.46,-21.69 572.91,-19.45"/>
<polygon fill="#63b8ff" stroke="#63b8ff" points="446.65,-65.72 439.46,-73.51 449.93,-71.91 446.65,-65.72"/>
</g>
<!-- Node2 -->
<g id="node2" class="node">
<title>Node2</title>
<g id="a_node2"><a xlink:href="interfaceMenuRootSubComponent.html" target="_top" xlink:title="Widget component which is linked to menu it&#39;s part of.">
<polygon fill="white" stroke="#666666" points="297,-93 169,-93 169,-74 297,-74 297,-93"/>
<text text-anchor="middle" x="233" y="-81" font-family="Helvetica,sans-Serif" font-size="10.00">MenuRootSubComponent</text>
</a>
</g>
</g>
<!-- Node2&#45;&gt;Node1 -->
<g id="edge1" class="edge">
<title>Node2&#45;&gt;Node1</title>
<path fill="none" stroke="#63b8ff" d="M308.31,-83.5C316.35,-83.5 324.57,-83.5 332.73,-83.5"/>
<polygon fill="#63b8ff" stroke="#63b8ff" points="308.49,-80 298.49,-83.5 308.49,-87 308.49,-80"/>
</g>
<!-- Node3 -->
<g id="node3" class="node">
<title>Node3</title>
<g id="a_node3"><a xlink:title=" ">
<polygon fill="white" stroke="#666666" points="133,-93 0,-93 0,-74 133,-74 133,-93"/>
<text text-anchor="middle" x="66.5" y="-81" font-family="Helvetica,sans-Serif" font-size="10.00">ScriptedWidgetComponent</text>
</a>
</g>
</g>
<!-- Node3&#45;&gt;Node2 -->
<g id="edge2" class="edge">
<title>Node3&#45;&gt;Node2</title>
<path fill="none" stroke="#63b8ff" d="M144.46,-83.5C152.57,-83.5 160.76,-83.5 168.7,-83.5"/>
<polygon fill="#63b8ff" stroke="#63b8ff" points="144.46,-80 134.46,-83.5 144.46,-87 144.46,-80"/>
</g>
</g>
</svg>
