<?xml version="1.0" encoding="UTF-8" standalone="no"?>
<!DOCTYPE svg PUBLIC "-//W3C//DTD SVG 1.1//EN"
 "http://www.w3.org/Graphics/SVG/1.1/DTD/svg11.dtd">
<!-- Generated by graphviz version 8.0.2 (20230410.1723)
 -->
<!-- Title: SCR_PreGameGameModeStateComponent Pages: 1 -->
<svg width="196pt" height="203pt"
 viewBox="0.00 0.00 196.00 203.00" xmlns="http://www.w3.org/2000/svg" xmlns:xlink="http://www.w3.org/1999/xlink">
<g id="graph0" class="graph" transform="scale(1 1) rotate(0) translate(4 199)">
<title>SCR_PreGameGameModeStateComponent</title>
<!-- Node1 -->
<g id="node1" class="node">
<title>Node1</title>
<g id="a_node1"><a xlink:title="Game mode component that handles the pre&#45;game period.">
<polygon fill="#999999" stroke="#666666" points="172.5,-30 15.5,-30 15.5,0 172.5,0 172.5,-30"/>
<text text-anchor="start" x="23.5" y="-18" font-family="Helvetica,sans-Serif" font-size="10.00">SCR_PreGameGameModeState</text>
<text text-anchor="middle" x="94" y="-7" font-family="Helvetica,sans-Serif" font-size="10.00">Component</text>
</a>
</g>
</g>
<!-- Node2 -->
<g id="node2" class="node">
<title>Node2</title>
<g id="a_node2"><a xlink:href="interfaceSCR__BaseGameModeStateComponent.html" target="_top" xlink:title="Base component for handling game mode states.">
<polygon fill="white" stroke="#666666" points="188,-85 0,-85 0,-66 188,-66 188,-85"/>
<text text-anchor="middle" x="94" y="-73" font-family="Helvetica,sans-Serif" font-size="10.00">SCR_BaseGameModeStateComponent</text>
</a>
</g>
</g>
<!-- Node2&#45;&gt;Node1 -->
<g id="edge1" class="edge">
<title>Node2&#45;&gt;Node1</title>
<path fill="none" stroke="#63b8ff" d="M94,-55.08C94,-46.92 94,-37.6 94,-30.11"/>
<polygon fill="#63b8ff" stroke="#63b8ff" points="90.5,-54.87 94,-64.87 97.5,-54.87 90.5,-54.87"/>
</g>
<!-- Node3 -->
<g id="node3" class="node">
<title>Node3</title>
<g id="a_node3"><a xlink:href="interfaceSCR__BaseGameModeComponent.html" target="_top" xlink:title="Interface for game mode extending components.">
<polygon fill="white" stroke="#666666" points="176,-140 12,-140 12,-121 176,-121 176,-140"/>
<text text-anchor="middle" x="94" y="-128" font-family="Helvetica,sans-Serif" font-size="10.00">SCR_BaseGameModeComponent</text>
</a>
</g>
</g>
<!-- Node3&#45;&gt;Node2 -->
<g id="edge2" class="edge">
<title>Node3&#45;&gt;Node2</title>
<path fill="none" stroke="#63b8ff" d="M94,-109.93C94,-101.53 94,-92.13 94,-85.44"/>
<polygon fill="#63b8ff" stroke="#63b8ff" points="90.5,-109.75 94,-119.75 97.5,-109.75 90.5,-109.75"/>
</g>
<!-- Node4 -->
<g id="node4" class="node">
<title>Node4</title>
<g id="a_node4"><a xlink:title=" ">
<polygon fill="white" stroke="#666666" points="140,-195 48,-195 48,-176 140,-176 140,-195"/>
<text text-anchor="middle" x="94" y="-183" font-family="Helvetica,sans-Serif" font-size="10.00">ScriptComponent</text>
</a>
</g>
</g>
<!-- Node4&#45;&gt;Node3 -->
<g id="edge3" class="edge">
<title>Node4&#45;&gt;Node3</title>
<path fill="none" stroke="#63b8ff" d="M94,-164.93C94,-156.53 94,-147.13 94,-140.44"/>
<polygon fill="#63b8ff" stroke="#63b8ff" points="90.5,-164.75 94,-174.75 97.5,-164.75 90.5,-164.75"/>
</g>
</g>
</svg>
