<?xml version="1.0" encoding="UTF-8" standalone="no"?>
<!DOCTYPE svg PUBLIC "-//W3C//DTD SVG 1.1//EN"
 "http://www.w3.org/Graphics/SVG/1.1/DTD/svg11.dtd">
<!-- Generated by graphviz version 8.0.2 (20230410.1723)
 -->
<!-- Title: SCR_WLibComponentBase Pages: 1 -->
<svg width="1284pt" height="892pt"
 viewBox="0.00 0.00 1284.00 892.00" xmlns="http://www.w3.org/2000/svg" xmlns:xlink="http://www.w3.org/1999/xlink">
<g id="graph0" class="graph" transform="scale(1 1) rotate(0) translate(4 888)">
<title>SCR_WLibComponentBase</title>
<!-- Node1 -->
<g id="node1" class="node">
<title>Node1</title>
<g id="a_node1"><a xlink:title="Base class for all final Reforger interactive elements.">
<polygon fill="#999999" stroke="#666666" points="500,-222 363,-222 363,-203 500,-203 500,-222"/>
<text text-anchor="middle" x="431.5" y="-210" font-family="Helvetica,sans-Serif" font-size="10.00">SCR_WLibComponentBase</text>
</a>
</g>
</g>
<!-- Node4 -->
<g id="node4" class="node">
<title>Node4</title>
<g id="a_node4"><a xlink:href="interfaceSCR__AddonLinePresetComponent.html" target="_top" xlink:title=" ">
<polygon fill="white" stroke="#666666" points="707.5,-491 541.5,-491 541.5,-472 707.5,-472 707.5,-491"/>
<text text-anchor="middle" x="624.5" y="-479" font-family="Helvetica,sans-Serif" font-size="10.00">SCR_AddonLinePresetComponent</text>
</a>
</g>
</g>
<!-- Node1&#45;&gt;Node4 -->
<g id="edge3" class="edge">
<title>Node1&#45;&gt;Node4</title>
<path fill="none" stroke="#63b8ff" d="M434.59,-233.25C440.63,-281.71 462.67,-402.82 536,-463.5 539.82,-466.66 544.06,-469.32 548.54,-471.54"/>
<polygon fill="#63b8ff" stroke="#63b8ff" points="437.95,-232.87 433.35,-223.33 431,-233.66 437.95,-232.87"/>
</g>
<!-- Node5 -->
<g id="node5" class="node">
<title>Node5</title>
<g id="a_node5"><a xlink:href="interfaceSCR__ButtonBaseComponent.html" target="_top" xlink:title="Base class for any button, regardless its own content.">
<polygon fill="white" stroke="#666666" points="696,-454 553,-454 553,-435 696,-435 696,-454"/>
<text text-anchor="middle" x="624.5" y="-442" font-family="Helvetica,sans-Serif" font-size="10.00">SCR_ButtonBaseComponent</text>
</a>
</g>
</g>
<!-- Node1&#45;&gt;Node5 -->
<g id="edge4" class="edge">
<title>Node1&#45;&gt;Node5</title>
<path fill="none" stroke="#63b8ff" d="M442.24,-231.71C458.83,-263.34 494.78,-327.46 536,-373.5 558.44,-398.57 590.23,-422 608.67,-434.68"/>
<polygon fill="#63b8ff" stroke="#63b8ff" points="445.08,-230.58 437.38,-223.31 438.86,-233.8 445.08,-230.58"/>
</g>
<!-- Node32 -->
<g id="node32" class="node">
<title>Node32</title>
<g id="a_node32"><a xlink:href="interfaceSCR__ButtonLegendComponent.html" target="_top" xlink:title=" ">
<polygon fill="white" stroke="#666666" points="700.5,-364 548.5,-364 548.5,-345 700.5,-345 700.5,-364"/>
<text text-anchor="middle" x="624.5" y="-352" font-family="Helvetica,sans-Serif" font-size="10.00">SCR_ButtonLegendComponent</text>
</a>
</g>
</g>
<!-- Node1&#45;&gt;Node32 -->
<g id="edge31" class="edge">
<title>Node1&#45;&gt;Node32</title>
<path fill="none" stroke="#63b8ff" d="M443.07,-231.73C459.29,-259.29 492.98,-309.56 536,-335.5 542.12,-339.19 548.87,-342.17 555.82,-344.57"/>
<polygon fill="#63b8ff" stroke="#63b8ff" points="445.73,-230.32 437.73,-223.37 439.65,-233.79 445.73,-230.32"/>
</g>
<!-- Node33 -->
<g id="node33" class="node">
<title>Node33</title>
<g id="a_node33"><a xlink:href="interfaceSCR__ButtonSpecializationProgressComponent.html" target="_top" xlink:title=" ">
<polygon fill="white" stroke="#666666" points="690,-326.5 559,-326.5 559,-296.5 690,-296.5 690,-326.5"/>
<text text-anchor="start" x="567" y="-314.5" font-family="Helvetica,sans-Serif" font-size="10.00">SCR_ButtonSpecialization</text>
<text text-anchor="middle" x="624.5" y="-303.5" font-family="Helvetica,sans-Serif" font-size="10.00">ProgressComponent</text>
</a>
</g>
</g>
<!-- Node1&#45;&gt;Node33 -->
<g id="edge32" class="edge">
<title>Node1&#45;&gt;Node33</title>
<path fill="none" stroke="#63b8ff" d="M451.26,-229.34C471.04,-246.27 503.73,-272.02 536,-287.5 543.1,-290.91 550.77,-293.9 558.5,-296.51"/>
<polygon fill="#63b8ff" stroke="#63b8ff" points="453.97,-226.19 444.14,-222.25 449.37,-231.46 453.97,-226.19"/>
</g>
<!-- Node34 -->
<g id="node34" class="node">
<title>Node34</title>
<g id="a_node34"><a xlink:href="interfaceSCR__ChangeableComponentBase.html" target="_top" xlink:title="Base class for all widgets that can change their internal state as editbox or spinbox.">
<polygon fill="white" stroke="#666666" points="707,-278 542,-278 542,-259 707,-259 707,-278"/>
<text text-anchor="middle" x="624.5" y="-266" font-family="Helvetica,sans-Serif" font-size="10.00">SCR_ChangeableComponentBase</text>
</a>
</g>
</g>
<!-- Node1&#45;&gt;Node34 -->
<g id="edge33" class="edge">
<title>Node1&#45;&gt;Node34</title>
<path fill="none" stroke="#63b8ff" d="M466.58,-226.47C486.56,-234.29 512.44,-243.79 536,-250.5 546.44,-253.47 557.71,-256.17 568.58,-258.51"/>
<polygon fill="#63b8ff" stroke="#63b8ff" points="468.01,-222.87 457.42,-222.44 465.43,-229.38 468.01,-222.87"/>
</g>
<!-- Node48 -->
<g id="node43" class="node">
<title>Node48</title>
<g id="a_node43"><a xlink:href="interfaceSCR__ImageGalleryButtonComponent.html" target="_top" xlink:title=" ">
<polygon fill="white" stroke="#666666" points="713,-241 536,-241 536,-222 713,-222 713,-241"/>
<text text-anchor="middle" x="624.5" y="-229" font-family="Helvetica,sans-Serif" font-size="10.00">SCR_ImageGalleryButtonComponent</text>
</a>
</g>
</g>
<!-- Node1&#45;&gt;Node48 -->
<g id="edge42" class="edge">
<title>Node1&#45;&gt;Node48</title>
<path fill="none" stroke="#63b8ff" d="M511.28,-220.34C519.37,-221.14 527.62,-221.96 535.8,-222.78"/>
<polygon fill="#63b8ff" stroke="#63b8ff" points="511.67,-216.76 501.38,-219.25 510.98,-223.72 511.67,-216.76"/>
</g>
<!-- Node49 -->
<g id="node44" class="node">
<title>Node49</title>
<g id="a_node44"><a xlink:href="interfaceSCR__LoadingCircleComponent.html" target="_top" xlink:title=" ">
<polygon fill="white" stroke="#666666" points="699.5,-204 549.5,-204 549.5,-185 699.5,-185 699.5,-204"/>
<text text-anchor="middle" x="624.5" y="-192" font-family="Helvetica,sans-Serif" font-size="10.00">SCR_LoadingCircleComponent</text>
</a>
</g>
</g>
<!-- Node1&#45;&gt;Node49 -->
<g id="edge43" class="edge">
<title>Node1&#45;&gt;Node49</title>
<path fill="none" stroke="#63b8ff" d="M511.24,-205.08C523.74,-203.9 536.63,-202.69 549.03,-201.52"/>
<polygon fill="#63b8ff" stroke="#63b8ff" points="511,-201.68 501.38,-206.1 511.66,-208.65 511,-201.68"/>
</g>
<!-- Node50 -->
<g id="node45" class="node">
<title>Node50</title>
<g id="a_node45"><a xlink:href="interfaceSCR__ScrollBarComponent.html" target="_top" xlink:title="Scripte WLib scroll bar Can be controlled indivualy and be used for multiple purporse">
<polygon fill="white" stroke="#666666" points="690,-167 559,-167 559,-148 690,-148 690,-167"/>
<text text-anchor="middle" x="624.5" y="-155" font-family="Helvetica,sans-Serif" font-size="10.00">SCR_ScrollBarComponent</text>
</a>
</g>
</g>
<!-- Node1&#45;&gt;Node50 -->
<g id="edge44" class="edge">
<title>Node1&#45;&gt;Node50</title>
<path fill="none" stroke="#63b8ff" d="M467.41,-198.64C487.29,-191.09 512.79,-182 536,-175.5 546.6,-172.53 558.06,-169.82 569.07,-167.46"/>
<polygon fill="#63b8ff" stroke="#63b8ff" points="466.36,-195.68 458.28,-202.53 468.87,-202.21 466.36,-195.68"/>
</g>
<!-- Node51 -->
<g id="node46" class="node">
<title>Node51</title>
<g id="a_node46"><a xlink:href="interfaceSCR__ScrollBarHandleComponent.html" target="_top" xlink:title=" ">
<polygon fill="white" stroke="#666666" points="705,-130 544,-130 544,-111 705,-111 705,-130"/>
<text text-anchor="middle" x="624.5" y="-118" font-family="Helvetica,sans-Serif" font-size="10.00">SCR_ScrollBarHandleComponent</text>
</a>
</g>
</g>
<!-- Node1&#45;&gt;Node51 -->
<g id="edge45" class="edge">
<title>Node1&#45;&gt;Node51</title>
<path fill="none" stroke="#63b8ff" d="M451.11,-195.47C470.76,-178.43 503.35,-152.76 536,-138.5 543.39,-135.27 551.39,-132.61 559.44,-130.42"/>
<polygon fill="#63b8ff" stroke="#63b8ff" points="449.2,-192.36 444.04,-201.62 453.84,-197.6 449.2,-192.36"/>
</g>
<!-- Node52 -->
<g id="node47" class="node">
<title>Node52</title>
<g id="a_node47"><a xlink:href="interfaceSCR__ServerDetailEntryComponent.html" target="_top" xlink:title=" ">
<polygon fill="white" stroke="#666666" points="708,-93 541,-93 541,-74 708,-74 708,-93"/>
<text text-anchor="middle" x="624.5" y="-81" font-family="Helvetica,sans-Serif" font-size="10.00">SCR_ServerDetailEntryComponent</text>
</a>
</g>
</g>
<!-- Node1&#45;&gt;Node52 -->
<g id="edge46" class="edge">
<title>Node1&#45;&gt;Node52</title>
<path fill="none" stroke="#63b8ff" d="M444.49,-193.65C461.59,-168.44 495.44,-124.28 536,-101.5 541.81,-98.23 548.15,-95.56 554.65,-93.37"/>
<polygon fill="#63b8ff" stroke="#63b8ff" points="441.18,-191.32 438.59,-201.59 447.02,-195.17 441.18,-191.32"/>
</g>
<!-- Node53 -->
<g id="node48" class="node">
<title>Node53</title>
<g id="a_node48"><a xlink:href="interfaceSCR__SpinBoxPagingComponent.html" target="_top" xlink:title=" ">
<polygon fill="white" stroke="#666666" points="703.5,-56 545.5,-56 545.5,-37 703.5,-37 703.5,-56"/>
<text text-anchor="middle" x="624.5" y="-44" font-family="Helvetica,sans-Serif" font-size="10.00">SCR_SpinBoxPagingComponent</text>
</a>
</g>
</g>
<!-- Node1&#45;&gt;Node53 -->
<g id="edge47" class="edge">
<title>Node1&#45;&gt;Node53</title>
<path fill="none" stroke="#63b8ff" d="M440.54,-192.57C454.69,-160.19 487.26,-96.55 536,-64.5 540.92,-61.26 546.31,-58.59 551.92,-56.38"/>
<polygon fill="#63b8ff" stroke="#63b8ff" points="436.96,-191.05 436.3,-201.62 443.41,-193.77 436.96,-191.05"/>
</g>
<!-- Node54 -->
<g id="node49" class="node">
<title>Node54</title>
<g id="a_node49"><a xlink:href="interfaceSCR__WidgetHintComponent.html" target="_top" xlink:title=" ">
<polygon fill="white" stroke="#666666" points="694.5,-19 554.5,-19 554.5,0 694.5,0 694.5,-19"/>
<text text-anchor="middle" x="624.5" y="-7" font-family="Helvetica,sans-Serif" font-size="10.00">SCR_WidgetHintComponent</text>
</a>
</g>
</g>
<!-- Node1&#45;&gt;Node54 -->
<g id="edge48" class="edge">
<title>Node1&#45;&gt;Node54</title>
<path fill="none" stroke="#63b8ff" d="M437.8,-192.04C448.95,-153.32 478.67,-69.46 536,-27.5 541.51,-23.47 547.71,-20.29 554.2,-17.8"/>
<polygon fill="#63b8ff" stroke="#63b8ff" points="434.2,-190.94 434.93,-201.51 440.95,-192.8 434.2,-190.94"/>
</g>
<!-- Node2 -->
<g id="node2" class="node">
<title>Node2</title>
<g id="a_node2"><a xlink:href="interfaceSCR__ScriptedWidgetComponent.html" target="_top" xlink:title=" ">
<polygon fill="white" stroke="#666666" points="327,-222 169,-222 169,-203 327,-203 327,-222"/>
<text text-anchor="middle" x="248" y="-210" font-family="Helvetica,sans-Serif" font-size="10.00">SCR_ScriptedWidgetComponent</text>
</a>
</g>
</g>
<!-- Node2&#45;&gt;Node1 -->
<g id="edge1" class="edge">
<title>Node2&#45;&gt;Node1</title>
<path fill="none" stroke="#63b8ff" d="M338.13,-212.5C346.41,-212.5 354.7,-212.5 362.73,-212.5"/>
<polygon fill="#63b8ff" stroke="#63b8ff" points="338.29,-209 328.29,-212.5 338.29,-216 338.29,-209"/>
</g>
<!-- Node3 -->
<g id="node3" class="node">
<title>Node3</title>
<g id="a_node3"><a xlink:title=" ">
<polygon fill="white" stroke="#666666" points="133,-222 0,-222 0,-203 133,-203 133,-222"/>
<text text-anchor="middle" x="66.5" y="-210" font-family="Helvetica,sans-Serif" font-size="10.00">ScriptedWidgetComponent</text>
</a>
</g>
</g>
<!-- Node3&#45;&gt;Node2 -->
<g id="edge2" class="edge">
<title>Node3&#45;&gt;Node2</title>
<path fill="none" stroke="#63b8ff" d="M144.25,-212.5C152.35,-212.5 160.59,-212.5 168.7,-212.5"/>
<polygon fill="#63b8ff" stroke="#63b8ff" points="144.32,-209 134.32,-212.5 144.32,-216 144.32,-209"/>
</g>
<!-- Node6 -->
<g id="node6" class="node">
<title>Node6</title>
<g id="a_node6"><a xlink:href="interfaceSCR__ButtonComponent.html" target="_top" xlink:title="Deprecated button component. Still used in many prefabs, so it works, it&#39;s just stripped of most of t...">
<polygon fill="white" stroke="#666666" points="890.5,-791 770.5,-791 770.5,-772 890.5,-772 890.5,-791"/>
<text text-anchor="middle" x="830.5" y="-779" font-family="Helvetica,sans-Serif" font-size="10.00">SCR_ButtonComponent</text>
</a>
</g>
</g>
<!-- Node5&#45;&gt;Node6 -->
<g id="edge5" class="edge">
<title>Node5&#45;&gt;Node6</title>
<path fill="none" stroke="#63b8ff" d="M705.71,-457.33C708.31,-459.16 710.76,-461.21 713,-463.5 772.14,-524.05 718.35,-571.61 749,-650.5 768.05,-699.52 805.45,-750.67 821.68,-771.64"/>
<polygon fill="#63b8ff" stroke="#63b8ff" points="707.72,-453.88 697.3,-451.94 704.24,-459.95 707.72,-453.88"/>
</g>
<!-- Node12 -->
<g id="node12" class="node">
<title>Node12</title>
<g id="a_node12"><a xlink:href="interfaceSCR__ButtonImageComponent.html" target="_top" xlink:title=" ">
<polygon fill="white" stroke="#666666" points="903.5,-641 757.5,-641 757.5,-622 903.5,-622 903.5,-641"/>
<text text-anchor="middle" x="830.5" y="-629" font-family="Helvetica,sans-Serif" font-size="10.00">SCR_ButtonImageComponent</text>
</a>
</g>
</g>
<!-- Node5&#45;&gt;Node12 -->
<g id="edge11" class="edge">
<title>Node5&#45;&gt;Node12</title>
<path fill="none" stroke="#63b8ff" d="M705.93,-457.85C708.43,-459.54 710.8,-461.42 713,-463.5 757.11,-505.36 709.44,-549.32 749,-595.5 759.56,-607.83 775.17,-616.12 789.85,-621.6"/>
<polygon fill="#63b8ff" stroke="#63b8ff" points="707.79,-454.32 697.35,-452.52 704.39,-460.44 707.79,-454.32"/>
</g>
<!-- Node20 -->
<g id="node20" class="node">
<title>Node20</title>
<g id="a_node20"><a xlink:href="interfaceSCR__ButtonTextComponent.html" target="_top" xlink:title=" ">
<polygon fill="white" stroke="#666666" points="900,-586 761,-586 761,-567 900,-567 900,-586"/>
<text text-anchor="middle" x="830.5" y="-574" font-family="Helvetica,sans-Serif" font-size="10.00">SCR_ButtonTextComponent</text>
</a>
</g>
</g>
<!-- Node5&#45;&gt;Node20 -->
<g id="edge19" class="edge">
<title>Node5&#45;&gt;Node20</title>
<path fill="none" stroke="#63b8ff" d="M705.86,-458.24C708.37,-459.82 710.76,-461.57 713,-463.5 747.21,-492.97 714.88,-528.92 749,-558.5 752.68,-561.69 756.8,-564.35 761.18,-566.56"/>
<polygon fill="#63b8ff" stroke="#63b8ff" points="707.81,-454.78 697.34,-453.2 704.54,-460.97 707.81,-454.78"/>
</g>
<!-- Node22 -->
<g id="node22" class="node">
<title>Node22</title>
<g id="a_node22"><a xlink:href="interfaceSCR__ContentEntryComponent.html" target="_top" xlink:title="Base component for widgets displaying content data.">
<polygon fill="white" stroke="#666666" points="905,-549 756,-549 756,-530 905,-530 905,-549"/>
<text text-anchor="middle" x="830.5" y="-537" font-family="Helvetica,sans-Serif" font-size="10.00">SCR_ContentEntryComponent</text>
</a>
</g>
</g>
<!-- Node5&#45;&gt;Node22 -->
<g id="edge21" class="edge">
<title>Node5&#45;&gt;Node22</title>
<path fill="none" stroke="#63b8ff" d="M705.86,-459.06C708.33,-460.42 710.72,-461.89 713,-463.5 737.79,-480.99 724.27,-503.93 749,-521.5 753.55,-524.73 758.59,-527.4 763.85,-529.6"/>
<polygon fill="#63b8ff" stroke="#63b8ff" points="707.51,-455.5 696.97,-454.42 704.53,-461.84 707.51,-455.5"/>
</g>
<!-- Node24 -->
<g id="node24" class="node">
<title>Node24</title>
<g id="a_node24"><a xlink:href="interfaceSCR__GroupTileButton.html" target="_top" xlink:title=" ">
<polygon fill="white" stroke="#666666" points="886.5,-512 774.5,-512 774.5,-493 886.5,-493 886.5,-512"/>
<text text-anchor="middle" x="830.5" y="-500" font-family="Helvetica,sans-Serif" font-size="10.00">SCR_GroupTileButton</text>
</a>
</g>
</g>
<!-- Node5&#45;&gt;Node24 -->
<g id="edge23" class="edge">
<title>Node5&#45;&gt;Node24</title>
<path fill="none" stroke="#63b8ff" d="M693.95,-457.17C700.47,-459.03 706.92,-461.13 713,-463.5 730.26,-470.21 731.76,-477.73 749,-484.5 757,-487.64 765.67,-490.3 774.26,-492.52"/>
<polygon fill="#63b8ff" stroke="#63b8ff" points="695.24,-453.63 684.68,-454.45 693.45,-460.39 695.24,-453.63"/>
</g>
<!-- Node25 -->
<g id="node25" class="node">
<title>Node25</title>
<g id="a_node25"><a xlink:href="interfaceSCR__InputButtonComponent.html" target="_top" xlink:title=" ">
<polygon fill="white" stroke="#666666" points="901,-475 760,-475 760,-456 901,-456 901,-475"/>
<text text-anchor="middle" x="830.5" y="-463" font-family="Helvetica,sans-Serif" font-size="10.00">SCR_InputButtonComponent</text>
</a>
</g>
</g>
<!-- Node5&#45;&gt;Node25 -->
<g id="edge24" class="edge">
<title>Node5&#45;&gt;Node25</title>
<path fill="none" stroke="#63b8ff" d="M706.98,-452.89C724.38,-454.68 742.62,-456.56 759.54,-458.3"/>
<polygon fill="#63b8ff" stroke="#63b8ff" points="707.58,-449.33 697.28,-451.79 706.87,-456.29 707.58,-449.33"/>
</g>
<!-- Node28 -->
<g id="node28" class="node">
<title>Node28</title>
<g id="a_node28"><a xlink:href="interfaceSCR__MultipleStatesButtonComponent.html" target="_top" xlink:title="Multiple states button.">
<polygon fill="white" stroke="#666666" points="897,-437.5 764,-437.5 764,-407.5 897,-407.5 897,-437.5"/>
<text text-anchor="start" x="772" y="-425.5" font-family="Helvetica,sans-Serif" font-size="10.00">SCR_MultipleStatesButton</text>
<text text-anchor="middle" x="830.5" y="-414.5" font-family="Helvetica,sans-Serif" font-size="10.00">Component</text>
</a>
</g>
</g>
<!-- Node5&#45;&gt;Node28 -->
<g id="edge27" class="edge">
<title>Node5&#45;&gt;Node28</title>
<path fill="none" stroke="#63b8ff" d="M707.19,-435.69C725.94,-433.67 745.66,-431.54 763.64,-429.6"/>
<polygon fill="#63b8ff" stroke="#63b8ff" points="706.84,-432.32 697.28,-436.87 707.59,-439.27 706.84,-432.32"/>
</g>
<!-- Node29 -->
<g id="node29" class="node">
<title>Node29</title>
<g id="a_node29"><a xlink:href="interfaceSCR__PagingButtonComponent.html" target="_top" xlink:title=" ">
<polygon fill="white" stroke="#666666" points="905.5,-389 755.5,-389 755.5,-370 905.5,-370 905.5,-389"/>
<text text-anchor="middle" x="830.5" y="-377" font-family="Helvetica,sans-Serif" font-size="10.00">SCR_PagingButtonComponent</text>
</a>
</g>
</g>
<!-- Node5&#45;&gt;Node29 -->
<g id="edge28" class="edge">
<title>Node5&#45;&gt;Node29</title>
<path fill="none" stroke="#63b8ff" d="M659.25,-430.63C683.86,-420.84 718.15,-407.85 749,-398.5 759.86,-395.21 771.68,-392.14 782.84,-389.47"/>
<polygon fill="#63b8ff" stroke="#63b8ff" points="658.31,-427.64 650.33,-434.61 660.92,-434.13 658.31,-427.64"/>
</g>
<!-- Node30 -->
<g id="node30" class="node">
<title>Node30</title>
<g id="a_node30"><a xlink:href="interfaceSCR__TaskListEntryHandler.html" target="_top" xlink:title=" ">
<polygon fill="white" stroke="#666666" points="898,-352 763,-352 763,-333 898,-333 898,-352"/>
<text text-anchor="middle" x="830.5" y="-340" font-family="Helvetica,sans-Serif" font-size="10.00">SCR_TaskListEntryHandler</text>
</a>
</g>
</g>
<!-- Node5&#45;&gt;Node30 -->
<g id="edge29" class="edge">
<title>Node5&#45;&gt;Node30</title>
<path fill="none" stroke="#63b8ff" d="M645.26,-427.89C668.6,-409.09 709.29,-378.84 749,-361.5 757.29,-357.88 766.38,-354.89 775.36,-352.44"/>
<polygon fill="#63b8ff" stroke="#63b8ff" points="643.44,-425.67 637.92,-434.71 647.88,-431.08 643.44,-425.67"/>
</g>
<!-- Node31 -->
<g id="node31" class="node">
<title>Node31</title>
<g id="a_node31"><a xlink:href="interfaceSCR__TaskPlayerListEntryHandler.html" target="_top" xlink:title=" ">
<polygon fill="white" stroke="#666666" points="912,-315 749,-315 749,-296 912,-296 912,-315"/>
<text text-anchor="middle" x="830.5" y="-303" font-family="Helvetica,sans-Serif" font-size="10.00">SCR_TaskPlayerListEntryHandler</text>
</a>
</g>
</g>
<!-- Node5&#45;&gt;Node31 -->
<g id="edge30" class="edge">
<title>Node5&#45;&gt;Node31</title>
<path fill="none" stroke="#63b8ff" d="M648.67,-428.26C667.14,-414.73 693.12,-394.36 713,-373.5 731.64,-353.94 726.46,-339.41 749,-324.5 754.63,-320.78 760.9,-317.78 767.4,-315.37"/>
<polygon fill="#63b8ff" stroke="#63b8ff" points="646.83,-425.99 640.77,-434.68 650.92,-431.67 646.83,-425.99"/>
</g>
<!-- Node7 -->
<g id="node7" class="node">
<title>Node7</title>
<g id="a_node7"><a xlink:href="interfaceSCR__ButtonSplitComponent.html" target="_top" xlink:title="Final Reforger button.">
<polygon fill="white" stroke="#666666" points="1106,-884 966,-884 966,-865 1106,-865 1106,-884"/>
<text text-anchor="middle" x="1036" y="-872" font-family="Helvetica,sans-Serif" font-size="10.00">SCR_ButtonSplitComponent</text>
</a>
</g>
</g>
<!-- Node6&#45;&gt;Node7 -->
<g id="edge6" class="edge">
<title>Node6&#45;&gt;Node7</title>
<path fill="none" stroke="#63b8ff" d="M852.19,-798.21C874.51,-815.4 911.76,-841.69 948,-856.5 955.85,-859.71 964.35,-862.37 972.84,-864.57"/>
<polygon fill="#63b8ff" stroke="#63b8ff" points="854.61,-794.87 844.58,-791.46 850.29,-800.38 854.61,-794.87"/>
</g>
<!-- Node8 -->
<g id="node8" class="node">
<title>Node8</title>
<g id="a_node8"><a xlink:href="interfaceSCR__MapJournalUIButton.html" target="_top" xlink:title=" ">
<polygon fill="white" stroke="#666666" points="1100.5,-847 971.5,-847 971.5,-828 1100.5,-828 1100.5,-847"/>
<text text-anchor="middle" x="1036" y="-835" font-family="Helvetica,sans-Serif" font-size="10.00">SCR_MapJournalUIButton</text>
</a>
</g>
</g>
<!-- Node6&#45;&gt;Node8 -->
<g id="edge7" class="edge">
<title>Node6&#45;&gt;Node8</title>
<path fill="none" stroke="#63b8ff" d="M869.23,-794.99C891.88,-802.79 921.37,-812.43 948,-819.5 959.03,-822.43 970.95,-825.17 982.33,-827.59"/>
<polygon fill="#63b8ff" stroke="#63b8ff" points="870.61,-791.41 860.02,-791.44 868.31,-798.03 870.61,-791.41"/>
</g>
<!-- Node9 -->
<g id="node9" class="node">
<title>Node9</title>
<g id="a_node9"><a xlink:href="interfaceSCR__ModdedScenarioComponent.html" target="_top" xlink:title=" ">
<polygon fill="white" stroke="#666666" points="1118,-810 954,-810 954,-791 1118,-791 1118,-810"/>
<text text-anchor="middle" x="1036" y="-798" font-family="Helvetica,sans-Serif" font-size="10.00">SCR_ModdedScenarioComponent</text>
</a>
</g>
</g>
<!-- Node6&#45;&gt;Node9 -->
<g id="edge8" class="edge">
<title>Node6&#45;&gt;Node9</title>
<path fill="none" stroke="#63b8ff" d="M901.69,-788.05C918.42,-789.62 936.4,-791.29 953.58,-792.9"/>
<polygon fill="#63b8ff" stroke="#63b8ff" points="902.19,-784.49 891.91,-787.05 901.54,-791.46 902.19,-784.49"/>
</g>
<!-- Node10 -->
<g id="node10" class="node">
<title>Node10</title>
<g id="a_node10"><a xlink:href="interfaceSCR__SelectableButtonComponent.html" target="_top" xlink:title="Selectable button.">
<polygon fill="white" stroke="#666666" points="1119,-773 953,-773 953,-754 1119,-754 1119,-773"/>
<text text-anchor="middle" x="1036" y="-761" font-family="Helvetica,sans-Serif" font-size="10.00">SCR_SelectableButtonComponent</text>
</a>
</g>
</g>
<!-- Node6&#45;&gt;Node10 -->
<g id="edge9" class="edge">
<title>Node6&#45;&gt;Node10</title>
<path fill="none" stroke="#63b8ff" d="M901.56,-775.3C918.08,-773.84 935.83,-772.27 952.83,-770.77"/>
<polygon fill="#63b8ff" stroke="#63b8ff" points="901.56,-771.88 891.91,-776.25 902.18,-778.85 901.56,-771.88"/>
</g>
<!-- Node11 -->
<g id="node11" class="node">
<title>Node11</title>
<g id="a_node11"><a xlink:href="interfaceSCR__SelectableTileButtonComponent.html" target="_top" xlink:title=" ">
<polygon fill="white" stroke="#666666" points="1101.5,-735.5 970.5,-735.5 970.5,-705.5 1101.5,-705.5 1101.5,-735.5"/>
<text text-anchor="start" x="978.5" y="-723.5" font-family="Helvetica,sans-Serif" font-size="10.00">SCR_SelectableTileButton</text>
<text text-anchor="middle" x="1036" y="-712.5" font-family="Helvetica,sans-Serif" font-size="10.00">Component</text>
</a>
</g>
</g>
<!-- Node6&#45;&gt;Node11 -->
<g id="edge10" class="edge">
<title>Node6&#45;&gt;Node11</title>
<path fill="none" stroke="#63b8ff" d="M873.48,-768.31C895.62,-761.41 923.24,-752.88 948,-745.5 958.54,-742.36 969.82,-739.06 980.65,-735.94"/>
<polygon fill="#63b8ff" stroke="#63b8ff" points="872.6,-765.23 864.09,-771.55 874.68,-771.91 872.6,-765.23"/>
</g>
<!-- Node13 -->
<g id="node13" class="node">
<title>Node13</title>
<g id="a_node13"><a xlink:href="interfaceSCR__DeployButtonBase.html" target="_top" xlink:title=" ">
<polygon fill="white" stroke="#666666" points="1097.5,-687 974.5,-687 974.5,-668 1097.5,-668 1097.5,-687"/>
<text text-anchor="middle" x="1036" y="-675" font-family="Helvetica,sans-Serif" font-size="10.00">SCR_DeployButtonBase</text>
</a>
</g>
</g>
<!-- Node12&#45;&gt;Node13 -->
<g id="edge12" class="edge">
<title>Node12&#45;&gt;Node13</title>
<path fill="none" stroke="#63b8ff" d="M882.24,-644.07C902.64,-649.02 926.4,-654.67 948,-659.5 960.19,-662.23 973.38,-665.03 985.71,-667.59"/>
<polygon fill="#63b8ff" stroke="#63b8ff" points="883.14,-640.44 872.59,-641.47 881.48,-647.24 883.14,-640.44"/>
</g>
<!-- Node18 -->
<g id="node18" class="node">
<title>Node18</title>
<g id="a_node18"><a xlink:href="interfaceSCR__GroupFlagImageComponent.html" target="_top" xlink:title=" ">
<polygon fill="white" stroke="#666666" points="1117.5,-650 954.5,-650 954.5,-631 1117.5,-631 1117.5,-650"/>
<text text-anchor="middle" x="1036" y="-638" font-family="Helvetica,sans-Serif" font-size="10.00">SCR_GroupFlagImageComponent</text>
</a>
</g>
</g>
<!-- Node12&#45;&gt;Node18 -->
<g id="edge17" class="edge">
<title>Node12&#45;&gt;Node18</title>
<path fill="none" stroke="#63b8ff" d="M914.68,-635.18C927.75,-635.76 941.24,-636.35 954.26,-636.93"/>
<polygon fill="#63b8ff" stroke="#63b8ff" points="914.96,-631.64 904.82,-634.7 914.66,-638.64 914.96,-631.64"/>
</g>
<!-- Node19 -->
<g id="node19" class="node">
<title>Node19</title>
<g id="a_node19"><a xlink:href="interfaceSCR__ToolMenuButtonComponent.html" target="_top" xlink:title=" ">
<polygon fill="white" stroke="#666666" points="1117,-613 955,-613 955,-594 1117,-594 1117,-613"/>
<text text-anchor="middle" x="1036" y="-601" font-family="Helvetica,sans-Serif" font-size="10.00">SCR_ToolMenuButtonComponent</text>
</a>
</g>
</g>
<!-- Node12&#45;&gt;Node19 -->
<g id="edge18" class="edge">
<title>Node12&#45;&gt;Node19</title>
<path fill="none" stroke="#63b8ff" d="M914.69,-620.05C930.57,-617.87 947.06,-615.6 962.57,-613.47"/>
<polygon fill="#63b8ff" stroke="#63b8ff" points="914.25,-616.72 904.82,-621.55 915.2,-623.65 914.25,-616.72"/>
</g>
<!-- Node14 -->
<g id="node14" class="node">
<title>Node14</title>
<g id="a_node14"><a xlink:href="interfaceSCR__FactionButton.html" target="_top" xlink:title=" ">
<polygon fill="white" stroke="#666666" points="1269.5,-742 1166.5,-742 1166.5,-723 1269.5,-723 1269.5,-742"/>
<text text-anchor="middle" x="1218" y="-730" font-family="Helvetica,sans-Serif" font-size="10.00">SCR_FactionButton</text>
</a>
</g>
</g>
<!-- Node13&#45;&gt;Node14 -->
<g id="edge13" class="edge">
<title>Node13&#45;&gt;Node14</title>
<path fill="none" stroke="#63b8ff" d="M1102.88,-690.06C1110.08,-691.97 1117.24,-694.11 1124,-696.5 1140.87,-702.45 1143.42,-707.79 1160,-714.5 1167.12,-717.38 1174.88,-720.1 1182.33,-722.51"/>
<polygon fill="#63b8ff" stroke="#63b8ff" points="1103.89,-686.45 1093.34,-687.42 1102.19,-693.24 1103.89,-686.45"/>
</g>
<!-- Node15 -->
<g id="node15" class="node">
<title>Node15</title>
<g id="a_node15"><a xlink:href="interfaceSCR__GroupButton.html" target="_top" xlink:title="Component attached to the group button.">
<polygon fill="white" stroke="#666666" points="1266.5,-705 1169.5,-705 1169.5,-686 1266.5,-686 1266.5,-705"/>
<text text-anchor="middle" x="1218" y="-693" font-family="Helvetica,sans-Serif" font-size="10.00">SCR_GroupButton</text>
</a>
</g>
</g>
<!-- Node13&#45;&gt;Node15 -->
<g id="edge14" class="edge">
<title>Node13&#45;&gt;Node15</title>
<path fill="none" stroke="#63b8ff" d="M1108.74,-684.67C1129.06,-686.71 1150.68,-688.87 1169.21,-690.72"/>
<polygon fill="#63b8ff" stroke="#63b8ff" points="1109.24,-681.11 1098.94,-683.59 1108.54,-688.07 1109.24,-681.11"/>
</g>
<!-- Node16 -->
<g id="node16" class="node">
<title>Node16</title>
<g id="a_node16"><a xlink:href="interfaceSCR__LoadoutButton.html" target="_top" xlink:title=" ">
<polygon fill="white" stroke="#666666" points="1270.5,-668 1165.5,-668 1165.5,-649 1270.5,-649 1270.5,-668"/>
<text text-anchor="middle" x="1218" y="-656" font-family="Helvetica,sans-Serif" font-size="10.00">SCR_LoadoutButton</text>
</a>
</g>
</g>
<!-- Node13&#45;&gt;Node16 -->
<g id="edge15" class="edge">
<title>Node13&#45;&gt;Node16</title>
<path fill="none" stroke="#63b8ff" d="M1108.86,-669.91C1127.67,-667.93 1147.59,-665.83 1165.13,-663.97"/>
<polygon fill="#63b8ff" stroke="#63b8ff" points="1108.52,-666.54 1098.94,-671.07 1109.25,-673.5 1108.52,-666.54"/>
</g>
<!-- Node17 -->
<g id="node17" class="node">
<title>Node17</title>
<g id="a_node17"><a xlink:href="interfaceSCR__NewGroupButton.html" target="_top" xlink:title=" ">
<polygon fill="white" stroke="#666666" points="1276,-631 1160,-631 1160,-612 1276,-612 1276,-631"/>
<text text-anchor="middle" x="1218" y="-619" font-family="Helvetica,sans-Serif" font-size="10.00">SCR_NewGroupButton</text>
</a>
</g>
</g>
<!-- Node13&#45;&gt;Node17 -->
<g id="edge16" class="edge">
<title>Node13&#45;&gt;Node17</title>
<path fill="none" stroke="#63b8ff" d="M1107.05,-664.82C1112.84,-663.22 1118.56,-661.46 1124,-659.5 1141.03,-653.38 1143.36,-647.61 1160,-640.5 1167.67,-637.22 1176.12,-634.14 1184.1,-631.45"/>
<polygon fill="#63b8ff" stroke="#63b8ff" points="1106.4,-661.63 1097.59,-667.5 1108.14,-668.41 1106.4,-661.63"/>
</g>
<!-- Node21 -->
<g id="node21" class="node">
<title>Node21</title>
<g id="a_node21"><a xlink:href="interfaceSCR__ButtonCheckerComponent.html" target="_top" xlink:title=" ">
<polygon fill="white" stroke="#666666" points="1114,-576 958,-576 958,-557 1114,-557 1114,-576"/>
<text text-anchor="middle" x="1036" y="-564" font-family="Helvetica,sans-Serif" font-size="10.00">SCR_ButtonCheckerComponent</text>
</a>
</g>
</g>
<!-- Node20&#45;&gt;Node21 -->
<g id="edge20" class="edge">
<title>Node20&#45;&gt;Node21</title>
<path fill="none" stroke="#63b8ff" d="M911.37,-572.58C926.64,-571.82 942.59,-571.04 957.78,-570.29"/>
<polygon fill="#63b8ff" stroke="#63b8ff" points="911.21,-569.13 901.4,-573.11 911.56,-576.12 911.21,-569.13"/>
</g>
<!-- Node23 -->
<g id="node23" class="node">
<title>Node23</title>
<g id="a_node23"><a xlink:href="interfaceSCR__ModEntryComponent.html" target="_top" xlink:title=" ">
<polygon fill="white" stroke="#666666" points="1103,-539 969,-539 969,-520 1103,-520 1103,-539"/>
<text text-anchor="middle" x="1036" y="-527" font-family="Helvetica,sans-Serif" font-size="10.00">SCR_ModEntryComponent</text>
</a>
</g>
</g>
<!-- Node22&#45;&gt;Node23 -->
<g id="edge22" class="edge">
<title>Node22&#45;&gt;Node23</title>
<path fill="none" stroke="#63b8ff" d="M916.06,-535.34C933.59,-534.48 951.82,-533.59 968.58,-532.76"/>
<polygon fill="#63b8ff" stroke="#63b8ff" points="916.07,-531.89 906.26,-535.88 916.42,-538.88 916.07,-531.89"/>
</g>
<!-- Node26 -->
<g id="node26" class="node">
<title>Node26</title>
<g id="a_node26"><a xlink:href="interfaceSCR__DeployButton.html" target="_top" xlink:title="Component that handles the request respawn button.">
<polygon fill="white" stroke="#666666" points="1086.5,-488 985.5,-488 985.5,-469 1086.5,-469 1086.5,-488"/>
<text text-anchor="middle" x="1036" y="-476" font-family="Helvetica,sans-Serif" font-size="10.00">SCR_DeployButton</text>
</a>
</g>
</g>
<!-- Node25&#45;&gt;Node26 -->
<g id="edge25" class="edge">
<title>Node25&#45;&gt;Node26</title>
<path fill="none" stroke="#63b8ff" d="M912.08,-470.65C936.79,-472.23 963.23,-473.92 985.24,-475.32"/>
<polygon fill="#63b8ff" stroke="#63b8ff" points="912.45,-467.1 902.25,-469.96 912,-474.09 912.45,-467.1"/>
</g>
<!-- Node27 -->
<g id="node27" class="node">
<title>Node27</title>
<g id="a_node27"><a xlink:href="interfaceSCR__InventoryNavigationButtonBack.html" target="_top" xlink:title="Interactive non&#45;focus button showing hint, and triggering actions.">
<polygon fill="white" stroke="#666666" points="1124,-451 948,-451 948,-432 1124,-432 1124,-451"/>
<text text-anchor="middle" x="1036" y="-439" font-family="Helvetica,sans-Serif" font-size="10.00">SCR_InventoryNavigationButtonBack</text>
</a>
</g>
</g>
<!-- Node25&#45;&gt;Node27 -->
<g id="edge26" class="edge">
<title>Node25&#45;&gt;Node27</title>
<path fill="none" stroke="#63b8ff" d="M912.12,-455.99C924.64,-454.52 937.61,-452.99 950.22,-451.5"/>
<polygon fill="#63b8ff" stroke="#63b8ff" points="911.77,-452.63 902.25,-457.27 912.59,-459.58 911.77,-452.63"/>
</g>
<!-- Node35 -->
<g id="node35" class="node">
<title>Node35</title>
<g id="a_node35"><a xlink:href="interfaceSCR__EditBoxComponent.html" target="_top" xlink:title=" ">
<polygon fill="white" stroke="#666666" points="893.5,-278 767.5,-278 767.5,-259 893.5,-259 893.5,-278"/>
<text text-anchor="middle" x="830.5" y="-266" font-family="Helvetica,sans-Serif" font-size="10.00">SCR_EditBoxComponent</text>
</a>
</g>
</g>
<!-- Node34&#45;&gt;Node35 -->
<g id="edge34" class="edge">
<title>Node34&#45;&gt;Node35</title>
<path fill="none" stroke="#63b8ff" d="M718.14,-268.5C734.74,-268.5 751.67,-268.5 767.16,-268.5"/>
<polygon fill="#63b8ff" stroke="#63b8ff" points="718.3,-265 708.3,-268.5 718.3,-272 718.3,-265"/>
</g>
<!-- Node37 -->
<g id="node37" class="node">
<title>Node37</title>
<g id="a_node37"><a xlink:href="interfaceSCR__SelectionWidgetComponent.html" target="_top" xlink:title=" ">
<polygon fill="white" stroke="#666666" points="912,-241 749,-241 749,-222 912,-222 912,-241"/>
<text text-anchor="middle" x="830.5" y="-229" font-family="Helvetica,sans-Serif" font-size="10.00">SCR_SelectionWidgetComponent</text>
</a>
</g>
</g>
<!-- Node34&#45;&gt;Node37 -->
<g id="edge36" class="edge">
<title>Node34&#45;&gt;Node37</title>
<path fill="none" stroke="#63b8ff" d="M690.93,-256.63C717.87,-251.75 748.72,-246.15 774.47,-241.48"/>
<polygon fill="#63b8ff" stroke="#63b8ff" points="690.65,-253.31 681.44,-258.54 691.9,-260.2 690.65,-253.31"/>
</g>
<!-- Node47 -->
<g id="node42" class="node">
<title>Node47</title>
<g id="a_node42"><a xlink:href="interfaceSCR__SliderComponent.html" target="_top" xlink:title=" ">
<polygon fill="white" stroke="#666666" points="888.5,-204 772.5,-204 772.5,-185 888.5,-185 888.5,-204"/>
<text text-anchor="middle" x="830.5" y="-192" font-family="Helvetica,sans-Serif" font-size="10.00">SCR_SliderComponent</text>
</a>
</g>
</g>
<!-- Node34&#45;&gt;Node47 -->
<g id="edge41" class="edge">
<title>Node34&#45;&gt;Node47</title>
<path fill="none" stroke="#63b8ff" d="M704.48,-254.64C707.41,-253.38 710.26,-252 713,-250.5 733.12,-239.48 729.04,-224.81 749,-213.5 756.12,-209.47 764.06,-206.29 772.11,-203.78"/>
<polygon fill="#63b8ff" stroke="#63b8ff" points="703.39,-251.69 695.28,-258.51 705.87,-258.24 703.39,-251.69"/>
</g>
<!-- Node36 -->
<g id="node36" class="node">
<title>Node36</title>
<g id="a_node36"><a xlink:href="interfaceSCR__EditBoxSearchComponent.html" target="_top" xlink:title=" ">
<polygon fill="white" stroke="#666666" points="1114.5,-315 957.5,-315 957.5,-296 1114.5,-296 1114.5,-315"/>
<text text-anchor="middle" x="1036" y="-303" font-family="Helvetica,sans-Serif" font-size="10.00">SCR_EditBoxSearchComponent</text>
</a>
</g>
</g>
<!-- Node35&#45;&gt;Node36 -->
<g id="edge35" class="edge">
<title>Node35&#45;&gt;Node36</title>
<path fill="none" stroke="#63b8ff" d="M896.77,-280.37C923.64,-285.25 954.42,-290.85 980.1,-295.52"/>
<polygon fill="#63b8ff" stroke="#63b8ff" points="897.77,-276.81 887.3,-278.46 896.51,-283.7 897.77,-276.81"/>
</g>
<!-- Node38 -->
<g id="node38" class="node">
<title>Node38</title>
<g id="a_node38"><a xlink:href="interfaceSCR__ComboBoxComponent.html" target="_top" xlink:title=" ">
<polygon fill="#fff0f0" stroke="red" points="1106,-278 966,-278 966,-259 1106,-259 1106,-278"/>
<text text-anchor="middle" x="1036" y="-266" font-family="Helvetica,sans-Serif" font-size="10.00">SCR_ComboBoxComponent</text>
</a>
</g>
</g>
<!-- Node37&#45;&gt;Node38 -->
<g id="edge37" class="edge">
<title>Node37&#45;&gt;Node38</title>
<path fill="none" stroke="#63b8ff" d="M896.77,-243.37C923.64,-248.25 954.42,-253.85 980.1,-258.52"/>
<polygon fill="#63b8ff" stroke="#63b8ff" points="897.77,-239.81 887.3,-241.46 896.51,-246.7 897.77,-239.81"/>
</g>
<!-- Node40 -->
<g id="node39" class="node">
<title>Node40</title>
<g id="a_node39"><a xlink:href="interfaceSCR__ServerSortingComponent.html" target="_top" xlink:title=" ">
<polygon fill="white" stroke="#666666" points="1110.5,-241 961.5,-241 961.5,-222 1110.5,-222 1110.5,-241"/>
<text text-anchor="middle" x="1036" y="-229" font-family="Helvetica,sans-Serif" font-size="10.00">SCR_ServerSortingComponent</text>
</a>
</g>
</g>
<!-- Node37&#45;&gt;Node40 -->
<g id="edge38" class="edge">
<title>Node37&#45;&gt;Node40</title>
<path fill="none" stroke="#63b8ff" d="M922.94,-231.5C935.79,-231.5 948.86,-231.5 961.31,-231.5"/>
<polygon fill="#63b8ff" stroke="#63b8ff" points="923.22,-228 913.22,-231.5 923.22,-235 923.22,-228"/>
</g>
<!-- Node41 -->
<g id="node40" class="node">
<title>Node41</title>
<g id="a_node40"><a xlink:href="interfaceSCR__SpinBoxComponent.html" target="_top" xlink:title=" ">
<polygon fill="#fff0f0" stroke="red" points="1100,-204 972,-204 972,-185 1100,-185 1100,-204"/>
<text text-anchor="middle" x="1036" y="-192" font-family="Helvetica,sans-Serif" font-size="10.00">SCR_SpinBoxComponent</text>
</a>
</g>
</g>
<!-- Node37&#45;&gt;Node41 -->
<g id="edge39" class="edge">
<title>Node37&#45;&gt;Node41</title>
<path fill="none" stroke="#63b8ff" d="M896.77,-219.63C923.64,-214.75 954.42,-209.15 980.1,-204.48"/>
<polygon fill="#63b8ff" stroke="#63b8ff" points="896.51,-216.3 887.3,-221.54 897.77,-223.19 896.51,-216.3"/>
</g>
<!-- Node44 -->
<g id="node41" class="node">
<title>Node44</title>
<g id="a_node41"><a xlink:href="interfaceSCR__ToolboxComponent.html" target="_top" xlink:title=" ">
<polygon fill="#fff0f0" stroke="red" points="1098.5,-167 973.5,-167 973.5,-148 1098.5,-148 1098.5,-167"/>
<text text-anchor="middle" x="1036" y="-155" font-family="Helvetica,sans-Serif" font-size="10.00">SCR_ToolboxComponent</text>
</a>
</g>
</g>
<!-- Node37&#45;&gt;Node44 -->
<g id="edge40" class="edge">
<title>Node37&#45;&gt;Node44</title>
<path fill="none" stroke="#63b8ff" d="M903.63,-217.7C906.51,-216.42 909.31,-215.02 912,-213.5 932.23,-202.02 927.68,-186.82 948,-175.5 955.82,-171.15 964.56,-167.84 973.4,-165.33"/>
<polygon fill="#63b8ff" stroke="#63b8ff" points="902.63,-214.72 894.57,-221.6 905.16,-221.24 902.63,-214.72"/>
</g>
</g>
</svg>
