<?xml version="1.0" encoding="UTF-8" standalone="no"?>
<!DOCTYPE svg PUBLIC "-//W3C//DTD SVG 1.1//EN"
 "http://www.w3.org/Graphics/SVG/1.1/DTD/svg11.dtd">
<!-- Generated by graphviz version 8.0.2 (20230410.1723)
 -->
<!-- Title: SCR_ConfigurableDialogUi Pages: 1 -->
<svg width="723pt" height="1363pt"
 viewBox="0.00 0.00 723.00 1363.00" xmlns="http://www.w3.org/2000/svg" xmlns:xlink="http://www.w3.org/1999/xlink">
<g id="graph0" class="graph" transform="scale(1 1) rotate(0) translate(4 1359)">
<title>SCR_ConfigurableDialogUi</title>
<!-- Node1 -->
<g id="node1" class="node">
<title>Node1</title>
<g id="a_node1"><a xlink:title=" ">
<polygon fill="#999999" stroke="#666666" points="300,-693.5 169,-693.5 169,-674.5 300,-674.5 300,-693.5"/>
<text text-anchor="middle" x="234.5" y="-681.5" font-family="Helvetica,sans-Serif" font-size="10.00">SCR_ConfigurableDialogUi</text>
</a>
</g>
</g>
<!-- Node3 -->
<g id="node3" class="node">
<title>Node3</title>
<g id="a_node3"><a xlink:href="interfaceMultiplayerDialogUI.html" target="_top" xlink:title=" ">
<polygon fill="white" stroke="#666666" points="480,-1354.5 380,-1354.5 380,-1335.5 480,-1335.5 480,-1354.5"/>
<text text-anchor="middle" x="430" y="-1342.5" font-family="Helvetica,sans-Serif" font-size="10.00">MultiplayerDialogUI</text>
</a>
</g>
</g>
<!-- Node1&#45;&gt;Node3 -->
<g id="edge2" class="edge">
<title>Node1&#45;&gt;Node3</title>
<path fill="none" stroke="#63b8ff" d="M235.67,-704.85C236.92,-804.94 247.43,-1235.17 336,-1327 347.3,-1338.72 363.77,-1344.07 379.72,-1346.22"/>
<polygon fill="#63b8ff" stroke="#63b8ff" points="239.16,-704.83 235.55,-694.87 232.16,-704.9 239.16,-704.83"/>
</g>
<!-- Node4 -->
<g id="node4" class="node">
<title>Node4</title>
<g id="a_node4"><a xlink:href="interfaceSCR__AccountLockedDialogUi.html" target="_top" xlink:title=" ">
<polygon fill="white" stroke="#666666" points="503,-1317.5 357,-1317.5 357,-1298.5 503,-1298.5 503,-1317.5"/>
<text text-anchor="middle" x="430" y="-1305.5" font-family="Helvetica,sans-Serif" font-size="10.00">SCR_AccountLockedDialogUi</text>
</a>
</g>
</g>
<!-- Node1&#45;&gt;Node4 -->
<g id="edge3" class="edge">
<title>Node1&#45;&gt;Node4</title>
<path fill="none" stroke="#63b8ff" d="M235.88,-704.56C238.08,-800.59 252.26,-1203.98 336,-1290 341.85,-1296.01 349.06,-1300.34 356.86,-1303.42"/>
<polygon fill="#63b8ff" stroke="#63b8ff" points="239.36,-704.68 235.65,-694.75 232.36,-704.82 239.36,-704.68"/>
</g>
<!-- Node5 -->
<g id="node5" class="node">
<title>Node5</title>
<g id="a_node5"><a xlink:href="interfaceSCR__AddonListDialog.html" target="_top" xlink:title="Shows a list of addons and some text.">
<polygon fill="white" stroke="#666666" points="486.5,-1280.5 373.5,-1280.5 373.5,-1261.5 486.5,-1261.5 486.5,-1280.5"/>
<text text-anchor="middle" x="430" y="-1268.5" font-family="Helvetica,sans-Serif" font-size="10.00">SCR_AddonListDialog</text>
</a>
</g>
</g>
<!-- Node1&#45;&gt;Node5 -->
<g id="edge4" class="edge">
<title>Node1&#45;&gt;Node5</title>
<path fill="none" stroke="#63b8ff" d="M236.14,-704.4C239.46,-796.39 257.68,-1171.58 336,-1252 345.77,-1262.03 359.31,-1267.5 373.03,-1270.32"/>
<polygon fill="#63b8ff" stroke="#63b8ff" points="239.61,-704.44 235.77,-694.57 232.62,-704.68 239.61,-704.44"/>
</g>
<!-- Node10 -->
<g id="node10" class="node">
<title>Node10</title>
<g id="a_node10"><a xlink:href="interfaceSCR__BannedAddonsDetectedDialog.html" target="_top" xlink:title="Dialog which lists names of all banned addons.">
<polygon fill="white" stroke="#666666" points="503.5,-1243 356.5,-1243 356.5,-1213 503.5,-1213 503.5,-1243"/>
<text text-anchor="start" x="364.5" y="-1231" font-family="Helvetica,sans-Serif" font-size="10.00">SCR_BannedAddonsDetected</text>
<text text-anchor="middle" x="430" y="-1220" font-family="Helvetica,sans-Serif" font-size="10.00">Dialog</text>
</a>
</g>
</g>
<!-- Node1&#45;&gt;Node10 -->
<g id="edge9" class="edge">
<title>Node1&#45;&gt;Node10</title>
<path fill="none" stroke="#63b8ff" d="M236.63,-704.78C241.79,-792.27 265.99,-1129.54 336,-1204 341.71,-1210.07 348.74,-1214.69 356.35,-1218.19"/>
<polygon fill="#63b8ff" stroke="#63b8ff" points="240.07,-704.73 236.01,-694.95 233.08,-705.13 240.07,-704.73"/>
</g>
<!-- Node11 -->
<g id="node11" class="node">
<title>Node11</title>
<g id="a_node11"><a xlink:href="interfaceSCR__CancelDownloadConfirmationDialog.html" target="_top" xlink:title="Dialog to cancel downloads.">
<polygon fill="white" stroke="#666666" points="514,-1195 346,-1195 346,-1165 514,-1165 514,-1195"/>
<text text-anchor="start" x="354" y="-1183" font-family="Helvetica,sans-Serif" font-size="10.00">SCR_CancelDownloadConfirmation</text>
<text text-anchor="middle" x="430" y="-1172" font-family="Helvetica,sans-Serif" font-size="10.00">Dialog</text>
</a>
</g>
</g>
<!-- Node1&#45;&gt;Node11 -->
<g id="edge10" class="edge">
<title>Node1&#45;&gt;Node11</title>
<path fill="none" stroke="#63b8ff" d="M237.06,-704.67C243.67,-786.86 272.05,-1089.25 336,-1156 339.11,-1159.25 342.61,-1162.08 346.36,-1164.55"/>
<polygon fill="#63b8ff" stroke="#63b8ff" points="240.48,-704.51 236.21,-694.82 233.5,-705.06 240.48,-704.51"/>
</g>
<!-- Node12 -->
<g id="node12" class="node">
<title>Node12</title>
<g id="a_node12"><a xlink:href="interfaceSCR__CancelMyReportDialog.html" target="_top" xlink:title="Dialog which sends a request to delete user&#39;s report.">
<polygon fill="white" stroke="#666666" points="500.5,-1146.5 359.5,-1146.5 359.5,-1127.5 500.5,-1127.5 500.5,-1146.5"/>
<text text-anchor="middle" x="430" y="-1134.5" font-family="Helvetica,sans-Serif" font-size="10.00">SCR_CancelMyReportDialog</text>
</a>
</g>
</g>
<!-- Node1&#45;&gt;Node12 -->
<g id="edge11" class="edge">
<title>Node1&#45;&gt;Node12</title>
<path fill="none" stroke="#63b8ff" d="M237.34,-704.65C244.72,-782.94 274.84,-1060 336,-1119 342.51,-1125.28 350.51,-1129.69 359.07,-1132.75"/>
<polygon fill="#63b8ff" stroke="#63b8ff" points="240.74,-704.49 236.34,-694.86 233.77,-705.14 240.74,-704.49"/>
</g>
<!-- Node13 -->
<g id="node13" class="node">
<title>Node13</title>
<g id="a_node13"><a xlink:href="interfaceSCR__DeleteAddonDialog.html" target="_top" xlink:title="Confirmation dialog for unsubscribing an addon.">
<polygon fill="white" stroke="#666666" points="492.5,-1109.5 367.5,-1109.5 367.5,-1090.5 492.5,-1090.5 492.5,-1109.5"/>
<text text-anchor="middle" x="430" y="-1097.5" font-family="Helvetica,sans-Serif" font-size="10.00">SCR_DeleteAddonDialog</text>
</a>
</g>
</g>
<!-- Node1&#45;&gt;Node13 -->
<g id="edge12" class="edge">
<title>Node1&#45;&gt;Node13</title>
<path fill="none" stroke="#63b8ff" d="M237.77,-704.31C246.4,-777.84 279.58,-1028.67 336,-1082 344.6,-1090.13 355.73,-1095.12 367.27,-1098.08"/>
<polygon fill="#63b8ff" stroke="#63b8ff" points="241.17,-704.28 236.56,-694.74 234.22,-705.07 241.17,-704.28"/>
</g>
<!-- Node14 -->
<g id="node14" class="node">
<title>Node14</title>
<g id="a_node14"><a xlink:href="interfaceSCR__DeleteAddonsListDialog.html" target="_top" xlink:title=" ">
<polygon fill="white" stroke="#666666" points="503,-1072.5 357,-1072.5 357,-1053.5 503,-1053.5 503,-1072.5"/>
<text text-anchor="middle" x="430" y="-1060.5" font-family="Helvetica,sans-Serif" font-size="10.00">SCR_DeleteAddonsListDialog</text>
</a>
</g>
</g>
<!-- Node1&#45;&gt;Node14 -->
<g id="edge13" class="edge">
<title>Node1&#45;&gt;Node14</title>
<path fill="none" stroke="#63b8ff" d="M238.4,-704.55C248.58,-773.7 284.83,-996.33 336,-1044 341.91,-1049.5 348.96,-1053.6 356.51,-1056.62"/>
<polygon fill="#63b8ff" stroke="#63b8ff" points="241.75,-704.22 236.85,-694.82 234.82,-705.22 241.75,-704.22"/>
</g>
<!-- Node15 -->
<g id="node15" class="node">
<title>Node15</title>
<g id="a_node15"><a xlink:href="interfaceSCR__DownloadConfirmationDialog.html" target="_top" xlink:title="Dialog for confirming multiple downloads in workshop.">
<polygon fill="white" stroke="#666666" points="499,-1035 361,-1035 361,-1005 499,-1005 499,-1035"/>
<text text-anchor="start" x="369" y="-1023" font-family="Helvetica,sans-Serif" font-size="10.00">SCR_DownloadConfirmation</text>
<text text-anchor="middle" x="430" y="-1012" font-family="Helvetica,sans-Serif" font-size="10.00">Dialog</text>
</a>
</g>
</g>
<!-- Node1&#45;&gt;Node15 -->
<g id="edge14" class="edge">
<title>Node1&#45;&gt;Node15</title>
<path fill="none" stroke="#63b8ff" d="M235.71,-704.78C237.44,-760.6 250.15,-915.07 336,-996 343.04,-1002.63 351.66,-1007.49 360.79,-1011.04"/>
<polygon fill="#63b8ff" stroke="#63b8ff" points="239.19,-704.8 235.48,-694.88 232.19,-704.95 239.19,-704.8"/>
</g>
<!-- Node18 -->
<g id="node18" class="node">
<title>Node18</title>
<g id="a_node18"><a xlink:href="interfaceSCR__DownloadManager__MiniDialog.html" target="_top" xlink:title="A mini download manager dialog.">
<polygon fill="white" stroke="#666666" points="491,-987 369,-987 369,-957 491,-957 491,-987"/>
<text text-anchor="start" x="377" y="-975" font-family="Helvetica,sans-Serif" font-size="10.00">SCR_DownloadManager</text>
<text text-anchor="middle" x="430" y="-964" font-family="Helvetica,sans-Serif" font-size="10.00">_MiniDialog</text>
</a>
</g>
</g>
<!-- Node1&#45;&gt;Node18 -->
<g id="edge17" class="edge">
<title>Node1&#45;&gt;Node18</title>
<path fill="none" stroke="#63b8ff" d="M237.11,-704.86C242.12,-754.75 261.87,-881.69 336,-948 345.2,-956.23 356.85,-961.7 368.76,-965.33"/>
<polygon fill="#63b8ff" stroke="#63b8ff" points="240.51,-704.57 236.13,-694.93 233.54,-705.2 240.51,-704.57"/>
</g>
<!-- Node19 -->
<g id="node19" class="node">
<title>Node19</title>
<g id="a_node19"><a xlink:href="interfaceSCR__EditboxDialogUi.html" target="_top" xlink:title="Configurable editbox dialog base.">
<polygon fill="white" stroke="#666666" points="485.5,-938.5 374.5,-938.5 374.5,-919.5 485.5,-919.5 485.5,-938.5"/>
<text text-anchor="middle" x="430" y="-926.5" font-family="Helvetica,sans-Serif" font-size="10.00">SCR_EditboxDialogUi</text>
</a>
</g>
</g>
<!-- Node1&#45;&gt;Node19 -->
<g id="edge18" class="edge">
<title>Node1&#45;&gt;Node19</title>
<path fill="none" stroke="#63b8ff" d="M238.18,-704.33C245.23,-749.29 268.68,-857.38 336,-911 346.81,-919.61 360.53,-924.5 374.1,-927.2"/>
<polygon fill="#63b8ff" stroke="#63b8ff" points="241.53,-704.05 236.63,-694.65 234.6,-705.05 241.53,-704.05"/>
</g>
<!-- Node20 -->
<g id="node20" class="node">
<title>Node20</title>
<g id="a_node20"><a xlink:href="interfaceSCR__ExitGameDialog.html" target="_top" xlink:title=" ">
<polygon fill="white" stroke="#666666" points="486.5,-901.5 373.5,-901.5 373.5,-882.5 486.5,-882.5 486.5,-901.5"/>
<text text-anchor="middle" x="430" y="-889.5" font-family="Helvetica,sans-Serif" font-size="10.00">SCR_ExitGameDialog</text>
</a>
</g>
</g>
<!-- Node1&#45;&gt;Node20 -->
<g id="edge19" class="edge">
<title>Node1&#45;&gt;Node20</title>
<path fill="none" stroke="#63b8ff" d="M240.18,-704.33C250.33,-743.61 278.27,-829.85 336,-873 346.69,-880.99 359.93,-885.83 373.03,-888.71"/>
<polygon fill="#63b8ff" stroke="#63b8ff" points="243.36,-703.63 237.58,-694.75 236.56,-705.29 243.36,-703.63"/>
</g>
<!-- Node21 -->
<g id="node21" class="node">
<title>Node21</title>
<g id="a_node21"><a xlink:href="interfaceSCR__ExitGameWhileDownloadingDialog.html" target="_top" xlink:title=" ">
<polygon fill="white" stroke="#666666" points="512.5,-864 347.5,-864 347.5,-834 512.5,-834 512.5,-864"/>
<text text-anchor="start" x="355.5" y="-852" font-family="Helvetica,sans-Serif" font-size="10.00">SCR_ExitGameWhileDownloading</text>
<text text-anchor="middle" x="430" y="-841" font-family="Helvetica,sans-Serif" font-size="10.00">Dialog</text>
</a>
</g>
</g>
<!-- Node1&#45;&gt;Node21 -->
<g id="edge20" class="edge">
<title>Node1&#45;&gt;Node21</title>
<path fill="none" stroke="#63b8ff" d="M243.98,-703.57C258.31,-734.31 290.32,-793.61 336,-825 340.81,-828.31 346.04,-831.16 351.49,-833.61"/>
<polygon fill="#63b8ff" stroke="#63b8ff" points="246.8,-702.32 239.5,-694.65 240.42,-705.2 246.8,-702.32"/>
</g>
<!-- Node22 -->
<g id="node22" class="node">
<title>Node22</title>
<g id="a_node22"><a xlink:href="interfaceSCR__HostScenarioWhileDownloadingDialog.html" target="_top" xlink:title=" ">
<polygon fill="white" stroke="#666666" points="520,-816 340,-816 340,-786 520,-786 520,-816"/>
<text text-anchor="start" x="348" y="-804" font-family="Helvetica,sans-Serif" font-size="10.00">SCR_HostScenarioWhileDownloading</text>
<text text-anchor="middle" x="430" y="-793" font-family="Helvetica,sans-Serif" font-size="10.00">Dialog</text>
</a>
</g>
</g>
<!-- Node1&#45;&gt;Node22 -->
<g id="edge21" class="edge">
<title>Node1&#45;&gt;Node22</title>
<path fill="none" stroke="#63b8ff" d="M250.22,-702.26C268.24,-723.39 300.74,-757.75 336,-777 342,-780.28 348.47,-783.12 355.09,-785.58"/>
<polygon fill="#63b8ff" stroke="#63b8ff" points="252.29,-700.28 243.21,-694.83 246.91,-704.76 252.29,-700.28"/>
</g>
<!-- Node23 -->
<g id="node23" class="node">
<title>Node23</title>
<g id="a_node23"><a xlink:href="interfaceSCR__ItemSplitDialog.html" target="_top" xlink:title=" ">
<polygon fill="white" stroke="#666666" points="483.5,-767.5 376.5,-767.5 376.5,-748.5 483.5,-748.5 483.5,-767.5"/>
<text text-anchor="middle" x="430" y="-755.5" font-family="Helvetica,sans-Serif" font-size="10.00">SCR_ItemSplitDialog</text>
</a>
</g>
</g>
<!-- Node1&#45;&gt;Node23 -->
<g id="edge22" class="edge">
<title>Node1&#45;&gt;Node23</title>
<path fill="none" stroke="#63b8ff" d="M259.31,-699.7C279.09,-712.08 308.36,-728.88 336,-739 348.69,-743.65 362.79,-747.27 376.1,-750.04"/>
<polygon fill="#63b8ff" stroke="#63b8ff" points="261.47,-696.29 251.15,-693.86 257.7,-702.19 261.47,-696.29"/>
</g>
<!-- Node24 -->
<g id="node24" class="node">
<title>Node24</title>
<g id="a_node24"><a xlink:href="interfaceSCR__KeybindDialogBase.html" target="_top" xlink:title=" ">
<polygon fill="white" stroke="#666666" points="493.5,-730.5 366.5,-730.5 366.5,-711.5 493.5,-711.5 493.5,-730.5"/>
<text text-anchor="middle" x="430" y="-718.5" font-family="Helvetica,sans-Serif" font-size="10.00">SCR_KeybindDialogBase</text>
</a>
</g>
</g>
<!-- Node1&#45;&gt;Node24 -->
<g id="edge23" class="edge">
<title>Node1&#45;&gt;Node24</title>
<path fill="none" stroke="#63b8ff" d="M298.24,-696C323.63,-700.85 352.59,-706.39 376.8,-711.02"/>
<polygon fill="#63b8ff" stroke="#63b8ff" points="299.09,-692.4 288.61,-693.96 297.77,-699.28 299.09,-692.4"/>
</g>
<!-- Node27 -->
<g id="node27" class="node">
<title>Node27</title>
<g id="a_node27"><a xlink:href="interfaceSCR__LoginProcessDialogUI.html" target="_top" xlink:title=" ">
<polygon fill="white" stroke="#666666" points="498.5,-693.5 361.5,-693.5 361.5,-674.5 498.5,-674.5 498.5,-693.5"/>
<text text-anchor="middle" x="430" y="-681.5" font-family="Helvetica,sans-Serif" font-size="10.00">SCR_LoginProcessDialogUI</text>
</a>
</g>
</g>
<!-- Node1&#45;&gt;Node27 -->
<g id="edge26" class="edge">
<title>Node1&#45;&gt;Node27</title>
<path fill="none" stroke="#63b8ff" d="M311.17,-684C327.68,-684 345.05,-684 361.22,-684"/>
<polygon fill="#63b8ff" stroke="#63b8ff" points="311.47,-680.5 301.47,-684 311.47,-687.5 311.47,-680.5"/>
</g>
<!-- Node33 -->
<g id="node31" class="node">
<title>Node33</title>
<g id="a_node31"><a xlink:href="interfaceSCR__ModDetailsAdditionalInfoDialog.html" target="_top" xlink:title=" ">
<polygon fill="white" stroke="#666666" points="497,-656 363,-656 363,-626 497,-626 497,-656"/>
<text text-anchor="start" x="371" y="-644" font-family="Helvetica,sans-Serif" font-size="10.00">SCR_ModDetailsAdditional</text>
<text text-anchor="middle" x="430" y="-633" font-family="Helvetica,sans-Serif" font-size="10.00">InfoDialog</text>
</a>
</g>
</g>
<!-- Node1&#45;&gt;Node33 -->
<g id="edge30" class="edge">
<title>Node1&#45;&gt;Node33</title>
<path fill="none" stroke="#63b8ff" d="M291.04,-671.66C313.4,-666.69 339.37,-660.92 362.71,-655.73"/>
<polygon fill="#63b8ff" stroke="#63b8ff" points="290.38,-668.44 281.38,-674.03 291.9,-675.27 290.38,-668.44"/>
</g>
<!-- Node34 -->
<g id="node32" class="node">
<title>Node34</title>
<g id="a_node32"><a xlink:href="interfaceSCR__NewSessionDialog.html" target="_top" xlink:title=" ">
<polygon fill="white" stroke="#666666" points="491.5,-607.5 368.5,-607.5 368.5,-588.5 491.5,-588.5 491.5,-607.5"/>
<text text-anchor="middle" x="430" y="-595.5" font-family="Helvetica,sans-Serif" font-size="10.00">SCR_NewSessionDialog</text>
</a>
</g>
</g>
<!-- Node1&#45;&gt;Node34 -->
<g id="edge31" class="edge">
<title>Node1&#45;&gt;Node34</title>
<path fill="none" stroke="#63b8ff" d="M255.55,-667.2C274.93,-651.82 305.72,-629.61 336,-617 346.19,-612.75 357.42,-609.43 368.44,-606.83"/>
<polygon fill="#63b8ff" stroke="#63b8ff" points="253.57,-665.11 248.01,-674.12 257.98,-670.54 253.57,-665.11"/>
</g>
<!-- Node35 -->
<g id="node33" class="node">
<title>Node35</title>
<g id="a_node33"><a xlink:href="interfaceSCR__NotEnoughStorageDialog.html" target="_top" xlink:title="There is not enough storage on your hard drive. The space required is at least %1.">
<polygon fill="white" stroke="#666666" points="505.5,-570.5 354.5,-570.5 354.5,-551.5 505.5,-551.5 505.5,-570.5"/>
<text text-anchor="middle" x="430" y="-558.5" font-family="Helvetica,sans-Serif" font-size="10.00">SCR_NotEnoughStorageDialog</text>
</a>
</g>
</g>
<!-- Node1&#45;&gt;Node35 -->
<g id="edge32" class="edge">
<title>Node1&#45;&gt;Node35</title>
<path fill="none" stroke="#63b8ff" d="M247.7,-665.43C264.54,-641.4 297.25,-600.13 336,-579 341.92,-575.77 348.33,-573.12 354.92,-570.93"/>
<polygon fill="#63b8ff" stroke="#63b8ff" points="244.41,-663.04 241.67,-673.28 250.19,-666.98 244.41,-663.04"/>
</g>
<!-- Node36 -->
<g id="node34" class="node">
<title>Node36</title>
<g id="a_node34"><a xlink:href="interfaceSCR__PersistentFactionDialog.html" target="_top" xlink:title=" ">
<polygon fill="white" stroke="#666666" points="503,-533.5 357,-533.5 357,-514.5 503,-514.5 503,-533.5"/>
<text text-anchor="middle" x="430" y="-521.5" font-family="Helvetica,sans-Serif" font-size="10.00">SCR_PersistentFactionDialog</text>
</a>
</g>
</g>
<!-- Node1&#45;&gt;Node36 -->
<g id="edge33" class="edge">
<title>Node1&#45;&gt;Node36</title>
<path fill="none" stroke="#63b8ff" d="M243.53,-664.37C257.42,-633.07 289.01,-572.32 336,-542 342.36,-537.9 349.43,-534.69 356.76,-532.19"/>
<polygon fill="#63b8ff" stroke="#63b8ff" points="240.08,-662.54 239.36,-673.11 246.51,-665.29 240.08,-662.54"/>
</g>
<!-- Node37 -->
<g id="node35" class="node">
<title>Node37</title>
<g id="a_node35"><a xlink:href="interfaceSCR__RewindDialog.html" target="_top" xlink:title=" ">
<polygon fill="white" stroke="#666666" points="480.5,-496.5 379.5,-496.5 379.5,-477.5 480.5,-477.5 480.5,-496.5"/>
<text text-anchor="middle" x="430" y="-484.5" font-family="Helvetica,sans-Serif" font-size="10.00">SCR_RewindDialog</text>
</a>
</g>
</g>
<!-- Node1&#45;&gt;Node37 -->
<g id="edge34" class="edge">
<title>Node1&#45;&gt;Node37</title>
<path fill="none" stroke="#63b8ff" d="M240.63,-664.15C251.42,-626.58 280.22,-545.26 336,-505 348.53,-495.95 364.4,-491.12 379.47,-488.63"/>
<polygon fill="#63b8ff" stroke="#63b8ff" points="237.11,-662.74 237.84,-673.31 243.86,-664.59 237.11,-662.74"/>
</g>
<!-- Node38 -->
<g id="node36" class="node">
<title>Node38</title>
<g id="a_node36"><a xlink:href="interfaceSCR__ScenarioConfirmationDialogUi.html" target="_top" xlink:title=" ">
<polygon fill="white" stroke="#666666" points="497,-459 363,-459 363,-429 497,-429 497,-459"/>
<text text-anchor="start" x="371" y="-447" font-family="Helvetica,sans-Serif" font-size="10.00">SCR_ScenarioConfirmation</text>
<text text-anchor="middle" x="430" y="-436" font-family="Helvetica,sans-Serif" font-size="10.00">DialogUi</text>
</a>
</g>
</g>
<!-- Node1&#45;&gt;Node38 -->
<g id="edge35" class="edge">
<title>Node1&#45;&gt;Node38</title>
<path fill="none" stroke="#63b8ff" d="M239.02,-663.46C247.5,-620.37 273.22,-520.23 336,-468 343.82,-461.49 353.19,-456.73 362.94,-453.24"/>
<polygon fill="#63b8ff" stroke="#63b8ff" points="235.44,-662.54 237.06,-673.01 242.32,-663.82 235.44,-662.54"/>
</g>
<!-- Node39 -->
<g id="node37" class="node">
<title>Node39</title>
<g id="a_node37"><a xlink:href="interfaceSCR__ServerConfigSaveDialog.html" target="_top" xlink:title=" ">
<polygon fill="white" stroke="#666666" points="502,-410.5 358,-410.5 358,-391.5 502,-391.5 502,-410.5"/>
<text text-anchor="middle" x="430" y="-398.5" font-family="Helvetica,sans-Serif" font-size="10.00">SCR_ServerConfigSaveDialog</text>
</a>
</g>
</g>
<!-- Node1&#45;&gt;Node39 -->
<g id="edge36" class="edge">
<title>Node1&#45;&gt;Node39</title>
<path fill="none" stroke="#63b8ff" d="M236.84,-663.55C241.26,-613.58 259.87,-484.69 336,-420 342.4,-414.56 349.95,-410.53 357.92,-407.57"/>
<polygon fill="#63b8ff" stroke="#63b8ff" points="233.29,-662.98 236.01,-673.22 240.27,-663.52 233.29,-662.98"/>
</g>
<!-- Node40 -->
<g id="node38" class="node">
<title>Node40</title>
<g id="a_node38"><a xlink:href="interfaceSCR__ServerJoinDownloadsConfirmationDialog.html" target="_top" xlink:title="Dialog to cancel downloads during to server joining.">
<polygon fill="white" stroke="#666666" points="524,-373 336,-373 336,-343 524,-343 524,-373"/>
<text text-anchor="start" x="344" y="-361" font-family="Helvetica,sans-Serif" font-size="10.00">SCR_ServerJoinDownloadsConfirmation</text>
<text text-anchor="middle" x="430" y="-350" font-family="Helvetica,sans-Serif" font-size="10.00">Dialog</text>
</a>
</g>
</g>
<!-- Node1&#45;&gt;Node40 -->
<g id="edge37" class="edge">
<title>Node1&#45;&gt;Node40</title>
<path fill="none" stroke="#63b8ff" d="M235.97,-663.16C238.36,-608.5 252.62,-459.84 336,-382 339.53,-378.7 343.46,-375.84 347.65,-373.36"/>
<polygon fill="#63b8ff" stroke="#63b8ff" points="232.44,-663.04 235.6,-673.15 239.43,-663.27 232.44,-663.04"/>
</g>
<!-- Node41 -->
<g id="node39" class="node">
<title>Node41</title>
<g id="a_node39"><a xlink:href="interfaceSCR__ServicesStatusDialogUI.html" target="_top" xlink:title=" ">
<polygon fill="white" stroke="#666666" points="501.5,-324.5 358.5,-324.5 358.5,-305.5 501.5,-305.5 501.5,-324.5"/>
<text text-anchor="middle" x="430" y="-312.5" font-family="Helvetica,sans-Serif" font-size="10.00">SCR_ServicesStatusDialogUI</text>
</a>
</g>
</g>
<!-- Node1&#45;&gt;Node41 -->
<g id="edge38" class="edge">
<title>Node1&#45;&gt;Node41</title>
<path fill="none" stroke="#63b8ff" d="M238.56,-663.58C249.1,-595.82 286.09,-380.16 336,-334 342.41,-328.07 350.16,-323.78 358.4,-320.71"/>
<polygon fill="#63b8ff" stroke="#63b8ff" points="235,-662.7 236.94,-673.11 241.92,-663.75 235,-662.7"/>
</g>
<!-- Node42 -->
<g id="node40" class="node">
<title>Node42</title>
<g id="a_node40"><a xlink:href="interfaceSCR__SimpleEntryListDialog.html" target="_top" xlink:title="Dialog displaying list of names.">
<polygon fill="white" stroke="#666666" points="499,-287.5 361,-287.5 361,-268.5 499,-268.5 499,-287.5"/>
<text text-anchor="middle" x="430" y="-275.5" font-family="Helvetica,sans-Serif" font-size="10.00">SCR_SimpleEntryListDialog</text>
</a>
</g>
</g>
<!-- Node1&#45;&gt;Node42 -->
<g id="edge39" class="edge">
<title>Node1&#45;&gt;Node42</title>
<path fill="none" stroke="#63b8ff" d="M237.96,-663.28C247.04,-590.42 280.99,-347.69 336,-296 342.95,-289.47 351.53,-284.97 360.63,-281.93"/>
<polygon fill="#63b8ff" stroke="#63b8ff" points="234.37,-662.8 236.64,-673.15 241.32,-663.64 234.37,-662.8"/>
</g>
<!-- Node43 -->
<g id="node41" class="node">
<title>Node43</title>
<g id="a_node41"><a xlink:href="interfaceSCR__StartScenarioWhileDownloadingDialog.html" target="_top" xlink:title="Dialog which is shown when user wants to start a scenario while there are still downloads in progress...">
<polygon fill="white" stroke="#666666" points="520.5,-250 339.5,-250 339.5,-220 520.5,-220 520.5,-250"/>
<text text-anchor="start" x="347.5" y="-238" font-family="Helvetica,sans-Serif" font-size="10.00">SCR_StartScenarioWhileDownloading</text>
<text text-anchor="middle" x="430" y="-227" font-family="Helvetica,sans-Serif" font-size="10.00">Dialog</text>
</a>
</g>
</g>
<!-- Node1&#45;&gt;Node43 -->
<g id="edge40" class="edge">
<title>Node1&#45;&gt;Node43</title>
<path fill="none" stroke="#63b8ff" d="M237.57,-663.43C245.72,-586.66 277.95,-318.24 336,-259 339.27,-255.67 342.93,-252.77 346.87,-250.27"/>
<polygon fill="#63b8ff" stroke="#63b8ff" points="234.02,-662.74 236.47,-673.05 240.99,-663.46 234.02,-662.74"/>
</g>
<!-- Node44 -->
<g id="node42" class="node">
<title>Node44</title>
<g id="a_node42"><a xlink:href="interfaceSCR__TabDialog.html" target="_top" xlink:title="Class for tab dialogs, relies on a SCR_SuperMenuComponent placed on content layout root widget Do you...">
<polygon fill="white" stroke="#666666" points="472.5,-201.5 387.5,-201.5 387.5,-182.5 472.5,-182.5 472.5,-201.5"/>
<text text-anchor="middle" x="430" y="-189.5" font-family="Helvetica,sans-Serif" font-size="10.00">SCR_TabDialog</text>
</a>
</g>
</g>
<!-- Node1&#45;&gt;Node44 -->
<g id="edge41" class="edge">
<title>Node1&#45;&gt;Node44</title>
<path fill="none" stroke="#63b8ff" d="M236.96,-663.19C243.18,-580.47 270.25,-276.24 336,-211 349.34,-197.77 369.24,-192.55 387.21,-190.84"/>
<polygon fill="#63b8ff" stroke="#63b8ff" points="233.4,-662.89 236.16,-673.12 240.38,-663.4 233.4,-662.89"/>
</g>
<!-- Node48 -->
<g id="node46" class="node">
<title>Node48</title>
<g id="a_node46"><a xlink:href="interfaceSCR__WorkshopDialogCopyToClipboard.html" target="_top" xlink:title=" ">
<polygon fill="white" stroke="#666666" points="503,-164 357,-164 357,-134 503,-134 503,-164"/>
<text text-anchor="start" x="365" y="-152" font-family="Helvetica,sans-Serif" font-size="10.00">SCR_WorkshopDialogCopyTo</text>
<text text-anchor="middle" x="430" y="-141" font-family="Helvetica,sans-Serif" font-size="10.00">Clipboard</text>
</a>
</g>
</g>
<!-- Node1&#45;&gt;Node48 -->
<g id="edge45" class="edge">
<title>Node1&#45;&gt;Node48</title>
<path fill="none" stroke="#63b8ff" d="M236.7,-663.31C242.11,-576.9 267.11,-246.03 336,-173 341.84,-166.81 349.04,-162.14 356.83,-158.62"/>
<polygon fill="#63b8ff" stroke="#63b8ff" points="233.15,-663.03 236.04,-673.22 240.13,-663.45 233.15,-663.03"/>
</g>
<!-- Node49 -->
<g id="node47" class="node">
<title>Node49</title>
<g id="a_node47"><a xlink:href="interfaceSCR__WorkshopErrorDialog.html" target="_top" xlink:title=" ">
<polygon fill="white" stroke="#666666" points="497,-115.5 363,-115.5 363,-96.5 497,-96.5 497,-115.5"/>
<text text-anchor="middle" x="430" y="-103.5" font-family="Helvetica,sans-Serif" font-size="10.00">SCR_WorkshopErrorDialog</text>
</a>
</g>
</g>
<!-- Node1&#45;&gt;Node49 -->
<g id="edge46" class="edge">
<title>Node1&#45;&gt;Node49</title>
<path fill="none" stroke="#63b8ff" d="M236.21,-663.34C239.81,-571.8 258.94,-203.91 336,-125 343.37,-117.45 352.87,-112.49 362.97,-109.3"/>
<polygon fill="#63b8ff" stroke="#63b8ff" points="232.69,-663.03 235.81,-673.15 239.68,-663.29 232.69,-663.03"/>
</g>
<!-- Node50 -->
<g id="node48" class="node">
<title>Node50</title>
<g id="a_node48"><a xlink:href="interfaceSCR__WorkshopErrorPresetLoadDialog.html" target="_top" xlink:title=" ">
<polygon fill="white" stroke="#666666" points="508.5,-78 351.5,-78 351.5,-48 508.5,-48 508.5,-78"/>
<text text-anchor="start" x="359.5" y="-66" font-family="Helvetica,sans-Serif" font-size="10.00">SCR_WorkshopErrorPresetLoad</text>
<text text-anchor="middle" x="430" y="-55" font-family="Helvetica,sans-Serif" font-size="10.00">Dialog</text>
</a>
</g>
</g>
<!-- Node1&#45;&gt;Node50 -->
<g id="edge47" class="edge">
<title>Node1&#45;&gt;Node50</title>
<path fill="none" stroke="#63b8ff" d="M236.05,-663.57C239.02,-568.92 256.09,-174.08 336,-87 340.4,-82.21 345.61,-78.32 351.3,-75.17"/>
<polygon fill="#63b8ff" stroke="#63b8ff" points="232.53,-663.35 235.73,-673.44 239.52,-663.55 232.53,-663.35"/>
</g>
<!-- Node51 -->
<g id="node49" class="node">
<title>Node51</title>
<g id="a_node49"><a xlink:href="interfaceSCR__WorkshopPresetConfirmDialog.html" target="_top" xlink:title=" ">
<polygon fill="white" stroke="#666666" points="504,-30 356,-30 356,0 504,0 504,-30"/>
<text text-anchor="start" x="364" y="-18" font-family="Helvetica,sans-Serif" font-size="10.00">SCR_WorkshopPresetConfirm</text>
<text text-anchor="middle" x="430" y="-7" font-family="Helvetica,sans-Serif" font-size="10.00">Dialog</text>
</a>
</g>
</g>
<!-- Node1&#45;&gt;Node51 -->
<g id="edge48" class="edge">
<title>Node1&#45;&gt;Node51</title>
<path fill="none" stroke="#63b8ff" d="M235.78,-663.2C237.53,-563.32 250.05,-133.81 336,-39 341.49,-32.95 348.28,-28.33 355.68,-24.82"/>
<polygon fill="#63b8ff" stroke="#63b8ff" points="232.26,-663.1 235.61,-673.16 239.26,-663.21 232.26,-663.1"/>
</g>
<!-- Node2 -->
<g id="node2" class="node">
<title>Node2</title>
<g id="a_node2"><a xlink:title=" ">
<polygon fill="white" stroke="#666666" points="133,-693.5 0,-693.5 0,-674.5 133,-674.5 133,-693.5"/>
<text text-anchor="middle" x="66.5" y="-681.5" font-family="Helvetica,sans-Serif" font-size="10.00">ScriptedWidgetComponent</text>
</a>
</g>
</g>
<!-- Node2&#45;&gt;Node1 -->
<g id="edge1" class="edge">
<title>Node2&#45;&gt;Node1</title>
<path fill="none" stroke="#63b8ff" d="M143.9,-684C152.17,-684 160.53,-684 168.64,-684"/>
<polygon fill="#63b8ff" stroke="#63b8ff" points="144.11,-680.5 134.11,-684 144.11,-687.5 144.11,-680.5"/>
</g>
<!-- Node6 -->
<g id="node6" class="node">
<title>Node6</title>
<g id="a_node6"><a xlink:href="interfaceSCR__DeleteAddonDependentAddonsDetected.html" target="_top" xlink:title="This dialog is shown when we want to delete an addon but some other downloaded addons depend on it.">
<polygon fill="white" stroke="#666666" points="709.5,-1355 565.5,-1355 565.5,-1325 709.5,-1325 709.5,-1355"/>
<text text-anchor="start" x="573.5" y="-1343" font-family="Helvetica,sans-Serif" font-size="10.00">SCR_DeleteAddonDependent</text>
<text text-anchor="middle" x="637.5" y="-1332" font-family="Helvetica,sans-Serif" font-size="10.00">AddonsDetected</text>
</a>
</g>
</g>
<!-- Node5&#45;&gt;Node6 -->
<g id="edge5" class="edge">
<title>Node5&#45;&gt;Node6</title>
<path fill="none" stroke="#63b8ff" d="M497.45,-1280.97C506.56,-1283.37 515.65,-1286.34 524,-1290 542.07,-1297.93 542.36,-1307.15 560,-1316 566.35,-1319.18 573.2,-1322.05 580.11,-1324.6"/>
<polygon fill="#63b8ff" stroke="#63b8ff" points="498.32,-1277.33 487.78,-1278.4 496.68,-1284.14 498.32,-1277.33"/>
</g>
<!-- Node7 -->
<g id="node7" class="node">
<title>Node7</title>
<g id="a_node7"><a xlink:href="interfaceSCR__DisableDependentAddonsDialog.html" target="_top" xlink:title="Dialog which is used when an addon is disabled but some dependent addons depend on it.">
<polygon fill="white" stroke="#666666" points="714.5,-1307 560.5,-1307 560.5,-1277 714.5,-1277 714.5,-1307"/>
<text text-anchor="start" x="568.5" y="-1295" font-family="Helvetica,sans-Serif" font-size="10.00">SCR_DisableDependentAddons</text>
<text text-anchor="middle" x="637.5" y="-1284" font-family="Helvetica,sans-Serif" font-size="10.00">Dialog</text>
</a>
</g>
</g>
<!-- Node5&#45;&gt;Node7 -->
<g id="edge6" class="edge">
<title>Node5&#45;&gt;Node7</title>
<path fill="none" stroke="#63b8ff" d="M497.73,-1277.82C517.67,-1279.86 539.69,-1282.11 560.2,-1284.2"/>
<polygon fill="#63b8ff" stroke="#63b8ff" points="498.19,-1274.25 487.88,-1276.71 497.47,-1281.21 498.19,-1274.25"/>
</g>
<!-- Node8 -->
<g id="node8" class="node">
<title>Node8</title>
<g id="a_node8"><a xlink:href="interfaceSCR__ReportedAddonsDialog.html" target="_top" xlink:title="Show list of reported mods and provide option to cancel reports.">
<polygon fill="white" stroke="#666666" points="708,-1258.5 567,-1258.5 567,-1239.5 708,-1239.5 708,-1258.5"/>
<text text-anchor="middle" x="637.5" y="-1246.5" font-family="Helvetica,sans-Serif" font-size="10.00">SCR_ReportedAddonsDialog</text>
</a>
</g>
</g>
<!-- Node5&#45;&gt;Node8 -->
<g id="edge7" class="edge">
<title>Node5&#45;&gt;Node8</title>
<path fill="none" stroke="#63b8ff" d="M497.81,-1263.85C519.85,-1261.49 544.41,-1258.86 566.67,-1256.48"/>
<polygon fill="#63b8ff" stroke="#63b8ff" points="497.45,-1260.47 487.88,-1265.02 498.2,-1267.43 497.45,-1260.47"/>
</g>
<!-- Node9 -->
<g id="node9" class="node">
<title>Node9</title>
<g id="a_node9"><a xlink:href="interfaceSCR__ServerDetailsDialog.html" target="_top" xlink:title="Details with mod list to display all server mods.">
<polygon fill="white" stroke="#666666" points="700.5,-1221.5 574.5,-1221.5 574.5,-1202.5 700.5,-1202.5 700.5,-1221.5"/>
<text text-anchor="middle" x="637.5" y="-1209.5" font-family="Helvetica,sans-Serif" font-size="10.00">SCR_ServerDetailsDialog</text>
</a>
</g>
</g>
<!-- Node5&#45;&gt;Node9 -->
<g id="edge8" class="edge">
<title>Node5&#45;&gt;Node9</title>
<path fill="none" stroke="#63b8ff" d="M497.49,-1260.19C506.54,-1257.92 515.59,-1255.21 524,-1252 541.3,-1245.39 542.84,-1237.97 560,-1231 568.75,-1227.45 578.34,-1224.43 587.68,-1221.92"/>
<polygon fill="#63b8ff" stroke="#63b8ff" points="496.87,-1256.97 487.92,-1262.66 498.46,-1263.79 496.87,-1256.97"/>
</g>
<!-- Node16 -->
<g id="node16" class="node">
<title>Node16</title>
<g id="a_node16"><a xlink:href="interfaceSCR__AddonUpdateConfirmationDialog.html" target="_top" xlink:title="Override downlad confirm dialog for handling addons update Always targets latest versions.">
<polygon fill="white" stroke="#666666" points="715,-1056 560,-1056 560,-1026 715,-1026 715,-1056"/>
<text text-anchor="start" x="568" y="-1044" font-family="Helvetica,sans-Serif" font-size="10.00">SCR_AddonUpdateConfirmation</text>
<text text-anchor="middle" x="637.5" y="-1033" font-family="Helvetica,sans-Serif" font-size="10.00">Dialog</text>
</a>
</g>
</g>
<!-- Node15&#45;&gt;Node16 -->
<g id="edge15" class="edge">
<title>Node15&#45;&gt;Node16</title>
<path fill="none" stroke="#63b8ff" d="M509.97,-1028.07C526.23,-1029.73 543.32,-1031.48 559.51,-1033.13"/>
<polygon fill="#63b8ff" stroke="#63b8ff" points="510.73,-1024.53 500.43,-1026.99 510.02,-1031.49 510.73,-1024.53"/>
</g>
<!-- Node17 -->
<g id="node17" class="node">
<title>Node17</title>
<g id="a_node17"><a xlink:href="interfaceSCR__DownloadFailDialog.html" target="_top" xlink:title="Dialog displayed when downloading fails.">
<polygon fill="white" stroke="#666666" points="701,-1007.5 574,-1007.5 574,-988.5 701,-988.5 701,-1007.5"/>
<text text-anchor="middle" x="637.5" y="-995.5" font-family="Helvetica,sans-Serif" font-size="10.00">SCR_DownloadFailDialog</text>
</a>
</g>
</g>
<!-- Node15&#45;&gt;Node17 -->
<g id="edge16" class="edge">
<title>Node15&#45;&gt;Node17</title>
<path fill="none" stroke="#63b8ff" d="M510.25,-1011.52C531.23,-1009.27 553.59,-1006.88 573.57,-1004.74"/>
<polygon fill="#63b8ff" stroke="#63b8ff" points="510,-1008.13 500.43,-1012.67 510.74,-1015.09 510,-1008.13"/>
</g>
<!-- Node25 -->
<g id="node25" class="node">
<title>Node25</title>
<g id="a_node25"><a xlink:href="interfaceSCR__AdvancedKeybindDialogUI.html" target="_top" xlink:title=" ">
<polygon fill="white" stroke="#666666" points="715,-767.5 560,-767.5 560,-748.5 715,-748.5 715,-767.5"/>
<text text-anchor="middle" x="637.5" y="-755.5" font-family="Helvetica,sans-Serif" font-size="10.00">SCR_AdvancedKeybindDialogUI</text>
</a>
</g>
</g>
<!-- Node24&#45;&gt;Node25 -->
<g id="edge24" class="edge">
<title>Node24&#45;&gt;Node25</title>
<path fill="none" stroke="#63b8ff" d="M496.91,-732.87C524.05,-737.75 555.13,-743.35 581.06,-748.02"/>
<polygon fill="#63b8ff" stroke="#63b8ff" points="497.8,-729.29 487.34,-730.96 496.56,-736.18 497.8,-729.29"/>
</g>
<!-- Node26 -->
<g id="node26" class="node">
<title>Node26</title>
<g id="a_node26"><a xlink:href="interfaceSCR__SimpleKeybindDialogUI.html" target="_top" xlink:title=" ">
<polygon fill="white" stroke="#666666" points="709,-730.5 566,-730.5 566,-711.5 709,-711.5 709,-730.5"/>
<text text-anchor="middle" x="637.5" y="-718.5" font-family="Helvetica,sans-Serif" font-size="10.00">SCR_SimpleKeybindDialogUI</text>
</a>
</g>
</g>
<!-- Node24&#45;&gt;Node26 -->
<g id="edge25" class="edge">
<title>Node24&#45;&gt;Node26</title>
<path fill="none" stroke="#63b8ff" d="M504.66,-721C524.58,-721 546.1,-721 565.85,-721"/>
<polygon fill="#63b8ff" stroke="#63b8ff" points="504.77,-717.5 494.77,-721 504.77,-724.5 504.77,-717.5"/>
</g>
<!-- Node28 -->
<g id="node28" class="node">
<title>Node28</title>
<g id="a_node28"><a xlink:href="interfaceSCR__Login2FADialogUI.html" target="_top" xlink:title=" ">
<polygon fill="#fff0f0" stroke="red" points="697,-693.5 578,-693.5 578,-674.5 697,-674.5 697,-693.5"/>
<text text-anchor="middle" x="637.5" y="-681.5" font-family="Helvetica,sans-Serif" font-size="10.00">SCR_Login2FADialogUI</text>
</a>
</g>
</g>
<!-- Node27&#45;&gt;Node28 -->
<g id="edge27" class="edge">
<title>Node27&#45;&gt;Node28</title>
<path fill="none" stroke="#63b8ff" d="M509.78,-684C532.34,-684 556.54,-684 577.68,-684"/>
<polygon fill="#63b8ff" stroke="#63b8ff" points="509.86,-680.5 499.86,-684 509.86,-687.5 509.86,-680.5"/>
</g>
<!-- Node30 -->
<g id="node29" class="node">
<title>Node30</title>
<g id="a_node29"><a xlink:href="interfaceSCR__LoginDialogUI.html" target="_top" xlink:title=" ">
<polygon fill="#fff0f0" stroke="red" points="688,-656.5 587,-656.5 587,-637.5 688,-637.5 688,-656.5"/>
<text text-anchor="middle" x="637.5" y="-644.5" font-family="Helvetica,sans-Serif" font-size="10.00">SCR_LoginDialogUI</text>
</a>
</g>
</g>
<!-- Node27&#45;&gt;Node30 -->
<g id="edge28" class="edge">
<title>Node27&#45;&gt;Node30</title>
<path fill="none" stroke="#63b8ff" d="M496.85,-672.14C525.98,-666.9 559.69,-660.83 586.68,-655.97"/>
<polygon fill="#63b8ff" stroke="#63b8ff" points="496.56,-668.82 487.34,-674.04 497.8,-675.71 496.56,-668.82"/>
</g>
<!-- Node32 -->
<g id="node30" class="node">
<title>Node32</title>
<g id="a_node30"><a xlink:href="interfaceSCR__PlayerProfileDialogUI.html" target="_top" xlink:title=" ">
<polygon fill="white" stroke="#666666" points="704,-619.5 571,-619.5 571,-600.5 704,-600.5 704,-619.5"/>
<text text-anchor="middle" x="637.5" y="-607.5" font-family="Helvetica,sans-Serif" font-size="10.00">SCR_PlayerProfileDialogUI</text>
</a>
</g>
</g>
<!-- Node27&#45;&gt;Node32 -->
<g id="edge29" class="edge">
<title>Node27&#45;&gt;Node32</title>
<path fill="none" stroke="#63b8ff" d="M508.94,-671.79C514.17,-669.85 519.24,-667.6 524,-665 544.13,-653.99 540.03,-639.3 560,-628 565.7,-624.77 571.95,-622.12 578.35,-619.95"/>
<polygon fill="#63b8ff" stroke="#63b8ff" points="508.15,-668.7 499.75,-675.15 510.34,-675.34 508.15,-668.7"/>
</g>
<!-- Node45 -->
<g id="node43" class="node">
<title>Node45</title>
<g id="a_node43"><a xlink:href="interfaceAddonsToolsUI.html" target="_top" xlink:title=" ">
<polygon fill="white" stroke="#666666" points="678.5,-244.5 596.5,-244.5 596.5,-225.5 678.5,-225.5 678.5,-244.5"/>
<text text-anchor="middle" x="637.5" y="-232.5" font-family="Helvetica,sans-Serif" font-size="10.00">AddonsToolsUI</text>
</a>
</g>
</g>
<!-- Node44&#45;&gt;Node45 -->
<g id="edge42" class="edge">
<title>Node44&#45;&gt;Node45</title>
<path fill="none" stroke="#63b8ff" d="M483.12,-202.57C496.45,-205.29 510.76,-208.24 524,-211 547.95,-216 574.74,-221.71 596.16,-226.31"/>
<polygon fill="#63b8ff" stroke="#63b8ff" points="484.18,-199.01 473.68,-200.44 482.78,-205.86 484.18,-199.01"/>
</g>
<!-- Node46 -->
<g id="node44" class="node">
<title>Node46</title>
<g id="a_node44"><a xlink:href="interfaceSCR__DownloadManager__Dialog.html" target="_top" xlink:title=" ">
<polygon fill="white" stroke="#666666" points="698.5,-207 576.5,-207 576.5,-177 698.5,-177 698.5,-207"/>
<text text-anchor="start" x="584.5" y="-195" font-family="Helvetica,sans-Serif" font-size="10.00">SCR_DownloadManager</text>
<text text-anchor="middle" x="637.5" y="-184" font-family="Helvetica,sans-Serif" font-size="10.00">_Dialog</text>
</a>
</g>
</g>
<!-- Node44&#45;&gt;Node46 -->
<g id="edge43" class="edge">
<title>Node44&#45;&gt;Node46</title>
<path fill="none" stroke="#63b8ff" d="M483.47,-192C511.79,-192 546.85,-192 576.28,-192"/>
<polygon fill="#63b8ff" stroke="#63b8ff" points="483.59,-188.5 473.59,-192 483.59,-195.5 483.59,-188.5"/>
</g>
<!-- Node47 -->
<g id="node45" class="node">
<title>Node47</title>
<g id="a_node45"><a xlink:href="interfaceServerHostingUI.html" target="_top" xlink:title=" ">
<polygon fill="white" stroke="#666666" points="680.5,-158.5 594.5,-158.5 594.5,-139.5 680.5,-139.5 680.5,-158.5"/>
<text text-anchor="middle" x="637.5" y="-146.5" font-family="Helvetica,sans-Serif" font-size="10.00">ServerHostingUI</text>
</a>
</g>
</g>
<!-- Node44&#45;&gt;Node47 -->
<g id="edge44" class="edge">
<title>Node44&#45;&gt;Node47</title>
<path fill="none" stroke="#63b8ff" d="M483.12,-181.43C496.45,-178.71 510.76,-175.76 524,-173 547.17,-168.16 572.99,-162.66 594.05,-158.15"/>
<polygon fill="#63b8ff" stroke="#63b8ff" points="482.78,-178.14 473.68,-183.56 484.18,-184.99 482.78,-178.14"/>
</g>
</g>
</svg>
