<?xml version="1.0" encoding="UTF-8" standalone="no"?>
<!DOCTYPE svg PUBLIC "-//W3C//DTD SVG 1.1//EN"
 "http://www.w3.org/Graphics/SVG/1.1/DTD/svg11.dtd">
<!-- Generated by graphviz version 8.0.2 (20230410.1723)
 -->
<!-- Title: SCR_AIMessageBase Pages: 1 -->
<svg width="789pt" height="1038pt"
 viewBox="0.00 0.00 789.00 1038.00" xmlns="http://www.w3.org/2000/svg" xmlns:xlink="http://www.w3.org/1999/xlink">
<g id="graph0" class="graph" transform="scale(1 1) rotate(0) translate(4 1034)">
<title>SCR_AIMessageBase</title>
<!-- Node1 -->
<g id="node1" class="node">
<title>Node1</title>
<g id="a_node1"><a xlink:title=" ">
<polygon fill="#999999" stroke="#666666" points="214,-377 101,-377 101,-358 214,-358 214,-377"/>
<text text-anchor="middle" x="157.5" y="-365" font-family="Helvetica,sans-Serif" font-size="10.00">SCR_AIMessageBase</text>
</a>
</g>
</g>
<!-- Node3 -->
<g id="node3" class="node">
<title>Node3</title>
<g id="a_node3"><a xlink:href="interfaceSCR__AIMessageGoal.html" target="_top" xlink:title=" ">
<polygon fill="white" stroke="#666666" points="361,-641 250,-641 250,-622 361,-622 361,-641"/>
<text text-anchor="middle" x="305.5" y="-629" font-family="Helvetica,sans-Serif" font-size="10.00">SCR_AIMessageGoal</text>
</a>
</g>
</g>
<!-- Node1&#45;&gt;Node3 -->
<g id="edge2" class="edge">
<title>Node1&#45;&gt;Node3</title>
<path fill="none" stroke="#63b8ff" d="M169.09,-386.65C198,-438.93 277.58,-582.82 299.08,-621.7"/>
<polygon fill="#63b8ff" stroke="#63b8ff" points="171.77,-385.27 163.87,-378.21 165.65,-388.65 171.77,-385.27"/>
</g>
<!-- Node29 -->
<g id="node29" class="node">
<title>Node29</title>
<g id="a_node29"><a xlink:href="interfaceSCR__AIMessageInfo.html" target="_top" xlink:title=" ">
<polygon fill="white" stroke="#666666" points="358.5,-149 252.5,-149 252.5,-130 358.5,-130 358.5,-149"/>
<text text-anchor="middle" x="305.5" y="-137" font-family="Helvetica,sans-Serif" font-size="10.00">SCR_AIMessageInfo</text>
</a>
</g>
</g>
<!-- Node1&#45;&gt;Node29 -->
<g id="edge28" class="edge">
<title>Node1&#45;&gt;Node29</title>
<path fill="none" stroke="#63b8ff" d="M170.7,-348.45C200.47,-301.96 276.01,-183.99 298.25,-149.26"/>
<polygon fill="#63b8ff" stroke="#63b8ff" points="167.22,-346.39 164.77,-356.7 173.11,-350.17 167.22,-346.39"/>
</g>
<!-- Node2 -->
<g id="node2" class="node">
<title>Node2</title>
<g id="a_node2"><a xlink:title=" ">
<polygon fill="white" stroke="#666666" points="65,-377 0,-377 0,-358 65,-358 65,-377"/>
<text text-anchor="middle" x="32.5" y="-365" font-family="Helvetica,sans-Serif" font-size="10.00">AIMessage</text>
</a>
</g>
</g>
<!-- Node2&#45;&gt;Node1 -->
<g id="edge1" class="edge">
<title>Node2&#45;&gt;Node1</title>
<path fill="none" stroke="#63b8ff" d="M76.32,-367.5C84.24,-367.5 92.61,-367.5 100.84,-367.5"/>
<polygon fill="#63b8ff" stroke="#63b8ff" points="76.5,-364 66.5,-367.5 76.5,-371 76.5,-364"/>
</g>
<!-- Node4 -->
<g id="node4" class="node">
<title>Node4</title>
<g id="a_node4"><a xlink:href="interfaceSCR__AIMessage__Attack.html" target="_top" xlink:title=" ">
<polygon fill="white" stroke="#666666" points="548.5,-1030 423.5,-1030 423.5,-1011 548.5,-1011 548.5,-1030"/>
<text text-anchor="middle" x="486" y="-1018" font-family="Helvetica,sans-Serif" font-size="10.00">SCR_AIMessage_Attack</text>
</a>
</g>
</g>
<!-- Node3&#45;&gt;Node4 -->
<g id="edge3" class="edge">
<title>Node3&#45;&gt;Node4</title>
<path fill="none" stroke="#63b8ff" d="M308.66,-652.18C316.45,-722.79 345.42,-952.82 397,-1002.5 404.3,-1009.53 413.57,-1014.15 423.33,-1017.13"/>
<polygon fill="#63b8ff" stroke="#63b8ff" points="312.03,-651.82 307.48,-642.25 305.07,-652.57 312.03,-651.82"/>
</g>
<!-- Node5 -->
<g id="node5" class="node">
<title>Node5</title>
<g id="a_node5"><a xlink:href="interfaceSCR__AIMessage__AttackCluster.html" target="_top" xlink:title=" ">
<polygon fill="white" stroke="#666666" points="563.5,-993 408.5,-993 408.5,-974 563.5,-974 563.5,-993"/>
<text text-anchor="middle" x="486" y="-981" font-family="Helvetica,sans-Serif" font-size="10.00">SCR_AIMessage_AttackCluster</text>
</a>
</g>
</g>
<!-- Node3&#45;&gt;Node5 -->
<g id="edge4" class="edge">
<title>Node3&#45;&gt;Node5</title>
<path fill="none" stroke="#63b8ff" d="M309.2,-651.81C318.33,-717.34 350.1,-921.46 397,-965.5 400.41,-968.7 404.23,-971.4 408.32,-973.67"/>
<polygon fill="#63b8ff" stroke="#63b8ff" points="312.58,-651.69 307.76,-642.26 305.65,-652.64 312.58,-651.69"/>
</g>
<!-- Node6 -->
<g id="node6" class="node">
<title>Node6</title>
<g id="a_node6"><a xlink:href="interfaceSCR__AIMessage__AttackClusterDone.html" target="_top" xlink:title=" ">
<polygon fill="white" stroke="#666666" points="575,-956 397,-956 397,-937 575,-937 575,-956"/>
<text text-anchor="middle" x="486" y="-944" font-family="Helvetica,sans-Serif" font-size="10.00">SCR_AIMessage_AttackClusterDone</text>
</a>
</g>
</g>
<!-- Node3&#45;&gt;Node6 -->
<g id="edge5" class="edge">
<title>Node3&#45;&gt;Node6</title>
<path fill="none" stroke="#63b8ff" d="M306.11,-652.18C306.29,-706.39 314.71,-853.61 397,-928.5 400.46,-931.65 404.32,-934.31 408.43,-936.55"/>
<polygon fill="#63b8ff" stroke="#63b8ff" points="309.62,-652.3 306.19,-642.28 302.62,-652.25 309.62,-652.3"/>
</g>
<!-- Node7 -->
<g id="node7" class="node">
<title>Node7</title>
<g id="a_node7"><a xlink:href="interfaceSCR__AIMessage__Cancel.html" target="_top" xlink:title=" ">
<polygon fill="white" stroke="#666666" points="549,-919 423,-919 423,-900 549,-900 549,-919"/>
<text text-anchor="middle" x="486" y="-907" font-family="Helvetica,sans-Serif" font-size="10.00">SCR_AIMessage_Cancel</text>
</a>
</g>
</g>
<!-- Node3&#45;&gt;Node7 -->
<g id="edge6" class="edge">
<title>Node3&#45;&gt;Node7</title>
<path fill="none" stroke="#63b8ff" d="M307.15,-652.24C309.88,-701.79 324.05,-827.67 397,-891.5 404.28,-897.87 413.19,-902.2 422.52,-905.12"/>
<polygon fill="#63b8ff" stroke="#63b8ff" points="310.61,-652.21 306.67,-642.37 303.61,-652.52 310.61,-652.21"/>
</g>
<!-- Node8 -->
<g id="node8" class="node">
<title>Node8</title>
<g id="a_node8"><a xlink:href="interfaceSCR__AIMessage__CoverCluster.html" target="_top" xlink:title=" ">
<polygon fill="white" stroke="#666666" points="561.5,-882 410.5,-882 410.5,-863 561.5,-863 561.5,-882"/>
<text text-anchor="middle" x="486" y="-870" font-family="Helvetica,sans-Serif" font-size="10.00">SCR_AIMessage_CoverCluster</text>
</a>
</g>
</g>
<!-- Node3&#45;&gt;Node8 -->
<g id="edge7" class="edge">
<title>Node3&#45;&gt;Node8</title>
<path fill="none" stroke="#63b8ff" d="M308.51,-652.27C313.97,-696.77 333.27,-801.52 397,-854.5 400.96,-857.79 405.36,-860.53 410.02,-862.81"/>
<polygon fill="#63b8ff" stroke="#63b8ff" points="311.88,-651.97 307.31,-642.41 304.93,-652.74 311.88,-651.97"/>
</g>
<!-- Node9 -->
<g id="node9" class="node">
<title>Node9</title>
<g id="a_node9"><a xlink:href="interfaceSCR__AIMessage__Defend.html" target="_top" xlink:title=" ">
<polygon fill="white" stroke="#666666" points="549,-845 423,-845 423,-826 549,-826 549,-845"/>
<text text-anchor="middle" x="486" y="-833" font-family="Helvetica,sans-Serif" font-size="10.00">SCR_AIMessage_Defend</text>
</a>
</g>
</g>
<!-- Node3&#45;&gt;Node9 -->
<g id="edge8" class="edge">
<title>Node3&#45;&gt;Node9</title>
<path fill="none" stroke="#63b8ff" d="M310.23,-651.72C318.48,-690.42 342.09,-774.9 397,-817.5 404.52,-823.33 413.45,-827.41 422.69,-830.23"/>
<polygon fill="#63b8ff" stroke="#63b8ff" points="313.49,-651.19 308.11,-642.07 306.63,-652.56 313.49,-651.19"/>
</g>
<!-- Node10 -->
<g id="node10" class="node">
<title>Node10</title>
<g id="a_node10"><a xlink:href="interfaceSCR__AIMessage__FireIllumFlareAt.html" target="_top" xlink:title=" ">
<polygon fill="white" stroke="#666666" points="568,-808 404,-808 404,-789 568,-789 568,-808"/>
<text text-anchor="middle" x="486" y="-796" font-family="Helvetica,sans-Serif" font-size="10.00">SCR_AIMessage_FireIllumFlareAt</text>
</a>
</g>
</g>
<!-- Node3&#45;&gt;Node10 -->
<g id="edge9" class="edge">
<title>Node3&#45;&gt;Node10</title>
<path fill="none" stroke="#63b8ff" d="M312.76,-651.53C324.03,-684.08 350.95,-748.08 397,-780.5 401.59,-783.73 406.63,-786.41 411.9,-788.63"/>
<polygon fill="#63b8ff" stroke="#63b8ff" points="315.89,-650.82 309.42,-642.43 309.24,-653.02 315.89,-650.82"/>
</g>
<!-- Node11 -->
<g id="node11" class="node">
<title>Node11</title>
<g id="a_node11"><a xlink:href="interfaceSCR__AIMessage__Flee.html" target="_top" xlink:title=" ">
<polygon fill="white" stroke="#666666" points="543.5,-771 428.5,-771 428.5,-752 543.5,-752 543.5,-771"/>
<text text-anchor="middle" x="486" y="-759" font-family="Helvetica,sans-Serif" font-size="10.00">SCR_AIMessage_Flee</text>
</a>
</g>
</g>
<!-- Node3&#45;&gt;Node11 -->
<g id="edge10" class="edge">
<title>Node3&#45;&gt;Node11</title>
<path fill="none" stroke="#63b8ff" d="M316.51,-650.83C330.77,-676.34 359.44,-720.65 397,-743.5 406.46,-749.25 417.44,-753.2 428.37,-755.9"/>
<polygon fill="#63b8ff" stroke="#63b8ff" points="319.12,-649.31 311.29,-642.17 312.96,-652.63 319.12,-649.31"/>
</g>
<!-- Node12 -->
<g id="node12" class="node">
<title>Node12</title>
<g id="a_node12"><a xlink:href="interfaceSCR__AIMessage__Heal.html" target="_top" xlink:title=" ">
<polygon fill="white" stroke="#666666" points="544,-734 428,-734 428,-715 544,-715 544,-734"/>
<text text-anchor="middle" x="486" y="-722" font-family="Helvetica,sans-Serif" font-size="10.00">SCR_AIMessage_Heal</text>
</a>
</g>
</g>
<!-- Node3&#45;&gt;Node12 -->
<g id="edge11" class="edge">
<title>Node3&#45;&gt;Node12</title>
<path fill="none" stroke="#63b8ff" d="M322.49,-649.05C339.32,-666.39 367.43,-692.33 397,-706.5 406.56,-711.08 417.25,-714.5 427.8,-717.05"/>
<polygon fill="#63b8ff" stroke="#63b8ff" points="325.59,-647.18 316.18,-642.31 320.51,-651.99 325.59,-647.18"/>
</g>
<!-- Node13 -->
<g id="node13" class="node">
<title>Node13</title>
<g id="a_node13"><a xlink:href="interfaceSCR__AIMessage__HealWait.html" target="_top" xlink:title=" ">
<polygon fill="white" stroke="#666666" points="554,-697 418,-697 418,-678 554,-678 554,-697"/>
<text text-anchor="middle" x="486" y="-685" font-family="Helvetica,sans-Serif" font-size="10.00">SCR_AIMessage_HealWait</text>
</a>
</g>
</g>
<!-- Node3&#45;&gt;Node13 -->
<g id="edge12" class="edge">
<title>Node3&#45;&gt;Node13</title>
<path fill="none" stroke="#63b8ff" d="M336.5,-645.84C353.87,-653.7 376.31,-663.11 397,-669.5 406.98,-672.58 417.77,-675.29 428.25,-677.6"/>
<polygon fill="#63b8ff" stroke="#63b8ff" points="338.47,-642.44 327.92,-641.43 335.54,-648.79 338.47,-642.44"/>
</g>
<!-- Node14 -->
<g id="node14" class="node">
<title>Node14</title>
<g id="a_node14"><a xlink:href="interfaceSCR__AIMessage__Investigate.html" target="_top" xlink:title=" ">
<polygon fill="white" stroke="#666666" points="557,-660 415,-660 415,-641 557,-641 557,-660"/>
<text text-anchor="middle" x="486" y="-648" font-family="Helvetica,sans-Serif" font-size="10.00">SCR_AIMessage_Investigate</text>
</a>
</g>
</g>
<!-- Node3&#45;&gt;Node14 -->
<g id="edge13" class="edge">
<title>Node3&#45;&gt;Node14</title>
<path fill="none" stroke="#63b8ff" d="M371.55,-638.42C385.57,-639.92 400.45,-641.5 414.66,-643.01"/>
<polygon fill="#63b8ff" stroke="#63b8ff" points="372.34,-634.88 362.03,-637.3 371.6,-641.84 372.34,-634.88"/>
</g>
<!-- Node15 -->
<g id="node15" class="node">
<title>Node15</title>
<g id="a_node15"><a xlink:href="interfaceSCR__AIMessage__KeepFormation.html" target="_top" xlink:title=" ">
<polygon fill="white" stroke="#666666" points="567,-623 405,-623 405,-604 567,-604 567,-623"/>
<text text-anchor="middle" x="486" y="-611" font-family="Helvetica,sans-Serif" font-size="10.00">SCR_AIMessage_KeepFormation</text>
</a>
</g>
</g>
<!-- Node3&#45;&gt;Node15 -->
<g id="edge14" class="edge">
<title>Node3&#45;&gt;Node15</title>
<path fill="none" stroke="#63b8ff" d="M371.88,-624.91C382.5,-623.84 393.6,-622.72 404.52,-621.62"/>
<polygon fill="#63b8ff" stroke="#63b8ff" points="371.62,-621.52 362.03,-626 372.33,-628.48 371.62,-621.52"/>
</g>
<!-- Node16 -->
<g id="node16" class="node">
<title>Node16</title>
<g id="a_node16"><a xlink:href="interfaceSCR__AIMessage__Move.html" target="_top" xlink:title=" ">
<polygon fill="white" stroke="#666666" points="545.5,-586 426.5,-586 426.5,-567 545.5,-567 545.5,-586"/>
<text text-anchor="middle" x="486" y="-574" font-family="Helvetica,sans-Serif" font-size="10.00">SCR_AIMessage_Move</text>
</a>
</g>
</g>
<!-- Node3&#45;&gt;Node16 -->
<g id="edge15" class="edge">
<title>Node3&#45;&gt;Node16</title>
<path fill="none" stroke="#63b8ff" d="M338.47,-617.27C355.59,-610.05 377.17,-601.54 397,-595.5 408.21,-592.08 420.41,-589.04 432.05,-586.44"/>
<polygon fill="#63b8ff" stroke="#63b8ff" points="337.26,-614.42 329.45,-621.58 340.02,-620.85 337.26,-614.42"/>
</g>
<!-- Node19 -->
<g id="node19" class="node">
<title>Node19</title>
<g id="a_node19"><a xlink:href="interfaceSCR__AIMessage__OpenNavlinkDoor.html" target="_top" xlink:title=" ">
<polygon fill="white" stroke="#666666" points="571,-549 401,-549 401,-530 571,-530 571,-549"/>
<text text-anchor="middle" x="486" y="-537" font-family="Helvetica,sans-Serif" font-size="10.00">SCR_AIMessage_OpenNavlinkDoor</text>
</a>
</g>
</g>
<!-- Node3&#45;&gt;Node19 -->
<g id="edge18" class="edge">
<title>Node3&#45;&gt;Node19</title>
<path fill="none" stroke="#63b8ff" d="M322.89,-614.23C339.85,-597.41 367.89,-572.41 397,-558.5 404.76,-554.79 413.24,-551.8 421.79,-549.39"/>
<polygon fill="#63b8ff" stroke="#63b8ff" points="321.02,-611.16 316.5,-620.74 326.01,-616.07 321.02,-611.16"/>
</g>
<!-- Node20 -->
<g id="node20" class="node">
<title>Node20</title>
<g id="a_node20"><a xlink:href="interfaceSCR__AIMessage__PerformAction.html" target="_top" xlink:title=" ">
<polygon fill="white" stroke="#666666" points="565,-512 407,-512 407,-493 565,-493 565,-512"/>
<text text-anchor="middle" x="486" y="-500" font-family="Helvetica,sans-Serif" font-size="10.00">SCR_AIMessage_PerformAction</text>
</a>
</g>
</g>
<!-- Node3&#45;&gt;Node20 -->
<g id="edge19" class="edge">
<title>Node3&#45;&gt;Node20</title>
<path fill="none" stroke="#63b8ff" d="M316.77,-611.96C331.15,-586.63 359.78,-543.03 397,-520.5 402.34,-517.27 408.15,-514.61 414.17,-512.42"/>
<polygon fill="#63b8ff" stroke="#63b8ff" points="313.23,-610.13 311.49,-620.59 319.37,-613.5 313.23,-610.13"/>
</g>
<!-- Node21 -->
<g id="node21" class="node">
<title>Node21</title>
<g id="a_node21"><a xlink:href="interfaceSCR__AIMessage__PickupInventoryItems.html" target="_top" xlink:title=" ">
<polygon fill="white" stroke="#666666" points="568,-474.5 404,-474.5 404,-444.5 568,-444.5 568,-474.5"/>
<text text-anchor="start" x="412" y="-462.5" font-family="Helvetica,sans-Serif" font-size="10.00">SCR_AIMessage_PickupInventory</text>
<text text-anchor="middle" x="486" y="-451.5" font-family="Helvetica,sans-Serif" font-size="10.00">Items</text>
</a>
</g>
</g>
<!-- Node3&#45;&gt;Node21 -->
<g id="edge20" class="edge">
<title>Node3&#45;&gt;Node21</title>
<path fill="none" stroke="#63b8ff" d="M313.19,-611.51C324.95,-579.52 352.39,-517 397,-483.5 401.43,-480.17 406.3,-477.31 411.39,-474.84"/>
<polygon fill="#63b8ff" stroke="#63b8ff" points="309.59,-610.21 309.57,-620.81 316.19,-612.54 309.59,-610.21"/>
</g>
<!-- Node22 -->
<g id="node22" class="node">
<title>Node22</title>
<g id="a_node22"><a xlink:href="interfaceSCR__AIMessage__ProvideAmmo.html" target="_top" xlink:title=" ">
<polygon fill="white" stroke="#666666" points="564,-426 408,-426 408,-407 564,-407 564,-426"/>
<text text-anchor="middle" x="486" y="-414" font-family="Helvetica,sans-Serif" font-size="10.00">SCR_AIMessage_ProvideAmmo</text>
</a>
</g>
</g>
<!-- Node3&#45;&gt;Node22 -->
<g id="edge21" class="edge">
<title>Node3&#45;&gt;Node22</title>
<path fill="none" stroke="#63b8ff" d="M309.77,-611.1C317.34,-570.86 340.01,-481.16 397,-435.5 401.51,-431.88 406.56,-428.92 411.89,-426.49"/>
<polygon fill="#63b8ff" stroke="#63b8ff" points="306.16,-610.45 307.88,-620.91 313.05,-611.66 306.16,-610.45"/>
</g>
<!-- Node23 -->
<g id="node23" class="node">
<title>Node23</title>
<g id="a_node23"><a xlink:href="interfaceSCR__AIMessage__Retreat.html" target="_top" xlink:title=" ">
<polygon fill="white" stroke="#666666" points="550,-389 422,-389 422,-370 550,-370 550,-389"/>
<text text-anchor="middle" x="486" y="-377" font-family="Helvetica,sans-Serif" font-size="10.00">SCR_AIMessage_Retreat</text>
</a>
</g>
</g>
<!-- Node3&#45;&gt;Node23 -->
<g id="edge22" class="edge">
<title>Node3&#45;&gt;Node23</title>
<path fill="none" stroke="#63b8ff" d="M308.07,-610.67C312.71,-564.58 330.57,-453.65 397,-397.5 404.15,-391.46 412.78,-387.26 421.8,-384.38"/>
<polygon fill="#63b8ff" stroke="#63b8ff" points="304.49,-610.34 307.1,-620.61 311.47,-610.96 304.49,-610.34"/>
</g>
<!-- Node24 -->
<g id="node24" class="node">
<title>Node24</title>
<g id="a_node24"><a xlink:href="interfaceSCR__AIMessage__Suppress.html" target="_top" xlink:title=" ">
<polygon fill="white" stroke="#666666" points="554.5,-352 417.5,-352 417.5,-333 554.5,-333 554.5,-352"/>
<text text-anchor="middle" x="486" y="-340" font-family="Helvetica,sans-Serif" font-size="10.00">SCR_AIMessage_Suppress</text>
</a>
</g>
</g>
<!-- Node3&#45;&gt;Node24 -->
<g id="edge23" class="edge">
<title>Node3&#45;&gt;Node24</title>
<path fill="none" stroke="#63b8ff" d="M306.81,-610.93C308.75,-560.07 321.21,-427.67 397,-360.5 402.84,-355.33 409.75,-351.49 417.1,-348.66"/>
<polygon fill="#63b8ff" stroke="#63b8ff" points="303.28,-610.67 306.51,-620.77 310.28,-610.86 303.28,-610.67"/>
</g>
<!-- Node25 -->
<g id="node25" class="node">
<title>Node25</title>
<g id="a_node25"><a xlink:href="interfaceSCR__AIMessage__ThrowGrenadeTo.html" target="_top" xlink:title=" ">
<polygon fill="white" stroke="#666666" points="570.5,-315 401.5,-315 401.5,-296 570.5,-296 570.5,-315"/>
<text text-anchor="middle" x="486" y="-303" font-family="Helvetica,sans-Serif" font-size="10.00">SCR_AIMessage_ThrowGrenadeTo</text>
</a>
</g>
</g>
<!-- Node3&#45;&gt;Node25 -->
<g id="edge24" class="edge">
<title>Node3&#45;&gt;Node25</title>
<path fill="none" stroke="#63b8ff" d="M305.85,-610.81C305.3,-555.24 311.94,-401.7 397,-323.5 400.44,-320.33 404.29,-317.66 408.39,-315.41"/>
<polygon fill="#63b8ff" stroke="#63b8ff" points="302.36,-610.73 306.06,-620.66 309.36,-610.59 302.36,-610.73"/>
</g>
<!-- Node26 -->
<g id="node26" class="node">
<title>Node26</title>
<g id="a_node26"><a xlink:href="interfaceSCR__AIMessage__Vehicle.html" target="_top" xlink:title=" ">
<polygon fill="white" stroke="#666666" points="550,-278 422,-278 422,-259 550,-259 550,-278"/>
<text text-anchor="middle" x="486" y="-266" font-family="Helvetica,sans-Serif" font-size="10.00">SCR_AIMessage_Vehicle</text>
</a>
</g>
</g>
<!-- Node3&#45;&gt;Node26 -->
<g id="edge25" class="edge">
<title>Node3&#45;&gt;Node26</title>
<path fill="none" stroke="#63b8ff" d="M309.04,-610.97C317.79,-543.79 348.74,-332.19 397,-286.5 403.91,-279.96 412.52,-275.52 421.63,-272.54"/>
<polygon fill="#63b8ff" stroke="#63b8ff" points="305.46,-610.4 307.67,-620.76 312.41,-611.28 305.46,-610.4"/>
</g>
<!-- Node17 -->
<g id="node17" class="node">
<title>Node17</title>
<g id="a_node17"><a xlink:href="interfaceSCR__AIMessage__Follow.html" target="_top" xlink:title=" ">
<polygon fill="white" stroke="#666666" points="758,-604 634,-604 634,-585 758,-585 758,-604"/>
<text text-anchor="middle" x="696" y="-592" font-family="Helvetica,sans-Serif" font-size="10.00">SCR_AIMessage_Follow</text>
</a>
</g>
</g>
<!-- Node16&#45;&gt;Node17 -->
<g id="edge16" class="edge">
<title>Node16&#45;&gt;Node17</title>
<path fill="none" stroke="#63b8ff" d="M556.65,-582.53C581.64,-584.69 609.62,-587.11 633.84,-589.21"/>
<polygon fill="#63b8ff" stroke="#63b8ff" points="557.03,-578.96 546.77,-581.59 556.43,-585.94 557.03,-578.96"/>
</g>
<!-- Node18 -->
<g id="node18" class="node">
<title>Node18</title>
<g id="a_node18"><a xlink:href="interfaceSCR__AIMessage__SeekAndDestroy.html" target="_top" xlink:title=" ">
<polygon fill="white" stroke="#666666" points="781,-567 611,-567 611,-548 781,-548 781,-567"/>
<text text-anchor="middle" x="696" y="-555" font-family="Helvetica,sans-Serif" font-size="10.00">SCR_AIMessage_SeekAndDestroy</text>
</a>
</g>
</g>
<!-- Node16&#45;&gt;Node18 -->
<g id="edge17" class="edge">
<title>Node16&#45;&gt;Node18</title>
<path fill="none" stroke="#63b8ff" d="M556.41,-570.16C573.83,-568.57 592.7,-566.84 610.76,-565.2"/>
<polygon fill="#63b8ff" stroke="#63b8ff" points="556.41,-566.74 546.77,-571.13 557.05,-573.71 556.41,-566.74"/>
</g>
<!-- Node27 -->
<g id="node27" class="node">
<title>Node27</title>
<g id="a_node27"><a xlink:href="interfaceSCR__AIMessage__GetIn.html" target="_top" xlink:title=" ">
<polygon fill="white" stroke="#666666" points="755.5,-297 636.5,-297 636.5,-278 755.5,-278 755.5,-297"/>
<text text-anchor="middle" x="696" y="-285" font-family="Helvetica,sans-Serif" font-size="10.00">SCR_AIMessage_GetIn</text>
</a>
</g>
</g>
<!-- Node26&#45;&gt;Node27 -->
<g id="edge26" class="edge">
<title>Node26&#45;&gt;Node27</title>
<path fill="none" stroke="#63b8ff" d="M561.04,-275.26C585.75,-277.52 612.93,-280 636.31,-282.14"/>
<polygon fill="#63b8ff" stroke="#63b8ff" points="561.53,-271.7 551.25,-274.28 560.89,-278.67 561.53,-271.7"/>
</g>
<!-- Node28 -->
<g id="node28" class="node">
<title>Node28</title>
<g id="a_node28"><a xlink:href="interfaceSCR__AIMessage__GetOut.html" target="_top" xlink:title=" ">
<polygon fill="white" stroke="#666666" points="760,-260 632,-260 632,-241 760,-241 760,-260"/>
<text text-anchor="middle" x="696" y="-248" font-family="Helvetica,sans-Serif" font-size="10.00">SCR_AIMessage_GetOut</text>
</a>
</g>
</g>
<!-- Node26&#45;&gt;Node28 -->
<g id="edge27" class="edge">
<title>Node26&#45;&gt;Node28</title>
<path fill="none" stroke="#63b8ff" d="M561.05,-262.09C584.14,-260.09 609.4,-257.91 631.69,-255.98"/>
<polygon fill="#63b8ff" stroke="#63b8ff" points="560.92,-258.68 551.25,-263.03 561.52,-265.65 560.92,-258.68"/>
</g>
<!-- Node30 -->
<g id="node30" class="node">
<title>Node30</title>
<g id="a_node30"><a xlink:href="interfaceSCR__AIMessage__ActionFailed.html" target="_top" xlink:title=" ">
<polygon fill="white" stroke="#666666" points="561,-241 411,-241 411,-222 561,-222 561,-241"/>
<text text-anchor="middle" x="486" y="-229" font-family="Helvetica,sans-Serif" font-size="10.00">SCR_AIMessage_ActionFailed</text>
</a>
</g>
</g>
<!-- Node29&#45;&gt;Node30 -->
<g id="edge29" class="edge">
<title>Node29&#45;&gt;Node30</title>
<path fill="none" stroke="#63b8ff" d="M322.89,-156.77C339.85,-173.59 367.89,-198.59 397,-212.5 404.76,-216.21 413.24,-219.2 421.79,-221.61"/>
<polygon fill="#63b8ff" stroke="#63b8ff" points="326.01,-154.93 316.5,-150.26 321.02,-159.84 326.01,-154.93"/>
</g>
<!-- Node31 -->
<g id="node31" class="node">
<title>Node31</title>
<g id="a_node31"><a xlink:href="interfaceSCR__AIMessage__FoundCorpse.html" target="_top" xlink:title=" ">
<polygon fill="white" stroke="#666666" points="563,-204 409,-204 409,-185 563,-185 563,-204"/>
<text text-anchor="middle" x="486" y="-192" font-family="Helvetica,sans-Serif" font-size="10.00">SCR_AIMessage_FoundCorpse</text>
</a>
</g>
</g>
<!-- Node29&#45;&gt;Node31 -->
<g id="edge30" class="edge">
<title>Node29&#45;&gt;Node31</title>
<path fill="none" stroke="#63b8ff" d="M338.47,-153.73C355.59,-160.95 377.17,-169.46 397,-175.5 408.21,-178.92 420.41,-181.96 432.05,-184.56"/>
<polygon fill="#63b8ff" stroke="#63b8ff" points="340.02,-150.15 329.45,-149.42 337.26,-156.58 340.02,-150.15"/>
</g>
<!-- Node33 -->
<g id="node33" class="node">
<title>Node33</title>
<g id="a_node33"><a xlink:href="interfaceSCR__AIMessage__HealFailed.html" target="_top" xlink:title=" ">
<polygon fill="white" stroke="#666666" points="557,-167 415,-167 415,-148 557,-148 557,-167"/>
<text text-anchor="middle" x="486" y="-155" font-family="Helvetica,sans-Serif" font-size="10.00">SCR_AIMessage_HealFailed</text>
</a>
</g>
</g>
<!-- Node29&#45;&gt;Node33 -->
<g id="edge32" class="edge">
<title>Node29&#45;&gt;Node33</title>
<path fill="none" stroke="#63b8ff" d="M369.53,-145.86C384.1,-147.33 399.7,-148.9 414.57,-150.4"/>
<polygon fill="#63b8ff" stroke="#63b8ff" points="369.91,-142.28 359.61,-144.75 369.21,-149.24 369.91,-142.28"/>
</g>
<!-- Node34 -->
<g id="node34" class="node">
<title>Node34</title>
<g id="a_node34"><a xlink:href="interfaceSCR__AIMessage__NoAmmo.html" target="_top" xlink:title=" ">
<polygon fill="white" stroke="#666666" points="554.5,-130 417.5,-130 417.5,-111 554.5,-111 554.5,-130"/>
<text text-anchor="middle" x="486" y="-118" font-family="Helvetica,sans-Serif" font-size="10.00">SCR_AIMessage_NoAmmo</text>
</a>
</g>
</g>
<!-- Node29&#45;&gt;Node34 -->
<g id="edge33" class="edge">
<title>Node29&#45;&gt;Node34</title>
<path fill="none" stroke="#63b8ff" d="M369.15,-132.83C384.7,-131.18 401.42,-129.4 417.2,-127.72"/>
<polygon fill="#63b8ff" stroke="#63b8ff" points="369.18,-129.41 359.61,-133.95 369.92,-136.38 369.18,-129.41"/>
</g>
<!-- Node35 -->
<g id="node35" class="node">
<title>Node35</title>
<g id="a_node35"><a xlink:href="interfaceSCR__AIMessage__SitRep.html" target="_top" xlink:title=" ">
<polygon fill="white" stroke="#666666" points="548.5,-93 423.5,-93 423.5,-74 548.5,-74 548.5,-93"/>
<text text-anchor="middle" x="486" y="-81" font-family="Helvetica,sans-Serif" font-size="10.00">SCR_AIMessage_SitRep</text>
</a>
</g>
</g>
<!-- Node29&#45;&gt;Node35 -->
<g id="edge34" class="edge">
<title>Node29&#45;&gt;Node35</title>
<path fill="none" stroke="#63b8ff" d="M336.5,-125.16C353.87,-117.3 376.31,-107.89 397,-101.5 406.98,-98.42 417.77,-95.71 428.25,-93.4"/>
<polygon fill="#63b8ff" stroke="#63b8ff" points="335.54,-122.21 327.92,-129.57 338.47,-128.56 335.54,-122.21"/>
</g>
<!-- Node36 -->
<g id="node36" class="node">
<title>Node36</title>
<g id="a_node36"><a xlink:href="interfaceSCR__AIMessage__Target.html" target="_top" xlink:title=" ">
<polygon fill="white" stroke="#666666" points="547.5,-56 424.5,-56 424.5,-37 547.5,-37 547.5,-56"/>
<text text-anchor="middle" x="486" y="-44" font-family="Helvetica,sans-Serif" font-size="10.00">SCR_AIMessage_Target</text>
</a>
</g>
</g>
<!-- Node29&#45;&gt;Node36 -->
<g id="edge35" class="edge">
<title>Node29&#45;&gt;Node36</title>
<path fill="none" stroke="#63b8ff" d="M322.49,-121.95C339.32,-104.61 367.43,-78.67 397,-64.5 405.44,-60.46 414.75,-57.32 424.07,-54.89"/>
<polygon fill="#63b8ff" stroke="#63b8ff" points="320.51,-119.01 316.18,-128.69 325.59,-123.82 320.51,-119.01"/>
</g>
<!-- Node37 -->
<g id="node37" class="node">
<title>Node37</title>
<g id="a_node37"><a xlink:href="interfaceSCR__AIMessage__UnderFire.html" target="_top" xlink:title=" ">
<polygon fill="white" stroke="#666666" points="555,-19 417,-19 417,0 555,0 555,-19"/>
<text text-anchor="middle" x="486" y="-7" font-family="Helvetica,sans-Serif" font-size="10.00">SCR_AIMessage_UnderFire</text>
</a>
</g>
</g>
<!-- Node29&#45;&gt;Node37 -->
<g id="edge36" class="edge">
<title>Node29&#45;&gt;Node37</title>
<path fill="none" stroke="#63b8ff" d="M316.51,-120.17C330.77,-94.66 359.44,-50.35 397,-27.5 403.13,-23.77 409.9,-20.8 416.87,-18.44"/>
<polygon fill="#63b8ff" stroke="#63b8ff" points="312.96,-118.37 311.29,-128.83 319.12,-121.69 312.96,-118.37"/>
</g>
<!-- Node32 -->
<g id="node32" class="node">
<title>Node32</title>
<g id="a_node32"><a xlink:href="interfaceSCR__AIMessage__Wounded.html" target="_top" xlink:title=" ">
<polygon fill="white" stroke="#666666" points="764.5,-204 627.5,-204 627.5,-185 764.5,-185 764.5,-204"/>
<text text-anchor="middle" x="696" y="-192" font-family="Helvetica,sans-Serif" font-size="10.00">SCR_AIMessage_Wounded</text>
</a>
</g>
</g>
<!-- Node31&#45;&gt;Node32 -->
<g id="edge31" class="edge">
<title>Node31&#45;&gt;Node32</title>
<path fill="none" stroke="#63b8ff" d="M574.22,-194.5C591.97,-194.5 610.38,-194.5 627.33,-194.5"/>
<polygon fill="#63b8ff" stroke="#63b8ff" points="574.27,-191 564.27,-194.5 574.27,-198 574.27,-191"/>
</g>
</g>
</svg>
