<?xml version="1.0" encoding="UTF-8" standalone="no"?>
<!DOCTYPE svg PUBLIC "-//W3C//DTD SVG 1.1//EN"
 "http://www.w3.org/Graphics/SVG/1.1/DTD/svg11.dtd">
<!-- Generated by graphviz version 8.0.2 (20230410.1723)
 -->
<!-- Title: SCR_AIMoveIndividuallyBehavior Pages: 1 -->
<svg width="165pt" height="302pt"
 viewBox="0.00 0.00 165.00 302.00" xmlns="http://www.w3.org/2000/svg" xmlns:xlink="http://www.w3.org/1999/xlink">
<g id="graph0" class="graph" transform="scale(1 1) rotate(0) translate(4 298)">
<title>SCR_AIMoveIndividuallyBehavior</title>
<!-- Node1 -->
<g id="node1" class="node">
<title>Node1</title>
<g id="a_node1"><a xlink:title=" ">
<polygon fill="#999999" stroke="#666666" points="157,-19 0,-19 0,0 157,0 157,-19"/>
<text text-anchor="middle" x="78.5" y="-7" font-family="Helvetica,sans-Serif" font-size="10.00">SCR_AIMoveIndividuallyBehavior</text>
</a>
</g>
</g>
<!-- Node2 -->
<g id="node2" class="node">
<title>Node2</title>
<g id="a_node2"><a xlink:href="interfaceSCR__AIMoveBehaviorBase.html" target="_top" xlink:title=" ">
<polygon fill="white" stroke="#666666" points="145,-74 12,-74 12,-55 145,-55 145,-74"/>
<text text-anchor="middle" x="78.5" y="-62" font-family="Helvetica,sans-Serif" font-size="10.00">SCR_AIMoveBehaviorBase</text>
</a>
</g>
</g>
<!-- Node2&#45;&gt;Node1 -->
<g id="edge1" class="edge">
<title>Node2&#45;&gt;Node1</title>
<path fill="none" stroke="#63b8ff" d="M78.5,-43.93C78.5,-35.53 78.5,-26.13 78.5,-19.44"/>
<polygon fill="#63b8ff" stroke="#63b8ff" points="75,-43.75 78.5,-53.75 82,-43.75 75,-43.75"/>
</g>
<!-- Node3 -->
<g id="node3" class="node">
<title>Node3</title>
<g id="a_node3"><a xlink:href="interfaceSCR__AIBehaviorBase.html" target="_top" xlink:title=" ">
<polygon fill="white" stroke="#666666" points="133.5,-129 23.5,-129 23.5,-110 133.5,-110 133.5,-129"/>
<text text-anchor="middle" x="78.5" y="-117" font-family="Helvetica,sans-Serif" font-size="10.00">SCR_AIBehaviorBase</text>
</a>
</g>
</g>
<!-- Node3&#45;&gt;Node2 -->
<g id="edge2" class="edge">
<title>Node3&#45;&gt;Node2</title>
<path fill="none" stroke="#63b8ff" d="M78.5,-98.93C78.5,-90.53 78.5,-81.13 78.5,-74.44"/>
<polygon fill="#63b8ff" stroke="#63b8ff" points="75,-98.75 78.5,-108.75 82,-98.75 75,-98.75"/>
</g>
<!-- Node4 -->
<g id="node4" class="node">
<title>Node4</title>
<g id="a_node4"><a xlink:href="interfaceSCR__AIActionBase.html" target="_top" xlink:title=" ">
<polygon fill="white" stroke="#666666" points="129,-184 28,-184 28,-165 129,-165 129,-184"/>
<text text-anchor="middle" x="78.5" y="-172" font-family="Helvetica,sans-Serif" font-size="10.00">SCR_AIActionBase</text>
</a>
</g>
</g>
<!-- Node4&#45;&gt;Node3 -->
<g id="edge3" class="edge">
<title>Node4&#45;&gt;Node3</title>
<path fill="none" stroke="#63b8ff" d="M78.5,-153.93C78.5,-145.53 78.5,-136.13 78.5,-129.44"/>
<polygon fill="#63b8ff" stroke="#63b8ff" points="75,-153.75 78.5,-163.75 82,-153.75 75,-153.75"/>
</g>
<!-- Node5 -->
<g id="node5" class="node">
<title>Node5</title>
<g id="a_node5"><a xlink:href="interfaceAIActionBase.html" target="_top" xlink:title=" ">
<polygon fill="white" stroke="#666666" points="116.5,-239 40.5,-239 40.5,-220 116.5,-220 116.5,-239"/>
<text text-anchor="middle" x="78.5" y="-227" font-family="Helvetica,sans-Serif" font-size="10.00">AIActionBase</text>
</a>
</g>
</g>
<!-- Node5&#45;&gt;Node4 -->
<g id="edge4" class="edge">
<title>Node5&#45;&gt;Node4</title>
<path fill="none" stroke="#63b8ff" d="M78.5,-208.93C78.5,-200.53 78.5,-191.13 78.5,-184.44"/>
<polygon fill="#63b8ff" stroke="#63b8ff" points="75,-208.75 78.5,-218.75 82,-208.75 75,-208.75"/>
</g>
<!-- Node6 -->
<g id="node6" class="node">
<title>Node6</title>
<g id="a_node6"><a xlink:title=" ">
<polygon fill="white" stroke="#666666" points="121.5,-294 35.5,-294 35.5,-275 121.5,-275 121.5,-294"/>
<text text-anchor="middle" x="78.5" y="-282" font-family="Helvetica,sans-Serif" font-size="10.00">ScriptAndConfig</text>
</a>
</g>
</g>
<!-- Node6&#45;&gt;Node5 -->
<g id="edge5" class="edge">
<title>Node6&#45;&gt;Node5</title>
<path fill="none" stroke="#63b8ff" d="M78.5,-263.93C78.5,-255.53 78.5,-246.13 78.5,-239.44"/>
<polygon fill="#63b8ff" stroke="#63b8ff" points="75,-263.75 78.5,-273.75 82,-263.75 75,-263.75"/>
</g>
</g>
</svg>
