<?xml version="1.0" encoding="UTF-8" standalone="no"?>
<!DOCTYPE svg PUBLIC "-//W3C//DTD SVG 1.1//EN"
 "http://www.w3.org/Graphics/SVG/1.1/DTD/svg11.dtd">
<!-- Generated by graphviz version 8.0.2 (20230410.1723)
 -->
<!-- Title: AttachmentMuzzlePistol Pages: 1 -->
<svg width="391pt" height="247pt"
 viewBox="0.00 0.00 391.00 247.00" xmlns="http://www.w3.org/2000/svg" xmlns:xlink="http://www.w3.org/1999/xlink">
<g id="graph0" class="graph" transform="scale(1 1) rotate(0) translate(4 243)">
<title>AttachmentMuzzlePistol</title>
<!-- Node1 -->
<g id="node1" class="node">
<title>Node1</title>
<g id="a_node1"><a xlink:title=" ">
<polygon fill="#999999" stroke="#666666" points="248,-74 125,-74 125,-55 248,-55 248,-74"/>
<text text-anchor="middle" x="186.5" y="-62" font-family="Helvetica,sans-Serif" font-size="10.00">AttachmentMuzzlePistol</text>
</a>
</g>
</g>
<!-- Node5 -->
<g id="node5" class="node">
<title>Node5</title>
<g id="a_node5"><a xlink:href="interfaceAttachmentMuzzle45.html" target="_top" xlink:title=" ">
<polygon fill="white" stroke="#666666" points="109,-19 0,-19 0,0 109,0 109,-19"/>
<text text-anchor="middle" x="54.5" y="-7" font-family="Helvetica,sans-Serif" font-size="10.00">AttachmentMuzzle45</text>
</a>
</g>
</g>
<!-- Node1&#45;&gt;Node5 -->
<g id="edge4" class="edge">
<title>Node1&#45;&gt;Node5</title>
<path fill="none" stroke="#63b8ff" d="M154.01,-50.45C129.92,-40.78 97.72,-27.85 76.56,-19.36"/>
<polygon fill="#63b8ff" stroke="#63b8ff" points="152.52,-54.03 163.11,-54.51 155.13,-47.54 152.52,-54.03"/>
</g>
<!-- Node6 -->
<g id="node6" class="node">
<title>Node6</title>
<g id="a_node6"><a xlink:href="interfaceAttachmentMuzzle9__18.html" target="_top" xlink:title=" ">
<polygon fill="white" stroke="#666666" points="246,-19 127,-19 127,0 246,0 246,-19"/>
<text text-anchor="middle" x="186.5" y="-7" font-family="Helvetica,sans-Serif" font-size="10.00">AttachmentMuzzle9_18</text>
</a>
</g>
</g>
<!-- Node1&#45;&gt;Node6 -->
<g id="edge5" class="edge">
<title>Node1&#45;&gt;Node6</title>
<path fill="none" stroke="#63b8ff" d="M186.5,-43.93C186.5,-35.53 186.5,-26.13 186.5,-19.44"/>
<polygon fill="#63b8ff" stroke="#63b8ff" points="183,-43.75 186.5,-53.75 190,-43.75 183,-43.75"/>
</g>
<!-- Node7 -->
<g id="node7" class="node">
<title>Node7</title>
<g id="a_node7"><a xlink:href="interfaceAttachmentMuzzle9__19.html" target="_top" xlink:title=" ">
<polygon fill="white" stroke="#666666" points="383,-19 264,-19 264,0 383,0 383,-19"/>
<text text-anchor="middle" x="323.5" y="-7" font-family="Helvetica,sans-Serif" font-size="10.00">AttachmentMuzzle9_19</text>
</a>
</g>
</g>
<!-- Node1&#45;&gt;Node7 -->
<g id="edge6" class="edge">
<title>Node1&#45;&gt;Node7</title>
<path fill="none" stroke="#63b8ff" d="M219.89,-50.58C244.93,-40.9 278.54,-27.89 300.6,-19.36"/>
<polygon fill="#63b8ff" stroke="#63b8ff" points="218.8,-47.64 210.74,-54.51 221.33,-54.17 218.8,-47.64"/>
</g>
<!-- Node2 -->
<g id="node2" class="node">
<title>Node2</title>
<g id="a_node2"><a xlink:href="interfaceAttachmentMuzzle.html" target="_top" xlink:title=" ">
<polygon fill="white" stroke="#666666" points="235.5,-129 137.5,-129 137.5,-110 235.5,-110 235.5,-129"/>
<text text-anchor="middle" x="186.5" y="-117" font-family="Helvetica,sans-Serif" font-size="10.00">AttachmentMuzzle</text>
</a>
</g>
</g>
<!-- Node2&#45;&gt;Node1 -->
<g id="edge1" class="edge">
<title>Node2&#45;&gt;Node1</title>
<path fill="none" stroke="#63b8ff" d="M186.5,-98.93C186.5,-90.53 186.5,-81.13 186.5,-74.44"/>
<polygon fill="#63b8ff" stroke="#63b8ff" points="183,-98.75 186.5,-108.75 190,-98.75 183,-98.75"/>
</g>
<!-- Node3 -->
<g id="node3" class="node">
<title>Node3</title>
<g id="a_node3"><a xlink:href="interfaceBaseAttachmentType.html" target="_top" xlink:title=" ">
<polygon fill="white" stroke="#666666" points="241.5,-184 131.5,-184 131.5,-165 241.5,-165 241.5,-184"/>
<text text-anchor="middle" x="186.5" y="-172" font-family="Helvetica,sans-Serif" font-size="10.00">BaseAttachmentType</text>
</a>
</g>
</g>
<!-- Node3&#45;&gt;Node2 -->
<g id="edge2" class="edge">
<title>Node3&#45;&gt;Node2</title>
<path fill="none" stroke="#63b8ff" d="M186.5,-153.93C186.5,-145.53 186.5,-136.13 186.5,-129.44"/>
<polygon fill="#63b8ff" stroke="#63b8ff" points="183,-153.75 186.5,-163.75 190,-153.75 183,-153.75"/>
</g>
<!-- Node4 -->
<g id="node4" class="node">
<title>Node4</title>
<g id="a_node4"><a xlink:title=" ">
<polygon fill="white" stroke="#666666" points="229.5,-239 143.5,-239 143.5,-220 229.5,-220 229.5,-239"/>
<text text-anchor="middle" x="186.5" y="-227" font-family="Helvetica,sans-Serif" font-size="10.00">ScriptAndConfig</text>
</a>
</g>
</g>
<!-- Node4&#45;&gt;Node3 -->
<g id="edge3" class="edge">
<title>Node4&#45;&gt;Node3</title>
<path fill="none" stroke="#63b8ff" d="M186.5,-208.93C186.5,-200.53 186.5,-191.13 186.5,-184.44"/>
<polygon fill="#63b8ff" stroke="#63b8ff" points="183,-208.75 186.5,-218.75 190,-208.75 183,-208.75"/>
</g>
</g>
</svg>
