<?xml version="1.0" encoding="UTF-8" standalone="no"?>
<!DOCTYPE svg PUBLIC "-//W3C//DTD SVG 1.1//EN"
 "http://www.w3.org/Graphics/SVG/1.1/DTD/svg11.dtd">
<!-- Generated by graphviz version 8.0.2 (20230410.1723)
 -->
<!-- Title: SCR_AIDangerReaction Pages: 1 -->
<svg width="284pt" height="470pt"
 viewBox="0.00 0.00 284.00 470.00" xmlns="http://www.w3.org/2000/svg" xmlns:xlink="http://www.w3.org/1999/xlink">
<g id="graph0" class="graph" transform="scale(1 1) rotate(0) translate(4 466)">
<title>SCR_AIDangerReaction</title>
<!-- Node1 -->
<g id="node1" class="node">
<title>Node1</title>
<g id="a_node1"><a xlink:title=" ">
<polygon fill="#999999" stroke="#666666" points="120,-240.5 0,-240.5 0,-221.5 120,-221.5 120,-240.5"/>
<text text-anchor="middle" x="60" y="-228.5" font-family="Helvetica,sans-Serif" font-size="10.00">SCR_AIDangerReaction</text>
</a>
</g>
</g>
<!-- Node2 -->
<g id="node2" class="node">
<title>Node2</title>
<g id="a_node2"><a xlink:href="interfaceSCR__AIDangerReaction__DamageTaken.html" target="_top" xlink:title=" ">
<polygon fill="white" stroke="#666666" points="276,-462 156,-462 156,-432 276,-432 276,-462"/>
<text text-anchor="start" x="164" y="-450" font-family="Helvetica,sans-Serif" font-size="10.00">SCR_AIDangerReaction</text>
<text text-anchor="middle" x="216" y="-439" font-family="Helvetica,sans-Serif" font-size="10.00">_DamageTaken</text>
</a>
</g>
</g>
<!-- Node1&#45;&gt;Node2 -->
<g id="edge1" class="edge">
<title>Node1&#45;&gt;Node2</title>
<path fill="none" stroke="#63b8ff" d="M65.94,-251.51C76.24,-290.16 103.53,-374.23 156,-423 159.48,-426.24 163.46,-429.06 167.67,-431.53"/>
<polygon fill="#63b8ff" stroke="#63b8ff" points="69.09,-250.7 63.23,-241.87 62.3,-252.42 69.09,-250.7"/>
</g>
<!-- Node3 -->
<g id="node3" class="node">
<title>Node3</title>
<g id="a_node3"><a xlink:href="interfaceSCR__AIDangerReaction__DoorMovement.html" target="_top" xlink:title=" ">
<polygon fill="white" stroke="#666666" points="276,-414 156,-414 156,-384 276,-384 276,-414"/>
<text text-anchor="start" x="164" y="-402" font-family="Helvetica,sans-Serif" font-size="10.00">SCR_AIDangerReaction</text>
<text text-anchor="middle" x="216" y="-391" font-family="Helvetica,sans-Serif" font-size="10.00">_DoorMovement</text>
</a>
</g>
</g>
<!-- Node1&#45;&gt;Node3 -->
<g id="edge2" class="edge">
<title>Node1&#45;&gt;Node3</title>
<path fill="none" stroke="#63b8ff" d="M69.33,-250.74C83.13,-281.29 113.51,-340.15 156,-375 159.93,-378.23 164.36,-381.07 168.97,-383.56"/>
<polygon fill="#63b8ff" stroke="#63b8ff" points="72.22,-249.61 65,-241.86 65.8,-252.42 72.22,-249.61"/>
</g>
<!-- Node4 -->
<g id="node4" class="node">
<title>Node4</title>
<g id="a_node4"><a xlink:href="interfaceSCR__AIDangerReaction__Explosion.html" target="_top" xlink:title=" ">
<polygon fill="white" stroke="#666666" points="276,-366 156,-366 156,-336 276,-336 276,-366"/>
<text text-anchor="start" x="164" y="-354" font-family="Helvetica,sans-Serif" font-size="10.00">SCR_AIDangerReaction</text>
<text text-anchor="middle" x="216" y="-343" font-family="Helvetica,sans-Serif" font-size="10.00">_Explosion</text>
</a>
</g>
</g>
<!-- Node1&#45;&gt;Node4 -->
<g id="edge3" class="edge">
<title>Node1&#45;&gt;Node4</title>
<path fill="none" stroke="#63b8ff" d="M75.04,-249.11C92.2,-270.21 123.04,-305 156,-327 160.69,-330.13 165.85,-332.97 171.12,-335.5"/>
<polygon fill="#63b8ff" stroke="#63b8ff" points="77.33,-247.36 68.36,-241.72 71.85,-251.72 77.33,-247.36"/>
</g>
<!-- Node5 -->
<g id="node5" class="node">
<title>Node5</title>
<g id="a_node5"><a xlink:href="interfaceSCR__AIDangerReaction__GrenadeLanding.html" target="_top" xlink:title=" ">
<polygon fill="white" stroke="#666666" points="276,-318 156,-318 156,-288 276,-288 276,-318"/>
<text text-anchor="start" x="164" y="-306" font-family="Helvetica,sans-Serif" font-size="10.00">SCR_AIDangerReaction</text>
<text text-anchor="middle" x="216" y="-295" font-family="Helvetica,sans-Serif" font-size="10.00">_GrenadeLanding</text>
</a>
</g>
</g>
<!-- Node1&#45;&gt;Node5 -->
<g id="edge4" class="edge">
<title>Node1&#45;&gt;Node5</title>
<path fill="none" stroke="#63b8ff" d="M89.04,-245.92C107.8,-255.72 133.15,-268.6 156,-279 162.34,-281.89 169.13,-284.8 175.77,-287.57"/>
<polygon fill="#63b8ff" stroke="#63b8ff" points="90.83,-242.39 80.35,-240.83 87.57,-248.58 90.83,-242.39"/>
</g>
<!-- Node6 -->
<g id="node6" class="node">
<title>Node6</title>
<g id="a_node6"><a xlink:href="interfaceSCR__AIDangerReaction__MeleeDamageTaken.html" target="_top" xlink:title=" ">
<polygon fill="white" stroke="#666666" points="276,-270 156,-270 156,-240 276,-240 276,-270"/>
<text text-anchor="start" x="164" y="-258" font-family="Helvetica,sans-Serif" font-size="10.00">SCR_AIDangerReaction</text>
<text text-anchor="middle" x="216" y="-247" font-family="Helvetica,sans-Serif" font-size="10.00">_MeleeDamageTaken</text>
</a>
</g>
</g>
<!-- Node1&#45;&gt;Node6 -->
<g id="edge5" class="edge">
<title>Node1&#45;&gt;Node6</title>
<path fill="none" stroke="#63b8ff" d="M130.85,-241.89C139.1,-243.17 147.46,-244.47 155.55,-245.73"/>
<polygon fill="#63b8ff" stroke="#63b8ff" points="131.52,-238.29 121.1,-240.21 130.44,-245.21 131.52,-238.29"/>
</g>
<!-- Node7 -->
<g id="node7" class="node">
<title>Node7</title>
<g id="a_node7"><a xlink:href="interfaceSCR__AIDangerReaction__ProjectileHit.html" target="_top" xlink:title=" ">
<polygon fill="white" stroke="#666666" points="276,-222 156,-222 156,-192 276,-192 276,-222"/>
<text text-anchor="start" x="164" y="-210" font-family="Helvetica,sans-Serif" font-size="10.00">SCR_AIDangerReaction</text>
<text text-anchor="middle" x="216" y="-199" font-family="Helvetica,sans-Serif" font-size="10.00">_ProjectileHit</text>
</a>
</g>
</g>
<!-- Node1&#45;&gt;Node7 -->
<g id="edge6" class="edge">
<title>Node1&#45;&gt;Node7</title>
<path fill="none" stroke="#63b8ff" d="M130.85,-220.11C139.1,-218.83 147.46,-217.53 155.55,-216.27"/>
<polygon fill="#63b8ff" stroke="#63b8ff" points="130.44,-216.79 121.1,-221.79 131.52,-223.71 130.44,-216.79"/>
</g>
<!-- Node8 -->
<g id="node8" class="node">
<title>Node8</title>
<g id="a_node8"><a xlink:href="interfaceSCR__AIDangerReaction__StartedBleeding.html" target="_top" xlink:title=" ">
<polygon fill="white" stroke="#666666" points="276,-174 156,-174 156,-144 276,-144 276,-174"/>
<text text-anchor="start" x="164" y="-162" font-family="Helvetica,sans-Serif" font-size="10.00">SCR_AIDangerReaction</text>
<text text-anchor="middle" x="216" y="-151" font-family="Helvetica,sans-Serif" font-size="10.00">_StartedBleeding</text>
</a>
</g>
</g>
<!-- Node1&#45;&gt;Node8 -->
<g id="edge7" class="edge">
<title>Node1&#45;&gt;Node8</title>
<path fill="none" stroke="#63b8ff" d="M89.04,-216.08C107.8,-206.28 133.15,-193.4 156,-183 162.34,-180.11 169.13,-177.2 175.77,-174.43"/>
<polygon fill="#63b8ff" stroke="#63b8ff" points="87.57,-213.42 80.35,-221.17 90.83,-219.61 87.57,-213.42"/>
</g>
<!-- Node9 -->
<g id="node9" class="node">
<title>Node9</title>
<g id="a_node9"><a xlink:href="interfaceSCR__AIDangerReaction__Vehicle.html" target="_top" xlink:title=" ">
<polygon fill="white" stroke="#666666" points="276,-126 156,-126 156,-96 276,-96 276,-126"/>
<text text-anchor="start" x="164" y="-114" font-family="Helvetica,sans-Serif" font-size="10.00">SCR_AIDangerReaction</text>
<text text-anchor="middle" x="216" y="-103" font-family="Helvetica,sans-Serif" font-size="10.00">_Vehicle</text>
</a>
</g>
</g>
<!-- Node1&#45;&gt;Node9 -->
<g id="edge8" class="edge">
<title>Node1&#45;&gt;Node9</title>
<path fill="none" stroke="#63b8ff" d="M75.04,-212.89C92.2,-191.79 123.04,-157 156,-135 160.69,-131.87 165.85,-129.03 171.12,-126.5"/>
<polygon fill="#63b8ff" stroke="#63b8ff" points="71.85,-210.28 68.36,-220.28 77.33,-214.64 71.85,-210.28"/>
</g>
<!-- Node10 -->
<g id="node10" class="node">
<title>Node10</title>
<g id="a_node10"><a xlink:href="interfaceSCR__AIDangerReaction__VehicleHorn.html" target="_top" xlink:title=" ">
<polygon fill="white" stroke="#666666" points="276,-78 156,-78 156,-48 276,-48 276,-78"/>
<text text-anchor="start" x="164" y="-66" font-family="Helvetica,sans-Serif" font-size="10.00">SCR_AIDangerReaction</text>
<text text-anchor="middle" x="216" y="-55" font-family="Helvetica,sans-Serif" font-size="10.00">_VehicleHorn</text>
</a>
</g>
</g>
<!-- Node1&#45;&gt;Node10 -->
<g id="edge9" class="edge">
<title>Node1&#45;&gt;Node10</title>
<path fill="none" stroke="#63b8ff" d="M69.33,-211.26C83.13,-180.71 113.51,-121.85 156,-87 159.93,-83.77 164.36,-80.93 168.97,-78.44"/>
<polygon fill="#63b8ff" stroke="#63b8ff" points="65.8,-209.58 65,-220.14 72.22,-212.39 65.8,-209.58"/>
</g>
<!-- Node11 -->
<g id="node11" class="node">
<title>Node11</title>
<g id="a_node11"><a xlink:href="interfaceSCR__AIDangerReaction__WeaponFired.html" target="_top" xlink:title=" ">
<polygon fill="white" stroke="#666666" points="276,-30 156,-30 156,0 276,0 276,-30"/>
<text text-anchor="start" x="164" y="-18" font-family="Helvetica,sans-Serif" font-size="10.00">SCR_AIDangerReaction</text>
<text text-anchor="middle" x="216" y="-7" font-family="Helvetica,sans-Serif" font-size="10.00">_WeaponFired</text>
</a>
</g>
</g>
<!-- Node1&#45;&gt;Node11 -->
<g id="edge10" class="edge">
<title>Node1&#45;&gt;Node11</title>
<path fill="none" stroke="#63b8ff" d="M65.94,-210.49C76.24,-171.84 103.53,-87.77 156,-39 159.48,-35.76 163.46,-32.94 167.67,-30.47"/>
<polygon fill="#63b8ff" stroke="#63b8ff" points="62.3,-209.58 63.23,-220.13 69.09,-211.3 62.3,-209.58"/>
</g>
</g>
</svg>
