<?xml version="1.0" encoding="UTF-8" standalone="no"?>
<!DOCTYPE svg PUBLIC "-//W3C//DTD SVG 1.1//EN"
 "http://www.w3.org/Graphics/SVG/1.1/DTD/svg11.dtd">
<!-- Generated by graphviz version 8.0.2 (20230410.1723)
 -->
<!-- Title: SCR_FlareEffectComponent Pages: 1 -->
<svg width="146pt" height="203pt"
 viewBox="0.00 0.00 146.00 203.00" xmlns="http://www.w3.org/2000/svg" xmlns:xlink="http://www.w3.org/1999/xlink">
<g id="graph0" class="graph" transform="scale(1 1) rotate(0) translate(4 199)">
<title>SCR_FlareEffectComponent</title>
<!-- Node1 -->
<g id="node1" class="node">
<title>Node1</title>
<g id="a_node1"><a xlink:title=" ">
<polygon fill="#999999" stroke="#666666" points="138,-19 0,-19 0,0 138,0 138,-19"/>
<text text-anchor="middle" x="69" y="-7" font-family="Helvetica,sans-Serif" font-size="10.00">SCR_FlareEffectComponent</text>
</a>
</g>
</g>
<!-- Node2 -->
<g id="node2" class="node">
<title>Node2</title>
<g id="a_node2"><a xlink:href="interfaceSCR__BaseInteractiveLightComponent.html" target="_top" xlink:title=" ">
<polygon fill="white" stroke="#666666" points="133.5,-85 4.5,-85 4.5,-55 133.5,-55 133.5,-85"/>
<text text-anchor="start" x="12.5" y="-73" font-family="Helvetica,sans-Serif" font-size="10.00">SCR_BaseInteractiveLight</text>
<text text-anchor="middle" x="69" y="-62" font-family="Helvetica,sans-Serif" font-size="10.00">Component</text>
</a>
</g>
</g>
<!-- Node2&#45;&gt;Node1 -->
<g id="edge1" class="edge">
<title>Node2&#45;&gt;Node1</title>
<path fill="none" stroke="#63b8ff" d="M69,-43.59C69,-34.85 69,-25.65 69,-19.18"/>
<polygon fill="#63b8ff" stroke="#63b8ff" points="65.5,-43.54 69,-53.54 72.5,-43.54 65.5,-43.54"/>
</g>
<!-- Node3 -->
<g id="node3" class="node">
<title>Node3</title>
<g id="a_node3"><a xlink:href="interfaceSCR__BaseLightComponent.html" target="_top" xlink:title=" ">
<polygon fill="white" stroke="#666666" points="136.5,-140 1.5,-140 1.5,-121 136.5,-121 136.5,-140"/>
<text text-anchor="middle" x="69" y="-128" font-family="Helvetica,sans-Serif" font-size="10.00">SCR_BaseLightComponent</text>
</a>
</g>
</g>
<!-- Node3&#45;&gt;Node2 -->
<g id="edge2" class="edge">
<title>Node3&#45;&gt;Node2</title>
<path fill="none" stroke="#63b8ff" d="M69,-110.08C69,-101.92 69,-92.6 69,-85.11"/>
<polygon fill="#63b8ff" stroke="#63b8ff" points="65.5,-109.87 69,-119.87 72.5,-109.87 65.5,-109.87"/>
</g>
<!-- Node4 -->
<g id="node4" class="node">
<title>Node4</title>
<g id="a_node4"><a xlink:title=" ">
<polygon fill="white" stroke="#666666" points="115,-195 23,-195 23,-176 115,-176 115,-195"/>
<text text-anchor="middle" x="69" y="-183" font-family="Helvetica,sans-Serif" font-size="10.00">ScriptComponent</text>
</a>
</g>
</g>
<!-- Node4&#45;&gt;Node3 -->
<g id="edge3" class="edge">
<title>Node4&#45;&gt;Node3</title>
<path fill="none" stroke="#63b8ff" d="M69,-164.93C69,-156.53 69,-147.13 69,-140.44"/>
<polygon fill="#63b8ff" stroke="#63b8ff" points="65.5,-164.75 69,-174.75 72.5,-164.75 65.5,-164.75"/>
</g>
</g>
</svg>
