<?xml version="1.0" encoding="UTF-8" standalone="no"?>
<!DOCTYPE svg PUBLIC "-//W3C//DTD SVG 1.1//EN"
 "http://www.w3.org/Graphics/SVG/1.1/DTD/svg11.dtd">
<!-- Generated by graphviz version 8.0.2 (20230410.1723)
 -->
<!-- Title: CompartmentDoorInfo Pages: 1 -->
<svg width="126pt" height="137pt"
 viewBox="0.00 0.00 126.00 137.00" xmlns="http://www.w3.org/2000/svg" xmlns:xlink="http://www.w3.org/1999/xlink">
<g id="graph0" class="graph" transform="scale(1 1) rotate(0) translate(4 133)">
<title>CompartmentDoorInfo</title>
<!-- Node1 -->
<g id="node1" class="node">
<title>Node1</title>
<g id="a_node1"><a xlink:title=" ">
<polygon fill="#999999" stroke="#666666" points="114,-19 4,-19 4,0 114,0 114,-19"/>
<text text-anchor="middle" x="59" y="-7" font-family="Helvetica,sans-Serif" font-size="10.00">CompartmentDoorInfo</text>
</a>
</g>
</g>
<!-- Node2 -->
<g id="node2" class="node">
<title>Node2</title>
<g id="a_node2"><a xlink:href="interfaceBaseCompartmentDoor.html" target="_top" xlink:title=" ">
<polygon fill="white" stroke="#666666" points="118,-74 0,-74 0,-55 118,-55 118,-74"/>
<text text-anchor="middle" x="59" y="-62" font-family="Helvetica,sans-Serif" font-size="10.00">BaseCompartmentDoor</text>
</a>
</g>
</g>
<!-- Node2&#45;&gt;Node1 -->
<g id="edge1" class="edge">
<title>Node2&#45;&gt;Node1</title>
<path fill="none" stroke="#63b8ff" d="M59,-43.93C59,-35.53 59,-26.13 59,-19.44"/>
<polygon fill="#63b8ff" stroke="#63b8ff" points="55.5,-43.75 59,-53.75 62.5,-43.75 55.5,-43.75"/>
</g>
<!-- Node3 -->
<g id="node3" class="node">
<title>Node3</title>
<g id="a_node3"><a xlink:title=" ">
<polygon fill="white" stroke="#666666" points="102,-129 16,-129 16,-110 102,-110 102,-129"/>
<text text-anchor="middle" x="59" y="-117" font-family="Helvetica,sans-Serif" font-size="10.00">ScriptAndConfig</text>
</a>
</g>
</g>
<!-- Node3&#45;&gt;Node2 -->
<g id="edge2" class="edge">
<title>Node3&#45;&gt;Node2</title>
<path fill="none" stroke="#63b8ff" d="M59,-98.93C59,-90.53 59,-81.13 59,-74.44"/>
<polygon fill="#63b8ff" stroke="#63b8ff" points="55.5,-98.75 59,-108.75 62.5,-98.75 55.5,-98.75"/>
</g>
</g>
</svg>
