<?xml version="1.0" encoding="UTF-8" standalone="no"?>
<!DOCTYPE svg PUBLIC "-//W3C//DTD SVG 1.1//EN"
 "http://www.w3.org/Graphics/SVG/1.1/DTD/svg11.dtd">
<!-- Generated by graphviz version 8.0.2 (20230410.1723)
 -->
<!-- Title: SCR_CampaignBuildingCloseHintCondition Pages: 1 -->
<svg width="156pt" height="148pt"
 viewBox="0.00 0.00 156.00 148.00" xmlns="http://www.w3.org/2000/svg" xmlns:xlink="http://www.w3.org/1999/xlink">
<g id="graph0" class="graph" transform="scale(1 1) rotate(0) translate(4 144)">
<title>SCR_CampaignBuildingCloseHintCondition</title>
<!-- Node1 -->
<g id="node1" class="node">
<title>Node1</title>
<g id="a_node1"><a xlink:title=" ">
<polygon fill="#999999" stroke="#666666" points="146.5,-30 1.5,-30 1.5,0 146.5,0 146.5,-30"/>
<text text-anchor="start" x="9.5" y="-18" font-family="Helvetica,sans-Serif" font-size="10.00">SCR_CampaignBuildingClose</text>
<text text-anchor="middle" x="74" y="-7" font-family="Helvetica,sans-Serif" font-size="10.00">HintCondition</text>
</a>
</g>
</g>
<!-- Node2 -->
<g id="node2" class="node">
<title>Node2</title>
<g id="a_node2"><a xlink:href="interfaceSCR__BaseEditorHintCondition.html" target="_top" xlink:title=" ">
<polygon fill="white" stroke="#666666" points="148,-85 0,-85 0,-66 148,-66 148,-85"/>
<text text-anchor="middle" x="74" y="-73" font-family="Helvetica,sans-Serif" font-size="10.00">SCR_BaseEditorHintCondition</text>
</a>
</g>
</g>
<!-- Node2&#45;&gt;Node1 -->
<g id="edge1" class="edge">
<title>Node2&#45;&gt;Node1</title>
<path fill="none" stroke="#63b8ff" d="M74,-55.08C74,-46.92 74,-37.6 74,-30.11"/>
<polygon fill="#63b8ff" stroke="#63b8ff" points="70.5,-54.87 74,-64.87 77.5,-54.87 70.5,-54.87"/>
</g>
<!-- Node3 -->
<g id="node3" class="node">
<title>Node3</title>
<g id="a_node3"><a xlink:href="interfaceSCR__BaseHintCondition.html" target="_top" xlink:title=" ">
<polygon fill="white" stroke="#666666" points="135,-140 13,-140 13,-121 135,-121 135,-140"/>
<text text-anchor="middle" x="74" y="-128" font-family="Helvetica,sans-Serif" font-size="10.00">SCR_BaseHintCondition</text>
</a>
</g>
</g>
<!-- Node3&#45;&gt;Node2 -->
<g id="edge2" class="edge">
<title>Node3&#45;&gt;Node2</title>
<path fill="none" stroke="#63b8ff" d="M74,-109.93C74,-101.53 74,-92.13 74,-85.44"/>
<polygon fill="#63b8ff" stroke="#63b8ff" points="70.5,-109.75 74,-119.75 77.5,-109.75 70.5,-109.75"/>
</g>
</g>
</svg>
