<?xml version="1.0" encoding="UTF-8" standalone="no"?>
<!DOCTYPE svg PUBLIC "-//W3C//DTD SVG 1.1//EN"
 "http://www.w3.org/Graphics/SVG/1.1/DTD/svg11.dtd">
<!-- Generated by graphviz version 8.0.2 (20230410.1723)
 -->
<!-- Title: SCR_WorkshopItemActionReportBase Pages: 1 -->
<svg width="564pt" height="172pt"
 viewBox="0.00 0.00 564.00 171.50" xmlns="http://www.w3.org/2000/svg" xmlns:xlink="http://www.w3.org/1999/xlink">
<g id="graph0" class="graph" transform="scale(1 1) rotate(0) translate(4 167.5)">
<title>SCR_WorkshopItemActionReportBase</title>
<!-- Node1 -->
<g id="node1" class="node">
<title>Node1</title>
<g id="a_node1"><a xlink:title="Action for reporting an item.">
<polygon fill="#999999" stroke="#666666" points="353,-86 169,-86 169,-67 353,-67 353,-86"/>
<text text-anchor="middle" x="261" y="-74" font-family="Helvetica,sans-Serif" font-size="10.00">SCR_WorkshopItemActionReportBase</text>
</a>
</g>
</g>
<!-- Node3 -->
<g id="node3" class="node">
<title>Node3</title>
<g id="a_node3"><a xlink:href="interfaceSCR__WorkshopItemActionAddAuthorBlock.html" target="_top" xlink:title="Action for blocking author.">
<polygon fill="white" stroke="#666666" points="547.5,-163.5 397.5,-163.5 397.5,-133.5 547.5,-133.5 547.5,-163.5"/>
<text text-anchor="start" x="405.5" y="-151.5" font-family="Helvetica,sans-Serif" font-size="10.00">SCR_WorkshopItemActionAdd</text>
<text text-anchor="middle" x="472.5" y="-140.5" font-family="Helvetica,sans-Serif" font-size="10.00">AuthorBlock</text>
</a>
</g>
</g>
<!-- Node1&#45;&gt;Node3 -->
<g id="edge2" class="edge">
<title>Node1&#45;&gt;Node3</title>
<path fill="none" stroke="#63b8ff" d="M296.84,-90.51C322.21,-100.51 357.5,-113.98 389,-124.5 397.77,-127.43 407.13,-130.35 416.29,-133.09"/>
<polygon fill="#63b8ff" stroke="#63b8ff" points="298.2,-86.89 287.62,-86.46 295.62,-93.4 298.2,-86.89"/>
</g>
<!-- Node4 -->
<g id="node4" class="node">
<title>Node4</title>
<g id="a_node4"><a xlink:href="interfaceSCR__WorkshopItemActionCancelReport.html" target="_top" xlink:title="Action for canceling report of an item.">
<polygon fill="white" stroke="#666666" points="554,-115.5 391,-115.5 391,-85.5 554,-85.5 554,-115.5"/>
<text text-anchor="start" x="399" y="-103.5" font-family="Helvetica,sans-Serif" font-size="10.00">SCR_WorkshopItemActionCancel</text>
<text text-anchor="middle" x="472.5" y="-92.5" font-family="Helvetica,sans-Serif" font-size="10.00">Report</text>
</a>
</g>
</g>
<!-- Node1&#45;&gt;Node4 -->
<g id="edge3" class="edge">
<title>Node1&#45;&gt;Node4</title>
<path fill="none" stroke="#63b8ff" d="M359.79,-87.7C370.17,-88.89 380.63,-90.09 390.78,-91.25"/>
<polygon fill="#63b8ff" stroke="#63b8ff" points="360.36,-84.13 350.03,-86.47 359.56,-91.09 360.36,-84.13"/>
</g>
<!-- Node5 -->
<g id="node5" class="node">
<title>Node5</title>
<g id="a_node5"><a xlink:href="interfaceSCR__WorkshopItemActionRemoveAuthorBlock.html" target="_top" xlink:title="Action for removing author mod content blocking.">
<polygon fill="white" stroke="#666666" points="556,-67.5 389,-67.5 389,-37.5 556,-37.5 556,-67.5"/>
<text text-anchor="start" x="397" y="-55.5" font-family="Helvetica,sans-Serif" font-size="10.00">SCR_WorkshopItemActionRemove</text>
<text text-anchor="middle" x="472.5" y="-44.5" font-family="Helvetica,sans-Serif" font-size="10.00">AuthorBlock</text>
</a>
</g>
</g>
<!-- Node1&#45;&gt;Node5 -->
<g id="edge4" class="edge">
<title>Node1&#45;&gt;Node5</title>
<path fill="none" stroke="#63b8ff" d="M359.89,-65.29C369.55,-64.18 379.29,-63.06 388.78,-61.98"/>
<polygon fill="#63b8ff" stroke="#63b8ff" points="359.56,-61.91 350.03,-66.53 360.36,-68.87 359.56,-61.91"/>
</g>
<!-- Node6 -->
<g id="node6" class="node">
<title>Node6</title>
<g id="a_node6"><a xlink:href="interfaceSCR__WorkshopItemActionReport.html" target="_top" xlink:title="Action for reporting an item.">
<polygon fill="white" stroke="#666666" points="553,-19 392,-19 392,0 553,0 553,-19"/>
<text text-anchor="middle" x="472.5" y="-7" font-family="Helvetica,sans-Serif" font-size="10.00">SCR_WorkshopItemActionReport</text>
</a>
</g>
</g>
<!-- Node1&#45;&gt;Node6 -->
<g id="edge5" class="edge">
<title>Node1&#45;&gt;Node6</title>
<path fill="none" stroke="#63b8ff" d="M295.39,-62.46C320.76,-52.15 356.68,-38.28 389,-28.5 399.97,-25.18 411.92,-22.12 423.22,-19.47"/>
<polygon fill="#63b8ff" stroke="#63b8ff" points="294.47,-59.47 286.54,-66.5 297.12,-65.95 294.47,-59.47"/>
</g>
<!-- Node2 -->
<g id="node2" class="node">
<title>Node2</title>
<g id="a_node2"><a xlink:href="interfaceSCR__WorkshopItemAction.html" target="_top" xlink:title=" ">
<polygon fill="white" stroke="#666666" points="133,-86 0,-86 0,-67 133,-67 133,-86"/>
<text text-anchor="middle" x="66.5" y="-74" font-family="Helvetica,sans-Serif" font-size="10.00">SCR_WorkshopItemAction</text>
</a>
</g>
</g>
<!-- Node2&#45;&gt;Node1 -->
<g id="edge1" class="edge">
<title>Node2&#45;&gt;Node1</title>
<path fill="none" stroke="#63b8ff" d="M144.25,-76.5C152.25,-76.5 160.44,-76.5 168.58,-76.5"/>
<polygon fill="#63b8ff" stroke="#63b8ff" points="144.48,-73 134.48,-76.5 144.48,-80 144.48,-73"/>
</g>
</g>
</svg>
