<?xml version="1.0" encoding="UTF-8" standalone="no"?>
<!DOCTYPE svg PUBLIC "-//W3C//DTD SVG 1.1//EN"
 "http://www.w3.org/Graphics/SVG/1.1/DTD/svg11.dtd">
<!-- Generated by graphviz version 8.0.2 (20230410.1723)
 -->
<!-- Title: SCR_BaseFactionEditableAttribute Pages: 1 -->
<svg width="910pt" height="124pt"
 viewBox="0.00 0.00 910.00 123.50" xmlns="http://www.w3.org/2000/svg" xmlns:xlink="http://www.w3.org/1999/xlink">
<g id="graph0" class="graph" transform="scale(1 1) rotate(0) translate(4 119.5)">
<title>SCR_BaseFactionEditableAttribute</title>
<!-- Node1 -->
<g id="node1" class="node">
<title>Node1</title>
<g id="a_node1"><a xlink:title="Group Faction Attribute for getting and setting varriables in Editor Attribute window.">
<polygon fill="#999999" stroke="#666666" points="704,-62 535,-62 535,-43 704,-43 704,-62"/>
<text text-anchor="middle" x="619.5" y="-50" font-family="Helvetica,sans-Serif" font-size="10.00">SCR_BaseFactionEditableAttribute</text>
</a>
</g>
</g>
<!-- Node5 -->
<g id="node5" class="node">
<title>Node5</title>
<g id="a_node5"><a xlink:href="interfaceSCR__AIGroupFactionEditorAttribute.html" target="_top" xlink:title="Group Faction Attribute for getting and setting varriables in Editor Attribute window.">
<polygon fill="white" stroke="#666666" points="888.5,-115.5 753.5,-115.5 753.5,-85.5 888.5,-85.5 888.5,-115.5"/>
<text text-anchor="start" x="761.5" y="-103.5" font-family="Helvetica,sans-Serif" font-size="10.00">SCR_AIGroupFactionEditor</text>
<text text-anchor="middle" x="821" y="-92.5" font-family="Helvetica,sans-Serif" font-size="10.00">Attribute</text>
</a>
</g>
</g>
<!-- Node1&#45;&gt;Node5 -->
<g id="edge4" class="edge">
<title>Node1&#45;&gt;Node5</title>
<path fill="none" stroke="#63b8ff" d="M672.41,-64.99C697.94,-71.13 728.94,-78.59 755.93,-85.08"/>
<polygon fill="#63b8ff" stroke="#63b8ff" points="673.38,-61.38 662.84,-62.45 671.74,-68.19 673.38,-61.38"/>
</g>
<!-- Node6 -->
<g id="node6" class="node">
<title>Node6</title>
<g id="a_node6"><a xlink:href="interfaceSCR__ArsenalFactionEditorAttribute.html" target="_top" xlink:title="Arsenal Faction Attribute for getting and setting varriables in Editor Attribute window.">
<polygon fill="white" stroke="#666666" points="887.5,-67.5 754.5,-67.5 754.5,-37.5 887.5,-37.5 887.5,-67.5"/>
<text text-anchor="start" x="762.5" y="-55.5" font-family="Helvetica,sans-Serif" font-size="10.00">SCR_ArsenalFactionEditor</text>
<text text-anchor="middle" x="821" y="-44.5" font-family="Helvetica,sans-Serif" font-size="10.00">Attribute</text>
</a>
</g>
</g>
<!-- Node1&#45;&gt;Node6 -->
<g id="edge5" class="edge">
<title>Node1&#45;&gt;Node6</title>
<path fill="none" stroke="#63b8ff" d="M715.22,-52.5C728.36,-52.5 741.6,-52.5 754.06,-52.5"/>
<polygon fill="#63b8ff" stroke="#63b8ff" points="715.24,-49 705.24,-52.5 715.24,-56 715.24,-49"/>
</g>
<!-- Node7 -->
<g id="node7" class="node">
<title>Node7</title>
<g id="a_node7"><a xlink:href="interfaceSCR__EntityFactionEditorAttribute.html" target="_top" xlink:title="A Generic entity faction changer.">
<polygon fill="white" stroke="#666666" points="902,-19 740,-19 740,0 902,0 902,-19"/>
<text text-anchor="middle" x="821" y="-7" font-family="Helvetica,sans-Serif" font-size="10.00">SCR_EntityFactionEditorAttribute</text>
</a>
</g>
</g>
<!-- Node1&#45;&gt;Node7 -->
<g id="edge6" class="edge">
<title>Node1&#45;&gt;Node7</title>
<path fill="none" stroke="#63b8ff" d="M677.26,-40.27C707.76,-33.69 744.89,-25.69 773.64,-19.49"/>
<polygon fill="#63b8ff" stroke="#63b8ff" points="676.81,-37 667.77,-42.53 678.28,-43.84 676.81,-37"/>
</g>
<!-- Node2 -->
<g id="node2" class="node">
<title>Node2</title>
<g id="a_node2"><a xlink:href="interfaceSCR__BasePresetsEditorAttribute.html" target="_top" xlink:title="Attribute base for Name, icon and float value for other attributes to inherent from.">
<polygon fill="white" stroke="#666666" points="499,-62 338,-62 338,-43 499,-43 499,-62"/>
<text text-anchor="middle" x="418.5" y="-50" font-family="Helvetica,sans-Serif" font-size="10.00">SCR_BasePresetsEditorAttribute</text>
</a>
</g>
</g>
<!-- Node2&#45;&gt;Node1 -->
<g id="edge1" class="edge">
<title>Node2&#45;&gt;Node1</title>
<path fill="none" stroke="#63b8ff" d="M510.05,-52.5C518.29,-52.5 526.61,-52.5 534.78,-52.5"/>
<polygon fill="#63b8ff" stroke="#63b8ff" points="510.29,-49 500.29,-52.5 510.29,-56 510.29,-49"/>
</g>
<!-- Node3 -->
<g id="node3" class="node">
<title>Node3</title>
<g id="a_node3"><a xlink:href="interfaceSCR__BaseFloatValueHolderEditorAttribute.html" target="_top" xlink:title="Attribute base for Name, icon and float value for other attributes to inherent from.">
<polygon fill="white" stroke="#666666" points="302,-67.5 163,-67.5 163,-37.5 302,-37.5 302,-67.5"/>
<text text-anchor="start" x="171" y="-55.5" font-family="Helvetica,sans-Serif" font-size="10.00">SCR_BaseFloatValueHolder</text>
<text text-anchor="middle" x="232.5" y="-44.5" font-family="Helvetica,sans-Serif" font-size="10.00">EditorAttribute</text>
</a>
</g>
</g>
<!-- Node3&#45;&gt;Node2 -->
<g id="edge2" class="edge">
<title>Node3&#45;&gt;Node2</title>
<path fill="none" stroke="#63b8ff" d="M313.22,-52.5C321.32,-52.5 329.55,-52.5 337.65,-52.5"/>
<polygon fill="#63b8ff" stroke="#63b8ff" points="313.28,-49 303.28,-52.5 313.28,-56 313.28,-49"/>
</g>
<!-- Node4 -->
<g id="node4" class="node">
<title>Node4</title>
<g id="a_node4"><a xlink:href="interfaceSCR__BaseEditorAttribute.html" target="_top" xlink:title="Base Attribute Script for other attributes to inherent from to get and set varriables in Editor Attri...">
<polygon fill="white" stroke="#666666" points="127,-62 0,-62 0,-43 127,-43 127,-62"/>
<text text-anchor="middle" x="63.5" y="-50" font-family="Helvetica,sans-Serif" font-size="10.00">SCR_BaseEditorAttribute</text>
</a>
</g>
</g>
<!-- Node4&#45;&gt;Node3 -->
<g id="edge3" class="edge">
<title>Node4&#45;&gt;Node3</title>
<path fill="none" stroke="#63b8ff" d="M138.14,-52.5C146.28,-52.5 154.54,-52.5 162.61,-52.5"/>
<polygon fill="#63b8ff" stroke="#63b8ff" points="138.16,-49 128.16,-52.5 138.16,-56 138.16,-49"/>
</g>
</g>
</svg>
