<?xml version="1.0" encoding="UTF-8" standalone="no"?>
<!DOCTYPE svg PUBLIC "-//W3C//DTD SVG 1.1//EN"
 "http://www.w3.org/Graphics/SVG/1.1/DTD/svg11.dtd">
<!-- Generated by graphviz version 8.0.2 (20230410.1723)
 -->
<!-- Title: BaseActionsManagerComponent Pages: 1 -->
<svg width="167pt" height="258pt"
 viewBox="0.00 0.00 167.00 258.00" xmlns="http://www.w3.org/2000/svg" xmlns:xlink="http://www.w3.org/1999/xlink">
<g id="graph0" class="graph" transform="scale(1 1) rotate(0) translate(4 254)">
<title>BaseActionsManagerComponent</title>
<!-- Node1 -->
<g id="node1" class="node">
<title>Node1</title>
<g id="a_node1"><a xlink:title=" ">
<polygon fill="#999999" stroke="#666666" points="159,-140 0,-140 0,-121 159,-121 159,-140"/>
<text text-anchor="middle" x="79.5" y="-128" font-family="Helvetica,sans-Serif" font-size="10.00">BaseActionsManagerComponent</text>
</a>
</g>
</g>
<!-- Node4 -->
<g id="node4" class="node">
<title>Node4</title>
<g id="a_node4"><a xlink:href="interfaceActionsManagerComponent.html" target="_top" xlink:title=" ">
<polygon fill="white" stroke="#666666" points="148,-85 11,-85 11,-66 148,-66 148,-85"/>
<text text-anchor="middle" x="79.5" y="-73" font-family="Helvetica,sans-Serif" font-size="10.00">ActionsManagerComponent</text>
</a>
</g>
</g>
<!-- Node1&#45;&gt;Node4 -->
<g id="edge3" class="edge">
<title>Node1&#45;&gt;Node4</title>
<path fill="none" stroke="#63b8ff" d="M79.5,-109.93C79.5,-101.53 79.5,-92.13 79.5,-85.44"/>
<polygon fill="#63b8ff" stroke="#63b8ff" points="76,-109.75 79.5,-119.75 83,-109.75 76,-109.75"/>
</g>
<!-- Node2 -->
<g id="node2" class="node">
<title>Node2</title>
<g id="a_node2"><a xlink:href="interfaceGameComponent.html" target="_top" xlink:title=" ">
<polygon fill="white" stroke="#666666" points="125.5,-195 33.5,-195 33.5,-176 125.5,-176 125.5,-195"/>
<text text-anchor="middle" x="79.5" y="-183" font-family="Helvetica,sans-Serif" font-size="10.00">GameComponent</text>
</a>
</g>
</g>
<!-- Node2&#45;&gt;Node1 -->
<g id="edge1" class="edge">
<title>Node2&#45;&gt;Node1</title>
<path fill="none" stroke="#63b8ff" d="M79.5,-164.93C79.5,-156.53 79.5,-147.13 79.5,-140.44"/>
<polygon fill="#63b8ff" stroke="#63b8ff" points="76,-164.75 79.5,-174.75 83,-164.75 76,-164.75"/>
</g>
<!-- Node3 -->
<g id="node3" class="node">
<title>Node3</title>
<g id="a_node3"><a xlink:title=" ">
<polygon fill="white" stroke="#666666" points="129.5,-250 29.5,-250 29.5,-231 129.5,-231 129.5,-250"/>
<text text-anchor="middle" x="79.5" y="-238" font-family="Helvetica,sans-Serif" font-size="10.00">GenericComponent</text>
</a>
</g>
</g>
<!-- Node3&#45;&gt;Node2 -->
<g id="edge2" class="edge">
<title>Node3&#45;&gt;Node2</title>
<path fill="none" stroke="#63b8ff" d="M79.5,-219.93C79.5,-211.53 79.5,-202.13 79.5,-195.44"/>
<polygon fill="#63b8ff" stroke="#63b8ff" points="76,-219.75 79.5,-229.75 83,-219.75 76,-219.75"/>
</g>
<!-- Node5 -->
<g id="node5" class="node">
<title>Node5</title>
<g id="a_node5"><a xlink:href="interfaceSCR__EditorActionsManagerComponent.html" target="_top" xlink:title=" ">
<polygon fill="white" stroke="#666666" points="148.5,-30 10.5,-30 10.5,0 148.5,0 148.5,-30"/>
<text text-anchor="start" x="18.5" y="-18" font-family="Helvetica,sans-Serif" font-size="10.00">SCR_EditorActionsManager</text>
<text text-anchor="middle" x="79.5" y="-7" font-family="Helvetica,sans-Serif" font-size="10.00">Component</text>
</a>
</g>
</g>
<!-- Node4&#45;&gt;Node5 -->
<g id="edge4" class="edge">
<title>Node4&#45;&gt;Node5</title>
<path fill="none" stroke="#63b8ff" d="M79.5,-55.08C79.5,-46.92 79.5,-37.6 79.5,-30.11"/>
<polygon fill="#63b8ff" stroke="#63b8ff" points="76,-54.87 79.5,-64.87 83,-54.87 76,-54.87"/>
</g>
</g>
</svg>
