<?xml version="1.0" encoding="UTF-8" standalone="no"?>
<!DOCTYPE svg PUBLIC "-//W3C//DTD SVG 1.1//EN"
 "http://www.w3.org/Graphics/SVG/1.1/DTD/svg11.dtd">
<!-- Generated by graphviz version 8.0.2 (20230410.1723)
 -->
<!-- Title: SCR_MenuEditorComponentClass Pages: 1 -->
<svg width="174pt" height="137pt"
 viewBox="0.00 0.00 174.00 137.00" xmlns="http://www.w3.org/2000/svg" xmlns:xlink="http://www.w3.org/1999/xlink">
<g id="graph0" class="graph" transform="scale(1 1) rotate(0) translate(4 133)">
<title>SCR_MenuEditorComponentClass</title>
<!-- Node1 -->
<g id="node1" class="node">
<title>Node1</title>
<g id="a_node1"><a xlink:title=" ">
<polygon fill="#999999" stroke="#666666" points="166,-19 0,-19 0,0 166,0 166,-19"/>
<text text-anchor="middle" x="83" y="-7" font-family="Helvetica,sans-Serif" font-size="10.00">SCR_MenuEditorComponentClass</text>
</a>
</g>
</g>
<!-- Node2 -->
<g id="node2" class="node">
<title>Node2</title>
<g id="a_node2"><a xlink:href="interfaceSCR__BaseEditorComponentClass.html" target="_top" xlink:title=" ">
<polygon fill="white" stroke="#666666" points="165,-74 1,-74 1,-55 165,-55 165,-74"/>
<text text-anchor="middle" x="83" y="-62" font-family="Helvetica,sans-Serif" font-size="10.00">SCR_BaseEditorComponentClass</text>
</a>
</g>
</g>
<!-- Node2&#45;&gt;Node1 -->
<g id="edge1" class="edge">
<title>Node2&#45;&gt;Node1</title>
<path fill="none" stroke="#63b8ff" d="M83,-43.93C83,-35.53 83,-26.13 83,-19.44"/>
<polygon fill="#63b8ff" stroke="#63b8ff" points="79.5,-43.75 83,-53.75 86.5,-43.75 79.5,-43.75"/>
</g>
<!-- Node3 -->
<g id="node3" class="node">
<title>Node3</title>
<g id="a_node3"><a xlink:title=" ">
<polygon fill="white" stroke="#666666" points="141,-129 25,-129 25,-110 141,-110 141,-129"/>
<text text-anchor="middle" x="83" y="-117" font-family="Helvetica,sans-Serif" font-size="10.00">ScriptComponentClass</text>
</a>
</g>
</g>
<!-- Node3&#45;&gt;Node2 -->
<g id="edge2" class="edge">
<title>Node3&#45;&gt;Node2</title>
<path fill="none" stroke="#63b8ff" d="M83,-98.93C83,-90.53 83,-81.13 83,-74.44"/>
<polygon fill="#63b8ff" stroke="#63b8ff" points="79.5,-98.75 83,-108.75 86.5,-98.75 79.5,-98.75"/>
</g>
</g>
</svg>
