<?xml version="1.0" encoding="UTF-8" standalone="no"?>
<!DOCTYPE svg PUBLIC "-//W3C//DTD SVG 1.1//EN"
 "http://www.w3.org/Graphics/SVG/1.1/DTD/svg11.dtd">
<!-- Generated by graphviz version 8.0.2 (20230410.1723)
 -->
<!-- Title: SCR_TurnOnAction Pages: 1 -->
<svg width="109pt" height="247pt"
 viewBox="0.00 0.00 109.00 247.00" xmlns="http://www.w3.org/2000/svg" xmlns:xlink="http://www.w3.org/1999/xlink">
<g id="graph0" class="graph" transform="scale(1 1) rotate(0) translate(4 243)">
<title>SCR_TurnOnAction</title>
<!-- Node1 -->
<g id="node1" class="node">
<title>Node1</title>
<g id="a_node1"><a xlink:title=" ">
<polygon fill="#999999" stroke="#666666" points="101,-19 0,-19 0,0 101,0 101,-19"/>
<text text-anchor="middle" x="50.5" y="-7" font-family="Helvetica,sans-Serif" font-size="10.00">SCR_TurnOnAction</text>
</a>
</g>
</g>
<!-- Node2 -->
<g id="node2" class="node">
<title>Node2</title>
<g id="a_node2"><a xlink:href="interfaceTurnOnUserAction.html" target="_top" xlink:title=" ">
<polygon fill="white" stroke="#666666" points="98.5,-74 2.5,-74 2.5,-55 98.5,-55 98.5,-74"/>
<text text-anchor="middle" x="50.5" y="-62" font-family="Helvetica,sans-Serif" font-size="10.00">TurnOnUserAction</text>
</a>
</g>
</g>
<!-- Node2&#45;&gt;Node1 -->
<g id="edge1" class="edge">
<title>Node2&#45;&gt;Node1</title>
<path fill="none" stroke="#63b8ff" d="M50.5,-43.93C50.5,-35.53 50.5,-26.13 50.5,-19.44"/>
<polygon fill="#63b8ff" stroke="#63b8ff" points="47,-43.75 50.5,-53.75 54,-43.75 47,-43.75"/>
</g>
<!-- Node3 -->
<g id="node3" class="node">
<title>Node3</title>
<g id="a_node3"><a xlink:href="interfaceScriptedUserAction.html" target="_top" xlink:title=" ">
<polygon fill="white" stroke="#666666" points="101,-129 0,-129 0,-110 101,-110 101,-129"/>
<text text-anchor="middle" x="50.5" y="-117" font-family="Helvetica,sans-Serif" font-size="10.00">ScriptedUserAction</text>
</a>
</g>
</g>
<!-- Node3&#45;&gt;Node2 -->
<g id="edge2" class="edge">
<title>Node3&#45;&gt;Node2</title>
<path fill="none" stroke="#63b8ff" d="M50.5,-98.93C50.5,-90.53 50.5,-81.13 50.5,-74.44"/>
<polygon fill="#63b8ff" stroke="#63b8ff" points="47,-98.75 50.5,-108.75 54,-98.75 47,-98.75"/>
</g>
<!-- Node4 -->
<g id="node4" class="node">
<title>Node4</title>
<g id="a_node4"><a xlink:href="interfaceBaseUserAction.html" target="_top" xlink:title=" ">
<polygon fill="white" stroke="#666666" points="94,-184 7,-184 7,-165 94,-165 94,-184"/>
<text text-anchor="middle" x="50.5" y="-172" font-family="Helvetica,sans-Serif" font-size="10.00">BaseUserAction</text>
</a>
</g>
</g>
<!-- Node4&#45;&gt;Node3 -->
<g id="edge3" class="edge">
<title>Node4&#45;&gt;Node3</title>
<path fill="none" stroke="#63b8ff" d="M50.5,-153.93C50.5,-145.53 50.5,-136.13 50.5,-129.44"/>
<polygon fill="#63b8ff" stroke="#63b8ff" points="47,-153.75 50.5,-163.75 54,-153.75 47,-153.75"/>
</g>
<!-- Node5 -->
<g id="node5" class="node">
<title>Node5</title>
<g id="a_node5"><a xlink:title=" ">
<polygon fill="white" stroke="#666666" points="93.5,-239 7.5,-239 7.5,-220 93.5,-220 93.5,-239"/>
<text text-anchor="middle" x="50.5" y="-227" font-family="Helvetica,sans-Serif" font-size="10.00">ScriptAndConfig</text>
</a>
</g>
</g>
<!-- Node5&#45;&gt;Node4 -->
<g id="edge4" class="edge">
<title>Node5&#45;&gt;Node4</title>
<path fill="none" stroke="#63b8ff" d="M50.5,-208.93C50.5,-200.53 50.5,-191.13 50.5,-184.44"/>
<polygon fill="#63b8ff" stroke="#63b8ff" points="47,-208.75 50.5,-218.75 54,-208.75 47,-208.75"/>
</g>
</g>
</svg>
