<?xml version="1.0" encoding="UTF-8" standalone="no"?>
<!DOCTYPE svg PUBLIC "-//W3C//DTD SVG 1.1//EN"
 "http://www.w3.org/Graphics/SVG/1.1/DTD/svg11.dtd">
<!-- Generated by graphviz version 8.0.2 (20230410.1723)
 -->
<!-- Title: SCR_UIInfo Pages: 1 -->
<svg width="1087pt" height="745pt"
 viewBox="0.00 0.00 1087.00 744.50" xmlns="http://www.w3.org/2000/svg" xmlns:xlink="http://www.w3.org/1999/xlink">
<g id="graph0" class="graph" transform="scale(1 1) rotate(0) translate(4 740.5)">
<title>SCR_UIInfo</title>
<!-- Node1 -->
<g id="node1" class="node">
<title>Node1</title>
<g id="a_node1"><a xlink:title="Class used to hold UI information.">
<polygon fill="#999999" stroke="#666666" points="315,-411 249,-411 249,-392 315,-392 315,-411"/>
<text text-anchor="middle" x="282" y="-399" font-family="Helvetica,sans-Serif" font-size="10.00">SCR_UIInfo</text>
</a>
</g>
</g>
<!-- Node4 -->
<g id="node4" class="node">
<title>Node4</title>
<g id="a_node4"><a xlink:href="interfaceSCR__AIGroupUIInfo.html" target="_top" xlink:title=" ">
<polygon fill="white" stroke="#666666" points="469.5,-707 368.5,-707 368.5,-688 469.5,-688 469.5,-707"/>
<text text-anchor="middle" x="419" y="-695" font-family="Helvetica,sans-Serif" font-size="10.00">SCR_AIGroupUIInfo</text>
</a>
</g>
</g>
<!-- Node1&#45;&gt;Node4 -->
<g id="edge3" class="edge">
<title>Node1&#45;&gt;Node4</title>
<path fill="none" stroke="#63b8ff" d="M285.31,-421.92C292.22,-479.66 314.6,-642.27 351,-679.5 355.8,-684.41 361.78,-688.02 368.19,-690.68"/>
<polygon fill="#63b8ff" stroke="#63b8ff" points="288.7,-421.81 284.06,-412.28 281.75,-422.62 288.7,-421.81"/>
</g>
<!-- Node5 -->
<g id="node5" class="node">
<title>Node5</title>
<g id="a_node5"><a xlink:href="interfaceSCR__BlockUIInfo.html" target="_top" xlink:title=" ">
<polygon fill="white" stroke="#666666" points="464.5,-670 373.5,-670 373.5,-651 464.5,-651 464.5,-670"/>
<text text-anchor="middle" x="419" y="-658" font-family="Helvetica,sans-Serif" font-size="10.00">SCR_BlockUIInfo</text>
</a>
</g>
</g>
<!-- Node1&#45;&gt;Node5 -->
<g id="edge4" class="edge">
<title>Node1&#45;&gt;Node5</title>
<path fill="none" stroke="#63b8ff" d="M282.46,-422.2C282.42,-468.54 289.1,-581.37 351,-642.5 357.08,-648.51 364.95,-652.57 373.14,-655.3"/>
<polygon fill="#63b8ff" stroke="#63b8ff" points="285.97,-422.5 282.59,-412.45 278.97,-422.41 285.97,-422.5"/>
</g>
<!-- Node8 -->
<g id="node8" class="node">
<title>Node8</title>
<g id="a_node8"><a xlink:href="interfaceSCR__BudgetUIInfo.html" target="_top" xlink:title=" ">
<polygon fill="white" stroke="#666666" points="467.5,-633 370.5,-633 370.5,-614 467.5,-614 467.5,-633"/>
<text text-anchor="middle" x="419" y="-621" font-family="Helvetica,sans-Serif" font-size="10.00">SCR_BudgetUIInfo</text>
</a>
</g>
</g>
<!-- Node1&#45;&gt;Node8 -->
<g id="edge7" class="edge">
<title>Node1&#45;&gt;Node8</title>
<path fill="none" stroke="#63b8ff" d="M283.71,-422.06C286.27,-463.09 297.95,-555.5 351,-605.5 356.43,-610.62 363.17,-614.32 370.25,-616.98"/>
<polygon fill="#63b8ff" stroke="#63b8ff" points="287.17,-422.1 283.18,-412.29 280.17,-422.45 287.17,-422.1"/>
</g>
<!-- Node9 -->
<g id="node9" class="node">
<title>Node9</title>
<g id="a_node9"><a xlink:href="interfaceSCR__ColorUIInfo.html" target="_top" xlink:title=" ">
<polygon fill="white" stroke="#666666" points="463.5,-596 374.5,-596 374.5,-577 463.5,-577 463.5,-596"/>
<text text-anchor="middle" x="419" y="-584" font-family="Helvetica,sans-Serif" font-size="10.00">SCR_ColorUIInfo</text>
</a>
</g>
</g>
<!-- Node1&#45;&gt;Node9 -->
<g id="edge8" class="edge">
<title>Node1&#45;&gt;Node9</title>
<path fill="none" stroke="#63b8ff" d="M285.62,-422.24C291.16,-457.36 307.37,-528.52 351,-567.5 357.58,-573.38 365.86,-577.45 374.33,-580.27"/>
<polygon fill="#63b8ff" stroke="#63b8ff" points="288.95,-421.84 284.07,-412.43 282.02,-422.83 288.95,-421.84"/>
</g>
<!-- Node18 -->
<g id="node18" class="node">
<title>Node18</title>
<g id="a_node18"><a xlink:href="interfaceSCR__DamageStateUIInfo.html" target="_top" xlink:title=" ">
<polygon fill="white" stroke="#666666" points="481.5,-559 356.5,-559 356.5,-540 481.5,-540 481.5,-559"/>
<text text-anchor="middle" x="419" y="-547" font-family="Helvetica,sans-Serif" font-size="10.00">SCR_DamageStateUIInfo</text>
</a>
</g>
</g>
<!-- Node1&#45;&gt;Node18 -->
<g id="edge17" class="edge">
<title>Node1&#45;&gt;Node18</title>
<path fill="none" stroke="#63b8ff" d="M288.16,-421.61C296.51,-450.1 315.73,-501.92 351,-530.5 355.6,-534.23 360.9,-537.23 366.45,-539.64"/>
<polygon fill="#63b8ff" stroke="#63b8ff" points="291.34,-420.99 285.31,-412.28 284.59,-422.85 291.34,-420.99"/>
</g>
<!-- Node19 -->
<g id="node19" class="node">
<title>Node19</title>
<g id="a_node19"><a xlink:href="interfaceSCR__EditableEntityUIInfo.html" target="_top" xlink:title=" ">
<polygon fill="white" stroke="#666666" points="482.5,-522 355.5,-522 355.5,-503 482.5,-503 482.5,-522"/>
<text text-anchor="middle" x="419" y="-510" font-family="Helvetica,sans-Serif" font-size="10.00">SCR_EditableEntityUIInfo</text>
</a>
</g>
</g>
<!-- Node1&#45;&gt;Node19 -->
<g id="edge18" class="edge">
<title>Node1&#45;&gt;Node19</title>
<path fill="none" stroke="#63b8ff" d="M292.41,-420.96C303.54,-441.94 324.02,-474.83 351,-493.5 356.37,-497.22 362.45,-500.21 368.71,-502.62"/>
<polygon fill="#63b8ff" stroke="#63b8ff" points="295.11,-419.55 287.46,-412.22 288.87,-422.72 295.11,-419.55"/>
</g>
<!-- Node25 -->
<g id="node25" class="node">
<title>Node25</title>
<g id="a_node25"><a xlink:href="interfaceSCR__EditorAttributeUIInfo.html" target="_top" xlink:title="UIInfo used by editor attribute system.">
<polygon fill="white" stroke="#666666" points="483,-485 355,-485 355,-466 483,-466 483,-485"/>
<text text-anchor="middle" x="419" y="-473" font-family="Helvetica,sans-Serif" font-size="10.00">SCR_EditorAttributeUIInfo</text>
</a>
</g>
</g>
<!-- Node1&#45;&gt;Node25 -->
<g id="edge24" class="edge">
<title>Node1&#45;&gt;Node25</title>
<path fill="none" stroke="#63b8ff" d="M300.31,-418.84C313.27,-430.94 331.98,-446.64 351,-456.5 357.98,-460.12 365.73,-463.12 373.42,-465.59"/>
<polygon fill="#63b8ff" stroke="#63b8ff" points="303.31,-416.9 293.67,-412.5 298.45,-421.95 303.31,-416.9"/>
</g>
<!-- Node26 -->
<g id="node26" class="node">
<title>Node26</title>
<g id="a_node26"><a xlink:href="interfaceSCR__EditorModeUIInfo.html" target="_top" xlink:title=" ">
<polygon fill="white" stroke="#666666" points="477,-448 361,-448 361,-429 477,-429 477,-448"/>
<text text-anchor="middle" x="419" y="-436" font-family="Helvetica,sans-Serif" font-size="10.00">SCR_EditorModeUIInfo</text>
</a>
</g>
</g>
<!-- Node1&#45;&gt;Node26 -->
<g id="edge25" class="edge">
<title>Node1&#45;&gt;Node26</title>
<path fill="none" stroke="#63b8ff" d="M325.83,-413.24C343.79,-418.16 364.44,-423.82 381.64,-428.54"/>
<polygon fill="#63b8ff" stroke="#63b8ff" points="326.91,-409.63 316.34,-410.36 325.06,-416.38 326.91,-409.63"/>
</g>
<!-- Node27 -->
<g id="node27" class="node">
<title>Node27</title>
<g id="a_node27"><a xlink:href="interfaceSCR__InputActionUIInfo.html" target="_top" xlink:title=" ">
<polygon fill="white" stroke="#666666" points="476.5,-411 361.5,-411 361.5,-392 476.5,-392 476.5,-411"/>
<text text-anchor="middle" x="419" y="-399" font-family="Helvetica,sans-Serif" font-size="10.00">SCR_InputActionUIInfo</text>
</a>
</g>
</g>
<!-- Node1&#45;&gt;Node27 -->
<g id="edge26" class="edge">
<title>Node1&#45;&gt;Node27</title>
<path fill="none" stroke="#63b8ff" d="M326.08,-401.5C337.23,-401.5 349.4,-401.5 361.13,-401.5"/>
<polygon fill="#63b8ff" stroke="#63b8ff" points="326.34,-398 316.34,-401.5 326.34,-405 326.34,-398"/>
</g>
<!-- Node28 -->
<g id="node28" class="node">
<title>Node28</title>
<g id="a_node28"><a xlink:href="interfaceSCR__MoonPhaseUIInfo.html" target="_top" xlink:title=" ">
<polygon fill="white" stroke="#666666" points="478,-374 360,-374 360,-355 478,-355 478,-374"/>
<text text-anchor="middle" x="419" y="-362" font-family="Helvetica,sans-Serif" font-size="10.00">SCR_MoonPhaseUIInfo</text>
</a>
</g>
</g>
<!-- Node1&#45;&gt;Node28 -->
<g id="edge27" class="edge">
<title>Node1&#45;&gt;Node28</title>
<path fill="none" stroke="#63b8ff" d="M325.82,-389.47C334.17,-387.14 342.85,-384.73 351,-382.5 360.64,-379.86 371.07,-377.04 380.77,-374.43"/>
<polygon fill="#63b8ff" stroke="#63b8ff" points="325.18,-386.29 316.49,-392.35 327.07,-393.03 325.18,-386.29"/>
</g>
<!-- Node29 -->
<g id="node29" class="node">
<title>Node29</title>
<g id="a_node29"><a xlink:href="interfaceSCR__OverridableUIInfo.html" target="_top" xlink:title="UI info class with setter functions.">
<polygon fill="white" stroke="#666666" points="476,-337 362,-337 362,-318 476,-318 476,-337"/>
<text text-anchor="middle" x="419" y="-325" font-family="Helvetica,sans-Serif" font-size="10.00">SCR_OverridableUIInfo</text>
</a>
</g>
</g>
<!-- Node1&#45;&gt;Node29 -->
<g id="edge28" class="edge">
<title>Node1&#45;&gt;Node29</title>
<path fill="none" stroke="#63b8ff" d="M299.76,-384.18C312.69,-371.75 331.59,-355.5 351,-345.5 357.21,-342.3 364.05,-339.63 370.9,-337.41"/>
<polygon fill="#63b8ff" stroke="#63b8ff" points="297.82,-381.17 293.18,-390.69 302.75,-386.14 297.82,-381.17"/>
</g>
<!-- Node30 -->
<g id="node30" class="node">
<title>Node30</title>
<g id="a_node30"><a xlink:href="interfaceSCR__PlayerUIInfo.html" target="_top" xlink:title=" ">
<polygon fill="white" stroke="#666666" points="466,-300 372,-300 372,-281 466,-281 466,-300"/>
<text text-anchor="middle" x="419" y="-288" font-family="Helvetica,sans-Serif" font-size="10.00">SCR_PlayerUIInfo</text>
</a>
</g>
</g>
<!-- Node1&#45;&gt;Node30 -->
<g id="edge29" class="edge">
<title>Node1&#45;&gt;Node30</title>
<path fill="none" stroke="#63b8ff" d="M292.16,-382.04C303.16,-360.79 323.62,-327.27 351,-308.5 357.26,-304.21 364.49,-300.94 371.85,-298.45"/>
<polygon fill="#63b8ff" stroke="#63b8ff" points="288.71,-380.12 287.4,-390.64 294.98,-383.23 288.71,-380.12"/>
</g>
<!-- Node31 -->
<g id="node31" class="node">
<title>Node31</title>
<g id="a_node31"><a xlink:href="interfaceSCR__SelectionMenuEntry.html" target="_top" xlink:title="Scripted selection menu entry based on UI info for storing data into SCR_SelectionMenu.">
<polygon fill="white" stroke="#666666" points="484,-263 354,-263 354,-244 484,-244 484,-263"/>
<text text-anchor="middle" x="419" y="-251" font-family="Helvetica,sans-Serif" font-size="10.00">SCR_SelectionMenuEntry</text>
</a>
</g>
</g>
<!-- Node1&#45;&gt;Node31 -->
<g id="edge30" class="edge">
<title>Node1&#45;&gt;Node31</title>
<path fill="none" stroke="#63b8ff" d="M288.06,-381.17C296.29,-352.38 315.37,-300.06 351,-271.5 355.04,-268.26 359.62,-265.6 364.43,-263.42"/>
<polygon fill="#63b8ff" stroke="#63b8ff" points="284.47,-380.04 285.26,-390.61 291.23,-381.86 284.47,-380.04"/>
</g>
<!-- Node42 -->
<g id="node42" class="node">
<title>Node42</title>
<g id="a_node42"><a xlink:href="interfaceSCR__SimpleMessageUIInfo.html" target="_top" xlink:title=" ">
<polygon fill="white" stroke="#666666" points="487,-226 351,-226 351,-207 487,-207 487,-226"/>
<text text-anchor="middle" x="419" y="-214" font-family="Helvetica,sans-Serif" font-size="10.00">SCR_SimpleMessageUIInfo</text>
</a>
</g>
</g>
<!-- Node1&#45;&gt;Node42 -->
<g id="edge41" class="edge">
<title>Node1&#45;&gt;Node42</title>
<path fill="none" stroke="#63b8ff" d="M285.44,-381.08C290.76,-345.83 306.71,-273.61 351,-234.5 354.7,-231.23 358.94,-228.55 363.44,-226.35"/>
<polygon fill="#63b8ff" stroke="#63b8ff" points="281.85,-380.51 283.97,-390.89 288.79,-381.45 281.85,-380.51"/>
</g>
<!-- Node43 -->
<g id="node43" class="node">
<title>Node43</title>
<g id="a_node43"><a xlink:href="interfaceSCR__UINotificationInfo.html" target="_top" xlink:title="UIInfo used by the Notifications system.">
<polygon fill="white" stroke="#666666" points="476,-189 362,-189 362,-170 476,-170 476,-189"/>
<text text-anchor="middle" x="419" y="-177" font-family="Helvetica,sans-Serif" font-size="10.00">SCR_UINotificationInfo</text>
</a>
</g>
</g>
<!-- Node1&#45;&gt;Node43 -->
<g id="edge42" class="edge">
<title>Node1&#45;&gt;Node43</title>
<path fill="none" stroke="#63b8ff" d="M283.71,-380.94C286.27,-339.91 297.95,-247.5 351,-197.5 354.42,-194.28 358.35,-191.62 362.56,-189.43"/>
<polygon fill="#63b8ff" stroke="#63b8ff" points="280.17,-380.55 283.18,-390.71 287.17,-380.9 280.17,-380.55"/>
</g>
<!-- Node46 -->
<g id="node46" class="node">
<title>Node46</title>
<g id="a_node46"><a xlink:href="interfaceSCR__VotingUIInfo.html" target="_top" xlink:title=" ">
<polygon fill="white" stroke="#666666" points="466,-152 372,-152 372,-133 466,-133 466,-152"/>
<text text-anchor="middle" x="419" y="-140" font-family="Helvetica,sans-Serif" font-size="10.00">SCR_VotingUIInfo</text>
</a>
</g>
</g>
<!-- Node1&#45;&gt;Node46 -->
<g id="edge45" class="edge">
<title>Node1&#45;&gt;Node46</title>
<path fill="none" stroke="#63b8ff" d="M282.46,-380.8C282.42,-334.46 289.1,-221.63 351,-160.5 356.74,-154.83 364.07,-150.89 371.75,-148.17"/>
<polygon fill="#63b8ff" stroke="#63b8ff" points="278.97,-380.59 282.59,-390.55 285.97,-380.5 278.97,-380.59"/>
</g>
<!-- Node47 -->
<g id="node47" class="node">
<title>Node47</title>
<g id="a_node47"><a xlink:href="interfaceUIInfoAssetCard.html" target="_top" xlink:title=" ">
<polygon fill="white" stroke="#666666" points="462,-115 376,-115 376,-96 462,-96 462,-115"/>
<text text-anchor="middle" x="419" y="-103" font-family="Helvetica,sans-Serif" font-size="10.00">UIInfoAssetCard</text>
</a>
</g>
</g>
<!-- Node1&#45;&gt;Node47 -->
<g id="edge46" class="edge">
<title>Node1&#45;&gt;Node47</title>
<path fill="none" stroke="#63b8ff" d="M285.31,-381.08C292.22,-323.34 314.6,-160.73 351,-123.5 357.65,-116.7 366.58,-112.38 375.74,-109.66"/>
<polygon fill="#63b8ff" stroke="#63b8ff" points="281.75,-380.38 284.06,-390.72 288.7,-381.19 281.75,-380.38"/>
</g>
<!-- Node2 -->
<g id="node2" class="node">
<title>Node2</title>
<g id="a_node2"><a xlink:href="interfaceSCR__UIDescription.html" target="_top" xlink:title="Class used to hold UI name and description.">
<polygon fill="white" stroke="#666666" points="213,-411 113,-411 113,-392 213,-392 213,-411"/>
<text text-anchor="middle" x="163" y="-399" font-family="Helvetica,sans-Serif" font-size="10.00">SCR_UIDescription</text>
</a>
</g>
</g>
<!-- Node2&#45;&gt;Node1 -->
<g id="edge1" class="edge">
<title>Node2&#45;&gt;Node1</title>
<path fill="none" stroke="#63b8ff" d="M224.04,-401.5C232.57,-401.5 241.05,-401.5 248.76,-401.5"/>
<polygon fill="#63b8ff" stroke="#63b8ff" points="224.28,-398 214.28,-401.5 224.28,-405 224.28,-398"/>
</g>
<!-- Node3 -->
<g id="node3" class="node">
<title>Node3</title>
<g id="a_node3"><a xlink:href="interfaceSCR__UIName.html" target="_top" xlink:title="Class used to hold UI name.">
<polygon fill="white" stroke="#666666" points="77,-411 0,-411 0,-392 77,-392 77,-411"/>
<text text-anchor="middle" x="38.5" y="-399" font-family="Helvetica,sans-Serif" font-size="10.00">SCR_UIName</text>
</a>
</g>
</g>
<!-- Node3&#45;&gt;Node2 -->
<g id="edge2" class="edge">
<title>Node3&#45;&gt;Node2</title>
<path fill="none" stroke="#63b8ff" d="M88.11,-401.5C96.25,-401.5 104.7,-401.5 112.86,-401.5"/>
<polygon fill="#63b8ff" stroke="#63b8ff" points="88.25,-398 78.25,-401.5 88.25,-405 88.25,-398"/>
</g>
<!-- Node6 -->
<g id="node6" class="node">
<title>Node6</title>
<g id="a_node6"><a xlink:href="interfaceSCR__FormatUIInfo.html" target="_top" xlink:title=" ">
<polygon fill="white" stroke="#666666" points="658.5,-707 561.5,-707 561.5,-688 658.5,-688 658.5,-707"/>
<text text-anchor="middle" x="610" y="-695" font-family="Helvetica,sans-Serif" font-size="10.00">SCR_FormatUIInfo</text>
</a>
</g>
</g>
<!-- Node5&#45;&gt;Node6 -->
<g id="edge5" class="edge">
<title>Node5&#45;&gt;Node6</title>
<path fill="none" stroke="#63b8ff" d="M475.33,-671.33C502.57,-676.66 535.09,-683.03 561.23,-688.15"/>
<polygon fill="#63b8ff" stroke="#63b8ff" points="476.28,-667.75 465.79,-669.27 474.93,-674.62 476.28,-667.75"/>
</g>
<!-- Node7 -->
<g id="node7" class="node">
<title>Node7</title>
<g id="a_node7"><a xlink:href="interfaceSCR__HintUIInfo.html" target="_top" xlink:title=" ">
<polygon fill="white" stroke="#666666" points="651.5,-670 568.5,-670 568.5,-651 651.5,-651 651.5,-670"/>
<text text-anchor="middle" x="610" y="-658" font-family="Helvetica,sans-Serif" font-size="10.00">SCR_HintUIInfo</text>
</a>
</g>
</g>
<!-- Node5&#45;&gt;Node7 -->
<g id="edge6" class="edge">
<title>Node5&#45;&gt;Node7</title>
<path fill="none" stroke="#63b8ff" d="M475.41,-660.5C505.07,-660.5 540.97,-660.5 568.08,-660.5"/>
<polygon fill="#63b8ff" stroke="#63b8ff" points="475.79,-657 465.79,-660.5 475.79,-664 475.79,-657"/>
</g>
<!-- Node10 -->
<g id="node10" class="node">
<title>Node10</title>
<g id="a_node10"><a xlink:href="interfaceSCR__InventoryItemHintUIInfo.html" target="_top" xlink:title=" ">
<polygon fill="white" stroke="#666666" points="680,-633 540,-633 540,-614 680,-614 680,-633"/>
<text text-anchor="middle" x="610" y="-621" font-family="Helvetica,sans-Serif" font-size="10.00">SCR_InventoryItemHintUIInfo</text>
</a>
</g>
</g>
<!-- Node9&#45;&gt;Node10 -->
<g id="edge9" class="edge">
<title>Node9&#45;&gt;Node10</title>
<path fill="none" stroke="#63b8ff" d="M474.4,-597.15C500.74,-602.31 532.17,-608.46 558.04,-613.52"/>
<polygon fill="#63b8ff" stroke="#63b8ff" points="475.32,-593.57 464.84,-595.08 473.98,-600.44 475.32,-593.57"/>
</g>
<!-- Node11 -->
<g id="node11" class="node">
<title>Node11</title>
<g id="a_node11"><a xlink:href="interfaceSCR__BaseSupplyItemHintUIInfo.html" target="_top" xlink:title=" ">
<polygon fill="white" stroke="#666666" points="888,-688 733,-688 733,-669 888,-669 888,-688"/>
<text text-anchor="middle" x="810.5" y="-676" font-family="Helvetica,sans-Serif" font-size="10.00">SCR_BaseSupplyItemHintUIInfo</text>
</a>
</g>
</g>
<!-- Node10&#45;&gt;Node11 -->
<g id="edge10" class="edge">
<title>Node10&#45;&gt;Node11</title>
<path fill="none" stroke="#63b8ff" d="M676.12,-636.09C683.24,-638 690.32,-640.13 697,-642.5 713.86,-648.47 716.18,-654.41 733,-660.5 741.47,-663.57 750.65,-666.25 759.62,-668.54"/>
<polygon fill="#63b8ff" stroke="#63b8ff" points="677.26,-632.52 666.71,-633.46 675.54,-639.31 677.26,-632.52"/>
</g>
<!-- Node15 -->
<g id="node15" class="node">
<title>Node15</title>
<g id="a_node15"><a xlink:href="interfaceSCR__FuelItemHintsUIInfo.html" target="_top" xlink:title=" ">
<polygon fill="white" stroke="#666666" points="873.5,-651 747.5,-651 747.5,-632 873.5,-632 873.5,-651"/>
<text text-anchor="middle" x="810.5" y="-639" font-family="Helvetica,sans-Serif" font-size="10.00">SCR_FuelItemHintsUIInfo</text>
</a>
</g>
</g>
<!-- Node10&#45;&gt;Node15 -->
<g id="edge14" class="edge">
<title>Node10&#45;&gt;Node15</title>
<path fill="none" stroke="#63b8ff" d="M691.25,-630.78C709.85,-632.46 729.37,-634.23 747.08,-635.84"/>
<polygon fill="#63b8ff" stroke="#63b8ff" points="691.7,-627.21 681.43,-629.8 691.07,-634.18 691.7,-627.21"/>
</g>
<!-- Node16 -->
<g id="node16" class="node">
<title>Node16</title>
<g id="a_node16"><a xlink:href="interfaceSCR__SupplyCostItemHintUIInfo.html" target="_top" xlink:title=" ">
<polygon fill="white" stroke="#666666" points="886.5,-614 734.5,-614 734.5,-595 886.5,-595 886.5,-614"/>
<text text-anchor="middle" x="810.5" y="-602" font-family="Helvetica,sans-Serif" font-size="10.00">SCR_SupplyCostItemHintUIInfo</text>
</a>
</g>
</g>
<!-- Node10&#45;&gt;Node16 -->
<g id="edge15" class="edge">
<title>Node10&#45;&gt;Node16</title>
<path fill="none" stroke="#63b8ff" d="M691.13,-615.83C705.29,-614.47 720,-613.07 734.03,-611.72"/>
<polygon fill="#63b8ff" stroke="#63b8ff" points="691.05,-612.42 681.43,-616.85 691.71,-619.39 691.05,-612.42"/>
</g>
<!-- Node17 -->
<g id="node17" class="node">
<title>Node17</title>
<g id="a_node17"><a xlink:href="interfaceSCR__SupplyRefundItemHintUIInfo.html" target="_top" xlink:title=" ">
<polygon fill="white" stroke="#666666" points="879.5,-576.5 741.5,-576.5 741.5,-546.5 879.5,-546.5 879.5,-576.5"/>
<text text-anchor="start" x="749.5" y="-564.5" font-family="Helvetica,sans-Serif" font-size="10.00">SCR_SupplyRefundItemHint</text>
<text text-anchor="middle" x="810.5" y="-553.5" font-family="Helvetica,sans-Serif" font-size="10.00">UIInfo</text>
</a>
</g>
</g>
<!-- Node10&#45;&gt;Node17 -->
<g id="edge16" class="edge">
<title>Node10&#45;&gt;Node17</title>
<path fill="none" stroke="#63b8ff" d="M681,-610.71C686.47,-609.15 691.86,-607.42 697,-605.5 714.15,-599.11 716.18,-592.72 733,-585.5 740.16,-582.42 747.85,-579.55 755.5,-576.93"/>
<polygon fill="#63b8ff" stroke="#63b8ff" points="680.19,-607.57 671.42,-613.51 681.98,-614.33 680.19,-607.57"/>
</g>
<!-- Node12 -->
<g id="node12" class="node">
<title>Node12</title>
<g id="a_node12"><a xlink:href="interfaceSCR__SupplyAvailableItemHintUIInfo.html" target="_top" xlink:title=" ">
<polygon fill="white" stroke="#666666" points="1074.5,-736.5 928.5,-736.5 928.5,-706.5 1074.5,-706.5 1074.5,-736.5"/>
<text text-anchor="start" x="936.5" y="-724.5" font-family="Helvetica,sans-Serif" font-size="10.00">SCR_SupplyAvailableItemHint</text>
<text text-anchor="middle" x="1001.5" y="-713.5" font-family="Helvetica,sans-Serif" font-size="10.00">UIInfo</text>
</a>
</g>
</g>
<!-- Node11&#45;&gt;Node12 -->
<g id="edge11" class="edge">
<title>Node11&#45;&gt;Node12</title>
<path fill="none" stroke="#63b8ff" d="M865.88,-690.87C886.64,-695.6 910.59,-701.04 932.47,-706.02"/>
<polygon fill="#63b8ff" stroke="#63b8ff" points="866.86,-687.28 856.34,-688.47 865.31,-694.1 866.86,-687.28"/>
</g>
<!-- Node13 -->
<g id="node13" class="node">
<title>Node13</title>
<g id="a_node13"><a xlink:href="interfaceSCR__SupplyMoveItemHintUIInfo.html" target="_top" xlink:title=" ">
<polygon fill="white" stroke="#666666" points="1079,-688 924,-688 924,-669 1079,-669 1079,-688"/>
<text text-anchor="middle" x="1001.5" y="-676" font-family="Helvetica,sans-Serif" font-size="10.00">SCR_SupplyMoveItemHintUIInfo</text>
</a>
</g>
</g>
<!-- Node11&#45;&gt;Node13 -->
<g id="edge12" class="edge">
<title>Node11&#45;&gt;Node13</title>
<path fill="none" stroke="#63b8ff" d="M899.11,-678.5C907.32,-678.5 915.59,-678.5 923.69,-678.5"/>
<polygon fill="#63b8ff" stroke="#63b8ff" points="899.37,-675 889.37,-678.5 899.37,-682 899.37,-675"/>
</g>
<!-- Node14 -->
<g id="node14" class="node">
<title>Node14</title>
<g id="a_node14"><a xlink:href="interfaceSCR__SupplyStoredItemHintUIInfo.html" target="_top" xlink:title=" ">
<polygon fill="white" stroke="#666666" points="1070,-650.5 933,-650.5 933,-620.5 1070,-620.5 1070,-650.5"/>
<text text-anchor="start" x="941" y="-638.5" font-family="Helvetica,sans-Serif" font-size="10.00">SCR_SupplyStoredItemHint</text>
<text text-anchor="middle" x="1001.5" y="-627.5" font-family="Helvetica,sans-Serif" font-size="10.00">UIInfo</text>
</a>
</g>
</g>
<!-- Node11&#45;&gt;Node14 -->
<g id="edge13" class="edge">
<title>Node11&#45;&gt;Node14</title>
<path fill="none" stroke="#63b8ff" d="M865.93,-666.12C886.8,-661.37 910.87,-655.89 932.83,-650.89"/>
<polygon fill="#63b8ff" stroke="#63b8ff" points="865.31,-662.9 856.34,-668.53 866.86,-669.72 865.31,-662.9"/>
</g>
<!-- Node20 -->
<g id="node20" class="node">
<title>Node20</title>
<g id="a_node20"><a xlink:href="interfaceSCR__EditableCommentUIInfo.html" target="_top" xlink:title=" ">
<polygon fill="white" stroke="#666666" points="681.5,-596 538.5,-596 538.5,-577 681.5,-577 681.5,-596"/>
<text text-anchor="middle" x="610" y="-584" font-family="Helvetica,sans-Serif" font-size="10.00">SCR_EditableCommentUIInfo</text>
</a>
</g>
</g>
<!-- Node19&#45;&gt;Node20 -->
<g id="edge19" class="edge">
<title>Node19&#45;&gt;Node20</title>
<path fill="none" stroke="#63b8ff" d="M479.2,-526.45C481.89,-527.69 484.51,-529.04 487,-530.5 506.79,-542.11 502.96,-556.33 523,-567.5 529.68,-571.22 537.03,-574.21 544.53,-576.62"/>
<polygon fill="#63b8ff" stroke="#63b8ff" points="480.77,-522.91 470.19,-522.41 478.15,-529.4 480.77,-522.91"/>
</g>
<!-- Node21 -->
<g id="node21" class="node">
<title>Node21</title>
<g id="a_node21"><a xlink:href="interfaceSCR__EditableDescriptorUIInfo.html" target="_top" xlink:title=" ">
<polygon fill="white" stroke="#666666" points="683,-559 537,-559 537,-540 683,-540 683,-559"/>
<text text-anchor="middle" x="610" y="-547" font-family="Helvetica,sans-Serif" font-size="10.00">SCR_EditableDescriptorUIInfo</text>
</a>
</g>
</g>
<!-- Node19&#45;&gt;Node21 -->
<g id="edge20" class="edge">
<title>Node19&#45;&gt;Node21</title>
<path fill="none" stroke="#63b8ff" d="M481.42,-524.52C506.25,-529.38 534.57,-534.93 558.21,-539.56"/>
<polygon fill="#63b8ff" stroke="#63b8ff" points="482.13,-520.9 471.65,-522.42 480.79,-527.77 482.13,-520.9"/>
</g>
<!-- Node22 -->
<g id="node22" class="node">
<title>Node22</title>
<g id="a_node22"><a xlink:href="interfaceSCR__EditableGroupUIInfo.html" target="_top" xlink:title=" ">
<polygon fill="white" stroke="#666666" points="674,-522 546,-522 546,-503 674,-503 674,-522"/>
<text text-anchor="middle" x="610" y="-510" font-family="Helvetica,sans-Serif" font-size="10.00">SCR_EditableGroupUIInfo</text>
</a>
</g>
</g>
<!-- Node19&#45;&gt;Node22 -->
<g id="edge21" class="edge">
<title>Node19&#45;&gt;Node22</title>
<path fill="none" stroke="#63b8ff" d="M493.51,-512.5C510.75,-512.5 528.96,-512.5 545.7,-512.5"/>
<polygon fill="#63b8ff" stroke="#63b8ff" points="493.93,-509 483.93,-512.5 493.93,-516 493.93,-509"/>
</g>
<!-- Node23 -->
<g id="node23" class="node">
<title>Node23</title>
<g id="a_node23"><a xlink:href="interfaceSCR__EditableLinkedContentBrowserUIInfo.html" target="_top" xlink:title=" ">
<polygon fill="white" stroke="#666666" points="680,-484.5 540,-484.5 540,-454.5 680,-454.5 680,-484.5"/>
<text text-anchor="start" x="548" y="-472.5" font-family="Helvetica,sans-Serif" font-size="10.00">SCR_EditableLinkedContent</text>
<text text-anchor="middle" x="610" y="-461.5" font-family="Helvetica,sans-Serif" font-size="10.00">BrowserUIInfo</text>
</a>
</g>
</g>
<!-- Node19&#45;&gt;Node23 -->
<g id="edge22" class="edge">
<title>Node19&#45;&gt;Node23</title>
<path fill="none" stroke="#63b8ff" d="M474.38,-500.13C495.14,-495.4 519.09,-489.96 540.97,-484.98"/>
<polygon fill="#63b8ff" stroke="#63b8ff" points="473.81,-496.9 464.84,-502.53 475.36,-503.72 473.81,-496.9"/>
</g>
<!-- Node24 -->
<g id="node24" class="node">
<title>Node24</title>
<g id="a_node24"><a xlink:href="interfaceSCR__EditableVehicleUIInfo.html" target="_top" xlink:title=" ">
<polygon fill="white" stroke="#666666" points="677,-436 543,-436 543,-417 677,-417 677,-436"/>
<text text-anchor="middle" x="610" y="-424" font-family="Helvetica,sans-Serif" font-size="10.00">SCR_EditableVehicleUIInfo</text>
</a>
</g>
</g>
<!-- Node19&#45;&gt;Node24 -->
<g id="edge23" class="edge">
<title>Node19&#45;&gt;Node24</title>
<path fill="none" stroke="#63b8ff" d="M479.3,-498.1C481.98,-496.7 484.56,-495.17 487,-493.5 508.98,-478.4 500.58,-459.94 523,-445.5 529.04,-441.61 535.76,-438.5 542.71,-436.03"/>
<polygon fill="#63b8ff" stroke="#63b8ff" points="477.96,-495.31 470.26,-502.58 480.82,-501.7 477.96,-495.31"/>
</g>
<!-- Node32 -->
<g id="node32" class="node">
<title>Node32</title>
<g id="a_node32"><a xlink:href="interfaceSCR__EditorActionSelectionMenuEntry.html" target="_top" xlink:title="A wrapper class utilized by SCR_ActionsRadialMenuEditorComponent for creating a specialized Entry (SC...">
<polygon fill="white" stroke="#666666" points="678,-398.5 542,-398.5 542,-368.5 678,-368.5 678,-398.5"/>
<text text-anchor="start" x="550" y="-386.5" font-family="Helvetica,sans-Serif" font-size="10.00">SCR_EditorActionSelection</text>
<text text-anchor="middle" x="610" y="-375.5" font-family="Helvetica,sans-Serif" font-size="10.00">MenuEntry</text>
</a>
</g>
</g>
<!-- Node31&#45;&gt;Node32 -->
<g id="edge31" class="edge">
<title>Node31&#45;&gt;Node32</title>
<path fill="none" stroke="#63b8ff" d="M483.75,-268.89C484.87,-269.71 485.96,-270.58 487,-271.5 518.45,-299.11 491.84,-330.57 523,-358.5 528.44,-363.38 534.79,-367.31 541.51,-370.47"/>
<polygon fill="#63b8ff" stroke="#63b8ff" points="485.92,-265.51 475.54,-263.37 482.32,-271.51 485.92,-265.51"/>
</g>
<!-- Node33 -->
<g id="node33" class="node">
<title>Node33</title>
<g id="a_node33"><a xlink:href="interfaceSCR__ItemSelectionMenuEntry.html" target="_top" xlink:title=" ">
<polygon fill="white" stroke="#666666" points="684.5,-350 535.5,-350 535.5,-331 684.5,-331 684.5,-350"/>
<text text-anchor="middle" x="610" y="-338" font-family="Helvetica,sans-Serif" font-size="10.00">SCR_ItemSelectionMenuEntry</text>
</a>
</g>
</g>
<!-- Node31&#45;&gt;Node33 -->
<g id="edge32" class="edge">
<title>Node31&#45;&gt;Node33</title>
<path fill="none" stroke="#63b8ff" d="M481.55,-268.12C483.43,-269.17 485.25,-270.29 487,-271.5 509.53,-287.07 500.13,-306.45 523,-321.5 528.62,-325.2 534.85,-328.19 541.31,-330.6"/>
<polygon fill="#63b8ff" stroke="#63b8ff" points="483.28,-264.59 472.74,-263.47 480.28,-270.91 483.28,-264.59"/>
</g>
<!-- Node34 -->
<g id="node34" class="node">
<title>Node34</title>
<g id="a_node34"><a xlink:href="interfaceSCR__MapMarkerMenuEntry.html" target="_top" xlink:title="Base entry for marker selection menu.">
<polygon fill="white" stroke="#666666" points="679,-313 541,-313 541,-294 679,-294 679,-313"/>
<text text-anchor="middle" x="610" y="-301" font-family="Helvetica,sans-Serif" font-size="10.00">SCR_MapMarkerMenuEntry</text>
</a>
</g>
</g>
<!-- Node31&#45;&gt;Node34 -->
<g id="edge33" class="edge">
<title>Node31&#45;&gt;Node34</title>
<path fill="none" stroke="#63b8ff" d="M469.62,-266.33C475.5,-268 481.4,-269.74 487,-271.5 503.23,-276.6 506.66,-279.77 523,-284.5 534.46,-287.82 546.91,-290.88 558.7,-293.53"/>
<polygon fill="#63b8ff" stroke="#63b8ff" points="470.7,-262.72 460.13,-263.42 468.83,-269.46 470.7,-262.72"/>
</g>
<!-- Node35 -->
<g id="node35" class="node">
<title>Node35</title>
<g id="a_node35"><a xlink:href="interfaceSCR__MapMenuCommandingEntry.html" target="_top" xlink:title=" ">
<polygon fill="white" stroke="#666666" points="692.5,-276 527.5,-276 527.5,-257 692.5,-257 692.5,-276"/>
<text text-anchor="middle" x="610" y="-264" font-family="Helvetica,sans-Serif" font-size="10.00">SCR_MapMenuCommandingEntry</text>
</a>
</g>
</g>
<!-- Node31&#45;&gt;Node35 -->
<g id="edge34" class="edge">
<title>Node31&#45;&gt;Node35</title>
<path fill="none" stroke="#63b8ff" d="M495.1,-258.67C505.64,-259.39 516.53,-260.14 527.19,-260.87"/>
<polygon fill="#63b8ff" stroke="#63b8ff" points="495.47,-255.11 485.25,-257.92 494.99,-262.1 495.47,-255.11"/>
</g>
<!-- Node36 -->
<g id="node36" class="node">
<title>Node36</title>
<g id="a_node36"><a xlink:href="interfaceSCR__MapMenuRequestedTaskEntry.html" target="_top" xlink:title=" ">
<polygon fill="white" stroke="#666666" points="686,-238.5 534,-238.5 534,-208.5 686,-208.5 686,-238.5"/>
<text text-anchor="start" x="542" y="-226.5" font-family="Helvetica,sans-Serif" font-size="10.00">SCR_MapMenuRequestedTask</text>
<text text-anchor="middle" x="610" y="-215.5" font-family="Helvetica,sans-Serif" font-size="10.00">Entry</text>
</a>
</g>
</g>
<!-- Node31&#45;&gt;Node36 -->
<g id="edge35" class="edge">
<title>Node31&#45;&gt;Node36</title>
<path fill="none" stroke="#63b8ff" d="M493.75,-241.79C506.82,-239.72 520.44,-237.56 533.54,-235.48"/>
<polygon fill="#63b8ff" stroke="#63b8ff" points="493.26,-238.49 483.93,-243.51 494.36,-245.4 493.26,-238.49"/>
</g>
<!-- Node37 -->
<g id="node37" class="node">
<title>Node37</title>
<g id="a_node37"><a xlink:href="interfaceSCR__SelectionMenuCategoryEntry.html" target="_top" xlink:title="Scripted selection menu category, that can contain multiple entries.">
<polygon fill="white" stroke="#666666" points="683,-190.5 537,-190.5 537,-160.5 683,-160.5 683,-190.5"/>
<text text-anchor="start" x="545" y="-178.5" font-family="Helvetica,sans-Serif" font-size="10.00">SCR_SelectionMenuCategory</text>
<text text-anchor="middle" x="610" y="-167.5" font-family="Helvetica,sans-Serif" font-size="10.00">Entry</text>
</a>
</g>
</g>
<!-- Node31&#45;&gt;Node37 -->
<g id="edge36" class="edge">
<title>Node31&#45;&gt;Node37</title>
<path fill="none" stroke="#63b8ff" d="M476.79,-239.6C480.33,-238.07 483.76,-236.37 487,-234.5 506.32,-223.34 503.65,-210.62 523,-199.5 528.64,-196.26 534.75,-193.43 541.02,-190.97"/>
<polygon fill="#63b8ff" stroke="#63b8ff" points="475.71,-236.66 467.64,-243.52 478.23,-243.19 475.71,-236.66"/>
</g>
<!-- Node39 -->
<g id="node39" class="node">
<title>Node39</title>
<g id="a_node39"><a xlink:href="interfaceSCR__SelectionMenuEntryCommand.html" target="_top" xlink:title=" ">
<polygon fill="white" stroke="#666666" points="697,-142 523,-142 523,-123 697,-123 697,-142"/>
<text text-anchor="middle" x="610" y="-130" font-family="Helvetica,sans-Serif" font-size="10.00">SCR_SelectionMenuEntryCommand</text>
</a>
</g>
</g>
<!-- Node31&#45;&gt;Node39 -->
<g id="edge38" class="edge">
<title>Node31&#45;&gt;Node39</title>
<path fill="none" stroke="#63b8ff" d="M482.03,-238.33C483.77,-237.15 485.43,-235.87 487,-234.5 517.26,-208.02 491.98,-177.08 523,-151.5 527.48,-147.8 532.53,-144.79 537.88,-142.33"/>
<polygon fill="#63b8ff" stroke="#63b8ff" points="480.83,-235.55 473.84,-243.51 484.27,-241.65 480.83,-235.55"/>
</g>
<!-- Node40 -->
<g id="node40" class="node">
<title>Node40</title>
<g id="a_node40"><a xlink:href="interfaceSCR__VONEntry.html" target="_top" xlink:title="Voice over network entry data class, used for management of communication methods.">
<polygon fill="white" stroke="#666666" points="653,-105 567,-105 567,-86 653,-86 653,-105"/>
<text text-anchor="middle" x="610" y="-93" font-family="Helvetica,sans-Serif" font-size="10.00">SCR_VONEntry</text>
</a>
</g>
</g>
<!-- Node31&#45;&gt;Node40 -->
<g id="edge39" class="edge">
<title>Node31&#45;&gt;Node40</title>
<path fill="none" stroke="#63b8ff" d="M483.35,-237.73C484.62,-236.72 485.84,-235.64 487,-234.5 526.93,-195.08 481.72,-151.5 523,-113.5 534.78,-102.65 551.37,-97.68 566.84,-95.58"/>
<polygon fill="#63b8ff" stroke="#63b8ff" points="481.83,-235.18 475.28,-243.51 485.59,-241.09 481.83,-235.18"/>
</g>
<!-- Node38 -->
<g id="node38" class="node">
<title>Node38</title>
<g id="a_node38"><a xlink:href="interfaceSCR__MapMarkerMenuCategory.html" target="_top" xlink:title="Base category entry for marker selection menu.">
<polygon fill="white" stroke="#666666" points="887.5,-185 733.5,-185 733.5,-166 887.5,-166 887.5,-185"/>
<text text-anchor="middle" x="810.5" y="-173" font-family="Helvetica,sans-Serif" font-size="10.00">SCR_MapMarkerMenuCategory</text>
</a>
</g>
</g>
<!-- Node37&#45;&gt;Node38 -->
<g id="edge37" class="edge">
<title>Node37&#45;&gt;Node38</title>
<path fill="none" stroke="#63b8ff" d="M694.05,-175.5C707.07,-175.5 720.47,-175.5 733.32,-175.5"/>
<polygon fill="#63b8ff" stroke="#63b8ff" points="694.22,-172 684.22,-175.5 694.22,-179 694.22,-172"/>
</g>
<!-- Node41 -->
<g id="node41" class="node">
<title>Node41</title>
<g id="a_node41"><a xlink:href="interfaceSCR__VONEntryRadio.html" target="_top" xlink:title="VONEntry class for radio entries.">
<polygon fill="white" stroke="#666666" points="866,-105 755,-105 755,-86 866,-86 866,-105"/>
<text text-anchor="middle" x="810.5" y="-93" font-family="Helvetica,sans-Serif" font-size="10.00">SCR_VONEntryRadio</text>
</a>
</g>
</g>
<!-- Node40&#45;&gt;Node41 -->
<g id="edge40" class="edge">
<title>Node40&#45;&gt;Node41</title>
<path fill="none" stroke="#63b8ff" d="M663.89,-95.5C691.92,-95.5 726.32,-95.5 754.63,-95.5"/>
<polygon fill="#63b8ff" stroke="#63b8ff" points="664.1,-92 654.1,-95.5 664.1,-99 664.1,-92"/>
</g>
<!-- Node44 -->
<g id="node44" class="node">
<title>Node44</title>
<g id="a_node44"><a xlink:href="interfaceSCR__ColoredTextNotificationUIInfo.html" target="_top" xlink:title=" ">
<polygon fill="white" stroke="#666666" points="681,-67.5 539,-67.5 539,-37.5 681,-37.5 681,-67.5"/>
<text text-anchor="start" x="547" y="-55.5" font-family="Helvetica,sans-Serif" font-size="10.00">SCR_ColoredTextNotification</text>
<text text-anchor="middle" x="610" y="-44.5" font-family="Helvetica,sans-Serif" font-size="10.00">UIInfo</text>
</a>
</g>
</g>
<!-- Node43&#45;&gt;Node44 -->
<g id="edge43" class="edge">
<title>Node43&#45;&gt;Node44</title>
<path fill="none" stroke="#63b8ff" d="M482.04,-164.34C483.77,-163.15 485.43,-161.88 487,-160.5 517.51,-133.68 492.44,-103.25 523,-76.5 527.67,-72.42 532.97,-69.02 538.61,-66.2"/>
<polygon fill="#63b8ff" stroke="#63b8ff" points="480.84,-161.56 473.85,-169.53 484.28,-167.66 480.84,-161.56"/>
</g>
<!-- Node45 -->
<g id="node45" class="node">
<title>Node45</title>
<g id="a_node45"><a xlink:href="interfaceSCR__SplitNotificationUIInfo.html" target="_top" xlink:title=" ">
<polygon fill="white" stroke="#666666" points="677,-19 543,-19 543,0 677,0 677,-19"/>
<text text-anchor="middle" x="610" y="-7" font-family="Helvetica,sans-Serif" font-size="10.00">SCR_SplitNotificationUIInfo</text>
</a>
</g>
</g>
<!-- Node43&#45;&gt;Node45 -->
<g id="edge44" class="edge">
<title>Node43&#45;&gt;Node45</title>
<path fill="none" stroke="#63b8ff" d="M483.39,-163.76C484.65,-162.74 485.86,-161.65 487,-160.5 529.78,-117.29 478.96,-70.44 523,-28.5 528.65,-23.12 535.46,-19.13 542.74,-16.19"/>
<polygon fill="#63b8ff" stroke="#63b8ff" points="481.86,-161.23 475.37,-169.6 485.66,-167.1 481.86,-161.23"/>
</g>
</g>
</svg>
