<?xml version="1.0" encoding="UTF-8" standalone="no"?>
<!DOCTYPE svg PUBLIC "-//W3C//DTD SVG 1.1//EN"
 "http://www.w3.org/Graphics/SVG/1.1/DTD/svg11.dtd">
<!-- Generated by graphviz version 8.0.2 (20230410.1723)
 -->
<!-- Title: BaseItemAnimationComponentClass Pages: 1 -->
<svg width="728pt" height="268pt"
 viewBox="0.00 0.00 728.00 268.00" xmlns="http://www.w3.org/2000/svg" xmlns:xlink="http://www.w3.org/1999/xlink">
<g id="graph0" class="graph" transform="scale(1 1) rotate(0) translate(4 264)">
<title>BaseItemAnimationComponentClass</title>
<!-- Node1 -->
<g id="node1" class="node">
<title>Node1</title>
<g id="a_node1"><a xlink:title=" ">
<polygon fill="#999999" stroke="#666666" points="338,-142 187,-142 187,-112 338,-112 338,-142"/>
<text text-anchor="start" x="195" y="-130" font-family="Helvetica,sans-Serif" font-size="10.00">BaseItemAnimationComponent</text>
<text text-anchor="middle" x="262.5" y="-119" font-family="Helvetica,sans-Serif" font-size="10.00">Class</text>
</a>
</g>
</g>
<!-- Node3 -->
<g id="node3" class="node">
<title>Node3</title>
<g id="a_node3"><a xlink:href="interfaceGadgetAnimationComponentClass.html" target="_top" xlink:title=" ">
<polygon fill="white" stroke="#666666" points="521.5,-260 380.5,-260 380.5,-230 521.5,-230 521.5,-260"/>
<text text-anchor="start" x="388.5" y="-248" font-family="Helvetica,sans-Serif" font-size="10.00">GadgetAnimationComponent</text>
<text text-anchor="middle" x="451" y="-237" font-family="Helvetica,sans-Serif" font-size="10.00">Class</text>
</a>
</g>
</g>
<!-- Node1&#45;&gt;Node3 -->
<g id="edge2" class="edge">
<title>Node1&#45;&gt;Node3</title>
<path fill="none" stroke="#63b8ff" d="M285.07,-150.01C306,-171.13 339.56,-201.95 374,-221 379.81,-224.22 386.12,-227.07 392.52,-229.58"/>
<polygon fill="#63b8ff" stroke="#63b8ff" points="287.91,-147.89 278.43,-143.16 282.9,-152.77 287.91,-147.89"/>
</g>
<!-- Node4 -->
<g id="node4" class="node">
<title>Node4</title>
<g id="a_node4"><a xlink:href="interfaceMagazineAnimationComponentClass.html" target="_top" xlink:title=" ">
<polygon fill="white" stroke="#666666" points="527,-212 375,-212 375,-182 527,-182 527,-212"/>
<text text-anchor="start" x="383" y="-200" font-family="Helvetica,sans-Serif" font-size="10.00">MagazineAnimationComponent</text>
<text text-anchor="middle" x="451" y="-189" font-family="Helvetica,sans-Serif" font-size="10.00">Class</text>
</a>
</g>
</g>
<!-- Node1&#45;&gt;Node4 -->
<g id="edge3" class="edge">
<title>Node1&#45;&gt;Node4</title>
<path fill="none" stroke="#63b8ff" d="M308.09,-146.62C328.08,-155.14 352.06,-164.99 374,-173 382.06,-175.94 390.67,-178.87 399.1,-181.61"/>
<polygon fill="#63b8ff" stroke="#63b8ff" points="309.6,-143.03 299.03,-142.3 306.83,-149.46 309.6,-143.03"/>
</g>
<!-- Node5 -->
<g id="node5" class="node">
<title>Node5</title>
<g id="a_node5"><a xlink:href="interfaceMortarAnimationComponentClass.html" target="_top" xlink:title=" ">
<polygon fill="white" stroke="#666666" points="519.5,-164 382.5,-164 382.5,-134 519.5,-134 519.5,-164"/>
<text text-anchor="start" x="390.5" y="-152" font-family="Helvetica,sans-Serif" font-size="10.00">MortarAnimationComponent</text>
<text text-anchor="middle" x="451" y="-141" font-family="Helvetica,sans-Serif" font-size="10.00">Class</text>
</a>
</g>
</g>
<!-- Node1&#45;&gt;Node5 -->
<g id="edge4" class="edge">
<title>Node1&#45;&gt;Node5</title>
<path fill="none" stroke="#63b8ff" d="M348.9,-137.07C360.04,-138.39 371.34,-139.72 382.14,-141"/>
<polygon fill="#63b8ff" stroke="#63b8ff" points="349.62,-133.52 339.28,-135.82 348.8,-140.47 349.62,-133.52"/>
</g>
<!-- Node6 -->
<g id="node6" class="node">
<title>Node6</title>
<g id="a_node6"><a xlink:href="interfaceUGLAnimationComponentClass.html" target="_top" xlink:title=" ">
<polygon fill="white" stroke="#666666" points="528,-115.5 374,-115.5 374,-96.5 528,-96.5 528,-115.5"/>
<text text-anchor="middle" x="451" y="-103.5" font-family="Helvetica,sans-Serif" font-size="10.00">UGLAnimationComponentClass</text>
</a>
</g>
</g>
<!-- Node1&#45;&gt;Node6 -->
<g id="edge5" class="edge">
<title>Node1&#45;&gt;Node6</title>
<path fill="none" stroke="#63b8ff" d="M349.02,-117.37C357.25,-116.44 365.55,-115.51 373.68,-114.59"/>
<polygon fill="#63b8ff" stroke="#63b8ff" points="348.83,-113.98 339.28,-118.58 349.61,-120.94 348.83,-113.98"/>
</g>
<!-- Node7 -->
<g id="node7" class="node">
<title>Node7</title>
<g id="a_node7"><a xlink:href="interfaceVehicleAnimationComponentClass.html" target="_top" xlink:title=" ">
<polygon fill="white" stroke="#666666" points="522,-78 380,-78 380,-48 522,-48 522,-78"/>
<text text-anchor="start" x="388" y="-66" font-family="Helvetica,sans-Serif" font-size="10.00">VehicleAnimationComponent</text>
<text text-anchor="middle" x="451" y="-55" font-family="Helvetica,sans-Serif" font-size="10.00">Class</text>
</a>
</g>
</g>
<!-- Node1&#45;&gt;Node7 -->
<g id="edge6" class="edge">
<title>Node1&#45;&gt;Node7</title>
<path fill="none" stroke="#63b8ff" d="M315.1,-107.82C333.61,-101.07 354.69,-93.54 374,-87 382.39,-84.16 391.33,-81.24 400.03,-78.46"/>
<polygon fill="#63b8ff" stroke="#63b8ff" points="314,-104.86 305.81,-111.59 316.4,-111.44 314,-104.86"/>
</g>
<!-- Node8 -->
<g id="node8" class="node">
<title>Node8</title>
<g id="a_node8"><a xlink:href="interfaceWeaponAnimationComponentClass.html" target="_top" xlink:title=" ">
<polygon fill="white" stroke="#666666" points="524,-30 378,-30 378,0 524,0 524,-30"/>
<text text-anchor="start" x="386" y="-18" font-family="Helvetica,sans-Serif" font-size="10.00">WeaponAnimationComponent</text>
<text text-anchor="middle" x="451" y="-7" font-family="Helvetica,sans-Serif" font-size="10.00">Class</text>
</a>
</g>
</g>
<!-- Node1&#45;&gt;Node8 -->
<g id="edge7" class="edge">
<title>Node1&#45;&gt;Node8</title>
<path fill="none" stroke="#63b8ff" d="M286.8,-104.18C308,-84.52 340.94,-56.6 374,-39 379.98,-35.81 386.46,-32.97 393.03,-30.45"/>
<polygon fill="#63b8ff" stroke="#63b8ff" points="284.88,-101.13 280,-110.53 289.68,-106.22 284.88,-101.13"/>
</g>
<!-- Node2 -->
<g id="node2" class="node">
<title>Node2</title>
<g id="a_node2"><a xlink:title=" ">
<polygon fill="white" stroke="#666666" points="151,-142 0,-142 0,-112 151,-112 151,-142"/>
<text text-anchor="start" x="8" y="-130" font-family="Helvetica,sans-Serif" font-size="10.00">AnimationControllerComponent</text>
<text text-anchor="middle" x="75.5" y="-119" font-family="Helvetica,sans-Serif" font-size="10.00">Class</text>
</a>
</g>
</g>
<!-- Node2&#45;&gt;Node1 -->
<g id="edge1" class="edge">
<title>Node2&#45;&gt;Node1</title>
<path fill="none" stroke="#63b8ff" d="M162.46,-127C170.56,-127 178.73,-127 186.71,-127"/>
<polygon fill="#63b8ff" stroke="#63b8ff" points="162.48,-123.5 152.48,-127 162.48,-130.5 162.48,-123.5"/>
</g>
<!-- Node9 -->
<g id="node9" class="node">
<title>Node9</title>
<g id="a_node9"><a xlink:href="interfaceSCR__MineAnimationComponentClass.html" target="_top" xlink:title=" ">
<polygon fill="white" stroke="#666666" points="720,-30 564,-30 564,0 720,0 720,-30"/>
<text text-anchor="start" x="572" y="-18" font-family="Helvetica,sans-Serif" font-size="10.00">SCR_MineAnimationComponent</text>
<text text-anchor="middle" x="642" y="-7" font-family="Helvetica,sans-Serif" font-size="10.00">Class</text>
</a>
</g>
</g>
<!-- Node8&#45;&gt;Node9 -->
<g id="edge8" class="edge">
<title>Node8&#45;&gt;Node9</title>
<path fill="none" stroke="#63b8ff" d="M534.97,-15C544.54,-15 554.26,-15 563.75,-15"/>
<polygon fill="#63b8ff" stroke="#63b8ff" points="535.26,-11.5 525.26,-15 535.26,-18.5 535.26,-11.5"/>
</g>
</g>
</svg>
