<?xml version="1.0" encoding="UTF-8" standalone="no"?>
<!DOCTYPE svg PUBLIC "-//W3C//DTD SVG 1.1//EN"
 "http://www.w3.org/Graphics/SVG/1.1/DTD/svg11.dtd">
<!-- Generated by graphviz version 8.0.2 (20230410.1723)
 -->
<!-- Title: SCR_CommunicationSoundComponent Pages: 1 -->
<svg width="195pt" height="247pt"
 viewBox="0.00 0.00 195.00 247.00" xmlns="http://www.w3.org/2000/svg" xmlns:xlink="http://www.w3.org/1999/xlink">
<g id="graph0" class="graph" transform="scale(1 1) rotate(0) translate(4 243)">
<title>SCR_CommunicationSoundComponent</title>
<!-- Node1 -->
<g id="node1" class="node">
<title>Node1</title>
<g id="a_node1"><a xlink:title=" ">
<polygon fill="#999999" stroke="#666666" points="187,-19 0,-19 0,0 187,0 187,-19"/>
<text text-anchor="middle" x="93.5" y="-7" font-family="Helvetica,sans-Serif" font-size="10.00">SCR_CommunicationSoundComponent</text>
</a>
</g>
</g>
<!-- Node2 -->
<g id="node2" class="node">
<title>Node2</title>
<g id="a_node2"><a xlink:href="interfaceCommunicationSoundComponent.html" target="_top" xlink:title=" ">
<polygon fill="white" stroke="#666666" points="174,-74 13,-74 13,-55 174,-55 174,-74"/>
<text text-anchor="middle" x="93.5" y="-62" font-family="Helvetica,sans-Serif" font-size="10.00">CommunicationSoundComponent</text>
</a>
</g>
</g>
<!-- Node2&#45;&gt;Node1 -->
<g id="edge1" class="edge">
<title>Node2&#45;&gt;Node1</title>
<path fill="none" stroke="#63b8ff" d="M93.5,-43.93C93.5,-35.53 93.5,-26.13 93.5,-19.44"/>
<polygon fill="#63b8ff" stroke="#63b8ff" points="90,-43.75 93.5,-53.75 97,-43.75 90,-43.75"/>
</g>
<!-- Node3 -->
<g id="node3" class="node">
<title>Node3</title>
<g id="a_node3"><a xlink:href="interfaceSoundComponent.html" target="_top" xlink:title=" ">
<polygon fill="white" stroke="#666666" points="140.5,-129 46.5,-129 46.5,-110 140.5,-110 140.5,-129"/>
<text text-anchor="middle" x="93.5" y="-117" font-family="Helvetica,sans-Serif" font-size="10.00">SoundComponent</text>
</a>
</g>
</g>
<!-- Node3&#45;&gt;Node2 -->
<g id="edge2" class="edge">
<title>Node3&#45;&gt;Node2</title>
<path fill="none" stroke="#63b8ff" d="M93.5,-98.93C93.5,-90.53 93.5,-81.13 93.5,-74.44"/>
<polygon fill="#63b8ff" stroke="#63b8ff" points="90,-98.75 93.5,-108.75 97,-98.75 90,-98.75"/>
</g>
<!-- Node4 -->
<g id="node4" class="node">
<title>Node4</title>
<g id="a_node4"><a xlink:href="interfaceSimpleSoundComponent.html" target="_top" xlink:title=" ">
<polygon fill="white" stroke="#666666" points="155.5,-184 31.5,-184 31.5,-165 155.5,-165 155.5,-184"/>
<text text-anchor="middle" x="93.5" y="-172" font-family="Helvetica,sans-Serif" font-size="10.00">SimpleSoundComponent</text>
</a>
</g>
</g>
<!-- Node4&#45;&gt;Node3 -->
<g id="edge3" class="edge">
<title>Node4&#45;&gt;Node3</title>
<path fill="none" stroke="#63b8ff" d="M93.5,-153.93C93.5,-145.53 93.5,-136.13 93.5,-129.44"/>
<polygon fill="#63b8ff" stroke="#63b8ff" points="90,-153.75 93.5,-163.75 97,-153.75 90,-153.75"/>
</g>
<!-- Node5 -->
<g id="node5" class="node">
<title>Node5</title>
<g id="a_node5"><a xlink:title=" ">
<polygon fill="white" stroke="#666666" points="151.5,-239 35.5,-239 35.5,-220 151.5,-220 151.5,-239"/>
<text text-anchor="middle" x="93.5" y="-227" font-family="Helvetica,sans-Serif" font-size="10.00">BaseSoundComponent</text>
</a>
</g>
</g>
<!-- Node5&#45;&gt;Node4 -->
<g id="edge4" class="edge">
<title>Node5&#45;&gt;Node4</title>
<path fill="none" stroke="#63b8ff" d="M93.5,-208.93C93.5,-200.53 93.5,-191.13 93.5,-184.44"/>
<polygon fill="#63b8ff" stroke="#63b8ff" points="90,-208.75 93.5,-218.75 97,-208.75 90,-208.75"/>
</g>
</g>
</svg>
