<?xml version="1.0" encoding="UTF-8" standalone="no"?>
<!DOCTYPE svg PUBLIC "-//W3C//DTD SVG 1.1//EN"
 "http://www.w3.org/Graphics/SVG/1.1/DTD/svg11.dtd">
<!-- Generated by graphviz version 8.0.2 (20230410.1723)
 -->
<!-- Title: AIBaseUtilityComponentClass Pages: 1 -->
<svg width="328pt" height="214pt"
 viewBox="0.00 0.00 328.00 214.00" xmlns="http://www.w3.org/2000/svg" xmlns:xlink="http://www.w3.org/1999/xlink">
<g id="graph0" class="graph" transform="scale(1 1) rotate(0) translate(4 210)">
<title>AIBaseUtilityComponentClass</title>
<!-- Node1 -->
<g id="node1" class="node">
<title>Node1</title>
<g id="a_node1"><a xlink:title=" ">
<polygon fill="#999999" stroke="#666666" points="233.5,-151 86.5,-151 86.5,-132 233.5,-132 233.5,-151"/>
<text text-anchor="middle" x="160" y="-139" font-family="Helvetica,sans-Serif" font-size="10.00">AIBaseUtilityComponentClass</text>
</a>
</g>
</g>
<!-- Node3 -->
<g id="node3" class="node">
<title>Node3</title>
<g id="a_node3"><a xlink:href="interfaceSCR__AIBaseUtilityComponentClass.html" target="_top" xlink:title=" ">
<polygon fill="white" stroke="#666666" points="234,-96 86,-96 86,-66 234,-66 234,-96"/>
<text text-anchor="start" x="94" y="-84" font-family="Helvetica,sans-Serif" font-size="10.00">SCR_AIBaseUtilityComponent</text>
<text text-anchor="middle" x="160" y="-73" font-family="Helvetica,sans-Serif" font-size="10.00">Class</text>
</a>
</g>
</g>
<!-- Node1&#45;&gt;Node3 -->
<g id="edge2" class="edge">
<title>Node1&#45;&gt;Node3</title>
<path fill="none" stroke="#63b8ff" d="M160,-121.08C160,-112.92 160,-103.6 160,-96.11"/>
<polygon fill="#63b8ff" stroke="#63b8ff" points="156.5,-120.87 160,-130.87 163.5,-120.87 156.5,-120.87"/>
</g>
<!-- Node2 -->
<g id="node2" class="node">
<title>Node2</title>
<g id="a_node2"><a xlink:title=" ">
<polygon fill="white" stroke="#666666" points="210,-206 110,-206 110,-187 210,-187 210,-206"/>
<text text-anchor="middle" x="160" y="-194" font-family="Helvetica,sans-Serif" font-size="10.00">AIComponentClass</text>
</a>
</g>
</g>
<!-- Node2&#45;&gt;Node1 -->
<g id="edge1" class="edge">
<title>Node2&#45;&gt;Node1</title>
<path fill="none" stroke="#63b8ff" d="M160,-175.93C160,-167.53 160,-158.13 160,-151.44"/>
<polygon fill="#63b8ff" stroke="#63b8ff" points="156.5,-175.75 160,-185.75 163.5,-175.75 156.5,-175.75"/>
</g>
<!-- Node4 -->
<g id="node4" class="node">
<title>Node4</title>
<g id="a_node4"><a xlink:href="interfaceSCR__AIGroupUtilityComponentClass.html" target="_top" xlink:title=" ">
<polygon fill="white" stroke="#666666" points="152,-30 0,-30 0,0 152,0 152,-30"/>
<text text-anchor="start" x="8" y="-18" font-family="Helvetica,sans-Serif" font-size="10.00">SCR_AIGroupUtilityComponent</text>
<text text-anchor="middle" x="76" y="-7" font-family="Helvetica,sans-Serif" font-size="10.00">Class</text>
</a>
</g>
</g>
<!-- Node3&#45;&gt;Node4 -->
<g id="edge3" class="edge">
<title>Node3&#45;&gt;Node4</title>
<path fill="none" stroke="#63b8ff" d="M132.76,-59.25C120.39,-49.82 106.05,-38.9 94.88,-30.39"/>
<polygon fill="#63b8ff" stroke="#63b8ff" points="130.28,-62.52 140.36,-65.8 134.52,-56.95 130.28,-62.52"/>
</g>
<!-- Node5 -->
<g id="node5" class="node">
<title>Node5</title>
<g id="a_node5"><a xlink:href="interfaceSCR__AIUtilityComponentClass.html" target="_top" xlink:title=" ">
<polygon fill="white" stroke="#666666" points="320,-24.5 170,-24.5 170,-5.5 320,-5.5 320,-24.5"/>
<text text-anchor="middle" x="245" y="-12.5" font-family="Helvetica,sans-Serif" font-size="10.00">SCR_AIUtilityComponentClass</text>
</a>
</g>
</g>
<!-- Node3&#45;&gt;Node5 -->
<g id="edge4" class="edge">
<title>Node3&#45;&gt;Node5</title>
<path fill="none" stroke="#63b8ff" d="M187.55,-59.26C203.01,-47.61 221.51,-33.69 233.25,-24.84"/>
<polygon fill="#63b8ff" stroke="#63b8ff" points="185.75,-56.99 179.86,-65.8 189.96,-62.58 185.75,-56.99"/>
</g>
</g>
</svg>
