<?xml version="1.0" encoding="UTF-8" standalone="no"?>
<!DOCTYPE svg PUBLIC "-//W3C//DTD SVG 1.1//EN"
 "http://www.w3.org/Graphics/SVG/1.1/DTD/svg11.dtd">
<!-- Generated by graphviz version 8.0.2 (20230410.1723)
 -->
<!-- Title: ScriptedInventoryStorageManagerComponentClass Pages: 1 -->
<svg width="1025pt" height="134pt"
 viewBox="0.00 0.00 1025.00 134.00" xmlns="http://www.w3.org/2000/svg" xmlns:xlink="http://www.w3.org/1999/xlink">
<g id="graph0" class="graph" transform="scale(1 1) rotate(0) translate(4 130)">
<title>ScriptedInventoryStorageManagerComponentClass</title>
<!-- Node1 -->
<g id="node1" class="node">
<title>Node1</title>
<g id="a_node1"><a xlink:title=" ">
<polygon fill="#999999" stroke="#666666" points="654,-78 526,-78 526,-48 654,-48 654,-78"/>
<text text-anchor="start" x="534" y="-66" font-family="Helvetica,sans-Serif" font-size="10.00">ScriptedInventoryStorage</text>
<text text-anchor="middle" x="590" y="-55" font-family="Helvetica,sans-Serif" font-size="10.00">ManagerComponentClass</text>
</a>
</g>
</g>
<!-- Node5 -->
<g id="node5" class="node">
<title>Node5</title>
<g id="a_node5"><a xlink:href="interfaceSCR__ArsenalInventoryStorageManagerComponentClass.html" target="_top" xlink:title=" ">
<polygon fill="white" stroke="#666666" points="839.5,-126 692.5,-126 692.5,-96 839.5,-96 839.5,-126"/>
<text text-anchor="start" x="700.5" y="-114" font-family="Helvetica,sans-Serif" font-size="10.00">SCR_ArsenalInventoryStorage</text>
<text text-anchor="middle" x="766" y="-103" font-family="Helvetica,sans-Serif" font-size="10.00">ManagerComponentClass</text>
</a>
</g>
</g>
<!-- Node1&#45;&gt;Node5 -->
<g id="edge4" class="edge">
<title>Node1&#45;&gt;Node5</title>
<path fill="none" stroke="#63b8ff" d="M657.45,-81.33C674.49,-86.03 692.65,-91.04 709.09,-95.58"/>
<polygon fill="#63b8ff" stroke="#63b8ff" points="658.58,-77.74 648.01,-78.45 656.72,-84.49 658.58,-77.74"/>
</g>
<!-- Node6 -->
<g id="node6" class="node">
<title>Node6</title>
<g id="a_node6"><a xlink:href="interfaceSCR__InventoryStorageManagerComponentClass.html" target="_top" xlink:title=" ">
<polygon fill="white" stroke="#666666" points="842,-78 690,-78 690,-48 842,-48 842,-78"/>
<text text-anchor="start" x="698" y="-66" font-family="Helvetica,sans-Serif" font-size="10.00">SCR_InventoryStorageManager</text>
<text text-anchor="middle" x="766" y="-55" font-family="Helvetica,sans-Serif" font-size="10.00">ComponentClass</text>
</a>
</g>
</g>
<!-- Node1&#45;&gt;Node6 -->
<g id="edge5" class="edge">
<title>Node1&#45;&gt;Node6</title>
<path fill="none" stroke="#63b8ff" d="M665.21,-63C673.29,-63 681.52,-63 689.61,-63"/>
<polygon fill="#63b8ff" stroke="#63b8ff" points="665.31,-59.5 655.31,-63 665.31,-66.5 665.31,-59.5"/>
</g>
<!-- Node8 -->
<g id="node8" class="node">
<title>Node8</title>
<g id="a_node8"><a xlink:href="interfaceSCR__VehicleInventoryStorageManagerComponentClass.html" target="_top" xlink:title=" ">
<polygon fill="white" stroke="#666666" points="839,-30 693,-30 693,0 839,0 839,-30"/>
<text text-anchor="start" x="701" y="-18" font-family="Helvetica,sans-Serif" font-size="10.00">SCR_VehicleInventoryStorage</text>
<text text-anchor="middle" x="766" y="-7" font-family="Helvetica,sans-Serif" font-size="10.00">ManagerComponentClass</text>
</a>
</g>
</g>
<!-- Node1&#45;&gt;Node8 -->
<g id="edge7" class="edge">
<title>Node1&#45;&gt;Node8</title>
<path fill="none" stroke="#63b8ff" d="M657.45,-44.67C674.49,-39.97 692.65,-34.96 709.09,-30.42"/>
<polygon fill="#63b8ff" stroke="#63b8ff" points="656.72,-41.51 648.01,-47.55 658.58,-48.26 656.72,-41.51"/>
</g>
<!-- Node2 -->
<g id="node2" class="node">
<title>Node2</title>
<g id="a_node2"><a xlink:href="interfaceInventoryStorageManagerComponentClass.html" target="_top" xlink:title=" ">
<polygon fill="white" stroke="#666666" points="490,-78 314,-78 314,-48 490,-48 490,-78"/>
<text text-anchor="start" x="322" y="-66" font-family="Helvetica,sans-Serif" font-size="10.00">InventoryStorageManagerComponent</text>
<text text-anchor="middle" x="402" y="-55" font-family="Helvetica,sans-Serif" font-size="10.00">Class</text>
</a>
</g>
</g>
<!-- Node2&#45;&gt;Node1 -->
<g id="edge1" class="edge">
<title>Node2&#45;&gt;Node1</title>
<path fill="none" stroke="#63b8ff" d="M501.16,-63C509.44,-63 517.65,-63 525.55,-63"/>
<polygon fill="#63b8ff" stroke="#63b8ff" points="501.28,-59.5 491.28,-63 501.28,-66.5 501.28,-59.5"/>
</g>
<!-- Node3 -->
<g id="node3" class="node">
<title>Node3</title>
<g id="a_node3"><a xlink:href="interfaceGameComponentClass.html" target="_top" xlink:title=" ">
<polygon fill="white" stroke="#666666" points="278,-72.5 161,-72.5 161,-53.5 278,-53.5 278,-72.5"/>
<text text-anchor="middle" x="219.5" y="-60.5" font-family="Helvetica,sans-Serif" font-size="10.00">GameComponentClass</text>
</a>
</g>
</g>
<!-- Node3&#45;&gt;Node2 -->
<g id="edge2" class="edge">
<title>Node3&#45;&gt;Node2</title>
<path fill="none" stroke="#63b8ff" d="M288.95,-63C297.04,-63 305.38,-63 313.68,-63"/>
<polygon fill="#63b8ff" stroke="#63b8ff" points="289.11,-59.5 279.11,-63 289.11,-66.5 289.11,-59.5"/>
</g>
<!-- Node4 -->
<g id="node4" class="node">
<title>Node4</title>
<g id="a_node4"><a xlink:title=" ">
<polygon fill="white" stroke="#666666" points="125,-72.5 0,-72.5 0,-53.5 125,-53.5 125,-72.5"/>
<text text-anchor="middle" x="62.5" y="-60.5" font-family="Helvetica,sans-Serif" font-size="10.00">GenericComponentClass</text>
</a>
</g>
</g>
<!-- Node4&#45;&gt;Node3 -->
<g id="edge3" class="edge">
<title>Node4&#45;&gt;Node3</title>
<path fill="none" stroke="#63b8ff" d="M135.96,-63C144.2,-63 152.52,-63 160.53,-63"/>
<polygon fill="#63b8ff" stroke="#63b8ff" points="136.21,-59.5 126.21,-63 136.21,-66.5 136.21,-59.5"/>
</g>
<!-- Node7 -->
<g id="node7" class="node">
<title>Node7</title>
<g id="a_node7"><a xlink:href="interfaceSCR__TurretInventoryStorageManagerComponentClass.html" target="_top" xlink:title=" ">
<polygon fill="white" stroke="#666666" points="1017,-78 878,-78 878,-48 1017,-48 1017,-78"/>
<text text-anchor="start" x="886" y="-66" font-family="Helvetica,sans-Serif" font-size="10.00">SCR_TurretInventoryStorage</text>
<text text-anchor="middle" x="947.5" y="-55" font-family="Helvetica,sans-Serif" font-size="10.00">ManagerComponentClass</text>
</a>
</g>
</g>
<!-- Node6&#45;&gt;Node7 -->
<g id="edge6" class="edge">
<title>Node6&#45;&gt;Node7</title>
<path fill="none" stroke="#63b8ff" d="M853.11,-63C861.34,-63 869.61,-63 877.64,-63"/>
<polygon fill="#63b8ff" stroke="#63b8ff" points="853.34,-59.5 843.34,-63 853.34,-66.5 853.34,-59.5"/>
</g>
</g>
</svg>
