<?xml version="1.0" encoding="UTF-8" standalone="no"?>
<!DOCTYPE svg PUBLIC "-//W3C//DTD SVG 1.1//EN"
 "http://www.w3.org/Graphics/SVG/1.1/DTD/svg11.dtd">
<!-- Generated by graphviz version 8.0.2 (20230410.1723)
 -->
<!-- Title: SCR_WelcomeScreenComponent Pages: 1 -->
<svg width="172pt" height="203pt"
 viewBox="0.00 0.00 172.00 203.00" xmlns="http://www.w3.org/2000/svg" xmlns:xlink="http://www.w3.org/1999/xlink">
<g id="graph0" class="graph" transform="scale(1 1) rotate(0) translate(4 199)">
<title>SCR_WelcomeScreenComponent</title>
<!-- Node1 -->
<g id="node1" class="node">
<title>Node1</title>
<g id="a_node1"><a xlink:title="Welcome screen component intended to be added to the GameMode.">
<polygon fill="#999999" stroke="#666666" points="164,-19 0,-19 0,0 164,0 164,-19"/>
<text text-anchor="middle" x="82" y="-7" font-family="Helvetica,sans-Serif" font-size="10.00">SCR_WelcomeScreenComponent</text>
</a>
</g>
</g>
<!-- Node2 -->
<g id="node2" class="node">
<title>Node2</title>
<g id="a_node2"><a xlink:href="interfaceSCR__DeployMenuBaseScreenComponent.html" target="_top" xlink:title="Base class for Deploy menu components.">
<polygon fill="white" stroke="#666666" points="156.5,-85 7.5,-85 7.5,-55 156.5,-55 156.5,-85"/>
<text text-anchor="start" x="15.5" y="-73" font-family="Helvetica,sans-Serif" font-size="10.00">SCR_DeployMenuBaseScreen</text>
<text text-anchor="middle" x="82" y="-62" font-family="Helvetica,sans-Serif" font-size="10.00">Component</text>
</a>
</g>
</g>
<!-- Node2&#45;&gt;Node1 -->
<g id="edge1" class="edge">
<title>Node2&#45;&gt;Node1</title>
<path fill="none" stroke="#63b8ff" d="M82,-43.59C82,-34.85 82,-25.65 82,-19.18"/>
<polygon fill="#63b8ff" stroke="#63b8ff" points="78.5,-43.54 82,-53.54 85.5,-43.54 78.5,-43.54"/>
</g>
<!-- Node3 -->
<g id="node3" class="node">
<title>Node3</title>
<g id="a_node3"><a xlink:href="interfaceSCR__BaseGameModeComponent.html" target="_top" xlink:title="Interface for game mode extending components.">
<polygon fill="white" stroke="#666666" points="164,-140 0,-140 0,-121 164,-121 164,-140"/>
<text text-anchor="middle" x="82" y="-128" font-family="Helvetica,sans-Serif" font-size="10.00">SCR_BaseGameModeComponent</text>
</a>
</g>
</g>
<!-- Node3&#45;&gt;Node2 -->
<g id="edge2" class="edge">
<title>Node3&#45;&gt;Node2</title>
<path fill="none" stroke="#63b8ff" d="M82,-110.08C82,-101.92 82,-92.6 82,-85.11"/>
<polygon fill="#63b8ff" stroke="#63b8ff" points="78.5,-109.87 82,-119.87 85.5,-109.87 78.5,-109.87"/>
</g>
<!-- Node4 -->
<g id="node4" class="node">
<title>Node4</title>
<g id="a_node4"><a xlink:title=" ">
<polygon fill="white" stroke="#666666" points="128,-195 36,-195 36,-176 128,-176 128,-195"/>
<text text-anchor="middle" x="82" y="-183" font-family="Helvetica,sans-Serif" font-size="10.00">ScriptComponent</text>
</a>
</g>
</g>
<!-- Node4&#45;&gt;Node3 -->
<g id="edge3" class="edge">
<title>Node4&#45;&gt;Node3</title>
<path fill="none" stroke="#63b8ff" d="M82,-164.93C82,-156.53 82,-147.13 82,-140.44"/>
<polygon fill="#63b8ff" stroke="#63b8ff" points="78.5,-164.75 82,-174.75 85.5,-164.75 78.5,-164.75"/>
</g>
</g>
</svg>
