<?xml version="1.0" encoding="UTF-8" standalone="no"?>
<!DOCTYPE svg PUBLIC "-//W3C//DTD SVG 1.1//EN"
 "http://www.w3.org/Graphics/SVG/1.1/DTD/svg11.dtd">
<!-- Generated by graphviz version 8.0.2 (20230410.1723)
 -->
<!-- Title: VehicleSoundComponentClass Pages: 1 -->
<svg width="171pt" height="324pt"
 viewBox="0.00 0.00 171.00 324.00" xmlns="http://www.w3.org/2000/svg" xmlns:xlink="http://www.w3.org/1999/xlink">
<g id="graph0" class="graph" transform="scale(1 1) rotate(0) translate(4 320)">
<title>VehicleSoundComponentClass</title>
<!-- Node1 -->
<g id="node1" class="node">
<title>Node1</title>
<g id="a_node1"><a xlink:title=" ">
<polygon fill="#999999" stroke="#666666" points="157,-151 6,-151 6,-132 157,-132 157,-151"/>
<text text-anchor="middle" x="81.5" y="-139" font-family="Helvetica,sans-Serif" font-size="10.00">VehicleSoundComponentClass</text>
</a>
</g>
</g>
<!-- Node5 -->
<g id="node5" class="node">
<title>Node5</title>
<g id="a_node5"><a xlink:href="interfaceSCR__VehicleSoundComponentClass.html" target="_top" xlink:title=" ">
<polygon fill="white" stroke="#666666" points="157.5,-96 5.5,-96 5.5,-66 157.5,-66 157.5,-96"/>
<text text-anchor="start" x="13.5" y="-84" font-family="Helvetica,sans-Serif" font-size="10.00">SCR_VehicleSoundComponent</text>
<text text-anchor="middle" x="81.5" y="-73" font-family="Helvetica,sans-Serif" font-size="10.00">Class</text>
</a>
</g>
</g>
<!-- Node1&#45;&gt;Node5 -->
<g id="edge4" class="edge">
<title>Node1&#45;&gt;Node5</title>
<path fill="none" stroke="#63b8ff" d="M81.5,-121.08C81.5,-112.92 81.5,-103.6 81.5,-96.11"/>
<polygon fill="#63b8ff" stroke="#63b8ff" points="78,-120.87 81.5,-130.87 85,-120.87 78,-120.87"/>
</g>
<!-- Node2 -->
<g id="node2" class="node">
<title>Node2</title>
<g id="a_node2"><a xlink:href="interfaceSoundComponentClass.html" target="_top" xlink:title=" ">
<polygon fill="white" stroke="#666666" points="141,-206 22,-206 22,-187 141,-187 141,-206"/>
<text text-anchor="middle" x="81.5" y="-194" font-family="Helvetica,sans-Serif" font-size="10.00">SoundComponentClass</text>
</a>
</g>
</g>
<!-- Node2&#45;&gt;Node1 -->
<g id="edge1" class="edge">
<title>Node2&#45;&gt;Node1</title>
<path fill="none" stroke="#63b8ff" d="M81.5,-175.93C81.5,-167.53 81.5,-158.13 81.5,-151.44"/>
<polygon fill="#63b8ff" stroke="#63b8ff" points="78,-175.75 81.5,-185.75 85,-175.75 78,-175.75"/>
</g>
<!-- Node3 -->
<g id="node3" class="node">
<title>Node3</title>
<g id="a_node3"><a xlink:href="interfaceSimpleSoundComponentClass.html" target="_top" xlink:title=" ">
<polygon fill="white" stroke="#666666" points="156,-261 7,-261 7,-242 156,-242 156,-261"/>
<text text-anchor="middle" x="81.5" y="-249" font-family="Helvetica,sans-Serif" font-size="10.00">SimpleSoundComponentClass</text>
</a>
</g>
</g>
<!-- Node3&#45;&gt;Node2 -->
<g id="edge2" class="edge">
<title>Node3&#45;&gt;Node2</title>
<path fill="none" stroke="#63b8ff" d="M81.5,-230.93C81.5,-222.53 81.5,-213.13 81.5,-206.44"/>
<polygon fill="#63b8ff" stroke="#63b8ff" points="78,-230.75 81.5,-240.75 85,-230.75 78,-230.75"/>
</g>
<!-- Node4 -->
<g id="node4" class="node">
<title>Node4</title>
<g id="a_node4"><a xlink:title=" ">
<polygon fill="white" stroke="#666666" points="152,-316 11,-316 11,-297 152,-297 152,-316"/>
<text text-anchor="middle" x="81.5" y="-304" font-family="Helvetica,sans-Serif" font-size="10.00">BaseSoundComponentClass</text>
</a>
</g>
</g>
<!-- Node4&#45;&gt;Node3 -->
<g id="edge3" class="edge">
<title>Node4&#45;&gt;Node3</title>
<path fill="none" stroke="#63b8ff" d="M81.5,-285.93C81.5,-277.53 81.5,-268.13 81.5,-261.44"/>
<polygon fill="#63b8ff" stroke="#63b8ff" points="78,-285.75 81.5,-295.75 85,-285.75 78,-285.75"/>
</g>
<!-- Node6 -->
<g id="node6" class="node">
<title>Node6</title>
<g id="a_node6"><a xlink:href="interfaceSCR__HelicopterSoundComponentClass.html" target="_top" xlink:title=" ">
<polygon fill="white" stroke="#666666" points="163,-30 0,-30 0,0 163,0 163,-30"/>
<text text-anchor="start" x="8" y="-18" font-family="Helvetica,sans-Serif" font-size="10.00">SCR_HelicopterSoundComponent</text>
<text text-anchor="middle" x="81.5" y="-7" font-family="Helvetica,sans-Serif" font-size="10.00">Class</text>
</a>
</g>
</g>
<!-- Node5&#45;&gt;Node6 -->
<g id="edge5" class="edge">
<title>Node5&#45;&gt;Node6</title>
<path fill="none" stroke="#63b8ff" d="M81.5,-54.97C81.5,-46.55 81.5,-37.45 81.5,-30.16"/>
<polygon fill="#63b8ff" stroke="#63b8ff" points="78,-54.8 81.5,-64.8 85,-54.8 78,-54.8"/>
</g>
</g>
</svg>
