<?xml version="1.0" encoding="UTF-8" standalone="no"?>
<!DOCTYPE svg PUBLIC "-//W3C//DTD SVG 1.1//EN"
 "http://www.w3.org/Graphics/SVG/1.1/DTD/svg11.dtd">
<!-- Generated by graphviz version 8.0.2 (20230410.1723)
 -->
<!-- Title: SCR_AITargetReactionBase Pages: 1 -->
<svg width="258pt" height="93pt"
 viewBox="0.00 0.00 258.00 93.00" xmlns="http://www.w3.org/2000/svg" xmlns:xlink="http://www.w3.org/1999/xlink">
<g id="graph0" class="graph" transform="scale(1 1) rotate(0) translate(4 89)">
<title>SCR_AITargetReactionBase</title>
<!-- Node1 -->
<g id="node1" class="node">
<title>Node1</title>
<g id="a_node1"><a xlink:title=" ">
<polygon fill="#999999" stroke="#666666" points="194.5,-85 55.5,-85 55.5,-66 194.5,-66 194.5,-85"/>
<text text-anchor="middle" x="125" y="-73" font-family="Helvetica,sans-Serif" font-size="10.00">SCR_AITargetReactionBase</text>
</a>
</g>
</g>
<!-- Node2 -->
<g id="node2" class="node">
<title>Node2</title>
<g id="a_node2"><a xlink:href="interfaceSCR__AITargetReaction__RetreatFromEnemy.html" target="_top" xlink:title=" ">
<polygon fill="white" stroke="#666666" points="116,-30 0,-30 0,0 116,0 116,-30"/>
<text text-anchor="start" x="8" y="-18" font-family="Helvetica,sans-Serif" font-size="10.00">SCR_AITargetReaction</text>
<text text-anchor="middle" x="58" y="-7" font-family="Helvetica,sans-Serif" font-size="10.00">_RetreatFromEnemy</text>
</a>
</g>
</g>
<!-- Node1&#45;&gt;Node2 -->
<g id="edge1" class="edge">
<title>Node1&#45;&gt;Node2</title>
<path fill="none" stroke="#63b8ff" d="M106.71,-58.53C96.66,-49.76 84.3,-38.96 74.54,-30.44"/>
<polygon fill="#63b8ff" stroke="#63b8ff" points="103.99,-61.67 113.82,-65.62 108.59,-56.4 103.99,-61.67"/>
</g>
<!-- Node3 -->
<g id="node3" class="node">
<title>Node3</title>
<g id="a_node3"><a xlink:href="interfaceSCR__AITargetReaction__Unknown.html" target="_top" xlink:title=" ">
<polygon fill="white" stroke="#666666" points="250,-30 134,-30 134,0 250,0 250,-30"/>
<text text-anchor="start" x="142" y="-18" font-family="Helvetica,sans-Serif" font-size="10.00">SCR_AITargetReaction</text>
<text text-anchor="middle" x="192" y="-7" font-family="Helvetica,sans-Serif" font-size="10.00">_Unknown</text>
</a>
</g>
</g>
<!-- Node1&#45;&gt;Node3 -->
<g id="edge2" class="edge">
<title>Node1&#45;&gt;Node3</title>
<path fill="none" stroke="#63b8ff" d="M143.29,-58.53C153.34,-49.76 165.7,-38.96 175.46,-30.44"/>
<polygon fill="#63b8ff" stroke="#63b8ff" points="141.41,-56.4 136.18,-65.62 146.01,-61.67 141.41,-56.4"/>
</g>
</g>
</svg>
