<?xml version="1.0" encoding="UTF-8" standalone="no"?>
<!DOCTYPE svg PUBLIC "-//W3C//DTD SVG 1.1//EN"
 "http://www.w3.org/Graphics/SVG/1.1/DTD/svg11.dtd">
<!-- Generated by graphviz version 8.0.2 (20230410.1723)
 -->
<!-- Title: SCR_DescriptorDefaultsBase Pages: 1 -->
<svg width="426pt" height="137pt"
 viewBox="0.00 0.00 426.00 137.00" xmlns="http://www.w3.org/2000/svg" xmlns:xlink="http://www.w3.org/1999/xlink">
<g id="graph0" class="graph" transform="scale(1 1) rotate(0) translate(4 133)">
<title>SCR_DescriptorDefaultsBase</title>
<!-- Node1 -->
<g id="node1" class="node">
<title>Node1</title>
<g id="a_node1"><a xlink:title="Configuration of descriptor defaults.">
<polygon fill="#999999" stroke="#666666" points="285.5,-129 141.5,-129 141.5,-110 285.5,-110 285.5,-129"/>
<text text-anchor="middle" x="213.5" y="-117" font-family="Helvetica,sans-Serif" font-size="10.00">SCR_DescriptorDefaultsBase</text>
</a>
</g>
</g>
<!-- Node2 -->
<g id="node2" class="node">
<title>Node2</title>
<g id="a_node2"><a xlink:href="interfaceSCR__DescriptorDefIcon.html" target="_top" xlink:title="Descriptor icon type defaults.">
<polygon fill="white" stroke="#666666" points="128,-74 9,-74 9,-55 128,-55 128,-74"/>
<text text-anchor="middle" x="68.5" y="-62" font-family="Helvetica,sans-Serif" font-size="10.00">SCR_DescriptorDefIcon</text>
</a>
</g>
</g>
<!-- Node1&#45;&gt;Node2 -->
<g id="edge1" class="edge">
<title>Node1&#45;&gt;Node2</title>
<path fill="none" stroke="#63b8ff" d="M178.87,-105.84C152.3,-96.13 116.29,-82.97 92.73,-74.36"/>
<polygon fill="#63b8ff" stroke="#63b8ff" points="177.31,-109.36 187.9,-109.51 179.71,-102.79 177.31,-109.36"/>
</g>
<!-- Node4 -->
<g id="node4" class="node">
<title>Node4</title>
<g id="a_node4"><a xlink:href="interfaceSCR__DescriptorDefInvisible.html" target="_top" xlink:title="Descriptor invisible type, for cursor interaction logic support while UI is handled by another system...">
<polygon fill="white" stroke="#666666" points="280.5,-74 146.5,-74 146.5,-55 280.5,-55 280.5,-74"/>
<text text-anchor="middle" x="213.5" y="-62" font-family="Helvetica,sans-Serif" font-size="10.00">SCR_DescriptorDefInvisible</text>
</a>
</g>
</g>
<!-- Node1&#45;&gt;Node4 -->
<g id="edge3" class="edge">
<title>Node1&#45;&gt;Node4</title>
<path fill="none" stroke="#63b8ff" d="M213.5,-98.93C213.5,-90.53 213.5,-81.13 213.5,-74.44"/>
<polygon fill="#63b8ff" stroke="#63b8ff" points="210,-98.75 213.5,-108.75 217,-98.75 210,-98.75"/>
</g>
<!-- Node5 -->
<g id="node5" class="node">
<title>Node5</title>
<g id="a_node5"><a xlink:href="interfaceSCR__DescriptorDefText.html" target="_top" xlink:title="Descriptor text type defaults.">
<polygon fill="white" stroke="#666666" points="418,-74 299,-74 299,-55 418,-55 418,-74"/>
<text text-anchor="middle" x="358.5" y="-62" font-family="Helvetica,sans-Serif" font-size="10.00">SCR_DescriptorDefText</text>
</a>
</g>
</g>
<!-- Node1&#45;&gt;Node5 -->
<g id="edge4" class="edge">
<title>Node1&#45;&gt;Node5</title>
<path fill="none" stroke="#63b8ff" d="M248.13,-105.84C274.7,-96.13 310.71,-82.97 334.27,-74.36"/>
<polygon fill="#63b8ff" stroke="#63b8ff" points="247.29,-102.79 239.1,-109.51 249.69,-109.36 247.29,-102.79"/>
</g>
<!-- Node3 -->
<g id="node3" class="node">
<title>Node3</title>
<g id="a_node3"><a xlink:href="interfaceSCR__DescriptorDefIconText.html" target="_top" xlink:title="Descriptor icon with text type defaults.">
<polygon fill="white" stroke="#666666" points="137,-19 0,-19 0,0 137,0 137,-19"/>
<text text-anchor="middle" x="68.5" y="-7" font-family="Helvetica,sans-Serif" font-size="10.00">SCR_DescriptorDefIconText</text>
</a>
</g>
</g>
<!-- Node2&#45;&gt;Node3 -->
<g id="edge2" class="edge">
<title>Node2&#45;&gt;Node3</title>
<path fill="none" stroke="#63b8ff" d="M68.5,-43.93C68.5,-35.53 68.5,-26.13 68.5,-19.44"/>
<polygon fill="#63b8ff" stroke="#63b8ff" points="65,-43.75 68.5,-53.75 72,-43.75 65,-43.75"/>
</g>
</g>
</svg>
