<?xml version="1.0" encoding="UTF-8" standalone="no"?>
<!DOCTYPE svg PUBLIC "-//W3C//DTD SVG 1.1//EN"
 "http://www.w3.org/Graphics/SVG/1.1/DTD/svg11.dtd">
<!-- Generated by graphviz version 8.0.2 (20230410.1723)
 -->
<!-- Title: SCR_InventoryAction Pages: 1 -->
<svg width="1085pt" height="544pt"
 viewBox="0.00 0.00 1085.00 543.50" xmlns="http://www.w3.org/2000/svg" xmlns:xlink="http://www.w3.org/1999/xlink">
<g id="graph0" class="graph" transform="scale(1 1) rotate(0) translate(4 539.5)">
<title>SCR_InventoryAction</title>
<!-- Node1 -->
<g id="node1" class="node">
<title>Node1</title>
<g id="a_node1"><a xlink:title="modded version for to be used with the inventory 2.0">
<polygon fill="#999999" stroke="#666666" points="490,-302 382,-302 382,-283 490,-283 490,-302"/>
<text text-anchor="middle" x="436" y="-290" font-family="Helvetica,sans-Serif" font-size="10.00">SCR_InventoryAction</text>
</a>
</g>
</g>
<!-- Node5 -->
<g id="node5" class="node">
<title>Node5</title>
<g id="a_node5"><a xlink:href="interfaceSCR__AttachItemFromInventoryAction.html" target="_top" xlink:title="Equip weapon attachment.">
<polygon fill="white" stroke="#666666" points="680.5,-535.5 530.5,-535.5 530.5,-505.5 680.5,-505.5 680.5,-535.5"/>
<text text-anchor="start" x="538.5" y="-523.5" font-family="Helvetica,sans-Serif" font-size="10.00">SCR_AttachItemFromInventory</text>
<text text-anchor="middle" x="605.5" y="-512.5" font-family="Helvetica,sans-Serif" font-size="10.00">Action</text>
</a>
</g>
</g>
<!-- Node1&#45;&gt;Node5 -->
<g id="edge4" class="edge">
<title>Node1&#45;&gt;Node5</title>
<path fill="none" stroke="#63b8ff" d="M440.14,-313.02C447.5,-353.99 469.68,-446.29 526,-496.5 529.72,-499.82 533.9,-502.68 538.33,-505.14"/>
<polygon fill="#63b8ff" stroke="#63b8ff" points="443.44,-312.55 438.35,-303.27 436.54,-313.71 443.44,-312.55"/>
</g>
<!-- Node6 -->
<g id="node6" class="node">
<title>Node6</title>
<g id="a_node6"><a xlink:href="interfaceSCR__AttachementAction.html" target="_top" xlink:title=" ">
<polygon fill="white" stroke="#666666" points="668,-487 543,-487 543,-468 668,-468 668,-487"/>
<text text-anchor="middle" x="605.5" y="-475" font-family="Helvetica,sans-Serif" font-size="10.00">SCR_AttachementAction</text>
</a>
</g>
</g>
<!-- Node1&#45;&gt;Node6 -->
<g id="edge5" class="edge">
<title>Node1&#45;&gt;Node6</title>
<path fill="none" stroke="#63b8ff" d="M441.88,-312.75C451.53,-348.28 476.54,-421.65 526,-459.5 531,-463.32 536.66,-466.36 542.61,-468.77"/>
<polygon fill="#63b8ff" stroke="#63b8ff" points="445.06,-312.07 439.18,-303.26 438.28,-313.82 445.06,-312.07"/>
</g>
<!-- Node7 -->
<g id="node7" class="node">
<title>Node7</title>
<g id="a_node7"><a xlink:href="interfaceSCR__BaseWeaponAction.html" target="_top" xlink:title=" ">
<polygon fill="white" stroke="#666666" points="669.5,-450 541.5,-450 541.5,-431 669.5,-431 669.5,-450"/>
<text text-anchor="middle" x="605.5" y="-438" font-family="Helvetica,sans-Serif" font-size="10.00">SCR_BaseWeaponAction</text>
</a>
</g>
</g>
<!-- Node1&#45;&gt;Node7 -->
<g id="edge6" class="edge">
<title>Node1&#45;&gt;Node7</title>
<path fill="none" stroke="#63b8ff" d="M444.91,-312.27C457.54,-341.2 485.09,-394.63 526,-422.5 530.74,-425.73 535.97,-428.38 541.42,-430.57"/>
<polygon fill="#63b8ff" stroke="#63b8ff" points="447.77,-311.03 440.67,-303.16 441.31,-313.74 447.77,-311.03"/>
</g>
<!-- Node12 -->
<g id="node12" class="node">
<title>Node12</title>
<g id="a_node12"><a xlink:href="interfaceSCR__EquipClothAction.html" target="_top" xlink:title="modded version for to be used with the inventory 2.0">
<polygon fill="white" stroke="#666666" points="664,-413 547,-413 547,-394 664,-394 664,-413"/>
<text text-anchor="middle" x="605.5" y="-401" font-family="Helvetica,sans-Serif" font-size="10.00">SCR_EquipClothAction</text>
</a>
</g>
</g>
<!-- Node1&#45;&gt;Node12 -->
<g id="edge11" class="edge">
<title>Node1&#45;&gt;Node12</title>
<path fill="none" stroke="#63b8ff" d="M449.68,-311.25C465.15,-332.61 493.31,-366.94 526,-385.5 532.44,-389.16 539.58,-392.07 546.86,-394.4"/>
<polygon fill="#63b8ff" stroke="#63b8ff" points="452.11,-309.62 443.5,-303.46 446.39,-313.65 452.11,-309.62"/>
</g>
<!-- Node14 -->
<g id="node14" class="node">
<title>Node14</title>
<g id="a_node14"><a xlink:href="interfaceSCR__EquipGadgetAction.html" target="_top" xlink:title="modded version for to be used with the inventory 2.0">
<polygon fill="white" stroke="#666666" points="668.5,-376 542.5,-376 542.5,-357 668.5,-357 668.5,-376"/>
<text text-anchor="middle" x="605.5" y="-364" font-family="Helvetica,sans-Serif" font-size="10.00">SCR_EquipGadgetAction</text>
</a>
</g>
</g>
<!-- Node1&#45;&gt;Node14 -->
<g id="edge13" class="edge">
<title>Node1&#45;&gt;Node14</title>
<path fill="none" stroke="#63b8ff" d="M458.25,-308.76C475.61,-321.32 501.25,-338.22 526,-348.5 533.62,-351.66 541.9,-354.32 550.12,-356.55"/>
<polygon fill="#63b8ff" stroke="#63b8ff" points="460.64,-305.44 450.51,-302.31 456.48,-311.06 460.64,-305.44"/>
</g>
<!-- Node15 -->
<g id="node15" class="node">
<title>Node15</title>
<g id="a_node15"><a xlink:href="interfaceSCR__EquipWeaponAttachment.html" target="_top" xlink:title="Equip weapon attachment.">
<polygon fill="white" stroke="#666666" points="682,-339 529,-339 529,-320 682,-320 682,-339"/>
<text text-anchor="middle" x="605.5" y="-327" font-family="Helvetica,sans-Serif" font-size="10.00">SCR_EquipWeaponAttachment</text>
</a>
</g>
</g>
<!-- Node1&#45;&gt;Node15 -->
<g id="edge14" class="edge">
<title>Node1&#45;&gt;Node15</title>
<path fill="none" stroke="#63b8ff" d="M492.62,-304.79C514.34,-309.58 538.91,-315.01 559.49,-319.56"/>
<polygon fill="#63b8ff" stroke="#63b8ff" points="493.41,-301.15 482.89,-302.42 491.9,-307.99 493.41,-301.15"/>
</g>
<!-- Node16 -->
<g id="node16" class="node">
<title>Node16</title>
<g id="a_node16"><a xlink:href="interfaceSCR__InspectionUserAction.html" target="_top" xlink:title=" ">
<polygon fill="white" stroke="#666666" points="672.5,-302 538.5,-302 538.5,-283 672.5,-283 672.5,-302"/>
<text text-anchor="middle" x="605.5" y="-290" font-family="Helvetica,sans-Serif" font-size="10.00">SCR_InspectionUserAction</text>
</a>
</g>
</g>
<!-- Node1&#45;&gt;Node16 -->
<g id="edge15" class="edge">
<title>Node1&#45;&gt;Node16</title>
<path fill="none" stroke="#63b8ff" d="M501.32,-292.5C513.34,-292.5 525.94,-292.5 538.03,-292.5"/>
<polygon fill="#63b8ff" stroke="#63b8ff" points="501.46,-289 491.46,-292.5 501.46,-296 501.46,-289"/>
</g>
<!-- Node20 -->
<g id="node20" class="node">
<title>Node20</title>
<g id="a_node20"><a xlink:href="interfaceSCR__LootAction.html" target="_top" xlink:title=" ">
<polygon fill="white" stroke="#666666" points="650,-265 561,-265 561,-246 650,-246 650,-265"/>
<text text-anchor="middle" x="605.5" y="-253" font-family="Helvetica,sans-Serif" font-size="10.00">SCR_LootAction</text>
</a>
</g>
</g>
<!-- Node1&#45;&gt;Node20 -->
<g id="edge19" class="edge">
<title>Node1&#45;&gt;Node20</title>
<path fill="none" stroke="#63b8ff" d="M492.49,-280.24C514.65,-275.35 539.8,-269.79 560.65,-265.19"/>
<polygon fill="#63b8ff" stroke="#63b8ff" points="491.9,-277.01 482.89,-282.58 493.41,-283.85 491.9,-277.01"/>
</g>
<!-- Node22 -->
<g id="node22" class="node">
<title>Node22</title>
<g id="a_node22"><a xlink:href="interfaceSCR__OpenStorageAction.html" target="_top" xlink:title="modded version for to be used with the inventory 2.0">
<polygon fill="white" stroke="#666666" points="669,-222 542,-222 542,-203 669,-203 669,-222"/>
<text text-anchor="middle" x="605.5" y="-210" font-family="Helvetica,sans-Serif" font-size="10.00">SCR_OpenStorageAction</text>
</a>
</g>
</g>
<!-- Node1&#45;&gt;Node22 -->
<g id="edge21" class="edge">
<title>Node1&#45;&gt;Node22</title>
<path fill="none" stroke="#63b8ff" d="M459.07,-276.29C476.53,-264.05 501.91,-247.52 526,-236.5 538.18,-230.93 552,-226.21 564.61,-222.47"/>
<polygon fill="#63b8ff" stroke="#63b8ff" points="457.34,-273.93 451.24,-282.59 461.41,-279.63 457.34,-273.93"/>
</g>
<!-- Node25 -->
<g id="node25" class="node">
<title>Node25</title>
<g id="a_node25"><a xlink:href="interfaceSCR__OpenVehicleStorageAction.html" target="_top" xlink:title=" ">
<polygon fill="white" stroke="#666666" points="685,-163 526,-163 526,-144 685,-144 685,-163"/>
<text text-anchor="middle" x="605.5" y="-151" font-family="Helvetica,sans-Serif" font-size="10.00">SCR_OpenVehicleStorageAction</text>
</a>
</g>
</g>
<!-- Node1&#45;&gt;Node25 -->
<g id="edge24" class="edge">
<title>Node1&#45;&gt;Node25</title>
<path fill="none" stroke="#63b8ff" d="M450.34,-273.92C466.42,-252.49 495.16,-217.18 526,-193.5 542.38,-180.92 563.31,-170.49 579.44,-163.43"/>
<polygon fill="#63b8ff" stroke="#63b8ff" points="446.98,-271.57 443.87,-281.7 452.62,-275.72 446.98,-271.57"/>
</g>
<!-- Node27 -->
<g id="node27" class="node">
<title>Node27</title>
<g id="a_node27"><a xlink:href="interfaceSCR__PickUpItemAction.html" target="_top" xlink:title="modded version for to be used with the inventory 2.0">
<polygon fill="white" stroke="#666666" points="665.5,-112 545.5,-112 545.5,-93 665.5,-93 665.5,-112"/>
<text text-anchor="middle" x="605.5" y="-100" font-family="Helvetica,sans-Serif" font-size="10.00">SCR_PickUpItemAction</text>
</a>
</g>
</g>
<!-- Node1&#45;&gt;Node27 -->
<g id="edge26" class="edge">
<title>Node1&#45;&gt;Node27</title>
<path fill="none" stroke="#63b8ff" d="M443.29,-272.71C454.72,-239.76 481.84,-173.42 526,-134.5 537.37,-124.48 552.3,-117.34 566.08,-112.39"/>
<polygon fill="#63b8ff" stroke="#63b8ff" points="439.75,-271.28 439.91,-281.88 446.39,-273.5 439.75,-271.28"/>
</g>
<!-- Node31 -->
<g id="node31" class="node">
<title>Node31</title>
<g id="a_node31"><a xlink:href="interfaceSCR__RadioToggleUserAction.html" target="_top" xlink:title=" ">
<polygon fill="white" stroke="#666666" points="677,-75 534,-75 534,-56 677,-56 677,-75"/>
<text text-anchor="middle" x="605.5" y="-63" font-family="Helvetica,sans-Serif" font-size="10.00">SCR_RadioToggleUserAction</text>
</a>
</g>
</g>
<!-- Node1&#45;&gt;Node31 -->
<g id="edge30" class="edge">
<title>Node1&#45;&gt;Node31</title>
<path fill="none" stroke="#63b8ff" d="M439.55,-272C445.92,-229.85 466.54,-133.26 526,-83.5 529.86,-80.27 534.19,-77.59 538.77,-75.37"/>
<polygon fill="#63b8ff" stroke="#63b8ff" points="435.96,-271.41 438.05,-281.79 442.89,-272.37 435.96,-271.41"/>
</g>
<!-- Node32 -->
<g id="node32" class="node">
<title>Node32</title>
<g id="a_node32"><a xlink:href="interfaceSCR__RadioTuningUserAction.html" target="_top" xlink:title=" ">
<polygon fill="white" stroke="#666666" points="677,-38 534,-38 534,-19 677,-19 677,-38"/>
<text text-anchor="middle" x="605.5" y="-26" font-family="Helvetica,sans-Serif" font-size="10.00">SCR_RadioTuningUserAction</text>
</a>
</g>
</g>
<!-- Node1&#45;&gt;Node32 -->
<g id="edge31" class="edge">
<title>Node1&#45;&gt;Node32</title>
<path fill="none" stroke="#63b8ff" d="M438.07,-272.02C441.69,-224.69 457.48,-107.14 526,-46.5 529.66,-43.26 533.79,-40.56 538.19,-38.33"/>
<polygon fill="#63b8ff" stroke="#63b8ff" points="434.53,-271.49 437.37,-281.7 441.52,-271.95 434.53,-271.49"/>
</g>
<!-- Node2 -->
<g id="node2" class="node">
<title>Node2</title>
<g id="a_node2"><a xlink:href="interfaceScriptedUserAction.html" target="_top" xlink:title=" ">
<polygon fill="white" stroke="#666666" points="346,-302 245,-302 245,-283 346,-283 346,-302"/>
<text text-anchor="middle" x="295.5" y="-290" font-family="Helvetica,sans-Serif" font-size="10.00">ScriptedUserAction</text>
</a>
</g>
</g>
<!-- Node2&#45;&gt;Node1 -->
<g id="edge1" class="edge">
<title>Node2&#45;&gt;Node1</title>
<path fill="none" stroke="#63b8ff" d="M357.07,-292.5C365.21,-292.5 373.51,-292.5 381.52,-292.5"/>
<polygon fill="#63b8ff" stroke="#63b8ff" points="357.11,-289 347.11,-292.5 357.11,-296 357.11,-289"/>
</g>
<!-- Node3 -->
<g id="node3" class="node">
<title>Node3</title>
<g id="a_node3"><a xlink:href="interfaceBaseUserAction.html" target="_top" xlink:title=" ">
<polygon fill="white" stroke="#666666" points="209,-302 122,-302 122,-283 209,-283 209,-302"/>
<text text-anchor="middle" x="165.5" y="-290" font-family="Helvetica,sans-Serif" font-size="10.00">BaseUserAction</text>
</a>
</g>
</g>
<!-- Node3&#45;&gt;Node2 -->
<g id="edge2" class="edge">
<title>Node3&#45;&gt;Node2</title>
<path fill="none" stroke="#63b8ff" d="M220.34,-292.5C228.44,-292.5 236.77,-292.5 244.78,-292.5"/>
<polygon fill="#63b8ff" stroke="#63b8ff" points="220.48,-289 210.48,-292.5 220.48,-296 220.48,-289"/>
</g>
<!-- Node4 -->
<g id="node4" class="node">
<title>Node4</title>
<g id="a_node4"><a xlink:title=" ">
<polygon fill="white" stroke="#666666" points="86,-302 0,-302 0,-283 86,-283 86,-302"/>
<text text-anchor="middle" x="43" y="-290" font-family="Helvetica,sans-Serif" font-size="10.00">ScriptAndConfig</text>
</a>
</g>
</g>
<!-- Node4&#45;&gt;Node3 -->
<g id="edge3" class="edge">
<title>Node4&#45;&gt;Node3</title>
<path fill="none" stroke="#63b8ff" d="M97.37,-292.5C105.47,-292.5 113.74,-292.5 121.59,-292.5"/>
<polygon fill="#63b8ff" stroke="#63b8ff" points="97.48,-289 87.48,-292.5 97.48,-296 97.48,-289"/>
</g>
<!-- Node8 -->
<g id="node8" class="node">
<title>Node8</title>
<g id="a_node8"><a xlink:href="interfaceSCR__EquipWeaponAction.html" target="_top" xlink:title="Equip weapon.">
<polygon fill="white" stroke="#666666" points="870.5,-499 739.5,-499 739.5,-480 870.5,-480 870.5,-499"/>
<text text-anchor="middle" x="805" y="-487" font-family="Helvetica,sans-Serif" font-size="10.00">SCR_EquipWeaponAction</text>
</a>
</g>
</g>
<!-- Node7&#45;&gt;Node8 -->
<g id="edge7" class="edge">
<title>Node7&#45;&gt;Node8</title>
<path fill="none" stroke="#63b8ff" d="M660.83,-453.02C668.96,-455.07 677.22,-457.27 685,-459.5 701.21,-464.15 704.74,-467.04 721,-471.5 731.52,-474.39 742.9,-477.11 753.75,-479.52"/>
<polygon fill="#63b8ff" stroke="#63b8ff" points="661.82,-449.41 651.27,-450.4 660.13,-456.2 661.82,-449.41"/>
</g>
<!-- Node10 -->
<g id="node10" class="node">
<title>Node10</title>
<g id="a_node10"><a xlink:href="interfaceSCR__EquipWeaponHolsterAction.html" target="_top" xlink:title="Pickup weapon to holster position, without equipping it.">
<polygon fill="white" stroke="#666666" points="885.5,-462 724.5,-462 724.5,-443 885.5,-443 885.5,-462"/>
<text text-anchor="middle" x="805" y="-450" font-family="Helvetica,sans-Serif" font-size="10.00">SCR_EquipWeaponHolsterAction</text>
</a>
</g>
</g>
<!-- Node7&#45;&gt;Node10 -->
<g id="edge9" class="edge">
<title>Node7&#45;&gt;Node10</title>
<path fill="none" stroke="#63b8ff" d="M680.51,-445C694.72,-445.86 709.66,-446.77 724.05,-447.64"/>
<polygon fill="#63b8ff" stroke="#63b8ff" points="681,-441.46 670.81,-444.35 680.57,-448.45 681,-441.46"/>
</g>
<!-- Node9 -->
<g id="node9" class="node">
<title>Node9</title>
<g id="a_node9"><a xlink:href="interfaceSCR__MineEquipWeaponAction.html" target="_top" xlink:title=" ">
<polygon fill="white" stroke="#666666" points="1077,-499 925,-499 925,-480 1077,-480 1077,-499"/>
<text text-anchor="middle" x="1001" y="-487" font-family="Helvetica,sans-Serif" font-size="10.00">SCR_MineEquipWeaponAction</text>
</a>
</g>
</g>
<!-- Node8&#45;&gt;Node9 -->
<g id="edge8" class="edge">
<title>Node8&#45;&gt;Node9</title>
<path fill="none" stroke="#63b8ff" d="M881.58,-489.5C895.77,-489.5 910.61,-489.5 924.79,-489.5"/>
<polygon fill="#63b8ff" stroke="#63b8ff" points="881.87,-486 871.87,-489.5 881.87,-493 881.87,-486"/>
</g>
<!-- Node11 -->
<g id="node11" class="node">
<title>Node11</title>
<g id="a_node11"><a xlink:href="interfaceSCR__MineEquipHolsterAction.html" target="_top" xlink:title=" ">
<polygon fill="white" stroke="#666666" points="1074,-462 928,-462 928,-443 1074,-443 1074,-462"/>
<text text-anchor="middle" x="1001" y="-450" font-family="Helvetica,sans-Serif" font-size="10.00">SCR_MineEquipHolsterAction</text>
</a>
</g>
</g>
<!-- Node10&#45;&gt;Node11 -->
<g id="edge10" class="edge">
<title>Node10&#45;&gt;Node11</title>
<path fill="none" stroke="#63b8ff" d="M896.57,-452.5C907.02,-452.5 917.56,-452.5 927.72,-452.5"/>
<polygon fill="#63b8ff" stroke="#63b8ff" points="896.75,-449 886.75,-452.5 896.75,-456 896.75,-449"/>
</g>
<!-- Node13 -->
<g id="node13" class="node">
<title>Node13</title>
<g id="a_node13"><a xlink:href="interfaceSCR__DeployableInventoryItemEquipClothAction.html" target="_top" xlink:title=" ">
<polygon fill="white" stroke="#666666" points="878.5,-424.5 731.5,-424.5 731.5,-394.5 878.5,-394.5 878.5,-424.5"/>
<text text-anchor="start" x="739.5" y="-412.5" font-family="Helvetica,sans-Serif" font-size="10.00">SCR_DeployableInventoryItem</text>
<text text-anchor="middle" x="805" y="-401.5" font-family="Helvetica,sans-Serif" font-size="10.00">EquipClothAction</text>
</a>
</g>
</g>
<!-- Node12&#45;&gt;Node13 -->
<g id="edge12" class="edge">
<title>Node12&#45;&gt;Node13</title>
<path fill="none" stroke="#63b8ff" d="M675.2,-405.59C693.35,-406.14 712.99,-406.74 731.33,-407.29"/>
<polygon fill="#63b8ff" stroke="#63b8ff" points="675.52,-402.07 665.42,-405.26 675.31,-409.06 675.52,-402.07"/>
</g>
<!-- Node17 -->
<g id="node17" class="node">
<title>Node17</title>
<g id="a_node17"><a xlink:href="interfaceSCR__DetachMagazineUserAction.html" target="_top" xlink:title=" ">
<polygon fill="white" stroke="#666666" points="886.5,-376 723.5,-376 723.5,-357 886.5,-357 886.5,-376"/>
<text text-anchor="middle" x="805" y="-364" font-family="Helvetica,sans-Serif" font-size="10.00">SCR_DetachMagazineUserAction</text>
</a>
</g>
</g>
<!-- Node16&#45;&gt;Node17 -->
<g id="edge16" class="edge">
<title>Node16&#45;&gt;Node17</title>
<path fill="none" stroke="#63b8ff" d="M674.21,-306.21C677.95,-307.79 681.57,-309.54 685,-311.5 704.93,-322.87 700.93,-337.37 721,-348.5 726.8,-351.72 733.13,-354.36 739.62,-356.53"/>
<polygon fill="#63b8ff" stroke="#63b8ff" points="675.71,-302.67 665.12,-302.45 673.27,-309.22 675.71,-302.67"/>
</g>
<!-- Node18 -->
<g id="node18" class="node">
<title>Node18</title>
<g id="a_node18"><a xlink:href="interfaceSCR__FireModeSwitchUserAction.html" target="_top" xlink:title=" ">
<polygon fill="white" stroke="#666666" points="885,-339 725,-339 725,-320 885,-320 885,-339"/>
<text text-anchor="middle" x="805" y="-327" font-family="Helvetica,sans-Serif" font-size="10.00">SCR_FireModeSwitchUserAction</text>
</a>
</g>
</g>
<!-- Node16&#45;&gt;Node18 -->
<g id="edge17" class="edge">
<title>Node16&#45;&gt;Node18</title>
<path fill="none" stroke="#63b8ff" d="M670.2,-304.43C696.19,-309.3 725.9,-314.87 750.72,-319.52"/>
<polygon fill="#63b8ff" stroke="#63b8ff" points="671.16,-300.87 660.69,-302.46 669.87,-307.75 671.16,-300.87"/>
</g>
<!-- Node19 -->
<g id="node19" class="node">
<title>Node19</title>
<g id="a_node19"><a xlink:href="interfaceSCR__ToggleSafetyUserAction.html" target="_top" xlink:title=" ">
<polygon fill="white" stroke="#666666" points="878,-302 732,-302 732,-283 878,-283 878,-302"/>
<text text-anchor="middle" x="805" y="-290" font-family="Helvetica,sans-Serif" font-size="10.00">SCR_ToggleSafetyUserAction</text>
</a>
</g>
</g>
<!-- Node16&#45;&gt;Node19 -->
<g id="edge18" class="edge">
<title>Node16&#45;&gt;Node19</title>
<path fill="none" stroke="#63b8ff" d="M683.63,-292.5C699.47,-292.5 716.1,-292.5 731.76,-292.5"/>
<polygon fill="#63b8ff" stroke="#63b8ff" points="683.81,-289 673.81,-292.5 683.81,-296 683.81,-289"/>
</g>
<!-- Node21 -->
<g id="node21" class="node">
<title>Node21</title>
<g id="a_node21"><a xlink:href="interfaceSCR__LootDeadBodyAction.html" target="_top" xlink:title=" ">
<polygon fill="white" stroke="#666666" points="872,-265 738,-265 738,-246 872,-246 872,-265"/>
<text text-anchor="middle" x="805" y="-253" font-family="Helvetica,sans-Serif" font-size="10.00">SCR_LootDeadBodyAction</text>
</a>
</g>
</g>
<!-- Node20&#45;&gt;Node21 -->
<g id="edge20" class="edge">
<title>Node20&#45;&gt;Node21</title>
<path fill="none" stroke="#63b8ff" d="M661.24,-255.5C684.95,-255.5 712.9,-255.5 737.76,-255.5"/>
<polygon fill="#63b8ff" stroke="#63b8ff" points="661.33,-252 651.33,-255.5 661.33,-259 661.33,-252"/>
</g>
<!-- Node23 -->
<g id="node23" class="node">
<title>Node23</title>
<g id="a_node23"><a xlink:href="interfaceSCR__OpenDeployableSpawnPointStorageAction.html" target="_top" xlink:title=" ">
<polygon fill="white" stroke="#666666" points="887.5,-227.5 722.5,-227.5 722.5,-197.5 887.5,-197.5 887.5,-227.5"/>
<text text-anchor="start" x="730.5" y="-215.5" font-family="Helvetica,sans-Serif" font-size="10.00">SCR_OpenDeployableSpawnPoint</text>
<text text-anchor="middle" x="805" y="-204.5" font-family="Helvetica,sans-Serif" font-size="10.00">StorageAction</text>
</a>
</g>
</g>
<!-- Node22&#45;&gt;Node23 -->
<g id="edge22" class="edge">
<title>Node22&#45;&gt;Node23</title>
<path fill="none" stroke="#63b8ff" d="M680.11,-212.5C693.84,-212.5 708.27,-212.5 722.23,-212.5"/>
<polygon fill="#63b8ff" stroke="#63b8ff" points="680.26,-209 670.26,-212.5 680.26,-216 680.26,-209"/>
</g>
<!-- Node24 -->
<g id="node24" class="node">
<title>Node24</title>
<g id="a_node24"><a xlink:href="interfaceSCR__ResourceStorageOpenAction.html" target="_top" xlink:title=" ">
<polygon fill="white" stroke="#666666" points="889,-179 721,-179 721,-160 889,-160 889,-179"/>
<text text-anchor="middle" x="805" y="-167" font-family="Helvetica,sans-Serif" font-size="10.00">SCR_ResourceStorageOpenAction</text>
</a>
</g>
</g>
<!-- Node22&#45;&gt;Node24 -->
<g id="edge23" class="edge">
<title>Node22&#45;&gt;Node24</title>
<path fill="none" stroke="#63b8ff" d="M662.69,-200.27C692.88,-193.69 729.64,-185.69 758.1,-179.49"/>
<polygon fill="#63b8ff" stroke="#63b8ff" points="662.33,-196.98 653.31,-202.53 663.82,-203.82 662.33,-196.98"/>
</g>
<!-- Node26 -->
<g id="node26" class="node">
<title>Node26</title>
<g id="a_node26"><a xlink:href="interfaceSCR__OpenTurretStorageAction.html" target="_top" xlink:title=" ">
<polygon fill="white" stroke="#666666" points="881,-142 729,-142 729,-123 881,-123 881,-142"/>
<text text-anchor="middle" x="805" y="-130" font-family="Helvetica,sans-Serif" font-size="10.00">SCR_OpenTurretStorageAction</text>
</a>
</g>
</g>
<!-- Node25&#45;&gt;Node26 -->
<g id="edge25" class="edge">
<title>Node25&#45;&gt;Node26</title>
<path fill="none" stroke="#63b8ff" d="M696.21,-143.96C707.09,-142.8 718.11,-141.63 728.75,-140.5"/>
<polygon fill="#63b8ff" stroke="#63b8ff" points="695.98,-140.57 686.41,-145.11 696.72,-147.53 695.98,-140.57"/>
</g>
<!-- Node28 -->
<g id="node28" class="node">
<title>Node28</title>
<g id="a_node28"><a xlink:href="interfaceSCR__DeployableInventoryItemPickUpAction.html" target="_top" xlink:title=" ">
<polygon fill="white" stroke="#666666" points="878.5,-104.5 731.5,-104.5 731.5,-74.5 878.5,-74.5 878.5,-104.5"/>
<text text-anchor="start" x="739.5" y="-92.5" font-family="Helvetica,sans-Serif" font-size="10.00">SCR_DeployableInventoryItem</text>
<text text-anchor="middle" x="805" y="-81.5" font-family="Helvetica,sans-Serif" font-size="10.00">PickUpAction</text>
</a>
</g>
</g>
<!-- Node27&#45;&gt;Node28 -->
<g id="edge27" class="edge">
<title>Node27&#45;&gt;Node28</title>
<path fill="none" stroke="#63b8ff" d="M676.58,-97.89C694.28,-96.72 713.33,-95.47 731.16,-94.29"/>
<polygon fill="#63b8ff" stroke="#63b8ff" points="676.51,-94.45 666.76,-98.6 676.96,-101.44 676.51,-94.45"/>
</g>
<!-- Node29 -->
<g id="node29" class="node">
<title>Node29</title>
<g id="a_node29"><a xlink:href="interfaceSCR__MineFlagPickUpAction.html" target="_top" xlink:title=" ">
<polygon fill="white" stroke="#666666" points="875.5,-56 734.5,-56 734.5,-37 875.5,-37 875.5,-56"/>
<text text-anchor="middle" x="805" y="-44" font-family="Helvetica,sans-Serif" font-size="10.00">SCR_MineFlagPickUpAction</text>
</a>
</g>
</g>
<!-- Node27&#45;&gt;Node29 -->
<g id="edge28" class="edge">
<title>Node27&#45;&gt;Node29</title>
<path fill="none" stroke="#63b8ff" d="M665.55,-89.74C672.18,-87.86 678.78,-85.78 685,-83.5 701.8,-77.36 704.16,-71.54 721,-65.5 730.74,-62.01 741.36,-59 751.65,-56.48"/>
<polygon fill="#63b8ff" stroke="#63b8ff" points="664.92,-86.56 656.17,-92.54 666.74,-93.32 664.92,-86.56"/>
</g>
<!-- Node30 -->
<g id="node30" class="node">
<title>Node30</title>
<g id="a_node30"><a xlink:href="interfaceSCR__MinePickUpItemAction.html" target="_top" xlink:title=" ">
<polygon fill="white" stroke="#666666" points="875.5,-19 734.5,-19 734.5,0 875.5,0 875.5,-19"/>
<text text-anchor="middle" x="805" y="-7" font-family="Helvetica,sans-Serif" font-size="10.00">SCR_MinePickUpItemAction</text>
</a>
</g>
</g>
<!-- Node27&#45;&gt;Node30 -->
<g id="edge29" class="edge">
<title>Node27&#45;&gt;Node30</title>
<path fill="none" stroke="#63b8ff" d="M675.73,-89.07C678.97,-87.42 682.09,-85.57 685,-83.5 709.11,-66.35 696.69,-44.37 721,-27.5 725.6,-24.31 730.67,-21.66 735.96,-19.48"/>
<polygon fill="#63b8ff" stroke="#63b8ff" points="674.46,-86.24 666.69,-93.44 677.25,-92.66 674.46,-86.24"/>
</g>
</g>
</svg>
