<?xml version="1.0" encoding="UTF-8" standalone="no"?>
<!DOCTYPE svg PUBLIC "-//W3C//DTD SVG 1.1//EN"
 "http://www.w3.org/Graphics/SVG/1.1/DTD/svg11.dtd">
<!-- Generated by graphviz version 8.0.2 (20230410.1723)
 -->
<!-- Title: BaseBuildingClass Pages: 1 -->
<svg width="607pt" height="156pt"
 viewBox="0.00 0.00 607.00 155.50" xmlns="http://www.w3.org/2000/svg" xmlns:xlink="http://www.w3.org/1999/xlink">
<g id="graph0" class="graph" transform="scale(1 1) rotate(0) translate(4 151.5)">
<title>BaseBuildingClass</title>
<!-- Node1 -->
<g id="node1" class="node">
<title>Node1</title>
<g id="a_node1"><a xlink:title=" ">
<polygon fill="#999999" stroke="#666666" points="253,-77 155,-77 155,-58 253,-58 253,-77"/>
<text text-anchor="middle" x="204" y="-65" font-family="Helvetica,sans-Serif" font-size="10.00">BaseBuildingClass</text>
</a>
</g>
</g>
<!-- Node3 -->
<g id="node3" class="node">
<title>Node3</title>
<g id="a_node3"><a xlink:href="interfaceBuildingClass.html" target="_top" xlink:title=" ">
<polygon fill="white" stroke="#666666" points="400,-142 324,-142 324,-123 400,-123 400,-142"/>
<text text-anchor="middle" x="362" y="-130" font-family="Helvetica,sans-Serif" font-size="10.00">BuildingClass</text>
</a>
</g>
</g>
<!-- Node1&#45;&gt;Node3 -->
<g id="edge2" class="edge">
<title>Node1&#45;&gt;Node3</title>
<path fill="none" stroke="#63b8ff" d="M229.59,-83.05C245.94,-92.85 268.15,-105.19 289,-113.5 300.05,-117.91 312.45,-121.6 323.81,-124.52"/>
<polygon fill="#63b8ff" stroke="#63b8ff" points="231.59,-79.56 221.24,-77.33 227.94,-85.53 231.59,-79.56"/>
</g>
<!-- Node5 -->
<g id="node5" class="node">
<title>Node5</title>
<g id="a_node5"><a xlink:href="interfaceSCR__BuildingRegionEntityClass.html" target="_top" xlink:title=" ">
<polygon fill="white" stroke="#666666" points="428,-104.5 296,-104.5 296,-74.5 428,-74.5 428,-104.5"/>
<text text-anchor="start" x="304" y="-92.5" font-family="Helvetica,sans-Serif" font-size="10.00">SCR_BuildingRegionEntity</text>
<text text-anchor="middle" x="362" y="-81.5" font-family="Helvetica,sans-Serif" font-size="10.00">Class</text>
</a>
</g>
</g>
<!-- Node1&#45;&gt;Node5 -->
<g id="edge4" class="edge">
<title>Node1&#45;&gt;Node5</title>
<path fill="none" stroke="#63b8ff" d="M263.71,-75.78C274.11,-77.25 285,-78.78 295.58,-80.27"/>
<polygon fill="#63b8ff" stroke="#63b8ff" points="264.47,-72.21 254.08,-74.28 263.49,-79.14 264.47,-72.21"/>
</g>
<!-- Node6 -->
<g id="node6" class="node">
<title>Node6</title>
<g id="a_node6"><a xlink:href="interfaceSCR__FiringRangeTargetClass.html" target="_top" xlink:title=" ">
<polygon fill="white" stroke="#666666" points="435,-56 289,-56 289,-37 435,-37 435,-56"/>
<text text-anchor="middle" x="362" y="-44" font-family="Helvetica,sans-Serif" font-size="10.00">SCR_FiringRangeTargetClass</text>
</a>
</g>
</g>
<!-- Node1&#45;&gt;Node6 -->
<g id="edge5" class="edge">
<title>Node1&#45;&gt;Node6</title>
<path fill="none" stroke="#63b8ff" d="M263.91,-59.57C272.01,-58.48 280.4,-57.35 288.7,-56.23"/>
<polygon fill="#63b8ff" stroke="#63b8ff" points="263.52,-56.23 254.08,-61.03 264.46,-63.16 263.52,-56.23"/>
</g>
<!-- Node7 -->
<g id="node7" class="node">
<title>Node7</title>
<g id="a_node7"><a xlink:href="interfaceSCR__FragmentEntityClass.html" target="_top" xlink:title=" ">
<polygon fill="white" stroke="#666666" points="429,-19 295,-19 295,0 429,0 429,-19"/>
<text text-anchor="middle" x="362" y="-7" font-family="Helvetica,sans-Serif" font-size="10.00">SCR_FragmentEntityClass</text>
</a>
</g>
</g>
<!-- Node1&#45;&gt;Node7 -->
<g id="edge6" class="edge">
<title>Node1&#45;&gt;Node7</title>
<path fill="none" stroke="#63b8ff" d="M232.58,-52.65C248.69,-44.41 269.61,-34.46 289,-27.5 297.37,-24.5 306.45,-21.8 315.27,-19.47"/>
<polygon fill="#63b8ff" stroke="#63b8ff" points="231.49,-49.79 224.23,-57.51 234.72,-56 231.49,-49.79"/>
</g>
<!-- Node2 -->
<g id="node2" class="node">
<title>Node2</title>
<g id="a_node2"><a xlink:title=" ">
<polygon fill="white" stroke="#666666" points="119,-77 0,-77 0,-58 119,-58 119,-77"/>
<text text-anchor="middle" x="59.5" y="-65" font-family="Helvetica,sans-Serif" font-size="10.00">StaticModelEntityClass</text>
</a>
</g>
</g>
<!-- Node2&#45;&gt;Node1 -->
<g id="edge1" class="edge">
<title>Node2&#45;&gt;Node1</title>
<path fill="none" stroke="#63b8ff" d="M130.17,-67.5C138.49,-67.5 146.84,-67.5 154.77,-67.5"/>
<polygon fill="#63b8ff" stroke="#63b8ff" points="130.28,-64 120.28,-67.5 130.28,-71 130.28,-64"/>
</g>
<!-- Node4 -->
<g id="node4" class="node">
<title>Node4</title>
<g id="a_node4"><a xlink:href="interfaceSCR__DestructibleBuildingEntityClass.html" target="_top" xlink:title=" ">
<polygon fill="white" stroke="#666666" points="599,-147.5 471,-147.5 471,-117.5 599,-117.5 599,-147.5"/>
<text text-anchor="start" x="479" y="-135.5" font-family="Helvetica,sans-Serif" font-size="10.00">SCR_DestructibleBuilding</text>
<text text-anchor="middle" x="535" y="-124.5" font-family="Helvetica,sans-Serif" font-size="10.00">EntityClass</text>
</a>
</g>
</g>
<!-- Node3&#45;&gt;Node4 -->
<g id="edge3" class="edge">
<title>Node3&#45;&gt;Node4</title>
<path fill="none" stroke="#63b8ff" d="M410.93,-132.5C429.47,-132.5 450.96,-132.5 470.73,-132.5"/>
<polygon fill="#63b8ff" stroke="#63b8ff" points="411.1,-129 401.1,-132.5 411.1,-136 411.1,-129"/>
</g>
</g>
</svg>
