<?xml version="1.0" encoding="UTF-8" standalone="no"?>
<!DOCTYPE svg PUBLIC "-//W3C//DTD SVG 1.1//EN"
 "http://www.w3.org/Graphics/SVG/1.1/DTD/svg11.dtd">
<!-- Generated by graphviz version 8.0.2 (20230410.1723)
 -->
<!-- Title: SCR_ScenarioFrameworkWaypointScripted Pages: 1 -->
<svg width="1044pt" height="748pt"
 viewBox="0.00 0.00 1044.00 748.00" xmlns="http://www.w3.org/2000/svg" xmlns:xlink="http://www.w3.org/1999/xlink">
<g id="graph0" class="graph" transform="scale(1 1) rotate(0) translate(4 744)">
<title>SCR_ScenarioFrameworkWaypointScripted</title>
<!-- Node1 -->
<g id="node1" class="node">
<title>Node1</title>
<g id="a_node1"><a xlink:title=" ">
<polygon fill="#999999" stroke="#666666" points="376,-481 206,-481 206,-451 376,-451 376,-481"/>
<text text-anchor="start" x="214" y="-469" font-family="Helvetica,sans-Serif" font-size="10.00">SCR_ScenarioFrameworkWaypoint</text>
<text text-anchor="middle" x="291" y="-458" font-family="Helvetica,sans-Serif" font-size="10.00">Scripted</text>
</a>
</g>
</g>
<!-- Node3 -->
<g id="node3" class="node">
<title>Node3</title>
<g id="a_node3"><a xlink:href="interfaceSCR__ScenarioFrameworkWaypointBoarding.html" target="_top" xlink:title=" ">
<polygon fill="white" stroke="#666666" points="593,-692 423,-692 423,-662 593,-662 593,-692"/>
<text text-anchor="start" x="431" y="-680" font-family="Helvetica,sans-Serif" font-size="10.00">SCR_ScenarioFrameworkWaypoint</text>
<text text-anchor="middle" x="508" y="-669" font-family="Helvetica,sans-Serif" font-size="10.00">Boarding</text>
</a>
</g>
</g>
<!-- Node1&#45;&gt;Node3 -->
<g id="edge2" class="edge">
<title>Node1&#45;&gt;Node3</title>
<path fill="none" stroke="#63b8ff" d="M305.2,-490.7C324.71,-525.31 364.14,-588.52 412,-629 428.08,-642.6 448.68,-653.61 466.58,-661.63"/>
<polygon fill="#63b8ff" stroke="#63b8ff" points="307.92,-489.39 300.02,-482.33 301.8,-492.78 307.92,-489.39"/>
</g>
<!-- Node8 -->
<g id="node8" class="node">
<title>Node8</title>
<g id="a_node8"><a xlink:href="interfaceSCR__ScenarioFrameworkWaypointEntity.html" target="_top" xlink:title=" ">
<polygon fill="white" stroke="#666666" points="593,-620 423,-620 423,-590 593,-590 593,-620"/>
<text text-anchor="start" x="431" y="-608" font-family="Helvetica,sans-Serif" font-size="10.00">SCR_ScenarioFrameworkWaypoint</text>
<text text-anchor="middle" x="508" y="-597" font-family="Helvetica,sans-Serif" font-size="10.00">Entity</text>
</a>
</g>
</g>
<!-- Node1&#45;&gt;Node8 -->
<g id="edge7" class="edge">
<title>Node1&#45;&gt;Node8</title>
<path fill="none" stroke="#63b8ff" d="M310.1,-489.52C331.57,-515.77 369.82,-557.64 412,-581 417.95,-584.3 424.36,-587.15 430.95,-589.62"/>
<polygon fill="#63b8ff" stroke="#63b8ff" points="312.46,-487.87 303.48,-482.26 307,-492.25 312.46,-487.87"/>
</g>
<!-- Node12 -->
<g id="node12" class="node">
<title>Node12</title>
<g id="a_node12"><a xlink:href="interfaceSCR__ScenarioFrameworkWaypointForcedMove.html" target="_top" xlink:title=" ">
<polygon fill="white" stroke="#666666" points="593,-572 423,-572 423,-542 593,-542 593,-572"/>
<text text-anchor="start" x="431" y="-560" font-family="Helvetica,sans-Serif" font-size="10.00">SCR_ScenarioFrameworkWaypoint</text>
<text text-anchor="middle" x="508" y="-549" font-family="Helvetica,sans-Serif" font-size="10.00">ForcedMove</text>
</a>
</g>
</g>
<!-- Node1&#45;&gt;Node12 -->
<g id="edge11" class="edge">
<title>Node1&#45;&gt;Node12</title>
<path fill="none" stroke="#63b8ff" d="M324.15,-487.01C347.68,-501.61 380.82,-520.61 412,-533 419.98,-536.17 428.51,-539.03 437.06,-541.57"/>
<polygon fill="#63b8ff" stroke="#63b8ff" points="326.33,-483.61 316,-481.25 322.6,-489.54 326.33,-483.61"/>
</g>
<!-- Node13 -->
<g id="node13" class="node">
<title>Node13</title>
<g id="a_node13"><a xlink:href="interfaceSCR__ScenarioFrameworkWaypointGetOut.html" target="_top" xlink:title=" ">
<polygon fill="white" stroke="#666666" points="593,-524 423,-524 423,-494 593,-494 593,-524"/>
<text text-anchor="start" x="431" y="-512" font-family="Helvetica,sans-Serif" font-size="10.00">SCR_ScenarioFrameworkWaypoint</text>
<text text-anchor="middle" x="508" y="-501" font-family="Helvetica,sans-Serif" font-size="10.00">GetOut</text>
</a>
</g>
</g>
<!-- Node1&#45;&gt;Node13 -->
<g id="edge12" class="edge">
<title>Node1&#45;&gt;Node13</title>
<path fill="none" stroke="#63b8ff" d="M380.02,-483.6C396.47,-486.89 413.55,-490.31 429.65,-493.53"/>
<polygon fill="#63b8ff" stroke="#63b8ff" points="380.81,-479.99 370.32,-481.46 379.44,-486.86 380.81,-479.99"/>
</g>
<!-- Node14 -->
<g id="node14" class="node">
<title>Node14</title>
<g id="a_node14"><a xlink:href="interfaceSCR__ScenarioFrameworkWaypointMove.html" target="_top" xlink:title=" ">
<polygon fill="white" stroke="#666666" points="604,-475.5 412,-475.5 412,-456.5 604,-456.5 604,-475.5"/>
<text text-anchor="middle" x="508" y="-463.5" font-family="Helvetica,sans-Serif" font-size="10.00">SCR_ScenarioFrameworkWaypointMove</text>
</a>
</g>
</g>
<!-- Node1&#45;&gt;Node14 -->
<g id="edge13" class="edge">
<title>Node1&#45;&gt;Node14</title>
<path fill="none" stroke="#63b8ff" d="M387.09,-466C395.31,-466 403.63,-466 411.86,-466"/>
<polygon fill="#63b8ff" stroke="#63b8ff" points="387.36,-462.5 377.36,-466 387.36,-469.5 387.36,-462.5"/>
</g>
<!-- Node15 -->
<g id="node15" class="node">
<title>Node15</title>
<g id="a_node15"><a xlink:href="interfaceSCR__ScenarioFrameworkWaypointPatrol.html" target="_top" xlink:title=" ">
<polygon fill="white" stroke="#666666" points="593,-438 423,-438 423,-408 593,-408 593,-438"/>
<text text-anchor="start" x="431" y="-426" font-family="Helvetica,sans-Serif" font-size="10.00">SCR_ScenarioFrameworkWaypoint</text>
<text text-anchor="middle" x="508" y="-415" font-family="Helvetica,sans-Serif" font-size="10.00">Patrol</text>
</a>
</g>
</g>
<!-- Node1&#45;&gt;Node15 -->
<g id="edge14" class="edge">
<title>Node1&#45;&gt;Node15</title>
<path fill="none" stroke="#63b8ff" d="M380.02,-448.4C396.47,-445.11 413.55,-441.69 429.65,-438.47"/>
<polygon fill="#63b8ff" stroke="#63b8ff" points="379.44,-445.14 370.32,-450.54 380.81,-452.01 379.44,-445.14"/>
</g>
<!-- Node16 -->
<g id="node16" class="node">
<title>Node16</title>
<g id="a_node16"><a xlink:href="interfaceSCR__ScenarioFrameworkWaypointPatrolHierarchy.html" target="_top" xlink:title=" ">
<polygon fill="white" stroke="#666666" points="593,-390 423,-390 423,-360 593,-360 593,-390"/>
<text text-anchor="start" x="431" y="-378" font-family="Helvetica,sans-Serif" font-size="10.00">SCR_ScenarioFrameworkWaypoint</text>
<text text-anchor="middle" x="508" y="-367" font-family="Helvetica,sans-Serif" font-size="10.00">PatrolHierarchy</text>
</a>
</g>
</g>
<!-- Node1&#45;&gt;Node16 -->
<g id="edge15" class="edge">
<title>Node1&#45;&gt;Node16</title>
<path fill="none" stroke="#63b8ff" d="M324.15,-444.99C347.68,-430.39 380.82,-411.39 412,-399 419.98,-395.83 428.51,-392.97 437.06,-390.43"/>
<polygon fill="#63b8ff" stroke="#63b8ff" points="322.6,-442.46 316,-450.75 326.33,-448.39 322.6,-442.46"/>
</g>
<!-- Node17 -->
<g id="node17" class="node">
<title>Node17</title>
<g id="a_node17"><a xlink:href="interfaceSCR__ScenarioFrameworkWaypointSmartAction.html" target="_top" xlink:title=" ">
<polygon fill="white" stroke="#666666" points="593,-342 423,-342 423,-312 593,-312 593,-342"/>
<text text-anchor="start" x="431" y="-330" font-family="Helvetica,sans-Serif" font-size="10.00">SCR_ScenarioFrameworkWaypoint</text>
<text text-anchor="middle" x="508" y="-319" font-family="Helvetica,sans-Serif" font-size="10.00">SmartAction</text>
</a>
</g>
</g>
<!-- Node1&#45;&gt;Node17 -->
<g id="edge16" class="edge">
<title>Node1&#45;&gt;Node17</title>
<path fill="none" stroke="#63b8ff" d="M310.1,-442.48C331.57,-416.23 369.82,-374.36 412,-351 417.95,-347.7 424.36,-344.85 430.95,-342.38"/>
<polygon fill="#63b8ff" stroke="#63b8ff" points="307,-439.75 303.48,-449.74 312.46,-444.13 307,-439.75"/>
</g>
<!-- Node22 -->
<g id="node22" class="node">
<title>Node22</title>
<g id="a_node22"><a xlink:href="interfaceSCR__ScenarioFrameworkWaypointTimed.html" target="_top" xlink:title=" ">
<polygon fill="white" stroke="#666666" points="593,-198 423,-198 423,-168 593,-168 593,-198"/>
<text text-anchor="start" x="431" y="-186" font-family="Helvetica,sans-Serif" font-size="10.00">SCR_ScenarioFrameworkWaypoint</text>
<text text-anchor="middle" x="508" y="-175" font-family="Helvetica,sans-Serif" font-size="10.00">Timed</text>
</a>
</g>
</g>
<!-- Node1&#45;&gt;Node22 -->
<g id="edge21" class="edge">
<title>Node1&#45;&gt;Node22</title>
<path fill="none" stroke="#63b8ff" d="M309.33,-441.91C332.43,-409.93 374.73,-351.81 412,-303 441.03,-264.99 476.2,-221.1 494.53,-198.4"/>
<polygon fill="#63b8ff" stroke="#63b8ff" points="306.08,-439.43 303.07,-449.59 311.76,-443.52 306.08,-439.43"/>
</g>
<!-- Node2 -->
<g id="node2" class="node">
<title>Node2</title>
<g id="a_node2"><a xlink:href="interfaceSCR__ScenarioFrameworkWaypoint.html" target="_top" xlink:title=" ">
<polygon fill="white" stroke="#666666" points="170,-475.5 0,-475.5 0,-456.5 170,-456.5 170,-475.5"/>
<text text-anchor="middle" x="85" y="-463.5" font-family="Helvetica,sans-Serif" font-size="10.00">SCR_ScenarioFrameworkWaypoint</text>
</a>
</g>
</g>
<!-- Node2&#45;&gt;Node1 -->
<g id="edge1" class="edge">
<title>Node2&#45;&gt;Node1</title>
<path fill="none" stroke="#63b8ff" d="M181.41,-466C189.49,-466 197.63,-466 205.62,-466"/>
<polygon fill="#63b8ff" stroke="#63b8ff" points="181.45,-462.5 171.45,-466 181.45,-469.5 181.45,-462.5"/>
</g>
<!-- Node4 -->
<g id="node4" class="node">
<title>Node4</title>
<g id="a_node4"><a xlink:href="interfaceSCR__ScenarioFrameworkWaypointBoardingEntity.html" target="_top" xlink:title=" ">
<polygon fill="white" stroke="#666666" points="820,-740 650,-740 650,-710 820,-710 820,-740"/>
<text text-anchor="start" x="658" y="-728" font-family="Helvetica,sans-Serif" font-size="10.00">SCR_ScenarioFrameworkWaypoint</text>
<text text-anchor="middle" x="735" y="-717" font-family="Helvetica,sans-Serif" font-size="10.00">BoardingEntity</text>
</a>
</g>
</g>
<!-- Node3&#45;&gt;Node4 -->
<g id="edge3" class="edge">
<title>Node3&#45;&gt;Node4</title>
<path fill="none" stroke="#63b8ff" d="M592.13,-694.73C614.97,-699.61 639.54,-704.85 661.71,-709.58"/>
<polygon fill="#63b8ff" stroke="#63b8ff" points="592.94,-691.12 582.43,-692.45 591.48,-697.96 592.94,-691.12"/>
</g>
<!-- Node6 -->
<g id="node6" class="node">
<title>Node6</title>
<g id="a_node6"><a xlink:href="interfaceSCR__ScenarioFrameworkWaypointBoardingTimed.html" target="_top" xlink:title=" ">
<polygon fill="white" stroke="#666666" points="820,-692 650,-692 650,-662 820,-662 820,-692"/>
<text text-anchor="start" x="658" y="-680" font-family="Helvetica,sans-Serif" font-size="10.00">SCR_ScenarioFrameworkWaypoint</text>
<text text-anchor="middle" x="735" y="-669" font-family="Helvetica,sans-Serif" font-size="10.00">BoardingTimed</text>
</a>
</g>
</g>
<!-- Node3&#45;&gt;Node6 -->
<g id="edge5" class="edge">
<title>Node3&#45;&gt;Node6</title>
<path fill="none" stroke="#63b8ff" d="M604.34,-677C619.47,-677 635.01,-677 649.85,-677"/>
<polygon fill="#63b8ff" stroke="#63b8ff" points="604.42,-673.5 594.42,-677 604.42,-680.5 604.42,-673.5"/>
</g>
<!-- Node5 -->
<g id="node5" class="node">
<title>Node5</title>
<g id="a_node5"><a xlink:href="interfaceSCR__ScenarioFrameworkWaypointGetIn.html" target="_top" xlink:title=" ">
<polygon fill="white" stroke="#666666" points="1036,-740 866,-740 866,-710 1036,-710 1036,-740"/>
<text text-anchor="start" x="874" y="-728" font-family="Helvetica,sans-Serif" font-size="10.00">SCR_ScenarioFrameworkWaypoint</text>
<text text-anchor="middle" x="951" y="-717" font-family="Helvetica,sans-Serif" font-size="10.00">GetIn</text>
</a>
</g>
</g>
<!-- Node4&#45;&gt;Node5 -->
<g id="edge4" class="edge">
<title>Node4&#45;&gt;Node5</title>
<path fill="none" stroke="#63b8ff" d="M831.24,-725C842.76,-725 854.46,-725 865.81,-725"/>
<polygon fill="#63b8ff" stroke="#63b8ff" points="831.27,-721.5 821.27,-725 831.27,-728.5 831.27,-721.5"/>
</g>
<!-- Node7 -->
<g id="node7" class="node">
<title>Node7</title>
<g id="a_node7"><a xlink:href="interfaceSCR__ScenarioFrameworkWaypointGetInNearest.html" target="_top" xlink:title=" ">
<polygon fill="white" stroke="#666666" points="1036,-692 866,-692 866,-662 1036,-662 1036,-692"/>
<text text-anchor="start" x="874" y="-680" font-family="Helvetica,sans-Serif" font-size="10.00">SCR_ScenarioFrameworkWaypoint</text>
<text text-anchor="middle" x="951" y="-669" font-family="Helvetica,sans-Serif" font-size="10.00">GetInNearest</text>
</a>
</g>
</g>
<!-- Node6&#45;&gt;Node7 -->
<g id="edge6" class="edge">
<title>Node6&#45;&gt;Node7</title>
<path fill="none" stroke="#63b8ff" d="M831.24,-677C842.76,-677 854.46,-677 865.81,-677"/>
<polygon fill="#63b8ff" stroke="#63b8ff" points="831.27,-673.5 821.27,-677 831.27,-680.5 831.27,-673.5"/>
</g>
<!-- Node9 -->
<g id="node9" class="node">
<title>Node9</title>
<g id="a_node9"><a xlink:href="interfaceSCR__ScenarioFrameworkWaypointAttack.html" target="_top" xlink:title=" ">
<polygon fill="white" stroke="#666666" points="820,-644 650,-644 650,-614 820,-614 820,-644"/>
<text text-anchor="start" x="658" y="-632" font-family="Helvetica,sans-Serif" font-size="10.00">SCR_ScenarioFrameworkWaypoint</text>
<text text-anchor="middle" x="735" y="-621" font-family="Helvetica,sans-Serif" font-size="10.00">Attack</text>
</a>
</g>
</g>
<!-- Node8&#45;&gt;Node9 -->
<g id="edge8" class="edge">
<title>Node8&#45;&gt;Node9</title>
<path fill="none" stroke="#63b8ff" d="M604.34,-615.17C619.47,-616.78 635.01,-618.44 649.85,-620.02"/>
<polygon fill="#63b8ff" stroke="#63b8ff" points="604.74,-611.59 594.42,-614 603.99,-618.55 604.74,-611.59"/>
</g>
<!-- Node10 -->
<g id="node10" class="node">
<title>Node10</title>
<g id="a_node10"><a xlink:href="interfaceSCR__ScenarioFrameworkWaypointFollow.html" target="_top" xlink:title=" ">
<polygon fill="white" stroke="#666666" points="820,-596 650,-596 650,-566 820,-566 820,-596"/>
<text text-anchor="start" x="658" y="-584" font-family="Helvetica,sans-Serif" font-size="10.00">SCR_ScenarioFrameworkWaypoint</text>
<text text-anchor="middle" x="735" y="-573" font-family="Helvetica,sans-Serif" font-size="10.00">Follow</text>
</a>
</g>
</g>
<!-- Node8&#45;&gt;Node10 -->
<g id="edge9" class="edge">
<title>Node8&#45;&gt;Node10</title>
<path fill="none" stroke="#63b8ff" d="M604.34,-594.83C619.47,-593.22 635.01,-591.56 649.85,-589.98"/>
<polygon fill="#63b8ff" stroke="#63b8ff" points="603.99,-591.45 594.42,-596 604.74,-598.41 603.99,-591.45"/>
</g>
<!-- Node11 -->
<g id="node11" class="node">
<title>Node11</title>
<g id="a_node11"><a xlink:href="interfaceSCR__ScenarioFrameworkWaypointHeal.html" target="_top" xlink:title=" ">
<polygon fill="white" stroke="#666666" points="829.5,-547.5 640.5,-547.5 640.5,-528.5 829.5,-528.5 829.5,-547.5"/>
<text text-anchor="middle" x="735" y="-535.5" font-family="Helvetica,sans-Serif" font-size="10.00">SCR_ScenarioFrameworkWaypointHeal</text>
</a>
</g>
</g>
<!-- Node8&#45;&gt;Node11 -->
<g id="edge10" class="edge">
<title>Node8&#45;&gt;Node11</title>
<path fill="none" stroke="#63b8ff" d="M591.39,-586.07C595.71,-584.49 599.93,-582.81 604,-581 621.58,-573.2 622.24,-564.38 640,-557 648.76,-553.36 658.29,-550.4 667.79,-547.99"/>
<polygon fill="#63b8ff" stroke="#63b8ff" points="590.55,-583 582.21,-589.54 592.8,-589.62 590.55,-583"/>
</g>
<!-- Node18 -->
<g id="node18" class="node">
<title>Node18</title>
<g id="a_node18"><a xlink:href="interfaceSCR__ScenarioFrameworkWaypointCaptureRelay.html" target="_top" xlink:title=" ">
<polygon fill="white" stroke="#666666" points="820,-438 650,-438 650,-408 820,-408 820,-438"/>
<text text-anchor="start" x="658" y="-426" font-family="Helvetica,sans-Serif" font-size="10.00">SCR_ScenarioFrameworkWaypoint</text>
<text text-anchor="middle" x="735" y="-415" font-family="Helvetica,sans-Serif" font-size="10.00">CaptureRelay</text>
</a>
</g>
</g>
<!-- Node17&#45;&gt;Node18 -->
<g id="edge17" class="edge">
<title>Node17&#45;&gt;Node18</title>
<path fill="none" stroke="#63b8ff" d="M597.77,-347.2C599.9,-348.39 601.99,-349.66 604,-351 626.2,-365.78 617.82,-384.19 640,-399 644.9,-402.27 650.22,-405.1 655.75,-407.54"/>
<polygon fill="#63b8ff" stroke="#63b8ff" points="599.59,-343.7 589.08,-342.4 596.48,-349.98 599.59,-343.7"/>
</g>
<!-- Node19 -->
<g id="node19" class="node">
<title>Node19</title>
<g id="a_node19"><a xlink:href="interfaceSCR__ScenarioFrameworkWaypointObservationPost.html" target="_top" xlink:title=" ">
<polygon fill="white" stroke="#666666" points="820,-390 650,-390 650,-360 820,-360 820,-390"/>
<text text-anchor="start" x="658" y="-378" font-family="Helvetica,sans-Serif" font-size="10.00">SCR_ScenarioFrameworkWaypoint</text>
<text text-anchor="middle" x="735" y="-367" font-family="Helvetica,sans-Serif" font-size="10.00">ObservationPost</text>
</a>
</g>
</g>
<!-- Node17&#45;&gt;Node19 -->
<g id="edge18" class="edge">
<title>Node17&#45;&gt;Node19</title>
<path fill="none" stroke="#63b8ff" d="M592.13,-344.73C614.97,-349.61 639.54,-354.85 661.71,-359.58"/>
<polygon fill="#63b8ff" stroke="#63b8ff" points="592.94,-341.12 582.43,-342.45 591.48,-347.96 592.94,-341.12"/>
</g>
<!-- Node20 -->
<g id="node20" class="node">
<title>Node20</title>
<g id="a_node20"><a xlink:href="interfaceSCR__ScenarioFrameworkWaypointOpenGate.html" target="_top" xlink:title=" ">
<polygon fill="white" stroke="#666666" points="820,-342 650,-342 650,-312 820,-312 820,-342"/>
<text text-anchor="start" x="658" y="-330" font-family="Helvetica,sans-Serif" font-size="10.00">SCR_ScenarioFrameworkWaypoint</text>
<text text-anchor="middle" x="735" y="-319" font-family="Helvetica,sans-Serif" font-size="10.00">OpenGate</text>
</a>
</g>
</g>
<!-- Node17&#45;&gt;Node20 -->
<g id="edge19" class="edge">
<title>Node17&#45;&gt;Node20</title>
<path fill="none" stroke="#63b8ff" d="M604.34,-327C619.47,-327 635.01,-327 649.85,-327"/>
<polygon fill="#63b8ff" stroke="#63b8ff" points="604.42,-323.5 594.42,-327 604.42,-330.5 604.42,-323.5"/>
</g>
<!-- Node21 -->
<g id="node21" class="node">
<title>Node21</title>
<g id="a_node21"><a xlink:href="interfaceSCR__ScenarioFrameworkWaypointUserAction.html" target="_top" xlink:title=" ">
<polygon fill="white" stroke="#666666" points="820,-294 650,-294 650,-264 820,-264 820,-294"/>
<text text-anchor="start" x="658" y="-282" font-family="Helvetica,sans-Serif" font-size="10.00">SCR_ScenarioFrameworkWaypoint</text>
<text text-anchor="middle" x="735" y="-271" font-family="Helvetica,sans-Serif" font-size="10.00">UserAction</text>
</a>
</g>
</g>
<!-- Node17&#45;&gt;Node21 -->
<g id="edge20" class="edge">
<title>Node17&#45;&gt;Node21</title>
<path fill="none" stroke="#63b8ff" d="M592.13,-309.27C614.97,-304.39 639.54,-299.15 661.71,-294.42"/>
<polygon fill="#63b8ff" stroke="#63b8ff" points="591.48,-306.04 582.43,-311.55 592.94,-312.88 591.48,-306.04"/>
</g>
<!-- Node23 -->
<g id="node23" class="node">
<title>Node23</title>
<g id="a_node23"><a xlink:href="interfaceSCR__ScenarioFrameworkWaypointScout.html" target="_top" xlink:title=" ">
<polygon fill="white" stroke="#666666" points="820,-246 650,-246 650,-216 820,-216 820,-246"/>
<text text-anchor="start" x="658" y="-234" font-family="Helvetica,sans-Serif" font-size="10.00">SCR_ScenarioFrameworkWaypoint</text>
<text text-anchor="middle" x="735" y="-223" font-family="Helvetica,sans-Serif" font-size="10.00">Scout</text>
</a>
</g>
</g>
<!-- Node22&#45;&gt;Node23 -->
<g id="edge22" class="edge">
<title>Node22&#45;&gt;Node23</title>
<path fill="none" stroke="#63b8ff" d="M592.13,-200.73C614.97,-205.61 639.54,-210.85 661.71,-215.58"/>
<polygon fill="#63b8ff" stroke="#63b8ff" points="592.94,-197.12 582.43,-198.45 591.48,-203.96 592.94,-197.12"/>
</g>
<!-- Node24 -->
<g id="node24" class="node">
<title>Node24</title>
<g id="a_node24"><a xlink:href="interfaceSCR__ScenarioFrameworkWaypointSearchAndDestroy.html" target="_top" xlink:title=" ">
<polygon fill="white" stroke="#666666" points="820,-198 650,-198 650,-168 820,-168 820,-198"/>
<text text-anchor="start" x="658" y="-186" font-family="Helvetica,sans-Serif" font-size="10.00">SCR_ScenarioFrameworkWaypoint</text>
<text text-anchor="middle" x="735" y="-175" font-family="Helvetica,sans-Serif" font-size="10.00">SearchAndDestroy</text>
</a>
</g>
</g>
<!-- Node22&#45;&gt;Node24 -->
<g id="edge23" class="edge">
<title>Node22&#45;&gt;Node24</title>
<path fill="none" stroke="#63b8ff" d="M604.34,-183C619.47,-183 635.01,-183 649.85,-183"/>
<polygon fill="#63b8ff" stroke="#63b8ff" points="604.42,-179.5 594.42,-183 604.42,-186.5 604.42,-179.5"/>
</g>
<!-- Node25 -->
<g id="node25" class="node">
<title>Node25</title>
<g id="a_node25"><a xlink:href="interfaceSCR__ScenarioFrameworkWaypointTimedDefend.html" target="_top" xlink:title=" ">
<polygon fill="white" stroke="#666666" points="820,-150 650,-150 650,-120 820,-120 820,-150"/>
<text text-anchor="start" x="658" y="-138" font-family="Helvetica,sans-Serif" font-size="10.00">SCR_ScenarioFrameworkWaypoint</text>
<text text-anchor="middle" x="735" y="-127" font-family="Helvetica,sans-Serif" font-size="10.00">TimedDefend</text>
</a>
</g>
</g>
<!-- Node22&#45;&gt;Node25 -->
<g id="edge24" class="edge">
<title>Node22&#45;&gt;Node25</title>
<path fill="none" stroke="#63b8ff" d="M592.13,-165.27C614.97,-160.39 639.54,-155.15 661.71,-150.42"/>
<polygon fill="#63b8ff" stroke="#63b8ff" points="591.48,-162.04 582.43,-167.55 592.94,-168.88 591.48,-162.04"/>
</g>
<!-- Node32 -->
<g id="node32" class="node">
<title>Node32</title>
<g id="a_node32"><a xlink:href="interfaceSCR__ScenarioFrameworkWaypointWait.html" target="_top" xlink:title=" ">
<polygon fill="white" stroke="#666666" points="830,-101.5 640,-101.5 640,-82.5 830,-82.5 830,-101.5"/>
<text text-anchor="middle" x="735" y="-89.5" font-family="Helvetica,sans-Serif" font-size="10.00">SCR_ScenarioFrameworkWaypointWait</text>
</a>
</g>
</g>
<!-- Node22&#45;&gt;Node32 -->
<g id="edge31" class="edge">
<title>Node22&#45;&gt;Node32</title>
<path fill="none" stroke="#63b8ff" d="M540.9,-161.86C566.66,-145.71 604.35,-124.06 640,-111 649.85,-107.39 660.54,-104.41 671.07,-101.96"/>
<polygon fill="#63b8ff" stroke="#63b8ff" points="539.2,-159.43 532.65,-167.76 542.96,-165.34 539.2,-159.43"/>
</g>
<!-- Node26 -->
<g id="node26" class="node">
<title>Node26</title>
<g id="a_node26"><a xlink:href="interfaceSCR__ScenarioFrameworkWaypointDefend.html" target="_top" xlink:title=" ">
<polygon fill="white" stroke="#666666" points="1036,-270 866,-270 866,-240 1036,-240 1036,-270"/>
<text text-anchor="start" x="874" y="-258" font-family="Helvetica,sans-Serif" font-size="10.00">SCR_ScenarioFrameworkWaypoint</text>
<text text-anchor="middle" x="951" y="-247" font-family="Helvetica,sans-Serif" font-size="10.00">Defend</text>
</a>
</g>
</g>
<!-- Node25&#45;&gt;Node26 -->
<g id="edge25" class="edge">
<title>Node25&#45;&gt;Node26</title>
<path fill="none" stroke="#63b8ff" d="M826.08,-156.06C827.42,-156.99 828.73,-157.98 830,-159 857.85,-181.46 838.47,-208.15 866,-231 869.97,-234.29 874.36,-237.14 879,-239.59"/>
<polygon fill="#63b8ff" stroke="#63b8ff" points="828.15,-152.61 817.78,-150.43 824.53,-158.6 828.15,-152.61"/>
</g>
<!-- Node27 -->
<g id="node27" class="node">
<title>Node27</title>
<g id="a_node27"><a xlink:href="interfaceSCR__ScenarioFrameworkWaypointDefendCP.html" target="_top" xlink:title=" ">
<polygon fill="white" stroke="#666666" points="1036,-222 866,-222 866,-192 1036,-192 1036,-222"/>
<text text-anchor="start" x="874" y="-210" font-family="Helvetica,sans-Serif" font-size="10.00">SCR_ScenarioFrameworkWaypoint</text>
<text text-anchor="middle" x="951" y="-199" font-family="Helvetica,sans-Serif" font-size="10.00">DefendCP</text>
</a>
</g>
</g>
<!-- Node25&#45;&gt;Node27 -->
<g id="edge26" class="edge">
<title>Node25&#45;&gt;Node27</title>
<path fill="none" stroke="#63b8ff" d="M817.39,-153.91C821.7,-155.5 825.93,-157.19 830,-159 847.57,-166.82 848.55,-174.93 866,-183 872.88,-186.18 880.28,-189.04 887.73,-191.57"/>
<polygon fill="#63b8ff" stroke="#63b8ff" points="818.79,-150.35 808.2,-150.43 816.53,-156.98 818.79,-150.35"/>
</g>
<!-- Node28 -->
<g id="node28" class="node">
<title>Node28</title>
<g id="a_node28"><a xlink:href="interfaceSCR__ScenarioFrameworkWaypointDefendHierarchy.html" target="_top" xlink:title=" ">
<polygon fill="white" stroke="#666666" points="1036,-174 866,-174 866,-144 1036,-144 1036,-174"/>
<text text-anchor="start" x="874" y="-162" font-family="Helvetica,sans-Serif" font-size="10.00">SCR_ScenarioFrameworkWaypoint</text>
<text text-anchor="middle" x="951" y="-151" font-family="Helvetica,sans-Serif" font-size="10.00">DefendHierarchy</text>
</a>
</g>
</g>
<!-- Node25&#45;&gt;Node28 -->
<g id="edge27" class="edge">
<title>Node25&#45;&gt;Node28</title>
<path fill="none" stroke="#63b8ff" d="M830.88,-145.64C842.52,-146.95 854.34,-148.27 865.81,-149.56"/>
<polygon fill="#63b8ff" stroke="#63b8ff" points="831.6,-142.09 821.27,-144.45 830.82,-149.04 831.6,-142.09"/>
</g>
<!-- Node29 -->
<g id="node29" class="node">
<title>Node29</title>
<g id="a_node29"><a xlink:href="interfaceSCR__ScenarioFrameworkWaypointDefendLarge.html" target="_top" xlink:title=" ">
<polygon fill="white" stroke="#666666" points="1036,-126 866,-126 866,-96 1036,-96 1036,-126"/>
<text text-anchor="start" x="874" y="-114" font-family="Helvetica,sans-Serif" font-size="10.00">SCR_ScenarioFrameworkWaypoint</text>
<text text-anchor="middle" x="951" y="-103" font-family="Helvetica,sans-Serif" font-size="10.00">DefendLarge</text>
</a>
</g>
</g>
<!-- Node25&#45;&gt;Node29 -->
<g id="edge28" class="edge">
<title>Node25&#45;&gt;Node29</title>
<path fill="none" stroke="#63b8ff" d="M830.88,-124.36C842.52,-123.05 854.34,-121.73 865.81,-120.44"/>
<polygon fill="#63b8ff" stroke="#63b8ff" points="830.82,-120.96 821.27,-125.55 831.6,-127.91 830.82,-120.96"/>
</g>
<!-- Node30 -->
<g id="node30" class="node">
<title>Node30</title>
<g id="a_node30"><a xlink:href="interfaceSCR__ScenarioFrameworkWaypointDefendLargeCO.html" target="_top" xlink:title=" ">
<polygon fill="white" stroke="#666666" points="1036,-78 866,-78 866,-48 1036,-48 1036,-78"/>
<text text-anchor="start" x="874" y="-66" font-family="Helvetica,sans-Serif" font-size="10.00">SCR_ScenarioFrameworkWaypoint</text>
<text text-anchor="middle" x="951" y="-55" font-family="Helvetica,sans-Serif" font-size="10.00">DefendLargeCO</text>
</a>
</g>
</g>
<!-- Node25&#45;&gt;Node30 -->
<g id="edge29" class="edge">
<title>Node25&#45;&gt;Node30</title>
<path fill="none" stroke="#63b8ff" d="M814.45,-116.12C819.78,-114.23 825.01,-112.2 830,-110 847.38,-102.36 848.69,-94.8 866,-87 873.05,-83.82 880.63,-80.96 888.24,-78.41"/>
<polygon fill="#63b8ff" stroke="#63b8ff" points="813.5,-113.08 805.13,-119.57 815.72,-119.72 813.5,-113.08"/>
</g>
<!-- Node31 -->
<g id="node31" class="node">
<title>Node31</title>
<g id="a_node31"><a xlink:href="interfaceSCR__ScenarioFrameworkWaypointLoiterCO.html" target="_top" xlink:title=" ">
<polygon fill="white" stroke="#666666" points="1036,-30 866,-30 866,0 1036,0 1036,-30"/>
<text text-anchor="start" x="874" y="-18" font-family="Helvetica,sans-Serif" font-size="10.00">SCR_ScenarioFrameworkWaypoint</text>
<text text-anchor="middle" x="951" y="-7" font-family="Helvetica,sans-Serif" font-size="10.00">LoiterCO</text>
</a>
</g>
</g>
<!-- Node25&#45;&gt;Node31 -->
<g id="edge30" class="edge">
<title>Node25&#45;&gt;Node31</title>
<path fill="none" stroke="#63b8ff" d="M824.17,-114.27C826.19,-112.93 828.13,-111.51 830,-110 857.49,-87.73 838.71,-61.52 866,-39 869.98,-35.72 874.38,-32.88 879.02,-30.44"/>
<polygon fill="#63b8ff" stroke="#63b8ff" points="822.85,-111.56 815.94,-119.59 826.35,-117.63 822.85,-111.56"/>
</g>
</g>
</svg>
