<?xml version="1.0" encoding="UTF-8" standalone="no"?>
<!DOCTYPE svg PUBLIC "-//W3C//DTD SVG 1.1//EN"
 "http://www.w3.org/Graphics/SVG/1.1/DTD/svg11.dtd">
<!-- Generated by graphviz version 8.0.2 (20230410.1723)
 -->
<!-- Title: AimingComponentClass Pages: 1 -->
<svg width="819pt" height="124pt"
 viewBox="0.00 0.00 819.00 123.50" xmlns="http://www.w3.org/2000/svg" xmlns:xlink="http://www.w3.org/1999/xlink">
<g id="graph0" class="graph" transform="scale(1 1) rotate(0) translate(4 119.5)">
<title>AimingComponentClass</title>
<!-- Node1 -->
<g id="node1" class="node">
<title>Node1</title>
<g id="a_node1"><a xlink:title=" ">
<polygon fill="#999999" stroke="#666666" points="614,-62 493,-62 493,-43 614,-43 614,-62"/>
<text text-anchor="middle" x="553.5" y="-50" font-family="Helvetica,sans-Serif" font-size="10.00">AimingComponentClass</text>
</a>
</g>
</g>
<!-- Node5 -->
<g id="node5" class="node">
<title>Node5</title>
<g id="a_node5"><a xlink:href="interfaceCharacterAimingComponentClass.html" target="_top" xlink:title=" ">
<polygon fill="white" stroke="#666666" points="799.5,-115.5 661.5,-115.5 661.5,-85.5 799.5,-85.5 799.5,-115.5"/>
<text text-anchor="start" x="669.5" y="-103.5" font-family="Helvetica,sans-Serif" font-size="10.00">CharacterAimingComponent</text>
<text text-anchor="middle" x="730.5" y="-92.5" font-family="Helvetica,sans-Serif" font-size="10.00">Class</text>
</a>
</g>
</g>
<!-- Node1&#45;&gt;Node5 -->
<g id="edge4" class="edge">
<title>Node1&#45;&gt;Node5</title>
<path fill="none" stroke="#63b8ff" d="M601.24,-65.32C623.4,-71.4 650.05,-78.71 673.3,-85.08"/>
<polygon fill="#63b8ff" stroke="#63b8ff" points="602.33,-61.72 591.76,-62.45 600.48,-68.47 602.33,-61.72"/>
</g>
<!-- Node6 -->
<g id="node6" class="node">
<title>Node6</title>
<g id="a_node6"><a xlink:href="interfaceCharacterHeadAimingComponentClass.html" target="_top" xlink:title=" ">
<polygon fill="white" stroke="#666666" points="811,-67.5 650,-67.5 650,-37.5 811,-37.5 811,-67.5"/>
<text text-anchor="start" x="658" y="-55.5" font-family="Helvetica,sans-Serif" font-size="10.00">CharacterHeadAimingComponent</text>
<text text-anchor="middle" x="730.5" y="-44.5" font-family="Helvetica,sans-Serif" font-size="10.00">Class</text>
</a>
</g>
</g>
<!-- Node1&#45;&gt;Node6 -->
<g id="edge5" class="edge">
<title>Node1&#45;&gt;Node6</title>
<path fill="none" stroke="#63b8ff" d="M625.09,-52.5C633.16,-52.5 641.43,-52.5 649.61,-52.5"/>
<polygon fill="#63b8ff" stroke="#63b8ff" points="625.24,-49 615.24,-52.5 625.24,-56 625.24,-49"/>
</g>
<!-- Node7 -->
<g id="node7" class="node">
<title>Node7</title>
<g id="a_node7"><a xlink:href="interfaceTurretComponentClass.html" target="_top" xlink:title=" ">
<polygon fill="white" stroke="#666666" points="788.5,-19 672.5,-19 672.5,0 788.5,0 788.5,-19"/>
<text text-anchor="middle" x="730.5" y="-7" font-family="Helvetica,sans-Serif" font-size="10.00">TurretComponentClass</text>
</a>
</g>
</g>
<!-- Node1&#45;&gt;Node7 -->
<g id="edge6" class="edge">
<title>Node1&#45;&gt;Node7</title>
<path fill="none" stroke="#63b8ff" d="M603.98,-39.95C618.77,-36.23 635.04,-32.17 650,-28.5 662.13,-25.53 675.31,-22.35 687.39,-19.47"/>
<polygon fill="#63b8ff" stroke="#63b8ff" points="603.35,-36.75 594.5,-42.59 605.06,-43.54 603.35,-36.75"/>
</g>
<!-- Node2 -->
<g id="node2" class="node">
<title>Node2</title>
<g id="a_node2"><a xlink:href="interfaceBaseAimingComponentClass.html" target="_top" xlink:title=" ">
<polygon fill="white" stroke="#666666" points="457,-62 314,-62 314,-43 457,-43 457,-62"/>
<text text-anchor="middle" x="385.5" y="-50" font-family="Helvetica,sans-Serif" font-size="10.00">BaseAimingComponentClass</text>
</a>
</g>
</g>
<!-- Node2&#45;&gt;Node1 -->
<g id="edge1" class="edge">
<title>Node2&#45;&gt;Node1</title>
<path fill="none" stroke="#63b8ff" d="M468.16,-52.5C476.38,-52.5 484.63,-52.5 492.57,-52.5"/>
<polygon fill="#63b8ff" stroke="#63b8ff" points="468.38,-49 458.38,-52.5 468.38,-56 468.38,-49"/>
</g>
<!-- Node3 -->
<g id="node3" class="node">
<title>Node3</title>
<g id="a_node3"><a xlink:href="interfaceGameComponentClass.html" target="_top" xlink:title=" ">
<polygon fill="white" stroke="#666666" points="278,-62 161,-62 161,-43 278,-43 278,-62"/>
<text text-anchor="middle" x="219.5" y="-50" font-family="Helvetica,sans-Serif" font-size="10.00">GameComponentClass</text>
</a>
</g>
</g>
<!-- Node3&#45;&gt;Node2 -->
<g id="edge2" class="edge">
<title>Node3&#45;&gt;Node2</title>
<path fill="none" stroke="#63b8ff" d="M289.21,-52.5C297.3,-52.5 305.57,-52.5 313.69,-52.5"/>
<polygon fill="#63b8ff" stroke="#63b8ff" points="289.32,-49 279.32,-52.5 289.32,-56 289.32,-49"/>
</g>
<!-- Node4 -->
<g id="node4" class="node">
<title>Node4</title>
<g id="a_node4"><a xlink:title=" ">
<polygon fill="white" stroke="#666666" points="125,-62 0,-62 0,-43 125,-43 125,-62"/>
<text text-anchor="middle" x="62.5" y="-50" font-family="Helvetica,sans-Serif" font-size="10.00">GenericComponentClass</text>
</a>
</g>
</g>
<!-- Node4&#45;&gt;Node3 -->
<g id="edge3" class="edge">
<title>Node4&#45;&gt;Node3</title>
<path fill="none" stroke="#63b8ff" d="M135.96,-52.5C144.2,-52.5 152.52,-52.5 160.53,-52.5"/>
<polygon fill="#63b8ff" stroke="#63b8ff" points="136.21,-49 126.21,-52.5 136.21,-56 136.21,-49"/>
</g>
</g>
</svg>
