<?xml version="1.0" encoding="UTF-8" standalone="no"?>
<!DOCTYPE svg PUBLIC "-//W3C//DTD SVG 1.1//EN"
 "http://www.w3.org/Graphics/SVG/1.1/DTD/svg11.dtd">
<!-- Generated by graphviz version 8.0.2 (20230410.1723)
 -->
<!-- Title: SCR_ScenarioFrameworkSlotDestroyClass Pages: 1 -->
<svg width="160pt" height="291pt"
 viewBox="0.00 0.00 160.00 291.00" xmlns="http://www.w3.org/2000/svg" xmlns:xlink="http://www.w3.org/1999/xlink">
<g id="graph0" class="graph" transform="scale(1 1) rotate(0) translate(4 287)">
<title>SCR_ScenarioFrameworkSlotDestroyClass</title>
<!-- Node1 -->
<g id="node1" class="node">
<title>Node1</title>
<g id="a_node1"><a xlink:title=" ">
<polygon fill="#999999" stroke="#666666" points="149,-30 3,-30 3,0 149,0 149,-30"/>
<text text-anchor="start" x="11" y="-18" font-family="Helvetica,sans-Serif" font-size="10.00">SCR_ScenarioFrameworkSlot</text>
<text text-anchor="middle" x="76" y="-7" font-family="Helvetica,sans-Serif" font-size="10.00">DestroyClass</text>
</a>
</g>
</g>
<!-- Node2 -->
<g id="node2" class="node">
<title>Node2</title>
<g id="a_node2"><a xlink:href="interfaceSCR__ScenarioFrameworkSlotTaskClass.html" target="_top" xlink:title=" ">
<polygon fill="white" stroke="#666666" points="149,-96 3,-96 3,-66 149,-66 149,-96"/>
<text text-anchor="start" x="11" y="-84" font-family="Helvetica,sans-Serif" font-size="10.00">SCR_ScenarioFrameworkSlot</text>
<text text-anchor="middle" x="76" y="-73" font-family="Helvetica,sans-Serif" font-size="10.00">TaskClass</text>
</a>
</g>
</g>
<!-- Node2&#45;&gt;Node1 -->
<g id="edge1" class="edge">
<title>Node2&#45;&gt;Node1</title>
<path fill="none" stroke="#63b8ff" d="M76,-54.97C76,-46.55 76,-37.45 76,-30.16"/>
<polygon fill="#63b8ff" stroke="#63b8ff" points="72.5,-54.8 76,-64.8 79.5,-54.8 72.5,-54.8"/>
</g>
<!-- Node3 -->
<g id="node3" class="node">
<title>Node3</title>
<g id="a_node3"><a xlink:href="interfaceSCR__ScenarioFrameworkSlotBaseClass.html" target="_top" xlink:title=" ">
<polygon fill="white" stroke="#666666" points="149,-162 3,-162 3,-132 149,-132 149,-162"/>
<text text-anchor="start" x="11" y="-150" font-family="Helvetica,sans-Serif" font-size="10.00">SCR_ScenarioFrameworkSlot</text>
<text text-anchor="middle" x="76" y="-139" font-family="Helvetica,sans-Serif" font-size="10.00">BaseClass</text>
</a>
</g>
</g>
<!-- Node3&#45;&gt;Node2 -->
<g id="edge2" class="edge">
<title>Node3&#45;&gt;Node2</title>
<path fill="none" stroke="#63b8ff" d="M76,-120.97C76,-112.55 76,-103.45 76,-96.16"/>
<polygon fill="#63b8ff" stroke="#63b8ff" points="72.5,-120.8 76,-130.8 79.5,-120.8 72.5,-120.8"/>
</g>
<!-- Node4 -->
<g id="node4" class="node">
<title>Node4</title>
<g id="a_node4"><a xlink:href="interfaceSCR__ScenarioFrameworkLayerBaseClass.html" target="_top" xlink:title=" ">
<polygon fill="white" stroke="#666666" points="152,-228 0,-228 0,-198 152,-198 152,-228"/>
<text text-anchor="start" x="8" y="-216" font-family="Helvetica,sans-Serif" font-size="10.00">SCR_ScenarioFrameworkLayer</text>
<text text-anchor="middle" x="76" y="-205" font-family="Helvetica,sans-Serif" font-size="10.00">BaseClass</text>
</a>
</g>
</g>
<!-- Node4&#45;&gt;Node3 -->
<g id="edge3" class="edge">
<title>Node4&#45;&gt;Node3</title>
<path fill="none" stroke="#63b8ff" d="M76,-186.97C76,-178.55 76,-169.45 76,-162.16"/>
<polygon fill="#63b8ff" stroke="#63b8ff" points="72.5,-186.8 76,-196.8 79.5,-186.8 72.5,-186.8"/>
</g>
<!-- Node5 -->
<g id="node5" class="node">
<title>Node5</title>
<g id="a_node5"><a xlink:title=" ">
<polygon fill="white" stroke="#666666" points="134,-283 18,-283 18,-264 134,-264 134,-283"/>
<text text-anchor="middle" x="76" y="-271" font-family="Helvetica,sans-Serif" font-size="10.00">ScriptComponentClass</text>
</a>
</g>
</g>
<!-- Node5&#45;&gt;Node4 -->
<g id="edge4" class="edge">
<title>Node5&#45;&gt;Node4</title>
<path fill="none" stroke="#63b8ff" d="M76,-253.08C76,-244.92 76,-235.6 76,-228.11"/>
<polygon fill="#63b8ff" stroke="#63b8ff" points="72.5,-252.87 76,-262.87 79.5,-252.87 72.5,-252.87"/>
</g>
</g>
</svg>
