<?xml version="1.0" encoding="UTF-8" standalone="no"?>
<!DOCTYPE svg PUBLIC "-//W3C//DTD SVG 1.1//EN"
 "http://www.w3.org/Graphics/SVG/1.1/DTD/svg11.dtd">
<!-- Generated by graphviz version 8.0.2 (20230410.1723)
 -->
<!-- Title: SCR_InventorySlotUI Pages: 1 -->
<svg width="659pt" height="360pt"
 viewBox="0.00 0.00 659.00 360.00" xmlns="http://www.w3.org/2000/svg" xmlns:xlink="http://www.w3.org/1999/xlink">
<g id="graph0" class="graph" transform="scale(1 1) rotate(0) translate(4 356)">
<title>SCR_InventorySlotUI</title>
<!-- Node1 -->
<g id="node1" class="node">
<title>Node1</title>
<g id="a_node1"><a xlink:title="UI Script Inventory Slot UI Layout.">
<polygon fill="#999999" stroke="#666666" points="276,-185 169,-185 169,-166 276,-166 276,-185"/>
<text text-anchor="middle" x="222.5" y="-173" font-family="Helvetica,sans-Serif" font-size="10.00">SCR_InventorySlotUI</text>
</a>
</g>
</g>
<!-- Node3 -->
<g id="node3" class="node">
<title>Node3</title>
<g id="a_node3"><a xlink:href="interfaceSCR__ArsenalInventorySlotUI.html" target="_top" xlink:title=" ">
<polygon fill="white" stroke="#666666" points="468,-352 328,-352 328,-333 468,-333 468,-352"/>
<text text-anchor="middle" x="398" y="-340" font-family="Helvetica,sans-Serif" font-size="10.00">SCR_ArsenalInventorySlotUI</text>
</a>
</g>
</g>
<!-- Node1&#45;&gt;Node3 -->
<g id="edge2" class="edge">
<title>Node1&#45;&gt;Node3</title>
<path fill="none" stroke="#63b8ff" d="M229.52,-195.48C240.39,-227.98 266.5,-291.89 312,-324.5 316.78,-327.93 322.08,-330.73 327.62,-333.01"/>
<polygon fill="#63b8ff" stroke="#63b8ff" points="232.68,-194.87 226.3,-186.41 226.01,-197 232.68,-194.87"/>
</g>
<!-- Node4 -->
<g id="node4" class="node">
<title>Node4</title>
<g id="a_node4"><a xlink:href="interfaceSCR__InventoryAttachmentSlotUI.html" target="_top" xlink:title=" ">
<polygon fill="white" stroke="#666666" points="476.5,-315 319.5,-315 319.5,-296 476.5,-296 476.5,-315"/>
<text text-anchor="middle" x="398" y="-303" font-family="Helvetica,sans-Serif" font-size="10.00">SCR_InventoryAttachmentSlotUI</text>
</a>
</g>
</g>
<!-- Node1&#45;&gt;Node4 -->
<g id="edge3" class="edge">
<title>Node1&#45;&gt;Node4</title>
<path fill="none" stroke="#63b8ff" d="M233.41,-195.17C247.32,-220.69 275.15,-264.63 312,-287.5 317.25,-290.76 323.01,-293.44 328.96,-295.64"/>
<polygon fill="#63b8ff" stroke="#63b8ff" points="236.06,-193.7 228.31,-186.48 229.86,-196.96 236.06,-193.7"/>
</g>
<!-- Node5 -->
<g id="node5" class="node">
<title>Node5</title>
<g id="a_node5"><a xlink:href="interfaceSCR__InventoryHitZoneSlotUI.html" target="_top" xlink:title=" ">
<polygon fill="white" stroke="#666666" points="468,-278 328,-278 328,-259 468,-259 468,-278"/>
<text text-anchor="middle" x="398" y="-266" font-family="Helvetica,sans-Serif" font-size="10.00">SCR_InventoryHitZoneSlotUI</text>
</a>
</g>
</g>
<!-- Node1&#45;&gt;Node5 -->
<g id="edge4" class="edge">
<title>Node1&#45;&gt;Node5</title>
<path fill="none" stroke="#63b8ff" d="M239.08,-193.02C255.49,-210.34 282.94,-236.25 312,-250.5 318.64,-253.75 325.85,-256.42 333.17,-258.61"/>
<polygon fill="#63b8ff" stroke="#63b8ff" points="242.31,-191.27 232.95,-186.3 237.16,-196.02 242.31,-191.27"/>
</g>
<!-- Node6 -->
<g id="node6" class="node">
<title>Node6</title>
<g id="a_node6"><a xlink:href="interfaceSCR__InventorySlotGadgetUI.html" target="_top" xlink:title="UI Script Inventory Slot UI Layout.">
<polygon fill="white" stroke="#666666" points="467,-241 329,-241 329,-222 467,-222 467,-241"/>
<text text-anchor="middle" x="398" y="-229" font-family="Helvetica,sans-Serif" font-size="10.00">SCR_InventorySlotGadgetUI</text>
</a>
</g>
</g>
<!-- Node1&#45;&gt;Node6 -->
<g id="edge5" class="edge">
<title>Node1&#45;&gt;Node6</title>
<path fill="none" stroke="#63b8ff" d="M254.04,-189.83C270.87,-197.33 292.29,-206.23 312,-212.5 322.81,-215.94 334.58,-218.99 345.82,-221.59"/>
<polygon fill="#63b8ff" stroke="#63b8ff" points="255.76,-186.32 245.21,-185.38 252.88,-192.7 255.76,-186.32"/>
</g>
<!-- Node7 -->
<g id="node7" class="node">
<title>Node7</title>
<g id="a_node7"><a xlink:href="interfaceSCR__InventorySlotGearInspectionUI.html" target="_top" xlink:title=" ">
<polygon fill="white" stroke="#666666" points="484,-204 312,-204 312,-185 484,-185 484,-204"/>
<text text-anchor="middle" x="398" y="-192" font-family="Helvetica,sans-Serif" font-size="10.00">SCR_InventorySlotGearInspectionUI</text>
</a>
</g>
</g>
<!-- Node1&#45;&gt;Node7 -->
<g id="edge6" class="edge">
<title>Node1&#45;&gt;Node7</title>
<path fill="none" stroke="#63b8ff" d="M287.19,-182.48C295.18,-183.35 303.46,-184.26 311.71,-185.16"/>
<polygon fill="#63b8ff" stroke="#63b8ff" points="287.82,-178.91 277.5,-181.3 287.06,-185.87 287.82,-178.91"/>
</g>
<!-- Node8 -->
<g id="node8" class="node">
<title>Node8</title>
<g id="a_node8"><a xlink:href="interfaceSCR__InventorySlotQuickSlotUI.html" target="_top" xlink:title="UI Script Inventory Slot UI Layout.">
<polygon fill="white" stroke="#666666" points="472.5,-167 323.5,-167 323.5,-148 472.5,-148 472.5,-167"/>
<text text-anchor="middle" x="398" y="-155" font-family="Helvetica,sans-Serif" font-size="10.00">SCR_InventorySlotQuickSlotUI</text>
</a>
</g>
</g>
<!-- Node1&#45;&gt;Node8 -->
<g id="edge7" class="edge">
<title>Node1&#45;&gt;Node8</title>
<path fill="none" stroke="#63b8ff" d="M287.1,-168.9C298.85,-167.68 311.22,-166.4 323.25,-165.15"/>
<polygon fill="#63b8ff" stroke="#63b8ff" points="287.08,-165.49 277.5,-170 287.81,-172.45 287.08,-165.49"/>
</g>
<!-- Node9 -->
<g id="node9" class="node">
<title>Node9</title>
<g id="a_node9"><a xlink:href="interfaceSCR__InventorySlotStorageUI.html" target="_top" xlink:title="UI Script Inventory Slot UI Layout.">
<polygon fill="white" stroke="#666666" points="468,-130 328,-130 328,-111 468,-111 468,-130"/>
<text text-anchor="middle" x="398" y="-118" font-family="Helvetica,sans-Serif" font-size="10.00">SCR_InventorySlotStorageUI</text>
</a>
</g>
</g>
<!-- Node1&#45;&gt;Node9 -->
<g id="edge8" class="edge">
<title>Node1&#45;&gt;Node9</title>
<path fill="none" stroke="#63b8ff" d="M254.01,-161.08C270.83,-153.55 292.25,-144.66 312,-138.5 321.79,-135.45 332.38,-132.74 342.65,-130.42"/>
<polygon fill="#63b8ff" stroke="#63b8ff" points="252.84,-158.22 245.19,-165.55 255.74,-164.59 252.84,-158.22"/>
</g>
<!-- Node12 -->
<g id="node12" class="node">
<title>Node12</title>
<g id="a_node12"><a xlink:href="interfaceSCR__InventorySlotWeaponSlotsUI.html" target="_top" xlink:title="UI Script Inventory Slot UI Layout.">
<polygon fill="white" stroke="#666666" points="480.5,-93 315.5,-93 315.5,-74 480.5,-74 480.5,-93"/>
<text text-anchor="middle" x="398" y="-81" font-family="Helvetica,sans-Serif" font-size="10.00">SCR_InventorySlotWeaponSlotsUI</text>
</a>
</g>
</g>
<!-- Node1&#45;&gt;Node12 -->
<g id="edge11" class="edge">
<title>Node1&#45;&gt;Node12</title>
<path fill="none" stroke="#63b8ff" d="M239.39,-157.95C255.87,-140.87 283.21,-115.5 312,-101.5 318.65,-98.27 325.86,-95.61 333.19,-93.43"/>
<polygon fill="#63b8ff" stroke="#63b8ff" points="237.52,-154.9 233.22,-164.58 242.62,-159.69 237.52,-154.9"/>
</g>
<!-- Node13 -->
<g id="node13" class="node">
<title>Node13</title>
<g id="a_node13"><a xlink:href="interfaceSCR__InventorySlotWeaponUI.html" target="_top" xlink:title="UI Script Inventory Slot UI Layout.">
<polygon fill="white" stroke="#666666" points="469.5,-56 326.5,-56 326.5,-37 469.5,-37 469.5,-56"/>
<text text-anchor="middle" x="398" y="-44" font-family="Helvetica,sans-Serif" font-size="10.00">SCR_InventorySlotWeaponUI</text>
</a>
</g>
</g>
<!-- Node1&#45;&gt;Node13 -->
<g id="edge12" class="edge">
<title>Node1&#45;&gt;Node13</title>
<path fill="none" stroke="#63b8ff" d="M233.45,-156C247.42,-130.71 275.3,-87.16 312,-64.5 317.26,-61.25 323.02,-58.58 328.98,-56.39"/>
<polygon fill="#63b8ff" stroke="#63b8ff" points="229.95,-154.14 228.33,-164.61 236.12,-157.43 229.95,-154.14"/>
</g>
<!-- Node14 -->
<g id="node14" class="node">
<title>Node14</title>
<g id="a_node14"><a xlink:href="interfaceSCR__SupplyInventorySlotUI.html" target="_top" xlink:title=" ">
<polygon fill="white" stroke="#666666" points="466.5,-19 329.5,-19 329.5,0 466.5,0 466.5,-19"/>
<text text-anchor="middle" x="398" y="-7" font-family="Helvetica,sans-Serif" font-size="10.00">SCR_SupplyInventorySlotUI</text>
</a>
</g>
</g>
<!-- Node1&#45;&gt;Node14 -->
<g id="edge13" class="edge">
<title>Node1&#45;&gt;Node14</title>
<path fill="none" stroke="#63b8ff" d="M229.7,-155.22C240.71,-122.82 266.87,-59.74 312,-27.5 317.28,-23.73 323.18,-20.72 329.35,-18.32"/>
<polygon fill="#63b8ff" stroke="#63b8ff" points="226.07,-154.07 226.32,-164.66 232.73,-156.22 226.07,-154.07"/>
</g>
<!-- Node2 -->
<g id="node2" class="node">
<title>Node2</title>
<g id="a_node2"><a xlink:title=" ">
<polygon fill="white" stroke="#666666" points="133,-185 0,-185 0,-166 133,-166 133,-185"/>
<text text-anchor="middle" x="66.5" y="-173" font-family="Helvetica,sans-Serif" font-size="10.00">ScriptedWidgetComponent</text>
</a>
</g>
</g>
<!-- Node2&#45;&gt;Node1 -->
<g id="edge1" class="edge">
<title>Node2&#45;&gt;Node1</title>
<path fill="none" stroke="#63b8ff" d="M144.08,-175.5C152.35,-175.5 160.62,-175.5 168.52,-175.5"/>
<polygon fill="#63b8ff" stroke="#63b8ff" points="144.26,-172 134.26,-175.5 144.26,-179 144.26,-172"/>
</g>
<!-- Node10 -->
<g id="node10" class="node">
<title>Node10</title>
<g id="a_node10"><a xlink:href="interfaceSCR__InventorySlotLBSUI.html" target="_top" xlink:title="UI Script Inventory Slot UI Layout.">
<polygon fill="white" stroke="#666666" points="648,-151 523,-151 523,-132 648,-132 648,-151"/>
<text text-anchor="middle" x="585.5" y="-139" font-family="Helvetica,sans-Serif" font-size="10.00">SCR_InventorySlotLBSUI</text>
</a>
</g>
</g>
<!-- Node9&#45;&gt;Node10 -->
<g id="edge9" class="edge">
<title>Node9&#45;&gt;Node10</title>
<path fill="none" stroke="#63b8ff" d="M478.89,-129.54C493.51,-131.2 508.57,-132.9 522.58,-134.49"/>
<polygon fill="#63b8ff" stroke="#63b8ff" points="479.67,-126 469.34,-128.35 478.88,-132.95 479.67,-126"/>
</g>
<!-- Node11 -->
<g id="node11" class="node">
<title>Node11</title>
<g id="a_node11"><a xlink:href="interfaceSCR__InventorySlotStorageEmbeddedUI.html" target="_top" xlink:title="UI Script Inventory Slot UI Layout.">
<polygon fill="white" stroke="#666666" points="651,-113.5 520,-113.5 520,-83.5 651,-83.5 651,-113.5"/>
<text text-anchor="start" x="528" y="-101.5" font-family="Helvetica,sans-Serif" font-size="10.00">SCR_InventorySlotStorage</text>
<text text-anchor="middle" x="585.5" y="-90.5" font-family="Helvetica,sans-Serif" font-size="10.00">EmbeddedUI</text>
</a>
</g>
</g>
<!-- Node9&#45;&gt;Node11 -->
<g id="edge10" class="edge">
<title>Node9&#45;&gt;Node11</title>
<path fill="none" stroke="#63b8ff" d="M479.08,-111C492.59,-109.4 506.47,-107.75 519.54,-106.2"/>
<polygon fill="#63b8ff" stroke="#63b8ff" points="478.86,-107.62 469.34,-112.28 479.68,-114.57 478.86,-107.62"/>
</g>
</g>
</svg>
