<?xml version="1.0" encoding="UTF-8" standalone="no"?>
<!DOCTYPE svg PUBLIC "-//W3C//DTD SVG 1.1//EN"
 "http://www.w3.org/Graphics/SVG/1.1/DTD/svg11.dtd">
<!-- Generated by graphviz version 8.0.2 (20230410.1723)
 -->
<!-- Title: SimpleSoundComponentClass Pages: 1 -->
<svg width="1110pt" height="460pt"
 viewBox="0.00 0.00 1110.00 459.50" xmlns="http://www.w3.org/2000/svg" xmlns:xlink="http://www.w3.org/1999/xlink">
<g id="graph0" class="graph" transform="scale(1 1) rotate(0) translate(4 455.5)">
<title>SimpleSoundComponentClass</title>
<!-- Node1 -->
<g id="node1" class="node">
<title>Node1</title>
<g id="a_node1"><a xlink:title=" ">
<polygon fill="#999999" stroke="#666666" points="326,-233 177,-233 177,-214 326,-214 326,-233"/>
<text text-anchor="middle" x="251.5" y="-221" font-family="Helvetica,sans-Serif" font-size="10.00">SimpleSoundComponentClass</text>
</a>
</g>
</g>
<!-- Node3 -->
<g id="node3" class="node">
<title>Node3</title>
<g id="a_node3"><a xlink:href="interfaceSoundComponentClass.html" target="_top" xlink:title=" ">
<polygon fill="white" stroke="#666666" points="481,-233 362,-233 362,-214 481,-214 481,-233"/>
<text text-anchor="middle" x="421.5" y="-221" font-family="Helvetica,sans-Serif" font-size="10.00">SoundComponentClass</text>
</a>
</g>
</g>
<!-- Node1&#45;&gt;Node3 -->
<g id="edge2" class="edge">
<title>Node1&#45;&gt;Node3</title>
<path fill="none" stroke="#63b8ff" d="M337.04,-223.5C345.31,-223.5 353.57,-223.5 361.5,-223.5"/>
<polygon fill="#63b8ff" stroke="#63b8ff" points="337.19,-220 327.19,-223.5 337.19,-227 337.19,-220"/>
</g>
<!-- Node2 -->
<g id="node2" class="node">
<title>Node2</title>
<g id="a_node2"><a xlink:title=" ">
<polygon fill="white" stroke="#666666" points="141,-233 0,-233 0,-214 141,-214 141,-233"/>
<text text-anchor="middle" x="70.5" y="-221" font-family="Helvetica,sans-Serif" font-size="10.00">BaseSoundComponentClass</text>
</a>
</g>
</g>
<!-- Node2&#45;&gt;Node1 -->
<g id="edge1" class="edge">
<title>Node2&#45;&gt;Node1</title>
<path fill="none" stroke="#63b8ff" d="M152.43,-223.5C160.53,-223.5 168.72,-223.5 176.73,-223.5"/>
<polygon fill="#63b8ff" stroke="#63b8ff" points="152.48,-220 142.48,-223.5 152.48,-227 152.48,-220"/>
</g>
<!-- Node4 -->
<g id="node4" class="node">
<title>Node4</title>
<g id="a_node4"><a xlink:href="interfaceAmbientSoundsComponentClass.html" target="_top" xlink:title=" ">
<polygon fill="white" stroke="#666666" points="678.5,-446 518.5,-446 518.5,-427 678.5,-427 678.5,-446"/>
<text text-anchor="middle" x="598.5" y="-434" font-family="Helvetica,sans-Serif" font-size="10.00">AmbientSoundsComponentClass</text>
</a>
</g>
</g>
<!-- Node3&#45;&gt;Node4 -->
<g id="edge3" class="edge">
<title>Node3&#45;&gt;Node4</title>
<path fill="none" stroke="#63b8ff" d="M426.33,-244.08C434.93,-284.24 459.68,-373.11 517,-418.5 521.04,-421.7 525.54,-424.36 530.28,-426.56"/>
<polygon fill="#63b8ff" stroke="#63b8ff" points="429.6,-243.6 424.2,-234.49 422.74,-244.98 429.6,-243.6"/>
</g>
<!-- Node6 -->
<g id="node6" class="node">
<title>Node6</title>
<g id="a_node6"><a xlink:href="interfaceAnimalSoundComponentClass.html" target="_top" xlink:title=" ">
<polygon fill="white" stroke="#666666" points="673,-409 524,-409 524,-390 673,-390 673,-409"/>
<text text-anchor="middle" x="598.5" y="-397" font-family="Helvetica,sans-Serif" font-size="10.00">AnimalSoundComponentClass</text>
</a>
</g>
</g>
<!-- Node3&#45;&gt;Node6 -->
<g id="edge5" class="edge">
<title>Node3&#45;&gt;Node6</title>
<path fill="none" stroke="#63b8ff" d="M428.53,-243.21C439.96,-277.1 468.13,-346.17 517,-381.5 521.41,-384.69 526.29,-387.33 531.39,-389.51"/>
<polygon fill="#63b8ff" stroke="#63b8ff" points="431.69,-242.6 425.29,-234.16 425.03,-244.75 431.69,-242.6"/>
</g>
<!-- Node7 -->
<g id="node7" class="node">
<title>Node7</title>
<g id="a_node7"><a xlink:href="interfaceCharacterSoundComponentClass.html" target="_top" xlink:title=" ">
<polygon fill="white" stroke="#666666" points="679,-372 518,-372 518,-353 679,-353 679,-372"/>
<text text-anchor="middle" x="598.5" y="-360" font-family="Helvetica,sans-Serif" font-size="10.00">CharacterSoundComponentClass</text>
</a>
</g>
</g>
<!-- Node3&#45;&gt;Node7 -->
<g id="edge6" class="edge">
<title>Node3&#45;&gt;Node7</title>
<path fill="none" stroke="#63b8ff" d="M432.31,-242.91C446.95,-269.84 477.13,-318.07 517,-343.5 522.81,-347.21 529.27,-350.19 535.94,-352.59"/>
<polygon fill="#63b8ff" stroke="#63b8ff" points="435.07,-241.64 427.31,-234.42 428.87,-244.9 435.07,-241.64"/>
</g>
<!-- Node8 -->
<g id="node8" class="node">
<title>Node8</title>
<g id="a_node8"><a xlink:href="interfaceCommunicationSoundComponentClass.html" target="_top" xlink:title=" ">
<polygon fill="white" stroke="#666666" points="679,-334.5 518,-334.5 518,-304.5 679,-304.5 679,-334.5"/>
<text text-anchor="start" x="526" y="-322.5" font-family="Helvetica,sans-Serif" font-size="10.00">CommunicationSoundComponent</text>
<text text-anchor="middle" x="598.5" y="-311.5" font-family="Helvetica,sans-Serif" font-size="10.00">Class</text>
</a>
</g>
</g>
<!-- Node3&#45;&gt;Node8 -->
<g id="edge7" class="edge">
<title>Node3&#45;&gt;Node8</title>
<path fill="none" stroke="#63b8ff" d="M440.63,-240.54C458.72,-256.73 487.93,-280.72 517,-295.5 523.37,-298.74 530.25,-301.62 537.21,-304.15"/>
<polygon fill="#63b8ff" stroke="#63b8ff" points="443.44,-238.46 433.69,-234.3 438.72,-243.63 443.44,-238.46"/>
</g>
<!-- Node10 -->
<g id="node10" class="node">
<title>Node10</title>
<g id="a_node10"><a xlink:href="interfaceProjectileSoundComponentClass.html" target="_top" xlink:title=" ">
<polygon fill="white" stroke="#666666" points="665.5,-286.5 531.5,-286.5 531.5,-256.5 665.5,-256.5 665.5,-286.5"/>
<text text-anchor="start" x="539.5" y="-274.5" font-family="Helvetica,sans-Serif" font-size="10.00">ProjectileSoundComponent</text>
<text text-anchor="middle" x="598.5" y="-263.5" font-family="Helvetica,sans-Serif" font-size="10.00">Class</text>
</a>
</g>
</g>
<!-- Node3&#45;&gt;Node10 -->
<g id="edge9" class="edge">
<title>Node3&#45;&gt;Node10</title>
<path fill="none" stroke="#63b8ff" d="M469.24,-236.32C491.4,-242.4 518.05,-249.71 541.3,-256.08"/>
<polygon fill="#63b8ff" stroke="#63b8ff" points="470.33,-232.72 459.76,-233.45 468.48,-239.47 470.33,-232.72"/>
</g>
<!-- Node12 -->
<g id="node12" class="node">
<title>Node12</title>
<g id="a_node12"><a xlink:href="interfaceRadioBroadcastSoundComponentClass.html" target="_top" xlink:title=" ">
<polygon fill="white" stroke="#666666" points="680,-238.5 517,-238.5 517,-208.5 680,-208.5 680,-238.5"/>
<text text-anchor="start" x="525" y="-226.5" font-family="Helvetica,sans-Serif" font-size="10.00">RadioBroadcastSoundComponent</text>
<text text-anchor="middle" x="598.5" y="-215.5" font-family="Helvetica,sans-Serif" font-size="10.00">Class</text>
</a>
</g>
</g>
<!-- Node3&#45;&gt;Node12 -->
<g id="edge11" class="edge">
<title>Node3&#45;&gt;Node12</title>
<path fill="none" stroke="#63b8ff" d="M492.06,-223.5C500.09,-223.5 508.33,-223.5 516.5,-223.5"/>
<polygon fill="#63b8ff" stroke="#63b8ff" points="492.26,-220 482.26,-223.5 492.26,-227 492.26,-220"/>
</g>
<!-- Node13 -->
<g id="node13" class="node">
<title>Node13</title>
<g id="a_node13"><a xlink:href="interfaceSCR__BellSoundComponentClass.html" target="_top" xlink:title=" ">
<polygon fill="white" stroke="#666666" points="679,-190 518,-190 518,-171 679,-171 679,-190"/>
<text text-anchor="middle" x="598.5" y="-178" font-family="Helvetica,sans-Serif" font-size="10.00">SCR_BellSoundComponentClass</text>
</a>
</g>
</g>
<!-- Node3&#45;&gt;Node13 -->
<g id="edge12" class="edge">
<title>Node3&#45;&gt;Node13</title>
<path fill="none" stroke="#63b8ff" d="M471.45,-210.9C486.09,-207.18 502.18,-203.13 517,-199.5 529.27,-196.49 542.62,-193.31 554.85,-190.42"/>
<polygon fill="#63b8ff" stroke="#63b8ff" points="470.91,-207.68 462.08,-213.54 472.64,-214.46 470.91,-207.68"/>
</g>
<!-- Node14 -->
<g id="node14" class="node">
<title>Node14</title>
<g id="a_node14"><a xlink:href="interfaceSCR__BuildingSoundComponentClass.html" target="_top" xlink:title=" ">
<polygon fill="white" stroke="#666666" points="675.5,-152.5 521.5,-152.5 521.5,-122.5 675.5,-122.5 675.5,-152.5"/>
<text text-anchor="start" x="529.5" y="-140.5" font-family="Helvetica,sans-Serif" font-size="10.00">SCR_BuildingSoundComponent</text>
<text text-anchor="middle" x="598.5" y="-129.5" font-family="Helvetica,sans-Serif" font-size="10.00">Class</text>
</a>
</g>
</g>
<!-- Node3&#45;&gt;Node14 -->
<g id="edge13" class="edge">
<title>Node3&#45;&gt;Node14</title>
<path fill="none" stroke="#63b8ff" d="M443.69,-206.99C462.18,-193.25 490.18,-173.97 517,-161.5 523.74,-158.36 531,-155.53 538.29,-152.99"/>
<polygon fill="#63b8ff" stroke="#63b8ff" points="441.81,-204.79 435.95,-213.61 446.03,-210.37 441.81,-204.79"/>
</g>
<!-- Node15 -->
<g id="node15" class="node">
<title>Node15</title>
<g id="a_node15"><a xlink:href="interfaceSCR__CampaignSoundComponentClass.html" target="_top" xlink:title=" ">
<polygon fill="white" stroke="#666666" points="680,-104.5 517,-104.5 517,-74.5 680,-74.5 680,-104.5"/>
<text text-anchor="start" x="525" y="-92.5" font-family="Helvetica,sans-Serif" font-size="10.00">SCR_CampaignSoundComponent</text>
<text text-anchor="middle" x="598.5" y="-81.5" font-family="Helvetica,sans-Serif" font-size="10.00">Class</text>
</a>
</g>
</g>
<!-- Node3&#45;&gt;Node15 -->
<g id="edge14" class="edge">
<title>Node3&#45;&gt;Node15</title>
<path fill="none" stroke="#63b8ff" d="M433.82,-204.59C449.48,-180.03 480.06,-137.46 517,-113.5 522.02,-110.25 527.49,-107.42 533.15,-104.97"/>
<polygon fill="#63b8ff" stroke="#63b8ff" points="430.51,-202.28 428.22,-212.62 436.46,-205.97 430.51,-202.28"/>
</g>
<!-- Node16 -->
<g id="node16" class="node">
<title>Node16</title>
<g id="a_node16"><a xlink:href="interfaceVehicleSoundComponentClass.html" target="_top" xlink:title=" ">
<polygon fill="white" stroke="#666666" points="674,-56 523,-56 523,-37 674,-37 674,-56"/>
<text text-anchor="middle" x="598.5" y="-44" font-family="Helvetica,sans-Serif" font-size="10.00">VehicleSoundComponentClass</text>
</a>
</g>
</g>
<!-- Node3&#45;&gt;Node16 -->
<g id="edge15" class="edge">
<title>Node3&#45;&gt;Node16</title>
<path fill="none" stroke="#63b8ff" d="M428.57,-203.85C440.07,-170.05 468.34,-101.11 517,-65.5 521.98,-61.85 527.56,-58.9 533.4,-56.5"/>
<polygon fill="#63b8ff" stroke="#63b8ff" points="425.08,-202.28 425.31,-212.87 431.74,-204.44 425.08,-202.28"/>
</g>
<!-- Node19 -->
<g id="node19" class="node">
<title>Node19</title>
<g id="a_node19"><a xlink:href="interfaceWeaponSoundComponentClass.html" target="_top" xlink:title=" ">
<polygon fill="white" stroke="#666666" points="676,-19 521,-19 521,0 676,0 676,-19"/>
<text text-anchor="middle" x="598.5" y="-7" font-family="Helvetica,sans-Serif" font-size="10.00">WeaponSoundComponentClass</text>
</a>
</g>
</g>
<!-- Node3&#45;&gt;Node19 -->
<g id="edge18" class="edge">
<title>Node3&#45;&gt;Node19</title>
<path fill="none" stroke="#63b8ff" d="M426.18,-203.38C434.6,-163.29 459.22,-73.35 517,-27.5 521.04,-24.3 525.53,-21.64 530.28,-19.43"/>
<polygon fill="#63b8ff" stroke="#63b8ff" points="422.6,-202.42 424.1,-212.91 429.47,-203.78 422.6,-202.42"/>
</g>
<!-- Node5 -->
<g id="node5" class="node">
<title>Node5</title>
<g id="a_node5"><a xlink:href="interfaceSCR__AmbientSoundsComponentClass.html" target="_top" xlink:title=" ">
<polygon fill="white" stroke="#666666" points="890,-451.5 729,-451.5 729,-421.5 890,-421.5 890,-451.5"/>
<text text-anchor="start" x="737" y="-439.5" font-family="Helvetica,sans-Serif" font-size="10.00">SCR_AmbientSoundsComponent</text>
<text text-anchor="middle" x="809.5" y="-428.5" font-family="Helvetica,sans-Serif" font-size="10.00">Class</text>
</a>
</g>
</g>
<!-- Node4&#45;&gt;Node5 -->
<g id="edge4" class="edge">
<title>Node4&#45;&gt;Node5</title>
<path fill="none" stroke="#63b8ff" d="M689.6,-436.5C702.56,-436.5 715.81,-436.5 728.55,-436.5"/>
<polygon fill="#63b8ff" stroke="#63b8ff" points="689.81,-433 679.81,-436.5 689.81,-440 689.81,-433"/>
</g>
<!-- Node9 -->
<g id="node9" class="node">
<title>Node9</title>
<g id="a_node9"><a xlink:href="interfaceSCR__CommunicationSoundComponentClass.html" target="_top" xlink:title=" ">
<polygon fill="white" stroke="#666666" points="903,-334.5 716,-334.5 716,-304.5 903,-304.5 903,-334.5"/>
<text text-anchor="start" x="724" y="-322.5" font-family="Helvetica,sans-Serif" font-size="10.00">SCR_CommunicationSoundComponent</text>
<text text-anchor="middle" x="809.5" y="-311.5" font-family="Helvetica,sans-Serif" font-size="10.00">Class</text>
</a>
</g>
</g>
<!-- Node8&#45;&gt;Node9 -->
<g id="edge8" class="edge">
<title>Node8&#45;&gt;Node9</title>
<path fill="none" stroke="#63b8ff" d="M690.36,-319.5C698.76,-319.5 707.28,-319.5 715.7,-319.5"/>
<polygon fill="#63b8ff" stroke="#63b8ff" points="690.41,-316 680.41,-319.5 690.41,-323 690.41,-316"/>
</g>
<!-- Node11 -->
<g id="node11" class="node">
<title>Node11</title>
<g id="a_node11"><a xlink:href="interfaceSCR__ShellSoundComponentClass.html" target="_top" xlink:title=" ">
<polygon fill="white" stroke="#666666" points="892.5,-281 726.5,-281 726.5,-262 892.5,-262 892.5,-281"/>
<text text-anchor="middle" x="809.5" y="-269" font-family="Helvetica,sans-Serif" font-size="10.00">SCR_ShellSoundComponentClass</text>
</a>
</g>
</g>
<!-- Node10&#45;&gt;Node11 -->
<g id="edge10" class="edge">
<title>Node10&#45;&gt;Node11</title>
<path fill="none" stroke="#63b8ff" d="M676.86,-271.5C692.91,-271.5 709.88,-271.5 726.1,-271.5"/>
<polygon fill="#63b8ff" stroke="#63b8ff" points="676.92,-268 666.92,-271.5 676.92,-275 676.92,-268"/>
</g>
<!-- Node17 -->
<g id="node17" class="node">
<title>Node17</title>
<g id="a_node17"><a xlink:href="interfaceSCR__VehicleSoundComponentClass.html" target="_top" xlink:title=" ">
<polygon fill="white" stroke="#666666" points="885.5,-61.5 733.5,-61.5 733.5,-31.5 885.5,-31.5 885.5,-61.5"/>
<text text-anchor="start" x="741.5" y="-49.5" font-family="Helvetica,sans-Serif" font-size="10.00">SCR_VehicleSoundComponent</text>
<text text-anchor="middle" x="809.5" y="-38.5" font-family="Helvetica,sans-Serif" font-size="10.00">Class</text>
</a>
</g>
</g>
<!-- Node16&#45;&gt;Node17 -->
<g id="edge16" class="edge">
<title>Node16&#45;&gt;Node17</title>
<path fill="none" stroke="#63b8ff" d="M685.24,-46.5C701.11,-46.5 717.57,-46.5 733.11,-46.5"/>
<polygon fill="#63b8ff" stroke="#63b8ff" points="685.36,-43 675.36,-46.5 685.36,-50 685.36,-43"/>
</g>
<!-- Node18 -->
<g id="node18" class="node">
<title>Node18</title>
<g id="a_node18"><a xlink:href="interfaceSCR__HelicopterSoundComponentClass.html" target="_top" xlink:title=" ">
<polygon fill="white" stroke="#666666" points="1102,-61.5 939,-61.5 939,-31.5 1102,-31.5 1102,-61.5"/>
<text text-anchor="start" x="947" y="-49.5" font-family="Helvetica,sans-Serif" font-size="10.00">SCR_HelicopterSoundComponent</text>
<text text-anchor="middle" x="1020.5" y="-38.5" font-family="Helvetica,sans-Serif" font-size="10.00">Class</text>
</a>
</g>
</g>
<!-- Node17&#45;&gt;Node18 -->
<g id="edge17" class="edge">
<title>Node17&#45;&gt;Node18</title>
<path fill="none" stroke="#63b8ff" d="M896.89,-46.5C910.66,-46.5 924.87,-46.5 938.51,-46.5"/>
<polygon fill="#63b8ff" stroke="#63b8ff" points="896.95,-43 886.95,-46.5 896.95,-50 896.95,-43"/>
</g>
</g>
</svg>
