<?xml version="1.0" encoding="UTF-8" standalone="no"?>
<!DOCTYPE svg PUBLIC "-//W3C//DTD SVG 1.1//EN"
 "http://www.w3.org/Graphics/SVG/1.1/DTD/svg11.dtd">
<!-- Generated by graphviz version 8.0.2 (20230410.1723)
 -->
<!-- Title: SCR_ScenarioFrameworkWaypointTimedDefend Pages: 1 -->
<svg width="1002pt" height="278pt"
 viewBox="0.00 0.00 1002.00 278.00" xmlns="http://www.w3.org/2000/svg" xmlns:xlink="http://www.w3.org/1999/xlink">
<g id="graph0" class="graph" transform="scale(1 1) rotate(0) translate(4 274)">
<title>SCR_ScenarioFrameworkWaypointTimedDefend</title>
<!-- Node1 -->
<g id="node1" class="node">
<title>Node1</title>
<g id="a_node1"><a xlink:title=" ">
<polygon fill="#999999" stroke="#666666" points="788,-150 618,-150 618,-120 788,-120 788,-150"/>
<text text-anchor="start" x="626" y="-138" font-family="Helvetica,sans-Serif" font-size="10.00">SCR_ScenarioFrameworkWaypoint</text>
<text text-anchor="middle" x="703" y="-127" font-family="Helvetica,sans-Serif" font-size="10.00">TimedDefend</text>
</a>
</g>
</g>
<!-- Node5 -->
<g id="node5" class="node">
<title>Node5</title>
<g id="a_node5"><a xlink:href="interfaceSCR__ScenarioFrameworkWaypointDefend.html" target="_top" xlink:title=" ">
<polygon fill="white" stroke="#666666" points="994,-270 824,-270 824,-240 994,-240 994,-270"/>
<text text-anchor="start" x="832" y="-258" font-family="Helvetica,sans-Serif" font-size="10.00">SCR_ScenarioFrameworkWaypoint</text>
<text text-anchor="middle" x="909" y="-247" font-family="Helvetica,sans-Serif" font-size="10.00">Defend</text>
</a>
</g>
</g>
<!-- Node1&#45;&gt;Node5 -->
<g id="edge4" class="edge">
<title>Node1&#45;&gt;Node5</title>
<path fill="none" stroke="#63b8ff" d="M726.6,-157.71C749.36,-179.41 786.42,-211.6 824,-231 830.2,-234.2 836.88,-237.03 843.68,-239.51"/>
<polygon fill="#63b8ff" stroke="#63b8ff" points="729.5,-155.68 719.88,-151.24 724.63,-160.71 729.5,-155.68"/>
</g>
<!-- Node6 -->
<g id="node6" class="node">
<title>Node6</title>
<g id="a_node6"><a xlink:href="interfaceSCR__ScenarioFrameworkWaypointDefendCP.html" target="_top" xlink:title=" ">
<polygon fill="white" stroke="#666666" points="994,-222 824,-222 824,-192 994,-192 994,-222"/>
<text text-anchor="start" x="832" y="-210" font-family="Helvetica,sans-Serif" font-size="10.00">SCR_ScenarioFrameworkWaypoint</text>
<text text-anchor="middle" x="909" y="-199" font-family="Helvetica,sans-Serif" font-size="10.00">DefendCP</text>
</a>
</g>
</g>
<!-- Node1&#45;&gt;Node6 -->
<g id="edge5" class="edge">
<title>Node1&#45;&gt;Node6</title>
<path fill="none" stroke="#63b8ff" d="M750.01,-154.68C772.17,-163.84 799.26,-174.54 824,-183 832.61,-185.94 841.8,-188.83 850.82,-191.51"/>
<polygon fill="#63b8ff" stroke="#63b8ff" points="751.45,-151.08 740.87,-150.47 748.76,-157.54 751.45,-151.08"/>
</g>
<!-- Node7 -->
<g id="node7" class="node">
<title>Node7</title>
<g id="a_node7"><a xlink:href="interfaceSCR__ScenarioFrameworkWaypointDefendHierarchy.html" target="_top" xlink:title=" ">
<polygon fill="white" stroke="#666666" points="994,-174 824,-174 824,-144 994,-144 994,-174"/>
<text text-anchor="start" x="832" y="-162" font-family="Helvetica,sans-Serif" font-size="10.00">SCR_ScenarioFrameworkWaypoint</text>
<text text-anchor="middle" x="909" y="-151" font-family="Helvetica,sans-Serif" font-size="10.00">DefendHierarchy</text>
</a>
</g>
</g>
<!-- Node1&#45;&gt;Node7 -->
<g id="edge6" class="edge">
<title>Node1&#45;&gt;Node7</title>
<path fill="none" stroke="#63b8ff" d="M799.14,-146.19C807.31,-147.15 815.54,-148.12 823.62,-149.07"/>
<polygon fill="#63b8ff" stroke="#63b8ff" points="799.79,-142.63 789.45,-144.93 798.97,-149.58 799.79,-142.63"/>
</g>
<!-- Node8 -->
<g id="node8" class="node">
<title>Node8</title>
<g id="a_node8"><a xlink:href="interfaceSCR__ScenarioFrameworkWaypointDefendLarge.html" target="_top" xlink:title=" ">
<polygon fill="white" stroke="#666666" points="994,-126 824,-126 824,-96 994,-96 994,-126"/>
<text text-anchor="start" x="832" y="-114" font-family="Helvetica,sans-Serif" font-size="10.00">SCR_ScenarioFrameworkWaypoint</text>
<text text-anchor="middle" x="909" y="-103" font-family="Helvetica,sans-Serif" font-size="10.00">DefendLarge</text>
</a>
</g>
</g>
<!-- Node1&#45;&gt;Node8 -->
<g id="edge7" class="edge">
<title>Node1&#45;&gt;Node8</title>
<path fill="none" stroke="#63b8ff" d="M799.14,-123.81C807.31,-122.85 815.54,-121.88 823.62,-120.93"/>
<polygon fill="#63b8ff" stroke="#63b8ff" points="798.97,-120.42 789.45,-125.07 799.79,-127.37 798.97,-120.42"/>
</g>
<!-- Node9 -->
<g id="node9" class="node">
<title>Node9</title>
<g id="a_node9"><a xlink:href="interfaceSCR__ScenarioFrameworkWaypointDefendLargeCO.html" target="_top" xlink:title=" ">
<polygon fill="white" stroke="#666666" points="994,-78 824,-78 824,-48 994,-48 994,-78"/>
<text text-anchor="start" x="832" y="-66" font-family="Helvetica,sans-Serif" font-size="10.00">SCR_ScenarioFrameworkWaypoint</text>
<text text-anchor="middle" x="909" y="-55" font-family="Helvetica,sans-Serif" font-size="10.00">DefendLargeCO</text>
</a>
</g>
</g>
<!-- Node1&#45;&gt;Node9 -->
<g id="edge8" class="edge">
<title>Node1&#45;&gt;Node9</title>
<path fill="none" stroke="#63b8ff" d="M750.01,-115.32C772.17,-106.16 799.26,-95.46 824,-87 832.61,-84.06 841.8,-81.17 850.82,-78.49"/>
<polygon fill="#63b8ff" stroke="#63b8ff" points="748.76,-112.46 740.87,-119.53 751.45,-118.92 748.76,-112.46"/>
</g>
<!-- Node10 -->
<g id="node10" class="node">
<title>Node10</title>
<g id="a_node10"><a xlink:href="interfaceSCR__ScenarioFrameworkWaypointLoiterCO.html" target="_top" xlink:title=" ">
<polygon fill="white" stroke="#666666" points="994,-30 824,-30 824,0 994,0 994,-30"/>
<text text-anchor="start" x="832" y="-18" font-family="Helvetica,sans-Serif" font-size="10.00">SCR_ScenarioFrameworkWaypoint</text>
<text text-anchor="middle" x="909" y="-7" font-family="Helvetica,sans-Serif" font-size="10.00">LoiterCO</text>
</a>
</g>
</g>
<!-- Node1&#45;&gt;Node10 -->
<g id="edge9" class="edge">
<title>Node1&#45;&gt;Node10</title>
<path fill="none" stroke="#63b8ff" d="M726.6,-112.29C749.36,-90.59 786.42,-58.4 824,-39 830.2,-35.8 836.88,-32.97 843.68,-30.49"/>
<polygon fill="#63b8ff" stroke="#63b8ff" points="724.63,-109.29 719.88,-118.76 729.5,-114.32 724.63,-109.29"/>
</g>
<!-- Node2 -->
<g id="node2" class="node">
<title>Node2</title>
<g id="a_node2"><a xlink:href="interfaceSCR__ScenarioFrameworkWaypointTimed.html" target="_top" xlink:title=" ">
<polygon fill="white" stroke="#666666" points="582,-150 412,-150 412,-120 582,-120 582,-150"/>
<text text-anchor="start" x="420" y="-138" font-family="Helvetica,sans-Serif" font-size="10.00">SCR_ScenarioFrameworkWaypoint</text>
<text text-anchor="middle" x="497" y="-127" font-family="Helvetica,sans-Serif" font-size="10.00">Timed</text>
</a>
</g>
</g>
<!-- Node2&#45;&gt;Node1 -->
<g id="edge1" class="edge">
<title>Node2&#45;&gt;Node1</title>
<path fill="none" stroke="#63b8ff" d="M593.41,-135C601.49,-135 609.63,-135 617.62,-135"/>
<polygon fill="#63b8ff" stroke="#63b8ff" points="593.45,-131.5 583.45,-135 593.45,-138.5 593.45,-131.5"/>
</g>
<!-- Node3 -->
<g id="node3" class="node">
<title>Node3</title>
<g id="a_node3"><a xlink:href="interfaceSCR__ScenarioFrameworkWaypointScripted.html" target="_top" xlink:title=" ">
<polygon fill="white" stroke="#666666" points="376,-150 206,-150 206,-120 376,-120 376,-150"/>
<text text-anchor="start" x="214" y="-138" font-family="Helvetica,sans-Serif" font-size="10.00">SCR_ScenarioFrameworkWaypoint</text>
<text text-anchor="middle" x="291" y="-127" font-family="Helvetica,sans-Serif" font-size="10.00">Scripted</text>
</a>
</g>
</g>
<!-- Node3&#45;&gt;Node2 -->
<g id="edge2" class="edge">
<title>Node3&#45;&gt;Node2</title>
<path fill="none" stroke="#63b8ff" d="M387.41,-135C395.49,-135 403.63,-135 411.62,-135"/>
<polygon fill="#63b8ff" stroke="#63b8ff" points="387.45,-131.5 377.45,-135 387.45,-138.5 387.45,-131.5"/>
</g>
<!-- Node4 -->
<g id="node4" class="node">
<title>Node4</title>
<g id="a_node4"><a xlink:href="interfaceSCR__ScenarioFrameworkWaypoint.html" target="_top" xlink:title=" ">
<polygon fill="white" stroke="#666666" points="170,-144.5 0,-144.5 0,-125.5 170,-125.5 170,-144.5"/>
<text text-anchor="middle" x="85" y="-132.5" font-family="Helvetica,sans-Serif" font-size="10.00">SCR_ScenarioFrameworkWaypoint</text>
</a>
</g>
</g>
<!-- Node4&#45;&gt;Node3 -->
<g id="edge3" class="edge">
<title>Node4&#45;&gt;Node3</title>
<path fill="none" stroke="#63b8ff" d="M181.41,-135C189.49,-135 197.63,-135 205.62,-135"/>
<polygon fill="#63b8ff" stroke="#63b8ff" points="181.45,-131.5 171.45,-135 181.45,-138.5 181.45,-131.5"/>
</g>
</g>
</svg>
