<?xml version="1.0" encoding="UTF-8" standalone="no"?>
<!DOCTYPE svg PUBLIC "-//W3C//DTD SVG 1.1//EN"
 "http://www.w3.org/Graphics/SVG/1.1/DTD/svg11.dtd">
<!-- Generated by graphviz version 8.0.2 (20230410.1723)
 -->
<!-- Title: SCR_DeployMenuBaseScreenComponent Pages: 1 -->
<svg width="356pt" height="203pt"
 viewBox="0.00 0.00 355.50 203.00" xmlns="http://www.w3.org/2000/svg" xmlns:xlink="http://www.w3.org/1999/xlink">
<g id="graph0" class="graph" transform="scale(1 1) rotate(0) translate(4 199)">
<title>SCR_DeployMenuBaseScreenComponent</title>
<!-- Node1 -->
<g id="node1" class="node">
<title>Node1</title>
<g id="a_node1"><a xlink:title="Base class for Deploy menu components.">
<polygon fill="#999999" stroke="#666666" points="248,-85 99,-85 99,-55 248,-55 248,-85"/>
<text text-anchor="start" x="107" y="-73" font-family="Helvetica,sans-Serif" font-size="10.00">SCR_DeployMenuBaseScreen</text>
<text text-anchor="middle" x="173.5" y="-62" font-family="Helvetica,sans-Serif" font-size="10.00">Component</text>
</a>
</g>
</g>
<!-- Node4 -->
<g id="node4" class="node">
<title>Node4</title>
<g id="a_node4"><a xlink:href="interfaceSCR__DebriefingScreenComponent.html" target="_top" xlink:title="Debriefing screen component intended to be added to the GameMode.">
<polygon fill="white" stroke="#666666" points="165,-19 0,-19 0,0 165,0 165,-19"/>
<text text-anchor="middle" x="82.5" y="-7" font-family="Helvetica,sans-Serif" font-size="10.00">SCR_DebriefingScreenComponent</text>
</a>
</g>
</g>
<!-- Node1&#45;&gt;Node4 -->
<g id="edge3" class="edge">
<title>Node1&#45;&gt;Node4</title>
<path fill="none" stroke="#63b8ff" d="M142.15,-48.84C126.5,-38.79 108.39,-27.14 96.26,-19.35"/>
<polygon fill="#63b8ff" stroke="#63b8ff" points="139.7,-52.08 150.01,-54.54 143.49,-46.19 139.7,-52.08"/>
</g>
<!-- Node5 -->
<g id="node5" class="node">
<title>Node5</title>
<g id="a_node5"><a xlink:href="interfaceSCR__WelcomeScreenComponent.html" target="_top" xlink:title="Welcome screen component intended to be added to the GameMode.">
<polygon fill="white" stroke="#666666" points="347.5,-19 183.5,-19 183.5,0 347.5,0 347.5,-19"/>
<text text-anchor="middle" x="265.5" y="-7" font-family="Helvetica,sans-Serif" font-size="10.00">SCR_WelcomeScreenComponent</text>
</a>
</g>
</g>
<!-- Node1&#45;&gt;Node5 -->
<g id="edge4" class="edge">
<title>Node1&#45;&gt;Node5</title>
<path fill="none" stroke="#63b8ff" d="M205.2,-48.84C221.01,-38.79 239.33,-27.14 251.59,-19.35"/>
<polygon fill="#63b8ff" stroke="#63b8ff" points="203.8,-46.22 197.24,-54.54 207.56,-52.13 203.8,-46.22"/>
</g>
<!-- Node2 -->
<g id="node2" class="node">
<title>Node2</title>
<g id="a_node2"><a xlink:href="interfaceSCR__BaseGameModeComponent.html" target="_top" xlink:title="Interface for game mode extending components.">
<polygon fill="white" stroke="#666666" points="255.5,-140 91.5,-140 91.5,-121 255.5,-121 255.5,-140"/>
<text text-anchor="middle" x="173.5" y="-128" font-family="Helvetica,sans-Serif" font-size="10.00">SCR_BaseGameModeComponent</text>
</a>
</g>
</g>
<!-- Node2&#45;&gt;Node1 -->
<g id="edge1" class="edge">
<title>Node2&#45;&gt;Node1</title>
<path fill="none" stroke="#63b8ff" d="M173.5,-110.08C173.5,-101.92 173.5,-92.6 173.5,-85.11"/>
<polygon fill="#63b8ff" stroke="#63b8ff" points="170,-109.87 173.5,-119.87 177,-109.87 170,-109.87"/>
</g>
<!-- Node3 -->
<g id="node3" class="node">
<title>Node3</title>
<g id="a_node3"><a xlink:title=" ">
<polygon fill="white" stroke="#666666" points="219.5,-195 127.5,-195 127.5,-176 219.5,-176 219.5,-195"/>
<text text-anchor="middle" x="173.5" y="-183" font-family="Helvetica,sans-Serif" font-size="10.00">ScriptComponent</text>
</a>
</g>
</g>
<!-- Node3&#45;&gt;Node2 -->
<g id="edge2" class="edge">
<title>Node3&#45;&gt;Node2</title>
<path fill="none" stroke="#63b8ff" d="M173.5,-164.93C173.5,-156.53 173.5,-147.13 173.5,-140.44"/>
<polygon fill="#63b8ff" stroke="#63b8ff" points="170,-164.75 173.5,-174.75 177,-164.75 170,-164.75"/>
</g>
</g>
</svg>
