<?xml version="1.0" encoding="UTF-8" standalone="no"?>
<!DOCTYPE svg PUBLIC "-//W3C//DTD SVG 1.1//EN"
 "http://www.w3.org/Graphics/SVG/1.1/DTD/svg11.dtd">
<!-- Generated by graphviz version 8.0.2 (20230410.1723)
 -->
<!-- Title: SCR_ScenarioFrameworkLayerTaskClass Pages: 1 -->
<svg width="703pt" height="278pt"
 viewBox="0.00 0.00 703.00 278.00" xmlns="http://www.w3.org/2000/svg" xmlns:xlink="http://www.w3.org/1999/xlink">
<g id="graph0" class="graph" transform="scale(1 1) rotate(0) translate(4 274)">
<title>SCR_ScenarioFrameworkLayerTaskClass</title>
<!-- Node1 -->
<g id="node1" class="node">
<title>Node1</title>
<g id="a_node1"><a xlink:title=" ">
<polygon fill="#999999" stroke="#666666" points="492,-150 340,-150 340,-120 492,-120 492,-150"/>
<text text-anchor="start" x="348" y="-138" font-family="Helvetica,sans-Serif" font-size="10.00">SCR_ScenarioFrameworkLayer</text>
<text text-anchor="middle" x="416" y="-127" font-family="Helvetica,sans-Serif" font-size="10.00">TaskClass</text>
</a>
</g>
</g>
<!-- Node4 -->
<g id="node4" class="node">
<title>Node4</title>
<g id="a_node4"><a xlink:href="interfaceSCR__ScenarioFrameworkInventoryLoaderClass.html" target="_top" xlink:title=" ">
<polygon fill="white" stroke="#666666" points="695,-270 528,-270 528,-240 695,-240 695,-270"/>
<text text-anchor="start" x="536" y="-258" font-family="Helvetica,sans-Serif" font-size="10.00">SCR_ScenarioFrameworkInventory</text>
<text text-anchor="middle" x="611.5" y="-247" font-family="Helvetica,sans-Serif" font-size="10.00">LoaderClass</text>
</a>
</g>
</g>
<!-- Node1&#45;&gt;Node4 -->
<g id="edge3" class="edge">
<title>Node1&#45;&gt;Node4</title>
<path fill="none" stroke="#63b8ff" d="M437.86,-158.05C458.71,-179.77 492.67,-211.79 528,-231 534.03,-234.28 540.55,-237.15 547.2,-239.66"/>
<polygon fill="#63b8ff" stroke="#63b8ff" points="440.94,-156.15 431.54,-151.27 435.85,-160.95 440.94,-156.15"/>
</g>
<!-- Node5 -->
<g id="node5" class="node">
<title>Node5</title>
<g id="a_node5"><a xlink:href="interfaceSCR__ScenarioFrameworkLayerTaskClearAreaClass.html" target="_top" xlink:title=" ">
<polygon fill="white" stroke="#666666" points="687.5,-222 535.5,-222 535.5,-192 687.5,-192 687.5,-222"/>
<text text-anchor="start" x="543.5" y="-210" font-family="Helvetica,sans-Serif" font-size="10.00">SCR_ScenarioFrameworkLayer</text>
<text text-anchor="middle" x="611.5" y="-199" font-family="Helvetica,sans-Serif" font-size="10.00">TaskClearAreaClass</text>
</a>
</g>
</g>
<!-- Node1&#45;&gt;Node5 -->
<g id="edge4" class="edge">
<title>Node1&#45;&gt;Node5</title>
<path fill="none" stroke="#63b8ff" d="M459.54,-154.88C480,-164.06 505.02,-174.72 528,-183 536.28,-185.98 545.13,-188.86 553.84,-191.53"/>
<polygon fill="#63b8ff" stroke="#63b8ff" points="461.15,-151.31 450.59,-150.38 458.26,-157.69 461.15,-151.31"/>
</g>
<!-- Node6 -->
<g id="node6" class="node">
<title>Node6</title>
<g id="a_node6"><a xlink:href="interfaceSCR__ScenarioFrameworkLayerTaskDefendClass.html" target="_top" xlink:title=" ">
<polygon fill="white" stroke="#666666" points="687.5,-174 535.5,-174 535.5,-144 687.5,-144 687.5,-174"/>
<text text-anchor="start" x="543.5" y="-162" font-family="Helvetica,sans-Serif" font-size="10.00">SCR_ScenarioFrameworkLayer</text>
<text text-anchor="middle" x="611.5" y="-151" font-family="Helvetica,sans-Serif" font-size="10.00">TaskDefendClass</text>
</a>
</g>
</g>
<!-- Node1&#45;&gt;Node6 -->
<g id="edge5" class="edge">
<title>Node1&#45;&gt;Node6</title>
<path fill="none" stroke="#63b8ff" d="M502.97,-145.66C513.65,-146.99 524.51,-148.33 535.02,-149.64"/>
<polygon fill="#63b8ff" stroke="#63b8ff" points="503.72,-142.11 493.37,-144.35 502.86,-149.05 503.72,-142.11"/>
</g>
<!-- Node7 -->
<g id="node7" class="node">
<title>Node7</title>
<g id="a_node7"><a xlink:href="interfaceSCR__ScenarioFrameworkLayerTaskDeliverClass.html" target="_top" xlink:title=" ">
<polygon fill="white" stroke="#666666" points="687.5,-126 535.5,-126 535.5,-96 687.5,-96 687.5,-126"/>
<text text-anchor="start" x="543.5" y="-114" font-family="Helvetica,sans-Serif" font-size="10.00">SCR_ScenarioFrameworkLayer</text>
<text text-anchor="middle" x="611.5" y="-103" font-family="Helvetica,sans-Serif" font-size="10.00">TaskDeliverClass</text>
</a>
</g>
</g>
<!-- Node1&#45;&gt;Node7 -->
<g id="edge6" class="edge">
<title>Node1&#45;&gt;Node7</title>
<path fill="none" stroke="#63b8ff" d="M502.97,-124.34C513.65,-123.01 524.51,-121.67 535.02,-120.36"/>
<polygon fill="#63b8ff" stroke="#63b8ff" points="502.86,-120.95 493.37,-125.65 503.72,-127.89 502.86,-120.95"/>
</g>
<!-- Node8 -->
<g id="node8" class="node">
<title>Node8</title>
<g id="a_node8"><a xlink:href="interfaceSCR__ScenarioFrameworkLayerTaskDestroyClass.html" target="_top" xlink:title=" ">
<polygon fill="white" stroke="#666666" points="687.5,-78 535.5,-78 535.5,-48 687.5,-48 687.5,-78"/>
<text text-anchor="start" x="543.5" y="-66" font-family="Helvetica,sans-Serif" font-size="10.00">SCR_ScenarioFrameworkLayer</text>
<text text-anchor="middle" x="611.5" y="-55" font-family="Helvetica,sans-Serif" font-size="10.00">TaskDestroyClass</text>
</a>
</g>
</g>
<!-- Node1&#45;&gt;Node8 -->
<g id="edge7" class="edge">
<title>Node1&#45;&gt;Node8</title>
<path fill="none" stroke="#63b8ff" d="M459.54,-115.12C480,-105.94 505.02,-95.28 528,-87 536.28,-84.02 545.13,-81.14 553.84,-78.47"/>
<polygon fill="#63b8ff" stroke="#63b8ff" points="458.26,-112.31 450.59,-119.62 461.15,-118.69 458.26,-112.31"/>
</g>
<!-- Node9 -->
<g id="node9" class="node">
<title>Node9</title>
<g id="a_node9"><a xlink:href="interfaceSCR__ScenarioFrameworkLayerTaskKillClass.html" target="_top" xlink:title=" ">
<polygon fill="white" stroke="#666666" points="687.5,-30 535.5,-30 535.5,0 687.5,0 687.5,-30"/>
<text text-anchor="start" x="543.5" y="-18" font-family="Helvetica,sans-Serif" font-size="10.00">SCR_ScenarioFrameworkLayer</text>
<text text-anchor="middle" x="611.5" y="-7" font-family="Helvetica,sans-Serif" font-size="10.00">TaskKillClass</text>
</a>
</g>
</g>
<!-- Node1&#45;&gt;Node9 -->
<g id="edge8" class="edge">
<title>Node1&#45;&gt;Node9</title>
<path fill="none" stroke="#63b8ff" d="M437.86,-111.95C458.71,-90.23 492.67,-58.21 528,-39 534.03,-35.72 540.55,-32.85 547.2,-30.34"/>
<polygon fill="#63b8ff" stroke="#63b8ff" points="435.85,-109.05 431.54,-118.73 440.94,-113.85 435.85,-109.05"/>
</g>
<!-- Node2 -->
<g id="node2" class="node">
<title>Node2</title>
<g id="a_node2"><a xlink:href="interfaceSCR__ScenarioFrameworkLayerBaseClass.html" target="_top" xlink:title=" ">
<polygon fill="white" stroke="#666666" points="304,-150 152,-150 152,-120 304,-120 304,-150"/>
<text text-anchor="start" x="160" y="-138" font-family="Helvetica,sans-Serif" font-size="10.00">SCR_ScenarioFrameworkLayer</text>
<text text-anchor="middle" x="228" y="-127" font-family="Helvetica,sans-Serif" font-size="10.00">BaseClass</text>
</a>
</g>
</g>
<!-- Node2&#45;&gt;Node1 -->
<g id="edge1" class="edge">
<title>Node2&#45;&gt;Node1</title>
<path fill="none" stroke="#63b8ff" d="M315.33,-135C323.4,-135 331.54,-135 339.51,-135"/>
<polygon fill="#63b8ff" stroke="#63b8ff" points="315.39,-131.5 305.39,-135 315.39,-138.5 315.39,-131.5"/>
</g>
<!-- Node3 -->
<g id="node3" class="node">
<title>Node3</title>
<g id="a_node3"><a xlink:title=" ">
<polygon fill="white" stroke="#666666" points="116,-144.5 0,-144.5 0,-125.5 116,-125.5 116,-144.5"/>
<text text-anchor="middle" x="58" y="-132.5" font-family="Helvetica,sans-Serif" font-size="10.00">ScriptComponentClass</text>
</a>
</g>
</g>
<!-- Node3&#45;&gt;Node2 -->
<g id="edge2" class="edge">
<title>Node3&#45;&gt;Node2</title>
<path fill="none" stroke="#63b8ff" d="M127.22,-135C135.32,-135 143.61,-135 151.79,-135"/>
<polygon fill="#63b8ff" stroke="#63b8ff" points="127.35,-131.5 117.35,-135 127.35,-138.5 127.35,-131.5"/>
</g>
</g>
</svg>
