<?xml version="1.0" encoding="UTF-8" standalone="no"?>
<!DOCTYPE svg PUBLIC "-//W3C//DTD SVG 1.1//EN"
 "http://www.w3.org/Graphics/SVG/1.1/DTD/svg11.dtd">
<!-- Generated by graphviz version 8.0.2 (20230410.1723)
 -->
<!-- Title: SCR_SetSuppliesBaseEditorAttribute Pages: 1 -->
<svg width="175pt" height="214pt"
 viewBox="0.00 0.00 175.00 214.00" xmlns="http://www.w3.org/2000/svg" xmlns:xlink="http://www.w3.org/1999/xlink">
<g id="graph0" class="graph" transform="scale(1 1) rotate(0) translate(4 210)">
<title>SCR_SetSuppliesBaseEditorAttribute</title>
<!-- Node1 -->
<g id="node1" class="node">
<title>Node1</title>
<g id="a_node1"><a xlink:title=" ">
<polygon fill="#999999" stroke="#666666" points="155,-96 12,-96 12,-66 155,-66 155,-96"/>
<text text-anchor="start" x="20" y="-84" font-family="Helvetica,sans-Serif" font-size="10.00">SCR_SetSuppliesBaseEditor</text>
<text text-anchor="middle" x="83.5" y="-73" font-family="Helvetica,sans-Serif" font-size="10.00">Attribute</text>
</a>
</g>
</g>
<!-- Node4 -->
<g id="node4" class="node">
<title>Node4</title>
<g id="a_node4"><a xlink:href="interfaceSCR__SetSuppliesVehicleEditorAttribute.html" target="_top" xlink:title=" ">
<polygon fill="white" stroke="#666666" points="159.5,-30 7.5,-30 7.5,0 159.5,0 159.5,-30"/>
<text text-anchor="start" x="15.5" y="-18" font-family="Helvetica,sans-Serif" font-size="10.00">SCR_SetSuppliesVehicleEditor</text>
<text text-anchor="middle" x="83.5" y="-7" font-family="Helvetica,sans-Serif" font-size="10.00">Attribute</text>
</a>
</g>
</g>
<!-- Node1&#45;&gt;Node4 -->
<g id="edge3" class="edge">
<title>Node1&#45;&gt;Node4</title>
<path fill="none" stroke="#63b8ff" d="M83.5,-54.97C83.5,-46.55 83.5,-37.45 83.5,-30.16"/>
<polygon fill="#63b8ff" stroke="#63b8ff" points="80,-54.8 83.5,-64.8 87,-54.8 80,-54.8"/>
</g>
<!-- Node2 -->
<g id="node2" class="node">
<title>Node2</title>
<g id="a_node2"><a xlink:href="interfaceSCR__BaseValueListEditorAttribute.html" target="_top" xlink:title="Attribute base for slider values for other attributes to inherent from.">
<polygon fill="white" stroke="#666666" points="167,-151 0,-151 0,-132 167,-132 167,-151"/>
<text text-anchor="middle" x="83.5" y="-139" font-family="Helvetica,sans-Serif" font-size="10.00">SCR_BaseValueListEditorAttribute</text>
</a>
</g>
</g>
<!-- Node2&#45;&gt;Node1 -->
<g id="edge1" class="edge">
<title>Node2&#45;&gt;Node1</title>
<path fill="none" stroke="#63b8ff" d="M83.5,-121.08C83.5,-112.92 83.5,-103.6 83.5,-96.11"/>
<polygon fill="#63b8ff" stroke="#63b8ff" points="80,-120.87 83.5,-130.87 87,-120.87 80,-120.87"/>
</g>
<!-- Node3 -->
<g id="node3" class="node">
<title>Node3</title>
<g id="a_node3"><a xlink:href="interfaceSCR__BaseEditorAttribute.html" target="_top" xlink:title="Base Attribute Script for other attributes to inherent from to get and set varriables in Editor Attri...">
<polygon fill="white" stroke="#666666" points="147,-206 20,-206 20,-187 147,-187 147,-206"/>
<text text-anchor="middle" x="83.5" y="-194" font-family="Helvetica,sans-Serif" font-size="10.00">SCR_BaseEditorAttribute</text>
</a>
</g>
</g>
<!-- Node3&#45;&gt;Node2 -->
<g id="edge2" class="edge">
<title>Node3&#45;&gt;Node2</title>
<path fill="none" stroke="#63b8ff" d="M83.5,-175.93C83.5,-167.53 83.5,-158.13 83.5,-151.44"/>
<polygon fill="#63b8ff" stroke="#63b8ff" points="80,-175.75 83.5,-185.75 87,-175.75 80,-175.75"/>
</g>
</g>
</svg>
