<?xml version="1.0" encoding="UTF-8" standalone="no"?>
<!DOCTYPE svg PUBLIC "-//W3C//DTD SVG 1.1//EN"
 "http://www.w3.org/Graphics/SVG/1.1/DTD/svg11.dtd">
<!-- Generated by graphviz version 8.0.2 (20230410.1723)
 -->
<!-- Title: GameSystem Pages: 1 -->
<svg width="567pt" height="1013pt"
 viewBox="0.00 0.00 567.00 1013.00" xmlns="http://www.w3.org/2000/svg" xmlns:xlink="http://www.w3.org/1999/xlink">
<g id="graph0" class="graph" transform="scale(1 1) rotate(0) translate(4 1009)">
<title>GameSystem</title>
<!-- Node1 -->
<g id="node1" class="node">
<title>Node1</title>
<g id="a_node1"><a xlink:title=" ">
<polygon fill="#999999" stroke="#666666" points="186,-512 109,-512 109,-493 186,-493 186,-512"/>
<text text-anchor="middle" x="147.5" y="-500" font-family="Helvetica,sans-Serif" font-size="10.00">GameSystem</text>
</a>
</g>
</g>
<!-- Node3 -->
<g id="node3" class="node">
<title>Node3</title>
<g id="a_node3"><a xlink:href="interfaceAISmartActionSystem.html" target="_top" xlink:title=" ">
<polygon fill="white" stroke="#666666" points="359.5,-1005 246.5,-1005 246.5,-986 359.5,-986 359.5,-1005"/>
<text text-anchor="middle" x="303" y="-993" font-family="Helvetica,sans-Serif" font-size="10.00">AISmartActionSystem</text>
</a>
</g>
</g>
<!-- Node1&#45;&gt;Node3 -->
<g id="edge2" class="edge">
<title>Node1&#45;&gt;Node3</title>
<path fill="none" stroke="#63b8ff" d="M148.75,-523.23C150.18,-605.67 159.66,-909 222,-976.5 228.49,-983.53 237.06,-988.18 246.18,-991.21"/>
<polygon fill="#63b8ff" stroke="#63b8ff" points="152.24,-523.29 148.59,-513.35 145.24,-523.4 152.24,-523.29"/>
</g>
<!-- Node5 -->
<g id="node5" class="node">
<title>Node5</title>
<g id="a_node5"><a xlink:href="interfaceAnimateWidgetSystem.html" target="_top" xlink:title=" ">
<polygon fill="white" stroke="#666666" points="361.5,-968 244.5,-968 244.5,-949 361.5,-949 361.5,-968"/>
<text text-anchor="middle" x="303" y="-956" font-family="Helvetica,sans-Serif" font-size="10.00">AnimateWidgetSystem</text>
</a>
</g>
</g>
<!-- Node1&#45;&gt;Node5 -->
<g id="edge4" class="edge">
<title>Node1&#45;&gt;Node5</title>
<path fill="none" stroke="#63b8ff" d="M149.05,-523.1C151.54,-601.23 164.38,-877.91 222,-939.5 228.05,-945.96 235.86,-950.41 244.22,-953.44"/>
<polygon fill="#63b8ff" stroke="#63b8ff" points="152.52,-523.22 148.73,-513.33 145.53,-523.43 152.52,-523.22"/>
</g>
<!-- Node6 -->
<g id="node6" class="node">
<title>Node6</title>
<g id="a_node6"><a xlink:href="interfaceCampaignBasesSystem.html" target="_top" xlink:title=" ">
<polygon fill="white" stroke="#666666" points="364,-931 242,-931 242,-912 364,-912 364,-931"/>
<text text-anchor="middle" x="303" y="-919" font-family="Helvetica,sans-Serif" font-size="10.00">CampaignBasesSystem</text>
</a>
</g>
</g>
<!-- Node1&#45;&gt;Node6 -->
<g id="edge5" class="edge">
<title>Node1&#45;&gt;Node6</title>
<path fill="none" stroke="#63b8ff" d="M149.38,-522.77C152.98,-596.17 169.03,-846.73 222,-902.5 227.51,-908.3 234.43,-912.47 241.89,-915.44"/>
<polygon fill="#63b8ff" stroke="#63b8ff" points="152.85,-523.04 148.89,-513.22 145.86,-523.37 152.85,-523.04"/>
</g>
<!-- Node7 -->
<g id="node7" class="node">
<title>Node7</title>
<g id="a_node7"><a xlink:href="interfaceDeployMenuSystem.html" target="_top" xlink:title=" ">
<polygon fill="white" stroke="#666666" points="355,-894 251,-894 251,-875 355,-875 355,-894"/>
<text text-anchor="middle" x="303" y="-882" font-family="Helvetica,sans-Serif" font-size="10.00">DeployMenuSystem</text>
</a>
</g>
</g>
<!-- Node1&#45;&gt;Node7 -->
<g id="edge6" class="edge">
<title>Node1&#45;&gt;Node7</title>
<path fill="none" stroke="#63b8ff" d="M149.82,-523.09C154.67,-592.39 173.82,-815.68 222,-865.5 229.64,-873.4 239.92,-878.27 250.57,-881.21"/>
<polygon fill="#63b8ff" stroke="#63b8ff" points="153.26,-523.08 149.09,-513.34 146.27,-523.55 153.26,-523.08"/>
</g>
<!-- Node8 -->
<g id="node8" class="node">
<title>Node8</title>
<g id="a_node8"><a xlink:href="interfaceEffectManagerSystem.html" target="_top" xlink:title=" ">
<polygon fill="white" stroke="#666666" points="359.5,-857 246.5,-857 246.5,-838 359.5,-838 359.5,-857"/>
<text text-anchor="middle" x="303" y="-845" font-family="Helvetica,sans-Serif" font-size="10.00">EffectManagerSystem</text>
</a>
</g>
</g>
<!-- Node1&#45;&gt;Node8 -->
<g id="edge7" class="edge">
<title>Node1&#45;&gt;Node8</title>
<path fill="none" stroke="#63b8ff" d="M150.33,-523.05C156.47,-587.58 178.51,-784.51 222,-828.5 228.62,-835.2 237.15,-839.71 246.16,-842.71"/>
<polygon fill="#63b8ff" stroke="#63b8ff" points="153.74,-522.94 149.33,-513.3 146.77,-523.58 153.74,-522.94"/>
</g>
<!-- Node9 -->
<g id="node9" class="node">
<title>Node9</title>
<g id="a_node9"><a xlink:href="interfaceFireDamageSystem.html" target="_top" xlink:title=" ">
<polygon fill="white" stroke="#666666" points="354.5,-820 251.5,-820 251.5,-801 354.5,-801 354.5,-820"/>
<text text-anchor="middle" x="303" y="-808" font-family="Helvetica,sans-Serif" font-size="10.00">FireDamageSystem</text>
</a>
</g>
</g>
<!-- Node1&#45;&gt;Node9 -->
<g id="edge8" class="edge">
<title>Node1&#45;&gt;Node9</title>
<path fill="none" stroke="#63b8ff" d="M150.96,-523.02C158.5,-582.52 183.17,-753.28 222,-791.5 229.94,-799.31 240.46,-804.13 251.26,-807.05"/>
<polygon fill="#63b8ff" stroke="#63b8ff" points="154.35,-522.89 149.65,-513.39 147.4,-523.74 154.35,-522.89"/>
</g>
<!-- Node10 -->
<g id="node10" class="node">
<title>Node10</title>
<g id="a_node10"><a xlink:href="interfaceFuelConsumptionSystem.html" target="_top" xlink:title=" ">
<polygon fill="white" stroke="#666666" points="366,-783 240,-783 240,-764 366,-764 366,-783"/>
<text text-anchor="middle" x="303" y="-771" font-family="Helvetica,sans-Serif" font-size="10.00">FuelConsumptionSystem</text>
</a>
</g>
</g>
<!-- Node1&#45;&gt;Node10 -->
<g id="edge9" class="edge">
<title>Node1&#45;&gt;Node10</title>
<path fill="none" stroke="#63b8ff" d="M148.03,-523.32C148.13,-571.48 155.46,-691.24 222,-754.5 227.07,-759.32 233.13,-762.99 239.61,-765.77"/>
<polygon fill="#63b8ff" stroke="#63b8ff" points="151.53,-523.49 148.13,-513.46 144.53,-523.43 151.53,-523.49"/>
</g>
<!-- Node11 -->
<g id="node11" class="node">
<title>Node11</title>
<g id="a_node11"><a xlink:href="interfaceGadgetManagersSystem.html" target="_top" xlink:title=" ">
<polygon fill="white" stroke="#666666" points="365.5,-746 240.5,-746 240.5,-727 365.5,-727 365.5,-746"/>
<text text-anchor="middle" x="303" y="-734" font-family="Helvetica,sans-Serif" font-size="10.00">GadgetManagersSystem</text>
</a>
</g>
</g>
<!-- Node1&#45;&gt;Node11 -->
<g id="edge10" class="edge">
<title>Node1&#45;&gt;Node11</title>
<path fill="none" stroke="#63b8ff" d="M149.24,-523.16C151.96,-566.08 164.47,-665.25 222,-717.5 227.28,-722.3 233.56,-725.95 240.23,-728.71"/>
<polygon fill="#63b8ff" stroke="#63b8ff" points="152.7,-523.22 148.7,-513.41 145.71,-523.57 152.7,-523.22"/>
</g>
<!-- Node12 -->
<g id="node12" class="node">
<title>Node12</title>
<g id="a_node12"><a xlink:href="interfaceGadgetsSystem.html" target="_top" xlink:title=" ">
<polygon fill="white" stroke="#666666" points="346.5,-709 259.5,-709 259.5,-690 346.5,-690 346.5,-709"/>
<text text-anchor="middle" x="303" y="-697" font-family="Helvetica,sans-Serif" font-size="10.00">GadgetsSystem</text>
</a>
</g>
</g>
<!-- Node1&#45;&gt;Node12 -->
<g id="edge11" class="edge">
<title>Node1&#45;&gt;Node12</title>
<path fill="none" stroke="#63b8ff" d="M150.89,-522.91C156.36,-560.13 173.34,-639 222,-680.5 232.32,-689.3 246,-694.19 259.12,-696.85"/>
<polygon fill="#63b8ff" stroke="#63b8ff" points="154.28,-522.84 149.49,-513.39 147.34,-523.77 154.28,-522.84"/>
</g>
<!-- Node13 -->
<g id="node13" class="node">
<title>Node13</title>
<g id="a_node13"><a xlink:href="interfaceGarbageSystem.html" target="_top" xlink:title=" ">
<polygon fill="white" stroke="#666666" points="346.5,-672 259.5,-672 259.5,-653 346.5,-653 346.5,-672"/>
<text text-anchor="middle" x="303" y="-660" font-family="Helvetica,sans-Serif" font-size="10.00">GarbageSystem</text>
</a>
</g>
</g>
<!-- Node1&#45;&gt;Node13 -->
<g id="edge12" class="edge">
<title>Node1&#45;&gt;Node13</title>
<path fill="none" stroke="#63b8ff" d="M153.22,-522.51C161.59,-553.39 182.02,-612.36 222,-643.5 232.59,-651.75 246.18,-656.5 259.16,-659.21"/>
<polygon fill="#63b8ff" stroke="#63b8ff" points="156.45,-521.99 150.59,-513.16 149.67,-523.71 156.45,-521.99"/>
</g>
<!-- Node15 -->
<g id="node15" class="node">
<title>Node15</title>
<g id="a_node15"><a xlink:href="interfaceHandleUpdateVONControllersSystem.html" target="_top" xlink:title=" ">
<polygon fill="white" stroke="#666666" points="375.5,-634.5 230.5,-634.5 230.5,-604.5 375.5,-604.5 375.5,-634.5"/>
<text text-anchor="start" x="238.5" y="-622.5" font-family="Helvetica,sans-Serif" font-size="10.00">HandleUpdateVONControllers</text>
<text text-anchor="middle" x="303" y="-611.5" font-family="Helvetica,sans-Serif" font-size="10.00">System</text>
</a>
</g>
</g>
<!-- Node1&#45;&gt;Node15 -->
<g id="edge14" class="edge">
<title>Node1&#45;&gt;Node15</title>
<path fill="none" stroke="#63b8ff" d="M159.18,-521.85C171.64,-542.7 194.14,-575.45 222,-594.5 227.41,-598.2 233.38,-601.37 239.56,-604.08"/>
<polygon fill="#63b8ff" stroke="#63b8ff" points="161.77,-520.34 153.75,-513.43 155.71,-523.84 161.77,-520.34"/>
</g>
<!-- Node16 -->
<g id="node16" class="node">
<title>Node16</title>
<g id="a_node16"><a xlink:href="interfaceInteractionBlockSystem.html" target="_top" xlink:title=" ">
<polygon fill="white" stroke="#666666" points="363,-586 243,-586 243,-567 363,-567 363,-586"/>
<text text-anchor="middle" x="303" y="-574" font-family="Helvetica,sans-Serif" font-size="10.00">InteractionBlockSystem</text>
</a>
</g>
</g>
<!-- Node1&#45;&gt;Node16 -->
<g id="edge15" class="edge">
<title>Node1&#45;&gt;Node16</title>
<path fill="none" stroke="#63b8ff" d="M166.43,-519.26C180.53,-531.56 201.2,-547.76 222,-557.5 229.76,-561.13 238.27,-564.1 246.77,-566.53"/>
<polygon fill="#63b8ff" stroke="#63b8ff" points="169.34,-517.27 159.56,-513.2 164.67,-522.48 169.34,-517.27"/>
</g>
<!-- Node17 -->
<g id="node17" class="node">
<title>Node17</title>
<g id="a_node17"><a xlink:href="interfaceMotorExhaustSystem.html" target="_top" xlink:title=" ">
<polygon fill="white" stroke="#666666" points="358.5,-549 247.5,-549 247.5,-530 358.5,-530 358.5,-549"/>
<text text-anchor="middle" x="303" y="-537" font-family="Helvetica,sans-Serif" font-size="10.00">MotorExhaustSystem</text>
</a>
</g>
</g>
<!-- Node1&#45;&gt;Node17 -->
<g id="edge16" class="edge">
<title>Node1&#45;&gt;Node17</title>
<path fill="none" stroke="#63b8ff" d="M196.73,-514.36C205.15,-516.42 213.83,-518.53 222,-520.5 234.35,-523.48 247.78,-526.68 260.05,-529.6"/>
<polygon fill="#63b8ff" stroke="#63b8ff" points="197.8,-510.78 187.26,-511.8 196.14,-517.58 197.8,-510.78"/>
</g>
<!-- Node18 -->
<g id="node18" class="node">
<title>Node18</title>
<g id="a_node18"><a xlink:href="interfaceNotificationsSystem.html" target="_top" xlink:title="TODO: When systems can be replicated, just move overything from SCR_NotificationsComponent.">
<polygon fill="white" stroke="#666666" points="355,-512 251,-512 251,-493 355,-493 355,-512"/>
<text text-anchor="middle" x="303" y="-500" font-family="Helvetica,sans-Serif" font-size="10.00">NotificationsSystem</text>
</a>
</g>
</g>
<!-- Node1&#45;&gt;Node18 -->
<g id="edge17" class="edge">
<title>Node1&#45;&gt;Node18</title>
<path fill="none" stroke="#63b8ff" d="M197.27,-502.5C214.27,-502.5 233.39,-502.5 250.6,-502.5"/>
<polygon fill="#63b8ff" stroke="#63b8ff" points="197.44,-499 187.44,-502.5 197.44,-506 197.44,-499"/>
</g>
<!-- Node19 -->
<g id="node19" class="node">
<title>Node19</title>
<g id="a_node19"><a xlink:href="interfaceRadialMenuSystem.html" target="_top" xlink:title=" ">
<polygon fill="white" stroke="#666666" points="353.5,-475 252.5,-475 252.5,-456 353.5,-456 353.5,-475"/>
<text text-anchor="middle" x="303" y="-463" font-family="Helvetica,sans-Serif" font-size="10.00">RadialMenuSystem</text>
</a>
</g>
</g>
<!-- Node1&#45;&gt;Node19 -->
<g id="edge18" class="edge">
<title>Node1&#45;&gt;Node19</title>
<path fill="none" stroke="#63b8ff" d="M196.69,-489.81C205.11,-487.66 213.8,-485.48 222,-483.5 233.21,-480.79 245.33,-477.99 256.67,-475.44"/>
<polygon fill="#63b8ff" stroke="#63b8ff" points="196.02,-486.62 187.21,-492.51 197.77,-493.4 196.02,-486.62"/>
</g>
<!-- Node20 -->
<g id="node20" class="node">
<title>Node20</title>
<g id="a_node20"><a xlink:href="interfaceSCR__AmbientPatrolSystem.html" target="_top" xlink:title=" ">
<polygon fill="white" stroke="#666666" points="371.5,-438 234.5,-438 234.5,-419 371.5,-419 371.5,-438"/>
<text text-anchor="middle" x="303" y="-426" font-family="Helvetica,sans-Serif" font-size="10.00">SCR_AmbientPatrolSystem</text>
</a>
</g>
</g>
<!-- Node1&#45;&gt;Node20 -->
<g id="edge19" class="edge">
<title>Node1&#45;&gt;Node20</title>
<path fill="none" stroke="#63b8ff" d="M166.35,-485.35C180.4,-472.78 201.05,-456.27 222,-446.5 228.84,-443.31 236.27,-440.67 243.77,-438.49"/>
<polygon fill="#63b8ff" stroke="#63b8ff" points="164.49,-482.22 159.51,-491.57 169.23,-487.37 164.49,-482.22"/>
</g>
<!-- Node21 -->
<g id="node21" class="node">
<title>Node21</title>
<g id="a_node21"><a xlink:href="interfaceSCR__AmbientVehicleSystem.html" target="_top" xlink:title=" ">
<polygon fill="white" stroke="#666666" points="375,-401 231,-401 231,-382 375,-382 375,-401"/>
<text text-anchor="middle" x="303" y="-389" font-family="Helvetica,sans-Serif" font-size="10.00">SCR_AmbientVehicleSystem</text>
</a>
</g>
</g>
<!-- Node1&#45;&gt;Node21 -->
<g id="edge20" class="edge">
<title>Node1&#45;&gt;Node21</title>
<path fill="none" stroke="#63b8ff" d="M158.49,-483.12C170.57,-461.69 192.96,-427.77 222,-409.5 227.18,-406.24 232.88,-403.57 238.77,-401.38"/>
<polygon fill="#63b8ff" stroke="#63b8ff" points="155.08,-481.06 153.4,-491.52 161.24,-484.39 155.08,-481.06"/>
</g>
<!-- Node22 -->
<g id="node22" class="node">
<title>Node22</title>
<g id="a_node22"><a xlink:href="interfaceSCR__AnimatedBeltSystem.html" target="_top" xlink:title=" ">
<polygon fill="white" stroke="#666666" points="370,-364 236,-364 236,-345 370,-345 370,-364"/>
<text text-anchor="middle" x="303" y="-352" font-family="Helvetica,sans-Serif" font-size="10.00">SCR_AnimatedBeltSystem</text>
</a>
</g>
</g>
<!-- Node1&#45;&gt;Node22 -->
<g id="edge21" class="edge">
<title>Node1&#45;&gt;Node22</title>
<path fill="none" stroke="#63b8ff" d="M154.15,-482.37C163.38,-453.39 184.5,-400.35 222,-372.5 226.34,-369.27 231.16,-366.61 236.21,-364.41"/>
<polygon fill="#63b8ff" stroke="#63b8ff" points="150.53,-481.27 151.01,-491.85 157.24,-483.28 150.53,-481.27"/>
</g>
<!-- Node23 -->
<g id="node23" class="node">
<title>Node23</title>
<g id="a_node23"><a xlink:href="interfaceSCR__BloodOnClothesSystem.html" target="_top" xlink:title=" ">
<polygon fill="white" stroke="#666666" points="376,-327 230,-327 230,-308 376,-308 376,-327"/>
<text text-anchor="middle" x="303" y="-315" font-family="Helvetica,sans-Serif" font-size="10.00">SCR_BloodOnClothesSystem</text>
</a>
</g>
</g>
<!-- Node1&#45;&gt;Node23 -->
<g id="edge22" class="edge">
<title>Node1&#45;&gt;Node23</title>
<path fill="none" stroke="#63b8ff" d="M151.41,-482.31C157.64,-446.88 175.64,-373.67 222,-335.5 225.96,-332.24 230.38,-329.55 235.07,-327.32"/>
<polygon fill="#63b8ff" stroke="#63b8ff" points="147.86,-481.34 149.73,-491.77 154.77,-482.45 147.86,-481.34"/>
</g>
<!-- Node24 -->
<g id="node24" class="node">
<title>Node24</title>
<g id="a_node24"><a xlink:href="interfaceSCR__DeployableSpawnPointSystem.html" target="_top" xlink:title=" ">
<polygon fill="white" stroke="#666666" points="374,-289.5 232,-289.5 232,-259.5 374,-259.5 374,-289.5"/>
<text text-anchor="start" x="240" y="-277.5" font-family="Helvetica,sans-Serif" font-size="10.00">SCR_DeployableSpawnPoint</text>
<text text-anchor="middle" x="303" y="-266.5" font-family="Helvetica,sans-Serif" font-size="10.00">System</text>
</a>
</g>
</g>
<!-- Node1&#45;&gt;Node24 -->
<g id="edge23" class="edge">
<title>Node1&#45;&gt;Node24</title>
<path fill="none" stroke="#63b8ff" d="M149.94,-482.04C153.91,-441.17 168.63,-349.05 222,-298.5 225.47,-295.21 229.38,-292.37 233.55,-289.92"/>
<polygon fill="#63b8ff" stroke="#63b8ff" points="146.38,-481.5 149.03,-491.76 153.36,-482.09 146.38,-481.5"/>
</g>
<!-- Node25 -->
<g id="node25" class="node">
<title>Node25</title>
<g id="a_node25"><a xlink:href="interfaceSCR__MapMarkerManagerSystem.html" target="_top" xlink:title=" ">
<polygon fill="white" stroke="#666666" points="384,-241 222,-241 222,-222 384,-222 384,-241"/>
<text text-anchor="middle" x="303" y="-229" font-family="Helvetica,sans-Serif" font-size="10.00">SCR_MapMarkerManagerSystem</text>
</a>
</g>
</g>
<!-- Node1&#45;&gt;Node25 -->
<g id="edge24" class="edge">
<title>Node1&#45;&gt;Node25</title>
<path fill="none" stroke="#63b8ff" d="M148.03,-481.68C148.13,-433.52 155.46,-313.76 222,-250.5 225.83,-246.86 230.22,-243.88 234.93,-241.43"/>
<polygon fill="#63b8ff" stroke="#63b8ff" points="144.53,-481.57 148.13,-491.54 151.53,-481.51 144.53,-481.57"/>
</g>
<!-- Node26 -->
<g id="node26" class="node">
<title>Node26</title>
<g id="a_node26"><a xlink:href="interfaceSCR__MilitaryBaseSystem.html" target="_top" xlink:title=" ">
<polygon fill="white" stroke="#666666" points="368,-204 238,-204 238,-185 368,-185 368,-204"/>
<text text-anchor="middle" x="303" y="-192" font-family="Helvetica,sans-Serif" font-size="10.00">SCR_MilitaryBaseSystem</text>
</a>
</g>
</g>
<!-- Node1&#45;&gt;Node26 -->
<g id="edge25" class="edge">
<title>Node1&#45;&gt;Node26</title>
<path fill="none" stroke="#63b8ff" d="M150.93,-481.89C158.38,-422.13 182.83,-250.63 222,-212.5 226.49,-208.13 231.8,-204.73 237.51,-202.1"/>
<polygon fill="#63b8ff" stroke="#63b8ff" points="147.36,-481.22 149.63,-491.57 154.31,-482.06 147.36,-481.22"/>
</g>
<!-- Node27 -->
<g id="node27" class="node">
<title>Node27</title>
<g id="a_node27"><a xlink:href="interfaceSCR__RadioCoverageSystem.html" target="_top" xlink:title=" ">
<polygon fill="white" stroke="#666666" points="373,-167 233,-167 233,-148 373,-148 373,-167"/>
<text text-anchor="middle" x="303" y="-155" font-family="Helvetica,sans-Serif" font-size="10.00">SCR_RadioCoverageSystem</text>
</a>
</g>
</g>
<!-- Node1&#45;&gt;Node27 -->
<g id="edge26" class="edge">
<title>Node1&#45;&gt;Node27</title>
<path fill="none" stroke="#63b8ff" d="M150.29,-481.86C156.35,-417.07 178.13,-219.38 222,-175.5 225.22,-172.28 228.89,-169.58 232.84,-167.33"/>
<polygon fill="#63b8ff" stroke="#63b8ff" points="146.73,-481.39 149.32,-491.66 153.7,-482.02 146.73,-481.39"/>
</g>
<!-- Node28 -->
<g id="node28" class="node">
<title>Node28</title>
<g id="a_node28"><a xlink:href="interfaceSCR__ResourceSystem.html" target="_top" xlink:title=" ">
<polygon fill="white" stroke="#666666" points="361.5,-130 244.5,-130 244.5,-111 361.5,-111 361.5,-130"/>
<text text-anchor="middle" x="303" y="-118" font-family="Helvetica,sans-Serif" font-size="10.00">SCR_ResourceSystem</text>
</a>
</g>
</g>
<!-- Node1&#45;&gt;Node28 -->
<g id="edge27" class="edge">
<title>Node1&#45;&gt;Node28</title>
<path fill="none" stroke="#63b8ff" d="M149.79,-481.84C154.54,-412.27 173.41,-188.17 222,-138.5 228.07,-132.29 235.79,-128.02 244.03,-125.12"/>
<polygon fill="#63b8ff" stroke="#63b8ff" points="146.24,-481.42 149.08,-491.62 153.23,-481.87 146.24,-481.42"/>
</g>
<!-- Node29 -->
<g id="node29" class="node">
<title>Node29</title>
<g id="a_node29"><a xlink:href="interfaceSCR__VoiceoverSystem.html" target="_top" xlink:title=" ">
<polygon fill="white" stroke="#666666" points="362,-93 244,-93 244,-74 362,-74 362,-93"/>
<text text-anchor="middle" x="303" y="-81" font-family="Helvetica,sans-Serif" font-size="10.00">SCR_VoiceoverSystem</text>
</a>
</g>
</g>
<!-- Node1&#45;&gt;Node29 -->
<g id="edge28" class="edge">
<title>Node1&#45;&gt;Node29</title>
<path fill="none" stroke="#63b8ff" d="M149.35,-482.16C152.85,-408.51 168.58,-157.1 222,-101.5 227.92,-95.34 235.46,-91.08 243.53,-88.17"/>
<polygon fill="#63b8ff" stroke="#63b8ff" points="145.83,-481.6 148.88,-491.75 152.82,-481.91 145.83,-481.6"/>
</g>
<!-- Node30 -->
<g id="node30" class="node">
<title>Node30</title>
<g id="a_node30"><a xlink:href="interfaceTagSystem.html" target="_top" xlink:title=" ">
<polygon fill="white" stroke="#666666" points="336,-56 270,-56 270,-37 336,-37 336,-56"/>
<text text-anchor="middle" x="303" y="-44" font-family="Helvetica,sans-Serif" font-size="10.00">TagSystem</text>
</a>
</g>
</g>
<!-- Node1&#45;&gt;Node30 -->
<g id="edge29" class="edge">
<title>Node1&#45;&gt;Node30</title>
<path fill="none" stroke="#63b8ff" d="M149.02,-481.83C151.4,-403.45 163.89,-125.9 222,-64.5 234.13,-51.68 253.28,-47.05 269.8,-45.7"/>
<polygon fill="#63b8ff" stroke="#63b8ff" points="145.5,-481.54 148.71,-491.64 152.49,-481.74 145.5,-481.54"/>
</g>
<!-- Node31 -->
<g id="node31" class="node">
<title>Node31</title>
<g id="a_node31"><a xlink:href="interfaceVehiclesDustSystem.html" target="_top" xlink:title=" ">
<polygon fill="white" stroke="#666666" points="357,-19 249,-19 249,0 357,0 357,-19"/>
<text text-anchor="middle" x="303" y="-7" font-family="Helvetica,sans-Serif" font-size="10.00">VehiclesDustSystem</text>
</a>
</g>
</g>
<!-- Node1&#45;&gt;Node31 -->
<g id="edge30" class="edge">
<title>Node1&#45;&gt;Node31</title>
<path fill="none" stroke="#63b8ff" d="M148.72,-481.7C150.04,-399.01 159.14,-94.77 222,-27.5 229.1,-19.91 238.65,-15.18 248.68,-12.3"/>
<polygon fill="#63b8ff" stroke="#63b8ff" points="145.21,-481.58 148.57,-491.62 152.21,-481.67 145.21,-481.58"/>
</g>
<!-- Node2 -->
<g id="node2" class="node">
<title>Node2</title>
<g id="a_node2"><a xlink:title=" ">
<polygon fill="white" stroke="#666666" points="73,-512 0,-512 0,-493 73,-493 73,-512"/>
<text text-anchor="middle" x="36.5" y="-500" font-family="Helvetica,sans-Serif" font-size="10.00">BaseSystem</text>
</a>
</g>
</g>
<!-- Node2&#45;&gt;Node1 -->
<g id="edge1" class="edge">
<title>Node2&#45;&gt;Node1</title>
<path fill="none" stroke="#63b8ff" d="M84.36,-502.5C92.48,-502.5 100.83,-502.5 108.67,-502.5"/>
<polygon fill="#63b8ff" stroke="#63b8ff" points="84.49,-499 74.49,-502.5 84.49,-506 84.49,-499"/>
</g>
<!-- Node4 -->
<g id="node4" class="node">
<title>Node4</title>
<g id="a_node4"><a xlink:href="interfaceSCR__AISmartActionSystem.html" target="_top" xlink:title=" ">
<polygon fill="white" stroke="#666666" points="559,-1005 420,-1005 420,-986 559,-986 559,-1005"/>
<text text-anchor="middle" x="489.5" y="-993" font-family="Helvetica,sans-Serif" font-size="10.00">SCR_AISmartActionSystem</text>
</a>
</g>
</g>
<!-- Node3&#45;&gt;Node4 -->
<g id="edge3" class="edge">
<title>Node3&#45;&gt;Node4</title>
<path fill="none" stroke="#63b8ff" d="M370.71,-995.5C386.67,-995.5 403.74,-995.5 419.79,-995.5"/>
<polygon fill="#63b8ff" stroke="#63b8ff" points="370.86,-992 360.86,-995.5 370.86,-999 370.86,-992"/>
</g>
<!-- Node14 -->
<g id="node14" class="node">
<title>Node14</title>
<g id="a_node14"><a xlink:href="interfaceSCR__GarbageSystem.html" target="_top" xlink:title="Script entry for garbage system modding.">
<polygon fill="white" stroke="#666666" points="546,-672 433,-672 433,-653 546,-653 546,-672"/>
<text text-anchor="middle" x="489.5" y="-660" font-family="Helvetica,sans-Serif" font-size="10.00">SCR_GarbageSystem</text>
</a>
</g>
</g>
<!-- Node13&#45;&gt;Node14 -->
<g id="edge13" class="edge">
<title>Node13&#45;&gt;Node14</title>
<path fill="none" stroke="#63b8ff" d="M357.64,-662.5C381.19,-662.5 408.84,-662.5 432.64,-662.5"/>
<polygon fill="#63b8ff" stroke="#63b8ff" points="357.79,-659 347.79,-662.5 357.79,-666 357.79,-659"/>
</g>
</g>
</svg>
