<?xml version="1.0" encoding="UTF-8" standalone="no"?>
<!DOCTYPE svg PUBLIC "-//W3C//DTD SVG 1.1//EN"
 "http://www.w3.org/Graphics/SVG/1.1/DTD/svg11.dtd">
<!-- Generated by graphviz version 8.0.2 (20230410.1723)
 -->
<!-- Title: SCR_FactionsToolbarItemEditorUIComponent Pages: 1 -->
<svg width="163pt" height="225pt"
 viewBox="0.00 0.00 163.00 225.00" xmlns="http://www.w3.org/2000/svg" xmlns:xlink="http://www.w3.org/1999/xlink">
<g id="graph0" class="graph" transform="scale(1 1) rotate(0) translate(4 221)">
<title>SCR_FactionsToolbarItemEditorUIComponent</title>
<!-- Node1 -->
<g id="node1" class="node">
<title>Node1</title>
<g id="a_node1"><a xlink:title=" ">
<polygon fill="#999999" stroke="#666666" points="155,-30 0,-30 0,0 155,0 155,-30"/>
<text text-anchor="start" x="8" y="-18" font-family="Helvetica,sans-Serif" font-size="10.00">SCR_FactionsToolbarItemEditor</text>
<text text-anchor="middle" x="77.5" y="-7" font-family="Helvetica,sans-Serif" font-size="10.00">UIComponent</text>
</a>
</g>
</g>
<!-- Node2 -->
<g id="node2" class="node">
<title>Node2</title>
<g id="a_node2"><a xlink:href="interfaceSCR__EntityToolbarItemEditorUIComponent.html" target="_top" xlink:title=" ">
<polygon fill="white" stroke="#666666" points="149,-96 6,-96 6,-66 149,-66 149,-96"/>
<text text-anchor="start" x="14" y="-84" font-family="Helvetica,sans-Serif" font-size="10.00">SCR_EntityToolbarItemEditor</text>
<text text-anchor="middle" x="77.5" y="-73" font-family="Helvetica,sans-Serif" font-size="10.00">UIComponent</text>
</a>
</g>
</g>
<!-- Node2&#45;&gt;Node1 -->
<g id="edge1" class="edge">
<title>Node2&#45;&gt;Node1</title>
<path fill="none" stroke="#63b8ff" d="M77.5,-54.97C77.5,-46.55 77.5,-37.45 77.5,-30.16"/>
<polygon fill="#63b8ff" stroke="#63b8ff" points="74,-54.8 77.5,-64.8 81,-54.8 74,-54.8"/>
</g>
<!-- Node3 -->
<g id="node3" class="node">
<title>Node3</title>
<g id="a_node3"><a xlink:href="interfaceSCR__BaseToolbarItemEditorUIComponent.html" target="_top" xlink:title=" ">
<polygon fill="white" stroke="#666666" points="147.5,-162 7.5,-162 7.5,-132 147.5,-132 147.5,-162"/>
<text text-anchor="start" x="15.5" y="-150" font-family="Helvetica,sans-Serif" font-size="10.00">SCR_BaseToolbarItemEditor</text>
<text text-anchor="middle" x="77.5" y="-139" font-family="Helvetica,sans-Serif" font-size="10.00">UIComponent</text>
</a>
</g>
</g>
<!-- Node3&#45;&gt;Node2 -->
<g id="edge2" class="edge">
<title>Node3&#45;&gt;Node2</title>
<path fill="none" stroke="#63b8ff" d="M77.5,-120.97C77.5,-112.55 77.5,-103.45 77.5,-96.16"/>
<polygon fill="#63b8ff" stroke="#63b8ff" points="74,-120.8 77.5,-130.8 81,-120.8 74,-120.8"/>
</g>
<!-- Node4 -->
<g id="node4" class="node">
<title>Node4</title>
<g id="a_node4"><a xlink:title=" ">
<polygon fill="white" stroke="#666666" points="144,-217 11,-217 11,-198 144,-198 144,-217"/>
<text text-anchor="middle" x="77.5" y="-205" font-family="Helvetica,sans-Serif" font-size="10.00">ScriptedWidgetComponent</text>
</a>
</g>
</g>
<!-- Node4&#45;&gt;Node3 -->
<g id="edge3" class="edge">
<title>Node4&#45;&gt;Node3</title>
<path fill="none" stroke="#63b8ff" d="M77.5,-187.08C77.5,-178.92 77.5,-169.6 77.5,-162.11"/>
<polygon fill="#63b8ff" stroke="#63b8ff" points="74,-186.87 77.5,-196.87 81,-186.87 74,-186.87"/>
</g>
</g>
</svg>
