<?xml version="1.0" encoding="UTF-8" standalone="no"?>
<!DOCTYPE svg PUBLIC "-//W3C//DTD SVG 1.1//EN"
 "http://www.w3.org/Graphics/SVG/1.1/DTD/svg11.dtd">
<!-- Generated by graphviz version 8.0.2 (20230410.1723)
 -->
<!-- Title: SCR_RemoveWeaponContextAction Pages: 1 -->
<svg width="182pt" height="203pt"
 viewBox="0.00 0.00 182.00 203.00" xmlns="http://www.w3.org/2000/svg" xmlns:xlink="http://www.w3.org/1999/xlink">
<g id="graph0" class="graph" transform="scale(1 1) rotate(0) translate(4 199)">
<title>SCR_RemoveWeaponContextAction</title>
<!-- Node1 -->
<g id="node1" class="node">
<title>Node1</title>
<g id="a_node1"><a xlink:title=" ">
<polygon fill="#999999" stroke="#666666" points="174,-19 0,-19 0,0 174,0 174,-19"/>
<text text-anchor="middle" x="87" y="-7" font-family="Helvetica,sans-Serif" font-size="10.00">SCR_RemoveWeaponContextAction</text>
</a>
</g>
</g>
<!-- Node2 -->
<g id="node2" class="node">
<title>Node2</title>
<g id="a_node2"><a xlink:href="interfaceSCR__SelectedEntitiesContextAction.html" target="_top" xlink:title="Base container class for editor context actions which apply to selected entities.">
<polygon fill="white" stroke="#666666" points="160.5,-85 13.5,-85 13.5,-55 160.5,-55 160.5,-85"/>
<text text-anchor="start" x="21.5" y="-73" font-family="Helvetica,sans-Serif" font-size="10.00">SCR_SelectedEntitiesContext</text>
<text text-anchor="middle" x="87" y="-62" font-family="Helvetica,sans-Serif" font-size="10.00">Action</text>
</a>
</g>
</g>
<!-- Node2&#45;&gt;Node1 -->
<g id="edge1" class="edge">
<title>Node2&#45;&gt;Node1</title>
<path fill="none" stroke="#63b8ff" d="M87,-43.59C87,-34.85 87,-25.65 87,-19.18"/>
<polygon fill="#63b8ff" stroke="#63b8ff" points="83.5,-43.54 87,-53.54 90.5,-43.54 83.5,-43.54"/>
</g>
<!-- Node3 -->
<g id="node3" class="node">
<title>Node3</title>
<g id="a_node3"><a xlink:href="interfaceSCR__BaseContextAction.html" target="_top" xlink:title="Base container class for editor context actions.">
<polygon fill="white" stroke="#666666" points="150,-140 24,-140 24,-121 150,-121 150,-140"/>
<text text-anchor="middle" x="87" y="-128" font-family="Helvetica,sans-Serif" font-size="10.00">SCR_BaseContextAction</text>
</a>
</g>
</g>
<!-- Node3&#45;&gt;Node2 -->
<g id="edge2" class="edge">
<title>Node3&#45;&gt;Node2</title>
<path fill="none" stroke="#63b8ff" d="M87,-110.08C87,-101.92 87,-92.6 87,-85.11"/>
<polygon fill="#63b8ff" stroke="#63b8ff" points="83.5,-109.87 87,-119.87 90.5,-109.87 83.5,-109.87"/>
</g>
<!-- Node4 -->
<g id="node4" class="node">
<title>Node4</title>
<g id="a_node4"><a xlink:href="interfaceSCR__BaseEditorAction.html" target="_top" xlink:title="Base container class for all editor action types (ContextActions, WaypointActions,...">
<polygon fill="white" stroke="#666666" points="146,-195 28,-195 28,-176 146,-176 146,-195"/>
<text text-anchor="middle" x="87" y="-183" font-family="Helvetica,sans-Serif" font-size="10.00">SCR_BaseEditorAction</text>
</a>
</g>
</g>
<!-- Node4&#45;&gt;Node3 -->
<g id="edge3" class="edge">
<title>Node4&#45;&gt;Node3</title>
<path fill="none" stroke="#63b8ff" d="M87,-164.93C87,-156.53 87,-147.13 87,-140.44"/>
<polygon fill="#63b8ff" stroke="#63b8ff" points="83.5,-164.75 87,-174.75 90.5,-164.75 83.5,-164.75"/>
</g>
</g>
</svg>
