<?xml version="1.0" encoding="UTF-8" standalone="no"?>
<!DOCTYPE svg PUBLIC "-//W3C//DTD SVG 1.1//EN"
 "http://www.w3.org/Graphics/SVG/1.1/DTD/svg11.dtd">
<!-- Generated by graphviz version 8.0.2 (20230410.1723)
 -->
<!-- Title: GadgetAnimationComponentClass Pages: 1 -->
<svg width="159pt" height="170pt"
 viewBox="0.00 0.00 159.00 170.00" xmlns="http://www.w3.org/2000/svg" xmlns:xlink="http://www.w3.org/1999/xlink">
<g id="graph0" class="graph" transform="scale(1 1) rotate(0) translate(4 166)">
<title>GadgetAnimationComponentClass</title>
<!-- Node1 -->
<g id="node1" class="node">
<title>Node1</title>
<g id="a_node1"><a xlink:title=" ">
<polygon fill="#999999" stroke="#666666" points="146,-30 5,-30 5,0 146,0 146,-30"/>
<text text-anchor="start" x="13" y="-18" font-family="Helvetica,sans-Serif" font-size="10.00">GadgetAnimationComponent</text>
<text text-anchor="middle" x="75.5" y="-7" font-family="Helvetica,sans-Serif" font-size="10.00">Class</text>
</a>
</g>
</g>
<!-- Node2 -->
<g id="node2" class="node">
<title>Node2</title>
<g id="a_node2"><a xlink:href="interfaceBaseItemAnimationComponentClass.html" target="_top" xlink:title=" ">
<polygon fill="white" stroke="#666666" points="151,-96 0,-96 0,-66 151,-66 151,-96"/>
<text text-anchor="start" x="8" y="-84" font-family="Helvetica,sans-Serif" font-size="10.00">BaseItemAnimationComponent</text>
<text text-anchor="middle" x="75.5" y="-73" font-family="Helvetica,sans-Serif" font-size="10.00">Class</text>
</a>
</g>
</g>
<!-- Node2&#45;&gt;Node1 -->
<g id="edge1" class="edge">
<title>Node2&#45;&gt;Node1</title>
<path fill="none" stroke="#63b8ff" d="M75.5,-54.97C75.5,-46.55 75.5,-37.45 75.5,-30.16"/>
<polygon fill="#63b8ff" stroke="#63b8ff" points="72,-54.8 75.5,-64.8 79,-54.8 72,-54.8"/>
</g>
<!-- Node3 -->
<g id="node3" class="node">
<title>Node3</title>
<g id="a_node3"><a xlink:title=" ">
<polygon fill="white" stroke="#666666" points="151,-162 0,-162 0,-132 151,-132 151,-162"/>
<text text-anchor="start" x="8" y="-150" font-family="Helvetica,sans-Serif" font-size="10.00">AnimationControllerComponent</text>
<text text-anchor="middle" x="75.5" y="-139" font-family="Helvetica,sans-Serif" font-size="10.00">Class</text>
</a>
</g>
</g>
<!-- Node3&#45;&gt;Node2 -->
<g id="edge2" class="edge">
<title>Node3&#45;&gt;Node2</title>
<path fill="none" stroke="#63b8ff" d="M75.5,-120.97C75.5,-112.55 75.5,-103.45 75.5,-96.16"/>
<polygon fill="#63b8ff" stroke="#63b8ff" points="72,-120.8 75.5,-130.8 79,-120.8 72,-120.8"/>
</g>
</g>
</svg>
