<?xml version="1.0" encoding="UTF-8" standalone="no"?>
<!DOCTYPE svg PUBLIC "-//W3C//DTD SVG 1.1//EN"
 "http://www.w3.org/Graphics/SVG/1.1/DTD/svg11.dtd">
<!-- Generated by graphviz version 8.0.2 (20230410.1723)
 -->
<!-- Title: SCR_WindDirectionEditorAttribute Pages: 1 -->
<svg width="173pt" height="148pt"
 viewBox="0.00 0.00 173.00 148.00" xmlns="http://www.w3.org/2000/svg" xmlns:xlink="http://www.w3.org/1999/xlink">
<g id="graph0" class="graph" transform="scale(1 1) rotate(0) translate(4 144)">
<title>SCR_WindDirectionEditorAttribute</title>
<!-- Node1 -->
<g id="node1" class="node">
<title>Node1</title>
<g id="a_node1"><a xlink:title="Wind direction Attribute for getting and setting varriables in Editor Attribute window.">
<polygon fill="#999999" stroke="#666666" points="165,-19 0,-19 0,0 165,0 165,-19"/>
<text text-anchor="middle" x="82.5" y="-7" font-family="Helvetica,sans-Serif" font-size="10.00">SCR_WindDirectionEditorAttribute</text>
</a>
</g>
</g>
<!-- Node2 -->
<g id="node2" class="node">
<title>Node2</title>
<g id="a_node2"><a xlink:href="interfaceSCR__BaseFloatValueHolderEditorAttribute.html" target="_top" xlink:title="Attribute base for Name, icon and float value for other attributes to inherent from.">
<polygon fill="white" stroke="#666666" points="152,-85 13,-85 13,-55 152,-55 152,-85"/>
<text text-anchor="start" x="21" y="-73" font-family="Helvetica,sans-Serif" font-size="10.00">SCR_BaseFloatValueHolder</text>
<text text-anchor="middle" x="82.5" y="-62" font-family="Helvetica,sans-Serif" font-size="10.00">EditorAttribute</text>
</a>
</g>
</g>
<!-- Node2&#45;&gt;Node1 -->
<g id="edge1" class="edge">
<title>Node2&#45;&gt;Node1</title>
<path fill="none" stroke="#63b8ff" d="M82.5,-43.59C82.5,-34.85 82.5,-25.65 82.5,-19.18"/>
<polygon fill="#63b8ff" stroke="#63b8ff" points="79,-43.54 82.5,-53.54 86,-43.54 79,-43.54"/>
</g>
<!-- Node3 -->
<g id="node3" class="node">
<title>Node3</title>
<g id="a_node3"><a xlink:href="interfaceSCR__BaseEditorAttribute.html" target="_top" xlink:title="Base Attribute Script for other attributes to inherent from to get and set varriables in Editor Attri...">
<polygon fill="white" stroke="#666666" points="146,-140 19,-140 19,-121 146,-121 146,-140"/>
<text text-anchor="middle" x="82.5" y="-128" font-family="Helvetica,sans-Serif" font-size="10.00">SCR_BaseEditorAttribute</text>
</a>
</g>
</g>
<!-- Node3&#45;&gt;Node2 -->
<g id="edge2" class="edge">
<title>Node3&#45;&gt;Node2</title>
<path fill="none" stroke="#63b8ff" d="M82.5,-110.08C82.5,-101.92 82.5,-92.6 82.5,-85.11"/>
<polygon fill="#63b8ff" stroke="#63b8ff" points="79,-109.87 82.5,-119.87 86,-109.87 79,-109.87"/>
</g>
</g>
</svg>
