<?xml version="1.0" encoding="UTF-8" standalone="no"?>
<!DOCTYPE svg PUBLIC "-//W3C//DTD SVG 1.1//EN"
 "http://www.w3.org/Graphics/SVG/1.1/DTD/svg11.dtd">
<!-- Generated by graphviz version 8.0.2 (20230410.1723)
 -->
<!-- Title: SCR_ValidTypeBaseValueListEditorAttribute Pages: 1 -->
<svg width="908pt" height="257pt"
 viewBox="0.00 0.00 908.00 257.00" xmlns="http://www.w3.org/2000/svg" xmlns:xlink="http://www.w3.org/1999/xlink">
<g id="graph0" class="graph" transform="scale(1 1) rotate(0) translate(4 253)">
<title>SCR_ValidTypeBaseValueListEditorAttribute</title>
<!-- Node1 -->
<g id="node1" class="node">
<title>Node1</title>
<g id="a_node1"><a xlink:title=" ">
<polygon fill="#999999" stroke="#666666" points="514,-147 366,-147 366,-117 514,-117 514,-147"/>
<text text-anchor="start" x="374" y="-135" font-family="Helvetica,sans-Serif" font-size="10.00">SCR_ValidTypeBaseValueList</text>
<text text-anchor="middle" x="440" y="-124" font-family="Helvetica,sans-Serif" font-size="10.00">EditorAttribute</text>
</a>
</g>
</g>
<!-- Node4 -->
<g id="node4" class="node">
<title>Node4</title>
<g id="a_node4"><a xlink:href="interfaceSCR__HealthEditorAttribute.html" target="_top" xlink:title="Entity Health Attribute for getting and setting varriables in Editor Attribute window.">
<polygon fill="white" stroke="#666666" points="690.5,-181.5 558.5,-181.5 558.5,-162.5 690.5,-162.5 690.5,-181.5"/>
<text text-anchor="middle" x="624.5" y="-169.5" font-family="Helvetica,sans-Serif" font-size="10.00">SCR_HealthEditorAttribute</text>
</a>
</g>
</g>
<!-- Node1&#45;&gt;Node4 -->
<g id="edge3" class="edge">
<title>Node1&#45;&gt;Node4</title>
<path fill="none" stroke="#63b8ff" d="M522.1,-149.78C541.23,-153.97 560.96,-158.29 577.88,-162"/>
<polygon fill="#63b8ff" stroke="#63b8ff" points="523.08,-146.19 512.56,-147.47 521.58,-153.02 523.08,-146.19"/>
</g>
<!-- Node8 -->
<g id="node8" class="node">
<title>Node8</title>
<g id="a_node8"><a xlink:href="interfaceSCR__RotationEditorAttribute.html" target="_top" xlink:title=" ">
<polygon fill="white" stroke="#666666" points="694.5,-141.5 554.5,-141.5 554.5,-122.5 694.5,-122.5 694.5,-141.5"/>
<text text-anchor="middle" x="624.5" y="-129.5" font-family="Helvetica,sans-Serif" font-size="10.00">SCR_RotationEditorAttribute</text>
</a>
</g>
</g>
<!-- Node1&#45;&gt;Node8 -->
<g id="edge7" class="edge">
<title>Node1&#45;&gt;Node8</title>
<path fill="none" stroke="#63b8ff" d="M525.26,-132C534.9,-132 544.64,-132 554.06,-132"/>
<polygon fill="#63b8ff" stroke="#63b8ff" points="525.44,-128.5 515.44,-132 525.44,-135.5 525.44,-128.5"/>
</g>
<!-- Node9 -->
<g id="node9" class="node">
<title>Node9</title>
<g id="a_node9"><a xlink:href="interfaceSCR__SetEnableDamageEditorAttribute.html" target="_top" xlink:title=" ">
<polygon fill="white" stroke="#666666" points="699,-99 550,-99 550,-69 699,-69 699,-99"/>
<text text-anchor="start" x="558" y="-87" font-family="Helvetica,sans-Serif" font-size="10.00">SCR_SetEnableDamageEditor</text>
<text text-anchor="middle" x="624.5" y="-76" font-family="Helvetica,sans-Serif" font-size="10.00">Attribute</text>
</a>
</g>
</g>
<!-- Node1&#45;&gt;Node9 -->
<g id="edge8" class="edge">
<title>Node1&#45;&gt;Node9</title>
<path fill="none" stroke="#63b8ff" d="M510.19,-113.8C528.21,-109.06 547.45,-104 564.86,-99.42"/>
<polygon fill="#63b8ff" stroke="#63b8ff" points="509.53,-110.62 500.75,-116.55 511.31,-117.39 509.53,-110.62"/>
</g>
<!-- Node2 -->
<g id="node2" class="node">
<title>Node2</title>
<g id="a_node2"><a xlink:href="interfaceSCR__BaseValueListEditorAttribute.html" target="_top" xlink:title="Attribute base for slider values for other attributes to inherent from.">
<polygon fill="white" stroke="#666666" points="330,-141.5 163,-141.5 163,-122.5 330,-122.5 330,-141.5"/>
<text text-anchor="middle" x="246.5" y="-129.5" font-family="Helvetica,sans-Serif" font-size="10.00">SCR_BaseValueListEditorAttribute</text>
</a>
</g>
</g>
<!-- Node2&#45;&gt;Node1 -->
<g id="edge1" class="edge">
<title>Node2&#45;&gt;Node1</title>
<path fill="none" stroke="#63b8ff" d="M341.15,-132C349.37,-132 357.61,-132 365.62,-132"/>
<polygon fill="#63b8ff" stroke="#63b8ff" points="341.38,-128.5 331.38,-132 341.38,-135.5 341.38,-128.5"/>
</g>
<!-- Node3 -->
<g id="node3" class="node">
<title>Node3</title>
<g id="a_node3"><a xlink:href="interfaceSCR__BaseEditorAttribute.html" target="_top" xlink:title="Base Attribute Script for other attributes to inherent from to get and set varriables in Editor Attri...">
<polygon fill="white" stroke="#666666" points="127,-141.5 0,-141.5 0,-122.5 127,-122.5 127,-141.5"/>
<text text-anchor="middle" x="63.5" y="-129.5" font-family="Helvetica,sans-Serif" font-size="10.00">SCR_BaseEditorAttribute</text>
</a>
</g>
</g>
<!-- Node3&#45;&gt;Node2 -->
<g id="edge2" class="edge">
<title>Node3&#45;&gt;Node2</title>
<path fill="none" stroke="#63b8ff" d="M138.18,-132C146.27,-132 154.54,-132 162.73,-132"/>
<polygon fill="#63b8ff" stroke="#63b8ff" points="138.3,-128.5 128.3,-132 138.3,-135.5 138.3,-128.5"/>
</g>
<!-- Node5 -->
<g id="node5" class="node">
<title>Node5</title>
<g id="a_node5"><a xlink:href="interfaceSCR__HealthCharacterEditorAttribute.html" target="_top" xlink:title=" ">
<polygon fill="white" stroke="#666666" points="886,-249 749,-249 749,-219 886,-219 886,-249"/>
<text text-anchor="start" x="757" y="-237" font-family="Helvetica,sans-Serif" font-size="10.00">SCR_HealthCharacterEditor</text>
<text text-anchor="middle" x="817.5" y="-226" font-family="Helvetica,sans-Serif" font-size="10.00">Attribute</text>
</a>
</g>
</g>
<!-- Node4&#45;&gt;Node5 -->
<g id="edge4" class="edge">
<title>Node4&#45;&gt;Node5</title>
<path fill="none" stroke="#63b8ff" d="M664.63,-185.52C685.47,-192.65 711.58,-201.45 735,-209 744.86,-212.18 755.42,-215.49 765.56,-218.62"/>
<polygon fill="#63b8ff" stroke="#63b8ff" points="665.84,-181.89 655.25,-181.96 663.57,-188.51 665.84,-181.89"/>
</g>
<!-- Node6 -->
<g id="node6" class="node">
<title>Node6</title>
<g id="a_node6"><a xlink:href="interfaceSCR__HealthOtherEditorAttribute.html" target="_top" xlink:title=" ">
<polygon fill="white" stroke="#666666" points="895.5,-200.5 739.5,-200.5 739.5,-181.5 895.5,-181.5 895.5,-200.5"/>
<text text-anchor="middle" x="817.5" y="-188.5" font-family="Helvetica,sans-Serif" font-size="10.00">SCR_HealthOtherEditorAttribute</text>
</a>
</g>
</g>
<!-- Node4&#45;&gt;Node6 -->
<g id="edge5" class="edge">
<title>Node4&#45;&gt;Node6</title>
<path fill="none" stroke="#63b8ff" d="M701.69,-179.58C714.06,-180.81 726.88,-182.08 739.27,-183.32"/>
<polygon fill="#63b8ff" stroke="#63b8ff" points="702.26,-176.02 691.96,-178.51 701.57,-182.98 702.26,-176.02"/>
</g>
<!-- Node7 -->
<g id="node7" class="node">
<title>Node7</title>
<g id="a_node7"><a xlink:href="interfaceSCR__HealthVehicleEditorAttribute.html" target="_top" xlink:title=" ">
<polygon fill="white" stroke="#666666" points="899.5,-163.5 735.5,-163.5 735.5,-144.5 899.5,-144.5 899.5,-163.5"/>
<text text-anchor="middle" x="817.5" y="-151.5" font-family="Helvetica,sans-Serif" font-size="10.00">SCR_HealthVehicleEditorAttribute</text>
</a>
</g>
</g>
<!-- Node4&#45;&gt;Node7 -->
<g id="edge6" class="edge">
<title>Node4&#45;&gt;Node7</title>
<path fill="none" stroke="#63b8ff" d="M701.82,-164.81C712.81,-163.77 724.16,-162.7 735.25,-161.66"/>
<polygon fill="#63b8ff" stroke="#63b8ff" points="701.59,-161.41 691.96,-165.83 702.25,-168.38 701.59,-161.41"/>
</g>
<!-- Node10 -->
<g id="node10" class="node">
<title>Node10</title>
<g id="a_node10"><a xlink:href="interfaceSCR__SetEnableDamageCharacterEditorAttribute.html" target="_top" xlink:title=" ">
<polygon fill="white" stroke="#666666" points="900,-126 735,-126 735,-96 900,-96 900,-126"/>
<text text-anchor="start" x="743" y="-114" font-family="Helvetica,sans-Serif" font-size="10.00">SCR_SetEnableDamageCharacter</text>
<text text-anchor="middle" x="817.5" y="-103" font-family="Helvetica,sans-Serif" font-size="10.00">EditorAttribute</text>
</a>
</g>
</g>
<!-- Node9&#45;&gt;Node10 -->
<g id="edge9" class="edge">
<title>Node9&#45;&gt;Node10</title>
<path fill="none" stroke="#63b8ff" d="M710,-95.95C718.18,-97.1 726.46,-98.27 734.6,-99.42"/>
<polygon fill="#63b8ff" stroke="#63b8ff" points="710.74,-92.37 700.35,-94.44 709.76,-99.3 710.74,-92.37"/>
</g>
<!-- Node11 -->
<g id="node11" class="node">
<title>Node11</title>
<g id="a_node11"><a xlink:href="interfaceSCR__SetEnableDamageOtherEditorAttribute.html" target="_top" xlink:title=" ">
<polygon fill="white" stroke="#666666" points="891,-78 744,-78 744,-48 891,-48 891,-78"/>
<text text-anchor="start" x="752" y="-66" font-family="Helvetica,sans-Serif" font-size="10.00">SCR_SetEnableDamageOther</text>
<text text-anchor="middle" x="817.5" y="-55" font-family="Helvetica,sans-Serif" font-size="10.00">EditorAttribute</text>
</a>
</g>
</g>
<!-- Node9&#45;&gt;Node11 -->
<g id="edge10" class="edge">
<title>Node9&#45;&gt;Node11</title>
<path fill="none" stroke="#63b8ff" d="M710.05,-74.7C721.31,-73.47 732.77,-72.21 743.79,-70.99"/>
<polygon fill="#63b8ff" stroke="#63b8ff" points="709.9,-71.31 700.35,-75.88 710.67,-78.27 709.9,-71.31"/>
</g>
<!-- Node12 -->
<g id="node12" class="node">
<title>Node12</title>
<g id="a_node12"><a xlink:href="interfaceSCR__SetEnableDamageVehicleEditorAttribute.html" target="_top" xlink:title=" ">
<polygon fill="white" stroke="#666666" points="895,-30 740,-30 740,0 895,0 895,-30"/>
<text text-anchor="start" x="748" y="-18" font-family="Helvetica,sans-Serif" font-size="10.00">SCR_SetEnableDamageVehicle</text>
<text text-anchor="middle" x="817.5" y="-7" font-family="Helvetica,sans-Serif" font-size="10.00">EditorAttribute</text>
</a>
</g>
</g>
<!-- Node9&#45;&gt;Node12 -->
<g id="edge11" class="edge">
<title>Node9&#45;&gt;Node12</title>
<path fill="none" stroke="#63b8ff" d="M670.08,-64.45C689.8,-56.13 713.37,-46.61 735,-39 743.35,-36.06 752.26,-33.19 761.01,-30.5"/>
<polygon fill="#63b8ff" stroke="#63b8ff" points="668.99,-61.54 661.16,-68.68 671.73,-67.98 668.99,-61.54"/>
</g>
</g>
</svg>
