<?xml version="1.0" encoding="UTF-8" standalone="no"?>
<!DOCTYPE svg PUBLIC "-//W3C//DTD SVG 1.1//EN"
 "http://www.w3.org/Graphics/SVG/1.1/DTD/svg11.dtd">
<!-- Generated by graphviz version 8.0.2 (20230410.1723)
 -->
<!-- Title: ForestGeneratorTree Pages: 1 -->
<svg width="730pt" height="138pt"
 viewBox="0.00 0.00 730.00 138.00" xmlns="http://www.w3.org/2000/svg" xmlns:xlink="http://www.w3.org/1999/xlink">
<g id="graph0" class="graph" transform="scale(1 1) rotate(0) translate(4 134)">
<title>ForestGeneratorTree</title>
<!-- Node1 -->
<g id="node1" class="node">
<title>Node1</title>
<g id="a_node1"><a xlink:title=" ">
<polygon fill="#999999" stroke="#666666" points="552,-74 446,-74 446,-55 552,-55 552,-74"/>
<text text-anchor="middle" x="499" y="-62" font-family="Helvetica,sans-Serif" font-size="10.00">ForestGeneratorTree</text>
</a>
</g>
</g>
<!-- Node5 -->
<g id="node5" class="node">
<title>Node5</title>
<g id="a_node5"><a xlink:href="interfaceFallenTree.html" target="_top" xlink:title=" ">
<polygon fill="white" stroke="#666666" points="686,-130 624,-130 624,-111 686,-111 686,-130"/>
<text text-anchor="middle" x="655" y="-118" font-family="Helvetica,sans-Serif" font-size="10.00">FallenTree</text>
</a>
</g>
</g>
<!-- Node1&#45;&gt;Node5 -->
<g id="edge4" class="edge">
<title>Node1&#45;&gt;Node5</title>
<path fill="none" stroke="#63b8ff" d="M530.44,-78.91C547.19,-86.52 568.49,-95.67 588,-102.5 599.55,-106.54 612.48,-110.25 623.83,-113.23"/>
<polygon fill="#63b8ff" stroke="#63b8ff" points="532.2,-75.41 521.65,-74.41 529.27,-81.76 532.2,-75.41"/>
</g>
<!-- Node6 -->
<g id="node6" class="node">
<title>Node6</title>
<g id="a_node6"><a xlink:href="interfaceForestGeneratorTreeMiddle.html" target="_top" xlink:title=" ">
<polygon fill="white" stroke="#666666" points="722,-93 588,-93 588,-74 722,-74 722,-93"/>
<text text-anchor="middle" x="655" y="-81" font-family="Helvetica,sans-Serif" font-size="10.00">ForestGeneratorTreeMiddle</text>
</a>
</g>
</g>
<!-- Node1&#45;&gt;Node6 -->
<g id="edge5" class="edge">
<title>Node1&#45;&gt;Node6</title>
<path fill="none" stroke="#63b8ff" d="M562.78,-72.25C571,-73.26 579.44,-74.3 587.72,-75.32"/>
<polygon fill="#63b8ff" stroke="#63b8ff" points="563.49,-68.68 553.14,-70.93 562.63,-75.63 563.49,-68.68"/>
</g>
<!-- Node7 -->
<g id="node7" class="node">
<title>Node7</title>
<g id="a_node7"><a xlink:href="interfaceForestGeneratorTreeShort.html" target="_top" xlink:title=" ">
<polygon fill="white" stroke="#666666" points="719.5,-56 590.5,-56 590.5,-37 719.5,-37 719.5,-56"/>
<text text-anchor="middle" x="655" y="-44" font-family="Helvetica,sans-Serif" font-size="10.00">ForestGeneratorTreeShort</text>
</a>
</g>
</g>
<!-- Node1&#45;&gt;Node7 -->
<g id="edge6" class="edge">
<title>Node1&#45;&gt;Node7</title>
<path fill="none" stroke="#63b8ff" d="M562.93,-57.14C571.92,-56.09 581.17,-55.01 590.17,-53.96"/>
<polygon fill="#63b8ff" stroke="#63b8ff" points="562.66,-53.77 553.14,-58.41 563.48,-60.72 562.66,-53.77"/>
</g>
<!-- Node8 -->
<g id="node8" class="node">
<title>Node8</title>
<g id="a_node8"><a xlink:href="interfaceForestGeneratorTreeTall.html" target="_top" xlink:title=" ">
<polygon fill="white" stroke="#666666" points="715.5,-19 594.5,-19 594.5,0 715.5,0 715.5,-19"/>
<text text-anchor="middle" x="655" y="-7" font-family="Helvetica,sans-Serif" font-size="10.00">ForestGeneratorTreeTall</text>
</a>
</g>
</g>
<!-- Node1&#45;&gt;Node8 -->
<g id="edge7" class="edge">
<title>Node1&#45;&gt;Node8</title>
<path fill="none" stroke="#63b8ff" d="M531.15,-50.22C547.81,-42.89 568.8,-34.12 588,-27.5 596.42,-24.6 605.57,-21.85 614.3,-19.41"/>
<polygon fill="#63b8ff" stroke="#63b8ff" points="530.1,-47.3 522.39,-54.57 532.95,-53.7 530.1,-47.3"/>
</g>
<!-- Node2 -->
<g id="node2" class="node">
<title>Node2</title>
<g id="a_node2"><a xlink:href="interfaceSCR__ForestGeneratorTreeBase.html" target="_top" xlink:title=" ">
<polygon fill="white" stroke="#666666" points="410,-74 256,-74 256,-55 410,-55 410,-74"/>
<text text-anchor="middle" x="333" y="-62" font-family="Helvetica,sans-Serif" font-size="10.00">SCR_ForestGeneratorTreeBase</text>
</a>
</g>
</g>
<!-- Node2&#45;&gt;Node1 -->
<g id="edge1" class="edge">
<title>Node2&#45;&gt;Node1</title>
<path fill="none" stroke="#63b8ff" d="M420.98,-64.5C429.46,-64.5 437.86,-64.5 445.83,-64.5"/>
<polygon fill="#63b8ff" stroke="#63b8ff" points="421.24,-61 411.24,-64.5 421.24,-68 421.24,-61"/>
</g>
<!-- Node3 -->
<g id="node3" class="node">
<title>Node3</title>
<g id="a_node3"><a xlink:href="interfaceForestGeneratorTreeBase.html" target="_top" xlink:title=" ">
<polygon fill="white" stroke="#666666" points="220,-74 92,-74 92,-55 220,-55 220,-74"/>
<text text-anchor="middle" x="156" y="-62" font-family="Helvetica,sans-Serif" font-size="10.00">ForestGeneratorTreeBase</text>
</a>
</g>
</g>
<!-- Node3&#45;&gt;Node2 -->
<g id="edge2" class="edge">
<title>Node3&#45;&gt;Node2</title>
<path fill="none" stroke="#63b8ff" d="M231.16,-64.5C239.31,-64.5 247.61,-64.5 255.78,-64.5"/>
<polygon fill="#63b8ff" stroke="#63b8ff" points="231.18,-61 221.18,-64.5 231.18,-68 231.18,-61"/>
</g>
<!-- Node4 -->
<g id="node4" class="node">
<title>Node4</title>
<g id="a_node4"><a xlink:title=" ">
<polygon fill="white" stroke="#666666" points="56,-74 0,-74 0,-55 56,-55 56,-74"/>
<text text-anchor="middle" x="28" y="-62" font-family="Helvetica,sans-Serif" font-size="10.00">Managed</text>
</a>
</g>
</g>
<!-- Node4&#45;&gt;Node3 -->
<g id="edge3" class="edge">
<title>Node4&#45;&gt;Node3</title>
<path fill="none" stroke="#63b8ff" d="M67.16,-64.5C74.88,-64.5 83.19,-64.5 91.52,-64.5"/>
<polygon fill="#63b8ff" stroke="#63b8ff" points="67.34,-61 57.34,-64.5 67.34,-68 67.34,-61"/>
</g>
</g>
</svg>
