<?xml version="1.0" encoding="UTF-8" standalone="no"?>
<!DOCTYPE svg PUBLIC "-//W3C//DTD SVG 1.1//EN"
 "http://www.w3.org/Graphics/SVG/1.1/DTD/svg11.dtd">
<!-- Generated by graphviz version 8.0.2 (20230410.1723)
 -->
<!-- Title: SCR_RequestedTaskSupportEntity Pages: 1 -->
<svg width="650pt" height="161pt"
 viewBox="0.00 0.00 650.00 161.00" xmlns="http://www.w3.org/2000/svg" xmlns:xlink="http://www.w3.org/1999/xlink">
<g id="graph0" class="graph" transform="scale(1 1) rotate(0) translate(4 157)">
<title>SCR_RequestedTaskSupportEntity</title>
<!-- Node1 -->
<g id="node1" class="node">
<title>Node1</title>
<g id="a_node1"><a xlink:title=" ">
<polygon fill="#999999" stroke="#666666" points="436,-91 293,-91 293,-61 436,-61 436,-91"/>
<text text-anchor="start" x="301" y="-79" font-family="Helvetica,sans-Serif" font-size="10.00">SCR_RequestedTaskSupport</text>
<text text-anchor="middle" x="364.5" y="-68" font-family="Helvetica,sans-Serif" font-size="10.00">Entity</text>
</a>
</g>
</g>
<!-- Node4 -->
<g id="node4" class="node">
<title>Node4</title>
<g id="a_node4"><a xlink:href="interfaceSCR__CampaignDefendTaskSupportEntity.html" target="_top" xlink:title=" ">
<polygon fill="white" stroke="#666666" points="642,-153 472,-153 472,-123 642,-123 642,-153"/>
<text text-anchor="start" x="480" y="-141" font-family="Helvetica,sans-Serif" font-size="10.00">SCR_CampaignDefendTaskSupport</text>
<text text-anchor="middle" x="557" y="-130" font-family="Helvetica,sans-Serif" font-size="10.00">Entity</text>
</a>
</g>
</g>
<!-- Node1&#45;&gt;Node4 -->
<g id="edge3" class="edge">
<title>Node1&#45;&gt;Node4</title>
<path fill="none" stroke="#63b8ff" d="M416.75,-95.04C434.2,-101.32 453.87,-108.18 472,-114 481.1,-116.92 490.81,-119.86 500.27,-122.62"/>
<polygon fill="#63b8ff" stroke="#63b8ff" points="418.36,-91.54 407.76,-91.42 415.97,-98.12 418.36,-91.54"/>
</g>
<!-- Node5 -->
<g id="node5" class="node">
<title>Node5</title>
<g id="a_node5"><a xlink:href="interfaceSCR__EvacuateTaskSupportEntity.html" target="_top" xlink:title=" ">
<polygon fill="white" stroke="#666666" points="638,-104.5 476,-104.5 476,-85.5 638,-85.5 638,-104.5"/>
<text text-anchor="middle" x="557" y="-92.5" font-family="Helvetica,sans-Serif" font-size="10.00">SCR_EvacuateTaskSupportEntity</text>
</a>
</g>
</g>
<!-- Node1&#45;&gt;Node5 -->
<g id="edge4" class="edge">
<title>Node1&#45;&gt;Node5</title>
<path fill="none" stroke="#63b8ff" d="M447.36,-84.16C456.76,-85.1 466.33,-86.06 475.71,-86.99"/>
<polygon fill="#63b8ff" stroke="#63b8ff" points="447.73,-80.58 437.44,-83.07 447.04,-87.55 447.73,-80.58"/>
</g>
<!-- Node6 -->
<g id="node6" class="node">
<title>Node6</title>
<g id="a_node6"><a xlink:href="interfaceSCR__RefuelTaskSupportEntity.html" target="_top" xlink:title=" ">
<polygon fill="white" stroke="#666666" points="631.5,-67.5 482.5,-67.5 482.5,-48.5 631.5,-48.5 631.5,-67.5"/>
<text text-anchor="middle" x="557" y="-55.5" font-family="Helvetica,sans-Serif" font-size="10.00">SCR_RefuelTaskSupportEntity</text>
</a>
</g>
</g>
<!-- Node1&#45;&gt;Node6 -->
<g id="edge5" class="edge">
<title>Node1&#45;&gt;Node6</title>
<path fill="none" stroke="#63b8ff" d="M447.04,-68.3C458.7,-67.19 470.64,-66.07 482.14,-64.98"/>
<polygon fill="#63b8ff" stroke="#63b8ff" points="447.06,-64.87 437.44,-69.3 447.72,-71.84 447.06,-64.87"/>
</g>
<!-- Node7 -->
<g id="node7" class="node">
<title>Node7</title>
<g id="a_node7"><a xlink:href="interfaceSCR__TransportTaskSupportEntity.html" target="_top" xlink:title=" ">
<polygon fill="white" stroke="#666666" points="625.5,-30 488.5,-30 488.5,0 625.5,0 625.5,-30"/>
<text text-anchor="start" x="496.5" y="-18" font-family="Helvetica,sans-Serif" font-size="10.00">SCR_TransportTaskSupport</text>
<text text-anchor="middle" x="557" y="-7" font-family="Helvetica,sans-Serif" font-size="10.00">Entity</text>
</a>
</g>
</g>
<!-- Node1&#45;&gt;Node7 -->
<g id="edge6" class="edge">
<title>Node1&#45;&gt;Node7</title>
<path fill="none" stroke="#63b8ff" d="M418.62,-56.89C435.61,-50.95 454.54,-44.52 472,-39 481.11,-36.12 490.82,-33.2 500.29,-30.44"/>
<polygon fill="#63b8ff" stroke="#63b8ff" points="417.6,-53.89 409.33,-60.51 419.92,-60.49 417.6,-53.89"/>
</g>
<!-- Node2 -->
<g id="node2" class="node">
<title>Node2</title>
<g id="a_node2"><a xlink:href="interfaceSCR__BaseTaskSupportEntity.html" target="_top" xlink:title=" ">
<polygon fill="white" stroke="#666666" points="257,-85.5 112,-85.5 112,-66.5 257,-66.5 257,-85.5"/>
<text text-anchor="middle" x="184.5" y="-73.5" font-family="Helvetica,sans-Serif" font-size="10.00">SCR_BaseTaskSupportEntity</text>
</a>
</g>
</g>
<!-- Node2&#45;&gt;Node1 -->
<g id="edge1" class="edge">
<title>Node2&#45;&gt;Node1</title>
<path fill="none" stroke="#63b8ff" d="M268.33,-76C276.41,-76 284.56,-76 292.5,-76"/>
<polygon fill="#63b8ff" stroke="#63b8ff" points="268.39,-72.5 258.39,-76 268.39,-79.5 268.39,-72.5"/>
</g>
<!-- Node3 -->
<g id="node3" class="node">
<title>Node3</title>
<g id="a_node3"><a xlink:title=" ">
<polygon fill="white" stroke="#666666" points="76,-85.5 0,-85.5 0,-66.5 76,-66.5 76,-85.5"/>
<text text-anchor="middle" x="38" y="-73.5" font-family="Helvetica,sans-Serif" font-size="10.00">GenericEntity</text>
</a>
</g>
</g>
<!-- Node3&#45;&gt;Node2 -->
<g id="edge2" class="edge">
<title>Node3&#45;&gt;Node2</title>
<path fill="none" stroke="#63b8ff" d="M87.04,-76C94.94,-76 103.28,-76 111.6,-76"/>
<polygon fill="#63b8ff" stroke="#63b8ff" points="87.21,-72.5 77.21,-76 87.21,-79.5 87.21,-72.5"/>
</g>
</g>
</svg>
