<?xml version="1.0" encoding="UTF-8" standalone="no"?>
<!DOCTYPE svg PUBLIC "-//W3C//DTD SVG 1.1//EN"
 "http://www.w3.org/Graphics/SVG/1.1/DTD/svg11.dtd">
<!-- Generated by graphviz version 8.0.2 (20230410.1723)
 -->
<!-- Title: SCR_OrientToTerrainContextAction Pages: 1 -->
<svg width="155pt" height="214pt"
 viewBox="0.00 0.00 155.00 214.00" xmlns="http://www.w3.org/2000/svg" xmlns:xlink="http://www.w3.org/1999/xlink">
<g id="graph0" class="graph" transform="scale(1 1) rotate(0) translate(4 210)">
<title>SCR_OrientToTerrainContextAction</title>
<!-- Node1 -->
<g id="node1" class="node">
<title>Node1</title>
<g id="a_node1"><a xlink:title=" ">
<polygon fill="#999999" stroke="#666666" points="144.5,-30 2.5,-30 2.5,0 144.5,0 144.5,-30"/>
<text text-anchor="start" x="10.5" y="-18" font-family="Helvetica,sans-Serif" font-size="10.00">SCR_OrientToTerrainContext</text>
<text text-anchor="middle" x="73.5" y="-7" font-family="Helvetica,sans-Serif" font-size="10.00">Action</text>
</a>
</g>
</g>
<!-- Node2 -->
<g id="node2" class="node">
<title>Node2</title>
<g id="a_node2"><a xlink:href="interfaceSCR__SelectedEntitiesContextAction.html" target="_top" xlink:title="Base container class for editor context actions which apply to selected entities.">
<polygon fill="white" stroke="#666666" points="147,-96 0,-96 0,-66 147,-66 147,-96"/>
<text text-anchor="start" x="8" y="-84" font-family="Helvetica,sans-Serif" font-size="10.00">SCR_SelectedEntitiesContext</text>
<text text-anchor="middle" x="73.5" y="-73" font-family="Helvetica,sans-Serif" font-size="10.00">Action</text>
</a>
</g>
</g>
<!-- Node2&#45;&gt;Node1 -->
<g id="edge1" class="edge">
<title>Node2&#45;&gt;Node1</title>
<path fill="none" stroke="#63b8ff" d="M73.5,-54.97C73.5,-46.55 73.5,-37.45 73.5,-30.16"/>
<polygon fill="#63b8ff" stroke="#63b8ff" points="70,-54.8 73.5,-64.8 77,-54.8 70,-54.8"/>
</g>
<!-- Node3 -->
<g id="node3" class="node">
<title>Node3</title>
<g id="a_node3"><a xlink:href="interfaceSCR__BaseContextAction.html" target="_top" xlink:title="Base container class for editor context actions.">
<polygon fill="white" stroke="#666666" points="136.5,-151 10.5,-151 10.5,-132 136.5,-132 136.5,-151"/>
<text text-anchor="middle" x="73.5" y="-139" font-family="Helvetica,sans-Serif" font-size="10.00">SCR_BaseContextAction</text>
</a>
</g>
</g>
<!-- Node3&#45;&gt;Node2 -->
<g id="edge2" class="edge">
<title>Node3&#45;&gt;Node2</title>
<path fill="none" stroke="#63b8ff" d="M73.5,-121.08C73.5,-112.92 73.5,-103.6 73.5,-96.11"/>
<polygon fill="#63b8ff" stroke="#63b8ff" points="70,-120.87 73.5,-130.87 77,-120.87 70,-120.87"/>
</g>
<!-- Node4 -->
<g id="node4" class="node">
<title>Node4</title>
<g id="a_node4"><a xlink:href="interfaceSCR__BaseEditorAction.html" target="_top" xlink:title="Base container class for all editor action types (ContextActions, WaypointActions,...">
<polygon fill="white" stroke="#666666" points="132.5,-206 14.5,-206 14.5,-187 132.5,-187 132.5,-206"/>
<text text-anchor="middle" x="73.5" y="-194" font-family="Helvetica,sans-Serif" font-size="10.00">SCR_BaseEditorAction</text>
</a>
</g>
</g>
<!-- Node4&#45;&gt;Node3 -->
<g id="edge3" class="edge">
<title>Node4&#45;&gt;Node3</title>
<path fill="none" stroke="#63b8ff" d="M73.5,-175.93C73.5,-167.53 73.5,-158.13 73.5,-151.44"/>
<polygon fill="#63b8ff" stroke="#63b8ff" points="70,-175.75 73.5,-185.75 77,-175.75 70,-175.75"/>
</g>
</g>
</svg>
