<?xml version="1.0" encoding="UTF-8" standalone="no"?>
<!DOCTYPE svg PUBLIC "-//W3C//DTD SVG 1.1//EN"
 "http://www.w3.org/Graphics/SVG/1.1/DTD/svg11.dtd">
<!-- Generated by graphviz version 8.0.2 (20230410.1723)
 -->
<!-- Title: BaseSlotComponentClass Pages: 1 -->
<svg width="316pt" height="192pt"
 viewBox="0.00 0.00 315.50 192.00" xmlns="http://www.w3.org/2000/svg" xmlns:xlink="http://www.w3.org/1999/xlink">
<g id="graph0" class="graph" transform="scale(1 1) rotate(0) translate(4 188)">
<title>BaseSlotComponentClass</title>
<!-- Node1 -->
<g id="node1" class="node">
<title>Node1</title>
<g id="a_node1"><a xlink:title=" ">
<polygon fill="#999999" stroke="#666666" points="210.5,-74 79.5,-74 79.5,-55 210.5,-55 210.5,-74"/>
<text text-anchor="middle" x="145" y="-62" font-family="Helvetica,sans-Serif" font-size="10.00">BaseSlotComponentClass</text>
</a>
</g>
</g>
<!-- Node4 -->
<g id="node4" class="node">
<title>Node4</title>
<g id="a_node4"><a xlink:href="interfaceDoorSlotComponentClass.html" target="_top" xlink:title=" ">
<polygon fill="white" stroke="#666666" points="128,-19 0,-19 0,0 128,0 128,-19"/>
<text text-anchor="middle" x="64" y="-7" font-family="Helvetica,sans-Serif" font-size="10.00">DoorSlotComponentClass</text>
</a>
</g>
</g>
<!-- Node1&#45;&gt;Node4 -->
<g id="edge3" class="edge">
<title>Node1&#45;&gt;Node4</title>
<path fill="none" stroke="#63b8ff" d="M122.43,-48.73C108,-39.29 89.76,-27.36 77.54,-19.36"/>
<polygon fill="#63b8ff" stroke="#63b8ff" points="119.98,-51.96 130.26,-54.51 123.81,-46.11 119.98,-51.96"/>
</g>
<!-- Node5 -->
<g id="node5" class="node">
<title>Node5</title>
<g id="a_node5"><a xlink:href="interfaceSCR__WheelSlotComponentClass.html" target="_top" xlink:title=" ">
<polygon fill="white" stroke="#666666" points="307.5,-19 146.5,-19 146.5,0 307.5,0 307.5,-19"/>
<text text-anchor="middle" x="227" y="-7" font-family="Helvetica,sans-Serif" font-size="10.00">SCR_WheelSlotComponentClass</text>
</a>
</g>
</g>
<!-- Node1&#45;&gt;Node5 -->
<g id="edge4" class="edge">
<title>Node1&#45;&gt;Node5</title>
<path fill="none" stroke="#63b8ff" d="M167.85,-48.73C182.46,-39.29 200.92,-27.36 213.3,-19.36"/>
<polygon fill="#63b8ff" stroke="#63b8ff" points="166.41,-46.14 159.91,-54.51 170.21,-52.02 166.41,-46.14"/>
</g>
<!-- Node2 -->
<g id="node2" class="node">
<title>Node2</title>
<g id="a_node2"><a xlink:href="interfaceGameComponentClass.html" target="_top" xlink:title=" ">
<polygon fill="white" stroke="#666666" points="203.5,-129 86.5,-129 86.5,-110 203.5,-110 203.5,-129"/>
<text text-anchor="middle" x="145" y="-117" font-family="Helvetica,sans-Serif" font-size="10.00">GameComponentClass</text>
</a>
</g>
</g>
<!-- Node2&#45;&gt;Node1 -->
<g id="edge1" class="edge">
<title>Node2&#45;&gt;Node1</title>
<path fill="none" stroke="#63b8ff" d="M145,-98.93C145,-90.53 145,-81.13 145,-74.44"/>
<polygon fill="#63b8ff" stroke="#63b8ff" points="141.5,-98.75 145,-108.75 148.5,-98.75 141.5,-98.75"/>
</g>
<!-- Node3 -->
<g id="node3" class="node">
<title>Node3</title>
<g id="a_node3"><a xlink:title=" ">
<polygon fill="white" stroke="#666666" points="207.5,-184 82.5,-184 82.5,-165 207.5,-165 207.5,-184"/>
<text text-anchor="middle" x="145" y="-172" font-family="Helvetica,sans-Serif" font-size="10.00">GenericComponentClass</text>
</a>
</g>
</g>
<!-- Node3&#45;&gt;Node2 -->
<g id="edge2" class="edge">
<title>Node3&#45;&gt;Node2</title>
<path fill="none" stroke="#63b8ff" d="M145,-153.93C145,-145.53 145,-136.13 145,-129.44"/>
<polygon fill="#63b8ff" stroke="#63b8ff" points="141.5,-153.75 145,-163.75 148.5,-153.75 141.5,-153.75"/>
</g>
</g>
</svg>
