<?xml version="1.0" encoding="UTF-8" standalone="no"?>
<!DOCTYPE svg PUBLIC "-//W3C//DTD SVG 1.1//EN"
 "http://www.w3.org/Graphics/SVG/1.1/DTD/svg11.dtd">
<!-- Generated by graphviz version 8.0.2 (20230410.1723)
 -->
<!-- Title: SCR_TaskTextBaseEditorAttribute Pages: 1 -->
<svg width="541pt" height="172pt"
 viewBox="0.00 0.00 541.00 171.50" xmlns="http://www.w3.org/2000/svg" xmlns:xlink="http://www.w3.org/1999/xlink">
<g id="graph0" class="graph" transform="scale(1 1) rotate(0) translate(4 167.5)">
<title>SCR_TaskTextBaseEditorAttribute</title>
<!-- Node1 -->
<g id="node1" class="node">
<title>Node1</title>
<g id="a_node1"><a xlink:title=" ">
<polygon fill="#999999" stroke="#666666" points="330,-86 163,-86 163,-67 330,-67 330,-86"/>
<text text-anchor="middle" x="246.5" y="-74" font-family="Helvetica,sans-Serif" font-size="10.00">SCR_TaskTextBaseEditorAttribute</text>
</a>
</g>
</g>
<!-- Node3 -->
<g id="node3" class="node">
<title>Node3</title>
<g id="a_node3"><a xlink:href="interfaceSCR__TaskTextAttackEditorAttribute.html" target="_top" xlink:title=" ">
<polygon fill="white" stroke="#666666" points="517.5,-163.5 381.5,-163.5 381.5,-133.5 517.5,-133.5 517.5,-163.5"/>
<text text-anchor="start" x="389.5" y="-151.5" font-family="Helvetica,sans-Serif" font-size="10.00">SCR_TaskTextAttackEditor</text>
<text text-anchor="middle" x="449.5" y="-140.5" font-family="Helvetica,sans-Serif" font-size="10.00">Attribute</text>
</a>
</g>
</g>
<!-- Node1&#45;&gt;Node3 -->
<g id="edge2" class="edge">
<title>Node1&#45;&gt;Node3</title>
<path fill="none" stroke="#63b8ff" d="M279.8,-90.62C303.43,-100.7 336.41,-114.23 366,-124.5 374.6,-127.48 383.78,-130.41 392.78,-133.13"/>
<polygon fill="#63b8ff" stroke="#63b8ff" points="281.53,-87.13 270.96,-86.39 278.76,-93.56 281.53,-87.13"/>
</g>
<!-- Node4 -->
<g id="node4" class="node">
<title>Node4</title>
<g id="a_node4"><a xlink:href="interfaceSCR__TaskTextCustomEditorAttribute.html" target="_top" xlink:title=" ">
<polygon fill="white" stroke="#666666" points="520,-115.5 379,-115.5 379,-85.5 520,-85.5 520,-115.5"/>
<text text-anchor="start" x="387" y="-103.5" font-family="Helvetica,sans-Serif" font-size="10.00">SCR_TaskTextCustomEditor</text>
<text text-anchor="middle" x="449.5" y="-92.5" font-family="Helvetica,sans-Serif" font-size="10.00">Attribute</text>
</a>
</g>
</g>
<!-- Node1&#45;&gt;Node4 -->
<g id="edge3" class="edge">
<title>Node1&#45;&gt;Node4</title>
<path fill="none" stroke="#63b8ff" d="M340.99,-87.66C353.64,-89.17 366.44,-90.7 378.58,-92.15"/>
<polygon fill="#63b8ff" stroke="#63b8ff" points="341.76,-84.11 331.41,-86.4 340.93,-91.06 341.76,-84.11"/>
</g>
<!-- Node5 -->
<g id="node5" class="node">
<title>Node5</title>
<g id="a_node5"><a xlink:href="interfaceSCR__TaskTextDefendEditorAttribute.html" target="_top" xlink:title=" ">
<polygon fill="white" stroke="#666666" points="518,-67.5 381,-67.5 381,-37.5 518,-37.5 518,-67.5"/>
<text text-anchor="start" x="389" y="-55.5" font-family="Helvetica,sans-Serif" font-size="10.00">SCR_TaskTextDefendEditor</text>
<text text-anchor="middle" x="449.5" y="-44.5" font-family="Helvetica,sans-Serif" font-size="10.00">Attribute</text>
</a>
</g>
</g>
<!-- Node1&#45;&gt;Node5 -->
<g id="edge4" class="edge">
<title>Node1&#45;&gt;Node5</title>
<path fill="none" stroke="#63b8ff" d="M341.09,-65.32C354.48,-63.73 368.02,-62.11 380.78,-60.59"/>
<polygon fill="#63b8ff" stroke="#63b8ff" points="340.93,-61.94 331.41,-66.6 341.76,-68.89 340.93,-61.94"/>
</g>
<!-- Node6 -->
<g id="node6" class="node">
<title>Node6</title>
<g id="a_node6"><a xlink:href="interfaceSCR__TaskTextMoveEditorAttribute.html" target="_top" xlink:title=" ">
<polygon fill="white" stroke="#666666" points="533,-19 366,-19 366,0 533,0 533,-19"/>
<text text-anchor="middle" x="449.5" y="-7" font-family="Helvetica,sans-Serif" font-size="10.00">SCR_TaskTextMoveEditorAttribute</text>
</a>
</g>
</g>
<!-- Node1&#45;&gt;Node6 -->
<g id="edge5" class="edge">
<title>Node1&#45;&gt;Node6</title>
<path fill="none" stroke="#63b8ff" d="M278.76,-62.25C302.37,-51.88 335.76,-38.04 366,-28.5 376.65,-25.14 388.25,-22.1 399.3,-19.49"/>
<polygon fill="#63b8ff" stroke="#63b8ff" points="277.68,-59.34 269.96,-66.6 280.52,-65.74 277.68,-59.34"/>
</g>
<!-- Node2 -->
<g id="node2" class="node">
<title>Node2</title>
<g id="a_node2"><a xlink:href="interfaceSCR__BaseEditorAttribute.html" target="_top" xlink:title="Base Attribute Script for other attributes to inherent from to get and set varriables in Editor Attri...">
<polygon fill="white" stroke="#666666" points="127,-86 0,-86 0,-67 127,-67 127,-86"/>
<text text-anchor="middle" x="63.5" y="-74" font-family="Helvetica,sans-Serif" font-size="10.00">SCR_BaseEditorAttribute</text>
</a>
</g>
</g>
<!-- Node2&#45;&gt;Node1 -->
<g id="edge1" class="edge">
<title>Node2&#45;&gt;Node1</title>
<path fill="none" stroke="#63b8ff" d="M138.18,-76.5C146.27,-76.5 154.54,-76.5 162.73,-76.5"/>
<polygon fill="#63b8ff" stroke="#63b8ff" points="138.3,-73 128.3,-76.5 138.3,-80 138.3,-73"/>
</g>
</g>
</svg>
