<?xml version="1.0" encoding="UTF-8" standalone="no"?>
<!DOCTYPE svg PUBLIC "-//W3C//DTD SVG 1.1//EN"
 "http://www.w3.org/Graphics/SVG/1.1/DTD/svg11.dtd">
<!-- Generated by graphviz version 8.0.2 (20230410.1723)
 -->
<!-- Title: SCR_EditorTaskSupportEntity Pages: 1 -->
<svg width="324pt" height="192pt"
 viewBox="0.00 0.00 323.50 192.00" xmlns="http://www.w3.org/2000/svg" xmlns:xlink="http://www.w3.org/1999/xlink">
<g id="graph0" class="graph" transform="scale(1 1) rotate(0) translate(4 188)">
<title>SCR_EditorTaskSupportEntity</title>
<!-- Node1 -->
<g id="node1" class="node">
<title>Node1</title>
<g id="a_node1"><a xlink:title=" ">
<polygon fill="#999999" stroke="#666666" points="229.5,-74 81.5,-74 81.5,-55 229.5,-55 229.5,-74"/>
<text text-anchor="middle" x="155.5" y="-62" font-family="Helvetica,sans-Serif" font-size="10.00">SCR_EditorTaskSupportEntity</text>
</a>
</g>
</g>
<!-- Node4 -->
<g id="node4" class="node">
<title>Node4</title>
<g id="a_node4"><a xlink:href="interfaceSCR__MoveTaskSupportEntity.html" target="_top" xlink:title=" ">
<polygon fill="white" stroke="#666666" points="145,-19 0,-19 0,0 145,0 145,-19"/>
<text text-anchor="middle" x="72.5" y="-7" font-family="Helvetica,sans-Serif" font-size="10.00">SCR_MoveTaskSupportEntity</text>
</a>
</g>
</g>
<!-- Node1&#45;&gt;Node4 -->
<g id="edge3" class="edge">
<title>Node1&#45;&gt;Node4</title>
<path fill="none" stroke="#63b8ff" d="M132.37,-48.73C117.58,-39.29 98.9,-27.36 86.37,-19.36"/>
<polygon fill="#63b8ff" stroke="#63b8ff" points="130.11,-52.08 140.42,-54.51 133.88,-46.18 130.11,-52.08"/>
</g>
<!-- Node5 -->
<g id="node5" class="node">
<title>Node5</title>
<g id="a_node5"><a xlink:href="interfaceSCR__TriggerTaskSupportEntity.html" target="_top" xlink:title=" ">
<polygon fill="white" stroke="#666666" points="315.5,-19 163.5,-19 163.5,0 315.5,0 315.5,-19"/>
<text text-anchor="middle" x="239.5" y="-7" font-family="Helvetica,sans-Serif" font-size="10.00">SCR_TriggerTaskSupportEntity</text>
</a>
</g>
</g>
<!-- Node1&#45;&gt;Node5 -->
<g id="edge4" class="edge">
<title>Node1&#45;&gt;Node5</title>
<path fill="none" stroke="#63b8ff" d="M178.91,-48.73C193.87,-39.29 212.78,-27.36 225.46,-19.36"/>
<polygon fill="#63b8ff" stroke="#63b8ff" points="177.34,-46.21 170.75,-54.51 181.07,-52.13 177.34,-46.21"/>
</g>
<!-- Node2 -->
<g id="node2" class="node">
<title>Node2</title>
<g id="a_node2"><a xlink:href="interfaceSCR__BaseTaskSupportEntity.html" target="_top" xlink:title=" ">
<polygon fill="white" stroke="#666666" points="228,-129 83,-129 83,-110 228,-110 228,-129"/>
<text text-anchor="middle" x="155.5" y="-117" font-family="Helvetica,sans-Serif" font-size="10.00">SCR_BaseTaskSupportEntity</text>
</a>
</g>
</g>
<!-- Node2&#45;&gt;Node1 -->
<g id="edge1" class="edge">
<title>Node2&#45;&gt;Node1</title>
<path fill="none" stroke="#63b8ff" d="M155.5,-98.93C155.5,-90.53 155.5,-81.13 155.5,-74.44"/>
<polygon fill="#63b8ff" stroke="#63b8ff" points="152,-98.75 155.5,-108.75 159,-98.75 152,-98.75"/>
</g>
<!-- Node3 -->
<g id="node3" class="node">
<title>Node3</title>
<g id="a_node3"><a xlink:title=" ">
<polygon fill="white" stroke="#666666" points="193.5,-184 117.5,-184 117.5,-165 193.5,-165 193.5,-184"/>
<text text-anchor="middle" x="155.5" y="-172" font-family="Helvetica,sans-Serif" font-size="10.00">GenericEntity</text>
</a>
</g>
</g>
<!-- Node3&#45;&gt;Node2 -->
<g id="edge2" class="edge">
<title>Node3&#45;&gt;Node2</title>
<path fill="none" stroke="#63b8ff" d="M155.5,-153.93C155.5,-145.53 155.5,-136.13 155.5,-129.44"/>
<polygon fill="#63b8ff" stroke="#63b8ff" points="152,-153.75 155.5,-163.75 159,-153.75 152,-153.75"/>
</g>
</g>
</svg>
