<?xml version="1.0" encoding="UTF-8" standalone="no"?>
<!DOCTYPE svg PUBLIC "-//W3C//DTD SVG 1.1//EN"
 "http://www.w3.org/Graphics/SVG/1.1/DTD/svg11.dtd">
<!-- Generated by graphviz version 8.0.2 (20230410.1723)
 -->
<!-- Title: SCR_BaseScoringSystemComponentClass Pages: 1 -->
<svg width="189pt" height="225pt"
 viewBox="0.00 0.00 189.00 225.00" xmlns="http://www.w3.org/2000/svg" xmlns:xlink="http://www.w3.org/1999/xlink">
<g id="graph0" class="graph" transform="scale(1 1) rotate(0) translate(4 221)">
<title>SCR_BaseScoringSystemComponentClass</title>
<!-- Node1 -->
<g id="node1" class="node">
<title>Node1</title>
<g id="a_node1"><a xlink:title=" ">
<polygon fill="#999999" stroke="#666666" points="181,-96 0,-96 0,-66 181,-66 181,-96"/>
<text text-anchor="start" x="8" y="-84" font-family="Helvetica,sans-Serif" font-size="10.00">SCR_BaseScoringSystemComponent</text>
<text text-anchor="middle" x="90.5" y="-73" font-family="Helvetica,sans-Serif" font-size="10.00">Class</text>
</a>
</g>
</g>
<!-- Node4 -->
<g id="node4" class="node">
<title>Node4</title>
<g id="a_node4"><a xlink:href="interfaceSCR__ScoringSystemComponentClass.html" target="_top" xlink:title=" ">
<polygon fill="white" stroke="#666666" points="169.5,-30 11.5,-30 11.5,0 169.5,0 169.5,-30"/>
<text text-anchor="start" x="19.5" y="-18" font-family="Helvetica,sans-Serif" font-size="10.00">SCR_ScoringSystemComponent</text>
<text text-anchor="middle" x="90.5" y="-7" font-family="Helvetica,sans-Serif" font-size="10.00">Class</text>
</a>
</g>
</g>
<!-- Node1&#45;&gt;Node4 -->
<g id="edge3" class="edge">
<title>Node1&#45;&gt;Node4</title>
<path fill="none" stroke="#63b8ff" d="M90.5,-54.97C90.5,-46.55 90.5,-37.45 90.5,-30.16"/>
<polygon fill="#63b8ff" stroke="#63b8ff" points="87,-54.8 90.5,-64.8 94,-54.8 87,-54.8"/>
</g>
<!-- Node2 -->
<g id="node2" class="node">
<title>Node2</title>
<g id="a_node2"><a xlink:href="interfaceSCR__BaseGameModeComponentClass.html" target="_top" xlink:title=" ">
<polygon fill="white" stroke="#666666" points="172.5,-162 8.5,-162 8.5,-132 172.5,-132 172.5,-162"/>
<text text-anchor="start" x="16.5" y="-150" font-family="Helvetica,sans-Serif" font-size="10.00">SCR_BaseGameModeComponent</text>
<text text-anchor="middle" x="90.5" y="-139" font-family="Helvetica,sans-Serif" font-size="10.00">Class</text>
</a>
</g>
</g>
<!-- Node2&#45;&gt;Node1 -->
<g id="edge1" class="edge">
<title>Node2&#45;&gt;Node1</title>
<path fill="none" stroke="#63b8ff" d="M90.5,-120.97C90.5,-112.55 90.5,-103.45 90.5,-96.16"/>
<polygon fill="#63b8ff" stroke="#63b8ff" points="87,-120.8 90.5,-130.8 94,-120.8 87,-120.8"/>
</g>
<!-- Node3 -->
<g id="node3" class="node">
<title>Node3</title>
<g id="a_node3"><a xlink:title=" ">
<polygon fill="white" stroke="#666666" points="148.5,-217 32.5,-217 32.5,-198 148.5,-198 148.5,-217"/>
<text text-anchor="middle" x="90.5" y="-205" font-family="Helvetica,sans-Serif" font-size="10.00">ScriptComponentClass</text>
</a>
</g>
</g>
<!-- Node3&#45;&gt;Node2 -->
<g id="edge2" class="edge">
<title>Node3&#45;&gt;Node2</title>
<path fill="none" stroke="#63b8ff" d="M90.5,-187.08C90.5,-178.92 90.5,-169.6 90.5,-162.11"/>
<polygon fill="#63b8ff" stroke="#63b8ff" points="87,-186.87 90.5,-196.87 94,-186.87 87,-186.87"/>
</g>
</g>
</svg>
