<?xml version="1.0" encoding="UTF-8" standalone="no"?>
<!DOCTYPE svg PUBLIC "-//W3C//DTD SVG 1.1//EN"
 "http://www.w3.org/Graphics/SVG/1.1/DTD/svg11.dtd">
<!-- Generated by graphviz version 8.0.2 (20230410.1723)
 -->
<!-- Title: SCR_BaseSupportStationEnableEditorAttribute Pages: 1 -->
<svg width="503pt" height="182pt"
 viewBox="0.00 0.00 503.00 182.00" xmlns="http://www.w3.org/2000/svg" xmlns:xlink="http://www.w3.org/1999/xlink">
<g id="graph0" class="graph" transform="scale(1 1) rotate(0) translate(4 178)">
<title>SCR_BaseSupportStationEnableEditorAttribute</title>
<!-- Node1 -->
<g id="node1" class="node">
<title>Node1</title>
<g id="a_node1"><a xlink:title=" ">
<polygon fill="#999999" stroke="#666666" points="322,-102 163,-102 163,-72 322,-72 322,-102"/>
<text text-anchor="start" x="171" y="-90" font-family="Helvetica,sans-Serif" font-size="10.00">SCR_BaseSupportStationEnable</text>
<text text-anchor="middle" x="242.5" y="-79" font-family="Helvetica,sans-Serif" font-size="10.00">EditorAttribute</text>
</a>
</g>
</g>
<!-- Node3 -->
<g id="node3" class="node">
<title>Node3</title>
<g id="a_node3"><a xlink:href="interfaceSCR__SupportStationEnableFuelEditorAttribute.html" target="_top" xlink:title=" ">
<polygon fill="white" stroke="#666666" points="495,-174 358,-174 358,-144 495,-144 495,-174"/>
<text text-anchor="start" x="366" y="-162" font-family="Helvetica,sans-Serif" font-size="10.00">SCR_SupportStationEnable</text>
<text text-anchor="middle" x="426.5" y="-151" font-family="Helvetica,sans-Serif" font-size="10.00">FuelEditorAttribute</text>
</a>
</g>
</g>
<!-- Node1&#45;&gt;Node3 -->
<g id="edge2" class="edge">
<title>Node1&#45;&gt;Node3</title>
<path fill="none" stroke="#63b8ff" d="M288.79,-106.67C309.74,-115.59 335.02,-126.11 358,-135 365.42,-137.87 373.35,-140.81 381.07,-143.6"/>
<polygon fill="#63b8ff" stroke="#63b8ff" points="290.45,-103.14 279.88,-102.43 287.7,-109.58 290.45,-103.14"/>
</g>
<!-- Node4 -->
<g id="node4" class="node">
<title>Node4</title>
<g id="a_node4"><a xlink:href="interfaceSCR__SupportStationEnableHealEditorAttribute.html" target="_top" xlink:title=" ">
<polygon fill="white" stroke="#666666" points="495,-126 358,-126 358,-96 495,-96 495,-126"/>
<text text-anchor="start" x="366" y="-114" font-family="Helvetica,sans-Serif" font-size="10.00">SCR_SupportStationEnable</text>
<text text-anchor="middle" x="426.5" y="-103" font-family="Helvetica,sans-Serif" font-size="10.00">HealEditorAttribute</text>
</a>
</g>
</g>
<!-- Node1&#45;&gt;Node4 -->
<g id="edge3" class="edge">
<title>Node1&#45;&gt;Node4</title>
<path fill="none" stroke="#63b8ff" d="M333.13,-98.82C341.41,-99.91 349.7,-101.01 357.74,-102.07"/>
<polygon fill="#63b8ff" stroke="#63b8ff" points="333.64,-95.22 323.27,-97.39 332.73,-102.16 333.64,-95.22"/>
</g>
<!-- Node5 -->
<g id="node5" class="node">
<title>Node5</title>
<g id="a_node5"><a xlink:href="interfaceSCR__SupportStationEnableRepairEditorAttribute.html" target="_top" xlink:title=" ">
<polygon fill="white" stroke="#666666" points="495,-78 358,-78 358,-48 495,-48 495,-78"/>
<text text-anchor="start" x="366" y="-66" font-family="Helvetica,sans-Serif" font-size="10.00">SCR_SupportStationEnable</text>
<text text-anchor="middle" x="426.5" y="-55" font-family="Helvetica,sans-Serif" font-size="10.00">RepairEditorAttribute</text>
</a>
</g>
</g>
<!-- Node1&#45;&gt;Node5 -->
<g id="edge4" class="edge">
<title>Node1&#45;&gt;Node5</title>
<path fill="none" stroke="#63b8ff" d="M333.13,-75.18C341.41,-74.09 349.7,-72.99 357.74,-71.93"/>
<polygon fill="#63b8ff" stroke="#63b8ff" points="332.73,-71.84 323.27,-76.61 333.64,-78.78 332.73,-71.84"/>
</g>
<!-- Node6 -->
<g id="node6" class="node">
<title>Node6</title>
<g id="a_node6"><a xlink:href="interfaceSCR__SupportStationEnableResupplyEditorAttribute.html" target="_top" xlink:title=" ">
<polygon fill="white" stroke="#666666" points="495,-30 358,-30 358,0 495,0 495,-30"/>
<text text-anchor="start" x="366" y="-18" font-family="Helvetica,sans-Serif" font-size="10.00">SCR_SupportStationEnable</text>
<text text-anchor="middle" x="426.5" y="-7" font-family="Helvetica,sans-Serif" font-size="10.00">ResupplyEditorAttribute</text>
</a>
</g>
</g>
<!-- Node1&#45;&gt;Node6 -->
<g id="edge5" class="edge">
<title>Node1&#45;&gt;Node6</title>
<path fill="none" stroke="#63b8ff" d="M288.79,-67.33C309.74,-58.41 335.02,-47.89 358,-39 365.42,-36.13 373.35,-33.19 381.07,-30.4"/>
<polygon fill="#63b8ff" stroke="#63b8ff" points="287.7,-64.42 279.88,-71.57 290.45,-70.86 287.7,-64.42"/>
</g>
<!-- Node2 -->
<g id="node2" class="node">
<title>Node2</title>
<g id="a_node2"><a xlink:href="interfaceSCR__BaseEditorAttribute.html" target="_top" xlink:title="Base Attribute Script for other attributes to inherent from to get and set varriables in Editor Attri...">
<polygon fill="white" stroke="#666666" points="127,-96.5 0,-96.5 0,-77.5 127,-77.5 127,-96.5"/>
<text text-anchor="middle" x="63.5" y="-84.5" font-family="Helvetica,sans-Serif" font-size="10.00">SCR_BaseEditorAttribute</text>
</a>
</g>
</g>
<!-- Node2&#45;&gt;Node1 -->
<g id="edge1" class="edge">
<title>Node2&#45;&gt;Node1</title>
<path fill="none" stroke="#63b8ff" d="M138.27,-87C146.34,-87 154.57,-87 162.7,-87"/>
<polygon fill="#63b8ff" stroke="#63b8ff" points="138.4,-83.5 128.4,-87 138.4,-90.5 138.4,-83.5"/>
</g>
</g>
</svg>
