<?xml version="1.0" encoding="UTF-8" standalone="no"?>
<!DOCTYPE svg PUBLIC "-//W3C//DTD SVG 1.1//EN"
 "http://www.w3.org/Graphics/SVG/1.1/DTD/svg11.dtd">
<!-- Generated by graphviz version 8.0.2 (20230410.1723)
 -->
<!-- Title: SCR_PowerPoleSlotBase Pages: 1 -->
<svg width="266pt" height="137pt"
 viewBox="0.00 0.00 265.50 137.00" xmlns="http://www.w3.org/2000/svg" xmlns:xlink="http://www.w3.org/1999/xlink">
<g id="graph0" class="graph" transform="scale(1 1) rotate(0) translate(4 133)">
<title>SCR_PowerPoleSlotBase</title>
<!-- Node1 -->
<g id="node1" class="node">
<title>Node1</title>
<g id="a_node1"><a xlink:title=" ">
<polygon fill="#999999" stroke="#666666" points="186,-74 58,-74 58,-55 186,-55 186,-74"/>
<text text-anchor="middle" x="122" y="-62" font-family="Helvetica,sans-Serif" font-size="10.00">SCR_PowerPoleSlotBase</text>
</a>
</g>
</g>
<!-- Node3 -->
<g id="node3" class="node">
<title>Node3</title>
<g id="a_node3"><a xlink:href="interfaceSCR__PowerPoleSlot.html" target="_top" xlink:title=" ">
<polygon fill="white" stroke="#666666" points="106,-19 0,-19 0,0 106,0 106,-19"/>
<text text-anchor="middle" x="53" y="-7" font-family="Helvetica,sans-Serif" font-size="10.00">SCR_PowerPoleSlot</text>
</a>
</g>
</g>
<!-- Node1&#45;&gt;Node3 -->
<g id="edge2" class="edge">
<title>Node1&#45;&gt;Node3</title>
<path fill="none" stroke="#63b8ff" d="M101.71,-47.92C89.6,-38.61 74.65,-27.13 64.53,-19.36"/>
<polygon fill="#63b8ff" stroke="#63b8ff" points="99.23,-51.19 109.3,-54.51 103.5,-45.64 99.23,-51.19"/>
</g>
<!-- Node4 -->
<g id="node4" class="node">
<title>Node4</title>
<g id="a_node4"><a xlink:href="interfaceSCR__PowerPoleSlotSingle.html" target="_top" xlink:title=" ">
<polygon fill="white" stroke="#666666" points="257.5,-19 124.5,-19 124.5,0 257.5,0 257.5,-19"/>
<text text-anchor="middle" x="191" y="-7" font-family="Helvetica,sans-Serif" font-size="10.00">SCR_PowerPoleSlotSingle</text>
</a>
</g>
</g>
<!-- Node1&#45;&gt;Node4 -->
<g id="edge3" class="edge">
<title>Node1&#45;&gt;Node4</title>
<path fill="none" stroke="#63b8ff" d="M142.29,-47.92C154.4,-38.61 169.35,-27.13 179.47,-19.36"/>
<polygon fill="#63b8ff" stroke="#63b8ff" points="140.5,-45.64 134.7,-54.51 144.77,-51.19 140.5,-45.64"/>
</g>
<!-- Node2 -->
<g id="node2" class="node">
<title>Node2</title>
<g id="a_node2"><a xlink:title=" ">
<polygon fill="white" stroke="#666666" points="150,-129 94,-129 94,-110 150,-110 150,-129"/>
<text text-anchor="middle" x="122" y="-117" font-family="Helvetica,sans-Serif" font-size="10.00">Managed</text>
</a>
</g>
</g>
<!-- Node2&#45;&gt;Node1 -->
<g id="edge1" class="edge">
<title>Node2&#45;&gt;Node1</title>
<path fill="none" stroke="#63b8ff" d="M122,-98.93C122,-90.53 122,-81.13 122,-74.44"/>
<polygon fill="#63b8ff" stroke="#63b8ff" points="118.5,-98.75 122,-108.75 125.5,-98.75 118.5,-98.75"/>
</g>
</g>
</svg>
