<?xml version="1.0" encoding="UTF-8" standalone="no"?>
<!DOCTYPE svg PUBLIC "-//W3C//DTD SVG 1.1//EN"
 "http://www.w3.org/Graphics/SVG/1.1/DTD/svg11.dtd">
<!-- Generated by graphviz version 8.0.2 (20230410.1723)
 -->
<!-- Title: BaseScriptedSelectionMenuEntry Pages: 1 -->
<svg width="989pt" height="218pt"
 viewBox="0.00 0.00 989.00 217.50" xmlns="http://www.w3.org/2000/svg" xmlns:xlink="http://www.w3.org/1999/xlink">
<g id="graph0" class="graph" transform="scale(1 1) rotate(0) translate(4 213.5)">
<title>BaseScriptedSelectionMenuEntry</title>
<!-- Node1 -->
<g id="node1" class="node">
<title>Node1</title>
<g id="a_node1"><a xlink:title=" ">
<polygon fill="#999999" stroke="#666666" points="425,-116.5 285,-116.5 285,-86.5 425,-86.5 425,-116.5"/>
<text text-anchor="start" x="293" y="-104.5" font-family="Helvetica,sans-Serif" font-size="10.00">BaseScriptedSelectionMenu</text>
<text text-anchor="middle" x="355" y="-93.5" font-family="Helvetica,sans-Serif" font-size="10.00">Entry</text>
</a>
</g>
</g>
<!-- Node4 -->
<g id="node4" class="node">
<title>Node4</title>
<g id="a_node4"><a xlink:href="interfaceScriptedSelectionMenuEntry.html" target="_top" xlink:title=" ">
<polygon fill="white" stroke="#666666" points="601,-111 461,-111 461,-92 601,-92 601,-111"/>
<text text-anchor="middle" x="531" y="-99" font-family="Helvetica,sans-Serif" font-size="10.00">ScriptedSelectionMenuEntry</text>
</a>
</g>
</g>
<!-- Node1&#45;&gt;Node4 -->
<g id="edge3" class="edge">
<title>Node1&#45;&gt;Node4</title>
<path fill="none" stroke="#63b8ff" d="M436.02,-101.5C444.26,-101.5 452.58,-101.5 460.68,-101.5"/>
<polygon fill="#63b8ff" stroke="#63b8ff" points="436.27,-98 426.27,-101.5 436.27,-105 436.27,-98"/>
</g>
<!-- Node2 -->
<g id="node2" class="node">
<title>Node2</title>
<g id="a_node2"><a xlink:href="interfaceBaseSelectionMenuEntry.html" target="_top" xlink:title=" ">
<polygon fill="white" stroke="#666666" points="249,-111 122,-111 122,-92 249,-92 249,-111"/>
<text text-anchor="middle" x="185.5" y="-99" font-family="Helvetica,sans-Serif" font-size="10.00">BaseSelectionMenuEntry</text>
</a>
</g>
</g>
<!-- Node2&#45;&gt;Node1 -->
<g id="edge1" class="edge">
<title>Node2&#45;&gt;Node1</title>
<path fill="none" stroke="#63b8ff" d="M260.27,-101.5C268.37,-101.5 276.58,-101.5 284.62,-101.5"/>
<polygon fill="#63b8ff" stroke="#63b8ff" points="260.35,-98 250.35,-101.5 260.35,-105 260.35,-98"/>
</g>
<!-- Node3 -->
<g id="node3" class="node">
<title>Node3</title>
<g id="a_node3"><a xlink:title=" ">
<polygon fill="white" stroke="#666666" points="86,-111 0,-111 0,-92 86,-92 86,-111"/>
<text text-anchor="middle" x="43" y="-99" font-family="Helvetica,sans-Serif" font-size="10.00">ScriptAndConfig</text>
</a>
</g>
</g>
<!-- Node3&#45;&gt;Node2 -->
<g id="edge2" class="edge">
<title>Node3&#45;&gt;Node2</title>
<path fill="none" stroke="#63b8ff" d="M96.9,-101.5C104.96,-101.5 113.34,-101.5 121.59,-101.5"/>
<polygon fill="#63b8ff" stroke="#63b8ff" points="97.15,-98 87.15,-101.5 97.15,-105 97.15,-98"/>
</g>
<!-- Node5 -->
<g id="node5" class="node">
<title>Node5</title>
<g id="a_node5"><a xlink:href="interfaceAIMessageSelectionMenuEntry.html" target="_top" xlink:title=" ">
<polygon fill="white" stroke="#666666" points="790,-204 637,-204 637,-185 790,-185 790,-204"/>
<text text-anchor="middle" x="713.5" y="-192" font-family="Helvetica,sans-Serif" font-size="10.00">AIMessageSelectionMenuEntry</text>
</a>
</g>
</g>
<!-- Node4&#45;&gt;Node5 -->
<g id="edge4" class="edge">
<title>Node4&#45;&gt;Node5</title>
<path fill="none" stroke="#63b8ff" d="M551.38,-118.5C571.48,-135.3 604.48,-160.58 637,-175.5 644.86,-179.11 653.51,-182.1 662.06,-184.56"/>
<polygon fill="#63b8ff" stroke="#63b8ff" points="553.98,-115.27 544.1,-111.45 549.44,-120.6 553.98,-115.27"/>
</g>
<!-- Node7 -->
<g id="node7" class="node">
<title>Node7</title>
<g id="a_node7"><a xlink:href="interfaceSCR__BaseGroup.html" target="_top" xlink:title="An abstract class to be implemented by the user to provide the WeaponSwitchingGroupManager with a val...">
<polygon fill="white" stroke="#666666" points="759,-167 668,-167 668,-148 759,-148 759,-167"/>
<text text-anchor="middle" x="713.5" y="-155" font-family="Helvetica,sans-Serif" font-size="10.00">SCR_BaseGroup</text>
</a>
</g>
</g>
<!-- Node4&#45;&gt;Node7 -->
<g id="edge6" class="edge">
<title>Node4&#45;&gt;Node7</title>
<path fill="none" stroke="#63b8ff" d="M568.36,-115.24C588.45,-122.6 613.94,-131.55 637,-138.5 647.61,-141.7 659.17,-144.8 669.98,-147.53"/>
<polygon fill="#63b8ff" stroke="#63b8ff" points="569.69,-111.64 559.1,-111.45 567.27,-118.2 569.69,-111.64"/>
</g>
<!-- Node8 -->
<g id="node8" class="node">
<title>Node8</title>
<g id="a_node8"><a xlink:href="interfaceSCR__BaseGroupEntry.html" target="_top" xlink:title="An abstract wrapper to provide common interface for items that can be stored in a BaseGroup.">
<polygon fill="white" stroke="#666666" points="770.5,-130 656.5,-130 656.5,-111 770.5,-111 770.5,-130"/>
<text text-anchor="middle" x="713.5" y="-118" font-family="Helvetica,sans-Serif" font-size="10.00">SCR_BaseGroupEntry</text>
</a>
</g>
</g>
<!-- Node4&#45;&gt;Node8 -->
<g id="edge7" class="edge">
<title>Node4&#45;&gt;Node8</title>
<path fill="none" stroke="#63b8ff" d="M612.04,-109.93C626.96,-111.5 642.26,-113.11 656.28,-114.58"/>
<polygon fill="#63b8ff" stroke="#63b8ff" points="612.58,-106.36 602.27,-108.79 611.85,-113.32 612.58,-106.36"/>
</g>
<!-- Node10 -->
<g id="node10" class="node">
<title>Node10</title>
<g id="a_node10"><a xlink:href="interfaceSCR__CommandingMenuEntry.html" target="_top" xlink:title=" ">
<polygon fill="white" stroke="#666666" points="786.5,-93 640.5,-93 640.5,-74 786.5,-74 786.5,-93"/>
<text text-anchor="middle" x="713.5" y="-81" font-family="Helvetica,sans-Serif" font-size="10.00">SCR_CommandingMenuEntry</text>
</a>
</g>
</g>
<!-- Node4&#45;&gt;Node10 -->
<g id="edge9" class="edge">
<title>Node4&#45;&gt;Node10</title>
<path fill="none" stroke="#63b8ff" d="M612.12,-93.51C621.45,-92.58 630.91,-91.64 640.12,-90.72"/>
<polygon fill="#63b8ff" stroke="#63b8ff" points="611.87,-90.12 602.27,-94.59 612.57,-97.08 611.87,-90.12"/>
</g>
<!-- Node11 -->
<g id="node11" class="node">
<title>Node11</title>
<g id="a_node11"><a xlink:href="interfaceSCR__EditorActionRadialEntry.html" target="_top" xlink:title=" ">
<polygon fill="white" stroke="#666666" points="786.5,-56 640.5,-56 640.5,-37 786.5,-37 786.5,-56"/>
<text text-anchor="middle" x="713.5" y="-44" font-family="Helvetica,sans-Serif" font-size="10.00">SCR_EditorActionRadialEntry</text>
</a>
</g>
</g>
<!-- Node4&#45;&gt;Node11 -->
<g id="edge10" class="edge">
<title>Node4&#45;&gt;Node11</title>
<path fill="none" stroke="#63b8ff" d="M567.92,-87.79C588.06,-80.37 613.74,-71.35 637,-64.5 646.69,-61.64 657.19,-58.92 667.18,-56.49"/>
<polygon fill="#63b8ff" stroke="#63b8ff" points="566.8,-84.85 558.64,-91.62 569.24,-91.41 566.8,-84.85"/>
</g>
<!-- Node12 -->
<g id="node12" class="node">
<title>Node12</title>
<g id="a_node12"><a xlink:href="interfaceSCR__EditorModeRadialEntry.html" target="_top" xlink:title=" ">
<polygon fill="white" stroke="#666666" points="784.5,-19 642.5,-19 642.5,0 784.5,0 784.5,-19"/>
<text text-anchor="middle" x="713.5" y="-7" font-family="Helvetica,sans-Serif" font-size="10.00">SCR_EditorModeRadialEntry</text>
</a>
</g>
</g>
<!-- Node4&#45;&gt;Node12 -->
<g id="edge11" class="edge">
<title>Node4&#45;&gt;Node12</title>
<path fill="none" stroke="#63b8ff" d="M551.02,-84.69C571.06,-67.83 604.21,-42.3 637,-27.5 644,-24.34 651.63,-21.7 659.25,-19.49"/>
<polygon fill="#63b8ff" stroke="#63b8ff" points="549.09,-82.59 543.78,-91.75 553.65,-87.9 549.09,-82.59"/>
</g>
<!-- Node6 -->
<g id="node6" class="node">
<title>Node6</title>
<g id="a_node6"><a xlink:href="interfaceSCR__AIMessageSelectionMenuEntry.html" target="_top" xlink:title=" ">
<polygon fill="white" stroke="#666666" points="981,-209.5 826,-209.5 826,-179.5 981,-179.5 981,-209.5"/>
<text text-anchor="start" x="834" y="-197.5" font-family="Helvetica,sans-Serif" font-size="10.00">SCR_AIMessageSelectionMenu</text>
<text text-anchor="middle" x="903.5" y="-186.5" font-family="Helvetica,sans-Serif" font-size="10.00">Entry</text>
</a>
</g>
</g>
<!-- Node5&#45;&gt;Node6 -->
<g id="edge5" class="edge">
<title>Node5&#45;&gt;Node6</title>
<path fill="none" stroke="#63b8ff" d="M801.41,-194.5C809.51,-194.5 817.68,-194.5 825.68,-194.5"/>
<polygon fill="#63b8ff" stroke="#63b8ff" points="801.42,-191 791.42,-194.5 801.42,-198 801.42,-191"/>
</g>
<!-- Node9 -->
<g id="node9" class="node">
<title>Node9</title>
<g id="a_node9"><a xlink:href="interfaceSCR__GroupWeaponEntry.html" target="_top" xlink:title="Implementation of base group for switching that can be created via passing in a list of WeaponSlotCom...">
<polygon fill="white" stroke="#666666" points="967.5,-130 839.5,-130 839.5,-111 967.5,-111 967.5,-130"/>
<text text-anchor="middle" x="903.5" y="-118" font-family="Helvetica,sans-Serif" font-size="10.00">SCR_GroupWeaponEntry</text>
</a>
</g>
</g>
<!-- Node8&#45;&gt;Node9 -->
<g id="edge8" class="edge">
<title>Node8&#45;&gt;Node9</title>
<path fill="none" stroke="#63b8ff" d="M781.73,-120.5C800.46,-120.5 820.73,-120.5 839.22,-120.5"/>
<polygon fill="#63b8ff" stroke="#63b8ff" points="781.91,-117 771.91,-120.5 781.91,-124 781.91,-117"/>
</g>
</g>
</svg>
