<?xml version="1.0" encoding="UTF-8" standalone="no"?>
<!DOCTYPE svg PUBLIC "-//W3C//DTD SVG 1.1//EN"
 "http://www.w3.org/Graphics/SVG/1.1/DTD/svg11.dtd">
<!-- Generated by graphviz version 8.0.2 (20230410.1723)
 -->
<!-- Title: PilotCompartmentSlot Pages: 1 -->
<svg width="138pt" height="192pt"
 viewBox="0.00 0.00 138.00 192.00" xmlns="http://www.w3.org/2000/svg" xmlns:xlink="http://www.w3.org/1999/xlink">
<g id="graph0" class="graph" transform="scale(1 1) rotate(0) translate(4 188)">
<title>PilotCompartmentSlot</title>
<!-- Node1 -->
<g id="node1" class="node">
<title>Node1</title>
<g id="a_node1"><a xlink:title=" ">
<polygon fill="#999999" stroke="#666666" points="121,-19 9,-19 9,0 121,0 121,-19"/>
<text text-anchor="middle" x="65" y="-7" font-family="Helvetica,sans-Serif" font-size="10.00">PilotCompartmentSlot</text>
</a>
</g>
</g>
<!-- Node2 -->
<g id="node2" class="node">
<title>Node2</title>
<g id="a_node2"><a xlink:href="interfaceBaseCompartmentSlot.html" target="_top" xlink:title=" ">
<polygon fill="white" stroke="#666666" points="122.5,-74 7.5,-74 7.5,-55 122.5,-55 122.5,-74"/>
<text text-anchor="middle" x="65" y="-62" font-family="Helvetica,sans-Serif" font-size="10.00">BaseCompartmentSlot</text>
</a>
</g>
</g>
<!-- Node2&#45;&gt;Node1 -->
<g id="edge1" class="edge">
<title>Node2&#45;&gt;Node1</title>
<path fill="none" stroke="#63b8ff" d="M65,-43.93C65,-35.53 65,-26.13 65,-19.44"/>
<polygon fill="#63b8ff" stroke="#63b8ff" points="61.5,-43.75 65,-53.75 68.5,-43.75 61.5,-43.75"/>
</g>
<!-- Node3 -->
<g id="node3" class="node">
<title>Node3</title>
<g id="a_node3"><a xlink:href="interfaceExtBaseCompartmentSlot.html" target="_top" xlink:title=" ">
<polygon fill="white" stroke="#666666" points="130,-129 0,-129 0,-110 130,-110 130,-129"/>
<text text-anchor="middle" x="65" y="-117" font-family="Helvetica,sans-Serif" font-size="10.00">ExtBaseCompartmentSlot</text>
</a>
</g>
</g>
<!-- Node3&#45;&gt;Node2 -->
<g id="edge2" class="edge">
<title>Node3&#45;&gt;Node2</title>
<path fill="none" stroke="#63b8ff" d="M65,-98.93C65,-90.53 65,-81.13 65,-74.44"/>
<polygon fill="#63b8ff" stroke="#63b8ff" points="61.5,-98.75 65,-108.75 68.5,-98.75 61.5,-98.75"/>
</g>
<!-- Node4 -->
<g id="node4" class="node">
<title>Node4</title>
<g id="a_node4"><a xlink:title=" ">
<polygon fill="white" stroke="#666666" points="108,-184 22,-184 22,-165 108,-165 108,-184"/>
<text text-anchor="middle" x="65" y="-172" font-family="Helvetica,sans-Serif" font-size="10.00">ScriptAndConfig</text>
</a>
</g>
</g>
<!-- Node4&#45;&gt;Node3 -->
<g id="edge3" class="edge">
<title>Node4&#45;&gt;Node3</title>
<path fill="none" stroke="#63b8ff" d="M65,-153.93C65,-145.53 65,-136.13 65,-129.44"/>
<polygon fill="#63b8ff" stroke="#63b8ff" points="61.5,-153.75 65,-163.75 68.5,-153.75 61.5,-153.75"/>
</g>
</g>
</svg>
