<?xml version="1.0" encoding="UTF-8" standalone="no"?>
<!DOCTYPE svg PUBLIC "-//W3C//DTD SVG 1.1//EN"
 "http://www.w3.org/Graphics/SVG/1.1/DTD/svg11.dtd">
<!-- Generated by graphviz version 8.0.2 (20230410.1723)
 -->
<!-- Title: BaseScriptedCameraItem Pages: 1 -->
<svg width="984pt" height="568pt"
 viewBox="0.00 0.00 984.00 567.50" xmlns="http://www.w3.org/2000/svg" xmlns:xlink="http://www.w3.org/1999/xlink">
<g id="graph0" class="graph" transform="scale(1 1) rotate(0) translate(4 563.5)">
<title>BaseScriptedCameraItem</title>
<!-- Node1 -->
<g id="node1" class="node">
<title>Node1</title>
<g id="a_node1"><a xlink:title=" ">
<polygon fill="#999999" stroke="#666666" points="128,-123 0,-123 0,-104 128,-104 128,-123"/>
<text text-anchor="middle" x="64" y="-111" font-family="Helvetica,sans-Serif" font-size="10.00">BaseScriptedCameraItem</text>
</a>
</g>
</g>
<!-- Node2 -->
<g id="node2" class="node">
<title>Node2</title>
<g id="a_node2"><a xlink:href="interfaceScriptedCameraItem.html" target="_top" xlink:title=" ">
<polygon fill="white" stroke="#666666" points="269,-123 164,-123 164,-104 269,-104 269,-123"/>
<text text-anchor="middle" x="216.5" y="-111" font-family="Helvetica,sans-Serif" font-size="10.00">ScriptedCameraItem</text>
</a>
</g>
</g>
<!-- Node1&#45;&gt;Node2 -->
<g id="edge1" class="edge">
<title>Node1&#45;&gt;Node2</title>
<path fill="none" stroke="#63b8ff" d="M139.19,-113.5C147.43,-113.5 155.7,-113.5 163.58,-113.5"/>
<polygon fill="#63b8ff" stroke="#63b8ff" points="139.39,-110 129.39,-113.5 139.39,-117 139.39,-110"/>
</g>
<!-- Node3 -->
<g id="node3" class="node">
<title>Node3</title>
<g id="a_node3"><a xlink:href="interfaceCharacterCameraBase.html" target="_top" xlink:title=" ">
<polygon fill="white" stroke="#666666" points="420,-123 305,-123 305,-104 420,-104 420,-123"/>
<text text-anchor="middle" x="362.5" y="-111" font-family="Helvetica,sans-Serif" font-size="10.00">CharacterCameraBase</text>
</a>
</g>
</g>
<!-- Node2&#45;&gt;Node3 -->
<g id="edge2" class="edge">
<title>Node2&#45;&gt;Node3</title>
<path fill="none" stroke="#63b8ff" d="M280.39,-113.5C288.48,-113.5 296.73,-113.5 304.72,-113.5"/>
<polygon fill="#63b8ff" stroke="#63b8ff" points="280.49,-110 270.49,-113.5 280.49,-117 280.49,-110"/>
</g>
<!-- Node4 -->
<g id="node4" class="node">
<title>Node4</title>
<g id="a_node4"><a xlink:href="interfaceCharacterCamera1stPerson.html" target="_top" xlink:title=" ">
<polygon fill="white" stroke="#666666" points="604,-410 467,-410 467,-391 604,-391 604,-410"/>
<text text-anchor="middle" x="535.5" y="-398" font-family="Helvetica,sans-Serif" font-size="10.00">CharacterCamera1stPerson</text>
</a>
</g>
</g>
<!-- Node3&#45;&gt;Node4 -->
<g id="edge3" class="edge">
<title>Node3&#45;&gt;Node4</title>
<path fill="none" stroke="#63b8ff" d="M375.01,-132.82C408.32,-188.72 503.97,-349.26 528.64,-390.66"/>
<polygon fill="#63b8ff" stroke="#63b8ff" points="377.51,-131.18 369.39,-124.38 371.5,-134.76 377.51,-131.18"/>
</g>
<!-- Node13 -->
<g id="node13" class="node">
<title>Node13</title>
<g id="a_node13"><a xlink:href="interfaceCharacterCamera3rdPersonBase.html" target="_top" xlink:title=" ">
<polygon fill="white" stroke="#666666" points="615,-190 456,-190 456,-171 615,-171 615,-190"/>
<text text-anchor="middle" x="535.5" y="-178" font-family="Helvetica,sans-Serif" font-size="10.00">CharacterCamera3rdPersonBase</text>
</a>
</g>
</g>
<!-- Node3&#45;&gt;Node13 -->
<g id="edge12" class="edge">
<title>Node3&#45;&gt;Node13</title>
<path fill="none" stroke="#63b8ff" d="M388.96,-128.84C407.12,-139.25 432.41,-152.67 456,-161.5 465.32,-164.99 475.51,-168 485.37,-170.54"/>
<polygon fill="#63b8ff" stroke="#63b8ff" points="391.06,-125.43 380.66,-123.42 387.53,-131.48 391.06,-125.43"/>
</g>
<!-- Node21 -->
<g id="node21" class="node">
<title>Node21</title>
<g id="a_node21"><a xlink:href="interfaceCharacterCamera3rdPersonTurret.html" target="_top" xlink:title=" ">
<polygon fill="white" stroke="#666666" points="604,-152.5 467,-152.5 467,-122.5 604,-122.5 604,-152.5"/>
<text text-anchor="start" x="475" y="-140.5" font-family="Helvetica,sans-Serif" font-size="10.00">CharacterCamera3rdPerson</text>
<text text-anchor="middle" x="535.5" y="-129.5" font-family="Helvetica,sans-Serif" font-size="10.00">Turret</text>
</a>
</g>
</g>
<!-- Node3&#45;&gt;Node21 -->
<g id="edge20" class="edge">
<title>Node3&#45;&gt;Node21</title>
<path fill="none" stroke="#63b8ff" d="M431.01,-122.97C442.69,-124.61 454.84,-126.32 466.53,-127.96"/>
<polygon fill="#63b8ff" stroke="#63b8ff" points="431.83,-119.42 421.44,-121.49 430.86,-126.35 431.83,-119.42"/>
</g>
<!-- Node22 -->
<g id="node22" class="node">
<title>Node22</title>
<g id="a_node22"><a xlink:href="interfaceCharacterCamera3rdPersonVehicle.html" target="_top" xlink:title=" ">
<polygon fill="white" stroke="#666666" points="604,-104.5 467,-104.5 467,-74.5 604,-74.5 604,-104.5"/>
<text text-anchor="start" x="475" y="-92.5" font-family="Helvetica,sans-Serif" font-size="10.00">CharacterCamera3rdPerson</text>
<text text-anchor="middle" x="535.5" y="-81.5" font-family="Helvetica,sans-Serif" font-size="10.00">Vehicle</text>
</a>
</g>
</g>
<!-- Node3&#45;&gt;Node22 -->
<g id="edge21" class="edge">
<title>Node3&#45;&gt;Node22</title>
<path fill="none" stroke="#63b8ff" d="M431.01,-104.03C442.69,-102.39 454.84,-100.68 466.53,-99.04"/>
<polygon fill="#63b8ff" stroke="#63b8ff" points="430.86,-100.65 421.44,-105.51 431.83,-107.58 430.86,-100.65"/>
</g>
<!-- Node23 -->
<g id="node23" class="node">
<title>Node23</title>
<g id="a_node23"><a xlink:href="interfaceCharacterCameraADS.html" target="_top" xlink:title=" ">
<polygon fill="white" stroke="#666666" points="592,-56 479,-56 479,-37 592,-37 592,-56"/>
<text text-anchor="middle" x="535.5" y="-44" font-family="Helvetica,sans-Serif" font-size="10.00">CharacterCameraADS</text>
</a>
</g>
</g>
<!-- Node3&#45;&gt;Node23 -->
<g id="edge22" class="edge">
<title>Node3&#45;&gt;Node23</title>
<path fill="none" stroke="#63b8ff" d="M388.96,-98.16C407.12,-87.75 432.41,-74.33 456,-65.5 465.32,-62.01 475.51,-59 485.37,-56.46"/>
<polygon fill="#63b8ff" stroke="#63b8ff" points="387.53,-95.52 380.66,-103.58 391.06,-101.57 387.53,-95.52"/>
</g>
<!-- Node25 -->
<g id="node25" class="node">
<title>Node25</title>
<g id="a_node25"><a xlink:href="interfaceCharacterCameraDebug.html" target="_top" xlink:title=" ">
<polygon fill="white" stroke="#666666" points="595.5,-19 475.5,-19 475.5,0 595.5,0 595.5,-19"/>
<text text-anchor="middle" x="535.5" y="-7" font-family="Helvetica,sans-Serif" font-size="10.00">CharacterCameraDebug</text>
</a>
</g>
</g>
<!-- Node3&#45;&gt;Node25 -->
<g id="edge24" class="edge">
<title>Node3&#45;&gt;Node25</title>
<path fill="none" stroke="#63b8ff" d="M377.91,-95.32C394.58,-75.55 423.88,-44.51 456,-27.5 462.05,-24.29 468.67,-21.65 475.4,-19.48"/>
<polygon fill="#63b8ff" stroke="#63b8ff" points="374.62,-92.81 370.98,-102.76 380.03,-97.25 374.62,-92.81"/>
</g>
<!-- Node5 -->
<g id="node5" class="node">
<title>Node5</title>
<g id="a_node5"><a xlink:href="interfaceCharacterCamera1stPersonBoneTransform.html" target="_top" xlink:title=" ">
<polygon fill="white" stroke="#666666" points="795.5,-559.5 658.5,-559.5 658.5,-529.5 795.5,-529.5 795.5,-559.5"/>
<text text-anchor="start" x="666.5" y="-547.5" font-family="Helvetica,sans-Serif" font-size="10.00">CharacterCamera1stPerson</text>
<text text-anchor="middle" x="727" y="-536.5" font-family="Helvetica,sans-Serif" font-size="10.00">BoneTransform</text>
</a>
</g>
</g>
<!-- Node4&#45;&gt;Node5 -->
<g id="edge4" class="edge">
<title>Node4&#45;&gt;Node5</title>
<path fill="none" stroke="#63b8ff" d="M549.48,-419.11C568.73,-445.37 607.31,-493.15 651,-520.5 656.21,-523.76 661.91,-526.62 667.77,-529.12"/>
<polygon fill="#63b8ff" stroke="#63b8ff" points="551.97,-417.57 543.29,-411.48 546.28,-421.65 551.97,-417.57"/>
</g>
<!-- Node6 -->
<g id="node6" class="node">
<title>Node6</title>
<g id="a_node6"><a xlink:href="interfaceCharacterCamera1stPersonReady.html" target="_top" xlink:title=" ">
<polygon fill="white" stroke="#666666" points="795.5,-511.5 658.5,-511.5 658.5,-481.5 795.5,-481.5 795.5,-511.5"/>
<text text-anchor="start" x="666.5" y="-499.5" font-family="Helvetica,sans-Serif" font-size="10.00">CharacterCamera1stPerson</text>
<text text-anchor="middle" x="727" y="-488.5" font-family="Helvetica,sans-Serif" font-size="10.00">Ready</text>
</a>
</g>
</g>
<!-- Node4&#45;&gt;Node6 -->
<g id="edge5" class="edge">
<title>Node4&#45;&gt;Node6</title>
<path fill="none" stroke="#63b8ff" d="M558.31,-416.56C580.67,-432.45 616.91,-456.64 651,-472.5 657.69,-475.61 664.9,-478.48 672.11,-481.07"/>
<polygon fill="#63b8ff" stroke="#63b8ff" points="560.78,-413.3 550.62,-410.3 556.69,-418.99 560.78,-413.3"/>
</g>
<!-- Node8 -->
<g id="node8" class="node">
<title>Node8</title>
<g id="a_node8"><a xlink:href="interfaceCharacterCamera1stPersonTurret.html" target="_top" xlink:title=" ">
<polygon fill="white" stroke="#666666" points="795.5,-463.5 658.5,-463.5 658.5,-433.5 795.5,-433.5 795.5,-463.5"/>
<text text-anchor="start" x="666.5" y="-451.5" font-family="Helvetica,sans-Serif" font-size="10.00">CharacterCamera1stPerson</text>
<text text-anchor="middle" x="727" y="-440.5" font-family="Helvetica,sans-Serif" font-size="10.00">Turret</text>
</a>
</g>
</g>
<!-- Node4&#45;&gt;Node8 -->
<g id="edge7" class="edge">
<title>Node4&#45;&gt;Node8</title>
<path fill="none" stroke="#63b8ff" d="M586.14,-413.07C610.32,-419.2 639.62,-426.62 665.14,-433.08"/>
<polygon fill="#63b8ff" stroke="#63b8ff" points="587.32,-409.51 576.76,-410.45 585.6,-416.29 587.32,-409.51"/>
</g>
<!-- Node9 -->
<g id="node9" class="node">
<title>Node9</title>
<g id="a_node9"><a xlink:href="interfaceCharacterCamera1stPersonUnconscious.html" target="_top" xlink:title=" ">
<polygon fill="white" stroke="#666666" points="795.5,-415.5 658.5,-415.5 658.5,-385.5 795.5,-385.5 795.5,-415.5"/>
<text text-anchor="start" x="666.5" y="-403.5" font-family="Helvetica,sans-Serif" font-size="10.00">CharacterCamera1stPerson</text>
<text text-anchor="middle" x="727" y="-392.5" font-family="Helvetica,sans-Serif" font-size="10.00">Unconscious</text>
</a>
</g>
</g>
<!-- Node4&#45;&gt;Node9 -->
<g id="edge8" class="edge">
<title>Node4&#45;&gt;Node9</title>
<path fill="none" stroke="#63b8ff" d="M615.2,-400.5C629.51,-400.5 644.32,-400.5 658.28,-400.5"/>
<polygon fill="#63b8ff" stroke="#63b8ff" points="615.38,-397 605.38,-400.5 615.38,-404 615.38,-397"/>
</g>
<!-- Node10 -->
<g id="node10" class="node">
<title>Node10</title>
<g id="a_node10"><a xlink:href="interfaceCharacterCamera1stPersonVehicle.html" target="_top" xlink:title=" ">
<polygon fill="white" stroke="#666666" points="795.5,-367.5 658.5,-367.5 658.5,-337.5 795.5,-337.5 795.5,-367.5"/>
<text text-anchor="start" x="666.5" y="-355.5" font-family="Helvetica,sans-Serif" font-size="10.00">CharacterCamera1stPerson</text>
<text text-anchor="middle" x="727" y="-344.5" font-family="Helvetica,sans-Serif" font-size="10.00">Vehicle</text>
</a>
</g>
</g>
<!-- Node4&#45;&gt;Node10 -->
<g id="edge9" class="edge">
<title>Node4&#45;&gt;Node10</title>
<path fill="none" stroke="#63b8ff" d="M586.14,-387.93C610.32,-381.8 639.62,-374.38 665.14,-367.92"/>
<polygon fill="#63b8ff" stroke="#63b8ff" points="585.6,-384.71 576.76,-390.55 587.32,-391.49 585.6,-384.71"/>
</g>
<!-- Node12 -->
<g id="node12" class="node">
<title>Node12</title>
<g id="a_node12"><a xlink:href="interfaceCharacterCameraBinoculars.html" target="_top" xlink:title=" ">
<polygon fill="white" stroke="#666666" points="796,-319 658,-319 658,-300 796,-300 796,-319"/>
<text text-anchor="middle" x="727" y="-307" font-family="Helvetica,sans-Serif" font-size="10.00">CharacterCameraBinoculars</text>
</a>
</g>
</g>
<!-- Node4&#45;&gt;Node12 -->
<g id="edge11" class="edge">
<title>Node4&#45;&gt;Node12</title>
<path fill="none" stroke="#63b8ff" d="M557.74,-384.26C579.92,-368.03 616.25,-343.39 651,-328.5 659.27,-324.96 668.35,-321.97 677.25,-319.48"/>
<polygon fill="#63b8ff" stroke="#63b8ff" points="556.09,-381.88 550.15,-390.66 560.26,-387.49 556.09,-381.88"/>
</g>
<!-- Node7 -->
<g id="node7" class="node">
<title>Node7</title>
<g id="a_node7"><a xlink:href="interfaceCharacterCamera1stPersonFloat.html" target="_top" xlink:title=" ">
<polygon fill="white" stroke="#666666" points="976,-511.5 839,-511.5 839,-481.5 976,-481.5 976,-511.5"/>
<text text-anchor="start" x="847" y="-499.5" font-family="Helvetica,sans-Serif" font-size="10.00">CharacterCamera1stPerson</text>
<text text-anchor="middle" x="907.5" y="-488.5" font-family="Helvetica,sans-Serif" font-size="10.00">Float</text>
</a>
</g>
</g>
<!-- Node6&#45;&gt;Node7 -->
<g id="edge6" class="edge">
<title>Node6&#45;&gt;Node7</title>
<path fill="none" stroke="#63b8ff" d="M806.94,-496.5C817.53,-496.5 828.32,-496.5 838.7,-496.5"/>
<polygon fill="#63b8ff" stroke="#63b8ff" points="806.99,-493 796.99,-496.5 806.99,-500 806.99,-493"/>
</g>
<!-- Node11 -->
<g id="node11" class="node">
<title>Node11</title>
<g id="a_node11"><a xlink:href="interfaceCharacterCamera1stPersonVehicleTransition.html" target="_top" xlink:title=" ">
<polygon fill="white" stroke="#666666" points="976,-367.5 839,-367.5 839,-337.5 976,-337.5 976,-367.5"/>
<text text-anchor="start" x="847" y="-355.5" font-family="Helvetica,sans-Serif" font-size="10.00">CharacterCamera1stPerson</text>
<text text-anchor="middle" x="907.5" y="-344.5" font-family="Helvetica,sans-Serif" font-size="10.00">VehicleTransition</text>
</a>
</g>
</g>
<!-- Node10&#45;&gt;Node11 -->
<g id="edge10" class="edge">
<title>Node10&#45;&gt;Node11</title>
<path fill="none" stroke="#63b8ff" d="M806.94,-352.5C817.53,-352.5 828.32,-352.5 838.7,-352.5"/>
<polygon fill="#63b8ff" stroke="#63b8ff" points="806.99,-349 796.99,-352.5 806.99,-356 806.99,-349"/>
</g>
<!-- Node14 -->
<g id="node14" class="node">
<title>Node14</title>
<g id="a_node14"><a xlink:href="interfaceCharacterCamera3rdPersonCrouch.html" target="_top" xlink:title=" ">
<polygon fill="white" stroke="#666666" points="795.5,-281.5 658.5,-281.5 658.5,-251.5 795.5,-251.5 795.5,-281.5"/>
<text text-anchor="start" x="666.5" y="-269.5" font-family="Helvetica,sans-Serif" font-size="10.00">CharacterCamera3rdPerson</text>
<text text-anchor="middle" x="727" y="-258.5" font-family="Helvetica,sans-Serif" font-size="10.00">Crouch</text>
</a>
</g>
</g>
<!-- Node13&#45;&gt;Node14 -->
<g id="edge13" class="edge">
<title>Node13&#45;&gt;Node14</title>
<path fill="none" stroke="#63b8ff" d="M561.6,-195.86C584.36,-209.36 619.12,-228.91 651,-242.5 658.17,-245.56 665.86,-248.44 673.49,-251.08"/>
<polygon fill="#63b8ff" stroke="#63b8ff" points="563.71,-192.45 553.33,-190.31 560.11,-198.45 563.71,-192.45"/>
</g>
<!-- Node16 -->
<g id="node16" class="node">
<title>Node16</title>
<g id="a_node16"><a xlink:href="interfaceCharacterCamera3rdPersonErc.html" target="_top" xlink:title=" ">
<polygon fill="white" stroke="#666666" points="803,-233 651,-233 651,-214 803,-214 803,-233"/>
<text text-anchor="middle" x="727" y="-221" font-family="Helvetica,sans-Serif" font-size="10.00">CharacterCamera3rdPersonErc</text>
</a>
</g>
</g>
<!-- Node13&#45;&gt;Node16 -->
<g id="edge15" class="edge">
<title>Node13&#45;&gt;Node16</title>
<path fill="none" stroke="#63b8ff" d="M591.17,-192.91C620,-199.45 654.89,-207.36 681.96,-213.51"/>
<polygon fill="#63b8ff" stroke="#63b8ff" points="591.98,-189.27 581.45,-190.47 590.43,-196.1 591.98,-189.27"/>
</g>
<!-- Node18 -->
<g id="node18" class="node">
<title>Node18</title>
<g id="a_node18"><a xlink:href="interfaceCharacterCamera3rdPersonFloat.html" target="_top" xlink:title=" ">
<polygon fill="white" stroke="#666666" points="795.5,-195.5 658.5,-195.5 658.5,-165.5 795.5,-165.5 795.5,-195.5"/>
<text text-anchor="start" x="666.5" y="-183.5" font-family="Helvetica,sans-Serif" font-size="10.00">CharacterCamera3rdPerson</text>
<text text-anchor="middle" x="727" y="-172.5" font-family="Helvetica,sans-Serif" font-size="10.00">Float</text>
</a>
</g>
</g>
<!-- Node13&#45;&gt;Node18 -->
<g id="edge17" class="edge">
<title>Node13&#45;&gt;Node18</title>
<path fill="none" stroke="#63b8ff" d="M626.23,-180.5C637.01,-180.5 647.88,-180.5 658.28,-180.5"/>
<polygon fill="#63b8ff" stroke="#63b8ff" points="626.49,-177 616.49,-180.5 626.49,-184 626.49,-177"/>
</g>
<!-- Node19 -->
<g id="node19" class="node">
<title>Node19</title>
<g id="a_node19"><a xlink:href="interfaceCharacterCamera3rdPersonProne.html" target="_top" xlink:title=" ">
<polygon fill="white" stroke="#666666" points="795.5,-147.5 658.5,-147.5 658.5,-117.5 795.5,-117.5 795.5,-147.5"/>
<text text-anchor="start" x="666.5" y="-135.5" font-family="Helvetica,sans-Serif" font-size="10.00">CharacterCamera3rdPerson</text>
<text text-anchor="middle" x="727" y="-124.5" font-family="Helvetica,sans-Serif" font-size="10.00">Prone</text>
</a>
</g>
</g>
<!-- Node13&#45;&gt;Node19 -->
<g id="edge18" class="edge">
<title>Node13&#45;&gt;Node19</title>
<path fill="none" stroke="#63b8ff" d="M588.65,-168.02C597.46,-165.87 606.49,-163.64 615,-161.5 632.09,-157.2 650.64,-152.41 667.58,-147.97"/>
<polygon fill="#63b8ff" stroke="#63b8ff" points="587.98,-164.82 579.09,-170.58 589.63,-171.62 587.98,-164.82"/>
</g>
<!-- Node20 -->
<g id="node20" class="node">
<title>Node20</title>
<g id="a_node20"><a xlink:href="interfaceCharacterCamera3rdPersonUnconscious.html" target="_top" xlink:title=" ">
<polygon fill="white" stroke="#666666" points="795.5,-99.5 658.5,-99.5 658.5,-69.5 795.5,-69.5 795.5,-99.5"/>
<text text-anchor="start" x="666.5" y="-87.5" font-family="Helvetica,sans-Serif" font-size="10.00">CharacterCamera3rdPerson</text>
<text text-anchor="middle" x="727" y="-76.5" font-family="Helvetica,sans-Serif" font-size="10.00">Unconscious</text>
</a>
</g>
</g>
<!-- Node13&#45;&gt;Node20 -->
<g id="edge19" class="edge">
<title>Node13&#45;&gt;Node20</title>
<path fill="none" stroke="#63b8ff" d="M607.44,-166.07C610.07,-164.68 612.6,-163.16 615,-161.5 638.41,-145.29 628.19,-125.55 651,-108.5 655.38,-105.23 660.22,-102.39 665.28,-99.93"/>
<polygon fill="#63b8ff" stroke="#63b8ff" points="606.26,-163.22 598.6,-170.53 609.16,-169.59 606.26,-163.22"/>
</g>
<!-- Node15 -->
<g id="node15" class="node">
<title>Node15</title>
<g id="a_node15"><a xlink:href="interfaceCharacterCamera3rdPersonSitting.html" target="_top" xlink:title=" ">
<polygon fill="white" stroke="#666666" points="976,-283.5 839,-283.5 839,-253.5 976,-253.5 976,-283.5"/>
<text text-anchor="start" x="847" y="-271.5" font-family="Helvetica,sans-Serif" font-size="10.00">CharacterCamera3rdPerson</text>
<text text-anchor="middle" x="907.5" y="-260.5" font-family="Helvetica,sans-Serif" font-size="10.00">Sitting</text>
</a>
</g>
</g>
<!-- Node14&#45;&gt;Node15 -->
<g id="edge14" class="edge">
<title>Node14&#45;&gt;Node15</title>
<path fill="none" stroke="#63b8ff" d="M806.94,-267.38C817.53,-267.5 828.32,-267.62 838.7,-267.74"/>
<polygon fill="#63b8ff" stroke="#63b8ff" points="807.03,-263.87 796.99,-267.26 806.95,-270.87 807.03,-263.87"/>
</g>
<!-- Node17 -->
<g id="node17" class="node">
<title>Node17</title>
<g id="a_node17"><a xlink:href="interfaceCharacterCamera3rdPersonClimb.html" target="_top" xlink:title=" ">
<polygon fill="white" stroke="#666666" points="976,-235.5 839,-235.5 839,-205.5 976,-205.5 976,-235.5"/>
<text text-anchor="start" x="847" y="-223.5" font-family="Helvetica,sans-Serif" font-size="10.00">CharacterCamera3rdPerson</text>
<text text-anchor="middle" x="907.5" y="-212.5" font-family="Helvetica,sans-Serif" font-size="10.00">Climb</text>
</a>
</g>
</g>
<!-- Node16&#45;&gt;Node17 -->
<g id="edge16" class="edge">
<title>Node16&#45;&gt;Node17</title>
<path fill="none" stroke="#63b8ff" d="M814.21,-222.05C822.43,-221.91 830.68,-221.77 838.69,-221.64"/>
<polygon fill="#63b8ff" stroke="#63b8ff" points="814.38,-218.56 804.44,-222.23 814.5,-225.56 814.38,-218.56"/>
</g>
<!-- Node24 -->
<g id="node24" class="node">
<title>Node24</title>
<g id="a_node24"><a xlink:href="interfaceCharacterCameraADSVehicle.html" target="_top" xlink:title=" ">
<polygon fill="white" stroke="#666666" points="799.5,-51 654.5,-51 654.5,-32 799.5,-32 799.5,-51"/>
<text text-anchor="middle" x="727" y="-39" font-family="Helvetica,sans-Serif" font-size="10.00">CharacterCameraADSVehicle</text>
</a>
</g>
</g>
<!-- Node23&#45;&gt;Node24 -->
<g id="edge23" class="edge">
<title>Node23&#45;&gt;Node24</title>
<path fill="none" stroke="#63b8ff" d="M602.98,-44.75C619.49,-44.31 637.27,-43.84 654.03,-43.4"/>
<polygon fill="#63b8ff" stroke="#63b8ff" points="603.24,-41.26 593.33,-45.03 603.42,-48.26 603.24,-41.26"/>
</g>
</g>
</svg>
