<?xml version="1.0" encoding="UTF-8" standalone="no"?>
<!DOCTYPE svg PUBLIC "-//W3C//DTD SVG 1.1//EN"
 "http://www.w3.org/Graphics/SVG/1.1/DTD/svg11.dtd">
<!-- Generated by graphviz version 8.0.2 (20230410.1723)
 -->
<!-- Title: InventoryStorageManagerComponentClass Pages: 1 -->
<svg width="1026pt" height="134pt"
 viewBox="0.00 0.00 1026.00 134.00" xmlns="http://www.w3.org/2000/svg" xmlns:xlink="http://www.w3.org/1999/xlink">
<g id="graph0" class="graph" transform="scale(1 1) rotate(0) translate(4 130)">
<title>InventoryStorageManagerComponentClass</title>
<!-- Node1 -->
<g id="node1" class="node">
<title>Node1</title>
<g id="a_node1"><a xlink:title=" ">
<polygon fill="#999999" stroke="#666666" points="490,-54 314,-54 314,-24 490,-24 490,-54"/>
<text text-anchor="start" x="322" y="-42" font-family="Helvetica,sans-Serif" font-size="10.00">InventoryStorageManagerComponent</text>
<text text-anchor="middle" x="402" y="-31" font-family="Helvetica,sans-Serif" font-size="10.00">Class</text>
</a>
</g>
</g>
<!-- Node4 -->
<g id="node4" class="node">
<title>Node4</title>
<g id="a_node4"><a xlink:href="interfaceScriptedInventoryStorageManagerComponentClass.html" target="_top" xlink:title=" ">
<polygon fill="white" stroke="#666666" points="654.5,-78 526.5,-78 526.5,-48 654.5,-48 654.5,-78"/>
<text text-anchor="start" x="534.5" y="-66" font-family="Helvetica,sans-Serif" font-size="10.00">ScriptedInventoryStorage</text>
<text text-anchor="middle" x="590.5" y="-55" font-family="Helvetica,sans-Serif" font-size="10.00">ManagerComponentClass</text>
</a>
</g>
</g>
<!-- Node1&#45;&gt;Node4 -->
<g id="edge3" class="edge">
<title>Node1&#45;&gt;Node4</title>
<path fill="none" stroke="#63b8ff" d="M501.07,-51.62C509.6,-52.72 518.09,-53.81 526.23,-54.86"/>
<polygon fill="#63b8ff" stroke="#63b8ff" points="501.61,-48.03 491.24,-50.23 500.71,-54.97 501.61,-48.03"/>
</g>
<!-- Node9 -->
<g id="node9" class="node">
<title>Node9</title>
<g id="a_node9"><a xlink:href="interfaceSerializerInventoryStorageManagerComponentClass.html" target="_top" xlink:title=" ">
<polygon fill="white" stroke="#666666" points="655,-30 526,-30 526,0 655,0 655,-30"/>
<text text-anchor="start" x="534" y="-18" font-family="Helvetica,sans-Serif" font-size="10.00">SerializerInventoryStorage</text>
<text text-anchor="middle" x="590.5" y="-7" font-family="Helvetica,sans-Serif" font-size="10.00">ManagerComponentClass</text>
</a>
</g>
</g>
<!-- Node1&#45;&gt;Node9 -->
<g id="edge8" class="edge">
<title>Node1&#45;&gt;Node9</title>
<path fill="none" stroke="#63b8ff" d="M500.9,-26.4C509.3,-25.32 517.66,-24.25 525.69,-23.21"/>
<polygon fill="#63b8ff" stroke="#63b8ff" points="500.71,-23.03 491.24,-27.77 501.61,-29.97 500.71,-23.03"/>
</g>
<!-- Node2 -->
<g id="node2" class="node">
<title>Node2</title>
<g id="a_node2"><a xlink:href="interfaceGameComponentClass.html" target="_top" xlink:title=" ">
<polygon fill="white" stroke="#666666" points="278,-48.5 161,-48.5 161,-29.5 278,-29.5 278,-48.5"/>
<text text-anchor="middle" x="219.5" y="-36.5" font-family="Helvetica,sans-Serif" font-size="10.00">GameComponentClass</text>
</a>
</g>
</g>
<!-- Node2&#45;&gt;Node1 -->
<g id="edge1" class="edge">
<title>Node2&#45;&gt;Node1</title>
<path fill="none" stroke="#63b8ff" d="M288.95,-39C297.04,-39 305.38,-39 313.68,-39"/>
<polygon fill="#63b8ff" stroke="#63b8ff" points="289.11,-35.5 279.11,-39 289.11,-42.5 289.11,-35.5"/>
</g>
<!-- Node3 -->
<g id="node3" class="node">
<title>Node3</title>
<g id="a_node3"><a xlink:title=" ">
<polygon fill="white" stroke="#666666" points="125,-48.5 0,-48.5 0,-29.5 125,-29.5 125,-48.5"/>
<text text-anchor="middle" x="62.5" y="-36.5" font-family="Helvetica,sans-Serif" font-size="10.00">GenericComponentClass</text>
</a>
</g>
</g>
<!-- Node3&#45;&gt;Node2 -->
<g id="edge2" class="edge">
<title>Node3&#45;&gt;Node2</title>
<path fill="none" stroke="#63b8ff" d="M135.96,-39C144.2,-39 152.52,-39 160.53,-39"/>
<polygon fill="#63b8ff" stroke="#63b8ff" points="136.21,-35.5 126.21,-39 136.21,-42.5 136.21,-35.5"/>
</g>
<!-- Node5 -->
<g id="node5" class="node">
<title>Node5</title>
<g id="a_node5"><a xlink:href="interfaceSCR__ArsenalInventoryStorageManagerComponentClass.html" target="_top" xlink:title=" ">
<polygon fill="white" stroke="#666666" points="840.5,-126 693.5,-126 693.5,-96 840.5,-96 840.5,-126"/>
<text text-anchor="start" x="701.5" y="-114" font-family="Helvetica,sans-Serif" font-size="10.00">SCR_ArsenalInventoryStorage</text>
<text text-anchor="middle" x="767" y="-103" font-family="Helvetica,sans-Serif" font-size="10.00">ManagerComponentClass</text>
</a>
</g>
</g>
<!-- Node4&#45;&gt;Node5 -->
<g id="edge4" class="edge">
<title>Node4&#45;&gt;Node5</title>
<path fill="none" stroke="#63b8ff" d="M658.14,-81.33C675.23,-86.03 693.44,-91.04 709.93,-95.58"/>
<polygon fill="#63b8ff" stroke="#63b8ff" points="659.24,-77.73 648.67,-78.45 657.39,-84.48 659.24,-77.73"/>
</g>
<!-- Node6 -->
<g id="node6" class="node">
<title>Node6</title>
<g id="a_node6"><a xlink:href="interfaceSCR__InventoryStorageManagerComponentClass.html" target="_top" xlink:title=" ">
<polygon fill="white" stroke="#666666" points="843,-78 691,-78 691,-48 843,-48 843,-78"/>
<text text-anchor="start" x="699" y="-66" font-family="Helvetica,sans-Serif" font-size="10.00">SCR_InventoryStorageManager</text>
<text text-anchor="middle" x="767" y="-55" font-family="Helvetica,sans-Serif" font-size="10.00">ComponentClass</text>
</a>
</g>
</g>
<!-- Node4&#45;&gt;Node6 -->
<g id="edge5" class="edge">
<title>Node4&#45;&gt;Node6</title>
<path fill="none" stroke="#63b8ff" d="M665.74,-63C674,-63 682.42,-63 690.69,-63"/>
<polygon fill="#63b8ff" stroke="#63b8ff" points="665.99,-59.5 655.99,-63 665.99,-66.5 665.99,-59.5"/>
</g>
<!-- Node8 -->
<g id="node8" class="node">
<title>Node8</title>
<g id="a_node8"><a xlink:href="interfaceSCR__VehicleInventoryStorageManagerComponentClass.html" target="_top" xlink:title=" ">
<polygon fill="white" stroke="#666666" points="840,-30 694,-30 694,0 840,0 840,-30"/>
<text text-anchor="start" x="702" y="-18" font-family="Helvetica,sans-Serif" font-size="10.00">SCR_VehicleInventoryStorage</text>
<text text-anchor="middle" x="767" y="-7" font-family="Helvetica,sans-Serif" font-size="10.00">ManagerComponentClass</text>
</a>
</g>
</g>
<!-- Node4&#45;&gt;Node8 -->
<g id="edge7" class="edge">
<title>Node4&#45;&gt;Node8</title>
<path fill="none" stroke="#63b8ff" d="M658.14,-44.67C675.23,-39.97 693.44,-34.96 709.93,-30.42"/>
<polygon fill="#63b8ff" stroke="#63b8ff" points="657.39,-41.52 648.67,-47.55 659.24,-48.27 657.39,-41.52"/>
</g>
<!-- Node7 -->
<g id="node7" class="node">
<title>Node7</title>
<g id="a_node7"><a xlink:href="interfaceSCR__TurretInventoryStorageManagerComponentClass.html" target="_top" xlink:title=" ">
<polygon fill="white" stroke="#666666" points="1018,-78 879,-78 879,-48 1018,-48 1018,-78"/>
<text text-anchor="start" x="887" y="-66" font-family="Helvetica,sans-Serif" font-size="10.00">SCR_TurretInventoryStorage</text>
<text text-anchor="middle" x="948.5" y="-55" font-family="Helvetica,sans-Serif" font-size="10.00">ManagerComponentClass</text>
</a>
</g>
</g>
<!-- Node6&#45;&gt;Node7 -->
<g id="edge6" class="edge">
<title>Node6&#45;&gt;Node7</title>
<path fill="none" stroke="#63b8ff" d="M854.11,-63C862.34,-63 870.61,-63 878.64,-63"/>
<polygon fill="#63b8ff" stroke="#63b8ff" points="854.34,-59.5 844.34,-63 854.34,-66.5 854.34,-59.5"/>
</g>
</g>
</svg>
