<?xml version="1.0" encoding="UTF-8" standalone="no"?>
<!DOCTYPE svg PUBLIC "-//W3C//DTD SVG 1.1//EN"
 "http://www.w3.org/Graphics/SVG/1.1/DTD/svg11.dtd">
<!-- Generated by graphviz version 8.0.2 (20230410.1723)
 -->
<!-- Title: SCR_DestructibleBuildingEntityClass Pages: 1 -->
<svg width="136pt" height="203pt"
 viewBox="0.00 0.00 136.00 203.00" xmlns="http://www.w3.org/2000/svg" xmlns:xlink="http://www.w3.org/1999/xlink">
<g id="graph0" class="graph" transform="scale(1 1) rotate(0) translate(4 199)">
<title>SCR_DestructibleBuildingEntityClass</title>
<!-- Node1 -->
<g id="node1" class="node">
<title>Node1</title>
<g id="a_node1"><a xlink:title=" ">
<polygon fill="#999999" stroke="#666666" points="128,-30 0,-30 0,0 128,0 128,-30"/>
<text text-anchor="start" x="8" y="-18" font-family="Helvetica,sans-Serif" font-size="10.00">SCR_DestructibleBuilding</text>
<text text-anchor="middle" x="64" y="-7" font-family="Helvetica,sans-Serif" font-size="10.00">EntityClass</text>
</a>
</g>
</g>
<!-- Node2 -->
<g id="node2" class="node">
<title>Node2</title>
<g id="a_node2"><a xlink:href="interfaceBuildingClass.html" target="_top" xlink:title=" ">
<polygon fill="white" stroke="#666666" points="102,-85 26,-85 26,-66 102,-66 102,-85"/>
<text text-anchor="middle" x="64" y="-73" font-family="Helvetica,sans-Serif" font-size="10.00">BuildingClass</text>
</a>
</g>
</g>
<!-- Node2&#45;&gt;Node1 -->
<g id="edge1" class="edge">
<title>Node2&#45;&gt;Node1</title>
<path fill="none" stroke="#63b8ff" d="M64,-55.08C64,-46.92 64,-37.6 64,-30.11"/>
<polygon fill="#63b8ff" stroke="#63b8ff" points="60.5,-54.87 64,-64.87 67.5,-54.87 60.5,-54.87"/>
</g>
<!-- Node3 -->
<g id="node3" class="node">
<title>Node3</title>
<g id="a_node3"><a xlink:href="interfaceBaseBuildingClass.html" target="_top" xlink:title=" ">
<polygon fill="white" stroke="#666666" points="113,-140 15,-140 15,-121 113,-121 113,-140"/>
<text text-anchor="middle" x="64" y="-128" font-family="Helvetica,sans-Serif" font-size="10.00">BaseBuildingClass</text>
</a>
</g>
</g>
<!-- Node3&#45;&gt;Node2 -->
<g id="edge2" class="edge">
<title>Node3&#45;&gt;Node2</title>
<path fill="none" stroke="#63b8ff" d="M64,-109.93C64,-101.53 64,-92.13 64,-85.44"/>
<polygon fill="#63b8ff" stroke="#63b8ff" points="60.5,-109.75 64,-119.75 67.5,-109.75 60.5,-109.75"/>
</g>
<!-- Node4 -->
<g id="node4" class="node">
<title>Node4</title>
<g id="a_node4"><a xlink:title=" ">
<polygon fill="white" stroke="#666666" points="123.5,-195 4.5,-195 4.5,-176 123.5,-176 123.5,-195"/>
<text text-anchor="middle" x="64" y="-183" font-family="Helvetica,sans-Serif" font-size="10.00">StaticModelEntityClass</text>
</a>
</g>
</g>
<!-- Node4&#45;&gt;Node3 -->
<g id="edge3" class="edge">
<title>Node4&#45;&gt;Node3</title>
<path fill="none" stroke="#63b8ff" d="M64,-164.93C64,-156.53 64,-147.13 64,-140.44"/>
<polygon fill="#63b8ff" stroke="#63b8ff" points="60.5,-164.75 64,-174.75 67.5,-164.75 60.5,-164.75"/>
</g>
</g>
</svg>
