<?xml version="1.0" encoding="UTF-8" standalone="no"?>
<!DOCTYPE svg PUBLIC "-//W3C//DTD SVG 1.1//EN"
 "http://www.w3.org/Graphics/SVG/1.1/DTD/svg11.dtd">
<!-- Generated by graphviz version 8.0.2 (20230410.1723)
 -->
<!-- Title: SCR_ServicePointComponentClass Pages: 1 -->
<svg width="448pt" height="291pt"
 viewBox="0.00 0.00 447.50 291.00" xmlns="http://www.w3.org/2000/svg" xmlns:xlink="http://www.w3.org/1999/xlink">
<g id="graph0" class="graph" transform="scale(1 1) rotate(0) translate(4 287)">
<title>SCR_ServicePointComponentClass</title>
<!-- Node1 -->
<g id="node1" class="node">
<title>Node1</title>
<g id="a_node1"><a xlink:title=" ">
<polygon fill="#999999" stroke="#666666" points="253,-162 107,-162 107,-132 253,-132 253,-162"/>
<text text-anchor="start" x="115" y="-150" font-family="Helvetica,sans-Serif" font-size="10.00">SCR_ServicePointComponent</text>
<text text-anchor="middle" x="180" y="-139" font-family="Helvetica,sans-Serif" font-size="10.00">Class</text>
</a>
</g>
</g>
<!-- Node4 -->
<g id="node4" class="node">
<title>Node4</title>
<g id="a_node4"><a xlink:href="interfaceSCR__AntennaServicePointComponentClass.html" target="_top" xlink:title=" ">
<polygon fill="white" stroke="#666666" points="182,-96 0,-96 0,-66 182,-66 182,-96"/>
<text text-anchor="start" x="8" y="-84" font-family="Helvetica,sans-Serif" font-size="10.00">SCR_AntennaServicePointComponent</text>
<text text-anchor="middle" x="91" y="-73" font-family="Helvetica,sans-Serif" font-size="10.00">Class</text>
</a>
</g>
</g>
<!-- Node1&#45;&gt;Node4 -->
<g id="edge3" class="edge">
<title>Node1&#45;&gt;Node4</title>
<path fill="none" stroke="#63b8ff" d="M151.53,-125.52C138.32,-116.03 122.95,-104.98 111,-96.39"/>
<polygon fill="#63b8ff" stroke="#63b8ff" points="149.09,-128.8 159.25,-131.8 153.17,-123.12 149.09,-128.8"/>
</g>
<!-- Node5 -->
<g id="node5" class="node">
<title>Node5</title>
<g id="a_node5"><a xlink:href="interfaceSCR__SlotServiceComponentClass.html" target="_top" xlink:title=" ">
<polygon fill="white" stroke="#666666" points="340,-96 200,-96 200,-66 340,-66 340,-96"/>
<text text-anchor="start" x="208" y="-84" font-family="Helvetica,sans-Serif" font-size="10.00">SCR_SlotServiceComponent</text>
<text text-anchor="middle" x="270" y="-73" font-family="Helvetica,sans-Serif" font-size="10.00">Class</text>
</a>
</g>
</g>
<!-- Node1&#45;&gt;Node5 -->
<g id="edge4" class="edge">
<title>Node1&#45;&gt;Node5</title>
<path fill="none" stroke="#63b8ff" d="M208.79,-125.52C222.14,-116.03 237.69,-104.98 249.77,-96.39"/>
<polygon fill="#63b8ff" stroke="#63b8ff" points="207.1,-123.15 200.97,-131.8 211.15,-128.85 207.1,-123.15"/>
</g>
<!-- Node2 -->
<g id="node2" class="node">
<title>Node2</title>
<g id="a_node2"><a xlink:href="interfaceSCR__MilitaryBaseLogicComponentClass.html" target="_top" xlink:title=" ">
<polygon fill="white" stroke="#666666" points="264.5,-228 95.5,-228 95.5,-198 264.5,-198 264.5,-228"/>
<text text-anchor="start" x="103.5" y="-216" font-family="Helvetica,sans-Serif" font-size="10.00">SCR_MilitaryBaseLogicComponent</text>
<text text-anchor="middle" x="180" y="-205" font-family="Helvetica,sans-Serif" font-size="10.00">Class</text>
</a>
</g>
</g>
<!-- Node2&#45;&gt;Node1 -->
<g id="edge1" class="edge">
<title>Node2&#45;&gt;Node1</title>
<path fill="none" stroke="#63b8ff" d="M180,-186.97C180,-178.55 180,-169.45 180,-162.16"/>
<polygon fill="#63b8ff" stroke="#63b8ff" points="176.5,-186.8 180,-196.8 183.5,-186.8 176.5,-186.8"/>
</g>
<!-- Node3 -->
<g id="node3" class="node">
<title>Node3</title>
<g id="a_node3"><a xlink:title=" ">
<polygon fill="white" stroke="#666666" points="238,-283 122,-283 122,-264 238,-264 238,-283"/>
<text text-anchor="middle" x="180" y="-271" font-family="Helvetica,sans-Serif" font-size="10.00">ScriptComponentClass</text>
</a>
</g>
</g>
<!-- Node3&#45;&gt;Node2 -->
<g id="edge2" class="edge">
<title>Node3&#45;&gt;Node2</title>
<path fill="none" stroke="#63b8ff" d="M180,-253.08C180,-244.92 180,-235.6 180,-228.11"/>
<polygon fill="#63b8ff" stroke="#63b8ff" points="176.5,-252.87 180,-262.87 183.5,-252.87 176.5,-252.87"/>
</g>
<!-- Node6 -->
<g id="node6" class="node">
<title>Node6</title>
<g id="a_node6"><a xlink:href="interfaceSCR__CatalogEntitySpawnerComponentClass.html" target="_top" xlink:title=" ">
<polygon fill="white" stroke="#666666" points="254,-30 116,-30 116,0 254,0 254,-30"/>
<text text-anchor="start" x="124" y="-18" font-family="Helvetica,sans-Serif" font-size="10.00">SCR_CatalogEntitySpawner</text>
<text text-anchor="middle" x="185" y="-7" font-family="Helvetica,sans-Serif" font-size="10.00">ComponentClass</text>
</a>
</g>
</g>
<!-- Node5&#45;&gt;Node6 -->
<g id="edge5" class="edge">
<title>Node5&#45;&gt;Node6</title>
<path fill="none" stroke="#63b8ff" d="M242.44,-59.25C229.92,-49.82 215.41,-38.9 204.11,-30.39"/>
<polygon fill="#63b8ff" stroke="#63b8ff" points="240.04,-62.58 250.14,-65.8 244.25,-56.99 240.04,-62.58"/>
</g>
<!-- Node7 -->
<g id="node7" class="node">
<title>Node7</title>
<g id="a_node7"><a xlink:href="interfaceSCR__DefenderSpawnerComponentClass.html" target="_top" xlink:title=" ">
<polygon fill="white" stroke="#666666" points="439.5,-30 272.5,-30 272.5,0 439.5,0 439.5,-30"/>
<text text-anchor="start" x="280.5" y="-18" font-family="Helvetica,sans-Serif" font-size="10.00">SCR_DefenderSpawnerComponent</text>
<text text-anchor="middle" x="356" y="-7" font-family="Helvetica,sans-Serif" font-size="10.00">Class</text>
</a>
</g>
</g>
<!-- Node5&#45;&gt;Node7 -->
<g id="edge6" class="edge">
<title>Node5&#45;&gt;Node7</title>
<path fill="none" stroke="#63b8ff" d="M297.88,-59.25C310.56,-49.82 325.23,-38.9 336.67,-30.39"/>
<polygon fill="#63b8ff" stroke="#63b8ff" points="296.02,-57.02 290.09,-65.8 300.2,-62.63 296.02,-57.02"/>
</g>
</g>
</svg>
