<?xml version="1.0" encoding="UTF-8" standalone="no"?>
<!DOCTYPE svg PUBLIC "-//W3C//DTD SVG 1.1//EN"
 "http://www.w3.org/Graphics/SVG/1.1/DTD/svg11.dtd">
<!-- Generated by graphviz version 8.0.2 (20230410.1723)
 -->
<!-- Title: CharacterCamera3rdPersonBase Pages: 1 -->
<svg width="984pt" height="223pt"
 viewBox="0.00 0.00 984.00 223.00" xmlns="http://www.w3.org/2000/svg" xmlns:xlink="http://www.w3.org/1999/xlink">
<g id="graph0" class="graph" transform="scale(1 1) rotate(0) translate(4 219)">
<title>CharacterCamera3rdPersonBase</title>
<!-- Node1 -->
<g id="node1" class="node">
<title>Node1</title>
<g id="a_node1"><a xlink:title=" ">
<polygon fill="#999999" stroke="#666666" points="615,-120.5 456,-120.5 456,-101.5 615,-101.5 615,-120.5"/>
<text text-anchor="middle" x="535.5" y="-108.5" font-family="Helvetica,sans-Serif" font-size="10.00">CharacterCamera3rdPersonBase</text>
</a>
</g>
</g>
<!-- Node5 -->
<g id="node5" class="node">
<title>Node5</title>
<g id="a_node5"><a xlink:href="interfaceCharacterCamera3rdPersonCrouch.html" target="_top" xlink:title=" ">
<polygon fill="white" stroke="#666666" points="795.5,-214 658.5,-214 658.5,-184 795.5,-184 795.5,-214"/>
<text text-anchor="start" x="666.5" y="-202" font-family="Helvetica,sans-Serif" font-size="10.00">CharacterCamera3rdPerson</text>
<text text-anchor="middle" x="727" y="-191" font-family="Helvetica,sans-Serif" font-size="10.00">Crouch</text>
</a>
</g>
</g>
<!-- Node1&#45;&gt;Node5 -->
<g id="edge4" class="edge">
<title>Node1&#45;&gt;Node5</title>
<path fill="none" stroke="#63b8ff" d="M562.54,-126.26C585.4,-139.32 619.79,-158.16 651,-172 660.23,-176.1 670.3,-180.05 679.97,-183.61"/>
<polygon fill="#63b8ff" stroke="#63b8ff" points="564.6,-122.83 554.19,-120.87 561.11,-128.9 564.6,-122.83"/>
</g>
<!-- Node7 -->
<g id="node7" class="node">
<title>Node7</title>
<g id="a_node7"><a xlink:href="interfaceCharacterCamera3rdPersonErc.html" target="_top" xlink:title=" ">
<polygon fill="white" stroke="#666666" points="803,-163.5 651,-163.5 651,-144.5 803,-144.5 803,-163.5"/>
<text text-anchor="middle" x="727" y="-151.5" font-family="Helvetica,sans-Serif" font-size="10.00">CharacterCamera3rdPersonErc</text>
</a>
</g>
</g>
<!-- Node1&#45;&gt;Node7 -->
<g id="edge6" class="edge">
<title>Node1&#45;&gt;Node7</title>
<path fill="none" stroke="#63b8ff" d="M591.17,-123.41C620,-129.95 654.89,-137.86 681.96,-144.01"/>
<polygon fill="#63b8ff" stroke="#63b8ff" points="591.98,-119.77 581.45,-120.97 590.43,-126.6 591.98,-119.77"/>
</g>
<!-- Node9 -->
<g id="node9" class="node">
<title>Node9</title>
<g id="a_node9"><a xlink:href="interfaceCharacterCamera3rdPersonFloat.html" target="_top" xlink:title=" ">
<polygon fill="white" stroke="#666666" points="795.5,-126 658.5,-126 658.5,-96 795.5,-96 795.5,-126"/>
<text text-anchor="start" x="666.5" y="-114" font-family="Helvetica,sans-Serif" font-size="10.00">CharacterCamera3rdPerson</text>
<text text-anchor="middle" x="727" y="-103" font-family="Helvetica,sans-Serif" font-size="10.00">Float</text>
</a>
</g>
</g>
<!-- Node1&#45;&gt;Node9 -->
<g id="edge8" class="edge">
<title>Node1&#45;&gt;Node9</title>
<path fill="none" stroke="#63b8ff" d="M626.23,-111C637.01,-111 647.88,-111 658.28,-111"/>
<polygon fill="#63b8ff" stroke="#63b8ff" points="626.49,-107.5 616.49,-111 626.49,-114.5 626.49,-107.5"/>
</g>
<!-- Node10 -->
<g id="node10" class="node">
<title>Node10</title>
<g id="a_node10"><a xlink:href="interfaceCharacterCamera3rdPersonProne.html" target="_top" xlink:title=" ">
<polygon fill="white" stroke="#666666" points="795.5,-78 658.5,-78 658.5,-48 795.5,-48 795.5,-78"/>
<text text-anchor="start" x="666.5" y="-66" font-family="Helvetica,sans-Serif" font-size="10.00">CharacterCamera3rdPerson</text>
<text text-anchor="middle" x="727" y="-55" font-family="Helvetica,sans-Serif" font-size="10.00">Prone</text>
</a>
</g>
</g>
<!-- Node1&#45;&gt;Node10 -->
<g id="edge9" class="edge">
<title>Node1&#45;&gt;Node10</title>
<path fill="none" stroke="#63b8ff" d="M586.14,-98.43C610.32,-92.3 639.62,-84.88 665.14,-78.42"/>
<polygon fill="#63b8ff" stroke="#63b8ff" points="585.6,-95.21 576.76,-101.05 587.32,-101.99 585.6,-95.21"/>
</g>
<!-- Node11 -->
<g id="node11" class="node">
<title>Node11</title>
<g id="a_node11"><a xlink:href="interfaceCharacterCamera3rdPersonUnconscious.html" target="_top" xlink:title=" ">
<polygon fill="white" stroke="#666666" points="795.5,-30 658.5,-30 658.5,0 795.5,0 795.5,-30"/>
<text text-anchor="start" x="666.5" y="-18" font-family="Helvetica,sans-Serif" font-size="10.00">CharacterCamera3rdPerson</text>
<text text-anchor="middle" x="727" y="-7" font-family="Helvetica,sans-Serif" font-size="10.00">Unconscious</text>
</a>
</g>
</g>
<!-- Node1&#45;&gt;Node11 -->
<g id="edge10" class="edge">
<title>Node1&#45;&gt;Node11</title>
<path fill="none" stroke="#63b8ff" d="M558.31,-94.94C580.67,-79.05 616.91,-54.86 651,-39 657.69,-35.89 664.9,-33.02 672.11,-30.43"/>
<polygon fill="#63b8ff" stroke="#63b8ff" points="556.69,-92.51 550.62,-101.2 560.78,-98.2 556.69,-92.51"/>
</g>
<!-- Node2 -->
<g id="node2" class="node">
<title>Node2</title>
<g id="a_node2"><a xlink:href="interfaceCharacterCameraBase.html" target="_top" xlink:title=" ">
<polygon fill="white" stroke="#666666" points="420,-120.5 305,-120.5 305,-101.5 420,-101.5 420,-120.5"/>
<text text-anchor="middle" x="362.5" y="-108.5" font-family="Helvetica,sans-Serif" font-size="10.00">CharacterCameraBase</text>
</a>
</g>
</g>
<!-- Node2&#45;&gt;Node1 -->
<g id="edge1" class="edge">
<title>Node2&#45;&gt;Node1</title>
<path fill="none" stroke="#63b8ff" d="M431.2,-111C439.21,-111 447.43,-111 455.58,-111"/>
<polygon fill="#63b8ff" stroke="#63b8ff" points="431.44,-107.5 421.44,-111 431.44,-114.5 431.44,-107.5"/>
</g>
<!-- Node3 -->
<g id="node3" class="node">
<title>Node3</title>
<g id="a_node3"><a xlink:href="interfaceScriptedCameraItem.html" target="_top" xlink:title=" ">
<polygon fill="white" stroke="#666666" points="269,-120.5 164,-120.5 164,-101.5 269,-101.5 269,-120.5"/>
<text text-anchor="middle" x="216.5" y="-108.5" font-family="Helvetica,sans-Serif" font-size="10.00">ScriptedCameraItem</text>
</a>
</g>
</g>
<!-- Node3&#45;&gt;Node2 -->
<g id="edge2" class="edge">
<title>Node3&#45;&gt;Node2</title>
<path fill="none" stroke="#63b8ff" d="M280.39,-111C288.48,-111 296.73,-111 304.72,-111"/>
<polygon fill="#63b8ff" stroke="#63b8ff" points="280.49,-107.5 270.49,-111 280.49,-114.5 280.49,-107.5"/>
</g>
<!-- Node4 -->
<g id="node4" class="node">
<title>Node4</title>
<g id="a_node4"><a xlink:href="interfaceBaseScriptedCameraItem.html" target="_top" xlink:title=" ">
<polygon fill="white" stroke="#666666" points="128,-120.5 0,-120.5 0,-101.5 128,-101.5 128,-120.5"/>
<text text-anchor="middle" x="64" y="-108.5" font-family="Helvetica,sans-Serif" font-size="10.00">BaseScriptedCameraItem</text>
</a>
</g>
</g>
<!-- Node4&#45;&gt;Node3 -->
<g id="edge3" class="edge">
<title>Node4&#45;&gt;Node3</title>
<path fill="none" stroke="#63b8ff" d="M139.19,-111C147.43,-111 155.7,-111 163.58,-111"/>
<polygon fill="#63b8ff" stroke="#63b8ff" points="139.39,-107.5 129.39,-111 139.39,-114.5 139.39,-107.5"/>
</g>
<!-- Node6 -->
<g id="node6" class="node">
<title>Node6</title>
<g id="a_node6"><a xlink:href="interfaceCharacterCamera3rdPersonSitting.html" target="_top" xlink:title=" ">
<polygon fill="white" stroke="#666666" points="976,-215 839,-215 839,-185 976,-185 976,-215"/>
<text text-anchor="start" x="847" y="-203" font-family="Helvetica,sans-Serif" font-size="10.00">CharacterCamera3rdPerson</text>
<text text-anchor="middle" x="907.5" y="-192" font-family="Helvetica,sans-Serif" font-size="10.00">Sitting</text>
</a>
</g>
</g>
<!-- Node5&#45;&gt;Node6 -->
<g id="edge5" class="edge">
<title>Node5&#45;&gt;Node6</title>
<path fill="none" stroke="#63b8ff" d="M806.94,-199.44C817.53,-199.5 828.32,-199.56 838.7,-199.62"/>
<polygon fill="#63b8ff" stroke="#63b8ff" points="807.01,-195.94 796.99,-199.38 806.97,-202.94 807.01,-195.94"/>
</g>
<!-- Node8 -->
<g id="node8" class="node">
<title>Node8</title>
<g id="a_node8"><a xlink:href="interfaceCharacterCamera3rdPersonClimb.html" target="_top" xlink:title=" ">
<polygon fill="white" stroke="#666666" points="976,-167 839,-167 839,-137 976,-137 976,-167"/>
<text text-anchor="start" x="847" y="-155" font-family="Helvetica,sans-Serif" font-size="10.00">CharacterCamera3rdPerson</text>
<text text-anchor="middle" x="907.5" y="-144" font-family="Helvetica,sans-Serif" font-size="10.00">Climb</text>
</a>
</g>
</g>
<!-- Node7&#45;&gt;Node8 -->
<g id="edge7" class="edge">
<title>Node7&#45;&gt;Node8</title>
<path fill="none" stroke="#63b8ff" d="M814.21,-153.03C822.43,-152.94 830.68,-152.85 838.69,-152.76"/>
<polygon fill="#63b8ff" stroke="#63b8ff" points="814.4,-149.54 804.44,-153.15 814.48,-156.54 814.4,-149.54"/>
</g>
</g>
</svg>
