<?xml version="1.0" encoding="UTF-8" standalone="no"?>
<!DOCTYPE svg PUBLIC "-//W3C//DTD SVG 1.1//EN"
 "http://www.w3.org/Graphics/SVG/1.1/DTD/svg11.dtd">
<!-- Generated by graphviz version 8.0.2 (20230410.1723)
 -->
<!-- Title: SCR_AIGroupFireteamVehicleCargo Pages: 1 -->
<svg width="178pt" height="203pt"
 viewBox="0.00 0.00 178.00 203.00" xmlns="http://www.w3.org/2000/svg" xmlns:xlink="http://www.w3.org/1999/xlink">
<g id="graph0" class="graph" transform="scale(1 1) rotate(0) translate(4 199)">
<title>SCR_AIGroupFireteamVehicleCargo</title>
<!-- Node1 -->
<g id="node1" class="node">
<title>Node1</title>
<g id="a_node1"><a xlink:title="Fireteam for vehicle cargo.">
<polygon fill="#999999" stroke="#666666" points="159,-30 11,-30 11,0 159,0 159,-30"/>
<text text-anchor="start" x="19" y="-18" font-family="Helvetica,sans-Serif" font-size="10.00">SCR_AIGroupFireteamVehicle</text>
<text text-anchor="middle" x="85" y="-7" font-family="Helvetica,sans-Serif" font-size="10.00">Cargo</text>
</a>
</g>
</g>
<!-- Node2 -->
<g id="node2" class="node">
<title>Node2</title>
<g id="a_node2"><a xlink:href="interfaceSCR__AIGroupFireteamVehicleBase.html" target="_top" xlink:title="Base class for fireteams dedicated to vehicle This class must not be instantiated!...">
<polygon fill="white" stroke="#666666" points="170,-85 0,-85 0,-66 170,-66 170,-85"/>
<text text-anchor="middle" x="85" y="-73" font-family="Helvetica,sans-Serif" font-size="10.00">SCR_AIGroupFireteamVehicleBase</text>
</a>
</g>
</g>
<!-- Node2&#45;&gt;Node1 -->
<g id="edge1" class="edge">
<title>Node2&#45;&gt;Node1</title>
<path fill="none" stroke="#63b8ff" d="M85,-55.08C85,-46.92 85,-37.6 85,-30.11"/>
<polygon fill="#63b8ff" stroke="#63b8ff" points="81.5,-54.87 85,-64.87 88.5,-54.87 81.5,-54.87"/>
</g>
<!-- Node3 -->
<g id="node3" class="node">
<title>Node3</title>
<g id="a_node3"><a xlink:href="interfaceSCR__AIGroupFireteam.html" target="_top" xlink:title="Fireteam base class Fireteam is like a collection of agents in a group.">
<polygon fill="white" stroke="#666666" points="143,-140 27,-140 27,-121 143,-121 143,-140"/>
<text text-anchor="middle" x="85" y="-128" font-family="Helvetica,sans-Serif" font-size="10.00">SCR_AIGroupFireteam</text>
</a>
</g>
</g>
<!-- Node3&#45;&gt;Node2 -->
<g id="edge2" class="edge">
<title>Node3&#45;&gt;Node2</title>
<path fill="none" stroke="#63b8ff" d="M85,-109.93C85,-101.53 85,-92.13 85,-85.44"/>
<polygon fill="#63b8ff" stroke="#63b8ff" points="81.5,-109.75 85,-119.75 88.5,-109.75 81.5,-109.75"/>
</g>
<!-- Node4 -->
<g id="node4" class="node">
<title>Node4</title>
<g id="a_node4"><a xlink:title=" ">
<polygon fill="white" stroke="#666666" points="113,-195 57,-195 57,-176 113,-176 113,-195"/>
<text text-anchor="middle" x="85" y="-183" font-family="Helvetica,sans-Serif" font-size="10.00">Managed</text>
</a>
</g>
</g>
<!-- Node4&#45;&gt;Node3 -->
<g id="edge3" class="edge">
<title>Node4&#45;&gt;Node3</title>
<path fill="none" stroke="#63b8ff" d="M85,-164.93C85,-156.53 85,-147.13 85,-140.44"/>
<polygon fill="#63b8ff" stroke="#63b8ff" points="81.5,-164.75 85,-174.75 88.5,-164.75 81.5,-164.75"/>
</g>
</g>
</svg>
