<?xml version="1.0" encoding="UTF-8" standalone="no"?>
<!DOCTYPE svg PUBLIC "-//W3C//DTD SVG 1.1//EN"
 "http://www.w3.org/Graphics/SVG/1.1/DTD/svg11.dtd">
<!-- Generated by graphviz version 8.0.2 (20230410.1723)
 -->
<!-- Title: SCR_ResupplyMedicalGadgetSupportStationComponentClass Pages: 1 -->
<svg width="187pt" height="225pt"
 viewBox="0.00 0.00 187.00 225.00" xmlns="http://www.w3.org/2000/svg" xmlns:xlink="http://www.w3.org/1999/xlink">
<g id="graph0" class="graph" transform="scale(1 1) rotate(0) translate(4 221)">
<title>SCR_ResupplyMedicalGadgetSupportStationComponentClass</title>
<!-- Node1 -->
<g id="node1" class="node">
<title>Node1</title>
<g id="a_node1"><a xlink:title=" ">
<polygon fill="#999999" stroke="#666666" points="167,-30 12,-30 12,0 167,0 167,-30"/>
<text text-anchor="start" x="20" y="-18" font-family="Helvetica,sans-Serif" font-size="10.00">SCR_ResupplyMedicalGadget</text>
<text text-anchor="middle" x="89.5" y="-7" font-family="Helvetica,sans-Serif" font-size="10.00">SupportStationComponentClass</text>
</a>
</g>
</g>
<!-- Node2 -->
<g id="node2" class="node">
<title>Node2</title>
<g id="a_node2"><a xlink:href="interfaceSCR__ResupplySupportStationComponentClass.html" target="_top" xlink:title=" ">
<polygon fill="white" stroke="#666666" points="163,-96 16,-96 16,-66 163,-66 163,-96"/>
<text text-anchor="start" x="24" y="-84" font-family="Helvetica,sans-Serif" font-size="10.00">SCR_ResupplySupportStation</text>
<text text-anchor="middle" x="89.5" y="-73" font-family="Helvetica,sans-Serif" font-size="10.00">ComponentClass</text>
</a>
</g>
</g>
<!-- Node2&#45;&gt;Node1 -->
<g id="edge1" class="edge">
<title>Node2&#45;&gt;Node1</title>
<path fill="none" stroke="#63b8ff" d="M89.5,-54.97C89.5,-46.55 89.5,-37.45 89.5,-30.16"/>
<polygon fill="#63b8ff" stroke="#63b8ff" points="86,-54.8 89.5,-64.8 93,-54.8 86,-54.8"/>
</g>
<!-- Node3 -->
<g id="node3" class="node">
<title>Node3</title>
<g id="a_node3"><a xlink:href="interfaceSCR__BaseSupportStationComponentClass.html" target="_top" xlink:title=" ">
<polygon fill="white" stroke="#666666" points="179,-162 0,-162 0,-132 179,-132 179,-162"/>
<text text-anchor="start" x="8" y="-150" font-family="Helvetica,sans-Serif" font-size="10.00">SCR_BaseSupportStationComponent</text>
<text text-anchor="middle" x="89.5" y="-139" font-family="Helvetica,sans-Serif" font-size="10.00">Class</text>
</a>
</g>
</g>
<!-- Node3&#45;&gt;Node2 -->
<g id="edge2" class="edge">
<title>Node3&#45;&gt;Node2</title>
<path fill="none" stroke="#63b8ff" d="M89.5,-120.97C89.5,-112.55 89.5,-103.45 89.5,-96.16"/>
<polygon fill="#63b8ff" stroke="#63b8ff" points="86,-120.8 89.5,-130.8 93,-120.8 86,-120.8"/>
</g>
<!-- Node4 -->
<g id="node4" class="node">
<title>Node4</title>
<g id="a_node4"><a xlink:title=" ">
<polygon fill="white" stroke="#666666" points="147.5,-217 31.5,-217 31.5,-198 147.5,-198 147.5,-217"/>
<text text-anchor="middle" x="89.5" y="-205" font-family="Helvetica,sans-Serif" font-size="10.00">ScriptComponentClass</text>
</a>
</g>
</g>
<!-- Node4&#45;&gt;Node3 -->
<g id="edge3" class="edge">
<title>Node4&#45;&gt;Node3</title>
<path fill="none" stroke="#63b8ff" d="M89.5,-187.08C89.5,-178.92 89.5,-169.6 89.5,-162.11"/>
<polygon fill="#63b8ff" stroke="#63b8ff" points="86,-186.87 89.5,-196.87 93,-186.87 86,-186.87"/>
</g>
</g>
</svg>
