<?xml version="1.0" encoding="UTF-8" standalone="no"?>
<!DOCTYPE svg PUBLIC "-//W3C//DTD SVG 1.1//EN"
 "http://www.w3.org/Graphics/SVG/1.1/DTD/svg11.dtd">
<!-- Generated by graphviz version 8.0.2 (20230410.1723)
 -->
<!-- Title: SCR_BaseEditorHintCondition Pages: 1 -->
<svg width="518pt" height="662pt"
 viewBox="0.00 0.00 518.00 661.50" xmlns="http://www.w3.org/2000/svg" xmlns:xlink="http://www.w3.org/1999/xlink">
<g id="graph0" class="graph" transform="scale(1 1) rotate(0) translate(4 657.5)">
<title>SCR_BaseEditorHintCondition</title>
<!-- Node1 -->
<g id="node1" class="node">
<title>Node1</title>
<g id="a_node1"><a xlink:title=" ">
<polygon fill="#999999" stroke="#666666" points="306,-308 158,-308 158,-289 306,-289 306,-308"/>
<text text-anchor="middle" x="232" y="-296" font-family="Helvetica,sans-Serif" font-size="10.00">SCR_BaseEditorHintCondition</text>
</a>
</g>
</g>
<!-- Node3 -->
<g id="node3" class="node">
<title>Node3</title>
<g id="a_node3"><a xlink:href="interfaceSCR__CampaignBuildingCloseHintCondition.html" target="_top" xlink:title=" ">
<polygon fill="white" stroke="#666666" points="498.5,-653.5 353.5,-653.5 353.5,-623.5 498.5,-623.5 498.5,-653.5"/>
<text text-anchor="start" x="361.5" y="-641.5" font-family="Helvetica,sans-Serif" font-size="10.00">SCR_CampaignBuildingClose</text>
<text text-anchor="middle" x="426" y="-630.5" font-family="Helvetica,sans-Serif" font-size="10.00">HintCondition</text>
</a>
</g>
</g>
<!-- Node1&#45;&gt;Node3 -->
<g id="edge2" class="edge">
<title>Node1&#45;&gt;Node3</title>
<path fill="none" stroke="#63b8ff" d="M233.84,-319.09C237.28,-375.07 254.61,-531.43 342,-614.5 345.48,-617.81 349.39,-620.66 353.56,-623.13"/>
<polygon fill="#63b8ff" stroke="#63b8ff" points="237.31,-319.26 233.29,-309.45 230.31,-319.62 237.31,-319.26"/>
</g>
<!-- Node4 -->
<g id="node4" class="node">
<title>Node4</title>
<g id="a_node4"><a xlink:href="interfaceSCR__CampaignBuildingNotMilitaryBaseHintCondition.html" target="_top" xlink:title=" ">
<polygon fill="white" stroke="#666666" points="509.5,-605.5 342.5,-605.5 342.5,-575.5 509.5,-575.5 509.5,-605.5"/>
<text text-anchor="start" x="350.5" y="-593.5" font-family="Helvetica,sans-Serif" font-size="10.00">SCR_CampaignBuildingNotMilitary</text>
<text text-anchor="middle" x="426" y="-582.5" font-family="Helvetica,sans-Serif" font-size="10.00">BaseHintCondition</text>
</a>
</g>
</g>
<!-- Node1&#45;&gt;Node4 -->
<g id="edge3" class="edge">
<title>Node1&#45;&gt;Node4</title>
<path fill="none" stroke="#63b8ff" d="M235.27,-318.91C241.92,-368.84 265.96,-498.04 342,-566.5 345.68,-569.81 349.79,-572.67 354.16,-575.13"/>
<polygon fill="#63b8ff" stroke="#63b8ff" points="238.65,-318.75 233.96,-309.26 231.7,-319.61 238.65,-318.75"/>
</g>
<!-- Node5 -->
<g id="node5" class="node">
<title>Node5</title>
<g id="a_node5"><a xlink:href="interfaceSCR__CampaignBuildingOpenedLabelHintCondition.html" target="_top" xlink:title=" ">
<polygon fill="white" stroke="#666666" points="503,-557.5 349,-557.5 349,-527.5 503,-527.5 503,-557.5"/>
<text text-anchor="start" x="357" y="-545.5" font-family="Helvetica,sans-Serif" font-size="10.00">SCR_CampaignBuildingOpened</text>
<text text-anchor="middle" x="426" y="-534.5" font-family="Helvetica,sans-Serif" font-size="10.00">LabelHintCondition</text>
</a>
</g>
</g>
<!-- Node1&#45;&gt;Node5 -->
<g id="edge4" class="edge">
<title>Node1&#45;&gt;Node5</title>
<path fill="none" stroke="#63b8ff" d="M237.22,-318.7C247.35,-362.01 277.12,-464.28 342,-518.5 345.91,-521.77 350.25,-524.6 354.83,-527.04"/>
<polygon fill="#63b8ff" stroke="#63b8ff" points="240.46,-318.14 234.88,-309.13 233.63,-319.65 240.46,-318.14"/>
</g>
<!-- Node6 -->
<g id="node6" class="node">
<title>Node6</title>
<g id="a_node6"><a xlink:href="interfaceSCR__EditorAttributesHintCondition.html" target="_top" xlink:title=" ">
<polygon fill="white" stroke="#666666" points="489.5,-509.5 362.5,-509.5 362.5,-479.5 489.5,-479.5 489.5,-509.5"/>
<text text-anchor="start" x="370.5" y="-497.5" font-family="Helvetica,sans-Serif" font-size="10.00">SCR_EditorAttributesHint</text>
<text text-anchor="middle" x="426" y="-486.5" font-family="Helvetica,sans-Serif" font-size="10.00">Condition</text>
</a>
</g>
</g>
<!-- Node1&#45;&gt;Node6 -->
<g id="edge5" class="edge">
<title>Node1&#45;&gt;Node6</title>
<path fill="none" stroke="#63b8ff" d="M240.2,-318.64C254.11,-354.66 288.16,-430.1 342,-470.5 348.12,-475.09 355.09,-478.81 362.34,-481.81"/>
<polygon fill="#63b8ff" stroke="#63b8ff" points="243.16,-317.57 236.39,-309.43 236.6,-320.02 243.16,-317.57"/>
</g>
<!-- Node7 -->
<g id="node7" class="node">
<title>Node7</title>
<g id="a_node7"><a xlink:href="interfaceSCR__EditorBudgetHintCondition.html" target="_top" xlink:title=" ">
<polygon fill="white" stroke="#666666" points="504,-461 348,-461 348,-442 504,-442 504,-461"/>
<text text-anchor="middle" x="426" y="-449" font-family="Helvetica,sans-Serif" font-size="10.00">SCR_EditorBudgetHintCondition</text>
</a>
</g>
</g>
<!-- Node1&#45;&gt;Node7 -->
<g id="edge6" class="edge">
<title>Node1&#45;&gt;Node7</title>
<path fill="none" stroke="#63b8ff" d="M243.28,-318.11C259.89,-347.75 295.51,-403.58 342,-432.5 347.9,-436.17 354.43,-439.13 361.16,-441.52"/>
<polygon fill="#63b8ff" stroke="#63b8ff" points="245.89,-316.58 238.04,-309.47 239.74,-319.93 245.89,-316.58"/>
</g>
<!-- Node8 -->
<g id="node8" class="node">
<title>Node8</title>
<g id="a_node8"><a xlink:href="interfaceSCR__EditorContextMenuHintCondition.html" target="_top" xlink:title=" ">
<polygon fill="white" stroke="#666666" points="497.5,-423.5 354.5,-423.5 354.5,-393.5 497.5,-393.5 497.5,-423.5"/>
<text text-anchor="start" x="362.5" y="-411.5" font-family="Helvetica,sans-Serif" font-size="10.00">SCR_EditorContextMenuHint</text>
<text text-anchor="middle" x="426" y="-400.5" font-family="Helvetica,sans-Serif" font-size="10.00">Condition</text>
</a>
</g>
</g>
<!-- Node1&#45;&gt;Node8 -->
<g id="edge7" class="edge">
<title>Node1&#45;&gt;Node8</title>
<path fill="none" stroke="#63b8ff" d="M250.34,-315.74C270.67,-335.06 306.17,-366.09 342,-384.5 348.27,-387.72 355.04,-390.57 361.9,-393.07"/>
<polygon fill="#63b8ff" stroke="#63b8ff" points="253.21,-313.69 243.59,-309.25 248.34,-318.72 253.21,-313.69"/>
</g>
<!-- Node9 -->
<g id="node9" class="node">
<title>Node9</title>
<g id="a_node9"><a xlink:href="interfaceSCR__EditorEntityToEntityHintCondition.html" target="_top" xlink:title=" ">
<polygon fill="white" stroke="#666666" points="490.5,-375.5 361.5,-375.5 361.5,-345.5 490.5,-345.5 490.5,-375.5"/>
<text text-anchor="start" x="369.5" y="-363.5" font-family="Helvetica,sans-Serif" font-size="10.00">SCR_EditorEntityToEntity</text>
<text text-anchor="middle" x="426" y="-352.5" font-family="Helvetica,sans-Serif" font-size="10.00">HintCondition</text>
</a>
</g>
</g>
<!-- Node1&#45;&gt;Node9 -->
<g id="edge8" class="edge">
<title>Node1&#45;&gt;Node9</title>
<path fill="none" stroke="#63b8ff" d="M270.29,-312.06C291.26,-319.55 317.99,-328.85 342,-336.5 351,-339.37 360.6,-342.28 369.96,-345.04"/>
<polygon fill="#63b8ff" stroke="#63b8ff" points="271.78,-308.52 261.19,-308.44 269.42,-315.11 271.78,-308.52"/>
</g>
<!-- Node10 -->
<g id="node10" class="node">
<title>Node10</title>
<g id="a_node10"><a xlink:href="interfaceSCR__EditorFilterHintCondition.html" target="_top" xlink:title=" ">
<polygon fill="white" stroke="#666666" points="499.5,-327 352.5,-327 352.5,-308 499.5,-308 499.5,-327"/>
<text text-anchor="middle" x="426" y="-315" font-family="Helvetica,sans-Serif" font-size="10.00">SCR_EditorFilterHintCondition</text>
</a>
</g>
</g>
<!-- Node1&#45;&gt;Node10 -->
<g id="edge9" class="edge">
<title>Node1&#45;&gt;Node10</title>
<path fill="none" stroke="#63b8ff" d="M317.09,-306.82C328.81,-307.98 340.78,-309.17 352.27,-310.3"/>
<polygon fill="#63b8ff" stroke="#63b8ff" points="317.7,-303.27 307.41,-305.76 317.02,-310.23 317.7,-303.27"/>
</g>
<!-- Node11 -->
<g id="node11" class="node">
<title>Node11</title>
<g id="a_node11"><a xlink:href="interfaceSCR__EditorLayerHintCondition.html" target="_top" xlink:title=" ">
<polygon fill="white" stroke="#666666" points="500.5,-290 351.5,-290 351.5,-271 500.5,-271 500.5,-290"/>
<text text-anchor="middle" x="426" y="-278" font-family="Helvetica,sans-Serif" font-size="10.00">SCR_EditorLayerHintCondition</text>
</a>
</g>
</g>
<!-- Node1&#45;&gt;Node11 -->
<g id="edge10" class="edge">
<title>Node1&#45;&gt;Node11</title>
<path fill="none" stroke="#63b8ff" d="M317.21,-290.61C328.57,-289.54 340.16,-288.45 351.31,-287.41"/>
<polygon fill="#63b8ff" stroke="#63b8ff" points="317.04,-287.2 307.41,-291.62 317.69,-294.17 317.04,-287.2"/>
</g>
<!-- Node12 -->
<g id="node12" class="node">
<title>Node12</title>
<g id="a_node12"><a xlink:href="interfaceSCR__EditorModeHintCondition.html" target="_top" xlink:title=" ">
<polygon fill="white" stroke="#666666" points="500.5,-253 351.5,-253 351.5,-234 500.5,-234 500.5,-253"/>
<text text-anchor="middle" x="426" y="-241" font-family="Helvetica,sans-Serif" font-size="10.00">SCR_EditorModeHintCondition</text>
</a>
</g>
</g>
<!-- Node1&#45;&gt;Node12 -->
<g id="edge11" class="edge">
<title>Node1&#45;&gt;Node12</title>
<path fill="none" stroke="#63b8ff" d="M269.7,-284.88C290.69,-277.38 317.62,-268.26 342,-261.5 352.51,-258.59 363.89,-255.85 374.74,-253.44"/>
<polygon fill="#63b8ff" stroke="#63b8ff" points="268.83,-281.83 260.61,-288.52 271.21,-288.42 268.83,-281.83"/>
</g>
<!-- Node13 -->
<g id="node13" class="node">
<title>Node13</title>
<g id="a_node13"><a xlink:href="interfaceSCR__EditorNotificationEditorOnlyHintCondition.html" target="_top" xlink:title=" ">
<polygon fill="white" stroke="#666666" points="496.5,-215.5 355.5,-215.5 355.5,-185.5 496.5,-185.5 496.5,-215.5"/>
<text text-anchor="start" x="363.5" y="-203.5" font-family="Helvetica,sans-Serif" font-size="10.00">SCR_EditorNotificationEditor</text>
<text text-anchor="middle" x="426" y="-192.5" font-family="Helvetica,sans-Serif" font-size="10.00">OnlyHintCondition</text>
</a>
</g>
</g>
<!-- Node1&#45;&gt;Node13 -->
<g id="edge12" class="edge">
<title>Node1&#45;&gt;Node13</title>
<path fill="none" stroke="#63b8ff" d="M253.06,-282C274.08,-265.43 308.63,-240.17 342,-224.5 348.79,-221.31 356.09,-218.45 363.45,-215.92"/>
<polygon fill="#63b8ff" stroke="#63b8ff" points="251.28,-279.75 245.66,-288.73 255.66,-285.21 251.28,-279.75"/>
</g>
<!-- Node14 -->
<g id="node14" class="node">
<title>Node14</title>
<g id="a_node14"><a xlink:href="interfaceSCR__EditorOpenedHintCondition.html" target="_top" xlink:title=" ">
<polygon fill="white" stroke="#666666" points="505.5,-167 346.5,-167 346.5,-148 505.5,-148 505.5,-167"/>
<text text-anchor="middle" x="426" y="-155" font-family="Helvetica,sans-Serif" font-size="10.00">SCR_EditorOpenedHintCondition</text>
</a>
</g>
</g>
<!-- Node1&#45;&gt;Node14 -->
<g id="edge13" class="edge">
<title>Node1&#45;&gt;Node14</title>
<path fill="none" stroke="#63b8ff" d="M244.47,-279.5C261.97,-252.25 297.97,-202.49 342,-176.5 348.24,-172.82 355.13,-169.85 362.19,-167.45"/>
<polygon fill="#63b8ff" stroke="#63b8ff" points="241.03,-277.41 238.7,-287.75 246.96,-281.12 241.03,-277.41"/>
</g>
<!-- Node15 -->
<g id="node15" class="node">
<title>Node15</title>
<g id="a_node15"><a xlink:href="interfaceSCR__EditorPlacingHintCondition.html" target="_top" xlink:title=" ">
<polygon fill="white" stroke="#666666" points="505,-130 347,-130 347,-111 505,-111 505,-130"/>
<text text-anchor="middle" x="426" y="-118" font-family="Helvetica,sans-Serif" font-size="10.00">SCR_EditorPlacingHintCondition</text>
</a>
</g>
</g>
<!-- Node1&#45;&gt;Node15 -->
<g id="edge14" class="edge">
<title>Node1&#45;&gt;Node15</title>
<path fill="none" stroke="#63b8ff" d="M240.55,-278.92C254.84,-244.66 289.19,-174.1 342,-138.5 346.77,-135.29 352.01,-132.63 357.47,-130.45"/>
<polygon fill="#63b8ff" stroke="#63b8ff" points="237.11,-277.1 236.62,-287.68 243.61,-279.71 237.11,-277.1"/>
</g>
<!-- Node16 -->
<g id="node16" class="node">
<title>Node16</title>
<g id="a_node16"><a xlink:href="interfaceSCR__EditorTransformHintCondition.html" target="_top" xlink:title=" ">
<polygon fill="white" stroke="#666666" points="510,-93 342,-93 342,-74 510,-74 510,-93"/>
<text text-anchor="middle" x="426" y="-81" font-family="Helvetica,sans-Serif" font-size="10.00">SCR_EditorTransformHintCondition</text>
</a>
</g>
</g>
<!-- Node1&#45;&gt;Node16 -->
<g id="edge15" class="edge">
<title>Node1&#45;&gt;Node16</title>
<path fill="none" stroke="#63b8ff" d="M238.08,-278.45C249.39,-238.12 280.63,-147.15 342,-101.5 346.38,-98.24 351.22,-95.55 356.31,-93.33"/>
<polygon fill="#63b8ff" stroke="#63b8ff" points="234.51,-277.25 235.3,-287.82 241.27,-279.06 234.51,-277.25"/>
</g>
<!-- Node17 -->
<g id="node17" class="node">
<title>Node17</title>
<g id="a_node17"><a xlink:href="interfaceSCR__MapHintCondition.html" target="_top" xlink:title=" ">
<polygon fill="white" stroke="#666666" points="485.5,-56 366.5,-56 366.5,-37 485.5,-37 485.5,-56"/>
<text text-anchor="middle" x="426" y="-44" font-family="Helvetica,sans-Serif" font-size="10.00">SCR_MapHintCondition</text>
</a>
</g>
</g>
<!-- Node1&#45;&gt;Node17 -->
<g id="edge16" class="edge">
<title>Node1&#45;&gt;Node17</title>
<path fill="none" stroke="#63b8ff" d="M236.3,-277.92C244.81,-231.93 271.94,-120.49 342,-64.5 349.03,-58.89 357.42,-54.92 366.12,-52.15"/>
<polygon fill="#63b8ff" stroke="#63b8ff" points="232.71,-277.14 234.45,-287.59 239.6,-278.34 232.71,-277.14"/>
</g>
<!-- Node18 -->
<g id="node18" class="node">
<title>Node18</title>
<g id="a_node18"><a xlink:href="interfaceSCR__VoteGameMasterCondition.html" target="_top" xlink:title=" ">
<polygon fill="white" stroke="#666666" points="505.5,-19 346.5,-19 346.5,0 505.5,0 505.5,-19"/>
<text text-anchor="middle" x="426" y="-7" font-family="Helvetica,sans-Serif" font-size="10.00">SCR_VoteGameMasterCondition</text>
</a>
</g>
</g>
<!-- Node1&#45;&gt;Node18 -->
<g id="edge17" class="edge">
<title>Node1&#45;&gt;Node18</title>
<path fill="none" stroke="#63b8ff" d="M234.86,-277.88C240.63,-226.91 262.88,-94.28 342,-27.5 345.83,-24.27 350.11,-21.57 354.65,-19.34"/>
<polygon fill="#63b8ff" stroke="#63b8ff" points="231.29,-277.44 233.75,-287.74 238.25,-278.15 231.29,-277.44"/>
</g>
<!-- Node2 -->
<g id="node2" class="node">
<title>Node2</title>
<g id="a_node2"><a xlink:href="interfaceSCR__BaseHintCondition.html" target="_top" xlink:title=" ">
<polygon fill="white" stroke="#666666" points="122,-308 0,-308 0,-289 122,-289 122,-308"/>
<text text-anchor="middle" x="61" y="-296" font-family="Helvetica,sans-Serif" font-size="10.00">SCR_BaseHintCondition</text>
</a>
</g>
</g>
<!-- Node2&#45;&gt;Node1 -->
<g id="edge1" class="edge">
<title>Node2&#45;&gt;Node1</title>
<path fill="none" stroke="#63b8ff" d="M132.99,-298.5C141.1,-298.5 149.38,-298.5 157.52,-298.5"/>
<polygon fill="#63b8ff" stroke="#63b8ff" points="133.06,-295 123.06,-298.5 133.06,-302 133.06,-295"/>
</g>
</g>
</svg>
