<?xml version="1.0" encoding="UTF-8" standalone="no"?>
<!DOCTYPE svg PUBLIC "-//W3C//DTD SVG 1.1//EN"
 "http://www.w3.org/Graphics/SVG/1.1/DTD/svg11.dtd">
<!-- Generated by graphviz version 8.0.2 (20230410.1723)
 -->
<!-- Title: HelicopterControllerComponent Pages: 1 -->
<svg width="174pt" height="423pt"
 viewBox="0.00 0.00 174.00 423.00" xmlns="http://www.w3.org/2000/svg" xmlns:xlink="http://www.w3.org/1999/xlink">
<g id="graph0" class="graph" transform="scale(1 1) rotate(0) translate(4 419)">
<title>HelicopterControllerComponent</title>
<!-- Node1 -->
<g id="node1" class="node">
<title>Node1</title>
<g id="a_node1"><a xlink:title=" ">
<polygon fill="#999999" stroke="#666666" points="158.5,-85 7.5,-85 7.5,-66 158.5,-66 158.5,-85"/>
<text text-anchor="middle" x="83" y="-73" font-family="Helvetica,sans-Serif" font-size="10.00">HelicopterControllerComponent</text>
</a>
</g>
</g>
<!-- Node8 -->
<g id="node8" class="node">
<title>Node8</title>
<g id="a_node8"><a xlink:href="interfaceSCR__HelicopterControllerComponent.html" target="_top" xlink:title="Class responsible for game helicopter.">
<polygon fill="white" stroke="#666666" points="146.5,-30 19.5,-30 19.5,0 146.5,0 146.5,-30"/>
<text text-anchor="start" x="27.5" y="-18" font-family="Helvetica,sans-Serif" font-size="10.00">SCR_HelicopterController</text>
<text text-anchor="middle" x="83" y="-7" font-family="Helvetica,sans-Serif" font-size="10.00">Component</text>
</a>
</g>
</g>
<!-- Node1&#45;&gt;Node8 -->
<g id="edge7" class="edge">
<title>Node1&#45;&gt;Node8</title>
<path fill="none" stroke="#63b8ff" d="M83,-55.08C83,-46.92 83,-37.6 83,-30.11"/>
<polygon fill="#63b8ff" stroke="#63b8ff" points="79.5,-54.87 83,-64.87 86.5,-54.87 79.5,-54.87"/>
</g>
<!-- Node2 -->
<g id="node2" class="node">
<title>Node2</title>
<g id="a_node2"><a xlink:href="interfaceVehicleControllerComponent.html" target="_top" xlink:title="Class responsible for base game vehicle.">
<polygon fill="white" stroke="#666666" points="153,-140 13,-140 13,-121 153,-121 153,-140"/>
<text text-anchor="middle" x="83" y="-128" font-family="Helvetica,sans-Serif" font-size="10.00">VehicleControllerComponent</text>
</a>
</g>
</g>
<!-- Node2&#45;&gt;Node1 -->
<g id="edge1" class="edge">
<title>Node2&#45;&gt;Node1</title>
<path fill="none" stroke="#63b8ff" d="M83,-109.93C83,-101.53 83,-92.13 83,-85.44"/>
<polygon fill="#63b8ff" stroke="#63b8ff" points="79.5,-109.75 83,-119.75 86.5,-109.75 79.5,-109.75"/>
</g>
<!-- Node3 -->
<g id="node3" class="node">
<title>Node3</title>
<g id="a_node3"><a xlink:href="interfaceBaseVehicleControllerComponent.html" target="_top" xlink:title=" ">
<polygon fill="white" stroke="#666666" points="164,-195 2,-195 2,-176 164,-176 164,-195"/>
<text text-anchor="middle" x="83" y="-183" font-family="Helvetica,sans-Serif" font-size="10.00">BaseVehicleControllerComponent</text>
</a>
</g>
</g>
<!-- Node3&#45;&gt;Node2 -->
<g id="edge2" class="edge">
<title>Node3&#45;&gt;Node2</title>
<path fill="none" stroke="#63b8ff" d="M83,-164.93C83,-156.53 83,-147.13 83,-140.44"/>
<polygon fill="#63b8ff" stroke="#63b8ff" points="79.5,-164.75 83,-174.75 86.5,-164.75 79.5,-164.75"/>
</g>
<!-- Node4 -->
<g id="node4" class="node">
<title>Node4</title>
<g id="a_node4"><a xlink:href="interfaceCompartmentControllerComponent.html" target="_top" xlink:title=" ">
<polygon fill="white" stroke="#666666" points="166,-250 0,-250 0,-231 166,-231 166,-250"/>
<text text-anchor="middle" x="83" y="-238" font-family="Helvetica,sans-Serif" font-size="10.00">CompartmentControllerComponent</text>
</a>
</g>
</g>
<!-- Node4&#45;&gt;Node3 -->
<g id="edge3" class="edge">
<title>Node4&#45;&gt;Node3</title>
<path fill="none" stroke="#63b8ff" d="M83,-219.93C83,-211.53 83,-202.13 83,-195.44"/>
<polygon fill="#63b8ff" stroke="#63b8ff" points="79.5,-219.75 83,-229.75 86.5,-219.75 79.5,-219.75"/>
</g>
<!-- Node5 -->
<g id="node5" class="node">
<title>Node5</title>
<g id="a_node5"><a xlink:href="interfaceBaseControllerComponent.html" target="_top" xlink:title=" ">
<polygon fill="white" stroke="#666666" points="148,-305 18,-305 18,-286 148,-286 148,-305"/>
<text text-anchor="middle" x="83" y="-293" font-family="Helvetica,sans-Serif" font-size="10.00">BaseControllerComponent</text>
</a>
</g>
</g>
<!-- Node5&#45;&gt;Node4 -->
<g id="edge4" class="edge">
<title>Node5&#45;&gt;Node4</title>
<path fill="none" stroke="#63b8ff" d="M83,-274.93C83,-266.53 83,-257.13 83,-250.44"/>
<polygon fill="#63b8ff" stroke="#63b8ff" points="79.5,-274.75 83,-284.75 86.5,-274.75 79.5,-274.75"/>
</g>
<!-- Node6 -->
<g id="node6" class="node">
<title>Node6</title>
<g id="a_node6"><a xlink:href="interfaceGameComponent.html" target="_top" xlink:title=" ">
<polygon fill="white" stroke="#666666" points="129,-360 37,-360 37,-341 129,-341 129,-360"/>
<text text-anchor="middle" x="83" y="-348" font-family="Helvetica,sans-Serif" font-size="10.00">GameComponent</text>
</a>
</g>
</g>
<!-- Node6&#45;&gt;Node5 -->
<g id="edge5" class="edge">
<title>Node6&#45;&gt;Node5</title>
<path fill="none" stroke="#63b8ff" d="M83,-329.93C83,-321.53 83,-312.13 83,-305.44"/>
<polygon fill="#63b8ff" stroke="#63b8ff" points="79.5,-329.75 83,-339.75 86.5,-329.75 79.5,-329.75"/>
</g>
<!-- Node7 -->
<g id="node7" class="node">
<title>Node7</title>
<g id="a_node7"><a xlink:title=" ">
<polygon fill="white" stroke="#666666" points="133,-415 33,-415 33,-396 133,-396 133,-415"/>
<text text-anchor="middle" x="83" y="-403" font-family="Helvetica,sans-Serif" font-size="10.00">GenericComponent</text>
</a>
</g>
</g>
<!-- Node7&#45;&gt;Node6 -->
<g id="edge6" class="edge">
<title>Node7&#45;&gt;Node6</title>
<path fill="none" stroke="#63b8ff" d="M83,-384.93C83,-376.53 83,-367.13 83,-360.44"/>
<polygon fill="#63b8ff" stroke="#63b8ff" points="79.5,-384.75 83,-394.75 86.5,-384.75 79.5,-384.75"/>
</g>
</g>
</svg>
