<?xml version="1.0" encoding="UTF-8" standalone="no"?>
<!DOCTYPE svg PUBLIC "-//W3C//DTD SVG 1.1//EN"
 "http://www.w3.org/Graphics/SVG/1.1/DTD/svg11.dtd">
<!-- Generated by graphviz version 8.0.2 (20230410.1723)
 -->
<!-- Title: SCR_ModesEditorUIComponent Pages: 1 -->
<svg width="163pt" height="247pt"
 viewBox="0.00 0.00 163.00 247.00" xmlns="http://www.w3.org/2000/svg" xmlns:xlink="http://www.w3.org/1999/xlink">
<g id="graph0" class="graph" transform="scale(1 1) rotate(0) translate(4 243)">
<title>SCR_ModesEditorUIComponent</title>
<!-- Node1 -->
<g id="node1" class="node">
<title>Node1</title>
<g id="a_node1"><a xlink:title=" ">
<polygon fill="#999999" stroke="#666666" points="155,-19 0,-19 0,0 155,0 155,-19"/>
<text text-anchor="middle" x="77.5" y="-7" font-family="Helvetica,sans-Serif" font-size="10.00">SCR_ModesEditorUIComponent</text>
</a>
</g>
</g>
<!-- Node2 -->
<g id="node2" class="node">
<title>Node2</title>
<g id="a_node2"><a xlink:href="interfaceSCR__DialogEditorUIComponent.html" target="_top" xlink:title=" ">
<polygon fill="white" stroke="#666666" points="154,-74 1,-74 1,-55 154,-55 154,-74"/>
<text text-anchor="middle" x="77.5" y="-62" font-family="Helvetica,sans-Serif" font-size="10.00">SCR_DialogEditorUIComponent</text>
</a>
</g>
</g>
<!-- Node2&#45;&gt;Node1 -->
<g id="edge1" class="edge">
<title>Node2&#45;&gt;Node1</title>
<path fill="none" stroke="#63b8ff" d="M77.5,-43.93C77.5,-35.53 77.5,-26.13 77.5,-19.44"/>
<polygon fill="#63b8ff" stroke="#63b8ff" points="74,-43.75 77.5,-53.75 81,-43.75 74,-43.75"/>
</g>
<!-- Node3 -->
<g id="node3" class="node">
<title>Node3</title>
<g id="a_node3"><a xlink:href="interfaceSCR__BaseEditorUIComponent.html" target="_top" xlink:title=" ">
<polygon fill="white" stroke="#666666" points="152,-129 3,-129 3,-110 152,-110 152,-129"/>
<text text-anchor="middle" x="77.5" y="-117" font-family="Helvetica,sans-Serif" font-size="10.00">SCR_BaseEditorUIComponent</text>
</a>
</g>
</g>
<!-- Node3&#45;&gt;Node2 -->
<g id="edge2" class="edge">
<title>Node3&#45;&gt;Node2</title>
<path fill="none" stroke="#63b8ff" d="M77.5,-98.93C77.5,-90.53 77.5,-81.13 77.5,-74.44"/>
<polygon fill="#63b8ff" stroke="#63b8ff" points="74,-98.75 77.5,-108.75 81,-98.75 74,-98.75"/>
</g>
<!-- Node4 -->
<g id="node4" class="node">
<title>Node4</title>
<g id="a_node4"><a xlink:href="interfaceMenuRootSubComponent.html" target="_top" xlink:title="Widget component which is linked to menu it&#39;s part of.">
<polygon fill="white" stroke="#666666" points="141.5,-184 13.5,-184 13.5,-165 141.5,-165 141.5,-184"/>
<text text-anchor="middle" x="77.5" y="-172" font-family="Helvetica,sans-Serif" font-size="10.00">MenuRootSubComponent</text>
</a>
</g>
</g>
<!-- Node4&#45;&gt;Node3 -->
<g id="edge3" class="edge">
<title>Node4&#45;&gt;Node3</title>
<path fill="none" stroke="#63b8ff" d="M77.5,-153.93C77.5,-145.53 77.5,-136.13 77.5,-129.44"/>
<polygon fill="#63b8ff" stroke="#63b8ff" points="74,-153.75 77.5,-163.75 81,-153.75 74,-153.75"/>
</g>
<!-- Node5 -->
<g id="node5" class="node">
<title>Node5</title>
<g id="a_node5"><a xlink:title=" ">
<polygon fill="white" stroke="#666666" points="144,-239 11,-239 11,-220 144,-220 144,-239"/>
<text text-anchor="middle" x="77.5" y="-227" font-family="Helvetica,sans-Serif" font-size="10.00">ScriptedWidgetComponent</text>
</a>
</g>
</g>
<!-- Node5&#45;&gt;Node4 -->
<g id="edge4" class="edge">
<title>Node5&#45;&gt;Node4</title>
<path fill="none" stroke="#63b8ff" d="M77.5,-208.93C77.5,-200.53 77.5,-191.13 77.5,-184.44"/>
<polygon fill="#63b8ff" stroke="#63b8ff" points="74,-208.75 77.5,-218.75 81,-208.75 74,-208.75"/>
</g>
</g>
</svg>
