<?xml version="1.0" encoding="UTF-8" standalone="no"?>
<!DOCTYPE svg PUBLIC "-//W3C//DTD SVG 1.1//EN"
 "http://www.w3.org/Graphics/SVG/1.1/DTD/svg11.dtd">
<!-- Generated by graphviz version 8.0.2 (20230410.1723)
 -->
<!-- Title: SCR_AnalogGaugeNonLinear Pages: 1 -->
<svg width="152pt" height="357pt"
 viewBox="0.00 0.00 152.00 357.00" xmlns="http://www.w3.org/2000/svg" xmlns:xlink="http://www.w3.org/1999/xlink">
<g id="graph0" class="graph" transform="scale(1 1) rotate(0) translate(4 353)">
<title>SCR_AnalogGaugeNonLinear</title>
<!-- Node1 -->
<g id="node1" class="node">
<title>Node1</title>
<g id="a_node1"><a xlink:title=" ">
<polygon fill="#999999" stroke="#666666" points="144,-19 0,-19 0,0 144,0 144,-19"/>
<text text-anchor="middle" x="72" y="-7" font-family="Helvetica,sans-Serif" font-size="10.00">SCR_AnalogGaugeNonLinear</text>
</a>
</g>
</g>
<!-- Node2 -->
<g id="node2" class="node">
<title>Node2</title>
<g id="a_node2"><a xlink:href="interfaceSCR__BaseAnalogGauge.html" target="_top" xlink:title=" ">
<polygon fill="white" stroke="#666666" points="133.5,-74 10.5,-74 10.5,-55 133.5,-55 133.5,-74"/>
<text text-anchor="middle" x="72" y="-62" font-family="Helvetica,sans-Serif" font-size="10.00">SCR_BaseAnalogGauge</text>
</a>
</g>
</g>
<!-- Node2&#45;&gt;Node1 -->
<g id="edge1" class="edge">
<title>Node2&#45;&gt;Node1</title>
<path fill="none" stroke="#63b8ff" d="M72,-43.93C72,-35.53 72,-26.13 72,-19.44"/>
<polygon fill="#63b8ff" stroke="#63b8ff" points="68.5,-43.75 72,-53.75 75.5,-43.75 68.5,-43.75"/>
</g>
<!-- Node3 -->
<g id="node3" class="node">
<title>Node3</title>
<g id="a_node3"><a xlink:href="interfaceSCR__InfoDisplayExtended.html" target="_top" xlink:title=" ">
<polygon fill="white" stroke="#666666" points="137.5,-129 6.5,-129 6.5,-110 137.5,-110 137.5,-129"/>
<text text-anchor="middle" x="72" y="-117" font-family="Helvetica,sans-Serif" font-size="10.00">SCR_InfoDisplayExtended</text>
</a>
</g>
</g>
<!-- Node3&#45;&gt;Node2 -->
<g id="edge2" class="edge">
<title>Node3&#45;&gt;Node2</title>
<path fill="none" stroke="#63b8ff" d="M72,-98.93C72,-90.53 72,-81.13 72,-74.44"/>
<polygon fill="#63b8ff" stroke="#63b8ff" points="68.5,-98.75 72,-108.75 75.5,-98.75 68.5,-98.75"/>
</g>
<!-- Node4 -->
<g id="node4" class="node">
<title>Node4</title>
<g id="a_node4"><a xlink:href="interfaceSCR__InfoDisplay.html" target="_top" xlink:title=" ">
<polygon fill="white" stroke="#666666" points="116.5,-184 27.5,-184 27.5,-165 116.5,-165 116.5,-184"/>
<text text-anchor="middle" x="72" y="-172" font-family="Helvetica,sans-Serif" font-size="10.00">SCR_InfoDisplay</text>
</a>
</g>
</g>
<!-- Node4&#45;&gt;Node3 -->
<g id="edge3" class="edge">
<title>Node4&#45;&gt;Node3</title>
<path fill="none" stroke="#63b8ff" d="M72,-153.93C72,-145.53 72,-136.13 72,-129.44"/>
<polygon fill="#63b8ff" stroke="#63b8ff" points="68.5,-153.75 72,-163.75 75.5,-153.75 68.5,-153.75"/>
</g>
<!-- Node5 -->
<g id="node5" class="node">
<title>Node5</title>
<g id="a_node5"><a xlink:href="interfaceGroupInfoDisplay.html" target="_top" xlink:title=" ">
<polygon fill="white" stroke="#666666" points="117,-239 27,-239 27,-220 117,-220 117,-239"/>
<text text-anchor="middle" x="72" y="-227" font-family="Helvetica,sans-Serif" font-size="10.00">GroupInfoDisplay</text>
</a>
</g>
</g>
<!-- Node5&#45;&gt;Node4 -->
<g id="edge4" class="edge">
<title>Node5&#45;&gt;Node4</title>
<path fill="none" stroke="#63b8ff" d="M72,-208.93C72,-200.53 72,-191.13 72,-184.44"/>
<polygon fill="#63b8ff" stroke="#63b8ff" points="68.5,-208.75 72,-218.75 75.5,-208.75 68.5,-208.75"/>
</g>
<!-- Node6 -->
<g id="node6" class="node">
<title>Node6</title>
<g id="a_node6"><a xlink:href="interfaceBaseInfoDisplay.html" target="_top" xlink:title=" ">
<polygon fill="white" stroke="#666666" points="115,-294 29,-294 29,-275 115,-275 115,-294"/>
<text text-anchor="middle" x="72" y="-282" font-family="Helvetica,sans-Serif" font-size="10.00">BaseInfoDisplay</text>
</a>
</g>
</g>
<!-- Node6&#45;&gt;Node5 -->
<g id="edge5" class="edge">
<title>Node6&#45;&gt;Node5</title>
<path fill="none" stroke="#63b8ff" d="M72,-263.93C72,-255.53 72,-246.13 72,-239.44"/>
<polygon fill="#63b8ff" stroke="#63b8ff" points="68.5,-263.75 72,-273.75 75.5,-263.75 68.5,-263.75"/>
</g>
<!-- Node7 -->
<g id="node7" class="node">
<title>Node7</title>
<g id="a_node7"><a xlink:title=" ">
<polygon fill="white" stroke="#666666" points="115,-349 29,-349 29,-330 115,-330 115,-349"/>
<text text-anchor="middle" x="72" y="-337" font-family="Helvetica,sans-Serif" font-size="10.00">ScriptAndConfig</text>
</a>
</g>
</g>
<!-- Node7&#45;&gt;Node6 -->
<g id="edge6" class="edge">
<title>Node7&#45;&gt;Node6</title>
<path fill="none" stroke="#63b8ff" d="M72,-318.93C72,-310.53 72,-301.13 72,-294.44"/>
<polygon fill="#63b8ff" stroke="#63b8ff" points="68.5,-318.75 72,-328.75 75.5,-318.75 68.5,-318.75"/>
</g>
</g>
</svg>
