<?xml version="1.0" encoding="UTF-8" standalone="no"?>
<!DOCTYPE svg PUBLIC "-//W3C//DTD SVG 1.1//EN"
 "http://www.w3.org/Graphics/SVG/1.1/DTD/svg11.dtd">
<!-- Generated by graphviz version 8.0.2 (20230410.1723)
 -->
<!-- Title: VehicleDoorUserAction Pages: 1 -->
<svg width="332pt" height="258pt"
 viewBox="0.00 0.00 332.00 258.00" xmlns="http://www.w3.org/2000/svg" xmlns:xlink="http://www.w3.org/1999/xlink">
<g id="graph0" class="graph" transform="scale(1 1) rotate(0) translate(4 254)">
<title>VehicleDoorUserAction</title>
<!-- Node1 -->
<g id="node1" class="node">
<title>Node1</title>
<g id="a_node1"><a xlink:title=" ">
<polygon fill="#999999" stroke="#666666" points="213.5,-85 96.5,-85 96.5,-66 213.5,-66 213.5,-85"/>
<text text-anchor="middle" x="155" y="-73" font-family="Helvetica,sans-Serif" font-size="10.00">VehicleDoorUserAction</text>
</a>
</g>
</g>
<!-- Node5 -->
<g id="node5" class="node">
<title>Node5</title>
<g id="a_node5"><a xlink:href="interfaceSCR__CloseVehicleDoorUserAction.html" target="_top" xlink:title=" ">
<polygon fill="white" stroke="#666666" points="140,-30 0,-30 0,0 140,0 140,-30"/>
<text text-anchor="start" x="8" y="-18" font-family="Helvetica,sans-Serif" font-size="10.00">SCR_CloseVehicleDoorUser</text>
<text text-anchor="middle" x="70" y="-7" font-family="Helvetica,sans-Serif" font-size="10.00">Action</text>
</a>
</g>
</g>
<!-- Node1&#45;&gt;Node5 -->
<g id="edge4" class="edge">
<title>Node1&#45;&gt;Node5</title>
<path fill="none" stroke="#63b8ff" d="M133.33,-59.59C120.33,-50.64 103.86,-39.3 90.98,-30.44"/>
<polygon fill="#63b8ff" stroke="#63b8ff" points="130.87,-62.83 141.09,-65.62 134.84,-57.06 130.87,-62.83"/>
</g>
<!-- Node6 -->
<g id="node6" class="node">
<title>Node6</title>
<g id="a_node6"><a xlink:href="interfaceSCR__OpenVehicleDoorUserAction.html" target="_top" xlink:title=" ">
<polygon fill="white" stroke="#666666" points="324,-24.5 158,-24.5 158,-5.5 324,-5.5 324,-24.5"/>
<text text-anchor="middle" x="241" y="-12.5" font-family="Helvetica,sans-Serif" font-size="10.00">SCR_OpenVehicleDoorUserAction</text>
</a>
</g>
</g>
<!-- Node1&#45;&gt;Node6 -->
<g id="edge5" class="edge">
<title>Node1&#45;&gt;Node6</title>
<path fill="none" stroke="#63b8ff" d="M176.82,-59.66C192.91,-48.72 214.26,-34.19 227.82,-24.97"/>
<polygon fill="#63b8ff" stroke="#63b8ff" points="175.36,-57.1 169.06,-65.62 179.3,-62.88 175.36,-57.1"/>
</g>
<!-- Node2 -->
<g id="node2" class="node">
<title>Node2</title>
<g id="a_node2"><a xlink:href="interfaceScriptedUserAction.html" target="_top" xlink:title=" ">
<polygon fill="white" stroke="#666666" points="205.5,-140 104.5,-140 104.5,-121 205.5,-121 205.5,-140"/>
<text text-anchor="middle" x="155" y="-128" font-family="Helvetica,sans-Serif" font-size="10.00">ScriptedUserAction</text>
</a>
</g>
</g>
<!-- Node2&#45;&gt;Node1 -->
<g id="edge1" class="edge">
<title>Node2&#45;&gt;Node1</title>
<path fill="none" stroke="#63b8ff" d="M155,-109.93C155,-101.53 155,-92.13 155,-85.44"/>
<polygon fill="#63b8ff" stroke="#63b8ff" points="151.5,-109.75 155,-119.75 158.5,-109.75 151.5,-109.75"/>
</g>
<!-- Node3 -->
<g id="node3" class="node">
<title>Node3</title>
<g id="a_node3"><a xlink:href="interfaceBaseUserAction.html" target="_top" xlink:title=" ">
<polygon fill="white" stroke="#666666" points="198.5,-195 111.5,-195 111.5,-176 198.5,-176 198.5,-195"/>
<text text-anchor="middle" x="155" y="-183" font-family="Helvetica,sans-Serif" font-size="10.00">BaseUserAction</text>
</a>
</g>
</g>
<!-- Node3&#45;&gt;Node2 -->
<g id="edge2" class="edge">
<title>Node3&#45;&gt;Node2</title>
<path fill="none" stroke="#63b8ff" d="M155,-164.93C155,-156.53 155,-147.13 155,-140.44"/>
<polygon fill="#63b8ff" stroke="#63b8ff" points="151.5,-164.75 155,-174.75 158.5,-164.75 151.5,-164.75"/>
</g>
<!-- Node4 -->
<g id="node4" class="node">
<title>Node4</title>
<g id="a_node4"><a xlink:title=" ">
<polygon fill="white" stroke="#666666" points="198,-250 112,-250 112,-231 198,-231 198,-250"/>
<text text-anchor="middle" x="155" y="-238" font-family="Helvetica,sans-Serif" font-size="10.00">ScriptAndConfig</text>
</a>
</g>
</g>
<!-- Node4&#45;&gt;Node3 -->
<g id="edge3" class="edge">
<title>Node4&#45;&gt;Node3</title>
<path fill="none" stroke="#63b8ff" d="M155,-219.93C155,-211.53 155,-202.13 155,-195.44"/>
<polygon fill="#63b8ff" stroke="#63b8ff" points="151.5,-219.75 155,-229.75 158.5,-219.75 151.5,-219.75"/>
</g>
</g>
</svg>
