<?xml version="1.0" encoding="UTF-8" standalone="no"?>
<!DOCTYPE svg PUBLIC "-//W3C//DTD SVG 1.1//EN"
 "http://www.w3.org/Graphics/SVG/1.1/DTD/svg11.dtd">
<!-- Generated by graphviz version 8.0.2 (20230410.1723)
 -->
<!-- Title: SCR_RecoilCameraShakeProgress Pages: 1 -->
<svg width="184pt" height="137pt"
 viewBox="0.00 0.00 184.00 137.00" xmlns="http://www.w3.org/2000/svg" xmlns:xlink="http://www.w3.org/1999/xlink">
<g id="graph0" class="graph" transform="scale(1 1) rotate(0) translate(4 133)">
<title>SCR_RecoilCameraShakeProgress</title>
<!-- Node1 -->
<g id="node1" class="node">
<title>Node1</title>
<g id="a_node1"><a xlink:title="This object allows advancing and simulating individual camera shake(s).">
<polygon fill="#999999" stroke="#666666" points="173,-19 3,-19 3,0 173,0 173,-19"/>
<text text-anchor="middle" x="88" y="-7" font-family="Helvetica,sans-Serif" font-size="10.00">SCR_RecoilCameraShakeProgress</text>
</a>
</g>
</g>
<!-- Node2 -->
<g id="node2" class="node">
<title>Node2</title>
<g id="a_node2"><a xlink:href="interfaceSCR__GenericCameraShakeProgress.html" target="_top" xlink:title="This object implements generic way of applying camera shake, but does not implement any shaking by it...">
<polygon fill="white" stroke="#666666" points="176,-74 0,-74 0,-55 176,-55 176,-74"/>
<text text-anchor="middle" x="88" y="-62" font-family="Helvetica,sans-Serif" font-size="10.00">SCR_GenericCameraShakeProgress</text>
</a>
</g>
</g>
<!-- Node2&#45;&gt;Node1 -->
<g id="edge1" class="edge">
<title>Node2&#45;&gt;Node1</title>
<path fill="none" stroke="#63b8ff" d="M88,-43.93C88,-35.53 88,-26.13 88,-19.44"/>
<polygon fill="#63b8ff" stroke="#63b8ff" points="84.5,-43.75 88,-53.75 91.5,-43.75 84.5,-43.75"/>
</g>
<!-- Node3 -->
<g id="node3" class="node">
<title>Node3</title>
<g id="a_node3"><a xlink:href="interfaceSCR__BaseCameraShakeProgress.html" target="_top" xlink:title="Interface for simulating individual camera shake(s).">
<polygon fill="white" stroke="#666666" points="170.5,-129 5.5,-129 5.5,-110 170.5,-110 170.5,-129"/>
<text text-anchor="middle" x="88" y="-117" font-family="Helvetica,sans-Serif" font-size="10.00">SCR_BaseCameraShakeProgress</text>
</a>
</g>
</g>
<!-- Node3&#45;&gt;Node2 -->
<g id="edge2" class="edge">
<title>Node3&#45;&gt;Node2</title>
<path fill="none" stroke="#63b8ff" d="M88,-98.93C88,-90.53 88,-81.13 88,-74.44"/>
<polygon fill="#63b8ff" stroke="#63b8ff" points="84.5,-98.75 88,-108.75 91.5,-98.75 84.5,-98.75"/>
</g>
</g>
</svg>
