<?xml version="1.0" encoding="UTF-8" standalone="no"?>
<!DOCTYPE svg PUBLIC "-//W3C//DTD SVG 1.1//EN"
 "http://www.w3.org/Graphics/SVG/1.1/DTD/svg11.dtd">
<!-- Generated by graphviz version 8.0.2 (20230410.1723)
 -->
<!-- Title: SCR_TaskPlayerListEntryHandler Pages: 1 -->
<svg width="171pt" height="247pt"
 viewBox="0.00 0.00 171.00 247.00" xmlns="http://www.w3.org/2000/svg" xmlns:xlink="http://www.w3.org/1999/xlink">
<g id="graph0" class="graph" transform="scale(1 1) rotate(0) translate(4 243)">
<title>SCR_TaskPlayerListEntryHandler</title>
<!-- Node1 -->
<g id="node1" class="node">
<title>Node1</title>
<g id="a_node1"><a xlink:title=" ">
<polygon fill="#999999" stroke="#666666" points="163,-19 0,-19 0,0 163,0 163,-19"/>
<text text-anchor="middle" x="81.5" y="-7" font-family="Helvetica,sans-Serif" font-size="10.00">SCR_TaskPlayerListEntryHandler</text>
</a>
</g>
</g>
<!-- Node2 -->
<g id="node2" class="node">
<title>Node2</title>
<g id="a_node2"><a xlink:href="interfaceSCR__ButtonBaseComponent.html" target="_top" xlink:title="Base class for any button, regardless its own content.">
<polygon fill="white" stroke="#666666" points="153,-74 10,-74 10,-55 153,-55 153,-74"/>
<text text-anchor="middle" x="81.5" y="-62" font-family="Helvetica,sans-Serif" font-size="10.00">SCR_ButtonBaseComponent</text>
</a>
</g>
</g>
<!-- Node2&#45;&gt;Node1 -->
<g id="edge1" class="edge">
<title>Node2&#45;&gt;Node1</title>
<path fill="none" stroke="#63b8ff" d="M81.5,-43.93C81.5,-35.53 81.5,-26.13 81.5,-19.44"/>
<polygon fill="#63b8ff" stroke="#63b8ff" points="78,-43.75 81.5,-53.75 85,-43.75 78,-43.75"/>
</g>
<!-- Node3 -->
<g id="node3" class="node">
<title>Node3</title>
<g id="a_node3"><a xlink:href="interfaceSCR__WLibComponentBase.html" target="_top" xlink:title="Base class for all final Reforger interactive elements.">
<polygon fill="white" stroke="#666666" points="150,-129 13,-129 13,-110 150,-110 150,-129"/>
<text text-anchor="middle" x="81.5" y="-117" font-family="Helvetica,sans-Serif" font-size="10.00">SCR_WLibComponentBase</text>
</a>
</g>
</g>
<!-- Node3&#45;&gt;Node2 -->
<g id="edge2" class="edge">
<title>Node3&#45;&gt;Node2</title>
<path fill="none" stroke="#63b8ff" d="M81.5,-98.93C81.5,-90.53 81.5,-81.13 81.5,-74.44"/>
<polygon fill="#63b8ff" stroke="#63b8ff" points="78,-98.75 81.5,-108.75 85,-98.75 78,-98.75"/>
</g>
<!-- Node4 -->
<g id="node4" class="node">
<title>Node4</title>
<g id="a_node4"><a xlink:href="interfaceSCR__ScriptedWidgetComponent.html" target="_top" xlink:title=" ">
<polygon fill="white" stroke="#666666" points="160.5,-184 2.5,-184 2.5,-165 160.5,-165 160.5,-184"/>
<text text-anchor="middle" x="81.5" y="-172" font-family="Helvetica,sans-Serif" font-size="10.00">SCR_ScriptedWidgetComponent</text>
</a>
</g>
</g>
<!-- Node4&#45;&gt;Node3 -->
<g id="edge3" class="edge">
<title>Node4&#45;&gt;Node3</title>
<path fill="none" stroke="#63b8ff" d="M81.5,-153.93C81.5,-145.53 81.5,-136.13 81.5,-129.44"/>
<polygon fill="#63b8ff" stroke="#63b8ff" points="78,-153.75 81.5,-163.75 85,-153.75 78,-153.75"/>
</g>
<!-- Node5 -->
<g id="node5" class="node">
<title>Node5</title>
<g id="a_node5"><a xlink:title=" ">
<polygon fill="white" stroke="#666666" points="148,-239 15,-239 15,-220 148,-220 148,-239"/>
<text text-anchor="middle" x="81.5" y="-227" font-family="Helvetica,sans-Serif" font-size="10.00">ScriptedWidgetComponent</text>
</a>
</g>
</g>
<!-- Node5&#45;&gt;Node4 -->
<g id="edge4" class="edge">
<title>Node5&#45;&gt;Node4</title>
<path fill="none" stroke="#63b8ff" d="M81.5,-208.93C81.5,-200.53 81.5,-191.13 81.5,-184.44"/>
<polygon fill="#63b8ff" stroke="#63b8ff" points="78,-208.75 81.5,-218.75 85,-208.75 78,-208.75"/>
</g>
</g>
</svg>
