<?xml version="1.0" encoding="UTF-8" standalone="no"?>
<!DOCTYPE svg PUBLIC "-//W3C//DTD SVG 1.1//EN"
 "http://www.w3.org/Graphics/SVG/1.1/DTD/svg11.dtd">
<!-- Generated by graphviz version 8.0.2 (20230410.1723)
 -->
<!-- Title: SCR_UIDescription Pages: 1 -->
<svg width="1162pt" height="745pt"
 viewBox="0.00 0.00 1162.00 744.50" xmlns="http://www.w3.org/2000/svg" xmlns:xlink="http://www.w3.org/1999/xlink">
<g id="graph0" class="graph" transform="scale(1 1) rotate(0) translate(4 740.5)">
<title>SCR_UIDescription</title>
<!-- Node1 -->
<g id="node1" class="node">
<title>Node1</title>
<g id="a_node1"><a xlink:title="Class used to hold UI name and description.">
<polygon fill="#999999" stroke="#666666" points="213,-429 113,-429 113,-410 213,-410 213,-429"/>
<text text-anchor="middle" x="163" y="-417" font-family="Helvetica,sans-Serif" font-size="10.00">SCR_UIDescription</text>
</a>
</g>
</g>
<!-- Node3 -->
<g id="node3" class="node">
<title>Node3</title>
<g id="a_node3"><a xlink:href="interfaceSCR__ArsenalSaveTypeUIInfo.html" target="_top" xlink:title=" ">
<polygon fill="white" stroke="#666666" points="390,-448 249,-448 249,-429 390,-429 390,-448"/>
<text text-anchor="middle" x="319.5" y="-436" font-family="Helvetica,sans-Serif" font-size="10.00">SCR_ArsenalSaveTypeUIInfo</text>
</a>
</g>
</g>
<!-- Node1&#45;&gt;Node3 -->
<g id="edge2" class="edge">
<title>Node1&#45;&gt;Node3</title>
<path fill="none" stroke="#63b8ff" d="M224.06,-426.89C232.08,-427.87 240.36,-428.89 248.54,-429.9"/>
<polygon fill="#63b8ff" stroke="#63b8ff" points="224.66,-423.31 214.31,-425.56 223.81,-430.26 224.66,-423.31"/>
</g>
<!-- Node4 -->
<g id="node4" class="node">
<title>Node4</title>
<g id="a_node4"><a xlink:href="interfaceSCR__UIInfo.html" target="_top" xlink:title="Class used to hold UI information.">
<polygon fill="white" stroke="#666666" points="352.5,-411 286.5,-411 286.5,-392 352.5,-392 352.5,-411"/>
<text text-anchor="middle" x="319.5" y="-399" font-family="Helvetica,sans-Serif" font-size="10.00">SCR_UIInfo</text>
</a>
</g>
</g>
<!-- Node1&#45;&gt;Node4 -->
<g id="edge3" class="edge">
<title>Node1&#45;&gt;Node4</title>
<path fill="none" stroke="#63b8ff" d="M224.16,-412.49C245.3,-410.03 268.23,-407.36 286.2,-405.26"/>
<polygon fill="#63b8ff" stroke="#63b8ff" points="223.84,-409.12 214.31,-413.76 224.65,-416.07 223.84,-409.12"/>
</g>
<!-- Node2 -->
<g id="node2" class="node">
<title>Node2</title>
<g id="a_node2"><a xlink:href="interfaceSCR__UIName.html" target="_top" xlink:title="Class used to hold UI name.">
<polygon fill="white" stroke="#666666" points="77,-429 0,-429 0,-410 77,-410 77,-429"/>
<text text-anchor="middle" x="38.5" y="-417" font-family="Helvetica,sans-Serif" font-size="10.00">SCR_UIName</text>
</a>
</g>
</g>
<!-- Node2&#45;&gt;Node1 -->
<g id="edge1" class="edge">
<title>Node2&#45;&gt;Node1</title>
<path fill="none" stroke="#63b8ff" d="M88.11,-419.5C96.25,-419.5 104.7,-419.5 112.86,-419.5"/>
<polygon fill="#63b8ff" stroke="#63b8ff" points="88.25,-416 78.25,-419.5 88.25,-423 88.25,-416"/>
</g>
<!-- Node5 -->
<g id="node5" class="node">
<title>Node5</title>
<g id="a_node5"><a xlink:href="interfaceSCR__AIGroupUIInfo.html" target="_top" xlink:title=" ">
<polygon fill="white" stroke="#666666" points="544.5,-707 443.5,-707 443.5,-688 544.5,-688 544.5,-707"/>
<text text-anchor="middle" x="494" y="-695" font-family="Helvetica,sans-Serif" font-size="10.00">SCR_AIGroupUIInfo</text>
</a>
</g>
</g>
<!-- Node4&#45;&gt;Node5 -->
<g id="edge4" class="edge">
<title>Node4&#45;&gt;Node5</title>
<path fill="none" stroke="#63b8ff" d="M363.67,-404.54C373.57,-407.25 383.18,-411.84 390,-419.5 467.58,-506.63 348.82,-592.02 426,-679.5 430.62,-684.74 436.59,-688.53 443.05,-691.25"/>
<polygon fill="#63b8ff" stroke="#63b8ff" points="364.43,-400.91 353.92,-402.28 362.99,-407.76 364.43,-400.91"/>
</g>
<!-- Node6 -->
<g id="node6" class="node">
<title>Node6</title>
<g id="a_node6"><a xlink:href="interfaceSCR__BlockUIInfo.html" target="_top" xlink:title=" ">
<polygon fill="white" stroke="#666666" points="539.5,-670 448.5,-670 448.5,-651 539.5,-651 539.5,-670"/>
<text text-anchor="middle" x="494" y="-658" font-family="Helvetica,sans-Serif" font-size="10.00">SCR_BlockUIInfo</text>
</a>
</g>
</g>
<!-- Node4&#45;&gt;Node6 -->
<g id="edge5" class="edge">
<title>Node4&#45;&gt;Node6</title>
<path fill="none" stroke="#63b8ff" d="M363.55,-404.65C373.46,-407.35 383.1,-411.92 390,-419.5 457.6,-493.73 358.74,-567.97 426,-642.5 431.89,-649.03 439.87,-653.3 448.27,-656.06"/>
<polygon fill="#63b8ff" stroke="#63b8ff" points="364.32,-401.02 353.81,-402.38 362.87,-407.87 364.32,-401.02"/>
</g>
<!-- Node9 -->
<g id="node9" class="node">
<title>Node9</title>
<g id="a_node9"><a xlink:href="interfaceSCR__BudgetUIInfo.html" target="_top" xlink:title=" ">
<polygon fill="white" stroke="#666666" points="542.5,-633 445.5,-633 445.5,-614 542.5,-614 542.5,-633"/>
<text text-anchor="middle" x="494" y="-621" font-family="Helvetica,sans-Serif" font-size="10.00">SCR_BudgetUIInfo</text>
</a>
</g>
</g>
<!-- Node4&#45;&gt;Node9 -->
<g id="edge8" class="edge">
<title>Node4&#45;&gt;Node9</title>
<path fill="none" stroke="#63b8ff" d="M363.38,-404.8C373.29,-407.51 382.98,-412.03 390,-419.5 447.39,-480.52 369.31,-542.83 426,-604.5 431.24,-610.2 438.04,-614.23 445.31,-617.08"/>
<polygon fill="#63b8ff" stroke="#63b8ff" points="364.16,-401.18 353.65,-402.53 362.71,-408.02 364.16,-401.18"/>
</g>
<!-- Node10 -->
<g id="node10" class="node">
<title>Node10</title>
<g id="a_node10"><a xlink:href="interfaceSCR__ColorUIInfo.html" target="_top" xlink:title=" ">
<polygon fill="white" stroke="#666666" points="538.5,-596 449.5,-596 449.5,-577 538.5,-577 538.5,-596"/>
<text text-anchor="middle" x="494" y="-584" font-family="Helvetica,sans-Serif" font-size="10.00">SCR_ColorUIInfo</text>
</a>
</g>
</g>
<!-- Node4&#45;&gt;Node10 -->
<g id="edge9" class="edge">
<title>Node4&#45;&gt;Node10</title>
<path fill="none" stroke="#63b8ff" d="M363.41,-405.1C373.23,-407.81 382.87,-412.26 390,-419.5 437.51,-467.72 379.04,-518.74 426,-567.5 432.29,-574.03 440.65,-578.37 449.32,-581.23"/>
<polygon fill="#63b8ff" stroke="#63b8ff" points="364.3,-401.5 353.79,-402.8 362.82,-408.34 364.3,-401.5"/>
</g>
<!-- Node19 -->
<g id="node19" class="node">
<title>Node19</title>
<g id="a_node19"><a xlink:href="interfaceSCR__DamageStateUIInfo.html" target="_top" xlink:title=" ">
<polygon fill="white" stroke="#666666" points="556.5,-559 431.5,-559 431.5,-540 556.5,-540 556.5,-559"/>
<text text-anchor="middle" x="494" y="-547" font-family="Helvetica,sans-Serif" font-size="10.00">SCR_DamageStateUIInfo</text>
</a>
</g>
</g>
<!-- Node4&#45;&gt;Node19 -->
<g id="edge18" class="edge">
<title>Node4&#45;&gt;Node19</title>
<path fill="none" stroke="#63b8ff" d="M363.3,-405.55C373.04,-408.26 382.67,-412.6 390,-419.5 427.76,-455.05 388.65,-494.52 426,-530.5 429.83,-534.19 434.32,-537.17 439.14,-539.58"/>
<polygon fill="#63b8ff" stroke="#63b8ff" points="364.31,-401.97 353.79,-403.22 362.79,-408.8 364.31,-401.97"/>
</g>
<!-- Node20 -->
<g id="node20" class="node">
<title>Node20</title>
<g id="a_node20"><a xlink:href="interfaceSCR__EditableEntityUIInfo.html" target="_top" xlink:title=" ">
<polygon fill="white" stroke="#666666" points="557.5,-522 430.5,-522 430.5,-503 557.5,-503 557.5,-522"/>
<text text-anchor="middle" x="494" y="-510" font-family="Helvetica,sans-Serif" font-size="10.00">SCR_EditableEntityUIInfo</text>
</a>
</g>
</g>
<!-- Node4&#45;&gt;Node20 -->
<g id="edge19" class="edge">
<title>Node4&#45;&gt;Node20</title>
<path fill="none" stroke="#63b8ff" d="M363.49,-406.53C372.97,-409.22 382.43,-413.31 390,-419.5 418.31,-442.66 397.96,-470.02 426,-493.5 430.45,-497.23 435.59,-500.22 440.99,-502.63"/>
<polygon fill="#63b8ff" stroke="#63b8ff" points="364.42,-402.92 353.88,-404.05 362.82,-409.73 364.42,-402.92"/>
</g>
<!-- Node26 -->
<g id="node26" class="node">
<title>Node26</title>
<g id="a_node26"><a xlink:href="interfaceSCR__EditorAttributeUIInfo.html" target="_top" xlink:title="UIInfo used by editor attribute system.">
<polygon fill="white" stroke="#666666" points="558,-485 430,-485 430,-466 558,-466 558,-485"/>
<text text-anchor="middle" x="494" y="-473" font-family="Helvetica,sans-Serif" font-size="10.00">SCR_EditorAttributeUIInfo</text>
</a>
</g>
</g>
<!-- Node4&#45;&gt;Node26 -->
<g id="edge25" class="edge">
<title>Node4&#45;&gt;Node26</title>
<path fill="none" stroke="#63b8ff" d="M363.31,-408.68C372.49,-411.27 381.87,-414.78 390,-419.5 409.84,-431.02 406.29,-444.75 426,-456.5 432.13,-460.15 438.99,-463.13 445.92,-465.55"/>
<polygon fill="#63b8ff" stroke="#63b8ff" points="364.25,-405.06 353.7,-406.04 362.56,-411.85 364.25,-405.06"/>
</g>
<!-- Node27 -->
<g id="node27" class="node">
<title>Node27</title>
<g id="a_node27"><a xlink:href="interfaceSCR__EditorModeUIInfo.html" target="_top" xlink:title=" ">
<polygon fill="white" stroke="#666666" points="552,-448 436,-448 436,-429 552,-429 552,-448"/>
<text text-anchor="middle" x="494" y="-436" font-family="Helvetica,sans-Serif" font-size="10.00">SCR_EditorModeUIInfo</text>
</a>
</g>
</g>
<!-- Node4&#45;&gt;Node27 -->
<g id="edge26" class="edge">
<title>Node4&#45;&gt;Node27</title>
<path fill="none" stroke="#63b8ff" d="M363.69,-410.76C388.98,-416.19 420.9,-423.03 446.7,-428.57"/>
<polygon fill="#63b8ff" stroke="#63b8ff" points="364.46,-407.13 353.95,-408.46 362.99,-413.98 364.46,-407.13"/>
</g>
<!-- Node28 -->
<g id="node28" class="node">
<title>Node28</title>
<g id="a_node28"><a xlink:href="interfaceSCR__InputActionUIInfo.html" target="_top" xlink:title=" ">
<polygon fill="white" stroke="#666666" points="551.5,-411 436.5,-411 436.5,-392 551.5,-392 551.5,-411"/>
<text text-anchor="middle" x="494" y="-399" font-family="Helvetica,sans-Serif" font-size="10.00">SCR_InputActionUIInfo</text>
</a>
</g>
</g>
<!-- Node4&#45;&gt;Node28 -->
<g id="edge27" class="edge">
<title>Node4&#45;&gt;Node28</title>
<path fill="none" stroke="#63b8ff" d="M363.92,-401.5C385.84,-401.5 412.71,-401.5 436.25,-401.5"/>
<polygon fill="#63b8ff" stroke="#63b8ff" points="363.95,-398 353.95,-401.5 363.95,-405 363.95,-398"/>
</g>
<!-- Node29 -->
<g id="node29" class="node">
<title>Node29</title>
<g id="a_node29"><a xlink:href="interfaceSCR__MoonPhaseUIInfo.html" target="_top" xlink:title=" ">
<polygon fill="white" stroke="#666666" points="553,-374 435,-374 435,-355 553,-355 553,-374"/>
<text text-anchor="middle" x="494" y="-362" font-family="Helvetica,sans-Serif" font-size="10.00">SCR_MoonPhaseUIInfo</text>
</a>
</g>
</g>
<!-- Node4&#45;&gt;Node29 -->
<g id="edge28" class="edge">
<title>Node4&#45;&gt;Node29</title>
<path fill="none" stroke="#63b8ff" d="M363.69,-392.24C388.98,-386.81 420.9,-379.97 446.7,-374.43"/>
<polygon fill="#63b8ff" stroke="#63b8ff" points="362.99,-389.02 353.95,-394.54 364.46,-395.87 362.99,-389.02"/>
</g>
<!-- Node30 -->
<g id="node30" class="node">
<title>Node30</title>
<g id="a_node30"><a xlink:href="interfaceSCR__OverridableUIInfo.html" target="_top" xlink:title="UI info class with setter functions.">
<polygon fill="white" stroke="#666666" points="551,-337 437,-337 437,-318 551,-318 551,-337"/>
<text text-anchor="middle" x="494" y="-325" font-family="Helvetica,sans-Serif" font-size="10.00">SCR_OverridableUIInfo</text>
</a>
</g>
</g>
<!-- Node4&#45;&gt;Node30 -->
<g id="edge29" class="edge">
<title>Node4&#45;&gt;Node30</title>
<path fill="none" stroke="#63b8ff" d="M345.82,-385.97C366.72,-373.66 397.48,-356.73 426,-345.5 433.73,-342.45 442.16,-339.74 450.36,-337.41"/>
<polygon fill="#63b8ff" stroke="#63b8ff" points="344.19,-383.46 337.4,-391.59 347.78,-389.47 344.19,-383.46"/>
</g>
<!-- Node31 -->
<g id="node31" class="node">
<title>Node31</title>
<g id="a_node31"><a xlink:href="interfaceSCR__PlayerUIInfo.html" target="_top" xlink:title=" ">
<polygon fill="white" stroke="#666666" points="541,-300 447,-300 447,-281 541,-281 541,-300"/>
<text text-anchor="middle" x="494" y="-288" font-family="Helvetica,sans-Serif" font-size="10.00">SCR_PlayerUIInfo</text>
</a>
</g>
</g>
<!-- Node4&#45;&gt;Node31 -->
<g id="edge30" class="edge">
<title>Node4&#45;&gt;Node31</title>
<path fill="none" stroke="#63b8ff" d="M335.92,-383.62C355,-362.6 389.48,-328.1 426,-308.5 432.37,-305.08 439.43,-302.28 446.51,-299.99"/>
<polygon fill="#63b8ff" stroke="#63b8ff" points="333.75,-380.92 329.72,-390.72 338.98,-385.57 333.75,-380.92"/>
</g>
<!-- Node32 -->
<g id="node32" class="node">
<title>Node32</title>
<g id="a_node32"><a xlink:href="interfaceSCR__SelectionMenuEntry.html" target="_top" xlink:title="Scripted selection menu entry based on UI info for storing data into SCR_SelectionMenu.">
<polygon fill="white" stroke="#666666" points="559,-263 429,-263 429,-244 559,-244 559,-263"/>
<text text-anchor="middle" x="494" y="-251" font-family="Helvetica,sans-Serif" font-size="10.00">SCR_SelectionMenuEntry</text>
</a>
</g>
</g>
<!-- Node4&#45;&gt;Node32 -->
<g id="edge31" class="edge">
<title>Node4&#45;&gt;Node32</title>
<path fill="none" stroke="#63b8ff" d="M330.81,-382.27C347.14,-353.67 381.7,-300.25 426,-271.5 430.95,-268.29 436.46,-265.64 442.13,-263.47"/>
<polygon fill="#63b8ff" stroke="#63b8ff" points="327.43,-380.14 325.63,-390.58 333.55,-383.54 327.43,-380.14"/>
</g>
<!-- Node43 -->
<g id="node43" class="node">
<title>Node43</title>
<g id="a_node43"><a xlink:href="interfaceSCR__SimpleMessageUIInfo.html" target="_top" xlink:title=" ">
<polygon fill="white" stroke="#666666" points="562,-226 426,-226 426,-207 562,-207 562,-226"/>
<text text-anchor="middle" x="494" y="-214" font-family="Helvetica,sans-Serif" font-size="10.00">SCR_SimpleMessageUIInfo</text>
</a>
</g>
</g>
<!-- Node4&#45;&gt;Node43 -->
<g id="edge42" class="edge">
<title>Node4&#45;&gt;Node43</title>
<path fill="none" stroke="#63b8ff" d="M327.38,-381.85C340.7,-346.72 373.43,-273.23 426,-234.5 430.36,-231.29 435.26,-228.64 440.38,-226.48"/>
<polygon fill="#63b8ff" stroke="#63b8ff" points="323.88,-380.22 323.73,-390.81 330.46,-382.62 323.88,-380.22"/>
</g>
<!-- Node44 -->
<g id="node44" class="node">
<title>Node44</title>
<g id="a_node44"><a xlink:href="interfaceSCR__UINotificationInfo.html" target="_top" xlink:title="UIInfo used by the Notifications system.">
<polygon fill="white" stroke="#666666" points="551,-189 437,-189 437,-170 551,-170 551,-189"/>
<text text-anchor="middle" x="494" y="-177" font-family="Helvetica,sans-Serif" font-size="10.00">SCR_UINotificationInfo</text>
</a>
</g>
</g>
<!-- Node4&#45;&gt;Node44 -->
<g id="edge43" class="edge">
<title>Node4&#45;&gt;Node44</title>
<path fill="none" stroke="#63b8ff" d="M325.19,-381.01C335.72,-339.76 365.23,-246.44 426,-197.5 430.03,-194.25 434.6,-191.59 439.41,-189.4"/>
<polygon fill="#63b8ff" stroke="#63b8ff" points="321.57,-380.07 322.61,-390.62 328.38,-381.72 321.57,-380.07"/>
</g>
<!-- Node47 -->
<g id="node47" class="node">
<title>Node47</title>
<g id="a_node47"><a xlink:href="interfaceSCR__VotingUIInfo.html" target="_top" xlink:title=" ">
<polygon fill="white" stroke="#666666" points="541,-152 447,-152 447,-133 541,-133 541,-152"/>
<text text-anchor="middle" x="494" y="-140" font-family="Helvetica,sans-Serif" font-size="10.00">SCR_VotingUIInfo</text>
</a>
</g>
</g>
<!-- Node4&#45;&gt;Node47 -->
<g id="edge46" class="edge">
<title>Node4&#45;&gt;Node47</title>
<path fill="none" stroke="#63b8ff" d="M323.43,-380.9C331.16,-334.31 356.54,-220.24 426,-160.5 431.94,-155.4 439.18,-151.72 446.68,-149.08"/>
<polygon fill="#63b8ff" stroke="#63b8ff" points="319.83,-380.27 321.76,-390.69 326.75,-381.34 319.83,-380.27"/>
</g>
<!-- Node48 -->
<g id="node48" class="node">
<title>Node48</title>
<g id="a_node48"><a xlink:href="interfaceUIInfoAssetCard.html" target="_top" xlink:title=" ">
<polygon fill="white" stroke="#666666" points="537,-115 451,-115 451,-96 537,-96 537,-115"/>
<text text-anchor="middle" x="494" y="-103" font-family="Helvetica,sans-Serif" font-size="10.00">UIInfoAssetCard</text>
</a>
</g>
</g>
<!-- Node4&#45;&gt;Node48 -->
<g id="edge47" class="edge">
<title>Node4&#45;&gt;Node48</title>
<path fill="none" stroke="#63b8ff" d="M322.08,-380.95C327.16,-329.52 347.67,-194.35 426,-123.5 432.88,-117.28 441.68,-113.17 450.63,-110.47"/>
<polygon fill="#63b8ff" stroke="#63b8ff" points="318.53,-380.35 321.13,-390.62 325.5,-380.97 318.53,-380.35"/>
</g>
<!-- Node7 -->
<g id="node7" class="node">
<title>Node7</title>
<g id="a_node7"><a xlink:href="interfaceSCR__FormatUIInfo.html" target="_top" xlink:title=" ">
<polygon fill="white" stroke="#666666" points="733.5,-707 636.5,-707 636.5,-688 733.5,-688 733.5,-707"/>
<text text-anchor="middle" x="685" y="-695" font-family="Helvetica,sans-Serif" font-size="10.00">SCR_FormatUIInfo</text>
</a>
</g>
</g>
<!-- Node6&#45;&gt;Node7 -->
<g id="edge6" class="edge">
<title>Node6&#45;&gt;Node7</title>
<path fill="none" stroke="#63b8ff" d="M550.33,-671.33C577.57,-676.66 610.09,-683.03 636.23,-688.15"/>
<polygon fill="#63b8ff" stroke="#63b8ff" points="551.28,-667.75 540.79,-669.27 549.93,-674.62 551.28,-667.75"/>
</g>
<!-- Node8 -->
<g id="node8" class="node">
<title>Node8</title>
<g id="a_node8"><a xlink:href="interfaceSCR__HintUIInfo.html" target="_top" xlink:title=" ">
<polygon fill="white" stroke="#666666" points="726.5,-670 643.5,-670 643.5,-651 726.5,-651 726.5,-670"/>
<text text-anchor="middle" x="685" y="-658" font-family="Helvetica,sans-Serif" font-size="10.00">SCR_HintUIInfo</text>
</a>
</g>
</g>
<!-- Node6&#45;&gt;Node8 -->
<g id="edge7" class="edge">
<title>Node6&#45;&gt;Node8</title>
<path fill="none" stroke="#63b8ff" d="M550.41,-660.5C580.07,-660.5 615.97,-660.5 643.08,-660.5"/>
<polygon fill="#63b8ff" stroke="#63b8ff" points="550.79,-657 540.79,-660.5 550.79,-664 550.79,-657"/>
</g>
<!-- Node11 -->
<g id="node11" class="node">
<title>Node11</title>
<g id="a_node11"><a xlink:href="interfaceSCR__InventoryItemHintUIInfo.html" target="_top" xlink:title=" ">
<polygon fill="white" stroke="#666666" points="755,-633 615,-633 615,-614 755,-614 755,-633"/>
<text text-anchor="middle" x="685" y="-621" font-family="Helvetica,sans-Serif" font-size="10.00">SCR_InventoryItemHintUIInfo</text>
</a>
</g>
</g>
<!-- Node10&#45;&gt;Node11 -->
<g id="edge10" class="edge">
<title>Node10&#45;&gt;Node11</title>
<path fill="none" stroke="#63b8ff" d="M549.4,-597.15C575.74,-602.31 607.17,-608.46 633.04,-613.52"/>
<polygon fill="#63b8ff" stroke="#63b8ff" points="550.32,-593.57 539.84,-595.08 548.98,-600.44 550.32,-593.57"/>
</g>
<!-- Node12 -->
<g id="node12" class="node">
<title>Node12</title>
<g id="a_node12"><a xlink:href="interfaceSCR__BaseSupplyItemHintUIInfo.html" target="_top" xlink:title=" ">
<polygon fill="white" stroke="#666666" points="963,-688 808,-688 808,-669 963,-669 963,-688"/>
<text text-anchor="middle" x="885.5" y="-676" font-family="Helvetica,sans-Serif" font-size="10.00">SCR_BaseSupplyItemHintUIInfo</text>
</a>
</g>
</g>
<!-- Node11&#45;&gt;Node12 -->
<g id="edge11" class="edge">
<title>Node11&#45;&gt;Node12</title>
<path fill="none" stroke="#63b8ff" d="M751.12,-636.09C758.24,-638 765.32,-640.13 772,-642.5 788.86,-648.47 791.18,-654.41 808,-660.5 816.47,-663.57 825.65,-666.25 834.62,-668.54"/>
<polygon fill="#63b8ff" stroke="#63b8ff" points="752.26,-632.52 741.71,-633.46 750.54,-639.31 752.26,-632.52"/>
</g>
<!-- Node16 -->
<g id="node16" class="node">
<title>Node16</title>
<g id="a_node16"><a xlink:href="interfaceSCR__FuelItemHintsUIInfo.html" target="_top" xlink:title=" ">
<polygon fill="white" stroke="#666666" points="948.5,-651 822.5,-651 822.5,-632 948.5,-632 948.5,-651"/>
<text text-anchor="middle" x="885.5" y="-639" font-family="Helvetica,sans-Serif" font-size="10.00">SCR_FuelItemHintsUIInfo</text>
</a>
</g>
</g>
<!-- Node11&#45;&gt;Node16 -->
<g id="edge15" class="edge">
<title>Node11&#45;&gt;Node16</title>
<path fill="none" stroke="#63b8ff" d="M766.25,-630.78C784.85,-632.46 804.37,-634.23 822.08,-635.84"/>
<polygon fill="#63b8ff" stroke="#63b8ff" points="766.7,-627.21 756.43,-629.8 766.07,-634.18 766.7,-627.21"/>
</g>
<!-- Node17 -->
<g id="node17" class="node">
<title>Node17</title>
<g id="a_node17"><a xlink:href="interfaceSCR__SupplyCostItemHintUIInfo.html" target="_top" xlink:title=" ">
<polygon fill="white" stroke="#666666" points="961.5,-614 809.5,-614 809.5,-595 961.5,-595 961.5,-614"/>
<text text-anchor="middle" x="885.5" y="-602" font-family="Helvetica,sans-Serif" font-size="10.00">SCR_SupplyCostItemHintUIInfo</text>
</a>
</g>
</g>
<!-- Node11&#45;&gt;Node17 -->
<g id="edge16" class="edge">
<title>Node11&#45;&gt;Node17</title>
<path fill="none" stroke="#63b8ff" d="M766.13,-615.83C780.29,-614.47 795,-613.07 809.03,-611.72"/>
<polygon fill="#63b8ff" stroke="#63b8ff" points="766.05,-612.42 756.43,-616.85 766.71,-619.39 766.05,-612.42"/>
</g>
<!-- Node18 -->
<g id="node18" class="node">
<title>Node18</title>
<g id="a_node18"><a xlink:href="interfaceSCR__SupplyRefundItemHintUIInfo.html" target="_top" xlink:title=" ">
<polygon fill="white" stroke="#666666" points="954.5,-576.5 816.5,-576.5 816.5,-546.5 954.5,-546.5 954.5,-576.5"/>
<text text-anchor="start" x="824.5" y="-564.5" font-family="Helvetica,sans-Serif" font-size="10.00">SCR_SupplyRefundItemHint</text>
<text text-anchor="middle" x="885.5" y="-553.5" font-family="Helvetica,sans-Serif" font-size="10.00">UIInfo</text>
</a>
</g>
</g>
<!-- Node11&#45;&gt;Node18 -->
<g id="edge17" class="edge">
<title>Node11&#45;&gt;Node18</title>
<path fill="none" stroke="#63b8ff" d="M751.48,-610.97C758.48,-609.06 765.44,-606.91 772,-604.5 788.99,-598.27 791.3,-592.46 808,-585.5 815.32,-582.45 823.18,-579.57 830.97,-576.93"/>
<polygon fill="#63b8ff" stroke="#63b8ff" points="751.04,-607.73 742.23,-613.6 752.78,-614.51 751.04,-607.73"/>
</g>
<!-- Node13 -->
<g id="node13" class="node">
<title>Node13</title>
<g id="a_node13"><a xlink:href="interfaceSCR__SupplyAvailableItemHintUIInfo.html" target="_top" xlink:title=" ">
<polygon fill="white" stroke="#666666" points="1149.5,-736.5 1003.5,-736.5 1003.5,-706.5 1149.5,-706.5 1149.5,-736.5"/>
<text text-anchor="start" x="1011.5" y="-724.5" font-family="Helvetica,sans-Serif" font-size="10.00">SCR_SupplyAvailableItemHint</text>
<text text-anchor="middle" x="1076.5" y="-713.5" font-family="Helvetica,sans-Serif" font-size="10.00">UIInfo</text>
</a>
</g>
</g>
<!-- Node12&#45;&gt;Node13 -->
<g id="edge12" class="edge">
<title>Node12&#45;&gt;Node13</title>
<path fill="none" stroke="#63b8ff" d="M940.88,-690.87C961.64,-695.6 985.59,-701.04 1007.47,-706.02"/>
<polygon fill="#63b8ff" stroke="#63b8ff" points="941.86,-687.28 931.34,-688.47 940.31,-694.1 941.86,-687.28"/>
</g>
<!-- Node14 -->
<g id="node14" class="node">
<title>Node14</title>
<g id="a_node14"><a xlink:href="interfaceSCR__SupplyMoveItemHintUIInfo.html" target="_top" xlink:title=" ">
<polygon fill="white" stroke="#666666" points="1154,-688 999,-688 999,-669 1154,-669 1154,-688"/>
<text text-anchor="middle" x="1076.5" y="-676" font-family="Helvetica,sans-Serif" font-size="10.00">SCR_SupplyMoveItemHintUIInfo</text>
</a>
</g>
</g>
<!-- Node12&#45;&gt;Node14 -->
<g id="edge13" class="edge">
<title>Node12&#45;&gt;Node14</title>
<path fill="none" stroke="#63b8ff" d="M974.11,-678.5C982.32,-678.5 990.59,-678.5 998.69,-678.5"/>
<polygon fill="#63b8ff" stroke="#63b8ff" points="974.37,-675 964.37,-678.5 974.37,-682 974.37,-675"/>
</g>
<!-- Node15 -->
<g id="node15" class="node">
<title>Node15</title>
<g id="a_node15"><a xlink:href="interfaceSCR__SupplyStoredItemHintUIInfo.html" target="_top" xlink:title=" ">
<polygon fill="white" stroke="#666666" points="1145,-650.5 1008,-650.5 1008,-620.5 1145,-620.5 1145,-650.5"/>
<text text-anchor="start" x="1016" y="-638.5" font-family="Helvetica,sans-Serif" font-size="10.00">SCR_SupplyStoredItemHint</text>
<text text-anchor="middle" x="1076.5" y="-627.5" font-family="Helvetica,sans-Serif" font-size="10.00">UIInfo</text>
</a>
</g>
</g>
<!-- Node12&#45;&gt;Node15 -->
<g id="edge14" class="edge">
<title>Node12&#45;&gt;Node15</title>
<path fill="none" stroke="#63b8ff" d="M940.93,-666.12C961.8,-661.37 985.87,-655.89 1007.83,-650.89"/>
<polygon fill="#63b8ff" stroke="#63b8ff" points="940.31,-662.9 931.34,-668.53 941.86,-669.72 940.31,-662.9"/>
</g>
<!-- Node21 -->
<g id="node21" class="node">
<title>Node21</title>
<g id="a_node21"><a xlink:href="interfaceSCR__EditableCommentUIInfo.html" target="_top" xlink:title=" ">
<polygon fill="white" stroke="#666666" points="756.5,-596 613.5,-596 613.5,-577 756.5,-577 756.5,-596"/>
<text text-anchor="middle" x="685" y="-584" font-family="Helvetica,sans-Serif" font-size="10.00">SCR_EditableCommentUIInfo</text>
</a>
</g>
</g>
<!-- Node20&#45;&gt;Node21 -->
<g id="edge20" class="edge">
<title>Node20&#45;&gt;Node21</title>
<path fill="none" stroke="#63b8ff" d="M554.2,-526.45C556.89,-527.69 559.51,-529.04 562,-530.5 581.79,-542.11 577.96,-556.33 598,-567.5 604.68,-571.22 612.03,-574.21 619.53,-576.62"/>
<polygon fill="#63b8ff" stroke="#63b8ff" points="555.77,-522.91 545.19,-522.41 553.15,-529.4 555.77,-522.91"/>
</g>
<!-- Node22 -->
<g id="node22" class="node">
<title>Node22</title>
<g id="a_node22"><a xlink:href="interfaceSCR__EditableDescriptorUIInfo.html" target="_top" xlink:title=" ">
<polygon fill="white" stroke="#666666" points="758,-559 612,-559 612,-540 758,-540 758,-559"/>
<text text-anchor="middle" x="685" y="-547" font-family="Helvetica,sans-Serif" font-size="10.00">SCR_EditableDescriptorUIInfo</text>
</a>
</g>
</g>
<!-- Node20&#45;&gt;Node22 -->
<g id="edge21" class="edge">
<title>Node20&#45;&gt;Node22</title>
<path fill="none" stroke="#63b8ff" d="M556.42,-524.52C581.25,-529.38 609.57,-534.93 633.21,-539.56"/>
<polygon fill="#63b8ff" stroke="#63b8ff" points="557.13,-520.9 546.65,-522.42 555.79,-527.77 557.13,-520.9"/>
</g>
<!-- Node23 -->
<g id="node23" class="node">
<title>Node23</title>
<g id="a_node23"><a xlink:href="interfaceSCR__EditableGroupUIInfo.html" target="_top" xlink:title=" ">
<polygon fill="white" stroke="#666666" points="749,-522 621,-522 621,-503 749,-503 749,-522"/>
<text text-anchor="middle" x="685" y="-510" font-family="Helvetica,sans-Serif" font-size="10.00">SCR_EditableGroupUIInfo</text>
</a>
</g>
</g>
<!-- Node20&#45;&gt;Node23 -->
<g id="edge22" class="edge">
<title>Node20&#45;&gt;Node23</title>
<path fill="none" stroke="#63b8ff" d="M568.51,-512.5C585.75,-512.5 603.96,-512.5 620.7,-512.5"/>
<polygon fill="#63b8ff" stroke="#63b8ff" points="568.93,-509 558.93,-512.5 568.93,-516 568.93,-509"/>
</g>
<!-- Node24 -->
<g id="node24" class="node">
<title>Node24</title>
<g id="a_node24"><a xlink:href="interfaceSCR__EditableLinkedContentBrowserUIInfo.html" target="_top" xlink:title=" ">
<polygon fill="white" stroke="#666666" points="755,-484.5 615,-484.5 615,-454.5 755,-454.5 755,-484.5"/>
<text text-anchor="start" x="623" y="-472.5" font-family="Helvetica,sans-Serif" font-size="10.00">SCR_EditableLinkedContent</text>
<text text-anchor="middle" x="685" y="-461.5" font-family="Helvetica,sans-Serif" font-size="10.00">BrowserUIInfo</text>
</a>
</g>
</g>
<!-- Node20&#45;&gt;Node24 -->
<g id="edge23" class="edge">
<title>Node20&#45;&gt;Node24</title>
<path fill="none" stroke="#63b8ff" d="M549.38,-500.13C570.14,-495.4 594.09,-489.96 615.97,-484.98"/>
<polygon fill="#63b8ff" stroke="#63b8ff" points="548.81,-496.9 539.84,-502.53 550.36,-503.72 548.81,-496.9"/>
</g>
<!-- Node25 -->
<g id="node25" class="node">
<title>Node25</title>
<g id="a_node25"><a xlink:href="interfaceSCR__EditableVehicleUIInfo.html" target="_top" xlink:title=" ">
<polygon fill="white" stroke="#666666" points="752,-436 618,-436 618,-417 752,-417 752,-436"/>
<text text-anchor="middle" x="685" y="-424" font-family="Helvetica,sans-Serif" font-size="10.00">SCR_EditableVehicleUIInfo</text>
</a>
</g>
</g>
<!-- Node20&#45;&gt;Node25 -->
<g id="edge24" class="edge">
<title>Node20&#45;&gt;Node25</title>
<path fill="none" stroke="#63b8ff" d="M554.3,-498.1C556.98,-496.7 559.56,-495.17 562,-493.5 583.98,-478.4 575.58,-459.94 598,-445.5 604.04,-441.61 610.76,-438.5 617.71,-436.03"/>
<polygon fill="#63b8ff" stroke="#63b8ff" points="552.96,-495.31 545.26,-502.58 555.82,-501.7 552.96,-495.31"/>
</g>
<!-- Node33 -->
<g id="node33" class="node">
<title>Node33</title>
<g id="a_node33"><a xlink:href="interfaceSCR__EditorActionSelectionMenuEntry.html" target="_top" xlink:title="A wrapper class utilized by SCR_ActionsRadialMenuEditorComponent for creating a specialized Entry (SC...">
<polygon fill="white" stroke="#666666" points="753,-398.5 617,-398.5 617,-368.5 753,-368.5 753,-398.5"/>
<text text-anchor="start" x="625" y="-386.5" font-family="Helvetica,sans-Serif" font-size="10.00">SCR_EditorActionSelection</text>
<text text-anchor="middle" x="685" y="-375.5" font-family="Helvetica,sans-Serif" font-size="10.00">MenuEntry</text>
</a>
</g>
</g>
<!-- Node32&#45;&gt;Node33 -->
<g id="edge32" class="edge">
<title>Node32&#45;&gt;Node33</title>
<path fill="none" stroke="#63b8ff" d="M558.75,-268.89C559.87,-269.71 560.96,-270.58 562,-271.5 593.45,-299.11 566.84,-330.57 598,-358.5 603.44,-363.38 609.79,-367.31 616.51,-370.47"/>
<polygon fill="#63b8ff" stroke="#63b8ff" points="560.92,-265.51 550.54,-263.37 557.32,-271.51 560.92,-265.51"/>
</g>
<!-- Node34 -->
<g id="node34" class="node">
<title>Node34</title>
<g id="a_node34"><a xlink:href="interfaceSCR__ItemSelectionMenuEntry.html" target="_top" xlink:title=" ">
<polygon fill="white" stroke="#666666" points="759.5,-350 610.5,-350 610.5,-331 759.5,-331 759.5,-350"/>
<text text-anchor="middle" x="685" y="-338" font-family="Helvetica,sans-Serif" font-size="10.00">SCR_ItemSelectionMenuEntry</text>
</a>
</g>
</g>
<!-- Node32&#45;&gt;Node34 -->
<g id="edge33" class="edge">
<title>Node32&#45;&gt;Node34</title>
<path fill="none" stroke="#63b8ff" d="M556.55,-268.12C558.43,-269.17 560.25,-270.29 562,-271.5 584.53,-287.07 575.13,-306.45 598,-321.5 603.62,-325.2 609.85,-328.19 616.31,-330.6"/>
<polygon fill="#63b8ff" stroke="#63b8ff" points="558.28,-264.59 547.74,-263.47 555.28,-270.91 558.28,-264.59"/>
</g>
<!-- Node35 -->
<g id="node35" class="node">
<title>Node35</title>
<g id="a_node35"><a xlink:href="interfaceSCR__MapMarkerMenuEntry.html" target="_top" xlink:title="Base entry for marker selection menu.">
<polygon fill="white" stroke="#666666" points="754,-313 616,-313 616,-294 754,-294 754,-313"/>
<text text-anchor="middle" x="685" y="-301" font-family="Helvetica,sans-Serif" font-size="10.00">SCR_MapMarkerMenuEntry</text>
</a>
</g>
</g>
<!-- Node32&#45;&gt;Node35 -->
<g id="edge34" class="edge">
<title>Node32&#45;&gt;Node35</title>
<path fill="none" stroke="#63b8ff" d="M544.62,-266.33C550.5,-268 556.4,-269.74 562,-271.5 578.23,-276.6 581.66,-279.77 598,-284.5 609.46,-287.82 621.91,-290.88 633.7,-293.53"/>
<polygon fill="#63b8ff" stroke="#63b8ff" points="545.7,-262.72 535.13,-263.42 543.83,-269.46 545.7,-262.72"/>
</g>
<!-- Node36 -->
<g id="node36" class="node">
<title>Node36</title>
<g id="a_node36"><a xlink:href="interfaceSCR__MapMenuCommandingEntry.html" target="_top" xlink:title=" ">
<polygon fill="white" stroke="#666666" points="767.5,-276 602.5,-276 602.5,-257 767.5,-257 767.5,-276"/>
<text text-anchor="middle" x="685" y="-264" font-family="Helvetica,sans-Serif" font-size="10.00">SCR_MapMenuCommandingEntry</text>
</a>
</g>
</g>
<!-- Node32&#45;&gt;Node36 -->
<g id="edge35" class="edge">
<title>Node32&#45;&gt;Node36</title>
<path fill="none" stroke="#63b8ff" d="M570.1,-258.67C580.64,-259.39 591.53,-260.14 602.19,-260.87"/>
<polygon fill="#63b8ff" stroke="#63b8ff" points="570.47,-255.11 560.25,-257.92 569.99,-262.1 570.47,-255.11"/>
</g>
<!-- Node37 -->
<g id="node37" class="node">
<title>Node37</title>
<g id="a_node37"><a xlink:href="interfaceSCR__MapMenuRequestedTaskEntry.html" target="_top" xlink:title=" ">
<polygon fill="white" stroke="#666666" points="761,-238.5 609,-238.5 609,-208.5 761,-208.5 761,-238.5"/>
<text text-anchor="start" x="617" y="-226.5" font-family="Helvetica,sans-Serif" font-size="10.00">SCR_MapMenuRequestedTask</text>
<text text-anchor="middle" x="685" y="-215.5" font-family="Helvetica,sans-Serif" font-size="10.00">Entry</text>
</a>
</g>
</g>
<!-- Node32&#45;&gt;Node37 -->
<g id="edge36" class="edge">
<title>Node32&#45;&gt;Node37</title>
<path fill="none" stroke="#63b8ff" d="M568.75,-241.79C581.82,-239.72 595.44,-237.56 608.54,-235.48"/>
<polygon fill="#63b8ff" stroke="#63b8ff" points="568.26,-238.49 558.93,-243.51 569.36,-245.4 568.26,-238.49"/>
</g>
<!-- Node38 -->
<g id="node38" class="node">
<title>Node38</title>
<g id="a_node38"><a xlink:href="interfaceSCR__SelectionMenuCategoryEntry.html" target="_top" xlink:title="Scripted selection menu category, that can contain multiple entries.">
<polygon fill="white" stroke="#666666" points="758,-190.5 612,-190.5 612,-160.5 758,-160.5 758,-190.5"/>
<text text-anchor="start" x="620" y="-178.5" font-family="Helvetica,sans-Serif" font-size="10.00">SCR_SelectionMenuCategory</text>
<text text-anchor="middle" x="685" y="-167.5" font-family="Helvetica,sans-Serif" font-size="10.00">Entry</text>
</a>
</g>
</g>
<!-- Node32&#45;&gt;Node38 -->
<g id="edge37" class="edge">
<title>Node32&#45;&gt;Node38</title>
<path fill="none" stroke="#63b8ff" d="M551.79,-239.6C555.33,-238.07 558.76,-236.37 562,-234.5 581.32,-223.34 578.65,-210.62 598,-199.5 603.64,-196.26 609.75,-193.43 616.02,-190.97"/>
<polygon fill="#63b8ff" stroke="#63b8ff" points="550.71,-236.66 542.64,-243.52 553.23,-243.19 550.71,-236.66"/>
</g>
<!-- Node40 -->
<g id="node40" class="node">
<title>Node40</title>
<g id="a_node40"><a xlink:href="interfaceSCR__SelectionMenuEntryCommand.html" target="_top" xlink:title=" ">
<polygon fill="white" stroke="#666666" points="772,-142 598,-142 598,-123 772,-123 772,-142"/>
<text text-anchor="middle" x="685" y="-130" font-family="Helvetica,sans-Serif" font-size="10.00">SCR_SelectionMenuEntryCommand</text>
</a>
</g>
</g>
<!-- Node32&#45;&gt;Node40 -->
<g id="edge39" class="edge">
<title>Node32&#45;&gt;Node40</title>
<path fill="none" stroke="#63b8ff" d="M557.03,-238.33C558.77,-237.15 560.43,-235.87 562,-234.5 592.26,-208.02 566.98,-177.08 598,-151.5 602.48,-147.8 607.53,-144.79 612.88,-142.33"/>
<polygon fill="#63b8ff" stroke="#63b8ff" points="555.83,-235.55 548.84,-243.51 559.27,-241.65 555.83,-235.55"/>
</g>
<!-- Node41 -->
<g id="node41" class="node">
<title>Node41</title>
<g id="a_node41"><a xlink:href="interfaceSCR__VONEntry.html" target="_top" xlink:title="Voice over network entry data class, used for management of communication methods.">
<polygon fill="white" stroke="#666666" points="728,-105 642,-105 642,-86 728,-86 728,-105"/>
<text text-anchor="middle" x="685" y="-93" font-family="Helvetica,sans-Serif" font-size="10.00">SCR_VONEntry</text>
</a>
</g>
</g>
<!-- Node32&#45;&gt;Node41 -->
<g id="edge40" class="edge">
<title>Node32&#45;&gt;Node41</title>
<path fill="none" stroke="#63b8ff" d="M558.35,-237.73C559.62,-236.72 560.84,-235.64 562,-234.5 601.93,-195.08 556.72,-151.5 598,-113.5 609.78,-102.65 626.37,-97.68 641.84,-95.58"/>
<polygon fill="#63b8ff" stroke="#63b8ff" points="556.83,-235.18 550.28,-243.51 560.59,-241.09 556.83,-235.18"/>
</g>
<!-- Node39 -->
<g id="node39" class="node">
<title>Node39</title>
<g id="a_node39"><a xlink:href="interfaceSCR__MapMarkerMenuCategory.html" target="_top" xlink:title="Base category entry for marker selection menu.">
<polygon fill="white" stroke="#666666" points="962.5,-185 808.5,-185 808.5,-166 962.5,-166 962.5,-185"/>
<text text-anchor="middle" x="885.5" y="-173" font-family="Helvetica,sans-Serif" font-size="10.00">SCR_MapMarkerMenuCategory</text>
</a>
</g>
</g>
<!-- Node38&#45;&gt;Node39 -->
<g id="edge38" class="edge">
<title>Node38&#45;&gt;Node39</title>
<path fill="none" stroke="#63b8ff" d="M769.05,-175.5C782.07,-175.5 795.47,-175.5 808.32,-175.5"/>
<polygon fill="#63b8ff" stroke="#63b8ff" points="769.22,-172 759.22,-175.5 769.22,-179 769.22,-172"/>
</g>
<!-- Node42 -->
<g id="node42" class="node">
<title>Node42</title>
<g id="a_node42"><a xlink:href="interfaceSCR__VONEntryRadio.html" target="_top" xlink:title="VONEntry class for radio entries.">
<polygon fill="white" stroke="#666666" points="941,-105 830,-105 830,-86 941,-86 941,-105"/>
<text text-anchor="middle" x="885.5" y="-93" font-family="Helvetica,sans-Serif" font-size="10.00">SCR_VONEntryRadio</text>
</a>
</g>
</g>
<!-- Node41&#45;&gt;Node42 -->
<g id="edge41" class="edge">
<title>Node41&#45;&gt;Node42</title>
<path fill="none" stroke="#63b8ff" d="M738.89,-95.5C766.92,-95.5 801.32,-95.5 829.63,-95.5"/>
<polygon fill="#63b8ff" stroke="#63b8ff" points="739.1,-92 729.1,-95.5 739.1,-99 739.1,-92"/>
</g>
<!-- Node45 -->
<g id="node45" class="node">
<title>Node45</title>
<g id="a_node45"><a xlink:href="interfaceSCR__ColoredTextNotificationUIInfo.html" target="_top" xlink:title=" ">
<polygon fill="white" stroke="#666666" points="756,-67.5 614,-67.5 614,-37.5 756,-37.5 756,-67.5"/>
<text text-anchor="start" x="622" y="-55.5" font-family="Helvetica,sans-Serif" font-size="10.00">SCR_ColoredTextNotification</text>
<text text-anchor="middle" x="685" y="-44.5" font-family="Helvetica,sans-Serif" font-size="10.00">UIInfo</text>
</a>
</g>
</g>
<!-- Node44&#45;&gt;Node45 -->
<g id="edge44" class="edge">
<title>Node44&#45;&gt;Node45</title>
<path fill="none" stroke="#63b8ff" d="M557.04,-164.34C558.77,-163.15 560.43,-161.88 562,-160.5 592.51,-133.68 567.44,-103.25 598,-76.5 602.67,-72.42 607.97,-69.02 613.61,-66.2"/>
<polygon fill="#63b8ff" stroke="#63b8ff" points="555.84,-161.56 548.85,-169.53 559.28,-167.66 555.84,-161.56"/>
</g>
<!-- Node46 -->
<g id="node46" class="node">
<title>Node46</title>
<g id="a_node46"><a xlink:href="interfaceSCR__SplitNotificationUIInfo.html" target="_top" xlink:title=" ">
<polygon fill="white" stroke="#666666" points="752,-19 618,-19 618,0 752,0 752,-19"/>
<text text-anchor="middle" x="685" y="-7" font-family="Helvetica,sans-Serif" font-size="10.00">SCR_SplitNotificationUIInfo</text>
</a>
</g>
</g>
<!-- Node44&#45;&gt;Node46 -->
<g id="edge45" class="edge">
<title>Node44&#45;&gt;Node46</title>
<path fill="none" stroke="#63b8ff" d="M558.39,-163.76C559.65,-162.74 560.86,-161.65 562,-160.5 604.78,-117.29 553.96,-70.44 598,-28.5 603.65,-23.12 610.46,-19.13 617.74,-16.19"/>
<polygon fill="#63b8ff" stroke="#63b8ff" points="556.86,-161.23 550.37,-169.6 560.66,-167.1 556.86,-161.23"/>
</g>
</g>
</svg>
