<?xml version="1.0" encoding="UTF-8" standalone="no"?>
<!DOCTYPE svg PUBLIC "-//W3C//DTD SVG 1.1//EN"
 "http://www.w3.org/Graphics/SVG/1.1/DTD/svg11.dtd">
<!-- Generated by graphviz version 8.0.2 (20230410.1723)
 -->
<!-- Title: SCR_OpenTurretStorageAction Pages: 1 -->
<svg width="167pt" height="302pt"
 viewBox="0.00 0.00 167.00 302.00" xmlns="http://www.w3.org/2000/svg" xmlns:xlink="http://www.w3.org/1999/xlink">
<g id="graph0" class="graph" transform="scale(1 1) rotate(0) translate(4 298)">
<title>SCR_OpenTurretStorageAction</title>
<!-- Node1 -->
<g id="node1" class="node">
<title>Node1</title>
<g id="a_node1"><a xlink:title=" ">
<polygon fill="#999999" stroke="#666666" points="155.5,-19 3.5,-19 3.5,0 155.5,0 155.5,-19"/>
<text text-anchor="middle" x="79.5" y="-7" font-family="Helvetica,sans-Serif" font-size="10.00">SCR_OpenTurretStorageAction</text>
</a>
</g>
</g>
<!-- Node2 -->
<g id="node2" class="node">
<title>Node2</title>
<g id="a_node2"><a xlink:href="interfaceSCR__OpenVehicleStorageAction.html" target="_top" xlink:title=" ">
<polygon fill="white" stroke="#666666" points="159,-74 0,-74 0,-55 159,-55 159,-74"/>
<text text-anchor="middle" x="79.5" y="-62" font-family="Helvetica,sans-Serif" font-size="10.00">SCR_OpenVehicleStorageAction</text>
</a>
</g>
</g>
<!-- Node2&#45;&gt;Node1 -->
<g id="edge1" class="edge">
<title>Node2&#45;&gt;Node1</title>
<path fill="none" stroke="#63b8ff" d="M79.5,-43.93C79.5,-35.53 79.5,-26.13 79.5,-19.44"/>
<polygon fill="#63b8ff" stroke="#63b8ff" points="76,-43.75 79.5,-53.75 83,-43.75 76,-43.75"/>
</g>
<!-- Node3 -->
<g id="node3" class="node">
<title>Node3</title>
<g id="a_node3"><a xlink:href="interfaceSCR__InventoryAction.html" target="_top" xlink:title="modded version for to be used with the inventory 2.0">
<polygon fill="white" stroke="#666666" points="133.5,-129 25.5,-129 25.5,-110 133.5,-110 133.5,-129"/>
<text text-anchor="middle" x="79.5" y="-117" font-family="Helvetica,sans-Serif" font-size="10.00">SCR_InventoryAction</text>
</a>
</g>
</g>
<!-- Node3&#45;&gt;Node2 -->
<g id="edge2" class="edge">
<title>Node3&#45;&gt;Node2</title>
<path fill="none" stroke="#63b8ff" d="M79.5,-98.93C79.5,-90.53 79.5,-81.13 79.5,-74.44"/>
<polygon fill="#63b8ff" stroke="#63b8ff" points="76,-98.75 79.5,-108.75 83,-98.75 76,-98.75"/>
</g>
<!-- Node4 -->
<g id="node4" class="node">
<title>Node4</title>
<g id="a_node4"><a xlink:href="interfaceScriptedUserAction.html" target="_top" xlink:title=" ">
<polygon fill="white" stroke="#666666" points="130,-184 29,-184 29,-165 130,-165 130,-184"/>
<text text-anchor="middle" x="79.5" y="-172" font-family="Helvetica,sans-Serif" font-size="10.00">ScriptedUserAction</text>
</a>
</g>
</g>
<!-- Node4&#45;&gt;Node3 -->
<g id="edge3" class="edge">
<title>Node4&#45;&gt;Node3</title>
<path fill="none" stroke="#63b8ff" d="M79.5,-153.93C79.5,-145.53 79.5,-136.13 79.5,-129.44"/>
<polygon fill="#63b8ff" stroke="#63b8ff" points="76,-153.75 79.5,-163.75 83,-153.75 76,-153.75"/>
</g>
<!-- Node5 -->
<g id="node5" class="node">
<title>Node5</title>
<g id="a_node5"><a xlink:href="interfaceBaseUserAction.html" target="_top" xlink:title=" ">
<polygon fill="white" stroke="#666666" points="123,-239 36,-239 36,-220 123,-220 123,-239"/>
<text text-anchor="middle" x="79.5" y="-227" font-family="Helvetica,sans-Serif" font-size="10.00">BaseUserAction</text>
</a>
</g>
</g>
<!-- Node5&#45;&gt;Node4 -->
<g id="edge4" class="edge">
<title>Node5&#45;&gt;Node4</title>
<path fill="none" stroke="#63b8ff" d="M79.5,-208.93C79.5,-200.53 79.5,-191.13 79.5,-184.44"/>
<polygon fill="#63b8ff" stroke="#63b8ff" points="76,-208.75 79.5,-218.75 83,-208.75 76,-208.75"/>
</g>
<!-- Node6 -->
<g id="node6" class="node">
<title>Node6</title>
<g id="a_node6"><a xlink:title=" ">
<polygon fill="white" stroke="#666666" points="122.5,-294 36.5,-294 36.5,-275 122.5,-275 122.5,-294"/>
<text text-anchor="middle" x="79.5" y="-282" font-family="Helvetica,sans-Serif" font-size="10.00">ScriptAndConfig</text>
</a>
</g>
</g>
<!-- Node6&#45;&gt;Node5 -->
<g id="edge5" class="edge">
<title>Node6&#45;&gt;Node5</title>
<path fill="none" stroke="#63b8ff" d="M79.5,-263.93C79.5,-255.53 79.5,-246.13 79.5,-239.44"/>
<polygon fill="#63b8ff" stroke="#63b8ff" points="76,-263.75 79.5,-273.75 83,-263.75 76,-263.75"/>
</g>
</g>
</svg>
