<?xml version="1.0" encoding="UTF-8" standalone="no"?>
<!DOCTYPE svg PUBLIC "-//W3C//DTD SVG 1.1//EN"
 "http://www.w3.org/Graphics/SVG/1.1/DTD/svg11.dtd">
<!-- Generated by graphviz version 8.0.2 (20230410.1723)
 -->
<!-- Title: SCR_ScenarioFrameworkLogicClass Pages: 1 -->
<svg width="485pt" height="134pt"
 viewBox="0.00 0.00 485.00 134.00" xmlns="http://www.w3.org/2000/svg" xmlns:xlink="http://www.w3.org/1999/xlink">
<g id="graph0" class="graph" transform="scale(1 1) rotate(0) translate(4 130)">
<title>SCR_ScenarioFrameworkLogicClass</title>
<!-- Node1 -->
<g id="node1" class="node">
<title>Node1</title>
<g id="a_node1"><a xlink:title=" ">
<polygon fill="#999999" stroke="#666666" points="289,-78 137,-78 137,-48 289,-48 289,-78"/>
<text text-anchor="start" x="145" y="-66" font-family="Helvetica,sans-Serif" font-size="10.00">SCR_ScenarioFrameworkLogic</text>
<text text-anchor="middle" x="213" y="-55" font-family="Helvetica,sans-Serif" font-size="10.00">Class</text>
</a>
</g>
</g>
<!-- Node3 -->
<g id="node3" class="node">
<title>Node3</title>
<g id="a_node3"><a xlink:href="interfaceSCR__ScenarioFrameworkLogicCounterClass.html" target="_top" xlink:title=" ">
<polygon fill="white" stroke="#666666" points="477,-126 325,-126 325,-96 477,-96 477,-126"/>
<text text-anchor="start" x="333" y="-114" font-family="Helvetica,sans-Serif" font-size="10.00">SCR_ScenarioFrameworkLogic</text>
<text text-anchor="middle" x="401" y="-103" font-family="Helvetica,sans-Serif" font-size="10.00">CounterClass</text>
</a>
</g>
</g>
<!-- Node1&#45;&gt;Node3 -->
<g id="edge2" class="edge">
<title>Node1&#45;&gt;Node3</title>
<path fill="none" stroke="#63b8ff" d="M284.52,-81.2C302.88,-85.94 322.49,-91 340.24,-95.58"/>
<polygon fill="#63b8ff" stroke="#63b8ff" points="285.43,-77.56 274.88,-78.45 283.68,-84.34 285.43,-77.56"/>
</g>
<!-- Node4 -->
<g id="node4" class="node">
<title>Node4</title>
<g id="a_node4"><a xlink:href="interfaceSCR__ScenarioFrameworkLogicORClass.html" target="_top" xlink:title=" ">
<polygon fill="white" stroke="#666666" points="477,-78 325,-78 325,-48 477,-48 477,-78"/>
<text text-anchor="start" x="333" y="-66" font-family="Helvetica,sans-Serif" font-size="10.00">SCR_ScenarioFrameworkLogic</text>
<text text-anchor="middle" x="401" y="-55" font-family="Helvetica,sans-Serif" font-size="10.00">ORClass</text>
</a>
</g>
</g>
<!-- Node1&#45;&gt;Node4 -->
<g id="edge3" class="edge">
<title>Node1&#45;&gt;Node4</title>
<path fill="none" stroke="#63b8ff" d="M300.33,-63C308.4,-63 316.54,-63 324.51,-63"/>
<polygon fill="#63b8ff" stroke="#63b8ff" points="300.39,-59.5 290.39,-63 300.39,-66.5 300.39,-59.5"/>
</g>
<!-- Node5 -->
<g id="node5" class="node">
<title>Node5</title>
<g id="a_node5"><a xlink:href="interfaceSCR__ScenarioFrameworkLogicSwitchClass.html" target="_top" xlink:title=" ">
<polygon fill="white" stroke="#666666" points="477,-30 325,-30 325,0 477,0 477,-30"/>
<text text-anchor="start" x="333" y="-18" font-family="Helvetica,sans-Serif" font-size="10.00">SCR_ScenarioFrameworkLogic</text>
<text text-anchor="middle" x="401" y="-7" font-family="Helvetica,sans-Serif" font-size="10.00">SwitchClass</text>
</a>
</g>
</g>
<!-- Node1&#45;&gt;Node5 -->
<g id="edge4" class="edge">
<title>Node1&#45;&gt;Node5</title>
<path fill="none" stroke="#63b8ff" d="M284.52,-44.8C302.88,-40.06 322.49,-35 340.24,-30.42"/>
<polygon fill="#63b8ff" stroke="#63b8ff" points="283.68,-41.66 274.88,-47.55 285.43,-48.44 283.68,-41.66"/>
</g>
<!-- Node2 -->
<g id="node2" class="node">
<title>Node2</title>
<g id="a_node2"><a xlink:title=" ">
<polygon fill="white" stroke="#666666" points="101,-72.5 0,-72.5 0,-53.5 101,-53.5 101,-72.5"/>
<text text-anchor="middle" x="50.5" y="-60.5" font-family="Helvetica,sans-Serif" font-size="10.00">GenericEntityClass</text>
</a>
</g>
</g>
<!-- Node2&#45;&gt;Node1 -->
<g id="edge1" class="edge">
<title>Node2&#45;&gt;Node1</title>
<path fill="none" stroke="#63b8ff" d="M112.17,-63C120.21,-63 128.54,-63 136.79,-63"/>
<polygon fill="#63b8ff" stroke="#63b8ff" points="112.4,-59.5 102.4,-63 112.4,-66.5 112.4,-59.5"/>
</g>
</g>
</svg>
