<?xml version="1.0" encoding="UTF-8" standalone="no"?>
<!DOCTYPE svg PUBLIC "-//W3C//DTD SVG 1.1//EN"
 "http://www.w3.org/Graphics/SVG/1.1/DTD/svg11.dtd">
<!-- Generated by graphviz version 8.0.2 (20230410.1723)
 -->
<!-- Title: SCR_CharacterBuoyancyComponent Pages: 1 -->
<svg width="185pt" height="192pt"
 viewBox="0.00 0.00 185.00 192.00" xmlns="http://www.w3.org/2000/svg" xmlns:xlink="http://www.w3.org/1999/xlink">
<g id="graph0" class="graph" transform="scale(1 1) rotate(0) translate(4 188)">
<title>SCR_CharacterBuoyancyComponent</title>
<!-- Node1 -->
<g id="node1" class="node">
<title>Node1</title>
<g id="a_node1"><a xlink:title=" ">
<polygon fill="#999999" stroke="#666666" points="177,-19 0,-19 0,0 177,0 177,-19"/>
<text text-anchor="middle" x="88.5" y="-7" font-family="Helvetica,sans-Serif" font-size="10.00">SCR_CharacterBuoyancyComponent</text>
</a>
</g>
</g>
<!-- Node2 -->
<g id="node2" class="node">
<title>Node2</title>
<g id="a_node2"><a xlink:href="interfaceCharacterBuoyancyComponent.html" target="_top" xlink:title=" ">
<polygon fill="white" stroke="#666666" points="164.5,-74 12.5,-74 12.5,-55 164.5,-55 164.5,-74"/>
<text text-anchor="middle" x="88.5" y="-62" font-family="Helvetica,sans-Serif" font-size="10.00">CharacterBuoyancyComponent</text>
</a>
</g>
</g>
<!-- Node2&#45;&gt;Node1 -->
<g id="edge1" class="edge">
<title>Node2&#45;&gt;Node1</title>
<path fill="none" stroke="#63b8ff" d="M88.5,-43.93C88.5,-35.53 88.5,-26.13 88.5,-19.44"/>
<polygon fill="#63b8ff" stroke="#63b8ff" points="85,-43.75 88.5,-53.75 92,-43.75 85,-43.75"/>
</g>
<!-- Node3 -->
<g id="node3" class="node">
<title>Node3</title>
<g id="a_node3"><a xlink:href="interfaceBuoyancyComponent.html" target="_top" xlink:title=" ">
<polygon fill="white" stroke="#666666" points="143.5,-129 33.5,-129 33.5,-110 143.5,-110 143.5,-129"/>
<text text-anchor="middle" x="88.5" y="-117" font-family="Helvetica,sans-Serif" font-size="10.00">BuoyancyComponent</text>
</a>
</g>
</g>
<!-- Node3&#45;&gt;Node2 -->
<g id="edge2" class="edge">
<title>Node3&#45;&gt;Node2</title>
<path fill="none" stroke="#63b8ff" d="M88.5,-98.93C88.5,-90.53 88.5,-81.13 88.5,-74.44"/>
<polygon fill="#63b8ff" stroke="#63b8ff" points="85,-98.75 88.5,-108.75 92,-98.75 85,-98.75"/>
</g>
<!-- Node4 -->
<g id="node4" class="node">
<title>Node4</title>
<g id="a_node4"><a xlink:title=" ">
<polygon fill="white" stroke="#666666" points="138.5,-184 38.5,-184 38.5,-165 138.5,-165 138.5,-184"/>
<text text-anchor="middle" x="88.5" y="-172" font-family="Helvetica,sans-Serif" font-size="10.00">GenericComponent</text>
</a>
</g>
</g>
<!-- Node4&#45;&gt;Node3 -->
<g id="edge3" class="edge">
<title>Node4&#45;&gt;Node3</title>
<path fill="none" stroke="#63b8ff" d="M88.5,-153.93C88.5,-145.53 88.5,-136.13 88.5,-129.44"/>
<polygon fill="#63b8ff" stroke="#63b8ff" points="85,-153.75 88.5,-163.75 92,-153.75 85,-153.75"/>
</g>
</g>
</svg>
