<?xml version="1.0" encoding="UTF-8" standalone="no"?>
<!DOCTYPE svg PUBLIC "-//W3C//DTD SVG 1.1//EN"
 "http://www.w3.org/Graphics/SVG/1.1/DTD/svg11.dtd">
<!-- Generated by graphviz version 8.0.2 (20230410.1723)
 -->
<!-- Title: SCR_BaseTooltipEditorUIComponent Pages: 1 -->
<svg width="388pt" height="247pt"
 viewBox="0.00 0.00 388.00 247.00" xmlns="http://www.w3.org/2000/svg" xmlns:xlink="http://www.w3.org/1999/xlink">
<g id="graph0" class="graph" transform="scale(1 1) rotate(0) translate(4 243)">
<title>SCR_BaseTooltipEditorUIComponent</title>
<!-- Node1 -->
<g id="node1" class="node">
<title>Node1</title>
<g id="a_node1"><a xlink:title=" ">
<polygon fill="#999999" stroke="#666666" points="278.5,-74 101.5,-74 101.5,-55 278.5,-55 278.5,-74"/>
<text text-anchor="middle" x="190" y="-62" font-family="Helvetica,sans-Serif" font-size="10.00">SCR_BaseTooltipEditorUIComponent</text>
</a>
</g>
</g>
<!-- Node5 -->
<g id="node5" class="node">
<title>Node5</title>
<g id="a_node5"><a xlink:href="interfaceSCR__ActionTooltipEditorUIComponent.html" target="_top" xlink:title=" ">
<polygon fill="white" stroke="#666666" points="182,-19 0,-19 0,0 182,0 182,-19"/>
<text text-anchor="middle" x="91" y="-7" font-family="Helvetica,sans-Serif" font-size="10.00">SCR_ActionTooltipEditorUIComponent</text>
</a>
</g>
</g>
<!-- Node1&#45;&gt;Node5 -->
<g id="edge4" class="edge">
<title>Node1&#45;&gt;Node5</title>
<path fill="none" stroke="#63b8ff" d="M163.66,-49.4C145.84,-39.86 122.85,-27.55 107.55,-19.36"/>
<polygon fill="#63b8ff" stroke="#63b8ff" points="161.74,-52.88 172.21,-54.51 165.04,-46.7 161.74,-52.88"/>
</g>
<!-- Node6 -->
<g id="node6" class="node">
<title>Node6</title>
<g id="a_node6"><a xlink:href="interfaceSCR__EntityTooltipEditorUIComponent.html" target="_top" xlink:title=" ">
<polygon fill="white" stroke="#666666" points="380,-19 200,-19 200,0 380,0 380,-19"/>
<text text-anchor="middle" x="290" y="-7" font-family="Helvetica,sans-Serif" font-size="10.00">SCR_EntityTooltipEditorUIComponent</text>
</a>
</g>
</g>
<!-- Node1&#45;&gt;Node6 -->
<g id="edge5" class="edge">
<title>Node1&#45;&gt;Node6</title>
<path fill="none" stroke="#63b8ff" d="M216.6,-49.4C234.61,-39.86 257.83,-27.55 273.29,-19.36"/>
<polygon fill="#63b8ff" stroke="#63b8ff" points="215.16,-46.73 207.96,-54.51 218.44,-52.92 215.16,-46.73"/>
</g>
<!-- Node2 -->
<g id="node2" class="node">
<title>Node2</title>
<g id="a_node2"><a xlink:href="interfaceSCR__BaseEditorUIComponent.html" target="_top" xlink:title=" ">
<polygon fill="white" stroke="#666666" points="264.5,-129 115.5,-129 115.5,-110 264.5,-110 264.5,-129"/>
<text text-anchor="middle" x="190" y="-117" font-family="Helvetica,sans-Serif" font-size="10.00">SCR_BaseEditorUIComponent</text>
</a>
</g>
</g>
<!-- Node2&#45;&gt;Node1 -->
<g id="edge1" class="edge">
<title>Node2&#45;&gt;Node1</title>
<path fill="none" stroke="#63b8ff" d="M190,-98.93C190,-90.53 190,-81.13 190,-74.44"/>
<polygon fill="#63b8ff" stroke="#63b8ff" points="186.5,-98.75 190,-108.75 193.5,-98.75 186.5,-98.75"/>
</g>
<!-- Node3 -->
<g id="node3" class="node">
<title>Node3</title>
<g id="a_node3"><a xlink:href="interfaceMenuRootSubComponent.html" target="_top" xlink:title="Widget component which is linked to menu it&#39;s part of.">
<polygon fill="white" stroke="#666666" points="254,-184 126,-184 126,-165 254,-165 254,-184"/>
<text text-anchor="middle" x="190" y="-172" font-family="Helvetica,sans-Serif" font-size="10.00">MenuRootSubComponent</text>
</a>
</g>
</g>
<!-- Node3&#45;&gt;Node2 -->
<g id="edge2" class="edge">
<title>Node3&#45;&gt;Node2</title>
<path fill="none" stroke="#63b8ff" d="M190,-153.93C190,-145.53 190,-136.13 190,-129.44"/>
<polygon fill="#63b8ff" stroke="#63b8ff" points="186.5,-153.75 190,-163.75 193.5,-153.75 186.5,-153.75"/>
</g>
<!-- Node4 -->
<g id="node4" class="node">
<title>Node4</title>
<g id="a_node4"><a xlink:title=" ">
<polygon fill="white" stroke="#666666" points="256.5,-239 123.5,-239 123.5,-220 256.5,-220 256.5,-239"/>
<text text-anchor="middle" x="190" y="-227" font-family="Helvetica,sans-Serif" font-size="10.00">ScriptedWidgetComponent</text>
</a>
</g>
</g>
<!-- Node4&#45;&gt;Node3 -->
<g id="edge3" class="edge">
<title>Node4&#45;&gt;Node3</title>
<path fill="none" stroke="#63b8ff" d="M190,-208.93C190,-200.53 190,-191.13 190,-184.44"/>
<polygon fill="#63b8ff" stroke="#63b8ff" points="186.5,-208.75 190,-218.75 193.5,-208.75 186.5,-208.75"/>
</g>
</g>
</svg>
