<?xml version="1.0" encoding="UTF-8" standalone="no"?>
<!DOCTYPE svg PUBLIC "-//W3C//DTD SVG 1.1//EN"
 "http://www.w3.org/Graphics/SVG/1.1/DTD/svg11.dtd">
<!-- Generated by graphviz version 8.0.2 (20230410.1723)
 -->
<!-- Title: CharacterCamera1stPerson Pages: 1 -->
<svg width="948pt" height="268pt"
 viewBox="0.00 0.00 948.00 267.50" xmlns="http://www.w3.org/2000/svg" xmlns:xlink="http://www.w3.org/1999/xlink">
<g id="graph0" class="graph" transform="scale(1 1) rotate(0) translate(4 263.5)">
<title>CharacterCamera1stPerson</title>
<!-- Node1 -->
<g id="node1" class="node">
<title>Node1</title>
<g id="a_node1"><a xlink:title=" ">
<polygon fill="#999999" stroke="#666666" points="593,-134 456,-134 456,-115 593,-115 593,-134"/>
<text text-anchor="middle" x="524.5" y="-122" font-family="Helvetica,sans-Serif" font-size="10.00">CharacterCamera1stPerson</text>
</a>
</g>
</g>
<!-- Node5 -->
<g id="node5" class="node">
<title>Node5</title>
<g id="a_node5"><a xlink:href="interfaceCharacterCamera1stPersonBoneTransform.html" target="_top" xlink:title=" ">
<polygon fill="white" stroke="#666666" points="766.5,-259.5 629.5,-259.5 629.5,-229.5 766.5,-229.5 766.5,-259.5"/>
<text text-anchor="start" x="637.5" y="-247.5" font-family="Helvetica,sans-Serif" font-size="10.00">CharacterCamera1stPerson</text>
<text text-anchor="middle" x="698" y="-236.5" font-family="Helvetica,sans-Serif" font-size="10.00">BoneTransform</text>
</a>
</g>
</g>
<!-- Node1&#45;&gt;Node5 -->
<g id="edge4" class="edge">
<title>Node1&#45;&gt;Node5</title>
<path fill="none" stroke="#63b8ff" d="M540.7,-142.52C559.5,-163.79 593.39,-198.98 629,-220.5 634.25,-223.67 639.98,-226.51 645.82,-229.02"/>
<polygon fill="#63b8ff" stroke="#63b8ff" points="542.81,-140.6 533.61,-135.34 537.52,-145.19 542.81,-140.6"/>
</g>
<!-- Node6 -->
<g id="node6" class="node">
<title>Node6</title>
<g id="a_node6"><a xlink:href="interfaceCharacterCamera1stPersonReady.html" target="_top" xlink:title=" ">
<polygon fill="white" stroke="#666666" points="766.5,-211.5 629.5,-211.5 629.5,-181.5 766.5,-181.5 766.5,-211.5"/>
<text text-anchor="start" x="637.5" y="-199.5" font-family="Helvetica,sans-Serif" font-size="10.00">CharacterCamera1stPerson</text>
<text text-anchor="middle" x="698" y="-188.5" font-family="Helvetica,sans-Serif" font-size="10.00">Ready</text>
</a>
</g>
</g>
<!-- Node1&#45;&gt;Node6 -->
<g id="edge5" class="edge">
<title>Node1&#45;&gt;Node6</title>
<path fill="none" stroke="#63b8ff" d="M555.18,-139.18C575.7,-149.1 603.73,-162.21 629,-172.5 636.19,-175.43 643.88,-178.35 651.42,-181.09"/>
<polygon fill="#63b8ff" stroke="#63b8ff" points="557,-135.69 546.48,-134.45 553.94,-141.98 557,-135.69"/>
</g>
<!-- Node8 -->
<g id="node8" class="node">
<title>Node8</title>
<g id="a_node8"><a xlink:href="interfaceCharacterCamera1stPersonTurret.html" target="_top" xlink:title=" ">
<polygon fill="white" stroke="#666666" points="766.5,-163.5 629.5,-163.5 629.5,-133.5 766.5,-133.5 766.5,-163.5"/>
<text text-anchor="start" x="637.5" y="-151.5" font-family="Helvetica,sans-Serif" font-size="10.00">CharacterCamera1stPerson</text>
<text text-anchor="middle" x="698" y="-140.5" font-family="Helvetica,sans-Serif" font-size="10.00">Turret</text>
</a>
</g>
</g>
<!-- Node1&#45;&gt;Node8 -->
<g id="edge7" class="edge">
<title>Node1&#45;&gt;Node8</title>
<path fill="none" stroke="#63b8ff" d="M604.17,-135.51C612.51,-136.68 620.95,-137.86 629.15,-139"/>
<polygon fill="#63b8ff" stroke="#63b8ff" points="604.67,-131.91 594.28,-133.99 603.7,-138.84 604.67,-131.91"/>
</g>
<!-- Node9 -->
<g id="node9" class="node">
<title>Node9</title>
<g id="a_node9"><a xlink:href="interfaceCharacterCamera1stPersonUnconscious.html" target="_top" xlink:title=" ">
<polygon fill="white" stroke="#666666" points="766.5,-115.5 629.5,-115.5 629.5,-85.5 766.5,-85.5 766.5,-115.5"/>
<text text-anchor="start" x="637.5" y="-103.5" font-family="Helvetica,sans-Serif" font-size="10.00">CharacterCamera1stPerson</text>
<text text-anchor="middle" x="698" y="-92.5" font-family="Helvetica,sans-Serif" font-size="10.00">Unconscious</text>
</a>
</g>
</g>
<!-- Node1&#45;&gt;Node9 -->
<g id="edge8" class="edge">
<title>Node1&#45;&gt;Node9</title>
<path fill="none" stroke="#63b8ff" d="M604.17,-113.49C612.51,-112.32 620.95,-111.14 629.15,-110"/>
<polygon fill="#63b8ff" stroke="#63b8ff" points="603.7,-110.16 594.28,-115.01 604.67,-117.09 603.7,-110.16"/>
</g>
<!-- Node10 -->
<g id="node10" class="node">
<title>Node10</title>
<g id="a_node10"><a xlink:href="interfaceCharacterCamera1stPersonVehicle.html" target="_top" xlink:title=" ">
<polygon fill="white" stroke="#666666" points="766.5,-67.5 629.5,-67.5 629.5,-37.5 766.5,-37.5 766.5,-67.5"/>
<text text-anchor="start" x="637.5" y="-55.5" font-family="Helvetica,sans-Serif" font-size="10.00">CharacterCamera1stPerson</text>
<text text-anchor="middle" x="698" y="-44.5" font-family="Helvetica,sans-Serif" font-size="10.00">Vehicle</text>
</a>
</g>
</g>
<!-- Node1&#45;&gt;Node10 -->
<g id="edge9" class="edge">
<title>Node1&#45;&gt;Node10</title>
<path fill="none" stroke="#63b8ff" d="M555.18,-109.82C575.7,-99.9 603.73,-86.79 629,-76.5 636.19,-73.57 643.88,-70.65 651.42,-67.91"/>
<polygon fill="#63b8ff" stroke="#63b8ff" points="553.94,-107.02 546.48,-114.55 557,-113.31 553.94,-107.02"/>
</g>
<!-- Node12 -->
<g id="node12" class="node">
<title>Node12</title>
<g id="a_node12"><a xlink:href="interfaceCharacterCameraBinoculars.html" target="_top" xlink:title=" ">
<polygon fill="white" stroke="#666666" points="767,-19 629,-19 629,0 767,0 767,-19"/>
<text text-anchor="middle" x="698" y="-7" font-family="Helvetica,sans-Serif" font-size="10.00">CharacterCameraBinoculars</text>
</a>
</g>
</g>
<!-- Node1&#45;&gt;Node12 -->
<g id="edge11" class="edge">
<title>Node1&#45;&gt;Node12</title>
<path fill="none" stroke="#63b8ff" d="M540.18,-106.4C558.68,-84.77 592.51,-48.92 629,-28.5 635.53,-24.85 642.8,-21.86 650.1,-19.42"/>
<polygon fill="#63b8ff" stroke="#63b8ff" points="536.95,-103.8 533.23,-113.72 542.32,-108.29 536.95,-103.8"/>
</g>
<!-- Node2 -->
<g id="node2" class="node">
<title>Node2</title>
<g id="a_node2"><a xlink:href="interfaceCharacterCameraBase.html" target="_top" xlink:title=" ">
<polygon fill="white" stroke="#666666" points="420,-134 305,-134 305,-115 420,-115 420,-134"/>
<text text-anchor="middle" x="362.5" y="-122" font-family="Helvetica,sans-Serif" font-size="10.00">CharacterCameraBase</text>
</a>
</g>
</g>
<!-- Node2&#45;&gt;Node1 -->
<g id="edge1" class="edge">
<title>Node2&#45;&gt;Node1</title>
<path fill="none" stroke="#63b8ff" d="M431.22,-124.5C439.29,-124.5 447.53,-124.5 455.6,-124.5"/>
<polygon fill="#63b8ff" stroke="#63b8ff" points="431.36,-121 421.36,-124.5 431.36,-128 431.36,-121"/>
</g>
<!-- Node3 -->
<g id="node3" class="node">
<title>Node3</title>
<g id="a_node3"><a xlink:href="interfaceScriptedCameraItem.html" target="_top" xlink:title=" ">
<polygon fill="white" stroke="#666666" points="269,-134 164,-134 164,-115 269,-115 269,-134"/>
<text text-anchor="middle" x="216.5" y="-122" font-family="Helvetica,sans-Serif" font-size="10.00">ScriptedCameraItem</text>
</a>
</g>
</g>
<!-- Node3&#45;&gt;Node2 -->
<g id="edge2" class="edge">
<title>Node3&#45;&gt;Node2</title>
<path fill="none" stroke="#63b8ff" d="M280.39,-124.5C288.48,-124.5 296.73,-124.5 304.72,-124.5"/>
<polygon fill="#63b8ff" stroke="#63b8ff" points="280.49,-121 270.49,-124.5 280.49,-128 280.49,-121"/>
</g>
<!-- Node4 -->
<g id="node4" class="node">
<title>Node4</title>
<g id="a_node4"><a xlink:href="interfaceBaseScriptedCameraItem.html" target="_top" xlink:title=" ">
<polygon fill="white" stroke="#666666" points="128,-134 0,-134 0,-115 128,-115 128,-134"/>
<text text-anchor="middle" x="64" y="-122" font-family="Helvetica,sans-Serif" font-size="10.00">BaseScriptedCameraItem</text>
</a>
</g>
</g>
<!-- Node4&#45;&gt;Node3 -->
<g id="edge3" class="edge">
<title>Node4&#45;&gt;Node3</title>
<path fill="none" stroke="#63b8ff" d="M139.19,-124.5C147.43,-124.5 155.7,-124.5 163.58,-124.5"/>
<polygon fill="#63b8ff" stroke="#63b8ff" points="139.39,-121 129.39,-124.5 139.39,-128 139.39,-121"/>
</g>
<!-- Node7 -->
<g id="node7" class="node">
<title>Node7</title>
<g id="a_node7"><a xlink:href="interfaceCharacterCamera1stPersonFloat.html" target="_top" xlink:title=" ">
<polygon fill="white" stroke="#666666" points="940,-211.5 803,-211.5 803,-181.5 940,-181.5 940,-211.5"/>
<text text-anchor="start" x="811" y="-199.5" font-family="Helvetica,sans-Serif" font-size="10.00">CharacterCamera1stPerson</text>
<text text-anchor="middle" x="871.5" y="-188.5" font-family="Helvetica,sans-Serif" font-size="10.00">Float</text>
</a>
</g>
</g>
<!-- Node6&#45;&gt;Node7 -->
<g id="edge6" class="edge">
<title>Node6&#45;&gt;Node7</title>
<path fill="none" stroke="#63b8ff" d="M777.67,-196.5C786.01,-196.5 794.45,-196.5 802.65,-196.5"/>
<polygon fill="#63b8ff" stroke="#63b8ff" points="777.78,-193 767.78,-196.5 777.78,-200 777.78,-193"/>
</g>
<!-- Node11 -->
<g id="node11" class="node">
<title>Node11</title>
<g id="a_node11"><a xlink:href="interfaceCharacterCamera1stPersonVehicleTransition.html" target="_top" xlink:title=" ">
<polygon fill="white" stroke="#666666" points="940,-67.5 803,-67.5 803,-37.5 940,-37.5 940,-67.5"/>
<text text-anchor="start" x="811" y="-55.5" font-family="Helvetica,sans-Serif" font-size="10.00">CharacterCamera1stPerson</text>
<text text-anchor="middle" x="871.5" y="-44.5" font-family="Helvetica,sans-Serif" font-size="10.00">VehicleTransition</text>
</a>
</g>
</g>
<!-- Node10&#45;&gt;Node11 -->
<g id="edge10" class="edge">
<title>Node10&#45;&gt;Node11</title>
<path fill="none" stroke="#63b8ff" d="M777.67,-52.5C786.01,-52.5 794.45,-52.5 802.65,-52.5"/>
<polygon fill="#63b8ff" stroke="#63b8ff" points="777.78,-49 767.78,-52.5 777.78,-56 777.78,-49"/>
</g>
</g>
</svg>
