<?xml version="1.0" encoding="UTF-8" standalone="no"?>
<!DOCTYPE svg PUBLIC "-//W3C//DTD SVG 1.1//EN"
 "http://www.w3.org/Graphics/SVG/1.1/DTD/svg11.dtd">
<!-- Generated by graphviz version 8.0.2 (20230410.1723)
 -->
<!-- Title: SCR_BaseGameOverScreenInfo Pages: 1 -->
<svg width="454pt" height="148pt"
 viewBox="0.00 0.00 453.50 148.00" xmlns="http://www.w3.org/2000/svg" xmlns:xlink="http://www.w3.org/1999/xlink">
<g id="graph0" class="graph" transform="scale(1 1) rotate(0) translate(4 144)">
<title>SCR_BaseGameOverScreenInfo</title>
<!-- Node1 -->
<g id="node1" class="node">
<title>Node1</title>
<g id="a_node1"><a xlink:title=" ">
<polygon fill="#999999" stroke="#666666" points="268,-140 112,-140 112,-121 268,-121 268,-140"/>
<text text-anchor="middle" x="190" y="-128" font-family="Helvetica,sans-Serif" font-size="10.00">SCR_BaseGameOverScreenInfo</text>
</a>
</g>
</g>
<!-- Node2 -->
<g id="node2" class="node">
<title>Node2</title>
<g id="a_node2"><a xlink:href="interfaceSCR__DeathMatchGameOverScreenInfo.html" target="_top" xlink:title=" ">
<polygon fill="white" stroke="#666666" points="186,-85 0,-85 0,-66 186,-66 186,-85"/>
<text text-anchor="middle" x="93" y="-73" font-family="Helvetica,sans-Serif" font-size="10.00">SCR_DeathMatchGameOverScreenInfo</text>
</a>
</g>
</g>
<!-- Node1&#45;&gt;Node2 -->
<g id="edge1" class="edge">
<title>Node1&#45;&gt;Node2</title>
<path fill="none" stroke="#63b8ff" d="M163.95,-115.27C146.52,-105.74 124.13,-93.51 109.21,-85.36"/>
<polygon fill="#63b8ff" stroke="#63b8ff" points="162.09,-118.79 172.55,-120.51 165.45,-112.64 162.09,-118.79"/>
</g>
<!-- Node3 -->
<g id="node3" class="node">
<title>Node3</title>
<g id="a_node3"><a xlink:href="interfaceSCR__FactionGameOverScreenInfo.html" target="_top" xlink:title=" ">
<polygon fill="white" stroke="#666666" points="370,-85 204,-85 204,-66 370,-66 370,-85"/>
<text text-anchor="middle" x="287" y="-73" font-family="Helvetica,sans-Serif" font-size="10.00">SCR_FactionGameOverScreenInfo</text>
</a>
</g>
</g>
<!-- Node1&#45;&gt;Node3 -->
<g id="edge2" class="edge">
<title>Node1&#45;&gt;Node3</title>
<path fill="none" stroke="#63b8ff" d="M216.05,-115.27C233.48,-105.74 255.87,-93.51 270.79,-85.36"/>
<polygon fill="#63b8ff" stroke="#63b8ff" points="214.55,-112.64 207.45,-120.51 217.91,-118.79 214.55,-112.64"/>
</g>
<!-- Node4 -->
<g id="node4" class="node">
<title>Node4</title>
<g id="a_node4"><a xlink:href="interfaceSCR__EditorFactionGameOverScreenInfo.html" target="_top" xlink:title=" ">
<polygon fill="white" stroke="#666666" points="276,-30 130,-30 130,0 276,0 276,-30"/>
<text text-anchor="start" x="138" y="-18" font-family="Helvetica,sans-Serif" font-size="10.00">SCR_EditorFactionGameOver</text>
<text text-anchor="middle" x="203" y="-7" font-family="Helvetica,sans-Serif" font-size="10.00">ScreenInfo</text>
</a>
</g>
</g>
<!-- Node3&#45;&gt;Node4 -->
<g id="edge3" class="edge">
<title>Node3&#45;&gt;Node4</title>
<path fill="none" stroke="#63b8ff" d="M265.59,-59.59C252.73,-50.64 236.46,-39.3 223.73,-30.44"/>
<polygon fill="#63b8ff" stroke="#63b8ff" points="263.04,-62.77 273.24,-65.62 267.04,-57.03 263.04,-62.77"/>
</g>
<!-- Node5 -->
<g id="node5" class="node">
<title>Node5</title>
<g id="a_node5"><a xlink:href="interfaceSCR__FactionVictoryGameOverScreenInfo.html" target="_top" xlink:title=" ">
<polygon fill="white" stroke="#666666" points="445.5,-30 294.5,-30 294.5,0 445.5,0 445.5,-30"/>
<text text-anchor="start" x="302.5" y="-18" font-family="Helvetica,sans-Serif" font-size="10.00">SCR_FactionVictoryGameOver</text>
<text text-anchor="middle" x="370" y="-7" font-family="Helvetica,sans-Serif" font-size="10.00">ScreenInfo</text>
</a>
</g>
</g>
<!-- Node3&#45;&gt;Node5 -->
<g id="edge4" class="edge">
<title>Node3&#45;&gt;Node5</title>
<path fill="none" stroke="#63b8ff" d="M308.53,-59.33C321.17,-50.42 337.06,-39.22 349.51,-30.44"/>
<polygon fill="#63b8ff" stroke="#63b8ff" points="306.76,-56.99 300.61,-65.62 310.8,-62.71 306.76,-56.99"/>
</g>
</g>
</svg>
