<?xml version="1.0" encoding="UTF-8" standalone="no"?>
<!DOCTYPE svg PUBLIC "-//W3C//DTD SVG 1.1//EN"
 "http://www.w3.org/Graphics/SVG/1.1/DTD/svg11.dtd">
<!-- Generated by graphviz version 8.0.2 (20230410.1723)
 -->
<!-- Title: SCR_ButtonBoxAttributeUIComponent Pages: 1 -->
<svg width="314pt" height="269pt"
 viewBox="0.00 0.00 313.50 269.00" xmlns="http://www.w3.org/2000/svg" xmlns:xlink="http://www.w3.org/1999/xlink">
<g id="graph0" class="graph" transform="scale(1 1) rotate(0) translate(4 265)">
<title>SCR_ButtonBoxAttributeUIComponent</title>
<!-- Node1 -->
<g id="node1" class="node">
<title>Node1</title>
<g id="a_node1"><a xlink:title=" ">
<polygon fill="#999999" stroke="#666666" points="253,-151 70,-151 70,-132 253,-132 253,-151"/>
<text text-anchor="middle" x="161.5" y="-139" font-family="Helvetica,sans-Serif" font-size="10.00">SCR_ButtonBoxAttributeUIComponent</text>
</a>
</g>
</g>
<!-- Node4 -->
<g id="node4" class="node">
<title>Node4</title>
<g id="a_node4"><a xlink:href="interfaceSCR__ButtonBoxMultiSelectAttributeUIComponent.html" target="_top" xlink:title=" ">
<polygon fill="white" stroke="#666666" points="153,-96 16,-96 16,-66 153,-66 153,-96"/>
<text text-anchor="start" x="24" y="-84" font-family="Helvetica,sans-Serif" font-size="10.00">SCR_ButtonBoxMultiSelect</text>
<text text-anchor="middle" x="84.5" y="-73" font-family="Helvetica,sans-Serif" font-size="10.00">AttributeUIComponent</text>
</a>
</g>
</g>
<!-- Node1&#45;&gt;Node4 -->
<g id="edge3" class="edge">
<title>Node1&#45;&gt;Node4</title>
<path fill="none" stroke="#63b8ff" d="M141.18,-125.06C129.51,-116.2 114.95,-105.13 103.51,-96.44"/>
<polygon fill="#63b8ff" stroke="#63b8ff" points="138.73,-128.35 148.81,-131.62 142.96,-122.78 138.73,-128.35"/>
</g>
<!-- Node6 -->
<g id="node6" class="node">
<title>Node6</title>
<g id="a_node6"><a xlink:href="interfaceSCR__TimePresetsAttributeUIComponent.html" target="_top" xlink:title=" ">
<polygon fill="white" stroke="#666666" points="305.5,-96 171.5,-96 171.5,-66 305.5,-66 305.5,-96"/>
<text text-anchor="start" x="179.5" y="-84" font-family="Helvetica,sans-Serif" font-size="10.00">SCR_TimePresetsAttribute</text>
<text text-anchor="middle" x="238.5" y="-73" font-family="Helvetica,sans-Serif" font-size="10.00">UIComponent</text>
</a>
</g>
</g>
<!-- Node1&#45;&gt;Node6 -->
<g id="edge5" class="edge">
<title>Node1&#45;&gt;Node6</title>
<path fill="none" stroke="#63b8ff" d="M181.82,-125.06C193.49,-116.2 208.05,-105.13 219.49,-96.44"/>
<polygon fill="#63b8ff" stroke="#63b8ff" points="180.04,-122.78 174.19,-131.62 184.27,-128.35 180.04,-122.78"/>
</g>
<!-- Node2 -->
<g id="node2" class="node">
<title>Node2</title>
<g id="a_node2"><a xlink:href="interfaceSCR__BaseEditorAttributeUIComponent.html" target="_top" xlink:title=" ">
<polygon fill="white" stroke="#666666" points="254,-206 69,-206 69,-187 254,-187 254,-206"/>
<text text-anchor="middle" x="161.5" y="-194" font-family="Helvetica,sans-Serif" font-size="10.00">SCR_BaseEditorAttributeUIComponent</text>
</a>
</g>
</g>
<!-- Node2&#45;&gt;Node1 -->
<g id="edge1" class="edge">
<title>Node2&#45;&gt;Node1</title>
<path fill="none" stroke="#63b8ff" d="M161.5,-175.93C161.5,-167.53 161.5,-158.13 161.5,-151.44"/>
<polygon fill="#63b8ff" stroke="#63b8ff" points="158,-175.75 161.5,-185.75 165,-175.75 158,-175.75"/>
</g>
<!-- Node3 -->
<g id="node3" class="node">
<title>Node3</title>
<g id="a_node3"><a xlink:title=" ">
<polygon fill="white" stroke="#666666" points="228,-261 95,-261 95,-242 228,-242 228,-261"/>
<text text-anchor="middle" x="161.5" y="-249" font-family="Helvetica,sans-Serif" font-size="10.00">ScriptedWidgetComponent</text>
</a>
</g>
</g>
<!-- Node3&#45;&gt;Node2 -->
<g id="edge2" class="edge">
<title>Node3&#45;&gt;Node2</title>
<path fill="none" stroke="#63b8ff" d="M161.5,-230.93C161.5,-222.53 161.5,-213.13 161.5,-206.44"/>
<polygon fill="#63b8ff" stroke="#63b8ff" points="158,-230.75 161.5,-240.75 165,-230.75 158,-230.75"/>
</g>
<!-- Node5 -->
<g id="node5" class="node">
<title>Node5</title>
<g id="a_node5"><a xlink:href="interfaceSCR__OverrideModesEditorAttributeUIComponent.html" target="_top" xlink:title=" ">
<polygon fill="white" stroke="#666666" points="169,-30 0,-30 0,0 169,0 169,-30"/>
<text text-anchor="start" x="8" y="-18" font-family="Helvetica,sans-Serif" font-size="10.00">SCR_OverrideModesEditorAttribute</text>
<text text-anchor="middle" x="84.5" y="-7" font-family="Helvetica,sans-Serif" font-size="10.00">UIComponent</text>
</a>
</g>
</g>
<!-- Node4&#45;&gt;Node5 -->
<g id="edge4" class="edge">
<title>Node4&#45;&gt;Node5</title>
<path fill="none" stroke="#63b8ff" d="M84.5,-54.97C84.5,-46.55 84.5,-37.45 84.5,-30.16"/>
<polygon fill="#63b8ff" stroke="#63b8ff" points="81,-54.8 84.5,-64.8 88,-54.8 81,-54.8"/>
</g>
</g>
</svg>
