<?xml version="1.0" encoding="UTF-8" standalone="no"?>
<!DOCTYPE svg PUBLIC "-//W3C//DTD SVG 1.1//EN"
 "http://www.w3.org/Graphics/SVG/1.1/DTD/svg11.dtd">
<!-- Generated by graphviz version 8.0.2 (20230410.1723)
 -->
<!-- Title: SCR_BaseDamageHealSupportStationAction Pages: 1 -->
<svg width="324pt" height="390pt"
 viewBox="0.00 0.00 324.00 390.00" xmlns="http://www.w3.org/2000/svg" xmlns:xlink="http://www.w3.org/1999/xlink">
<g id="graph0" class="graph" transform="scale(1 1) rotate(0) translate(4 386)">
<title>SCR_BaseDamageHealSupportStationAction</title>
<!-- Node1 -->
<g id="node1" class="node">
<title>Node1</title>
<g id="a_node1"><a xlink:title="Allows healing of action owner (not user)">
<polygon fill="#999999" stroke="#666666" points="237,-96 83,-96 83,-66 237,-66 237,-96"/>
<text text-anchor="start" x="91" y="-84" font-family="Helvetica,sans-Serif" font-size="10.00">SCR_BaseDamageHealSupport</text>
<text text-anchor="middle" x="160" y="-73" font-family="Helvetica,sans-Serif" font-size="10.00">StationAction</text>
</a>
</g>
</g>
<!-- Node7 -->
<g id="node7" class="node">
<title>Node7</title>
<g id="a_node7"><a xlink:href="interfaceSCR__HealSupportStationAction.html" target="_top" xlink:title=" ">
<polygon fill="white" stroke="#666666" points="154,-24.5 0,-24.5 0,-5.5 154,-5.5 154,-24.5"/>
<text text-anchor="middle" x="77" y="-12.5" font-family="Helvetica,sans-Serif" font-size="10.00">SCR_HealSupportStationAction</text>
</a>
</g>
</g>
<!-- Node1&#45;&gt;Node7 -->
<g id="edge6" class="edge">
<title>Node1&#45;&gt;Node7</title>
<path fill="none" stroke="#63b8ff" d="M133.1,-59.26C118,-47.61 99.94,-33.69 88.47,-24.84"/>
<polygon fill="#63b8ff" stroke="#63b8ff" points="130.52,-62.46 140.58,-65.8 134.8,-56.92 130.52,-62.46"/>
</g>
<!-- Node8 -->
<g id="node8" class="node">
<title>Node8</title>
<g id="a_node8"><a xlink:href="interfaceSCR__RepairAtSupportStationAction.html" target="_top" xlink:title=" ">
<polygon fill="white" stroke="#666666" points="316,-30 172,-30 172,0 316,0 316,-30"/>
<text text-anchor="start" x="180" y="-18" font-family="Helvetica,sans-Serif" font-size="10.00">SCR_RepairAtSupportStation</text>
<text text-anchor="middle" x="244" y="-7" font-family="Helvetica,sans-Serif" font-size="10.00">Action</text>
</a>
</g>
</g>
<!-- Node1&#45;&gt;Node8 -->
<g id="edge7" class="edge">
<title>Node1&#45;&gt;Node8</title>
<path fill="none" stroke="#63b8ff" d="M187.24,-59.25C199.61,-49.82 213.95,-38.9 225.12,-30.39"/>
<polygon fill="#63b8ff" stroke="#63b8ff" points="185.48,-56.95 179.64,-65.8 189.72,-62.52 185.48,-56.95"/>
</g>
<!-- Node2 -->
<g id="node2" class="node">
<title>Node2</title>
<g id="a_node2"><a xlink:href="interfaceSCR__BaseUseSupportStationAction.html" target="_top" xlink:title=" ">
<polygon fill="white" stroke="#666666" points="233,-162 87,-162 87,-132 233,-132 233,-162"/>
<text text-anchor="start" x="95" y="-150" font-family="Helvetica,sans-Serif" font-size="10.00">SCR_BaseUseSupportStation</text>
<text text-anchor="middle" x="160" y="-139" font-family="Helvetica,sans-Serif" font-size="10.00">Action</text>
</a>
</g>
</g>
<!-- Node2&#45;&gt;Node1 -->
<g id="edge1" class="edge">
<title>Node2&#45;&gt;Node1</title>
<path fill="none" stroke="#63b8ff" d="M160,-120.97C160,-112.55 160,-103.45 160,-96.16"/>
<polygon fill="#63b8ff" stroke="#63b8ff" points="156.5,-120.8 160,-130.8 163.5,-120.8 156.5,-120.8"/>
</g>
<!-- Node3 -->
<g id="node3" class="node">
<title>Node3</title>
<g id="a_node3"><a xlink:href="interfaceSCR__ScriptedUserAction.html" target="_top" xlink:title="A scripted action class having optional logic to check if vehicle is valid.">
<polygon fill="white" stroke="#666666" points="223,-217 97,-217 97,-198 223,-198 223,-217"/>
<text text-anchor="middle" x="160" y="-205" font-family="Helvetica,sans-Serif" font-size="10.00">SCR_ScriptedUserAction</text>
</a>
</g>
</g>
<!-- Node3&#45;&gt;Node2 -->
<g id="edge2" class="edge">
<title>Node3&#45;&gt;Node2</title>
<path fill="none" stroke="#63b8ff" d="M160,-187.08C160,-178.92 160,-169.6 160,-162.11"/>
<polygon fill="#63b8ff" stroke="#63b8ff" points="156.5,-186.87 160,-196.87 163.5,-186.87 156.5,-186.87"/>
</g>
<!-- Node4 -->
<g id="node4" class="node">
<title>Node4</title>
<g id="a_node4"><a xlink:href="interfaceScriptedUserAction.html" target="_top" xlink:title=" ">
<polygon fill="white" stroke="#666666" points="210.5,-272 109.5,-272 109.5,-253 210.5,-253 210.5,-272"/>
<text text-anchor="middle" x="160" y="-260" font-family="Helvetica,sans-Serif" font-size="10.00">ScriptedUserAction</text>
</a>
</g>
</g>
<!-- Node4&#45;&gt;Node3 -->
<g id="edge3" class="edge">
<title>Node4&#45;&gt;Node3</title>
<path fill="none" stroke="#63b8ff" d="M160,-241.93C160,-233.53 160,-224.13 160,-217.44"/>
<polygon fill="#63b8ff" stroke="#63b8ff" points="156.5,-241.75 160,-251.75 163.5,-241.75 156.5,-241.75"/>
</g>
<!-- Node5 -->
<g id="node5" class="node">
<title>Node5</title>
<g id="a_node5"><a xlink:href="interfaceBaseUserAction.html" target="_top" xlink:title=" ">
<polygon fill="white" stroke="#666666" points="203.5,-327 116.5,-327 116.5,-308 203.5,-308 203.5,-327"/>
<text text-anchor="middle" x="160" y="-315" font-family="Helvetica,sans-Serif" font-size="10.00">BaseUserAction</text>
</a>
</g>
</g>
<!-- Node5&#45;&gt;Node4 -->
<g id="edge4" class="edge">
<title>Node5&#45;&gt;Node4</title>
<path fill="none" stroke="#63b8ff" d="M160,-296.93C160,-288.53 160,-279.13 160,-272.44"/>
<polygon fill="#63b8ff" stroke="#63b8ff" points="156.5,-296.75 160,-306.75 163.5,-296.75 156.5,-296.75"/>
</g>
<!-- Node6 -->
<g id="node6" class="node">
<title>Node6</title>
<g id="a_node6"><a xlink:title=" ">
<polygon fill="white" stroke="#666666" points="203,-382 117,-382 117,-363 203,-363 203,-382"/>
<text text-anchor="middle" x="160" y="-370" font-family="Helvetica,sans-Serif" font-size="10.00">ScriptAndConfig</text>
</a>
</g>
</g>
<!-- Node6&#45;&gt;Node5 -->
<g id="edge5" class="edge">
<title>Node6&#45;&gt;Node5</title>
<path fill="none" stroke="#63b8ff" d="M160,-351.93C160,-343.53 160,-334.13 160,-327.44"/>
<polygon fill="#63b8ff" stroke="#63b8ff" points="156.5,-351.75 160,-361.75 163.5,-351.75 156.5,-351.75"/>
</g>
</g>
</svg>
