<?xml version="1.0" encoding="UTF-8" standalone="no"?>
<!DOCTYPE svg PUBLIC "-//W3C//DTD SVG 1.1//EN"
 "http://www.w3.org/Graphics/SVG/1.1/DTD/svg11.dtd">
<!-- Generated by graphviz version 8.0.2 (20230410.1723)
 -->
<!-- Title: SCR_FlammableHitZone Pages: 1 -->
<svg width="135pt" height="302pt"
 viewBox="0.00 0.00 135.00 302.00" xmlns="http://www.w3.org/2000/svg" xmlns:xlink="http://www.w3.org/1999/xlink">
<g id="graph0" class="graph" transform="scale(1 1) rotate(0) translate(4 298)">
<title>SCR_FlammableHitZone</title>
<!-- Node1 -->
<g id="node1" class="node">
<title>Node1</title>
<g id="a_node1"><a xlink:title=" ">
<polygon fill="#999999" stroke="#666666" points="125,-19 2,-19 2,0 125,0 125,-19"/>
<text text-anchor="middle" x="63.5" y="-7" font-family="Helvetica,sans-Serif" font-size="10.00">SCR_FlammableHitZone</text>
</a>
</g>
</g>
<!-- Node2 -->
<g id="node2" class="node">
<title>Node2</title>
<g id="a_node2"><a xlink:href="interfaceSCR__VehicleHitZone.html" target="_top" xlink:title=" ">
<polygon fill="white" stroke="#666666" points="117,-74 10,-74 10,-55 117,-55 117,-74"/>
<text text-anchor="middle" x="63.5" y="-62" font-family="Helvetica,sans-Serif" font-size="10.00">SCR_VehicleHitZone</text>
</a>
</g>
</g>
<!-- Node2&#45;&gt;Node1 -->
<g id="edge1" class="edge">
<title>Node2&#45;&gt;Node1</title>
<path fill="none" stroke="#63b8ff" d="M63.5,-43.93C63.5,-35.53 63.5,-26.13 63.5,-19.44"/>
<polygon fill="#63b8ff" stroke="#63b8ff" points="60,-43.75 63.5,-53.75 67,-43.75 60,-43.75"/>
</g>
<!-- Node3 -->
<g id="node3" class="node">
<title>Node3</title>
<g id="a_node3"><a xlink:href="interfaceSCR__DestructibleHitzone.html" target="_top" xlink:title=" ">
<polygon fill="white" stroke="#666666" points="127,-129 0,-129 0,-110 127,-110 127,-129"/>
<text text-anchor="middle" x="63.5" y="-117" font-family="Helvetica,sans-Serif" font-size="10.00">SCR_DestructibleHitzone</text>
</a>
</g>
</g>
<!-- Node3&#45;&gt;Node2 -->
<g id="edge2" class="edge">
<title>Node3&#45;&gt;Node2</title>
<path fill="none" stroke="#63b8ff" d="M63.5,-98.93C63.5,-90.53 63.5,-81.13 63.5,-74.44"/>
<polygon fill="#63b8ff" stroke="#63b8ff" points="60,-98.75 63.5,-108.75 67,-98.75 60,-98.75"/>
</g>
<!-- Node4 -->
<g id="node4" class="node">
<title>Node4</title>
<g id="a_node4"><a xlink:href="interfaceSCR__HitZone.html" target="_top" xlink:title=" ">
<polygon fill="white" stroke="#666666" points="101,-184 26,-184 26,-165 101,-165 101,-184"/>
<text text-anchor="middle" x="63.5" y="-172" font-family="Helvetica,sans-Serif" font-size="10.00">SCR_HitZone</text>
</a>
</g>
</g>
<!-- Node4&#45;&gt;Node3 -->
<g id="edge3" class="edge">
<title>Node4&#45;&gt;Node3</title>
<path fill="none" stroke="#63b8ff" d="M63.5,-153.93C63.5,-145.53 63.5,-136.13 63.5,-129.44"/>
<polygon fill="#63b8ff" stroke="#63b8ff" points="60,-153.75 63.5,-163.75 67,-153.75 60,-153.75"/>
</g>
<!-- Node5 -->
<g id="node5" class="node">
<title>Node5</title>
<g id="a_node5"><a xlink:href="interfaceHitZone.html" target="_top" xlink:title=" ">
<polygon fill="white" stroke="#666666" points="88.5,-239 38.5,-239 38.5,-220 88.5,-220 88.5,-239"/>
<text text-anchor="middle" x="63.5" y="-227" font-family="Helvetica,sans-Serif" font-size="10.00">HitZone</text>
</a>
</g>
</g>
<!-- Node5&#45;&gt;Node4 -->
<g id="edge4" class="edge">
<title>Node5&#45;&gt;Node4</title>
<path fill="none" stroke="#63b8ff" d="M63.5,-208.93C63.5,-200.53 63.5,-191.13 63.5,-184.44"/>
<polygon fill="#63b8ff" stroke="#63b8ff" points="60,-208.75 63.5,-218.75 67,-208.75 60,-208.75"/>
</g>
<!-- Node6 -->
<g id="node6" class="node">
<title>Node6</title>
<g id="a_node6"><a xlink:title=" ">
<polygon fill="white" stroke="#666666" points="106.5,-294 20.5,-294 20.5,-275 106.5,-275 106.5,-294"/>
<text text-anchor="middle" x="63.5" y="-282" font-family="Helvetica,sans-Serif" font-size="10.00">ScriptAndConfig</text>
</a>
</g>
</g>
<!-- Node6&#45;&gt;Node5 -->
<g id="edge5" class="edge">
<title>Node6&#45;&gt;Node5</title>
<path fill="none" stroke="#63b8ff" d="M63.5,-263.93C63.5,-255.53 63.5,-246.13 63.5,-239.44"/>
<polygon fill="#63b8ff" stroke="#63b8ff" points="60,-263.75 63.5,-273.75 67,-263.75 60,-263.75"/>
</g>
</g>
</svg>
