<?xml version="1.0" encoding="UTF-8" standalone="no"?>
<!DOCTYPE svg PUBLIC "-//W3C//DTD SVG 1.1//EN"
 "http://www.w3.org/Graphics/SVG/1.1/DTD/svg11.dtd">
<!-- Generated by graphviz version 8.0.2 (20230410.1723)
 -->
<!-- Title: SCR_FactionPlayerTriggerEntityClass Pages: 1 -->
<svg width="160pt" height="335pt"
 viewBox="0.00 0.00 160.00 335.00" xmlns="http://www.w3.org/2000/svg" xmlns:xlink="http://www.w3.org/1999/xlink">
<g id="graph0" class="graph" transform="scale(1 1) rotate(0) translate(4 331)">
<title>SCR_FactionPlayerTriggerEntityClass</title>
<!-- Node1 -->
<g id="node1" class="node">
<title>Node1</title>
<g id="a_node1"><a xlink:title=" ">
<polygon fill="#999999" stroke="#666666" points="141.5,-30 10.5,-30 10.5,0 141.5,0 141.5,-30"/>
<text text-anchor="start" x="18.5" y="-18" font-family="Helvetica,sans-Serif" font-size="10.00">SCR_FactionPlayerTrigger</text>
<text text-anchor="middle" x="76" y="-7" font-family="Helvetica,sans-Serif" font-size="10.00">EntityClass</text>
</a>
</g>
</g>
<!-- Node2 -->
<g id="node2" class="node">
<title>Node2</title>
<g id="a_node2"><a xlink:href="interfaceSCR__BaseFactionTriggerEntityClass.html" target="_top" xlink:title=" ">
<polygon fill="white" stroke="#666666" points="152,-96 0,-96 0,-66 152,-66 152,-96"/>
<text text-anchor="start" x="8" y="-84" font-family="Helvetica,sans-Serif" font-size="10.00">SCR_BaseFactionTriggerEntity</text>
<text text-anchor="middle" x="76" y="-73" font-family="Helvetica,sans-Serif" font-size="10.00">Class</text>
</a>
</g>
</g>
<!-- Node2&#45;&gt;Node1 -->
<g id="edge1" class="edge">
<title>Node2&#45;&gt;Node1</title>
<path fill="none" stroke="#63b8ff" d="M76,-54.97C76,-46.55 76,-37.45 76,-30.16"/>
<polygon fill="#63b8ff" stroke="#63b8ff" points="72.5,-54.8 76,-64.8 79.5,-54.8 72.5,-54.8"/>
</g>
<!-- Node3 -->
<g id="node3" class="node">
<title>Node3</title>
<g id="a_node3"><a xlink:href="interfaceSCR__BaseTriggerEntityClass.html" target="_top" xlink:title=" ">
<polygon fill="white" stroke="#666666" points="148,-151 4,-151 4,-132 148,-132 148,-151"/>
<text text-anchor="middle" x="76" y="-139" font-family="Helvetica,sans-Serif" font-size="10.00">SCR_BaseTriggerEntityClass</text>
</a>
</g>
</g>
<!-- Node3&#45;&gt;Node2 -->
<g id="edge2" class="edge">
<title>Node3&#45;&gt;Node2</title>
<path fill="none" stroke="#63b8ff" d="M76,-121.08C76,-112.92 76,-103.6 76,-96.11"/>
<polygon fill="#63b8ff" stroke="#63b8ff" points="72.5,-120.87 76,-130.87 79.5,-120.87 72.5,-120.87"/>
</g>
<!-- Node4 -->
<g id="node4" class="node">
<title>Node4</title>
<g id="a_node4"><a xlink:href="interfaceScriptedGameTriggerEntityClass.html" target="_top" xlink:title=" ">
<polygon fill="white" stroke="#666666" points="143,-217 9,-217 9,-187 143,-187 143,-217"/>
<text text-anchor="start" x="17" y="-205" font-family="Helvetica,sans-Serif" font-size="10.00">ScriptedGameTriggerEntity</text>
<text text-anchor="middle" x="76" y="-194" font-family="Helvetica,sans-Serif" font-size="10.00">Class</text>
</a>
</g>
</g>
<!-- Node4&#45;&gt;Node3 -->
<g id="edge3" class="edge">
<title>Node4&#45;&gt;Node3</title>
<path fill="none" stroke="#63b8ff" d="M76,-175.59C76,-166.85 76,-157.65 76,-151.18"/>
<polygon fill="#63b8ff" stroke="#63b8ff" points="72.5,-175.54 76,-185.54 79.5,-175.54 72.5,-175.54"/>
</g>
<!-- Node5 -->
<g id="node5" class="node">
<title>Node5</title>
<g id="a_node5"><a xlink:href="interfaceBaseGameTriggerEntityClass.html" target="_top" xlink:title=" ">
<polygon fill="white" stroke="#666666" points="148.5,-272 3.5,-272 3.5,-253 148.5,-253 148.5,-272"/>
<text text-anchor="middle" x="76" y="-260" font-family="Helvetica,sans-Serif" font-size="10.00">BaseGameTriggerEntityClass</text>
</a>
</g>
</g>
<!-- Node5&#45;&gt;Node4 -->
<g id="edge4" class="edge">
<title>Node5&#45;&gt;Node4</title>
<path fill="none" stroke="#63b8ff" d="M76,-242.08C76,-233.92 76,-224.6 76,-217.11"/>
<polygon fill="#63b8ff" stroke="#63b8ff" points="72.5,-241.87 76,-251.87 79.5,-241.87 72.5,-241.87"/>
</g>
<!-- Node6 -->
<g id="node6" class="node">
<title>Node6</title>
<g id="a_node6"><a xlink:title=" ">
<polygon fill="white" stroke="#666666" points="126.5,-327 25.5,-327 25.5,-308 126.5,-308 126.5,-327"/>
<text text-anchor="middle" x="76" y="-315" font-family="Helvetica,sans-Serif" font-size="10.00">GenericEntityClass</text>
</a>
</g>
</g>
<!-- Node6&#45;&gt;Node5 -->
<g id="edge5" class="edge">
<title>Node6&#45;&gt;Node5</title>
<path fill="none" stroke="#63b8ff" d="M76,-296.93C76,-288.53 76,-279.13 76,-272.44"/>
<polygon fill="#63b8ff" stroke="#63b8ff" points="72.5,-296.75 76,-306.75 79.5,-296.75 72.5,-296.75"/>
</g>
</g>
</svg>
