<?xml version="1.0" encoding="UTF-8" standalone="no"?>
<!DOCTYPE svg PUBLIC "-//W3C//DTD SVG 1.1//EN"
 "http://www.w3.org/Graphics/SVG/1.1/DTD/svg11.dtd">
<!-- Generated by graphviz version 8.0.2 (20230410.1723)
 -->
<!-- Title: SCR_ContentBrowser_ScenarioSubMenuBase Pages: 1 -->
<svg width="278pt" height="269pt"
 viewBox="0.00 0.00 278.00 269.00" xmlns="http://www.w3.org/2000/svg" xmlns:xlink="http://www.w3.org/1999/xlink">
<g id="graph0" class="graph" transform="scale(1 1) rotate(0) translate(4 265)">
<title>SCR_ContentBrowser_ScenarioSubMenuBase</title>
<!-- Node1 -->
<g id="node1" class="node">
<title>Node1</title>
<g id="a_node1"><a xlink:title=" ">
<polygon fill="#999999" stroke="#666666" points="204.5,-96 80.5,-96 80.5,-66 204.5,-66 204.5,-96"/>
<text text-anchor="start" x="88.5" y="-84" font-family="Helvetica,sans-Serif" font-size="10.00">SCR_ContentBrowser</text>
<text text-anchor="middle" x="142.5" y="-73" font-family="Helvetica,sans-Serif" font-size="10.00">_ScenarioSubMenuBase</text>
</a>
</g>
</g>
<!-- Node5 -->
<g id="node5" class="node">
<title>Node5</title>
<g id="a_node5"><a xlink:href="interfaceSCR__ContentBrowserDetails__OverviewSubMenu.html" target="_top" xlink:title=" ">
<polygon fill="white" stroke="#666666" points="141,-30 0,-30 0,0 141,0 141,-30"/>
<text text-anchor="start" x="8" y="-18" font-family="Helvetica,sans-Serif" font-size="10.00">SCR_ContentBrowserDetails</text>
<text text-anchor="middle" x="70.5" y="-7" font-family="Helvetica,sans-Serif" font-size="10.00">_OverviewSubMenu</text>
</a>
</g>
</g>
<!-- Node1&#45;&gt;Node5 -->
<g id="edge4" class="edge">
<title>Node1&#45;&gt;Node5</title>
<path fill="none" stroke="#63b8ff" d="M118.54,-58.7C108.07,-49.4 96.07,-38.73 86.68,-30.39"/>
<polygon fill="#63b8ff" stroke="#63b8ff" points="115.72,-60.77 125.52,-64.8 120.37,-55.54 115.72,-60.77"/>
</g>
<!-- Node6 -->
<g id="node6" class="node">
<title>Node6</title>
<g id="a_node6"><a xlink:href="interfaceSCR__ContentBrowser__ScenarioSubMenu.html" target="_top" xlink:title=" ">
<polygon fill="white" stroke="#666666" points="270,-30 159,-30 159,0 270,0 270,-30"/>
<text text-anchor="start" x="167" y="-18" font-family="Helvetica,sans-Serif" font-size="10.00">SCR_ContentBrowser</text>
<text text-anchor="middle" x="214.5" y="-7" font-family="Helvetica,sans-Serif" font-size="10.00">_ScenarioSubMenu</text>
</a>
</g>
</g>
<!-- Node1&#45;&gt;Node6 -->
<g id="edge5" class="edge">
<title>Node1&#45;&gt;Node6</title>
<path fill="none" stroke="#63b8ff" d="M166.46,-58.7C176.93,-49.4 188.93,-38.73 198.32,-30.39"/>
<polygon fill="#63b8ff" stroke="#63b8ff" points="164.63,-55.54 159.48,-64.8 169.28,-60.77 164.63,-55.54"/>
</g>
<!-- Node2 -->
<g id="node2" class="node">
<title>Node2</title>
<g id="a_node2"><a xlink:href="interfaceSCR__SubMenuBase.html" target="_top" xlink:title=" ">
<polygon fill="white" stroke="#666666" points="195.5,-151 89.5,-151 89.5,-132 195.5,-132 195.5,-151"/>
<text text-anchor="middle" x="142.5" y="-139" font-family="Helvetica,sans-Serif" font-size="10.00">SCR_SubMenuBase</text>
</a>
</g>
</g>
<!-- Node2&#45;&gt;Node1 -->
<g id="edge1" class="edge">
<title>Node2&#45;&gt;Node1</title>
<path fill="none" stroke="#63b8ff" d="M142.5,-121.08C142.5,-112.92 142.5,-103.6 142.5,-96.11"/>
<polygon fill="#63b8ff" stroke="#63b8ff" points="139,-120.87 142.5,-130.87 146,-120.87 139,-120.87"/>
</g>
<!-- Node3 -->
<g id="node3" class="node">
<title>Node3</title>
<g id="a_node3"><a xlink:href="interfaceSCR__ScriptedWidgetComponent.html" target="_top" xlink:title=" ">
<polygon fill="white" stroke="#666666" points="221.5,-206 63.5,-206 63.5,-187 221.5,-187 221.5,-206"/>
<text text-anchor="middle" x="142.5" y="-194" font-family="Helvetica,sans-Serif" font-size="10.00">SCR_ScriptedWidgetComponent</text>
</a>
</g>
</g>
<!-- Node3&#45;&gt;Node2 -->
<g id="edge2" class="edge">
<title>Node3&#45;&gt;Node2</title>
<path fill="none" stroke="#63b8ff" d="M142.5,-175.93C142.5,-167.53 142.5,-158.13 142.5,-151.44"/>
<polygon fill="#63b8ff" stroke="#63b8ff" points="139,-175.75 142.5,-185.75 146,-175.75 139,-175.75"/>
</g>
<!-- Node4 -->
<g id="node4" class="node">
<title>Node4</title>
<g id="a_node4"><a xlink:title=" ">
<polygon fill="white" stroke="#666666" points="209,-261 76,-261 76,-242 209,-242 209,-261"/>
<text text-anchor="middle" x="142.5" y="-249" font-family="Helvetica,sans-Serif" font-size="10.00">ScriptedWidgetComponent</text>
</a>
</g>
</g>
<!-- Node4&#45;&gt;Node3 -->
<g id="edge3" class="edge">
<title>Node4&#45;&gt;Node3</title>
<path fill="none" stroke="#63b8ff" d="M142.5,-230.93C142.5,-222.53 142.5,-213.13 142.5,-206.44"/>
<polygon fill="#63b8ff" stroke="#63b8ff" points="139,-230.75 142.5,-240.75 146,-230.75 139,-230.75"/>
</g>
</g>
</svg>
