<?xml version="1.0" encoding="UTF-8" standalone="no"?>
<!DOCTYPE svg PUBLIC "-//W3C//DTD SVG 1.1//EN"
 "http://www.w3.org/Graphics/SVG/1.1/DTD/svg11.dtd">
<!-- Generated by graphviz version 8.0.2 (20230410.1723)
 -->
<!-- Title: HitZone Pages: 1 -->
<svg width="846pt" height="267pt"
 viewBox="0.00 0.00 846.00 267.00" xmlns="http://www.w3.org/2000/svg" xmlns:xlink="http://www.w3.org/1999/xlink">
<g id="graph0" class="graph" transform="scale(1 1) rotate(0) translate(4 263)">
<title>HitZone</title>
<!-- Node1 -->
<g id="node1" class="node">
<title>Node1</title>
<g id="a_node1"><a xlink:title=" ">
<polygon fill="#999999" stroke="#666666" points="172,-138 122,-138 122,-119 172,-119 172,-138"/>
<text text-anchor="middle" x="147" y="-126" font-family="Helvetica,sans-Serif" font-size="10.00">HitZone</text>
</a>
</g>
</g>
<!-- Node3 -->
<g id="node3" class="node">
<title>Node3</title>
<g id="a_node3"><a xlink:href="interfaceSCR__HitZone.html" target="_top" xlink:title=" ">
<polygon fill="white" stroke="#666666" points="283,-138 208,-138 208,-119 283,-119 283,-138"/>
<text text-anchor="middle" x="245.5" y="-126" font-family="Helvetica,sans-Serif" font-size="10.00">SCR_HitZone</text>
</a>
</g>
</g>
<!-- Node1&#45;&gt;Node3 -->
<g id="edge2" class="edge">
<title>Node1&#45;&gt;Node3</title>
<path fill="none" stroke="#63b8ff" d="M183.2,-128.5C191.19,-128.5 199.69,-128.5 207.74,-128.5"/>
<polygon fill="#63b8ff" stroke="#63b8ff" points="183.35,-125 173.35,-128.5 183.35,-132 183.35,-125"/>
</g>
<!-- Node2 -->
<g id="node2" class="node">
<title>Node2</title>
<g id="a_node2"><a xlink:title=" ">
<polygon fill="white" stroke="#666666" points="86,-138 0,-138 0,-119 86,-119 86,-138"/>
<text text-anchor="middle" x="43" y="-126" font-family="Helvetica,sans-Serif" font-size="10.00">ScriptAndConfig</text>
</a>
</g>
</g>
<!-- Node2&#45;&gt;Node1 -->
<g id="edge1" class="edge">
<title>Node2&#45;&gt;Node1</title>
<path fill="none" stroke="#63b8ff" d="M97.2,-128.5C105.77,-128.5 114.25,-128.5 121.69,-128.5"/>
<polygon fill="#63b8ff" stroke="#63b8ff" points="97.37,-125 87.37,-128.5 97.37,-132 97.37,-125"/>
</g>
<!-- Node4 -->
<g id="node4" class="node">
<title>Node4</title>
<g id="a_node4"><a xlink:href="interfaceSCR__ArmorHitZone.html" target="_top" xlink:title=" ">
<polygon fill="white" stroke="#666666" points="442,-231 341,-231 341,-212 442,-212 442,-231"/>
<text text-anchor="middle" x="391.5" y="-219" font-family="Helvetica,sans-Serif" font-size="10.00">SCR_ArmorHitZone</text>
</a>
</g>
</g>
<!-- Node3&#45;&gt;Node4 -->
<g id="edge3" class="edge">
<title>Node3&#45;&gt;Node4</title>
<path fill="none" stroke="#63b8ff" d="M259.62,-147.11C272.71,-164.3 294.4,-189.27 319,-203.5 325.65,-207.35 333.11,-210.38 340.63,-212.77"/>
<polygon fill="#63b8ff" stroke="#63b8ff" points="262.01,-145.45 253.26,-139.47 256.37,-149.6 262.01,-145.45"/>
</g>
<!-- Node5 -->
<g id="node5" class="node">
<title>Node5</title>
<g id="a_node5"><a xlink:href="interfaceSCR__CharacterHealthHitZone.html" target="_top" xlink:title="health hitzone &#45; Receives damage from physical hitzones">
<polygon fill="white" stroke="#666666" points="464,-194 319,-194 319,-175 464,-175 464,-194"/>
<text text-anchor="middle" x="391.5" y="-182" font-family="Helvetica,sans-Serif" font-size="10.00">SCR_CharacterHealthHitZone</text>
</a>
</g>
</g>
<!-- Node3&#45;&gt;Node5 -->
<g id="edge4" class="edge">
<title>Node3&#45;&gt;Node5</title>
<path fill="none" stroke="#63b8ff" d="M271.88,-143.69C285.49,-151.35 302.76,-160.3 319,-166.5 327.01,-169.56 335.73,-172.25 344.23,-174.56"/>
<polygon fill="#63b8ff" stroke="#63b8ff" points="274.1,-140.36 263.68,-138.4 270.61,-146.42 274.1,-140.36"/>
</g>
<!-- Node6 -->
<g id="node6" class="node">
<title>Node6</title>
<g id="a_node6"><a xlink:href="interfaceSCR__DestructibleHitzone.html" target="_top" xlink:title=" ">
<polygon fill="white" stroke="#666666" points="455,-157 328,-157 328,-138 455,-138 455,-157"/>
<text text-anchor="middle" x="391.5" y="-145" font-family="Helvetica,sans-Serif" font-size="10.00">SCR_DestructibleHitzone</text>
</a>
</g>
</g>
<!-- Node3&#45;&gt;Node6 -->
<g id="edge5" class="edge">
<title>Node3&#45;&gt;Node6</title>
<path fill="none" stroke="#63b8ff" d="M294.04,-134.77C304.77,-136.19 316.31,-137.71 327.56,-139.2"/>
<polygon fill="#63b8ff" stroke="#63b8ff" points="294.58,-131.18 284.21,-133.34 293.67,-138.12 294.58,-131.18"/>
</g>
<!-- Node16 -->
<g id="node16" class="node">
<title>Node16</title>
<g id="a_node16"><a xlink:href="interfaceSCR__MineHitZone.html" target="_top" xlink:title=" ">
<polygon fill="white" stroke="#666666" points="439.5,-120 343.5,-120 343.5,-101 439.5,-101 439.5,-120"/>
<text text-anchor="middle" x="391.5" y="-108" font-family="Helvetica,sans-Serif" font-size="10.00">SCR_MineHitZone</text>
</a>
</g>
</g>
<!-- Node3&#45;&gt;Node16 -->
<g id="edge15" class="edge">
<title>Node3&#45;&gt;Node16</title>
<path fill="none" stroke="#63b8ff" d="M293.85,-122.58C309.71,-120.6 327.38,-118.39 343.23,-116.41"/>
<polygon fill="#63b8ff" stroke="#63b8ff" points="293.7,-119.2 284.21,-123.91 294.57,-126.14 293.7,-119.2"/>
</g>
<!-- Node17 -->
<g id="node17" class="node">
<title>Node17</title>
<g id="a_node17"><a xlink:href="interfaceSCR__RegeneratingHitZone.html" target="_top" xlink:title=" ">
<polygon fill="white" stroke="#666666" points="457.5,-83 325.5,-83 325.5,-64 457.5,-64 457.5,-83"/>
<text text-anchor="middle" x="391.5" y="-71" font-family="Helvetica,sans-Serif" font-size="10.00">SCR_RegeneratingHitZone</text>
</a>
</g>
</g>
<!-- Node3&#45;&gt;Node17 -->
<g id="edge16" class="edge">
<title>Node3&#45;&gt;Node17</title>
<path fill="none" stroke="#63b8ff" d="M272.86,-113.23C286.33,-105.9 303.19,-97.44 319,-91.5 327.15,-88.44 336.01,-85.74 344.64,-83.41"/>
<polygon fill="#63b8ff" stroke="#63b8ff" points="271.33,-110.63 264.29,-118.56 274.73,-116.75 271.33,-110.63"/>
</g>
<!-- Node22 -->
<g id="node22" class="node">
<title>Node22</title>
<g id="a_node22"><a xlink:href="interfaceSCR__TreeHitZoneV2.html" target="_top" xlink:title=" ">
<polygon fill="white" stroke="#666666" points="444.5,-46 338.5,-46 338.5,-27 444.5,-27 444.5,-46"/>
<text text-anchor="middle" x="391.5" y="-34" font-family="Helvetica,sans-Serif" font-size="10.00">SCR_TreeHitZoneV2</text>
</a>
</g>
</g>
<!-- Node3&#45;&gt;Node22 -->
<g id="edge21" class="edge">
<title>Node3&#45;&gt;Node22</title>
<path fill="none" stroke="#63b8ff" d="M259.67,-110.15C272.81,-93.19 294.52,-68.55 319,-54.5 324.88,-51.12 331.4,-48.37 338.02,-46.13"/>
<polygon fill="#63b8ff" stroke="#63b8ff" points="256.48,-107.56 253.29,-117.66 262.09,-111.76 256.48,-107.56"/>
</g>
<!-- Node7 -->
<g id="node7" class="node">
<title>Node7</title>
<g id="a_node7"><a xlink:href="interfaceSCR__FuelHitZone.html" target="_top" xlink:title=" ">
<polygon fill="white" stroke="#666666" points="628,-222 534,-222 534,-203 628,-203 628,-222"/>
<text text-anchor="middle" x="581" y="-210" font-family="Helvetica,sans-Serif" font-size="10.00">SCR_FuelHitZone</text>
</a>
</g>
</g>
<!-- Node6&#45;&gt;Node7 -->
<g id="edge6" class="edge">
<title>Node6&#45;&gt;Node7</title>
<path fill="none" stroke="#63b8ff" d="M451.19,-161.01C455.6,-162.65 459.92,-164.48 464,-166.5 482.16,-175.51 481.67,-185.84 500,-194.5 510.43,-199.42 522.26,-203.03 533.58,-205.67"/>
<polygon fill="#63b8ff" stroke="#63b8ff" points="452.37,-157.37 441.78,-157.48 450.13,-164 452.37,-157.37"/>
</g>
<!-- Node8 -->
<g id="node8" class="node">
<title>Node8</title>
<g id="a_node8"><a xlink:href="interfaceSCR__LightHitZone.html" target="_top" xlink:title=" ">
<polygon fill="white" stroke="#666666" points="629,-185 533,-185 533,-166 629,-166 629,-185"/>
<text text-anchor="middle" x="581" y="-173" font-family="Helvetica,sans-Serif" font-size="10.00">SCR_LightHitZone</text>
</a>
</g>
</g>
<!-- Node6&#45;&gt;Node8 -->
<g id="edge7" class="edge">
<title>Node6&#45;&gt;Node8</title>
<path fill="none" stroke="#63b8ff" d="M466.27,-158.52C488.6,-161.85 512.52,-165.42 532.63,-168.43"/>
<polygon fill="#63b8ff" stroke="#63b8ff" points="466.86,-154.92 456.46,-156.9 465.83,-161.84 466.86,-154.92"/>
</g>
<!-- Node9 -->
<g id="node9" class="node">
<title>Node9</title>
<g id="a_node9"><a xlink:href="interfaceSCR__VehicleHitZone.html" target="_top" xlink:title=" ">
<polygon fill="white" stroke="#666666" points="634.5,-148 527.5,-148 527.5,-129 634.5,-129 634.5,-148"/>
<text text-anchor="middle" x="581" y="-136" font-family="Helvetica,sans-Serif" font-size="10.00">SCR_VehicleHitZone</text>
</a>
</g>
</g>
<!-- Node6&#45;&gt;Node9 -->
<g id="edge8" class="edge">
<title>Node6&#45;&gt;Node9</title>
<path fill="none" stroke="#63b8ff" d="M466.28,-143.96C486.63,-142.98 508.31,-141.94 527.21,-141.03"/>
<polygon fill="#63b8ff" stroke="#63b8ff" points="466.28,-140.5 456.46,-144.48 466.61,-147.49 466.28,-140.5"/>
</g>
<!-- Node10 -->
<g id="node10" class="node">
<title>Node10</title>
<g id="a_node10"><a xlink:href="interfaceSCR__BatteryHitZone.html" target="_top" xlink:title=" ">
<polygon fill="white" stroke="#666666" points="821.5,-259 714.5,-259 714.5,-240 821.5,-240 821.5,-259"/>
<text text-anchor="middle" x="768" y="-247" font-family="Helvetica,sans-Serif" font-size="10.00">SCR_BatteryHitZone</text>
</a>
</g>
</g>
<!-- Node9&#45;&gt;Node10 -->
<g id="edge9" class="edge">
<title>Node9&#45;&gt;Node10</title>
<path fill="none" stroke="#63b8ff" d="M645.3,-147.78C651.3,-150.31 657,-153.5 662,-157.5 690.54,-180.37 669.71,-208.32 698,-231.5 702.79,-235.42 708.34,-238.5 714.17,-240.91"/>
<polygon fill="#63b8ff" stroke="#63b8ff" points="646.57,-144.17 635.98,-144.12 644.23,-150.76 646.57,-144.17"/>
</g>
<!-- Node11 -->
<g id="node11" class="node">
<title>Node11</title>
<g id="a_node11"><a xlink:href="interfaceSCR__EngineHitZone.html" target="_top" xlink:title=" ">
<polygon fill="white" stroke="#666666" points="820.5,-222 715.5,-222 715.5,-203 820.5,-203 820.5,-222"/>
<text text-anchor="middle" x="768" y="-210" font-family="Helvetica,sans-Serif" font-size="10.00">SCR_EngineHitZone</text>
</a>
</g>
</g>
<!-- Node9&#45;&gt;Node11 -->
<g id="edge10" class="edge">
<title>Node9&#45;&gt;Node11</title>
<path fill="none" stroke="#63b8ff" d="M644.93,-149.79C650.88,-151.93 656.67,-154.48 662,-157.5 681.95,-168.82 678.17,-182.96 698,-194.5 703.56,-197.74 709.71,-200.4 715.98,-202.6"/>
<polygon fill="#63b8ff" stroke="#63b8ff" points="646.42,-146.27 635.83,-146.56 644.28,-152.94 646.42,-146.27"/>
</g>
<!-- Node12 -->
<g id="node12" class="node">
<title>Node12</title>
<g id="a_node12"><a xlink:href="interfaceSCR__FlammableHitZone.html" target="_top" xlink:title=" ">
<polygon fill="white" stroke="#666666" points="829.5,-185 706.5,-185 706.5,-166 829.5,-166 829.5,-185"/>
<text text-anchor="middle" x="768" y="-173" font-family="Helvetica,sans-Serif" font-size="10.00">SCR_FlammableHitZone</text>
</a>
</g>
</g>
<!-- Node9&#45;&gt;Node12 -->
<g id="edge11" class="edge">
<title>Node9&#45;&gt;Node12</title>
<path fill="none" stroke="#63b8ff" d="M642.12,-150.52C666.42,-155.38 694.15,-160.93 717.29,-165.56"/>
<polygon fill="#63b8ff" stroke="#63b8ff" points="643.07,-146.94 632.58,-148.42 641.7,-153.81 643.07,-146.94"/>
</g>
<!-- Node13 -->
<g id="node13" class="node">
<title>Node13</title>
<g id="a_node13"><a xlink:href="interfaceSCR__GearboxHitZone.html" target="_top" xlink:title=" ">
<polygon fill="white" stroke="#666666" points="824,-148 712,-148 712,-129 824,-129 824,-148"/>
<text text-anchor="middle" x="768" y="-136" font-family="Helvetica,sans-Serif" font-size="10.00">SCR_GearboxHitZone</text>
</a>
</g>
</g>
<!-- Node9&#45;&gt;Node13 -->
<g id="edge12" class="edge">
<title>Node9&#45;&gt;Node13</title>
<path fill="none" stroke="#63b8ff" d="M645.24,-138.5C666.85,-138.5 690.84,-138.5 711.77,-138.5"/>
<polygon fill="#63b8ff" stroke="#63b8ff" points="645.52,-135 635.52,-138.5 645.52,-142 645.52,-135"/>
</g>
<!-- Node14 -->
<g id="node14" class="node">
<title>Node14</title>
<g id="a_node14"><a xlink:href="interfaceSCR__RotorHitZone.html" target="_top" xlink:title=" ">
<polygon fill="white" stroke="#666666" points="817,-111 719,-111 719,-92 817,-92 817,-111"/>
<text text-anchor="middle" x="768" y="-99" font-family="Helvetica,sans-Serif" font-size="10.00">SCR_RotorHitZone</text>
</a>
</g>
</g>
<!-- Node9&#45;&gt;Node14 -->
<g id="edge13" class="edge">
<title>Node9&#45;&gt;Node14</title>
<path fill="none" stroke="#63b8ff" d="M642.29,-126.44C667.01,-121.5 695.23,-115.85 718.57,-111.19"/>
<polygon fill="#63b8ff" stroke="#63b8ff" points="641.7,-123.19 632.58,-128.58 643.07,-130.06 641.7,-123.19"/>
</g>
<!-- Node15 -->
<g id="node15" class="node">
<title>Node15</title>
<g id="a_node15"><a xlink:href="interfaceSCR__WheelHitZone.html" target="_top" xlink:title=" ">
<polygon fill="white" stroke="#666666" points="819.5,-74 716.5,-74 716.5,-55 819.5,-55 819.5,-74"/>
<text text-anchor="middle" x="768" y="-62" font-family="Helvetica,sans-Serif" font-size="10.00">SCR_WheelHitZone</text>
</a>
</g>
</g>
<!-- Node9&#45;&gt;Node15 -->
<g id="edge14" class="edge">
<title>Node9&#45;&gt;Node15</title>
<path fill="none" stroke="#63b8ff" d="M613.89,-124.22C628.62,-117.5 646.29,-109.27 662,-101.5 678.22,-93.48 681.14,-89.05 698,-82.5 705.85,-79.45 714.39,-76.75 722.72,-74.43"/>
<polygon fill="#63b8ff" stroke="#63b8ff" points="612.88,-121.28 605.22,-128.6 615.77,-127.66 612.88,-121.28"/>
</g>
<!-- Node18 -->
<g id="node18" class="node">
<title>Node18</title>
<g id="a_node18"><a xlink:href="interfaceSCR__CharacterBloodHitZone.html" target="_top" xlink:title="Blood &#45; does not receive damage directly, only via scripted events.">
<polygon fill="white" stroke="#666666" points="652,-93 510,-93 510,-74 652,-74 652,-93"/>
<text text-anchor="middle" x="581" y="-81" font-family="Helvetica,sans-Serif" font-size="10.00">SCR_CharacterBloodHitZone</text>
</a>
</g>
</g>
<!-- Node17&#45;&gt;Node18 -->
<g id="edge17" class="edge">
<title>Node17&#45;&gt;Node18</title>
<path fill="none" stroke="#63b8ff" d="M468.61,-77.56C482.23,-78.29 496.36,-79.04 509.81,-79.76"/>
<polygon fill="#63b8ff" stroke="#63b8ff" points="468.99,-74.02 458.82,-76.98 468.61,-81.01 468.99,-74.02"/>
</g>
<!-- Node19 -->
<g id="node19" class="node">
<title>Node19</title>
<g id="a_node19"><a xlink:href="interfaceSCR__CharacterHitZone.html" target="_top" xlink:title=" ">
<polygon fill="white" stroke="#666666" points="639.5,-56 522.5,-56 522.5,-37 639.5,-37 639.5,-56"/>
<text text-anchor="middle" x="581" y="-44" font-family="Helvetica,sans-Serif" font-size="10.00">SCR_CharacterHitZone</text>
</a>
</g>
</g>
<!-- Node17&#45;&gt;Node19 -->
<g id="edge18" class="edge">
<title>Node17&#45;&gt;Node19</title>
<path fill="none" stroke="#63b8ff" d="M468.51,-62.55C486.4,-59.98 505.17,-57.27 522.11,-54.84"/>
<polygon fill="#63b8ff" stroke="#63b8ff" points="468.21,-59.2 458.82,-64.09 469.21,-66.13 468.21,-59.2"/>
</g>
<!-- Node21 -->
<g id="node21" class="node">
<title>Node21</title>
<g id="a_node21"><a xlink:href="interfaceSCR__CharacterResilienceHitZone.html" target="_top" xlink:title="Resilience &#45; incapacitation or death, depending on game mode settings.">
<polygon fill="white" stroke="#666666" points="662,-19 500,-19 500,0 662,0 662,-19"/>
<text text-anchor="middle" x="581" y="-7" font-family="Helvetica,sans-Serif" font-size="10.00">SCR_CharacterResilienceHitZone</text>
</a>
</g>
</g>
<!-- Node17&#45;&gt;Node21 -->
<g id="edge20" class="edge">
<title>Node17&#45;&gt;Node21</title>
<path fill="none" stroke="#63b8ff" d="M450.56,-60.13C455.19,-58.45 459.72,-56.57 464,-54.5 481.99,-45.77 481.84,-35.88 500,-27.5 506.98,-24.28 514.57,-21.62 522.21,-19.42"/>
<polygon fill="#63b8ff" stroke="#63b8ff" points="449.73,-57.05 441.35,-63.52 451.94,-63.69 449.73,-57.05"/>
</g>
<!-- Node20 -->
<g id="node20" class="node">
<title>Node20</title>
<g id="a_node20"><a xlink:href="interfaceSCR__CharacterHeadHitZone.html" target="_top" xlink:title=" ">
<polygon fill="white" stroke="#666666" points="838,-37 698,-37 698,-18 838,-18 838,-37"/>
<text text-anchor="middle" x="768" y="-25" font-family="Helvetica,sans-Serif" font-size="10.00">SCR_CharacterHeadHitZone</text>
</a>
</g>
</g>
<!-- Node19&#45;&gt;Node20 -->
<g id="edge19" class="edge">
<title>Node19&#45;&gt;Node20</title>
<path fill="none" stroke="#63b8ff" d="M650.29,-39.49C665.74,-37.9 682.16,-36.21 697.66,-34.62"/>
<polygon fill="#63b8ff" stroke="#63b8ff" points="650.36,-36.06 640.77,-40.57 651.08,-43.03 650.36,-36.06"/>
</g>
</g>
</svg>
