<?xml version="1.0" encoding="UTF-8" standalone="no"?>
<!DOCTYPE svg PUBLIC "-//W3C//DTD SVG 1.1//EN"
 "http://www.w3.org/Graphics/SVG/1.1/DTD/svg11.dtd">
<!-- Generated by graphviz version 8.0.2 (20230410.1723)
 -->
<!-- Title: SCR_ScenarioFrameworkSlotTask Pages: 1 -->
<svg width="1114pt" height="284pt"
 viewBox="0.00 0.00 1114.00 283.50" xmlns="http://www.w3.org/2000/svg" xmlns:xlink="http://www.w3.org/1999/xlink">
<g id="graph0" class="graph" transform="scale(1 1) rotate(0) translate(4 279.5)">
<title>SCR_ScenarioFrameworkSlotTask</title>
<!-- Node1 -->
<g id="node1" class="node">
<title>Node1</title>
<g id="a_node1"><a xlink:title=" ">
<polygon fill="#999999" stroke="#666666" points="710,-150 543,-150 543,-131 710,-131 710,-150"/>
<text text-anchor="middle" x="626.5" y="-138" font-family="Helvetica,sans-Serif" font-size="10.00">SCR_ScenarioFrameworkSlotTask</text>
</a>
</g>
</g>
<!-- Node5 -->
<g id="node5" class="node">
<title>Node5</title>
<g id="a_node5"><a xlink:href="interfaceSCR__ScenarioFrameworkSlotClearArea.html" target="_top" xlink:title=" ">
<polygon fill="white" stroke="#666666" points="901.5,-275.5 755.5,-275.5 755.5,-245.5 901.5,-245.5 901.5,-275.5"/>
<text text-anchor="start" x="763.5" y="-263.5" font-family="Helvetica,sans-Serif" font-size="10.00">SCR_ScenarioFrameworkSlot</text>
<text text-anchor="middle" x="828.5" y="-252.5" font-family="Helvetica,sans-Serif" font-size="10.00">ClearArea</text>
</a>
</g>
</g>
<!-- Node1&#45;&gt;Node5 -->
<g id="edge4" class="edge">
<title>Node1&#45;&gt;Node5</title>
<path fill="none" stroke="#63b8ff" d="M644.66,-158.16C666.39,-179.57 705.85,-215.41 746,-236.5 752.14,-239.72 758.77,-242.57 765.5,-245.08"/>
<polygon fill="#63b8ff" stroke="#63b8ff" points="647.52,-156.07 637.98,-151.46 642.57,-161.01 647.52,-156.07"/>
</g>
<!-- Node6 -->
<g id="node6" class="node">
<title>Node6</title>
<g id="a_node6"><a xlink:href="interfaceSCR__ScenarioFrameworkSlotDelivery.html" target="_top" xlink:title=" ">
<polygon fill="white" stroke="#666666" points="901.5,-227.5 755.5,-227.5 755.5,-197.5 901.5,-197.5 901.5,-227.5"/>
<text text-anchor="start" x="763.5" y="-215.5" font-family="Helvetica,sans-Serif" font-size="10.00">SCR_ScenarioFrameworkSlot</text>
<text text-anchor="middle" x="828.5" y="-204.5" font-family="Helvetica,sans-Serif" font-size="10.00">Delivery</text>
</a>
</g>
</g>
<!-- Node1&#45;&gt;Node6 -->
<g id="edge5" class="edge">
<title>Node1&#45;&gt;Node6</title>
<path fill="none" stroke="#63b8ff" d="M659.81,-154.59C683.45,-164.66 716.42,-178.18 746,-188.5 754.5,-191.46 763.57,-194.38 772.46,-197.1"/>
<polygon fill="#63b8ff" stroke="#63b8ff" points="661.53,-151.1 650.96,-150.37 658.78,-157.53 661.53,-151.1"/>
</g>
<!-- Node7 -->
<g id="node7" class="node">
<title>Node7</title>
<g id="a_node7"><a xlink:href="interfaceSCR__ScenarioFrameworkSlotDestroy.html" target="_top" xlink:title=" ">
<polygon fill="white" stroke="#666666" points="901.5,-179.5 755.5,-179.5 755.5,-149.5 901.5,-149.5 901.5,-179.5"/>
<text text-anchor="start" x="763.5" y="-167.5" font-family="Helvetica,sans-Serif" font-size="10.00">SCR_ScenarioFrameworkSlot</text>
<text text-anchor="middle" x="828.5" y="-156.5" font-family="Helvetica,sans-Serif" font-size="10.00">Destroy</text>
</a>
</g>
</g>
<!-- Node1&#45;&gt;Node7 -->
<g id="edge6" class="edge">
<title>Node1&#45;&gt;Node7</title>
<path fill="none" stroke="#63b8ff" d="M720.86,-151.7C732.43,-153.09 744.12,-154.49 755.3,-155.84"/>
<polygon fill="#63b8ff" stroke="#63b8ff" points="721.64,-148.15 711.29,-150.43 720.8,-155.1 721.64,-148.15"/>
</g>
<!-- Node8 -->
<g id="node8" class="node">
<title>Node8</title>
<g id="a_node8"><a xlink:href="interfaceSCR__ScenarioFrameworkSlotExtraction.html" target="_top" xlink:title=" ">
<polygon fill="white" stroke="#666666" points="901.5,-131.5 755.5,-131.5 755.5,-101.5 901.5,-101.5 901.5,-131.5"/>
<text text-anchor="start" x="763.5" y="-119.5" font-family="Helvetica,sans-Serif" font-size="10.00">SCR_ScenarioFrameworkSlot</text>
<text text-anchor="middle" x="828.5" y="-108.5" font-family="Helvetica,sans-Serif" font-size="10.00">Extraction</text>
</a>
</g>
</g>
<!-- Node1&#45;&gt;Node8 -->
<g id="edge7" class="edge">
<title>Node1&#45;&gt;Node8</title>
<path fill="none" stroke="#63b8ff" d="M720.86,-129.3C732.43,-127.91 744.12,-126.51 755.3,-125.16"/>
<polygon fill="#63b8ff" stroke="#63b8ff" points="720.8,-125.9 711.29,-130.57 721.64,-132.85 720.8,-125.9"/>
</g>
<!-- Node9 -->
<g id="node9" class="node">
<title>Node9</title>
<g id="a_node9"><a xlink:href="interfaceSCR__ScenarioFrameworkSlotPick.html" target="_top" xlink:title=" ">
<polygon fill="white" stroke="#666666" points="911,-83 746,-83 746,-64 911,-64 911,-83"/>
<text text-anchor="middle" x="828.5" y="-71" font-family="Helvetica,sans-Serif" font-size="10.00">SCR_ScenarioFrameworkSlotPick</text>
</a>
</g>
</g>
<!-- Node1&#45;&gt;Node9 -->
<g id="edge8" class="edge">
<title>Node1&#45;&gt;Node9</title>
<path fill="none" stroke="#63b8ff" d="M658.77,-126.27C682.38,-115.92 715.77,-102.08 746,-92.5 756.66,-89.12 768.29,-86.05 779.33,-83.42"/>
<polygon fill="#63b8ff" stroke="#63b8ff" points="657.69,-123.37 649.97,-130.62 660.53,-129.77 657.69,-123.37"/>
</g>
<!-- Node10 -->
<g id="node10" class="node">
<title>Node10</title>
<g id="a_node10"><a xlink:href="interfaceSCR__ScenarioFrameworkSlotTaskAI.html" target="_top" xlink:title=" ">
<polygon fill="white" stroke="#666666" points="901.5,-45.5 755.5,-45.5 755.5,-15.5 901.5,-15.5 901.5,-45.5"/>
<text text-anchor="start" x="763.5" y="-33.5" font-family="Helvetica,sans-Serif" font-size="10.00">SCR_ScenarioFrameworkSlot</text>
<text text-anchor="middle" x="828.5" y="-22.5" font-family="Helvetica,sans-Serif" font-size="10.00">TaskAI</text>
</a>
</g>
</g>
<!-- Node1&#45;&gt;Node10 -->
<g id="edge9" class="edge">
<title>Node1&#45;&gt;Node10</title>
<path fill="none" stroke="#63b8ff" d="M646.7,-123.33C669.09,-104.12 707.91,-73.23 746,-54.5 752.49,-51.31 759.47,-48.46 766.54,-45.94"/>
<polygon fill="#63b8ff" stroke="#63b8ff" points="644.66,-121.34 639.43,-130.55 649.26,-126.62 644.66,-121.34"/>
</g>
<!-- Node2 -->
<g id="node2" class="node">
<title>Node2</title>
<g id="a_node2"><a xlink:href="interfaceSCR__ScenarioFrameworkSlotBase.html" target="_top" xlink:title=" ">
<polygon fill="white" stroke="#666666" points="507,-150 339,-150 339,-131 507,-131 507,-150"/>
<text text-anchor="middle" x="423" y="-138" font-family="Helvetica,sans-Serif" font-size="10.00">SCR_ScenarioFrameworkSlotBase</text>
</a>
</g>
</g>
<!-- Node2&#45;&gt;Node1 -->
<g id="edge1" class="edge">
<title>Node2&#45;&gt;Node1</title>
<path fill="none" stroke="#63b8ff" d="M518.17,-140.5C526.4,-140.5 534.68,-140.5 542.8,-140.5"/>
<polygon fill="#63b8ff" stroke="#63b8ff" points="518.41,-137 508.41,-140.5 518.41,-144 518.41,-137"/>
</g>
<!-- Node3 -->
<g id="node3" class="node">
<title>Node3</title>
<g id="a_node3"><a xlink:href="interfaceSCR__ScenarioFrameworkLayerBase.html" target="_top" xlink:title=" ">
<polygon fill="white" stroke="#666666" points="303,-150 128,-150 128,-131 303,-131 303,-150"/>
<text text-anchor="middle" x="215.5" y="-138" font-family="Helvetica,sans-Serif" font-size="10.00">SCR_ScenarioFrameworkLayerBase</text>
</a>
</g>
</g>
<!-- Node3&#45;&gt;Node2 -->
<g id="edge2" class="edge">
<title>Node3&#45;&gt;Node2</title>
<path fill="none" stroke="#63b8ff" d="M314.13,-140.5C322.36,-140.5 330.63,-140.5 338.73,-140.5"/>
<polygon fill="#63b8ff" stroke="#63b8ff" points="314.35,-137 304.35,-140.5 314.35,-144 314.35,-137"/>
</g>
<!-- Node4 -->
<g id="node4" class="node">
<title>Node4</title>
<g id="a_node4"><a xlink:title=" ">
<polygon fill="white" stroke="#666666" points="92,-150 0,-150 0,-131 92,-131 92,-150"/>
<text text-anchor="middle" x="46" y="-138" font-family="Helvetica,sans-Serif" font-size="10.00">ScriptComponent</text>
</a>
</g>
</g>
<!-- Node4&#45;&gt;Node3 -->
<g id="edge3" class="edge">
<title>Node4&#45;&gt;Node3</title>
<path fill="none" stroke="#63b8ff" d="M103.16,-140.5C111.02,-140.5 119.24,-140.5 127.5,-140.5"/>
<polygon fill="#63b8ff" stroke="#63b8ff" points="103.33,-137 93.33,-140.5 103.33,-144 103.33,-137"/>
</g>
<!-- Node11 -->
<g id="node11" class="node">
<title>Node11</title>
<g id="a_node11"><a xlink:href="interfaceSCR__ScenarioFrameworkSlotDefend.html" target="_top" xlink:title=" ">
<polygon fill="white" stroke="#666666" points="1099.5,-67.5 953.5,-67.5 953.5,-37.5 1099.5,-37.5 1099.5,-67.5"/>
<text text-anchor="start" x="961.5" y="-55.5" font-family="Helvetica,sans-Serif" font-size="10.00">SCR_ScenarioFrameworkSlot</text>
<text text-anchor="middle" x="1026.5" y="-44.5" font-family="Helvetica,sans-Serif" font-size="10.00">Defend</text>
</a>
</g>
</g>
<!-- Node10&#45;&gt;Node11 -->
<g id="edge10" class="edge">
<title>Node10&#45;&gt;Node11</title>
<path fill="none" stroke="#63b8ff" d="M912.61,-39.83C926.05,-41.34 939.88,-42.89 953.04,-44.37"/>
<polygon fill="#63b8ff" stroke="#63b8ff" points="913.25,-36.27 902.93,-38.63 912.47,-43.22 913.25,-36.27"/>
</g>
<!-- Node12 -->
<g id="node12" class="node">
<title>Node12</title>
<g id="a_node12"><a xlink:href="interfaceSCR__ScenarioFrameworkSlotKill.html" target="_top" xlink:title=" ">
<polygon fill="white" stroke="#666666" points="1106,-19 947,-19 947,0 1106,0 1106,-19"/>
<text text-anchor="middle" x="1026.5" y="-7" font-family="Helvetica,sans-Serif" font-size="10.00">SCR_ScenarioFrameworkSlotKill</text>
</a>
</g>
</g>
<!-- Node10&#45;&gt;Node12 -->
<g id="edge11" class="edge">
<title>Node10&#45;&gt;Node12</title>
<path fill="none" stroke="#63b8ff" d="M912.67,-21.59C923.98,-20.38 935.56,-19.14 946.78,-17.93"/>
<polygon fill="#63b8ff" stroke="#63b8ff" points="912.5,-18.19 902.93,-22.74 913.24,-25.15 912.5,-18.19"/>
</g>
</g>
</svg>
