<?xml version="1.0" encoding="UTF-8" standalone="no"?>
<!DOCTYPE svg PUBLIC "-//W3C//DTD SVG 1.1//EN"
 "http://www.w3.org/Graphics/SVG/1.1/DTD/svg11.dtd">
<!-- Generated by graphviz version 8.0.2 (20230410.1723)
 -->
<!-- Title: SCR_CampaignBaseTaskSupportEntity Pages: 1 -->
<svg width="334pt" height="214pt"
 viewBox="0.00 0.00 333.50 214.00" xmlns="http://www.w3.org/2000/svg" xmlns:xlink="http://www.w3.org/1999/xlink">
<g id="graph0" class="graph" transform="scale(1 1) rotate(0) translate(4 210)">
<title>SCR_CampaignBaseTaskSupportEntity</title>
<!-- Node1 -->
<g id="node1" class="node">
<title>Node1</title>
<g id="a_node1"><a xlink:title=" ">
<polygon fill="#999999" stroke="#666666" points="238,-96 75,-96 75,-66 238,-66 238,-96"/>
<text text-anchor="start" x="83" y="-84" font-family="Helvetica,sans-Serif" font-size="10.00">SCR_CampaignBaseTaskSupport</text>
<text text-anchor="middle" x="156.5" y="-73" font-family="Helvetica,sans-Serif" font-size="10.00">Entity</text>
</a>
</g>
</g>
<!-- Node4 -->
<g id="node4" class="node">
<title>Node4</title>
<g id="a_node4"><a xlink:href="interfaceSCR__CampaignBuildingTaskSupportEntity.html" target="_top" xlink:title=" ">
<polygon fill="white" stroke="#666666" points="141,-30 0,-30 0,0 141,0 141,-30"/>
<text text-anchor="start" x="8" y="-18" font-family="Helvetica,sans-Serif" font-size="10.00">SCR_CampaignBuildingTask</text>
<text text-anchor="middle" x="70.5" y="-7" font-family="Helvetica,sans-Serif" font-size="10.00">SupportEntity</text>
</a>
</g>
</g>
<!-- Node1&#45;&gt;Node4 -->
<g id="edge3" class="edge">
<title>Node1&#45;&gt;Node4</title>
<path fill="none" stroke="#63b8ff" d="M128.62,-59.25C115.94,-49.82 101.27,-38.9 89.83,-30.39"/>
<polygon fill="#63b8ff" stroke="#63b8ff" points="126.3,-62.63 136.41,-65.8 130.48,-57.02 126.3,-62.63"/>
</g>
<!-- Node5 -->
<g id="node5" class="node">
<title>Node5</title>
<g id="a_node5"><a xlink:href="interfaceSCR__CampaignTaskSupportEntity.html" target="_top" xlink:title=" ">
<polygon fill="white" stroke="#666666" points="325.5,-24.5 159.5,-24.5 159.5,-5.5 325.5,-5.5 325.5,-24.5"/>
<text text-anchor="middle" x="242.5" y="-12.5" font-family="Helvetica,sans-Serif" font-size="10.00">SCR_CampaignTaskSupportEntity</text>
</a>
</g>
</g>
<!-- Node1&#45;&gt;Node5 -->
<g id="edge4" class="edge">
<title>Node1&#45;&gt;Node5</title>
<path fill="none" stroke="#63b8ff" d="M184.37,-59.26C200.02,-47.61 218.73,-33.69 230.62,-24.84"/>
<polygon fill="#63b8ff" stroke="#63b8ff" points="182.52,-57.02 176.59,-65.8 186.7,-62.63 182.52,-57.02"/>
</g>
<!-- Node2 -->
<g id="node2" class="node">
<title>Node2</title>
<g id="a_node2"><a xlink:href="interfaceSCR__BaseTaskSupportEntity.html" target="_top" xlink:title=" ">
<polygon fill="white" stroke="#666666" points="229,-151 84,-151 84,-132 229,-132 229,-151"/>
<text text-anchor="middle" x="156.5" y="-139" font-family="Helvetica,sans-Serif" font-size="10.00">SCR_BaseTaskSupportEntity</text>
</a>
</g>
</g>
<!-- Node2&#45;&gt;Node1 -->
<g id="edge1" class="edge">
<title>Node2&#45;&gt;Node1</title>
<path fill="none" stroke="#63b8ff" d="M156.5,-121.08C156.5,-112.92 156.5,-103.6 156.5,-96.11"/>
<polygon fill="#63b8ff" stroke="#63b8ff" points="153,-120.87 156.5,-130.87 160,-120.87 153,-120.87"/>
</g>
<!-- Node3 -->
<g id="node3" class="node">
<title>Node3</title>
<g id="a_node3"><a xlink:title=" ">
<polygon fill="white" stroke="#666666" points="194.5,-206 118.5,-206 118.5,-187 194.5,-187 194.5,-206"/>
<text text-anchor="middle" x="156.5" y="-194" font-family="Helvetica,sans-Serif" font-size="10.00">GenericEntity</text>
</a>
</g>
</g>
<!-- Node3&#45;&gt;Node2 -->
<g id="edge2" class="edge">
<title>Node3&#45;&gt;Node2</title>
<path fill="none" stroke="#63b8ff" d="M156.5,-175.93C156.5,-167.53 156.5,-158.13 156.5,-151.44"/>
<polygon fill="#63b8ff" stroke="#63b8ff" points="153,-175.75 156.5,-185.75 160,-175.75 153,-175.75"/>
</g>
</g>
</svg>
