<?xml version="1.0" encoding="UTF-8" standalone="no"?>
<!DOCTYPE svg PUBLIC "-//W3C//DTD SVG 1.1//EN"
 "http://www.w3.org/Graphics/SVG/1.1/DTD/svg11.dtd">
<!-- Generated by graphviz version 8.0.2 (20230410.1723)
 -->
<!-- Title: SCR_RestrictedDeployableSpawnPoint Pages: 1 -->
<svg width="150pt" height="258pt"
 viewBox="0.00 0.00 150.00 258.00" xmlns="http://www.w3.org/2000/svg" xmlns:xlink="http://www.w3.org/1999/xlink">
<g id="graph0" class="graph" transform="scale(1 1) rotate(0) translate(4 254)">
<title>SCR_RestrictedDeployableSpawnPoint</title>
<!-- Node1 -->
<g id="node1" class="node">
<title>Node1</title>
<g id="a_node1"><a xlink:title="Basically SCR_SpawnPoint with the ability to limit respawn amount.">
<polygon fill="#999999" stroke="#666666" points="138,-30 4,-30 4,0 138,0 138,-30"/>
<text text-anchor="start" x="12" y="-18" font-family="Helvetica,sans-Serif" font-size="10.00">SCR_RestrictedDeployable</text>
<text text-anchor="middle" x="71" y="-7" font-family="Helvetica,sans-Serif" font-size="10.00">SpawnPoint</text>
</a>
</g>
</g>
<!-- Node2 -->
<g id="node2" class="node">
<title>Node2</title>
<g id="a_node2"><a xlink:href="interfaceSCR__DeployableSpawnPoint.html" target="_top" xlink:title=" ">
<polygon fill="white" stroke="#666666" points="142,-85 0,-85 0,-66 142,-66 142,-85"/>
<text text-anchor="middle" x="71" y="-73" font-family="Helvetica,sans-Serif" font-size="10.00">SCR_DeployableSpawnPoint</text>
</a>
</g>
</g>
<!-- Node2&#45;&gt;Node1 -->
<g id="edge1" class="edge">
<title>Node2&#45;&gt;Node1</title>
<path fill="none" stroke="#63b8ff" d="M71,-55.08C71,-46.92 71,-37.6 71,-30.11"/>
<polygon fill="#63b8ff" stroke="#63b8ff" points="67.5,-54.87 71,-64.87 74.5,-54.87 67.5,-54.87"/>
</g>
<!-- Node3 -->
<g id="node3" class="node">
<title>Node3</title>
<g id="a_node3"><a xlink:href="interfaceSCR__SpawnPoint.html" target="_top" xlink:title="Spawn point entity defines positions on which players can possibly spawn.">
<polygon fill="white" stroke="#666666" points="118,-140 24,-140 24,-121 118,-121 118,-140"/>
<text text-anchor="middle" x="71" y="-128" font-family="Helvetica,sans-Serif" font-size="10.00">SCR_SpawnPoint</text>
</a>
</g>
</g>
<!-- Node3&#45;&gt;Node2 -->
<g id="edge2" class="edge">
<title>Node3&#45;&gt;Node2</title>
<path fill="none" stroke="#63b8ff" d="M71,-109.93C71,-101.53 71,-92.13 71,-85.44"/>
<polygon fill="#63b8ff" stroke="#63b8ff" points="67.5,-109.75 71,-119.75 74.5,-109.75 67.5,-109.75"/>
</g>
<!-- Node4 -->
<g id="node4" class="node">
<title>Node4</title>
<g id="a_node4"><a xlink:href="interfaceSCR__Position.html" target="_top" xlink:title=" ">
<polygon fill="white" stroke="#666666" points="109.5,-195 32.5,-195 32.5,-176 109.5,-176 109.5,-195"/>
<text text-anchor="middle" x="71" y="-183" font-family="Helvetica,sans-Serif" font-size="10.00">SCR_Position</text>
</a>
</g>
</g>
<!-- Node4&#45;&gt;Node3 -->
<g id="edge3" class="edge">
<title>Node4&#45;&gt;Node3</title>
<path fill="none" stroke="#63b8ff" d="M71,-164.93C71,-156.53 71,-147.13 71,-140.44"/>
<polygon fill="#63b8ff" stroke="#63b8ff" points="67.5,-164.75 71,-174.75 74.5,-164.75 67.5,-164.75"/>
</g>
<!-- Node5 -->
<g id="node5" class="node">
<title>Node5</title>
<g id="a_node5"><a xlink:title=" ">
<polygon fill="white" stroke="#666666" points="109,-250 33,-250 33,-231 109,-231 109,-250"/>
<text text-anchor="middle" x="71" y="-238" font-family="Helvetica,sans-Serif" font-size="10.00">GenericEntity</text>
</a>
</g>
</g>
<!-- Node5&#45;&gt;Node4 -->
<g id="edge4" class="edge">
<title>Node5&#45;&gt;Node4</title>
<path fill="none" stroke="#63b8ff" d="M71,-219.93C71,-211.53 71,-202.13 71,-195.44"/>
<polygon fill="#63b8ff" stroke="#63b8ff" points="67.5,-219.75 71,-229.75 74.5,-219.75 67.5,-219.75"/>
</g>
</g>
</svg>
