<?xml version="1.0" encoding="UTF-8" standalone="no"?>
<!DOCTYPE svg PUBLIC "-//W3C//DTD SVG 1.1//EN"
 "http://www.w3.org/Graphics/SVG/1.1/DTD/svg11.dtd">
<!-- Generated by graphviz version 8.0.2 (20230410.1723)
 -->
<!-- Title: SCR_ScenarioFrameworkSlotTaskAI Pages: 1 -->
<svg width="332pt" height="324pt"
 viewBox="0.00 0.00 331.50 324.00" xmlns="http://www.w3.org/2000/svg" xmlns:xlink="http://www.w3.org/1999/xlink">
<g id="graph0" class="graph" transform="scale(1 1) rotate(0) translate(4 320)">
<title>SCR_ScenarioFrameworkSlotTaskAI</title>
<!-- Node1 -->
<g id="node1" class="node">
<title>Node1</title>
<g id="a_node1"><a xlink:title=" ">
<polygon fill="#999999" stroke="#666666" points="231,-96 85,-96 85,-66 231,-66 231,-96"/>
<text text-anchor="start" x="93" y="-84" font-family="Helvetica,sans-Serif" font-size="10.00">SCR_ScenarioFrameworkSlot</text>
<text text-anchor="middle" x="158" y="-73" font-family="Helvetica,sans-Serif" font-size="10.00">TaskAI</text>
</a>
</g>
</g>
<!-- Node6 -->
<g id="node6" class="node">
<title>Node6</title>
<g id="a_node6"><a xlink:href="interfaceSCR__ScenarioFrameworkSlotDefend.html" target="_top" xlink:title=" ">
<polygon fill="white" stroke="#666666" points="146,-30 0,-30 0,0 146,0 146,-30"/>
<text text-anchor="start" x="8" y="-18" font-family="Helvetica,sans-Serif" font-size="10.00">SCR_ScenarioFrameworkSlot</text>
<text text-anchor="middle" x="73" y="-7" font-family="Helvetica,sans-Serif" font-size="10.00">Defend</text>
</a>
</g>
</g>
<!-- Node1&#45;&gt;Node6 -->
<g id="edge5" class="edge">
<title>Node1&#45;&gt;Node6</title>
<path fill="none" stroke="#63b8ff" d="M130.44,-59.25C117.92,-49.82 103.41,-38.9 92.11,-30.39"/>
<polygon fill="#63b8ff" stroke="#63b8ff" points="128.04,-62.58 138.14,-65.8 132.25,-56.99 128.04,-62.58"/>
</g>
<!-- Node7 -->
<g id="node7" class="node">
<title>Node7</title>
<g id="a_node7"><a xlink:href="interfaceSCR__ScenarioFrameworkSlotKill.html" target="_top" xlink:title=" ">
<polygon fill="white" stroke="#666666" points="323.5,-24.5 164.5,-24.5 164.5,-5.5 323.5,-5.5 323.5,-24.5"/>
<text text-anchor="middle" x="244" y="-12.5" font-family="Helvetica,sans-Serif" font-size="10.00">SCR_ScenarioFrameworkSlotKill</text>
</a>
</g>
</g>
<!-- Node1&#45;&gt;Node7 -->
<g id="edge6" class="edge">
<title>Node1&#45;&gt;Node7</title>
<path fill="none" stroke="#63b8ff" d="M185.87,-59.26C201.52,-47.61 220.23,-33.69 232.12,-24.84"/>
<polygon fill="#63b8ff" stroke="#63b8ff" points="184.02,-57.02 178.09,-65.8 188.2,-62.63 184.02,-57.02"/>
</g>
<!-- Node2 -->
<g id="node2" class="node">
<title>Node2</title>
<g id="a_node2"><a xlink:href="interfaceSCR__ScenarioFrameworkSlotTask.html" target="_top" xlink:title=" ">
<polygon fill="white" stroke="#666666" points="241.5,-151 74.5,-151 74.5,-132 241.5,-132 241.5,-151"/>
<text text-anchor="middle" x="158" y="-139" font-family="Helvetica,sans-Serif" font-size="10.00">SCR_ScenarioFrameworkSlotTask</text>
</a>
</g>
</g>
<!-- Node2&#45;&gt;Node1 -->
<g id="edge1" class="edge">
<title>Node2&#45;&gt;Node1</title>
<path fill="none" stroke="#63b8ff" d="M158,-121.08C158,-112.92 158,-103.6 158,-96.11"/>
<polygon fill="#63b8ff" stroke="#63b8ff" points="154.5,-120.87 158,-130.87 161.5,-120.87 154.5,-120.87"/>
</g>
<!-- Node3 -->
<g id="node3" class="node">
<title>Node3</title>
<g id="a_node3"><a xlink:href="interfaceSCR__ScenarioFrameworkSlotBase.html" target="_top" xlink:title=" ">
<polygon fill="white" stroke="#666666" points="242,-206 74,-206 74,-187 242,-187 242,-206"/>
<text text-anchor="middle" x="158" y="-194" font-family="Helvetica,sans-Serif" font-size="10.00">SCR_ScenarioFrameworkSlotBase</text>
</a>
</g>
</g>
<!-- Node3&#45;&gt;Node2 -->
<g id="edge2" class="edge">
<title>Node3&#45;&gt;Node2</title>
<path fill="none" stroke="#63b8ff" d="M158,-175.93C158,-167.53 158,-158.13 158,-151.44"/>
<polygon fill="#63b8ff" stroke="#63b8ff" points="154.5,-175.75 158,-185.75 161.5,-175.75 154.5,-175.75"/>
</g>
<!-- Node4 -->
<g id="node4" class="node">
<title>Node4</title>
<g id="a_node4"><a xlink:href="interfaceSCR__ScenarioFrameworkLayerBase.html" target="_top" xlink:title=" ">
<polygon fill="white" stroke="#666666" points="245.5,-261 70.5,-261 70.5,-242 245.5,-242 245.5,-261"/>
<text text-anchor="middle" x="158" y="-249" font-family="Helvetica,sans-Serif" font-size="10.00">SCR_ScenarioFrameworkLayerBase</text>
</a>
</g>
</g>
<!-- Node4&#45;&gt;Node3 -->
<g id="edge3" class="edge">
<title>Node4&#45;&gt;Node3</title>
<path fill="none" stroke="#63b8ff" d="M158,-230.93C158,-222.53 158,-213.13 158,-206.44"/>
<polygon fill="#63b8ff" stroke="#63b8ff" points="154.5,-230.75 158,-240.75 161.5,-230.75 154.5,-230.75"/>
</g>
<!-- Node5 -->
<g id="node5" class="node">
<title>Node5</title>
<g id="a_node5"><a xlink:title=" ">
<polygon fill="white" stroke="#666666" points="204,-316 112,-316 112,-297 204,-297 204,-316"/>
<text text-anchor="middle" x="158" y="-304" font-family="Helvetica,sans-Serif" font-size="10.00">ScriptComponent</text>
</a>
</g>
</g>
<!-- Node5&#45;&gt;Node4 -->
<g id="edge4" class="edge">
<title>Node5&#45;&gt;Node4</title>
<path fill="none" stroke="#63b8ff" d="M158,-285.93C158,-277.53 158,-268.13 158,-261.44"/>
<polygon fill="#63b8ff" stroke="#63b8ff" points="154.5,-285.75 158,-295.75 161.5,-285.75 154.5,-285.75"/>
</g>
</g>
</svg>
