<?xml version="1.0" encoding="UTF-8" standalone="no"?>
<!DOCTYPE svg PUBLIC "-//W3C//DTD SVG 1.1//EN"
 "http://www.w3.org/Graphics/SVG/1.1/DTD/svg11.dtd">
<!-- Generated by graphviz version 8.0.2 (20230410.1723)
 -->
<!-- Title: SCR_MapRTWBaseUI Pages: 1 -->
<svg width="296pt" height="247pt"
 viewBox="0.00 0.00 295.50 247.00" xmlns="http://www.w3.org/2000/svg" xmlns:xlink="http://www.w3.org/1999/xlink">
<g id="graph0" class="graph" transform="scale(1 1) rotate(0) translate(4 243)">
<title>SCR_MapRTWBaseUI</title>
<!-- Node1 -->
<g id="node1" class="node">
<title>Node1</title>
<g id="a_node1"><a xlink:title="Base map UI component for map tools which are using RenderTargetWidget to display.">
<polygon fill="#999999" stroke="#666666" points="203.5,-129 89.5,-129 89.5,-110 203.5,-110 203.5,-129"/>
<text text-anchor="middle" x="146.5" y="-117" font-family="Helvetica,sans-Serif" font-size="10.00">SCR_MapRTWBaseUI</text>
</a>
</g>
</g>
<!-- Node4 -->
<g id="node4" class="node">
<title>Node4</title>
<g id="a_node4"><a xlink:href="interfaceSCR__MapCompassUI.html" target="_top" xlink:title="Compass in map UI.">
<polygon fill="white" stroke="#666666" points="141,-74 30,-74 30,-55 141,-55 141,-74"/>
<text text-anchor="middle" x="85.5" y="-62" font-family="Helvetica,sans-Serif" font-size="10.00">SCR_MapCompassUI</text>
</a>
</g>
</g>
<!-- Node1&#45;&gt;Node4 -->
<g id="edge3" class="edge">
<title>Node1&#45;&gt;Node4</title>
<path fill="none" stroke="#63b8ff" d="M127.93,-102.37C117.34,-93.16 104.46,-81.98 95.69,-74.36"/>
<polygon fill="#63b8ff" stroke="#63b8ff" points="125.31,-105.59 135.15,-109.51 129.9,-100.31 125.31,-105.59"/>
</g>
<!-- Node6 -->
<g id="node6" class="node">
<title>Node6</title>
<g id="a_node6"><a xlink:href="interfaceSCR__MapWatchUI.html" target="_top" xlink:title=" ">
<polygon fill="white" stroke="#666666" points="264.5,-74 166.5,-74 166.5,-55 264.5,-55 264.5,-74"/>
<text text-anchor="middle" x="215.5" y="-62" font-family="Helvetica,sans-Serif" font-size="10.00">SCR_MapWatchUI</text>
</a>
</g>
</g>
<!-- Node1&#45;&gt;Node6 -->
<g id="edge5" class="edge">
<title>Node1&#45;&gt;Node6</title>
<path fill="none" stroke="#63b8ff" d="M166.79,-102.92C178.9,-93.61 193.85,-82.13 203.97,-74.36"/>
<polygon fill="#63b8ff" stroke="#63b8ff" points="165,-100.64 159.2,-109.51 169.27,-106.19 165,-100.64"/>
</g>
<!-- Node2 -->
<g id="node2" class="node">
<title>Node2</title>
<g id="a_node2"><a xlink:href="interfaceSCR__MapUIBaseComponent.html" target="_top" xlink:title=" ">
<polygon fill="white" stroke="#666666" points="217.5,-184 75.5,-184 75.5,-165 217.5,-165 217.5,-184"/>
<text text-anchor="middle" x="146.5" y="-172" font-family="Helvetica,sans-Serif" font-size="10.00">SCR_MapUIBaseComponent</text>
</a>
</g>
</g>
<!-- Node2&#45;&gt;Node1 -->
<g id="edge1" class="edge">
<title>Node2&#45;&gt;Node1</title>
<path fill="none" stroke="#63b8ff" d="M146.5,-153.93C146.5,-145.53 146.5,-136.13 146.5,-129.44"/>
<polygon fill="#63b8ff" stroke="#63b8ff" points="143,-153.75 146.5,-163.75 150,-153.75 143,-153.75"/>
</g>
<!-- Node3 -->
<g id="node3" class="node">
<title>Node3</title>
<g id="a_node3"><a xlink:title=" ">
<polygon fill="white" stroke="#666666" points="213,-239 80,-239 80,-220 213,-220 213,-239"/>
<text text-anchor="middle" x="146.5" y="-227" font-family="Helvetica,sans-Serif" font-size="10.00">ScriptedWidgetComponent</text>
</a>
</g>
</g>
<!-- Node3&#45;&gt;Node2 -->
<g id="edge2" class="edge">
<title>Node3&#45;&gt;Node2</title>
<path fill="none" stroke="#63b8ff" d="M146.5,-208.93C146.5,-200.53 146.5,-191.13 146.5,-184.44"/>
<polygon fill="#63b8ff" stroke="#63b8ff" points="143,-208.75 146.5,-218.75 150,-208.75 143,-208.75"/>
</g>
<!-- Node5 -->
<g id="node5" class="node">
<title>Node5</title>
<g id="a_node5"><a xlink:href="interfaceSCR__MapCompassUIDeploy.html" target="_top" xlink:title=" ">
<polygon fill="white" stroke="#666666" points="141,-19 0,-19 0,0 141,0 141,-19"/>
<text text-anchor="middle" x="70.5" y="-7" font-family="Helvetica,sans-Serif" font-size="10.00">SCR_MapCompassUIDeploy</text>
</a>
</g>
</g>
<!-- Node4&#45;&gt;Node5 -->
<g id="edge4" class="edge">
<title>Node4&#45;&gt;Node5</title>
<path fill="none" stroke="#63b8ff" d="M80.04,-44.22C77.64,-35.74 74.94,-26.21 73.03,-19.44"/>
<polygon fill="#63b8ff" stroke="#63b8ff" points="76.93,-45.08 83.02,-53.75 83.67,-43.17 76.93,-45.08"/>
</g>
<!-- Node7 -->
<g id="node7" class="node">
<title>Node7</title>
<g id="a_node7"><a xlink:href="interfaceSCR__MapWatchUIDeploy.html" target="_top" xlink:title=" ">
<polygon fill="white" stroke="#666666" points="287.5,-19 159.5,-19 159.5,0 287.5,0 287.5,-19"/>
<text text-anchor="middle" x="223.5" y="-7" font-family="Helvetica,sans-Serif" font-size="10.00">SCR_MapWatchUIDeploy</text>
</a>
</g>
</g>
<!-- Node6&#45;&gt;Node7 -->
<g id="edge6" class="edge">
<title>Node6&#45;&gt;Node7</title>
<path fill="none" stroke="#63b8ff" d="M218.45,-43.93C219.72,-35.53 221.14,-26.13 222.15,-19.44"/>
<polygon fill="#63b8ff" stroke="#63b8ff" points="214.85,-43.34 216.82,-53.75 221.77,-44.38 214.85,-43.34"/>
</g>
</g>
</svg>
