<?xml version="1.0" encoding="UTF-8" standalone="no"?>
<!DOCTYPE svg PUBLIC "-//W3C//DTD SVG 1.1//EN"
 "http://www.w3.org/Graphics/SVG/1.1/DTD/svg11.dtd">
<!-- Generated by graphviz version 8.0.2 (20230410.1723)
 -->
<!-- Title: SCR_LoginProcessDialogUI Pages: 1 -->
<svg width="442pt" height="247pt"
 viewBox="0.00 0.00 442.00 247.00" xmlns="http://www.w3.org/2000/svg" xmlns:xlink="http://www.w3.org/1999/xlink">
<g id="graph0" class="graph" transform="scale(1 1) rotate(0) translate(4 243)">
<title>SCR_LoginProcessDialogUI</title>
<!-- Node1 -->
<g id="node1" class="node">
<title>Node1</title>
<g id="a_node1"><a xlink:title=" ">
<polygon fill="#999999" stroke="#666666" points="301,-129 164,-129 164,-110 301,-110 301,-129"/>
<text text-anchor="middle" x="232.5" y="-117" font-family="Helvetica,sans-Serif" font-size="10.00">SCR_LoginProcessDialogUI</text>
</a>
</g>
</g>
<!-- Node4 -->
<g id="node4" class="node">
<title>Node4</title>
<g id="a_node4"><a xlink:href="interfaceSCR__Login2FADialogUI.html" target="_top" xlink:title=" ">
<polygon fill="white" stroke="#666666" points="155,-74 36,-74 36,-55 155,-55 155,-74"/>
<text text-anchor="middle" x="95.5" y="-62" font-family="Helvetica,sans-Serif" font-size="10.00">SCR_Login2FADialogUI</text>
</a>
</g>
</g>
<!-- Node1&#45;&gt;Node4 -->
<g id="edge3" class="edge">
<title>Node1&#45;&gt;Node4</title>
<path fill="none" stroke="#63b8ff" d="M199.11,-105.58C174.07,-95.9 140.46,-82.89 118.4,-74.36"/>
<polygon fill="#63b8ff" stroke="#63b8ff" points="197.67,-109.17 208.26,-109.51 200.2,-102.64 197.67,-109.17"/>
</g>
<!-- Node6 -->
<g id="node6" class="node">
<title>Node6</title>
<g id="a_node6"><a xlink:href="interfaceSCR__LoginDialogUI.html" target="_top" xlink:title=" ">
<polygon fill="white" stroke="#666666" points="283,-74 182,-74 182,-55 283,-55 283,-74"/>
<text text-anchor="middle" x="232.5" y="-62" font-family="Helvetica,sans-Serif" font-size="10.00">SCR_LoginDialogUI</text>
</a>
</g>
</g>
<!-- Node1&#45;&gt;Node6 -->
<g id="edge5" class="edge">
<title>Node1&#45;&gt;Node6</title>
<path fill="none" stroke="#63b8ff" d="M232.5,-98.93C232.5,-90.53 232.5,-81.13 232.5,-74.44"/>
<polygon fill="#63b8ff" stroke="#63b8ff" points="229,-98.75 232.5,-108.75 236,-98.75 229,-98.75"/>
</g>
<!-- Node8 -->
<g id="node8" class="node">
<title>Node8</title>
<g id="a_node8"><a xlink:href="interfaceSCR__PlayerProfileDialogUI.html" target="_top" xlink:title=" ">
<polygon fill="white" stroke="#666666" points="434,-74 301,-74 301,-55 434,-55 434,-74"/>
<text text-anchor="middle" x="367.5" y="-62" font-family="Helvetica,sans-Serif" font-size="10.00">SCR_PlayerProfileDialogUI</text>
</a>
</g>
</g>
<!-- Node1&#45;&gt;Node8 -->
<g id="edge7" class="edge">
<title>Node1&#45;&gt;Node8</title>
<path fill="none" stroke="#63b8ff" d="M265.4,-105.58C290.07,-95.9 323.2,-82.89 344.94,-74.36"/>
<polygon fill="#63b8ff" stroke="#63b8ff" points="264.43,-102.6 256.4,-109.51 266.99,-109.11 264.43,-102.6"/>
</g>
<!-- Node2 -->
<g id="node2" class="node">
<title>Node2</title>
<g id="a_node2"><a xlink:href="interfaceSCR__ConfigurableDialogUi.html" target="_top" xlink:title=" ">
<polygon fill="white" stroke="#666666" points="298,-184 167,-184 167,-165 298,-165 298,-184"/>
<text text-anchor="middle" x="232.5" y="-172" font-family="Helvetica,sans-Serif" font-size="10.00">SCR_ConfigurableDialogUi</text>
</a>
</g>
</g>
<!-- Node2&#45;&gt;Node1 -->
<g id="edge1" class="edge">
<title>Node2&#45;&gt;Node1</title>
<path fill="none" stroke="#63b8ff" d="M232.5,-153.93C232.5,-145.53 232.5,-136.13 232.5,-129.44"/>
<polygon fill="#63b8ff" stroke="#63b8ff" points="229,-153.75 232.5,-163.75 236,-153.75 229,-153.75"/>
</g>
<!-- Node3 -->
<g id="node3" class="node">
<title>Node3</title>
<g id="a_node3"><a xlink:title=" ">
<polygon fill="white" stroke="#666666" points="299,-239 166,-239 166,-220 299,-220 299,-239"/>
<text text-anchor="middle" x="232.5" y="-227" font-family="Helvetica,sans-Serif" font-size="10.00">ScriptedWidgetComponent</text>
</a>
</g>
</g>
<!-- Node3&#45;&gt;Node2 -->
<g id="edge2" class="edge">
<title>Node3&#45;&gt;Node2</title>
<path fill="none" stroke="#63b8ff" d="M232.5,-208.93C232.5,-200.53 232.5,-191.13 232.5,-184.44"/>
<polygon fill="#63b8ff" stroke="#63b8ff" points="229,-208.75 232.5,-218.75 236,-208.75 229,-208.75"/>
</g>
<!-- Node5 -->
<g id="node5" class="node">
<title>Node5</title>
<g id="a_node5"><a xlink:href="interfaceSCR__Login2FADialogConsoleUI.html" target="_top" xlink:title=" ">
<polygon fill="white" stroke="#666666" points="155,-19 0,-19 0,0 155,0 155,-19"/>
<text text-anchor="middle" x="77.5" y="-7" font-family="Helvetica,sans-Serif" font-size="10.00">SCR_Login2FADialogConsoleUI</text>
</a>
</g>
</g>
<!-- Node4&#45;&gt;Node5 -->
<g id="edge4" class="edge">
<title>Node4&#45;&gt;Node5</title>
<path fill="none" stroke="#63b8ff" d="M89.05,-44.5C86.15,-35.96 82.86,-26.28 80.54,-19.44"/>
<polygon fill="#63b8ff" stroke="#63b8ff" points="86,-45.4 92.53,-53.75 92.63,-43.15 86,-45.4"/>
</g>
<!-- Node7 -->
<g id="node7" class="node">
<title>Node7</title>
<g id="a_node7"><a xlink:href="interfaceSCR__LoginDialogConsoleUI.html" target="_top" xlink:title=" ">
<polygon fill="white" stroke="#666666" points="310,-19 173,-19 173,0 310,0 310,-19"/>
<text text-anchor="middle" x="241.5" y="-7" font-family="Helvetica,sans-Serif" font-size="10.00">SCR_LoginDialogConsoleUI</text>
</a>
</g>
</g>
<!-- Node6&#45;&gt;Node7 -->
<g id="edge6" class="edge">
<title>Node6&#45;&gt;Node7</title>
<path fill="none" stroke="#63b8ff" d="M235.82,-43.93C237.25,-35.53 238.85,-26.13 239.98,-19.44"/>
<polygon fill="#63b8ff" stroke="#63b8ff" points="232.21,-43.3 233.99,-53.75 239.11,-44.48 232.21,-43.3"/>
</g>
</g>
</svg>
