<?xml version="1.0" encoding="UTF-8" standalone="no"?>
<!DOCTYPE svg PUBLIC "-//W3C//DTD SVG 1.1//EN"
 "http://www.w3.org/Graphics/SVG/1.1/DTD/svg11.dtd">
<!-- Generated by graphviz version 8.0.2 (20230410.1723)
 -->
<!-- Title: SCR_InventorySlotStorageUI Pages: 1 -->
<svg width="282pt" height="203pt"
 viewBox="0.00 0.00 282.00 203.00" xmlns="http://www.w3.org/2000/svg" xmlns:xlink="http://www.w3.org/1999/xlink">
<g id="graph0" class="graph" transform="scale(1 1) rotate(0) translate(4 199)">
<title>SCR_InventorySlotStorageUI</title>
<!-- Node1 -->
<g id="node1" class="node">
<title>Node1</title>
<g id="a_node1"><a xlink:title="UI Script Inventory Slot UI Layout.">
<polygon fill="#999999" stroke="#666666" points="205.5,-85 65.5,-85 65.5,-66 205.5,-66 205.5,-85"/>
<text text-anchor="middle" x="135.5" y="-73" font-family="Helvetica,sans-Serif" font-size="10.00">SCR_InventorySlotStorageUI</text>
</a>
</g>
</g>
<!-- Node4 -->
<g id="node4" class="node">
<title>Node4</title>
<g id="a_node4"><a xlink:href="interfaceSCR__InventorySlotLBSUI.html" target="_top" xlink:title="UI Script Inventory Slot UI Layout.">
<polygon fill="white" stroke="#666666" points="125,-24.5 0,-24.5 0,-5.5 125,-5.5 125,-24.5"/>
<text text-anchor="middle" x="62.5" y="-12.5" font-family="Helvetica,sans-Serif" font-size="10.00">SCR_InventorySlotLBSUI</text>
</a>
</g>
</g>
<!-- Node1&#45;&gt;Node4 -->
<g id="edge3" class="edge">
<title>Node1&#45;&gt;Node4</title>
<path fill="none" stroke="#63b8ff" d="M116.21,-59.04C102.65,-48.17 84.99,-34.02 73.69,-24.97"/>
<polygon fill="#63b8ff" stroke="#63b8ff" points="113.42,-62.09 123.41,-65.62 117.8,-56.63 113.42,-62.09"/>
</g>
<!-- Node5 -->
<g id="node5" class="node">
<title>Node5</title>
<g id="a_node5"><a xlink:href="interfaceSCR__InventorySlotStorageEmbeddedUI.html" target="_top" xlink:title="UI Script Inventory Slot UI Layout.">
<polygon fill="white" stroke="#666666" points="274,-30 143,-30 143,0 274,0 274,-30"/>
<text text-anchor="start" x="151" y="-18" font-family="Helvetica,sans-Serif" font-size="10.00">SCR_InventorySlotStorage</text>
<text text-anchor="middle" x="208.5" y="-7" font-family="Helvetica,sans-Serif" font-size="10.00">EmbeddedUI</text>
</a>
</g>
</g>
<!-- Node1&#45;&gt;Node5 -->
<g id="edge4" class="edge">
<title>Node1&#45;&gt;Node5</title>
<path fill="none" stroke="#63b8ff" d="M155.09,-58.8C166.1,-49.98 179.74,-39.05 190.48,-30.44"/>
<polygon fill="#63b8ff" stroke="#63b8ff" points="153.2,-56.63 147.59,-65.62 157.58,-62.09 153.2,-56.63"/>
</g>
<!-- Node2 -->
<g id="node2" class="node">
<title>Node2</title>
<g id="a_node2"><a xlink:href="interfaceSCR__InventorySlotUI.html" target="_top" xlink:title="UI Script Inventory Slot UI Layout.">
<polygon fill="white" stroke="#666666" points="189,-140 82,-140 82,-121 189,-121 189,-140"/>
<text text-anchor="middle" x="135.5" y="-128" font-family="Helvetica,sans-Serif" font-size="10.00">SCR_InventorySlotUI</text>
</a>
</g>
</g>
<!-- Node2&#45;&gt;Node1 -->
<g id="edge1" class="edge">
<title>Node2&#45;&gt;Node1</title>
<path fill="none" stroke="#63b8ff" d="M135.5,-109.93C135.5,-101.53 135.5,-92.13 135.5,-85.44"/>
<polygon fill="#63b8ff" stroke="#63b8ff" points="132,-109.75 135.5,-119.75 139,-109.75 132,-109.75"/>
</g>
<!-- Node3 -->
<g id="node3" class="node">
<title>Node3</title>
<g id="a_node3"><a xlink:title=" ">
<polygon fill="white" stroke="#666666" points="202,-195 69,-195 69,-176 202,-176 202,-195"/>
<text text-anchor="middle" x="135.5" y="-183" font-family="Helvetica,sans-Serif" font-size="10.00">ScriptedWidgetComponent</text>
</a>
</g>
</g>
<!-- Node3&#45;&gt;Node2 -->
<g id="edge2" class="edge">
<title>Node3&#45;&gt;Node2</title>
<path fill="none" stroke="#63b8ff" d="M135.5,-164.93C135.5,-156.53 135.5,-147.13 135.5,-140.44"/>
<polygon fill="#63b8ff" stroke="#63b8ff" points="132,-164.75 135.5,-174.75 139,-164.75 132,-164.75"/>
</g>
</g>
</svg>
