<?xml version="1.0" encoding="UTF-8" standalone="no"?>
<!DOCTYPE svg PUBLIC "-//W3C//DTD SVG 1.1//EN"
 "http://www.w3.org/Graphics/SVG/1.1/DTD/svg11.dtd">
<!-- Generated by graphviz version 8.0.2 (20230410.1723)
 -->
<!-- Title: ForestGeneratorLevel Pages: 1 -->
<svg width="428pt" height="82pt"
 viewBox="0.00 0.00 427.50 82.00" xmlns="http://www.w3.org/2000/svg" xmlns:xlink="http://www.w3.org/1999/xlink">
<g id="graph0" class="graph" transform="scale(1 1) rotate(0) translate(4 78)">
<title>ForestGeneratorLevel</title>
<!-- Node1 -->
<g id="node1" class="node">
<title>Node1</title>
<g id="a_node1"><a xlink:title=" ">
<polygon fill="#999999" stroke="#666666" points="271.5,-74 162.5,-74 162.5,-55 271.5,-55 271.5,-74"/>
<text text-anchor="middle" x="217" y="-62" font-family="Helvetica,sans-Serif" font-size="10.00">ForestGeneratorLevel</text>
</a>
</g>
</g>
<!-- Node2 -->
<g id="node2" class="node">
<title>Node2</title>
<g id="a_node2"><a xlink:href="interfaceForestGeneratorBottomLevel.html" target="_top" xlink:title=" ">
<polygon fill="white" stroke="#666666" points="140,-19 0,-19 0,0 140,0 140,-19"/>
<text text-anchor="middle" x="70" y="-7" font-family="Helvetica,sans-Serif" font-size="10.00">ForestGeneratorBottomLevel</text>
</a>
</g>
</g>
<!-- Node1&#45;&gt;Node2 -->
<g id="edge1" class="edge">
<title>Node1&#45;&gt;Node2</title>
<path fill="none" stroke="#63b8ff" d="M181.89,-50.84C154.95,-41.13 118.45,-27.97 94.57,-19.36"/>
<polygon fill="#63b8ff" stroke="#63b8ff" points="180.47,-54.41 191.06,-54.51 182.84,-47.82 180.47,-54.41"/>
</g>
<!-- Node3 -->
<g id="node3" class="node">
<title>Node3</title>
<g id="a_node3"><a xlink:href="interfaceForestGeneratorOutline.html" target="_top" xlink:title=" ">
<polygon fill="white" stroke="#666666" points="276,-19 158,-19 158,0 276,0 276,-19"/>
<text text-anchor="middle" x="217" y="-7" font-family="Helvetica,sans-Serif" font-size="10.00">ForestGeneratorOutline</text>
</a>
</g>
</g>
<!-- Node1&#45;&gt;Node3 -->
<g id="edge2" class="edge">
<title>Node1&#45;&gt;Node3</title>
<path fill="none" stroke="#63b8ff" d="M217,-43.93C217,-35.53 217,-26.13 217,-19.44"/>
<polygon fill="#63b8ff" stroke="#63b8ff" points="213.5,-43.75 217,-53.75 220.5,-43.75 213.5,-43.75"/>
</g>
<!-- Node4 -->
<g id="node4" class="node">
<title>Node4</title>
<g id="a_node4"><a xlink:href="interfaceForestGeneratorTopLevel.html" target="_top" xlink:title=" ">
<polygon fill="white" stroke="#666666" points="419.5,-19 294.5,-19 294.5,0 419.5,0 419.5,-19"/>
<text text-anchor="middle" x="357" y="-7" font-family="Helvetica,sans-Serif" font-size="10.00">ForestGeneratorTopLevel</text>
</a>
</g>
</g>
<!-- Node1&#45;&gt;Node4 -->
<g id="edge3" class="edge">
<title>Node1&#45;&gt;Node4</title>
<path fill="none" stroke="#63b8ff" d="M250.78,-50.71C276.4,-41.01 310.96,-27.93 333.6,-19.36"/>
<polygon fill="#63b8ff" stroke="#63b8ff" points="249.86,-47.7 241.75,-54.51 252.34,-54.24 249.86,-47.7"/>
</g>
</g>
</svg>
