<?xml version="1.0" encoding="UTF-8" standalone="no"?>
<!DOCTYPE svg PUBLIC "-//W3C//DTD SVG 1.1//EN"
 "http://www.w3.org/Graphics/SVG/1.1/DTD/svg11.dtd">
<!-- Generated by graphviz version 8.0.2 (20230410.1723)
 -->
<!-- Title: SCR_UniversalInventoryStorageComponent Pages: 1 -->
<svg width="169pt" height="456pt"
 viewBox="0.00 0.00 169.00 456.00" xmlns="http://www.w3.org/2000/svg" xmlns:xlink="http://www.w3.org/1999/xlink">
<g id="graph0" class="graph" transform="scale(1 1) rotate(0) translate(4 452)">
<title>SCR_UniversalInventoryStorageComponent</title>
<!-- Node1 -->
<g id="node1" class="node">
<title>Node1</title>
<g id="a_node1"><a xlink:title="Current storage variant allows dynamic scaling of slots and handles Move/Insert/Remove operations it ...">
<polygon fill="#999999" stroke="#666666" points="157,-30 4,-30 4,0 157,0 157,-30"/>
<text text-anchor="start" x="12" y="-18" font-family="Helvetica,sans-Serif" font-size="10.00">SCR_UniversalInventoryStorage</text>
<text text-anchor="middle" x="80.5" y="-7" font-family="Helvetica,sans-Serif" font-size="10.00">Component</text>
</a>
</g>
</g>
<!-- Node2 -->
<g id="node2" class="node">
<title>Node2</title>
<g id="a_node2"><a xlink:href="interfaceUniversalInventoryStorageComponent.html" target="_top" xlink:title=" ">
<polygon fill="white" stroke="#666666" points="144.5,-96 16.5,-96 16.5,-66 144.5,-66 144.5,-96"/>
<text text-anchor="start" x="24.5" y="-84" font-family="Helvetica,sans-Serif" font-size="10.00">UniversalInventoryStorage</text>
<text text-anchor="middle" x="80.5" y="-73" font-family="Helvetica,sans-Serif" font-size="10.00">Component</text>
</a>
</g>
</g>
<!-- Node2&#45;&gt;Node1 -->
<g id="edge1" class="edge">
<title>Node2&#45;&gt;Node1</title>
<path fill="none" stroke="#63b8ff" d="M80.5,-54.97C80.5,-46.55 80.5,-37.45 80.5,-30.16"/>
<polygon fill="#63b8ff" stroke="#63b8ff" points="77,-54.8 80.5,-64.8 84,-54.8 77,-54.8"/>
</g>
<!-- Node3 -->
<g id="node3" class="node">
<title>Node3</title>
<g id="a_node3"><a xlink:href="interfaceBaseUniversalInventoryStorageComponent.html" target="_top" xlink:title=" ">
<polygon fill="white" stroke="#666666" points="155.5,-162 5.5,-162 5.5,-132 155.5,-132 155.5,-162"/>
<text text-anchor="start" x="13.5" y="-150" font-family="Helvetica,sans-Serif" font-size="10.00">BaseUniversalInventoryStorage</text>
<text text-anchor="middle" x="80.5" y="-139" font-family="Helvetica,sans-Serif" font-size="10.00">Component</text>
</a>
</g>
</g>
<!-- Node3&#45;&gt;Node2 -->
<g id="edge2" class="edge">
<title>Node3&#45;&gt;Node2</title>
<path fill="none" stroke="#63b8ff" d="M80.5,-120.97C80.5,-112.55 80.5,-103.45 80.5,-96.16"/>
<polygon fill="#63b8ff" stroke="#63b8ff" points="77,-120.8 80.5,-130.8 84,-120.8 77,-120.8"/>
</g>
<!-- Node4 -->
<g id="node4" class="node">
<title>Node4</title>
<g id="a_node4"><a xlink:href="interfaceScriptedBaseInventoryStorageComponent.html" target="_top" xlink:title=" ">
<polygon fill="white" stroke="#666666" points="154,-228 7,-228 7,-198 154,-198 154,-228"/>
<text text-anchor="start" x="15" y="-216" font-family="Helvetica,sans-Serif" font-size="10.00">ScriptedBaseInventoryStorage</text>
<text text-anchor="middle" x="80.5" y="-205" font-family="Helvetica,sans-Serif" font-size="10.00">Component</text>
</a>
</g>
</g>
<!-- Node4&#45;&gt;Node3 -->
<g id="edge3" class="edge">
<title>Node4&#45;&gt;Node3</title>
<path fill="none" stroke="#63b8ff" d="M80.5,-186.97C80.5,-178.55 80.5,-169.45 80.5,-162.16"/>
<polygon fill="#63b8ff" stroke="#63b8ff" points="77,-186.8 80.5,-196.8 84,-186.8 77,-186.8"/>
</g>
<!-- Node5 -->
<g id="node5" class="node">
<title>Node5</title>
<g id="a_node5"><a xlink:href="interfaceBaseInventoryStorageComponent.html" target="_top" xlink:title=" ">
<polygon fill="white" stroke="#666666" points="161,-283 0,-283 0,-264 161,-264 161,-283"/>
<text text-anchor="middle" x="80.5" y="-271" font-family="Helvetica,sans-Serif" font-size="10.00">BaseInventoryStorageComponent</text>
</a>
</g>
</g>
<!-- Node5&#45;&gt;Node4 -->
<g id="edge4" class="edge">
<title>Node5&#45;&gt;Node4</title>
<path fill="none" stroke="#63b8ff" d="M80.5,-253.08C80.5,-244.92 80.5,-235.6 80.5,-228.11"/>
<polygon fill="#63b8ff" stroke="#63b8ff" points="77,-252.87 80.5,-262.87 84,-252.87 77,-252.87"/>
</g>
<!-- Node6 -->
<g id="node6" class="node">
<title>Node6</title>
<g id="a_node6"><a xlink:href="interfaceInventoryItemComponent.html" target="_top" xlink:title=" ">
<polygon fill="white" stroke="#666666" points="142,-338 19,-338 19,-319 142,-319 142,-338"/>
<text text-anchor="middle" x="80.5" y="-326" font-family="Helvetica,sans-Serif" font-size="10.00">InventoryItemComponent</text>
</a>
</g>
</g>
<!-- Node6&#45;&gt;Node5 -->
<g id="edge5" class="edge">
<title>Node6&#45;&gt;Node5</title>
<path fill="none" stroke="#63b8ff" d="M80.5,-307.93C80.5,-299.53 80.5,-290.13 80.5,-283.44"/>
<polygon fill="#63b8ff" stroke="#63b8ff" points="77,-307.75 80.5,-317.75 84,-307.75 77,-307.75"/>
</g>
<!-- Node7 -->
<g id="node7" class="node">
<title>Node7</title>
<g id="a_node7"><a xlink:href="interfaceGameComponent.html" target="_top" xlink:title=" ">
<polygon fill="white" stroke="#666666" points="126.5,-393 34.5,-393 34.5,-374 126.5,-374 126.5,-393"/>
<text text-anchor="middle" x="80.5" y="-381" font-family="Helvetica,sans-Serif" font-size="10.00">GameComponent</text>
</a>
</g>
</g>
<!-- Node7&#45;&gt;Node6 -->
<g id="edge6" class="edge">
<title>Node7&#45;&gt;Node6</title>
<path fill="none" stroke="#63b8ff" d="M80.5,-362.93C80.5,-354.53 80.5,-345.13 80.5,-338.44"/>
<polygon fill="#63b8ff" stroke="#63b8ff" points="77,-362.75 80.5,-372.75 84,-362.75 77,-362.75"/>
</g>
<!-- Node8 -->
<g id="node8" class="node">
<title>Node8</title>
<g id="a_node8"><a xlink:title=" ">
<polygon fill="white" stroke="#666666" points="130.5,-448 30.5,-448 30.5,-429 130.5,-429 130.5,-448"/>
<text text-anchor="middle" x="80.5" y="-436" font-family="Helvetica,sans-Serif" font-size="10.00">GenericComponent</text>
</a>
</g>
</g>
<!-- Node8&#45;&gt;Node7 -->
<g id="edge7" class="edge">
<title>Node8&#45;&gt;Node7</title>
<path fill="none" stroke="#63b8ff" d="M80.5,-417.93C80.5,-409.53 80.5,-400.13 80.5,-393.44"/>
<polygon fill="#63b8ff" stroke="#63b8ff" points="77,-417.75 80.5,-427.75 84,-417.75 77,-417.75"/>
</g>
</g>
</svg>
