<?xml version="1.0" encoding="UTF-8" standalone="no"?>
<!DOCTYPE svg PUBLIC "-//W3C//DTD SVG 1.1//EN"
 "http://www.w3.org/Graphics/SVG/1.1/DTD/svg11.dtd">
<!-- Generated by graphviz version 8.0.2 (20230410.1723)
 -->
<!-- Title: SCR_BaseTooltipTargetEditorUIComponent Pages: 1 -->
<svg width="324pt" height="269pt"
 viewBox="0.00 0.00 324.00 269.00" xmlns="http://www.w3.org/2000/svg" xmlns:xlink="http://www.w3.org/1999/xlink">
<g id="graph0" class="graph" transform="scale(1 1) rotate(0) translate(4 265)">
<title>SCR_BaseTooltipTargetEditorUIComponent</title>
<!-- Node1 -->
<g id="node1" class="node">
<title>Node1</title>
<g id="a_node1"><a xlink:title=" ">
<polygon fill="#999999" stroke="#666666" points="234.5,-96 88.5,-96 88.5,-66 234.5,-66 234.5,-96"/>
<text text-anchor="start" x="96.5" y="-84" font-family="Helvetica,sans-Serif" font-size="10.00">SCR_BaseTooltipTargetEditor</text>
<text text-anchor="middle" x="161.5" y="-73" font-family="Helvetica,sans-Serif" font-size="10.00">UIComponent</text>
</a>
</g>
</g>
<!-- Node5 -->
<g id="node5" class="node">
<title>Node5</title>
<g id="a_node5"><a xlink:href="interfaceSCR__CustomTooltipTargetEditorUIComponent.html" target="_top" xlink:title=" ">
<polygon fill="white" stroke="#666666" points="157,-30 0,-30 0,0 157,0 157,-30"/>
<text text-anchor="start" x="8" y="-18" font-family="Helvetica,sans-Serif" font-size="10.00">SCR_CustomTooltipTargetEditor</text>
<text text-anchor="middle" x="78.5" y="-7" font-family="Helvetica,sans-Serif" font-size="10.00">UIComponent</text>
</a>
</g>
</g>
<!-- Node1&#45;&gt;Node5 -->
<g id="edge4" class="edge">
<title>Node1&#45;&gt;Node5</title>
<path fill="none" stroke="#63b8ff" d="M134.59,-59.25C122.36,-49.82 108.19,-38.9 97.16,-30.39"/>
<polygon fill="#63b8ff" stroke="#63b8ff" points="132.02,-62.46 142.08,-65.8 136.3,-56.92 132.02,-62.46"/>
</g>
<!-- Node6 -->
<g id="node6" class="node">
<title>Node6</title>
<g id="a_node6"><a xlink:href="interfaceSCR__LinkTooltipTargetEditorUIComponent.html" target="_top" xlink:title=" ">
<polygon fill="white" stroke="#666666" points="316,-30 175,-30 175,0 316,0 316,-30"/>
<text text-anchor="start" x="183" y="-18" font-family="Helvetica,sans-Serif" font-size="10.00">SCR_LinkTooltipTargetEditor</text>
<text text-anchor="middle" x="245.5" y="-7" font-family="Helvetica,sans-Serif" font-size="10.00">UIComponent</text>
</a>
</g>
</g>
<!-- Node1&#45;&gt;Node6 -->
<g id="edge5" class="edge">
<title>Node1&#45;&gt;Node6</title>
<path fill="none" stroke="#63b8ff" d="M188.74,-59.25C201.11,-49.82 215.45,-38.9 226.62,-30.39"/>
<polygon fill="#63b8ff" stroke="#63b8ff" points="186.98,-56.95 181.14,-65.8 191.22,-62.52 186.98,-56.95"/>
</g>
<!-- Node2 -->
<g id="node2" class="node">
<title>Node2</title>
<g id="a_node2"><a xlink:href="interfaceSCR__BaseEditorUIComponent.html" target="_top" xlink:title=" ">
<polygon fill="white" stroke="#666666" points="236,-151 87,-151 87,-132 236,-132 236,-151"/>
<text text-anchor="middle" x="161.5" y="-139" font-family="Helvetica,sans-Serif" font-size="10.00">SCR_BaseEditorUIComponent</text>
</a>
</g>
</g>
<!-- Node2&#45;&gt;Node1 -->
<g id="edge1" class="edge">
<title>Node2&#45;&gt;Node1</title>
<path fill="none" stroke="#63b8ff" d="M161.5,-121.08C161.5,-112.92 161.5,-103.6 161.5,-96.11"/>
<polygon fill="#63b8ff" stroke="#63b8ff" points="158,-120.87 161.5,-130.87 165,-120.87 158,-120.87"/>
</g>
<!-- Node3 -->
<g id="node3" class="node">
<title>Node3</title>
<g id="a_node3"><a xlink:href="interfaceMenuRootSubComponent.html" target="_top" xlink:title="Widget component which is linked to menu it&#39;s part of.">
<polygon fill="white" stroke="#666666" points="225.5,-206 97.5,-206 97.5,-187 225.5,-187 225.5,-206"/>
<text text-anchor="middle" x="161.5" y="-194" font-family="Helvetica,sans-Serif" font-size="10.00">MenuRootSubComponent</text>
</a>
</g>
</g>
<!-- Node3&#45;&gt;Node2 -->
<g id="edge2" class="edge">
<title>Node3&#45;&gt;Node2</title>
<path fill="none" stroke="#63b8ff" d="M161.5,-175.93C161.5,-167.53 161.5,-158.13 161.5,-151.44"/>
<polygon fill="#63b8ff" stroke="#63b8ff" points="158,-175.75 161.5,-185.75 165,-175.75 158,-175.75"/>
</g>
<!-- Node4 -->
<g id="node4" class="node">
<title>Node4</title>
<g id="a_node4"><a xlink:title=" ">
<polygon fill="white" stroke="#666666" points="228,-261 95,-261 95,-242 228,-242 228,-261"/>
<text text-anchor="middle" x="161.5" y="-249" font-family="Helvetica,sans-Serif" font-size="10.00">ScriptedWidgetComponent</text>
</a>
</g>
</g>
<!-- Node4&#45;&gt;Node3 -->
<g id="edge3" class="edge">
<title>Node4&#45;&gt;Node3</title>
<path fill="none" stroke="#63b8ff" d="M161.5,-230.93C161.5,-222.53 161.5,-213.13 161.5,-206.44"/>
<polygon fill="#63b8ff" stroke="#63b8ff" points="158,-230.75 161.5,-240.75 165,-230.75 158,-230.75"/>
</g>
</g>
</svg>
