<?xml version="1.0" encoding="UTF-8" standalone="no"?>
<!DOCTYPE svg PUBLIC "-//W3C//DTD SVG 1.1//EN"
 "http://www.w3.org/Graphics/SVG/1.1/DTD/svg11.dtd">
<!-- Generated by graphviz version 8.0.2 (20230410.1723)
 -->
<!-- Title: SCR_InventoryGearInspectionPointUI Pages: 1 -->
<svg width="170pt" height="203pt"
 viewBox="0.00 0.00 170.00 203.00" xmlns="http://www.w3.org/2000/svg" xmlns:xlink="http://www.w3.org/1999/xlink">
<g id="graph0" class="graph" transform="scale(1 1) rotate(0) translate(4 199)">
<title>SCR_InventoryGearInspectionPointUI</title>
<!-- Node1 -->
<g id="node1" class="node">
<title>Node1</title>
<g id="a_node1"><a xlink:title=" ">
<polygon fill="#999999" stroke="#666666" points="154,-30 8,-30 8,0 154,0 154,-30"/>
<text text-anchor="start" x="16" y="-18" font-family="Helvetica,sans-Serif" font-size="10.00">SCR_InventoryGearInspection</text>
<text text-anchor="middle" x="81" y="-7" font-family="Helvetica,sans-Serif" font-size="10.00">PointUI</text>
</a>
</g>
</g>
<!-- Node2 -->
<g id="node2" class="node">
<title>Node2</title>
<g id="a_node2"><a xlink:href="interfaceSCR__InventoryAttachmentPointUI.html" target="_top" xlink:title=" ">
<polygon fill="white" stroke="#666666" points="162,-85 0,-85 0,-66 162,-66 162,-85"/>
<text text-anchor="middle" x="81" y="-73" font-family="Helvetica,sans-Serif" font-size="10.00">SCR_InventoryAttachmentPointUI</text>
</a>
</g>
</g>
<!-- Node2&#45;&gt;Node1 -->
<g id="edge1" class="edge">
<title>Node2&#45;&gt;Node1</title>
<path fill="none" stroke="#63b8ff" d="M81,-55.08C81,-46.92 81,-37.6 81,-30.11"/>
<polygon fill="#63b8ff" stroke="#63b8ff" points="77.5,-54.87 81,-64.87 84.5,-54.87 77.5,-54.87"/>
</g>
<!-- Node3 -->
<g id="node3" class="node">
<title>Node3</title>
<g id="a_node3"><a xlink:href="interfaceSCR__InventoryStorageBaseUI.html" target="_top" xlink:title="UI Script Inventory of type: non&#45;uniform grid storage.">
<polygon fill="white" stroke="#666666" points="154,-140 8,-140 8,-121 154,-121 154,-140"/>
<text text-anchor="middle" x="81" y="-128" font-family="Helvetica,sans-Serif" font-size="10.00">SCR_InventoryStorageBaseUI</text>
</a>
</g>
</g>
<!-- Node3&#45;&gt;Node2 -->
<g id="edge2" class="edge">
<title>Node3&#45;&gt;Node2</title>
<path fill="none" stroke="#63b8ff" d="M81,-109.93C81,-101.53 81,-92.13 81,-85.44"/>
<polygon fill="#63b8ff" stroke="#63b8ff" points="77.5,-109.75 81,-119.75 84.5,-109.75 77.5,-109.75"/>
</g>
<!-- Node4 -->
<g id="node4" class="node">
<title>Node4</title>
<g id="a_node4"><a xlink:title=" ">
<polygon fill="white" stroke="#666666" points="147.5,-195 14.5,-195 14.5,-176 147.5,-176 147.5,-195"/>
<text text-anchor="middle" x="81" y="-183" font-family="Helvetica,sans-Serif" font-size="10.00">ScriptedWidgetComponent</text>
</a>
</g>
</g>
<!-- Node4&#45;&gt;Node3 -->
<g id="edge3" class="edge">
<title>Node4&#45;&gt;Node3</title>
<path fill="none" stroke="#63b8ff" d="M81,-164.93C81,-156.53 81,-147.13 81,-140.44"/>
<polygon fill="#63b8ff" stroke="#63b8ff" points="77.5,-164.75 81,-174.75 84.5,-164.75 77.5,-164.75"/>
</g>
</g>
</svg>
