<?xml version="1.0" encoding="UTF-8" standalone="no"?>
<!DOCTYPE svg PUBLIC "-//W3C//DTD SVG 1.1//EN"
 "http://www.w3.org/Graphics/SVG/1.1/DTD/svg11.dtd">
<!-- Generated by graphviz version 8.0.2 (20230410.1723)
 -->
<!-- Title: SCR_BaseVehicleInfo Pages: 1 -->
<svg width="1278pt" height="286pt"
 viewBox="0.00 0.00 1278.00 286.00" xmlns="http://www.w3.org/2000/svg" xmlns:xlink="http://www.w3.org/1999/xlink">
<g id="graph0" class="graph" transform="scale(1 1) rotate(0) translate(4 282)">
<title>SCR_BaseVehicleInfo</title>
<!-- Node1 -->
<g id="node1" class="node">
<title>Node1</title>
<g id="a_node1"><a xlink:title="Base class for all vehicle UI state and damage indicators.">
<polygon fill="#999999" stroke="#666666" points="774,-148 662,-148 662,-129 774,-129 774,-148"/>
<text text-anchor="middle" x="718" y="-136" font-family="Helvetica,sans-Serif" font-size="10.00">SCR_BaseVehicleInfo</text>
</a>
</g>
</g>
<!-- Node7 -->
<g id="node7" class="node">
<title>Node7</title>
<g id="a_node7"><a xlink:href="interfaceSCR__FuelTankInfo.html" target="_top" xlink:title=" ">
<polygon fill="white" stroke="#666666" points="928,-278 831,-278 831,-259 928,-259 928,-278"/>
<text text-anchor="middle" x="879.5" y="-266" font-family="Helvetica,sans-Serif" font-size="10.00">SCR_FuelTankInfo</text>
</a>
</g>
</g>
<!-- Node1&#45;&gt;Node7 -->
<g id="edge6" class="edge">
<title>Node1&#45;&gt;Node7</title>
<path fill="none" stroke="#63b8ff" d="M729.5,-157.91C744.16,-183.13 773.15,-226.74 810,-250.5 816.3,-254.56 823.49,-257.71 830.79,-260.15"/>
<polygon fill="#63b8ff" stroke="#63b8ff" points="732.07,-156.33 724.11,-149.34 725.97,-159.77 732.07,-156.33"/>
</g>
<!-- Node8 -->
<g id="node8" class="node">
<title>Node8</title>
<g id="a_node8"><a xlink:href="interfaceSCR__GearShiftInfo.html" target="_top" xlink:title=" ">
<polygon fill="white" stroke="#666666" points="928.5,-241 830.5,-241 830.5,-222 928.5,-222 928.5,-241"/>
<text text-anchor="middle" x="879.5" y="-229" font-family="Helvetica,sans-Serif" font-size="10.00">SCR_GearShiftInfo</text>
</a>
</g>
</g>
<!-- Node1&#45;&gt;Node8 -->
<g id="edge7" class="edge">
<title>Node1&#45;&gt;Node8</title>
<path fill="none" stroke="#63b8ff" d="M735.54,-155.98C752.64,-173.06 780.87,-198.59 810,-213.5 816.35,-216.75 823.34,-219.45 830.35,-221.69"/>
<polygon fill="#63b8ff" stroke="#63b8ff" points="738.58,-154.06 729.09,-149.36 733.58,-158.96 738.58,-154.06"/>
</g>
<!-- Node9 -->
<g id="node9" class="node">
<title>Node9</title>
<g id="a_node9"><a xlink:href="interfaceSCR__HandBrakeInfo.html" target="_top" xlink:title=" ">
<polygon fill="white" stroke="#666666" points="932,-204 827,-204 827,-185 932,-185 932,-204"/>
<text text-anchor="middle" x="879.5" y="-192" font-family="Helvetica,sans-Serif" font-size="10.00">SCR_HandBrakeInfo</text>
</a>
</g>
</g>
<!-- Node1&#45;&gt;Node9 -->
<g id="edge8" class="edge">
<title>Node1&#45;&gt;Node9</title>
<path fill="none" stroke="#63b8ff" d="M750.01,-152.71C767.42,-160.36 789.66,-169.62 810,-176.5 818.62,-179.42 827.98,-182.15 836.93,-184.56"/>
<polygon fill="#63b8ff" stroke="#63b8ff" points="751.93,-149.29 741.37,-148.42 749.08,-155.68 751.93,-149.29"/>
</g>
<!-- Node10 -->
<g id="node10" class="node">
<title>Node10</title>
<g id="a_node10"><a xlink:href="interfaceSCR__HitZoneInfo.html" target="_top" xlink:title=" ">
<polygon fill="white" stroke="#666666" points="924.5,-167 834.5,-167 834.5,-148 924.5,-148 924.5,-167"/>
<text text-anchor="middle" x="879.5" y="-155" font-family="Helvetica,sans-Serif" font-size="10.00">SCR_HitZoneInfo</text>
</a>
</g>
</g>
<!-- Node1&#45;&gt;Node10 -->
<g id="edge9" class="edge">
<title>Node1&#45;&gt;Node10</title>
<path fill="none" stroke="#63b8ff" d="M785.04,-146.37C801.55,-148.33 818.87,-150.4 834.05,-152.21"/>
<polygon fill="#63b8ff" stroke="#63b8ff" points="785.68,-142.8 775.34,-145.09 784.85,-149.75 785.68,-142.8"/>
</g>
<!-- Node19 -->
<g id="node19" class="node">
<title>Node19</title>
<g id="a_node19"><a xlink:href="interfaceSCR__LightManagerInfo.html" target="_top" xlink:title=" ">
<polygon fill="white" stroke="#666666" points="937.5,-130 821.5,-130 821.5,-111 937.5,-111 937.5,-130"/>
<text text-anchor="middle" x="879.5" y="-118" font-family="Helvetica,sans-Serif" font-size="10.00">SCR_LightManagerInfo</text>
</a>
</g>
</g>
<!-- Node1&#45;&gt;Node19 -->
<g id="edge18" class="edge">
<title>Node1&#45;&gt;Node19</title>
<path fill="none" stroke="#63b8ff" d="M785.15,-131.04C797.08,-129.69 809.43,-128.29 821.09,-126.98"/>
<polygon fill="#63b8ff" stroke="#63b8ff" points="784.88,-127.66 775.34,-132.25 785.67,-134.61 784.88,-127.66"/>
</g>
<!-- Node20 -->
<g id="node20" class="node">
<title>Node20</title>
<g id="a_node20"><a xlink:href="interfaceSCR__LightManagerInfoMulti.html" target="_top" xlink:title=" ">
<polygon fill="white" stroke="#666666" points="948,-93 811,-93 811,-74 948,-74 948,-93"/>
<text text-anchor="middle" x="879.5" y="-81" font-family="Helvetica,sans-Serif" font-size="10.00">SCR_LightManagerInfoMulti</text>
</a>
</g>
</g>
<!-- Node1&#45;&gt;Node20 -->
<g id="edge19" class="edge">
<title>Node1&#45;&gt;Node20</title>
<path fill="none" stroke="#63b8ff" d="M751.23,-124.21C768.47,-116.87 790.17,-108.11 810,-101.5 818.63,-98.62 828,-95.91 836.95,-93.5"/>
<polygon fill="#63b8ff" stroke="#63b8ff" points="749.93,-121.39 742.14,-128.56 752.71,-127.81 749.93,-121.39"/>
</g>
<!-- Node22 -->
<g id="node22" class="node">
<title>Node22</title>
<g id="a_node22"><a xlink:href="interfaceSCR__VInfoAutoHover.html" target="_top" xlink:title=" ">
<polygon fill="white" stroke="#666666" points="933.5,-56 825.5,-56 825.5,-37 933.5,-37 933.5,-56"/>
<text text-anchor="middle" x="879.5" y="-44" font-family="Helvetica,sans-Serif" font-size="10.00">SCR_VInfoAutoHover</text>
</a>
</g>
</g>
<!-- Node1&#45;&gt;Node22 -->
<g id="edge21" class="edge">
<title>Node1&#45;&gt;Node22</title>
<path fill="none" stroke="#63b8ff" d="M735.86,-120.99C753.02,-104.15 781.13,-79.16 810,-64.5 816.25,-61.33 823.11,-58.67 830,-56.47"/>
<polygon fill="#63b8ff" stroke="#63b8ff" points="733.94,-117.96 729.37,-127.52 738.9,-122.9 733.94,-117.96"/>
</g>
<!-- Node23 -->
<g id="node23" class="node">
<title>Node23</title>
<g id="a_node23"><a xlink:href="interfaceSCR__VInfoParkingBrakeHeli.html" target="_top" xlink:title=" ">
<polygon fill="white" stroke="#666666" points="949,-19 810,-19 810,0 949,0 949,-19"/>
<text text-anchor="middle" x="879.5" y="-7" font-family="Helvetica,sans-Serif" font-size="10.00">SCR_VInfoParkingBrakeHeli</text>
</a>
</g>
</g>
<!-- Node1&#45;&gt;Node23 -->
<g id="edge22" class="edge">
<title>Node1&#45;&gt;Node23</title>
<path fill="none" stroke="#63b8ff" d="M729.54,-119.27C744.25,-94.27 773.3,-51.05 810,-27.5 815.07,-24.25 820.71,-21.58 826.51,-19.39"/>
<polygon fill="#63b8ff" stroke="#63b8ff" points="726.05,-117.33 724.14,-127.75 732.13,-120.8 726.05,-117.33"/>
</g>
<!-- Node2 -->
<g id="node2" class="node">
<title>Node2</title>
<g id="a_node2"><a xlink:href="interfaceSCR__InfoDisplayExtended.html" target="_top" xlink:title=" ">
<polygon fill="white" stroke="#666666" points="626,-148 495,-148 495,-129 626,-129 626,-148"/>
<text text-anchor="middle" x="560.5" y="-136" font-family="Helvetica,sans-Serif" font-size="10.00">SCR_InfoDisplayExtended</text>
</a>
</g>
</g>
<!-- Node2&#45;&gt;Node1 -->
<g id="edge1" class="edge">
<title>Node2&#45;&gt;Node1</title>
<path fill="none" stroke="#63b8ff" d="M637.01,-138.5C645.35,-138.5 653.73,-138.5 661.76,-138.5"/>
<polygon fill="#63b8ff" stroke="#63b8ff" points="637.1,-135 627.1,-138.5 637.1,-142 637.1,-135"/>
</g>
<!-- Node3 -->
<g id="node3" class="node">
<title>Node3</title>
<g id="a_node3"><a xlink:href="interfaceSCR__InfoDisplay.html" target="_top" xlink:title=" ">
<polygon fill="white" stroke="#666666" points="459,-148 370,-148 370,-129 459,-129 459,-148"/>
<text text-anchor="middle" x="414.5" y="-136" font-family="Helvetica,sans-Serif" font-size="10.00">SCR_InfoDisplay</text>
</a>
</g>
</g>
<!-- Node3&#45;&gt;Node2 -->
<g id="edge2" class="edge">
<title>Node3&#45;&gt;Node2</title>
<path fill="none" stroke="#63b8ff" d="M470.42,-138.5C478.32,-138.5 486.51,-138.5 494.58,-138.5"/>
<polygon fill="#63b8ff" stroke="#63b8ff" points="470.49,-135 460.49,-138.5 470.49,-142 470.49,-135"/>
</g>
<!-- Node4 -->
<g id="node4" class="node">
<title>Node4</title>
<g id="a_node4"><a xlink:href="interfaceGroupInfoDisplay.html" target="_top" xlink:title=" ">
<polygon fill="white" stroke="#666666" points="334,-148 244,-148 244,-129 334,-129 334,-148"/>
<text text-anchor="middle" x="289" y="-136" font-family="Helvetica,sans-Serif" font-size="10.00">GroupInfoDisplay</text>
</a>
</g>
</g>
<!-- Node4&#45;&gt;Node3 -->
<g id="edge3" class="edge">
<title>Node4&#45;&gt;Node3</title>
<path fill="none" stroke="#63b8ff" d="M345.21,-138.5C353.37,-138.5 361.68,-138.5 369.57,-138.5"/>
<polygon fill="#63b8ff" stroke="#63b8ff" points="345.24,-135 335.24,-138.5 345.24,-142 345.24,-135"/>
</g>
<!-- Node5 -->
<g id="node5" class="node">
<title>Node5</title>
<g id="a_node5"><a xlink:href="interfaceBaseInfoDisplay.html" target="_top" xlink:title=" ">
<polygon fill="white" stroke="#666666" points="208,-148 122,-148 122,-129 208,-129 208,-148"/>
<text text-anchor="middle" x="165" y="-136" font-family="Helvetica,sans-Serif" font-size="10.00">BaseInfoDisplay</text>
</a>
</g>
</g>
<!-- Node5&#45;&gt;Node4 -->
<g id="edge4" class="edge">
<title>Node5&#45;&gt;Node4</title>
<path fill="none" stroke="#63b8ff" d="M219.27,-138.5C227.41,-138.5 235.75,-138.5 243.67,-138.5"/>
<polygon fill="#63b8ff" stroke="#63b8ff" points="219.33,-135 209.33,-138.5 219.33,-142 219.33,-135"/>
</g>
<!-- Node6 -->
<g id="node6" class="node">
<title>Node6</title>
<g id="a_node6"><a xlink:title=" ">
<polygon fill="white" stroke="#666666" points="86,-148 0,-148 0,-129 86,-129 86,-148"/>
<text text-anchor="middle" x="43" y="-136" font-family="Helvetica,sans-Serif" font-size="10.00">ScriptAndConfig</text>
</a>
</g>
</g>
<!-- Node6&#45;&gt;Node5 -->
<g id="edge5" class="edge">
<title>Node6&#45;&gt;Node5</title>
<path fill="none" stroke="#63b8ff" d="M97.28,-138.5C105.45,-138.5 113.78,-138.5 121.67,-138.5"/>
<polygon fill="#63b8ff" stroke="#63b8ff" points="97.31,-135 87.31,-138.5 97.31,-142 97.31,-135"/>
</g>
<!-- Node11 -->
<g id="node11" class="node">
<title>Node11</title>
<g id="a_node11"><a xlink:href="interfaceSCR__EngineHitZoneInfo.html" target="_top" xlink:title=" ">
<polygon fill="white" stroke="#666666" points="1108.5,-241 988.5,-241 988.5,-222 1108.5,-222 1108.5,-241"/>
<text text-anchor="middle" x="1048.5" y="-229" font-family="Helvetica,sans-Serif" font-size="10.00">SCR_EngineHitZoneInfo</text>
</a>
</g>
</g>
<!-- Node10&#45;&gt;Node11 -->
<g id="edge10" class="edge">
<title>Node10&#45;&gt;Node11</title>
<path fill="none" stroke="#63b8ff" d="M934.88,-169.66C939.8,-171.62 944.59,-173.89 949,-176.5 968.74,-188.19 965.32,-201.71 985,-213.5 990.33,-216.69 996.25,-219.34 1002.27,-221.54"/>
<polygon fill="#63b8ff" stroke="#63b8ff" points="936.26,-166.08 925.67,-166.04 933.92,-172.68 936.26,-166.08"/>
</g>
<!-- Node12 -->
<g id="node12" class="node">
<title>Node12</title>
<g id="a_node12"><a xlink:href="interfaceSCR__GearboxHitZoneInfo.html" target="_top" xlink:title=" ">
<polygon fill="white" stroke="#666666" points="1112,-204 985,-204 985,-185 1112,-185 1112,-204"/>
<text text-anchor="middle" x="1048.5" y="-192" font-family="Helvetica,sans-Serif" font-size="10.00">SCR_GearboxHitZoneInfo</text>
</a>
</g>
</g>
<!-- Node10&#45;&gt;Node12 -->
<g id="edge11" class="edge">
<title>Node10&#45;&gt;Node12</title>
<path fill="none" stroke="#63b8ff" d="M935.52,-169.69C957.2,-174.49 981.79,-179.94 1002.4,-184.51"/>
<polygon fill="#63b8ff" stroke="#63b8ff" points="936.33,-166.06 925.81,-167.32 934.82,-172.9 936.33,-166.06"/>
</g>
<!-- Node13 -->
<g id="node13" class="node">
<title>Node13</title>
<g id="a_node13"><a xlink:href="interfaceSCR__HZInfoHeli.html" target="_top" xlink:title=" ">
<polygon fill="white" stroke="#666666" points="1091.5,-167 1005.5,-167 1005.5,-148 1091.5,-148 1091.5,-167"/>
<text text-anchor="middle" x="1048.5" y="-155" font-family="Helvetica,sans-Serif" font-size="10.00">SCR_HZInfoHeli</text>
</a>
</g>
</g>
<!-- Node10&#45;&gt;Node13 -->
<g id="edge12" class="edge">
<title>Node10&#45;&gt;Node13</title>
<path fill="none" stroke="#63b8ff" d="M935.66,-157.5C958.33,-157.5 984.16,-157.5 1005.28,-157.5"/>
<polygon fill="#63b8ff" stroke="#63b8ff" points="935.81,-154 925.81,-157.5 935.81,-161 935.81,-154"/>
</g>
<!-- Node18 -->
<g id="node18" class="node">
<title>Node18</title>
<g id="a_node18"><a xlink:href="interfaceSCR__WheelHitZoneInfo.html" target="_top" xlink:title=" ">
<polygon fill="white" stroke="#666666" points="1107.5,-130 989.5,-130 989.5,-111 1107.5,-111 1107.5,-130"/>
<text text-anchor="middle" x="1048.5" y="-118" font-family="Helvetica,sans-Serif" font-size="10.00">SCR_WheelHitZoneInfo</text>
</a>
</g>
</g>
<!-- Node10&#45;&gt;Node18 -->
<g id="edge17" class="edge">
<title>Node10&#45;&gt;Node18</title>
<path fill="none" stroke="#63b8ff" d="M935.52,-145.31C957.2,-140.51 981.79,-135.06 1002.4,-130.49"/>
<polygon fill="#63b8ff" stroke="#63b8ff" points="934.82,-142.1 925.81,-147.68 936.33,-148.94 934.82,-142.1"/>
</g>
<!-- Node14 -->
<g id="node14" class="node">
<title>Node14</title>
<g id="a_node14"><a xlink:href="interfaceSCR__HZInfoEngineHeli.html" target="_top" xlink:title=" ">
<polygon fill="white" stroke="#666666" points="1267,-222 1151,-222 1151,-203 1267,-203 1267,-222"/>
<text text-anchor="middle" x="1209" y="-210" font-family="Helvetica,sans-Serif" font-size="10.00">SCR_HZInfoEngineHeli</text>
</a>
</g>
</g>
<!-- Node13&#45;&gt;Node14 -->
<g id="edge13" class="edge">
<title>Node13&#45;&gt;Node14</title>
<path fill="none" stroke="#63b8ff" d="M1096.17,-170.74C1101.55,-172.54 1106.93,-174.48 1112,-176.5 1128.62,-183.13 1131.37,-187.91 1148,-194.5 1155.38,-197.43 1163.43,-200.15 1171.17,-202.54"/>
<polygon fill="#63b8ff" stroke="#63b8ff" points="1097.47,-167.16 1086.88,-167.43 1095.33,-173.82 1097.47,-167.16"/>
</g>
<!-- Node15 -->
<g id="node15" class="node">
<title>Node15</title>
<g id="a_node15"><a xlink:href="interfaceSCR__HZInfoGearboxHeli.html" target="_top" xlink:title=" ">
<polygon fill="white" stroke="#666666" points="1270,-185 1148,-185 1148,-166 1270,-166 1270,-185"/>
<text text-anchor="middle" x="1209" y="-173" font-family="Helvetica,sans-Serif" font-size="10.00">SCR_HZInfoGearboxHeli</text>
</a>
</g>
</g>
<!-- Node13&#45;&gt;Node15 -->
<g id="edge14" class="edge">
<title>Node13&#45;&gt;Node15</title>
<path fill="none" stroke="#63b8ff" d="M1102.69,-163.54C1117.09,-165.18 1132.77,-166.96 1147.53,-168.63"/>
<polygon fill="#63b8ff" stroke="#63b8ff" points="1103.31,-159.97 1092.98,-162.32 1102.52,-166.93 1103.31,-159.97"/>
</g>
<!-- Node16 -->
<g id="node16" class="node">
<title>Node16</title>
<g id="a_node16"><a xlink:href="interfaceSCR__HZInfoRotorMain.html" target="_top" xlink:title=" ">
<polygon fill="white" stroke="#666666" points="1265.5,-148 1152.5,-148 1152.5,-129 1265.5,-129 1265.5,-148"/>
<text text-anchor="middle" x="1209" y="-136" font-family="Helvetica,sans-Serif" font-size="10.00">SCR_HZInfoRotorMain</text>
</a>
</g>
</g>
<!-- Node13&#45;&gt;Node16 -->
<g id="edge15" class="edge">
<title>Node13&#45;&gt;Node16</title>
<path fill="none" stroke="#63b8ff" d="M1102.72,-151.12C1118.66,-149.21 1136.18,-147.11 1152.28,-145.18"/>
<polygon fill="#63b8ff" stroke="#63b8ff" points="1102.49,-147.74 1092.98,-152.41 1103.32,-154.69 1102.49,-147.74"/>
</g>
<!-- Node17 -->
<g id="node17" class="node">
<title>Node17</title>
<g id="a_node17"><a xlink:href="interfaceSCR__HZInfoRotorRear.html" target="_top" xlink:title=" ">
<polygon fill="white" stroke="#666666" points="1265.5,-111 1152.5,-111 1152.5,-92 1265.5,-92 1265.5,-111"/>
<text text-anchor="middle" x="1209" y="-99" font-family="Helvetica,sans-Serif" font-size="10.00">SCR_HZInfoRotorRear</text>
</a>
</g>
</g>
<!-- Node13&#45;&gt;Node17 -->
<g id="edge16" class="edge">
<title>Node13&#45;&gt;Node17</title>
<path fill="none" stroke="#63b8ff" d="M1099.75,-144.12C1103.93,-142.68 1108.07,-141.13 1112,-139.5 1128.9,-132.48 1131.14,-126.62 1148,-119.5 1155.11,-116.5 1162.9,-113.78 1170.43,-111.41"/>
<polygon fill="#63b8ff" stroke="#63b8ff" points="1098.74,-141.09 1090.31,-147.5 1100.9,-147.75 1098.74,-141.09"/>
</g>
<!-- Node21 -->
<g id="node21" class="node">
<title>Node21</title>
<g id="a_node21"><a xlink:href="interfaceSCR__VInfoLandingLights.html" target="_top" xlink:title=" ">
<polygon fill="white" stroke="#666666" points="1110.5,-93 986.5,-93 986.5,-74 1110.5,-74 1110.5,-93"/>
<text text-anchor="middle" x="1048.5" y="-81" font-family="Helvetica,sans-Serif" font-size="10.00">SCR_VInfoLandingLights</text>
</a>
</g>
</g>
<!-- Node20&#45;&gt;Node21 -->
<g id="edge20" class="edge">
<title>Node20&#45;&gt;Node21</title>
<path fill="none" stroke="#63b8ff" d="M959.32,-83.5C968.31,-83.5 977.37,-83.5 986.09,-83.5"/>
<polygon fill="#63b8ff" stroke="#63b8ff" points="959.43,-80 949.43,-83.5 959.43,-87 959.43,-80"/>
</g>
</g>
</svg>
