<?xml version="1.0" encoding="UTF-8" standalone="no"?>
<!DOCTYPE svg PUBLIC "-//W3C//DTD SVG 1.1//EN"
 "http://www.w3.org/Graphics/SVG/1.1/DTD/svg11.dtd">
<!-- Generated by graphviz version 8.0.2 (20230410.1723)
 -->
<!-- Title: SCR_SalineStorageComponent Pages: 1 -->
<svg width="180pt" height="610pt"
 viewBox="0.00 0.00 180.00 610.00" xmlns="http://www.w3.org/2000/svg" xmlns:xlink="http://www.w3.org/1999/xlink">
<g id="graph0" class="graph" transform="scale(1 1) rotate(0) translate(4 606)">
<title>SCR_SalineStorageComponent</title>
<!-- Node1 -->
<g id="node1" class="node">
<title>Node1</title>
<g id="a_node1"><a xlink:title=" ">
<polygon fill="#999999" stroke="#666666" points="162,-19 10,-19 10,0 162,0 162,-19"/>
<text text-anchor="middle" x="86" y="-7" font-family="Helvetica,sans-Serif" font-size="10.00">SCR_SalineStorageComponent</text>
</a>
</g>
</g>
<!-- Node2 -->
<g id="node2" class="node">
<title>Node2</title>
<g id="a_node2"><a xlink:href="interfaceSCR__EquipmentStorageComponent.html" target="_top" xlink:title="Equipment storage are slots which are part of their parent entity but not taking up the standard carg...">
<polygon fill="white" stroke="#666666" points="172,-74 0,-74 0,-55 172,-55 172,-74"/>
<text text-anchor="middle" x="86" y="-62" font-family="Helvetica,sans-Serif" font-size="10.00">SCR_EquipmentStorageComponent</text>
</a>
</g>
</g>
<!-- Node2&#45;&gt;Node1 -->
<g id="edge1" class="edge">
<title>Node2&#45;&gt;Node1</title>
<path fill="none" stroke="#63b8ff" d="M86,-43.93C86,-35.53 86,-26.13 86,-19.44"/>
<polygon fill="#63b8ff" stroke="#63b8ff" points="82.5,-43.75 86,-53.75 89.5,-43.75 82.5,-43.75"/>
</g>
<!-- Node3 -->
<g id="node3" class="node">
<title>Node3</title>
<g id="a_node3"><a xlink:href="interfaceEquipmentStorageComponent.html" target="_top" xlink:title="Current storage variant uses equipment storage slots to attach equipment to different item variants (...">
<polygon fill="white" stroke="#666666" points="159,-129 13,-129 13,-110 159,-110 159,-129"/>
<text text-anchor="middle" x="86" y="-117" font-family="Helvetica,sans-Serif" font-size="10.00">EquipmentStorageComponent</text>
</a>
</g>
</g>
<!-- Node3&#45;&gt;Node2 -->
<g id="edge2" class="edge">
<title>Node3&#45;&gt;Node2</title>
<path fill="none" stroke="#63b8ff" d="M86,-98.93C86,-90.53 86,-81.13 86,-74.44"/>
<polygon fill="#63b8ff" stroke="#63b8ff" points="82.5,-98.75 86,-108.75 89.5,-98.75 82.5,-98.75"/>
</g>
<!-- Node4 -->
<g id="node4" class="node">
<title>Node4</title>
<g id="a_node4"><a xlink:href="interfaceBaseEquipmentStorageComponent.html" target="_top" xlink:title=" ">
<polygon fill="white" stroke="#666666" points="170.5,-184 1.5,-184 1.5,-165 170.5,-165 170.5,-184"/>
<text text-anchor="middle" x="86" y="-172" font-family="Helvetica,sans-Serif" font-size="10.00">BaseEquipmentStorageComponent</text>
</a>
</g>
</g>
<!-- Node4&#45;&gt;Node3 -->
<g id="edge3" class="edge">
<title>Node4&#45;&gt;Node3</title>
<path fill="none" stroke="#63b8ff" d="M86,-153.93C86,-145.53 86,-136.13 86,-129.44"/>
<polygon fill="#63b8ff" stroke="#63b8ff" points="82.5,-153.75 86,-163.75 89.5,-153.75 82.5,-153.75"/>
</g>
<!-- Node5 -->
<g id="node5" class="node">
<title>Node5</title>
<g id="a_node5"><a xlink:href="interfaceUniversalInventoryStorageComponent.html" target="_top" xlink:title=" ">
<polygon fill="white" stroke="#666666" points="150,-250 22,-250 22,-220 150,-220 150,-250"/>
<text text-anchor="start" x="30" y="-238" font-family="Helvetica,sans-Serif" font-size="10.00">UniversalInventoryStorage</text>
<text text-anchor="middle" x="86" y="-227" font-family="Helvetica,sans-Serif" font-size="10.00">Component</text>
</a>
</g>
</g>
<!-- Node5&#45;&gt;Node4 -->
<g id="edge4" class="edge">
<title>Node5&#45;&gt;Node4</title>
<path fill="none" stroke="#63b8ff" d="M86,-208.59C86,-199.85 86,-190.65 86,-184.18"/>
<polygon fill="#63b8ff" stroke="#63b8ff" points="82.5,-208.54 86,-218.54 89.5,-208.54 82.5,-208.54"/>
</g>
<!-- Node6 -->
<g id="node6" class="node">
<title>Node6</title>
<g id="a_node6"><a xlink:href="interfaceBaseUniversalInventoryStorageComponent.html" target="_top" xlink:title=" ">
<polygon fill="white" stroke="#666666" points="161,-316 11,-316 11,-286 161,-286 161,-316"/>
<text text-anchor="start" x="19" y="-304" font-family="Helvetica,sans-Serif" font-size="10.00">BaseUniversalInventoryStorage</text>
<text text-anchor="middle" x="86" y="-293" font-family="Helvetica,sans-Serif" font-size="10.00">Component</text>
</a>
</g>
</g>
<!-- Node6&#45;&gt;Node5 -->
<g id="edge5" class="edge">
<title>Node6&#45;&gt;Node5</title>
<path fill="none" stroke="#63b8ff" d="M86,-274.97C86,-266.55 86,-257.45 86,-250.16"/>
<polygon fill="#63b8ff" stroke="#63b8ff" points="82.5,-274.8 86,-284.8 89.5,-274.8 82.5,-274.8"/>
</g>
<!-- Node7 -->
<g id="node7" class="node">
<title>Node7</title>
<g id="a_node7"><a xlink:href="interfaceScriptedBaseInventoryStorageComponent.html" target="_top" xlink:title=" ">
<polygon fill="white" stroke="#666666" points="159.5,-382 12.5,-382 12.5,-352 159.5,-352 159.5,-382"/>
<text text-anchor="start" x="20.5" y="-370" font-family="Helvetica,sans-Serif" font-size="10.00">ScriptedBaseInventoryStorage</text>
<text text-anchor="middle" x="86" y="-359" font-family="Helvetica,sans-Serif" font-size="10.00">Component</text>
</a>
</g>
</g>
<!-- Node7&#45;&gt;Node6 -->
<g id="edge6" class="edge">
<title>Node7&#45;&gt;Node6</title>
<path fill="none" stroke="#63b8ff" d="M86,-340.97C86,-332.55 86,-323.45 86,-316.16"/>
<polygon fill="#63b8ff" stroke="#63b8ff" points="82.5,-340.8 86,-350.8 89.5,-340.8 82.5,-340.8"/>
</g>
<!-- Node8 -->
<g id="node8" class="node">
<title>Node8</title>
<g id="a_node8"><a xlink:href="interfaceBaseInventoryStorageComponent.html" target="_top" xlink:title=" ">
<polygon fill="white" stroke="#666666" points="166.5,-437 5.5,-437 5.5,-418 166.5,-418 166.5,-437"/>
<text text-anchor="middle" x="86" y="-425" font-family="Helvetica,sans-Serif" font-size="10.00">BaseInventoryStorageComponent</text>
</a>
</g>
</g>
<!-- Node8&#45;&gt;Node7 -->
<g id="edge7" class="edge">
<title>Node8&#45;&gt;Node7</title>
<path fill="none" stroke="#63b8ff" d="M86,-407.08C86,-398.92 86,-389.6 86,-382.11"/>
<polygon fill="#63b8ff" stroke="#63b8ff" points="82.5,-406.87 86,-416.87 89.5,-406.87 82.5,-406.87"/>
</g>
<!-- Node9 -->
<g id="node9" class="node">
<title>Node9</title>
<g id="a_node9"><a xlink:href="interfaceInventoryItemComponent.html" target="_top" xlink:title=" ">
<polygon fill="white" stroke="#666666" points="147.5,-492 24.5,-492 24.5,-473 147.5,-473 147.5,-492"/>
<text text-anchor="middle" x="86" y="-480" font-family="Helvetica,sans-Serif" font-size="10.00">InventoryItemComponent</text>
</a>
</g>
</g>
<!-- Node9&#45;&gt;Node8 -->
<g id="edge8" class="edge">
<title>Node9&#45;&gt;Node8</title>
<path fill="none" stroke="#63b8ff" d="M86,-461.93C86,-453.53 86,-444.13 86,-437.44"/>
<polygon fill="#63b8ff" stroke="#63b8ff" points="82.5,-461.75 86,-471.75 89.5,-461.75 82.5,-461.75"/>
</g>
<!-- Node10 -->
<g id="node10" class="node">
<title>Node10</title>
<g id="a_node10"><a xlink:href="interfaceGameComponent.html" target="_top" xlink:title=" ">
<polygon fill="white" stroke="#666666" points="132,-547 40,-547 40,-528 132,-528 132,-547"/>
<text text-anchor="middle" x="86" y="-535" font-family="Helvetica,sans-Serif" font-size="10.00">GameComponent</text>
</a>
</g>
</g>
<!-- Node10&#45;&gt;Node9 -->
<g id="edge9" class="edge">
<title>Node10&#45;&gt;Node9</title>
<path fill="none" stroke="#63b8ff" d="M86,-516.93C86,-508.53 86,-499.13 86,-492.44"/>
<polygon fill="#63b8ff" stroke="#63b8ff" points="82.5,-516.75 86,-526.75 89.5,-516.75 82.5,-516.75"/>
</g>
<!-- Node11 -->
<g id="node11" class="node">
<title>Node11</title>
<g id="a_node11"><a xlink:title=" ">
<polygon fill="white" stroke="#666666" points="136,-602 36,-602 36,-583 136,-583 136,-602"/>
<text text-anchor="middle" x="86" y="-590" font-family="Helvetica,sans-Serif" font-size="10.00">GenericComponent</text>
</a>
</g>
</g>
<!-- Node11&#45;&gt;Node10 -->
<g id="edge10" class="edge">
<title>Node11&#45;&gt;Node10</title>
<path fill="none" stroke="#63b8ff" d="M86,-571.93C86,-563.53 86,-554.13 86,-547.44"/>
<polygon fill="#63b8ff" stroke="#63b8ff" points="82.5,-571.75 86,-581.75 89.5,-571.75 82.5,-571.75"/>
</g>
</g>
</svg>
