<?xml version="1.0" encoding="UTF-8" standalone="no"?>
<!DOCTYPE svg PUBLIC "-//W3C//DTD SVG 1.1//EN"
 "http://www.w3.org/Graphics/SVG/1.1/DTD/svg11.dtd">
<!-- Generated by graphviz version 8.0.2 (20230410.1723)
 -->
<!-- Title: SCR_BaseGameModeClass Pages: 1 -->
<svg width="642pt" height="187pt"
 viewBox="0.00 0.00 642.00 186.50" xmlns="http://www.w3.org/2000/svg" xmlns:xlink="http://www.w3.org/1999/xlink">
<g id="graph0" class="graph" transform="scale(1 1) rotate(0) translate(4 182.5)">
<title>SCR_BaseGameModeClass</title>
<!-- Node1 -->
<g id="node1" class="node">
<title>Node1</title>
<g id="a_node1"><a xlink:title=" ">
<polygon fill="#999999" stroke="#666666" points="427,-104.5 287,-104.5 287,-85.5 427,-85.5 427,-104.5"/>
<text text-anchor="middle" x="357" y="-92.5" font-family="Helvetica,sans-Serif" font-size="10.00">SCR_BaseGameModeClass</text>
</a>
</g>
</g>
<!-- Node4 -->
<g id="node4" class="node">
<title>Node4</title>
<g id="a_node4"><a xlink:href="interfaceSCR__GameModeCampaignClass.html" target="_top" xlink:title=" ">
<polygon fill="white" stroke="#666666" points="629,-178.5 468,-178.5 468,-159.5 629,-159.5 629,-178.5"/>
<text text-anchor="middle" x="548.5" y="-166.5" font-family="Helvetica,sans-Serif" font-size="10.00">SCR_GameModeCampaignClass</text>
</a>
</g>
</g>
<!-- Node1&#45;&gt;Node4 -->
<g id="edge3" class="edge">
<title>Node1&#45;&gt;Node4</title>
<path fill="none" stroke="#63b8ff" d="M382.68,-110.72C403.39,-123.28 434.15,-140.47 463,-151 471.6,-154.14 480.89,-156.8 490.07,-159.04"/>
<polygon fill="#63b8ff" stroke="#63b8ff" points="384.72,-107.25 374.37,-104.98 381.04,-113.21 384.72,-107.25"/>
</g>
<!-- Node5 -->
<g id="node5" class="node">
<title>Node5</title>
<g id="a_node5"><a xlink:href="interfaceSCR__GameModeCleanSweepClass.html" target="_top" xlink:title=" ">
<polygon fill="white" stroke="#666666" points="634,-141.5 463,-141.5 463,-122.5 634,-122.5 634,-141.5"/>
<text text-anchor="middle" x="548.5" y="-129.5" font-family="Helvetica,sans-Serif" font-size="10.00">SCR_GameModeCleanSweepClass</text>
</a>
</g>
</g>
<!-- Node1&#45;&gt;Node5 -->
<g id="edge4" class="edge">
<title>Node1&#45;&gt;Node5</title>
<path fill="none" stroke="#63b8ff" d="M419.25,-106.96C444.22,-111.84 472.77,-117.41 496.58,-122.06"/>
<polygon fill="#63b8ff" stroke="#63b8ff" points="420.27,-103.4 409.78,-104.92 418.93,-110.27 420.27,-103.4"/>
</g>
<!-- Node6 -->
<g id="node6" class="node">
<title>Node6</title>
<g id="a_node6"><a xlink:href="interfaceSCR__GameModeEditorClass.html" target="_top" xlink:title=" ">
<polygon fill="white" stroke="#666666" points="620,-104.5 477,-104.5 477,-85.5 620,-85.5 620,-104.5"/>
<text text-anchor="middle" x="548.5" y="-92.5" font-family="Helvetica,sans-Serif" font-size="10.00">SCR_GameModeEditorClass</text>
</a>
</g>
</g>
<!-- Node1&#45;&gt;Node6 -->
<g id="edge5" class="edge">
<title>Node1&#45;&gt;Node6</title>
<path fill="none" stroke="#63b8ff" d="M438.15,-95C450.98,-95 464.17,-95 476.75,-95"/>
<polygon fill="#63b8ff" stroke="#63b8ff" points="438.49,-91.5 428.49,-95 438.49,-98.5 438.49,-91.5"/>
</g>
<!-- Node7 -->
<g id="node7" class="node">
<title>Node7</title>
<g id="a_node7"><a xlink:href="interfaceSCR__GameModeLastStandClass.html" target="_top" xlink:title=" ">
<polygon fill="white" stroke="#666666" points="629,-67.5 468,-67.5 468,-48.5 629,-48.5 629,-67.5"/>
<text text-anchor="middle" x="548.5" y="-55.5" font-family="Helvetica,sans-Serif" font-size="10.00">SCR_GameModeLastStandClass</text>
</a>
</g>
</g>
<!-- Node1&#45;&gt;Node7 -->
<g id="edge6" class="edge">
<title>Node1&#45;&gt;Node7</title>
<path fill="none" stroke="#63b8ff" d="M419.25,-83.04C444.22,-78.16 472.77,-72.59 496.58,-67.94"/>
<polygon fill="#63b8ff" stroke="#63b8ff" points="418.93,-79.73 409.78,-85.08 420.27,-86.6 418.93,-79.73"/>
</g>
<!-- Node8 -->
<g id="node8" class="node">
<title>Node8</title>
<g id="a_node8"><a xlink:href="interfaceSCR__GameModeSectorControlClass.html" target="_top" xlink:title=" ">
<polygon fill="white" stroke="#666666" points="624.5,-30 472.5,-30 472.5,0 624.5,0 624.5,-30"/>
<text text-anchor="start" x="480.5" y="-18" font-family="Helvetica,sans-Serif" font-size="10.00">SCR_GameModeSectorControl</text>
<text text-anchor="middle" x="548.5" y="-7" font-family="Helvetica,sans-Serif" font-size="10.00">Class</text>
</a>
</g>
</g>
<!-- Node1&#45;&gt;Node8 -->
<g id="edge7" class="edge">
<title>Node1&#45;&gt;Node8</title>
<path fill="none" stroke="#63b8ff" d="M383.23,-79.57C404.06,-67.32 434.68,-50.42 463,-39 470.64,-35.92 478.81,-33.07 486.96,-30.49"/>
<polygon fill="#63b8ff" stroke="#63b8ff" points="381.65,-77.03 374.85,-85.16 385.23,-83.05 381.65,-77.03"/>
</g>
<!-- Node2 -->
<g id="node2" class="node">
<title>Node2</title>
<g id="a_node2"><a xlink:href="interfaceBaseGameModeClass.html" target="_top" xlink:title=" ">
<polygon fill="white" stroke="#666666" points="251,-104.5 137,-104.5 137,-85.5 251,-85.5 251,-104.5"/>
<text text-anchor="middle" x="194" y="-92.5" font-family="Helvetica,sans-Serif" font-size="10.00">BaseGameModeClass</text>
</a>
</g>
</g>
<!-- Node2&#45;&gt;Node1 -->
<g id="edge1" class="edge">
<title>Node2&#45;&gt;Node1</title>
<path fill="none" stroke="#63b8ff" d="M262.2,-95C270.29,-95 278.57,-95 286.69,-95"/>
<polygon fill="#63b8ff" stroke="#63b8ff" points="262.31,-91.5 252.31,-95 262.31,-98.5 262.31,-91.5"/>
</g>
<!-- Node3 -->
<g id="node3" class="node">
<title>Node3</title>
<g id="a_node3"><a xlink:title=" ">
<polygon fill="white" stroke="#666666" points="101,-104.5 0,-104.5 0,-85.5 101,-85.5 101,-104.5"/>
<text text-anchor="middle" x="50.5" y="-92.5" font-family="Helvetica,sans-Serif" font-size="10.00">GenericEntityClass</text>
</a>
</g>
</g>
<!-- Node3&#45;&gt;Node2 -->
<g id="edge2" class="edge">
<title>Node3&#45;&gt;Node2</title>
<path fill="none" stroke="#63b8ff" d="M112.32,-95C120.45,-95 128.76,-95 136.81,-95"/>
<polygon fill="#63b8ff" stroke="#63b8ff" points="112.39,-91.5 102.39,-95 112.39,-98.5 112.39,-91.5"/>
</g>
</g>
</svg>
