<?xml version="1.0" encoding="UTF-8" standalone="no"?>
<!DOCTYPE svg PUBLIC "-//W3C//DTD SVG 1.1//EN"
 "http://www.w3.org/Graphics/SVG/1.1/DTD/svg11.dtd">
<!-- Generated by graphviz version 8.0.2 (20230410.1723)
 -->
<!-- Title: SCR_ScenarioFrameworkSlotDefend Pages: 1 -->
<svg width="183pt" height="324pt"
 viewBox="0.00 0.00 183.00 324.00" xmlns="http://www.w3.org/2000/svg" xmlns:xlink="http://www.w3.org/1999/xlink">
<g id="graph0" class="graph" transform="scale(1 1) rotate(0) translate(4 320)">
<title>SCR_ScenarioFrameworkSlotDefend</title>
<!-- Node1 -->
<g id="node1" class="node">
<title>Node1</title>
<g id="a_node1"><a xlink:title=" ">
<polygon fill="#999999" stroke="#666666" points="160.5,-30 14.5,-30 14.5,0 160.5,0 160.5,-30"/>
<text text-anchor="start" x="22.5" y="-18" font-family="Helvetica,sans-Serif" font-size="10.00">SCR_ScenarioFrameworkSlot</text>
<text text-anchor="middle" x="87.5" y="-7" font-family="Helvetica,sans-Serif" font-size="10.00">Defend</text>
</a>
</g>
</g>
<!-- Node2 -->
<g id="node2" class="node">
<title>Node2</title>
<g id="a_node2"><a xlink:href="interfaceSCR__ScenarioFrameworkSlotTaskAI.html" target="_top" xlink:title=" ">
<polygon fill="white" stroke="#666666" points="160.5,-96 14.5,-96 14.5,-66 160.5,-66 160.5,-96"/>
<text text-anchor="start" x="22.5" y="-84" font-family="Helvetica,sans-Serif" font-size="10.00">SCR_ScenarioFrameworkSlot</text>
<text text-anchor="middle" x="87.5" y="-73" font-family="Helvetica,sans-Serif" font-size="10.00">TaskAI</text>
</a>
</g>
</g>
<!-- Node2&#45;&gt;Node1 -->
<g id="edge1" class="edge">
<title>Node2&#45;&gt;Node1</title>
<path fill="none" stroke="#63b8ff" d="M87.5,-54.97C87.5,-46.55 87.5,-37.45 87.5,-30.16"/>
<polygon fill="#63b8ff" stroke="#63b8ff" points="84,-54.8 87.5,-64.8 91,-54.8 84,-54.8"/>
</g>
<!-- Node3 -->
<g id="node3" class="node">
<title>Node3</title>
<g id="a_node3"><a xlink:href="interfaceSCR__ScenarioFrameworkSlotTask.html" target="_top" xlink:title=" ">
<polygon fill="white" stroke="#666666" points="171,-151 4,-151 4,-132 171,-132 171,-151"/>
<text text-anchor="middle" x="87.5" y="-139" font-family="Helvetica,sans-Serif" font-size="10.00">SCR_ScenarioFrameworkSlotTask</text>
</a>
</g>
</g>
<!-- Node3&#45;&gt;Node2 -->
<g id="edge2" class="edge">
<title>Node3&#45;&gt;Node2</title>
<path fill="none" stroke="#63b8ff" d="M87.5,-121.08C87.5,-112.92 87.5,-103.6 87.5,-96.11"/>
<polygon fill="#63b8ff" stroke="#63b8ff" points="84,-120.87 87.5,-130.87 91,-120.87 84,-120.87"/>
</g>
<!-- Node4 -->
<g id="node4" class="node">
<title>Node4</title>
<g id="a_node4"><a xlink:href="interfaceSCR__ScenarioFrameworkSlotBase.html" target="_top" xlink:title=" ">
<polygon fill="white" stroke="#666666" points="171.5,-206 3.5,-206 3.5,-187 171.5,-187 171.5,-206"/>
<text text-anchor="middle" x="87.5" y="-194" font-family="Helvetica,sans-Serif" font-size="10.00">SCR_ScenarioFrameworkSlotBase</text>
</a>
</g>
</g>
<!-- Node4&#45;&gt;Node3 -->
<g id="edge3" class="edge">
<title>Node4&#45;&gt;Node3</title>
<path fill="none" stroke="#63b8ff" d="M87.5,-175.93C87.5,-167.53 87.5,-158.13 87.5,-151.44"/>
<polygon fill="#63b8ff" stroke="#63b8ff" points="84,-175.75 87.5,-185.75 91,-175.75 84,-175.75"/>
</g>
<!-- Node5 -->
<g id="node5" class="node">
<title>Node5</title>
<g id="a_node5"><a xlink:href="interfaceSCR__ScenarioFrameworkLayerBase.html" target="_top" xlink:title=" ">
<polygon fill="white" stroke="#666666" points="175,-261 0,-261 0,-242 175,-242 175,-261"/>
<text text-anchor="middle" x="87.5" y="-249" font-family="Helvetica,sans-Serif" font-size="10.00">SCR_ScenarioFrameworkLayerBase</text>
</a>
</g>
</g>
<!-- Node5&#45;&gt;Node4 -->
<g id="edge4" class="edge">
<title>Node5&#45;&gt;Node4</title>
<path fill="none" stroke="#63b8ff" d="M87.5,-230.93C87.5,-222.53 87.5,-213.13 87.5,-206.44"/>
<polygon fill="#63b8ff" stroke="#63b8ff" points="84,-230.75 87.5,-240.75 91,-230.75 84,-230.75"/>
</g>
<!-- Node6 -->
<g id="node6" class="node">
<title>Node6</title>
<g id="a_node6"><a xlink:title=" ">
<polygon fill="white" stroke="#666666" points="133.5,-316 41.5,-316 41.5,-297 133.5,-297 133.5,-316"/>
<text text-anchor="middle" x="87.5" y="-304" font-family="Helvetica,sans-Serif" font-size="10.00">ScriptComponent</text>
</a>
</g>
</g>
<!-- Node6&#45;&gt;Node5 -->
<g id="edge5" class="edge">
<title>Node6&#45;&gt;Node5</title>
<path fill="none" stroke="#63b8ff" d="M87.5,-285.93C87.5,-277.53 87.5,-268.13 87.5,-261.44"/>
<polygon fill="#63b8ff" stroke="#63b8ff" points="84,-285.75 87.5,-295.75 91,-285.75 84,-285.75"/>
</g>
</g>
</svg>
