<?xml version="1.0" encoding="UTF-8" standalone="no"?>
<!DOCTYPE svg PUBLIC "-//W3C//DTD SVG 1.1//EN"
 "http://www.w3.org/Graphics/SVG/1.1/DTD/svg11.dtd">
<!-- Generated by graphviz version 8.0.2 (20230410.1723)
 -->
<!-- Title: SCR_AnalogGauge360 Pages: 1 -->
<svg width="149pt" height="467pt"
 viewBox="0.00 0.00 149.00 467.00" xmlns="http://www.w3.org/2000/svg" xmlns:xlink="http://www.w3.org/1999/xlink">
<g id="graph0" class="graph" transform="scale(1 1) rotate(0) translate(4 463)">
<title>SCR_AnalogGauge360</title>
<!-- Node1 -->
<g id="node1" class="node">
<title>Node1</title>
<g id="a_node1"><a xlink:title=" ">
<polygon fill="#999999" stroke="#666666" points="128.5,-74 12.5,-74 12.5,-55 128.5,-55 128.5,-74"/>
<text text-anchor="middle" x="70.5" y="-62" font-family="Helvetica,sans-Serif" font-size="10.00">SCR_AnalogGauge360</text>
</a>
</g>
</g>
<!-- Node9 -->
<g id="node9" class="node">
<title>Node9</title>
<g id="a_node9"><a xlink:href="interfaceSCR__AnalogGauge360Small.html" target="_top" xlink:title=" ">
<polygon fill="white" stroke="#666666" points="141,-19 0,-19 0,0 141,0 141,-19"/>
<text text-anchor="middle" x="70.5" y="-7" font-family="Helvetica,sans-Serif" font-size="10.00">SCR_AnalogGauge360Small</text>
</a>
</g>
</g>
<!-- Node1&#45;&gt;Node9 -->
<g id="edge8" class="edge">
<title>Node1&#45;&gt;Node9</title>
<path fill="none" stroke="#63b8ff" d="M70.5,-43.93C70.5,-35.53 70.5,-26.13 70.5,-19.44"/>
<polygon fill="#63b8ff" stroke="#63b8ff" points="67,-43.75 70.5,-53.75 74,-43.75 67,-43.75"/>
</g>
<!-- Node2 -->
<g id="node2" class="node">
<title>Node2</title>
<g id="a_node2"><a xlink:href="interfaceSCR__AnalogGauge.html" target="_top" xlink:title=" ">
<polygon fill="white" stroke="#666666" points="121,-129 20,-129 20,-110 121,-110 121,-129"/>
<text text-anchor="middle" x="70.5" y="-117" font-family="Helvetica,sans-Serif" font-size="10.00">SCR_AnalogGauge</text>
</a>
</g>
</g>
<!-- Node2&#45;&gt;Node1 -->
<g id="edge1" class="edge">
<title>Node2&#45;&gt;Node1</title>
<path fill="none" stroke="#63b8ff" d="M70.5,-98.93C70.5,-90.53 70.5,-81.13 70.5,-74.44"/>
<polygon fill="#63b8ff" stroke="#63b8ff" points="67,-98.75 70.5,-108.75 74,-98.75 67,-98.75"/>
</g>
<!-- Node3 -->
<g id="node3" class="node">
<title>Node3</title>
<g id="a_node3"><a xlink:href="interfaceSCR__BaseAnalogGauge.html" target="_top" xlink:title=" ">
<polygon fill="white" stroke="#666666" points="132,-184 9,-184 9,-165 132,-165 132,-184"/>
<text text-anchor="middle" x="70.5" y="-172" font-family="Helvetica,sans-Serif" font-size="10.00">SCR_BaseAnalogGauge</text>
</a>
</g>
</g>
<!-- Node3&#45;&gt;Node2 -->
<g id="edge2" class="edge">
<title>Node3&#45;&gt;Node2</title>
<path fill="none" stroke="#63b8ff" d="M70.5,-153.93C70.5,-145.53 70.5,-136.13 70.5,-129.44"/>
<polygon fill="#63b8ff" stroke="#63b8ff" points="67,-153.75 70.5,-163.75 74,-153.75 67,-153.75"/>
</g>
<!-- Node4 -->
<g id="node4" class="node">
<title>Node4</title>
<g id="a_node4"><a xlink:href="interfaceSCR__InfoDisplayExtended.html" target="_top" xlink:title=" ">
<polygon fill="white" stroke="#666666" points="136,-239 5,-239 5,-220 136,-220 136,-239"/>
<text text-anchor="middle" x="70.5" y="-227" font-family="Helvetica,sans-Serif" font-size="10.00">SCR_InfoDisplayExtended</text>
</a>
</g>
</g>
<!-- Node4&#45;&gt;Node3 -->
<g id="edge3" class="edge">
<title>Node4&#45;&gt;Node3</title>
<path fill="none" stroke="#63b8ff" d="M70.5,-208.93C70.5,-200.53 70.5,-191.13 70.5,-184.44"/>
<polygon fill="#63b8ff" stroke="#63b8ff" points="67,-208.75 70.5,-218.75 74,-208.75 67,-208.75"/>
</g>
<!-- Node5 -->
<g id="node5" class="node">
<title>Node5</title>
<g id="a_node5"><a xlink:href="interfaceSCR__InfoDisplay.html" target="_top" xlink:title=" ">
<polygon fill="white" stroke="#666666" points="115,-294 26,-294 26,-275 115,-275 115,-294"/>
<text text-anchor="middle" x="70.5" y="-282" font-family="Helvetica,sans-Serif" font-size="10.00">SCR_InfoDisplay</text>
</a>
</g>
</g>
<!-- Node5&#45;&gt;Node4 -->
<g id="edge4" class="edge">
<title>Node5&#45;&gt;Node4</title>
<path fill="none" stroke="#63b8ff" d="M70.5,-263.93C70.5,-255.53 70.5,-246.13 70.5,-239.44"/>
<polygon fill="#63b8ff" stroke="#63b8ff" points="67,-263.75 70.5,-273.75 74,-263.75 67,-263.75"/>
</g>
<!-- Node6 -->
<g id="node6" class="node">
<title>Node6</title>
<g id="a_node6"><a xlink:href="interfaceGroupInfoDisplay.html" target="_top" xlink:title=" ">
<polygon fill="white" stroke="#666666" points="115.5,-349 25.5,-349 25.5,-330 115.5,-330 115.5,-349"/>
<text text-anchor="middle" x="70.5" y="-337" font-family="Helvetica,sans-Serif" font-size="10.00">GroupInfoDisplay</text>
</a>
</g>
</g>
<!-- Node6&#45;&gt;Node5 -->
<g id="edge5" class="edge">
<title>Node6&#45;&gt;Node5</title>
<path fill="none" stroke="#63b8ff" d="M70.5,-318.93C70.5,-310.53 70.5,-301.13 70.5,-294.44"/>
<polygon fill="#63b8ff" stroke="#63b8ff" points="67,-318.75 70.5,-328.75 74,-318.75 67,-318.75"/>
</g>
<!-- Node7 -->
<g id="node7" class="node">
<title>Node7</title>
<g id="a_node7"><a xlink:href="interfaceBaseInfoDisplay.html" target="_top" xlink:title=" ">
<polygon fill="white" stroke="#666666" points="113.5,-404 27.5,-404 27.5,-385 113.5,-385 113.5,-404"/>
<text text-anchor="middle" x="70.5" y="-392" font-family="Helvetica,sans-Serif" font-size="10.00">BaseInfoDisplay</text>
</a>
</g>
</g>
<!-- Node7&#45;&gt;Node6 -->
<g id="edge6" class="edge">
<title>Node7&#45;&gt;Node6</title>
<path fill="none" stroke="#63b8ff" d="M70.5,-373.93C70.5,-365.53 70.5,-356.13 70.5,-349.44"/>
<polygon fill="#63b8ff" stroke="#63b8ff" points="67,-373.75 70.5,-383.75 74,-373.75 67,-373.75"/>
</g>
<!-- Node8 -->
<g id="node8" class="node">
<title>Node8</title>
<g id="a_node8"><a xlink:title=" ">
<polygon fill="white" stroke="#666666" points="113.5,-459 27.5,-459 27.5,-440 113.5,-440 113.5,-459"/>
<text text-anchor="middle" x="70.5" y="-447" font-family="Helvetica,sans-Serif" font-size="10.00">ScriptAndConfig</text>
</a>
</g>
</g>
<!-- Node8&#45;&gt;Node7 -->
<g id="edge7" class="edge">
<title>Node8&#45;&gt;Node7</title>
<path fill="none" stroke="#63b8ff" d="M70.5,-428.93C70.5,-420.53 70.5,-411.13 70.5,-404.44"/>
<polygon fill="#63b8ff" stroke="#63b8ff" points="67,-428.75 70.5,-438.75 74,-428.75 67,-428.75"/>
</g>
</g>
</svg>
