<?xml version="1.0" encoding="UTF-8" standalone="no"?>
<!DOCTYPE svg PUBLIC "-//W3C//DTD SVG 1.1//EN"
 "http://www.w3.org/Graphics/SVG/1.1/DTD/svg11.dtd">
<!-- Generated by graphviz version 8.0.2 (20230410.1723)
 -->
<!-- Title: BaseAnimPhysComponentClass Pages: 1 -->
<svg width="318pt" height="203pt"
 viewBox="0.00 0.00 318.00 203.00" xmlns="http://www.w3.org/2000/svg" xmlns:xlink="http://www.w3.org/1999/xlink">
<g id="graph0" class="graph" transform="scale(1 1) rotate(0) translate(4 199)">
<title>BaseAnimPhysComponentClass</title>
<!-- Node1 -->
<g id="node1" class="node">
<title>Node1</title>
<g id="a_node1"><a xlink:title=" ">
<polygon fill="#999999" stroke="#666666" points="231,-85 73,-85 73,-66 231,-66 231,-85"/>
<text text-anchor="middle" x="152" y="-73" font-family="Helvetica,sans-Serif" font-size="10.00">BaseAnimPhysComponentClass</text>
</a>
</g>
</g>
<!-- Node4 -->
<g id="node4" class="node">
<title>Node4</title>
<g id="a_node4"><a xlink:href="interfaceAnimalAnimationComponentClass.html" target="_top" xlink:title=" ">
<polygon fill="white" stroke="#666666" points="140,-30 0,-30 0,0 140,0 140,-30"/>
<text text-anchor="start" x="8" y="-18" font-family="Helvetica,sans-Serif" font-size="10.00">AnimalAnimationComponent</text>
<text text-anchor="middle" x="70" y="-7" font-family="Helvetica,sans-Serif" font-size="10.00">Class</text>
</a>
</g>
</g>
<!-- Node1&#45;&gt;Node4 -->
<g id="edge3" class="edge">
<title>Node1&#45;&gt;Node4</title>
<path fill="none" stroke="#63b8ff" d="M130.73,-59.33C118.24,-50.42 102.55,-39.22 90.24,-30.44"/>
<polygon fill="#63b8ff" stroke="#63b8ff" points="128.37,-62.66 138.55,-65.62 132.44,-56.96 128.37,-62.66"/>
</g>
<!-- Node5 -->
<g id="node5" class="node">
<title>Node5</title>
<g id="a_node5"><a xlink:href="interfaceCharacterAnimationComponentClass.html" target="_top" xlink:title=" ">
<polygon fill="white" stroke="#666666" points="310,-30 158,-30 158,0 310,0 310,-30"/>
<text text-anchor="start" x="166" y="-18" font-family="Helvetica,sans-Serif" font-size="10.00">CharacterAnimationComponent</text>
<text text-anchor="middle" x="234" y="-7" font-family="Helvetica,sans-Serif" font-size="10.00">Class</text>
</a>
</g>
</g>
<!-- Node1&#45;&gt;Node5 -->
<g id="edge4" class="edge">
<title>Node1&#45;&gt;Node5</title>
<path fill="none" stroke="#63b8ff" d="M173.27,-59.33C185.76,-50.42 201.45,-39.22 213.76,-30.44"/>
<polygon fill="#63b8ff" stroke="#63b8ff" points="171.56,-56.96 165.45,-65.62 175.63,-62.66 171.56,-56.96"/>
</g>
<!-- Node2 -->
<g id="node2" class="node">
<title>Node2</title>
<g id="a_node2"><a xlink:href="interfaceGameComponentClass.html" target="_top" xlink:title=" ">
<polygon fill="white" stroke="#666666" points="210.5,-140 93.5,-140 93.5,-121 210.5,-121 210.5,-140"/>
<text text-anchor="middle" x="152" y="-128" font-family="Helvetica,sans-Serif" font-size="10.00">GameComponentClass</text>
</a>
</g>
</g>
<!-- Node2&#45;&gt;Node1 -->
<g id="edge1" class="edge">
<title>Node2&#45;&gt;Node1</title>
<path fill="none" stroke="#63b8ff" d="M152,-109.93C152,-101.53 152,-92.13 152,-85.44"/>
<polygon fill="#63b8ff" stroke="#63b8ff" points="148.5,-109.75 152,-119.75 155.5,-109.75 148.5,-109.75"/>
</g>
<!-- Node3 -->
<g id="node3" class="node">
<title>Node3</title>
<g id="a_node3"><a xlink:title=" ">
<polygon fill="white" stroke="#666666" points="214.5,-195 89.5,-195 89.5,-176 214.5,-176 214.5,-195"/>
<text text-anchor="middle" x="152" y="-183" font-family="Helvetica,sans-Serif" font-size="10.00">GenericComponentClass</text>
</a>
</g>
</g>
<!-- Node3&#45;&gt;Node2 -->
<g id="edge2" class="edge">
<title>Node3&#45;&gt;Node2</title>
<path fill="none" stroke="#63b8ff" d="M152,-164.93C152,-156.53 152,-147.13 152,-140.44"/>
<polygon fill="#63b8ff" stroke="#63b8ff" points="148.5,-164.75 152,-174.75 155.5,-164.75 148.5,-164.75"/>
</g>
</g>
</svg>
