<?xml version="1.0" encoding="UTF-8" standalone="no"?>
<!DOCTYPE svg PUBLIC "-//W3C//DTD SVG 1.1//EN"
 "http://www.w3.org/Graphics/SVG/1.1/DTD/svg11.dtd">
<!-- Generated by graphviz version 8.0.2 (20230410.1723)
 -->
<!-- Title: SCR_BaseAreaMeshComponentClass Pages: 1 -->
<svg width="718pt" height="374pt"
 viewBox="0.00 0.00 718.00 374.00" xmlns="http://www.w3.org/2000/svg" xmlns:xlink="http://www.w3.org/1999/xlink">
<g id="graph0" class="graph" transform="scale(1 1) rotate(0) translate(4 370)">
<title>SCR_BaseAreaMeshComponentClass</title>
<!-- Node1 -->
<g id="node1" class="node">
<title>Node1</title>
<g id="a_node1"><a xlink:title=" ">
<polygon fill="#999999" stroke="#666666" points="310,-198 152,-198 152,-168 310,-168 310,-198"/>
<text text-anchor="start" x="160" y="-186" font-family="Helvetica,sans-Serif" font-size="10.00">SCR_BaseAreaMeshComponent</text>
<text text-anchor="middle" x="231" y="-175" font-family="Helvetica,sans-Serif" font-size="10.00">Class</text>
</a>
</g>
</g>
<!-- Node3 -->
<g id="node3" class="node">
<title>Node3</title>
<g id="a_node3"><a xlink:href="interfaceSCR__CapturePointAreaMeshComponentClass.html" target="_top" xlink:title=" ">
<polygon fill="white" stroke="#666666" points="511.5,-366 368.5,-366 368.5,-336 511.5,-336 511.5,-366"/>
<text text-anchor="start" x="376.5" y="-354" font-family="Helvetica,sans-Serif" font-size="10.00">SCR_CapturePointAreaMesh</text>
<text text-anchor="middle" x="440" y="-343" font-family="Helvetica,sans-Serif" font-size="10.00">ComponentClass</text>
</a>
</g>
</g>
<!-- Node1&#45;&gt;Node3 -->
<g id="edge2" class="edge">
<title>Node1&#45;&gt;Node3</title>
<path fill="none" stroke="#63b8ff" d="M244.95,-207.96C263.11,-240.42 299.21,-296.56 346,-327 352.85,-331.46 360.48,-335.09 368.35,-338.04"/>
<polygon fill="#63b8ff" stroke="#63b8ff" points="247.56,-206.42 239.7,-199.31 241.41,-209.77 247.56,-206.42"/>
</g>
<!-- Node4 -->
<g id="node4" class="node">
<title>Node4</title>
<g id="a_node4"><a xlink:href="interfaceSCR__CustomAreaMeshComponentClass.html" target="_top" xlink:title=" ">
<polygon fill="white" stroke="#666666" points="525,-318 355,-318 355,-288 525,-288 525,-318"/>
<text text-anchor="start" x="363" y="-306" font-family="Helvetica,sans-Serif" font-size="10.00">SCR_CustomAreaMeshComponent</text>
<text text-anchor="middle" x="440" y="-295" font-family="Helvetica,sans-Serif" font-size="10.00">Class</text>
</a>
</g>
</g>
<!-- Node1&#45;&gt;Node4 -->
<g id="edge3" class="edge">
<title>Node1&#45;&gt;Node4</title>
<path fill="none" stroke="#63b8ff" d="M253.42,-206.26C274.83,-228.15 309.7,-260.28 346,-279 352.37,-282.29 359.23,-285.15 366.22,-287.63"/>
<polygon fill="#63b8ff" stroke="#63b8ff" points="256.35,-204.22 246.9,-199.43 251.3,-209.06 256.35,-204.22"/>
</g>
<!-- Node5 -->
<g id="node5" class="node">
<title>Node5</title>
<g id="a_node5"><a xlink:href="interfaceSCR__MilitaryBaseAreaMeshComponentClass.html" target="_top" xlink:title=" ">
<polygon fill="white" stroke="#666666" points="510,-270 370,-270 370,-240 510,-240 510,-270"/>
<text text-anchor="start" x="378" y="-258" font-family="Helvetica,sans-Serif" font-size="10.00">SCR_MilitaryBaseAreaMesh</text>
<text text-anchor="middle" x="440" y="-247" font-family="Helvetica,sans-Serif" font-size="10.00">ComponentClass</text>
</a>
</g>
</g>
<!-- Node1&#45;&gt;Node5 -->
<g id="edge4" class="edge">
<title>Node1&#45;&gt;Node5</title>
<path fill="none" stroke="#63b8ff" d="M274.88,-202.8C296.01,-212.11 322.05,-222.91 346,-231 355.01,-234.04 364.61,-236.92 374.1,-239.55"/>
<polygon fill="#63b8ff" stroke="#63b8ff" points="276.49,-199.24 265.93,-198.37 273.64,-205.64 276.49,-199.24"/>
</g>
<!-- Node6 -->
<g id="node6" class="node">
<title>Node6</title>
<g id="a_node6"><a xlink:href="interfaceSCR__SpawnPointAreaMeshComponentClass.html" target="_top" xlink:title=" ">
<polygon fill="white" stroke="#666666" points="534,-222 346,-222 346,-192 534,-192 534,-222"/>
<text text-anchor="start" x="354" y="-210" font-family="Helvetica,sans-Serif" font-size="10.00">SCR_SpawnPointAreaMeshComponent</text>
<text text-anchor="middle" x="440" y="-199" font-family="Helvetica,sans-Serif" font-size="10.00">Class</text>
</a>
</g>
</g>
<!-- Node1&#45;&gt;Node6 -->
<g id="edge5" class="edge">
<title>Node1&#45;&gt;Node6</title>
<path fill="none" stroke="#63b8ff" d="M320.93,-193.31C329.12,-194.26 337.44,-195.22 345.66,-196.18"/>
<polygon fill="#63b8ff" stroke="#63b8ff" points="321.59,-189.75 311.26,-192.07 320.79,-196.7 321.59,-189.75"/>
</g>
<!-- Node7 -->
<g id="node7" class="node">
<title>Node7</title>
<g id="a_node7"><a xlink:href="interfaceSCR__SupportStationAreaMeshComponentClass.html" target="_top" xlink:title=" ">
<polygon fill="white" stroke="#666666" points="515.5,-174 364.5,-174 364.5,-144 515.5,-144 515.5,-174"/>
<text text-anchor="start" x="372.5" y="-162" font-family="Helvetica,sans-Serif" font-size="10.00">SCR_SupportStationAreaMesh</text>
<text text-anchor="middle" x="440" y="-151" font-family="Helvetica,sans-Serif" font-size="10.00">ComponentClass</text>
</a>
</g>
</g>
<!-- Node1&#45;&gt;Node7 -->
<g id="edge6" class="edge">
<title>Node1&#45;&gt;Node7</title>
<path fill="none" stroke="#63b8ff" d="M321.11,-172.67C335.43,-171.01 350.11,-169.31 364.05,-167.69"/>
<polygon fill="#63b8ff" stroke="#63b8ff" points="320.79,-169.3 311.26,-173.93 321.59,-176.25 320.79,-169.3"/>
</g>
<!-- Node8 -->
<g id="node8" class="node">
<title>Node8</title>
<g id="a_node8"><a xlink:href="interfaceSCR__TriggerAreaMeshComponentClass.html" target="_top" xlink:title=" ">
<polygon fill="white" stroke="#666666" points="522.5,-126 357.5,-126 357.5,-96 522.5,-96 522.5,-126"/>
<text text-anchor="start" x="365.5" y="-114" font-family="Helvetica,sans-Serif" font-size="10.00">SCR_TriggerAreaMeshComponent</text>
<text text-anchor="middle" x="440" y="-103" font-family="Helvetica,sans-Serif" font-size="10.00">Class</text>
</a>
</g>
</g>
<!-- Node1&#45;&gt;Node8 -->
<g id="edge7" class="edge">
<title>Node1&#45;&gt;Node8</title>
<path fill="none" stroke="#63b8ff" d="M274.88,-163.2C296.01,-153.89 322.05,-143.09 346,-135 355.01,-131.96 364.61,-129.08 374.1,-126.45"/>
<polygon fill="#63b8ff" stroke="#63b8ff" points="273.64,-160.36 265.93,-167.63 276.49,-166.76 273.64,-160.36"/>
</g>
<!-- Node10 -->
<g id="node10" class="node">
<title>Node10</title>
<g id="a_node10"><a xlink:href="interfaceSCR__WaypointAreaMeshComponentClass.html" target="_top" xlink:title=" ">
<polygon fill="white" stroke="#666666" points="528.5,-78 351.5,-78 351.5,-48 528.5,-48 528.5,-78"/>
<text text-anchor="start" x="359.5" y="-66" font-family="Helvetica,sans-Serif" font-size="10.00">SCR_WaypointAreaMeshComponent</text>
<text text-anchor="middle" x="440" y="-55" font-family="Helvetica,sans-Serif" font-size="10.00">Class</text>
</a>
</g>
</g>
<!-- Node1&#45;&gt;Node10 -->
<g id="edge9" class="edge">
<title>Node1&#45;&gt;Node10</title>
<path fill="none" stroke="#63b8ff" d="M253.42,-159.74C274.83,-137.85 309.7,-105.72 346,-87 352.37,-83.71 359.23,-80.85 366.22,-78.37"/>
<polygon fill="#63b8ff" stroke="#63b8ff" points="251.3,-156.94 246.9,-166.57 256.35,-161.78 251.3,-156.94"/>
</g>
<!-- Node11 -->
<g id="node11" class="node">
<title>Node11</title>
<g id="a_node11"><a xlink:href="interfaceSCR__ZoneRestrictionAreaMeshComponentClass.html" target="_top" xlink:title=" ">
<polygon fill="white" stroke="#666666" points="517,-30 363,-30 363,0 517,0 517,-30"/>
<text text-anchor="start" x="371" y="-18" font-family="Helvetica,sans-Serif" font-size="10.00">SCR_ZoneRestrictionAreaMesh</text>
<text text-anchor="middle" x="440" y="-7" font-family="Helvetica,sans-Serif" font-size="10.00">ComponentClass</text>
</a>
</g>
</g>
<!-- Node1&#45;&gt;Node11 -->
<g id="edge10" class="edge">
<title>Node1&#45;&gt;Node11</title>
<path fill="none" stroke="#63b8ff" d="M244.95,-158.04C263.11,-125.58 299.21,-69.44 346,-39 351.17,-35.64 356.79,-32.74 362.62,-30.25"/>
<polygon fill="#63b8ff" stroke="#63b8ff" points="241.41,-156.23 239.7,-166.69 247.56,-159.58 241.41,-156.23"/>
</g>
<!-- Node2 -->
<g id="node2" class="node">
<title>Node2</title>
<g id="a_node2"><a xlink:title=" ">
<polygon fill="white" stroke="#666666" points="116,-192.5 0,-192.5 0,-173.5 116,-173.5 116,-192.5"/>
<text text-anchor="middle" x="58" y="-180.5" font-family="Helvetica,sans-Serif" font-size="10.00">ScriptComponentClass</text>
</a>
</g>
</g>
<!-- Node2&#45;&gt;Node1 -->
<g id="edge1" class="edge">
<title>Node2&#45;&gt;Node1</title>
<path fill="none" stroke="#63b8ff" d="M127.25,-183C135.31,-183 143.58,-183 151.77,-183"/>
<polygon fill="#63b8ff" stroke="#63b8ff" points="127.42,-179.5 117.42,-183 127.42,-186.5 127.42,-179.5"/>
</g>
<!-- Node9 -->
<g id="node9" class="node">
<title>Node9</title>
<g id="a_node9"><a xlink:href="interfaceSCR__CampaignBuildingAreaMeshComponentClass.html" target="_top" xlink:title=" ">
<polygon fill="white" stroke="#666666" points="710,-126 570,-126 570,-96 710,-96 710,-126"/>
<text text-anchor="start" x="578" y="-114" font-family="Helvetica,sans-Serif" font-size="10.00">SCR_CampaignBuildingArea</text>
<text text-anchor="middle" x="640" y="-103" font-family="Helvetica,sans-Serif" font-size="10.00">MeshComponentClass</text>
</a>
</g>
</g>
<!-- Node8&#45;&gt;Node9 -->
<g id="edge8" class="edge">
<title>Node8&#45;&gt;Node9</title>
<path fill="none" stroke="#63b8ff" d="M533.96,-111C545.99,-111 558.14,-111 569.7,-111"/>
<polygon fill="#63b8ff" stroke="#63b8ff" points="533.96,-107.5 523.96,-111 533.96,-114.5 533.96,-107.5"/>
</g>
</g>
</svg>
