<?xml version="1.0" encoding="UTF-8" standalone="no"?>
<!DOCTYPE svg PUBLIC "-//W3C//DTD SVG 1.1//EN"
 "http://www.w3.org/Graphics/SVG/1.1/DTD/svg11.dtd">
<!-- Generated by graphviz version 8.0.2 (20230410.1723)
 -->
<!-- Title: SCR_AIMoveActivity Pages: 1 -->
<svg width="164pt" height="302pt"
 viewBox="0.00 0.00 164.00 302.00" xmlns="http://www.w3.org/2000/svg" xmlns:xlink="http://www.w3.org/1999/xlink">
<g id="graph0" class="graph" transform="scale(1 1) rotate(0) translate(4 298)">
<title>SCR_AIMoveActivity</title>
<!-- Node1 -->
<g id="node1" class="node">
<title>Node1</title>
<g id="a_node1"><a xlink:title=" ">
<polygon fill="#999999" stroke="#666666" points="130.5,-74 25.5,-74 25.5,-55 130.5,-55 130.5,-74"/>
<text text-anchor="middle" x="78" y="-62" font-family="Helvetica,sans-Serif" font-size="10.00">SCR_AIMoveActivity</text>
</a>
</g>
</g>
<!-- Node6 -->
<g id="node6" class="node">
<title>Node6</title>
<g id="a_node6"><a xlink:href="interfaceSCR__AISeekAndDestroyActivity.html" target="_top" xlink:title=" ">
<polygon fill="white" stroke="#666666" points="156,-19 0,-19 0,0 156,0 156,-19"/>
<text text-anchor="middle" x="78" y="-7" font-family="Helvetica,sans-Serif" font-size="10.00">SCR_AISeekAndDestroyActivity</text>
</a>
</g>
</g>
<!-- Node1&#45;&gt;Node6 -->
<g id="edge5" class="edge">
<title>Node1&#45;&gt;Node6</title>
<path fill="none" stroke="#63b8ff" d="M78,-43.93C78,-35.53 78,-26.13 78,-19.44"/>
<polygon fill="#63b8ff" stroke="#63b8ff" points="74.5,-43.75 78,-53.75 81.5,-43.75 74.5,-43.75"/>
</g>
<!-- Node2 -->
<g id="node2" class="node">
<title>Node2</title>
<g id="a_node2"><a xlink:href="interfaceSCR__AIActivityBase.html" target="_top" xlink:title=" ">
<polygon fill="white" stroke="#666666" points="130.5,-129 25.5,-129 25.5,-110 130.5,-110 130.5,-129"/>
<text text-anchor="middle" x="78" y="-117" font-family="Helvetica,sans-Serif" font-size="10.00">SCR_AIActivityBase</text>
</a>
</g>
</g>
<!-- Node2&#45;&gt;Node1 -->
<g id="edge1" class="edge">
<title>Node2&#45;&gt;Node1</title>
<path fill="none" stroke="#63b8ff" d="M78,-98.93C78,-90.53 78,-81.13 78,-74.44"/>
<polygon fill="#63b8ff" stroke="#63b8ff" points="74.5,-98.75 78,-108.75 81.5,-98.75 74.5,-98.75"/>
</g>
<!-- Node3 -->
<g id="node3" class="node">
<title>Node3</title>
<g id="a_node3"><a xlink:href="interfaceSCR__AIActionBase.html" target="_top" xlink:title=" ">
<polygon fill="white" stroke="#666666" points="128.5,-184 27.5,-184 27.5,-165 128.5,-165 128.5,-184"/>
<text text-anchor="middle" x="78" y="-172" font-family="Helvetica,sans-Serif" font-size="10.00">SCR_AIActionBase</text>
</a>
</g>
</g>
<!-- Node3&#45;&gt;Node2 -->
<g id="edge2" class="edge">
<title>Node3&#45;&gt;Node2</title>
<path fill="none" stroke="#63b8ff" d="M78,-153.93C78,-145.53 78,-136.13 78,-129.44"/>
<polygon fill="#63b8ff" stroke="#63b8ff" points="74.5,-153.75 78,-163.75 81.5,-153.75 74.5,-153.75"/>
</g>
<!-- Node4 -->
<g id="node4" class="node">
<title>Node4</title>
<g id="a_node4"><a xlink:href="interfaceAIActionBase.html" target="_top" xlink:title=" ">
<polygon fill="white" stroke="#666666" points="116,-239 40,-239 40,-220 116,-220 116,-239"/>
<text text-anchor="middle" x="78" y="-227" font-family="Helvetica,sans-Serif" font-size="10.00">AIActionBase</text>
</a>
</g>
</g>
<!-- Node4&#45;&gt;Node3 -->
<g id="edge3" class="edge">
<title>Node4&#45;&gt;Node3</title>
<path fill="none" stroke="#63b8ff" d="M78,-208.93C78,-200.53 78,-191.13 78,-184.44"/>
<polygon fill="#63b8ff" stroke="#63b8ff" points="74.5,-208.75 78,-218.75 81.5,-208.75 74.5,-208.75"/>
</g>
<!-- Node5 -->
<g id="node5" class="node">
<title>Node5</title>
<g id="a_node5"><a xlink:title=" ">
<polygon fill="white" stroke="#666666" points="121,-294 35,-294 35,-275 121,-275 121,-294"/>
<text text-anchor="middle" x="78" y="-282" font-family="Helvetica,sans-Serif" font-size="10.00">ScriptAndConfig</text>
</a>
</g>
</g>
<!-- Node5&#45;&gt;Node4 -->
<g id="edge4" class="edge">
<title>Node5&#45;&gt;Node4</title>
<path fill="none" stroke="#63b8ff" d="M78,-263.93C78,-255.53 78,-246.13 78,-239.44"/>
<polygon fill="#63b8ff" stroke="#63b8ff" points="74.5,-263.75 78,-273.75 81.5,-263.75 74.5,-263.75"/>
</g>
</g>
</svg>
