<?xml version="1.0" encoding="UTF-8" standalone="no"?>
<!DOCTYPE svg PUBLIC "-//W3C//DTD SVG 1.1//EN"
 "http://www.w3.org/Graphics/SVG/1.1/DTD/svg11.dtd">
<!-- Generated by graphviz version 8.0.2 (20230410.1723)
 -->
<!-- Title: SCR_GearShiftInfo Pages: 1 -->
<svg width="139pt" height="357pt"
 viewBox="0.00 0.00 139.00 357.00" xmlns="http://www.w3.org/2000/svg" xmlns:xlink="http://www.w3.org/1999/xlink">
<g id="graph0" class="graph" transform="scale(1 1) rotate(0) translate(4 353)">
<title>SCR_GearShiftInfo</title>
<!-- Node1 -->
<g id="node1" class="node">
<title>Node1</title>
<g id="a_node1"><a xlink:title=" ">
<polygon fill="#999999" stroke="#666666" points="114.5,-19 16.5,-19 16.5,0 114.5,0 114.5,-19"/>
<text text-anchor="middle" x="65.5" y="-7" font-family="Helvetica,sans-Serif" font-size="10.00">SCR_GearShiftInfo</text>
</a>
</g>
</g>
<!-- Node2 -->
<g id="node2" class="node">
<title>Node2</title>
<g id="a_node2"><a xlink:href="interfaceSCR__BaseVehicleInfo.html" target="_top" xlink:title="Base class for all vehicle UI state and damage indicators.">
<polygon fill="white" stroke="#666666" points="121.5,-74 9.5,-74 9.5,-55 121.5,-55 121.5,-74"/>
<text text-anchor="middle" x="65.5" y="-62" font-family="Helvetica,sans-Serif" font-size="10.00">SCR_BaseVehicleInfo</text>
</a>
</g>
</g>
<!-- Node2&#45;&gt;Node1 -->
<g id="edge1" class="edge">
<title>Node2&#45;&gt;Node1</title>
<path fill="none" stroke="#63b8ff" d="M65.5,-43.93C65.5,-35.53 65.5,-26.13 65.5,-19.44"/>
<polygon fill="#63b8ff" stroke="#63b8ff" points="62,-43.75 65.5,-53.75 69,-43.75 62,-43.75"/>
</g>
<!-- Node3 -->
<g id="node3" class="node">
<title>Node3</title>
<g id="a_node3"><a xlink:href="interfaceSCR__InfoDisplayExtended.html" target="_top" xlink:title=" ">
<polygon fill="white" stroke="#666666" points="131,-129 0,-129 0,-110 131,-110 131,-129"/>
<text text-anchor="middle" x="65.5" y="-117" font-family="Helvetica,sans-Serif" font-size="10.00">SCR_InfoDisplayExtended</text>
</a>
</g>
</g>
<!-- Node3&#45;&gt;Node2 -->
<g id="edge2" class="edge">
<title>Node3&#45;&gt;Node2</title>
<path fill="none" stroke="#63b8ff" d="M65.5,-98.93C65.5,-90.53 65.5,-81.13 65.5,-74.44"/>
<polygon fill="#63b8ff" stroke="#63b8ff" points="62,-98.75 65.5,-108.75 69,-98.75 62,-98.75"/>
</g>
<!-- Node4 -->
<g id="node4" class="node">
<title>Node4</title>
<g id="a_node4"><a xlink:href="interfaceSCR__InfoDisplay.html" target="_top" xlink:title=" ">
<polygon fill="white" stroke="#666666" points="110,-184 21,-184 21,-165 110,-165 110,-184"/>
<text text-anchor="middle" x="65.5" y="-172" font-family="Helvetica,sans-Serif" font-size="10.00">SCR_InfoDisplay</text>
</a>
</g>
</g>
<!-- Node4&#45;&gt;Node3 -->
<g id="edge3" class="edge">
<title>Node4&#45;&gt;Node3</title>
<path fill="none" stroke="#63b8ff" d="M65.5,-153.93C65.5,-145.53 65.5,-136.13 65.5,-129.44"/>
<polygon fill="#63b8ff" stroke="#63b8ff" points="62,-153.75 65.5,-163.75 69,-153.75 62,-153.75"/>
</g>
<!-- Node5 -->
<g id="node5" class="node">
<title>Node5</title>
<g id="a_node5"><a xlink:href="interfaceGroupInfoDisplay.html" target="_top" xlink:title=" ">
<polygon fill="white" stroke="#666666" points="110.5,-239 20.5,-239 20.5,-220 110.5,-220 110.5,-239"/>
<text text-anchor="middle" x="65.5" y="-227" font-family="Helvetica,sans-Serif" font-size="10.00">GroupInfoDisplay</text>
</a>
</g>
</g>
<!-- Node5&#45;&gt;Node4 -->
<g id="edge4" class="edge">
<title>Node5&#45;&gt;Node4</title>
<path fill="none" stroke="#63b8ff" d="M65.5,-208.93C65.5,-200.53 65.5,-191.13 65.5,-184.44"/>
<polygon fill="#63b8ff" stroke="#63b8ff" points="62,-208.75 65.5,-218.75 69,-208.75 62,-208.75"/>
</g>
<!-- Node6 -->
<g id="node6" class="node">
<title>Node6</title>
<g id="a_node6"><a xlink:href="interfaceBaseInfoDisplay.html" target="_top" xlink:title=" ">
<polygon fill="white" stroke="#666666" points="108.5,-294 22.5,-294 22.5,-275 108.5,-275 108.5,-294"/>
<text text-anchor="middle" x="65.5" y="-282" font-family="Helvetica,sans-Serif" font-size="10.00">BaseInfoDisplay</text>
</a>
</g>
</g>
<!-- Node6&#45;&gt;Node5 -->
<g id="edge5" class="edge">
<title>Node6&#45;&gt;Node5</title>
<path fill="none" stroke="#63b8ff" d="M65.5,-263.93C65.5,-255.53 65.5,-246.13 65.5,-239.44"/>
<polygon fill="#63b8ff" stroke="#63b8ff" points="62,-263.75 65.5,-273.75 69,-263.75 62,-263.75"/>
</g>
<!-- Node7 -->
<g id="node7" class="node">
<title>Node7</title>
<g id="a_node7"><a xlink:title=" ">
<polygon fill="white" stroke="#666666" points="108.5,-349 22.5,-349 22.5,-330 108.5,-330 108.5,-349"/>
<text text-anchor="middle" x="65.5" y="-337" font-family="Helvetica,sans-Serif" font-size="10.00">ScriptAndConfig</text>
</a>
</g>
</g>
<!-- Node7&#45;&gt;Node6 -->
<g id="edge6" class="edge">
<title>Node7&#45;&gt;Node6</title>
<path fill="none" stroke="#63b8ff" d="M65.5,-318.93C65.5,-310.53 65.5,-301.13 65.5,-294.44"/>
<polygon fill="#63b8ff" stroke="#63b8ff" points="62,-318.75 65.5,-328.75 69,-318.75 62,-318.75"/>
</g>
</g>
</svg>
