<?xml version="1.0" encoding="UTF-8" standalone="no"?>
<!DOCTYPE svg PUBLIC "-//W3C//DTD SVG 1.1//EN"
 "http://www.w3.org/Graphics/SVG/1.1/DTD/svg11.dtd">
<!-- Generated by graphviz version 8.0.2 (20230410.1723)
 -->
<!-- Title: ScriptedSightsComponentClass Pages: 1 -->
<svg width="344pt" height="423pt"
 viewBox="0.00 0.00 343.50 423.00" xmlns="http://www.w3.org/2000/svg" xmlns:xlink="http://www.w3.org/1999/xlink">
<g id="graph0" class="graph" transform="scale(1 1) rotate(0) translate(4 419)">
<title>ScriptedSightsComponentClass</title>
<!-- Node1 -->
<g id="node1" class="node">
<title>Node1</title>
<g id="a_node1"><a xlink:title=" ">
<polygon fill="#999999" stroke="#666666" points="244,-195 89,-195 89,-176 244,-176 244,-195"/>
<text text-anchor="middle" x="166.5" y="-183" font-family="Helvetica,sans-Serif" font-size="10.00">ScriptedSightsComponentClass</text>
</a>
</g>
</g>
<!-- Node6 -->
<g id="node6" class="node">
<title>Node6</title>
<g id="a_node6"><a xlink:href="interfaceSCR__2DOpticsComponentClass.html" target="_top" xlink:title=" ">
<polygon fill="white" stroke="#666666" points="157,-140 0,-140 0,-121 157,-121 157,-140"/>
<text text-anchor="middle" x="78.5" y="-128" font-family="Helvetica,sans-Serif" font-size="10.00">SCR_2DOpticsComponentClass</text>
</a>
</g>
</g>
<!-- Node1&#45;&gt;Node6 -->
<g id="edge5" class="edge">
<title>Node1&#45;&gt;Node6</title>
<path fill="none" stroke="#63b8ff" d="M142.42,-170C126.68,-160.52 106.62,-148.43 93.21,-140.36"/>
<polygon fill="#63b8ff" stroke="#63b8ff" points="140.2,-173.35 150.57,-175.51 143.81,-167.35 140.2,-173.35"/>
</g>
<!-- Node9 -->
<g id="node9" class="node">
<title>Node9</title>
<g id="a_node9"><a xlink:href="interfaceSCR__PIPSightsComponentClass.html" target="_top" xlink:title=" ">
<polygon fill="white" stroke="#666666" points="335.5,-140 175.5,-140 175.5,-121 335.5,-121 335.5,-140"/>
<text text-anchor="middle" x="255.5" y="-128" font-family="Helvetica,sans-Serif" font-size="10.00">SCR_PIPSightsComponentClass</text>
</a>
</g>
</g>
<!-- Node1&#45;&gt;Node9 -->
<g id="edge8" class="edge">
<title>Node1&#45;&gt;Node9</title>
<path fill="none" stroke="#63b8ff" d="M190.85,-170C206.77,-160.52 227.06,-148.43 240.63,-140.36"/>
<polygon fill="#63b8ff" stroke="#63b8ff" points="189.4,-167.39 182.6,-175.51 192.98,-173.4 189.4,-167.39"/>
</g>
<!-- Node2 -->
<g id="node2" class="node">
<title>Node2</title>
<g id="a_node2"><a xlink:href="interfaceSightsComponentClass.html" target="_top" xlink:title=" ">
<polygon fill="white" stroke="#666666" points="226,-250 107,-250 107,-231 226,-231 226,-250"/>
<text text-anchor="middle" x="166.5" y="-238" font-family="Helvetica,sans-Serif" font-size="10.00">SightsComponentClass</text>
</a>
</g>
</g>
<!-- Node2&#45;&gt;Node1 -->
<g id="edge1" class="edge">
<title>Node2&#45;&gt;Node1</title>
<path fill="none" stroke="#63b8ff" d="M166.5,-219.93C166.5,-211.53 166.5,-202.13 166.5,-195.44"/>
<polygon fill="#63b8ff" stroke="#63b8ff" points="163,-219.75 166.5,-229.75 170,-219.75 163,-219.75"/>
</g>
<!-- Node3 -->
<g id="node3" class="node">
<title>Node3</title>
<g id="a_node3"><a xlink:href="interfaceBaseSightsComponentClass.html" target="_top" xlink:title=" ">
<polygon fill="white" stroke="#666666" points="237,-305 96,-305 96,-286 237,-286 237,-305"/>
<text text-anchor="middle" x="166.5" y="-293" font-family="Helvetica,sans-Serif" font-size="10.00">BaseSightsComponentClass</text>
</a>
</g>
</g>
<!-- Node3&#45;&gt;Node2 -->
<g id="edge2" class="edge">
<title>Node3&#45;&gt;Node2</title>
<path fill="none" stroke="#63b8ff" d="M166.5,-274.93C166.5,-266.53 166.5,-257.13 166.5,-250.44"/>
<polygon fill="#63b8ff" stroke="#63b8ff" points="163,-274.75 166.5,-284.75 170,-274.75 163,-274.75"/>
</g>
<!-- Node4 -->
<g id="node4" class="node">
<title>Node4</title>
<g id="a_node4"><a xlink:href="interfaceGameComponentClass.html" target="_top" xlink:title=" ">
<polygon fill="white" stroke="#666666" points="225,-360 108,-360 108,-341 225,-341 225,-360"/>
<text text-anchor="middle" x="166.5" y="-348" font-family="Helvetica,sans-Serif" font-size="10.00">GameComponentClass</text>
</a>
</g>
</g>
<!-- Node4&#45;&gt;Node3 -->
<g id="edge3" class="edge">
<title>Node4&#45;&gt;Node3</title>
<path fill="none" stroke="#63b8ff" d="M166.5,-329.93C166.5,-321.53 166.5,-312.13 166.5,-305.44"/>
<polygon fill="#63b8ff" stroke="#63b8ff" points="163,-329.75 166.5,-339.75 170,-329.75 163,-329.75"/>
</g>
<!-- Node5 -->
<g id="node5" class="node">
<title>Node5</title>
<g id="a_node5"><a xlink:title=" ">
<polygon fill="white" stroke="#666666" points="229,-415 104,-415 104,-396 229,-396 229,-415"/>
<text text-anchor="middle" x="166.5" y="-403" font-family="Helvetica,sans-Serif" font-size="10.00">GenericComponentClass</text>
</a>
</g>
</g>
<!-- Node5&#45;&gt;Node4 -->
<g id="edge4" class="edge">
<title>Node5&#45;&gt;Node4</title>
<path fill="none" stroke="#63b8ff" d="M166.5,-384.93C166.5,-376.53 166.5,-367.13 166.5,-360.44"/>
<polygon fill="#63b8ff" stroke="#63b8ff" points="163,-384.75 166.5,-394.75 170,-384.75 163,-384.75"/>
</g>
<!-- Node7 -->
<g id="node7" class="node">
<title>Node7</title>
<g id="a_node7"><a xlink:href="interfaceSCR__2DSightsComponentClass.html" target="_top" xlink:title=" ">
<polygon fill="white" stroke="#666666" points="156.5,-85 0.5,-85 0.5,-66 156.5,-66 156.5,-85"/>
<text text-anchor="middle" x="78.5" y="-73" font-family="Helvetica,sans-Serif" font-size="10.00">SCR_2DSightsComponentClass</text>
</a>
</g>
</g>
<!-- Node6&#45;&gt;Node7 -->
<g id="edge6" class="edge">
<title>Node6&#45;&gt;Node7</title>
<path fill="none" stroke="#63b8ff" d="M78.5,-109.93C78.5,-101.53 78.5,-92.13 78.5,-85.44"/>
<polygon fill="#63b8ff" stroke="#63b8ff" points="75,-109.75 78.5,-119.75 82,-109.75 75,-109.75"/>
</g>
<!-- Node8 -->
<g id="node8" class="node">
<title>Node8</title>
<g id="a_node8"><a xlink:href="interfaceSCR__2DPIPSightsComponentClass.html" target="_top" xlink:title=" ">
<polygon fill="white" stroke="#666666" points="152,-30 5,-30 5,0 152,0 152,-30"/>
<text text-anchor="start" x="13" y="-18" font-family="Helvetica,sans-Serif" font-size="10.00">SCR_2DPIPSightsComponent</text>
<text text-anchor="middle" x="78.5" y="-7" font-family="Helvetica,sans-Serif" font-size="10.00">Class</text>
</a>
</g>
</g>
<!-- Node7&#45;&gt;Node8 -->
<g id="edge7" class="edge">
<title>Node7&#45;&gt;Node8</title>
<path fill="none" stroke="#63b8ff" d="M78.5,-55.08C78.5,-46.92 78.5,-37.6 78.5,-30.11"/>
<polygon fill="#63b8ff" stroke="#63b8ff" points="75,-54.87 78.5,-64.87 82,-54.87 75,-54.87"/>
</g>
</g>
</svg>
