<?xml version="1.0" encoding="UTF-8" standalone="no"?>
<!DOCTYPE svg PUBLIC "-//W3C//DTD SVG 1.1//EN"
 "http://www.w3.org/Graphics/SVG/1.1/DTD/svg11.dtd">
<!-- Generated by graphviz version 8.0.2 (20230410.1723)
 -->
<!-- Title: SCR_PatrolGroupCommand Pages: 1 -->
<svg width="162pt" height="192pt"
 viewBox="0.00 0.00 162.00 192.00" xmlns="http://www.w3.org/2000/svg" xmlns:xlink="http://www.w3.org/1999/xlink">
<g id="graph0" class="graph" transform="scale(1 1) rotate(0) translate(4 188)">
<title>SCR_PatrolGroupCommand</title>
<!-- Node1 -->
<g id="node1" class="node">
<title>Node1</title>
<g id="a_node1"><a xlink:title=" ">
<polygon fill="#999999" stroke="#666666" points="146,-19 8,-19 8,0 146,0 146,-19"/>
<text text-anchor="middle" x="77" y="-7" font-family="Helvetica,sans-Serif" font-size="10.00">SCR_PatrolGroupCommand</text>
</a>
</g>
</g>
<!-- Node2 -->
<g id="node2" class="node">
<title>Node2</title>
<g id="a_node2"><a xlink:href="interfaceSCR__WaypointGroupCommand.html" target="_top" xlink:title=" ">
<polygon fill="white" stroke="#666666" points="154,-74 0,-74 0,-55 154,-55 154,-74"/>
<text text-anchor="middle" x="77" y="-62" font-family="Helvetica,sans-Serif" font-size="10.00">SCR_WaypointGroupCommand</text>
</a>
</g>
</g>
<!-- Node2&#45;&gt;Node1 -->
<g id="edge1" class="edge">
<title>Node2&#45;&gt;Node1</title>
<path fill="none" stroke="#63b8ff" d="M77,-43.93C77,-35.53 77,-26.13 77,-19.44"/>
<polygon fill="#63b8ff" stroke="#63b8ff" points="73.5,-43.75 77,-53.75 80.5,-43.75 73.5,-43.75"/>
</g>
<!-- Node3 -->
<g id="node3" class="node">
<title>Node3</title>
<g id="a_node3"><a xlink:href="interfaceSCR__BaseGroupCommand.html" target="_top" xlink:title=" ">
<polygon fill="white" stroke="#666666" points="144.5,-129 9.5,-129 9.5,-110 144.5,-110 144.5,-129"/>
<text text-anchor="middle" x="77" y="-117" font-family="Helvetica,sans-Serif" font-size="10.00">SCR_BaseGroupCommand</text>
</a>
</g>
</g>
<!-- Node3&#45;&gt;Node2 -->
<g id="edge2" class="edge">
<title>Node3&#45;&gt;Node2</title>
<path fill="none" stroke="#63b8ff" d="M77,-98.93C77,-90.53 77,-81.13 77,-74.44"/>
<polygon fill="#63b8ff" stroke="#63b8ff" points="73.5,-98.75 77,-108.75 80.5,-98.75 73.5,-98.75"/>
</g>
<!-- Node4 -->
<g id="node4" class="node">
<title>Node4</title>
<g id="a_node4"><a xlink:href="interfaceSCR__BaseRadialCommand.html" target="_top" xlink:title=" ">
<polygon fill="white" stroke="#666666" points="145,-184 9,-184 9,-165 145,-165 145,-184"/>
<text text-anchor="middle" x="77" y="-172" font-family="Helvetica,sans-Serif" font-size="10.00">SCR_BaseRadialCommand</text>
</a>
</g>
</g>
<!-- Node4&#45;&gt;Node3 -->
<g id="edge3" class="edge">
<title>Node4&#45;&gt;Node3</title>
<path fill="none" stroke="#63b8ff" d="M77,-153.93C77,-145.53 77,-136.13 77,-129.44"/>
<polygon fill="#63b8ff" stroke="#63b8ff" points="73.5,-153.75 77,-163.75 80.5,-153.75 73.5,-153.75"/>
</g>
</g>
</svg>
