<?xml version="1.0" encoding="UTF-8" standalone="no"?>
<!DOCTYPE svg PUBLIC "-//W3C//DTD SVG 1.1//EN"
 "http://www.w3.org/Graphics/SVG/1.1/DTD/svg11.dtd">
<!-- Generated by graphviz version 8.0.2 (20230410.1723)
 -->
<!-- Title: SCR_AnalogGaugeMultiSignal Pages: 1 -->
<svg width="157pt" height="467pt"
 viewBox="0.00 0.00 157.00 467.00" xmlns="http://www.w3.org/2000/svg" xmlns:xlink="http://www.w3.org/1999/xlink">
<g id="graph0" class="graph" transform="scale(1 1) rotate(0) translate(4 463)">
<title>SCR_AnalogGaugeMultiSignal</title>
<!-- Node1 -->
<g id="node1" class="node">
<title>Node1</title>
<g id="a_node1"><a xlink:title="gauge showing the sum of more than one signal">
<polygon fill="#999999" stroke="#666666" points="149,-19 0,-19 0,0 149,0 149,-19"/>
<text text-anchor="middle" x="74.5" y="-7" font-family="Helvetica,sans-Serif" font-size="10.00">SCR_AnalogGaugeMultiSignal</text>
</a>
</g>
</g>
<!-- Node2 -->
<g id="node2" class="node">
<title>Node2</title>
<g id="a_node2"><a xlink:href="interfaceSCR__AnalogGaugeSmall.html" target="_top" xlink:title=" ">
<polygon fill="white" stroke="#666666" points="137,-74 12,-74 12,-55 137,-55 137,-74"/>
<text text-anchor="middle" x="74.5" y="-62" font-family="Helvetica,sans-Serif" font-size="10.00">SCR_AnalogGaugeSmall</text>
</a>
</g>
</g>
<!-- Node2&#45;&gt;Node1 -->
<g id="edge1" class="edge">
<title>Node2&#45;&gt;Node1</title>
<path fill="none" stroke="#63b8ff" d="M74.5,-43.93C74.5,-35.53 74.5,-26.13 74.5,-19.44"/>
<polygon fill="#63b8ff" stroke="#63b8ff" points="71,-43.75 74.5,-53.75 78,-43.75 71,-43.75"/>
</g>
<!-- Node3 -->
<g id="node3" class="node">
<title>Node3</title>
<g id="a_node3"><a xlink:href="interfaceSCR__AnalogGauge.html" target="_top" xlink:title=" ">
<polygon fill="white" stroke="#666666" points="125,-129 24,-129 24,-110 125,-110 125,-129"/>
<text text-anchor="middle" x="74.5" y="-117" font-family="Helvetica,sans-Serif" font-size="10.00">SCR_AnalogGauge</text>
</a>
</g>
</g>
<!-- Node3&#45;&gt;Node2 -->
<g id="edge2" class="edge">
<title>Node3&#45;&gt;Node2</title>
<path fill="none" stroke="#63b8ff" d="M74.5,-98.93C74.5,-90.53 74.5,-81.13 74.5,-74.44"/>
<polygon fill="#63b8ff" stroke="#63b8ff" points="71,-98.75 74.5,-108.75 78,-98.75 71,-98.75"/>
</g>
<!-- Node4 -->
<g id="node4" class="node">
<title>Node4</title>
<g id="a_node4"><a xlink:href="interfaceSCR__BaseAnalogGauge.html" target="_top" xlink:title=" ">
<polygon fill="white" stroke="#666666" points="136,-184 13,-184 13,-165 136,-165 136,-184"/>
<text text-anchor="middle" x="74.5" y="-172" font-family="Helvetica,sans-Serif" font-size="10.00">SCR_BaseAnalogGauge</text>
</a>
</g>
</g>
<!-- Node4&#45;&gt;Node3 -->
<g id="edge3" class="edge">
<title>Node4&#45;&gt;Node3</title>
<path fill="none" stroke="#63b8ff" d="M74.5,-153.93C74.5,-145.53 74.5,-136.13 74.5,-129.44"/>
<polygon fill="#63b8ff" stroke="#63b8ff" points="71,-153.75 74.5,-163.75 78,-153.75 71,-153.75"/>
</g>
<!-- Node5 -->
<g id="node5" class="node">
<title>Node5</title>
<g id="a_node5"><a xlink:href="interfaceSCR__InfoDisplayExtended.html" target="_top" xlink:title=" ">
<polygon fill="white" stroke="#666666" points="140,-239 9,-239 9,-220 140,-220 140,-239"/>
<text text-anchor="middle" x="74.5" y="-227" font-family="Helvetica,sans-Serif" font-size="10.00">SCR_InfoDisplayExtended</text>
</a>
</g>
</g>
<!-- Node5&#45;&gt;Node4 -->
<g id="edge4" class="edge">
<title>Node5&#45;&gt;Node4</title>
<path fill="none" stroke="#63b8ff" d="M74.5,-208.93C74.5,-200.53 74.5,-191.13 74.5,-184.44"/>
<polygon fill="#63b8ff" stroke="#63b8ff" points="71,-208.75 74.5,-218.75 78,-208.75 71,-208.75"/>
</g>
<!-- Node6 -->
<g id="node6" class="node">
<title>Node6</title>
<g id="a_node6"><a xlink:href="interfaceSCR__InfoDisplay.html" target="_top" xlink:title=" ">
<polygon fill="white" stroke="#666666" points="119,-294 30,-294 30,-275 119,-275 119,-294"/>
<text text-anchor="middle" x="74.5" y="-282" font-family="Helvetica,sans-Serif" font-size="10.00">SCR_InfoDisplay</text>
</a>
</g>
</g>
<!-- Node6&#45;&gt;Node5 -->
<g id="edge5" class="edge">
<title>Node6&#45;&gt;Node5</title>
<path fill="none" stroke="#63b8ff" d="M74.5,-263.93C74.5,-255.53 74.5,-246.13 74.5,-239.44"/>
<polygon fill="#63b8ff" stroke="#63b8ff" points="71,-263.75 74.5,-273.75 78,-263.75 71,-263.75"/>
</g>
<!-- Node7 -->
<g id="node7" class="node">
<title>Node7</title>
<g id="a_node7"><a xlink:href="interfaceGroupInfoDisplay.html" target="_top" xlink:title=" ">
<polygon fill="white" stroke="#666666" points="119.5,-349 29.5,-349 29.5,-330 119.5,-330 119.5,-349"/>
<text text-anchor="middle" x="74.5" y="-337" font-family="Helvetica,sans-Serif" font-size="10.00">GroupInfoDisplay</text>
</a>
</g>
</g>
<!-- Node7&#45;&gt;Node6 -->
<g id="edge6" class="edge">
<title>Node7&#45;&gt;Node6</title>
<path fill="none" stroke="#63b8ff" d="M74.5,-318.93C74.5,-310.53 74.5,-301.13 74.5,-294.44"/>
<polygon fill="#63b8ff" stroke="#63b8ff" points="71,-318.75 74.5,-328.75 78,-318.75 71,-318.75"/>
</g>
<!-- Node8 -->
<g id="node8" class="node">
<title>Node8</title>
<g id="a_node8"><a xlink:href="interfaceBaseInfoDisplay.html" target="_top" xlink:title=" ">
<polygon fill="white" stroke="#666666" points="117.5,-404 31.5,-404 31.5,-385 117.5,-385 117.5,-404"/>
<text text-anchor="middle" x="74.5" y="-392" font-family="Helvetica,sans-Serif" font-size="10.00">BaseInfoDisplay</text>
</a>
</g>
</g>
<!-- Node8&#45;&gt;Node7 -->
<g id="edge7" class="edge">
<title>Node8&#45;&gt;Node7</title>
<path fill="none" stroke="#63b8ff" d="M74.5,-373.93C74.5,-365.53 74.5,-356.13 74.5,-349.44"/>
<polygon fill="#63b8ff" stroke="#63b8ff" points="71,-373.75 74.5,-383.75 78,-373.75 71,-373.75"/>
</g>
<!-- Node9 -->
<g id="node9" class="node">
<title>Node9</title>
<g id="a_node9"><a xlink:title=" ">
<polygon fill="white" stroke="#666666" points="117.5,-459 31.5,-459 31.5,-440 117.5,-440 117.5,-459"/>
<text text-anchor="middle" x="74.5" y="-447" font-family="Helvetica,sans-Serif" font-size="10.00">ScriptAndConfig</text>
</a>
</g>
</g>
<!-- Node9&#45;&gt;Node8 -->
<g id="edge8" class="edge">
<title>Node9&#45;&gt;Node8</title>
<path fill="none" stroke="#63b8ff" d="M74.5,-428.93C74.5,-420.53 74.5,-411.13 74.5,-404.44"/>
<polygon fill="#63b8ff" stroke="#63b8ff" points="71,-428.75 74.5,-438.75 78,-428.75 71,-428.75"/>
</g>
</g>
</svg>
