<?xml version="1.0" encoding="UTF-8" standalone="no"?>
<!DOCTYPE svg PUBLIC "-//W3C//DTD SVG 1.1//EN"
 "http://www.w3.org/Graphics/SVG/1.1/DTD/svg11.dtd">
<!-- Generated by graphviz version 8.0.2 (20230410.1723)
 -->
<!-- Title: SCR_TimedWaypoint Pages: 1 -->
<svg width="264pt" height="192pt"
 viewBox="0.00 0.00 264.00 192.00" xmlns="http://www.w3.org/2000/svg" xmlns:xlink="http://www.w3.org/1999/xlink">
<g id="graph0" class="graph" transform="scale(1 1) rotate(0) translate(4 188)">
<title>SCR_TimedWaypoint</title>
<!-- Node1 -->
<g id="node1" class="node">
<title>Node1</title>
<g id="a_node1"><a xlink:title=" ">
<polygon fill="#999999" stroke="#666666" points="179.5,-74 69.5,-74 69.5,-55 179.5,-55 179.5,-74"/>
<text text-anchor="middle" x="124.5" y="-62" font-family="Helvetica,sans-Serif" font-size="10.00">SCR_TimedWaypoint</text>
</a>
</g>
</g>
<!-- Node4 -->
<g id="node4" class="node">
<title>Node4</title>
<g id="a_node4"><a xlink:href="interfaceSCR__DefendWaypoint.html" target="_top" xlink:title=" ">
<polygon fill="white" stroke="#666666" points="113,-19 0,-19 0,0 113,0 113,-19"/>
<text text-anchor="middle" x="56.5" y="-7" font-family="Helvetica,sans-Serif" font-size="10.00">SCR_DefendWaypoint</text>
</a>
</g>
</g>
<!-- Node1&#45;&gt;Node4 -->
<g id="edge3" class="edge">
<title>Node1&#45;&gt;Node4</title>
<path fill="none" stroke="#63b8ff" d="M104.5,-47.92C92.57,-38.61 77.84,-27.13 67.86,-19.36"/>
<polygon fill="#63b8ff" stroke="#63b8ff" points="101.93,-51.12 111.96,-54.51 106.23,-45.6 101.93,-51.12"/>
</g>
<!-- Node5 -->
<g id="node5" class="node">
<title>Node5</title>
<g id="a_node5"><a xlink:href="interfaceSCR__SuppressWaypoint.html" target="_top" xlink:title=" ">
<polygon fill="white" stroke="#666666" points="256,-19 131,-19 131,0 256,0 256,-19"/>
<text text-anchor="middle" x="193.5" y="-7" font-family="Helvetica,sans-Serif" font-size="10.00">SCR_SuppressWaypoint</text>
</a>
</g>
</g>
<!-- Node1&#45;&gt;Node5 -->
<g id="edge4" class="edge">
<title>Node1&#45;&gt;Node5</title>
<path fill="none" stroke="#63b8ff" d="M144.79,-47.92C156.9,-38.61 171.85,-27.13 181.97,-19.36"/>
<polygon fill="#63b8ff" stroke="#63b8ff" points="143,-45.64 137.2,-54.51 147.27,-51.19 143,-45.64"/>
</g>
<!-- Node2 -->
<g id="node2" class="node">
<title>Node2</title>
<g id="a_node2"><a xlink:href="interfaceSCR__AIWaypoint.html" target="_top" xlink:title=" ">
<polygon fill="white" stroke="#666666" points="170.5,-129 78.5,-129 78.5,-110 170.5,-110 170.5,-129"/>
<text text-anchor="middle" x="124.5" y="-117" font-family="Helvetica,sans-Serif" font-size="10.00">SCR_AIWaypoint</text>
</a>
</g>
</g>
<!-- Node2&#45;&gt;Node1 -->
<g id="edge1" class="edge">
<title>Node2&#45;&gt;Node1</title>
<path fill="none" stroke="#63b8ff" d="M124.5,-98.93C124.5,-90.53 124.5,-81.13 124.5,-74.44"/>
<polygon fill="#63b8ff" stroke="#63b8ff" points="121,-98.75 124.5,-108.75 128,-98.75 121,-98.75"/>
</g>
<!-- Node3 -->
<g id="node3" class="node">
<title>Node3</title>
<g id="a_node3"><a xlink:title=" ">
<polygon fill="white" stroke="#666666" points="158,-184 91,-184 91,-165 158,-165 158,-184"/>
<text text-anchor="middle" x="124.5" y="-172" font-family="Helvetica,sans-Serif" font-size="10.00">AIWaypoint</text>
</a>
</g>
</g>
<!-- Node3&#45;&gt;Node2 -->
<g id="edge2" class="edge">
<title>Node3&#45;&gt;Node2</title>
<path fill="none" stroke="#63b8ff" d="M124.5,-153.93C124.5,-145.53 124.5,-136.13 124.5,-129.44"/>
<polygon fill="#63b8ff" stroke="#63b8ff" points="121,-153.75 124.5,-163.75 128,-153.75 121,-153.75"/>
</g>
</g>
</svg>
