<?xml version="1.0" encoding="UTF-8" standalone="no"?>
<!DOCTYPE svg PUBLIC "-//W3C//DTD SVG 1.1//EN"
 "http://www.w3.org/Graphics/SVG/1.1/DTD/svg11.dtd">
<!-- Generated by graphviz version 8.0.2 (20230410.1723)
 -->
<!-- Title: SCR_DestructionDamageManagerComponentClass Pages: 1 -->
<svg width="346pt" height="467pt"
 viewBox="0.00 0.00 346.00 467.00" xmlns="http://www.w3.org/2000/svg" xmlns:xlink="http://www.w3.org/1999/xlink">
<g id="graph0" class="graph" transform="scale(1 1) rotate(0) translate(4 463)">
<title>SCR_DestructionDamageManagerComponentClass</title>
<!-- Node1 -->
<g id="node1" class="node">
<title>Node1</title>
<g id="a_node1"><a xlink:title=" ">
<polygon fill="#999999" stroke="#666666" points="255,-162 90,-162 90,-132 255,-132 255,-162"/>
<text text-anchor="start" x="98" y="-150" font-family="Helvetica,sans-Serif" font-size="10.00">SCR_DestructionDamageManager</text>
<text text-anchor="middle" x="172.5" y="-139" font-family="Helvetica,sans-Serif" font-size="10.00">ComponentClass</text>
</a>
</g>
</g>
<!-- Node7 -->
<g id="node7" class="node">
<title>Node7</title>
<g id="a_node7"><a xlink:href="interfaceSCR__DestructionFractalComponentClass.html" target="_top" xlink:title=" ">
<polygon fill="white" stroke="#666666" points="171,-96 0,-96 0,-66 171,-66 171,-96"/>
<text text-anchor="start" x="8" y="-84" font-family="Helvetica,sans-Serif" font-size="10.00">SCR_DestructionFractalComponent</text>
<text text-anchor="middle" x="85.5" y="-73" font-family="Helvetica,sans-Serif" font-size="10.00">Class</text>
</a>
</g>
</g>
<!-- Node1&#45;&gt;Node7 -->
<g id="edge6" class="edge">
<title>Node1&#45;&gt;Node7</title>
<path fill="none" stroke="#63b8ff" d="M144.66,-125.52C131.76,-116.03 116.74,-104.98 105.05,-96.39"/>
<polygon fill="#63b8ff" stroke="#63b8ff" points="142.06,-128.69 152.19,-131.8 146.21,-123.05 142.06,-128.69"/>
</g>
<!-- Node8 -->
<g id="node8" class="node">
<title>Node8</title>
<g id="a_node8"><a xlink:href="interfaceSCR__DestructionMultiPhaseComponentClass.html" target="_top" xlink:title=" ">
<polygon fill="white" stroke="#666666" points="329.5,-96 189.5,-96 189.5,-66 329.5,-66 329.5,-96"/>
<text text-anchor="start" x="197.5" y="-84" font-family="Helvetica,sans-Serif" font-size="10.00">SCR_DestructionMultiPhase</text>
<text text-anchor="middle" x="259.5" y="-73" font-family="Helvetica,sans-Serif" font-size="10.00">ComponentClass</text>
</a>
</g>
</g>
<!-- Node1&#45;&gt;Node8 -->
<g id="edge7" class="edge">
<title>Node1&#45;&gt;Node8</title>
<path fill="none" stroke="#63b8ff" d="M200.34,-125.52C213.24,-116.03 228.26,-104.98 239.95,-96.39"/>
<polygon fill="#63b8ff" stroke="#63b8ff" points="198.79,-123.05 192.81,-131.8 202.94,-128.69 198.79,-123.05"/>
</g>
<!-- Node2 -->
<g id="node2" class="node">
<title>Node2</title>
<g id="a_node2"><a xlink:href="interfaceSCR__DamageManagerComponentClass.html" target="_top" xlink:title=" ">
<polygon fill="white" stroke="#666666" points="255,-228 90,-228 90,-198 255,-198 255,-228"/>
<text text-anchor="start" x="98" y="-216" font-family="Helvetica,sans-Serif" font-size="10.00">SCR_DamageManagerComponent</text>
<text text-anchor="middle" x="172.5" y="-205" font-family="Helvetica,sans-Serif" font-size="10.00">Class</text>
</a>
</g>
</g>
<!-- Node2&#45;&gt;Node1 -->
<g id="edge1" class="edge">
<title>Node2&#45;&gt;Node1</title>
<path fill="none" stroke="#63b8ff" d="M172.5,-186.97C172.5,-178.55 172.5,-169.45 172.5,-162.16"/>
<polygon fill="#63b8ff" stroke="#63b8ff" points="169,-186.8 172.5,-196.8 176,-186.8 169,-186.8"/>
</g>
<!-- Node3 -->
<g id="node3" class="node">
<title>Node3</title>
<g id="a_node3"><a xlink:href="interfaceDamageManagerComponentClass.html" target="_top" xlink:title=" ">
<polygon fill="white" stroke="#666666" points="254.5,-283 90.5,-283 90.5,-264 254.5,-264 254.5,-283"/>
<text text-anchor="middle" x="172.5" y="-271" font-family="Helvetica,sans-Serif" font-size="10.00">DamageManagerComponentClass</text>
</a>
</g>
</g>
<!-- Node3&#45;&gt;Node2 -->
<g id="edge2" class="edge">
<title>Node3&#45;&gt;Node2</title>
<path fill="none" stroke="#63b8ff" d="M172.5,-253.08C172.5,-244.92 172.5,-235.6 172.5,-228.11"/>
<polygon fill="#63b8ff" stroke="#63b8ff" points="169,-252.87 172.5,-262.87 176,-252.87 169,-252.87"/>
</g>
<!-- Node4 -->
<g id="node4" class="node">
<title>Node4</title>
<g id="a_node4"><a xlink:href="interfaceHitZoneContainerComponentClass.html" target="_top" xlink:title=" ">
<polygon fill="white" stroke="#666666" points="242.5,-349 102.5,-349 102.5,-319 242.5,-319 242.5,-349"/>
<text text-anchor="start" x="110.5" y="-337" font-family="Helvetica,sans-Serif" font-size="10.00">HitZoneContainerComponent</text>
<text text-anchor="middle" x="172.5" y="-326" font-family="Helvetica,sans-Serif" font-size="10.00">Class</text>
</a>
</g>
</g>
<!-- Node4&#45;&gt;Node3 -->
<g id="edge3" class="edge">
<title>Node4&#45;&gt;Node3</title>
<path fill="none" stroke="#63b8ff" d="M172.5,-307.59C172.5,-298.85 172.5,-289.65 172.5,-283.18"/>
<polygon fill="#63b8ff" stroke="#63b8ff" points="169,-307.54 172.5,-317.54 176,-307.54 169,-307.54"/>
</g>
<!-- Node5 -->
<g id="node5" class="node">
<title>Node5</title>
<g id="a_node5"><a xlink:href="interfaceGameComponentClass.html" target="_top" xlink:title=" ">
<polygon fill="white" stroke="#666666" points="231,-404 114,-404 114,-385 231,-385 231,-404"/>
<text text-anchor="middle" x="172.5" y="-392" font-family="Helvetica,sans-Serif" font-size="10.00">GameComponentClass</text>
</a>
</g>
</g>
<!-- Node5&#45;&gt;Node4 -->
<g id="edge4" class="edge">
<title>Node5&#45;&gt;Node4</title>
<path fill="none" stroke="#63b8ff" d="M172.5,-374.08C172.5,-365.92 172.5,-356.6 172.5,-349.11"/>
<polygon fill="#63b8ff" stroke="#63b8ff" points="169,-373.87 172.5,-383.87 176,-373.87 169,-373.87"/>
</g>
<!-- Node6 -->
<g id="node6" class="node">
<title>Node6</title>
<g id="a_node6"><a xlink:title=" ">
<polygon fill="white" stroke="#666666" points="235,-459 110,-459 110,-440 235,-440 235,-459"/>
<text text-anchor="middle" x="172.5" y="-447" font-family="Helvetica,sans-Serif" font-size="10.00">GenericComponentClass</text>
</a>
</g>
</g>
<!-- Node6&#45;&gt;Node5 -->
<g id="edge5" class="edge">
<title>Node6&#45;&gt;Node5</title>
<path fill="none" stroke="#63b8ff" d="M172.5,-428.93C172.5,-420.53 172.5,-411.13 172.5,-404.44"/>
<polygon fill="#63b8ff" stroke="#63b8ff" points="169,-428.75 172.5,-438.75 176,-428.75 169,-428.75"/>
</g>
<!-- Node9 -->
<g id="node9" class="node">
<title>Node9</title>
<g id="a_node9"><a xlink:href="interfaceSCR__DestructionTireComponentClass.html" target="_top" xlink:title=" ">
<polygon fill="white" stroke="#666666" points="338,-30 181,-30 181,0 338,0 338,-30"/>
<text text-anchor="start" x="189" y="-18" font-family="Helvetica,sans-Serif" font-size="10.00">SCR_DestructionTireComponent</text>
<text text-anchor="middle" x="259.5" y="-7" font-family="Helvetica,sans-Serif" font-size="10.00">Class</text>
</a>
</g>
</g>
<!-- Node8&#45;&gt;Node9 -->
<g id="edge8" class="edge">
<title>Node8&#45;&gt;Node9</title>
<path fill="none" stroke="#63b8ff" d="M259.5,-54.97C259.5,-46.55 259.5,-37.45 259.5,-30.16"/>
<polygon fill="#63b8ff" stroke="#63b8ff" points="256,-54.8 259.5,-64.8 263,-54.8 256,-54.8"/>
</g>
</g>
</svg>
