<?xml version="1.0" encoding="UTF-8" standalone="no"?>
<!DOCTYPE svg PUBLIC "-//W3C//DTD SVG 1.1//EN"
 "http://www.w3.org/Graphics/SVG/1.1/DTD/svg11.dtd">
<!-- Generated by graphviz version 8.0.2 (20230410.1723)
 -->
<!-- Title: SCR_SearchXOBFunctor Pages: 1 -->
<svg width="342pt" height="150pt"
 viewBox="0.00 0.00 342.00 149.50" xmlns="http://www.w3.org/2000/svg" xmlns:xlink="http://www.w3.org/1999/xlink">
<g id="graph0" class="graph" transform="scale(1 1) rotate(0) translate(4 145.5)">
<title>SCR_SearchXOBFunctor</title>
<!-- Node1 -->
<g id="node1" class="node">
<title>Node1</title>
<g id="a_node1"><a xlink:title=" ">
<polygon fill="#999999" stroke="#666666" points="125,-74 0,-74 0,-55 125,-55 125,-74"/>
<text text-anchor="middle" x="62.5" y="-62" font-family="Helvetica,sans-Serif" font-size="10.00">SCR_SearchXOBFunctor</text>
</a>
</g>
</g>
<!-- Node2 -->
<g id="node2" class="node">
<title>Node2</title>
<g id="a_node2"><a xlink:href="interfaceSCR__SearchXOBInvalidMaskFunctor.html" target="_top" xlink:title=" ">
<polygon fill="white" stroke="#666666" points="319,-141.5 176,-141.5 176,-111.5 319,-111.5 319,-141.5"/>
<text text-anchor="start" x="184" y="-129.5" font-family="Helvetica,sans-Serif" font-size="10.00">SCR_SearchXOBInvalidMask</text>
<text text-anchor="middle" x="247.5" y="-118.5" font-family="Helvetica,sans-Serif" font-size="10.00">Functor</text>
</a>
</g>
</g>
<!-- Node1&#45;&gt;Node2 -->
<g id="edge1" class="edge">
<title>Node1&#45;&gt;Node2</title>
<path fill="none" stroke="#63b8ff" d="M96.98,-78.49C115.66,-86.05 139.44,-95.29 161,-102.5 169.92,-105.48 179.44,-108.41 188.78,-111.13"/>
<polygon fill="#63b8ff" stroke="#63b8ff" points="98.49,-74.91 87.91,-74.37 95.84,-81.39 98.49,-74.91"/>
</g>
<!-- Node3 -->
<g id="node3" class="node">
<title>Node3</title>
<g id="a_node3"><a xlink:href="interfaceSCR__SearchXOBLayerMaskFunctor.html" target="_top" xlink:title=" ">
<polygon fill="white" stroke="#666666" points="334,-93 161,-93 161,-74 334,-74 334,-93"/>
<text text-anchor="middle" x="247.5" y="-81" font-family="Helvetica,sans-Serif" font-size="10.00">SCR_SearchXOBLayerMaskFunctor</text>
</a>
</g>
</g>
<!-- Node1&#45;&gt;Node3 -->
<g id="edge2" class="edge">
<title>Node1&#45;&gt;Node3</title>
<path fill="none" stroke="#63b8ff" d="M136.22,-72.05C144.23,-72.88 152.44,-73.73 160.58,-74.58"/>
<polygon fill="#63b8ff" stroke="#63b8ff" points="136.76,-68.48 126.46,-70.93 136.04,-75.45 136.76,-68.48"/>
</g>
<!-- Node4 -->
<g id="node4" class="node">
<title>Node4</title>
<g id="a_node4"><a xlink:href="interfaceSCR__SearchXOBListAllFunctor.html" target="_top" xlink:title=" ">
<polygon fill="white" stroke="#666666" points="323.5,-56 171.5,-56 171.5,-37 323.5,-37 323.5,-56"/>
<text text-anchor="middle" x="247.5" y="-44" font-family="Helvetica,sans-Serif" font-size="10.00">SCR_SearchXOBListAllFunctor</text>
</a>
</g>
</g>
<!-- Node1&#45;&gt;Node4 -->
<g id="edge3" class="edge">
<title>Node1&#45;&gt;Node4</title>
<path fill="none" stroke="#63b8ff" d="M136.33,-57.34C147.83,-56.21 159.74,-55.03 171.29,-53.9"/>
<polygon fill="#63b8ff" stroke="#63b8ff" points="136.06,-53.94 126.46,-58.41 136.75,-60.91 136.06,-53.94"/>
</g>
<!-- Node5 -->
<g id="node5" class="node">
<title>Node5</title>
<g id="a_node5"><a xlink:href="interfaceSCR__SearchXOBLoadAllFunctor.html" target="_top" xlink:title=" ">
<polygon fill="white" stroke="#666666" points="326.5,-19 168.5,-19 168.5,0 326.5,0 326.5,-19"/>
<text text-anchor="middle" x="247.5" y="-7" font-family="Helvetica,sans-Serif" font-size="10.00">SCR_SearchXOBLoadAllFunctor</text>
</a>
</g>
</g>
<!-- Node1&#45;&gt;Node5 -->
<g id="edge4" class="edge">
<title>Node1&#45;&gt;Node5</title>
<path fill="none" stroke="#63b8ff" d="M97.66,-50.6C116.2,-43.38 139.63,-34.79 161,-28.5 172.38,-25.15 184.76,-22.08 196.48,-19.43"/>
<polygon fill="#63b8ff" stroke="#63b8ff" points="96.66,-47.63 88.64,-54.55 99.22,-54.14 96.66,-47.63"/>
</g>
</g>
</svg>
