<?xml version="1.0" encoding="UTF-8" standalone="no"?>
<!DOCTYPE svg PUBLIC "-//W3C//DTD SVG 1.1//EN"
 "http://www.w3.org/Graphics/SVG/1.1/DTD/svg11.dtd">
<!-- Generated by graphviz version 8.0.2 (20230410.1723)
 -->
<!-- Title: HUDManagerComponentClass Pages: 1 -->
<svg width="182pt" height="302pt"
 viewBox="0.00 0.00 182.00 302.00" xmlns="http://www.w3.org/2000/svg" xmlns:xlink="http://www.w3.org/1999/xlink">
<g id="graph0" class="graph" transform="scale(1 1) rotate(0) translate(4 298)">
<title>HUDManagerComponentClass</title>
<!-- Node1 -->
<g id="node1" class="node">
<title>Node1</title>
<g id="a_node1"><a xlink:title=" ">
<polygon fill="#999999" stroke="#666666" points="161.5,-74 12.5,-74 12.5,-55 161.5,-55 161.5,-74"/>
<text text-anchor="middle" x="87" y="-62" font-family="Helvetica,sans-Serif" font-size="10.00">HUDManagerComponentClass</text>
</a>
</g>
</g>
<!-- Node6 -->
<g id="node6" class="node">
<title>Node6</title>
<g id="a_node6"><a xlink:href="interfaceSCR__HUDManagerComponentClass.html" target="_top" xlink:title=" ">
<polygon fill="white" stroke="#666666" points="174,-19 0,-19 0,0 174,0 174,-19"/>
<text text-anchor="middle" x="87" y="-7" font-family="Helvetica,sans-Serif" font-size="10.00">SCR_HUDManagerComponentClass</text>
</a>
</g>
</g>
<!-- Node1&#45;&gt;Node6 -->
<g id="edge5" class="edge">
<title>Node1&#45;&gt;Node6</title>
<path fill="none" stroke="#63b8ff" d="M87,-43.93C87,-35.53 87,-26.13 87,-19.44"/>
<polygon fill="#63b8ff" stroke="#63b8ff" points="83.5,-43.75 87,-53.75 90.5,-43.75 83.5,-43.75"/>
</g>
<!-- Node2 -->
<g id="node2" class="node">
<title>Node2</title>
<g id="a_node2"><a xlink:href="interfaceSCR__BaseHUDComponentClass.html" target="_top" xlink:title=" ">
<polygon fill="white" stroke="#666666" points="166.5,-129 7.5,-129 7.5,-110 166.5,-110 166.5,-129"/>
<text text-anchor="middle" x="87" y="-117" font-family="Helvetica,sans-Serif" font-size="10.00">SCR_BaseHUDComponentClass</text>
</a>
</g>
</g>
<!-- Node2&#45;&gt;Node1 -->
<g id="edge1" class="edge">
<title>Node2&#45;&gt;Node1</title>
<path fill="none" stroke="#63b8ff" d="M87,-98.93C87,-90.53 87,-81.13 87,-74.44"/>
<polygon fill="#63b8ff" stroke="#63b8ff" points="83.5,-98.75 87,-108.75 90.5,-98.75 83.5,-98.75"/>
</g>
<!-- Node3 -->
<g id="node3" class="node">
<title>Node3</title>
<g id="a_node3"><a xlink:href="interfaceBaseHUDComponentClass.html" target="_top" xlink:title=" ">
<polygon fill="white" stroke="#666666" points="154,-184 20,-184 20,-165 154,-165 154,-184"/>
<text text-anchor="middle" x="87" y="-172" font-family="Helvetica,sans-Serif" font-size="10.00">BaseHUDComponentClass</text>
</a>
</g>
</g>
<!-- Node3&#45;&gt;Node2 -->
<g id="edge2" class="edge">
<title>Node3&#45;&gt;Node2</title>
<path fill="none" stroke="#63b8ff" d="M87,-153.93C87,-145.53 87,-136.13 87,-129.44"/>
<polygon fill="#63b8ff" stroke="#63b8ff" points="83.5,-153.75 87,-163.75 90.5,-153.75 83.5,-153.75"/>
</g>
<!-- Node4 -->
<g id="node4" class="node">
<title>Node4</title>
<g id="a_node4"><a xlink:href="interfaceGameComponentClass.html" target="_top" xlink:title=" ">
<polygon fill="white" stroke="#666666" points="145.5,-239 28.5,-239 28.5,-220 145.5,-220 145.5,-239"/>
<text text-anchor="middle" x="87" y="-227" font-family="Helvetica,sans-Serif" font-size="10.00">GameComponentClass</text>
</a>
</g>
</g>
<!-- Node4&#45;&gt;Node3 -->
<g id="edge3" class="edge">
<title>Node4&#45;&gt;Node3</title>
<path fill="none" stroke="#63b8ff" d="M87,-208.93C87,-200.53 87,-191.13 87,-184.44"/>
<polygon fill="#63b8ff" stroke="#63b8ff" points="83.5,-208.75 87,-218.75 90.5,-208.75 83.5,-208.75"/>
</g>
<!-- Node5 -->
<g id="node5" class="node">
<title>Node5</title>
<g id="a_node5"><a xlink:title=" ">
<polygon fill="white" stroke="#666666" points="149.5,-294 24.5,-294 24.5,-275 149.5,-275 149.5,-294"/>
<text text-anchor="middle" x="87" y="-282" font-family="Helvetica,sans-Serif" font-size="10.00">GenericComponentClass</text>
</a>
</g>
</g>
<!-- Node5&#45;&gt;Node4 -->
<g id="edge4" class="edge">
<title>Node5&#45;&gt;Node4</title>
<path fill="none" stroke="#63b8ff" d="M87,-263.93C87,-255.53 87,-246.13 87,-239.44"/>
<polygon fill="#63b8ff" stroke="#63b8ff" points="83.5,-263.75 87,-273.75 90.5,-263.75 83.5,-263.75"/>
</g>
</g>
</svg>
