<?xml version="1.0" encoding="UTF-8" standalone="no"?>
<!DOCTYPE svg PUBLIC "-//W3C//DTD SVG 1.1//EN"
 "http://www.w3.org/Graphics/SVG/1.1/DTD/svg11.dtd">
<!-- Generated by graphviz version 8.0.2 (20230410.1723)
 -->
<!-- Title: SCR_RemoveEquippedWeapon Pages: 1 -->
<svg width="161pt" height="203pt"
 viewBox="0.00 0.00 161.00 203.00" xmlns="http://www.w3.org/2000/svg" xmlns:xlink="http://www.w3.org/1999/xlink">
<g id="graph0" class="graph" transform="scale(1 1) rotate(0) translate(4 199)">
<title>SCR_RemoveEquippedWeapon</title>
<!-- Node1 -->
<g id="node1" class="node">
<title>Node1</title>
<g id="a_node1"><a xlink:title=" ">
<polygon fill="#999999" stroke="#666666" points="153,-19 0,-19 0,0 153,0 153,-19"/>
<text text-anchor="middle" x="76.5" y="-7" font-family="Helvetica,sans-Serif" font-size="10.00">SCR_RemoveEquippedWeapon</text>
</a>
</g>
</g>
<!-- Node2 -->
<g id="node2" class="node">
<title>Node2</title>
<g id="a_node2"><a xlink:href="interfaceScriptedInventoryOperationCallback.html" target="_top" xlink:title=" ">
<polygon fill="white" stroke="#666666" points="143,-85 10,-85 10,-55 143,-55 143,-85"/>
<text text-anchor="start" x="18" y="-73" font-family="Helvetica,sans-Serif" font-size="10.00">ScriptedInventoryOperation</text>
<text text-anchor="middle" x="76.5" y="-62" font-family="Helvetica,sans-Serif" font-size="10.00">Callback</text>
</a>
</g>
</g>
<!-- Node2&#45;&gt;Node1 -->
<g id="edge1" class="edge">
<title>Node2&#45;&gt;Node1</title>
<path fill="none" stroke="#63b8ff" d="M76.5,-43.59C76.5,-34.85 76.5,-25.65 76.5,-19.18"/>
<polygon fill="#63b8ff" stroke="#63b8ff" points="73,-43.54 76.5,-53.54 80,-43.54 73,-43.54"/>
</g>
<!-- Node3 -->
<g id="node3" class="node">
<title>Node3</title>
<g id="a_node3"><a xlink:href="interfaceInventoryOperationCallback.html" target="_top" xlink:title=" ">
<polygon fill="white" stroke="#666666" points="143.5,-140 9.5,-140 9.5,-121 143.5,-121 143.5,-140"/>
<text text-anchor="middle" x="76.5" y="-128" font-family="Helvetica,sans-Serif" font-size="10.00">InventoryOperationCallback</text>
</a>
</g>
</g>
<!-- Node3&#45;&gt;Node2 -->
<g id="edge2" class="edge">
<title>Node3&#45;&gt;Node2</title>
<path fill="none" stroke="#63b8ff" d="M76.5,-110.08C76.5,-101.92 76.5,-92.6 76.5,-85.11"/>
<polygon fill="#63b8ff" stroke="#63b8ff" points="73,-109.87 76.5,-119.87 80,-109.87 73,-109.87"/>
</g>
<!-- Node4 -->
<g id="node4" class="node">
<title>Node4</title>
<g id="a_node4"><a xlink:title=" ">
<polygon fill="white" stroke="#666666" points="104.5,-195 48.5,-195 48.5,-176 104.5,-176 104.5,-195"/>
<text text-anchor="middle" x="76.5" y="-183" font-family="Helvetica,sans-Serif" font-size="10.00">Managed</text>
</a>
</g>
</g>
<!-- Node4&#45;&gt;Node3 -->
<g id="edge3" class="edge">
<title>Node4&#45;&gt;Node3</title>
<path fill="none" stroke="#63b8ff" d="M76.5,-164.93C76.5,-156.53 76.5,-147.13 76.5,-140.44"/>
<polygon fill="#63b8ff" stroke="#63b8ff" points="73,-164.75 76.5,-174.75 80,-164.75 73,-164.75"/>
</g>
</g>
</svg>
