<?xml version="1.0" encoding="UTF-8" standalone="no"?>
<!DOCTYPE svg PUBLIC "-//W3C//DTD SVG 1.1//EN"
 "http://www.w3.org/Graphics/SVG/1.1/DTD/svg11.dtd">
<!-- Generated by graphviz version 8.0.2 (20230410.1723)
 -->
<!-- Title: SCR_TimedEffect Pages: 1 -->
<svg width="452pt" height="137pt"
 viewBox="0.00 0.00 452.00 137.00" xmlns="http://www.w3.org/2000/svg" xmlns:xlink="http://www.w3.org/1999/xlink">
<g id="graph0" class="graph" transform="scale(1 1) rotate(0) translate(4 133)">
<title>SCR_TimedEffect</title>
<!-- Node1 -->
<g id="node1" class="node">
<title>Node1</title>
<g id="a_node1"><a xlink:title=" ">
<polygon fill="#999999" stroke="#666666" points="269.5,-74 176.5,-74 176.5,-55 269.5,-55 269.5,-74"/>
<text text-anchor="middle" x="223" y="-62" font-family="Helvetica,sans-Serif" font-size="10.00">SCR_TimedEffect</text>
</a>
</g>
</g>
<!-- Node3 -->
<g id="node3" class="node">
<title>Node3</title>
<g id="a_node3"><a xlink:href="interfaceSCR__TimedDebris.html" target="_top" xlink:title=" ">
<polygon fill="white" stroke="#666666" points="96,-19 0,-19 0,0 96,0 96,-19"/>
<text text-anchor="middle" x="48" y="-7" font-family="Helvetica,sans-Serif" font-size="10.00">SCR_TimedDebris</text>
</a>
</g>
</g>
<!-- Node1&#45;&gt;Node3 -->
<g id="edge2" class="edge">
<title>Node1&#45;&gt;Node3</title>
<path fill="none" stroke="#63b8ff" d="M182.93,-51.36C150.82,-41.64 106.49,-28.21 77.54,-19.45"/>
<polygon fill="#63b8ff" stroke="#63b8ff" points="181.73,-54.96 192.31,-54.51 183.76,-48.26 181.73,-54.96"/>
</g>
<!-- Node4 -->
<g id="node4" class="node">
<title>Node4</title>
<g id="a_node4"><a xlink:href="interfaceSCR__TimedParticle.html" target="_top" xlink:title=" ">
<polygon fill="white" stroke="#666666" points="215.5,-19 114.5,-19 114.5,0 215.5,0 215.5,-19"/>
<text text-anchor="middle" x="165" y="-7" font-family="Helvetica,sans-Serif" font-size="10.00">SCR_TimedParticle</text>
</a>
</g>
</g>
<!-- Node1&#45;&gt;Node4 -->
<g id="edge3" class="edge">
<title>Node1&#45;&gt;Node4</title>
<path fill="none" stroke="#63b8ff" d="M205.34,-47.37C195.27,-38.16 183.03,-26.98 174.69,-19.36"/>
<polygon fill="#63b8ff" stroke="#63b8ff" points="202.42,-49.35 212.16,-53.51 207.14,-44.18 202.42,-49.35"/>
</g>
<!-- Node5 -->
<g id="node5" class="node">
<title>Node5</title>
<g id="a_node5"><a xlink:href="interfaceSCR__TimedPrefab.html" target="_top" xlink:title=" ">
<polygon fill="white" stroke="#666666" points="330,-19 234,-19 234,0 330,0 330,-19"/>
<text text-anchor="middle" x="282" y="-7" font-family="Helvetica,sans-Serif" font-size="10.00">SCR_TimedPrefab</text>
</a>
</g>
</g>
<!-- Node1&#45;&gt;Node5 -->
<g id="edge4" class="edge">
<title>Node1&#45;&gt;Node5</title>
<path fill="none" stroke="#63b8ff" d="M240.96,-47.37C251.21,-38.16 263.66,-26.98 272.14,-19.36"/>
<polygon fill="#63b8ff" stroke="#63b8ff" points="239.11,-44.22 234.01,-53.51 243.79,-49.43 239.11,-44.22"/>
</g>
<!-- Node6 -->
<g id="node6" class="node">
<title>Node6</title>
<g id="a_node6"><a xlink:href="interfaceSCR__TimedSound.html" target="_top" xlink:title=" ">
<polygon fill="white" stroke="#666666" points="444,-19 348,-19 348,0 444,0 444,-19"/>
<text text-anchor="middle" x="396" y="-7" font-family="Helvetica,sans-Serif" font-size="10.00">SCR_TimedSound</text>
</a>
</g>
</g>
<!-- Node1&#45;&gt;Node6 -->
<g id="edge5" class="edge">
<title>Node1&#45;&gt;Node6</title>
<path fill="none" stroke="#63b8ff" d="M262.61,-51.36C294.36,-41.64 338.18,-28.21 366.8,-19.45"/>
<polygon fill="#63b8ff" stroke="#63b8ff" points="261.88,-48.23 253.35,-54.51 263.93,-54.93 261.88,-48.23"/>
</g>
<!-- Node2 -->
<g id="node2" class="node">
<title>Node2</title>
<g id="a_node2"><a xlink:title=" ">
<polygon fill="white" stroke="#666666" points="251,-129 195,-129 195,-110 251,-110 251,-129"/>
<text text-anchor="middle" x="223" y="-117" font-family="Helvetica,sans-Serif" font-size="10.00">Managed</text>
</a>
</g>
</g>
<!-- Node2&#45;&gt;Node1 -->
<g id="edge1" class="edge">
<title>Node2&#45;&gt;Node1</title>
<path fill="none" stroke="#63b8ff" d="M223,-98.93C223,-90.53 223,-81.13 223,-74.44"/>
<polygon fill="#63b8ff" stroke="#63b8ff" points="219.5,-98.75 223,-108.75 226.5,-98.75 219.5,-98.75"/>
</g>
</g>
</svg>
