<?xml version="1.0" encoding="UTF-8" standalone="no"?>
<!DOCTYPE svg PUBLIC "-//W3C//DTD SVG 1.1//EN"
 "http://www.w3.org/Graphics/SVG/1.1/DTD/svg11.dtd">
<!-- Generated by graphviz version 8.0.2 (20230410.1723)
 -->
<!-- Title: SCR_AIGetRetreatWhileLookAtBehaviorParameters Pages: 1 -->
<svg width="153pt" height="203pt"
 viewBox="0.00 0.00 153.00 203.00" xmlns="http://www.w3.org/2000/svg" xmlns:xlink="http://www.w3.org/1999/xlink">
<g id="graph0" class="graph" transform="scale(1 1) rotate(0) translate(4 199)">
<title>SCR_AIGetRetreatWhileLookAtBehaviorParameters</title>
<!-- Node1 -->
<g id="node1" class="node">
<title>Node1</title>
<g id="a_node1"><a xlink:title=" ">
<polygon fill="#999999" stroke="#666666" points="144.5,-30 0.5,-30 0.5,0 144.5,0 144.5,-30"/>
<text text-anchor="start" x="8.5" y="-18" font-family="Helvetica,sans-Serif" font-size="10.00">SCR_AIGetRetreatWhileLook</text>
<text text-anchor="middle" x="72.5" y="-7" font-family="Helvetica,sans-Serif" font-size="10.00">AtBehaviorParameters</text>
</a>
</g>
</g>
<!-- Node2 -->
<g id="node2" class="node">
<title>Node2</title>
<g id="a_node2"><a xlink:href="interfaceSCR__AIGetActionParameters.html" target="_top" xlink:title="Base class of node which outputs action parameters to Behavior Tree variables.">
<polygon fill="white" stroke="#666666" points="145,-85 0,-85 0,-66 145,-66 145,-85"/>
<text text-anchor="middle" x="72.5" y="-73" font-family="Helvetica,sans-Serif" font-size="10.00">SCR_AIGetActionParameters</text>
</a>
</g>
</g>
<!-- Node2&#45;&gt;Node1 -->
<g id="edge1" class="edge">
<title>Node2&#45;&gt;Node1</title>
<path fill="none" stroke="#63b8ff" d="M72.5,-55.08C72.5,-46.92 72.5,-37.6 72.5,-30.11"/>
<polygon fill="#63b8ff" stroke="#63b8ff" points="69,-54.87 72.5,-64.87 76,-54.87 69,-54.87"/>
</g>
<!-- Node3 -->
<g id="node3" class="node">
<title>Node3</title>
<g id="a_node3"><a xlink:href="interfaceSCR__AIActionTask.html" target="_top" xlink:title=" ">
<polygon fill="white" stroke="#666666" points="122.5,-140 22.5,-140 22.5,-121 122.5,-121 122.5,-140"/>
<text text-anchor="middle" x="72.5" y="-128" font-family="Helvetica,sans-Serif" font-size="10.00">SCR_AIActionTask</text>
</a>
</g>
</g>
<!-- Node3&#45;&gt;Node2 -->
<g id="edge2" class="edge">
<title>Node3&#45;&gt;Node2</title>
<path fill="none" stroke="#63b8ff" d="M72.5,-109.93C72.5,-101.53 72.5,-92.13 72.5,-85.44"/>
<polygon fill="#63b8ff" stroke="#63b8ff" points="69,-109.75 72.5,-119.75 76,-109.75 69,-109.75"/>
</g>
<!-- Node4 -->
<g id="node4" class="node">
<title>Node4</title>
<g id="a_node4"><a xlink:title=" ">
<polygon fill="white" stroke="#666666" points="114,-195 31,-195 31,-176 114,-176 114,-195"/>
<text text-anchor="middle" x="72.5" y="-183" font-family="Helvetica,sans-Serif" font-size="10.00">AITaskScripted</text>
</a>
</g>
</g>
<!-- Node4&#45;&gt;Node3 -->
<g id="edge3" class="edge">
<title>Node4&#45;&gt;Node3</title>
<path fill="none" stroke="#63b8ff" d="M72.5,-164.93C72.5,-156.53 72.5,-147.13 72.5,-140.44"/>
<polygon fill="#63b8ff" stroke="#63b8ff" points="69,-164.75 72.5,-174.75 76,-164.75 69,-164.75"/>
</g>
</g>
</svg>
