<?xml version="1.0" encoding="UTF-8" standalone="no"?>
<!DOCTYPE svg PUBLIC "-//W3C//DTD SVG 1.1//EN"
 "http://www.w3.org/Graphics/SVG/1.1/DTD/svg11.dtd">
<!-- Generated by graphviz version 8.0.2 (20230410.1723)
 -->
<!-- Title: SCR_BaseInventoryItemComponentClass Pages: 1 -->
<svg width="1061pt" height="86pt"
 viewBox="0.00 0.00 1061.00 86.00" xmlns="http://www.w3.org/2000/svg" xmlns:xlink="http://www.w3.org/1999/xlink">
<g id="graph0" class="graph" transform="scale(1 1) rotate(0) translate(4 82)">
<title>SCR_BaseInventoryItemComponentClass</title>
<!-- Node1 -->
<g id="node1" class="node">
<title>Node1</title>
<g id="a_node1"><a xlink:title=" ">
<polygon fill="#999999" stroke="#666666" points="669,-54 498,-54 498,-24 669,-24 669,-54"/>
<text text-anchor="start" x="506" y="-42" font-family="Helvetica,sans-Serif" font-size="10.00">SCR_BaseInventoryItemComponent</text>
<text text-anchor="middle" x="583.5" y="-31" font-family="Helvetica,sans-Serif" font-size="10.00">Class</text>
</a>
</g>
</g>
<!-- Node5 -->
<g id="node5" class="node">
<title>Node5</title>
<g id="a_node5"><a xlink:href="interfaceSCR__PlaceableInventoryItemComponentClass.html" target="_top" xlink:title=" ">
<polygon fill="white" stroke="#666666" points="847,-54 705,-54 705,-24 847,-24 847,-54"/>
<text text-anchor="start" x="713" y="-42" font-family="Helvetica,sans-Serif" font-size="10.00">SCR_PlaceableInventoryItem</text>
<text text-anchor="middle" x="776" y="-31" font-family="Helvetica,sans-Serif" font-size="10.00">ComponentClass</text>
</a>
</g>
</g>
<!-- Node1&#45;&gt;Node5 -->
<g id="edge4" class="edge">
<title>Node1&#45;&gt;Node5</title>
<path fill="none" stroke="#63b8ff" d="M680.27,-39C688.53,-39 696.77,-39 704.77,-39"/>
<polygon fill="#63b8ff" stroke="#63b8ff" points="680.44,-35.5 670.44,-39 680.44,-42.5 680.44,-35.5"/>
</g>
<!-- Node2 -->
<g id="node2" class="node">
<title>Node2</title>
<g id="a_node2"><a xlink:href="interfaceInventoryItemComponentClass.html" target="_top" xlink:title=" ">
<polygon fill="white" stroke="#666666" points="462,-48.5 314,-48.5 314,-29.5 462,-29.5 462,-48.5"/>
<text text-anchor="middle" x="388" y="-36.5" font-family="Helvetica,sans-Serif" font-size="10.00">InventoryItemComponentClass</text>
</a>
</g>
</g>
<!-- Node2&#45;&gt;Node1 -->
<g id="edge1" class="edge">
<title>Node2&#45;&gt;Node1</title>
<path fill="none" stroke="#63b8ff" d="M473.37,-39C481.46,-39 489.67,-39 497.77,-39"/>
<polygon fill="#63b8ff" stroke="#63b8ff" points="473.43,-35.5 463.43,-39 473.43,-42.5 473.43,-35.5"/>
</g>
<!-- Node3 -->
<g id="node3" class="node">
<title>Node3</title>
<g id="a_node3"><a xlink:href="interfaceGameComponentClass.html" target="_top" xlink:title=" ">
<polygon fill="white" stroke="#666666" points="278,-48.5 161,-48.5 161,-29.5 278,-29.5 278,-48.5"/>
<text text-anchor="middle" x="219.5" y="-36.5" font-family="Helvetica,sans-Serif" font-size="10.00">GameComponentClass</text>
</a>
</g>
</g>
<!-- Node3&#45;&gt;Node2 -->
<g id="edge2" class="edge">
<title>Node3&#45;&gt;Node2</title>
<path fill="none" stroke="#63b8ff" d="M289.19,-39C297.31,-39 305.61,-39 313.79,-39"/>
<polygon fill="#63b8ff" stroke="#63b8ff" points="289.27,-35.5 279.27,-39 289.27,-42.5 289.27,-35.5"/>
</g>
<!-- Node4 -->
<g id="node4" class="node">
<title>Node4</title>
<g id="a_node4"><a xlink:title=" ">
<polygon fill="white" stroke="#666666" points="125,-48.5 0,-48.5 0,-29.5 125,-29.5 125,-48.5"/>
<text text-anchor="middle" x="62.5" y="-36.5" font-family="Helvetica,sans-Serif" font-size="10.00">GenericComponentClass</text>
</a>
</g>
</g>
<!-- Node4&#45;&gt;Node3 -->
<g id="edge3" class="edge">
<title>Node4&#45;&gt;Node3</title>
<path fill="none" stroke="#63b8ff" d="M135.96,-39C144.2,-39 152.52,-39 160.53,-39"/>
<polygon fill="#63b8ff" stroke="#63b8ff" points="136.21,-35.5 126.21,-39 136.21,-42.5 136.21,-35.5"/>
</g>
<!-- Node6 -->
<g id="node6" class="node">
<title>Node6</title>
<g id="a_node6"><a xlink:href="interfaceSCR__ExplosiveChargeInventoryItemComponentClass.html" target="_top" xlink:title=" ">
<polygon fill="white" stroke="#666666" points="1044,-78 892,-78 892,-48 1044,-48 1044,-78"/>
<text text-anchor="start" x="900" y="-66" font-family="Helvetica,sans-Serif" font-size="10.00">SCR_ExplosiveChargeInventory</text>
<text text-anchor="middle" x="968" y="-55" font-family="Helvetica,sans-Serif" font-size="10.00">ItemComponentClass</text>
</a>
</g>
</g>
<!-- Node5&#45;&gt;Node6 -->
<g id="edge5" class="edge">
<title>Node5&#45;&gt;Node6</title>
<path fill="none" stroke="#63b8ff" d="M858.38,-49.28C869.38,-50.67 880.64,-52.09 891.54,-53.47"/>
<polygon fill="#63b8ff" stroke="#63b8ff" points="858.84,-45.68 848.48,-47.9 857.96,-52.63 858.84,-45.68"/>
</g>
<!-- Node7 -->
<g id="node7" class="node">
<title>Node7</title>
<g id="a_node7"><a xlink:href="interfaceSCR__MineInventoryItemComponentClass.html" target="_top" xlink:title=" ">
<polygon fill="white" stroke="#666666" points="1053,-30 883,-30 883,0 1053,0 1053,-30"/>
<text text-anchor="start" x="891" y="-18" font-family="Helvetica,sans-Serif" font-size="10.00">SCR_MineInventoryItemComponent</text>
<text text-anchor="middle" x="968" y="-7" font-family="Helvetica,sans-Serif" font-size="10.00">Class</text>
</a>
</g>
</g>
<!-- Node5&#45;&gt;Node7 -->
<g id="edge6" class="edge">
<title>Node5&#45;&gt;Node7</title>
<path fill="none" stroke="#63b8ff" d="M858.12,-28.75C866.3,-27.72 874.61,-26.67 882.82,-25.63"/>
<polygon fill="#63b8ff" stroke="#63b8ff" points="857.96,-25.37 848.48,-30.1 858.84,-32.32 857.96,-25.37"/>
</g>
</g>
</svg>
