<?xml version="1.0" encoding="UTF-8" standalone="no"?>
<!DOCTYPE svg PUBLIC "-//W3C//DTD SVG 1.1//EN"
 "http://www.w3.org/Graphics/SVG/1.1/DTD/svg11.dtd">
<!-- Generated by graphviz version 8.0.2 (20230410.1723)
 -->
<!-- Title: SCR_BaseEditorAttributeUIComponent Pages: 1 -->
<svg width="992pt" height="383pt"
 viewBox="0.00 0.00 992.00 383.00" xmlns="http://www.w3.org/2000/svg" xmlns:xlink="http://www.w3.org/1999/xlink">
<g id="graph0" class="graph" transform="scale(1 1) rotate(0) translate(4 379)">
<title>SCR_BaseEditorAttributeUIComponent</title>
<!-- Node1 -->
<g id="node1" class="node">
<title>Node1</title>
<g id="a_node1"><a xlink:title=" ">
<polygon fill="#999999" stroke="#666666" points="354,-192.5 169,-192.5 169,-173.5 354,-173.5 354,-192.5"/>
<text text-anchor="middle" x="261.5" y="-180.5" font-family="Helvetica,sans-Serif" font-size="10.00">SCR_BaseEditorAttributeUIComponent</text>
</a>
</g>
</g>
<!-- Node3 -->
<g id="node3" class="node">
<title>Node3</title>
<g id="a_node3"><a xlink:href="interfaceSCR__ButtonBoxAttributeUIComponent.html" target="_top" xlink:title=" ">
<polygon fill="white" stroke="#666666" points="573,-345.5 390,-345.5 390,-326.5 573,-326.5 573,-345.5"/>
<text text-anchor="middle" x="481.5" y="-333.5" font-family="Helvetica,sans-Serif" font-size="10.00">SCR_ButtonBoxAttributeUIComponent</text>
</a>
</g>
</g>
<!-- Node1&#45;&gt;Node3 -->
<g id="edge2" class="edge">
<title>Node1&#45;&gt;Node3</title>
<path fill="none" stroke="#63b8ff" d="M274.48,-201.49C294.6,-230.93 338.09,-288.06 390,-317 396.59,-320.67 403.81,-323.64 411.21,-326.03"/>
<polygon fill="#63b8ff" stroke="#63b8ff" points="277.04,-200.02 268.58,-193.65 271.22,-203.91 277.04,-200.02"/>
</g>
<!-- Node7 -->
<g id="node7" class="node">
<title>Node7</title>
<g id="a_node7"><a xlink:href="interfaceSCR__CheckboxEditorAttributeUIComponent.html" target="_top" xlink:title=" ">
<polygon fill="white" stroke="#666666" points="555.5,-308 407.5,-308 407.5,-278 555.5,-278 555.5,-308"/>
<text text-anchor="start" x="415.5" y="-296" font-family="Helvetica,sans-Serif" font-size="10.00">SCR_CheckboxEditorAttribute</text>
<text text-anchor="middle" x="481.5" y="-285" font-family="Helvetica,sans-Serif" font-size="10.00">UIComponent</text>
</a>
</g>
</g>
<!-- Node1&#45;&gt;Node7 -->
<g id="edge6" class="edge">
<title>Node1&#45;&gt;Node7</title>
<path fill="none" stroke="#63b8ff" d="M282.28,-199.46C306.33,-218.7 348.83,-250.3 390,-269 397.1,-272.23 404.73,-275.09 412.42,-277.6"/>
<polygon fill="#63b8ff" stroke="#63b8ff" points="284.97,-196.33 275,-192.74 280.56,-201.76 284.97,-196.33"/>
</g>
<!-- Node8 -->
<g id="node8" class="node">
<title>Node8</title>
<g id="a_node8"><a xlink:href="interfaceSCR__DateAttributeUIComponent.html" target="_top" xlink:title=" ">
<polygon fill="white" stroke="#666666" points="560.5,-259.5 402.5,-259.5 402.5,-240.5 560.5,-240.5 560.5,-259.5"/>
<text text-anchor="middle" x="481.5" y="-247.5" font-family="Helvetica,sans-Serif" font-size="10.00">SCR_DateAttributeUIComponent</text>
</a>
</g>
</g>
<!-- Node1&#45;&gt;Node8 -->
<g id="edge7" class="edge">
<title>Node1&#45;&gt;Node8</title>
<path fill="none" stroke="#63b8ff" d="M295.51,-197.02C320.98,-207.45 357.27,-221.46 390,-231 401.71,-234.41 414.45,-237.47 426.57,-240.09"/>
<polygon fill="#63b8ff" stroke="#63b8ff" points="297.21,-193.53 286.64,-192.94 294.54,-200 297.21,-193.53"/>
</g>
<!-- Node9 -->
<g id="node9" class="node">
<title>Node9</title>
<g id="a_node9"><a xlink:href="interfaceSCR__DropdownEditorAttributeUIComponent.html" target="_top" xlink:title=" ">
<polygon fill="white" stroke="#666666" points="555,-222 408,-222 408,-192 555,-192 555,-222"/>
<text text-anchor="start" x="416" y="-210" font-family="Helvetica,sans-Serif" font-size="10.00">SCR_DropdownEditorAttribute</text>
<text text-anchor="middle" x="481.5" y="-199" font-family="Helvetica,sans-Serif" font-size="10.00">UIComponent</text>
</a>
</g>
</g>
<!-- Node1&#45;&gt;Node9 -->
<g id="edge8" class="edge">
<title>Node1&#45;&gt;Node9</title>
<path fill="none" stroke="#63b8ff" d="M363.82,-194.15C378.66,-195.79 393.69,-197.44 407.81,-199"/>
<polygon fill="#63b8ff" stroke="#63b8ff" points="364.38,-190.59 354.06,-192.97 363.61,-197.54 364.38,-190.59"/>
</g>
<!-- Node12 -->
<g id="node12" class="node">
<title>Node12</title>
<g id="a_node12"><a xlink:href="interfaceSCR__OverrideEditorAttributeUIComponent.html" target="_top" xlink:title=" ">
<polygon fill="white" stroke="#666666" points="551.5,-174 411.5,-174 411.5,-144 551.5,-144 551.5,-174"/>
<text text-anchor="start" x="419.5" y="-162" font-family="Helvetica,sans-Serif" font-size="10.00">SCR_OverrideEditorAttribute</text>
<text text-anchor="middle" x="481.5" y="-151" font-family="Helvetica,sans-Serif" font-size="10.00">UIComponent</text>
</a>
</g>
</g>
<!-- Node1&#45;&gt;Node12 -->
<g id="edge11" class="edge">
<title>Node1&#45;&gt;Node12</title>
<path fill="none" stroke="#63b8ff" d="M363.59,-171.87C379.69,-170.1 396.02,-168.3 411.17,-166.63"/>
<polygon fill="#63b8ff" stroke="#63b8ff" points="363.61,-168.46 354.06,-173.03 364.38,-175.41 363.61,-168.46"/>
</g>
<!-- Node13 -->
<g id="node13" class="node">
<title>Node13</title>
<g id="a_node13"><a xlink:href="interfaceSCR__PositionEditorAttributeUIComponent.html" target="_top" xlink:title=" ">
<polygon fill="white" stroke="#666666" points="551.5,-126 411.5,-126 411.5,-96 551.5,-96 551.5,-126"/>
<text text-anchor="start" x="419.5" y="-114" font-family="Helvetica,sans-Serif" font-size="10.00">SCR_PositionEditorAttribute</text>
<text text-anchor="middle" x="481.5" y="-103" font-family="Helvetica,sans-Serif" font-size="10.00">UIComponent</text>
</a>
</g>
</g>
<!-- Node1&#45;&gt;Node13 -->
<g id="edge12" class="edge">
<title>Node1&#45;&gt;Node13</title>
<path fill="none" stroke="#63b8ff" d="M296.6,-169.09C322.09,-158.96 357.93,-145.26 390,-135 399.29,-132.03 409.2,-129.13 418.92,-126.44"/>
<polygon fill="#63b8ff" stroke="#63b8ff" points="295.67,-166.09 287.69,-173.06 298.27,-172.59 295.67,-166.09"/>
</g>
<!-- Node14 -->
<g id="node14" class="node">
<title>Node14</title>
<g id="a_node14"><a xlink:href="interfaceSCR__SliderEditorAttributeUIComponent.html" target="_top" xlink:title=" ">
<polygon fill="white" stroke="#666666" points="546,-78 417,-78 417,-48 546,-48 546,-78"/>
<text text-anchor="start" x="425" y="-66" font-family="Helvetica,sans-Serif" font-size="10.00">SCR_SliderEditorAttribute</text>
<text text-anchor="middle" x="481.5" y="-55" font-family="Helvetica,sans-Serif" font-size="10.00">UIComponent</text>
</a>
</g>
</g>
<!-- Node1&#45;&gt;Node14 -->
<g id="edge13" class="edge">
<title>Node1&#45;&gt;Node14</title>
<path fill="none" stroke="#63b8ff" d="M280.46,-165.84C303.86,-144.39 346.91,-107.94 390,-87 398.33,-82.95 407.44,-79.51 416.57,-76.62"/>
<polygon fill="#63b8ff" stroke="#63b8ff" points="278.42,-162.89 273.49,-172.27 283.19,-168.01 278.42,-162.89"/>
</g>
<!-- Node17 -->
<g id="node17" class="node">
<title>Node17</title>
<g id="a_node17"><a xlink:href="interfaceSCR__SpinboxEditorAttributeUIComponent.html" target="_top" xlink:title=" ">
<polygon fill="white" stroke="#666666" points="551.5,-30 411.5,-30 411.5,0 551.5,0 551.5,-30"/>
<text text-anchor="start" x="419.5" y="-18" font-family="Helvetica,sans-Serif" font-size="10.00">SCR_SpinboxEditorAttribute</text>
<text text-anchor="middle" x="481.5" y="-7" font-family="Helvetica,sans-Serif" font-size="10.00">UIComponent</text>
</a>
</g>
</g>
<!-- Node1&#45;&gt;Node17 -->
<g id="edge16" class="edge">
<title>Node1&#45;&gt;Node17</title>
<path fill="none" stroke="#63b8ff" d="M274.04,-163.89C293.8,-132.83 337.14,-71.6 390,-39 396.5,-34.99 403.67,-31.64 411.03,-28.85"/>
<polygon fill="#63b8ff" stroke="#63b8ff" points="270.57,-161.84 268.26,-172.18 276.51,-165.54 270.57,-161.84"/>
</g>
<!-- Node2 -->
<g id="node2" class="node">
<title>Node2</title>
<g id="a_node2"><a xlink:title=" ">
<polygon fill="white" stroke="#666666" points="133,-192.5 0,-192.5 0,-173.5 133,-173.5 133,-192.5"/>
<text text-anchor="middle" x="66.5" y="-180.5" font-family="Helvetica,sans-Serif" font-size="10.00">ScriptedWidgetComponent</text>
</a>
</g>
</g>
<!-- Node2&#45;&gt;Node1 -->
<g id="edge1" class="edge">
<title>Node2&#45;&gt;Node1</title>
<path fill="none" stroke="#63b8ff" d="M144.19,-183C152.22,-183 160.44,-183 168.62,-183"/>
<polygon fill="#63b8ff" stroke="#63b8ff" points="144.38,-179.5 134.38,-183 144.38,-186.5 144.38,-179.5"/>
</g>
<!-- Node4 -->
<g id="node4" class="node">
<title>Node4</title>
<g id="a_node4"><a xlink:href="interfaceSCR__ButtonBoxMultiSelectAttributeUIComponent.html" target="_top" xlink:title=" ">
<polygon fill="white" stroke="#666666" points="762.5,-375 625.5,-375 625.5,-345 762.5,-345 762.5,-375"/>
<text text-anchor="start" x="633.5" y="-363" font-family="Helvetica,sans-Serif" font-size="10.00">SCR_ButtonBoxMultiSelect</text>
<text text-anchor="middle" x="694" y="-352" font-family="Helvetica,sans-Serif" font-size="10.00">AttributeUIComponent</text>
</a>
</g>
</g>
<!-- Node3&#45;&gt;Node4 -->
<g id="edge3" class="edge">
<title>Node3&#45;&gt;Node4</title>
<path fill="none" stroke="#63b8ff" d="M580.8,-347.21C595.78,-348.92 610.95,-350.64 625.08,-352.26"/>
<polygon fill="#63b8ff" stroke="#63b8ff" points="581.27,-343.63 570.94,-345.97 580.48,-350.58 581.27,-343.63"/>
</g>
<!-- Node6 -->
<g id="node6" class="node">
<title>Node6</title>
<g id="a_node6"><a xlink:href="interfaceSCR__TimePresetsAttributeUIComponent.html" target="_top" xlink:title=" ">
<polygon fill="white" stroke="#666666" points="761,-327 627,-327 627,-297 761,-297 761,-327"/>
<text text-anchor="start" x="635" y="-315" font-family="Helvetica,sans-Serif" font-size="10.00">SCR_TimePresetsAttribute</text>
<text text-anchor="middle" x="694" y="-304" font-family="Helvetica,sans-Serif" font-size="10.00">UIComponent</text>
</a>
</g>
</g>
<!-- Node3&#45;&gt;Node6 -->
<g id="edge5" class="edge">
<title>Node3&#45;&gt;Node6</title>
<path fill="none" stroke="#63b8ff" d="M580.68,-324.81C596.27,-323.03 612.07,-321.23 626.69,-319.56"/>
<polygon fill="#63b8ff" stroke="#63b8ff" points="580.48,-321.42 570.94,-326.03 581.27,-328.37 580.48,-321.42"/>
</g>
<!-- Node5 -->
<g id="node5" class="node">
<title>Node5</title>
<g id="a_node5"><a xlink:href="interfaceSCR__OverrideModesEditorAttributeUIComponent.html" target="_top" xlink:title=" ">
<polygon fill="white" stroke="#666666" points="984,-375 815,-375 815,-345 984,-345 984,-375"/>
<text text-anchor="start" x="823" y="-363" font-family="Helvetica,sans-Serif" font-size="10.00">SCR_OverrideModesEditorAttribute</text>
<text text-anchor="middle" x="899.5" y="-352" font-family="Helvetica,sans-Serif" font-size="10.00">UIComponent</text>
</a>
</g>
</g>
<!-- Node4&#45;&gt;Node5 -->
<g id="edge4" class="edge">
<title>Node4&#45;&gt;Node5</title>
<path fill="none" stroke="#63b8ff" d="M773.46,-360C786.98,-360 801.08,-360 814.74,-360"/>
<polygon fill="#63b8ff" stroke="#63b8ff" points="773.76,-356.5 763.76,-360 773.76,-363.5 773.76,-356.5"/>
</g>
<!-- Node10 -->
<g id="node10" class="node">
<title>Node10</title>
<g id="a_node10"><a xlink:href="interfaceSCR__DropdownWithParamAttributeUIComponent.html" target="_top" xlink:title=" ">
<polygon fill="white" stroke="#666666" points="779,-246 609,-246 609,-216 779,-216 779,-246"/>
<text text-anchor="start" x="617" y="-234" font-family="Helvetica,sans-Serif" font-size="10.00">SCR_DropdownWithParamAttribute</text>
<text text-anchor="middle" x="694" y="-223" font-family="Helvetica,sans-Serif" font-size="10.00">UIComponent</text>
</a>
</g>
</g>
<!-- Node9&#45;&gt;Node10 -->
<g id="edge9" class="edge">
<title>Node9&#45;&gt;Node10</title>
<path fill="none" stroke="#63b8ff" d="M565.88,-216.51C579.96,-218.11 594.58,-219.78 608.69,-221.39"/>
<polygon fill="#63b8ff" stroke="#63b8ff" points="566.57,-212.95 556.24,-215.29 565.78,-219.9 566.57,-212.95"/>
</g>
<!-- Node11 -->
<g id="node11" class="node">
<title>Node11</title>
<g id="a_node11"><a xlink:href="interfaceSCR__GameOverTypeAttributeUIComponent.html" target="_top" xlink:title=" ">
<polygon fill="white" stroke="#666666" points="767,-198 621,-198 621,-168 767,-168 767,-198"/>
<text text-anchor="start" x="629" y="-186" font-family="Helvetica,sans-Serif" font-size="10.00">SCR_GameOverTypeAttribute</text>
<text text-anchor="middle" x="694" y="-175" font-family="Helvetica,sans-Serif" font-size="10.00">UIComponent</text>
</a>
</g>
</g>
<!-- Node9&#45;&gt;Node11 -->
<g id="edge10" class="edge">
<title>Node9&#45;&gt;Node11</title>
<path fill="none" stroke="#63b8ff" d="M566.04,-197.48C584.09,-195.42 603.03,-193.26 620.62,-191.25"/>
<polygon fill="#63b8ff" stroke="#63b8ff" points="565.78,-194.1 556.24,-198.71 566.57,-201.05 565.78,-194.1"/>
</g>
<!-- Node15 -->
<g id="node15" class="node">
<title>Node15</title>
<g id="a_node15"><a xlink:href="interfaceSCR__SliderBloodAttributeComponent.html" target="_top" xlink:title=" ">
<polygon fill="white" stroke="#666666" points="758,-102 630,-102 630,-72 758,-72 758,-102"/>
<text text-anchor="start" x="638" y="-90" font-family="Helvetica,sans-Serif" font-size="10.00">SCR_SliderBloodAttribute</text>
<text text-anchor="middle" x="694" y="-79" font-family="Helvetica,sans-Serif" font-size="10.00">Component</text>
</a>
</g>
</g>
<!-- Node14&#45;&gt;Node15 -->
<g id="edge14" class="edge">
<title>Node14&#45;&gt;Node15</title>
<path fill="none" stroke="#63b8ff" d="M556.99,-71.49C580.8,-74.21 606.92,-77.19 629.85,-79.8"/>
<polygon fill="#63b8ff" stroke="#63b8ff" points="557.56,-67.92 547.23,-70.27 556.77,-74.88 557.56,-67.92"/>
</g>
<!-- Node16 -->
<g id="node16" class="node">
<title>Node16</title>
<g id="a_node16"><a xlink:href="interfaceSCR__VectorSliderEditorAttributeUIComponent.html" target="_top" xlink:title=" ">
<polygon fill="white" stroke="#666666" points="773,-54 615,-54 615,-24 773,-24 773,-54"/>
<text text-anchor="start" x="623" y="-42" font-family="Helvetica,sans-Serif" font-size="10.00">SCR_VectorSliderEditorAttribute</text>
<text text-anchor="middle" x="694" y="-31" font-family="Helvetica,sans-Serif" font-size="10.00">UIComponent</text>
</a>
</g>
</g>
<!-- Node14&#45;&gt;Node16 -->
<g id="edge15" class="edge">
<title>Node14&#45;&gt;Node16</title>
<path fill="none" stroke="#63b8ff" d="M557.03,-54.5C575.69,-52.37 595.77,-50.09 614.61,-47.94"/>
<polygon fill="#63b8ff" stroke="#63b8ff" points="556.77,-51.12 547.23,-55.73 557.56,-58.08 556.77,-51.12"/>
</g>
</g>
</svg>
