<?xml version="1.0" encoding="UTF-8" standalone="no"?>
<!DOCTYPE svg PUBLIC "-//W3C//DTD SVG 1.1//EN"
 "http://www.w3.org/Graphics/SVG/1.1/DTD/svg11.dtd">
<!-- Generated by graphviz version 8.0.2 (20230410.1723)
 -->
<!-- Title: SCR_EquipmentStorageComponent Pages: 1 -->
<svg width="348pt" height="610pt"
 viewBox="0.00 0.00 348.00 610.00" xmlns="http://www.w3.org/2000/svg" xmlns:xlink="http://www.w3.org/1999/xlink">
<g id="graph0" class="graph" transform="scale(1 1) rotate(0) translate(4 606)">
<title>SCR_EquipmentStorageComponent</title>
<!-- Node1 -->
<g id="node1" class="node">
<title>Node1</title>
<g id="a_node1"><a xlink:title="Equipment storage are slots which are part of their parent entity but not taking up the standard carg...">
<polygon fill="#999999" stroke="#666666" points="251,-74 79,-74 79,-55 251,-55 251,-74"/>
<text text-anchor="middle" x="165" y="-62" font-family="Helvetica,sans-Serif" font-size="10.00">SCR_EquipmentStorageComponent</text>
</a>
</g>
</g>
<!-- Node11 -->
<g id="node11" class="node">
<title>Node11</title>
<g id="a_node11"><a xlink:href="interfaceSCR__SalineStorageComponent.html" target="_top" xlink:title=" ">
<polygon fill="white" stroke="#666666" points="152,-19 0,-19 0,0 152,0 152,-19"/>
<text text-anchor="middle" x="76" y="-7" font-family="Helvetica,sans-Serif" font-size="10.00">SCR_SalineStorageComponent</text>
</a>
</g>
</g>
<!-- Node1&#45;&gt;Node11 -->
<g id="edge10" class="edge">
<title>Node1&#45;&gt;Node11</title>
<path fill="none" stroke="#63b8ff" d="M140.65,-49C124.73,-39.52 104.44,-27.43 90.87,-19.36"/>
<polygon fill="#63b8ff" stroke="#63b8ff" points="138.52,-52.4 148.9,-54.51 142.1,-46.39 138.52,-52.4"/>
</g>
<!-- Node12 -->
<g id="node12" class="node">
<title>Node12</title>
<g id="a_node12"><a xlink:href="interfaceSCR__TourniquetStorageComponent.html" target="_top" xlink:title=" ">
<polygon fill="white" stroke="#666666" points="340,-19 170,-19 170,0 340,0 340,-19"/>
<text text-anchor="middle" x="255" y="-7" font-family="Helvetica,sans-Serif" font-size="10.00">SCR_TourniquetStorageComponent</text>
</a>
</g>
</g>
<!-- Node1&#45;&gt;Node12 -->
<g id="edge11" class="edge">
<title>Node1&#45;&gt;Node12</title>
<path fill="none" stroke="#63b8ff" d="M189.62,-49C205.73,-39.52 226.24,-27.43 239.96,-19.36"/>
<polygon fill="#63b8ff" stroke="#63b8ff" points="188.11,-46.42 181.27,-54.51 191.66,-52.45 188.11,-46.42"/>
</g>
<!-- Node2 -->
<g id="node2" class="node">
<title>Node2</title>
<g id="a_node2"><a xlink:href="interfaceEquipmentStorageComponent.html" target="_top" xlink:title="Current storage variant uses equipment storage slots to attach equipment to different item variants (...">
<polygon fill="white" stroke="#666666" points="238,-129 92,-129 92,-110 238,-110 238,-129"/>
<text text-anchor="middle" x="165" y="-117" font-family="Helvetica,sans-Serif" font-size="10.00">EquipmentStorageComponent</text>
</a>
</g>
</g>
<!-- Node2&#45;&gt;Node1 -->
<g id="edge1" class="edge">
<title>Node2&#45;&gt;Node1</title>
<path fill="none" stroke="#63b8ff" d="M165,-98.93C165,-90.53 165,-81.13 165,-74.44"/>
<polygon fill="#63b8ff" stroke="#63b8ff" points="161.5,-98.75 165,-108.75 168.5,-98.75 161.5,-98.75"/>
</g>
<!-- Node3 -->
<g id="node3" class="node">
<title>Node3</title>
<g id="a_node3"><a xlink:href="interfaceBaseEquipmentStorageComponent.html" target="_top" xlink:title=" ">
<polygon fill="white" stroke="#666666" points="249.5,-184 80.5,-184 80.5,-165 249.5,-165 249.5,-184"/>
<text text-anchor="middle" x="165" y="-172" font-family="Helvetica,sans-Serif" font-size="10.00">BaseEquipmentStorageComponent</text>
</a>
</g>
</g>
<!-- Node3&#45;&gt;Node2 -->
<g id="edge2" class="edge">
<title>Node3&#45;&gt;Node2</title>
<path fill="none" stroke="#63b8ff" d="M165,-153.93C165,-145.53 165,-136.13 165,-129.44"/>
<polygon fill="#63b8ff" stroke="#63b8ff" points="161.5,-153.75 165,-163.75 168.5,-153.75 161.5,-153.75"/>
</g>
<!-- Node4 -->
<g id="node4" class="node">
<title>Node4</title>
<g id="a_node4"><a xlink:href="interfaceUniversalInventoryStorageComponent.html" target="_top" xlink:title=" ">
<polygon fill="white" stroke="#666666" points="229,-250 101,-250 101,-220 229,-220 229,-250"/>
<text text-anchor="start" x="109" y="-238" font-family="Helvetica,sans-Serif" font-size="10.00">UniversalInventoryStorage</text>
<text text-anchor="middle" x="165" y="-227" font-family="Helvetica,sans-Serif" font-size="10.00">Component</text>
</a>
</g>
</g>
<!-- Node4&#45;&gt;Node3 -->
<g id="edge3" class="edge">
<title>Node4&#45;&gt;Node3</title>
<path fill="none" stroke="#63b8ff" d="M165,-208.59C165,-199.85 165,-190.65 165,-184.18"/>
<polygon fill="#63b8ff" stroke="#63b8ff" points="161.5,-208.54 165,-218.54 168.5,-208.54 161.5,-208.54"/>
</g>
<!-- Node5 -->
<g id="node5" class="node">
<title>Node5</title>
<g id="a_node5"><a xlink:href="interfaceBaseUniversalInventoryStorageComponent.html" target="_top" xlink:title=" ">
<polygon fill="white" stroke="#666666" points="240,-316 90,-316 90,-286 240,-286 240,-316"/>
<text text-anchor="start" x="98" y="-304" font-family="Helvetica,sans-Serif" font-size="10.00">BaseUniversalInventoryStorage</text>
<text text-anchor="middle" x="165" y="-293" font-family="Helvetica,sans-Serif" font-size="10.00">Component</text>
</a>
</g>
</g>
<!-- Node5&#45;&gt;Node4 -->
<g id="edge4" class="edge">
<title>Node5&#45;&gt;Node4</title>
<path fill="none" stroke="#63b8ff" d="M165,-274.97C165,-266.55 165,-257.45 165,-250.16"/>
<polygon fill="#63b8ff" stroke="#63b8ff" points="161.5,-274.8 165,-284.8 168.5,-274.8 161.5,-274.8"/>
</g>
<!-- Node6 -->
<g id="node6" class="node">
<title>Node6</title>
<g id="a_node6"><a xlink:href="interfaceScriptedBaseInventoryStorageComponent.html" target="_top" xlink:title=" ">
<polygon fill="white" stroke="#666666" points="238.5,-382 91.5,-382 91.5,-352 238.5,-352 238.5,-382"/>
<text text-anchor="start" x="99.5" y="-370" font-family="Helvetica,sans-Serif" font-size="10.00">ScriptedBaseInventoryStorage</text>
<text text-anchor="middle" x="165" y="-359" font-family="Helvetica,sans-Serif" font-size="10.00">Component</text>
</a>
</g>
</g>
<!-- Node6&#45;&gt;Node5 -->
<g id="edge5" class="edge">
<title>Node6&#45;&gt;Node5</title>
<path fill="none" stroke="#63b8ff" d="M165,-340.97C165,-332.55 165,-323.45 165,-316.16"/>
<polygon fill="#63b8ff" stroke="#63b8ff" points="161.5,-340.8 165,-350.8 168.5,-340.8 161.5,-340.8"/>
</g>
<!-- Node7 -->
<g id="node7" class="node">
<title>Node7</title>
<g id="a_node7"><a xlink:href="interfaceBaseInventoryStorageComponent.html" target="_top" xlink:title=" ">
<polygon fill="white" stroke="#666666" points="245.5,-437 84.5,-437 84.5,-418 245.5,-418 245.5,-437"/>
<text text-anchor="middle" x="165" y="-425" font-family="Helvetica,sans-Serif" font-size="10.00">BaseInventoryStorageComponent</text>
</a>
</g>
</g>
<!-- Node7&#45;&gt;Node6 -->
<g id="edge6" class="edge">
<title>Node7&#45;&gt;Node6</title>
<path fill="none" stroke="#63b8ff" d="M165,-407.08C165,-398.92 165,-389.6 165,-382.11"/>
<polygon fill="#63b8ff" stroke="#63b8ff" points="161.5,-406.87 165,-416.87 168.5,-406.87 161.5,-406.87"/>
</g>
<!-- Node8 -->
<g id="node8" class="node">
<title>Node8</title>
<g id="a_node8"><a xlink:href="interfaceInventoryItemComponent.html" target="_top" xlink:title=" ">
<polygon fill="white" stroke="#666666" points="226.5,-492 103.5,-492 103.5,-473 226.5,-473 226.5,-492"/>
<text text-anchor="middle" x="165" y="-480" font-family="Helvetica,sans-Serif" font-size="10.00">InventoryItemComponent</text>
</a>
</g>
</g>
<!-- Node8&#45;&gt;Node7 -->
<g id="edge7" class="edge">
<title>Node8&#45;&gt;Node7</title>
<path fill="none" stroke="#63b8ff" d="M165,-461.93C165,-453.53 165,-444.13 165,-437.44"/>
<polygon fill="#63b8ff" stroke="#63b8ff" points="161.5,-461.75 165,-471.75 168.5,-461.75 161.5,-461.75"/>
</g>
<!-- Node9 -->
<g id="node9" class="node">
<title>Node9</title>
<g id="a_node9"><a xlink:href="interfaceGameComponent.html" target="_top" xlink:title=" ">
<polygon fill="white" stroke="#666666" points="211,-547 119,-547 119,-528 211,-528 211,-547"/>
<text text-anchor="middle" x="165" y="-535" font-family="Helvetica,sans-Serif" font-size="10.00">GameComponent</text>
</a>
</g>
</g>
<!-- Node9&#45;&gt;Node8 -->
<g id="edge8" class="edge">
<title>Node9&#45;&gt;Node8</title>
<path fill="none" stroke="#63b8ff" d="M165,-516.93C165,-508.53 165,-499.13 165,-492.44"/>
<polygon fill="#63b8ff" stroke="#63b8ff" points="161.5,-516.75 165,-526.75 168.5,-516.75 161.5,-516.75"/>
</g>
<!-- Node10 -->
<g id="node10" class="node">
<title>Node10</title>
<g id="a_node10"><a xlink:title=" ">
<polygon fill="white" stroke="#666666" points="215,-602 115,-602 115,-583 215,-583 215,-602"/>
<text text-anchor="middle" x="165" y="-590" font-family="Helvetica,sans-Serif" font-size="10.00">GenericComponent</text>
</a>
</g>
</g>
<!-- Node10&#45;&gt;Node9 -->
<g id="edge9" class="edge">
<title>Node10&#45;&gt;Node9</title>
<path fill="none" stroke="#63b8ff" d="M165,-571.93C165,-563.53 165,-554.13 165,-547.44"/>
<polygon fill="#63b8ff" stroke="#63b8ff" points="161.5,-571.75 165,-581.75 168.5,-571.75 161.5,-571.75"/>
</g>
</g>
</svg>
