<?xml version="1.0" encoding="UTF-8" standalone="no"?>
<!DOCTYPE svg PUBLIC "-//W3C//DTD SVG 1.1//EN"
 "http://www.w3.org/Graphics/SVG/1.1/DTD/svg11.dtd">
<!-- Generated by graphviz version 8.0.2 (20230410.1723)
 -->
<!-- Title: BaseTreeClass Pages: 1 -->
<svg width="292pt" height="192pt"
 viewBox="0.00 0.00 291.50 192.00" xmlns="http://www.w3.org/2000/svg" xmlns:xlink="http://www.w3.org/1999/xlink">
<g id="graph0" class="graph" transform="scale(1 1) rotate(0) translate(4 188)">
<title>BaseTreeClass</title>
<!-- Node1 -->
<g id="node1" class="node">
<title>Node1</title>
<g id="a_node1"><a xlink:title=" ">
<polygon fill="#999999" stroke="#666666" points="191,-129 108,-129 108,-110 191,-110 191,-129"/>
<text text-anchor="middle" x="149.5" y="-117" font-family="Helvetica,sans-Serif" font-size="10.00">BaseTreeClass</text>
</a>
</g>
</g>
<!-- Node3 -->
<g id="node3" class="node">
<title>Node3</title>
<g id="a_node3"><a xlink:href="interfaceTreeClass.html" target="_top" xlink:title=" ">
<polygon fill="white" stroke="#666666" points="179.5,-74 119.5,-74 119.5,-55 179.5,-55 179.5,-74"/>
<text text-anchor="middle" x="149.5" y="-62" font-family="Helvetica,sans-Serif" font-size="10.00">TreeClass</text>
</a>
</g>
</g>
<!-- Node1&#45;&gt;Node3 -->
<g id="edge2" class="edge">
<title>Node1&#45;&gt;Node3</title>
<path fill="none" stroke="#63b8ff" d="M149.5,-98.93C149.5,-90.53 149.5,-81.13 149.5,-74.44"/>
<polygon fill="#63b8ff" stroke="#63b8ff" points="146,-98.75 149.5,-108.75 153,-98.75 146,-98.75"/>
</g>
<!-- Node2 -->
<g id="node2" class="node">
<title>Node2</title>
<g id="a_node2"><a xlink:title=" ">
<polygon fill="white" stroke="#666666" points="209,-184 90,-184 90,-165 209,-165 209,-184"/>
<text text-anchor="middle" x="149.5" y="-172" font-family="Helvetica,sans-Serif" font-size="10.00">StaticModelEntityClass</text>
</a>
</g>
</g>
<!-- Node2&#45;&gt;Node1 -->
<g id="edge1" class="edge">
<title>Node2&#45;&gt;Node1</title>
<path fill="none" stroke="#63b8ff" d="M149.5,-153.93C149.5,-145.53 149.5,-136.13 149.5,-129.44"/>
<polygon fill="#63b8ff" stroke="#63b8ff" points="146,-153.75 149.5,-163.75 153,-153.75 146,-153.75"/>
</g>
<!-- Node4 -->
<g id="node4" class="node">
<title>Node4</title>
<g id="a_node4"><a xlink:href="interfaceSCR__DestructibleTreeV2Class.html" target="_top" xlink:title=" ">
<polygon fill="white" stroke="#666666" points="149,-19 0,-19 0,0 149,0 149,-19"/>
<text text-anchor="middle" x="74.5" y="-7" font-family="Helvetica,sans-Serif" font-size="10.00">SCR_DestructibleTreeV2Class</text>
</a>
</g>
</g>
<!-- Node3&#45;&gt;Node4 -->
<g id="edge3" class="edge">
<title>Node3&#45;&gt;Node4</title>
<path fill="none" stroke="#63b8ff" d="M127.83,-48.19C114.6,-38.84 98.14,-27.21 87.03,-19.36"/>
<polygon fill="#63b8ff" stroke="#63b8ff" points="125.59,-51.6 135.78,-54.51 129.63,-45.88 125.59,-51.6"/>
</g>
<!-- Node5 -->
<g id="node5" class="node">
<title>Node5</title>
<g id="a_node5"><a xlink:href="interfaceSCR__TreePartV2Class.html" target="_top" xlink:title=" ">
<polygon fill="white" stroke="#666666" points="283.5,-19 167.5,-19 167.5,0 283.5,0 283.5,-19"/>
<text text-anchor="middle" x="225.5" y="-7" font-family="Helvetica,sans-Serif" font-size="10.00">SCR_TreePartV2Class</text>
</a>
</g>
</g>
<!-- Node3&#45;&gt;Node5 -->
<g id="edge4" class="edge">
<title>Node3&#45;&gt;Node5</title>
<path fill="none" stroke="#63b8ff" d="M171.07,-48.46C184.54,-39.06 201.44,-27.28 212.8,-19.36"/>
<polygon fill="#63b8ff" stroke="#63b8ff" points="169.59,-45.92 163.39,-54.51 173.6,-51.66 169.59,-45.92"/>
</g>
</g>
</svg>
