<?xml version="1.0" encoding="UTF-8" standalone="no"?>
<!DOCTYPE svg PUBLIC "-//W3C//DTD SVG 1.1//EN"
 "http://www.w3.org/Graphics/SVG/1.1/DTD/svg11.dtd">
<!-- Generated by graphviz version 8.0.2 (20230410.1723)
 -->
<!-- Title: SCR_MilitaryBaseLogicComponentClass Pages: 1 -->
<svg width="970pt" height="283pt"
 viewBox="0.00 0.00 970.00 283.00" xmlns="http://www.w3.org/2000/svg" xmlns:xlink="http://www.w3.org/1999/xlink">
<g id="graph0" class="graph" transform="scale(1 1) rotate(0) translate(4 279)">
<title>SCR_MilitaryBaseLogicComponentClass</title>
<!-- Node1 -->
<g id="node1" class="node">
<title>Node1</title>
<g id="a_node1"><a xlink:title=" ">
<polygon fill="#999999" stroke="#666666" points="321,-184 152,-184 152,-154 321,-154 321,-184"/>
<text text-anchor="start" x="160" y="-172" font-family="Helvetica,sans-Serif" font-size="10.00">SCR_MilitaryBaseLogicComponent</text>
<text text-anchor="middle" x="236.5" y="-161" font-family="Helvetica,sans-Serif" font-size="10.00">Class</text>
</a>
</g>
</g>
<!-- Node3 -->
<g id="node3" class="node">
<title>Node3</title>
<g id="a_node3"><a xlink:href="interfaceSCR__AmbientRadioChatterComponentClass.html" target="_top" xlink:title=" ">
<polygon fill="white" stroke="#666666" points="541,-275 357,-275 357,-245 541,-245 541,-275"/>
<text text-anchor="start" x="365" y="-263" font-family="Helvetica,sans-Serif" font-size="10.00">SCR_AmbientRadioChatterComponent</text>
<text text-anchor="middle" x="449" y="-252" font-family="Helvetica,sans-Serif" font-size="10.00">Class</text>
</a>
</g>
</g>
<!-- Node1&#45;&gt;Node3 -->
<g id="edge2" class="edge">
<title>Node1&#45;&gt;Node3</title>
<path fill="none" stroke="#63b8ff" d="M269.99,-190.19C293.41,-204.71 326.19,-223.53 357,-236 364.88,-239.19 373.31,-242.07 381.74,-244.64"/>
<polygon fill="#63b8ff" stroke="#63b8ff" points="272.2,-186.82 261.87,-184.46 268.47,-192.74 272.2,-186.82"/>
</g>
<!-- Node4 -->
<g id="node4" class="node">
<title>Node4</title>
<g id="a_node4"><a xlink:href="interfaceSCR__CampaignBuildingProviderComponentClass.html" target="_top" xlink:title=" ">
<polygon fill="white" stroke="#666666" points="526.5,-227 371.5,-227 371.5,-197 526.5,-197 526.5,-227"/>
<text text-anchor="start" x="379.5" y="-215" font-family="Helvetica,sans-Serif" font-size="10.00">SCR_CampaignBuildingProvider</text>
<text text-anchor="middle" x="449" y="-204" font-family="Helvetica,sans-Serif" font-size="10.00">ComponentClass</text>
</a>
</g>
</g>
<!-- Node1&#45;&gt;Node4 -->
<g id="edge3" class="edge">
<title>Node1&#45;&gt;Node4</title>
<path fill="none" stroke="#63b8ff" d="M323.68,-186.6C339.78,-189.89 356.5,-193.31 372.27,-196.53"/>
<polygon fill="#63b8ff" stroke="#63b8ff" points="324.7,-183.04 314.2,-184.46 323.3,-189.89 324.7,-183.04"/>
</g>
<!-- Node5 -->
<g id="node5" class="node">
<title>Node5</title>
<g id="a_node5"><a xlink:href="interfaceSCR__FlagComponentClass.html" target="_top" xlink:title=" ">
<polygon fill="white" stroke="#666666" points="516.5,-178.5 381.5,-178.5 381.5,-159.5 516.5,-159.5 516.5,-178.5"/>
<text text-anchor="middle" x="449" y="-166.5" font-family="Helvetica,sans-Serif" font-size="10.00">SCR_FlagComponentClass</text>
</a>
</g>
</g>
<!-- Node1&#45;&gt;Node5 -->
<g id="edge4" class="edge">
<title>Node1&#45;&gt;Node5</title>
<path fill="none" stroke="#63b8ff" d="M332.08,-169C348.58,-169 365.44,-169 381.01,-169"/>
<polygon fill="#63b8ff" stroke="#63b8ff" points="332.3,-165.5 322.3,-169 332.3,-172.5 332.3,-165.5"/>
</g>
<!-- Node6 -->
<g id="node6" class="node">
<title>Node6</title>
<g id="a_node6"><a xlink:href="interfaceSCR__SeizingComponentClass.html" target="_top" xlink:title=" ">
<polygon fill="white" stroke="#666666" points="523.5,-141.5 374.5,-141.5 374.5,-122.5 523.5,-122.5 523.5,-141.5"/>
<text text-anchor="middle" x="449" y="-129.5" font-family="Helvetica,sans-Serif" font-size="10.00">SCR_SeizingComponentClass</text>
</a>
</g>
</g>
<!-- Node1&#45;&gt;Node6 -->
<g id="edge5" class="edge">
<title>Node1&#45;&gt;Node6</title>
<path fill="none" stroke="#63b8ff" d="M332.13,-152.37C352.34,-148.81 373.08,-145.17 391.32,-141.96"/>
<polygon fill="#63b8ff" stroke="#63b8ff" points="331.54,-149.09 322.3,-154.27 332.75,-155.99 331.54,-149.09"/>
</g>
<!-- Node8 -->
<g id="node8" class="node">
<title>Node8</title>
<g id="a_node8"><a xlink:href="interfaceSCR__ServicePointComponentClass.html" target="_top" xlink:title=" ">
<polygon fill="white" stroke="#666666" points="522,-102 376,-102 376,-72 522,-72 522,-102"/>
<text text-anchor="start" x="384" y="-90" font-family="Helvetica,sans-Serif" font-size="10.00">SCR_ServicePointComponent</text>
<text text-anchor="middle" x="449" y="-79" font-family="Helvetica,sans-Serif" font-size="10.00">Class</text>
</a>
</g>
</g>
<!-- Node1&#45;&gt;Node8 -->
<g id="edge7" class="edge">
<title>Node1&#45;&gt;Node8</title>
<path fill="none" stroke="#63b8ff" d="M276.62,-148.73C299.64,-137.29 329.52,-123.29 357,-113 367.16,-109.2 378.12,-105.63 388.81,-102.42"/>
<polygon fill="#63b8ff" stroke="#63b8ff" points="275.26,-146 267.89,-153.61 278.4,-152.25 275.26,-146"/>
</g>
<!-- Node2 -->
<g id="node2" class="node">
<title>Node2</title>
<g id="a_node2"><a xlink:title=" ">
<polygon fill="white" stroke="#666666" points="116,-178.5 0,-178.5 0,-159.5 116,-159.5 116,-178.5"/>
<text text-anchor="middle" x="58" y="-166.5" font-family="Helvetica,sans-Serif" font-size="10.00">ScriptComponentClass</text>
</a>
</g>
</g>
<!-- Node2&#45;&gt;Node1 -->
<g id="edge1" class="edge">
<title>Node2&#45;&gt;Node1</title>
<path fill="none" stroke="#63b8ff" d="M127.07,-169C135.1,-169 143.35,-169 151.56,-169"/>
<polygon fill="#63b8ff" stroke="#63b8ff" points="127.3,-165.5 117.3,-169 127.3,-172.5 127.3,-165.5"/>
</g>
<!-- Node7 -->
<g id="node7" class="node">
<title>Node7</title>
<g id="a_node7"><a xlink:href="interfaceSCR__CampaignSeizingComponentClass.html" target="_top" xlink:title=" ">
<polygon fill="white" stroke="#666666" points="751.5,-150 584.5,-150 584.5,-120 751.5,-120 751.5,-150"/>
<text text-anchor="start" x="592.5" y="-138" font-family="Helvetica,sans-Serif" font-size="10.00">SCR_CampaignSeizingComponent</text>
<text text-anchor="middle" x="668" y="-127" font-family="Helvetica,sans-Serif" font-size="10.00">Class</text>
</a>
</g>
</g>
<!-- Node6&#45;&gt;Node7 -->
<g id="edge6" class="edge">
<title>Node6&#45;&gt;Node7</title>
<path fill="none" stroke="#63b8ff" d="M534.38,-133.17C550.72,-133.39 567.82,-133.63 584.11,-133.85"/>
<polygon fill="#63b8ff" stroke="#63b8ff" points="534.82,-129.66 524.77,-133.02 534.72,-136.66 534.82,-129.66"/>
</g>
<!-- Node9 -->
<g id="node9" class="node">
<title>Node9</title>
<g id="a_node9"><a xlink:href="interfaceSCR__AntennaServicePointComponentClass.html" target="_top" xlink:title=" ">
<polygon fill="white" stroke="#666666" points="759,-102 577,-102 577,-72 759,-72 759,-102"/>
<text text-anchor="start" x="585" y="-90" font-family="Helvetica,sans-Serif" font-size="10.00">SCR_AntennaServicePointComponent</text>
<text text-anchor="middle" x="668" y="-79" font-family="Helvetica,sans-Serif" font-size="10.00">Class</text>
</a>
</g>
</g>
<!-- Node8&#45;&gt;Node9 -->
<g id="edge8" class="edge">
<title>Node8&#45;&gt;Node9</title>
<path fill="none" stroke="#63b8ff" d="M533.01,-87C547.25,-87 562.1,-87 576.53,-87"/>
<polygon fill="#63b8ff" stroke="#63b8ff" points="533.26,-83.5 523.26,-87 533.26,-90.5 533.26,-83.5"/>
</g>
<!-- Node10 -->
<g id="node10" class="node">
<title>Node10</title>
<g id="a_node10"><a xlink:href="interfaceSCR__SlotServiceComponentClass.html" target="_top" xlink:title=" ">
<polygon fill="white" stroke="#666666" points="738,-54 598,-54 598,-24 738,-24 738,-54"/>
<text text-anchor="start" x="606" y="-42" font-family="Helvetica,sans-Serif" font-size="10.00">SCR_SlotServiceComponent</text>
<text text-anchor="middle" x="668" y="-31" font-family="Helvetica,sans-Serif" font-size="10.00">Class</text>
</a>
</g>
</g>
<!-- Node8&#45;&gt;Node10 -->
<g id="edge9" class="edge">
<title>Node8&#45;&gt;Node10</title>
<path fill="none" stroke="#63b8ff" d="M530.53,-69.19C552.58,-64.31 576.28,-59.07 597.65,-54.34"/>
<polygon fill="#63b8ff" stroke="#63b8ff" points="529.86,-65.97 520.85,-71.55 531.37,-72.81 529.86,-65.97"/>
</g>
<!-- Node11 -->
<g id="node11" class="node">
<title>Node11</title>
<g id="a_node11"><a xlink:href="interfaceSCR__CatalogEntitySpawnerComponentClass.html" target="_top" xlink:title=" ">
<polygon fill="white" stroke="#666666" points="947.5,-78 809.5,-78 809.5,-48 947.5,-48 947.5,-78"/>
<text text-anchor="start" x="817.5" y="-66" font-family="Helvetica,sans-Serif" font-size="10.00">SCR_CatalogEntitySpawner</text>
<text text-anchor="middle" x="878.5" y="-55" font-family="Helvetica,sans-Serif" font-size="10.00">ComponentClass</text>
</a>
</g>
</g>
<!-- Node10&#45;&gt;Node11 -->
<g id="edge10" class="edge">
<title>Node10&#45;&gt;Node11</title>
<path fill="none" stroke="#63b8ff" d="M749.25,-48.24C769,-50.51 789.96,-52.92 809.08,-55.12"/>
<polygon fill="#63b8ff" stroke="#63b8ff" points="749.76,-44.66 739.43,-46.99 748.96,-51.61 749.76,-44.66"/>
</g>
<!-- Node12 -->
<g id="node12" class="node">
<title>Node12</title>
<g id="a_node12"><a xlink:href="interfaceSCR__DefenderSpawnerComponentClass.html" target="_top" xlink:title=" ">
<polygon fill="white" stroke="#666666" points="962,-30 795,-30 795,0 962,0 962,-30"/>
<text text-anchor="start" x="803" y="-18" font-family="Helvetica,sans-Serif" font-size="10.00">SCR_DefenderSpawnerComponent</text>
<text text-anchor="middle" x="878.5" y="-7" font-family="Helvetica,sans-Serif" font-size="10.00">Class</text>
</a>
</g>
</g>
<!-- Node10&#45;&gt;Node12 -->
<g id="edge11" class="edge">
<title>Node10&#45;&gt;Node12</title>
<path fill="none" stroke="#63b8ff" d="M749.14,-29.78C764.04,-28.06 779.64,-26.26 794.63,-24.54"/>
<polygon fill="#63b8ff" stroke="#63b8ff" points="748.96,-26.39 739.43,-31.01 749.76,-33.34 748.96,-26.39"/>
</g>
</g>
</svg>
