<?xml version="1.0" encoding="UTF-8" standalone="no"?>
<!DOCTYPE svg PUBLIC "-//W3C//DTD SVG 1.1//EN"
 "http://www.w3.org/Graphics/SVG/1.1/DTD/svg11.dtd">
<!-- Generated by graphviz version 8.0.2 (20230410.1723)
 -->
<!-- Title: BaseWeaponComponent Pages: 1 -->
<svg width="772pt" height="175pt"
 viewBox="0.00 0.00 772.00 175.00" xmlns="http://www.w3.org/2000/svg" xmlns:xlink="http://www.w3.org/1999/xlink">
<g id="graph0" class="graph" transform="scale(1 1) rotate(0) translate(4 171)">
<title>BaseWeaponComponent</title>
<!-- Node1 -->
<g id="node1" class="node">
<title>Node1</title>
<g id="a_node1"><a xlink:title=" ">
<polygon fill="#999999" stroke="#666666" points="389,-111 264,-111 264,-92 389,-92 389,-111"/>
<text text-anchor="middle" x="326.5" y="-99" font-family="Helvetica,sans-Serif" font-size="10.00">BaseWeaponComponent</text>
</a>
</g>
</g>
<!-- Node4 -->
<g id="node4" class="node">
<title>Node4</title>
<g id="a_node4"><a xlink:href="interfaceWeaponComponent.html" target="_top" xlink:title=" ">
<polygon fill="white" stroke="#666666" points="535.5,-148 433.5,-148 433.5,-129 535.5,-129 535.5,-148"/>
<text text-anchor="middle" x="484.5" y="-136" font-family="Helvetica,sans-Serif" font-size="10.00">WeaponComponent</text>
</a>
</g>
</g>
<!-- Node1&#45;&gt;Node4 -->
<g id="edge3" class="edge">
<title>Node1&#45;&gt;Node4</title>
<path fill="none" stroke="#63b8ff" d="M379.85,-113.92C399.95,-118.68 422.59,-124.05 441.58,-128.56"/>
<polygon fill="#63b8ff" stroke="#63b8ff" points="380.84,-110.32 370.31,-111.42 379.23,-117.13 380.84,-110.32"/>
</g>
<!-- Node6 -->
<g id="node6" class="node">
<title>Node6</title>
<g id="a_node6"><a xlink:href="interfaceWeaponSlotComponent.html" target="_top" xlink:title=" ">
<polygon fill="white" stroke="#666666" points="544,-93 425,-93 425,-74 544,-74 544,-93"/>
<text text-anchor="middle" x="484.5" y="-81" font-family="Helvetica,sans-Serif" font-size="10.00">WeaponSlotComponent</text>
</a>
</g>
</g>
<!-- Node1&#45;&gt;Node6 -->
<g id="edge5" class="edge">
<title>Node1&#45;&gt;Node6</title>
<path fill="none" stroke="#63b8ff" d="M399.93,-93.14C408.19,-92.19 416.53,-91.23 424.58,-90.3"/>
<polygon fill="#63b8ff" stroke="#63b8ff" points="399.69,-89.76 390.16,-94.39 400.49,-96.72 399.69,-89.76"/>
</g>
<!-- Node2 -->
<g id="node2" class="node">
<title>Node2</title>
<g id="a_node2"><a xlink:href="interfaceGameComponent.html" target="_top" xlink:title=" ">
<polygon fill="white" stroke="#666666" points="228,-111 136,-111 136,-92 228,-92 228,-111"/>
<text text-anchor="middle" x="182" y="-99" font-family="Helvetica,sans-Serif" font-size="10.00">GameComponent</text>
</a>
</g>
</g>
<!-- Node2&#45;&gt;Node1 -->
<g id="edge1" class="edge">
<title>Node2&#45;&gt;Node1</title>
<path fill="none" stroke="#63b8ff" d="M239.46,-101.5C247.38,-101.5 255.55,-101.5 263.56,-101.5"/>
<polygon fill="#63b8ff" stroke="#63b8ff" points="239.48,-98 229.48,-101.5 239.48,-105 239.48,-98"/>
</g>
<!-- Node3 -->
<g id="node3" class="node">
<title>Node3</title>
<g id="a_node3"><a xlink:title=" ">
<polygon fill="white" stroke="#666666" points="100,-111 0,-111 0,-92 100,-92 100,-111"/>
<text text-anchor="middle" x="50" y="-99" font-family="Helvetica,sans-Serif" font-size="10.00">GenericComponent</text>
</a>
</g>
</g>
<!-- Node3&#45;&gt;Node2 -->
<g id="edge2" class="edge">
<title>Node3&#45;&gt;Node2</title>
<path fill="none" stroke="#63b8ff" d="M110.95,-101.5C119.25,-101.5 127.66,-101.5 135.64,-101.5"/>
<polygon fill="#63b8ff" stroke="#63b8ff" points="111.15,-98 101.15,-101.5 111.15,-105 111.15,-98"/>
</g>
<!-- Node5 -->
<g id="node5" class="node">
<title>Node5</title>
<g id="a_node5"><a xlink:href="interfaceSCR__MineWeaponComponent.html" target="_top" xlink:title=" ">
<polygon fill="white" stroke="#666666" points="746.5,-167 597.5,-167 597.5,-148 746.5,-148 746.5,-167"/>
<text text-anchor="middle" x="672" y="-155" font-family="Helvetica,sans-Serif" font-size="10.00">SCR_MineWeaponComponent</text>
</a>
</g>
</g>
<!-- Node4&#45;&gt;Node5 -->
<g id="edge4" class="edge">
<title>Node4&#45;&gt;Node5</title>
<path fill="none" stroke="#63b8ff" d="M546.61,-144.76C562.75,-146.41 580.33,-148.21 597.07,-149.93"/>
<polygon fill="#63b8ff" stroke="#63b8ff" points="547,-141.18 536.7,-143.64 546.29,-148.14 547,-141.18"/>
</g>
<!-- Node7 -->
<g id="node7" class="node">
<title>Node7</title>
<g id="a_node7"><a xlink:href="interfaceCharacterGrenadeSlotComponent.html" target="_top" xlink:title=" ">
<polygon fill="white" stroke="#666666" points="753,-130 591,-130 591,-111 753,-111 753,-130"/>
<text text-anchor="middle" x="672" y="-118" font-family="Helvetica,sans-Serif" font-size="10.00">CharacterGrenadeSlotComponent</text>
</a>
</g>
</g>
<!-- Node6&#45;&gt;Node7 -->
<g id="edge6" class="edge">
<title>Node6&#45;&gt;Node7</title>
<path fill="none" stroke="#63b8ff" d="M545.76,-95.65C557.14,-97.93 568.93,-100.29 580,-102.5 593.11,-105.11 607.28,-107.93 620.45,-110.53"/>
<polygon fill="#63b8ff" stroke="#63b8ff" points="546.52,-92.03 536.03,-93.49 545.14,-98.89 546.52,-92.03"/>
</g>
<!-- Node8 -->
<g id="node8" class="node">
<title>Node8</title>
<g id="a_node8"><a xlink:href="interfaceCharacterHandWeaponSlotComponent.html" target="_top" xlink:title=" ">
<polygon fill="white" stroke="#666666" points="764,-93 580,-93 580,-74 764,-74 764,-93"/>
<text text-anchor="middle" x="672" y="-81" font-family="Helvetica,sans-Serif" font-size="10.00">CharacterHandWeaponSlotComponent</text>
</a>
</g>
</g>
<!-- Node6&#45;&gt;Node8 -->
<g id="edge7" class="edge">
<title>Node6&#45;&gt;Node8</title>
<path fill="none" stroke="#63b8ff" d="M555.19,-83.5C563.2,-83.5 571.45,-83.5 579.69,-83.5"/>
<polygon fill="#63b8ff" stroke="#63b8ff" points="555.45,-80 545.45,-83.5 555.45,-87 555.45,-80"/>
</g>
<!-- Node9 -->
<g id="node9" class="node">
<title>Node9</title>
<g id="a_node9"><a xlink:href="interfaceCharacterWeaponSlotComponent.html" target="_top" xlink:title=" ">
<polygon fill="white" stroke="#666666" points="752.5,-56 591.5,-56 591.5,-37 752.5,-37 752.5,-56"/>
<text text-anchor="middle" x="672" y="-44" font-family="Helvetica,sans-Serif" font-size="10.00">CharacterWeaponSlotComponent</text>
</a>
</g>
</g>
<!-- Node6&#45;&gt;Node9 -->
<g id="edge8" class="edge">
<title>Node6&#45;&gt;Node9</title>
<path fill="none" stroke="#63b8ff" d="M545.76,-71.35C557.14,-69.07 568.93,-66.71 580,-64.5 593.11,-61.89 607.28,-59.07 620.45,-56.47"/>
<polygon fill="#63b8ff" stroke="#63b8ff" points="545.14,-68.11 536.03,-73.51 546.52,-74.97 545.14,-68.11"/>
</g>
<!-- Node10 -->
<g id="node10" class="node">
<title>Node10</title>
<g id="a_node10"><a xlink:href="interfaceGrenadeSlotComponent.html" target="_top" xlink:title=" ">
<polygon fill="white" stroke="#666666" points="732,-19 612,-19 612,0 732,0 732,-19"/>
<text text-anchor="middle" x="672" y="-7" font-family="Helvetica,sans-Serif" font-size="10.00">GrenadeSlotComponent</text>
</a>
</g>
</g>
<!-- Node6&#45;&gt;Node10 -->
<g id="edge9" class="edge">
<title>Node6&#45;&gt;Node10</title>
<path fill="none" stroke="#63b8ff" d="M507.62,-67.43C526.11,-54.76 553.61,-37.59 580,-27.5 590.08,-23.65 601.12,-20.58 611.92,-18.15"/>
<polygon fill="#63b8ff" stroke="#63b8ff" points="506.02,-64.99 499.84,-73.59 510.03,-70.72 506.02,-64.99"/>
</g>
</g>
</svg>
