<?xml version="1.0" encoding="UTF-8" standalone="no"?>
<!DOCTYPE svg PUBLIC "-//W3C//DTD SVG 1.1//EN"
 "http://www.w3.org/Graphics/SVG/1.1/DTD/svg11.dtd">
<!-- Generated by graphviz version 8.0.2 (20230410.1723)
 -->
<!-- Title: SCR_FlareEffectComponentClass Pages: 1 -->
<svg width="168pt" height="214pt"
 viewBox="0.00 0.00 168.00 214.00" xmlns="http://www.w3.org/2000/svg" xmlns:xlink="http://www.w3.org/1999/xlink">
<g id="graph0" class="graph" transform="scale(1 1) rotate(0) translate(4 210)">
<title>SCR_FlareEffectComponentClass</title>
<!-- Node1 -->
<g id="node1" class="node">
<title>Node1</title>
<g id="a_node1"><a xlink:title=" ">
<polygon fill="#999999" stroke="#666666" points="149,-30 11,-30 11,0 149,0 149,-30"/>
<text text-anchor="start" x="19" y="-18" font-family="Helvetica,sans-Serif" font-size="10.00">SCR_FlareEffectComponent</text>
<text text-anchor="middle" x="80" y="-7" font-family="Helvetica,sans-Serif" font-size="10.00">Class</text>
</a>
</g>
</g>
<!-- Node2 -->
<g id="node2" class="node">
<title>Node2</title>
<g id="a_node2"><a xlink:href="interfaceSCR__BaseInteractiveLightComponentClass.html" target="_top" xlink:title=" ">
<polygon fill="white" stroke="#666666" points="144.5,-96 15.5,-96 15.5,-66 144.5,-66 144.5,-96"/>
<text text-anchor="start" x="23.5" y="-84" font-family="Helvetica,sans-Serif" font-size="10.00">SCR_BaseInteractiveLight</text>
<text text-anchor="middle" x="80" y="-73" font-family="Helvetica,sans-Serif" font-size="10.00">ComponentClass</text>
</a>
</g>
</g>
<!-- Node2&#45;&gt;Node1 -->
<g id="edge1" class="edge">
<title>Node2&#45;&gt;Node1</title>
<path fill="none" stroke="#63b8ff" d="M80,-54.97C80,-46.55 80,-37.45 80,-30.16"/>
<polygon fill="#63b8ff" stroke="#63b8ff" points="76.5,-54.8 80,-64.8 83.5,-54.8 76.5,-54.8"/>
</g>
<!-- Node3 -->
<g id="node3" class="node">
<title>Node3</title>
<g id="a_node3"><a xlink:href="interfaceSCR__BaseLightComponentClass.html" target="_top" xlink:title=" ">
<polygon fill="white" stroke="#666666" points="160,-151 0,-151 0,-132 160,-132 160,-151"/>
<text text-anchor="middle" x="80" y="-139" font-family="Helvetica,sans-Serif" font-size="10.00">SCR_BaseLightComponentClass</text>
</a>
</g>
</g>
<!-- Node3&#45;&gt;Node2 -->
<g id="edge2" class="edge">
<title>Node3&#45;&gt;Node2</title>
<path fill="none" stroke="#63b8ff" d="M80,-121.08C80,-112.92 80,-103.6 80,-96.11"/>
<polygon fill="#63b8ff" stroke="#63b8ff" points="76.5,-120.87 80,-130.87 83.5,-120.87 76.5,-120.87"/>
</g>
<!-- Node4 -->
<g id="node4" class="node">
<title>Node4</title>
<g id="a_node4"><a xlink:title=" ">
<polygon fill="white" stroke="#666666" points="138,-206 22,-206 22,-187 138,-187 138,-206"/>
<text text-anchor="middle" x="80" y="-194" font-family="Helvetica,sans-Serif" font-size="10.00">ScriptComponentClass</text>
</a>
</g>
</g>
<!-- Node4&#45;&gt;Node3 -->
<g id="edge3" class="edge">
<title>Node4&#45;&gt;Node3</title>
<path fill="none" stroke="#63b8ff" d="M80,-175.93C80,-167.53 80,-158.13 80,-151.44"/>
<polygon fill="#63b8ff" stroke="#63b8ff" points="76.5,-175.75 80,-185.75 83.5,-175.75 76.5,-175.75"/>
</g>
</g>
</svg>
