<?xml version="1.0" encoding="UTF-8" standalone="no"?>
<!DOCTYPE svg PUBLIC "-//W3C//DTD SVG 1.1//EN"
 "http://www.w3.org/Graphics/SVG/1.1/DTD/svg11.dtd">
<!-- Generated by graphviz version 8.0.2 (20230410.1723)
 -->
<!-- Title: PerceivableComponentClass Pages: 1 -->
<svg width="346pt" height="269pt"
 viewBox="0.00 0.00 345.50 269.00" xmlns="http://www.w3.org/2000/svg" xmlns:xlink="http://www.w3.org/1999/xlink">
<g id="graph0" class="graph" transform="scale(1 1) rotate(0) translate(4 265)">
<title>PerceivableComponentClass</title>
<!-- Node1 -->
<g id="node1" class="node">
<title>Node1</title>
<g id="a_node1"><a xlink:title=" ">
<polygon fill="#999999" stroke="#666666" points="234,-151 94,-151 94,-132 234,-132 234,-151"/>
<text text-anchor="middle" x="164" y="-139" font-family="Helvetica,sans-Serif" font-size="10.00">PerceivableComponentClass</text>
</a>
</g>
</g>
<!-- Node4 -->
<g id="node4" class="node">
<title>Node4</title>
<g id="a_node4"><a xlink:href="interfaceCharacterPerceivableComponentClass.html" target="_top" xlink:title=" ">
<polygon fill="white" stroke="#666666" points="158,-96 0,-96 0,-66 158,-66 158,-96"/>
<text text-anchor="start" x="8" y="-84" font-family="Helvetica,sans-Serif" font-size="10.00">CharacterPerceivableComponent</text>
<text text-anchor="middle" x="79" y="-73" font-family="Helvetica,sans-Serif" font-size="10.00">Class</text>
</a>
</g>
</g>
<!-- Node1&#45;&gt;Node4 -->
<g id="edge3" class="edge">
<title>Node1&#45;&gt;Node4</title>
<path fill="none" stroke="#63b8ff" d="M142.33,-125.59C129.33,-116.64 112.86,-105.3 99.98,-96.44"/>
<polygon fill="#63b8ff" stroke="#63b8ff" points="139.87,-128.83 150.09,-131.62 143.84,-123.06 139.87,-128.83"/>
</g>
<!-- Node6 -->
<g id="node6" class="node">
<title>Node6</title>
<g id="a_node6"><a xlink:href="interfaceVehiclePerceivableComponentClass.html" target="_top" xlink:title=" ">
<polygon fill="white" stroke="#666666" points="324,-96 176,-96 176,-66 324,-66 324,-96"/>
<text text-anchor="start" x="184" y="-84" font-family="Helvetica,sans-Serif" font-size="10.00">VehiclePerceivableComponent</text>
<text text-anchor="middle" x="250" y="-73" font-family="Helvetica,sans-Serif" font-size="10.00">Class</text>
</a>
</g>
</g>
<!-- Node1&#45;&gt;Node6 -->
<g id="edge5" class="edge">
<title>Node1&#45;&gt;Node6</title>
<path fill="none" stroke="#63b8ff" d="M185.92,-125.59C199.08,-116.64 215.74,-105.3 228.77,-96.44"/>
<polygon fill="#63b8ff" stroke="#63b8ff" points="184.36,-123.1 178.06,-131.62 188.3,-128.88 184.36,-123.1"/>
</g>
<!-- Node2 -->
<g id="node2" class="node">
<title>Node2</title>
<g id="a_node2"><a xlink:href="interfaceGameComponentClass.html" target="_top" xlink:title=" ">
<polygon fill="white" stroke="#666666" points="222.5,-206 105.5,-206 105.5,-187 222.5,-187 222.5,-206"/>
<text text-anchor="middle" x="164" y="-194" font-family="Helvetica,sans-Serif" font-size="10.00">GameComponentClass</text>
</a>
</g>
</g>
<!-- Node2&#45;&gt;Node1 -->
<g id="edge1" class="edge">
<title>Node2&#45;&gt;Node1</title>
<path fill="none" stroke="#63b8ff" d="M164,-175.93C164,-167.53 164,-158.13 164,-151.44"/>
<polygon fill="#63b8ff" stroke="#63b8ff" points="160.5,-175.75 164,-185.75 167.5,-175.75 160.5,-175.75"/>
</g>
<!-- Node3 -->
<g id="node3" class="node">
<title>Node3</title>
<g id="a_node3"><a xlink:title=" ">
<polygon fill="white" stroke="#666666" points="226.5,-261 101.5,-261 101.5,-242 226.5,-242 226.5,-261"/>
<text text-anchor="middle" x="164" y="-249" font-family="Helvetica,sans-Serif" font-size="10.00">GenericComponentClass</text>
</a>
</g>
</g>
<!-- Node3&#45;&gt;Node2 -->
<g id="edge2" class="edge">
<title>Node3&#45;&gt;Node2</title>
<path fill="none" stroke="#63b8ff" d="M164,-230.93C164,-222.53 164,-213.13 164,-206.44"/>
<polygon fill="#63b8ff" stroke="#63b8ff" points="160.5,-230.75 164,-240.75 167.5,-230.75 160.5,-230.75"/>
</g>
<!-- Node5 -->
<g id="node5" class="node">
<title>Node5</title>
<g id="a_node5"><a xlink:href="interfaceSCR__CharacterPerceivableComponentClass.html" target="_top" xlink:title=" ">
<polygon fill="white" stroke="#666666" points="146,-30 12,-30 12,0 146,0 146,-30"/>
<text text-anchor="start" x="20" y="-18" font-family="Helvetica,sans-Serif" font-size="10.00">SCR_CharacterPerceivable</text>
<text text-anchor="middle" x="79" y="-7" font-family="Helvetica,sans-Serif" font-size="10.00">ComponentClass</text>
</a>
</g>
</g>
<!-- Node4&#45;&gt;Node5 -->
<g id="edge4" class="edge">
<title>Node4&#45;&gt;Node5</title>
<path fill="none" stroke="#63b8ff" d="M79,-54.97C79,-46.55 79,-37.45 79,-30.16"/>
<polygon fill="#63b8ff" stroke="#63b8ff" points="75.5,-54.8 79,-64.8 82.5,-54.8 75.5,-54.8"/>
</g>
<!-- Node7 -->
<g id="node7" class="node">
<title>Node7</title>
<g id="a_node7"><a xlink:href="interfaceSCR__VehiclePerceivableComponentClass.html" target="_top" xlink:title=" ">
<polygon fill="white" stroke="#666666" points="337.5,-30 164.5,-30 164.5,0 337.5,0 337.5,-30"/>
<text text-anchor="start" x="172.5" y="-18" font-family="Helvetica,sans-Serif" font-size="10.00">SCR_VehiclePerceivableComponent</text>
<text text-anchor="middle" x="251" y="-7" font-family="Helvetica,sans-Serif" font-size="10.00">Class</text>
</a>
</g>
</g>
<!-- Node6&#45;&gt;Node7 -->
<g id="edge6" class="edge">
<title>Node6&#45;&gt;Node7</title>
<path fill="none" stroke="#63b8ff" d="M250.39,-54.97C250.52,-46.55 250.66,-37.45 250.78,-30.16"/>
<polygon fill="#63b8ff" stroke="#63b8ff" points="246.88,-54.74 250.22,-64.8 253.88,-54.85 246.88,-54.74"/>
</g>
</g>
</svg>
