<?xml version="1.0" encoding="UTF-8" standalone="no"?>
<!DOCTYPE svg PUBLIC "-//W3C//DTD SVG 1.1//EN"
 "http://www.w3.org/Graphics/SVG/1.1/DTD/svg11.dtd">
<!-- Generated by graphviz version 8.0.2 (20230410.1723)
 -->
<!-- Title: SCR_SalineDamageEffect Pages: 1 -->
<svg width="155pt" height="412pt"
 viewBox="0.00 0.00 155.00 412.00" xmlns="http://www.w3.org/2000/svg" xmlns:xlink="http://www.w3.org/1999/xlink">
<g id="graph0" class="graph" transform="scale(1 1) rotate(0) translate(4 408)">
<title>SCR_SalineDamageEffect</title>
<!-- Node1 -->
<g id="node1" class="node">
<title>Node1</title>
<g id="a_node1"><a xlink:title=" ">
<polygon fill="#999999" stroke="#666666" points="138.5,-19 8.5,-19 8.5,0 138.5,0 138.5,-19"/>
<text text-anchor="middle" x="73.5" y="-7" font-family="Helvetica,sans-Serif" font-size="10.00">SCR_SalineDamageEffect</text>
</a>
</g>
</g>
<!-- Node2 -->
<g id="node2" class="node">
<title>Node2</title>
<g id="a_node2"><a xlink:href="interfaceSCR__DotDamageEffect.html" target="_top" xlink:title=" ">
<polygon fill="white" stroke="#666666" points="132.5,-74 14.5,-74 14.5,-55 132.5,-55 132.5,-74"/>
<text text-anchor="middle" x="73.5" y="-62" font-family="Helvetica,sans-Serif" font-size="10.00">SCR_DotDamageEffect</text>
</a>
</g>
</g>
<!-- Node2&#45;&gt;Node1 -->
<g id="edge1" class="edge">
<title>Node2&#45;&gt;Node1</title>
<path fill="none" stroke="#63b8ff" d="M73.5,-43.93C73.5,-35.53 73.5,-26.13 73.5,-19.44"/>
<polygon fill="#63b8ff" stroke="#63b8ff" points="70,-43.75 73.5,-53.75 77,-43.75 70,-43.75"/>
</g>
<!-- Node3 -->
<g id="node3" class="node">
<title>Node3</title>
<g id="a_node3"><a xlink:href="interfaceDotDamageEffect.html" target="_top" xlink:title=" ">
<polygon fill="white" stroke="#666666" points="119.5,-129 27.5,-129 27.5,-110 119.5,-110 119.5,-129"/>
<text text-anchor="middle" x="73.5" y="-117" font-family="Helvetica,sans-Serif" font-size="10.00">DotDamageEffect</text>
</a>
</g>
</g>
<!-- Node3&#45;&gt;Node2 -->
<g id="edge2" class="edge">
<title>Node3&#45;&gt;Node2</title>
<path fill="none" stroke="#63b8ff" d="M73.5,-98.93C73.5,-90.53 73.5,-81.13 73.5,-74.44"/>
<polygon fill="#63b8ff" stroke="#63b8ff" points="70,-98.75 73.5,-108.75 77,-98.75 70,-98.75"/>
</g>
<!-- Node4 -->
<g id="node4" class="node">
<title>Node4</title>
<g id="a_node4"><a xlink:href="interfaceSCR__PersistentDamageEffect.html" target="_top" xlink:title=" ">
<polygon fill="white" stroke="#666666" points="147,-184 0,-184 0,-165 147,-165 147,-184"/>
<text text-anchor="middle" x="73.5" y="-172" font-family="Helvetica,sans-Serif" font-size="10.00">SCR_PersistentDamageEffect</text>
</a>
</g>
</g>
<!-- Node4&#45;&gt;Node3 -->
<g id="edge3" class="edge">
<title>Node4&#45;&gt;Node3</title>
<path fill="none" stroke="#63b8ff" d="M73.5,-153.93C73.5,-145.53 73.5,-136.13 73.5,-129.44"/>
<polygon fill="#63b8ff" stroke="#63b8ff" points="70,-153.75 73.5,-163.75 77,-153.75 70,-153.75"/>
</g>
<!-- Node5 -->
<g id="node5" class="node">
<title>Node5</title>
<g id="a_node5"><a xlink:href="interfacePersistentDamageEffect.html" target="_top" xlink:title=" ">
<polygon fill="white" stroke="#666666" points="134.5,-239 12.5,-239 12.5,-220 134.5,-220 134.5,-239"/>
<text text-anchor="middle" x="73.5" y="-227" font-family="Helvetica,sans-Serif" font-size="10.00">PersistentDamageEffect</text>
</a>
</g>
</g>
<!-- Node5&#45;&gt;Node4 -->
<g id="edge4" class="edge">
<title>Node5&#45;&gt;Node4</title>
<path fill="none" stroke="#63b8ff" d="M73.5,-208.93C73.5,-200.53 73.5,-191.13 73.5,-184.44"/>
<polygon fill="#63b8ff" stroke="#63b8ff" points="70,-208.75 73.5,-218.75 77,-208.75 70,-208.75"/>
</g>
<!-- Node6 -->
<g id="node6" class="node">
<title>Node6</title>
<g id="a_node6"><a xlink:href="interfaceSCR__DamageEffect.html" target="_top" xlink:title=" ">
<polygon fill="white" stroke="#666666" points="125,-294 22,-294 22,-275 125,-275 125,-294"/>
<text text-anchor="middle" x="73.5" y="-282" font-family="Helvetica,sans-Serif" font-size="10.00">SCR_DamageEffect</text>
</a>
</g>
</g>
<!-- Node6&#45;&gt;Node5 -->
<g id="edge5" class="edge">
<title>Node6&#45;&gt;Node5</title>
<path fill="none" stroke="#63b8ff" d="M73.5,-263.93C73.5,-255.53 73.5,-246.13 73.5,-239.44"/>
<polygon fill="#63b8ff" stroke="#63b8ff" points="70,-263.75 73.5,-273.75 77,-263.75 70,-263.75"/>
</g>
<!-- Node7 -->
<g id="node7" class="node">
<title>Node7</title>
<g id="a_node7"><a xlink:href="interfaceBaseDamageEffect.html" target="_top" xlink:title=" ">
<polygon fill="white" stroke="#666666" points="123.5,-349 23.5,-349 23.5,-330 123.5,-330 123.5,-349"/>
<text text-anchor="middle" x="73.5" y="-337" font-family="Helvetica,sans-Serif" font-size="10.00">BaseDamageEffect</text>
</a>
</g>
</g>
<!-- Node7&#45;&gt;Node6 -->
<g id="edge6" class="edge">
<title>Node7&#45;&gt;Node6</title>
<path fill="none" stroke="#63b8ff" d="M73.5,-318.93C73.5,-310.53 73.5,-301.13 73.5,-294.44"/>
<polygon fill="#63b8ff" stroke="#63b8ff" points="70,-318.75 73.5,-328.75 77,-318.75 70,-318.75"/>
</g>
<!-- Node8 -->
<g id="node8" class="node">
<title>Node8</title>
<g id="a_node8"><a xlink:title=" ">
<polygon fill="white" stroke="#666666" points="116.5,-404 30.5,-404 30.5,-385 116.5,-385 116.5,-404"/>
<text text-anchor="middle" x="73.5" y="-392" font-family="Helvetica,sans-Serif" font-size="10.00">ScriptAndConfig</text>
</a>
</g>
</g>
<!-- Node8&#45;&gt;Node7 -->
<g id="edge7" class="edge">
<title>Node8&#45;&gt;Node7</title>
<path fill="none" stroke="#63b8ff" d="M73.5,-373.93C73.5,-365.53 73.5,-356.13 73.5,-349.44"/>
<polygon fill="#63b8ff" stroke="#63b8ff" points="70,-373.75 73.5,-383.75 77,-373.75 70,-373.75"/>
</g>
</g>
</svg>
