<?xml version="1.0" encoding="UTF-8" standalone="no"?>
<!DOCTYPE svg PUBLIC "-//W3C//DTD SVG 1.1//EN"
 "http://www.w3.org/Graphics/SVG/1.1/DTD/svg11.dtd">
<!-- Generated by graphviz version 8.0.2 (20230410.1723)
 -->
<!-- Title: SCR_BaseSupportStationComponentClass Pages: 1 -->
<svg width="762pt" height="206pt"
 viewBox="0.00 0.00 762.00 206.00" xmlns="http://www.w3.org/2000/svg" xmlns:xlink="http://www.w3.org/1999/xlink">
<g id="graph0" class="graph" transform="scale(1 1) rotate(0) translate(4 202)">
<title>SCR_BaseSupportStationComponentClass</title>
<!-- Node1 -->
<g id="node1" class="node">
<title>Node1</title>
<g id="a_node1"><a xlink:title=" ">
<polygon fill="#999999" stroke="#666666" points="331,-102 152,-102 152,-72 331,-72 331,-102"/>
<text text-anchor="start" x="160" y="-90" font-family="Helvetica,sans-Serif" font-size="10.00">SCR_BaseSupportStationComponent</text>
<text text-anchor="middle" x="241.5" y="-79" font-family="Helvetica,sans-Serif" font-size="10.00">Class</text>
</a>
</g>
</g>
<!-- Node3 -->
<g id="node3" class="node">
<title>Node3</title>
<g id="a_node3"><a xlink:href="interfaceSCR__BaseDamageHealSupportStationComponentClass.html" target="_top" xlink:title=" ">
<polygon fill="white" stroke="#666666" points="531.5,-174 377.5,-174 377.5,-144 531.5,-144 531.5,-174"/>
<text text-anchor="start" x="385.5" y="-162" font-family="Helvetica,sans-Serif" font-size="10.00">SCR_BaseDamageHealSupport</text>
<text text-anchor="middle" x="454.5" y="-151" font-family="Helvetica,sans-Serif" font-size="10.00">StationComponentClass</text>
</a>
</g>
</g>
<!-- Node1&#45;&gt;Node3 -->
<g id="edge2" class="edge">
<title>Node1&#45;&gt;Node3</title>
<path fill="none" stroke="#63b8ff" d="M289.95,-106.54C313.02,-115.72 341.25,-126.49 367,-135 376.03,-137.98 385.66,-140.91 395.1,-143.63"/>
<polygon fill="#63b8ff" stroke="#63b8ff" points="291.33,-102.93 280.75,-102.45 288.73,-109.42 291.33,-102.93"/>
</g>
<!-- Node6 -->
<g id="node6" class="node">
<title>Node6</title>
<g id="a_node6"><a xlink:href="interfaceSCR__FuelSupportStationComponentClass.html" target="_top" xlink:title=" ">
<polygon fill="white" stroke="#666666" points="542,-126 367,-126 367,-96 542,-96 542,-126"/>
<text text-anchor="start" x="375" y="-114" font-family="Helvetica,sans-Serif" font-size="10.00">SCR_FuelSupportStationComponent</text>
<text text-anchor="middle" x="454.5" y="-103" font-family="Helvetica,sans-Serif" font-size="10.00">Class</text>
</a>
</g>
</g>
<!-- Node1&#45;&gt;Node6 -->
<g id="edge5" class="edge">
<title>Node1&#45;&gt;Node6</title>
<path fill="none" stroke="#63b8ff" d="M342.14,-98.33C350.36,-99.27 358.64,-100.21 366.76,-101.13"/>
<polygon fill="#63b8ff" stroke="#63b8ff" points="342.7,-94.76 332.37,-97.11 341.91,-101.72 342.7,-94.76"/>
</g>
<!-- Node7 -->
<g id="node7" class="node">
<title>Node7</title>
<g id="a_node7"><a xlink:href="interfaceSCR__LoadCasualtySupportStationComponentClass.html" target="_top" xlink:title=" ">
<polygon fill="white" stroke="#666666" points="537.5,-78 371.5,-78 371.5,-48 537.5,-48 537.5,-78"/>
<text text-anchor="start" x="379.5" y="-66" font-family="Helvetica,sans-Serif" font-size="10.00">SCR_LoadCasualtySupportStation</text>
<text text-anchor="middle" x="454.5" y="-55" font-family="Helvetica,sans-Serif" font-size="10.00">ComponentClass</text>
</a>
</g>
</g>
<!-- Node1&#45;&gt;Node7 -->
<g id="edge6" class="edge">
<title>Node1&#45;&gt;Node7</title>
<path fill="none" stroke="#63b8ff" d="M342.24,-75.65C351.91,-74.56 361.65,-73.45 371.12,-72.37"/>
<polygon fill="#63b8ff" stroke="#63b8ff" points="341.91,-72.28 332.37,-76.89 342.7,-79.24 341.91,-72.28"/>
</g>
<!-- Node8 -->
<g id="node8" class="node">
<title>Node8</title>
<g id="a_node8"><a xlink:href="interfaceSCR__ResupplySupportStationComponentClass.html" target="_top" xlink:title=" ">
<polygon fill="white" stroke="#666666" points="528,-30 381,-30 381,0 528,0 528,-30"/>
<text text-anchor="start" x="389" y="-18" font-family="Helvetica,sans-Serif" font-size="10.00">SCR_ResupplySupportStation</text>
<text text-anchor="middle" x="454.5" y="-7" font-family="Helvetica,sans-Serif" font-size="10.00">ComponentClass</text>
</a>
</g>
</g>
<!-- Node1&#45;&gt;Node8 -->
<g id="edge7" class="edge">
<title>Node1&#45;&gt;Node8</title>
<path fill="none" stroke="#63b8ff" d="M289.95,-67.46C313.02,-58.28 341.25,-47.51 367,-39 376.03,-36.02 385.66,-33.09 395.1,-30.37"/>
<polygon fill="#63b8ff" stroke="#63b8ff" points="288.73,-64.58 280.75,-71.55 291.33,-71.07 288.73,-64.58"/>
</g>
<!-- Node2 -->
<g id="node2" class="node">
<title>Node2</title>
<g id="a_node2"><a xlink:title=" ">
<polygon fill="white" stroke="#666666" points="116,-96.5 0,-96.5 0,-77.5 116,-77.5 116,-96.5"/>
<text text-anchor="middle" x="58" y="-84.5" font-family="Helvetica,sans-Serif" font-size="10.00">ScriptComponentClass</text>
</a>
</g>
</g>
<!-- Node2&#45;&gt;Node1 -->
<g id="edge1" class="edge">
<title>Node2&#45;&gt;Node1</title>
<path fill="none" stroke="#63b8ff" d="M127.42,-87C135.33,-87 143.48,-87 151.61,-87"/>
<polygon fill="#63b8ff" stroke="#63b8ff" points="127.43,-83.5 117.43,-87 127.43,-90.5 127.43,-83.5"/>
</g>
<!-- Node4 -->
<g id="node4" class="node">
<title>Node4</title>
<g id="a_node4"><a xlink:href="interfaceSCR__HealSupportStationComponentClass.html" target="_top" xlink:title=" ">
<polygon fill="white" stroke="#666666" points="754,-198 578,-198 578,-168 754,-168 754,-198"/>
<text text-anchor="start" x="586" y="-186" font-family="Helvetica,sans-Serif" font-size="10.00">SCR_HealSupportStationComponent</text>
<text text-anchor="middle" x="666" y="-175" font-family="Helvetica,sans-Serif" font-size="10.00">Class</text>
</a>
</g>
</g>
<!-- Node3&#45;&gt;Node4 -->
<g id="edge3" class="edge">
<title>Node3&#45;&gt;Node4</title>
<path fill="none" stroke="#63b8ff" d="M542.38,-168.95C554.09,-170.29 566.11,-171.67 577.82,-173.01"/>
<polygon fill="#63b8ff" stroke="#63b8ff" points="543.06,-165.39 532.73,-167.73 542.26,-172.35 543.06,-165.39"/>
</g>
<!-- Node5 -->
<g id="node5" class="node">
<title>Node5</title>
<g id="a_node5"><a xlink:href="interfaceSCR__RepairSupportStationComponentClass.html" target="_top" xlink:title=" ">
<polygon fill="white" stroke="#666666" points="733,-150 599,-150 599,-120 733,-120 733,-150"/>
<text text-anchor="start" x="607" y="-138" font-family="Helvetica,sans-Serif" font-size="10.00">SCR_RepairSupportStation</text>
<text text-anchor="middle" x="666" y="-127" font-family="Helvetica,sans-Serif" font-size="10.00">ComponentClass</text>
</a>
</g>
</g>
<!-- Node3&#45;&gt;Node5 -->
<g id="edge4" class="edge">
<title>Node3&#45;&gt;Node5</title>
<path fill="none" stroke="#63b8ff" d="M542.62,-149.02C561.31,-146.88 580.76,-144.65 598.52,-142.62"/>
<polygon fill="#63b8ff" stroke="#63b8ff" points="542.26,-145.65 532.73,-150.27 543.06,-152.61 542.26,-145.65"/>
</g>
<!-- Node9 -->
<g id="node9" class="node">
<title>Node9</title>
<g id="a_node9"><a xlink:href="interfaceSCR__ResupplyMedicalGadgetSupportStationComponentClass.html" target="_top" xlink:title=" ">
<polygon fill="white" stroke="#666666" points="743.5,-30 588.5,-30 588.5,0 743.5,0 743.5,-30"/>
<text text-anchor="start" x="596.5" y="-18" font-family="Helvetica,sans-Serif" font-size="10.00">SCR_ResupplyMedicalGadget</text>
<text text-anchor="middle" x="666" y="-7" font-family="Helvetica,sans-Serif" font-size="10.00">SupportStationComponentClass</text>
</a>
</g>
</g>
<!-- Node8&#45;&gt;Node9 -->
<g id="edge8" class="edge">
<title>Node8&#45;&gt;Node9</title>
<path fill="none" stroke="#63b8ff" d="M539.45,-15C555.49,-15 572.2,-15 588.01,-15"/>
<polygon fill="#63b8ff" stroke="#63b8ff" points="539.48,-11.5 529.48,-15 539.48,-18.5 539.48,-11.5"/>
</g>
</g>
</svg>
