<?xml version="1.0" encoding="UTF-8" standalone="no"?>
<!DOCTYPE svg PUBLIC "-//W3C//DTD SVG 1.1//EN"
 "http://www.w3.org/Graphics/SVG/1.1/DTD/svg11.dtd">
<!-- Generated by graphviz version 8.0.2 (20230410.1723)
 -->
<!-- Title: SCR_AIGroupFactionEditorAttribute Pages: 1 -->
<svg width="177pt" height="269pt"
 viewBox="0.00 0.00 177.00 269.00" xmlns="http://www.w3.org/2000/svg" xmlns:xlink="http://www.w3.org/1999/xlink">
<g id="graph0" class="graph" transform="scale(1 1) rotate(0) translate(4 265)">
<title>SCR_AIGroupFactionEditorAttribute</title>
<!-- Node1 -->
<g id="node1" class="node">
<title>Node1</title>
<g id="a_node1"><a xlink:title="Group Faction Attribute for getting and setting varriables in Editor Attribute window.">
<polygon fill="#999999" stroke="#666666" points="152,-30 17,-30 17,0 152,0 152,-30"/>
<text text-anchor="start" x="25" y="-18" font-family="Helvetica,sans-Serif" font-size="10.00">SCR_AIGroupFactionEditor</text>
<text text-anchor="middle" x="84.5" y="-7" font-family="Helvetica,sans-Serif" font-size="10.00">Attribute</text>
</a>
</g>
</g>
<!-- Node2 -->
<g id="node2" class="node">
<title>Node2</title>
<g id="a_node2"><a xlink:href="interfaceSCR__BaseFactionEditableAttribute.html" target="_top" xlink:title="Group Faction Attribute for getting and setting varriables in Editor Attribute window.">
<polygon fill="white" stroke="#666666" points="169,-85 0,-85 0,-66 169,-66 169,-85"/>
<text text-anchor="middle" x="84.5" y="-73" font-family="Helvetica,sans-Serif" font-size="10.00">SCR_BaseFactionEditableAttribute</text>
</a>
</g>
</g>
<!-- Node2&#45;&gt;Node1 -->
<g id="edge1" class="edge">
<title>Node2&#45;&gt;Node1</title>
<path fill="none" stroke="#63b8ff" d="M84.5,-55.08C84.5,-46.92 84.5,-37.6 84.5,-30.11"/>
<polygon fill="#63b8ff" stroke="#63b8ff" points="81,-54.87 84.5,-64.87 88,-54.87 81,-54.87"/>
</g>
<!-- Node3 -->
<g id="node3" class="node">
<title>Node3</title>
<g id="a_node3"><a xlink:href="interfaceSCR__BasePresetsEditorAttribute.html" target="_top" xlink:title="Attribute base for Name, icon and float value for other attributes to inherent from.">
<polygon fill="white" stroke="#666666" points="165,-140 4,-140 4,-121 165,-121 165,-140"/>
<text text-anchor="middle" x="84.5" y="-128" font-family="Helvetica,sans-Serif" font-size="10.00">SCR_BasePresetsEditorAttribute</text>
</a>
</g>
</g>
<!-- Node3&#45;&gt;Node2 -->
<g id="edge2" class="edge">
<title>Node3&#45;&gt;Node2</title>
<path fill="none" stroke="#63b8ff" d="M84.5,-109.93C84.5,-101.53 84.5,-92.13 84.5,-85.44"/>
<polygon fill="#63b8ff" stroke="#63b8ff" points="81,-109.75 84.5,-119.75 88,-109.75 81,-109.75"/>
</g>
<!-- Node4 -->
<g id="node4" class="node">
<title>Node4</title>
<g id="a_node4"><a xlink:href="interfaceSCR__BaseFloatValueHolderEditorAttribute.html" target="_top" xlink:title="Attribute base for Name, icon and float value for other attributes to inherent from.">
<polygon fill="white" stroke="#666666" points="154,-206 15,-206 15,-176 154,-176 154,-206"/>
<text text-anchor="start" x="23" y="-194" font-family="Helvetica,sans-Serif" font-size="10.00">SCR_BaseFloatValueHolder</text>
<text text-anchor="middle" x="84.5" y="-183" font-family="Helvetica,sans-Serif" font-size="10.00">EditorAttribute</text>
</a>
</g>
</g>
<!-- Node4&#45;&gt;Node3 -->
<g id="edge3" class="edge">
<title>Node4&#45;&gt;Node3</title>
<path fill="none" stroke="#63b8ff" d="M84.5,-164.59C84.5,-155.85 84.5,-146.65 84.5,-140.18"/>
<polygon fill="#63b8ff" stroke="#63b8ff" points="81,-164.54 84.5,-174.54 88,-164.54 81,-164.54"/>
</g>
<!-- Node5 -->
<g id="node5" class="node">
<title>Node5</title>
<g id="a_node5"><a xlink:href="interfaceSCR__BaseEditorAttribute.html" target="_top" xlink:title="Base Attribute Script for other attributes to inherent from to get and set varriables in Editor Attri...">
<polygon fill="white" stroke="#666666" points="148,-261 21,-261 21,-242 148,-242 148,-261"/>
<text text-anchor="middle" x="84.5" y="-249" font-family="Helvetica,sans-Serif" font-size="10.00">SCR_BaseEditorAttribute</text>
</a>
</g>
</g>
<!-- Node5&#45;&gt;Node4 -->
<g id="edge4" class="edge">
<title>Node5&#45;&gt;Node4</title>
<path fill="none" stroke="#63b8ff" d="M84.5,-231.08C84.5,-222.92 84.5,-213.6 84.5,-206.11"/>
<polygon fill="#63b8ff" stroke="#63b8ff" points="81,-230.87 84.5,-240.87 88,-230.87 81,-230.87"/>
</g>
</g>
</svg>
