<?xml version="1.0" encoding="UTF-8" standalone="no"?>
<!DOCTYPE svg PUBLIC "-//W3C//DTD SVG 1.1//EN"
 "http://www.w3.org/Graphics/SVG/1.1/DTD/svg11.dtd">
<!-- Generated by graphviz version 8.0.2 (20230410.1723)
 -->
<!-- Title: SCR_HealSupportStationAction Pages: 1 -->
<svg width="162pt" height="379pt"
 viewBox="0.00 0.00 162.00 379.00" xmlns="http://www.w3.org/2000/svg" xmlns:xlink="http://www.w3.org/1999/xlink">
<g id="graph0" class="graph" transform="scale(1 1) rotate(0) translate(4 375)">
<title>SCR_HealSupportStationAction</title>
<!-- Node1 -->
<g id="node1" class="node">
<title>Node1</title>
<g id="a_node1"><a xlink:title=" ">
<polygon fill="#999999" stroke="#666666" points="154,-19 0,-19 0,0 154,0 154,-19"/>
<text text-anchor="middle" x="77" y="-7" font-family="Helvetica,sans-Serif" font-size="10.00">SCR_HealSupportStationAction</text>
</a>
</g>
</g>
<!-- Node2 -->
<g id="node2" class="node">
<title>Node2</title>
<g id="a_node2"><a xlink:href="interfaceSCR__BaseDamageHealSupportStationAction.html" target="_top" xlink:title="Allows healing of action owner (not user)">
<polygon fill="white" stroke="#666666" points="154,-85 0,-85 0,-55 154,-55 154,-85"/>
<text text-anchor="start" x="8" y="-73" font-family="Helvetica,sans-Serif" font-size="10.00">SCR_BaseDamageHealSupport</text>
<text text-anchor="middle" x="77" y="-62" font-family="Helvetica,sans-Serif" font-size="10.00">StationAction</text>
</a>
</g>
</g>
<!-- Node2&#45;&gt;Node1 -->
<g id="edge1" class="edge">
<title>Node2&#45;&gt;Node1</title>
<path fill="none" stroke="#63b8ff" d="M77,-43.59C77,-34.85 77,-25.65 77,-19.18"/>
<polygon fill="#63b8ff" stroke="#63b8ff" points="73.5,-43.54 77,-53.54 80.5,-43.54 73.5,-43.54"/>
</g>
<!-- Node3 -->
<g id="node3" class="node">
<title>Node3</title>
<g id="a_node3"><a xlink:href="interfaceSCR__BaseUseSupportStationAction.html" target="_top" xlink:title=" ">
<polygon fill="white" stroke="#666666" points="150,-151 4,-151 4,-121 150,-121 150,-151"/>
<text text-anchor="start" x="12" y="-139" font-family="Helvetica,sans-Serif" font-size="10.00">SCR_BaseUseSupportStation</text>
<text text-anchor="middle" x="77" y="-128" font-family="Helvetica,sans-Serif" font-size="10.00">Action</text>
</a>
</g>
</g>
<!-- Node3&#45;&gt;Node2 -->
<g id="edge2" class="edge">
<title>Node3&#45;&gt;Node2</title>
<path fill="none" stroke="#63b8ff" d="M77,-109.97C77,-101.55 77,-92.45 77,-85.16"/>
<polygon fill="#63b8ff" stroke="#63b8ff" points="73.5,-109.8 77,-119.8 80.5,-109.8 73.5,-109.8"/>
</g>
<!-- Node4 -->
<g id="node4" class="node">
<title>Node4</title>
<g id="a_node4"><a xlink:href="interfaceSCR__ScriptedUserAction.html" target="_top" xlink:title="A scripted action class having optional logic to check if vehicle is valid.">
<polygon fill="white" stroke="#666666" points="140,-206 14,-206 14,-187 140,-187 140,-206"/>
<text text-anchor="middle" x="77" y="-194" font-family="Helvetica,sans-Serif" font-size="10.00">SCR_ScriptedUserAction</text>
</a>
</g>
</g>
<!-- Node4&#45;&gt;Node3 -->
<g id="edge3" class="edge">
<title>Node4&#45;&gt;Node3</title>
<path fill="none" stroke="#63b8ff" d="M77,-176.08C77,-167.92 77,-158.6 77,-151.11"/>
<polygon fill="#63b8ff" stroke="#63b8ff" points="73.5,-175.87 77,-185.87 80.5,-175.87 73.5,-175.87"/>
</g>
<!-- Node5 -->
<g id="node5" class="node">
<title>Node5</title>
<g id="a_node5"><a xlink:href="interfaceScriptedUserAction.html" target="_top" xlink:title=" ">
<polygon fill="white" stroke="#666666" points="127.5,-261 26.5,-261 26.5,-242 127.5,-242 127.5,-261"/>
<text text-anchor="middle" x="77" y="-249" font-family="Helvetica,sans-Serif" font-size="10.00">ScriptedUserAction</text>
</a>
</g>
</g>
<!-- Node5&#45;&gt;Node4 -->
<g id="edge4" class="edge">
<title>Node5&#45;&gt;Node4</title>
<path fill="none" stroke="#63b8ff" d="M77,-230.93C77,-222.53 77,-213.13 77,-206.44"/>
<polygon fill="#63b8ff" stroke="#63b8ff" points="73.5,-230.75 77,-240.75 80.5,-230.75 73.5,-230.75"/>
</g>
<!-- Node6 -->
<g id="node6" class="node">
<title>Node6</title>
<g id="a_node6"><a xlink:href="interfaceBaseUserAction.html" target="_top" xlink:title=" ">
<polygon fill="white" stroke="#666666" points="120.5,-316 33.5,-316 33.5,-297 120.5,-297 120.5,-316"/>
<text text-anchor="middle" x="77" y="-304" font-family="Helvetica,sans-Serif" font-size="10.00">BaseUserAction</text>
</a>
</g>
</g>
<!-- Node6&#45;&gt;Node5 -->
<g id="edge5" class="edge">
<title>Node6&#45;&gt;Node5</title>
<path fill="none" stroke="#63b8ff" d="M77,-285.93C77,-277.53 77,-268.13 77,-261.44"/>
<polygon fill="#63b8ff" stroke="#63b8ff" points="73.5,-285.75 77,-295.75 80.5,-285.75 73.5,-285.75"/>
</g>
<!-- Node7 -->
<g id="node7" class="node">
<title>Node7</title>
<g id="a_node7"><a xlink:title=" ">
<polygon fill="white" stroke="#666666" points="120,-371 34,-371 34,-352 120,-352 120,-371"/>
<text text-anchor="middle" x="77" y="-359" font-family="Helvetica,sans-Serif" font-size="10.00">ScriptAndConfig</text>
</a>
</g>
</g>
<!-- Node7&#45;&gt;Node6 -->
<g id="edge6" class="edge">
<title>Node7&#45;&gt;Node6</title>
<path fill="none" stroke="#63b8ff" d="M77,-340.93C77,-332.53 77,-323.13 77,-316.44"/>
<polygon fill="#63b8ff" stroke="#63b8ff" points="73.5,-340.75 77,-350.75 80.5,-340.75 73.5,-340.75"/>
</g>
</g>
</svg>
