<?xml version="1.0" encoding="UTF-8" standalone="no"?>
<!DOCTYPE svg PUBLIC "-//W3C//DTD SVG 1.1//EN"
 "http://www.w3.org/Graphics/SVG/1.1/DTD/svg11.dtd">
<!-- Generated by graphviz version 8.0.2 (20230410.1723)
 -->
<!-- Title: LoadoutAreaType Pages: 1 -->
<svg width="550pt" height="471pt"
 viewBox="0.00 0.00 550.00 471.00" xmlns="http://www.w3.org/2000/svg" xmlns:xlink="http://www.w3.org/1999/xlink">
<g id="graph0" class="graph" transform="scale(1 1) rotate(0) translate(4 467)">
<title>LoadoutAreaType</title>
<!-- Node1 -->
<g id="node1" class="node">
<title>Node1</title>
<g id="a_node1"><a xlink:title=" ">
<polygon fill="#999999" stroke="#666666" points="360,-241 268,-241 268,-222 360,-222 360,-241"/>
<text text-anchor="middle" x="314" y="-229" font-family="Helvetica,sans-Serif" font-size="10.00">LoadoutAreaType</text>
</a>
</g>
</g>
<!-- Node4 -->
<g id="node4" class="node">
<title>Node4</title>
<g id="a_node4"><a xlink:href="interfaceLoadoutArmoredVestSlotArea.html" target="_top" xlink:title=" ">
<polygon fill="white" stroke="#666666" points="542,-463 396,-463 396,-444 542,-444 542,-463"/>
<text text-anchor="middle" x="469" y="-451" font-family="Helvetica,sans-Serif" font-size="10.00">LoadoutArmoredVestSlotArea</text>
</a>
</g>
</g>
<!-- Node1&#45;&gt;Node4 -->
<g id="edge3" class="edge">
<title>Node1&#45;&gt;Node4</title>
<path fill="none" stroke="#63b8ff" d="M317.06,-252.23C322.31,-293.56 340.01,-386.5 396,-435.5 399.68,-438.72 403.86,-441.39 408.3,-443.59"/>
<polygon fill="#63b8ff" stroke="#63b8ff" points="320.43,-251.91 315.82,-242.37 313.48,-252.7 320.43,-251.91"/>
</g>
<!-- Node5 -->
<g id="node5" class="node">
<title>Node5</title>
<g id="a_node5"><a xlink:href="interfaceLoadoutBackpackArea.html" target="_top" xlink:title=" ">
<polygon fill="white" stroke="#666666" points="526.5,-426 411.5,-426 411.5,-407 526.5,-407 526.5,-426"/>
<text text-anchor="middle" x="469" y="-414" font-family="Helvetica,sans-Serif" font-size="10.00">LoadoutBackpackArea</text>
</a>
</g>
</g>
<!-- Node1&#45;&gt;Node5 -->
<g id="edge4" class="edge">
<title>Node1&#45;&gt;Node5</title>
<path fill="none" stroke="#63b8ff" d="M318.95,-251.62C326.97,-286.94 348.58,-359.99 396,-398.5 400.5,-402.16 405.64,-405.08 411.06,-407.42"/>
<polygon fill="#63b8ff" stroke="#63b8ff" points="322.24,-251.25 316.74,-242.19 315.39,-252.7 322.24,-251.25"/>
</g>
<!-- Node6 -->
<g id="node6" class="node">
<title>Node6</title>
<g id="a_node6"><a xlink:href="interfaceLoadoutBinocularsArea.html" target="_top" xlink:title=" ">
<polygon fill="white" stroke="#666666" points="527.5,-389 410.5,-389 410.5,-370 527.5,-370 527.5,-389"/>
<text text-anchor="middle" x="469" y="-377" font-family="Helvetica,sans-Serif" font-size="10.00">LoadoutBinocularsArea</text>
</a>
</g>
</g>
<!-- Node1&#45;&gt;Node6 -->
<g id="edge5" class="edge">
<title>Node1&#45;&gt;Node6</title>
<path fill="none" stroke="#63b8ff" d="M321.93,-251.58C332.95,-280.45 357.28,-333.31 396,-361.5 400.48,-364.76 405.48,-367.43 410.71,-369.63"/>
<polygon fill="#63b8ff" stroke="#63b8ff" points="324.95,-250.66 318.24,-242.46 318.38,-253.05 324.95,-250.66"/>
</g>
<!-- Node7 -->
<g id="node7" class="node">
<title>Node7</title>
<g id="a_node7"><a xlink:href="interfaceLoadoutBootsArea.html" target="_top" xlink:title=" ">
<polygon fill="white" stroke="#666666" points="517.5,-352 420.5,-352 420.5,-333 517.5,-333 517.5,-352"/>
<text text-anchor="middle" x="469" y="-340" font-family="Helvetica,sans-Serif" font-size="10.00">LoadoutBootsArea</text>
</a>
</g>
</g>
<!-- Node1&#45;&gt;Node7 -->
<g id="edge6" class="edge">
<title>Node1&#45;&gt;Node7</title>
<path fill="none" stroke="#63b8ff" d="M326.39,-250.45C340.19,-271.74 365.42,-305.77 396,-324.5 403.36,-329.01 411.8,-332.39 420.25,-334.93"/>
<polygon fill="#63b8ff" stroke="#63b8ff" points="329,-249.02 320.72,-242.4 323.06,-252.74 329,-249.02"/>
</g>
<!-- Node8 -->
<g id="node8" class="node">
<title>Node8</title>
<g id="a_node8"><a xlink:href="interfaceLoadoutCoverArea.html" target="_top" xlink:title=" ">
<polygon fill="white" stroke="#666666" points="516.5,-315 421.5,-315 421.5,-296 516.5,-296 516.5,-315"/>
<text text-anchor="middle" x="469" y="-303" font-family="Helvetica,sans-Serif" font-size="10.00">LoadoutCoverArea</text>
</a>
</g>
</g>
<!-- Node1&#45;&gt;Node8 -->
<g id="edge7" class="edge">
<title>Node1&#45;&gt;Node8</title>
<path fill="none" stroke="#63b8ff" d="M334.87,-248.29C350.55,-260.76 373.48,-277.31 396,-287.5 403.86,-291.06 412.54,-293.99 421.07,-296.37"/>
<polygon fill="#63b8ff" stroke="#63b8ff" points="337.49,-245.1 327.53,-241.5 333.07,-250.53 337.49,-245.1"/>
</g>
<!-- Node9 -->
<g id="node9" class="node">
<title>Node9</title>
<g id="a_node9"><a xlink:href="interfaceLoadoutGooglesArea.html" target="_top" xlink:title=" ">
<polygon fill="white" stroke="#666666" points="522.5,-278 415.5,-278 415.5,-259 522.5,-259 522.5,-278"/>
<text text-anchor="middle" x="469" y="-266" font-family="Helvetica,sans-Serif" font-size="10.00">LoadoutGooglesArea</text>
</a>
</g>
</g>
<!-- Node1&#45;&gt;Node9 -->
<g id="edge8" class="edge">
<title>Node1&#45;&gt;Node9</title>
<path fill="none" stroke="#63b8ff" d="M366.62,-243.98C386.26,-248.73 408.35,-254.07 426.89,-258.56"/>
<polygon fill="#63b8ff" stroke="#63b8ff" points="367.54,-240.36 357,-241.42 365.9,-247.17 367.54,-240.36"/>
</g>
<!-- Node10 -->
<g id="node10" class="node">
<title>Node10</title>
<g id="a_node10"><a xlink:href="interfaceLoadoutHandwearSlotArea.html" target="_top" xlink:title=" ">
<polygon fill="white" stroke="#666666" points="534.5,-241 403.5,-241 403.5,-222 534.5,-222 534.5,-241"/>
<text text-anchor="middle" x="469" y="-229" font-family="Helvetica,sans-Serif" font-size="10.00">LoadoutHandwearSlotArea</text>
</a>
</g>
</g>
<!-- Node1&#45;&gt;Node10 -->
<g id="edge9" class="edge">
<title>Node1&#45;&gt;Node10</title>
<path fill="none" stroke="#63b8ff" d="M371.44,-231.5C381.76,-231.5 392.61,-231.5 403.15,-231.5"/>
<polygon fill="#63b8ff" stroke="#63b8ff" points="371.49,-228 361.49,-231.5 371.49,-235 371.49,-228"/>
</g>
<!-- Node11 -->
<g id="node11" class="node">
<title>Node11</title>
<g id="a_node11"><a xlink:href="interfaceLoadoutHeadCoverArea.html" target="_top" xlink:title=" ">
<polygon fill="white" stroke="#666666" points="528,-204 410,-204 410,-185 528,-185 528,-204"/>
<text text-anchor="middle" x="469" y="-192" font-family="Helvetica,sans-Serif" font-size="10.00">LoadoutHeadCoverArea</text>
</a>
</g>
</g>
<!-- Node1&#45;&gt;Node11 -->
<g id="edge10" class="edge">
<title>Node1&#45;&gt;Node11</title>
<path fill="none" stroke="#63b8ff" d="M366.62,-219.02C386.26,-214.27 408.35,-208.93 426.89,-204.44"/>
<polygon fill="#63b8ff" stroke="#63b8ff" points="365.9,-215.83 357,-221.58 367.54,-222.64 365.9,-215.83"/>
</g>
<!-- Node12 -->
<g id="node12" class="node">
<title>Node12</title>
<g id="a_node12"><a xlink:href="interfaceLoadoutJacketArea.html" target="_top" xlink:title=" ">
<polygon fill="white" stroke="#666666" points="519,-167 419,-167 419,-148 519,-148 519,-167"/>
<text text-anchor="middle" x="469" y="-155" font-family="Helvetica,sans-Serif" font-size="10.00">LoadoutJacketArea</text>
</a>
</g>
</g>
<!-- Node1&#45;&gt;Node12 -->
<g id="edge11" class="edge">
<title>Node1&#45;&gt;Node12</title>
<path fill="none" stroke="#63b8ff" d="M334.87,-214.71C350.55,-202.24 373.48,-185.69 396,-175.5 403.16,-172.26 411,-169.54 418.78,-167.28"/>
<polygon fill="#63b8ff" stroke="#63b8ff" points="333.07,-212.47 327.53,-221.5 337.49,-217.9 333.07,-212.47"/>
</g>
<!-- Node13 -->
<g id="node13" class="node">
<title>Node13</title>
<g id="a_node13"><a xlink:href="interfaceLoadoutPantsArea.html" target="_top" xlink:title=" ">
<polygon fill="white" stroke="#666666" points="517.5,-130 420.5,-130 420.5,-111 517.5,-111 517.5,-130"/>
<text text-anchor="middle" x="469" y="-118" font-family="Helvetica,sans-Serif" font-size="10.00">LoadoutPantsArea</text>
</a>
</g>
</g>
<!-- Node1&#45;&gt;Node13 -->
<g id="edge12" class="edge">
<title>Node1&#45;&gt;Node13</title>
<path fill="none" stroke="#63b8ff" d="M326.39,-212.55C340.19,-191.26 365.42,-157.23 396,-138.5 403.36,-133.99 411.8,-130.61 420.25,-128.07"/>
<polygon fill="#63b8ff" stroke="#63b8ff" points="323.06,-210.26 320.72,-220.6 329,-213.98 323.06,-210.26"/>
</g>
<!-- Node14 -->
<g id="node14" class="node">
<title>Node14</title>
<g id="a_node14"><a xlink:href="interfaceLoadoutSalineBagArea.html" target="_top" xlink:title=" ">
<polygon fill="white" stroke="#666666" points="527,-93 411,-93 411,-74 527,-74 527,-93"/>
<text text-anchor="middle" x="469" y="-81" font-family="Helvetica,sans-Serif" font-size="10.00">LoadoutSalineBagArea</text>
</a>
</g>
</g>
<!-- Node1&#45;&gt;Node14 -->
<g id="edge13" class="edge">
<title>Node1&#45;&gt;Node14</title>
<path fill="none" stroke="#63b8ff" d="M321.93,-211.42C332.95,-182.55 357.28,-129.69 396,-101.5 400.48,-98.24 405.48,-95.57 410.71,-93.37"/>
<polygon fill="#63b8ff" stroke="#63b8ff" points="318.38,-209.95 318.24,-220.54 324.95,-212.34 318.38,-209.95"/>
</g>
<!-- Node15 -->
<g id="node15" class="node">
<title>Node15</title>
<g id="a_node15"><a xlink:href="interfaceLoadoutVestArea.html" target="_top" xlink:title=" ">
<polygon fill="white" stroke="#666666" points="515,-56 423,-56 423,-37 515,-37 515,-56"/>
<text text-anchor="middle" x="469" y="-44" font-family="Helvetica,sans-Serif" font-size="10.00">LoadoutVestArea</text>
</a>
</g>
</g>
<!-- Node1&#45;&gt;Node15 -->
<g id="edge14" class="edge">
<title>Node1&#45;&gt;Node15</title>
<path fill="none" stroke="#63b8ff" d="M318.95,-211.38C326.97,-176.06 348.58,-103.01 396,-64.5 403.6,-58.33 413.04,-54.23 422.54,-51.53"/>
<polygon fill="#63b8ff" stroke="#63b8ff" points="315.39,-210.3 316.74,-220.81 322.24,-211.75 315.39,-210.3"/>
</g>
<!-- Node16 -->
<g id="node16" class="node">
<title>Node16</title>
<g id="a_node16"><a xlink:href="interfaceLoadoutWatchArea.html" target="_top" xlink:title=" ">
<polygon fill="white" stroke="#666666" points="519,-19 419,-19 419,0 519,0 519,-19"/>
<text text-anchor="middle" x="469" y="-7" font-family="Helvetica,sans-Serif" font-size="10.00">LoadoutWatchArea</text>
</a>
</g>
</g>
<!-- Node1&#45;&gt;Node16 -->
<g id="edge15" class="edge">
<title>Node1&#45;&gt;Node16</title>
<path fill="none" stroke="#63b8ff" d="M317.06,-210.77C322.31,-169.44 340.01,-76.5 396,-27.5 402.5,-21.81 410.52,-17.87 418.84,-15.15"/>
<polygon fill="#63b8ff" stroke="#63b8ff" points="313.48,-210.3 315.82,-220.63 320.43,-211.09 313.48,-210.3"/>
</g>
<!-- Node2 -->
<g id="node2" class="node">
<title>Node2</title>
<g id="a_node2"><a xlink:href="interfaceBaseAttachmentType.html" target="_top" xlink:title=" ">
<polygon fill="white" stroke="#666666" points="232,-241 122,-241 122,-222 232,-222 232,-241"/>
<text text-anchor="middle" x="177" y="-229" font-family="Helvetica,sans-Serif" font-size="10.00">BaseAttachmentType</text>
</a>
</g>
</g>
<!-- Node2&#45;&gt;Node1 -->
<g id="edge1" class="edge">
<title>Node2&#45;&gt;Node1</title>
<path fill="none" stroke="#63b8ff" d="M242.97,-231.5C251.28,-231.5 259.63,-231.5 267.53,-231.5"/>
<polygon fill="#63b8ff" stroke="#63b8ff" points="243.13,-228 233.13,-231.5 243.13,-235 243.13,-228"/>
</g>
<!-- Node3 -->
<g id="node3" class="node">
<title>Node3</title>
<g id="a_node3"><a xlink:title=" ">
<polygon fill="white" stroke="#666666" points="86,-241 0,-241 0,-222 86,-222 86,-241"/>
<text text-anchor="middle" x="43" y="-229" font-family="Helvetica,sans-Serif" font-size="10.00">ScriptAndConfig</text>
</a>
</g>
</g>
<!-- Node3&#45;&gt;Node2 -->
<g id="edge2" class="edge">
<title>Node3&#45;&gt;Node2</title>
<path fill="none" stroke="#63b8ff" d="M97.48,-231.5C105.4,-231.5 113.57,-231.5 121.52,-231.5"/>
<polygon fill="#63b8ff" stroke="#63b8ff" points="97.49,-228 87.49,-231.5 97.49,-235 97.49,-228"/>
</g>
</g>
</svg>
