<?xml version="1.0" encoding="UTF-8" standalone="no"?>
<!DOCTYPE svg PUBLIC "-//W3C//DTD SVG 1.1//EN"
 "http://www.w3.org/Graphics/SVG/1.1/DTD/svg11.dtd">
<!-- Generated by graphviz version 8.0.2 (20230410.1723)
 -->
<!-- Title: SCR_AIMessage_Target Pages: 1 -->
<svg width="131pt" height="192pt"
 viewBox="0.00 0.00 131.00 192.00" xmlns="http://www.w3.org/2000/svg" xmlns:xlink="http://www.w3.org/1999/xlink">
<g id="graph0" class="graph" transform="scale(1 1) rotate(0) translate(4 188)">
<title>SCR_AIMessage_Target</title>
<!-- Node1 -->
<g id="node1" class="node">
<title>Node1</title>
<g id="a_node1"><a xlink:title=" ">
<polygon fill="#999999" stroke="#666666" points="123,-19 0,-19 0,0 123,0 123,-19"/>
<text text-anchor="middle" x="61.5" y="-7" font-family="Helvetica,sans-Serif" font-size="10.00">SCR_AIMessage_Target</text>
</a>
</g>
</g>
<!-- Node2 -->
<g id="node2" class="node">
<title>Node2</title>
<g id="a_node2"><a xlink:href="interfaceSCR__AIMessageInfo.html" target="_top" xlink:title=" ">
<polygon fill="white" stroke="#666666" points="114.5,-74 8.5,-74 8.5,-55 114.5,-55 114.5,-74"/>
<text text-anchor="middle" x="61.5" y="-62" font-family="Helvetica,sans-Serif" font-size="10.00">SCR_AIMessageInfo</text>
</a>
</g>
</g>
<!-- Node2&#45;&gt;Node1 -->
<g id="edge1" class="edge">
<title>Node2&#45;&gt;Node1</title>
<path fill="none" stroke="#63b8ff" d="M61.5,-43.93C61.5,-35.53 61.5,-26.13 61.5,-19.44"/>
<polygon fill="#63b8ff" stroke="#63b8ff" points="58,-43.75 61.5,-53.75 65,-43.75 58,-43.75"/>
</g>
<!-- Node3 -->
<g id="node3" class="node">
<title>Node3</title>
<g id="a_node3"><a xlink:href="interfaceSCR__AIMessageBase.html" target="_top" xlink:title=" ">
<polygon fill="white" stroke="#666666" points="118,-129 5,-129 5,-110 118,-110 118,-129"/>
<text text-anchor="middle" x="61.5" y="-117" font-family="Helvetica,sans-Serif" font-size="10.00">SCR_AIMessageBase</text>
</a>
</g>
</g>
<!-- Node3&#45;&gt;Node2 -->
<g id="edge2" class="edge">
<title>Node3&#45;&gt;Node2</title>
<path fill="none" stroke="#63b8ff" d="M61.5,-98.93C61.5,-90.53 61.5,-81.13 61.5,-74.44"/>
<polygon fill="#63b8ff" stroke="#63b8ff" points="58,-98.75 61.5,-108.75 65,-98.75 58,-98.75"/>
</g>
<!-- Node4 -->
<g id="node4" class="node">
<title>Node4</title>
<g id="a_node4"><a xlink:title=" ">
<polygon fill="white" stroke="#666666" points="94,-184 29,-184 29,-165 94,-165 94,-184"/>
<text text-anchor="middle" x="61.5" y="-172" font-family="Helvetica,sans-Serif" font-size="10.00">AIMessage</text>
</a>
</g>
</g>
<!-- Node4&#45;&gt;Node3 -->
<g id="edge3" class="edge">
<title>Node4&#45;&gt;Node3</title>
<path fill="none" stroke="#63b8ff" d="M61.5,-153.93C61.5,-145.53 61.5,-136.13 61.5,-129.44"/>
<polygon fill="#63b8ff" stroke="#63b8ff" points="58,-153.75 61.5,-163.75 65,-153.75 58,-153.75"/>
</g>
</g>
</svg>
