<?xml version="1.0" encoding="UTF-8" standalone="no"?>
<!DOCTYPE svg PUBLIC "-//W3C//DTD SVG 1.1//EN"
 "http://www.w3.org/Graphics/SVG/1.1/DTD/svg11.dtd">
<!-- Generated by graphviz version 8.0.2 (20230410.1723)
 -->
<!-- Title: SCR_BaseResupplySupportStationAction Pages: 1 -->
<svg width="330pt" height="390pt"
 viewBox="0.00 0.00 330.00 390.00" xmlns="http://www.w3.org/2000/svg" xmlns:xlink="http://www.w3.org/1999/xlink">
<g id="graph0" class="graph" transform="scale(1 1) rotate(0) translate(4 386)">
<title>SCR_BaseResupplySupportStationAction</title>
<!-- Node1 -->
<g id="node1" class="node">
<title>Node1</title>
<g id="a_node1"><a xlink:title=" ">
<polygon fill="#999999" stroke="#666666" points="240,-96 70,-96 70,-66 240,-66 240,-96"/>
<text text-anchor="start" x="78" y="-84" font-family="Helvetica,sans-Serif" font-size="10.00">SCR_BaseResupplySupportStation</text>
<text text-anchor="middle" x="155" y="-73" font-family="Helvetica,sans-Serif" font-size="10.00">Action</text>
</a>
</g>
</g>
<!-- Node7 -->
<g id="node7" class="node">
<title>Node7</title>
<g id="a_node7"><a xlink:href="interfaceSCR__ResupplyOtherSupportStationAction.html" target="_top" xlink:title=" ">
<polygon fill="white" stroke="#666666" points="140,-30 0,-30 0,0 140,0 140,-30"/>
<text text-anchor="start" x="8" y="-18" font-family="Helvetica,sans-Serif" font-size="10.00">SCR_ResupplyOtherSupport</text>
<text text-anchor="middle" x="70" y="-7" font-family="Helvetica,sans-Serif" font-size="10.00">StationAction</text>
</a>
</g>
</g>
<!-- Node1&#45;&gt;Node7 -->
<g id="edge6" class="edge">
<title>Node1&#45;&gt;Node7</title>
<path fill="none" stroke="#63b8ff" d="M127.44,-59.25C114.92,-49.82 100.41,-38.9 89.11,-30.39"/>
<polygon fill="#63b8ff" stroke="#63b8ff" points="125.04,-62.58 135.14,-65.8 129.25,-56.99 125.04,-62.58"/>
</g>
<!-- Node8 -->
<g id="node8" class="node">
<title>Node8</title>
<g id="a_node8"><a xlink:href="interfaceSCR__ResupplySelfSupportStationAction.html" target="_top" xlink:title=" ">
<polygon fill="white" stroke="#666666" points="322,-30 158,-30 158,0 322,0 322,-30"/>
<text text-anchor="start" x="166" y="-18" font-family="Helvetica,sans-Serif" font-size="10.00">SCR_ResupplySelfSupportStation</text>
<text text-anchor="middle" x="240" y="-7" font-family="Helvetica,sans-Serif" font-size="10.00">Action</text>
</a>
</g>
</g>
<!-- Node1&#45;&gt;Node8 -->
<g id="edge7" class="edge">
<title>Node1&#45;&gt;Node8</title>
<path fill="none" stroke="#63b8ff" d="M182.56,-59.25C195.08,-49.82 209.59,-38.9 220.89,-30.39"/>
<polygon fill="#63b8ff" stroke="#63b8ff" points="180.75,-56.99 174.86,-65.8 184.96,-62.58 180.75,-56.99"/>
</g>
<!-- Node2 -->
<g id="node2" class="node">
<title>Node2</title>
<g id="a_node2"><a xlink:href="interfaceSCR__BaseUseSupportStationAction.html" target="_top" xlink:title=" ">
<polygon fill="white" stroke="#666666" points="228,-162 82,-162 82,-132 228,-132 228,-162"/>
<text text-anchor="start" x="90" y="-150" font-family="Helvetica,sans-Serif" font-size="10.00">SCR_BaseUseSupportStation</text>
<text text-anchor="middle" x="155" y="-139" font-family="Helvetica,sans-Serif" font-size="10.00">Action</text>
</a>
</g>
</g>
<!-- Node2&#45;&gt;Node1 -->
<g id="edge1" class="edge">
<title>Node2&#45;&gt;Node1</title>
<path fill="none" stroke="#63b8ff" d="M155,-120.97C155,-112.55 155,-103.45 155,-96.16"/>
<polygon fill="#63b8ff" stroke="#63b8ff" points="151.5,-120.8 155,-130.8 158.5,-120.8 151.5,-120.8"/>
</g>
<!-- Node3 -->
<g id="node3" class="node">
<title>Node3</title>
<g id="a_node3"><a xlink:href="interfaceSCR__ScriptedUserAction.html" target="_top" xlink:title="A scripted action class having optional logic to check if vehicle is valid.">
<polygon fill="white" stroke="#666666" points="218,-217 92,-217 92,-198 218,-198 218,-217"/>
<text text-anchor="middle" x="155" y="-205" font-family="Helvetica,sans-Serif" font-size="10.00">SCR_ScriptedUserAction</text>
</a>
</g>
</g>
<!-- Node3&#45;&gt;Node2 -->
<g id="edge2" class="edge">
<title>Node3&#45;&gt;Node2</title>
<path fill="none" stroke="#63b8ff" d="M155,-187.08C155,-178.92 155,-169.6 155,-162.11"/>
<polygon fill="#63b8ff" stroke="#63b8ff" points="151.5,-186.87 155,-196.87 158.5,-186.87 151.5,-186.87"/>
</g>
<!-- Node4 -->
<g id="node4" class="node">
<title>Node4</title>
<g id="a_node4"><a xlink:href="interfaceScriptedUserAction.html" target="_top" xlink:title=" ">
<polygon fill="white" stroke="#666666" points="205.5,-272 104.5,-272 104.5,-253 205.5,-253 205.5,-272"/>
<text text-anchor="middle" x="155" y="-260" font-family="Helvetica,sans-Serif" font-size="10.00">ScriptedUserAction</text>
</a>
</g>
</g>
<!-- Node4&#45;&gt;Node3 -->
<g id="edge3" class="edge">
<title>Node4&#45;&gt;Node3</title>
<path fill="none" stroke="#63b8ff" d="M155,-241.93C155,-233.53 155,-224.13 155,-217.44"/>
<polygon fill="#63b8ff" stroke="#63b8ff" points="151.5,-241.75 155,-251.75 158.5,-241.75 151.5,-241.75"/>
</g>
<!-- Node5 -->
<g id="node5" class="node">
<title>Node5</title>
<g id="a_node5"><a xlink:href="interfaceBaseUserAction.html" target="_top" xlink:title=" ">
<polygon fill="white" stroke="#666666" points="198.5,-327 111.5,-327 111.5,-308 198.5,-308 198.5,-327"/>
<text text-anchor="middle" x="155" y="-315" font-family="Helvetica,sans-Serif" font-size="10.00">BaseUserAction</text>
</a>
</g>
</g>
<!-- Node5&#45;&gt;Node4 -->
<g id="edge4" class="edge">
<title>Node5&#45;&gt;Node4</title>
<path fill="none" stroke="#63b8ff" d="M155,-296.93C155,-288.53 155,-279.13 155,-272.44"/>
<polygon fill="#63b8ff" stroke="#63b8ff" points="151.5,-296.75 155,-306.75 158.5,-296.75 151.5,-296.75"/>
</g>
<!-- Node6 -->
<g id="node6" class="node">
<title>Node6</title>
<g id="a_node6"><a xlink:title=" ">
<polygon fill="white" stroke="#666666" points="198,-382 112,-382 112,-363 198,-363 198,-382"/>
<text text-anchor="middle" x="155" y="-370" font-family="Helvetica,sans-Serif" font-size="10.00">ScriptAndConfig</text>
</a>
</g>
</g>
<!-- Node6&#45;&gt;Node5 -->
<g id="edge5" class="edge">
<title>Node6&#45;&gt;Node5</title>
<path fill="none" stroke="#63b8ff" d="M155,-351.93C155,-343.53 155,-334.13 155,-327.44"/>
<polygon fill="#63b8ff" stroke="#63b8ff" points="151.5,-351.75 155,-361.75 158.5,-351.75 151.5,-351.75"/>
</g>
</g>
</svg>
