<?xml version="1.0" encoding="UTF-8" standalone="no"?>
<!DOCTYPE svg PUBLIC "-//W3C//DTD SVG 1.1//EN"
 "http://www.w3.org/Graphics/SVG/1.1/DTD/svg11.dtd">
<!-- Generated by graphviz version 8.0.2 (20230410.1723)
 -->
<!-- Title: SCR_BaseEditorComponentClass Pages: 1 -->
<svg width="770pt" height="1763pt"
 viewBox="0.00 0.00 770.00 1763.00" xmlns="http://www.w3.org/2000/svg" xmlns:xlink="http://www.w3.org/1999/xlink">
<g id="graph0" class="graph" transform="scale(1 1) rotate(0) translate(4 1759)">
<title>SCR_BaseEditorComponentClass</title>
<!-- Node1 -->
<g id="node1" class="node">
<title>Node1</title>
<g id="a_node1"><a xlink:title=" ">
<polygon fill="#999999" stroke="#666666" points="316,-868.5 152,-868.5 152,-849.5 316,-849.5 316,-868.5"/>
<text text-anchor="middle" x="234" y="-856.5" font-family="Helvetica,sans-Serif" font-size="10.00">SCR_BaseEditorComponentClass</text>
</a>
</g>
</g>
<!-- Node3 -->
<g id="node3" class="node">
<title>Node3</title>
<g id="a_node3"><a xlink:href="interfaceSCR__AccessKeysEditorComponentClass.html" target="_top" xlink:title=" ">
<polygon fill="white" stroke="#666666" points="534.5,-1755 361.5,-1755 361.5,-1725 534.5,-1725 534.5,-1755"/>
<text text-anchor="start" x="369.5" y="-1743" font-family="Helvetica,sans-Serif" font-size="10.00">SCR_AccessKeysEditorComponent</text>
<text text-anchor="middle" x="448" y="-1732" font-family="Helvetica,sans-Serif" font-size="10.00">Class</text>
</a>
</g>
</g>
<!-- Node1&#45;&gt;Node3 -->
<g id="edge2" class="edge">
<title>Node1&#45;&gt;Node3</title>
<path fill="none" stroke="#63b8ff" d="M234.81,-879.58C234.18,-997.54 236.85,-1587.2 352,-1716 354.95,-1719.3 358.28,-1722.17 361.88,-1724.68"/>
<polygon fill="#63b8ff" stroke="#63b8ff" points="238.32,-879.89 234.89,-869.87 231.32,-879.84 238.32,-879.89"/>
</g>
<!-- Node4 -->
<g id="node4" class="node">
<title>Node4</title>
<g id="a_node4"><a xlink:href="interfaceSCR__ActionsRadialMenuEditorComponentClass.html" target="_top" xlink:title=" ">
<polygon fill="white" stroke="#666666" points="524,-1707 372,-1707 372,-1677 524,-1677 524,-1707"/>
<text text-anchor="start" x="380" y="-1695" font-family="Helvetica,sans-Serif" font-size="10.00">SCR_ActionsRadialMenuEditor</text>
<text text-anchor="middle" x="448" y="-1684" font-family="Helvetica,sans-Serif" font-size="10.00">ComponentClass</text>
</a>
</g>
</g>
<!-- Node1&#45;&gt;Node4 -->
<g id="edge3" class="edge">
<title>Node1&#45;&gt;Node4</title>
<path fill="none" stroke="#63b8ff" d="M235,-879.83C235.42,-994.42 243.14,-1547.21 352,-1668 357.47,-1674.07 364.22,-1678.7 371.59,-1682.23"/>
<polygon fill="#63b8ff" stroke="#63b8ff" points="238.5,-879.83 234.98,-869.84 231.5,-879.84 238.5,-879.83"/>
</g>
<!-- Node5 -->
<g id="node5" class="node">
<title>Node5</title>
<g id="a_node5"><a xlink:href="interfaceSCR__AttributesManagerEditorComponentClass.html" target="_top" xlink:title=" ">
<polygon fill="white" stroke="#666666" points="521.5,-1659 374.5,-1659 374.5,-1629 521.5,-1629 521.5,-1659"/>
<text text-anchor="start" x="382.5" y="-1647" font-family="Helvetica,sans-Serif" font-size="10.00">SCR_AttributesManagerEditor</text>
<text text-anchor="middle" x="448" y="-1636" font-family="Helvetica,sans-Serif" font-size="10.00">ComponentClass</text>
</a>
</g>
</g>
<!-- Node1&#45;&gt;Node5 -->
<g id="edge4" class="edge">
<title>Node1&#45;&gt;Node5</title>
<path fill="none" stroke="#63b8ff" d="M235.2,-879.62C236.72,-989.69 249.28,-1507.04 352,-1620 358.18,-1626.8 365.98,-1631.79 374.44,-1635.45"/>
<polygon fill="#63b8ff" stroke="#63b8ff" points="238.69,-879.72 235.07,-869.76 231.69,-879.8 238.69,-879.72"/>
</g>
<!-- Node6 -->
<g id="node6" class="node">
<title>Node6</title>
<g id="a_node6"><a xlink:href="interfaceSCR__BaseActionsEditorComponentClass.html" target="_top" xlink:title=" ">
<polygon fill="white" stroke="#666666" points="534.5,-1611 361.5,-1611 361.5,-1581 534.5,-1581 534.5,-1611"/>
<text text-anchor="start" x="369.5" y="-1599" font-family="Helvetica,sans-Serif" font-size="10.00">SCR_BaseActionsEditorComponent</text>
<text text-anchor="middle" x="448" y="-1588" font-family="Helvetica,sans-Serif" font-size="10.00">Class</text>
</a>
</g>
</g>
<!-- Node1&#45;&gt;Node6 -->
<g id="edge5" class="edge">
<title>Node1&#45;&gt;Node6</title>
<path fill="none" stroke="#63b8ff" d="M235.44,-879.65C238.11,-985.55 255.48,-1466.92 352,-1572 354.99,-1575.26 358.36,-1578.1 361.99,-1580.58"/>
<polygon fill="#63b8ff" stroke="#63b8ff" points="238.92,-879.79 235.19,-869.88 231.92,-879.96 238.92,-879.79"/>
</g>
<!-- Node10 -->
<g id="node10" class="node">
<title>Node10</title>
<g id="a_node10"><a xlink:href="interfaceSCR__BudgetEditorComponentClass.html" target="_top" xlink:title=" ">
<polygon fill="white" stroke="#666666" points="522,-1563 374,-1563 374,-1533 522,-1533 522,-1563"/>
<text text-anchor="start" x="382" y="-1551" font-family="Helvetica,sans-Serif" font-size="10.00">SCR_BudgetEditorComponent</text>
<text text-anchor="middle" x="448" y="-1540" font-family="Helvetica,sans-Serif" font-size="10.00">Class</text>
</a>
</g>
</g>
<!-- Node1&#45;&gt;Node10 -->
<g id="edge9" class="edge">
<title>Node1&#45;&gt;Node10</title>
<path fill="none" stroke="#63b8ff" d="M235.7,-879.51C239.57,-980.82 261.61,-1426.73 352,-1524 358.02,-1530.48 365.52,-1535.32 373.64,-1538.91"/>
<polygon fill="#63b8ff" stroke="#63b8ff" points="239.17,-879.55 235.31,-869.69 232.17,-879.81 239.17,-879.55"/>
</g>
<!-- Node12 -->
<g id="node12" class="node">
<title>Node12</title>
<g id="a_node12"><a xlink:href="interfaceSCR__CameraDataEditorComponentClass.html" target="_top" xlink:title=" ">
<polygon fill="white" stroke="#666666" points="533.5,-1515 362.5,-1515 362.5,-1485 533.5,-1485 533.5,-1515"/>
<text text-anchor="start" x="370.5" y="-1503" font-family="Helvetica,sans-Serif" font-size="10.00">SCR_CameraDataEditorComponent</text>
<text text-anchor="middle" x="448" y="-1492" font-family="Helvetica,sans-Serif" font-size="10.00">Class</text>
</a>
</g>
</g>
<!-- Node1&#45;&gt;Node12 -->
<g id="edge11" class="edge">
<title>Node1&#45;&gt;Node12</title>
<path fill="none" stroke="#63b8ff" d="M236.02,-879.85C241.22,-977.28 267.86,-1386.65 352,-1476 355.15,-1479.34 358.69,-1482.25 362.51,-1484.77"/>
<polygon fill="#63b8ff" stroke="#63b8ff" points="239.47,-879.7 235.46,-869.89 232.48,-880.06 239.47,-879.7"/>
</g>
<!-- Node13 -->
<g id="node13" class="node">
<title>Node13</title>
<g id="a_node13"><a xlink:href="interfaceSCR__CameraEditorComponentClass.html" target="_top" xlink:title=" ">
<polygon fill="white" stroke="#666666" points="523.5,-1467 372.5,-1467 372.5,-1437 523.5,-1437 523.5,-1467"/>
<text text-anchor="start" x="380.5" y="-1455" font-family="Helvetica,sans-Serif" font-size="10.00">SCR_CameraEditorComponent</text>
<text text-anchor="middle" x="448" y="-1444" font-family="Helvetica,sans-Serif" font-size="10.00">Class</text>
</a>
</g>
</g>
<!-- Node1&#45;&gt;Node13 -->
<g id="edge12" class="edge">
<title>Node1&#45;&gt;Node13</title>
<path fill="none" stroke="#63b8ff" d="M236.37,-879.69C242.92,-972.13 273.95,-1346.39 352,-1428 357.76,-1434.02 364.8,-1438.62 372.41,-1442.12"/>
<polygon fill="#63b8ff" stroke="#63b8ff" points="239.82,-879.73 235.64,-869.99 232.83,-880.21 239.82,-879.73"/>
</g>
<!-- Node16 -->
<g id="node16" class="node">
<title>Node16</title>
<g id="a_node16"><a xlink:href="interfaceSCR__CameraFiltersEditorComponentClass.html" target="_top" xlink:title=" ">
<polygon fill="white" stroke="#666666" points="537,-1419 359,-1419 359,-1389 537,-1389 537,-1419"/>
<text text-anchor="start" x="367" y="-1407" font-family="Helvetica,sans-Serif" font-size="10.00">SCR_CameraFiltersEditorComponent</text>
<text text-anchor="middle" x="448" y="-1396" font-family="Helvetica,sans-Serif" font-size="10.00">Class</text>
</a>
</g>
</g>
<!-- Node1&#45;&gt;Node16 -->
<g id="edge15" class="edge">
<title>Node1&#45;&gt;Node16</title>
<path fill="none" stroke="#63b8ff" d="M236.81,-879.86C244.85,-967.69 280.11,-1306.18 352,-1380 355.2,-1383.29 358.79,-1386.15 362.64,-1388.64"/>
<polygon fill="#63b8ff" stroke="#63b8ff" points="240.22,-879.64 235.84,-869.99 233.24,-880.26 240.22,-879.64"/>
</g>
<!-- Node17 -->
<g id="node17" class="node">
<title>Node17</title>
<g id="a_node17"><a xlink:href="interfaceSCR__CameraParticlesEditorComponentClass.html" target="_top" xlink:title=" ">
<polygon fill="white" stroke="#666666" points="518,-1371 378,-1371 378,-1341 518,-1341 518,-1371"/>
<text text-anchor="start" x="386" y="-1359" font-family="Helvetica,sans-Serif" font-size="10.00">SCR_CameraParticlesEditor</text>
<text text-anchor="middle" x="448" y="-1348" font-family="Helvetica,sans-Serif" font-size="10.00">ComponentClass</text>
</a>
</g>
</g>
<!-- Node1&#45;&gt;Node17 -->
<g id="edge16" class="edge">
<title>Node1&#45;&gt;Node17</title>
<path fill="none" stroke="#63b8ff" d="M237.31,-879.76C246.89,-962.28 286.17,-1265.84 352,-1332 359.2,-1339.24 368.24,-1344.4 377.87,-1348.06"/>
<polygon fill="#63b8ff" stroke="#63b8ff" points="240.68,-879.4 236.07,-869.86 233.72,-880.19 240.68,-879.4"/>
</g>
<!-- Node18 -->
<g id="node18" class="node">
<title>Node18</title>
<g id="a_node18"><a xlink:href="interfaceSCR__CampaignBuildingEditorComponentClass.html" target="_top" xlink:title=" ">
<polygon fill="white" stroke="#666666" points="521,-1323 375,-1323 375,-1293 521,-1293 521,-1323"/>
<text text-anchor="start" x="383" y="-1311" font-family="Helvetica,sans-Serif" font-size="10.00">SCR_CampaignBuildingEditor</text>
<text text-anchor="middle" x="448" y="-1300" font-family="Helvetica,sans-Serif" font-size="10.00">ComponentClass</text>
</a>
</g>
</g>
<!-- Node1&#45;&gt;Node18 -->
<g id="edge17" class="edge">
<title>Node1&#45;&gt;Node18</title>
<path fill="none" stroke="#63b8ff" d="M237.9,-879.61C249.15,-956.53 292.18,-1225.43 352,-1284 358.44,-1290.31 366.29,-1295.03 374.68,-1298.56"/>
<polygon fill="#63b8ff" stroke="#63b8ff" points="241.26,-879.37 236.38,-869.97 234.33,-880.37 241.26,-879.37"/>
</g>
<!-- Node19 -->
<g id="node19" class="node">
<title>Node19</title>
<g id="a_node19"><a xlink:href="interfaceSCR__CampaignBuildingPlacingObstructionEditorComponentClass.html" target="_top" xlink:title=" ">
<polygon fill="white" stroke="#666666" points="531.5,-1275 364.5,-1275 364.5,-1245 531.5,-1245 531.5,-1275"/>
<text text-anchor="start" x="372.5" y="-1263" font-family="Helvetica,sans-Serif" font-size="10.00">SCR_CampaignBuildingPlacing</text>
<text text-anchor="middle" x="448" y="-1252" font-family="Helvetica,sans-Serif" font-size="10.00">ObstructionEditorComponentClass</text>
</a>
</g>
</g>
<!-- Node1&#45;&gt;Node19 -->
<g id="edge18" class="edge">
<title>Node1&#45;&gt;Node19</title>
<path fill="none" stroke="#63b8ff" d="M234.84,-879.84C235.53,-943.33 246.62,-1136.11 352,-1236 355.7,-1239.51 359.84,-1242.53 364.27,-1245.12"/>
<polygon fill="#63b8ff" stroke="#63b8ff" points="238.34,-879.92 234.81,-869.93 231.34,-879.94 238.34,-879.92"/>
</g>
<!-- Node20 -->
<g id="node20" class="node">
<title>Node20</title>
<g id="a_node20"><a xlink:href="interfaceSCR__ContentBrowserEditorComponentClass.html" target="_top" xlink:title=" ">
<polygon fill="white" stroke="#666666" points="516.5,-1227 379.5,-1227 379.5,-1197 516.5,-1197 516.5,-1227"/>
<text text-anchor="start" x="387.5" y="-1215" font-family="Helvetica,sans-Serif" font-size="10.00">SCR_ContentBrowserEditor</text>
<text text-anchor="middle" x="448" y="-1204" font-family="Helvetica,sans-Serif" font-size="10.00">ComponentClass</text>
</a>
</g>
</g>
<!-- Node1&#45;&gt;Node20 -->
<g id="edge19" class="edge">
<title>Node1&#45;&gt;Node20</title>
<path fill="none" stroke="#63b8ff" d="M235.92,-879.83C239.66,-937.9 258.43,-1102.86 352,-1188 359.8,-1195.1 369.4,-1200.17 379.46,-1203.77"/>
<polygon fill="#63b8ff" stroke="#63b8ff" points="239.36,-879.65 235.32,-869.85 232.37,-880.03 239.36,-879.65"/>
</g>
<!-- Node21 -->
<g id="node21" class="node">
<title>Node21</title>
<g id="a_node21"><a xlink:href="interfaceSCR__DebugEditorComponentClass.html" target="_top" xlink:title=" ">
<polygon fill="white" stroke="#666666" points="520.5,-1179 375.5,-1179 375.5,-1149 520.5,-1149 520.5,-1179"/>
<text text-anchor="start" x="383.5" y="-1167" font-family="Helvetica,sans-Serif" font-size="10.00">SCR_DebugEditorComponent</text>
<text text-anchor="middle" x="448" y="-1156" font-family="Helvetica,sans-Serif" font-size="10.00">Class</text>
</a>
</g>
</g>
<!-- Node1&#45;&gt;Node21 -->
<g id="edge20" class="edge">
<title>Node1&#45;&gt;Node21</title>
<path fill="none" stroke="#63b8ff" d="M237.31,-879.54C244.28,-931.53 269.95,-1069.21 352,-1140 358.83,-1145.89 366.9,-1150.37 375.41,-1153.77"/>
<polygon fill="#63b8ff" stroke="#63b8ff" points="240.68,-879.26 235.97,-869.77 233.73,-880.12 240.68,-879.26"/>
</g>
<!-- Node22 -->
<g id="node22" class="node">
<title>Node22</title>
<g id="a_node22"><a xlink:href="interfaceSCR__DynamicSimulationEditorComponentClass.html" target="_top" xlink:title=" ">
<polygon fill="white" stroke="#666666" points="524,-1131 372,-1131 372,-1101 524,-1101 524,-1131"/>
<text text-anchor="start" x="380" y="-1119" font-family="Helvetica,sans-Serif" font-size="10.00">SCR_DynamicSimulationEditor</text>
<text text-anchor="middle" x="448" y="-1108" font-family="Helvetica,sans-Serif" font-size="10.00">ComponentClass</text>
</a>
</g>
</g>
<!-- Node1&#45;&gt;Node22 -->
<g id="edge21" class="edge">
<title>Node1&#45;&gt;Node22</title>
<path fill="none" stroke="#63b8ff" d="M239.19,-879.35C249.67,-924.86 281.36,-1035.29 352,-1092 357.97,-1096.79 364.78,-1100.64 371.94,-1103.73"/>
<polygon fill="#63b8ff" stroke="#63b8ff" points="242.44,-878.81 236.88,-869.79 235.6,-880.31 242.44,-878.81"/>
</g>
<!-- Node23 -->
<g id="node23" class="node">
<title>Node23</title>
<g id="a_node23"><a xlink:href="interfaceSCR__EditorVONControllerComponentClass.html" target="_top" xlink:title=" ">
<polygon fill="white" stroke="#666666" points="537.5,-1083 358.5,-1083 358.5,-1053 537.5,-1053 537.5,-1083"/>
<text text-anchor="start" x="366.5" y="-1071" font-family="Helvetica,sans-Serif" font-size="10.00">SCR_EditorVONControllerComponent</text>
<text text-anchor="middle" x="448" y="-1060" font-family="Helvetica,sans-Serif" font-size="10.00">Class</text>
</a>
</g>
</g>
<!-- Node1&#45;&gt;Node23 -->
<g id="edge22" class="edge">
<title>Node1&#45;&gt;Node23</title>
<path fill="none" stroke="#63b8ff" d="M241.79,-878.76C255.95,-916.92 292.35,-1000.77 352,-1044 356.55,-1047.29 361.5,-1050.14 366.68,-1052.59"/>
<polygon fill="#63b8ff" stroke="#63b8ff" points="244.92,-878.12 238.25,-869.88 238.33,-880.48 244.92,-878.12"/>
</g>
<!-- Node24 -->
<g id="node24" class="node">
<title>Node24</title>
<g id="a_node24"><a xlink:href="interfaceSCR__EntitiesManagerEditorComponentClass.html" target="_top" xlink:title=" ">
<polygon fill="white" stroke="#666666" points="517,-1035 379,-1035 379,-1005 517,-1005 517,-1035"/>
<text text-anchor="start" x="387" y="-1023" font-family="Helvetica,sans-Serif" font-size="10.00">SCR_EntitiesManagerEditor</text>
<text text-anchor="middle" x="448" y="-1012" font-family="Helvetica,sans-Serif" font-size="10.00">ComponentClass</text>
</a>
</g>
</g>
<!-- Node1&#45;&gt;Node24 -->
<g id="edge23" class="edge">
<title>Node1&#45;&gt;Node24</title>
<path fill="none" stroke="#63b8ff" d="M245.88,-878.08C263.94,-907.98 303.04,-965.59 352,-996 360.24,-1001.12 369.52,-1005.14 378.96,-1008.31"/>
<polygon fill="#63b8ff" stroke="#63b8ff" points="248.47,-876.59 240.38,-869.75 242.44,-880.14 248.47,-876.59"/>
</g>
<!-- Node25 -->
<g id="node25" class="node">
<title>Node25</title>
<g id="a_node25"><a xlink:href="interfaceSCR__FactionWarningManagerEditorComponentClass.html" target="_top" xlink:title=" ">
<polygon fill="white" stroke="#666666" points="522,-987 374,-987 374,-957 522,-957 522,-987"/>
<text text-anchor="start" x="382" y="-975" font-family="Helvetica,sans-Serif" font-size="10.00">SCR_FactionWarningManager</text>
<text text-anchor="middle" x="448" y="-964" font-family="Helvetica,sans-Serif" font-size="10.00">EditorComponentClass</text>
</a>
</g>
</g>
<!-- Node1&#45;&gt;Node25 -->
<g id="edge24" class="edge">
<title>Node1&#45;&gt;Node25</title>
<path fill="none" stroke="#63b8ff" d="M252.99,-876.45C274.71,-896.59 313.2,-929.31 352,-948 358.82,-951.29 366.14,-954.15 373.58,-956.65"/>
<polygon fill="#63b8ff" stroke="#63b8ff" points="255.68,-874.24 246,-869.92 250.87,-879.33 255.68,-874.24"/>
</g>
<!-- Node26 -->
<g id="node26" class="node">
<title>Node26</title>
<g id="a_node26"><a xlink:href="interfaceSCR__HighlightedEditorComponentClass.html" target="_top" xlink:title=" ">
<polygon fill="white" stroke="#666666" points="530.5,-939 365.5,-939 365.5,-909 530.5,-909 530.5,-939"/>
<text text-anchor="start" x="373.5" y="-927" font-family="Helvetica,sans-Serif" font-size="10.00">SCR_HighlightedEditorComponent</text>
<text text-anchor="middle" x="448" y="-916" font-family="Helvetica,sans-Serif" font-size="10.00">Class</text>
</a>
</g>
</g>
<!-- Node1&#45;&gt;Node26 -->
<g id="edge25" class="edge">
<title>Node1&#45;&gt;Node26</title>
<path fill="none" stroke="#63b8ff" d="M272.53,-872.6C295.37,-880.69 325.21,-890.91 352,-899 362.78,-902.26 374.31,-905.49 385.49,-908.51"/>
<polygon fill="#63b8ff" stroke="#63b8ff" points="273.84,-868.99 263.24,-868.94 271.49,-875.59 273.84,-868.99"/>
</g>
<!-- Node27 -->
<g id="node27" class="node">
<title>Node27</title>
<g id="a_node27"><a xlink:href="interfaceSCR__HintEditorComponentClass.html" target="_top" xlink:title=" ">
<polygon fill="white" stroke="#666666" points="527.5,-890.5 368.5,-890.5 368.5,-871.5 527.5,-871.5 527.5,-890.5"/>
<text text-anchor="middle" x="448" y="-878.5" font-family="Helvetica,sans-Serif" font-size="10.00">SCR_HintEditorComponentClass</text>
</a>
</g>
</g>
<!-- Node1&#45;&gt;Node27 -->
<g id="edge26" class="edge">
<title>Node1&#45;&gt;Node27</title>
<path fill="none" stroke="#63b8ff" d="M327.25,-868.57C340.93,-869.99 354.93,-871.45 368.3,-872.83"/>
<polygon fill="#63b8ff" stroke="#63b8ff" points="327.67,-864.99 317.36,-867.44 326.94,-871.96 327.67,-864.99"/>
</g>
<!-- Node28 -->
<g id="node28" class="node">
<title>Node28</title>
<g id="a_node28"><a xlink:href="interfaceSCR__InputLayoutEditorComponentClass.html" target="_top" xlink:title=" ">
<polygon fill="white" stroke="#666666" points="531.5,-853 364.5,-853 364.5,-823 531.5,-823 531.5,-853"/>
<text text-anchor="start" x="372.5" y="-841" font-family="Helvetica,sans-Serif" font-size="10.00">SCR_InputLayoutEditorComponent</text>
<text text-anchor="middle" x="448" y="-830" font-family="Helvetica,sans-Serif" font-size="10.00">Class</text>
</a>
</g>
</g>
<!-- Node1&#45;&gt;Node28 -->
<g id="edge27" class="edge">
<title>Node1&#45;&gt;Node28</title>
<path fill="none" stroke="#63b8ff" d="M327.09,-849.88C339.4,-848.66 351.97,-847.41 364.11,-846.21"/>
<polygon fill="#63b8ff" stroke="#63b8ff" points="326.96,-846.47 317.36,-850.94 327.65,-853.44 326.96,-846.47"/>
</g>
<!-- Node29 -->
<g id="node29" class="node">
<title>Node29</title>
<g id="a_node29"><a xlink:href="interfaceSCR__LayersEditorComponentClass.html" target="_top" xlink:title=" ">
<polygon fill="white" stroke="#666666" points="521,-805 375,-805 375,-775 521,-775 521,-805"/>
<text text-anchor="start" x="383" y="-793" font-family="Helvetica,sans-Serif" font-size="10.00">SCR_LayersEditorComponent</text>
<text text-anchor="middle" x="448" y="-782" font-family="Helvetica,sans-Serif" font-size="10.00">Class</text>
</a>
</g>
</g>
<!-- Node1&#45;&gt;Node29 -->
<g id="edge28" class="edge">
<title>Node1&#45;&gt;Node29</title>
<path fill="none" stroke="#63b8ff" d="M268.47,-844.9C291.67,-835.43 323.4,-823.08 352,-814 361.49,-810.99 371.6,-808.1 381.55,-805.44"/>
<polygon fill="#63b8ff" stroke="#63b8ff" points="267.37,-841.98 259.46,-849.02 270.04,-848.45 267.37,-841.98"/>
</g>
<!-- Node30 -->
<g id="node30" class="node">
<title>Node30</title>
<g id="a_node30"><a xlink:href="interfaceSCR__MapEditorComponentClass.html" target="_top" xlink:title=" ">
<polygon fill="white" stroke="#666666" points="528.5,-756.5 367.5,-756.5 367.5,-737.5 528.5,-737.5 528.5,-756.5"/>
<text text-anchor="middle" x="448" y="-744.5" font-family="Helvetica,sans-Serif" font-size="10.00">SCR_MapEditorComponentClass</text>
</a>
</g>
</g>
<!-- Node1&#45;&gt;Node30 -->
<g id="edge29" class="edge">
<title>Node1&#45;&gt;Node30</title>
<path fill="none" stroke="#63b8ff" d="M251.72,-841.33C272.95,-820.01 311.69,-784.71 352,-766 359.93,-762.32 368.56,-759.35 377.28,-756.95"/>
<polygon fill="#63b8ff" stroke="#63b8ff" points="249.71,-838.4 245.23,-848.01 254.72,-843.29 249.71,-838.4"/>
</g>
<!-- Node31 -->
<g id="node31" class="node">
<title>Node31</title>
<g id="a_node31"><a xlink:href="interfaceSCR__MenuEditorComponentClass.html" target="_top" xlink:title=" ">
<polygon fill="white" stroke="#666666" points="531,-719.5 365,-719.5 365,-700.5 531,-700.5 531,-719.5"/>
<text text-anchor="middle" x="448" y="-707.5" font-family="Helvetica,sans-Serif" font-size="10.00">SCR_MenuEditorComponentClass</text>
</a>
</g>
</g>
<!-- Node1&#45;&gt;Node31 -->
<g id="edge30" class="edge">
<title>Node1&#45;&gt;Node31</title>
<path fill="none" stroke="#63b8ff" d="M246.15,-840C264.35,-810.83 303.32,-755.52 352,-728 357.7,-724.78 363.87,-722.12 370.23,-719.93"/>
<polygon fill="#63b8ff" stroke="#63b8ff" points="242.8,-837.77 240.6,-848.14 248.78,-841.41 242.8,-837.77"/>
</g>
<!-- Node32 -->
<g id="node32" class="node">
<title>Node32</title>
<g id="a_node32"><a xlink:href="interfaceSCR__MenuLayoutEditorComponentClass.html" target="_top" xlink:title=" ">
<polygon fill="white" stroke="#666666" points="533,-682 363,-682 363,-652 533,-652 533,-682"/>
<text text-anchor="start" x="371" y="-670" font-family="Helvetica,sans-Serif" font-size="10.00">SCR_MenuLayoutEditorComponent</text>
<text text-anchor="middle" x="448" y="-659" font-family="Helvetica,sans-Serif" font-size="10.00">Class</text>
</a>
</g>
</g>
<!-- Node1&#45;&gt;Node32 -->
<g id="edge31" class="edge">
<title>Node1&#45;&gt;Node32</title>
<path fill="none" stroke="#63b8ff" d="M243.15,-839.14C258.75,-803.65 296.34,-729.49 352,-691 356.76,-687.71 361.93,-684.87 367.31,-682.42"/>
<polygon fill="#63b8ff" stroke="#63b8ff" points="239.56,-837.63 238.86,-848.21 246,-840.38 239.56,-837.63"/>
</g>
<!-- Node33 -->
<g id="node33" class="node">
<title>Node33</title>
<g id="a_node33"><a xlink:href="interfaceSCR__MenuOverlaysEditorComponentClass.html" target="_top" xlink:title=" ">
<polygon fill="white" stroke="#666666" points="537.5,-634 358.5,-634 358.5,-604 537.5,-604 537.5,-634"/>
<text text-anchor="start" x="366.5" y="-622" font-family="Helvetica,sans-Serif" font-size="10.00">SCR_MenuOverlaysEditorComponent</text>
<text text-anchor="middle" x="448" y="-611" font-family="Helvetica,sans-Serif" font-size="10.00">Class</text>
</a>
</g>
</g>
<!-- Node1&#45;&gt;Node33 -->
<g id="edge32" class="edge">
<title>Node1&#45;&gt;Node33</title>
<path fill="none" stroke="#63b8ff" d="M239.97,-838.97C251.68,-796.06 285.22,-694.93 352,-643 356.3,-639.66 361,-636.78 365.95,-634.29"/>
<polygon fill="#63b8ff" stroke="#63b8ff" points="236.37,-837.88 237.23,-848.44 243.15,-839.65 236.37,-837.88"/>
</g>
<!-- Node34 -->
<g id="node34" class="node">
<title>Node34</title>
<g id="a_node34"><a xlink:href="interfaceSCR__MusicEditorComponentClass.html" target="_top" xlink:title=" ">
<polygon fill="white" stroke="#666666" points="519.5,-586 376.5,-586 376.5,-556 519.5,-556 519.5,-586"/>
<text text-anchor="start" x="384.5" y="-574" font-family="Helvetica,sans-Serif" font-size="10.00">SCR_MusicEditorComponent</text>
<text text-anchor="middle" x="448" y="-563" font-family="Helvetica,sans-Serif" font-size="10.00">Class</text>
</a>
</g>
</g>
<!-- Node1&#45;&gt;Node34 -->
<g id="edge33" class="edge">
<title>Node1&#45;&gt;Node34</title>
<path fill="none" stroke="#63b8ff" d="M237.93,-838.35C246.15,-788.47 274.11,-660.68 352,-595 359.02,-589.08 367.31,-584.59 376.02,-581.19"/>
<polygon fill="#63b8ff" stroke="#63b8ff" points="234.35,-837.61 236.29,-848.02 241.27,-838.67 234.35,-837.61"/>
</g>
<!-- Node35 -->
<g id="node35" class="node">
<title>Node35</title>
<g id="a_node35"><a xlink:href="interfaceSCR__PauseGameTimeEditorComponentClass.html" target="_top" xlink:title=" ">
<polygon fill="white" stroke="#666666" points="544,-538 352,-538 352,-508 544,-508 544,-538"/>
<text text-anchor="start" x="360" y="-526" font-family="Helvetica,sans-Serif" font-size="10.00">SCR_PauseGameTimeEditorComponent</text>
<text text-anchor="middle" x="448" y="-515" font-family="Helvetica,sans-Serif" font-size="10.00">Class</text>
</a>
</g>
</g>
<!-- Node1&#45;&gt;Node35 -->
<g id="edge34" class="edge">
<title>Node1&#45;&gt;Node35</title>
<path fill="none" stroke="#63b8ff" d="M236.39,-838.12C241.27,-782.03 262.61,-626.96 352,-547 355.68,-543.71 359.74,-540.86 364.05,-538.39"/>
<polygon fill="#63b8ff" stroke="#63b8ff" points="232.82,-837.83 235.54,-848.07 239.8,-838.37 232.82,-837.83"/>
</g>
<!-- Node36 -->
<g id="node36" class="node">
<title>Node36</title>
<g id="a_node36"><a xlink:href="interfaceSCR__PingEditorComponentClass.html" target="_top" xlink:title=" ">
<polygon fill="white" stroke="#666666" points="528.5,-489.5 367.5,-489.5 367.5,-470.5 528.5,-470.5 528.5,-489.5"/>
<text text-anchor="middle" x="448" y="-477.5" font-family="Helvetica,sans-Serif" font-size="10.00">SCR_PingEditorComponentClass</text>
</a>
</g>
</g>
<!-- Node1&#45;&gt;Node36 -->
<g id="edge35" class="edge">
<title>Node1&#45;&gt;Node36</title>
<path fill="none" stroke="#63b8ff" d="M234.96,-838.44C236.05,-776.67 248.19,-591.34 352,-499 356.52,-494.98 361.65,-491.71 367.13,-489.06"/>
<polygon fill="#63b8ff" stroke="#63b8ff" points="231.46,-838.05 234.87,-848.08 238.46,-838.11 231.46,-838.05"/>
</g>
<!-- Node37 -->
<g id="node37" class="node">
<title>Node37</title>
<g id="a_node37"><a xlink:href="interfaceSCR__PlacingEditorComponentClass.html" target="_top" xlink:title=" ">
<polygon fill="white" stroke="#666666" points="522.5,-452 373.5,-452 373.5,-422 522.5,-422 522.5,-452"/>
<text text-anchor="start" x="381.5" y="-440" font-family="Helvetica,sans-Serif" font-size="10.00">SCR_PlacingEditorComponent</text>
<text text-anchor="middle" x="448" y="-429" font-family="Helvetica,sans-Serif" font-size="10.00">Class</text>
</a>
</g>
</g>
<!-- Node1&#45;&gt;Node37 -->
<g id="edge36" class="edge">
<title>Node1&#45;&gt;Node37</title>
<path fill="none" stroke="#63b8ff" d="M234.44,-838.32C233.85,-772.75 241.33,-567.5 352,-461 358.13,-455.1 365.49,-450.59 373.36,-447.15"/>
<polygon fill="#63b8ff" stroke="#63b8ff" points="230.96,-838.26 234.63,-848.2 237.95,-838.14 230.96,-838.26"/>
</g>
<!-- Node39 -->
<g id="node39" class="node">
<title>Node39</title>
<g id="a_node39"><a xlink:href="interfaceSCR__PlayerDelegateEditorComponentClass.html" target="_top" xlink:title=" ">
<polygon fill="white" stroke="#666666" points="515,-404 381,-404 381,-374 515,-374 515,-404"/>
<text text-anchor="start" x="389" y="-392" font-family="Helvetica,sans-Serif" font-size="10.00">SCR_PlayerDelegateEditor</text>
<text text-anchor="middle" x="448" y="-381" font-family="Helvetica,sans-Serif" font-size="10.00">ComponentClass</text>
</a>
</g>
</g>
<!-- Node1&#45;&gt;Node39 -->
<g id="edge38" class="edge">
<title>Node1&#45;&gt;Node39</title>
<path fill="none" stroke="#63b8ff" d="M237.62,-838.42C248.1,-759.15 289.53,-474.91 352,-413 359.98,-405.1 370.15,-399.67 380.87,-395.98"/>
<polygon fill="#63b8ff" stroke="#63b8ff" points="234.02,-837.95 236.2,-848.32 240.96,-838.85 234.02,-837.95"/>
</g>
<!-- Node40 -->
<g id="node40" class="node">
<title>Node40</title>
<g id="a_node40"><a xlink:href="interfaceSCR__PlayersManagerEditorComponentClass.html" target="_top" xlink:title=" ">
<polygon fill="white" stroke="#666666" points="517,-356 379,-356 379,-326 517,-326 517,-356"/>
<text text-anchor="start" x="387" y="-344" font-family="Helvetica,sans-Serif" font-size="10.00">SCR_PlayersManagerEditor</text>
<text text-anchor="middle" x="448" y="-333" font-family="Helvetica,sans-Serif" font-size="10.00">ComponentClass</text>
</a>
</g>
</g>
<!-- Node1&#45;&gt;Node40 -->
<g id="edge39" class="edge">
<title>Node1&#45;&gt;Node40</title>
<path fill="none" stroke="#63b8ff" d="M237.06,-838.41C245.91,-753.86 283.46,-434.57 352,-365 359.4,-357.49 368.79,-352.21 378.77,-348.51"/>
<polygon fill="#63b8ff" stroke="#63b8ff" points="233.5,-837.82 235.96,-848.12 240.46,-838.53 233.5,-837.82"/>
</g>
<!-- Node41 -->
<g id="node41" class="node">
<title>Node41</title>
<g id="a_node41"><a xlink:href="interfaceSCR__PrefabsCacheEditorComponentClass.html" target="_top" xlink:title=" ">
<polygon fill="white" stroke="#666666" points="537,-308 359,-308 359,-278 537,-278 537,-308"/>
<text text-anchor="start" x="367" y="-296" font-family="Helvetica,sans-Serif" font-size="10.00">SCR_PrefabsCacheEditorComponent</text>
<text text-anchor="middle" x="448" y="-285" font-family="Helvetica,sans-Serif" font-size="10.00">Class</text>
</a>
</g>
</g>
<!-- Node1&#45;&gt;Node41 -->
<g id="edge40" class="edge">
<title>Node1&#45;&gt;Node41</title>
<path fill="none" stroke="#63b8ff" d="M236.61,-838.16C243.99,-748.21 277.43,-394.21 352,-317 355.19,-313.7 358.77,-310.82 362.61,-308.32"/>
<polygon fill="#63b8ff" stroke="#63b8ff" points="233.05,-837.8 235.74,-848.05 240.03,-838.36 233.05,-837.8"/>
</g>
<!-- Node42 -->
<g id="node42" class="node">
<title>Node42</title>
<g id="a_node42"><a xlink:href="interfaceSCR__PreviewEntityEditorComponentClass.html" target="_top" xlink:title=" ">
<polygon fill="white" stroke="#666666" points="536,-260 360,-260 360,-230 536,-230 536,-260"/>
<text text-anchor="start" x="368" y="-248" font-family="Helvetica,sans-Serif" font-size="10.00">SCR_PreviewEntityEditorComponent</text>
<text text-anchor="middle" x="448" y="-237" font-family="Helvetica,sans-Serif" font-size="10.00">Class</text>
</a>
</g>
</g>
<!-- Node1&#45;&gt;Node42 -->
<g id="edge41" class="edge">
<title>Node1&#45;&gt;Node42</title>
<path fill="none" stroke="#63b8ff" d="M236.22,-838.16C242.18,-743.39 271.31,-353.97 352,-269 355.16,-265.67 358.72,-262.77 362.54,-260.26"/>
<polygon fill="#63b8ff" stroke="#63b8ff" points="232.67,-837.9 235.55,-848.09 239.65,-838.32 232.67,-837.9"/>
</g>
<!-- Node43 -->
<g id="node43" class="node">
<title>Node43</title>
<g id="a_node43"><a xlink:href="interfaceSCR__ServerInfoEditorComponentClass.html" target="_top" xlink:title=" ">
<polygon fill="white" stroke="#666666" points="527.5,-212 368.5,-212 368.5,-182 527.5,-182 527.5,-212"/>
<text text-anchor="start" x="376.5" y="-200" font-family="Helvetica,sans-Serif" font-size="10.00">SCR_ServerInfoEditorComponent</text>
<text text-anchor="middle" x="448" y="-189" font-family="Helvetica,sans-Serif" font-size="10.00">Class</text>
</a>
</g>
</g>
<!-- Node1&#45;&gt;Node43 -->
<g id="edge42" class="edge">
<title>Node1&#45;&gt;Node43</title>
<path fill="none" stroke="#63b8ff" d="M235.87,-838.39C240.47,-739.4 265.1,-313.84 352,-221 356.65,-216.03 362.17,-212.03 368.16,-208.82"/>
<polygon fill="#63b8ff" stroke="#63b8ff" points="232.34,-838.1 235.39,-848.24 239.33,-838.41 232.34,-838.1"/>
</g>
<!-- Node44 -->
<g id="node44" class="node">
<title>Node44</title>
<g id="a_node44"><a xlink:href="interfaceSCR__StatesEditorComponentClass.html" target="_top" xlink:title=" ">
<polygon fill="white" stroke="#666666" points="521,-164 375,-164 375,-134 521,-134 521,-164"/>
<text text-anchor="start" x="383" y="-152" font-family="Helvetica,sans-Serif" font-size="10.00">SCR_StatesEditorComponent</text>
<text text-anchor="middle" x="448" y="-141" font-family="Helvetica,sans-Serif" font-size="10.00">Class</text>
</a>
</g>
</g>
<!-- Node1&#45;&gt;Node44 -->
<g id="edge43" class="edge">
<title>Node1&#45;&gt;Node44</title>
<path fill="none" stroke="#63b8ff" d="M235.59,-838.16C238.96,-734.31 259.01,-273.6 352,-173 358.24,-166.25 366.07,-161.29 374.54,-157.65"/>
<polygon fill="#63b8ff" stroke="#63b8ff" points="232.07,-837.91 235.26,-848.01 239.06,-838.12 232.07,-837.91"/>
</g>
<!-- Node45 -->
<g id="node45" class="node">
<title>Node45</title>
<g id="a_node45"><a xlink:href="interfaceSCR__TestEditorComponentClass.html" target="_top" xlink:title=" ">
<polygon fill="white" stroke="#666666" points="528.5,-115.5 367.5,-115.5 367.5,-96.5 528.5,-96.5 528.5,-115.5"/>
<text text-anchor="middle" x="448" y="-103.5" font-family="Helvetica,sans-Serif" font-size="10.00">SCR_TestEditorComponentClass</text>
</a>
</g>
</g>
<!-- Node1&#45;&gt;Node45 -->
<g id="edge44" class="edge">
<title>Node1&#45;&gt;Node45</title>
<path fill="none" stroke="#63b8ff" d="M235.23,-838.33C236.9,-730.26 250.06,-231.03 352,-125 356.43,-120.39 361.64,-116.73 367.29,-113.84"/>
<polygon fill="#63b8ff" stroke="#63b8ff" points="231.73,-837.99 235.09,-848.04 238.72,-838.09 231.73,-837.99"/>
</g>
<!-- Node46 -->
<g id="node46" class="node">
<title>Node46</title>
<g id="a_node46"><a xlink:href="interfaceSCR__TransformingEditorComponentClass.html" target="_top" xlink:title=" ">
<polygon fill="white" stroke="#666666" points="534.5,-78 361.5,-78 361.5,-48 534.5,-48 534.5,-78"/>
<text text-anchor="start" x="369.5" y="-66" font-family="Helvetica,sans-Serif" font-size="10.00">SCR_TransformingEditorComponent</text>
<text text-anchor="middle" x="448" y="-55" font-family="Helvetica,sans-Serif" font-size="10.00">Class</text>
</a>
</g>
</g>
<!-- Node1&#45;&gt;Node46 -->
<g id="edge45" class="edge">
<title>Node1&#45;&gt;Node46</title>
<path fill="none" stroke="#63b8ff" d="M235.15,-838.42C236.41,-727.51 247.85,-201.79 352,-87 354.97,-83.72 358.32,-80.87 361.94,-78.38"/>
<polygon fill="#63b8ff" stroke="#63b8ff" points="231.65,-838.07 235.05,-848.1 238.65,-838.13 231.65,-838.07"/>
</g>
<!-- Node48 -->
<g id="node48" class="node">
<title>Node48</title>
<g id="a_node48"><a xlink:href="interfaceSCR__WorldEntityDelegateEditorComponentClass.html" target="_top" xlink:title=" ">
<polygon fill="white" stroke="#666666" points="526.5,-30 369.5,-30 369.5,0 526.5,0 526.5,-30"/>
<text text-anchor="start" x="377.5" y="-18" font-family="Helvetica,sans-Serif" font-size="10.00">SCR_WorldEntityDelegateEditor</text>
<text text-anchor="middle" x="448" y="-7" font-family="Helvetica,sans-Serif" font-size="10.00">ComponentClass</text>
</a>
</g>
</g>
<!-- Node1&#45;&gt;Node48 -->
<g id="edge47" class="edge">
<title>Node1&#45;&gt;Node48</title>
<path fill="none" stroke="#63b8ff" d="M234.95,-838.24C235.13,-722.89 241.7,-161.63 352,-39 356.89,-33.56 362.82,-29.27 369.3,-25.9"/>
<polygon fill="#63b8ff" stroke="#63b8ff" points="231.45,-838.03 234.96,-848.03 238.45,-838.03 231.45,-838.03"/>
</g>
<!-- Node2 -->
<g id="node2" class="node">
<title>Node2</title>
<g id="a_node2"><a xlink:title=" ">
<polygon fill="white" stroke="#666666" points="116,-868.5 0,-868.5 0,-849.5 116,-849.5 116,-868.5"/>
<text text-anchor="middle" x="58" y="-856.5" font-family="Helvetica,sans-Serif" font-size="10.00">ScriptComponentClass</text>
</a>
</g>
</g>
<!-- Node2&#45;&gt;Node1 -->
<g id="edge1" class="edge">
<title>Node2&#45;&gt;Node1</title>
<path fill="none" stroke="#63b8ff" d="M127.23,-859C135.25,-859 143.5,-859 151.67,-859"/>
<polygon fill="#63b8ff" stroke="#63b8ff" points="127.46,-855.5 117.46,-859 127.46,-862.5 127.46,-855.5"/>
</g>
<!-- Node7 -->
<g id="node7" class="node">
<title>Node7</title>
<g id="a_node7"><a xlink:href="interfaceSCR__CommandActionsEditorComponentClass.html" target="_top" xlink:title=" ">
<polygon fill="white" stroke="#666666" points="743.5,-1683 598.5,-1683 598.5,-1653 743.5,-1653 743.5,-1683"/>
<text text-anchor="start" x="606.5" y="-1671" font-family="Helvetica,sans-Serif" font-size="10.00">SCR_CommandActionsEditor</text>
<text text-anchor="middle" x="671" y="-1660" font-family="Helvetica,sans-Serif" font-size="10.00">ComponentClass</text>
</a>
</g>
</g>
<!-- Node6&#45;&gt;Node7 -->
<g id="edge6" class="edge">
<title>Node6&#45;&gt;Node7</title>
<path fill="none" stroke="#63b8ff" d="M531.39,-1614.93C535.71,-1616.51 539.93,-1618.19 544,-1620 561.58,-1627.8 562.48,-1636.08 580,-1644 587.07,-1647.2 594.66,-1650.04 602.32,-1652.54"/>
<polygon fill="#63b8ff" stroke="#63b8ff" points="532.8,-1611.38 522.21,-1611.46 530.55,-1618 532.8,-1611.38"/>
</g>
<!-- Node8 -->
<g id="node8" class="node">
<title>Node8</title>
<g id="a_node8"><a xlink:href="interfaceSCR__ContextActionsEditorComponentClass.html" target="_top" xlink:title=" ">
<polygon fill="white" stroke="#666666" points="738,-1635 604,-1635 604,-1605 738,-1605 738,-1635"/>
<text text-anchor="start" x="612" y="-1623" font-family="Helvetica,sans-Serif" font-size="10.00">SCR_ContextActionsEditor</text>
<text text-anchor="middle" x="671" y="-1612" font-family="Helvetica,sans-Serif" font-size="10.00">ComponentClass</text>
</a>
</g>
</g>
<!-- Node6&#45;&gt;Node8 -->
<g id="edge7" class="edge">
<title>Node6&#45;&gt;Node8</title>
<path fill="none" stroke="#63b8ff" d="M545.6,-1606.49C565.26,-1608.63 585.51,-1610.82 603.82,-1612.81"/>
<polygon fill="#63b8ff" stroke="#63b8ff" points="546.08,-1602.91 535.76,-1605.31 545.32,-1609.87 546.08,-1602.91"/>
</g>
<!-- Node9 -->
<g id="node9" class="node">
<title>Node9</title>
<g id="a_node9"><a xlink:href="interfaceSCR__ToolbarActionsEditorComponentClass.html" target="_top" xlink:title=" ">
<polygon fill="white" stroke="#666666" points="737,-1587 605,-1587 605,-1557 737,-1557 737,-1587"/>
<text text-anchor="start" x="613" y="-1575" font-family="Helvetica,sans-Serif" font-size="10.00">SCR_ToolbarActionsEditor</text>
<text text-anchor="middle" x="671" y="-1564" font-family="Helvetica,sans-Serif" font-size="10.00">ComponentClass</text>
</a>
</g>
</g>
<!-- Node6&#45;&gt;Node9 -->
<g id="edge8" class="edge">
<title>Node6&#45;&gt;Node9</title>
<path fill="none" stroke="#63b8ff" d="M545.44,-1585.53C565.4,-1583.36 585.97,-1581.13 604.51,-1579.11"/>
<polygon fill="#63b8ff" stroke="#63b8ff" points="545.32,-1582.13 535.76,-1586.69 546.08,-1589.09 545.32,-1582.13"/>
</g>
<!-- Node11 -->
<g id="node11" class="node">
<title>Node11</title>
<g id="a_node11"><a xlink:href="interfaceSCR__CampaignBuildingBudgetEditorComponentClass.html" target="_top" xlink:title=" ">
<polygon fill="white" stroke="#666666" points="746.5,-1539 595.5,-1539 595.5,-1509 746.5,-1509 746.5,-1539"/>
<text text-anchor="start" x="603.5" y="-1527" font-family="Helvetica,sans-Serif" font-size="10.00">SCR_CampaignBuildingBudget</text>
<text text-anchor="middle" x="671" y="-1516" font-family="Helvetica,sans-Serif" font-size="10.00">EditorComponentClass</text>
</a>
</g>
</g>
<!-- Node10&#45;&gt;Node11 -->
<g id="edge10" class="edge">
<title>Node10&#45;&gt;Node11</title>
<path fill="none" stroke="#63b8ff" d="M533.12,-1538.86C553.48,-1536.65 575.12,-1534.3 595.03,-1532.14"/>
<polygon fill="#63b8ff" stroke="#63b8ff" points="532.85,-1535.48 523.28,-1540.04 533.6,-1542.44 532.85,-1535.48"/>
</g>
<!-- Node14 -->
<g id="node14" class="node">
<title>Node14</title>
<g id="a_node14"><a xlink:href="interfaceSCR__CameraLimitedEditorComponentClass.html" target="_top" xlink:title=" ">
<polygon fill="white" stroke="#666666" points="762,-1479 580,-1479 580,-1449 762,-1449 762,-1479"/>
<text text-anchor="start" x="588" y="-1467" font-family="Helvetica,sans-Serif" font-size="10.00">SCR_CameraLimitedEditorComponent</text>
<text text-anchor="middle" x="671" y="-1456" font-family="Helvetica,sans-Serif" font-size="10.00">Class</text>
</a>
</g>
</g>
<!-- Node13&#45;&gt;Node14 -->
<g id="edge13" class="edge">
<title>Node13&#45;&gt;Node14</title>
<path fill="none" stroke="#63b8ff" d="M534.46,-1456.64C549.24,-1457.44 564.65,-1458.28 579.56,-1459.09"/>
<polygon fill="#63b8ff" stroke="#63b8ff" points="535,-1453.11 524.82,-1456.06 534.62,-1460.1 535,-1453.11"/>
</g>
<!-- Node15 -->
<g id="node15" class="node">
<title>Node15</title>
<g id="a_node15"><a xlink:href="interfaceSCR__CampaignBuildingCameraEditorComponentClass.html" target="_top" xlink:title=" ">
<polygon fill="white" stroke="#666666" points="748,-1431 594,-1431 594,-1401 748,-1401 748,-1431"/>
<text text-anchor="start" x="602" y="-1419" font-family="Helvetica,sans-Serif" font-size="10.00">SCR_CampaignBuildingCamera</text>
<text text-anchor="middle" x="671" y="-1408" font-family="Helvetica,sans-Serif" font-size="10.00">EditorComponentClass</text>
</a>
</g>
</g>
<!-- Node13&#45;&gt;Node15 -->
<g id="edge14" class="edge">
<title>Node13&#45;&gt;Node15</title>
<path fill="none" stroke="#63b8ff" d="M534.53,-1438.07C554.05,-1434.89 574.66,-1431.53 593.75,-1428.42"/>
<polygon fill="#63b8ff" stroke="#63b8ff" points="534.13,-1434.75 524.82,-1439.81 535.25,-1441.66 534.13,-1434.75"/>
</g>
<!-- Node38 -->
<g id="node38" class="node">
<title>Node38</title>
<g id="a_node38"><a xlink:href="interfaceSCR__CampaignBuildingPlacingEditorComponentClass.html" target="_top" xlink:title=" ">
<polygon fill="white" stroke="#666666" points="747,-452 595,-452 595,-422 747,-422 747,-452"/>
<text text-anchor="start" x="603" y="-440" font-family="Helvetica,sans-Serif" font-size="10.00">SCR_CampaignBuildingPlacing</text>
<text text-anchor="middle" x="671" y="-429" font-family="Helvetica,sans-Serif" font-size="10.00">EditorComponentClass</text>
</a>
</g>
</g>
<!-- Node37&#45;&gt;Node38 -->
<g id="edge37" class="edge">
<title>Node37&#45;&gt;Node38</title>
<path fill="none" stroke="#63b8ff" d="M533.88,-437C553.9,-437 575.1,-437 594.66,-437"/>
<polygon fill="#63b8ff" stroke="#63b8ff" points="533.9,-433.5 523.9,-437 533.9,-440.5 533.9,-433.5"/>
</g>
<!-- Node47 -->
<g id="node47" class="node">
<title>Node47</title>
<g id="a_node47"><a xlink:href="interfaceSCR__CampaignBuildingTransformingEditorComponentClass.html" target="_top" xlink:title=" ">
<polygon fill="white" stroke="#666666" points="759,-78 583,-78 583,-48 759,-48 759,-78"/>
<text text-anchor="start" x="591" y="-66" font-family="Helvetica,sans-Serif" font-size="10.00">SCR_CampaignBuildingTransforming</text>
<text text-anchor="middle" x="671" y="-55" font-family="Helvetica,sans-Serif" font-size="10.00">EditorComponentClass</text>
</a>
</g>
</g>
<!-- Node46&#45;&gt;Node47 -->
<g id="edge46" class="edge">
<title>Node46&#45;&gt;Node47</title>
<path fill="none" stroke="#63b8ff" d="M545.57,-63C557.97,-63 570.6,-63 582.83,-63"/>
<polygon fill="#63b8ff" stroke="#63b8ff" points="545.76,-59.5 535.76,-63 545.76,-66.5 545.76,-59.5"/>
</g>
</g>
</svg>
