<?xml version="1.0" encoding="UTF-8" standalone="no"?>
<!DOCTYPE svg PUBLIC "-//W3C//DTD SVG 1.1//EN"
 "http://www.w3.org/Graphics/SVG/1.1/DTD/svg11.dtd">
<!-- Generated by graphviz version 8.0.2 (20230410.1723)
 -->
<!-- Title: SCR_GadgetComponentClass Pages: 1 -->
<svg width="690pt" height="407pt"
 viewBox="0.00 0.00 690.00 407.00" xmlns="http://www.w3.org/2000/svg" xmlns:xlink="http://www.w3.org/1999/xlink">
<g id="graph0" class="graph" transform="scale(1 1) rotate(0) translate(4 403)">
<title>SCR_GadgetComponentClass</title>
<!-- Node1 -->
<g id="node1" class="node">
<title>Node1</title>
<g id="a_node1"><a xlink:title=" ">
<polygon fill="#999999" stroke="#666666" points="479,-200 331,-200 331,-181 479,-181 479,-200"/>
<text text-anchor="middle" x="405" y="-188" font-family="Helvetica,sans-Serif" font-size="10.00">SCR_GadgetComponentClass</text>
</a>
</g>
</g>
<!-- Node4 -->
<g id="node4" class="node">
<title>Node4</title>
<g id="a_node4"><a xlink:href="interfaceSCR__BinocularsComponentClass.html" target="_top" xlink:title=" ">
<polygon fill="white" stroke="#666666" points="679.5,-399 517.5,-399 517.5,-380 679.5,-380 679.5,-399"/>
<text text-anchor="middle" x="598.5" y="-387" font-family="Helvetica,sans-Serif" font-size="10.00">SCR_BinocularsComponentClass</text>
</a>
</g>
</g>
<!-- Node1&#45;&gt;Node4 -->
<g id="edge3" class="edge">
<title>Node1&#45;&gt;Node4</title>
<path fill="none" stroke="#63b8ff" d="M412.17,-210.31C424.92,-247.82 457.87,-329.16 515,-370.5 520.12,-374.2 525.85,-377.2 531.84,-379.62"/>
<polygon fill="#63b8ff" stroke="#63b8ff" points="415.29,-209.59 408.86,-201.17 408.63,-211.76 415.29,-209.59"/>
</g>
<!-- Node5 -->
<g id="node5" class="node">
<title>Node5</title>
<g id="a_node5"><a xlink:href="interfaceSCR__CampaignBuildingGadgetToolComponentClass.html" target="_top" xlink:title=" ">
<polygon fill="white" stroke="#666666" points="674.5,-361.5 522.5,-361.5 522.5,-331.5 674.5,-331.5 674.5,-361.5"/>
<text text-anchor="start" x="530.5" y="-349.5" font-family="Helvetica,sans-Serif" font-size="10.00">SCR_CampaignBuildingGadget</text>
<text text-anchor="middle" x="598.5" y="-338.5" font-family="Helvetica,sans-Serif" font-size="10.00">ToolComponentClass</text>
</a>
</g>
</g>
<!-- Node1&#45;&gt;Node5 -->
<g id="edge4" class="edge">
<title>Node1&#45;&gt;Node5</title>
<path fill="none" stroke="#63b8ff" d="M416.57,-209.49C433.55,-238.25 469.67,-292.68 515,-322.5 519.98,-325.78 525.43,-328.62 531.06,-331.08"/>
<polygon fill="#63b8ff" stroke="#63b8ff" points="419.21,-208.07 411.19,-201.14 413.15,-211.56 419.21,-208.07"/>
</g>
<!-- Node6 -->
<g id="node6" class="node">
<title>Node6</title>
<g id="a_node6"><a xlink:href="interfaceSCR__CompassComponentClass.html" target="_top" xlink:title="Prefab data class for compass component.">
<polygon fill="white" stroke="#666666" points="677.5,-313 519.5,-313 519.5,-294 677.5,-294 677.5,-313"/>
<text text-anchor="middle" x="598.5" y="-301" font-family="Helvetica,sans-Serif" font-size="10.00">SCR_CompassComponentClass</text>
</a>
</g>
</g>
<!-- Node1&#45;&gt;Node6 -->
<g id="edge5" class="edge">
<title>Node1&#45;&gt;Node6</title>
<path fill="none" stroke="#63b8ff" d="M421.33,-208.17C440.89,-229.57 476.8,-265.14 515,-284.5 522.21,-288.15 530.13,-291.11 538.12,-293.51"/>
<polygon fill="#63b8ff" stroke="#63b8ff" points="424.49,-206.34 415.21,-201.22 419.27,-211 424.49,-206.34"/>
</g>
<!-- Node7 -->
<g id="node7" class="node">
<title>Node7</title>
<g id="a_node7"><a xlink:href="interfaceSCR__ConsumableItemComponentClass.html" target="_top" xlink:title=" ">
<polygon fill="white" stroke="#666666" points="680.5,-275.5 516.5,-275.5 516.5,-245.5 680.5,-245.5 680.5,-275.5"/>
<text text-anchor="start" x="524.5" y="-263.5" font-family="Helvetica,sans-Serif" font-size="10.00">SCR_ConsumableItemComponent</text>
<text text-anchor="middle" x="598.5" y="-252.5" font-family="Helvetica,sans-Serif" font-size="10.00">Class</text>
</a>
</g>
</g>
<!-- Node1&#45;&gt;Node7 -->
<g id="edge6" class="edge">
<title>Node1&#45;&gt;Node7</title>
<path fill="none" stroke="#63b8ff" d="M437.34,-204.87C458.92,-214.48 488.39,-227.05 515,-236.5 523.43,-239.49 532.45,-242.4 541.3,-245.1"/>
<polygon fill="#63b8ff" stroke="#63b8ff" points="438.98,-201.32 428.42,-200.42 436.11,-207.71 438.98,-201.32"/>
</g>
<!-- Node8 -->
<g id="node8" class="node">
<title>Node8</title>
<g id="a_node8"><a xlink:href="interfaceSCR__DetonatorGadgetComponentClass.html" target="_top" xlink:title=" ">
<polygon fill="white" stroke="#666666" points="681,-227.5 516,-227.5 516,-197.5 681,-197.5 681,-227.5"/>
<text text-anchor="start" x="524" y="-215.5" font-family="Helvetica,sans-Serif" font-size="10.00">SCR_DetonatorGadgetComponent</text>
<text text-anchor="middle" x="598.5" y="-204.5" font-family="Helvetica,sans-Serif" font-size="10.00">Class</text>
</a>
</g>
</g>
<!-- Node1&#45;&gt;Node8 -->
<g id="edge7" class="edge">
<title>Node1&#45;&gt;Node8</title>
<path fill="none" stroke="#63b8ff" d="M490.4,-200.2C498.77,-201.16 507.25,-202.13 515.59,-203.09"/>
<polygon fill="#63b8ff" stroke="#63b8ff" points="490.83,-196.61 480.49,-198.94 490.03,-203.56 490.83,-196.61"/>
</g>
<!-- Node9 -->
<g id="node9" class="node">
<title>Node9</title>
<g id="a_node9"><a xlink:href="interfaceSCR__FlashlightComponentClass.html" target="_top" xlink:title=" ">
<polygon fill="white" stroke="#666666" points="677.5,-179 519.5,-179 519.5,-160 677.5,-160 677.5,-179"/>
<text text-anchor="middle" x="598.5" y="-167" font-family="Helvetica,sans-Serif" font-size="10.00">SCR_FlashlightComponentClass</text>
</a>
</g>
</g>
<!-- Node1&#45;&gt;Node9 -->
<g id="edge8" class="edge">
<title>Node1&#45;&gt;Node9</title>
<path fill="none" stroke="#63b8ff" d="M490.24,-181.26C499.84,-180.21 509.6,-179.14 519.12,-178.1"/>
<polygon fill="#63b8ff" stroke="#63b8ff" points="490.05,-177.87 480.49,-182.44 490.81,-184.83 490.05,-177.87"/>
</g>
<!-- Node10 -->
<g id="node10" class="node">
<title>Node10</title>
<g id="a_node10"><a xlink:href="interfaceSCR__MapGadgetComponentClass.html" target="_top" xlink:title=" ">
<polygon fill="white" stroke="#666666" points="682,-142 515,-142 515,-123 682,-123 682,-142"/>
<text text-anchor="middle" x="598.5" y="-130" font-family="Helvetica,sans-Serif" font-size="10.00">SCR_MapGadgetComponentClass</text>
</a>
</g>
</g>
<!-- Node1&#45;&gt;Node10 -->
<g id="edge9" class="edge">
<title>Node1&#45;&gt;Node10</title>
<path fill="none" stroke="#63b8ff" d="M440.09,-176.62C461.38,-168.3 489.5,-157.92 515,-150.5 525.13,-147.55 536.09,-144.84 546.61,-142.46"/>
<polygon fill="#63b8ff" stroke="#63b8ff" points="438.94,-173.71 430.93,-180.64 441.51,-180.22 438.94,-173.71"/>
</g>
<!-- Node11 -->
<g id="node11" class="node">
<title>Node11</title>
<g id="a_node11"><a xlink:href="interfaceSCR__RadioComponentClass.html" target="_top" xlink:title=" ">
<polygon fill="white" stroke="#666666" points="669,-105 528,-105 528,-86 669,-86 669,-105"/>
<text text-anchor="middle" x="598.5" y="-93" font-family="Helvetica,sans-Serif" font-size="10.00">SCR_RadioComponentClass</text>
</a>
</g>
</g>
<!-- Node1&#45;&gt;Node11 -->
<g id="edge10" class="edge">
<title>Node1&#45;&gt;Node11</title>
<path fill="none" stroke="#63b8ff" d="M425.06,-173.39C445.74,-155.74 480.46,-128.71 515,-113.5 522.24,-110.31 530.1,-107.66 538,-105.47"/>
<polygon fill="#63b8ff" stroke="#63b8ff" points="423.09,-171.34 417.85,-180.54 427.69,-176.62 423.09,-171.34"/>
</g>
<!-- Node12 -->
<g id="node12" class="node">
<title>Node12</title>
<g id="a_node12"><a xlink:href="interfaceSCR__SupportStationGadgetComponentClass.html" target="_top" xlink:title=" ">
<polygon fill="white" stroke="#666666" points="667.5,-67.5 529.5,-67.5 529.5,-37.5 667.5,-37.5 667.5,-67.5"/>
<text text-anchor="start" x="537.5" y="-55.5" font-family="Helvetica,sans-Serif" font-size="10.00">SCR_SupportStationGadget</text>
<text text-anchor="middle" x="598.5" y="-44.5" font-family="Helvetica,sans-Serif" font-size="10.00">ComponentClass</text>
</a>
</g>
</g>
<!-- Node1&#45;&gt;Node12 -->
<g id="edge11" class="edge">
<title>Node1&#45;&gt;Node12</title>
<path fill="none" stroke="#63b8ff" d="M418.79,-171.96C437.18,-146.69 473.49,-101.69 515,-76.5 520.36,-73.25 526.17,-70.42 532.16,-67.96"/>
<polygon fill="#63b8ff" stroke="#63b8ff" points="415.59,-169.42 412.64,-179.6 421.29,-173.48 415.59,-169.42"/>
</g>
<!-- Node13 -->
<g id="node13" class="node">
<title>Node13</title>
<g id="a_node13"><a xlink:href="interfaceSCR__WristwatchComponentClass.html" target="_top" xlink:title=" ">
<polygon fill="white" stroke="#666666" points="681,-19 516,-19 516,0 681,0 681,-19"/>
<text text-anchor="middle" x="598.5" y="-7" font-family="Helvetica,sans-Serif" font-size="10.00">SCR_WristwatchComponentClass</text>
</a>
</g>
</g>
<!-- Node1&#45;&gt;Node13 -->
<g id="edge12" class="edge">
<title>Node1&#45;&gt;Node13</title>
<path fill="none" stroke="#63b8ff" d="M413.53,-170.75C427.78,-136.17 462.07,-64.9 515,-28.5 520.33,-24.84 526.26,-21.87 532.44,-19.47"/>
<polygon fill="#63b8ff" stroke="#63b8ff" points="410.06,-169.01 409.61,-179.6 416.56,-171.6 410.06,-169.01"/>
</g>
<!-- Node2 -->
<g id="node2" class="node">
<title>Node2</title>
<g id="a_node2"><a xlink:href="interfaceScriptGameComponentClass.html" target="_top" xlink:title=" ">
<polygon fill="white" stroke="#666666" points="295,-200 152,-200 152,-181 295,-181 295,-200"/>
<text text-anchor="middle" x="223.5" y="-188" font-family="Helvetica,sans-Serif" font-size="10.00">ScriptGameComponentClass</text>
</a>
</g>
</g>
<!-- Node2&#45;&gt;Node1 -->
<g id="edge1" class="edge">
<title>Node2&#45;&gt;Node1</title>
<path fill="none" stroke="#63b8ff" d="M306.39,-190.5C314.47,-190.5 322.64,-190.5 330.63,-190.5"/>
<polygon fill="#63b8ff" stroke="#63b8ff" points="306.44,-187 296.44,-190.5 306.44,-194 306.44,-187"/>
</g>
<!-- Node3 -->
<g id="node3" class="node">
<title>Node3</title>
<g id="a_node3"><a xlink:title=" ">
<polygon fill="white" stroke="#666666" points="116,-200 0,-200 0,-181 116,-181 116,-200"/>
<text text-anchor="middle" x="58" y="-188" font-family="Helvetica,sans-Serif" font-size="10.00">ScriptComponentClass</text>
</a>
</g>
</g>
<!-- Node3&#45;&gt;Node2 -->
<g id="edge2" class="edge">
<title>Node3&#45;&gt;Node2</title>
<path fill="none" stroke="#63b8ff" d="M127.07,-190.5C135.15,-190.5 143.42,-190.5 151.54,-190.5"/>
<polygon fill="#63b8ff" stroke="#63b8ff" points="127.18,-187 117.18,-190.5 127.18,-194 127.18,-187"/>
</g>
</g>
</svg>
