<?xml version="1.0" encoding="UTF-8" standalone="no"?>
<!DOCTYPE svg PUBLIC "-//W3C//DTD SVG 1.1//EN"
 "http://www.w3.org/Graphics/SVG/1.1/DTD/svg11.dtd">
<!-- Generated by graphviz version 8.0.2 (20230410.1723)
 -->
<!-- Title: SCR_ModesEditorAttribute Pages: 1 -->
<svg width="169pt" height="269pt"
 viewBox="0.00 0.00 169.00 269.00" xmlns="http://www.w3.org/2000/svg" xmlns:xlink="http://www.w3.org/1999/xlink">
<g id="graph0" class="graph" transform="scale(1 1) rotate(0) translate(4 265)">
<title>SCR_ModesEditorAttribute</title>
<!-- Node1 -->
<g id="node1" class="node">
<title>Node1</title>
<g id="a_node1"><a xlink:title="Modes and Budget attribute for getting and setting varriables in Editor Attribute window.">
<polygon fill="#999999" stroke="#666666" points="147.5,-19 13.5,-19 13.5,0 147.5,0 147.5,-19"/>
<text text-anchor="middle" x="80.5" y="-7" font-family="Helvetica,sans-Serif" font-size="10.00">SCR_ModesEditorAttribute</text>
</a>
</g>
</g>
<!-- Node2 -->
<g id="node2" class="node">
<title>Node2</title>
<g id="a_node2"><a xlink:href="interfaceSCR__BaseMultiSelectPresetsEditorAttribute.html" target="_top" xlink:title=" ">
<polygon fill="white" stroke="#666666" points="154,-85 7,-85 7,-55 154,-55 154,-85"/>
<text text-anchor="start" x="15" y="-73" font-family="Helvetica,sans-Serif" font-size="10.00">SCR_BaseMultiSelectPresets</text>
<text text-anchor="middle" x="80.5" y="-62" font-family="Helvetica,sans-Serif" font-size="10.00">EditorAttribute</text>
</a>
</g>
</g>
<!-- Node2&#45;&gt;Node1 -->
<g id="edge1" class="edge">
<title>Node2&#45;&gt;Node1</title>
<path fill="none" stroke="#63b8ff" d="M80.5,-43.59C80.5,-34.85 80.5,-25.65 80.5,-19.18"/>
<polygon fill="#63b8ff" stroke="#63b8ff" points="77,-43.54 80.5,-53.54 84,-43.54 77,-43.54"/>
</g>
<!-- Node3 -->
<g id="node3" class="node">
<title>Node3</title>
<g id="a_node3"><a xlink:href="interfaceSCR__BasePresetsEditorAttribute.html" target="_top" xlink:title="Attribute base for Name, icon and float value for other attributes to inherent from.">
<polygon fill="white" stroke="#666666" points="161,-140 0,-140 0,-121 161,-121 161,-140"/>
<text text-anchor="middle" x="80.5" y="-128" font-family="Helvetica,sans-Serif" font-size="10.00">SCR_BasePresetsEditorAttribute</text>
</a>
</g>
</g>
<!-- Node3&#45;&gt;Node2 -->
<g id="edge2" class="edge">
<title>Node3&#45;&gt;Node2</title>
<path fill="none" stroke="#63b8ff" d="M80.5,-110.08C80.5,-101.92 80.5,-92.6 80.5,-85.11"/>
<polygon fill="#63b8ff" stroke="#63b8ff" points="77,-109.87 80.5,-119.87 84,-109.87 77,-109.87"/>
</g>
<!-- Node4 -->
<g id="node4" class="node">
<title>Node4</title>
<g id="a_node4"><a xlink:href="interfaceSCR__BaseFloatValueHolderEditorAttribute.html" target="_top" xlink:title="Attribute base for Name, icon and float value for other attributes to inherent from.">
<polygon fill="white" stroke="#666666" points="150,-206 11,-206 11,-176 150,-176 150,-206"/>
<text text-anchor="start" x="19" y="-194" font-family="Helvetica,sans-Serif" font-size="10.00">SCR_BaseFloatValueHolder</text>
<text text-anchor="middle" x="80.5" y="-183" font-family="Helvetica,sans-Serif" font-size="10.00">EditorAttribute</text>
</a>
</g>
</g>
<!-- Node4&#45;&gt;Node3 -->
<g id="edge3" class="edge">
<title>Node4&#45;&gt;Node3</title>
<path fill="none" stroke="#63b8ff" d="M80.5,-164.59C80.5,-155.85 80.5,-146.65 80.5,-140.18"/>
<polygon fill="#63b8ff" stroke="#63b8ff" points="77,-164.54 80.5,-174.54 84,-164.54 77,-164.54"/>
</g>
<!-- Node5 -->
<g id="node5" class="node">
<title>Node5</title>
<g id="a_node5"><a xlink:href="interfaceSCR__BaseEditorAttribute.html" target="_top" xlink:title="Base Attribute Script for other attributes to inherent from to get and set varriables in Editor Attri...">
<polygon fill="white" stroke="#666666" points="144,-261 17,-261 17,-242 144,-242 144,-261"/>
<text text-anchor="middle" x="80.5" y="-249" font-family="Helvetica,sans-Serif" font-size="10.00">SCR_BaseEditorAttribute</text>
</a>
</g>
</g>
<!-- Node5&#45;&gt;Node4 -->
<g id="edge4" class="edge">
<title>Node5&#45;&gt;Node4</title>
<path fill="none" stroke="#63b8ff" d="M80.5,-231.08C80.5,-222.92 80.5,-213.6 80.5,-206.11"/>
<polygon fill="#63b8ff" stroke="#63b8ff" points="77,-230.87 80.5,-240.87 84,-230.87 77,-230.87"/>
</g>
</g>
</svg>
