<?xml version="1.0" encoding="UTF-8" standalone="no"?>
<!DOCTYPE svg PUBLIC "-//W3C//DTD SVG 1.1//EN"
 "http://www.w3.org/Graphics/SVG/1.1/DTD/svg11.dtd">
<!-- Generated by graphviz version 8.0.2 (20230410.1723)
 -->
<!-- Title: SCR_PlayerSpawnPoint Pages: 1 -->
<svg width="154pt" height="313pt"
 viewBox="0.00 0.00 154.00 313.00" xmlns="http://www.w3.org/2000/svg" xmlns:xlink="http://www.w3.org/1999/xlink">
<g id="graph0" class="graph" transform="scale(1 1) rotate(0) translate(4 309)">
<title>SCR_PlayerSpawnPoint</title>
<!-- Node1 -->
<g id="node1" class="node">
<title>Node1</title>
<g id="a_node1"><a xlink:title=" ">
<polygon fill="#999999" stroke="#666666" points="134,-140 12,-140 12,-121 134,-121 134,-140"/>
<text text-anchor="middle" x="73" y="-128" font-family="Helvetica,sans-Serif" font-size="10.00">SCR_PlayerSpawnPoint</text>
</a>
</g>
</g>
<!-- Node5 -->
<g id="node5" class="node">
<title>Node5</title>
<g id="a_node5"><a xlink:href="interfaceSCR__PlayerRadioSpawnPoint.html" target="_top" xlink:title=" ">
<polygon fill="white" stroke="#666666" points="146,-85 0,-85 0,-66 146,-66 146,-85"/>
<text text-anchor="middle" x="73" y="-73" font-family="Helvetica,sans-Serif" font-size="10.00">SCR_PlayerRadioSpawnPoint</text>
</a>
</g>
</g>
<!-- Node1&#45;&gt;Node5 -->
<g id="edge4" class="edge">
<title>Node1&#45;&gt;Node5</title>
<path fill="none" stroke="#63b8ff" d="M73,-109.93C73,-101.53 73,-92.13 73,-85.44"/>
<polygon fill="#63b8ff" stroke="#63b8ff" points="69.5,-109.75 73,-119.75 76.5,-109.75 69.5,-109.75"/>
</g>
<!-- Node2 -->
<g id="node2" class="node">
<title>Node2</title>
<g id="a_node2"><a xlink:href="interfaceSCR__SpawnPoint.html" target="_top" xlink:title="Spawn point entity defines positions on which players can possibly spawn.">
<polygon fill="white" stroke="#666666" points="120,-195 26,-195 26,-176 120,-176 120,-195"/>
<text text-anchor="middle" x="73" y="-183" font-family="Helvetica,sans-Serif" font-size="10.00">SCR_SpawnPoint</text>
</a>
</g>
</g>
<!-- Node2&#45;&gt;Node1 -->
<g id="edge1" class="edge">
<title>Node2&#45;&gt;Node1</title>
<path fill="none" stroke="#63b8ff" d="M73,-164.93C73,-156.53 73,-147.13 73,-140.44"/>
<polygon fill="#63b8ff" stroke="#63b8ff" points="69.5,-164.75 73,-174.75 76.5,-164.75 69.5,-164.75"/>
</g>
<!-- Node3 -->
<g id="node3" class="node">
<title>Node3</title>
<g id="a_node3"><a xlink:href="interfaceSCR__Position.html" target="_top" xlink:title=" ">
<polygon fill="white" stroke="#666666" points="111.5,-250 34.5,-250 34.5,-231 111.5,-231 111.5,-250"/>
<text text-anchor="middle" x="73" y="-238" font-family="Helvetica,sans-Serif" font-size="10.00">SCR_Position</text>
</a>
</g>
</g>
<!-- Node3&#45;&gt;Node2 -->
<g id="edge2" class="edge">
<title>Node3&#45;&gt;Node2</title>
<path fill="none" stroke="#63b8ff" d="M73,-219.93C73,-211.53 73,-202.13 73,-195.44"/>
<polygon fill="#63b8ff" stroke="#63b8ff" points="69.5,-219.75 73,-229.75 76.5,-219.75 69.5,-219.75"/>
</g>
<!-- Node4 -->
<g id="node4" class="node">
<title>Node4</title>
<g id="a_node4"><a xlink:title=" ">
<polygon fill="white" stroke="#666666" points="111,-305 35,-305 35,-286 111,-286 111,-305"/>
<text text-anchor="middle" x="73" y="-293" font-family="Helvetica,sans-Serif" font-size="10.00">GenericEntity</text>
</a>
</g>
</g>
<!-- Node4&#45;&gt;Node3 -->
<g id="edge3" class="edge">
<title>Node4&#45;&gt;Node3</title>
<path fill="none" stroke="#63b8ff" d="M73,-274.93C73,-266.53 73,-257.13 73,-250.44"/>
<polygon fill="#63b8ff" stroke="#63b8ff" points="69.5,-274.75 73,-284.75 76.5,-274.75 69.5,-274.75"/>
</g>
<!-- Node6 -->
<g id="node6" class="node">
<title>Node6</title>
<g id="a_node6"><a xlink:href="interfaceSCR__PlayerRadioSpawnPointCampaign.html" target="_top" xlink:title=" ">
<polygon fill="white" stroke="#666666" points="146,-30 0,-30 0,0 146,0 146,-30"/>
<text text-anchor="start" x="8" y="-18" font-family="Helvetica,sans-Serif" font-size="10.00">SCR_PlayerRadioSpawnPoint</text>
<text text-anchor="middle" x="73" y="-7" font-family="Helvetica,sans-Serif" font-size="10.00">Campaign</text>
</a>
</g>
</g>
<!-- Node5&#45;&gt;Node6 -->
<g id="edge5" class="edge">
<title>Node5&#45;&gt;Node6</title>
<path fill="none" stroke="#63b8ff" d="M73,-55.08C73,-46.92 73,-37.6 73,-30.11"/>
<polygon fill="#63b8ff" stroke="#63b8ff" points="69.5,-54.87 73,-64.87 76.5,-54.87 69.5,-54.87"/>
</g>
</g>
</svg>
