<?xml version="1.0" encoding="UTF-8" standalone="no"?>
<!DOCTYPE svg PUBLIC "-//W3C//DTD SVG 1.1//EN"
 "http://www.w3.org/Graphics/SVG/1.1/DTD/svg11.dtd">
<!-- Generated by graphviz version 8.0.2 (20230410.1723)
 -->
<!-- Title: SCR_NotificationEntityCallsign Pages: 1 -->
<svg width="158pt" height="148pt"
 viewBox="0.00 0.00 158.00 148.00" xmlns="http://www.w3.org/2000/svg" xmlns:xlink="http://www.w3.org/1999/xlink">
<g id="graph0" class="graph" transform="scale(1 1) rotate(0) translate(4 144)">
<title>SCR_NotificationEntityCallsign</title>
<!-- Node1 -->
<g id="node1" class="node">
<title>Node1</title>
<g id="a_node1"><a xlink:title="Notification Entity (group or character) callsign Displays a notification: %1 = Formated Callsign of ...">
<polygon fill="#999999" stroke="#666666" points="150,-19 0,-19 0,0 150,0 150,-19"/>
<text text-anchor="middle" x="75" y="-7" font-family="Helvetica,sans-Serif" font-size="10.00">SCR_NotificationEntityCallsign</text>
</a>
</g>
</g>
<!-- Node2 -->
<g id="node2" class="node">
<title>Node2</title>
<g id="a_node2"><a xlink:href="interfaceSCR__NotificationEditableEntity.html" target="_top" xlink:title="Notification Editable Entity Display info Displays a notification: %1 = EditableEntity name SCR_Notif...">
<polygon fill="white" stroke="#666666" points="137.5,-85 12.5,-85 12.5,-55 137.5,-55 137.5,-85"/>
<text text-anchor="start" x="20.5" y="-73" font-family="Helvetica,sans-Serif" font-size="10.00">SCR_NotificationEditable</text>
<text text-anchor="middle" x="75" y="-62" font-family="Helvetica,sans-Serif" font-size="10.00">Entity</text>
</a>
</g>
</g>
<!-- Node2&#45;&gt;Node1 -->
<g id="edge1" class="edge">
<title>Node2&#45;&gt;Node1</title>
<path fill="none" stroke="#63b8ff" d="M75,-43.59C75,-34.85 75,-25.65 75,-19.18"/>
<polygon fill="#63b8ff" stroke="#63b8ff" points="71.5,-43.54 75,-53.54 78.5,-43.54 71.5,-43.54"/>
</g>
<!-- Node3 -->
<g id="node3" class="node">
<title>Node3</title>
<g id="a_node3"><a xlink:href="interfaceSCR__NotificationDisplayData.html" target="_top" xlink:title="Used to get the display information for each notification.">
<polygon fill="white" stroke="#666666" points="146.5,-140 3.5,-140 3.5,-121 146.5,-121 146.5,-140"/>
<text text-anchor="middle" x="75" y="-128" font-family="Helvetica,sans-Serif" font-size="10.00">SCR_NotificationDisplayData</text>
</a>
</g>
</g>
<!-- Node3&#45;&gt;Node2 -->
<g id="edge2" class="edge">
<title>Node3&#45;&gt;Node2</title>
<path fill="none" stroke="#63b8ff" d="M75,-110.08C75,-101.92 75,-92.6 75,-85.11"/>
<polygon fill="#63b8ff" stroke="#63b8ff" points="71.5,-109.87 75,-119.87 78.5,-109.87 71.5,-109.87"/>
</g>
</g>
</svg>
