<?xml version="1.0" encoding="UTF-8" standalone="no"?>
<!DOCTYPE svg PUBLIC "-//W3C//DTD SVG 1.1//EN"
 "http://www.w3.org/Graphics/SVG/1.1/DTD/svg11.dtd">
<!-- Generated by graphviz version 8.0.2 (20230410.1723)
 -->
<!-- Title: SCR_EditableGroupUIInfo Pages: 1 -->
<svg width="136pt" height="247pt"
 viewBox="0.00 0.00 136.00 247.00" xmlns="http://www.w3.org/2000/svg" xmlns:xlink="http://www.w3.org/1999/xlink">
<g id="graph0" class="graph" transform="scale(1 1) rotate(0) translate(4 243)">
<title>SCR_EditableGroupUIInfo</title>
<!-- Node1 -->
<g id="node1" class="node">
<title>Node1</title>
<g id="a_node1"><a xlink:title=" ">
<polygon fill="#999999" stroke="#666666" points="128,-19 0,-19 0,0 128,0 128,-19"/>
<text text-anchor="middle" x="64" y="-7" font-family="Helvetica,sans-Serif" font-size="10.00">SCR_EditableGroupUIInfo</text>
</a>
</g>
</g>
<!-- Node2 -->
<g id="node2" class="node">
<title>Node2</title>
<g id="a_node2"><a xlink:href="interfaceSCR__EditableEntityUIInfo.html" target="_top" xlink:title=" ">
<polygon fill="white" stroke="#666666" points="127.5,-74 0.5,-74 0.5,-55 127.5,-55 127.5,-74"/>
<text text-anchor="middle" x="64" y="-62" font-family="Helvetica,sans-Serif" font-size="10.00">SCR_EditableEntityUIInfo</text>
</a>
</g>
</g>
<!-- Node2&#45;&gt;Node1 -->
<g id="edge1" class="edge">
<title>Node2&#45;&gt;Node1</title>
<path fill="none" stroke="#63b8ff" d="M64,-43.93C64,-35.53 64,-26.13 64,-19.44"/>
<polygon fill="#63b8ff" stroke="#63b8ff" points="60.5,-43.75 64,-53.75 67.5,-43.75 60.5,-43.75"/>
</g>
<!-- Node3 -->
<g id="node3" class="node">
<title>Node3</title>
<g id="a_node3"><a xlink:href="interfaceSCR__UIInfo.html" target="_top" xlink:title="Class used to hold UI information.">
<polygon fill="white" stroke="#666666" points="97,-129 31,-129 31,-110 97,-110 97,-129"/>
<text text-anchor="middle" x="64" y="-117" font-family="Helvetica,sans-Serif" font-size="10.00">SCR_UIInfo</text>
</a>
</g>
</g>
<!-- Node3&#45;&gt;Node2 -->
<g id="edge2" class="edge">
<title>Node3&#45;&gt;Node2</title>
<path fill="none" stroke="#63b8ff" d="M64,-98.93C64,-90.53 64,-81.13 64,-74.44"/>
<polygon fill="#63b8ff" stroke="#63b8ff" points="60.5,-98.75 64,-108.75 67.5,-98.75 60.5,-98.75"/>
</g>
<!-- Node4 -->
<g id="node4" class="node">
<title>Node4</title>
<g id="a_node4"><a xlink:href="interfaceSCR__UIDescription.html" target="_top" xlink:title="Class used to hold UI name and description.">
<polygon fill="white" stroke="#666666" points="114,-184 14,-184 14,-165 114,-165 114,-184"/>
<text text-anchor="middle" x="64" y="-172" font-family="Helvetica,sans-Serif" font-size="10.00">SCR_UIDescription</text>
</a>
</g>
</g>
<!-- Node4&#45;&gt;Node3 -->
<g id="edge3" class="edge">
<title>Node4&#45;&gt;Node3</title>
<path fill="none" stroke="#63b8ff" d="M64,-153.93C64,-145.53 64,-136.13 64,-129.44"/>
<polygon fill="#63b8ff" stroke="#63b8ff" points="60.5,-153.75 64,-163.75 67.5,-153.75 60.5,-153.75"/>
</g>
<!-- Node5 -->
<g id="node5" class="node">
<title>Node5</title>
<g id="a_node5"><a xlink:href="interfaceSCR__UIName.html" target="_top" xlink:title="Class used to hold UI name.">
<polygon fill="white" stroke="#666666" points="102.5,-239 25.5,-239 25.5,-220 102.5,-220 102.5,-239"/>
<text text-anchor="middle" x="64" y="-227" font-family="Helvetica,sans-Serif" font-size="10.00">SCR_UIName</text>
</a>
</g>
</g>
<!-- Node5&#45;&gt;Node4 -->
<g id="edge4" class="edge">
<title>Node5&#45;&gt;Node4</title>
<path fill="none" stroke="#63b8ff" d="M64,-208.93C64,-200.53 64,-191.13 64,-184.44"/>
<polygon fill="#63b8ff" stroke="#63b8ff" points="60.5,-208.75 64,-218.75 67.5,-208.75 60.5,-208.75"/>
</g>
</g>
</svg>
