<?xml version="1.0" encoding="UTF-8" standalone="no"?>
<!DOCTYPE svg PUBLIC "-//W3C//DTD SVG 1.1//EN"
 "http://www.w3.org/Graphics/SVG/1.1/DTD/svg11.dtd">
<!-- Generated by graphviz version 8.0.2 (20230410.1723)
 -->
<!-- Title: SCR_FactionPlayerTriggerEntity Pages: 1 -->
<svg width="160pt" height="313pt"
 viewBox="0.00 0.00 160.00 313.00" xmlns="http://www.w3.org/2000/svg" xmlns:xlink="http://www.w3.org/1999/xlink">
<g id="graph0" class="graph" transform="scale(1 1) rotate(0) translate(4 309)">
<title>SCR_FactionPlayerTriggerEntity</title>
<!-- Node1 -->
<g id="node1" class="node">
<title>Node1</title>
<g id="a_node1"><a xlink:title=" ">
<polygon fill="#999999" stroke="#666666" points="141.5,-30 10.5,-30 10.5,0 141.5,0 141.5,-30"/>
<text text-anchor="start" x="18.5" y="-18" font-family="Helvetica,sans-Serif" font-size="10.00">SCR_FactionPlayerTrigger</text>
<text text-anchor="middle" x="76" y="-7" font-family="Helvetica,sans-Serif" font-size="10.00">Entity</text>
</a>
</g>
</g>
<!-- Node2 -->
<g id="node2" class="node">
<title>Node2</title>
<g id="a_node2"><a xlink:href="interfaceSCR__BaseFactionTriggerEntity.html" target="_top" xlink:title=" ">
<polygon fill="white" stroke="#666666" points="152,-85 0,-85 0,-66 152,-66 152,-85"/>
<text text-anchor="middle" x="76" y="-73" font-family="Helvetica,sans-Serif" font-size="10.00">SCR_BaseFactionTriggerEntity</text>
</a>
</g>
</g>
<!-- Node2&#45;&gt;Node1 -->
<g id="edge1" class="edge">
<title>Node2&#45;&gt;Node1</title>
<path fill="none" stroke="#63b8ff" d="M76,-55.08C76,-46.92 76,-37.6 76,-30.11"/>
<polygon fill="#63b8ff" stroke="#63b8ff" points="72.5,-54.87 76,-64.87 79.5,-54.87 72.5,-54.87"/>
</g>
<!-- Node3 -->
<g id="node3" class="node">
<title>Node3</title>
<g id="a_node3"><a xlink:href="interfaceSCR__BaseTriggerEntity.html" target="_top" xlink:title="Basic scripted trigger which offers external invoekrs for major events like activation or deactivatio...">
<polygon fill="white" stroke="#666666" points="135.5,-140 16.5,-140 16.5,-121 135.5,-121 135.5,-140"/>
<text text-anchor="middle" x="76" y="-128" font-family="Helvetica,sans-Serif" font-size="10.00">SCR_BaseTriggerEntity</text>
</a>
</g>
</g>
<!-- Node3&#45;&gt;Node2 -->
<g id="edge2" class="edge">
<title>Node3&#45;&gt;Node2</title>
<path fill="none" stroke="#63b8ff" d="M76,-109.93C76,-101.53 76,-92.13 76,-85.44"/>
<polygon fill="#63b8ff" stroke="#63b8ff" points="72.5,-109.75 76,-119.75 79.5,-109.75 72.5,-109.75"/>
</g>
<!-- Node4 -->
<g id="node4" class="node">
<title>Node4</title>
<g id="a_node4"><a xlink:href="interfaceScriptedGameTriggerEntity.html" target="_top" xlink:title=" ">
<polygon fill="white" stroke="#666666" points="143,-195 9,-195 9,-176 143,-176 143,-195"/>
<text text-anchor="middle" x="76" y="-183" font-family="Helvetica,sans-Serif" font-size="10.00">ScriptedGameTriggerEntity</text>
</a>
</g>
</g>
<!-- Node4&#45;&gt;Node3 -->
<g id="edge3" class="edge">
<title>Node4&#45;&gt;Node3</title>
<path fill="none" stroke="#63b8ff" d="M76,-164.93C76,-156.53 76,-147.13 76,-140.44"/>
<polygon fill="#63b8ff" stroke="#63b8ff" points="72.5,-164.75 76,-174.75 79.5,-164.75 72.5,-164.75"/>
</g>
<!-- Node5 -->
<g id="node5" class="node">
<title>Node5</title>
<g id="a_node5"><a xlink:href="interfaceBaseGameTriggerEntity.html" target="_top" xlink:title=" ">
<polygon fill="white" stroke="#666666" points="136,-250 16,-250 16,-231 136,-231 136,-250"/>
<text text-anchor="middle" x="76" y="-238" font-family="Helvetica,sans-Serif" font-size="10.00">BaseGameTriggerEntity</text>
</a>
</g>
</g>
<!-- Node5&#45;&gt;Node4 -->
<g id="edge4" class="edge">
<title>Node5&#45;&gt;Node4</title>
<path fill="none" stroke="#63b8ff" d="M76,-219.93C76,-211.53 76,-202.13 76,-195.44"/>
<polygon fill="#63b8ff" stroke="#63b8ff" points="72.5,-219.75 76,-229.75 79.5,-219.75 72.5,-219.75"/>
</g>
<!-- Node6 -->
<g id="node6" class="node">
<title>Node6</title>
<g id="a_node6"><a xlink:title=" ">
<polygon fill="white" stroke="#666666" points="114,-305 38,-305 38,-286 114,-286 114,-305"/>
<text text-anchor="middle" x="76" y="-293" font-family="Helvetica,sans-Serif" font-size="10.00">GenericEntity</text>
</a>
</g>
</g>
<!-- Node6&#45;&gt;Node5 -->
<g id="edge5" class="edge">
<title>Node6&#45;&gt;Node5</title>
<path fill="none" stroke="#63b8ff" d="M76,-274.93C76,-266.53 76,-257.13 76,-250.44"/>
<polygon fill="#63b8ff" stroke="#63b8ff" points="72.5,-274.75 76,-284.75 79.5,-274.75 72.5,-274.75"/>
</g>
</g>
</svg>
