<?xml version="1.0" encoding="UTF-8" standalone="no"?>
<!DOCTYPE svg PUBLIC "-//W3C//DTD SVG 1.1//EN"
 "http://www.w3.org/Graphics/SVG/1.1/DTD/svg11.dtd">
<!-- Generated by graphviz version 8.0.2 (20230410.1723)
 -->
<!-- Title: SCR_EquipNextGrenadeCB Pages: 1 -->
<svg width="145pt" height="258pt"
 viewBox="0.00 0.00 145.00 258.00" xmlns="http://www.w3.org/2000/svg" xmlns:xlink="http://www.w3.org/1999/xlink">
<g id="graph0" class="graph" transform="scale(1 1) rotate(0) translate(4 254)">
<title>SCR_EquipNextGrenadeCB</title>
<!-- Node1 -->
<g id="node1" class="node">
<title>Node1</title>
<g id="a_node1"><a xlink:title=" ">
<polygon fill="#999999" stroke="#666666" points="137,-19 0,-19 0,0 137,0 137,-19"/>
<text text-anchor="middle" x="68.5" y="-7" font-family="Helvetica,sans-Serif" font-size="10.00">SCR_EquipNextGrenadeCB</text>
</a>
</g>
</g>
<!-- Node2 -->
<g id="node2" class="node">
<title>Node2</title>
<g id="a_node2"><a xlink:href="interfaceSCR__InvCallBack.html" target="_top" xlink:title=" ">
<polygon fill="white" stroke="#666666" points="114.5,-74 22.5,-74 22.5,-55 114.5,-55 114.5,-74"/>
<text text-anchor="middle" x="68.5" y="-62" font-family="Helvetica,sans-Serif" font-size="10.00">SCR_InvCallBack</text>
</a>
</g>
</g>
<!-- Node2&#45;&gt;Node1 -->
<g id="edge1" class="edge">
<title>Node2&#45;&gt;Node1</title>
<path fill="none" stroke="#63b8ff" d="M68.5,-43.93C68.5,-35.53 68.5,-26.13 68.5,-19.44"/>
<polygon fill="#63b8ff" stroke="#63b8ff" points="65,-43.75 68.5,-53.75 72,-43.75 65,-43.75"/>
</g>
<!-- Node3 -->
<g id="node3" class="node">
<title>Node3</title>
<g id="a_node3"><a xlink:href="interfaceScriptedInventoryOperationCallback.html" target="_top" xlink:title=" ">
<polygon fill="white" stroke="#666666" points="135,-140 2,-140 2,-110 135,-110 135,-140"/>
<text text-anchor="start" x="10" y="-128" font-family="Helvetica,sans-Serif" font-size="10.00">ScriptedInventoryOperation</text>
<text text-anchor="middle" x="68.5" y="-117" font-family="Helvetica,sans-Serif" font-size="10.00">Callback</text>
</a>
</g>
</g>
<!-- Node3&#45;&gt;Node2 -->
<g id="edge2" class="edge">
<title>Node3&#45;&gt;Node2</title>
<path fill="none" stroke="#63b8ff" d="M68.5,-98.59C68.5,-89.85 68.5,-80.65 68.5,-74.18"/>
<polygon fill="#63b8ff" stroke="#63b8ff" points="65,-98.54 68.5,-108.54 72,-98.54 65,-98.54"/>
</g>
<!-- Node4 -->
<g id="node4" class="node">
<title>Node4</title>
<g id="a_node4"><a xlink:href="interfaceInventoryOperationCallback.html" target="_top" xlink:title=" ">
<polygon fill="white" stroke="#666666" points="135.5,-195 1.5,-195 1.5,-176 135.5,-176 135.5,-195"/>
<text text-anchor="middle" x="68.5" y="-183" font-family="Helvetica,sans-Serif" font-size="10.00">InventoryOperationCallback</text>
</a>
</g>
</g>
<!-- Node4&#45;&gt;Node3 -->
<g id="edge3" class="edge">
<title>Node4&#45;&gt;Node3</title>
<path fill="none" stroke="#63b8ff" d="M68.5,-165.08C68.5,-156.92 68.5,-147.6 68.5,-140.11"/>
<polygon fill="#63b8ff" stroke="#63b8ff" points="65,-164.87 68.5,-174.87 72,-164.87 65,-164.87"/>
</g>
<!-- Node5 -->
<g id="node5" class="node">
<title>Node5</title>
<g id="a_node5"><a xlink:title=" ">
<polygon fill="white" stroke="#666666" points="96.5,-250 40.5,-250 40.5,-231 96.5,-231 96.5,-250"/>
<text text-anchor="middle" x="68.5" y="-238" font-family="Helvetica,sans-Serif" font-size="10.00">Managed</text>
</a>
</g>
</g>
<!-- Node5&#45;&gt;Node4 -->
<g id="edge4" class="edge">
<title>Node5&#45;&gt;Node4</title>
<path fill="none" stroke="#63b8ff" d="M68.5,-219.93C68.5,-211.53 68.5,-202.13 68.5,-195.44"/>
<polygon fill="#63b8ff" stroke="#63b8ff" points="65,-219.75 68.5,-229.75 72,-219.75 65,-219.75"/>
</g>
</g>
</svg>
