<?xml version="1.0" encoding="UTF-8" standalone="no"?>
<!DOCTYPE svg PUBLIC "-//W3C//DTD SVG 1.1//EN"
 "http://www.w3.org/Graphics/SVG/1.1/DTD/svg11.dtd">
<!-- Generated by graphviz version 8.0.2 (20230410.1723)
 -->
<!-- Title: SCR_ResourceContainerQueue&lt; Class ResourceInteractorType &gt; Pages: 1 -->
<svg width="184pt" height="148pt"
 viewBox="0.00 0.00 184.00 148.00" xmlns="http://www.w3.org/2000/svg" xmlns:xlink="http://www.w3.org/1999/xlink">
<g id="graph0" class="graph" transform="scale(1 1) rotate(0) translate(4 144)">
<title>SCR_ResourceContainerQueue&lt; Class ResourceInteractorType &gt;</title>
<!-- Node1 -->
<g id="node1" class="node">
<title>Node1</title>
<g id="a_node1"><a xlink:title=" ">
<polygon fill="#999999" stroke="#666666" points="170.5,-30 5.5,-30 5.5,0 170.5,0 170.5,-30"/>
<text text-anchor="start" x="13.5" y="-18" font-family="Helvetica,sans-Serif" font-size="10.00">SCR_ResourceContainerQueue</text>
<text text-anchor="middle" x="88" y="-7" font-family="Helvetica,sans-Serif" font-size="10.00">&lt; Class ResourceInteractorType &gt;</text>
</a>
</g>
</g>
<!-- Node2 -->
<g id="node2" class="node">
<title>Node2</title>
<g id="a_node2"><a xlink:href="interfaceSCR__ResourceContainerQueueBase.html" target="_top" xlink:title=" ">
<polygon fill="white" stroke="#666666" points="176,-85 0,-85 0,-66 176,-66 176,-85"/>
<text text-anchor="middle" x="88" y="-73" font-family="Helvetica,sans-Serif" font-size="10.00">SCR_ResourceContainerQueueBase</text>
</a>
</g>
</g>
<!-- Node2&#45;&gt;Node1 -->
<g id="edge1" class="edge">
<title>Node2&#45;&gt;Node1</title>
<path fill="none" stroke="#63b8ff" d="M88,-55.08C88,-46.92 88,-37.6 88,-30.11"/>
<polygon fill="#63b8ff" stroke="#63b8ff" points="84.5,-54.87 88,-64.87 91.5,-54.87 84.5,-54.87"/>
</g>
<!-- Node3 -->
<g id="node3" class="node">
<title>Node3</title>
<g id="a_node3"><a xlink:title=" ">
<polygon fill="white" stroke="#666666" points="116,-140 60,-140 60,-121 116,-121 116,-140"/>
<text text-anchor="middle" x="88" y="-128" font-family="Helvetica,sans-Serif" font-size="10.00">Managed</text>
</a>
</g>
</g>
<!-- Node3&#45;&gt;Node2 -->
<g id="edge2" class="edge">
<title>Node3&#45;&gt;Node2</title>
<path fill="none" stroke="#63b8ff" d="M88,-109.93C88,-101.53 88,-92.13 88,-85.44"/>
<polygon fill="#63b8ff" stroke="#63b8ff" points="84.5,-109.75 88,-119.75 91.5,-109.75 84.5,-109.75"/>
</g>
</g>
</svg>
