<?xml version="1.0" encoding="UTF-8" standalone="no"?>
<!DOCTYPE svg PUBLIC "-//W3C//DTD SVG 1.1//EN"
 "http://www.w3.org/Graphics/SVG/1.1/DTD/svg11.dtd">
<!-- Generated by graphviz version 8.0.2 (20230410.1723)
 -->
<!-- Title: SCR_QuickslotBaseContainer Pages: 1 -->
<svg width="346pt" height="82pt"
 viewBox="0.00 0.00 345.50 82.00" xmlns="http://www.w3.org/2000/svg" xmlns:xlink="http://www.w3.org/1999/xlink">
<g id="graph0" class="graph" transform="scale(1 1) rotate(0) translate(4 78)">
<title>SCR_QuickslotBaseContainer</title>
<!-- Node1 -->
<g id="node1" class="node">
<title>Node1</title>
<g id="a_node1"><a xlink:title="SCR_QuickslotBaseContainer is intended to be used for quickslots, to allow quickslotting of non&#45;item ...">
<polygon fill="#999999" stroke="#666666" points="247,-74 100,-74 100,-55 247,-55 247,-74"/>
<text text-anchor="middle" x="173.5" y="-62" font-family="Helvetica,sans-Serif" font-size="10.00">SCR_QuickslotBaseContainer</text>
</a>
</g>
</g>
<!-- Node2 -->
<g id="node2" class="node">
<title>Node2</title>
<g id="a_node2"><a xlink:href="interfaceSCR__QuickslotCommandContainer.html" target="_top" xlink:title=" ">
<polygon fill="white" stroke="#666666" points="169,-19 0,-19 0,0 169,0 169,-19"/>
<text text-anchor="middle" x="84.5" y="-7" font-family="Helvetica,sans-Serif" font-size="10.00">SCR_QuickslotCommandContainer</text>
</a>
</g>
</g>
<!-- Node1&#45;&gt;Node2 -->
<g id="edge1" class="edge">
<title>Node1&#45;&gt;Node2</title>
<path fill="none" stroke="#63b8ff" d="M149.15,-49C133.23,-39.52 112.94,-27.43 99.37,-19.36"/>
<polygon fill="#63b8ff" stroke="#63b8ff" points="147.02,-52.4 157.4,-54.51 150.6,-46.39 147.02,-52.4"/>
</g>
<!-- Node3 -->
<g id="node3" class="node">
<title>Node3</title>
<g id="a_node3"><a xlink:href="interfaceSCR__QuickslotEntityContainer.html" target="_top" xlink:title=" ">
<polygon fill="white" stroke="#666666" points="337.5,-19 187.5,-19 187.5,0 337.5,0 337.5,-19"/>
<text text-anchor="middle" x="262.5" y="-7" font-family="Helvetica,sans-Serif" font-size="10.00">SCR_QuickslotEntityContainer</text>
</a>
</g>
</g>
<!-- Node1&#45;&gt;Node3 -->
<g id="edge2" class="edge">
<title>Node1&#45;&gt;Node3</title>
<path fill="none" stroke="#63b8ff" d="M197.85,-49C213.77,-39.52 234.06,-27.43 247.63,-19.36"/>
<polygon fill="#63b8ff" stroke="#63b8ff" points="196.4,-46.39 189.6,-54.51 199.98,-52.4 196.4,-46.39"/>
</g>
</g>
</svg>
