<?xml version="1.0" encoding="UTF-8" standalone="no"?>
<!DOCTYPE svg PUBLIC "-//W3C//DTD SVG 1.1//EN"
 "http://www.w3.org/Graphics/SVG/1.1/DTD/svg11.dtd">
<!-- Generated by graphviz version 8.0.2 (20230410.1723)
 -->
<!-- Title: SCR_DoubleClickAction Pages: 1 -->
<svg width="350pt" height="148pt"
 viewBox="0.00 0.00 350.00 148.00" xmlns="http://www.w3.org/2000/svg" xmlns:xlink="http://www.w3.org/1999/xlink">
<g id="graph0" class="graph" transform="scale(1 1) rotate(0) translate(4 144)">
<title>SCR_DoubleClickAction</title>
<!-- Node1 -->
<g id="node1" class="node">
<title>Node1</title>
<g id="a_node1"><a xlink:title=" ">
<polygon fill="#999999" stroke="#666666" points="236,-85 114,-85 114,-66 236,-66 236,-85"/>
<text text-anchor="middle" x="175" y="-73" font-family="Helvetica,sans-Serif" font-size="10.00">SCR_DoubleClickAction</text>
</a>
</g>
</g>
<!-- Node3 -->
<g id="node3" class="node">
<title>Node3</title>
<g id="a_node3"><a xlink:href="interfaceSCR__OpenAttributeWindowContextAction.html" target="_top" xlink:title=" ">
<polygon fill="white" stroke="#666666" points="170,-30 0,-30 0,0 170,0 170,-30"/>
<text text-anchor="start" x="8" y="-18" font-family="Helvetica,sans-Serif" font-size="10.00">SCR_OpenAttributeWindowContext</text>
<text text-anchor="middle" x="85" y="-7" font-family="Helvetica,sans-Serif" font-size="10.00">Action</text>
</a>
</g>
</g>
<!-- Node1&#45;&gt;Node3 -->
<g id="edge2" class="edge">
<title>Node1&#45;&gt;Node3</title>
<path fill="none" stroke="#63b8ff" d="M152.46,-59.85C138.63,-50.86 120.99,-39.39 107.21,-30.44"/>
<polygon fill="#63b8ff" stroke="#63b8ff" points="150.04,-63.1 160.33,-65.62 153.85,-57.23 150.04,-63.1"/>
</g>
<!-- Node4 -->
<g id="node4" class="node">
<title>Node4</title>
<g id="a_node4"><a xlink:href="interfaceSCR__PlaceEntityContextAction.html" target="_top" xlink:title=" ">
<polygon fill="white" stroke="#666666" points="342,-24.5 188,-24.5 188,-5.5 342,-5.5 342,-24.5"/>
<text text-anchor="middle" x="265" y="-12.5" font-family="Helvetica,sans-Serif" font-size="10.00">SCR_PlaceEntityContextAction</text>
</a>
</g>
</g>
<!-- Node1&#45;&gt;Node4 -->
<g id="edge3" class="edge">
<title>Node1&#45;&gt;Node4</title>
<path fill="none" stroke="#63b8ff" d="M197.84,-59.66C214.67,-48.72 237.01,-34.19 251.2,-24.97"/>
<polygon fill="#63b8ff" stroke="#63b8ff" points="196.15,-57.23 189.67,-65.62 199.96,-63.1 196.15,-57.23"/>
</g>
<!-- Node2 -->
<g id="node2" class="node">
<title>Node2</title>
<g id="a_node2"><a xlink:href="interfaceSCR__BaseEditorAction.html" target="_top" xlink:title="Base container class for all editor action types (ContextActions, WaypointActions,...">
<polygon fill="white" stroke="#666666" points="234,-140 116,-140 116,-121 234,-121 234,-140"/>
<text text-anchor="middle" x="175" y="-128" font-family="Helvetica,sans-Serif" font-size="10.00">SCR_BaseEditorAction</text>
</a>
</g>
</g>
<!-- Node2&#45;&gt;Node1 -->
<g id="edge1" class="edge">
<title>Node2&#45;&gt;Node1</title>
<path fill="none" stroke="#63b8ff" d="M175,-109.93C175,-101.53 175,-92.13 175,-85.44"/>
<polygon fill="#63b8ff" stroke="#63b8ff" points="171.5,-109.75 175,-119.75 178.5,-109.75 171.5,-109.75"/>
</g>
</g>
</svg>
