<?xml version="1.0" encoding="UTF-8" standalone="no"?>
<!DOCTYPE svg PUBLIC "-//W3C//DTD SVG 1.1//EN"
 "http://www.w3.org/Graphics/SVG/1.1/DTD/svg11.dtd">
<!-- Generated by graphviz version 8.0.2 (20230410.1723)
 -->
<!-- Title: SCR_ScenarioFrameworkWaypointSmartAction Pages: 1 -->
<svg width="796pt" height="182pt"
 viewBox="0.00 0.00 796.00 182.00" xmlns="http://www.w3.org/2000/svg" xmlns:xlink="http://www.w3.org/1999/xlink">
<g id="graph0" class="graph" transform="scale(1 1) rotate(0) translate(4 178)">
<title>SCR_ScenarioFrameworkWaypointSmartAction</title>
<!-- Node1 -->
<g id="node1" class="node">
<title>Node1</title>
<g id="a_node1"><a xlink:title=" ">
<polygon fill="#999999" stroke="#666666" points="582,-102 412,-102 412,-72 582,-72 582,-102"/>
<text text-anchor="start" x="420" y="-90" font-family="Helvetica,sans-Serif" font-size="10.00">SCR_ScenarioFrameworkWaypoint</text>
<text text-anchor="middle" x="497" y="-79" font-family="Helvetica,sans-Serif" font-size="10.00">SmartAction</text>
</a>
</g>
</g>
<!-- Node4 -->
<g id="node4" class="node">
<title>Node4</title>
<g id="a_node4"><a xlink:href="interfaceSCR__ScenarioFrameworkWaypointCaptureRelay.html" target="_top" xlink:title=" ">
<polygon fill="white" stroke="#666666" points="788,-174 618,-174 618,-144 788,-144 788,-174"/>
<text text-anchor="start" x="626" y="-162" font-family="Helvetica,sans-Serif" font-size="10.00">SCR_ScenarioFrameworkWaypoint</text>
<text text-anchor="middle" x="703" y="-151" font-family="Helvetica,sans-Serif" font-size="10.00">CaptureRelay</text>
</a>
</g>
</g>
<!-- Node1&#45;&gt;Node4 -->
<g id="edge3" class="edge">
<title>Node1&#45;&gt;Node4</title>
<path fill="none" stroke="#63b8ff" d="M544.01,-106.68C566.17,-115.84 593.26,-126.54 618,-135 626.61,-137.94 635.8,-140.83 644.82,-143.51"/>
<polygon fill="#63b8ff" stroke="#63b8ff" points="545.45,-103.08 534.87,-102.47 542.76,-109.54 545.45,-103.08"/>
</g>
<!-- Node5 -->
<g id="node5" class="node">
<title>Node5</title>
<g id="a_node5"><a xlink:href="interfaceSCR__ScenarioFrameworkWaypointObservationPost.html" target="_top" xlink:title=" ">
<polygon fill="white" stroke="#666666" points="788,-126 618,-126 618,-96 788,-96 788,-126"/>
<text text-anchor="start" x="626" y="-114" font-family="Helvetica,sans-Serif" font-size="10.00">SCR_ScenarioFrameworkWaypoint</text>
<text text-anchor="middle" x="703" y="-103" font-family="Helvetica,sans-Serif" font-size="10.00">ObservationPost</text>
</a>
</g>
</g>
<!-- Node1&#45;&gt;Node5 -->
<g id="edge4" class="edge">
<title>Node1&#45;&gt;Node5</title>
<path fill="none" stroke="#63b8ff" d="M593.14,-98.19C601.31,-99.15 609.54,-100.12 617.62,-101.07"/>
<polygon fill="#63b8ff" stroke="#63b8ff" points="593.79,-94.63 583.45,-96.93 592.97,-101.58 593.79,-94.63"/>
</g>
<!-- Node6 -->
<g id="node6" class="node">
<title>Node6</title>
<g id="a_node6"><a xlink:href="interfaceSCR__ScenarioFrameworkWaypointOpenGate.html" target="_top" xlink:title=" ">
<polygon fill="white" stroke="#666666" points="788,-78 618,-78 618,-48 788,-48 788,-78"/>
<text text-anchor="start" x="626" y="-66" font-family="Helvetica,sans-Serif" font-size="10.00">SCR_ScenarioFrameworkWaypoint</text>
<text text-anchor="middle" x="703" y="-55" font-family="Helvetica,sans-Serif" font-size="10.00">OpenGate</text>
</a>
</g>
</g>
<!-- Node1&#45;&gt;Node6 -->
<g id="edge5" class="edge">
<title>Node1&#45;&gt;Node6</title>
<path fill="none" stroke="#63b8ff" d="M593.14,-75.81C601.31,-74.85 609.54,-73.88 617.62,-72.93"/>
<polygon fill="#63b8ff" stroke="#63b8ff" points="592.97,-72.42 583.45,-77.07 593.79,-79.37 592.97,-72.42"/>
</g>
<!-- Node7 -->
<g id="node7" class="node">
<title>Node7</title>
<g id="a_node7"><a xlink:href="interfaceSCR__ScenarioFrameworkWaypointUserAction.html" target="_top" xlink:title=" ">
<polygon fill="white" stroke="#666666" points="788,-30 618,-30 618,0 788,0 788,-30"/>
<text text-anchor="start" x="626" y="-18" font-family="Helvetica,sans-Serif" font-size="10.00">SCR_ScenarioFrameworkWaypoint</text>
<text text-anchor="middle" x="703" y="-7" font-family="Helvetica,sans-Serif" font-size="10.00">UserAction</text>
</a>
</g>
</g>
<!-- Node1&#45;&gt;Node7 -->
<g id="edge6" class="edge">
<title>Node1&#45;&gt;Node7</title>
<path fill="none" stroke="#63b8ff" d="M544.01,-67.32C566.17,-58.16 593.26,-47.46 618,-39 626.61,-36.06 635.8,-33.17 644.82,-30.49"/>
<polygon fill="#63b8ff" stroke="#63b8ff" points="542.76,-64.46 534.87,-71.53 545.45,-70.92 542.76,-64.46"/>
</g>
<!-- Node2 -->
<g id="node2" class="node">
<title>Node2</title>
<g id="a_node2"><a xlink:href="interfaceSCR__ScenarioFrameworkWaypointScripted.html" target="_top" xlink:title=" ">
<polygon fill="white" stroke="#666666" points="376,-102 206,-102 206,-72 376,-72 376,-102"/>
<text text-anchor="start" x="214" y="-90" font-family="Helvetica,sans-Serif" font-size="10.00">SCR_ScenarioFrameworkWaypoint</text>
<text text-anchor="middle" x="291" y="-79" font-family="Helvetica,sans-Serif" font-size="10.00">Scripted</text>
</a>
</g>
</g>
<!-- Node2&#45;&gt;Node1 -->
<g id="edge1" class="edge">
<title>Node2&#45;&gt;Node1</title>
<path fill="none" stroke="#63b8ff" d="M387.41,-87C395.49,-87 403.63,-87 411.62,-87"/>
<polygon fill="#63b8ff" stroke="#63b8ff" points="387.45,-83.5 377.45,-87 387.45,-90.5 387.45,-83.5"/>
</g>
<!-- Node3 -->
<g id="node3" class="node">
<title>Node3</title>
<g id="a_node3"><a xlink:href="interfaceSCR__ScenarioFrameworkWaypoint.html" target="_top" xlink:title=" ">
<polygon fill="white" stroke="#666666" points="170,-96.5 0,-96.5 0,-77.5 170,-77.5 170,-96.5"/>
<text text-anchor="middle" x="85" y="-84.5" font-family="Helvetica,sans-Serif" font-size="10.00">SCR_ScenarioFrameworkWaypoint</text>
</a>
</g>
</g>
<!-- Node3&#45;&gt;Node2 -->
<g id="edge2" class="edge">
<title>Node3&#45;&gt;Node2</title>
<path fill="none" stroke="#63b8ff" d="M181.41,-87C189.49,-87 197.63,-87 205.62,-87"/>
<polygon fill="#63b8ff" stroke="#63b8ff" points="181.45,-83.5 171.45,-87 181.45,-90.5 181.45,-83.5"/>
</g>
</g>
</svg>
