<?xml version="1.0" encoding="UTF-8" standalone="no"?>
<!DOCTYPE svg PUBLIC "-//W3C//DTD SVG 1.1//EN"
 "http://www.w3.org/Graphics/SVG/1.1/DTD/svg11.dtd">
<!-- Generated by graphviz version 8.0.2 (20230410.1723)
 -->
<!-- Title: SCR_FieldManualPiece Pages: 1 -->
<svg width="306pt" height="460pt"
 viewBox="0.00 0.00 306.00 459.50" xmlns="http://www.w3.org/2000/svg" xmlns:xlink="http://www.w3.org/1999/xlink">
<g id="graph0" class="graph" transform="scale(1 1) rotate(0) translate(4 455.5)">
<title>SCR_FieldManualPiece</title>
<!-- Node1 -->
<g id="node1" class="node">
<title>Node1</title>
<g id="a_node1"><a xlink:title=" ">
<polygon fill="#999999" stroke="#666666" points="119,-230 0,-230 0,-211 119,-211 119,-230"/>
<text text-anchor="middle" x="59.5" y="-218" font-family="Helvetica,sans-Serif" font-size="10.00">SCR_FieldManualPiece</text>
</a>
</g>
</g>
<!-- Node2 -->
<g id="node2" class="node">
<title>Node2</title>
<g id="a_node2"><a xlink:href="interfaceSCR__FieldManualPiece__ConfigEntry.html" target="_top" xlink:title=" ">
<polygon fill="white" stroke="#666666" points="286,-451.5 167,-451.5 167,-421.5 286,-421.5 286,-451.5"/>
<text text-anchor="start" x="175" y="-439.5" font-family="Helvetica,sans-Serif" font-size="10.00">SCR_FieldManualPiece</text>
<text text-anchor="middle" x="226.5" y="-428.5" font-family="Helvetica,sans-Serif" font-size="10.00">_ConfigEntry</text>
</a>
</g>
</g>
<!-- Node1&#45;&gt;Node2 -->
<g id="edge1" class="edge">
<title>Node1&#45;&gt;Node2</title>
<path fill="none" stroke="#63b8ff" d="M64.99,-240.75C74.63,-279.62 100.98,-365.05 155,-412.5 158.79,-415.83 163.06,-418.7 167.58,-421.17"/>
<polygon fill="#63b8ff" stroke="#63b8ff" points="68.17,-240 62.47,-231.07 61.36,-241.61 68.17,-240"/>
</g>
<!-- Node3 -->
<g id="node3" class="node">
<title>Node3</title>
<g id="a_node3"><a xlink:href="interfaceSCR__FieldManualPiece__ConfigEntryList.html" target="_top" xlink:title=" ">
<polygon fill="white" stroke="#666666" points="286,-403.5 167,-403.5 167,-373.5 286,-373.5 286,-403.5"/>
<text text-anchor="start" x="175" y="-391.5" font-family="Helvetica,sans-Serif" font-size="10.00">SCR_FieldManualPiece</text>
<text text-anchor="middle" x="226.5" y="-380.5" font-family="Helvetica,sans-Serif" font-size="10.00">_ConfigEntryList</text>
</a>
</g>
</g>
<!-- Node1&#45;&gt;Node3 -->
<g id="edge2" class="edge">
<title>Node1&#45;&gt;Node3</title>
<path fill="none" stroke="#63b8ff" d="M68.32,-240.09C81.6,-270.92 111.42,-330.74 155,-364.5 159.19,-367.75 163.85,-370.57 168.71,-373.02"/>
<polygon fill="#63b8ff" stroke="#63b8ff" points="71.26,-239.03 64.18,-231.14 64.79,-241.72 71.26,-239.03"/>
</g>
<!-- Node4 -->
<g id="node4" class="node">
<title>Node4</title>
<g id="a_node4"><a xlink:href="interfaceSCR__FieldManualPiece__Header.html" target="_top" xlink:title=" ">
<polygon fill="white" stroke="#666666" points="286,-355.5 167,-355.5 167,-325.5 286,-325.5 286,-355.5"/>
<text text-anchor="start" x="175" y="-343.5" font-family="Helvetica,sans-Serif" font-size="10.00">SCR_FieldManualPiece</text>
<text text-anchor="middle" x="226.5" y="-332.5" font-family="Helvetica,sans-Serif" font-size="10.00">_Header</text>
</a>
</g>
</g>
<!-- Node1&#45;&gt;Node4 -->
<g id="edge3" class="edge">
<title>Node1&#45;&gt;Node4</title>
<path fill="none" stroke="#63b8ff" d="M74.23,-238.95C91.07,-260.38 121.53,-295.48 155,-316.5 160.15,-319.73 165.78,-322.59 171.55,-325.09"/>
<polygon fill="#63b8ff" stroke="#63b8ff" points="76.55,-237.22 67.68,-231.42 71,-241.48 76.55,-237.22"/>
</g>
<!-- Node5 -->
<g id="node5" class="node">
<title>Node5</title>
<g id="a_node5"><a xlink:href="interfaceSCR__FieldManualPiece__Image.html" target="_top" xlink:title=" ">
<polygon fill="white" stroke="#666666" points="286,-307.5 167,-307.5 167,-277.5 286,-277.5 286,-307.5"/>
<text text-anchor="start" x="175" y="-295.5" font-family="Helvetica,sans-Serif" font-size="10.00">SCR_FieldManualPiece</text>
<text text-anchor="middle" x="226.5" y="-284.5" font-family="Helvetica,sans-Serif" font-size="10.00">_Image</text>
</a>
</g>
</g>
<!-- Node1&#45;&gt;Node5 -->
<g id="edge4" class="edge">
<title>Node1&#45;&gt;Node5</title>
<path fill="none" stroke="#63b8ff" d="M87.84,-235.69C106.46,-245.71 131.82,-258.73 155,-268.5 162.03,-271.46 169.56,-274.34 177,-277"/>
<polygon fill="#63b8ff" stroke="#63b8ff" points="89.71,-232.18 79.26,-230.48 86.37,-238.33 89.71,-232.18"/>
</g>
<!-- Node6 -->
<g id="node6" class="node">
<title>Node6</title>
<g id="a_node6"><a xlink:href="interfaceSCR__FieldManualPiece__ImageGallery.html" target="_top" xlink:title=" ">
<polygon fill="white" stroke="#666666" points="286,-259.5 167,-259.5 167,-229.5 286,-229.5 286,-259.5"/>
<text text-anchor="start" x="175" y="-247.5" font-family="Helvetica,sans-Serif" font-size="10.00">SCR_FieldManualPiece</text>
<text text-anchor="middle" x="226.5" y="-236.5" font-family="Helvetica,sans-Serif" font-size="10.00">_ImageGallery</text>
</a>
</g>
</g>
<!-- Node1&#45;&gt;Node6 -->
<g id="edge5" class="edge">
<title>Node1&#45;&gt;Node6</title>
<path fill="none" stroke="#63b8ff" d="M129.81,-230.58C142.11,-232.37 154.81,-234.22 166.77,-235.96"/>
<polygon fill="#63b8ff" stroke="#63b8ff" points="130.54,-227.01 120.14,-229.03 129.53,-233.93 130.54,-227.01"/>
</g>
<!-- Node7 -->
<g id="node7" class="node">
<title>Node7</title>
<g id="a_node7"><a xlink:href="interfaceSCR__FieldManualPiece__Keybind.html" target="_top" xlink:title=" ">
<polygon fill="white" stroke="#666666" points="286,-211.5 167,-211.5 167,-181.5 286,-181.5 286,-211.5"/>
<text text-anchor="start" x="175" y="-199.5" font-family="Helvetica,sans-Serif" font-size="10.00">SCR_FieldManualPiece</text>
<text text-anchor="middle" x="226.5" y="-188.5" font-family="Helvetica,sans-Serif" font-size="10.00">_Keybind</text>
</a>
</g>
</g>
<!-- Node1&#45;&gt;Node7 -->
<g id="edge6" class="edge">
<title>Node1&#45;&gt;Node7</title>
<path fill="none" stroke="#63b8ff" d="M129.81,-210.42C142.11,-208.63 154.81,-206.78 166.77,-205.04"/>
<polygon fill="#63b8ff" stroke="#63b8ff" points="129.53,-207.07 120.14,-211.97 130.54,-213.99 129.53,-207.07"/>
</g>
<!-- Node8 -->
<g id="node8" class="node">
<title>Node8</title>
<g id="a_node8"><a xlink:href="interfaceSCR__FieldManualPiece__KeybindList.html" target="_top" xlink:title=" ">
<polygon fill="white" stroke="#666666" points="286,-163.5 167,-163.5 167,-133.5 286,-133.5 286,-163.5"/>
<text text-anchor="start" x="175" y="-151.5" font-family="Helvetica,sans-Serif" font-size="10.00">SCR_FieldManualPiece</text>
<text text-anchor="middle" x="226.5" y="-140.5" font-family="Helvetica,sans-Serif" font-size="10.00">_KeybindList</text>
</a>
</g>
</g>
<!-- Node1&#45;&gt;Node8 -->
<g id="edge7" class="edge">
<title>Node1&#45;&gt;Node8</title>
<path fill="none" stroke="#63b8ff" d="M87.84,-205.31C106.46,-195.29 131.82,-182.27 155,-172.5 162.03,-169.54 169.56,-166.66 177,-164"/>
<polygon fill="#63b8ff" stroke="#63b8ff" points="86.37,-202.67 79.26,-210.52 89.71,-208.82 86.37,-202.67"/>
</g>
<!-- Node9 -->
<g id="node9" class="node">
<title>Node9</title>
<g id="a_node9"><a xlink:href="interfaceSCR__FieldManualPiece__LineBreak.html" target="_top" xlink:title=" ">
<polygon fill="white" stroke="#666666" points="286,-115.5 167,-115.5 167,-85.5 286,-85.5 286,-115.5"/>
<text text-anchor="start" x="175" y="-103.5" font-family="Helvetica,sans-Serif" font-size="10.00">SCR_FieldManualPiece</text>
<text text-anchor="middle" x="226.5" y="-92.5" font-family="Helvetica,sans-Serif" font-size="10.00">_LineBreak</text>
</a>
</g>
</g>
<!-- Node1&#45;&gt;Node9 -->
<g id="edge8" class="edge">
<title>Node1&#45;&gt;Node9</title>
<path fill="none" stroke="#63b8ff" d="M74.23,-202.05C91.07,-180.62 121.53,-145.52 155,-124.5 160.15,-121.27 165.78,-118.41 171.55,-115.91"/>
<polygon fill="#63b8ff" stroke="#63b8ff" points="71,-199.52 67.68,-209.58 76.55,-203.78 71,-199.52"/>
</g>
<!-- Node10 -->
<g id="node10" class="node">
<title>Node10</title>
<g id="a_node10"><a xlink:href="interfaceSCR__FieldManualPiece__Separator.html" target="_top" xlink:title=" ">
<polygon fill="white" stroke="#666666" points="286,-67.5 167,-67.5 167,-37.5 286,-37.5 286,-67.5"/>
<text text-anchor="start" x="175" y="-55.5" font-family="Helvetica,sans-Serif" font-size="10.00">SCR_FieldManualPiece</text>
<text text-anchor="middle" x="226.5" y="-44.5" font-family="Helvetica,sans-Serif" font-size="10.00">_Separator</text>
</a>
</g>
</g>
<!-- Node1&#45;&gt;Node10 -->
<g id="edge9" class="edge">
<title>Node1&#45;&gt;Node10</title>
<path fill="none" stroke="#63b8ff" d="M68.32,-200.91C81.6,-170.08 111.42,-110.26 155,-76.5 159.19,-73.25 163.85,-70.43 168.71,-67.98"/>
<polygon fill="#63b8ff" stroke="#63b8ff" points="64.79,-199.28 64.18,-209.86 71.26,-201.97 64.79,-199.28"/>
</g>
<!-- Node11 -->
<g id="node11" class="node">
<title>Node11</title>
<g id="a_node11"><a xlink:href="interfaceSCR__FieldManualPiece__Text.html" target="_top" xlink:title=" ">
<polygon fill="white" stroke="#666666" points="298,-19 155,-19 155,0 298,0 298,-19"/>
<text text-anchor="middle" x="226.5" y="-7" font-family="Helvetica,sans-Serif" font-size="10.00">SCR_FieldManualPiece_Text</text>
</a>
</g>
</g>
<!-- Node1&#45;&gt;Node11 -->
<g id="edge10" class="edge">
<title>Node1&#45;&gt;Node11</title>
<path fill="none" stroke="#63b8ff" d="M64.66,-200.19C73.78,-160.88 99.35,-74.27 155,-28.5 159.5,-24.8 164.66,-21.81 170.1,-19.4"/>
<polygon fill="#63b8ff" stroke="#63b8ff" points="61.06,-199.25 62.34,-209.77 67.9,-200.75 61.06,-199.25"/>
</g>
</g>
</svg>
