<?xml version="1.0" encoding="UTF-8" standalone="no"?>
<!DOCTYPE svg PUBLIC "-//W3C//DTD SVG 1.1//EN"
 "http://www.w3.org/Graphics/SVG/1.1/DTD/svg11.dtd">
<!-- Generated by graphviz version 8.0.2 (20230410.1723)
 -->
<!-- Title: BaseChatChannel Pages: 1 -->
<svg width="548pt" height="286pt"
 viewBox="0.00 0.00 548.00 286.00" xmlns="http://www.w3.org/2000/svg" xmlns:xlink="http://www.w3.org/1999/xlink">
<g id="graph0" class="graph" transform="scale(1 1) rotate(0) translate(4 282)">
<title>BaseChatChannel</title>
<!-- Node1 -->
<g id="node1" class="node">
<title>Node1</title>
<g id="a_node1"><a xlink:title=" ">
<polygon fill="#999999" stroke="#666666" points="217,-148 122,-148 122,-129 217,-129 217,-148"/>
<text text-anchor="middle" x="169.5" y="-136" font-family="Helvetica,sans-Serif" font-size="10.00">BaseChatChannel</text>
</a>
</g>
</g>
<!-- Node3 -->
<g id="node3" class="node">
<title>Node3</title>
<g id="a_node3"><a xlink:href="interfaceFactionChatChannel.html" target="_top" xlink:title=" ">
<polygon fill="white" stroke="#666666" points="365.5,-278 261.5,-278 261.5,-259 365.5,-259 365.5,-278"/>
<text text-anchor="middle" x="313.5" y="-266" font-family="Helvetica,sans-Serif" font-size="10.00">FactionChatChannel</text>
</a>
</g>
</g>
<!-- Node1&#45;&gt;Node3 -->
<g id="edge2" class="edge">
<title>Node1&#45;&gt;Node3</title>
<path fill="none" stroke="#63b8ff" d="M179.86,-158.06C192.83,-183.12 218.63,-226.23 253,-250.5 257.58,-253.74 262.76,-256.4 268.1,-258.59"/>
<polygon fill="#63b8ff" stroke="#63b8ff" points="182.55,-156.62 174.95,-149.23 176.29,-159.74 182.55,-156.62"/>
</g>
<!-- Node4 -->
<g id="node4" class="node">
<title>Node4</title>
<g id="a_node4"><a xlink:href="interfaceGroupChatChannel.html" target="_top" xlink:title=" ">
<polygon fill="white" stroke="#666666" points="362.5,-241 264.5,-241 264.5,-222 362.5,-222 362.5,-241"/>
<text text-anchor="middle" x="313.5" y="-229" font-family="Helvetica,sans-Serif" font-size="10.00">GroupChatChannel</text>
</a>
</g>
</g>
<!-- Node1&#45;&gt;Node4 -->
<g id="edge3" class="edge">
<title>Node1&#45;&gt;Node4</title>
<path fill="none" stroke="#63b8ff" d="M185.7,-156.3C201.08,-173.26 226.33,-198.38 253,-213.5 258.54,-216.64 264.69,-219.29 270.86,-221.51"/>
<polygon fill="#63b8ff" stroke="#63b8ff" points="188.85,-154.45 179.61,-149.27 183.61,-159.08 188.85,-154.45"/>
</g>
<!-- Node5 -->
<g id="node5" class="node">
<title>Node5</title>
<g id="a_node5"><a xlink:href="interfaceLocalChatChannel.html" target="_top" xlink:title=" ">
<polygon fill="white" stroke="#666666" points="361,-204 266,-204 266,-185 361,-185 361,-204"/>
<text text-anchor="middle" x="313.5" y="-192" font-family="Helvetica,sans-Serif" font-size="10.00">LocalChatChannel</text>
</a>
</g>
</g>
<!-- Node1&#45;&gt;Node5 -->
<g id="edge4" class="edge">
<title>Node1&#45;&gt;Node5</title>
<path fill="none" stroke="#63b8ff" d="M199.78,-153.18C215.36,-160.69 234.98,-169.66 253,-176.5 260.57,-179.37 268.81,-182.11 276.68,-184.54"/>
<polygon fill="#63b8ff" stroke="#63b8ff" points="201.7,-149.74 191.18,-148.5 198.63,-156.03 201.7,-149.74"/>
</g>
<!-- Node6 -->
<g id="node6" class="node">
<title>Node6</title>
<g id="a_node6"><a xlink:href="interfacePrivateMessageChannel.html" target="_top" xlink:title=" ">
<polygon fill="white" stroke="#666666" points="374,-167 253,-167 253,-148 374,-148 374,-167"/>
<text text-anchor="middle" x="313.5" y="-155" font-family="Helvetica,sans-Serif" font-size="10.00">PrivateMessageChannel</text>
</a>
</g>
</g>
<!-- Node1&#45;&gt;Node6 -->
<g id="edge5" class="edge">
<title>Node1&#45;&gt;Node6</title>
<path fill="none" stroke="#63b8ff" d="M228.22,-146.22C236.31,-147.3 244.63,-148.42 252.75,-149.5"/>
<polygon fill="#63b8ff" stroke="#63b8ff" points="228.77,-142.63 218.39,-144.77 227.84,-149.57 228.77,-142.63"/>
</g>
<!-- Node7 -->
<g id="node7" class="node">
<title>Node7</title>
<g id="a_node7"><a xlink:href="interfaceSCR__ChatChannel.html" target="_top" xlink:title=" ">
<polygon fill="white" stroke="#666666" points="362.5,-130 264.5,-130 264.5,-111 362.5,-111 362.5,-130"/>
<text text-anchor="middle" x="313.5" y="-118" font-family="Helvetica,sans-Serif" font-size="10.00">SCR_ChatChannel</text>
</a>
</g>
</g>
<!-- Node1&#45;&gt;Node7 -->
<g id="edge6" class="edge">
<title>Node1&#45;&gt;Node7</title>
<path fill="none" stroke="#63b8ff" d="M228.18,-131.19C240.14,-129.67 252.62,-128.09 264.2,-126.62"/>
<polygon fill="#63b8ff" stroke="#63b8ff" points="227.87,-127.83 218.39,-132.56 228.75,-134.77 227.87,-127.83"/>
</g>
<!-- Node8 -->
<g id="node8" class="node">
<title>Node8</title>
<g id="a_node8"><a xlink:href="interfaceServerChatChannel.html" target="_top" xlink:title=" ">
<polygon fill="white" stroke="#666666" points="363,-93 264,-93 264,-74 363,-74 363,-93"/>
<text text-anchor="middle" x="313.5" y="-81" font-family="Helvetica,sans-Serif" font-size="10.00">ServerChatChannel</text>
</a>
</g>
</g>
<!-- Node1&#45;&gt;Node8 -->
<g id="edge7" class="edge">
<title>Node1&#45;&gt;Node8</title>
<path fill="none" stroke="#63b8ff" d="M200.13,-124.1C215.67,-116.84 235.15,-108.17 253,-101.5 260.68,-98.63 269.05,-95.88 277.01,-93.42"/>
<polygon fill="#63b8ff" stroke="#63b8ff" points="199.08,-121.2 191.54,-128.64 202.08,-127.53 199.08,-121.2"/>
</g>
<!-- Node9 -->
<g id="node9" class="node">
<title>Node9</title>
<g id="a_node9"><a xlink:href="interfaceSystemChatChannel.html" target="_top" xlink:title=" ">
<polygon fill="white" stroke="#666666" points="366.5,-56 260.5,-56 260.5,-37 366.5,-37 366.5,-56"/>
<text text-anchor="middle" x="313.5" y="-44" font-family="Helvetica,sans-Serif" font-size="10.00">SystemChatChannel</text>
</a>
</g>
</g>
<!-- Node1&#45;&gt;Node9 -->
<g id="edge8" class="edge">
<title>Node1&#45;&gt;Node9</title>
<path fill="none" stroke="#63b8ff" d="M186,-120.68C201.44,-103.96 226.58,-79.36 253,-64.5 258.64,-61.33 264.91,-58.65 271.2,-56.41"/>
<polygon fill="#63b8ff" stroke="#63b8ff" points="183.95,-117.83 179.86,-127.61 189.15,-122.52 183.95,-117.83"/>
</g>
<!-- Node10 -->
<g id="node10" class="node">
<title>Node10</title>
<g id="a_node10"><a xlink:href="interfaceVehicleChatChannel.html" target="_top" xlink:title=" ">
<polygon fill="white" stroke="#666666" points="365.5,-19 261.5,-19 261.5,0 365.5,0 365.5,-19"/>
<text text-anchor="middle" x="313.5" y="-7" font-family="Helvetica,sans-Serif" font-size="10.00">VehicleChatChannel</text>
</a>
</g>
</g>
<!-- Node1&#45;&gt;Node10 -->
<g id="edge9" class="edge">
<title>Node1&#45;&gt;Node10</title>
<path fill="none" stroke="#63b8ff" d="M180.1,-118.74C193.18,-93.85 218.95,-51.44 253,-27.5 257.59,-24.27 262.77,-21.61 268.11,-19.43"/>
<polygon fill="#63b8ff" stroke="#63b8ff" points="176.54,-117.03 175.13,-127.53 182.78,-120.19 176.54,-117.03"/>
</g>
<!-- Node2 -->
<g id="node2" class="node">
<title>Node2</title>
<g id="a_node2"><a xlink:title=" ">
<polygon fill="white" stroke="#666666" points="86,-148 0,-148 0,-129 86,-129 86,-148"/>
<text text-anchor="middle" x="43" y="-136" font-family="Helvetica,sans-Serif" font-size="10.00">ScriptAndConfig</text>
</a>
</g>
</g>
<!-- Node2&#45;&gt;Node1 -->
<g id="edge1" class="edge">
<title>Node2&#45;&gt;Node1</title>
<path fill="none" stroke="#63b8ff" d="M97.43,-138.5C105.58,-138.5 113.94,-138.5 121.93,-138.5"/>
<polygon fill="#63b8ff" stroke="#63b8ff" points="97.5,-135 87.5,-138.5 97.5,-142 97.5,-135"/>
</g>
<!-- Node11 -->
<g id="node11" class="node">
<title>Node11</title>
<g id="a_node11"><a xlink:href="interfaceSCR__VehicleChatChannel.html" target="_top" xlink:title=" ">
<polygon fill="white" stroke="#666666" points="540,-19 410,-19 410,0 540,0 540,-19"/>
<text text-anchor="middle" x="475" y="-7" font-family="Helvetica,sans-Serif" font-size="10.00">SCR_VehicleChatChannel</text>
</a>
</g>
</g>
<!-- Node10&#45;&gt;Node11 -->
<g id="edge10" class="edge">
<title>Node10&#45;&gt;Node11</title>
<path fill="none" stroke="#63b8ff" d="M376.51,-9.5C387.37,-9.5 398.68,-9.5 409.6,-9.5"/>
<polygon fill="#63b8ff" stroke="#63b8ff" points="376.84,-6 366.84,-9.5 376.84,-13 376.84,-6"/>
</g>
</g>
</svg>
