<?xml version="1.0" encoding="UTF-8" standalone="no"?>
<!DOCTYPE svg PUBLIC "-//W3C//DTD SVG 1.1//EN"
 "http://www.w3.org/Graphics/SVG/1.1/DTD/svg11.dtd">
<!-- Generated by graphviz version 8.0.2 (20230410.1723)
 -->
<!-- Title: SCR_BaseInventoryItemComponent Pages: 1 -->
<svg width="348pt" height="324pt"
 viewBox="0.00 0.00 348.00 324.00" xmlns="http://www.w3.org/2000/svg" xmlns:xlink="http://www.w3.org/1999/xlink">
<g id="graph0" class="graph" transform="scale(1 1) rotate(0) translate(4 320)">
<title>SCR_BaseInventoryItemComponent</title>
<!-- Node1 -->
<g id="node1" class="node">
<title>Node1</title>
<g id="a_node1"><a xlink:title=" ">
<polygon fill="#999999" stroke="#666666" points="250.5,-151 79.5,-151 79.5,-132 250.5,-132 250.5,-151"/>
<text text-anchor="middle" x="165" y="-139" font-family="Helvetica,sans-Serif" font-size="10.00">SCR_BaseInventoryItemComponent</text>
</a>
</g>
</g>
<!-- Node5 -->
<g id="node5" class="node">
<title>Node5</title>
<g id="a_node5"><a xlink:href="interfaceSCR__PlaceableInventoryItemComponent.html" target="_top" xlink:title=" ">
<polygon fill="white" stroke="#666666" points="236,-96 94,-96 94,-66 236,-66 236,-96"/>
<text text-anchor="start" x="102" y="-84" font-family="Helvetica,sans-Serif" font-size="10.00">SCR_PlaceableInventoryItem</text>
<text text-anchor="middle" x="165" y="-73" font-family="Helvetica,sans-Serif" font-size="10.00">Component</text>
</a>
</g>
</g>
<!-- Node1&#45;&gt;Node5 -->
<g id="edge4" class="edge">
<title>Node1&#45;&gt;Node5</title>
<path fill="none" stroke="#63b8ff" d="M165,-121.08C165,-112.92 165,-103.6 165,-96.11"/>
<polygon fill="#63b8ff" stroke="#63b8ff" points="161.5,-120.87 165,-130.87 168.5,-120.87 161.5,-120.87"/>
</g>
<!-- Node2 -->
<g id="node2" class="node">
<title>Node2</title>
<g id="a_node2"><a xlink:href="interfaceInventoryItemComponent.html" target="_top" xlink:title=" ">
<polygon fill="white" stroke="#666666" points="226.5,-206 103.5,-206 103.5,-187 226.5,-187 226.5,-206"/>
<text text-anchor="middle" x="165" y="-194" font-family="Helvetica,sans-Serif" font-size="10.00">InventoryItemComponent</text>
</a>
</g>
</g>
<!-- Node2&#45;&gt;Node1 -->
<g id="edge1" class="edge">
<title>Node2&#45;&gt;Node1</title>
<path fill="none" stroke="#63b8ff" d="M165,-175.93C165,-167.53 165,-158.13 165,-151.44"/>
<polygon fill="#63b8ff" stroke="#63b8ff" points="161.5,-175.75 165,-185.75 168.5,-175.75 161.5,-175.75"/>
</g>
<!-- Node3 -->
<g id="node3" class="node">
<title>Node3</title>
<g id="a_node3"><a xlink:href="interfaceGameComponent.html" target="_top" xlink:title=" ">
<polygon fill="white" stroke="#666666" points="211,-261 119,-261 119,-242 211,-242 211,-261"/>
<text text-anchor="middle" x="165" y="-249" font-family="Helvetica,sans-Serif" font-size="10.00">GameComponent</text>
</a>
</g>
</g>
<!-- Node3&#45;&gt;Node2 -->
<g id="edge2" class="edge">
<title>Node3&#45;&gt;Node2</title>
<path fill="none" stroke="#63b8ff" d="M165,-230.93C165,-222.53 165,-213.13 165,-206.44"/>
<polygon fill="#63b8ff" stroke="#63b8ff" points="161.5,-230.75 165,-240.75 168.5,-230.75 161.5,-230.75"/>
</g>
<!-- Node4 -->
<g id="node4" class="node">
<title>Node4</title>
<g id="a_node4"><a xlink:title=" ">
<polygon fill="white" stroke="#666666" points="215,-316 115,-316 115,-297 215,-297 215,-316"/>
<text text-anchor="middle" x="165" y="-304" font-family="Helvetica,sans-Serif" font-size="10.00">GenericComponent</text>
</a>
</g>
</g>
<!-- Node4&#45;&gt;Node3 -->
<g id="edge3" class="edge">
<title>Node4&#45;&gt;Node3</title>
<path fill="none" stroke="#63b8ff" d="M165,-285.93C165,-277.53 165,-268.13 165,-261.44"/>
<polygon fill="#63b8ff" stroke="#63b8ff" points="161.5,-285.75 165,-295.75 168.5,-285.75 161.5,-285.75"/>
</g>
<!-- Node6 -->
<g id="node6" class="node">
<title>Node6</title>
<g id="a_node6"><a xlink:href="interfaceSCR__ExplosiveChargeInventoryItemComponent.html" target="_top" xlink:title=" ">
<polygon fill="white" stroke="#666666" points="152,-30 0,-30 0,0 152,0 152,-30"/>
<text text-anchor="start" x="8" y="-18" font-family="Helvetica,sans-Serif" font-size="10.00">SCR_ExplosiveChargeInventory</text>
<text text-anchor="middle" x="76" y="-7" font-family="Helvetica,sans-Serif" font-size="10.00">ItemComponent</text>
</a>
</g>
</g>
<!-- Node5&#45;&gt;Node6 -->
<g id="edge5" class="edge">
<title>Node5&#45;&gt;Node6</title>
<path fill="none" stroke="#63b8ff" d="M136.53,-59.52C123.32,-50.03 107.95,-38.98 96,-30.39"/>
<polygon fill="#63b8ff" stroke="#63b8ff" points="134.09,-62.8 144.25,-65.8 138.17,-57.12 134.09,-62.8"/>
</g>
<!-- Node7 -->
<g id="node7" class="node">
<title>Node7</title>
<g id="a_node7"><a xlink:href="interfaceSCR__MineInventoryItemComponent.html" target="_top" xlink:title=" ">
<polygon fill="white" stroke="#666666" points="340,-24.5 170,-24.5 170,-5.5 340,-5.5 340,-24.5"/>
<text text-anchor="middle" x="255" y="-12.5" font-family="Helvetica,sans-Serif" font-size="10.00">SCR_MineInventoryItemComponent</text>
</a>
</g>
</g>
<!-- Node5&#45;&gt;Node7 -->
<g id="edge6" class="edge">
<title>Node5&#45;&gt;Node7</title>
<path fill="none" stroke="#63b8ff" d="M193.71,-59.58C210.18,-47.87 230.01,-33.77 242.56,-24.84"/>
<polygon fill="#63b8ff" stroke="#63b8ff" points="192.1,-57.15 185.97,-65.8 196.15,-62.85 192.1,-57.15"/>
</g>
</g>
</svg>
