<?xml version="1.0" encoding="UTF-8" standalone="no"?>
<!DOCTYPE svg PUBLIC "-//W3C//DTD SVG 1.1//EN"
 "http://www.w3.org/Graphics/SVG/1.1/DTD/svg11.dtd">
<!-- Generated by graphviz version 8.0.2 (20230410.1723)
 -->
<!-- Title: SCR_RefuelTaskSupportEntity Pages: 1 -->
<svg width="157pt" height="203pt"
 viewBox="0.00 0.00 157.00 203.00" xmlns="http://www.w3.org/2000/svg" xmlns:xlink="http://www.w3.org/1999/xlink">
<g id="graph0" class="graph" transform="scale(1 1) rotate(0) translate(4 199)">
<title>SCR_RefuelTaskSupportEntity</title>
<!-- Node1 -->
<g id="node1" class="node">
<title>Node1</title>
<g id="a_node1"><a xlink:title=" ">
<polygon fill="#999999" stroke="#666666" points="149,-19 0,-19 0,0 149,0 149,-19"/>
<text text-anchor="middle" x="74.5" y="-7" font-family="Helvetica,sans-Serif" font-size="10.00">SCR_RefuelTaskSupportEntity</text>
</a>
</g>
</g>
<!-- Node2 -->
<g id="node2" class="node">
<title>Node2</title>
<g id="a_node2"><a xlink:href="interfaceSCR__RequestedTaskSupportEntity.html" target="_top" xlink:title=" ">
<polygon fill="white" stroke="#666666" points="146,-85 3,-85 3,-55 146,-55 146,-85"/>
<text text-anchor="start" x="11" y="-73" font-family="Helvetica,sans-Serif" font-size="10.00">SCR_RequestedTaskSupport</text>
<text text-anchor="middle" x="74.5" y="-62" font-family="Helvetica,sans-Serif" font-size="10.00">Entity</text>
</a>
</g>
</g>
<!-- Node2&#45;&gt;Node1 -->
<g id="edge1" class="edge">
<title>Node2&#45;&gt;Node1</title>
<path fill="none" stroke="#63b8ff" d="M74.5,-43.59C74.5,-34.85 74.5,-25.65 74.5,-19.18"/>
<polygon fill="#63b8ff" stroke="#63b8ff" points="71,-43.54 74.5,-53.54 78,-43.54 71,-43.54"/>
</g>
<!-- Node3 -->
<g id="node3" class="node">
<title>Node3</title>
<g id="a_node3"><a xlink:href="interfaceSCR__BaseTaskSupportEntity.html" target="_top" xlink:title=" ">
<polygon fill="white" stroke="#666666" points="147,-140 2,-140 2,-121 147,-121 147,-140"/>
<text text-anchor="middle" x="74.5" y="-128" font-family="Helvetica,sans-Serif" font-size="10.00">SCR_BaseTaskSupportEntity</text>
</a>
</g>
</g>
<!-- Node3&#45;&gt;Node2 -->
<g id="edge2" class="edge">
<title>Node3&#45;&gt;Node2</title>
<path fill="none" stroke="#63b8ff" d="M74.5,-110.08C74.5,-101.92 74.5,-92.6 74.5,-85.11"/>
<polygon fill="#63b8ff" stroke="#63b8ff" points="71,-109.87 74.5,-119.87 78,-109.87 71,-109.87"/>
</g>
<!-- Node4 -->
<g id="node4" class="node">
<title>Node4</title>
<g id="a_node4"><a xlink:title=" ">
<polygon fill="white" stroke="#666666" points="112.5,-195 36.5,-195 36.5,-176 112.5,-176 112.5,-195"/>
<text text-anchor="middle" x="74.5" y="-183" font-family="Helvetica,sans-Serif" font-size="10.00">GenericEntity</text>
</a>
</g>
</g>
<!-- Node4&#45;&gt;Node3 -->
<g id="edge3" class="edge">
<title>Node4&#45;&gt;Node3</title>
<path fill="none" stroke="#63b8ff" d="M74.5,-164.93C74.5,-156.53 74.5,-147.13 74.5,-140.44"/>
<polygon fill="#63b8ff" stroke="#63b8ff" points="71,-164.75 74.5,-174.75 78,-164.75 71,-164.75"/>
</g>
</g>
</svg>
