<?xml version="1.0" encoding="UTF-8" standalone="no"?>
<!DOCTYPE svg PUBLIC "-//W3C//DTD SVG 1.1//EN"
 "http://www.w3.org/Graphics/SVG/1.1/DTD/svg11.dtd">
<!-- Generated by graphviz version 8.0.2 (20230410.1723)
 -->
<!-- Title: SCR_AIActionTask Pages: 1 -->
<svg width="639pt" height="1581pt"
 viewBox="0.00 0.00 639.00 1581.00" xmlns="http://www.w3.org/2000/svg" xmlns:xlink="http://www.w3.org/1999/xlink">
<g id="graph0" class="graph" transform="scale(1 1) rotate(0) translate(4 1577)">
<title>SCR_AIActionTask</title>
<!-- Node1 -->
<g id="node1" class="node">
<title>Node1</title>
<g id="a_node1"><a xlink:title=" ">
<polygon fill="#999999" stroke="#666666" points="219,-885.5 119,-885.5 119,-866.5 219,-866.5 219,-885.5"/>
<text text-anchor="middle" x="169" y="-873.5" font-family="Helvetica,sans-Serif" font-size="10.00">SCR_AIActionTask</text>
</a>
</g>
</g>
<!-- Node3 -->
<g id="node3" class="node">
<title>Node3</title>
<g id="a_node3"><a xlink:href="interfaceSCR__AICompleteAction.html" target="_top" xlink:title=" ">
<polygon fill="white" stroke="#666666" points="393,-1018.5 273,-1018.5 273,-999.5 393,-999.5 393,-1018.5"/>
<text text-anchor="middle" x="333" y="-1006.5" font-family="Helvetica,sans-Serif" font-size="10.00">SCR_AICompleteAction</text>
</a>
</g>
</g>
<!-- Node1&#45;&gt;Node3 -->
<g id="edge2" class="edge">
<title>Node1&#45;&gt;Node3</title>
<path fill="none" stroke="#63b8ff" d="M179.05,-895.69C192.05,-921.7 218.52,-967 255,-991 260.39,-994.55 266.4,-997.4 272.61,-999.69"/>
<polygon fill="#63b8ff" stroke="#63b8ff" points="181.8,-894.34 174.31,-886.85 175.49,-897.37 181.8,-894.34"/>
</g>
<!-- Node4 -->
<g id="node4" class="node">
<title>Node4</title>
<g id="a_node4"><a xlink:href="interfaceSCR__AIFailAction.html" target="_top" xlink:title=" ">
<polygon fill="white" stroke="#666666" points="380.5,-981.5 285.5,-981.5 285.5,-962.5 380.5,-962.5 380.5,-981.5"/>
<text text-anchor="middle" x="333" y="-969.5" font-family="Helvetica,sans-Serif" font-size="10.00">SCR_AIFailAction</text>
</a>
</g>
</g>
<!-- Node1&#45;&gt;Node4 -->
<g id="edge3" class="edge">
<title>Node1&#45;&gt;Node4</title>
<path fill="none" stroke="#63b8ff" d="M184.49,-893.84C200.04,-911.78 226.39,-938.88 255,-954 264.23,-958.87 274.76,-962.44 285.01,-965.05"/>
<polygon fill="#63b8ff" stroke="#63b8ff" points="186.88,-892.25 177.76,-886.86 181.53,-896.76 186.88,-892.25"/>
</g>
<!-- Node5 -->
<g id="node5" class="node">
<title>Node5</title>
<g id="a_node5"><a xlink:href="interfaceSCR__AIFollowEntityPath.html" target="_top" xlink:title="Task that takes group and uses it path to move.">
<polygon fill="white" stroke="#666666" points="395.5,-944.5 270.5,-944.5 270.5,-925.5 395.5,-925.5 395.5,-944.5"/>
<text text-anchor="middle" x="333" y="-932.5" font-family="Helvetica,sans-Serif" font-size="10.00">SCR_AIFollowEntityPath</text>
</a>
</g>
</g>
<!-- Node1&#45;&gt;Node5 -->
<g id="edge4" class="edge">
<title>Node1&#45;&gt;Node5</title>
<path fill="none" stroke="#63b8ff" d="M197.22,-891.03C213.58,-899.57 235.04,-909.95 255,-917 263.67,-920.06 273.08,-922.76 282.24,-925.06"/>
<polygon fill="#63b8ff" stroke="#63b8ff" points="199.22,-887.59 188.75,-885.98 195.93,-893.77 199.22,-887.59"/>
</g>
<!-- Node6 -->
<g id="node6" class="node">
<title>Node6</title>
<g id="a_node6"><a xlink:href="interfaceSCR__AIGetActionParameters.html" target="_top" xlink:title="Base class of node which outputs action parameters to Behavior Tree variables.">
<polygon fill="white" stroke="#666666" points="405.5,-907.5 260.5,-907.5 260.5,-888.5 405.5,-888.5 405.5,-907.5"/>
<text text-anchor="middle" x="333" y="-895.5" font-family="Helvetica,sans-Serif" font-size="10.00">SCR_AIGetActionParameters</text>
</a>
</g>
</g>
<!-- Node1&#45;&gt;Node6 -->
<g id="edge5" class="edge">
<title>Node1&#45;&gt;Node6</title>
<path fill="none" stroke="#63b8ff" d="M230.27,-884.18C240.01,-885.51 250.18,-886.89 260.16,-888.24"/>
<polygon fill="#63b8ff" stroke="#63b8ff" points="230.87,-880.6 220.49,-882.72 229.92,-887.53 230.87,-880.6"/>
</g>
<!-- Node36 -->
<g id="node36" class="node">
<title>Node36</title>
<g id="a_node36"><a xlink:href="interfaceSCR__AIGetFindFirePositionNextPos.html" target="_top" xlink:title=" ">
<polygon fill="white" stroke="#666666" points="401.5,-870 264.5,-870 264.5,-840 401.5,-840 401.5,-870"/>
<text text-anchor="start" x="272.5" y="-858" font-family="Helvetica,sans-Serif" font-size="10.00">SCR_AIGetFindFirePosition</text>
<text text-anchor="middle" x="333" y="-847" font-family="Helvetica,sans-Serif" font-size="10.00">NextPos</text>
</a>
</g>
</g>
<!-- Node1&#45;&gt;Node36 -->
<g id="edge35" class="edge">
<title>Node1&#45;&gt;Node36</title>
<path fill="none" stroke="#63b8ff" d="M230.27,-868.19C241.27,-866.76 252.82,-865.26 264.03,-863.81"/>
<polygon fill="#63b8ff" stroke="#63b8ff" points="229.95,-864.83 220.49,-869.59 230.85,-871.77 229.95,-864.83"/>
</g>
<!-- Node37 -->
<g id="node37" class="node">
<title>Node37</title>
<g id="a_node37"><a xlink:href="interfaceSCR__AISetActionParameters.html" target="_top" xlink:title="Base class of node which gets action parameters from a BT node.">
<polygon fill="white" stroke="#666666" points="405,-209.5 261,-209.5 261,-190.5 405,-190.5 405,-209.5"/>
<text text-anchor="middle" x="333" y="-197.5" font-family="Helvetica,sans-Serif" font-size="10.00">SCR_AISetActionParameters</text>
</a>
</g>
</g>
<!-- Node1&#45;&gt;Node37 -->
<g id="edge36" class="edge">
<title>Node1&#45;&gt;Node37</title>
<path fill="none" stroke="#63b8ff" d="M174.89,-855.6C199.8,-751.66 312.1,-283.02 329.68,-209.67"/>
<polygon fill="#63b8ff" stroke="#63b8ff" points="171.28,-854.64 172.35,-865.18 178.09,-856.27 171.28,-854.64"/>
</g>
<!-- Node45 -->
<g id="node45" class="node">
<title>Node45</title>
<g id="a_node45"><a xlink:href="interfaceSCR__AISetBehaviorInterruptable.html" target="_top" xlink:title=" ">
<polygon fill="white" stroke="#666666" points="411,-172.5 255,-172.5 255,-153.5 411,-153.5 411,-172.5"/>
<text text-anchor="middle" x="333" y="-160.5" font-family="Helvetica,sans-Serif" font-size="10.00">SCR_AISetBehaviorInterruptable</text>
</a>
</g>
</g>
<!-- Node1&#45;&gt;Node45 -->
<g id="edge44" class="edge">
<title>Node1&#45;&gt;Node45</title>
<path fill="none" stroke="#63b8ff" d="M171.13,-855.37C177.33,-745.56 208.63,-232.67 255,-181 257.84,-177.83 261.13,-175.17 264.7,-172.93"/>
<polygon fill="#63b8ff" stroke="#63b8ff" points="167.59,-855.05 170.53,-865.22 174.58,-855.44 167.59,-855.05"/>
</g>
<!-- Node46 -->
<g id="node46" class="node">
<title>Node46</title>
<g id="a_node46"><a xlink:href="interfaceSCR__AISuspendAction.html" target="_top" xlink:title=" ">
<polygon fill="white" stroke="#666666" points="391.5,-135.5 274.5,-135.5 274.5,-116.5 391.5,-116.5 391.5,-135.5"/>
<text text-anchor="middle" x="333" y="-123.5" font-family="Helvetica,sans-Serif" font-size="10.00">SCR_AISuspendAction</text>
</a>
</g>
</g>
<!-- Node1&#45;&gt;Node46 -->
<g id="edge45" class="edge">
<title>Node1&#45;&gt;Node46</title>
<path fill="none" stroke="#63b8ff" d="M171,-855.35C176.66,-742.02 206.21,-198.7 255,-144 260.21,-138.16 266.92,-134.03 274.19,-131.13"/>
<polygon fill="#63b8ff" stroke="#63b8ff" points="167.46,-855.08 170.46,-865.24 174.45,-855.42 167.46,-855.08"/>
</g>
<!-- Node2 -->
<g id="node2" class="node">
<title>Node2</title>
<g id="a_node2"><a xlink:title=" ">
<polygon fill="white" stroke="#666666" points="83,-885.5 0,-885.5 0,-866.5 83,-866.5 83,-885.5"/>
<text text-anchor="middle" x="41.5" y="-873.5" font-family="Helvetica,sans-Serif" font-size="10.00">AITaskScripted</text>
</a>
</g>
</g>
<!-- Node2&#45;&gt;Node1 -->
<g id="edge1" class="edge">
<title>Node2&#45;&gt;Node1</title>
<path fill="none" stroke="#63b8ff" d="M94.11,-876C102.24,-876 110.62,-876 118.7,-876"/>
<polygon fill="#63b8ff" stroke="#63b8ff" points="94.25,-872.5 84.25,-876 94.25,-879.5 94.25,-872.5"/>
</g>
<!-- Node7 -->
<g id="node7" class="node">
<title>Node7</title>
<g id="a_node7"><a xlink:href="interfaceSCR__AIFireIllumFlareBehaviorParameters.html" target="_top" xlink:title=" ">
<polygon fill="white" stroke="#666666" points="612,-1573 466,-1573 466,-1543 612,-1543 612,-1573"/>
<text text-anchor="start" x="474" y="-1561" font-family="Helvetica,sans-Serif" font-size="10.00">SCR_AIFireIllumFlareBehavior</text>
<text text-anchor="middle" x="539" y="-1550" font-family="Helvetica,sans-Serif" font-size="10.00">Parameters</text>
</a>
</g>
</g>
<!-- Node6&#45;&gt;Node7 -->
<g id="edge6" class="edge">
<title>Node6&#45;&gt;Node7</title>
<path fill="none" stroke="#63b8ff" d="M408.96,-914.73C409.66,-915.45 410.35,-916.21 411,-917 498.8,-1022.61 360.04,-1427.69 447,-1534 452.07,-1540.2 458.53,-1544.9 465.67,-1548.46"/>
<polygon fill="#63b8ff" stroke="#63b8ff" points="411.52,-911.49 401.53,-907.96 407.14,-916.95 411.52,-911.49"/>
</g>
<!-- Node8 -->
<g id="node8" class="node">
<title>Node8</title>
<g id="a_node8"><a xlink:href="interfaceSCR__AIGetAttackBehaviorParameters.html" target="_top" xlink:title=" ">
<polygon fill="white" stroke="#666666" points="630,-1524.5 448,-1524.5 448,-1505.5 630,-1505.5 630,-1524.5"/>
<text text-anchor="middle" x="539" y="-1512.5" font-family="Helvetica,sans-Serif" font-size="10.00">SCR_AIGetAttackBehaviorParameters</text>
</a>
</g>
</g>
<!-- Node6&#45;&gt;Node8 -->
<g id="edge7" class="edge">
<title>Node6&#45;&gt;Node8</title>
<path fill="none" stroke="#63b8ff" d="M408.95,-914.73C409.66,-915.46 410.34,-916.21 411,-917 493.74,-1016.15 361.97,-1399.81 447,-1497 449.76,-1500.15 452.89,-1502.85 456.3,-1505.15"/>
<polygon fill="#63b8ff" stroke="#63b8ff" points="411.51,-911.49 401.52,-907.97 407.14,-916.96 411.51,-911.49"/>
</g>
<!-- Node9 -->
<g id="node9" class="node">
<title>Node9</title>
<g id="a_node9"><a xlink:href="interfaceSCR__AIGetDefendActivityParameters.html" target="_top" xlink:title=" ">
<polygon fill="white" stroke="#666666" points="628.5,-1487.5 449.5,-1487.5 449.5,-1468.5 628.5,-1468.5 628.5,-1487.5"/>
<text text-anchor="middle" x="539" y="-1475.5" font-family="Helvetica,sans-Serif" font-size="10.00">SCR_AIGetDefendActivityParameters</text>
</a>
</g>
</g>
<!-- Node6&#45;&gt;Node9 -->
<g id="edge8" class="edge">
<title>Node6&#45;&gt;Node9</title>
<path fill="none" stroke="#63b8ff" d="M408.95,-914.73C409.66,-915.46 410.34,-916.22 411,-917 488.68,-1009.69 367.18,-1369.15 447,-1460 449.76,-1463.15 452.9,-1465.84 456.32,-1468.14"/>
<polygon fill="#63b8ff" stroke="#63b8ff" points="411.5,-911.49 401.5,-907.99 407.13,-916.96 411.5,-911.49"/>
</g>
<!-- Node10 -->
<g id="node10" class="node">
<title>Node10</title>
<g id="a_node10"><a xlink:href="interfaceSCR__AIGetDefendBehaviorParameters.html" target="_top" xlink:title=" ">
<polygon fill="white" stroke="#666666" points="631,-1450.5 447,-1450.5 447,-1431.5 631,-1431.5 631,-1450.5"/>
<text text-anchor="middle" x="539" y="-1438.5" font-family="Helvetica,sans-Serif" font-size="10.00">SCR_AIGetDefendBehaviorParameters</text>
</a>
</g>
</g>
<!-- Node6&#45;&gt;Node10 -->
<g id="edge9" class="edge">
<title>Node6&#45;&gt;Node10</title>
<path fill="none" stroke="#63b8ff" d="M408.56,-914.36C409.41,-915.2 410.22,-916.08 411,-917 483.48,-1003.05 372.98,-1337.27 447,-1422 450.19,-1425.65 453.87,-1428.7 457.9,-1431.25"/>
<polygon fill="#63b8ff" stroke="#63b8ff" points="411.17,-911.17 401.13,-907.79 406.87,-916.7 411.17,-911.17"/>
</g>
<!-- Node11 -->
<g id="node11" class="node">
<title>Node11</title>
<g id="a_node11"><a xlink:href="interfaceSCR__AIGetFirePositionBehaviorParameters.html" target="_top" xlink:title=" ">
<polygon fill="white" stroke="#666666" points="616.5,-1413 461.5,-1413 461.5,-1383 616.5,-1383 616.5,-1413"/>
<text text-anchor="start" x="469.5" y="-1401" font-family="Helvetica,sans-Serif" font-size="10.00">SCR_AIGetFirePositionBehavior</text>
<text text-anchor="middle" x="539" y="-1390" font-family="Helvetica,sans-Serif" font-size="10.00">Parameters</text>
</a>
</g>
</g>
<!-- Node6&#45;&gt;Node11 -->
<g id="edge10" class="edge">
<title>Node6&#45;&gt;Node11</title>
<path fill="none" stroke="#63b8ff" d="M408.55,-914.36C409.4,-915.2 410.22,-916.08 411,-917 476.92,-994.67 381.7,-1295.81 447,-1374 450.98,-1378.77 455.78,-1382.65 461.08,-1385.8"/>
<polygon fill="#63b8ff" stroke="#63b8ff" points="411.15,-911.17 401.1,-907.82 406.87,-916.71 411.15,-911.17"/>
</g>
<!-- Node12 -->
<g id="node12" class="node">
<title>Node12</title>
<g id="a_node12"><a xlink:href="interfaceSCR__AIGetFollowActivityParameters.html" target="_top" xlink:title=" ">
<polygon fill="white" stroke="#666666" points="627,-1364.5 451,-1364.5 451,-1345.5 627,-1345.5 627,-1364.5"/>
<text text-anchor="middle" x="539" y="-1352.5" font-family="Helvetica,sans-Serif" font-size="10.00">SCR_AIGetFollowActivityParameters</text>
</a>
</g>
</g>
<!-- Node6&#45;&gt;Node12 -->
<g id="edge11" class="edge">
<title>Node6&#45;&gt;Node12</title>
<path fill="none" stroke="#63b8ff" d="M408.55,-914.37C409.4,-915.21 410.22,-916.08 411,-917 471.86,-988.21 384.5,-1267.23 447,-1337 449.79,-1340.12 452.96,-1342.79 456.39,-1345.07"/>
<polygon fill="#63b8ff" stroke="#63b8ff" points="411.13,-911.18 401.08,-907.84 406.86,-916.72 411.13,-911.18"/>
</g>
<!-- Node13 -->
<g id="node13" class="node">
<title>Node13</title>
<g id="a_node13"><a xlink:href="interfaceSCR__AIGetGetInActivityParameters.html" target="_top" xlink:title=" ">
<polygon fill="white" stroke="#666666" points="625,-1327.5 453,-1327.5 453,-1308.5 625,-1308.5 625,-1327.5"/>
<text text-anchor="middle" x="539" y="-1315.5" font-family="Helvetica,sans-Serif" font-size="10.00">SCR_AIGetGetInActivityParameters</text>
</a>
</g>
</g>
<!-- Node6&#45;&gt;Node13 -->
<g id="edge12" class="edge">
<title>Node6&#45;&gt;Node13</title>
<path fill="none" stroke="#63b8ff" d="M408.53,-914.38C409.39,-915.22 410.21,-916.09 411,-917 466.67,-981.58 390.17,-1235.43 447,-1299 450.23,-1302.61 453.95,-1305.63 458,-1308.16"/>
<polygon fill="#63b8ff" stroke="#63b8ff" points="411.11,-911.18 401.04,-907.87 406.85,-916.73 411.11,-911.18"/>
</g>
<!-- Node14 -->
<g id="node14" class="node">
<title>Node14</title>
<g id="a_node14"><a xlink:href="interfaceSCR__AIGetGetInVehicleBehaviorParameters.html" target="_top" xlink:title=" ">
<polygon fill="white" stroke="#666666" points="618.5,-1290 459.5,-1290 459.5,-1260 618.5,-1260 618.5,-1290"/>
<text text-anchor="start" x="467.5" y="-1278" font-family="Helvetica,sans-Serif" font-size="10.00">SCR_AIGetGetInVehicleBehavior</text>
<text text-anchor="middle" x="539" y="-1267" font-family="Helvetica,sans-Serif" font-size="10.00">Parameters</text>
</a>
</g>
</g>
<!-- Node6&#45;&gt;Node14 -->
<g id="edge13" class="edge">
<title>Node6&#45;&gt;Node14</title>
<path fill="none" stroke="#63b8ff" d="M408.52,-914.4C409.38,-915.23 410.21,-916.09 411,-917 509.24,-1029.43 349.66,-1137.79 447,-1251 450.52,-1255.09 454.64,-1258.52 459.15,-1261.4"/>
<polygon fill="#63b8ff" stroke="#63b8ff" points="411.07,-911.18 400.99,-907.92 406.83,-916.75 411.07,-911.18"/>
</g>
<!-- Node15 -->
<g id="node15" class="node">
<title>Node15</title>
<g id="a_node15"><a xlink:href="interfaceSCR__AIGetGetOutActivityParameters.html" target="_top" xlink:title=" ">
<polygon fill="white" stroke="#666666" points="629,-1241.5 449,-1241.5 449,-1222.5 629,-1222.5 629,-1241.5"/>
<text text-anchor="middle" x="539" y="-1229.5" font-family="Helvetica,sans-Serif" font-size="10.00">SCR_AIGetGetOutActivityParameters</text>
</a>
</g>
</g>
<!-- Node6&#45;&gt;Node15 -->
<g id="edge14" class="edge">
<title>Node6&#45;&gt;Node15</title>
<path fill="none" stroke="#63b8ff" d="M408.5,-914.41C409.37,-915.24 410.2,-916.1 411,-917 499.15,-1016.55 356.55,-1116.54 447,-1214 449.96,-1217.19 453.3,-1219.9 456.92,-1222.21"/>
<polygon fill="#63b8ff" stroke="#63b8ff" points="411.03,-911.18 400.93,-907.97 406.82,-916.77 411.03,-911.18"/>
</g>
<!-- Node16 -->
<g id="node16" class="node">
<title>Node16</title>
<g id="a_node16"><a xlink:href="interfaceSCR__AIGetHealActivityParameters.html" target="_top" xlink:title=" ">
<polygon fill="white" stroke="#666666" points="623,-1204.5 455,-1204.5 455,-1185.5 623,-1185.5 623,-1204.5"/>
<text text-anchor="middle" x="539" y="-1192.5" font-family="Helvetica,sans-Serif" font-size="10.00">SCR_AIGetHealActivityParameters</text>
</a>
</g>
</g>
<!-- Node6&#45;&gt;Node16 -->
<g id="edge15" class="edge">
<title>Node6&#45;&gt;Node16</title>
<path fill="none" stroke="#63b8ff" d="M408.07,-914.05C409.09,-914.98 410.07,-915.96 411,-917 488.8,-1003.33 367.65,-1091.09 447,-1176 450.42,-1179.66 454.34,-1182.7 458.6,-1185.24"/>
<polygon fill="#63b8ff" stroke="#63b8ff" points="410.65,-910.87 400.51,-907.82 406.53,-916.53 410.65,-910.87"/>
</g>
<!-- Node17 -->
<g id="node17" class="node">
<title>Node17</title>
<g id="a_node17"><a xlink:href="interfaceSCR__AIGetHealWaitBehaviorParameters.html" target="_top" xlink:title=" ">
<polygon fill="white" stroke="#666666" points="610.5,-1167 467.5,-1167 467.5,-1137 610.5,-1137 610.5,-1167"/>
<text text-anchor="start" x="475.5" y="-1155" font-family="Helvetica,sans-Serif" font-size="10.00">SCR_AIGetHealWaitBehavior</text>
<text text-anchor="middle" x="539" y="-1144" font-family="Helvetica,sans-Serif" font-size="10.00">Parameters</text>
</a>
</g>
</g>
<!-- Node6&#45;&gt;Node17 -->
<g id="edge16" class="edge">
<title>Node6&#45;&gt;Node17</title>
<path fill="none" stroke="#63b8ff" d="M408.02,-914.09C409.06,-915.01 410.05,-915.98 411,-917 475.77,-986.68 382.79,-1057.81 447,-1128 452.62,-1134.15 459.62,-1138.8 467.22,-1142.31"/>
<polygon fill="#63b8ff" stroke="#63b8ff" points="410.56,-910.89 400.38,-907.93 406.5,-916.59 410.56,-910.89"/>
</g>
<!-- Node18 -->
<g id="node18" class="node">
<title>Node18</title>
<g id="a_node18"><a xlink:href="interfaceSCR__AIGetInvestigateBehaviorParameters.html" target="_top" xlink:title=" ">
<polygon fill="white" stroke="#666666" points="613.5,-1119 464.5,-1119 464.5,-1089 613.5,-1089 613.5,-1119"/>
<text text-anchor="start" x="472.5" y="-1107" font-family="Helvetica,sans-Serif" font-size="10.00">SCR_AIGetInvestigateBehavior</text>
<text text-anchor="middle" x="539" y="-1096" font-family="Helvetica,sans-Serif" font-size="10.00">Parameters</text>
</a>
</g>
</g>
<!-- Node6&#45;&gt;Node18 -->
<g id="edge17" class="edge">
<title>Node6&#45;&gt;Node18</title>
<path fill="none" stroke="#63b8ff" d="M407.87,-914.08C408.95,-915 410,-915.97 411,-917 462.81,-970.1 395.61,-1026.49 447,-1080 451.98,-1085.19 457.94,-1089.3 464.39,-1092.55"/>
<polygon fill="#63b8ff" stroke="#63b8ff" points="410.06,-910.66 399.83,-907.92 406.12,-916.44 410.06,-910.66"/>
</g>
<!-- Node19 -->
<g id="node19" class="node">
<title>Node19</title>
<g id="a_node19"><a xlink:href="interfaceSCR__AIGetMedicHealBehaviorParameters.html" target="_top" xlink:title=" ">
<polygon fill="white" stroke="#666666" points="613.5,-1071 464.5,-1071 464.5,-1041 613.5,-1041 613.5,-1071"/>
<text text-anchor="start" x="472.5" y="-1059" font-family="Helvetica,sans-Serif" font-size="10.00">SCR_AIGetMedicHealBehavior</text>
<text text-anchor="middle" x="539" y="-1048" font-family="Helvetica,sans-Serif" font-size="10.00">Parameters</text>
</a>
</g>
</g>
<!-- Node6&#45;&gt;Node19 -->
<g id="edge18" class="edge">
<title>Node6&#45;&gt;Node19</title>
<path fill="none" stroke="#63b8ff" d="M406.77,-913.44C408.24,-914.55 409.66,-915.74 411,-917 450.02,-953.69 408.28,-995 447,-1032 452.08,-1036.85 458.02,-1040.75 464.39,-1043.88"/>
<polygon fill="#63b8ff" stroke="#63b8ff" points="409.1,-910.15 398.75,-907.88 405.42,-916.11 409.1,-910.15"/>
</g>
<!-- Node20 -->
<g id="node20" class="node">
<title>Node20</title>
<g id="a_node20"><a xlink:href="interfaceSCR__AIGetMoveActivityParameters.html" target="_top" xlink:title=" ">
<polygon fill="white" stroke="#666666" points="624.5,-1022.5 453.5,-1022.5 453.5,-1003.5 624.5,-1003.5 624.5,-1022.5"/>
<text text-anchor="middle" x="539" y="-1010.5" font-family="Helvetica,sans-Serif" font-size="10.00">SCR_AIGetMoveActivityParameters</text>
</a>
</g>
</g>
<!-- Node6&#45;&gt;Node20 -->
<g id="edge19" class="edge">
<title>Node6&#45;&gt;Node20</title>
<path fill="none" stroke="#63b8ff" d="M405.73,-913.16C407.56,-914.34 409.32,-915.62 411,-917 440.19,-940.98 417.38,-970.55 447,-994 451.56,-997.61 456.63,-1000.57 461.99,-1003.01"/>
<polygon fill="#63b8ff" stroke="#63b8ff" points="407.55,-909.62 397.09,-907.94 404.22,-915.78 407.55,-909.62"/>
</g>
<!-- Node21 -->
<g id="node21" class="node">
<title>Node21</title>
<g id="a_node21"><a xlink:href="interfaceSCR__AIGetMoveFromDangerBehaviorParameters.html" target="_top" xlink:title=" ">
<polygon fill="white" stroke="#666666" points="628.5,-985 449.5,-985 449.5,-955 628.5,-955 628.5,-985"/>
<text text-anchor="start" x="457.5" y="-973" font-family="Helvetica,sans-Serif" font-size="10.00">SCR_AIGetMoveFromDangerBehavior</text>
<text text-anchor="middle" x="539" y="-962" font-family="Helvetica,sans-Serif" font-size="10.00">Parameters</text>
</a>
</g>
</g>
<!-- Node6&#45;&gt;Node21 -->
<g id="edge20" class="edge">
<title>Node6&#45;&gt;Node21</title>
<path fill="none" stroke="#63b8ff" d="M397.55,-911.29C402.19,-912.98 406.72,-914.88 411,-917 429.41,-926.12 428.66,-936.73 447,-946 453.42,-949.24 460.31,-952.08 467.34,-954.56"/>
<polygon fill="#63b8ff" stroke="#63b8ff" points="398.87,-907.71 388.28,-907.91 396.68,-914.36 398.87,-907.71"/>
</g>
<!-- Node22 -->
<g id="node22" class="node">
<title>Node22</title>
<g id="a_node22"><a xlink:href="interfaceSCR__AIGetMoveIndividuallyBehaviorParameters.html" target="_top" xlink:title=" ">
<polygon fill="white" stroke="#666666" points="607,-937 471,-937 471,-907 607,-907 607,-937"/>
<text text-anchor="start" x="479" y="-925" font-family="Helvetica,sans-Serif" font-size="10.00">SCR_AIGetMoveIndividually</text>
<text text-anchor="middle" x="539" y="-914" font-family="Helvetica,sans-Serif" font-size="10.00">BehaviorParameters</text>
</a>
</g>
</g>
<!-- Node6&#45;&gt;Node22 -->
<g id="edge21" class="edge">
<title>Node6&#45;&gt;Node22</title>
<path fill="none" stroke="#63b8ff" d="M416.7,-907.73C434.69,-909.85 453.52,-912.06 470.82,-914.1"/>
<polygon fill="#63b8ff" stroke="#63b8ff" points="417.26,-904.15 406.92,-906.46 416.45,-911.11 417.26,-904.15"/>
</g>
<!-- Node23 -->
<g id="node23" class="node">
<title>Node23</title>
<g id="a_node23"><a xlink:href="interfaceSCR__AIGetObserveUnknownFireBehaviorParameters.html" target="_top" xlink:title=" ">
<polygon fill="white" stroke="#666666" points="618,-889 460,-889 460,-859 618,-859 618,-889"/>
<text text-anchor="start" x="468" y="-877" font-family="Helvetica,sans-Serif" font-size="10.00">SCR_AIGetObserveUnknownFire</text>
<text text-anchor="middle" x="539" y="-866" font-family="Helvetica,sans-Serif" font-size="10.00">BehaviorParameters</text>
</a>
</g>
</g>
<!-- Node6&#45;&gt;Node23 -->
<g id="edge22" class="edge">
<title>Node6&#45;&gt;Node23</title>
<path fill="none" stroke="#63b8ff" d="M416.69,-888.27C430.92,-886.6 445.68,-884.86 459.79,-883.2"/>
<polygon fill="#63b8ff" stroke="#63b8ff" points="416.45,-884.89 406.92,-889.54 417.26,-891.85 416.45,-884.89"/>
</g>
<!-- Node24 -->
<g id="node24" class="node">
<title>Node24</title>
<g id="a_node24"><a xlink:href="interfaceSCR__AIGetOutVehicleBehaviorParameters.html" target="_top" xlink:title=" ">
<polygon fill="white" stroke="#666666" points="615,-841 463,-841 463,-811 615,-811 615,-841"/>
<text text-anchor="start" x="471" y="-829" font-family="Helvetica,sans-Serif" font-size="10.00">SCR_AIGetOutVehicleBehavior</text>
<text text-anchor="middle" x="539" y="-818" font-family="Helvetica,sans-Serif" font-size="10.00">Parameters</text>
</a>
</g>
</g>
<!-- Node6&#45;&gt;Node24 -->
<g id="edge23" class="edge">
<title>Node6&#45;&gt;Node24</title>
<path fill="none" stroke="#63b8ff" d="M397.55,-884.71C402.19,-883.02 406.72,-881.12 411,-879 429.41,-869.88 428.66,-859.27 447,-850 453.42,-846.76 460.31,-843.92 467.34,-841.44"/>
<polygon fill="#63b8ff" stroke="#63b8ff" points="396.68,-881.64 388.28,-888.09 398.87,-888.29 396.68,-881.64"/>
</g>
<!-- Node25 -->
<g id="node25" class="node">
<title>Node25</title>
<g id="a_node25"><a xlink:href="interfaceSCR__AIGetPerformActionActivityParameters.html" target="_top" xlink:title=" ">
<polygon fill="white" stroke="#666666" points="619,-793 459,-793 459,-763 619,-763 619,-793"/>
<text text-anchor="start" x="467" y="-781" font-family="Helvetica,sans-Serif" font-size="10.00">SCR_AIGetPerformActionActivity</text>
<text text-anchor="middle" x="539" y="-770" font-family="Helvetica,sans-Serif" font-size="10.00">Parameters</text>
</a>
</g>
</g>
<!-- Node6&#45;&gt;Node25 -->
<g id="edge24" class="edge">
<title>Node6&#45;&gt;Node25</title>
<path fill="none" stroke="#63b8ff" d="M405.73,-882.84C407.56,-881.66 409.32,-880.38 411,-879 440.19,-855.02 418,-826.21 447,-802 451.01,-798.65 455.45,-795.76 460.13,-793.27"/>
<polygon fill="#63b8ff" stroke="#63b8ff" points="404.22,-880.22 397.09,-888.06 407.55,-886.38 404.22,-880.22"/>
</g>
<!-- Node26 -->
<g id="node26" class="node">
<title>Node26</title>
<g id="a_node26"><a xlink:href="interfaceSCR__AIGetPerformActionBehaviorParameters.html" target="_top" xlink:title=" ">
<polygon fill="white" stroke="#666666" points="621.5,-745 456.5,-745 456.5,-715 621.5,-715 621.5,-745"/>
<text text-anchor="start" x="464.5" y="-733" font-family="Helvetica,sans-Serif" font-size="10.00">SCR_AIGetPerformActionBehavior</text>
<text text-anchor="middle" x="539" y="-722" font-family="Helvetica,sans-Serif" font-size="10.00">Parameters</text>
</a>
</g>
</g>
<!-- Node6&#45;&gt;Node26 -->
<g id="edge25" class="edge">
<title>Node6&#45;&gt;Node26</title>
<path fill="none" stroke="#63b8ff" d="M407.3,-882.21C408.59,-881.2 409.82,-880.13 411,-879 452.66,-838.91 405.66,-794.42 447,-754 450.39,-750.69 454.18,-747.82 458.23,-745.33"/>
<polygon fill="#63b8ff" stroke="#63b8ff" points="405.75,-879.69 399.21,-888.02 409.52,-885.59 405.75,-879.69"/>
</g>
<!-- Node27 -->
<g id="node27" class="node">
<title>Node27</title>
<g id="a_node27"><a xlink:href="interfaceSCR__AIGetPickupInventoryItemsParameters.html" target="_top" xlink:title=" ">
<polygon fill="white" stroke="#666666" points="606.5,-697 471.5,-697 471.5,-667 606.5,-667 606.5,-697"/>
<text text-anchor="start" x="479.5" y="-685" font-family="Helvetica,sans-Serif" font-size="10.00">SCR_AIGetPickupInventory</text>
<text text-anchor="middle" x="539" y="-674" font-family="Helvetica,sans-Serif" font-size="10.00">ItemsParameters</text>
</a>
</g>
</g>
<!-- Node6&#45;&gt;Node27 -->
<g id="edge26" class="edge">
<title>Node6&#45;&gt;Node27</title>
<path fill="none" stroke="#63b8ff" d="M407.88,-881.94C408.96,-881.01 410.01,-880.03 411,-879 465.5,-822.46 392.95,-762.98 447,-706 453.63,-699.01 462.04,-693.96 471.06,-690.34"/>
<polygon fill="#63b8ff" stroke="#63b8ff" points="406.14,-879.58 399.88,-888.13 410.1,-885.35 406.14,-879.58"/>
</g>
<!-- Node28 -->
<g id="node28" class="node">
<title>Node28</title>
<g id="a_node28"><a xlink:href="interfaceSCR__AIGetPilotMoveFromIncomingVehicleBehaviorParameters.html" target="_top" xlink:title=" ">
<polygon fill="white" stroke="#666666" points="624,-649 454,-649 454,-619 624,-619 624,-649"/>
<text text-anchor="start" x="462" y="-637" font-family="Helvetica,sans-Serif" font-size="10.00">SCR_AIGetPilotMoveFromIncoming</text>
<text text-anchor="middle" x="539" y="-626" font-family="Helvetica,sans-Serif" font-size="10.00">VehicleBehaviorParameters</text>
</a>
</g>
</g>
<!-- Node6&#45;&gt;Node28 -->
<g id="edge27" class="edge">
<title>Node6&#45;&gt;Node28</title>
<path fill="none" stroke="#63b8ff" d="M408.03,-881.92C409.06,-881 410.05,-880.02 411,-879 478.48,-805.86 380.1,-731.68 447,-658 449.97,-654.73 453.32,-651.89 456.94,-649.42"/>
<polygon fill="#63b8ff" stroke="#63b8ff" points="406.51,-879.43 400.41,-888.09 410.58,-885.12 406.51,-879.43"/>
</g>
<!-- Node29 -->
<g id="node29" class="node">
<title>Node29</title>
<g id="a_node29"><a xlink:href="interfaceSCR__AIGetProvideAmmoBehaviorParameters.html" target="_top" xlink:title=" ">
<polygon fill="white" stroke="#666666" points="621,-601 457,-601 457,-571 621,-571 621,-601"/>
<text text-anchor="start" x="465" y="-589" font-family="Helvetica,sans-Serif" font-size="10.00">SCR_AIGetProvideAmmoBehavior</text>
<text text-anchor="middle" x="539" y="-578" font-family="Helvetica,sans-Serif" font-size="10.00">Parameters</text>
</a>
</g>
</g>
<!-- Node6&#45;&gt;Node29 -->
<g id="edge28" class="edge">
<title>Node6&#45;&gt;Node29</title>
<path fill="none" stroke="#63b8ff" d="M408.07,-881.96C409.09,-881.02 410.07,-880.04 411,-879 491.52,-789.19 367.19,-700.45 447,-610 449.92,-606.69 453.23,-603.82 456.83,-601.31"/>
<polygon fill="#63b8ff" stroke="#63b8ff" points="406.54,-879.47 400.53,-888.2 410.67,-885.13 406.54,-879.47"/>
</g>
<!-- Node30 -->
<g id="node30" class="node">
<title>Node30</title>
<g id="a_node30"><a xlink:href="interfaceSCR__AIGetResupplyActivityParameters.html" target="_top" xlink:title=" ">
<polygon fill="white" stroke="#666666" points="608.5,-553 469.5,-553 469.5,-523 608.5,-523 608.5,-553"/>
<text text-anchor="start" x="477.5" y="-541" font-family="Helvetica,sans-Serif" font-size="10.00">SCR_AIGetResupplyActivity</text>
<text text-anchor="middle" x="539" y="-530" font-family="Helvetica,sans-Serif" font-size="10.00">Parameters</text>
</a>
</g>
</g>
<!-- Node6&#45;&gt;Node30 -->
<g id="edge29" class="edge">
<title>Node6&#45;&gt;Node30</title>
<path fill="none" stroke="#63b8ff" d="M408.51,-881.6C409.37,-880.77 410.2,-879.9 411,-879 504.6,-772.49 354.25,-669.25 447,-562 452.98,-555.08 460.71,-550.04 469.12,-546.38"/>
<polygon fill="#63b8ff" stroke="#63b8ff" points="406.83,-879.24 400.96,-888.06 411.05,-884.82 406.83,-879.24"/>
</g>
<!-- Node31 -->
<g id="node31" class="node">
<title>Node31</title>
<g id="a_node31"><a xlink:href="interfaceSCR__AIGetRetreatFromTargetBehaviorParameters.html" target="_top" xlink:title=" ">
<polygon fill="white" stroke="#666666" points="613,-505 465,-505 465,-475 613,-475 613,-505"/>
<text text-anchor="start" x="473" y="-493" font-family="Helvetica,sans-Serif" font-size="10.00">SCR_AIGetRetreatFromTarget</text>
<text text-anchor="middle" x="539" y="-482" font-family="Helvetica,sans-Serif" font-size="10.00">BehaviorParameters</text>
</a>
</g>
</g>
<!-- Node6&#45;&gt;Node31 -->
<g id="edge30" class="edge">
<title>Node6&#45;&gt;Node31</title>
<path fill="none" stroke="#63b8ff" d="M408.53,-881.61C409.39,-880.78 410.21,-879.91 411,-879 517.7,-755.76 341.29,-638.08 447,-514 451.87,-508.28 457.93,-503.84 464.6,-500.4"/>
<polygon fill="#63b8ff" stroke="#63b8ff" points="406.84,-879.26 401.02,-888.11 411.09,-884.82 406.84,-879.26"/>
</g>
<!-- Node32 -->
<g id="node32" class="node">
<title>Node32</title>
<g id="a_node32"><a xlink:href="interfaceSCR__AIGetRetreatWhileLookAtBehaviorParameters.html" target="_top" xlink:title=" ">
<polygon fill="white" stroke="#666666" points="611,-457 467,-457 467,-427 611,-427 611,-457"/>
<text text-anchor="start" x="475" y="-445" font-family="Helvetica,sans-Serif" font-size="10.00">SCR_AIGetRetreatWhileLook</text>
<text text-anchor="middle" x="539" y="-434" font-family="Helvetica,sans-Serif" font-size="10.00">AtBehaviorParameters</text>
</a>
</g>
</g>
<!-- Node6&#45;&gt;Node32 -->
<g id="edge31" class="edge">
<title>Node6&#45;&gt;Node32</title>
<path fill="none" stroke="#63b8ff" d="M408.54,-881.63C409.4,-880.79 410.22,-879.92 411,-879 470.9,-809.01 387.66,-536.47 447,-466 452.37,-459.63 459.21,-454.84 466.72,-451.26"/>
<polygon fill="#63b8ff" stroke="#63b8ff" points="406.86,-879.28 401.07,-888.15 411.13,-884.82 406.86,-879.28"/>
</g>
<!-- Node33 -->
<g id="node33" class="node">
<title>Node33</title>
<g id="a_node33"><a xlink:href="interfaceSCR__AIGetSuppressActivityParameters.html" target="_top" xlink:title=" ">
<polygon fill="white" stroke="#666666" points="609,-409 469,-409 469,-379 609,-379 609,-409"/>
<text text-anchor="start" x="477" y="-397" font-family="Helvetica,sans-Serif" font-size="10.00">SCR_AIGetSuppressActivity</text>
<text text-anchor="middle" x="539" y="-386" font-family="Helvetica,sans-Serif" font-size="10.00">Parameters</text>
</a>
</g>
</g>
<!-- Node6&#45;&gt;Node33 -->
<g id="edge32" class="edge">
<title>Node6&#45;&gt;Node33</title>
<path fill="none" stroke="#63b8ff" d="M408.56,-881.64C409.4,-880.8 410.22,-879.92 411,-879 477.46,-800.63 381.16,-496.89 447,-418 452.86,-410.98 460.51,-405.88 468.89,-402.19"/>
<polygon fill="#63b8ff" stroke="#63b8ff" points="406.87,-879.29 401.11,-888.19 411.15,-884.83 406.87,-879.29"/>
</g>
<!-- Node34 -->
<g id="node34" class="node">
<title>Node34</title>
<g id="a_node34"><a xlink:href="interfaceSCR__AIGetSuppressBehaviorParameters.html" target="_top" xlink:title=" ">
<polygon fill="white" stroke="#666666" points="611.5,-361 466.5,-361 466.5,-331 611.5,-331 611.5,-361"/>
<text text-anchor="start" x="474.5" y="-349" font-family="Helvetica,sans-Serif" font-size="10.00">SCR_AIGetSuppressBehavior</text>
<text text-anchor="middle" x="539" y="-338" font-family="Helvetica,sans-Serif" font-size="10.00">Parameters</text>
</a>
</g>
</g>
<!-- Node6&#45;&gt;Node34 -->
<g id="edge33" class="edge">
<title>Node6&#45;&gt;Node34</title>
<path fill="none" stroke="#63b8ff" d="M408.56,-881.64C409.41,-880.8 410.22,-879.92 411,-879 484.03,-792.25 374.67,-457.33 447,-370 452.21,-363.71 458.86,-358.96 466.18,-355.39"/>
<polygon fill="#63b8ff" stroke="#63b8ff" points="406.87,-879.3 401.14,-888.21 411.18,-884.83 406.87,-879.3"/>
</g>
<!-- Node35 -->
<g id="node35" class="node">
<title>Node35</title>
<g id="a_node35"><a xlink:href="interfaceSCR__AIGetThrowGrenadeToBehaviorParameters.html" target="_top" xlink:title=" ">
<polygon fill="white" stroke="#666666" points="627,-313 451,-313 451,-283 627,-283 627,-313"/>
<text text-anchor="start" x="459" y="-301" font-family="Helvetica,sans-Serif" font-size="10.00">SCR_AIGetThrowGrenadeToBehavior</text>
<text text-anchor="middle" x="539" y="-290" font-family="Helvetica,sans-Serif" font-size="10.00">Parameters</text>
</a>
</g>
</g>
<!-- Node6&#45;&gt;Node35 -->
<g id="edge34" class="edge">
<title>Node6&#45;&gt;Node35</title>
<path fill="none" stroke="#63b8ff" d="M408.95,-881.27C409.66,-880.54 410.34,-879.79 411,-879 490.59,-783.87 368.17,-417.76 447,-322 449.7,-318.72 452.79,-315.86 456.16,-313.37"/>
<polygon fill="#63b8ff" stroke="#63b8ff" points="407.13,-879.04 401.51,-888.02 411.51,-884.51 407.13,-879.04"/>
</g>
<!-- Node38 -->
<g id="node38" class="node">
<title>Node38</title>
<g id="a_node38"><a xlink:href="interfaceSCR__AISetAttackBehaviorParameters.html" target="_top" xlink:title=" ">
<polygon fill="white" stroke="#666666" points="630,-264.5 448,-264.5 448,-245.5 630,-245.5 630,-264.5"/>
<text text-anchor="middle" x="539" y="-252.5" font-family="Helvetica,sans-Serif" font-size="10.00">SCR_AISetAttackBehaviorParameters</text>
</a>
</g>
</g>
<!-- Node37&#45;&gt;Node38 -->
<g id="edge37" class="edge">
<title>Node37&#45;&gt;Node38</title>
<path fill="none" stroke="#63b8ff" d="M372.69,-213.41C394.38,-220.65 422.02,-229.43 447,-236 459.49,-239.28 473.06,-242.37 485.81,-245.06"/>
<polygon fill="#63b8ff" stroke="#63b8ff" points="374.15,-209.87 363.56,-209.99 371.92,-216.51 374.15,-209.87"/>
</g>
<!-- Node39 -->
<g id="node39" class="node">
<title>Node39</title>
<g id="a_node39"><a xlink:href="interfaceSCR__AISetDefendActivityParameters.html" target="_top" xlink:title=" ">
<polygon fill="white" stroke="#666666" points="628,-227.5 450,-227.5 450,-208.5 628,-208.5 628,-227.5"/>
<text text-anchor="middle" x="539" y="-215.5" font-family="Helvetica,sans-Serif" font-size="10.00">SCR_AISetDefendActivityParameters</text>
</a>
</g>
</g>
<!-- Node37&#45;&gt;Node39 -->
<g id="edge38" class="edge">
<title>Node37&#45;&gt;Node39</title>
<path fill="none" stroke="#63b8ff" d="M416.27,-207.26C427.31,-208.23 438.68,-209.24 449.82,-210.22"/>
<polygon fill="#63b8ff" stroke="#63b8ff" points="416.62,-203.69 406.35,-206.3 416,-210.66 416.62,-203.69"/>
</g>
<!-- Node40 -->
<g id="node40" class="node">
<title>Node40</title>
<g id="a_node40"><a xlink:href="interfaceSCR__AISetGetInActivityParameters.html" target="_top" xlink:title=" ">
<polygon fill="white" stroke="#666666" points="624.5,-190.5 453.5,-190.5 453.5,-171.5 624.5,-171.5 624.5,-190.5"/>
<text text-anchor="middle" x="539" y="-178.5" font-family="Helvetica,sans-Serif" font-size="10.00">SCR_AISetGetInActivityParameters</text>
</a>
</g>
</g>
<!-- Node37&#45;&gt;Node40 -->
<g id="edge39" class="edge">
<title>Node37&#45;&gt;Node40</title>
<path fill="none" stroke="#63b8ff" d="M415.95,-192.37C428.16,-191.23 440.76,-190.06 453.03,-188.91"/>
<polygon fill="#63b8ff" stroke="#63b8ff" points="415.98,-188.94 406.35,-193.35 416.63,-195.91 415.98,-188.94"/>
</g>
<!-- Node41 -->
<g id="node41" class="node">
<title>Node41</title>
<g id="a_node41"><a xlink:href="interfaceSCR__AISetHealActivityParameters.html" target="_top" xlink:title=" ">
<polygon fill="white" stroke="#666666" points="622.5,-153.5 455.5,-153.5 455.5,-134.5 622.5,-134.5 622.5,-153.5"/>
<text text-anchor="middle" x="539" y="-141.5" font-family="Helvetica,sans-Serif" font-size="10.00">SCR_AISetHealActivityParameters</text>
</a>
</g>
</g>
<!-- Node37&#45;&gt;Node41 -->
<g id="edge40" class="edge">
<title>Node37&#45;&gt;Node41</title>
<path fill="none" stroke="#63b8ff" d="M392.7,-187.11C398.94,-185.26 405.15,-183.23 411,-181 427.91,-174.56 429.95,-168.04 447,-162 455.96,-158.83 465.62,-156.16 475.18,-153.94"/>
<polygon fill="#63b8ff" stroke="#63b8ff" points="391.9,-183.97 383.2,-190.02 393.78,-190.72 391.9,-183.97"/>
</g>
<!-- Node42 -->
<g id="node42" class="node">
<title>Node42</title>
<g id="a_node42"><a xlink:href="interfaceSCR__AISetInvestigateBehaviorParameters.html" target="_top" xlink:title=" ">
<polygon fill="white" stroke="#666666" points="613.5,-116 464.5,-116 464.5,-86 613.5,-86 613.5,-116"/>
<text text-anchor="start" x="472.5" y="-104" font-family="Helvetica,sans-Serif" font-size="10.00">SCR_AISetInvestigateBehavior</text>
<text text-anchor="middle" x="539" y="-93" font-family="Helvetica,sans-Serif" font-size="10.00">Parameters</text>
</a>
</g>
</g>
<!-- Node37&#45;&gt;Node42 -->
<g id="edge41" class="edge">
<title>Node37&#45;&gt;Node42</title>
<path fill="none" stroke="#63b8ff" d="M403.91,-185.44C406.37,-184.09 408.75,-182.61 411,-181 435.07,-163.79 423.07,-142.4 447,-125 452.29,-121.16 458.14,-117.93 464.26,-115.22"/>
<polygon fill="#63b8ff" stroke="#63b8ff" points="402.61,-182.65 395.03,-190.06 405.57,-188.99 402.61,-182.65"/>
</g>
<!-- Node43 -->
<g id="node43" class="node">
<title>Node43</title>
<g id="a_node43"><a xlink:href="interfaceSCR__AISetMoveActivityParameters.html" target="_top" xlink:title=" ">
<polygon fill="white" stroke="#666666" points="624,-67.5 454,-67.5 454,-48.5 624,-48.5 624,-67.5"/>
<text text-anchor="middle" x="539" y="-55.5" font-family="Helvetica,sans-Serif" font-size="10.00">SCR_AISetMoveActivityParameters</text>
</a>
</g>
</g>
<!-- Node37&#45;&gt;Node43 -->
<g id="edge42" class="edge">
<title>Node37&#45;&gt;Node43</title>
<path fill="none" stroke="#63b8ff" d="M406.6,-184.59C408.13,-183.47 409.6,-182.28 411,-181 447.13,-148.03 410.28,-109.31 447,-77 451.12,-73.37 455.75,-70.38 460.68,-67.9"/>
<polygon fill="#63b8ff" stroke="#63b8ff" points="405.04,-182.04 398.26,-190.18 408.64,-188.05 405.04,-182.04"/>
</g>
<!-- Node44 -->
<g id="node44" class="node">
<title>Node44</title>
<g id="a_node44"><a xlink:href="interfaceSCR__AISetObserveUnknownFireBehaviorParameters.html" target="_top" xlink:title=" ">
<polygon fill="white" stroke="#666666" points="618,-30 460,-30 460,0 618,0 618,-30"/>
<text text-anchor="start" x="468" y="-18" font-family="Helvetica,sans-Serif" font-size="10.00">SCR_AISetObserveUnknownFire</text>
<text text-anchor="middle" x="539" y="-7" font-family="Helvetica,sans-Serif" font-size="10.00">BehaviorParameters</text>
</a>
</g>
</g>
<!-- Node37&#45;&gt;Node44 -->
<g id="edge43" class="edge">
<title>Node37&#45;&gt;Node44</title>
<path fill="none" stroke="#63b8ff" d="M407.35,-184.26C408.62,-183.24 409.84,-182.15 411,-181 457.18,-135.11 401.18,-85.26 447,-39 450.79,-35.17 455.12,-31.93 459.78,-29.19"/>
<polygon fill="#63b8ff" stroke="#63b8ff" points="405.8,-181.75 399.34,-190.15 409.63,-187.61 405.8,-181.75"/>
</g>
</g>
</svg>
