<?xml version="1.0" encoding="UTF-8" standalone="no"?>
<!DOCTYPE svg PUBLIC "-//W3C//DTD SVG 1.1//EN"
 "http://www.w3.org/Graphics/SVG/1.1/DTD/svg11.dtd">
<!-- Generated by graphviz version 8.0.2 (20230410.1723)
 -->
<!-- Title: SCR_EntitiesToolbarEditorUIComponent Pages: 1 -->
<svg width="342pt" height="379pt"
 viewBox="0.00 0.00 342.00 379.00" xmlns="http://www.w3.org/2000/svg" xmlns:xlink="http://www.w3.org/1999/xlink">
<g id="graph0" class="graph" transform="scale(1 1) rotate(0) translate(4 375)">
<title>SCR_EntitiesToolbarEditorUIComponent</title>
<!-- Node1 -->
<g id="node1" class="node">
<title>Node1</title>
<g id="a_node1"><a xlink:title=" ">
<polygon fill="#999999" stroke="#666666" points="222.5,-96 90.5,-96 90.5,-66 222.5,-66 222.5,-96"/>
<text text-anchor="start" x="98.5" y="-84" font-family="Helvetica,sans-Serif" font-size="10.00">SCR_EntitiesToolbarEditor</text>
<text text-anchor="middle" x="156.5" y="-73" font-family="Helvetica,sans-Serif" font-size="10.00">UIComponent</text>
</a>
</g>
</g>
<!-- Node7 -->
<g id="node7" class="node">
<title>Node7</title>
<g id="a_node7"><a xlink:href="interfaceSCR__FactionsToolbarEditorUIComponent.html" target="_top" xlink:title=" ">
<polygon fill="white" stroke="#666666" points="137,-30 0,-30 0,0 137,0 137,-30"/>
<text text-anchor="start" x="8" y="-18" font-family="Helvetica,sans-Serif" font-size="10.00">SCR_FactionsToolbarEditor</text>
<text text-anchor="middle" x="68.5" y="-7" font-family="Helvetica,sans-Serif" font-size="10.00">UIComponent</text>
</a>
</g>
</g>
<!-- Node1&#45;&gt;Node7 -->
<g id="edge6" class="edge">
<title>Node1&#45;&gt;Node7</title>
<path fill="none" stroke="#63b8ff" d="M128.34,-59.52C115.29,-50.03 100.09,-38.98 88.28,-30.39"/>
<polygon fill="#63b8ff" stroke="#63b8ff" points="125.82,-62.75 135.97,-65.8 129.94,-57.08 125.82,-62.75"/>
</g>
<!-- Node8 -->
<g id="node8" class="node">
<title>Node8</title>
<g id="a_node8"><a xlink:href="interfaceSCR__TaskToolbarEditorUIComponent.html" target="_top" xlink:title=" ">
<polygon fill="white" stroke="#666666" points="334,-24.5 155,-24.5 155,-5.5 334,-5.5 334,-24.5"/>
<text text-anchor="middle" x="244.5" y="-12.5" font-family="Helvetica,sans-Serif" font-size="10.00">SCR_TaskToolbarEditorUIComponent</text>
</a>
</g>
</g>
<!-- Node1&#45;&gt;Node8 -->
<g id="edge7" class="edge">
<title>Node1&#45;&gt;Node8</title>
<path fill="none" stroke="#63b8ff" d="M184.57,-59.58C200.67,-47.87 220.06,-33.77 232.34,-24.84"/>
<polygon fill="#63b8ff" stroke="#63b8ff" points="183.06,-57.08 177.03,-65.8 187.18,-62.75 183.06,-57.08"/>
</g>
<!-- Node2 -->
<g id="node2" class="node">
<title>Node2</title>
<g id="a_node2"><a xlink:href="interfaceSCR__BaseToolbarEditorUIComponent.html" target="_top" xlink:title=" ">
<polygon fill="white" stroke="#666666" points="246.5,-151 66.5,-151 66.5,-132 246.5,-132 246.5,-151"/>
<text text-anchor="middle" x="156.5" y="-139" font-family="Helvetica,sans-Serif" font-size="10.00">SCR_BaseToolbarEditorUIComponent</text>
</a>
</g>
</g>
<!-- Node2&#45;&gt;Node1 -->
<g id="edge1" class="edge">
<title>Node2&#45;&gt;Node1</title>
<path fill="none" stroke="#63b8ff" d="M156.5,-121.08C156.5,-112.92 156.5,-103.6 156.5,-96.11"/>
<polygon fill="#63b8ff" stroke="#63b8ff" points="153,-120.87 156.5,-130.87 160,-120.87 153,-120.87"/>
</g>
<!-- Node3 -->
<g id="node3" class="node">
<title>Node3</title>
<g id="a_node3"><a xlink:href="interfaceSCR__DialogEditorUIComponent.html" target="_top" xlink:title=" ">
<polygon fill="white" stroke="#666666" points="233,-206 80,-206 80,-187 233,-187 233,-206"/>
<text text-anchor="middle" x="156.5" y="-194" font-family="Helvetica,sans-Serif" font-size="10.00">SCR_DialogEditorUIComponent</text>
</a>
</g>
</g>
<!-- Node3&#45;&gt;Node2 -->
<g id="edge2" class="edge">
<title>Node3&#45;&gt;Node2</title>
<path fill="none" stroke="#63b8ff" d="M156.5,-175.93C156.5,-167.53 156.5,-158.13 156.5,-151.44"/>
<polygon fill="#63b8ff" stroke="#63b8ff" points="153,-175.75 156.5,-185.75 160,-175.75 153,-175.75"/>
</g>
<!-- Node4 -->
<g id="node4" class="node">
<title>Node4</title>
<g id="a_node4"><a xlink:href="interfaceSCR__BaseEditorUIComponent.html" target="_top" xlink:title=" ">
<polygon fill="white" stroke="#666666" points="231,-261 82,-261 82,-242 231,-242 231,-261"/>
<text text-anchor="middle" x="156.5" y="-249" font-family="Helvetica,sans-Serif" font-size="10.00">SCR_BaseEditorUIComponent</text>
</a>
</g>
</g>
<!-- Node4&#45;&gt;Node3 -->
<g id="edge3" class="edge">
<title>Node4&#45;&gt;Node3</title>
<path fill="none" stroke="#63b8ff" d="M156.5,-230.93C156.5,-222.53 156.5,-213.13 156.5,-206.44"/>
<polygon fill="#63b8ff" stroke="#63b8ff" points="153,-230.75 156.5,-240.75 160,-230.75 153,-230.75"/>
</g>
<!-- Node5 -->
<g id="node5" class="node">
<title>Node5</title>
<g id="a_node5"><a xlink:href="interfaceMenuRootSubComponent.html" target="_top" xlink:title="Widget component which is linked to menu it&#39;s part of.">
<polygon fill="white" stroke="#666666" points="220.5,-316 92.5,-316 92.5,-297 220.5,-297 220.5,-316"/>
<text text-anchor="middle" x="156.5" y="-304" font-family="Helvetica,sans-Serif" font-size="10.00">MenuRootSubComponent</text>
</a>
</g>
</g>
<!-- Node5&#45;&gt;Node4 -->
<g id="edge4" class="edge">
<title>Node5&#45;&gt;Node4</title>
<path fill="none" stroke="#63b8ff" d="M156.5,-285.93C156.5,-277.53 156.5,-268.13 156.5,-261.44"/>
<polygon fill="#63b8ff" stroke="#63b8ff" points="153,-285.75 156.5,-295.75 160,-285.75 153,-285.75"/>
</g>
<!-- Node6 -->
<g id="node6" class="node">
<title>Node6</title>
<g id="a_node6"><a xlink:title=" ">
<polygon fill="white" stroke="#666666" points="223,-371 90,-371 90,-352 223,-352 223,-371"/>
<text text-anchor="middle" x="156.5" y="-359" font-family="Helvetica,sans-Serif" font-size="10.00">ScriptedWidgetComponent</text>
</a>
</g>
</g>
<!-- Node6&#45;&gt;Node5 -->
<g id="edge5" class="edge">
<title>Node6&#45;&gt;Node5</title>
<path fill="none" stroke="#63b8ff" d="M156.5,-340.93C156.5,-332.53 156.5,-323.13 156.5,-316.44"/>
<polygon fill="#63b8ff" stroke="#63b8ff" points="153,-340.75 156.5,-350.75 160,-340.75 153,-340.75"/>
</g>
</g>
</svg>
