<?xml version="1.0" encoding="UTF-8" standalone="no"?>
<!DOCTYPE svg PUBLIC "-//W3C//DTD SVG 1.1//EN"
 "http://www.w3.org/Graphics/SVG/1.1/DTD/svg11.dtd">
<!-- Generated by graphviz version 8.0.2 (20230410.1723)
 -->
<!-- Title: SCR_CampaignMapUIElement Pages: 1 -->
<svg width="308pt" height="247pt"
 viewBox="0.00 0.00 307.50 247.00" xmlns="http://www.w3.org/2000/svg" xmlns:xlink="http://www.w3.org/1999/xlink">
<g id="graph0" class="graph" transform="scale(1 1) rotate(0) translate(4 243)">
<title>SCR_CampaignMapUIElement</title>
<!-- Node1 -->
<g id="node1" class="node">
<title>Node1</title>
<g id="a_node1"><a xlink:title=" ">
<polygon fill="#999999" stroke="#666666" points="221.5,-74 72.5,-74 72.5,-55 221.5,-55 221.5,-74"/>
<text text-anchor="middle" x="147" y="-62" font-family="Helvetica,sans-Serif" font-size="10.00">SCR_CampaignMapUIElement</text>
</a>
</g>
</g>
<!-- Node5 -->
<g id="node5" class="node">
<title>Node5</title>
<g id="a_node5"><a xlink:href="interfaceSCR__CampaignMapUIBase.html" target="_top" xlink:title=" ">
<polygon fill="white" stroke="#666666" points="136,-19 0,-19 0,0 136,0 136,-19"/>
<text text-anchor="middle" x="68" y="-7" font-family="Helvetica,sans-Serif" font-size="10.00">SCR_CampaignMapUIBase</text>
</a>
</g>
</g>
<!-- Node1&#45;&gt;Node5 -->
<g id="edge4" class="edge">
<title>Node1&#45;&gt;Node5</title>
<path fill="none" stroke="#63b8ff" d="M124.58,-48.46C110.57,-39.06 93.01,-27.28 81.2,-19.36"/>
<polygon fill="#63b8ff" stroke="#63b8ff" points="122.34,-51.84 132.6,-54.51 126.24,-46.03 122.34,-51.84"/>
</g>
<!-- Node6 -->
<g id="node6" class="node">
<title>Node6</title>
<g id="a_node6"><a xlink:href="interfaceSCR__CampaignMapUIService.html" target="_top" xlink:title=" ">
<polygon fill="white" stroke="#666666" points="299.5,-19 154.5,-19 154.5,0 299.5,0 299.5,-19"/>
<text text-anchor="middle" x="227" y="-7" font-family="Helvetica,sans-Serif" font-size="10.00">SCR_CampaignMapUIService</text>
</a>
</g>
</g>
<!-- Node1&#45;&gt;Node6 -->
<g id="edge5" class="edge">
<title>Node1&#45;&gt;Node6</title>
<path fill="none" stroke="#63b8ff" d="M169.7,-48.46C183.89,-39.06 201.67,-27.28 213.63,-19.36"/>
<polygon fill="#63b8ff" stroke="#63b8ff" points="167.97,-46.07 161.57,-54.51 171.84,-51.9 167.97,-46.07"/>
</g>
<!-- Node2 -->
<g id="node2" class="node">
<title>Node2</title>
<g id="a_node2"><a xlink:href="interfaceSCR__MapUIElement.html" target="_top" xlink:title=" ">
<polygon fill="white" stroke="#666666" points="200,-129 94,-129 94,-110 200,-110 200,-129"/>
<text text-anchor="middle" x="147" y="-117" font-family="Helvetica,sans-Serif" font-size="10.00">SCR_MapUIElement</text>
</a>
</g>
</g>
<!-- Node2&#45;&gt;Node1 -->
<g id="edge1" class="edge">
<title>Node2&#45;&gt;Node1</title>
<path fill="none" stroke="#63b8ff" d="M147,-98.93C147,-90.53 147,-81.13 147,-74.44"/>
<polygon fill="#63b8ff" stroke="#63b8ff" points="143.5,-98.75 147,-108.75 150.5,-98.75 143.5,-98.75"/>
</g>
<!-- Node3 -->
<g id="node3" class="node">
<title>Node3</title>
<g id="a_node3"><a xlink:href="interfaceSCR__ScriptedWidgetComponent.html" target="_top" xlink:title=" ">
<polygon fill="white" stroke="#666666" points="226,-184 68,-184 68,-165 226,-165 226,-184"/>
<text text-anchor="middle" x="147" y="-172" font-family="Helvetica,sans-Serif" font-size="10.00">SCR_ScriptedWidgetComponent</text>
</a>
</g>
</g>
<!-- Node3&#45;&gt;Node2 -->
<g id="edge2" class="edge">
<title>Node3&#45;&gt;Node2</title>
<path fill="none" stroke="#63b8ff" d="M147,-153.93C147,-145.53 147,-136.13 147,-129.44"/>
<polygon fill="#63b8ff" stroke="#63b8ff" points="143.5,-153.75 147,-163.75 150.5,-153.75 143.5,-153.75"/>
</g>
<!-- Node4 -->
<g id="node4" class="node">
<title>Node4</title>
<g id="a_node4"><a xlink:title=" ">
<polygon fill="white" stroke="#666666" points="213.5,-239 80.5,-239 80.5,-220 213.5,-220 213.5,-239"/>
<text text-anchor="middle" x="147" y="-227" font-family="Helvetica,sans-Serif" font-size="10.00">ScriptedWidgetComponent</text>
</a>
</g>
</g>
<!-- Node4&#45;&gt;Node3 -->
<g id="edge3" class="edge">
<title>Node4&#45;&gt;Node3</title>
<path fill="none" stroke="#63b8ff" d="M147,-208.93C147,-200.53 147,-191.13 147,-184.44"/>
<polygon fill="#63b8ff" stroke="#63b8ff" points="143.5,-208.75 147,-218.75 150.5,-208.75 143.5,-208.75"/>
</g>
</g>
</svg>
