<?xml version="1.0" encoding="UTF-8" standalone="no"?>
<!DOCTYPE svg PUBLIC "-//W3C//DTD SVG 1.1//EN"
 "http://www.w3.org/Graphics/SVG/1.1/DTD/svg11.dtd">
<!-- Generated by graphviz version 8.0.2 (20230410.1723)
 -->
<!-- Title: ScriptedInventoryOperationCallback Pages: 1 -->
<svg width="794pt" height="360pt"
 viewBox="0.00 0.00 794.00 360.00" xmlns="http://www.w3.org/2000/svg" xmlns:xlink="http://www.w3.org/1999/xlink">
<g id="graph0" class="graph" transform="scale(1 1) rotate(0) translate(4 356)">
<title>ScriptedInventoryOperationCallback</title>
<!-- Node1 -->
<g id="node1" class="node">
<title>Node1</title>
<g id="a_node1"><a xlink:title=" ">
<polygon fill="#999999" stroke="#666666" points="395,-190.5 262,-190.5 262,-160.5 395,-160.5 395,-190.5"/>
<text text-anchor="start" x="270" y="-178.5" font-family="Helvetica,sans-Serif" font-size="10.00">ScriptedInventoryOperation</text>
<text text-anchor="middle" x="328.5" y="-167.5" font-family="Helvetica,sans-Serif" font-size="10.00">Callback</text>
</a>
</g>
</g>
<!-- Node4 -->
<g id="node4" class="node">
<title>Node4</title>
<g id="a_node4"><a xlink:href="interfaceDropAndMoveOperationCallback.html" target="_top" xlink:title=" ">
<polygon fill="white" stroke="#666666" points="600,-352 444,-352 444,-333 600,-333 600,-352"/>
<text text-anchor="middle" x="522" y="-340" font-family="Helvetica,sans-Serif" font-size="10.00">DropAndMoveOperationCallback</text>
</a>
</g>
</g>
<!-- Node1&#45;&gt;Node4 -->
<g id="edge3" class="edge">
<title>Node1&#45;&gt;Node4</title>
<path fill="none" stroke="#63b8ff" d="M339.37,-200.65C354.02,-234.48 384.85,-293.93 431,-324.5 435.92,-327.76 441.29,-330.45 446.89,-332.67"/>
<polygon fill="#63b8ff" stroke="#63b8ff" points="342.27,-199.51 335.19,-191.63 335.81,-202.21 342.27,-199.51"/>
</g>
<!-- Node5 -->
<g id="node5" class="node">
<title>Node5</title>
<g id="a_node5"><a xlink:href="interfaceSCR__AISwitchWeaponMovedCallback.html" target="_top" xlink:title=" ">
<polygon fill="white" stroke="#666666" points="613,-315 431,-315 431,-296 613,-296 613,-315"/>
<text text-anchor="middle" x="522" y="-303" font-family="Helvetica,sans-Serif" font-size="10.00">SCR_AISwitchWeaponMovedCallback</text>
</a>
</g>
</g>
<!-- Node1&#45;&gt;Node5 -->
<g id="edge4" class="edge">
<title>Node1&#45;&gt;Node5</title>
<path fill="none" stroke="#63b8ff" d="M344.6,-199.83C362.09,-225.82 393.35,-266.15 431,-287.5 436.68,-290.72 442.85,-293.38 449.21,-295.56"/>
<polygon fill="#63b8ff" stroke="#63b8ff" points="347,-198.09 338.59,-191.64 341.14,-201.93 347,-198.09"/>
</g>
<!-- Node6 -->
<g id="node6" class="node">
<title>Node6</title>
<g id="a_node6"><a xlink:href="interfaceSCR__EquipPickedWeapon.html" target="_top" xlink:title=" ">
<polygon fill="white" stroke="#666666" points="588.5,-278 455.5,-278 455.5,-259 588.5,-259 588.5,-278"/>
<text text-anchor="middle" x="522" y="-266" font-family="Helvetica,sans-Serif" font-size="10.00">SCR_EquipPickedWeapon</text>
</a>
</g>
</g>
<!-- Node1&#45;&gt;Node6 -->
<g id="edge5" class="edge">
<title>Node1&#45;&gt;Node6</title>
<path fill="none" stroke="#63b8ff" d="M353.98,-197.98C373.46,-214.66 402.15,-236.65 431,-249.5 439.32,-253.2 448.39,-256.2 457.47,-258.62"/>
<polygon fill="#63b8ff" stroke="#63b8ff" points="356.54,-194.69 346.71,-190.74 351.93,-199.96 356.54,-194.69"/>
</g>
<!-- Node7 -->
<g id="node7" class="node">
<title>Node7</title>
<g id="a_node7"><a xlink:href="interfaceSCR__InvCallBack.html" target="_top" xlink:title=" ">
<polygon fill="white" stroke="#666666" points="568,-241 476,-241 476,-222 568,-222 568,-241"/>
<text text-anchor="middle" x="522" y="-229" font-family="Helvetica,sans-Serif" font-size="10.00">SCR_InvCallBack</text>
</a>
</g>
</g>
<!-- Node1&#45;&gt;Node7 -->
<g id="edge6" class="edge">
<title>Node1&#45;&gt;Node7</title>
<path fill="none" stroke="#63b8ff" d="M377.72,-194.66C394.42,-200.87 413.38,-207.46 431,-212.5 445.43,-216.63 461.4,-220.29 475.83,-223.27"/>
<polygon fill="#63b8ff" stroke="#63b8ff" points="379.23,-191.11 368.64,-190.85 376.76,-197.66 379.23,-191.11"/>
</g>
<!-- Node12 -->
<g id="node12" class="node">
<title>Node12</title>
<g id="a_node12"><a xlink:href="interfaceSCR__PlacementCallback.html" target="_top" xlink:title=" ">
<polygon fill="white" stroke="#666666" points="585,-204 459,-204 459,-185 585,-185 585,-204"/>
<text text-anchor="middle" x="522" y="-192" font-family="Helvetica,sans-Serif" font-size="10.00">SCR_PlacementCallback</text>
</a>
</g>
</g>
<!-- Node1&#45;&gt;Node12 -->
<g id="edge11" class="edge">
<title>Node1&#45;&gt;Node12</title>
<path fill="none" stroke="#63b8ff" d="M406.1,-183.1C423.51,-184.83 441.79,-186.64 458.53,-188.3"/>
<polygon fill="#63b8ff" stroke="#63b8ff" points="406.7,-179.54 396.4,-182.04 406.01,-186.51 406.7,-179.54"/>
</g>
<!-- Node13 -->
<g id="node13" class="node">
<title>Node13</title>
<g id="a_node13"><a xlink:href="interfaceSCR__QuickSlotRefreshCB.html" target="_top" xlink:title=" ">
<polygon fill="white" stroke="#666666" points="587.5,-167 456.5,-167 456.5,-148 587.5,-148 587.5,-167"/>
<text text-anchor="middle" x="522" y="-155" font-family="Helvetica,sans-Serif" font-size="10.00">SCR_QuickSlotRefreshCB</text>
</a>
</g>
</g>
<!-- Node1&#45;&gt;Node13 -->
<g id="edge12" class="edge">
<title>Node1&#45;&gt;Node13</title>
<path fill="none" stroke="#63b8ff" d="M406.18,-168.29C422.78,-166.73 440.18,-165.1 456.27,-163.58"/>
<polygon fill="#63b8ff" stroke="#63b8ff" points="406.03,-164.88 396.4,-169.31 406.69,-171.85 406.03,-164.88"/>
</g>
<!-- Node14 -->
<g id="node14" class="node">
<title>Node14</title>
<g id="a_node14"><a xlink:href="interfaceSCR__RemoveEquippedWeapon.html" target="_top" xlink:title=" ">
<polygon fill="white" stroke="#666666" points="598.5,-130 445.5,-130 445.5,-111 598.5,-111 598.5,-130"/>
<text text-anchor="middle" x="522" y="-118" font-family="Helvetica,sans-Serif" font-size="10.00">SCR_RemoveEquippedWeapon</text>
</a>
</g>
</g>
<!-- Node1&#45;&gt;Node14 -->
<g id="edge13" class="edge">
<title>Node1&#45;&gt;Node14</title>
<path fill="none" stroke="#63b8ff" d="M377.69,-156.23C394.39,-150.01 413.35,-143.45 431,-138.5 441.74,-135.49 453.34,-132.78 464.52,-130.43"/>
<polygon fill="#63b8ff" stroke="#63b8ff" points="376.72,-153.23 368.61,-160.05 379.2,-159.78 376.72,-153.23"/>
</g>
<!-- Node15 -->
<g id="node15" class="node">
<title>Node15</title>
<g id="a_node15"><a xlink:href="interfaceSCR__ResupplyMagazinesCallback.html" target="_top" xlink:title=" ">
<polygon fill="white" stroke="#666666" points="605.5,-93 438.5,-93 438.5,-74 605.5,-74 605.5,-93"/>
<text text-anchor="middle" x="522" y="-81" font-family="Helvetica,sans-Serif" font-size="10.00">SCR_ResupplyMagazinesCallback</text>
</a>
</g>
</g>
<!-- Node1&#45;&gt;Node15 -->
<g id="edge14" class="edge">
<title>Node1&#45;&gt;Node15</title>
<path fill="none" stroke="#63b8ff" d="M353.94,-152.93C373.4,-136.21 402.08,-114.2 431,-101.5 438.3,-98.3 446.17,-95.66 454.13,-93.49"/>
<polygon fill="#63b8ff" stroke="#63b8ff" points="351.88,-150.96 346.68,-160.2 356.5,-156.22 351.88,-150.96"/>
</g>
<!-- Node16 -->
<g id="node16" class="node">
<title>Node16</title>
<g id="a_node16"><a xlink:href="interfaceSCR__SalineMovedCallback.html" target="_top" xlink:title=" ">
<polygon fill="white" stroke="#666666" points="589,-56 455,-56 455,-37 589,-37 589,-56"/>
<text text-anchor="middle" x="522" y="-44" font-family="Helvetica,sans-Serif" font-size="10.00">SCR_SalineMovedCallback</text>
</a>
</g>
</g>
<!-- Node1&#45;&gt;Node16 -->
<g id="edge15" class="edge">
<title>Node1&#45;&gt;Node16</title>
<path fill="none" stroke="#63b8ff" d="M344.94,-150.97C362.52,-125.2 393.69,-85.55 431,-64.5 438.36,-60.35 446.52,-57.15 454.85,-54.68"/>
<polygon fill="#63b8ff" stroke="#63b8ff" points="341.5,-148.83 338.88,-159.1 347.33,-152.7 341.5,-148.83"/>
</g>
<!-- Node17 -->
<g id="node17" class="node">
<title>Node17</title>
<g id="a_node17"><a xlink:href="interfaceSCR__TourniquetMovedCallback.html" target="_top" xlink:title=" ">
<polygon fill="white" stroke="#666666" points="598,-19 446,-19 446,0 598,0 598,-19"/>
<text text-anchor="middle" x="522" y="-7" font-family="Helvetica,sans-Serif" font-size="10.00">SCR_TourniquetMovedCallback</text>
</a>
</g>
</g>
<!-- Node1&#45;&gt;Node17 -->
<g id="edge16" class="edge">
<title>Node1&#45;&gt;Node17</title>
<path fill="none" stroke="#63b8ff" d="M339.42,-150.52C354.12,-116.91 385.02,-57.86 431,-27.5 435.92,-24.25 441.3,-21.57 446.9,-19.35"/>
<polygon fill="#63b8ff" stroke="#63b8ff" points="335.88,-148.89 335.21,-159.47 342.33,-151.62 335.88,-148.89"/>
</g>
<!-- Node2 -->
<g id="node2" class="node">
<title>Node2</title>
<g id="a_node2"><a xlink:href="interfaceInventoryOperationCallback.html" target="_top" xlink:title=" ">
<polygon fill="white" stroke="#666666" points="226,-185 92,-185 92,-166 226,-166 226,-185"/>
<text text-anchor="middle" x="159" y="-173" font-family="Helvetica,sans-Serif" font-size="10.00">InventoryOperationCallback</text>
</a>
</g>
</g>
<!-- Node2&#45;&gt;Node1 -->
<g id="edge1" class="edge">
<title>Node2&#45;&gt;Node1</title>
<path fill="none" stroke="#63b8ff" d="M237.2,-175.5C245.32,-175.5 253.53,-175.5 261.51,-175.5"/>
<polygon fill="#63b8ff" stroke="#63b8ff" points="237.2,-172 227.2,-175.5 237.2,-179 237.2,-172"/>
</g>
<!-- Node3 -->
<g id="node3" class="node">
<title>Node3</title>
<g id="a_node3"><a xlink:title=" ">
<polygon fill="white" stroke="#666666" points="56,-185 0,-185 0,-166 56,-166 56,-185"/>
<text text-anchor="middle" x="28" y="-173" font-family="Helvetica,sans-Serif" font-size="10.00">Managed</text>
</a>
</g>
</g>
<!-- Node3&#45;&gt;Node2 -->
<g id="edge2" class="edge">
<title>Node3&#45;&gt;Node2</title>
<path fill="none" stroke="#63b8ff" d="M67.19,-175.5C74.93,-175.5 83.28,-175.5 91.66,-175.5"/>
<polygon fill="#63b8ff" stroke="#63b8ff" points="67.36,-172 57.36,-175.5 67.36,-179 67.36,-172"/>
</g>
<!-- Node8 -->
<g id="node8" class="node">
<title>Node8</title>
<g id="a_node8"><a xlink:href="interfaceSCR__EquipGearCB.html" target="_top" xlink:title=" ">
<polygon fill="white" stroke="#666666" points="768,-296 667,-296 667,-277 768,-277 768,-296"/>
<text text-anchor="middle" x="717.5" y="-284" font-family="Helvetica,sans-Serif" font-size="10.00">SCR_EquipGearCB</text>
</a>
</g>
</g>
<!-- Node7&#45;&gt;Node8 -->
<g id="edge7" class="edge">
<title>Node7&#45;&gt;Node8</title>
<path fill="none" stroke="#63b8ff" d="M579.19,-240.34C590.53,-242.79 602.26,-245.82 613,-249.5 629.92,-255.31 632.32,-261.05 649,-267.5 657.74,-270.88 667.33,-273.95 676.47,-276.58"/>
<polygon fill="#63b8ff" stroke="#63b8ff" points="579.98,-236.72 569.49,-238.16 578.59,-243.58 579.98,-236.72"/>
</g>
<!-- Node9 -->
<g id="node9" class="node">
<title>Node9</title>
<g id="a_node9"><a xlink:href="interfaceSCR__EquipNextGrenadeCB.html" target="_top" xlink:title=" ">
<polygon fill="white" stroke="#666666" points="786,-259 649,-259 649,-240 786,-240 786,-259"/>
<text text-anchor="middle" x="717.5" y="-247" font-family="Helvetica,sans-Serif" font-size="10.00">SCR_EquipNextGrenadeCB</text>
</a>
</g>
</g>
<!-- Node7&#45;&gt;Node9 -->
<g id="edge8" class="edge">
<title>Node7&#45;&gt;Node9</title>
<path fill="none" stroke="#63b8ff" d="M579.07,-236.72C600.82,-238.74 625.92,-241.07 648.66,-243.19"/>
<polygon fill="#63b8ff" stroke="#63b8ff" points="579.65,-233.16 569.37,-235.72 579,-240.13 579.65,-233.16"/>
</g>
<!-- Node10 -->
<g id="node10" class="node">
<title>Node10</title>
<g id="a_node10"><a xlink:href="interfaceSCR__InvCallBackCheck.html" target="_top" xlink:title=" ">
<polygon fill="white" stroke="#666666" points="777.5,-222 657.5,-222 657.5,-203 777.5,-203 777.5,-222"/>
<text text-anchor="middle" x="717.5" y="-210" font-family="Helvetica,sans-Serif" font-size="10.00">SCR_InvCallBackCheck</text>
</a>
</g>
</g>
<!-- Node7&#45;&gt;Node10 -->
<g id="edge9" class="edge">
<title>Node7&#45;&gt;Node10</title>
<path fill="none" stroke="#63b8ff" d="M579.27,-225.97C603.7,-223.58 632.34,-220.76 657.12,-218.33"/>
<polygon fill="#63b8ff" stroke="#63b8ff" points="578.98,-222.58 569.37,-227.05 579.66,-229.55 578.98,-222.58"/>
</g>
<!-- Node11 -->
<g id="node11" class="node">
<title>Node11</title>
<g id="a_node11"><a xlink:href="interfaceSCR__InvEquipCB.html" target="_top" xlink:title=" ">
<polygon fill="white" stroke="#666666" points="763.5,-185 671.5,-185 671.5,-166 763.5,-166 763.5,-185"/>
<text text-anchor="middle" x="717.5" y="-173" font-family="Helvetica,sans-Serif" font-size="10.00">SCR_InvEquipCB</text>
</a>
</g>
</g>
<!-- Node7&#45;&gt;Node11 -->
<g id="edge10" class="edge">
<title>Node7&#45;&gt;Node11</title>
<path fill="none" stroke="#63b8ff" d="M578.54,-222.3C590.09,-219.69 602.08,-216.45 613,-212.5 630.01,-206.35 632.15,-200.09 649,-193.5 656.79,-190.45 665.29,-187.74 673.54,-185.4"/>
<polygon fill="#63b8ff" stroke="#63b8ff" points="578.14,-219.02 569.09,-224.53 579.6,-225.87 578.14,-219.02"/>
</g>
</g>
</svg>
