<?xml version="1.0" encoding="UTF-8" standalone="no"?>
<!DOCTYPE svg PUBLIC "-//W3C//DTD SVG 1.1//EN"
 "http://www.w3.org/Graphics/SVG/1.1/DTD/svg11.dtd">
<!-- Generated by graphviz version 8.0.2 (20230410.1723)
 -->
<!-- Title: SCR_AICombatMoveRequestBase Pages: 1 -->
<svg width="381pt" height="161pt"
 viewBox="0.00 0.00 381.00 160.50" xmlns="http://www.w3.org/2000/svg" xmlns:xlink="http://www.w3.org/1999/xlink">
<g id="graph0" class="graph" transform="scale(1 1) rotate(0) translate(4 156.5)">
<title>SCR_AICombatMoveRequestBase</title>
<!-- Node1 -->
<g id="node1" class="node">
<title>Node1</title>
<g id="a_node1"><a xlink:title=" ">
<polygon fill="#999999" stroke="#666666" points="166,-77 0,-77 0,-58 166,-58 166,-77"/>
<text text-anchor="middle" x="83" y="-65" font-family="Helvetica,sans-Serif" font-size="10.00">SCR_AICombatMoveRequestBase</text>
</a>
</g>
</g>
<!-- Node2 -->
<g id="node2" class="node">
<title>Node2</title>
<g id="a_node2"><a xlink:href="interfaceSCR__AICombatMoveRequest__ChangeStance.html" target="_top" xlink:title=" ">
<polygon fill="white" stroke="#666666" points="359,-152.5 216,-152.5 216,-122.5 359,-122.5 359,-152.5"/>
<text text-anchor="start" x="224" y="-140.5" font-family="Helvetica,sans-Serif" font-size="10.00">SCR_AICombatMoveRequest</text>
<text text-anchor="middle" x="287.5" y="-129.5" font-family="Helvetica,sans-Serif" font-size="10.00">_ChangeStance</text>
</a>
</g>
</g>
<!-- Node1&#45;&gt;Node2 -->
<g id="edge1" class="edge">
<title>Node1&#45;&gt;Node2</title>
<path fill="none" stroke="#63b8ff" d="M117.39,-81.49C140.85,-91.08 173.08,-103.78 202,-113.5 210.82,-116.46 220.23,-119.38 229.46,-122.1"/>
<polygon fill="#63b8ff" stroke="#63b8ff" points="118.85,-77.9 108.27,-77.33 116.18,-84.37 118.85,-77.9"/>
</g>
<!-- Node3 -->
<g id="node3" class="node">
<title>Node3</title>
<g id="a_node3"><a xlink:href="interfaceSCR__AICombatMoveRequest__ChangeStanceInCover.html" target="_top" xlink:title=" ">
<polygon fill="white" stroke="#666666" points="359,-104.5 216,-104.5 216,-74.5 359,-74.5 359,-104.5"/>
<text text-anchor="start" x="224" y="-92.5" font-family="Helvetica,sans-Serif" font-size="10.00">SCR_AICombatMoveRequest</text>
<text text-anchor="middle" x="287.5" y="-81.5" font-family="Helvetica,sans-Serif" font-size="10.00">_ChangeStanceInCover</text>
</a>
</g>
</g>
<!-- Node1&#45;&gt;Node3 -->
<g id="edge2" class="edge">
<title>Node1&#45;&gt;Node3</title>
<path fill="none" stroke="#63b8ff" d="M177.15,-77.62C190.06,-79.02 203.15,-80.44 215.57,-81.79"/>
<polygon fill="#63b8ff" stroke="#63b8ff" points="177.68,-74.05 167.36,-76.45 176.93,-81.01 177.68,-74.05"/>
</g>
<!-- Node4 -->
<g id="node4" class="node">
<title>Node4</title>
<g id="a_node4"><a xlink:href="interfaceSCR__AICombatMoveRequest__Move.html" target="_top" xlink:title=" ">
<polygon fill="white" stroke="#666666" points="373,-56 202,-56 202,-37 373,-37 373,-56"/>
<text text-anchor="middle" x="287.5" y="-44" font-family="Helvetica,sans-Serif" font-size="10.00">SCR_AICombatMoveRequest_Move</text>
</a>
</g>
</g>
<!-- Node1&#45;&gt;Node4 -->
<g id="edge3" class="edge">
<title>Node1&#45;&gt;Node4</title>
<path fill="none" stroke="#63b8ff" d="M177.05,-57.85C185.23,-57 193.47,-56.15 201.58,-55.31"/>
<polygon fill="#63b8ff" stroke="#63b8ff" points="176.95,-54.45 167.36,-58.96 177.67,-61.41 176.95,-54.45"/>
</g>
<!-- Node5 -->
<g id="node5" class="node">
<title>Node5</title>
<g id="a_node5"><a xlink:href="interfaceSCR__AICombatMoveRequest__Stop.html" target="_top" xlink:title=" ">
<polygon fill="white" stroke="#666666" points="372,-19 203,-19 203,0 372,0 372,-19"/>
<text text-anchor="middle" x="287.5" y="-7" font-family="Helvetica,sans-Serif" font-size="10.00">SCR_AICombatMoveRequest_Stop</text>
</a>
</g>
</g>
<!-- Node1&#45;&gt;Node5 -->
<g id="edge4" class="edge">
<title>Node1&#45;&gt;Node5</title>
<path fill="none" stroke="#63b8ff" d="M121.78,-53.96C144.8,-45.98 174.89,-36.01 202,-28.5 213.74,-25.25 226.51,-22.15 238.48,-19.44"/>
<polygon fill="#63b8ff" stroke="#63b8ff" points="120.71,-50.98 112.42,-57.59 123.02,-57.59 120.71,-50.98"/>
</g>
</g>
</svg>
