<?xml version="1.0" encoding="UTF-8" standalone="no"?>
<!DOCTYPE svg PUBLIC "-//W3C//DTD SVG 1.1//EN"
 "http://www.w3.org/Graphics/SVG/1.1/DTD/svg11.dtd">
<!-- Generated by graphviz version 8.0.2 (20230410.1723)
 -->
<!-- Title: SCR_KickPlayerContextAction Pages: 1 -->
<svg width="159pt" height="203pt"
 viewBox="0.00 0.00 159.00 203.00" xmlns="http://www.w3.org/2000/svg" xmlns:xlink="http://www.w3.org/1999/xlink">
<g id="graph0" class="graph" transform="scale(1 1) rotate(0) translate(4 199)">
<title>SCR_KickPlayerContextAction</title>
<!-- Node1 -->
<g id="node1" class="node">
<title>Node1</title>
<g id="a_node1"><a xlink:title=" ">
<polygon fill="#999999" stroke="#666666" points="151,-19 0,-19 0,0 151,0 151,-19"/>
<text text-anchor="middle" x="75.5" y="-7" font-family="Helvetica,sans-Serif" font-size="10.00">SCR_KickPlayerContextAction</text>
</a>
</g>
</g>
<!-- Node2 -->
<g id="node2" class="node">
<title>Node2</title>
<g id="a_node2"><a xlink:href="interfaceSCR__SelectedEntitiesContextAction.html" target="_top" xlink:title="Base container class for editor context actions which apply to selected entities.">
<polygon fill="white" stroke="#666666" points="149,-85 2,-85 2,-55 149,-55 149,-85"/>
<text text-anchor="start" x="10" y="-73" font-family="Helvetica,sans-Serif" font-size="10.00">SCR_SelectedEntitiesContext</text>
<text text-anchor="middle" x="75.5" y="-62" font-family="Helvetica,sans-Serif" font-size="10.00">Action</text>
</a>
</g>
</g>
<!-- Node2&#45;&gt;Node1 -->
<g id="edge1" class="edge">
<title>Node2&#45;&gt;Node1</title>
<path fill="none" stroke="#63b8ff" d="M75.5,-43.59C75.5,-34.85 75.5,-25.65 75.5,-19.18"/>
<polygon fill="#63b8ff" stroke="#63b8ff" points="72,-43.54 75.5,-53.54 79,-43.54 72,-43.54"/>
</g>
<!-- Node3 -->
<g id="node3" class="node">
<title>Node3</title>
<g id="a_node3"><a xlink:href="interfaceSCR__BaseContextAction.html" target="_top" xlink:title="Base container class for editor context actions.">
<polygon fill="white" stroke="#666666" points="138.5,-140 12.5,-140 12.5,-121 138.5,-121 138.5,-140"/>
<text text-anchor="middle" x="75.5" y="-128" font-family="Helvetica,sans-Serif" font-size="10.00">SCR_BaseContextAction</text>
</a>
</g>
</g>
<!-- Node3&#45;&gt;Node2 -->
<g id="edge2" class="edge">
<title>Node3&#45;&gt;Node2</title>
<path fill="none" stroke="#63b8ff" d="M75.5,-110.08C75.5,-101.92 75.5,-92.6 75.5,-85.11"/>
<polygon fill="#63b8ff" stroke="#63b8ff" points="72,-109.87 75.5,-119.87 79,-109.87 72,-109.87"/>
</g>
<!-- Node4 -->
<g id="node4" class="node">
<title>Node4</title>
<g id="a_node4"><a xlink:href="interfaceSCR__BaseEditorAction.html" target="_top" xlink:title="Base container class for all editor action types (ContextActions, WaypointActions,...">
<polygon fill="white" stroke="#666666" points="134.5,-195 16.5,-195 16.5,-176 134.5,-176 134.5,-195"/>
<text text-anchor="middle" x="75.5" y="-183" font-family="Helvetica,sans-Serif" font-size="10.00">SCR_BaseEditorAction</text>
</a>
</g>
</g>
<!-- Node4&#45;&gt;Node3 -->
<g id="edge3" class="edge">
<title>Node4&#45;&gt;Node3</title>
<path fill="none" stroke="#63b8ff" d="M75.5,-164.93C75.5,-156.53 75.5,-147.13 75.5,-140.44"/>
<polygon fill="#63b8ff" stroke="#63b8ff" points="72,-164.75 75.5,-174.75 79,-164.75 72,-164.75"/>
</g>
</g>
</svg>
