<?xml version="1.0" encoding="UTF-8" standalone="no"?>
<!DOCTYPE svg PUBLIC "-//W3C//DTD SVG 1.1//EN"
 "http://www.w3.org/Graphics/SVG/1.1/DTD/svg11.dtd">
<!-- Generated by graphviz version 8.0.2 (20230410.1723)
 -->
<!-- Title: SCR_FixedFOVInfo Pages: 1 -->
<svg width="124pt" height="192pt"
 viewBox="0.00 0.00 124.00 192.00" xmlns="http://www.w3.org/2000/svg" xmlns:xlink="http://www.w3.org/1999/xlink">
<g id="graph0" class="graph" transform="scale(1 1) rotate(0) translate(4 188)">
<title>SCR_FixedFOVInfo</title>
<!-- Node1 -->
<g id="node1" class="node">
<title>Node1</title>
<g id="a_node1"><a xlink:title=" ">
<polygon fill="#999999" stroke="#666666" points="108.5,-19 7.5,-19 7.5,0 108.5,0 108.5,-19"/>
<text text-anchor="middle" x="58" y="-7" font-family="Helvetica,sans-Serif" font-size="10.00">SCR_FixedFOVInfo</text>
</a>
</g>
</g>
<!-- Node2 -->
<g id="node2" class="node">
<title>Node2</title>
<g id="a_node2"><a xlink:href="interfaceScriptedSightsFOVInfo.html" target="_top" xlink:title=" ">
<polygon fill="white" stroke="#666666" points="116,-74 0,-74 0,-55 116,-55 116,-74"/>
<text text-anchor="middle" x="58" y="-62" font-family="Helvetica,sans-Serif" font-size="10.00">ScriptedSightsFOVInfo</text>
</a>
</g>
</g>
<!-- Node2&#45;&gt;Node1 -->
<g id="edge1" class="edge">
<title>Node2&#45;&gt;Node1</title>
<path fill="none" stroke="#63b8ff" d="M58,-43.93C58,-35.53 58,-26.13 58,-19.44"/>
<polygon fill="#63b8ff" stroke="#63b8ff" points="54.5,-43.75 58,-53.75 61.5,-43.75 54.5,-43.75"/>
</g>
<!-- Node3 -->
<g id="node3" class="node">
<title>Node3</title>
<g id="a_node3"><a xlink:href="interfaceSightsFOVInfo.html" target="_top" xlink:title="Sights FOV info is a declare object that defines individual sights magnification levels and their pro...">
<polygon fill="white" stroke="#666666" points="98,-129 18,-129 18,-110 98,-110 98,-129"/>
<text text-anchor="middle" x="58" y="-117" font-family="Helvetica,sans-Serif" font-size="10.00">SightsFOVInfo</text>
</a>
</g>
</g>
<!-- Node3&#45;&gt;Node2 -->
<g id="edge2" class="edge">
<title>Node3&#45;&gt;Node2</title>
<path fill="none" stroke="#63b8ff" d="M58,-98.93C58,-90.53 58,-81.13 58,-74.44"/>
<polygon fill="#63b8ff" stroke="#63b8ff" points="54.5,-98.75 58,-108.75 61.5,-98.75 54.5,-98.75"/>
</g>
<!-- Node4 -->
<g id="node4" class="node">
<title>Node4</title>
<g id="a_node4"><a xlink:title=" ">
<polygon fill="white" stroke="#666666" points="101,-184 15,-184 15,-165 101,-165 101,-184"/>
<text text-anchor="middle" x="58" y="-172" font-family="Helvetica,sans-Serif" font-size="10.00">ScriptAndConfig</text>
</a>
</g>
</g>
<!-- Node4&#45;&gt;Node3 -->
<g id="edge3" class="edge">
<title>Node4&#45;&gt;Node3</title>
<path fill="none" stroke="#63b8ff" d="M58,-153.93C58,-145.53 58,-136.13 58,-129.44"/>
<polygon fill="#63b8ff" stroke="#63b8ff" points="54.5,-153.75 58,-163.75 61.5,-153.75 54.5,-153.75"/>
</g>
</g>
</svg>
