<?xml version="1.0" encoding="UTF-8" standalone="no"?>
<!DOCTYPE svg PUBLIC "-//W3C//DTD SVG 1.1//EN"
 "http://www.w3.org/Graphics/SVG/1.1/DTD/svg11.dtd">
<!-- Generated by graphviz version 8.0.2 (20230410.1723)
 -->
<!-- Title: SCR_FactionControlTriggerEntityClass Pages: 1 -->
<svg width="160pt" height="401pt"
 viewBox="0.00 0.00 160.00 401.00" xmlns="http://www.w3.org/2000/svg" xmlns:xlink="http://www.w3.org/1999/xlink">
<g id="graph0" class="graph" transform="scale(1 1) rotate(0) translate(4 397)">
<title>SCR_FactionControlTriggerEntityClass</title>
<!-- Node1 -->
<g id="node1" class="node">
<title>Node1</title>
<g id="a_node1"><a xlink:title=" ">
<polygon fill="#999999" stroke="#666666" points="143,-96 9,-96 9,-66 143,-66 143,-96"/>
<text text-anchor="start" x="17" y="-84" font-family="Helvetica,sans-Serif" font-size="10.00">SCR_FactionControlTrigger</text>
<text text-anchor="middle" x="76" y="-73" font-family="Helvetica,sans-Serif" font-size="10.00">EntityClass</text>
</a>
</g>
</g>
<!-- Node7 -->
<g id="node7" class="node">
<title>Node7</title>
<g id="a_node7"><a xlink:href="interfaceSCR__FactionDominanceTriggerEntityClass.html" target="_top" xlink:title=" ">
<polygon fill="white" stroke="#666666" points="152,-30 0,-30 0,0 152,0 152,-30"/>
<text text-anchor="start" x="8" y="-18" font-family="Helvetica,sans-Serif" font-size="10.00">SCR_FactionDominanceTrigger</text>
<text text-anchor="middle" x="76" y="-7" font-family="Helvetica,sans-Serif" font-size="10.00">EntityClass</text>
</a>
</g>
</g>
<!-- Node1&#45;&gt;Node7 -->
<g id="edge6" class="edge">
<title>Node1&#45;&gt;Node7</title>
<path fill="none" stroke="#63b8ff" d="M76,-54.97C76,-46.55 76,-37.45 76,-30.16"/>
<polygon fill="#63b8ff" stroke="#63b8ff" points="72.5,-54.8 76,-64.8 79.5,-54.8 72.5,-54.8"/>
</g>
<!-- Node2 -->
<g id="node2" class="node">
<title>Node2</title>
<g id="a_node2"><a xlink:href="interfaceSCR__BaseFactionTriggerEntityClass.html" target="_top" xlink:title=" ">
<polygon fill="white" stroke="#666666" points="152,-162 0,-162 0,-132 152,-132 152,-162"/>
<text text-anchor="start" x="8" y="-150" font-family="Helvetica,sans-Serif" font-size="10.00">SCR_BaseFactionTriggerEntity</text>
<text text-anchor="middle" x="76" y="-139" font-family="Helvetica,sans-Serif" font-size="10.00">Class</text>
</a>
</g>
</g>
<!-- Node2&#45;&gt;Node1 -->
<g id="edge1" class="edge">
<title>Node2&#45;&gt;Node1</title>
<path fill="none" stroke="#63b8ff" d="M76,-120.97C76,-112.55 76,-103.45 76,-96.16"/>
<polygon fill="#63b8ff" stroke="#63b8ff" points="72.5,-120.8 76,-130.8 79.5,-120.8 72.5,-120.8"/>
</g>
<!-- Node3 -->
<g id="node3" class="node">
<title>Node3</title>
<g id="a_node3"><a xlink:href="interfaceSCR__BaseTriggerEntityClass.html" target="_top" xlink:title=" ">
<polygon fill="white" stroke="#666666" points="148,-217 4,-217 4,-198 148,-198 148,-217"/>
<text text-anchor="middle" x="76" y="-205" font-family="Helvetica,sans-Serif" font-size="10.00">SCR_BaseTriggerEntityClass</text>
</a>
</g>
</g>
<!-- Node3&#45;&gt;Node2 -->
<g id="edge2" class="edge">
<title>Node3&#45;&gt;Node2</title>
<path fill="none" stroke="#63b8ff" d="M76,-187.08C76,-178.92 76,-169.6 76,-162.11"/>
<polygon fill="#63b8ff" stroke="#63b8ff" points="72.5,-186.87 76,-196.87 79.5,-186.87 72.5,-186.87"/>
</g>
<!-- Node4 -->
<g id="node4" class="node">
<title>Node4</title>
<g id="a_node4"><a xlink:href="interfaceScriptedGameTriggerEntityClass.html" target="_top" xlink:title=" ">
<polygon fill="white" stroke="#666666" points="143,-283 9,-283 9,-253 143,-253 143,-283"/>
<text text-anchor="start" x="17" y="-271" font-family="Helvetica,sans-Serif" font-size="10.00">ScriptedGameTriggerEntity</text>
<text text-anchor="middle" x="76" y="-260" font-family="Helvetica,sans-Serif" font-size="10.00">Class</text>
</a>
</g>
</g>
<!-- Node4&#45;&gt;Node3 -->
<g id="edge3" class="edge">
<title>Node4&#45;&gt;Node3</title>
<path fill="none" stroke="#63b8ff" d="M76,-241.59C76,-232.85 76,-223.65 76,-217.18"/>
<polygon fill="#63b8ff" stroke="#63b8ff" points="72.5,-241.54 76,-251.54 79.5,-241.54 72.5,-241.54"/>
</g>
<!-- Node5 -->
<g id="node5" class="node">
<title>Node5</title>
<g id="a_node5"><a xlink:href="interfaceBaseGameTriggerEntityClass.html" target="_top" xlink:title=" ">
<polygon fill="white" stroke="#666666" points="148.5,-338 3.5,-338 3.5,-319 148.5,-319 148.5,-338"/>
<text text-anchor="middle" x="76" y="-326" font-family="Helvetica,sans-Serif" font-size="10.00">BaseGameTriggerEntityClass</text>
</a>
</g>
</g>
<!-- Node5&#45;&gt;Node4 -->
<g id="edge4" class="edge">
<title>Node5&#45;&gt;Node4</title>
<path fill="none" stroke="#63b8ff" d="M76,-308.08C76,-299.92 76,-290.6 76,-283.11"/>
<polygon fill="#63b8ff" stroke="#63b8ff" points="72.5,-307.87 76,-317.87 79.5,-307.87 72.5,-307.87"/>
</g>
<!-- Node6 -->
<g id="node6" class="node">
<title>Node6</title>
<g id="a_node6"><a xlink:title=" ">
<polygon fill="white" stroke="#666666" points="126.5,-393 25.5,-393 25.5,-374 126.5,-374 126.5,-393"/>
<text text-anchor="middle" x="76" y="-381" font-family="Helvetica,sans-Serif" font-size="10.00">GenericEntityClass</text>
</a>
</g>
</g>
<!-- Node6&#45;&gt;Node5 -->
<g id="edge5" class="edge">
<title>Node6&#45;&gt;Node5</title>
<path fill="none" stroke="#63b8ff" d="M76,-362.93C76,-354.53 76,-345.13 76,-338.44"/>
<polygon fill="#63b8ff" stroke="#63b8ff" points="72.5,-362.75 76,-372.75 79.5,-362.75 72.5,-362.75"/>
</g>
</g>
</svg>
