<?xml version="1.0" encoding="UTF-8" standalone="no"?>
<!DOCTYPE svg PUBLIC "-//W3C//DTD SVG 1.1//EN"
 "http://www.w3.org/Graphics/SVG/1.1/DTD/svg11.dtd">
<!-- Generated by graphviz version 8.0.2 (20230410.1723)
 -->
<!-- Title: ScriptedFaction Pages: 1 -->
<svg width="380pt" height="247pt"
 viewBox="0.00 0.00 379.50 247.00" xmlns="http://www.w3.org/2000/svg" xmlns:xlink="http://www.w3.org/1999/xlink">
<g id="graph0" class="graph" transform="scale(1 1) rotate(0) translate(4 243)">
<title>ScriptedFaction</title>
<!-- Node1 -->
<g id="node1" class="node">
<title>Node1</title>
<g id="a_node1"><a xlink:title=" ">
<polygon fill="#999999" stroke="#666666" points="227.5,-129 142.5,-129 142.5,-110 227.5,-110 227.5,-129"/>
<text text-anchor="middle" x="185" y="-117" font-family="Helvetica,sans-Serif" font-size="10.00">ScriptedFaction</text>
</a>
</g>
</g>
<!-- Node4 -->
<g id="node4" class="node">
<title>Node4</title>
<g id="a_node4"><a xlink:href="interfaceSCR__Faction.html" target="_top" xlink:title=" ">
<polygon fill="white" stroke="#666666" points="222,-74 148,-74 148,-55 222,-55 222,-74"/>
<text text-anchor="middle" x="185" y="-62" font-family="Helvetica,sans-Serif" font-size="10.00">SCR_Faction</text>
</a>
</g>
</g>
<!-- Node1&#45;&gt;Node4 -->
<g id="edge3" class="edge">
<title>Node1&#45;&gt;Node4</title>
<path fill="none" stroke="#63b8ff" d="M185,-98.93C185,-90.53 185,-81.13 185,-74.44"/>
<polygon fill="#63b8ff" stroke="#63b8ff" points="181.5,-98.75 185,-108.75 188.5,-98.75 181.5,-98.75"/>
</g>
<!-- Node2 -->
<g id="node2" class="node">
<title>Node2</title>
<g id="a_node2"><a xlink:href="interfaceFaction.html" target="_top" xlink:title=" ">
<polygon fill="white" stroke="#666666" points="209.5,-184 160.5,-184 160.5,-165 209.5,-165 209.5,-184"/>
<text text-anchor="middle" x="185" y="-172" font-family="Helvetica,sans-Serif" font-size="10.00">Faction</text>
</a>
</g>
</g>
<!-- Node2&#45;&gt;Node1 -->
<g id="edge1" class="edge">
<title>Node2&#45;&gt;Node1</title>
<path fill="none" stroke="#63b8ff" d="M185,-153.93C185,-145.53 185,-136.13 185,-129.44"/>
<polygon fill="#63b8ff" stroke="#63b8ff" points="181.5,-153.75 185,-163.75 188.5,-153.75 181.5,-153.75"/>
</g>
<!-- Node3 -->
<g id="node3" class="node">
<title>Node3</title>
<g id="a_node3"><a xlink:title=" ">
<polygon fill="white" stroke="#666666" points="228,-239 142,-239 142,-220 228,-220 228,-239"/>
<text text-anchor="middle" x="185" y="-227" font-family="Helvetica,sans-Serif" font-size="10.00">ScriptAndConfig</text>
</a>
</g>
</g>
<!-- Node3&#45;&gt;Node2 -->
<g id="edge2" class="edge">
<title>Node3&#45;&gt;Node2</title>
<path fill="none" stroke="#63b8ff" d="M185,-208.93C185,-200.53 185,-191.13 185,-184.44"/>
<polygon fill="#63b8ff" stroke="#63b8ff" points="181.5,-208.75 185,-218.75 188.5,-208.75 181.5,-208.75"/>
</g>
<!-- Node5 -->
<g id="node5" class="node">
<title>Node5</title>
<g id="a_node5"><a xlink:href="interfaceSCR__CampaignFaction.html" target="_top" xlink:title=" ">
<polygon fill="white" stroke="#666666" points="118,-19 0,-19 0,0 118,0 118,-19"/>
<text text-anchor="middle" x="59" y="-7" font-family="Helvetica,sans-Serif" font-size="10.00">SCR_CampaignFaction</text>
</a>
</g>
</g>
<!-- Node4&#45;&gt;Node5 -->
<g id="edge4" class="edge">
<title>Node4&#45;&gt;Node5</title>
<path fill="none" stroke="#63b8ff" d="M153.67,-50.32C130.71,-40.67 100.16,-27.82 80.06,-19.36"/>
<polygon fill="#63b8ff" stroke="#63b8ff" points="152.05,-53.86 162.63,-54.51 154.77,-47.41 152.05,-53.86"/>
</g>
<!-- Node6 -->
<g id="node6" class="node">
<title>Node6</title>
<g id="a_node6"><a xlink:href="interfaceSCR__Faction__BIKI.html" target="_top" xlink:title=" ">
<polygon fill="white" stroke="#666666" points="234,-19 136,-19 136,0 234,0 234,-19"/>
<text text-anchor="middle" x="185" y="-7" font-family="Helvetica,sans-Serif" font-size="10.00">SCR_Faction_BIKI</text>
</a>
</g>
</g>
<!-- Node4&#45;&gt;Node6 -->
<g id="edge5" class="edge">
<title>Node4&#45;&gt;Node6</title>
<path fill="none" stroke="#63b8ff" d="M185,-43.93C185,-35.53 185,-26.13 185,-19.44"/>
<polygon fill="#63b8ff" stroke="#63b8ff" points="181.5,-43.75 185,-53.75 188.5,-43.75 181.5,-43.75"/>
</g>
<!-- Node7 -->
<g id="node7" class="node">
<title>Node7</title>
<g id="a_node7"><a xlink:href="interfaceSCR__FreeForAllFaction.html" target="_top" xlink:title=" ">
<polygon fill="white" stroke="#666666" points="371.5,-19 252.5,-19 252.5,0 371.5,0 371.5,-19"/>
<text text-anchor="middle" x="312" y="-7" font-family="Helvetica,sans-Serif" font-size="10.00">SCR_FreeForAllFaction</text>
</a>
</g>
</g>
<!-- Node4&#45;&gt;Node7 -->
<g id="edge6" class="edge">
<title>Node4&#45;&gt;Node7</title>
<path fill="none" stroke="#63b8ff" d="M216.57,-50.32C239.72,-40.67 270.51,-27.82 290.77,-19.36"/>
<polygon fill="#63b8ff" stroke="#63b8ff" points="215.42,-47.43 207.54,-54.51 218.12,-53.89 215.42,-47.43"/>
</g>
</g>
</svg>
