<?xml version="1.0" encoding="UTF-8" standalone="no"?>
<!DOCTYPE svg PUBLIC "-//W3C//DTD SVG 1.1//EN"
 "http://www.w3.org/Graphics/SVG/1.1/DTD/svg11.dtd">
<!-- Generated by graphviz version 8.0.2 (20230410.1723)
 -->
<!-- Title: SCR_BaseTextureResource Pages: 1 -->
<svg width="268pt" height="82pt"
 viewBox="0.00 0.00 267.50 82.00" xmlns="http://www.w3.org/2000/svg" xmlns:xlink="http://www.w3.org/1999/xlink">
<g id="graph0" class="graph" transform="scale(1 1) rotate(0) translate(4 78)">
<title>SCR_BaseTextureResource</title>
<!-- Node1 -->
<g id="node1" class="node">
<title>Node1</title>
<g id="a_node1"><a xlink:title=" ">
<polygon fill="#999999" stroke="#666666" points="200.5,-74 62.5,-74 62.5,-55 200.5,-55 200.5,-74"/>
<text text-anchor="middle" x="131.5" y="-62" font-family="Helvetica,sans-Serif" font-size="10.00">SCR_BaseTextureResource</text>
</a>
</g>
</g>
<!-- Node2 -->
<g id="node2" class="node">
<title>Node2</title>
<g id="a_node2"><a xlink:href="interfaceSCR__ImageSetResource.html" target="_top" xlink:title=" ">
<polygon fill="white" stroke="#666666" points="125,-19 0,-19 0,0 125,0 125,-19"/>
<text text-anchor="middle" x="62.5" y="-7" font-family="Helvetica,sans-Serif" font-size="10.00">SCR_ImageSetResource</text>
</a>
</g>
</g>
<!-- Node1&#45;&gt;Node2 -->
<g id="edge1" class="edge">
<title>Node1&#45;&gt;Node2</title>
<path fill="none" stroke="#63b8ff" d="M111.21,-47.92C99.1,-38.61 84.15,-27.13 74.03,-19.36"/>
<polygon fill="#63b8ff" stroke="#63b8ff" points="108.73,-51.19 118.8,-54.51 113,-45.64 108.73,-51.19"/>
</g>
<!-- Node3 -->
<g id="node3" class="node">
<title>Node3</title>
<g id="a_node3"><a xlink:href="interfaceSCR__TextureResource.html" target="_top" xlink:title=" ">
<polygon fill="white" stroke="#666666" points="259.5,-19 143.5,-19 143.5,0 259.5,0 259.5,-19"/>
<text text-anchor="middle" x="201.5" y="-7" font-family="Helvetica,sans-Serif" font-size="10.00">SCR_TextureResource</text>
</a>
</g>
</g>
<!-- Node1&#45;&gt;Node3 -->
<g id="edge2" class="edge">
<title>Node1&#45;&gt;Node3</title>
<path fill="none" stroke="#63b8ff" d="M152.08,-47.92C164.37,-38.61 179.54,-27.13 189.8,-19.36"/>
<polygon fill="#63b8ff" stroke="#63b8ff" points="150.23,-45.68 144.37,-54.51 154.46,-51.26 150.23,-45.68"/>
</g>
</g>
</svg>
