<?xml version="1.0" encoding="UTF-8" standalone="no"?>
<!DOCTYPE svg PUBLIC "-//W3C//DTD SVG 1.1//EN"
 "http://www.w3.org/Graphics/SVG/1.1/DTD/svg11.dtd">
<!-- Generated by graphviz version 8.0.2 (20230410.1723)
 -->
<!-- Title: CharacterCameraBinoculars Pages: 1 -->
<svg width="146pt" height="247pt"
 viewBox="0.00 0.00 146.00 247.00" xmlns="http://www.w3.org/2000/svg" xmlns:xlink="http://www.w3.org/1999/xlink">
<g id="graph0" class="graph" transform="scale(1 1) rotate(0) translate(4 243)">
<title>CharacterCameraBinoculars</title>
<!-- Node1 -->
<g id="node1" class="node">
<title>Node1</title>
<g id="a_node1"><a xlink:title=" ">
<polygon fill="#999999" stroke="#666666" points="138,-19 0,-19 0,0 138,0 138,-19"/>
<text text-anchor="middle" x="69" y="-7" font-family="Helvetica,sans-Serif" font-size="10.00">CharacterCameraBinoculars</text>
</a>
</g>
</g>
<!-- Node2 -->
<g id="node2" class="node">
<title>Node2</title>
<g id="a_node2"><a xlink:href="interfaceCharacterCamera1stPerson.html" target="_top" xlink:title=" ">
<polygon fill="white" stroke="#666666" points="137.5,-74 0.5,-74 0.5,-55 137.5,-55 137.5,-74"/>
<text text-anchor="middle" x="69" y="-62" font-family="Helvetica,sans-Serif" font-size="10.00">CharacterCamera1stPerson</text>
</a>
</g>
</g>
<!-- Node2&#45;&gt;Node1 -->
<g id="edge1" class="edge">
<title>Node2&#45;&gt;Node1</title>
<path fill="none" stroke="#63b8ff" d="M69,-43.93C69,-35.53 69,-26.13 69,-19.44"/>
<polygon fill="#63b8ff" stroke="#63b8ff" points="65.5,-43.75 69,-53.75 72.5,-43.75 65.5,-43.75"/>
</g>
<!-- Node3 -->
<g id="node3" class="node">
<title>Node3</title>
<g id="a_node3"><a xlink:href="interfaceCharacterCameraBase.html" target="_top" xlink:title=" ">
<polygon fill="white" stroke="#666666" points="126.5,-129 11.5,-129 11.5,-110 126.5,-110 126.5,-129"/>
<text text-anchor="middle" x="69" y="-117" font-family="Helvetica,sans-Serif" font-size="10.00">CharacterCameraBase</text>
</a>
</g>
</g>
<!-- Node3&#45;&gt;Node2 -->
<g id="edge2" class="edge">
<title>Node3&#45;&gt;Node2</title>
<path fill="none" stroke="#63b8ff" d="M69,-98.93C69,-90.53 69,-81.13 69,-74.44"/>
<polygon fill="#63b8ff" stroke="#63b8ff" points="65.5,-98.75 69,-108.75 72.5,-98.75 65.5,-98.75"/>
</g>
<!-- Node4 -->
<g id="node4" class="node">
<title>Node4</title>
<g id="a_node4"><a xlink:href="interfaceScriptedCameraItem.html" target="_top" xlink:title=" ">
<polygon fill="white" stroke="#666666" points="121.5,-184 16.5,-184 16.5,-165 121.5,-165 121.5,-184"/>
<text text-anchor="middle" x="69" y="-172" font-family="Helvetica,sans-Serif" font-size="10.00">ScriptedCameraItem</text>
</a>
</g>
</g>
<!-- Node4&#45;&gt;Node3 -->
<g id="edge3" class="edge">
<title>Node4&#45;&gt;Node3</title>
<path fill="none" stroke="#63b8ff" d="M69,-153.93C69,-145.53 69,-136.13 69,-129.44"/>
<polygon fill="#63b8ff" stroke="#63b8ff" points="65.5,-153.75 69,-163.75 72.5,-153.75 65.5,-153.75"/>
</g>
<!-- Node5 -->
<g id="node5" class="node">
<title>Node5</title>
<g id="a_node5"><a xlink:href="interfaceBaseScriptedCameraItem.html" target="_top" xlink:title=" ">
<polygon fill="white" stroke="#666666" points="133,-239 5,-239 5,-220 133,-220 133,-239"/>
<text text-anchor="middle" x="69" y="-227" font-family="Helvetica,sans-Serif" font-size="10.00">BaseScriptedCameraItem</text>
</a>
</g>
</g>
<!-- Node5&#45;&gt;Node4 -->
<g id="edge4" class="edge">
<title>Node5&#45;&gt;Node4</title>
<path fill="none" stroke="#63b8ff" d="M69,-208.93C69,-200.53 69,-191.13 69,-184.44"/>
<polygon fill="#63b8ff" stroke="#63b8ff" points="65.5,-208.75 69,-218.75 72.5,-208.75 65.5,-208.75"/>
</g>
</g>
</svg>
