<?xml version="1.0" encoding="UTF-8" standalone="no"?>
<!DOCTYPE svg PUBLIC "-//W3C//DTD SVG 1.1//EN"
 "http://www.w3.org/Graphics/SVG/1.1/DTD/svg11.dtd">
<!-- Generated by graphviz version 8.0.2 (20230410.1723)
 -->
<!-- Title: SCR_BaseLightComponentClass Pages: 1 -->
<svg width="478pt" height="214pt"
 viewBox="0.00 0.00 478.00 214.00" xmlns="http://www.w3.org/2000/svg" xmlns:xlink="http://www.w3.org/1999/xlink">
<g id="graph0" class="graph" transform="scale(1 1) rotate(0) translate(4 210)">
<title>SCR_BaseLightComponentClass</title>
<!-- Node1 -->
<g id="node1" class="node">
<title>Node1</title>
<g id="a_node1"><a xlink:title=" ">
<polygon fill="#999999" stroke="#666666" points="323,-151 163,-151 163,-132 323,-132 323,-151"/>
<text text-anchor="middle" x="243" y="-139" font-family="Helvetica,sans-Serif" font-size="10.00">SCR_BaseLightComponentClass</text>
</a>
</g>
</g>
<!-- Node3 -->
<g id="node3" class="node">
<title>Node3</title>
<g id="a_node3"><a xlink:href="interfaceSCR__BaseInteractiveLightComponentClass.html" target="_top" xlink:title=" ">
<polygon fill="white" stroke="#666666" points="307.5,-96 178.5,-96 178.5,-66 307.5,-66 307.5,-96"/>
<text text-anchor="start" x="186.5" y="-84" font-family="Helvetica,sans-Serif" font-size="10.00">SCR_BaseInteractiveLight</text>
<text text-anchor="middle" x="243" y="-73" font-family="Helvetica,sans-Serif" font-size="10.00">ComponentClass</text>
</a>
</g>
</g>
<!-- Node1&#45;&gt;Node3 -->
<g id="edge2" class="edge">
<title>Node1&#45;&gt;Node3</title>
<path fill="none" stroke="#63b8ff" d="M243,-121.08C243,-112.92 243,-103.6 243,-96.11"/>
<polygon fill="#63b8ff" stroke="#63b8ff" points="239.5,-120.87 243,-130.87 246.5,-120.87 239.5,-120.87"/>
</g>
<!-- Node2 -->
<g id="node2" class="node">
<title>Node2</title>
<g id="a_node2"><a xlink:title=" ">
<polygon fill="white" stroke="#666666" points="301,-206 185,-206 185,-187 301,-187 301,-206"/>
<text text-anchor="middle" x="243" y="-194" font-family="Helvetica,sans-Serif" font-size="10.00">ScriptComponentClass</text>
</a>
</g>
</g>
<!-- Node2&#45;&gt;Node1 -->
<g id="edge1" class="edge">
<title>Node2&#45;&gt;Node1</title>
<path fill="none" stroke="#63b8ff" d="M243,-175.93C243,-167.53 243,-158.13 243,-151.44"/>
<polygon fill="#63b8ff" stroke="#63b8ff" points="239.5,-175.75 243,-185.75 246.5,-175.75 239.5,-175.75"/>
</g>
<!-- Node4 -->
<g id="node4" class="node">
<title>Node4</title>
<g id="a_node4"><a xlink:href="interfaceSCR__FireplaceComponentClass.html" target="_top" xlink:title=" ">
<polygon fill="white" stroke="#666666" points="156,-24.5 0,-24.5 0,-5.5 156,-5.5 156,-24.5"/>
<text text-anchor="middle" x="78" y="-12.5" font-family="Helvetica,sans-Serif" font-size="10.00">SCR_FireplaceComponentClass</text>
</a>
</g>
</g>
<!-- Node3&#45;&gt;Node4 -->
<g id="edge3" class="edge">
<title>Node3&#45;&gt;Node4</title>
<path fill="none" stroke="#63b8ff" d="M195.81,-61.69C164.81,-49.67 125.61,-34.47 101.17,-24.99"/>
<polygon fill="#63b8ff" stroke="#63b8ff" points="194.38,-65.28 204.97,-65.64 196.91,-58.76 194.38,-65.28"/>
</g>
<!-- Node5 -->
<g id="node5" class="node">
<title>Node5</title>
<g id="a_node5"><a xlink:href="interfaceSCR__FlareEffectComponentClass.html" target="_top" xlink:title=" ">
<polygon fill="white" stroke="#666666" points="312,-30 174,-30 174,0 312,0 312,-30"/>
<text text-anchor="start" x="182" y="-18" font-family="Helvetica,sans-Serif" font-size="10.00">SCR_FlareEffectComponent</text>
<text text-anchor="middle" x="243" y="-7" font-family="Helvetica,sans-Serif" font-size="10.00">Class</text>
</a>
</g>
</g>
<!-- Node3&#45;&gt;Node5 -->
<g id="edge4" class="edge">
<title>Node3&#45;&gt;Node5</title>
<path fill="none" stroke="#63b8ff" d="M243,-54.97C243,-46.55 243,-37.45 243,-30.16"/>
<polygon fill="#63b8ff" stroke="#63b8ff" points="239.5,-54.8 243,-64.8 246.5,-54.8 239.5,-54.8"/>
</g>
<!-- Node6 -->
<g id="node6" class="node">
<title>Node6</title>
<g id="a_node6"><a xlink:href="interfaceSCR__LampComponentClass.html" target="_top" xlink:title=" ">
<polygon fill="white" stroke="#666666" points="470,-24.5 330,-24.5 330,-5.5 470,-5.5 470,-24.5"/>
<text text-anchor="middle" x="400" y="-12.5" font-family="Helvetica,sans-Serif" font-size="10.00">SCR_LampComponentClass</text>
</a>
</g>
</g>
<!-- Node3&#45;&gt;Node6 -->
<g id="edge5" class="edge">
<title>Node3&#45;&gt;Node6</title>
<path fill="none" stroke="#63b8ff" d="M288.29,-61.54C317.73,-49.54 354.8,-34.43 377.96,-24.99"/>
<polygon fill="#63b8ff" stroke="#63b8ff" points="287.17,-58.62 279.23,-65.64 289.82,-65.1 287.17,-58.62"/>
</g>
</g>
</svg>
