<?xml version="1.0" encoding="UTF-8" standalone="no"?>
<!DOCTYPE svg PUBLIC "-//W3C//DTD SVG 1.1//EN"
 "http://www.w3.org/Graphics/SVG/1.1/DTD/svg11.dtd">
<!-- Generated by graphviz version 8.0.2 (20230410.1723)
 -->
<!-- Title: SCR_PushVehicleAction Pages: 1 -->
<svg width="134pt" height="302pt"
 viewBox="0.00 0.00 134.00 302.00" xmlns="http://www.w3.org/2000/svg" xmlns:xlink="http://www.w3.org/1999/xlink">
<g id="graph0" class="graph" transform="scale(1 1) rotate(0) translate(4 298)">
<title>SCR_PushVehicleAction</title>
<!-- Node1 -->
<g id="node1" class="node">
<title>Node1</title>
<g id="a_node1"><a xlink:title=" ">
<polygon fill="#999999" stroke="#666666" points="125.5,-74 0.5,-74 0.5,-55 125.5,-55 125.5,-74"/>
<text text-anchor="middle" x="63" y="-62" font-family="Helvetica,sans-Serif" font-size="10.00">SCR_PushVehicleAction</text>
</a>
</g>
</g>
<!-- Node6 -->
<g id="node6" class="node">
<title>Node6</title>
<g id="a_node6"><a xlink:href="interfaceSCR__UnflipVehicleAction.html" target="_top" xlink:title=" ">
<polygon fill="white" stroke="#666666" points="126,-19 0,-19 0,0 126,0 126,-19"/>
<text text-anchor="middle" x="63" y="-7" font-family="Helvetica,sans-Serif" font-size="10.00">SCR_UnflipVehicleAction</text>
</a>
</g>
</g>
<!-- Node1&#45;&gt;Node6 -->
<g id="edge5" class="edge">
<title>Node1&#45;&gt;Node6</title>
<path fill="none" stroke="#63b8ff" d="M63,-43.93C63,-35.53 63,-26.13 63,-19.44"/>
<polygon fill="#63b8ff" stroke="#63b8ff" points="59.5,-43.75 63,-53.75 66.5,-43.75 59.5,-43.75"/>
</g>
<!-- Node2 -->
<g id="node2" class="node">
<title>Node2</title>
<g id="a_node2"><a xlink:href="interfaceSCR__ScriptedUserAction.html" target="_top" xlink:title="A scripted action class having optional logic to check if vehicle is valid.">
<polygon fill="white" stroke="#666666" points="126,-129 0,-129 0,-110 126,-110 126,-129"/>
<text text-anchor="middle" x="63" y="-117" font-family="Helvetica,sans-Serif" font-size="10.00">SCR_ScriptedUserAction</text>
</a>
</g>
</g>
<!-- Node2&#45;&gt;Node1 -->
<g id="edge1" class="edge">
<title>Node2&#45;&gt;Node1</title>
<path fill="none" stroke="#63b8ff" d="M63,-98.93C63,-90.53 63,-81.13 63,-74.44"/>
<polygon fill="#63b8ff" stroke="#63b8ff" points="59.5,-98.75 63,-108.75 66.5,-98.75 59.5,-98.75"/>
</g>
<!-- Node3 -->
<g id="node3" class="node">
<title>Node3</title>
<g id="a_node3"><a xlink:href="interfaceScriptedUserAction.html" target="_top" xlink:title=" ">
<polygon fill="white" stroke="#666666" points="113.5,-184 12.5,-184 12.5,-165 113.5,-165 113.5,-184"/>
<text text-anchor="middle" x="63" y="-172" font-family="Helvetica,sans-Serif" font-size="10.00">ScriptedUserAction</text>
</a>
</g>
</g>
<!-- Node3&#45;&gt;Node2 -->
<g id="edge2" class="edge">
<title>Node3&#45;&gt;Node2</title>
<path fill="none" stroke="#63b8ff" d="M63,-153.93C63,-145.53 63,-136.13 63,-129.44"/>
<polygon fill="#63b8ff" stroke="#63b8ff" points="59.5,-153.75 63,-163.75 66.5,-153.75 59.5,-153.75"/>
</g>
<!-- Node4 -->
<g id="node4" class="node">
<title>Node4</title>
<g id="a_node4"><a xlink:href="interfaceBaseUserAction.html" target="_top" xlink:title=" ">
<polygon fill="white" stroke="#666666" points="106.5,-239 19.5,-239 19.5,-220 106.5,-220 106.5,-239"/>
<text text-anchor="middle" x="63" y="-227" font-family="Helvetica,sans-Serif" font-size="10.00">BaseUserAction</text>
</a>
</g>
</g>
<!-- Node4&#45;&gt;Node3 -->
<g id="edge3" class="edge">
<title>Node4&#45;&gt;Node3</title>
<path fill="none" stroke="#63b8ff" d="M63,-208.93C63,-200.53 63,-191.13 63,-184.44"/>
<polygon fill="#63b8ff" stroke="#63b8ff" points="59.5,-208.75 63,-218.75 66.5,-208.75 59.5,-208.75"/>
</g>
<!-- Node5 -->
<g id="node5" class="node">
<title>Node5</title>
<g id="a_node5"><a xlink:title=" ">
<polygon fill="white" stroke="#666666" points="106,-294 20,-294 20,-275 106,-275 106,-294"/>
<text text-anchor="middle" x="63" y="-282" font-family="Helvetica,sans-Serif" font-size="10.00">ScriptAndConfig</text>
</a>
</g>
</g>
<!-- Node5&#45;&gt;Node4 -->
<g id="edge4" class="edge">
<title>Node5&#45;&gt;Node4</title>
<path fill="none" stroke="#63b8ff" d="M63,-263.93C63,-255.53 63,-246.13 63,-239.44"/>
<polygon fill="#63b8ff" stroke="#63b8ff" points="59.5,-263.75 63,-273.75 66.5,-263.75 59.5,-263.75"/>
</g>
</g>
</svg>
