<?xml version="1.0" encoding="UTF-8" standalone="no"?>
<!DOCTYPE svg PUBLIC "-//W3C//DTD SVG 1.1//EN"
 "http://www.w3.org/Graphics/SVG/1.1/DTD/svg11.dtd">
<!-- Generated by graphviz version 8.0.2 (20230410.1723)
 -->
<!-- Title: SCR_InventoryStorageWeaponsUI Pages: 1 -->
<svg width="172pt" height="137pt"
 viewBox="0.00 0.00 172.00 137.00" xmlns="http://www.w3.org/2000/svg" xmlns:xlink="http://www.w3.org/1999/xlink">
<g id="graph0" class="graph" transform="scale(1 1) rotate(0) translate(4 133)">
<title>SCR_InventoryStorageWeaponsUI</title>
<!-- Node1 -->
<g id="node1" class="node">
<title>Node1</title>
<g id="a_node1"><a xlink:title="UI Script Inventory Storage UI Layout.">
<polygon fill="#999999" stroke="#666666" points="164,-19 0,-19 0,0 164,0 164,-19"/>
<text text-anchor="middle" x="82" y="-7" font-family="Helvetica,sans-Serif" font-size="10.00">SCR_InventoryStorageWeaponsUI</text>
</a>
</g>
</g>
<!-- Node2 -->
<g id="node2" class="node">
<title>Node2</title>
<g id="a_node2"><a xlink:href="interfaceSCR__InventoryStorageBaseUI.html" target="_top" xlink:title="UI Script Inventory of type: non&#45;uniform grid storage.">
<polygon fill="white" stroke="#666666" points="155,-74 9,-74 9,-55 155,-55 155,-74"/>
<text text-anchor="middle" x="82" y="-62" font-family="Helvetica,sans-Serif" font-size="10.00">SCR_InventoryStorageBaseUI</text>
</a>
</g>
</g>
<!-- Node2&#45;&gt;Node1 -->
<g id="edge1" class="edge">
<title>Node2&#45;&gt;Node1</title>
<path fill="none" stroke="#63b8ff" d="M82,-43.93C82,-35.53 82,-26.13 82,-19.44"/>
<polygon fill="#63b8ff" stroke="#63b8ff" points="78.5,-43.75 82,-53.75 85.5,-43.75 78.5,-43.75"/>
</g>
<!-- Node3 -->
<g id="node3" class="node">
<title>Node3</title>
<g id="a_node3"><a xlink:title=" ">
<polygon fill="white" stroke="#666666" points="148.5,-129 15.5,-129 15.5,-110 148.5,-110 148.5,-129"/>
<text text-anchor="middle" x="82" y="-117" font-family="Helvetica,sans-Serif" font-size="10.00">ScriptedWidgetComponent</text>
</a>
</g>
</g>
<!-- Node3&#45;&gt;Node2 -->
<g id="edge2" class="edge">
<title>Node3&#45;&gt;Node2</title>
<path fill="none" stroke="#63b8ff" d="M82,-98.93C82,-90.53 82,-81.13 82,-74.44"/>
<polygon fill="#63b8ff" stroke="#63b8ff" points="78.5,-98.75 82,-108.75 85.5,-98.75 78.5,-98.75"/>
</g>
</g>
</svg>
