<?xml version="1.0" encoding="UTF-8" standalone="no"?>
<!DOCTYPE svg PUBLIC "-//W3C//DTD SVG 1.1//EN"
 "http://www.w3.org/Graphics/SVG/1.1/DTD/svg11.dtd">
<!-- Generated by graphviz version 8.0.2 (20230410.1723)
 -->
<!-- Title: SCR_DestructibleHitzone Pages: 1 -->
<svg width="756pt" height="212pt"
 viewBox="0.00 0.00 756.00 212.00" xmlns="http://www.w3.org/2000/svg" xmlns:xlink="http://www.w3.org/1999/xlink">
<g id="graph0" class="graph" transform="scale(1 1) rotate(0) translate(4 208)">
<title>SCR_DestructibleHitzone</title>
<!-- Node1 -->
<g id="node1" class="node">
<title>Node1</title>
<g id="a_node1"><a xlink:title=" ">
<polygon fill="#999999" stroke="#666666" points="446,-148 319,-148 319,-129 446,-129 446,-148"/>
<text text-anchor="middle" x="382.5" y="-136" font-family="Helvetica,sans-Serif" font-size="10.00">SCR_DestructibleHitzone</text>
</a>
</g>
</g>
<!-- Node5 -->
<g id="node5" class="node">
<title>Node5</title>
<g id="a_node5"><a xlink:href="interfaceSCR__FuelHitZone.html" target="_top" xlink:title=" ">
<polygon fill="white" stroke="#666666" points="582.5,-185 488.5,-185 488.5,-166 582.5,-166 582.5,-185"/>
<text text-anchor="middle" x="535.5" y="-173" font-family="Helvetica,sans-Serif" font-size="10.00">SCR_FuelHitZone</text>
</a>
</g>
</g>
<!-- Node1&#45;&gt;Node5 -->
<g id="edge4" class="edge">
<title>Node1&#45;&gt;Node5</title>
<path fill="none" stroke="#63b8ff" d="M434.45,-150.98C453.83,-155.73 475.63,-161.07 493.92,-165.56"/>
<polygon fill="#63b8ff" stroke="#63b8ff" points="435.51,-147.4 424.97,-148.42 433.84,-154.19 435.51,-147.4"/>
</g>
<!-- Node6 -->
<g id="node6" class="node">
<title>Node6</title>
<g id="a_node6"><a xlink:href="interfaceSCR__LightHitZone.html" target="_top" xlink:title=" ">
<polygon fill="white" stroke="#666666" points="583.5,-148 487.5,-148 487.5,-129 583.5,-129 583.5,-148"/>
<text text-anchor="middle" x="535.5" y="-136" font-family="Helvetica,sans-Serif" font-size="10.00">SCR_LightHitZone</text>
</a>
</g>
</g>
<!-- Node1&#45;&gt;Node6 -->
<g id="edge5" class="edge">
<title>Node1&#45;&gt;Node6</title>
<path fill="none" stroke="#63b8ff" d="M456.96,-138.5C467.32,-138.5 477.72,-138.5 487.4,-138.5"/>
<polygon fill="#63b8ff" stroke="#63b8ff" points="457.23,-135 447.23,-138.5 457.23,-142 457.23,-135"/>
</g>
<!-- Node7 -->
<g id="node7" class="node">
<title>Node7</title>
<g id="a_node7"><a xlink:href="interfaceSCR__VehicleHitZone.html" target="_top" xlink:title=" ">
<polygon fill="white" stroke="#666666" points="589,-111 482,-111 482,-92 589,-92 589,-111"/>
<text text-anchor="middle" x="535.5" y="-99" font-family="Helvetica,sans-Serif" font-size="10.00">SCR_VehicleHitZone</text>
</a>
</g>
</g>
<!-- Node1&#45;&gt;Node7 -->
<g id="edge6" class="edge">
<title>Node1&#45;&gt;Node7</title>
<path fill="none" stroke="#63b8ff" d="M434.45,-126.02C453.83,-121.27 475.63,-115.93 493.92,-111.44"/>
<polygon fill="#63b8ff" stroke="#63b8ff" points="433.84,-122.81 424.97,-128.58 435.51,-129.6 433.84,-122.81"/>
</g>
<!-- Node2 -->
<g id="node2" class="node">
<title>Node2</title>
<g id="a_node2"><a xlink:href="interfaceSCR__HitZone.html" target="_top" xlink:title=" ">
<polygon fill="white" stroke="#666666" points="283,-148 208,-148 208,-129 283,-129 283,-148"/>
<text text-anchor="middle" x="245.5" y="-136" font-family="Helvetica,sans-Serif" font-size="10.00">SCR_HitZone</text>
</a>
</g>
</g>
<!-- Node2&#45;&gt;Node1 -->
<g id="edge1" class="edge">
<title>Node2&#45;&gt;Node1</title>
<path fill="none" stroke="#63b8ff" d="M294.26,-138.5C302.17,-138.5 310.48,-138.5 318.69,-138.5"/>
<polygon fill="#63b8ff" stroke="#63b8ff" points="294.39,-135 284.39,-138.5 294.39,-142 294.39,-135"/>
</g>
<!-- Node3 -->
<g id="node3" class="node">
<title>Node3</title>
<g id="a_node3"><a xlink:href="interfaceHitZone.html" target="_top" xlink:title=" ">
<polygon fill="white" stroke="#666666" points="172,-148 122,-148 122,-129 172,-129 172,-148"/>
<text text-anchor="middle" x="147" y="-136" font-family="Helvetica,sans-Serif" font-size="10.00">HitZone</text>
</a>
</g>
</g>
<!-- Node3&#45;&gt;Node2 -->
<g id="edge2" class="edge">
<title>Node3&#45;&gt;Node2</title>
<path fill="none" stroke="#63b8ff" d="M183.2,-138.5C191.19,-138.5 199.69,-138.5 207.74,-138.5"/>
<polygon fill="#63b8ff" stroke="#63b8ff" points="183.35,-135 173.35,-138.5 183.35,-142 183.35,-135"/>
</g>
<!-- Node4 -->
<g id="node4" class="node">
<title>Node4</title>
<g id="a_node4"><a xlink:title=" ">
<polygon fill="white" stroke="#666666" points="86,-148 0,-148 0,-129 86,-129 86,-148"/>
<text text-anchor="middle" x="43" y="-136" font-family="Helvetica,sans-Serif" font-size="10.00">ScriptAndConfig</text>
</a>
</g>
</g>
<!-- Node4&#45;&gt;Node3 -->
<g id="edge3" class="edge">
<title>Node4&#45;&gt;Node3</title>
<path fill="none" stroke="#63b8ff" d="M97.2,-138.5C105.77,-138.5 114.25,-138.5 121.69,-138.5"/>
<polygon fill="#63b8ff" stroke="#63b8ff" points="97.37,-135 87.37,-138.5 97.37,-142 97.37,-135"/>
</g>
<!-- Node8 -->
<g id="node8" class="node">
<title>Node8</title>
<g id="a_node8"><a xlink:href="interfaceSCR__BatteryHitZone.html" target="_top" xlink:title=" ">
<polygon fill="white" stroke="#666666" points="740,-204 633,-204 633,-185 740,-185 740,-204"/>
<text text-anchor="middle" x="686.5" y="-192" font-family="Helvetica,sans-Serif" font-size="10.00">SCR_BatteryHitZone</text>
</a>
</g>
</g>
<!-- Node7&#45;&gt;Node8 -->
<g id="edge7" class="edge">
<title>Node7&#45;&gt;Node8</title>
<path fill="none" stroke="#63b8ff" d="M585.01,-116.64C586.39,-117.54 587.72,-118.49 589,-119.5 612.51,-138.08 601.12,-158.41 625,-176.5 629.28,-179.74 634.14,-182.4 639.2,-184.59"/>
<polygon fill="#63b8ff" stroke="#63b8ff" points="586.81,-113.09 576.35,-111.41 583.48,-119.25 586.81,-113.09"/>
</g>
<!-- Node9 -->
<g id="node9" class="node">
<title>Node9</title>
<g id="a_node9"><a xlink:href="interfaceSCR__EngineHitZone.html" target="_top" xlink:title=" ">
<polygon fill="white" stroke="#666666" points="739,-167 634,-167 634,-148 739,-148 739,-167"/>
<text text-anchor="middle" x="686.5" y="-155" font-family="Helvetica,sans-Serif" font-size="10.00">SCR_EngineHitZone</text>
</a>
</g>
</g>
<!-- Node7&#45;&gt;Node9 -->
<g id="edge8" class="edge">
<title>Node7&#45;&gt;Node9</title>
<path fill="none" stroke="#63b8ff" d="M578.55,-115.17C582.12,-116.56 585.64,-118.01 589,-119.5 605.72,-126.94 608.13,-132.4 625,-139.5 632.07,-142.47 639.8,-145.17 647.29,-147.51"/>
<polygon fill="#63b8ff" stroke="#63b8ff" points="580.09,-111.64 569.5,-111.46 577.67,-118.21 580.09,-111.64"/>
</g>
<!-- Node10 -->
<g id="node10" class="node">
<title>Node10</title>
<g id="a_node10"><a xlink:href="interfaceSCR__FlammableHitZone.html" target="_top" xlink:title=" ">
<polygon fill="white" stroke="#666666" points="748,-130 625,-130 625,-111 748,-111 748,-130"/>
<text text-anchor="middle" x="686.5" y="-118" font-family="Helvetica,sans-Serif" font-size="10.00">SCR_FlammableHitZone</text>
</a>
</g>
</g>
<!-- Node7&#45;&gt;Node10 -->
<g id="edge9" class="edge">
<title>Node7&#45;&gt;Node10</title>
<path fill="none" stroke="#63b8ff" d="M600.29,-109.63C608.35,-110.66 616.58,-111.71 624.59,-112.73"/>
<polygon fill="#63b8ff" stroke="#63b8ff" points="600.81,-106.05 590.45,-108.25 599.93,-112.99 600.81,-106.05"/>
</g>
<!-- Node11 -->
<g id="node11" class="node">
<title>Node11</title>
<g id="a_node11"><a xlink:href="interfaceSCR__GearboxHitZone.html" target="_top" xlink:title=" ">
<polygon fill="white" stroke="#666666" points="742.5,-93 630.5,-93 630.5,-74 742.5,-74 742.5,-93"/>
<text text-anchor="middle" x="686.5" y="-81" font-family="Helvetica,sans-Serif" font-size="10.00">SCR_GearboxHitZone</text>
</a>
</g>
</g>
<!-- Node7&#45;&gt;Node11 -->
<g id="edge10" class="edge">
<title>Node7&#45;&gt;Node11</title>
<path fill="none" stroke="#63b8ff" d="M600.16,-93.81C610.15,-92.6 620.41,-91.36 630.2,-90.18"/>
<polygon fill="#63b8ff" stroke="#63b8ff" points="599.96,-90.43 590.45,-95.1 600.8,-97.38 599.96,-90.43"/>
</g>
<!-- Node12 -->
<g id="node12" class="node">
<title>Node12</title>
<g id="a_node12"><a xlink:href="interfaceSCR__RotorHitZone.html" target="_top" xlink:title=" ">
<polygon fill="white" stroke="#666666" points="735.5,-56 637.5,-56 637.5,-37 735.5,-37 735.5,-56"/>
<text text-anchor="middle" x="686.5" y="-44" font-family="Helvetica,sans-Serif" font-size="10.00">SCR_RotorHitZone</text>
</a>
</g>
</g>
<!-- Node7&#45;&gt;Node12 -->
<g id="edge11" class="edge">
<title>Node7&#45;&gt;Node12</title>
<path fill="none" stroke="#63b8ff" d="M568.24,-87.26C584.96,-80.01 605.91,-71.31 625,-64.5 632.95,-61.67 641.59,-58.91 649.78,-56.44"/>
<polygon fill="#63b8ff" stroke="#63b8ff" points="567.18,-84.34 559.43,-91.56 569.99,-90.75 567.18,-84.34"/>
</g>
<!-- Node13 -->
<g id="node13" class="node">
<title>Node13</title>
<g id="a_node13"><a xlink:href="interfaceSCR__WheelHitZone.html" target="_top" xlink:title=" ">
<polygon fill="white" stroke="#666666" points="738,-19 635,-19 635,0 738,0 738,-19"/>
<text text-anchor="middle" x="686.5" y="-7" font-family="Helvetica,sans-Serif" font-size="10.00">SCR_WheelHitZone</text>
</a>
</g>
</g>
<!-- Node7&#45;&gt;Node13 -->
<g id="edge12" class="edge">
<title>Node7&#45;&gt;Node13</title>
<path fill="none" stroke="#63b8ff" d="M552.91,-84.16C569.6,-67.46 596.95,-42.56 625,-27.5 630.89,-24.34 637.41,-21.66 643.92,-19.42"/>
<polygon fill="#63b8ff" stroke="#63b8ff" points="551.1,-81.03 546.61,-90.63 556.11,-85.92 551.1,-81.03"/>
</g>
</g>
</svg>
