<?xml version="1.0" encoding="UTF-8" standalone="no"?>
<!DOCTYPE svg PUBLIC "-//W3C//DTD SVG 1.1//EN"
 "http://www.w3.org/Graphics/SVG/1.1/DTD/svg11.dtd">
<!-- Generated by graphviz version 8.0.2 (20230410.1723)
 -->
<!-- Title: SCR_AttachToEntityToolbarAction Pages: 1 -->
<svg width="160pt" height="203pt"
 viewBox="0.00 0.00 160.00 203.00" xmlns="http://www.w3.org/2000/svg" xmlns:xlink="http://www.w3.org/1999/xlink">
<g id="graph0" class="graph" transform="scale(1 1) rotate(0) translate(4 199)">
<title>SCR_AttachToEntityToolbarAction</title>
<!-- Node1 -->
<g id="node1" class="node">
<title>Node1</title>
<g id="a_node1"><a xlink:title=" ">
<polygon fill="#999999" stroke="#666666" points="145,-30 7,-30 7,0 145,0 145,-30"/>
<text text-anchor="start" x="15" y="-18" font-family="Helvetica,sans-Serif" font-size="10.00">SCR_AttachToEntityToolbar</text>
<text text-anchor="middle" x="76" y="-7" font-family="Helvetica,sans-Serif" font-size="10.00">Action</text>
</a>
</g>
</g>
<!-- Node2 -->
<g id="node2" class="node">
<title>Node2</title>
<g id="a_node2"><a xlink:href="interfaceSCR__BaseToggleToolbarAction.html" target="_top" xlink:title=" ">
<polygon fill="white" stroke="#666666" points="152,-85 0,-85 0,-66 152,-66 152,-85"/>
<text text-anchor="middle" x="76" y="-73" font-family="Helvetica,sans-Serif" font-size="10.00">SCR_BaseToggleToolbarAction</text>
</a>
</g>
</g>
<!-- Node2&#45;&gt;Node1 -->
<g id="edge1" class="edge">
<title>Node2&#45;&gt;Node1</title>
<path fill="none" stroke="#63b8ff" d="M76,-55.08C76,-46.92 76,-37.6 76,-30.11"/>
<polygon fill="#63b8ff" stroke="#63b8ff" points="72.5,-54.87 76,-64.87 79.5,-54.87 72.5,-54.87"/>
</g>
<!-- Node3 -->
<g id="node3" class="node">
<title>Node3</title>
<g id="a_node3"><a xlink:href="interfaceSCR__EditorToolbarAction.html" target="_top" xlink:title=" ">
<polygon fill="white" stroke="#666666" points="139.5,-140 12.5,-140 12.5,-121 139.5,-121 139.5,-140"/>
<text text-anchor="middle" x="76" y="-128" font-family="Helvetica,sans-Serif" font-size="10.00">SCR_EditorToolbarAction</text>
</a>
</g>
</g>
<!-- Node3&#45;&gt;Node2 -->
<g id="edge2" class="edge">
<title>Node3&#45;&gt;Node2</title>
<path fill="none" stroke="#63b8ff" d="M76,-109.93C76,-101.53 76,-92.13 76,-85.44"/>
<polygon fill="#63b8ff" stroke="#63b8ff" points="72.5,-109.75 76,-119.75 79.5,-109.75 72.5,-109.75"/>
</g>
<!-- Node4 -->
<g id="node4" class="node">
<title>Node4</title>
<g id="a_node4"><a xlink:href="interfaceSCR__BaseEditorAction.html" target="_top" xlink:title="Base container class for all editor action types (ContextActions, WaypointActions,...">
<polygon fill="white" stroke="#666666" points="135,-195 17,-195 17,-176 135,-176 135,-195"/>
<text text-anchor="middle" x="76" y="-183" font-family="Helvetica,sans-Serif" font-size="10.00">SCR_BaseEditorAction</text>
</a>
</g>
</g>
<!-- Node4&#45;&gt;Node3 -->
<g id="edge3" class="edge">
<title>Node4&#45;&gt;Node3</title>
<path fill="none" stroke="#63b8ff" d="M76,-164.93C76,-156.53 76,-147.13 76,-140.44"/>
<polygon fill="#63b8ff" stroke="#63b8ff" points="72.5,-164.75 76,-174.75 79.5,-164.75 72.5,-164.75"/>
</g>
</g>
</svg>
