<?xml version="1.0" encoding="UTF-8" standalone="no"?>
<!DOCTYPE svg PUBLIC "-//W3C//DTD SVG 1.1//EN"
 "http://www.w3.org/Graphics/SVG/1.1/DTD/svg11.dtd">
<!-- Generated by graphviz version 8.0.2 (20230410.1723)
 -->
<!-- Title: AIMessageSelectionMenuEntry Pages: 1 -->
<svg width="163pt" height="324pt"
 viewBox="0.00 0.00 163.00 324.00" xmlns="http://www.w3.org/2000/svg" xmlns:xlink="http://www.w3.org/1999/xlink">
<g id="graph0" class="graph" transform="scale(1 1) rotate(0) translate(4 320)">
<title>AIMessageSelectionMenuEntry</title>
<!-- Node1 -->
<g id="node1" class="node">
<title>Node1</title>
<g id="a_node1"><a xlink:title=" ">
<polygon fill="#999999" stroke="#666666" points="154,-85 1,-85 1,-66 154,-66 154,-85"/>
<text text-anchor="middle" x="77.5" y="-73" font-family="Helvetica,sans-Serif" font-size="10.00">AIMessageSelectionMenuEntry</text>
</a>
</g>
</g>
<!-- Node6 -->
<g id="node6" class="node">
<title>Node6</title>
<g id="a_node6"><a xlink:href="interfaceSCR__AIMessageSelectionMenuEntry.html" target="_top" xlink:title=" ">
<polygon fill="white" stroke="#666666" points="155,-30 0,-30 0,0 155,0 155,-30"/>
<text text-anchor="start" x="8" y="-18" font-family="Helvetica,sans-Serif" font-size="10.00">SCR_AIMessageSelectionMenu</text>
<text text-anchor="middle" x="77.5" y="-7" font-family="Helvetica,sans-Serif" font-size="10.00">Entry</text>
</a>
</g>
</g>
<!-- Node1&#45;&gt;Node6 -->
<g id="edge5" class="edge">
<title>Node1&#45;&gt;Node6</title>
<path fill="none" stroke="#63b8ff" d="M77.5,-55.08C77.5,-46.92 77.5,-37.6 77.5,-30.11"/>
<polygon fill="#63b8ff" stroke="#63b8ff" points="74,-54.87 77.5,-64.87 81,-54.87 74,-54.87"/>
</g>
<!-- Node2 -->
<g id="node2" class="node">
<title>Node2</title>
<g id="a_node2"><a xlink:href="interfaceScriptedSelectionMenuEntry.html" target="_top" xlink:title=" ">
<polygon fill="white" stroke="#666666" points="147.5,-140 7.5,-140 7.5,-121 147.5,-121 147.5,-140"/>
<text text-anchor="middle" x="77.5" y="-128" font-family="Helvetica,sans-Serif" font-size="10.00">ScriptedSelectionMenuEntry</text>
</a>
</g>
</g>
<!-- Node2&#45;&gt;Node1 -->
<g id="edge1" class="edge">
<title>Node2&#45;&gt;Node1</title>
<path fill="none" stroke="#63b8ff" d="M77.5,-109.93C77.5,-101.53 77.5,-92.13 77.5,-85.44"/>
<polygon fill="#63b8ff" stroke="#63b8ff" points="74,-109.75 77.5,-119.75 81,-109.75 74,-109.75"/>
</g>
<!-- Node3 -->
<g id="node3" class="node">
<title>Node3</title>
<g id="a_node3"><a xlink:href="interfaceBaseScriptedSelectionMenuEntry.html" target="_top" xlink:title=" ">
<polygon fill="white" stroke="#666666" points="147.5,-206 7.5,-206 7.5,-176 147.5,-176 147.5,-206"/>
<text text-anchor="start" x="15.5" y="-194" font-family="Helvetica,sans-Serif" font-size="10.00">BaseScriptedSelectionMenu</text>
<text text-anchor="middle" x="77.5" y="-183" font-family="Helvetica,sans-Serif" font-size="10.00">Entry</text>
</a>
</g>
</g>
<!-- Node3&#45;&gt;Node2 -->
<g id="edge2" class="edge">
<title>Node3&#45;&gt;Node2</title>
<path fill="none" stroke="#63b8ff" d="M77.5,-164.59C77.5,-155.85 77.5,-146.65 77.5,-140.18"/>
<polygon fill="#63b8ff" stroke="#63b8ff" points="74,-164.54 77.5,-174.54 81,-164.54 74,-164.54"/>
</g>
<!-- Node4 -->
<g id="node4" class="node">
<title>Node4</title>
<g id="a_node4"><a xlink:href="interfaceBaseSelectionMenuEntry.html" target="_top" xlink:title=" ">
<polygon fill="white" stroke="#666666" points="141,-261 14,-261 14,-242 141,-242 141,-261"/>
<text text-anchor="middle" x="77.5" y="-249" font-family="Helvetica,sans-Serif" font-size="10.00">BaseSelectionMenuEntry</text>
</a>
</g>
</g>
<!-- Node4&#45;&gt;Node3 -->
<g id="edge3" class="edge">
<title>Node4&#45;&gt;Node3</title>
<path fill="none" stroke="#63b8ff" d="M77.5,-231.08C77.5,-222.92 77.5,-213.6 77.5,-206.11"/>
<polygon fill="#63b8ff" stroke="#63b8ff" points="74,-230.87 77.5,-240.87 81,-230.87 74,-230.87"/>
</g>
<!-- Node5 -->
<g id="node5" class="node">
<title>Node5</title>
<g id="a_node5"><a xlink:title=" ">
<polygon fill="white" stroke="#666666" points="120.5,-316 34.5,-316 34.5,-297 120.5,-297 120.5,-316"/>
<text text-anchor="middle" x="77.5" y="-304" font-family="Helvetica,sans-Serif" font-size="10.00">ScriptAndConfig</text>
</a>
</g>
</g>
<!-- Node5&#45;&gt;Node4 -->
<g id="edge4" class="edge">
<title>Node5&#45;&gt;Node4</title>
<path fill="none" stroke="#63b8ff" d="M77.5,-285.93C77.5,-277.53 77.5,-268.13 77.5,-261.44"/>
<polygon fill="#63b8ff" stroke="#63b8ff" points="74,-285.75 77.5,-295.75 81,-285.75 74,-285.75"/>
</g>
</g>
</svg>
