<?xml version="1.0" encoding="UTF-8" standalone="no"?>
<!DOCTYPE svg PUBLIC "-//W3C//DTD SVG 1.1//EN"
 "http://www.w3.org/Graphics/SVG/1.1/DTD/svg11.dtd">
<!-- Generated by graphviz version 8.0.2 (20230410.1723)
 -->
<!-- Title: SCR_CampaignDefendTaskClass Pages: 1 -->
<svg width="169pt" height="192pt"
 viewBox="0.00 0.00 169.00 192.00" xmlns="http://www.w3.org/2000/svg" xmlns:xlink="http://www.w3.org/1999/xlink">
<g id="graph0" class="graph" transform="scale(1 1) rotate(0) translate(4 188)">
<title>SCR_CampaignDefendTaskClass</title>
<!-- Node1 -->
<g id="node1" class="node">
<title>Node1</title>
<g id="a_node1"><a xlink:title=" ">
<polygon fill="#999999" stroke="#666666" points="161,-19 0,-19 0,0 161,0 161,-19"/>
<text text-anchor="middle" x="80.5" y="-7" font-family="Helvetica,sans-Serif" font-size="10.00">SCR_CampaignDefendTaskClass</text>
</a>
</g>
</g>
<!-- Node2 -->
<g id="node2" class="node">
<title>Node2</title>
<g id="a_node2"><a xlink:href="interfaceSCR__CampaignBaseTaskClass.html" target="_top" xlink:title=" ">
<polygon fill="white" stroke="#666666" points="157.5,-74 3.5,-74 3.5,-55 157.5,-55 157.5,-74"/>
<text text-anchor="middle" x="80.5" y="-62" font-family="Helvetica,sans-Serif" font-size="10.00">SCR_CampaignBaseTaskClass</text>
</a>
</g>
</g>
<!-- Node2&#45;&gt;Node1 -->
<g id="edge1" class="edge">
<title>Node2&#45;&gt;Node1</title>
<path fill="none" stroke="#63b8ff" d="M80.5,-43.93C80.5,-35.53 80.5,-26.13 80.5,-19.44"/>
<polygon fill="#63b8ff" stroke="#63b8ff" points="77,-43.75 80.5,-53.75 84,-43.75 77,-43.75"/>
</g>
<!-- Node3 -->
<g id="node3" class="node">
<title>Node3</title>
<g id="a_node3"><a xlink:href="interfaceSCR__BaseTaskClass.html" target="_top" xlink:title=" ">
<polygon fill="white" stroke="#666666" points="135.5,-129 25.5,-129 25.5,-110 135.5,-110 135.5,-129"/>
<text text-anchor="middle" x="80.5" y="-117" font-family="Helvetica,sans-Serif" font-size="10.00">SCR_BaseTaskClass</text>
</a>
</g>
</g>
<!-- Node3&#45;&gt;Node2 -->
<g id="edge2" class="edge">
<title>Node3&#45;&gt;Node2</title>
<path fill="none" stroke="#63b8ff" d="M80.5,-98.93C80.5,-90.53 80.5,-81.13 80.5,-74.44"/>
<polygon fill="#63b8ff" stroke="#63b8ff" points="77,-98.75 80.5,-108.75 84,-98.75 77,-98.75"/>
</g>
<!-- Node4 -->
<g id="node4" class="node">
<title>Node4</title>
<g id="a_node4"><a xlink:title=" ">
<polygon fill="white" stroke="#666666" points="131,-184 30,-184 30,-165 131,-165 131,-184"/>
<text text-anchor="middle" x="80.5" y="-172" font-family="Helvetica,sans-Serif" font-size="10.00">GenericEntityClass</text>
</a>
</g>
</g>
<!-- Node4&#45;&gt;Node3 -->
<g id="edge3" class="edge">
<title>Node4&#45;&gt;Node3</title>
<path fill="none" stroke="#63b8ff" d="M80.5,-153.93C80.5,-145.53 80.5,-136.13 80.5,-129.44"/>
<polygon fill="#63b8ff" stroke="#63b8ff" points="77,-153.75 80.5,-163.75 84,-153.75 77,-153.75"/>
</g>
</g>
</svg>
