<?xml version="1.0" encoding="UTF-8" standalone="no"?>
<!DOCTYPE svg PUBLIC "-//W3C//DTD SVG 1.1//EN"
 "http://www.w3.org/Graphics/SVG/1.1/DTD/svg11.dtd">
<!-- Generated by graphviz version 8.0.2 (20230410.1723)
 -->
<!-- Title: SCR_EntityTooltipDetail Pages: 1 -->
<svg width="517pt" height="1252pt"
 viewBox="0.00 0.00 517.00 1252.00" xmlns="http://www.w3.org/2000/svg" xmlns:xlink="http://www.w3.org/1999/xlink">
<g id="graph0" class="graph" transform="scale(1 1) rotate(0) translate(4 1248)">
<title>SCR_EntityTooltipDetail</title>
<!-- Node1 -->
<g id="node1" class="node">
<title>Node1</title>
<g id="a_node1"><a xlink:title=" ">
<polygon fill="#999999" stroke="#666666" points="121,-625 0,-625 0,-606 121,-606 121,-625"/>
<text text-anchor="middle" x="60.5" y="-613" font-family="Helvetica,sans-Serif" font-size="10.00">SCR_EntityTooltipDetail</text>
</a>
</g>
</g>
<!-- Node2 -->
<g id="node2" class="node">
<title>Node2</title>
<g id="a_node2"><a xlink:href="interfaceSCR__AIStateTooltipDetail.html" target="_top" xlink:title=" ">
<polygon fill="white" stroke="#666666" points="304,-1244 176,-1244 176,-1225 304,-1225 304,-1244"/>
<text text-anchor="middle" x="240" y="-1232" font-family="Helvetica,sans-Serif" font-size="10.00">SCR_AIStateTooltipDetail</text>
</a>
</g>
</g>
<!-- Node1&#45;&gt;Node2 -->
<g id="edge1" class="edge">
<title>Node1&#45;&gt;Node2</title>
<path fill="none" stroke="#63b8ff" d="M61.8,-636.07C63.64,-731.34 76.11,-1128.75 157,-1215.5 162.18,-1221.06 168.64,-1225.14 175.65,-1228.12"/>
<polygon fill="#63b8ff" stroke="#63b8ff" points="65.29,-636.06 61.62,-626.12 58.29,-636.18 65.29,-636.06"/>
</g>
<!-- Node3 -->
<g id="node3" class="node">
<title>Node3</title>
<g id="a_node3"><a xlink:href="interfaceSCR__ArsenalSaveTypeTooltipDetail.html" target="_top" xlink:title=" ">
<polygon fill="white" stroke="#666666" points="313,-1206.5 167,-1206.5 167,-1176.5 313,-1176.5 313,-1206.5"/>
<text text-anchor="start" x="175" y="-1194.5" font-family="Helvetica,sans-Serif" font-size="10.00">SCR_ArsenalSaveTypeTooltip</text>
<text text-anchor="middle" x="240" y="-1183.5" font-family="Helvetica,sans-Serif" font-size="10.00">Detail</text>
</a>
</g>
</g>
<!-- Node1&#45;&gt;Node3 -->
<g id="edge2" class="edge">
<title>Node1&#45;&gt;Node3</title>
<path fill="none" stroke="#63b8ff" d="M62.23,-636.02C65.84,-726.21 84.63,-1086.42 157,-1167.5 159.96,-1170.82 163.36,-1173.69 167.04,-1176.17"/>
<polygon fill="#63b8ff" stroke="#63b8ff" points="65.69,-636.01 61.82,-626.15 58.7,-636.27 65.69,-636.01"/>
</g>
<!-- Node4 -->
<g id="node4" class="node">
<title>Node4</title>
<g id="a_node4"><a xlink:href="interfaceSCR__BaseResourceTooltipDetail.html" target="_top" xlink:title=" ">
<polygon fill="white" stroke="#666666" points="319.5,-1158 160.5,-1158 160.5,-1139 319.5,-1139 319.5,-1158"/>
<text text-anchor="middle" x="240" y="-1146" font-family="Helvetica,sans-Serif" font-size="10.00">SCR_BaseResourceTooltipDetail</text>
</a>
</g>
</g>
<!-- Node1&#45;&gt;Node4 -->
<g id="edge3" class="edge">
<title>Node1&#45;&gt;Node4</title>
<path fill="none" stroke="#63b8ff" d="M62.37,-636.14C66.48,-723.03 86.71,-1057.87 157,-1130.5 160.04,-1133.64 163.5,-1136.29 167.22,-1138.53"/>
<polygon fill="#63b8ff" stroke="#63b8ff" points="65.84,-636.21 61.89,-626.38 58.84,-636.53 65.84,-636.21"/>
</g>
<!-- Node7 -->
<g id="node7" class="node">
<title>Node7</title>
<g id="a_node7"><a xlink:href="interfaceSCR__BuilderNameTooltipDetail.html" target="_top" xlink:title=" ">
<polygon fill="white" stroke="#666666" points="315.5,-1121 164.5,-1121 164.5,-1102 315.5,-1102 315.5,-1121"/>
<text text-anchor="middle" x="240" y="-1109" font-family="Helvetica,sans-Serif" font-size="10.00">SCR_BuilderNameTooltipDetail</text>
</a>
</g>
</g>
<!-- Node1&#45;&gt;Node7 -->
<g id="edge6" class="edge">
<title>Node1&#45;&gt;Node7</title>
<path fill="none" stroke="#63b8ff" d="M62.73,-636.17C68.08,-718.98 92.04,-1025.56 157,-1092.5 160.56,-1096.17 164.68,-1099.19 169.14,-1101.67"/>
<polygon fill="#63b8ff" stroke="#63b8ff" points="66.18,-636.2 62.06,-626.44 59.19,-636.64 66.18,-636.2"/>
</g>
<!-- Node8 -->
<g id="node8" class="node">
<title>Node8</title>
<g id="a_node8"><a xlink:href="interfaceSCR__CommentPlacablePrefabDetail.html" target="_top" xlink:title=" ">
<polygon fill="white" stroke="#666666" points="314.5,-1083.5 165.5,-1083.5 165.5,-1053.5 314.5,-1053.5 314.5,-1083.5"/>
<text text-anchor="start" x="173.5" y="-1071.5" font-family="Helvetica,sans-Serif" font-size="10.00">SCR_CommentPlacablePrefab</text>
<text text-anchor="middle" x="240" y="-1060.5" font-family="Helvetica,sans-Serif" font-size="10.00">Detail</text>
</a>
</g>
</g>
<!-- Node1&#45;&gt;Node8 -->
<g id="edge7" class="edge">
<title>Node1&#45;&gt;Node8</title>
<path fill="none" stroke="#63b8ff" d="M63.3,-635.69C70.53,-712.25 99.82,-983.44 157,-1044.5 160.04,-1047.75 163.5,-1050.56 167.23,-1053.01"/>
<polygon fill="#63b8ff" stroke="#63b8ff" points="66.73,-635.77 62.33,-626.13 59.76,-636.41 66.73,-635.77"/>
</g>
<!-- Node9 -->
<g id="node9" class="node">
<title>Node9</title>
<g id="a_node9"><a xlink:href="interfaceSCR__DamageDisabledTooltipDetail.html" target="_top" xlink:title=" ">
<polygon fill="white" stroke="#666666" points="312,-1035.5 168,-1035.5 168,-1005.5 312,-1005.5 312,-1035.5"/>
<text text-anchor="start" x="176" y="-1023.5" font-family="Helvetica,sans-Serif" font-size="10.00">SCR_DamageDisabledTooltip</text>
<text text-anchor="middle" x="240" y="-1012.5" font-family="Helvetica,sans-Serif" font-size="10.00">Detail</text>
</a>
</g>
</g>
<!-- Node1&#45;&gt;Node9 -->
<g id="edge8" class="edge">
<title>Node1&#45;&gt;Node9</title>
<path fill="none" stroke="#63b8ff" d="M63.97,-636.14C72.91,-707.63 105.84,-943.3 157,-996.5 160.19,-999.81 163.81,-1002.68 167.7,-1005.15"/>
<polygon fill="#63b8ff" stroke="#63b8ff" points="67.35,-635.94 62.66,-626.44 60.4,-636.79 67.35,-635.94"/>
</g>
<!-- Node10 -->
<g id="node10" class="node">
<title>Node10</title>
<g id="a_node10"><a xlink:href="interfaceSCR__DebugTooltipDetail.html" target="_top" xlink:title=" ">
<polygon fill="white" stroke="#666666" points="301.5,-987 178.5,-987 178.5,-968 301.5,-968 301.5,-987"/>
<text text-anchor="middle" x="240" y="-975" font-family="Helvetica,sans-Serif" font-size="10.00">SCR_DebugTooltipDetail</text>
</a>
</g>
</g>
<!-- Node1&#45;&gt;Node10 -->
<g id="edge9" class="edge">
<title>Node1&#45;&gt;Node10</title>
<path fill="none" stroke="#63b8ff" d="M64.39,-635.95C74.26,-702.9 108.7,-913.77 157,-959.5 163.03,-965.21 170.44,-969.27 178.32,-972.13"/>
<polygon fill="#63b8ff" stroke="#63b8ff" points="67.73,-635.6 62.84,-626.2 60.8,-636.6 67.73,-635.6"/>
</g>
<!-- Node11 -->
<g id="node11" class="node">
<title>Node11</title>
<g id="a_node11"><a xlink:href="interfaceSCR__DescriptionTooltipDetail.html" target="_top" xlink:title=" ">
<polygon fill="white" stroke="#666666" points="312,-950 168,-950 168,-931 312,-931 312,-950"/>
<text text-anchor="middle" x="240" y="-938" font-family="Helvetica,sans-Serif" font-size="10.00">SCR_DescriptionTooltipDetail</text>
</a>
</g>
</g>
<!-- Node1&#45;&gt;Node11 -->
<g id="edge10" class="edge">
<title>Node1&#45;&gt;Node11</title>
<path fill="none" stroke="#63b8ff" d="M61.37,-635.97C62.2,-690.97 72.42,-843.02 157,-921.5 160.96,-925.18 165.49,-928.19 170.35,-930.65"/>
<polygon fill="#63b8ff" stroke="#63b8ff" points="64.87,-636.22 61.32,-626.24 57.87,-636.25 64.87,-636.22"/>
</g>
<!-- Node12 -->
<g id="node12" class="node">
<title>Node12</title>
<g id="a_node12"><a xlink:href="interfaceSCR__DpsConditionBarBaseTooltipDetail.html" target="_top" xlink:title=" ">
<polygon fill="white" stroke="#666666" points="323,-912.5 157,-912.5 157,-882.5 323,-882.5 323,-912.5"/>
<text text-anchor="start" x="165" y="-900.5" font-family="Helvetica,sans-Serif" font-size="10.00">SCR_DpsConditionBarBaseTooltip</text>
<text text-anchor="middle" x="240" y="-889.5" font-family="Helvetica,sans-Serif" font-size="10.00">Detail</text>
</a>
</g>
</g>
<!-- Node1&#45;&gt;Node12 -->
<g id="edge11" class="edge">
<title>Node1&#45;&gt;Node12</title>
<path fill="none" stroke="#63b8ff" d="M63.01,-636.06C67.71,-684.68 86.32,-807.59 157,-873.5 160.58,-876.84 164.6,-879.71 168.89,-882.19"/>
<polygon fill="#63b8ff" stroke="#63b8ff" points="66.44,-636.04 62.09,-626.38 59.46,-636.64 66.44,-636.04"/>
</g>
<!-- Node15 -->
<g id="node15" class="node">
<title>Node15</title>
<g id="a_node15"><a xlink:href="interfaceSCR__EntityConditionTooltipDetail.html" target="_top" xlink:title=" ">
<polygon fill="white" stroke="#666666" points="308.5,-864.5 171.5,-864.5 171.5,-834.5 308.5,-834.5 308.5,-864.5"/>
<text text-anchor="start" x="179.5" y="-852.5" font-family="Helvetica,sans-Serif" font-size="10.00">SCR_EntityConditionTooltip</text>
<text text-anchor="middle" x="240" y="-841.5" font-family="Helvetica,sans-Serif" font-size="10.00">Detail</text>
</a>
</g>
</g>
<!-- Node1&#45;&gt;Node15 -->
<g id="edge14" class="edge">
<title>Node1&#45;&gt;Node15</title>
<path fill="none" stroke="#63b8ff" d="M64.93,-635.84C73.07,-677.71 97.51,-773.92 157,-825.5 161.26,-829.19 166.06,-832.32 171.15,-834.96"/>
<polygon fill="#63b8ff" stroke="#63b8ff" points="68.21,-635.34 62.98,-626.13 61.33,-636.59 68.21,-635.34"/>
</g>
<!-- Node16 -->
<g id="node16" class="node">
<title>Node16</title>
<g id="a_node16"><a xlink:href="interfaceSCR__ExplosiveChargeDetail.html" target="_top" xlink:title=" ">
<polygon fill="white" stroke="#666666" points="309.5,-816 170.5,-816 170.5,-797 309.5,-797 309.5,-816"/>
<text text-anchor="middle" x="240" y="-804" font-family="Helvetica,sans-Serif" font-size="10.00">SCR_ExplosiveChargeDetail</text>
</a>
</g>
</g>
<!-- Node1&#45;&gt;Node16 -->
<g id="edge15" class="edge">
<title>Node1&#45;&gt;Node16</title>
<path fill="none" stroke="#63b8ff" d="M66.72,-635.37C77.3,-671.58 104.82,-748.18 157,-787.5 161.9,-791.19 167.4,-794.19 173.17,-796.61"/>
<polygon fill="#63b8ff" stroke="#63b8ff" points="69.92,-634.83 63.87,-626.13 63.18,-636.71 69.92,-634.83"/>
</g>
<!-- Node17 -->
<g id="node17" class="node">
<title>Node17</title>
<g id="a_node17"><a xlink:href="interfaceSCR__FactionGroupsTooltipDetail.html" target="_top" xlink:title=" ">
<polygon fill="white" stroke="#666666" points="307,-778.5 173,-778.5 173,-748.5 307,-748.5 307,-778.5"/>
<text text-anchor="start" x="181" y="-766.5" font-family="Helvetica,sans-Serif" font-size="10.00">SCR_FactionGroupsTooltip</text>
<text text-anchor="middle" x="240" y="-755.5" font-family="Helvetica,sans-Serif" font-size="10.00">Detail</text>
</a>
</g>
</g>
<!-- Node1&#45;&gt;Node17 -->
<g id="edge16" class="edge">
<title>Node1&#45;&gt;Node17</title>
<path fill="none" stroke="#63b8ff" d="M71.27,-634.86C86.08,-662.25 116.8,-712.02 157,-739.5 161.9,-742.85 167.27,-745.74 172.84,-748.23"/>
<polygon fill="#63b8ff" stroke="#63b8ff" points="73.97,-633.47 66.23,-626.24 67.77,-636.72 73.97,-633.47"/>
</g>
<!-- Node18 -->
<g id="node18" class="node">
<title>Node18</title>
<g id="a_node18"><a xlink:href="interfaceSCR__FactionHintTooltipDetail.html" target="_top" xlink:title=" ">
<polygon fill="white" stroke="#666666" points="312.5,-730 167.5,-730 167.5,-711 312.5,-711 312.5,-730"/>
<text text-anchor="middle" x="240" y="-718" font-family="Helvetica,sans-Serif" font-size="10.00">SCR_FactionHintTooltipDetail</text>
</a>
</g>
</g>
<!-- Node1&#45;&gt;Node18 -->
<g id="edge17" class="edge">
<title>Node1&#45;&gt;Node18</title>
<path fill="none" stroke="#63b8ff" d="M76.28,-633.39C93.57,-653.12 124.06,-684.33 157,-701.5 164.13,-705.21 171.98,-708.21 179.91,-710.62"/>
<polygon fill="#63b8ff" stroke="#63b8ff" points="78.46,-631.55 69.3,-626.23 73.14,-636.1 78.46,-631.55"/>
</g>
<!-- Node19 -->
<g id="node19" class="node">
<title>Node19</title>
<g id="a_node19"><a xlink:href="interfaceSCR__FactionPlayersTooltipDetail.html" target="_top" xlink:title=" ">
<polygon fill="white" stroke="#666666" points="308,-692.5 172,-692.5 172,-662.5 308,-662.5 308,-692.5"/>
<text text-anchor="start" x="180" y="-680.5" font-family="Helvetica,sans-Serif" font-size="10.00">SCR_FactionPlayersTooltip</text>
<text text-anchor="middle" x="240" y="-669.5" font-family="Helvetica,sans-Serif" font-size="10.00">Detail</text>
</a>
</g>
</g>
<!-- Node1&#45;&gt;Node19 -->
<g id="edge18" class="edge">
<title>Node1&#45;&gt;Node19</title>
<path fill="none" stroke="#63b8ff" d="M94.93,-629.69C113.12,-637.19 136.13,-646.31 157,-653.5 165.56,-656.45 174.69,-659.35 183.64,-662.07"/>
<polygon fill="#63b8ff" stroke="#63b8ff" points="96.39,-626.1 85.82,-625.49 93.71,-632.56 96.39,-626.1"/>
</g>
<!-- Node20 -->
<g id="node20" class="node">
<title>Node20</title>
<g id="a_node20"><a xlink:href="interfaceSCR__FactionTooltipDetail.html" target="_top" xlink:title=" ">
<polygon fill="white" stroke="#666666" points="304,-644 176,-644 176,-625 304,-625 304,-644"/>
<text text-anchor="middle" x="240" y="-632" font-family="Helvetica,sans-Serif" font-size="10.00">SCR_FactionTooltipDetail</text>
</a>
</g>
</g>
<!-- Node1&#45;&gt;Node20 -->
<g id="edge19" class="edge">
<title>Node1&#45;&gt;Node20</title>
<path fill="none" stroke="#63b8ff" d="M131.96,-623.04C146.37,-624.59 161.46,-626.2 175.61,-627.71"/>
<polygon fill="#63b8ff" stroke="#63b8ff" points="132.41,-619.46 122.1,-621.88 131.67,-626.42 132.41,-619.46"/>
</g>
<!-- Node21 -->
<g id="node21" class="node">
<title>Node21</title>
<g id="a_node21"><a xlink:href="interfaceSCR__FrequencyTooltipDetail.html" target="_top" xlink:title=" ">
<polygon fill="white" stroke="#666666" points="310.5,-607 169.5,-607 169.5,-588 310.5,-588 310.5,-607"/>
<text text-anchor="middle" x="240" y="-595" font-family="Helvetica,sans-Serif" font-size="10.00">SCR_FrequencyTooltipDetail</text>
</a>
</g>
</g>
<!-- Node1&#45;&gt;Node21 -->
<g id="edge20" class="edge">
<title>Node1&#45;&gt;Node21</title>
<path fill="none" stroke="#63b8ff" d="M131.75,-608.38C144.04,-607.13 156.83,-605.83 169.12,-604.59"/>
<polygon fill="#63b8ff" stroke="#63b8ff" points="131.69,-604.97 122.1,-609.46 132.4,-611.93 131.69,-604.97"/>
</g>
<!-- Node22 -->
<g id="node22" class="node">
<title>Node22</title>
<g id="a_node22"><a xlink:href="interfaceSCR__FuelTooltipDetail.html" target="_top" xlink:title=" ">
<polygon fill="white" stroke="#666666" points="297,-570 183,-570 183,-551 297,-551 297,-570"/>
<text text-anchor="middle" x="240" y="-558" font-family="Helvetica,sans-Serif" font-size="10.00">SCR_FuelTooltipDetail</text>
</a>
</g>
</g>
<!-- Node1&#45;&gt;Node22 -->
<g id="edge21" class="edge">
<title>Node1&#45;&gt;Node22</title>
<path fill="none" stroke="#63b8ff" d="M95.21,-601.54C113.32,-594.36 136.16,-585.81 157,-579.5 167.91,-576.2 179.78,-573.14 191.02,-570.49"/>
<polygon fill="#63b8ff" stroke="#63b8ff" points="94.11,-598.61 86.14,-605.58 96.72,-605.11 94.11,-598.61"/>
</g>
<!-- Node23 -->
<g id="node23" class="node">
<title>Node23</title>
<g id="a_node23"><a xlink:href="interfaceSCR__GroupOwnerTooltipDetail.html" target="_top" xlink:title=" ">
<polygon fill="white" stroke="#666666" points="314.5,-533 165.5,-533 165.5,-514 314.5,-514 314.5,-533"/>
<text text-anchor="middle" x="240" y="-521" font-family="Helvetica,sans-Serif" font-size="10.00">SCR_GroupOwnerTooltipDetail</text>
</a>
</g>
</g>
<!-- Node1&#45;&gt;Node23 -->
<g id="edge22" class="edge">
<title>Node1&#45;&gt;Node23</title>
<path fill="none" stroke="#63b8ff" d="M79.32,-598.09C97.42,-581.37 126.98,-556.64 157,-542.5 164.8,-538.83 173.36,-535.84 181.92,-533.41"/>
<polygon fill="#63b8ff" stroke="#63b8ff" points="77.27,-595.15 72.4,-604.57 82.08,-600.24 77.27,-595.15"/>
</g>
<!-- Node24 -->
<g id="node24" class="node">
<title>Node24</title>
<g id="a_node24"><a xlink:href="interfaceSCR__GroupSizeTooltipDetail.html" target="_top" xlink:title=" ">
<polygon fill="white" stroke="#666666" points="310.5,-496 169.5,-496 169.5,-477 310.5,-477 310.5,-496"/>
<text text-anchor="middle" x="240" y="-484" font-family="Helvetica,sans-Serif" font-size="10.00">SCR_GroupSizeTooltipDetail</text>
</a>
</g>
</g>
<!-- Node1&#45;&gt;Node24 -->
<g id="edge23" class="edge">
<title>Node1&#45;&gt;Node24</title>
<path fill="none" stroke="#63b8ff" d="M72.53,-596.62C88.1,-571.73 118.91,-528.42 157,-505.5 163.14,-501.81 169.93,-498.83 176.9,-496.44"/>
<polygon fill="#63b8ff" stroke="#63b8ff" points="69.19,-594.39 66.99,-604.76 75.17,-598.02 69.19,-594.39"/>
</g>
<!-- Node25 -->
<g id="node25" class="node">
<title>Node25</title>
<g id="a_node25"><a xlink:href="interfaceSCR__LabelDescriptionTooltipDetail.html" target="_top" xlink:title=" ">
<polygon fill="white" stroke="#666666" points="311.5,-458.5 168.5,-458.5 168.5,-428.5 311.5,-428.5 311.5,-458.5"/>
<text text-anchor="start" x="176.5" y="-446.5" font-family="Helvetica,sans-Serif" font-size="10.00">SCR_LabelDescriptionTooltip</text>
<text text-anchor="middle" x="240" y="-435.5" font-family="Helvetica,sans-Serif" font-size="10.00">Detail</text>
</a>
</g>
</g>
<!-- Node1&#45;&gt;Node25 -->
<g id="edge24" class="edge">
<title>Node1&#45;&gt;Node25</title>
<path fill="none" stroke="#63b8ff" d="M69.05,-595.75C82.12,-564.16 111.98,-502.39 157,-468.5 161.99,-464.74 167.56,-461.54 173.37,-458.82"/>
<polygon fill="#63b8ff" stroke="#63b8ff" points="65.58,-593.98 65.13,-604.57 72.09,-596.58 65.58,-593.98"/>
</g>
<!-- Node26 -->
<g id="node26" class="node">
<title>Node26</title>
<g id="a_node26"><a xlink:href="interfaceSCR__MapGridTooltipDetail.html" target="_top" xlink:title=" ">
<polygon fill="white" stroke="#666666" points="306,-410 174,-410 174,-391 306,-391 306,-410"/>
<text text-anchor="middle" x="240" y="-398" font-family="Helvetica,sans-Serif" font-size="10.00">SCR_MapGridTooltipDetail</text>
</a>
</g>
</g>
<!-- Node1&#45;&gt;Node26 -->
<g id="edge25" class="edge">
<title>Node1&#45;&gt;Node26</title>
<path fill="none" stroke="#63b8ff" d="M65.37,-595.15C74.11,-554.99 99.31,-465.45 157,-419.5 162.03,-415.49 167.75,-412.3 173.78,-409.77"/>
<polygon fill="#63b8ff" stroke="#63b8ff" points="61.74,-594.43 63.17,-604.93 68.6,-595.83 61.74,-594.43"/>
</g>
<!-- Node27 -->
<g id="node27" class="node">
<title>Node27</title>
<g id="a_node27"><a xlink:href="interfaceSCR__MultiOccupantVehcileTooltipDetail.html" target="_top" xlink:title=" ">
<polygon fill="white" stroke="#666666" points="308.5,-372.5 171.5,-372.5 171.5,-342.5 308.5,-342.5 308.5,-372.5"/>
<text text-anchor="start" x="179.5" y="-360.5" font-family="Helvetica,sans-Serif" font-size="10.00">SCR_MultiOccupantVehcile</text>
<text text-anchor="middle" x="240" y="-349.5" font-family="Helvetica,sans-Serif" font-size="10.00">TooltipDetail</text>
</a>
</g>
</g>
<!-- Node1&#45;&gt;Node27 -->
<g id="edge26" class="edge">
<title>Node1&#45;&gt;Node27</title>
<path fill="none" stroke="#63b8ff" d="M63.96,-595.17C70.5,-550.14 92.47,-441.29 157,-382.5 161.29,-378.59 166.18,-375.29 171.38,-372.51"/>
<polygon fill="#63b8ff" stroke="#63b8ff" points="60.39,-594.49 62.53,-604.87 67.33,-595.42 60.39,-594.49"/>
</g>
<!-- Node30 -->
<g id="node30" class="node">
<title>Node30</title>
<g id="a_node30"><a xlink:href="interfaceSCR__PassagerTooltipDetail.html" target="_top" xlink:title=" ">
<polygon fill="white" stroke="#666666" points="308.5,-324 171.5,-324 171.5,-305 308.5,-305 308.5,-324"/>
<text text-anchor="middle" x="240" y="-312" font-family="Helvetica,sans-Serif" font-size="10.00">SCR_PassagerTooltipDetail</text>
</a>
</g>
</g>
<!-- Node1&#45;&gt;Node30 -->
<g id="edge29" class="edge">
<title>Node1&#45;&gt;Node30</title>
<path fill="none" stroke="#63b8ff" d="M62.01,-594.9C64.46,-542.76 78.44,-404.66 157,-333.5 161.22,-329.67 166.06,-326.57 171.23,-324.06"/>
<polygon fill="#63b8ff" stroke="#63b8ff" points="58.48,-594.58 61.61,-604.7 65.48,-594.84 58.48,-594.58"/>
</g>
<!-- Node31 -->
<g id="node31" class="node">
<title>Node31</title>
<g id="a_node31"><a xlink:href="interfaceSCR__SuppliesBaseTooltipDetail.html" target="_top" xlink:title=" ">
<polygon fill="white" stroke="#666666" points="317.5,-287 162.5,-287 162.5,-268 317.5,-268 317.5,-287"/>
<text text-anchor="middle" x="240" y="-275" font-family="Helvetica,sans-Serif" font-size="10.00">SCR_SuppliesBaseTooltipDetail</text>
</a>
</g>
</g>
<!-- Node1&#45;&gt;Node31 -->
<g id="edge30" class="edge">
<title>Node1&#45;&gt;Node31</title>
<path fill="none" stroke="#63b8ff" d="M61.07,-594.92C61.06,-538.29 69.24,-378.89 157,-296.5 160.94,-292.8 165.46,-289.77 170.3,-287.3"/>
<polygon fill="#63b8ff" stroke="#63b8ff" points="57.57,-594.69 61.17,-604.66 64.57,-594.62 57.57,-594.69"/>
</g>
<!-- Node32 -->
<g id="node32" class="node">
<title>Node32</title>
<g id="a_node32"><a xlink:href="interfaceSCR__SupplyCapacityTooltipDetail.html" target="_top" xlink:title=" ">
<polygon fill="white" stroke="#666666" points="309.5,-249.5 170.5,-249.5 170.5,-219.5 309.5,-219.5 309.5,-249.5"/>
<text text-anchor="start" x="178.5" y="-237.5" font-family="Helvetica,sans-Serif" font-size="10.00">SCR_SupplyCapacityTooltip</text>
<text text-anchor="middle" x="240" y="-226.5" font-family="Helvetica,sans-Serif" font-size="10.00">Detail</text>
</a>
</g>
</g>
<!-- Node1&#45;&gt;Node32 -->
<g id="edge31" class="edge">
<title>Node1&#45;&gt;Node32</title>
<path fill="none" stroke="#63b8ff" d="M64.37,-594.92C74.3,-526.62 109.17,-308.98 157,-259.5 160.83,-255.54 165.26,-252.2 170.05,-249.39"/>
<polygon fill="#63b8ff" stroke="#63b8ff" points="60.81,-594.14 62.86,-604.54 67.74,-595.13 60.81,-594.14"/>
</g>
<!-- Node33 -->
<g id="node33" class="node">
<title>Node33</title>
<g id="a_node33"><a xlink:href="interfaceSCR__SupplyRefundTooltipDetail.html" target="_top" xlink:title=" ">
<polygon fill="white" stroke="#666666" points="317.5,-201 162.5,-201 162.5,-182 317.5,-182 317.5,-201"/>
<text text-anchor="middle" x="240" y="-189" font-family="Helvetica,sans-Serif" font-size="10.00">SCR_SupplyRefundTooltipDetail</text>
</a>
</g>
</g>
<!-- Node1&#45;&gt;Node33 -->
<g id="edge32" class="edge">
<title>Node1&#45;&gt;Node33</title>
<path fill="none" stroke="#63b8ff" d="M63.51,-594.92C71.22,-520.39 101.25,-266.04 157,-210.5 160.62,-206.89 164.79,-203.91 169.28,-201.46"/>
<polygon fill="#63b8ff" stroke="#63b8ff" points="59.95,-594.33 62.43,-604.63 66.92,-595.03 59.95,-594.33"/>
</g>
<!-- Node34 -->
<g id="node34" class="node">
<title>Node34</title>
<g id="a_node34"><a xlink:href="interfaceSCR__TaskCompleteDescriptionTooltipDetail.html" target="_top" xlink:title=" ">
<polygon fill="white" stroke="#666666" points="316.5,-163.5 163.5,-163.5 163.5,-133.5 316.5,-133.5 316.5,-163.5"/>
<text text-anchor="start" x="171.5" y="-151.5" font-family="Helvetica,sans-Serif" font-size="10.00">SCR_TaskCompleteDescription</text>
<text text-anchor="middle" x="240" y="-140.5" font-family="Helvetica,sans-Serif" font-size="10.00">TooltipDetail</text>
</a>
</g>
</g>
<!-- Node1&#45;&gt;Node34 -->
<g id="edge33" class="edge">
<title>Node1&#45;&gt;Node34</title>
<path fill="none" stroke="#63b8ff" d="M63.23,-594.73C70.21,-515.94 98.72,-236.84 157,-173.5 160.43,-169.78 164.39,-166.6 168.69,-163.89"/>
<polygon fill="#63b8ff" stroke="#63b8ff" points="59.67,-594.32 62.3,-604.59 66.64,-594.92 59.67,-594.32"/>
</g>
<!-- Node35 -->
<g id="node35" class="node">
<title>Node35</title>
<g id="a_node35"><a xlink:href="interfaceSCR__TextAndWarningTooltipDetail.html" target="_top" xlink:title=" ">
<polygon fill="white" stroke="#666666" points="311.5,-115.5 168.5,-115.5 168.5,-85.5 311.5,-85.5 311.5,-115.5"/>
<text text-anchor="start" x="176.5" y="-103.5" font-family="Helvetica,sans-Serif" font-size="10.00">SCR_TextAndWarningTooltip</text>
<text text-anchor="middle" x="240" y="-92.5" font-family="Helvetica,sans-Serif" font-size="10.00">Detail</text>
</a>
</g>
</g>
<!-- Node1&#45;&gt;Node35 -->
<g id="edge34" class="edge">
<title>Node1&#45;&gt;Node35</title>
<path fill="none" stroke="#63b8ff" d="M62.72,-594.88C68.07,-510.88 92.25,-195.54 157,-124.5 160.3,-120.88 164.11,-117.8 168.24,-115.17"/>
<polygon fill="#63b8ff" stroke="#63b8ff" points="59.17,-594.54 62.05,-604.73 66.16,-594.97 59.17,-594.54"/>
</g>
<!-- Node37 -->
<g id="node37" class="node">
<title>Node37</title>
<g id="a_node37"><a xlink:href="interfaceSCR__WaypointIndexTooltipDetail.html" target="_top" xlink:title=" ">
<polygon fill="white" stroke="#666666" points="307.5,-67.5 172.5,-67.5 172.5,-37.5 307.5,-37.5 307.5,-67.5"/>
<text text-anchor="start" x="180.5" y="-55.5" font-family="Helvetica,sans-Serif" font-size="10.00">SCR_WaypointIndexTooltip</text>
<text text-anchor="middle" x="240" y="-44.5" font-family="Helvetica,sans-Serif" font-size="10.00">Detail</text>
</a>
</g>
</g>
<!-- Node1&#45;&gt;Node37 -->
<g id="edge36" class="edge">
<title>Node1&#45;&gt;Node37</title>
<path fill="none" stroke="#63b8ff" d="M62.33,-594.89C66.3,-505.87 86.28,-155.41 157,-76.5 161.26,-71.75 166.4,-67.92 172,-64.83"/>
<polygon fill="#63b8ff" stroke="#63b8ff" points="58.8,-594.52 61.87,-604.66 65.79,-594.81 58.8,-594.52"/>
</g>
<!-- Node38 -->
<g id="node38" class="node">
<title>Node38</title>
<g id="a_node38"><a xlink:href="interfaceSCR__WeaponsTooltipDetail.html" target="_top" xlink:title=" ">
<polygon fill="white" stroke="#666666" points="308.5,-19 171.5,-19 171.5,0 308.5,0 308.5,-19"/>
<text text-anchor="middle" x="240" y="-7" font-family="Helvetica,sans-Serif" font-size="10.00">SCR_WeaponsTooltipDetail</text>
</a>
</g>
</g>
<!-- Node1&#45;&gt;Node38 -->
<g id="edge37" class="edge">
<title>Node1&#45;&gt;Node38</title>
<path fill="none" stroke="#63b8ff" d="M61.89,-594.77C64.08,-500.49 77.84,-113.1 157,-28.5 161.09,-24.13 165.98,-20.66 171.3,-17.94"/>
<polygon fill="#63b8ff" stroke="#63b8ff" points="58.37,-594.57 61.66,-604.64 65.37,-594.72 58.37,-594.57"/>
</g>
<!-- Node5 -->
<g id="node5" class="node">
<title>Node5</title>
<g id="a_node5"><a xlink:href="interfaceSCR__ResourceAvailableTooltipDetail.html" target="_top" xlink:title=" ">
<polygon fill="white" stroke="#666666" points="509,-1187.5 359,-1187.5 359,-1157.5 509,-1157.5 509,-1187.5"/>
<text text-anchor="start" x="367" y="-1175.5" font-family="Helvetica,sans-Serif" font-size="10.00">SCR_ResourceAvailableTooltip</text>
<text text-anchor="middle" x="434" y="-1164.5" font-family="Helvetica,sans-Serif" font-size="10.00">Detail</text>
</a>
</g>
</g>
<!-- Node4&#45;&gt;Node5 -->
<g id="edge4" class="edge">
<title>Node4&#45;&gt;Node5</title>
<path fill="none" stroke="#63b8ff" d="M330.82,-1159.73C340.16,-1160.89 349.57,-1162.07 358.71,-1163.21"/>
<polygon fill="#63b8ff" stroke="#63b8ff" points="331.28,-1156.13 320.92,-1158.37 330.41,-1163.08 331.28,-1156.13"/>
</g>
<!-- Node6 -->
<g id="node6" class="node">
<title>Node6</title>
<g id="a_node6"><a xlink:href="interfaceSCR__ResourceStorageTooltipDetail.html" target="_top" xlink:title=" ">
<polygon fill="white" stroke="#666666" points="507,-1139.5 361,-1139.5 361,-1109.5 507,-1109.5 507,-1139.5"/>
<text text-anchor="start" x="369" y="-1127.5" font-family="Helvetica,sans-Serif" font-size="10.00">SCR_ResourceStorageTooltip</text>
<text text-anchor="middle" x="434" y="-1116.5" font-family="Helvetica,sans-Serif" font-size="10.00">Detail</text>
</a>
</g>
</g>
<!-- Node4&#45;&gt;Node6 -->
<g id="edge5" class="edge">
<title>Node4&#45;&gt;Node6</title>
<path fill="none" stroke="#63b8ff" d="M330.72,-1137.29C340.71,-1136.04 350.8,-1134.77 360.55,-1133.56"/>
<polygon fill="#63b8ff" stroke="#63b8ff" points="330.41,-1133.92 320.92,-1138.63 331.28,-1140.87 330.41,-1133.92"/>
</g>
<!-- Node13 -->
<g id="node13" class="node">
<title>Node13</title>
<g id="a_node13"><a xlink:href="interfaceSCR__BloodTooltipDetail.html" target="_top" xlink:title=" ">
<polygon fill="white" stroke="#666666" points="494,-925 374,-925 374,-906 494,-906 494,-925"/>
<text text-anchor="middle" x="434" y="-913" font-family="Helvetica,sans-Serif" font-size="10.00">SCR_BloodTooltipDetail</text>
</a>
</g>
</g>
<!-- Node12&#45;&gt;Node13 -->
<g id="edge12" class="edge">
<title>Node12&#45;&gt;Node13</title>
<path fill="none" stroke="#63b8ff" d="M334.01,-906.22C347.46,-907.48 360.99,-908.75 373.54,-909.93"/>
<polygon fill="#63b8ff" stroke="#63b8ff" points="334.54,-902.66 324.26,-905.21 333.89,-909.63 334.54,-902.66"/>
</g>
<!-- Node14 -->
<g id="node14" class="node">
<title>Node14</title>
<g id="a_node14"><a xlink:href="interfaceSCR__HealthTooltipDetail.html" target="_top" xlink:title=" ">
<polygon fill="white" stroke="#666666" points="495.5,-888 372.5,-888 372.5,-869 495.5,-869 495.5,-888"/>
<text text-anchor="middle" x="434" y="-876" font-family="Helvetica,sans-Serif" font-size="10.00">SCR_HealthTooltipDetail</text>
</a>
</g>
</g>
<!-- Node12&#45;&gt;Node14 -->
<g id="edge13" class="edge">
<title>Node12&#45;&gt;Node14</title>
<path fill="none" stroke="#63b8ff" d="M334.07,-888.29C346.99,-887.01 359.97,-885.73 372.09,-884.53"/>
<polygon fill="#63b8ff" stroke="#63b8ff" points="333.87,-884.89 324.26,-889.36 334.56,-891.86 333.87,-884.89"/>
</g>
<!-- Node28 -->
<g id="node28" class="node">
<title>Node28</title>
<g id="a_node28"><a xlink:href="interfaceSCR__DriverTooltipDetail.html" target="_top" xlink:title=" ">
<polygon fill="white" stroke="#666666" points="493.5,-385 374.5,-385 374.5,-366 493.5,-366 493.5,-385"/>
<text text-anchor="middle" x="434" y="-373" font-family="Helvetica,sans-Serif" font-size="10.00">SCR_DriverTooltipDetail</text>
</a>
</g>
</g>
<!-- Node27&#45;&gt;Node28 -->
<g id="edge27" class="edge">
<title>Node27&#45;&gt;Node28</title>
<path fill="none" stroke="#63b8ff" d="M319.82,-364.89C337.95,-366.59 356.93,-368.37 374.05,-369.97"/>
<polygon fill="#63b8ff" stroke="#63b8ff" points="320.25,-361.32 309.96,-363.87 319.59,-368.29 320.25,-361.32"/>
</g>
<!-- Node29 -->
<g id="node29" class="node">
<title>Node29</title>
<g id="a_node29"><a xlink:href="interfaceSCR__GunnersTooltipDetail.html" target="_top" xlink:title=" ">
<polygon fill="white" stroke="#666666" points="500,-348 368,-348 368,-329 500,-329 500,-348"/>
<text text-anchor="middle" x="434" y="-336" font-family="Helvetica,sans-Serif" font-size="10.00">SCR_GunnersTooltipDetail</text>
</a>
</g>
</g>
<!-- Node27&#45;&gt;Node29 -->
<g id="edge28" class="edge">
<title>Node27&#45;&gt;Node29</title>
<path fill="none" stroke="#63b8ff" d="M319.85,-349.7C335.76,-348.12 352.32,-346.48 367.71,-344.96"/>
<polygon fill="#63b8ff" stroke="#63b8ff" points="319.57,-346.31 309.96,-350.77 320.26,-353.27 319.57,-346.31"/>
</g>
<!-- Node36 -->
<g id="node36" class="node">
<title>Node36</title>
<g id="a_node36"><a xlink:href="interfaceSCR__FactionTasksAndSpawnPointsTooltipDetail.html" target="_top" xlink:title=" ">
<polygon fill="white" stroke="#666666" points="507.5,-115.5 360.5,-115.5 360.5,-85.5 507.5,-85.5 507.5,-115.5"/>
<text text-anchor="start" x="368.5" y="-103.5" font-family="Helvetica,sans-Serif" font-size="10.00">SCR_FactionTasksAndSpawn</text>
<text text-anchor="middle" x="434" y="-92.5" font-family="Helvetica,sans-Serif" font-size="10.00">PointsTooltipDetail</text>
</a>
</g>
</g>
<!-- Node35&#45;&gt;Node36 -->
<g id="edge35" class="edge">
<title>Node35&#45;&gt;Node36</title>
<path fill="none" stroke="#63b8ff" d="M322.75,-100.5C335.16,-100.5 347.89,-100.5 360.1,-100.5"/>
<polygon fill="#63b8ff" stroke="#63b8ff" points="322.95,-97 312.95,-100.5 322.95,-104 322.95,-97"/>
</g>
</g>
</svg>
