<?xml version="1.0" encoding="UTF-8" standalone="no"?>
<!DOCTYPE svg PUBLIC "-//W3C//DTD SVG 1.1//EN"
 "http://www.w3.org/Graphics/SVG/1.1/DTD/svg11.dtd">
<!-- Generated by graphviz version 8.0.2 (20230410.1723)
 -->
<!-- Title: AttachmentOpticsDovetailAKSVD Pages: 1 -->
<svg width="318pt" height="313pt"
 viewBox="0.00 0.00 318.00 313.00" xmlns="http://www.w3.org/2000/svg" xmlns:xlink="http://www.w3.org/1999/xlink">
<g id="graph0" class="graph" transform="scale(1 1) rotate(0) translate(4 309)">
<title>AttachmentOpticsDovetailAKSVD</title>
<!-- Node1 -->
<g id="node1" class="node">
<title>Node1</title>
<g id="a_node1"><a xlink:title=" ">
<polygon fill="#999999" stroke="#666666" points="218,-85 89,-85 89,-55 218,-55 218,-85"/>
<text text-anchor="start" x="97" y="-73" font-family="Helvetica,sans-Serif" font-size="10.00">AttachmentOpticsDovetail</text>
<text text-anchor="middle" x="153.5" y="-62" font-family="Helvetica,sans-Serif" font-size="10.00">AKSVD</text>
</a>
</g>
</g>
<!-- Node6 -->
<g id="node6" class="node">
<title>Node6</title>
<g id="a_node6"><a xlink:href="interfaceAttachmentOpticsDovetailAK.html" target="_top" xlink:title=" ">
<polygon fill="white" stroke="#666666" points="143,-19 0,-19 0,0 143,0 143,-19"/>
<text text-anchor="middle" x="71.5" y="-7" font-family="Helvetica,sans-Serif" font-size="10.00">AttachmentOpticsDovetailAK</text>
</a>
</g>
</g>
<!-- Node1&#45;&gt;Node6 -->
<g id="edge5" class="edge">
<title>Node1&#45;&gt;Node6</title>
<path fill="none" stroke="#63b8ff" d="M124.4,-48.24C110.4,-38.25 94.37,-26.82 83.66,-19.18"/>
<polygon fill="#63b8ff" stroke="#63b8ff" points="122.06,-51.58 132.23,-54.54 126.12,-45.88 122.06,-51.58"/>
</g>
<!-- Node7 -->
<g id="node7" class="node">
<title>Node7</title>
<g id="a_node7"><a xlink:href="interfaceAttachmentOpticsDovetailSVD.html" target="_top" xlink:title=" ">
<polygon fill="white" stroke="#666666" points="310,-19 161,-19 161,0 310,0 310,-19"/>
<text text-anchor="middle" x="235.5" y="-7" font-family="Helvetica,sans-Serif" font-size="10.00">AttachmentOpticsDovetailSVD</text>
</a>
</g>
</g>
<!-- Node1&#45;&gt;Node7 -->
<g id="edge6" class="edge">
<title>Node1&#45;&gt;Node7</title>
<path fill="none" stroke="#63b8ff" d="M182.6,-48.24C196.6,-38.25 212.63,-26.82 223.34,-19.18"/>
<polygon fill="#63b8ff" stroke="#63b8ff" points="180.88,-45.88 174.77,-54.54 184.94,-51.58 180.88,-45.88"/>
</g>
<!-- Node2 -->
<g id="node2" class="node">
<title>Node2</title>
<g id="a_node2"><a xlink:href="interfaceAttachmentOpticsDovetail.html" target="_top" xlink:title=" ">
<polygon fill="white" stroke="#666666" points="218,-140 89,-140 89,-121 218,-121 218,-140"/>
<text text-anchor="middle" x="153.5" y="-128" font-family="Helvetica,sans-Serif" font-size="10.00">AttachmentOpticsDovetail</text>
</a>
</g>
</g>
<!-- Node2&#45;&gt;Node1 -->
<g id="edge1" class="edge">
<title>Node2&#45;&gt;Node1</title>
<path fill="none" stroke="#63b8ff" d="M153.5,-110.08C153.5,-101.92 153.5,-92.6 153.5,-85.11"/>
<polygon fill="#63b8ff" stroke="#63b8ff" points="150,-109.87 153.5,-119.87 157,-109.87 150,-109.87"/>
</g>
<!-- Node3 -->
<g id="node3" class="node">
<title>Node3</title>
<g id="a_node3"><a xlink:href="interfaceAttachmentOptics.html" target="_top" xlink:title=" ">
<polygon fill="white" stroke="#666666" points="201,-195 106,-195 106,-176 201,-176 201,-195"/>
<text text-anchor="middle" x="153.5" y="-183" font-family="Helvetica,sans-Serif" font-size="10.00">AttachmentOptics</text>
</a>
</g>
</g>
<!-- Node3&#45;&gt;Node2 -->
<g id="edge2" class="edge">
<title>Node3&#45;&gt;Node2</title>
<path fill="none" stroke="#63b8ff" d="M153.5,-164.93C153.5,-156.53 153.5,-147.13 153.5,-140.44"/>
<polygon fill="#63b8ff" stroke="#63b8ff" points="150,-164.75 153.5,-174.75 157,-164.75 150,-164.75"/>
</g>
<!-- Node4 -->
<g id="node4" class="node">
<title>Node4</title>
<g id="a_node4"><a xlink:href="interfaceBaseAttachmentType.html" target="_top" xlink:title=" ">
<polygon fill="white" stroke="#666666" points="208.5,-250 98.5,-250 98.5,-231 208.5,-231 208.5,-250"/>
<text text-anchor="middle" x="153.5" y="-238" font-family="Helvetica,sans-Serif" font-size="10.00">BaseAttachmentType</text>
</a>
</g>
</g>
<!-- Node4&#45;&gt;Node3 -->
<g id="edge3" class="edge">
<title>Node4&#45;&gt;Node3</title>
<path fill="none" stroke="#63b8ff" d="M153.5,-219.93C153.5,-211.53 153.5,-202.13 153.5,-195.44"/>
<polygon fill="#63b8ff" stroke="#63b8ff" points="150,-219.75 153.5,-229.75 157,-219.75 150,-219.75"/>
</g>
<!-- Node5 -->
<g id="node5" class="node">
<title>Node5</title>
<g id="a_node5"><a xlink:title=" ">
<polygon fill="white" stroke="#666666" points="196.5,-305 110.5,-305 110.5,-286 196.5,-286 196.5,-305"/>
<text text-anchor="middle" x="153.5" y="-293" font-family="Helvetica,sans-Serif" font-size="10.00">ScriptAndConfig</text>
</a>
</g>
</g>
<!-- Node5&#45;&gt;Node4 -->
<g id="edge4" class="edge">
<title>Node5&#45;&gt;Node4</title>
<path fill="none" stroke="#63b8ff" d="M153.5,-274.93C153.5,-266.53 153.5,-257.13 153.5,-250.44"/>
<polygon fill="#63b8ff" stroke="#63b8ff" points="150,-274.75 153.5,-284.75 157,-274.75 150,-274.75"/>
</g>
</g>
</svg>
