<?xml version="1.0" encoding="UTF-8" standalone="no"?>
<!DOCTYPE svg PUBLIC "-//W3C//DTD SVG 1.1//EN"
 "http://www.w3.org/Graphics/SVG/1.1/DTD/svg11.dtd">
<!-- Generated by graphviz version 8.0.2 (20230410.1723)
 -->
<!-- Title: SCR_ScenarioFrameworkInventoryLoader Pages: 1 -->
<svg width="183pt" height="148pt"
 viewBox="0.00 0.00 183.00 148.00" xmlns="http://www.w3.org/2000/svg" xmlns:xlink="http://www.w3.org/1999/xlink">
<g id="graph0" class="graph" transform="scale(1 1) rotate(0) translate(4 144)">
<title>SCR_ScenarioFrameworkInventoryLoader</title>
<!-- Node1 -->
<g id="node1" class="node">
<title>Node1</title>
<g id="a_node1"><a xlink:title=" ">
<polygon fill="#999999" stroke="#666666" points="171,-30 4,-30 4,0 171,0 171,-30"/>
<text text-anchor="start" x="12" y="-18" font-family="Helvetica,sans-Serif" font-size="10.00">SCR_ScenarioFrameworkInventory</text>
<text text-anchor="middle" x="87.5" y="-7" font-family="Helvetica,sans-Serif" font-size="10.00">Loader</text>
</a>
</g>
</g>
<!-- Node2 -->
<g id="node2" class="node">
<title>Node2</title>
<g id="a_node2"><a xlink:href="interfaceSCR__ScenarioFrameworkLayerBase.html" target="_top" xlink:title=" ">
<polygon fill="white" stroke="#666666" points="175,-85 0,-85 0,-66 175,-66 175,-85"/>
<text text-anchor="middle" x="87.5" y="-73" font-family="Helvetica,sans-Serif" font-size="10.00">SCR_ScenarioFrameworkLayerBase</text>
</a>
</g>
</g>
<!-- Node2&#45;&gt;Node1 -->
<g id="edge1" class="edge">
<title>Node2&#45;&gt;Node1</title>
<path fill="none" stroke="#63b8ff" d="M87.5,-55.08C87.5,-46.92 87.5,-37.6 87.5,-30.11"/>
<polygon fill="#63b8ff" stroke="#63b8ff" points="84,-54.87 87.5,-64.87 91,-54.87 84,-54.87"/>
</g>
<!-- Node3 -->
<g id="node3" class="node">
<title>Node3</title>
<g id="a_node3"><a xlink:title=" ">
<polygon fill="white" stroke="#666666" points="133.5,-140 41.5,-140 41.5,-121 133.5,-121 133.5,-140"/>
<text text-anchor="middle" x="87.5" y="-128" font-family="Helvetica,sans-Serif" font-size="10.00">ScriptComponent</text>
</a>
</g>
</g>
<!-- Node3&#45;&gt;Node2 -->
<g id="edge2" class="edge">
<title>Node3&#45;&gt;Node2</title>
<path fill="none" stroke="#63b8ff" d="M87.5,-109.93C87.5,-101.53 87.5,-92.13 87.5,-85.44"/>
<polygon fill="#63b8ff" stroke="#63b8ff" points="84,-109.75 87.5,-119.75 91,-109.75 84,-109.75"/>
</g>
</g>
</svg>
