<?xml version="1.0" encoding="UTF-8" standalone="no"?>
<!DOCTYPE svg PUBLIC "-//W3C//DTD SVG 1.1//EN"
 "http://www.w3.org/Graphics/SVG/1.1/DTD/svg11.dtd">
<!-- Generated by graphviz version 8.0.2 (20230410.1723)
 -->
<!-- Title: SCR_AIWaypoint Pages: 1 -->
<svg width="591pt" height="230pt"
 viewBox="0.00 0.00 591.00 230.00" xmlns="http://www.w3.org/2000/svg" xmlns:xlink="http://www.w3.org/1999/xlink">
<g id="graph0" class="graph" transform="scale(1 1) rotate(0) translate(4 226)">
<title>SCR_AIWaypoint</title>
<!-- Node1 -->
<g id="node1" class="node">
<title>Node1</title>
<g id="a_node1"><a xlink:title=" ">
<polygon fill="#999999" stroke="#666666" points="195,-111 103,-111 103,-92 195,-92 195,-111"/>
<text text-anchor="middle" x="149" y="-99" font-family="Helvetica,sans-Serif" font-size="10.00">SCR_AIWaypoint</text>
</a>
</g>
</g>
<!-- Node3 -->
<g id="node3" class="node">
<title>Node3</title>
<g id="a_node3"><a xlink:href="interfaceSCR__BoardingWaypoint.html" target="_top" xlink:title=" ">
<polygon fill="white" stroke="#666666" points="376,-204 254,-204 254,-185 376,-185 376,-204"/>
<text text-anchor="middle" x="315" y="-192" font-family="Helvetica,sans-Serif" font-size="10.00">SCR_BoardingWaypoint</text>
</a>
</g>
</g>
<!-- Node1&#45;&gt;Node3 -->
<g id="edge2" class="edge">
<title>Node1&#45;&gt;Node3</title>
<path fill="none" stroke="#63b8ff" d="M164.37,-119.5C179.2,-136.82 203.93,-162.4 231,-176.5 238.06,-180.18 245.84,-183.11 253.71,-185.44"/>
<polygon fill="#63b8ff" stroke="#63b8ff" points="166.64,-117.76 157.55,-112.3 161.25,-122.23 166.64,-117.76"/>
</g>
<!-- Node6 -->
<g id="node6" class="node">
<title>Node6</title>
<g id="a_node6"><a xlink:href="interfaceSCR__DeploySmokeCoverWaypoint.html" target="_top" xlink:title=" ">
<polygon fill="white" stroke="#666666" points="399,-167 231,-167 231,-148 399,-148 399,-167"/>
<text text-anchor="middle" x="315" y="-155" font-family="Helvetica,sans-Serif" font-size="10.00">SCR_DeploySmokeCoverWaypoint</text>
</a>
</g>
</g>
<!-- Node1&#45;&gt;Node6 -->
<g id="edge5" class="edge">
<title>Node1&#45;&gt;Node6</title>
<path fill="none" stroke="#63b8ff" d="M177.59,-116.34C192.96,-124.12 212.65,-133.3 231,-139.5 240.08,-142.57 249.9,-145.24 259.5,-147.52"/>
<polygon fill="#63b8ff" stroke="#63b8ff" points="179.66,-112.95 169.17,-111.47 176.45,-119.17 179.66,-112.95"/>
</g>
<!-- Node7 -->
<g id="node7" class="node">
<title>Node7</title>
<g id="a_node7"><a xlink:href="interfaceSCR__EntityWaypoint.html" target="_top" xlink:title=" ">
<polygon fill="white" stroke="#666666" points="369.5,-130 260.5,-130 260.5,-111 369.5,-111 369.5,-130"/>
<text text-anchor="middle" x="315" y="-118" font-family="Helvetica,sans-Serif" font-size="10.00">SCR_EntityWaypoint</text>
</a>
</g>
</g>
<!-- Node1&#45;&gt;Node7 -->
<g id="edge6" class="edge">
<title>Node1&#45;&gt;Node7</title>
<path fill="none" stroke="#63b8ff" d="M205.91,-107.98C223.45,-110.01 242.77,-112.25 260.17,-114.26"/>
<polygon fill="#63b8ff" stroke="#63b8ff" points="206.58,-104.42 196.25,-106.74 205.78,-111.37 206.58,-104.42"/>
</g>
<!-- Node8 -->
<g id="node8" class="node">
<title>Node8</title>
<g id="a_node8"><a xlink:href="interfaceSCR__SmartActionWaypoint.html" target="_top" xlink:title=" ">
<polygon fill="white" stroke="#666666" points="383.5,-93 246.5,-93 246.5,-74 383.5,-74 383.5,-93"/>
<text text-anchor="middle" x="315" y="-81" font-family="Helvetica,sans-Serif" font-size="10.00">SCR_SmartActionWaypoint</text>
</a>
</g>
</g>
<!-- Node1&#45;&gt;Node8 -->
<g id="edge7" class="edge">
<title>Node1&#45;&gt;Node8</title>
<path fill="none" stroke="#63b8ff" d="M205.87,-95.37C218.83,-93.95 232.76,-92.42 246.16,-90.95"/>
<polygon fill="#63b8ff" stroke="#63b8ff" points="205.81,-91.96 196.25,-96.53 206.57,-98.92 205.81,-91.96"/>
</g>
<!-- Node9 -->
<g id="node9" class="node">
<title>Node9</title>
<g id="a_node9"><a xlink:href="interfaceSCR__TimedWaypoint.html" target="_top" xlink:title=" ">
<polygon fill="white" stroke="#666666" points="370,-56 260,-56 260,-37 370,-37 370,-56"/>
<text text-anchor="middle" x="315" y="-44" font-family="Helvetica,sans-Serif" font-size="10.00">SCR_TimedWaypoint</text>
</a>
</g>
</g>
<!-- Node1&#45;&gt;Node9 -->
<g id="edge8" class="edge">
<title>Node1&#45;&gt;Node9</title>
<path fill="none" stroke="#63b8ff" d="M177.94,-86.93C193.28,-79.4 212.83,-70.54 231,-64.5 240.23,-61.43 250.22,-58.75 259.97,-56.45"/>
<polygon fill="#63b8ff" stroke="#63b8ff" points="176.9,-84.04 169.52,-91.65 180.03,-90.3 176.9,-84.04"/>
</g>
<!-- Node12 -->
<g id="node12" class="node">
<title>Node12</title>
<g id="a_node12"><a xlink:href="interfaceSCR__TransportWaypoint.html" target="_top" xlink:title=" ">
<polygon fill="white" stroke="#666666" points="377,-19 253,-19 253,0 377,0 377,-19"/>
<text text-anchor="middle" x="315" y="-7" font-family="Helvetica,sans-Serif" font-size="10.00">SCR_TransportWaypoint</text>
</a>
</g>
</g>
<!-- Node1&#45;&gt;Node12 -->
<g id="edge11" class="edge">
<title>Node1&#45;&gt;Node12</title>
<path fill="none" stroke="#63b8ff" d="M164.66,-83.47C179.55,-66.39 204.2,-41.35 231,-27.5 237.81,-23.98 245.28,-21.15 252.86,-18.87"/>
<polygon fill="#63b8ff" stroke="#63b8ff" points="161.59,-80.68 157.8,-90.58 166.93,-85.2 161.59,-80.68"/>
</g>
<!-- Node2 -->
<g id="node2" class="node">
<title>Node2</title>
<g id="a_node2"><a xlink:title=" ">
<polygon fill="white" stroke="#666666" points="67,-111 0,-111 0,-92 67,-92 67,-111"/>
<text text-anchor="middle" x="33.5" y="-99" font-family="Helvetica,sans-Serif" font-size="10.00">AIWaypoint</text>
</a>
</g>
</g>
<!-- Node2&#45;&gt;Node1 -->
<g id="edge1" class="edge">
<title>Node2&#45;&gt;Node1</title>
<path fill="none" stroke="#63b8ff" d="M78.28,-101.5C86.24,-101.5 94.57,-101.5 102.58,-101.5"/>
<polygon fill="#63b8ff" stroke="#63b8ff" points="78.33,-98 68.33,-101.5 78.33,-105 78.33,-98"/>
</g>
<!-- Node4 -->
<g id="node4" class="node">
<title>Node4</title>
<g id="a_node4"><a xlink:href="interfaceSCR__BoardingEntityWaypoint.html" target="_top" xlink:title=" ">
<polygon fill="white" stroke="#666666" points="582.5,-222 435.5,-222 435.5,-203 582.5,-203 582.5,-222"/>
<text text-anchor="middle" x="509" y="-210" font-family="Helvetica,sans-Serif" font-size="10.00">SCR_BoardingEntityWaypoint</text>
</a>
</g>
</g>
<!-- Node3&#45;&gt;Node4 -->
<g id="edge3" class="edge">
<title>Node3&#45;&gt;Node4</title>
<path fill="none" stroke="#63b8ff" d="M387.13,-201.17C402.76,-202.63 419.33,-204.19 435.02,-205.66"/>
<polygon fill="#63b8ff" stroke="#63b8ff" points="387.77,-197.62 377.49,-200.17 387.12,-204.59 387.77,-197.62"/>
</g>
<!-- Node5 -->
<g id="node5" class="node">
<title>Node5</title>
<g id="a_node5"><a xlink:href="interfaceSCR__BoardingTimedWaypoint.html" target="_top" xlink:title=" ">
<polygon fill="white" stroke="#666666" points="583,-185 435,-185 435,-166 583,-166 583,-185"/>
<text text-anchor="middle" x="509" y="-173" font-family="Helvetica,sans-Serif" font-size="10.00">SCR_BoardingTimedWaypoint</text>
</a>
</g>
</g>
<!-- Node3&#45;&gt;Node5 -->
<g id="edge4" class="edge">
<title>Node3&#45;&gt;Node5</title>
<path fill="none" stroke="#63b8ff" d="M387.07,-187.47C402.6,-185.93 419.06,-184.3 434.68,-182.76"/>
<polygon fill="#63b8ff" stroke="#63b8ff" points="387.09,-184.05 377.49,-188.51 387.78,-191.01 387.09,-184.05"/>
</g>
<!-- Node10 -->
<g id="node10" class="node">
<title>Node10</title>
<g id="a_node10"><a xlink:href="interfaceSCR__DefendWaypoint.html" target="_top" xlink:title=" ">
<polygon fill="white" stroke="#666666" points="565.5,-75 452.5,-75 452.5,-56 565.5,-56 565.5,-75"/>
<text text-anchor="middle" x="509" y="-63" font-family="Helvetica,sans-Serif" font-size="10.00">SCR_DefendWaypoint</text>
</a>
</g>
</g>
<!-- Node9&#45;&gt;Node10 -->
<g id="edge9" class="edge">
<title>Node9&#45;&gt;Node10</title>
<path fill="none" stroke="#63b8ff" d="M381.01,-52.93C404.13,-55.22 429.94,-57.77 452.22,-59.98"/>
<polygon fill="#63b8ff" stroke="#63b8ff" points="381.55,-49.37 371.25,-51.87 380.86,-56.34 381.55,-49.37"/>
</g>
<!-- Node11 -->
<g id="node11" class="node">
<title>Node11</title>
<g id="a_node11"><a xlink:href="interfaceSCR__SuppressWaypoint.html" target="_top" xlink:title=" ">
<polygon fill="white" stroke="#666666" points="571.5,-38 446.5,-38 446.5,-19 571.5,-19 571.5,-38"/>
<text text-anchor="middle" x="509" y="-26" font-family="Helvetica,sans-Serif" font-size="10.00">SCR_SuppressWaypoint</text>
</a>
</g>
</g>
<!-- Node9&#45;&gt;Node11 -->
<g id="edge10" class="edge">
<title>Node9&#45;&gt;Node11</title>
<path fill="none" stroke="#63b8ff" d="M381.02,-40.4C402.05,-38.43 425.3,-36.25 446.1,-34.3"/>
<polygon fill="#63b8ff" stroke="#63b8ff" points="380.88,-37 371.25,-41.41 381.53,-43.97 380.88,-37"/>
</g>
</g>
</svg>
