<?xml version="1.0" encoding="UTF-8" standalone="no"?>
<!DOCTYPE svg PUBLIC "-//W3C//DTD SVG 1.1//EN"
 "http://www.w3.org/Graphics/SVG/1.1/DTD/svg11.dtd">
<!-- Generated by graphviz version 8.0.2 (20230410.1723)
 -->
<!-- Title: InventorySearchPredicate Pages: 1 -->
<svg width="602pt" height="395pt"
 viewBox="0.00 0.00 602.00 394.50" xmlns="http://www.w3.org/2000/svg" xmlns:xlink="http://www.w3.org/1999/xlink">
<g id="graph0" class="graph" transform="scale(1 1) rotate(0) translate(4 390.5)">
<title>InventorySearchPredicate</title>
<!-- Node1 -->
<g id="node1" class="node">
<title>Node1</title>
<g id="a_node1"><a xlink:title=" ">
<polygon fill="#999999" stroke="#666666" points="404,-185 277,-185 277,-166 404,-166 404,-185"/>
<text text-anchor="middle" x="340.5" y="-173" font-family="Helvetica,sans-Serif" font-size="10.00">InventorySearchPredicate</text>
</a>
</g>
</g>
<!-- Node4 -->
<g id="node4" class="node">
<title>Node4</title>
<g id="a_node4"><a xlink:href="interfaceSCR__ApplicableMedicalItemPredicate.html" target="_top" xlink:title=" ">
<polygon fill="white" stroke="#666666" points="587,-386.5 447,-386.5 447,-356.5 587,-356.5 587,-386.5"/>
<text text-anchor="start" x="455" y="-374.5" font-family="Helvetica,sans-Serif" font-size="10.00">SCR_ApplicableMedicalItem</text>
<text text-anchor="middle" x="517" y="-363.5" font-family="Helvetica,sans-Serif" font-size="10.00">Predicate</text>
</a>
</g>
</g>
<!-- Node1&#45;&gt;Node4 -->
<g id="edge3" class="edge">
<title>Node1&#45;&gt;Node4</title>
<path fill="none" stroke="#63b8ff" d="M347.54,-195.5C359.37,-231.29 388.99,-306.39 440,-347.5 444.09,-350.8 448.65,-353.65 453.43,-356.11"/>
<polygon fill="#63b8ff" stroke="#63b8ff" points="350.68,-194.83 344.32,-186.35 344.01,-196.94 350.68,-194.83"/>
</g>
<!-- Node5 -->
<g id="node5" class="node">
<title>Node5</title>
<g id="a_node5"><a xlink:href="interfaceSCR__BandagePredicate.html" target="_top" xlink:title=" ">
<polygon fill="white" stroke="#666666" points="578,-338 456,-338 456,-319 578,-319 578,-338"/>
<text text-anchor="middle" x="517" y="-326" font-family="Helvetica,sans-Serif" font-size="10.00">SCR_BandagePredicate</text>
</a>
</g>
</g>
<!-- Node1&#45;&gt;Node5 -->
<g id="edge4" class="edge">
<title>Node1&#45;&gt;Node5</title>
<path fill="none" stroke="#63b8ff" d="M350.36,-195C364.79,-224.49 396.22,-280.13 440,-309.5 445.53,-313.21 451.73,-316.2 458.14,-318.6"/>
<polygon fill="#63b8ff" stroke="#63b8ff" points="353.26,-193.95 345.82,-186.41 346.93,-196.95 353.26,-193.95"/>
</g>
<!-- Node6 -->
<g id="node6" class="node">
<title>Node6</title>
<g id="a_node6"><a xlink:href="interfaceSCR__CommonItemTypeSearchPredicate.html" target="_top" xlink:title=" ">
<polygon fill="white" stroke="#666666" points="593,-300.5 441,-300.5 441,-270.5 593,-270.5 593,-300.5"/>
<text text-anchor="start" x="449" y="-288.5" font-family="Helvetica,sans-Serif" font-size="10.00">SCR_CommonItemTypeSearch</text>
<text text-anchor="middle" x="517" y="-277.5" font-family="Helvetica,sans-Serif" font-size="10.00">Predicate</text>
</a>
</g>
</g>
<!-- Node1&#45;&gt;Node6 -->
<g id="edge5" class="edge">
<title>Node1&#45;&gt;Node6</title>
<path fill="none" stroke="#63b8ff" d="M357.69,-193.5C375.95,-212.82 407.39,-243.18 440,-261.5 445.79,-264.75 452.08,-267.63 458.48,-270.16"/>
<polygon fill="#63b8ff" stroke="#63b8ff" points="360.63,-191.45 351.27,-186.49 355.49,-196.2 360.63,-191.45"/>
</g>
<!-- Node7 -->
<g id="node7" class="node">
<title>Node7</title>
<g id="a_node7"><a xlink:href="interfaceSCR__CompatibleAttachmentPredicate.html" target="_top" xlink:title="Searches for attachments of the defined atttachmentType.">
<polygon fill="white" stroke="#666666" points="587.5,-252.5 446.5,-252.5 446.5,-222.5 587.5,-222.5 587.5,-252.5"/>
<text text-anchor="start" x="454.5" y="-240.5" font-family="Helvetica,sans-Serif" font-size="10.00">SCR_CompatibleAttachment</text>
<text text-anchor="middle" x="517" y="-229.5" font-family="Helvetica,sans-Serif" font-size="10.00">Predicate</text>
</a>
</g>
</g>
<!-- Node1&#45;&gt;Node7 -->
<g id="edge6" class="edge">
<title>Node1&#45;&gt;Node7</title>
<path fill="none" stroke="#63b8ff" d="M376.2,-189.49C394.98,-196.91 418.64,-206.02 440,-213.5 448.23,-216.38 457.01,-219.3 465.57,-222.06"/>
<polygon fill="#63b8ff" stroke="#63b8ff" points="377.62,-185.9 367.04,-185.45 375.04,-192.4 377.62,-185.9"/>
</g>
<!-- Node8 -->
<g id="node8" class="node">
<title>Node8</title>
<g id="a_node8"><a xlink:href="interfaceSCR__HoldableItemPredicate.html" target="_top" xlink:title=" ">
<polygon fill="white" stroke="#666666" points="587,-204 447,-204 447,-185 587,-185 587,-204"/>
<text text-anchor="middle" x="517" y="-192" font-family="Helvetica,sans-Serif" font-size="10.00">SCR_HoldableItemPredicate</text>
</a>
</g>
</g>
<!-- Node1&#45;&gt;Node8 -->
<g id="edge7" class="edge">
<title>Node1&#45;&gt;Node8</title>
<path fill="none" stroke="#63b8ff" d="M415.22,-183.53C425.62,-184.66 436.28,-185.82 446.59,-186.94"/>
<polygon fill="#63b8ff" stroke="#63b8ff" points="415.82,-179.96 405.5,-182.36 415.06,-186.92 415.82,-179.96"/>
</g>
<!-- Node9 -->
<g id="node9" class="node">
<title>Node9</title>
<g id="a_node9"><a xlink:href="interfaceSCR__ItemTypeSearchPredicate.html" target="_top" xlink:title=" ">
<polygon fill="white" stroke="#666666" points="594,-167 440,-167 440,-148 594,-148 594,-167"/>
<text text-anchor="middle" x="517" y="-155" font-family="Helvetica,sans-Serif" font-size="10.00">SCR_ItemTypeSearchPredicate</text>
</a>
</g>
</g>
<!-- Node1&#45;&gt;Node9 -->
<g id="edge8" class="edge">
<title>Node1&#45;&gt;Node9</title>
<path fill="none" stroke="#63b8ff" d="M415.36,-167.88C423.41,-167.05 431.62,-166.2 439.7,-165.37"/>
<polygon fill="#63b8ff" stroke="#63b8ff" points="415.09,-164.49 405.5,-169 415.8,-171.46 415.09,-164.49"/>
</g>
<!-- Node10 -->
<g id="node10" class="node">
<title>Node10</title>
<g id="a_node10"><a xlink:href="interfaceSCR__MagazinePredicate.html" target="_top" xlink:title="Searches for magazines with certain mag well.">
<polygon fill="white" stroke="#666666" points="579.5,-130 454.5,-130 454.5,-111 579.5,-111 579.5,-130"/>
<text text-anchor="middle" x="517" y="-118" font-family="Helvetica,sans-Serif" font-size="10.00">SCR_MagazinePredicate</text>
</a>
</g>
</g>
<!-- Node1&#45;&gt;Node10 -->
<g id="edge9" class="edge">
<title>Node1&#45;&gt;Node10</title>
<path fill="none" stroke="#63b8ff" d="M375.64,-161.46C394.43,-154.04 418.28,-145.12 440,-138.5 449.6,-135.57 460,-132.84 469.93,-130.42"/>
<polygon fill="#63b8ff" stroke="#63b8ff" points="374.48,-158.55 366.49,-165.51 377.08,-165.05 374.48,-158.55"/>
</g>
<!-- Node11 -->
<g id="node11" class="node">
<title>Node11</title>
<g id="a_node11"><a xlink:href="interfaceSCR__PrefabDataPredicate.html" target="_top" xlink:title="Searches for items with same prefab data (prefer this to prefab name if you have prefab data already)">
<polygon fill="white" stroke="#666666" points="582.5,-93 451.5,-93 451.5,-74 582.5,-74 582.5,-93"/>
<text text-anchor="middle" x="517" y="-81" font-family="Helvetica,sans-Serif" font-size="10.00">SCR_PrefabDataPredicate</text>
</a>
</g>
</g>
<!-- Node1&#45;&gt;Node11 -->
<g id="edge10" class="edge">
<title>Node1&#45;&gt;Node11</title>
<path fill="none" stroke="#63b8ff" d="M359.39,-158.4C378.07,-141.48 408.9,-116.08 440,-101.5 446.88,-98.28 454.38,-95.6 461.91,-93.39"/>
<polygon fill="#63b8ff" stroke="#63b8ff" points="357.45,-155.35 352.49,-164.72 362.2,-160.49 357.45,-155.35"/>
</g>
<!-- Node12 -->
<g id="node12" class="node">
<title>Node12</title>
<g id="a_node12"><a xlink:href="interfaceSCR__PrefabNamePredicate.html" target="_top" xlink:title="Searches for items with same prefab name.">
<polygon fill="white" stroke="#666666" points="585.5,-56 448.5,-56 448.5,-37 585.5,-37 585.5,-56"/>
<text text-anchor="middle" x="517" y="-44" font-family="Helvetica,sans-Serif" font-size="10.00">SCR_PrefabNamePredicate</text>
</a>
</g>
</g>
<!-- Node1&#45;&gt;Node12 -->
<g id="edge11" class="edge">
<title>Node1&#45;&gt;Node12</title>
<path fill="none" stroke="#63b8ff" d="M353,-156.48C369.2,-131.4 401.13,-87.74 440,-64.5 445.47,-61.23 451.49,-58.55 457.68,-56.36"/>
<polygon fill="#63b8ff" stroke="#63b8ff" points="349.58,-154.35 347.23,-164.68 355.51,-158.07 349.58,-154.35"/>
</g>
<!-- Node13 -->
<g id="node13" class="node">
<title>Node13</title>
<g id="a_node13"><a xlink:href="interfaceSCR__SalinePredicate.html" target="_top" xlink:title=" ">
<polygon fill="white" stroke="#666666" points="572,-19 462,-19 462,0 572,0 572,-19"/>
<text text-anchor="middle" x="517" y="-7" font-family="Helvetica,sans-Serif" font-size="10.00">SCR_SalinePredicate</text>
</a>
</g>
</g>
<!-- Node1&#45;&gt;Node13 -->
<g id="edge12" class="edge">
<title>Node1&#45;&gt;Node13</title>
<path fill="none" stroke="#63b8ff" d="M348.98,-155.74C362.21,-123.61 392.87,-60.31 440,-27.5 446.45,-23.01 453.89,-19.63 461.52,-17.08"/>
<polygon fill="#63b8ff" stroke="#63b8ff" points="345.46,-154.12 345.03,-164.71 351.97,-156.7 345.46,-154.12"/>
</g>
<!-- Node2 -->
<g id="node2" class="node">
<title>Node2</title>
<g id="a_node2"><a xlink:href="interfaceBaseInventorySearchPredicate.html" target="_top" xlink:title=" ">
<polygon fill="white" stroke="#666666" points="241,-185 92,-185 92,-166 241,-166 241,-185"/>
<text text-anchor="middle" x="166.5" y="-173" font-family="Helvetica,sans-Serif" font-size="10.00">BaseInventorySearchPredicate</text>
</a>
</g>
</g>
<!-- Node2&#45;&gt;Node1 -->
<g id="edge1" class="edge">
<title>Node2&#45;&gt;Node1</title>
<path fill="none" stroke="#63b8ff" d="M252.24,-175.5C260.48,-175.5 268.73,-175.5 276.7,-175.5"/>
<polygon fill="#63b8ff" stroke="#63b8ff" points="252.44,-172 242.44,-175.5 252.44,-179 252.44,-172"/>
</g>
<!-- Node3 -->
<g id="node3" class="node">
<title>Node3</title>
<g id="a_node3"><a xlink:title=" ">
<polygon fill="white" stroke="#666666" points="56,-185 0,-185 0,-166 56,-166 56,-185"/>
<text text-anchor="middle" x="28" y="-173" font-family="Helvetica,sans-Serif" font-size="10.00">Managed</text>
</a>
</g>
</g>
<!-- Node3&#45;&gt;Node2 -->
<g id="edge2" class="edge">
<title>Node3&#45;&gt;Node2</title>
<path fill="none" stroke="#63b8ff" d="M67.06,-175.5C74.77,-175.5 83.12,-175.5 91.58,-175.5"/>
<polygon fill="#63b8ff" stroke="#63b8ff" points="67.29,-172 57.29,-175.5 67.29,-179 67.29,-172"/>
</g>
</g>
</svg>
