<?xml version="1.0" encoding="UTF-8" standalone="no"?>
<!DOCTYPE svg PUBLIC "-//W3C//DTD SVG 1.1//EN"
 "http://www.w3.org/Graphics/SVG/1.1/DTD/svg11.dtd">
<!-- Generated by graphviz version 8.0.2 (20230410.1723)
 -->
<!-- Title: FlareMoveComponent Pages: 1 -->
<svg width="137pt" height="302pt"
 viewBox="0.00 0.00 137.00 302.00" xmlns="http://www.w3.org/2000/svg" xmlns:xlink="http://www.w3.org/1999/xlink">
<g id="graph0" class="graph" transform="scale(1 1) rotate(0) translate(4 298)">
<title>FlareMoveComponent</title>
<!-- Node1 -->
<g id="node1" class="node">
<title>Node1</title>
<g id="a_node1"><a xlink:title=" ">
<polygon fill="#999999" stroke="#666666" points="119.5,-19 9.5,-19 9.5,0 119.5,0 119.5,-19"/>
<text text-anchor="middle" x="64.5" y="-7" font-family="Helvetica,sans-Serif" font-size="10.00">FlareMoveComponent</text>
</a>
</g>
</g>
<!-- Node2 -->
<g id="node2" class="node">
<title>Node2</title>
<g id="a_node2"><a xlink:href="interfaceShellMoveComponent.html" target="_top" xlink:title=" ">
<polygon fill="white" stroke="#666666" points="119.5,-74 9.5,-74 9.5,-55 119.5,-55 119.5,-74"/>
<text text-anchor="middle" x="64.5" y="-62" font-family="Helvetica,sans-Serif" font-size="10.00">ShellMoveComponent</text>
</a>
</g>
</g>
<!-- Node2&#45;&gt;Node1 -->
<g id="edge1" class="edge">
<title>Node2&#45;&gt;Node1</title>
<path fill="none" stroke="#63b8ff" d="M64.5,-43.93C64.5,-35.53 64.5,-26.13 64.5,-19.44"/>
<polygon fill="#63b8ff" stroke="#63b8ff" points="61,-43.75 64.5,-53.75 68,-43.75 61,-43.75"/>
</g>
<!-- Node3 -->
<g id="node3" class="node">
<title>Node3</title>
<g id="a_node3"><a xlink:href="interfaceProjectileMoveComponent.html" target="_top" xlink:title=" ">
<polygon fill="white" stroke="#666666" points="129,-129 0,-129 0,-110 129,-110 129,-129"/>
<text text-anchor="middle" x="64.5" y="-117" font-family="Helvetica,sans-Serif" font-size="10.00">ProjectileMoveComponent</text>
</a>
</g>
</g>
<!-- Node3&#45;&gt;Node2 -->
<g id="edge2" class="edge">
<title>Node3&#45;&gt;Node2</title>
<path fill="none" stroke="#63b8ff" d="M64.5,-98.93C64.5,-90.53 64.5,-81.13 64.5,-74.44"/>
<polygon fill="#63b8ff" stroke="#63b8ff" points="61,-98.75 64.5,-108.75 68,-98.75 61,-98.75"/>
</g>
<!-- Node4 -->
<g id="node4" class="node">
<title>Node4</title>
<g id="a_node4"><a xlink:href="interfaceBaseProjectileComponent.html" target="_top" xlink:title=" ">
<polygon fill="white" stroke="#666666" points="129,-184 0,-184 0,-165 129,-165 129,-184"/>
<text text-anchor="middle" x="64.5" y="-172" font-family="Helvetica,sans-Serif" font-size="10.00">BaseProjectileComponent</text>
</a>
</g>
</g>
<!-- Node4&#45;&gt;Node3 -->
<g id="edge3" class="edge">
<title>Node4&#45;&gt;Node3</title>
<path fill="none" stroke="#63b8ff" d="M64.5,-153.93C64.5,-145.53 64.5,-136.13 64.5,-129.44"/>
<polygon fill="#63b8ff" stroke="#63b8ff" points="61,-153.75 64.5,-163.75 68,-153.75 61,-153.75"/>
</g>
<!-- Node5 -->
<g id="node5" class="node">
<title>Node5</title>
<g id="a_node5"><a xlink:href="interfaceGameComponent.html" target="_top" xlink:title=" ">
<polygon fill="white" stroke="#666666" points="110.5,-239 18.5,-239 18.5,-220 110.5,-220 110.5,-239"/>
<text text-anchor="middle" x="64.5" y="-227" font-family="Helvetica,sans-Serif" font-size="10.00">GameComponent</text>
</a>
</g>
</g>
<!-- Node5&#45;&gt;Node4 -->
<g id="edge4" class="edge">
<title>Node5&#45;&gt;Node4</title>
<path fill="none" stroke="#63b8ff" d="M64.5,-208.93C64.5,-200.53 64.5,-191.13 64.5,-184.44"/>
<polygon fill="#63b8ff" stroke="#63b8ff" points="61,-208.75 64.5,-218.75 68,-208.75 61,-208.75"/>
</g>
<!-- Node6 -->
<g id="node6" class="node">
<title>Node6</title>
<g id="a_node6"><a xlink:title=" ">
<polygon fill="white" stroke="#666666" points="114.5,-294 14.5,-294 14.5,-275 114.5,-275 114.5,-294"/>
<text text-anchor="middle" x="64.5" y="-282" font-family="Helvetica,sans-Serif" font-size="10.00">GenericComponent</text>
</a>
</g>
</g>
<!-- Node6&#45;&gt;Node5 -->
<g id="edge5" class="edge">
<title>Node6&#45;&gt;Node5</title>
<path fill="none" stroke="#63b8ff" d="M64.5,-263.93C64.5,-255.53 64.5,-246.13 64.5,-239.44"/>
<polygon fill="#63b8ff" stroke="#63b8ff" points="61,-263.75 64.5,-273.75 68,-263.75 61,-263.75"/>
</g>
</g>
</svg>
