<?xml version="1.0" encoding="UTF-8" standalone="no"?>
<!DOCTYPE svg PUBLIC "-//W3C//DTD SVG 1.1//EN"
 "http://www.w3.org/Graphics/SVG/1.1/DTD/svg11.dtd">
<!-- Generated by graphviz version 8.0.2 (20230410.1723)
 -->
<!-- Title: MissionHeader Pages: 1 -->
<svg width="334pt" height="192pt"
 viewBox="0.00 0.00 334.00 192.00" xmlns="http://www.w3.org/2000/svg" xmlns:xlink="http://www.w3.org/1999/xlink">
<g id="graph0" class="graph" transform="scale(1 1) rotate(0) translate(4 188)">
<title>MissionHeader</title>
<!-- Node1 -->
<g id="node1" class="node">
<title>Node1</title>
<g id="a_node1"><a xlink:title="Base class for interaction with mission headers.">
<polygon fill="#999999" stroke="#666666" points="201.5,-129 120.5,-129 120.5,-110 201.5,-110 201.5,-129"/>
<text text-anchor="middle" x="161" y="-117" font-family="Helvetica,sans-Serif" font-size="10.00">MissionHeader</text>
</a>
</g>
</g>
<!-- Node3 -->
<g id="node3" class="node">
<title>Node3</title>
<g id="a_node3"><a xlink:href="interfaceSCR__MissionHeader.html" target="_top" xlink:title=" ">
<polygon fill="white" stroke="#666666" points="214.5,-74 107.5,-74 107.5,-55 214.5,-55 214.5,-74"/>
<text text-anchor="middle" x="161" y="-62" font-family="Helvetica,sans-Serif" font-size="10.00">SCR_MissionHeader</text>
</a>
</g>
</g>
<!-- Node1&#45;&gt;Node3 -->
<g id="edge2" class="edge">
<title>Node1&#45;&gt;Node3</title>
<path fill="none" stroke="#63b8ff" d="M161,-98.93C161,-90.53 161,-81.13 161,-74.44"/>
<polygon fill="#63b8ff" stroke="#63b8ff" points="157.5,-98.75 161,-108.75 164.5,-98.75 157.5,-98.75"/>
</g>
<!-- Node2 -->
<g id="node2" class="node">
<title>Node2</title>
<g id="a_node2"><a xlink:title=" ">
<polygon fill="white" stroke="#666666" points="204,-184 118,-184 118,-165 204,-165 204,-184"/>
<text text-anchor="middle" x="161" y="-172" font-family="Helvetica,sans-Serif" font-size="10.00">ScriptAndConfig</text>
</a>
</g>
</g>
<!-- Node2&#45;&gt;Node1 -->
<g id="edge1" class="edge">
<title>Node2&#45;&gt;Node1</title>
<path fill="none" stroke="#63b8ff" d="M161,-153.93C161,-145.53 161,-136.13 161,-129.44"/>
<polygon fill="#63b8ff" stroke="#63b8ff" points="157.5,-153.75 161,-163.75 164.5,-153.75 157.5,-153.75"/>
</g>
<!-- Node4 -->
<g id="node4" class="node">
<title>Node4</title>
<g id="a_node4"><a xlink:href="interfaceSCR__MissionHeaderCampaign.html" target="_top" xlink:title=" ">
<polygon fill="white" stroke="#666666" points="150,-19 0,-19 0,0 150,0 150,-19"/>
<text text-anchor="middle" x="75" y="-7" font-family="Helvetica,sans-Serif" font-size="10.00">SCR_MissionHeaderCampaign</text>
</a>
</g>
</g>
<!-- Node3&#45;&gt;Node4 -->
<g id="edge3" class="edge">
<title>Node3&#45;&gt;Node4</title>
<path fill="none" stroke="#63b8ff" d="M137.47,-49C122.08,-39.52 102.48,-27.43 89.37,-19.36"/>
<polygon fill="#63b8ff" stroke="#63b8ff" points="135.06,-52.24 145.41,-54.51 138.73,-46.28 135.06,-52.24"/>
</g>
<!-- Node5 -->
<g id="node5" class="node">
<title>Node5</title>
<g id="a_node5"><a xlink:href="interfaceSCR__MissionHeaderCombatOps.html" target="_top" xlink:title=" ">
<polygon fill="white" stroke="#666666" points="326,-19 168,-19 168,0 326,0 326,-19"/>
<text text-anchor="middle" x="247" y="-7" font-family="Helvetica,sans-Serif" font-size="10.00">SCR_MissionHeaderCombatOps</text>
</a>
</g>
</g>
<!-- Node3&#45;&gt;Node5 -->
<g id="edge4" class="edge">
<title>Node3&#45;&gt;Node5</title>
<path fill="none" stroke="#63b8ff" d="M184.53,-49C199.92,-39.52 219.52,-27.43 232.63,-19.36"/>
<polygon fill="#63b8ff" stroke="#63b8ff" points="183.27,-46.28 176.59,-54.51 186.94,-52.24 183.27,-46.28"/>
</g>
</g>
</svg>
