<?xml version="1.0" encoding="UTF-8" standalone="no"?>
<!DOCTYPE svg PUBLIC "-//W3C//DTD SVG 1.1//EN"
 "http://www.w3.org/Graphics/SVG/1.1/DTD/svg11.dtd">
<!-- Generated by graphviz version 8.0.2 (20230410.1723)
 -->
<!-- Title: SCR_ConsumableTourniquet Pages: 1 -->
<svg width="157pt" height="203pt"
 viewBox="0.00 0.00 157.00 203.00" xmlns="http://www.w3.org/2000/svg" xmlns:xlink="http://www.w3.org/1999/xlink">
<g id="graph0" class="graph" transform="scale(1 1) rotate(0) translate(4 199)">
<title>SCR_ConsumableTourniquet</title>
<!-- Node1 -->
<g id="node1" class="node">
<title>Node1</title>
<g id="a_node1"><a xlink:title="Tourniquet effect.">
<polygon fill="#999999" stroke="#666666" points="145,-19 4,-19 4,0 145,0 145,-19"/>
<text text-anchor="middle" x="74.5" y="-7" font-family="Helvetica,sans-Serif" font-size="10.00">SCR_ConsumableTourniquet</text>
</a>
</g>
</g>
<!-- Node2 -->
<g id="node2" class="node">
<title>Node2</title>
<g id="a_node2"><a xlink:href="interfaceSCR__ConsumableEffectHealthItems.html" target="_top" xlink:title=" ">
<polygon fill="white" stroke="#666666" points="149,-85 0,-85 0,-55 149,-55 149,-85"/>
<text text-anchor="start" x="8" y="-73" font-family="Helvetica,sans-Serif" font-size="10.00">SCR_ConsumableEffectHealth</text>
<text text-anchor="middle" x="74.5" y="-62" font-family="Helvetica,sans-Serif" font-size="10.00">Items</text>
</a>
</g>
</g>
<!-- Node2&#45;&gt;Node1 -->
<g id="edge1" class="edge">
<title>Node2&#45;&gt;Node1</title>
<path fill="none" stroke="#63b8ff" d="M74.5,-43.59C74.5,-34.85 74.5,-25.65 74.5,-19.18"/>
<polygon fill="#63b8ff" stroke="#63b8ff" points="71,-43.54 74.5,-53.54 78,-43.54 71,-43.54"/>
</g>
<!-- Node3 -->
<g id="node3" class="node">
<title>Node3</title>
<g id="a_node3"><a xlink:href="interfaceSCR__ConsumableEffectBase.html" target="_top" xlink:title="Effect assigned to the consumable gadget.">
<polygon fill="white" stroke="#666666" points="146,-140 3,-140 3,-121 146,-121 146,-140"/>
<text text-anchor="middle" x="74.5" y="-128" font-family="Helvetica,sans-Serif" font-size="10.00">SCR_ConsumableEffectBase</text>
</a>
</g>
</g>
<!-- Node3&#45;&gt;Node2 -->
<g id="edge2" class="edge">
<title>Node3&#45;&gt;Node2</title>
<path fill="none" stroke="#63b8ff" d="M74.5,-110.08C74.5,-101.92 74.5,-92.6 74.5,-85.11"/>
<polygon fill="#63b8ff" stroke="#63b8ff" points="71,-109.87 74.5,-119.87 78,-109.87 71,-109.87"/>
</g>
<!-- Node4 -->
<g id="node4" class="node">
<title>Node4</title>
<g id="a_node4"><a xlink:title=" ">
<polygon fill="white" stroke="#666666" points="102.5,-195 46.5,-195 46.5,-176 102.5,-176 102.5,-195"/>
<text text-anchor="middle" x="74.5" y="-183" font-family="Helvetica,sans-Serif" font-size="10.00">Managed</text>
</a>
</g>
</g>
<!-- Node4&#45;&gt;Node3 -->
<g id="edge3" class="edge">
<title>Node4&#45;&gt;Node3</title>
<path fill="none" stroke="#63b8ff" d="M74.5,-164.93C74.5,-156.53 74.5,-147.13 74.5,-140.44"/>
<polygon fill="#63b8ff" stroke="#63b8ff" points="71,-164.75 74.5,-174.75 78,-164.75 71,-164.75"/>
</g>
</g>
</svg>
