<?xml version="1.0" encoding="UTF-8" standalone="no"?>
<!DOCTYPE svg PUBLIC "-//W3C//DTD SVG 1.1//EN"
 "http://www.w3.org/Graphics/SVG/1.1/DTD/svg11.dtd">
<!-- Generated by graphviz version 8.0.2 (20230410.1723)
 -->
<!-- Title: BaseProjectileComponentClass Pages: 1 -->
<svg width="1057pt" height="283pt"
 viewBox="0.00 0.00 1057.00 282.50" xmlns="http://www.w3.org/2000/svg" xmlns:xlink="http://www.w3.org/1999/xlink">
<g id="graph0" class="graph" transform="scale(1 1) rotate(0) translate(4 278.5)">
<title>BaseProjectileComponentClass</title>
<!-- Node1 -->
<g id="node1" class="node">
<title>Node1</title>
<g id="a_node1"><a xlink:title=" ">
<polygon fill="#999999" stroke="#666666" points="468,-173 314,-173 314,-154 468,-154 468,-173"/>
<text text-anchor="middle" x="391" y="-161" font-family="Helvetica,sans-Serif" font-size="10.00">BaseProjectileComponentClass</text>
</a>
</g>
</g>
<!-- Node4 -->
<g id="node4" class="node">
<title>Node4</title>
<g id="a_node4"><a xlink:href="interfaceBaseMissileGuidanceComponentClass.html" target="_top" xlink:title=" ">
<polygon fill="white" stroke="#666666" points="665,-221.5 504,-221.5 504,-191.5 665,-191.5 665,-221.5"/>
<text text-anchor="start" x="512" y="-209.5" font-family="Helvetica,sans-Serif" font-size="10.00">BaseMissileGuidanceComponent</text>
<text text-anchor="middle" x="584.5" y="-198.5" font-family="Helvetica,sans-Serif" font-size="10.00">Class</text>
</a>
</g>
</g>
<!-- Node1&#45;&gt;Node4 -->
<g id="edge3" class="edge">
<title>Node1&#45;&gt;Node4</title>
<path fill="none" stroke="#63b8ff" d="M447.1,-175.87C468.14,-180.6 492.4,-186.04 514.57,-191.02"/>
<polygon fill="#63b8ff" stroke="#63b8ff" points="447.94,-172.25 437.42,-173.47 446.41,-179.08 447.94,-172.25"/>
</g>
<!-- Node5 -->
<g id="node5" class="node">
<title>Node5</title>
<g id="a_node5"><a xlink:href="interfaceBaseTriggerComponentClass.html" target="_top" xlink:title=" ">
<polygon fill="white" stroke="#666666" points="656,-173 513,-173 513,-154 656,-154 656,-173"/>
<text text-anchor="middle" x="584.5" y="-161" font-family="Helvetica,sans-Serif" font-size="10.00">BaseTriggerComponentClass</text>
</a>
</g>
</g>
<!-- Node1&#45;&gt;Node5 -->
<g id="edge4" class="edge">
<title>Node1&#45;&gt;Node5</title>
<path fill="none" stroke="#63b8ff" d="M478.94,-163.5C490.17,-163.5 501.57,-163.5 512.5,-163.5"/>
<polygon fill="#63b8ff" stroke="#63b8ff" points="479.24,-160 469.24,-163.5 479.24,-167 479.24,-160"/>
</g>
<!-- Node12 -->
<g id="node12" class="node">
<title>Node12</title>
<g id="a_node12"><a xlink:href="interfaceProjectileMoveComponentClass.html" target="_top" xlink:title=" ">
<polygon fill="white" stroke="#666666" points="661.5,-75 507.5,-75 507.5,-56 661.5,-56 661.5,-75"/>
<text text-anchor="middle" x="584.5" y="-63" font-family="Helvetica,sans-Serif" font-size="10.00">ProjectileMoveComponentClass</text>
</a>
</g>
</g>
<!-- Node1&#45;&gt;Node12 -->
<g id="edge11" class="edge">
<title>Node1&#45;&gt;Node12</title>
<path fill="none" stroke="#63b8ff" d="M421.01,-148.66C460.53,-128.43 530.23,-92.76 564.03,-75.46"/>
<polygon fill="#63b8ff" stroke="#63b8ff" points="419.72,-145.89 412.42,-153.56 422.91,-152.12 419.72,-145.89"/>
</g>
<!-- Node2 -->
<g id="node2" class="node">
<title>Node2</title>
<g id="a_node2"><a xlink:href="interfaceGameComponentClass.html" target="_top" xlink:title=" ">
<polygon fill="white" stroke="#666666" points="278,-173 161,-173 161,-154 278,-154 278,-173"/>
<text text-anchor="middle" x="219.5" y="-161" font-family="Helvetica,sans-Serif" font-size="10.00">GameComponentClass</text>
</a>
</g>
</g>
<!-- Node2&#45;&gt;Node1 -->
<g id="edge1" class="edge">
<title>Node2&#45;&gt;Node1</title>
<path fill="none" stroke="#63b8ff" d="M289.15,-163.5C297.17,-163.5 305.4,-163.5 313.52,-163.5"/>
<polygon fill="#63b8ff" stroke="#63b8ff" points="289.36,-160 279.36,-163.5 289.36,-167 289.36,-160"/>
</g>
<!-- Node3 -->
<g id="node3" class="node">
<title>Node3</title>
<g id="a_node3"><a xlink:title=" ">
<polygon fill="white" stroke="#666666" points="125,-173 0,-173 0,-154 125,-154 125,-173"/>
<text text-anchor="middle" x="62.5" y="-161" font-family="Helvetica,sans-Serif" font-size="10.00">GenericComponentClass</text>
</a>
</g>
</g>
<!-- Node3&#45;&gt;Node2 -->
<g id="edge2" class="edge">
<title>Node3&#45;&gt;Node2</title>
<path fill="none" stroke="#63b8ff" d="M135.96,-163.5C144.2,-163.5 152.52,-163.5 160.53,-163.5"/>
<polygon fill="#63b8ff" stroke="#63b8ff" points="136.21,-160 126.21,-163.5 136.21,-167 136.21,-160"/>
</g>
<!-- Node6 -->
<g id="node6" class="node">
<title>Node6</title>
<g id="a_node6"><a xlink:href="interfaceCollisionTriggerComponentClass.html" target="_top" xlink:title=" ">
<polygon fill="white" stroke="#666666" points="842,-274.5 710,-274.5 710,-244.5 842,-244.5 842,-274.5"/>
<text text-anchor="start" x="718" y="-262.5" font-family="Helvetica,sans-Serif" font-size="10.00">CollisionTriggerComponent</text>
<text text-anchor="middle" x="776" y="-251.5" font-family="Helvetica,sans-Serif" font-size="10.00">Class</text>
</a>
</g>
</g>
<!-- Node5&#45;&gt;Node6 -->
<g id="edge5" class="edge">
<title>Node5&#45;&gt;Node6</title>
<path fill="none" stroke="#63b8ff" d="M657.34,-177.89C660,-179.29 662.57,-180.82 665,-182.5 688.43,-198.68 678.23,-218.41 701,-235.5 705.32,-238.74 710.1,-241.56 715.08,-244"/>
<polygon fill="#63b8ff" stroke="#63b8ff" points="658.93,-174.31 648.38,-173.39 656.05,-180.69 658.93,-174.31"/>
</g>
<!-- Node7 -->
<g id="node7" class="node">
<title>Node7</title>
<g id="a_node7"><a xlink:href="interfaceProximityTriggerComponentClass.html" target="_top" xlink:title=" ">
<polygon fill="white" stroke="#666666" points="844.5,-226.5 707.5,-226.5 707.5,-196.5 844.5,-196.5 844.5,-226.5"/>
<text text-anchor="start" x="715.5" y="-214.5" font-family="Helvetica,sans-Serif" font-size="10.00">ProximityTriggerComponent</text>
<text text-anchor="middle" x="776" y="-203.5" font-family="Helvetica,sans-Serif" font-size="10.00">Class</text>
</a>
</g>
</g>
<!-- Node5&#45;&gt;Node7 -->
<g id="edge6" class="edge">
<title>Node5&#45;&gt;Node7</title>
<path fill="none" stroke="#63b8ff" d="M638.63,-176.02C647.45,-178.15 656.49,-180.36 665,-182.5 682.05,-186.78 700.54,-191.59 717.4,-196.05"/>
<polygon fill="#63b8ff" stroke="#63b8ff" points="639.58,-172.41 629.04,-173.47 637.95,-179.21 639.58,-172.41"/>
</g>
<!-- Node8 -->
<g id="node8" class="node">
<title>Node8</title>
<g id="a_node8"><a xlink:href="interfaceSCR__BaseTriggerComponentClass.html" target="_top" xlink:title=" ">
<polygon fill="white" stroke="#666666" points="847.5,-178.5 704.5,-178.5 704.5,-148.5 847.5,-148.5 847.5,-178.5"/>
<text text-anchor="start" x="712.5" y="-166.5" font-family="Helvetica,sans-Serif" font-size="10.00">SCR_BaseTriggerComponent</text>
<text text-anchor="middle" x="776" y="-155.5" font-family="Helvetica,sans-Serif" font-size="10.00">Class</text>
</a>
</g>
</g>
<!-- Node5&#45;&gt;Node8 -->
<g id="edge7" class="edge">
<title>Node5&#45;&gt;Node8</title>
<path fill="none" stroke="#63b8ff" d="M667.1,-163.5C679.47,-163.5 692.14,-163.5 704.25,-163.5"/>
<polygon fill="#63b8ff" stroke="#63b8ff" points="667.33,-160 657.33,-163.5 667.33,-167 667.33,-160"/>
</g>
<!-- Node11 -->
<g id="node11" class="node">
<title>Node11</title>
<g id="a_node11"><a xlink:href="interfaceTimerTriggerComponentClass.html" target="_top" xlink:title=" ">
<polygon fill="white" stroke="#666666" points="848,-130 704,-130 704,-111 848,-111 848,-130"/>
<text text-anchor="middle" x="776" y="-118" font-family="Helvetica,sans-Serif" font-size="10.00">TimerTriggerComponentClass</text>
</a>
</g>
</g>
<!-- Node5&#45;&gt;Node11 -->
<g id="edge10" class="edge">
<title>Node5&#45;&gt;Node11</title>
<path fill="none" stroke="#63b8ff" d="M640.17,-151.09C669,-144.55 703.89,-136.64 730.96,-130.49"/>
<polygon fill="#63b8ff" stroke="#63b8ff" points="639.43,-147.9 630.45,-153.53 640.98,-154.73 639.43,-147.9"/>
</g>
<!-- Node9 -->
<g id="node9" class="node">
<title>Node9</title>
<g id="a_node9"><a xlink:href="interfaceSCR__ExplosiveTriggerComponentClass.html" target="_top" xlink:title=" ">
<polygon fill="white" stroke="#666666" points="1049,-202.5 887,-202.5 887,-172.5 1049,-172.5 1049,-202.5"/>
<text text-anchor="start" x="895" y="-190.5" font-family="Helvetica,sans-Serif" font-size="10.00">SCR_ExplosiveTriggerComponent</text>
<text text-anchor="middle" x="968" y="-179.5" font-family="Helvetica,sans-Serif" font-size="10.00">Class</text>
</a>
</g>
</g>
<!-- Node8&#45;&gt;Node9 -->
<g id="edge8" class="edge">
<title>Node8&#45;&gt;Node9</title>
<path fill="none" stroke="#63b8ff" d="M858.56,-173.8C867.85,-174.98 877.32,-176.17 886.6,-177.34"/>
<polygon fill="#63b8ff" stroke="#63b8ff" points="859.11,-170.22 848.75,-172.44 858.23,-177.16 859.11,-170.22"/>
</g>
<!-- Node10 -->
<g id="node10" class="node">
<title>Node10</title>
<g id="a_node10"><a xlink:href="interfaceSCR__PressureTriggerComponentClass.html" target="_top" xlink:title=" ">
<polygon fill="white" stroke="#666666" points="1048,-154.5 888,-154.5 888,-124.5 1048,-124.5 1048,-154.5"/>
<text text-anchor="start" x="896" y="-142.5" font-family="Helvetica,sans-Serif" font-size="10.00">SCR_PressureTriggerComponent</text>
<text text-anchor="middle" x="968" y="-131.5" font-family="Helvetica,sans-Serif" font-size="10.00">Class</text>
</a>
</g>
</g>
<!-- Node8&#45;&gt;Node10 -->
<g id="edge9" class="edge">
<title>Node8&#45;&gt;Node10</title>
<path fill="none" stroke="#63b8ff" d="M858.52,-153.2C868.15,-151.99 877.96,-150.75 887.56,-149.53"/>
<polygon fill="#63b8ff" stroke="#63b8ff" points="858.23,-149.84 848.75,-154.56 859.11,-156.78 858.23,-149.84"/>
</g>
<!-- Node13 -->
<g id="node13" class="node">
<title>Node13</title>
<g id="a_node13"><a xlink:href="interfaceGrenadeMoveComponentClass.html" target="_top" xlink:title=" ">
<polygon fill="white" stroke="#666666" points="851,-93 701,-93 701,-74 851,-74 851,-93"/>
<text text-anchor="middle" x="776" y="-81" font-family="Helvetica,sans-Serif" font-size="10.00">GrenadeMoveComponentClass</text>
</a>
</g>
</g>
<!-- Node12&#45;&gt;Node13 -->
<g id="edge12" class="edge">
<title>Node12&#45;&gt;Node13</title>
<path fill="none" stroke="#63b8ff" d="M672.69,-73.78C682.07,-74.67 691.54,-75.57 700.75,-76.45"/>
<polygon fill="#63b8ff" stroke="#63b8ff" points="673.04,-70.2 662.76,-72.74 672.38,-77.17 673.04,-70.2"/>
</g>
<!-- Node14 -->
<g id="node14" class="node">
<title>Node14</title>
<g id="a_node14"><a xlink:href="interfaceMissileMoveComponentClass.html" target="_top" xlink:title=" ">
<polygon fill="white" stroke="#666666" points="848,-56 704,-56 704,-37 848,-37 848,-56"/>
<text text-anchor="middle" x="776" y="-44" font-family="Helvetica,sans-Serif" font-size="10.00">MissileMoveComponentClass</text>
</a>
</g>
</g>
<!-- Node12&#45;&gt;Node14 -->
<g id="edge13" class="edge">
<title>Node12&#45;&gt;Node14</title>
<path fill="none" stroke="#63b8ff" d="M672.5,-56.78C682.88,-55.74 693.38,-54.68 703.5,-53.67"/>
<polygon fill="#63b8ff" stroke="#63b8ff" points="672.36,-53.37 662.76,-57.85 673.06,-60.34 672.36,-53.37"/>
</g>
<!-- Node15 -->
<g id="node15" class="node">
<title>Node15</title>
<g id="a_node15"><a xlink:href="interfaceShellMoveComponentClass.html" target="_top" xlink:title=" ">
<polygon fill="white" stroke="#666666" points="843.5,-19 708.5,-19 708.5,0 843.5,0 843.5,-19"/>
<text text-anchor="middle" x="776" y="-7" font-family="Helvetica,sans-Serif" font-size="10.00">ShellMoveComponentClass</text>
</a>
</g>
</g>
<!-- Node12&#45;&gt;Node15 -->
<g id="edge14" class="edge">
<title>Node12&#45;&gt;Node15</title>
<path fill="none" stroke="#63b8ff" d="M623.43,-52.18C645.86,-44.51 674.89,-34.96 701,-27.5 710.79,-24.7 721.38,-21.96 731.42,-19.49"/>
<polygon fill="#63b8ff" stroke="#63b8ff" points="622.63,-49.1 614.32,-55.66 624.91,-55.72 622.63,-49.1"/>
</g>
<!-- Node16 -->
<g id="node16" class="node">
<title>Node16</title>
<g id="a_node16"><a xlink:href="interfaceFlareMoveComponentClass.html" target="_top" xlink:title=" ">
<polygon fill="white" stroke="#666666" points="1035.5,-19 900.5,-19 900.5,0 1035.5,0 1035.5,-19"/>
<text text-anchor="middle" x="968" y="-7" font-family="Helvetica,sans-Serif" font-size="10.00">FlareMoveComponentClass</text>
</a>
</g>
</g>
<!-- Node15&#45;&gt;Node16 -->
<g id="edge15" class="edge">
<title>Node15&#45;&gt;Node16</title>
<path fill="none" stroke="#63b8ff" d="M854.84,-9.5C869.93,-9.5 885.61,-9.5 900.3,-9.5"/>
<polygon fill="#63b8ff" stroke="#63b8ff" points="854.99,-6 844.99,-9.5 854.99,-13 854.99,-6"/>
</g>
</g>
</svg>
