<?xml version="1.0" encoding="UTF-8" standalone="no"?>
<!DOCTYPE svg PUBLIC "-//W3C//DTD SVG 1.1//EN"
 "http://www.w3.org/Graphics/SVG/1.1/DTD/svg11.dtd">
<!-- Generated by graphviz version 8.0.2 (20230410.1723)
 -->
<!-- Title: SCR_AmbientSoundsEffect Pages: 1 -->
<svg width="330pt" height="82pt"
 viewBox="0.00 0.00 329.50 82.00" xmlns="http://www.w3.org/2000/svg" xmlns:xlink="http://www.w3.org/1999/xlink">
<g id="graph0" class="graph" transform="scale(1 1) rotate(0) translate(4 78)">
<title>SCR_AmbientSoundsEffect</title>
<!-- Node1 -->
<g id="node1" class="node">
<title>Node1</title>
<g id="a_node1"><a xlink:title=" ">
<polygon fill="#999999" stroke="#666666" points="227.5,-74 91.5,-74 91.5,-55 227.5,-55 227.5,-74"/>
<text text-anchor="middle" x="159.5" y="-62" font-family="Helvetica,sans-Serif" font-size="10.00">SCR_AmbientSoundsEffect</text>
</a>
</g>
</g>
<!-- Node2 -->
<g id="node2" class="node">
<title>Node2</title>
<g id="a_node2"><a xlink:href="interfaceSCR__LoopedPositionalSounds.html" target="_top" xlink:title="Handles looped sounds such as leaves rustles, or crickets played on entities close to camera.">
<polygon fill="white" stroke="#666666" points="149,-19 0,-19 0,0 149,0 149,-19"/>
<text text-anchor="middle" x="74.5" y="-7" font-family="Helvetica,sans-Serif" font-size="10.00">SCR_LoopedPositionalSounds</text>
</a>
</g>
</g>
<!-- Node1&#45;&gt;Node2 -->
<g id="edge1" class="edge">
<title>Node1&#45;&gt;Node2</title>
<path fill="none" stroke="#63b8ff" d="M135.81,-48.73C120.67,-39.29 101.54,-27.36 88.71,-19.36"/>
<polygon fill="#63b8ff" stroke="#63b8ff" points="133.74,-52.19 144.08,-54.51 137.45,-46.25 133.74,-52.19"/>
</g>
<!-- Node3 -->
<g id="node3" class="node">
<title>Node3</title>
<g id="a_node3"><a xlink:href="interfaceSCR__RandomPositionalSounds.html" target="_top" xlink:title="Spawns sounds arround camera based on define behaviour Basic building blocks are: SCR_SoundGroup defi...">
<polygon fill="white" stroke="#666666" points="321.5,-19 167.5,-19 167.5,0 321.5,0 321.5,-19"/>
<text text-anchor="middle" x="244.5" y="-7" font-family="Helvetica,sans-Serif" font-size="10.00">SCR_RandomPositionalSounds</text>
</a>
</g>
</g>
<!-- Node1&#45;&gt;Node3 -->
<g id="edge2" class="edge">
<title>Node1&#45;&gt;Node3</title>
<path fill="none" stroke="#63b8ff" d="M183.19,-48.73C198.33,-39.29 217.46,-27.36 230.29,-19.36"/>
<polygon fill="#63b8ff" stroke="#63b8ff" points="181.55,-46.25 174.92,-54.51 185.26,-52.19 181.55,-46.25"/>
</g>
</g>
</svg>
