<?xml version="1.0" encoding="UTF-8" standalone="no"?>
<!DOCTYPE svg PUBLIC "-//W3C//DTD SVG 1.1//EN"
 "http://www.w3.org/Graphics/SVG/1.1/DTD/svg11.dtd">
<!-- Generated by graphviz version 8.0.2 (20230410.1723)
 -->
<!-- Title: SCR_ScenarioFrameworkWaypointTimed Pages: 1 -->
<svg width="1022pt" height="278pt"
 viewBox="0.00 0.00 1022.00 278.00" xmlns="http://www.w3.org/2000/svg" xmlns:xlink="http://www.w3.org/1999/xlink">
<g id="graph0" class="graph" transform="scale(1 1) rotate(0) translate(4 274)">
<title>SCR_ScenarioFrameworkWaypointTimed</title>
<!-- Node1 -->
<g id="node1" class="node">
<title>Node1</title>
<g id="a_node1"><a xlink:title=" ">
<polygon fill="#999999" stroke="#666666" points="582,-174 412,-174 412,-144 582,-144 582,-174"/>
<text text-anchor="start" x="420" y="-162" font-family="Helvetica,sans-Serif" font-size="10.00">SCR_ScenarioFrameworkWaypoint</text>
<text text-anchor="middle" x="497" y="-151" font-family="Helvetica,sans-Serif" font-size="10.00">Timed</text>
</a>
</g>
</g>
<!-- Node4 -->
<g id="node4" class="node">
<title>Node4</title>
<g id="a_node4"><a xlink:href="interfaceSCR__ScenarioFrameworkWaypointScout.html" target="_top" xlink:title=" ">
<polygon fill="white" stroke="#666666" points="798,-246 628,-246 628,-216 798,-216 798,-246"/>
<text text-anchor="start" x="636" y="-234" font-family="Helvetica,sans-Serif" font-size="10.00">SCR_ScenarioFrameworkWaypoint</text>
<text text-anchor="middle" x="713" y="-223" font-family="Helvetica,sans-Serif" font-size="10.00">Scout</text>
</a>
</g>
</g>
<!-- Node1&#45;&gt;Node4 -->
<g id="edge3" class="edge">
<title>Node1&#45;&gt;Node4</title>
<path fill="none" stroke="#63b8ff" d="M542.86,-178.56C565.19,-187.88 592.75,-198.77 618,-207 627.21,-210 637.02,-212.87 646.7,-215.5"/>
<polygon fill="#63b8ff" stroke="#63b8ff" points="544.57,-175.06 534,-174.41 541.85,-181.51 544.57,-175.06"/>
</g>
<!-- Node5 -->
<g id="node5" class="node">
<title>Node5</title>
<g id="a_node5"><a xlink:href="interfaceSCR__ScenarioFrameworkWaypointSearchAndDestroy.html" target="_top" xlink:title=" ">
<polygon fill="white" stroke="#666666" points="798,-198 628,-198 628,-168 798,-168 798,-198"/>
<text text-anchor="start" x="636" y="-186" font-family="Helvetica,sans-Serif" font-size="10.00">SCR_ScenarioFrameworkWaypoint</text>
<text text-anchor="middle" x="713" y="-175" font-family="Helvetica,sans-Serif" font-size="10.00">SearchAndDestroy</text>
</a>
</g>
</g>
<!-- Node1&#45;&gt;Node5 -->
<g id="edge4" class="edge">
<title>Node1&#45;&gt;Node5</title>
<path fill="none" stroke="#63b8ff" d="M592.88,-169.64C604.52,-170.95 616.34,-172.27 627.81,-173.56"/>
<polygon fill="#63b8ff" stroke="#63b8ff" points="593.6,-166.09 583.27,-168.45 592.82,-173.04 593.6,-166.09"/>
</g>
<!-- Node6 -->
<g id="node6" class="node">
<title>Node6</title>
<g id="a_node6"><a xlink:href="interfaceSCR__ScenarioFrameworkWaypointTimedDefend.html" target="_top" xlink:title=" ">
<polygon fill="white" stroke="#666666" points="798,-150 628,-150 628,-120 798,-120 798,-150"/>
<text text-anchor="start" x="636" y="-138" font-family="Helvetica,sans-Serif" font-size="10.00">SCR_ScenarioFrameworkWaypoint</text>
<text text-anchor="middle" x="713" y="-127" font-family="Helvetica,sans-Serif" font-size="10.00">TimedDefend</text>
</a>
</g>
</g>
<!-- Node1&#45;&gt;Node6 -->
<g id="edge5" class="edge">
<title>Node1&#45;&gt;Node6</title>
<path fill="none" stroke="#63b8ff" d="M592.88,-148.36C604.52,-147.05 616.34,-145.73 627.81,-144.44"/>
<polygon fill="#63b8ff" stroke="#63b8ff" points="592.82,-144.96 583.27,-149.55 593.6,-151.91 592.82,-144.96"/>
</g>
<!-- Node13 -->
<g id="node13" class="node">
<title>Node13</title>
<g id="a_node13"><a xlink:href="interfaceSCR__ScenarioFrameworkWaypointWait.html" target="_top" xlink:title=" ">
<polygon fill="white" stroke="#666666" points="808,-101.5 618,-101.5 618,-82.5 808,-82.5 808,-101.5"/>
<text text-anchor="middle" x="713" y="-89.5" font-family="Helvetica,sans-Serif" font-size="10.00">SCR_ScenarioFrameworkWaypointWait</text>
</a>
</g>
</g>
<!-- Node1&#45;&gt;Node13 -->
<g id="edge12" class="edge">
<title>Node1&#45;&gt;Node13</title>
<path fill="none" stroke="#63b8ff" d="M541.71,-139.3C564.17,-129.75 592.18,-118.71 618,-111 629.65,-107.52 642.29,-104.49 654.43,-101.92"/>
<polygon fill="#63b8ff" stroke="#63b8ff" points="540.61,-136.39 532.81,-143.56 543.38,-142.82 540.61,-136.39"/>
</g>
<!-- Node2 -->
<g id="node2" class="node">
<title>Node2</title>
<g id="a_node2"><a xlink:href="interfaceSCR__ScenarioFrameworkWaypointScripted.html" target="_top" xlink:title=" ">
<polygon fill="white" stroke="#666666" points="376,-174 206,-174 206,-144 376,-144 376,-174"/>
<text text-anchor="start" x="214" y="-162" font-family="Helvetica,sans-Serif" font-size="10.00">SCR_ScenarioFrameworkWaypoint</text>
<text text-anchor="middle" x="291" y="-151" font-family="Helvetica,sans-Serif" font-size="10.00">Scripted</text>
</a>
</g>
</g>
<!-- Node2&#45;&gt;Node1 -->
<g id="edge1" class="edge">
<title>Node2&#45;&gt;Node1</title>
<path fill="none" stroke="#63b8ff" d="M387.41,-159C395.49,-159 403.63,-159 411.62,-159"/>
<polygon fill="#63b8ff" stroke="#63b8ff" points="387.45,-155.5 377.45,-159 387.45,-162.5 387.45,-155.5"/>
</g>
<!-- Node3 -->
<g id="node3" class="node">
<title>Node3</title>
<g id="a_node3"><a xlink:href="interfaceSCR__ScenarioFrameworkWaypoint.html" target="_top" xlink:title=" ">
<polygon fill="white" stroke="#666666" points="170,-168.5 0,-168.5 0,-149.5 170,-149.5 170,-168.5"/>
<text text-anchor="middle" x="85" y="-156.5" font-family="Helvetica,sans-Serif" font-size="10.00">SCR_ScenarioFrameworkWaypoint</text>
</a>
</g>
</g>
<!-- Node3&#45;&gt;Node2 -->
<g id="edge2" class="edge">
<title>Node3&#45;&gt;Node2</title>
<path fill="none" stroke="#63b8ff" d="M181.41,-159C189.49,-159 197.63,-159 205.62,-159"/>
<polygon fill="#63b8ff" stroke="#63b8ff" points="181.45,-155.5 171.45,-159 181.45,-162.5 181.45,-155.5"/>
</g>
<!-- Node7 -->
<g id="node7" class="node">
<title>Node7</title>
<g id="a_node7"><a xlink:href="interfaceSCR__ScenarioFrameworkWaypointDefend.html" target="_top" xlink:title=" ">
<polygon fill="white" stroke="#666666" points="1014,-270 844,-270 844,-240 1014,-240 1014,-270"/>
<text text-anchor="start" x="852" y="-258" font-family="Helvetica,sans-Serif" font-size="10.00">SCR_ScenarioFrameworkWaypoint</text>
<text text-anchor="middle" x="929" y="-247" font-family="Helvetica,sans-Serif" font-size="10.00">Defend</text>
</a>
</g>
</g>
<!-- Node6&#45;&gt;Node7 -->
<g id="edge6" class="edge">
<title>Node6&#45;&gt;Node7</title>
<path fill="none" stroke="#63b8ff" d="M804.08,-156.06C805.42,-156.99 806.73,-157.98 808,-159 835.85,-181.46 816.47,-208.15 844,-231 847.97,-234.29 852.36,-237.14 857,-239.59"/>
<polygon fill="#63b8ff" stroke="#63b8ff" points="806.15,-152.61 795.78,-150.43 802.53,-158.6 806.15,-152.61"/>
</g>
<!-- Node8 -->
<g id="node8" class="node">
<title>Node8</title>
<g id="a_node8"><a xlink:href="interfaceSCR__ScenarioFrameworkWaypointDefendCP.html" target="_top" xlink:title=" ">
<polygon fill="white" stroke="#666666" points="1014,-222 844,-222 844,-192 1014,-192 1014,-222"/>
<text text-anchor="start" x="852" y="-210" font-family="Helvetica,sans-Serif" font-size="10.00">SCR_ScenarioFrameworkWaypoint</text>
<text text-anchor="middle" x="929" y="-199" font-family="Helvetica,sans-Serif" font-size="10.00">DefendCP</text>
</a>
</g>
</g>
<!-- Node6&#45;&gt;Node8 -->
<g id="edge7" class="edge">
<title>Node6&#45;&gt;Node8</title>
<path fill="none" stroke="#63b8ff" d="M795.39,-153.91C799.7,-155.5 803.93,-157.19 808,-159 825.57,-166.82 826.55,-174.93 844,-183 850.88,-186.18 858.28,-189.04 865.73,-191.57"/>
<polygon fill="#63b8ff" stroke="#63b8ff" points="796.79,-150.35 786.2,-150.43 794.53,-156.98 796.79,-150.35"/>
</g>
<!-- Node9 -->
<g id="node9" class="node">
<title>Node9</title>
<g id="a_node9"><a xlink:href="interfaceSCR__ScenarioFrameworkWaypointDefendHierarchy.html" target="_top" xlink:title=" ">
<polygon fill="white" stroke="#666666" points="1014,-174 844,-174 844,-144 1014,-144 1014,-174"/>
<text text-anchor="start" x="852" y="-162" font-family="Helvetica,sans-Serif" font-size="10.00">SCR_ScenarioFrameworkWaypoint</text>
<text text-anchor="middle" x="929" y="-151" font-family="Helvetica,sans-Serif" font-size="10.00">DefendHierarchy</text>
</a>
</g>
</g>
<!-- Node6&#45;&gt;Node9 -->
<g id="edge8" class="edge">
<title>Node6&#45;&gt;Node9</title>
<path fill="none" stroke="#63b8ff" d="M808.88,-145.64C820.52,-146.95 832.34,-148.27 843.81,-149.56"/>
<polygon fill="#63b8ff" stroke="#63b8ff" points="809.6,-142.09 799.27,-144.45 808.82,-149.04 809.6,-142.09"/>
</g>
<!-- Node10 -->
<g id="node10" class="node">
<title>Node10</title>
<g id="a_node10"><a xlink:href="interfaceSCR__ScenarioFrameworkWaypointDefendLarge.html" target="_top" xlink:title=" ">
<polygon fill="white" stroke="#666666" points="1014,-126 844,-126 844,-96 1014,-96 1014,-126"/>
<text text-anchor="start" x="852" y="-114" font-family="Helvetica,sans-Serif" font-size="10.00">SCR_ScenarioFrameworkWaypoint</text>
<text text-anchor="middle" x="929" y="-103" font-family="Helvetica,sans-Serif" font-size="10.00">DefendLarge</text>
</a>
</g>
</g>
<!-- Node6&#45;&gt;Node10 -->
<g id="edge9" class="edge">
<title>Node6&#45;&gt;Node10</title>
<path fill="none" stroke="#63b8ff" d="M808.88,-124.36C820.52,-123.05 832.34,-121.73 843.81,-120.44"/>
<polygon fill="#63b8ff" stroke="#63b8ff" points="808.82,-120.96 799.27,-125.55 809.6,-127.91 808.82,-120.96"/>
</g>
<!-- Node11 -->
<g id="node11" class="node">
<title>Node11</title>
<g id="a_node11"><a xlink:href="interfaceSCR__ScenarioFrameworkWaypointDefendLargeCO.html" target="_top" xlink:title=" ">
<polygon fill="white" stroke="#666666" points="1014,-78 844,-78 844,-48 1014,-48 1014,-78"/>
<text text-anchor="start" x="852" y="-66" font-family="Helvetica,sans-Serif" font-size="10.00">SCR_ScenarioFrameworkWaypoint</text>
<text text-anchor="middle" x="929" y="-55" font-family="Helvetica,sans-Serif" font-size="10.00">DefendLargeCO</text>
</a>
</g>
</g>
<!-- Node6&#45;&gt;Node11 -->
<g id="edge10" class="edge">
<title>Node6&#45;&gt;Node11</title>
<path fill="none" stroke="#63b8ff" d="M792.45,-116.12C797.78,-114.23 803.01,-112.2 808,-110 825.38,-102.36 826.69,-94.8 844,-87 851.05,-83.82 858.63,-80.96 866.24,-78.41"/>
<polygon fill="#63b8ff" stroke="#63b8ff" points="791.5,-113.08 783.13,-119.57 793.72,-119.72 791.5,-113.08"/>
</g>
<!-- Node12 -->
<g id="node12" class="node">
<title>Node12</title>
<g id="a_node12"><a xlink:href="interfaceSCR__ScenarioFrameworkWaypointLoiterCO.html" target="_top" xlink:title=" ">
<polygon fill="white" stroke="#666666" points="1014,-30 844,-30 844,0 1014,0 1014,-30"/>
<text text-anchor="start" x="852" y="-18" font-family="Helvetica,sans-Serif" font-size="10.00">SCR_ScenarioFrameworkWaypoint</text>
<text text-anchor="middle" x="929" y="-7" font-family="Helvetica,sans-Serif" font-size="10.00">LoiterCO</text>
</a>
</g>
</g>
<!-- Node6&#45;&gt;Node12 -->
<g id="edge11" class="edge">
<title>Node6&#45;&gt;Node12</title>
<path fill="none" stroke="#63b8ff" d="M802.17,-114.27C804.19,-112.93 806.13,-111.51 808,-110 835.49,-87.73 816.71,-61.52 844,-39 847.98,-35.72 852.38,-32.88 857.02,-30.44"/>
<polygon fill="#63b8ff" stroke="#63b8ff" points="800.85,-111.56 793.94,-119.59 804.35,-117.63 800.85,-111.56"/>
</g>
</g>
</svg>
