<?xml version="1.0" encoding="UTF-8" standalone="no"?>
<!DOCTYPE svg PUBLIC "-//W3C//DTD SVG 1.1//EN"
 "http://www.w3.org/Graphics/SVG/1.1/DTD/svg11.dtd">
<!-- Generated by graphviz version 8.0.2 (20230410.1723)
 -->
<!-- Title: SCR_OpenStorageAction Pages: 1 -->
<svg width="360pt" height="313pt"
 viewBox="0.00 0.00 359.50 313.00" xmlns="http://www.w3.org/2000/svg" xmlns:xlink="http://www.w3.org/1999/xlink">
<g id="graph0" class="graph" transform="scale(1 1) rotate(0) translate(4 309)">
<title>SCR_OpenStorageAction</title>
<!-- Node1 -->
<g id="node1" class="node">
<title>Node1</title>
<g id="a_node1"><a xlink:title="modded version for to be used with the inventory 2.0">
<polygon fill="#999999" stroke="#666666" points="238,-85 111,-85 111,-66 238,-66 238,-85"/>
<text text-anchor="middle" x="174.5" y="-73" font-family="Helvetica,sans-Serif" font-size="10.00">SCR_OpenStorageAction</text>
</a>
</g>
</g>
<!-- Node6 -->
<g id="node6" class="node">
<title>Node6</title>
<g id="a_node6"><a xlink:href="interfaceSCR__OpenDeployableSpawnPointStorageAction.html" target="_top" xlink:title=" ">
<polygon fill="white" stroke="#666666" points="165,-30 0,-30 0,0 165,0 165,-30"/>
<text text-anchor="start" x="8" y="-18" font-family="Helvetica,sans-Serif" font-size="10.00">SCR_OpenDeployableSpawnPoint</text>
<text text-anchor="middle" x="82.5" y="-7" font-family="Helvetica,sans-Serif" font-size="10.00">StorageAction</text>
</a>
</g>
</g>
<!-- Node1&#45;&gt;Node6 -->
<g id="edge5" class="edge">
<title>Node1&#45;&gt;Node6</title>
<path fill="none" stroke="#63b8ff" d="M151.46,-59.85C137.32,-50.86 119.29,-39.39 105.21,-30.44"/>
<polygon fill="#63b8ff" stroke="#63b8ff" points="149.21,-63.2 159.53,-65.62 152.97,-57.3 149.21,-63.2"/>
</g>
<!-- Node7 -->
<g id="node7" class="node">
<title>Node7</title>
<g id="a_node7"><a xlink:href="interfaceSCR__ResourceStorageOpenAction.html" target="_top" xlink:title=" ">
<polygon fill="white" stroke="#666666" points="351.5,-24.5 183.5,-24.5 183.5,-5.5 351.5,-5.5 351.5,-24.5"/>
<text text-anchor="middle" x="267.5" y="-12.5" font-family="Helvetica,sans-Serif" font-size="10.00">SCR_ResourceStorageOpenAction</text>
</a>
</g>
</g>
<!-- Node1&#45;&gt;Node7 -->
<g id="edge6" class="edge">
<title>Node1&#45;&gt;Node7</title>
<path fill="none" stroke="#63b8ff" d="M197.61,-59.96C215.06,-48.99 238.44,-34.28 253.24,-24.97"/>
<polygon fill="#63b8ff" stroke="#63b8ff" points="196.23,-57.33 189.62,-65.62 199.95,-63.25 196.23,-57.33"/>
</g>
<!-- Node2 -->
<g id="node2" class="node">
<title>Node2</title>
<g id="a_node2"><a xlink:href="interfaceSCR__InventoryAction.html" target="_top" xlink:title="modded version for to be used with the inventory 2.0">
<polygon fill="white" stroke="#666666" points="228.5,-140 120.5,-140 120.5,-121 228.5,-121 228.5,-140"/>
<text text-anchor="middle" x="174.5" y="-128" font-family="Helvetica,sans-Serif" font-size="10.00">SCR_InventoryAction</text>
</a>
</g>
</g>
<!-- Node2&#45;&gt;Node1 -->
<g id="edge1" class="edge">
<title>Node2&#45;&gt;Node1</title>
<path fill="none" stroke="#63b8ff" d="M174.5,-109.93C174.5,-101.53 174.5,-92.13 174.5,-85.44"/>
<polygon fill="#63b8ff" stroke="#63b8ff" points="171,-109.75 174.5,-119.75 178,-109.75 171,-109.75"/>
</g>
<!-- Node3 -->
<g id="node3" class="node">
<title>Node3</title>
<g id="a_node3"><a xlink:href="interfaceScriptedUserAction.html" target="_top" xlink:title=" ">
<polygon fill="white" stroke="#666666" points="225,-195 124,-195 124,-176 225,-176 225,-195"/>
<text text-anchor="middle" x="174.5" y="-183" font-family="Helvetica,sans-Serif" font-size="10.00">ScriptedUserAction</text>
</a>
</g>
</g>
<!-- Node3&#45;&gt;Node2 -->
<g id="edge2" class="edge">
<title>Node3&#45;&gt;Node2</title>
<path fill="none" stroke="#63b8ff" d="M174.5,-164.93C174.5,-156.53 174.5,-147.13 174.5,-140.44"/>
<polygon fill="#63b8ff" stroke="#63b8ff" points="171,-164.75 174.5,-174.75 178,-164.75 171,-164.75"/>
</g>
<!-- Node4 -->
<g id="node4" class="node">
<title>Node4</title>
<g id="a_node4"><a xlink:href="interfaceBaseUserAction.html" target="_top" xlink:title=" ">
<polygon fill="white" stroke="#666666" points="218,-250 131,-250 131,-231 218,-231 218,-250"/>
<text text-anchor="middle" x="174.5" y="-238" font-family="Helvetica,sans-Serif" font-size="10.00">BaseUserAction</text>
</a>
</g>
</g>
<!-- Node4&#45;&gt;Node3 -->
<g id="edge3" class="edge">
<title>Node4&#45;&gt;Node3</title>
<path fill="none" stroke="#63b8ff" d="M174.5,-219.93C174.5,-211.53 174.5,-202.13 174.5,-195.44"/>
<polygon fill="#63b8ff" stroke="#63b8ff" points="171,-219.75 174.5,-229.75 178,-219.75 171,-219.75"/>
</g>
<!-- Node5 -->
<g id="node5" class="node">
<title>Node5</title>
<g id="a_node5"><a xlink:title=" ">
<polygon fill="white" stroke="#666666" points="217.5,-305 131.5,-305 131.5,-286 217.5,-286 217.5,-305"/>
<text text-anchor="middle" x="174.5" y="-293" font-family="Helvetica,sans-Serif" font-size="10.00">ScriptAndConfig</text>
</a>
</g>
</g>
<!-- Node5&#45;&gt;Node4 -->
<g id="edge4" class="edge">
<title>Node5&#45;&gt;Node4</title>
<path fill="none" stroke="#63b8ff" d="M174.5,-274.93C174.5,-266.53 174.5,-257.13 174.5,-250.44"/>
<polygon fill="#63b8ff" stroke="#63b8ff" points="171,-274.75 174.5,-284.75 178,-274.75 171,-274.75"/>
</g>
</g>
</svg>
