<?xml version="1.0" encoding="UTF-8" standalone="no"?>
<!DOCTYPE svg PUBLIC "-//W3C//DTD SVG 1.1//EN"
 "http://www.w3.org/Graphics/SVG/1.1/DTD/svg11.dtd">
<!-- Generated by graphviz version 8.0.2 (20230410.1723)
 -->
<!-- Title: SCR_DeployButtonBase Pages: 1 -->
<svg width="484pt" height="357pt"
 viewBox="0.00 0.00 483.50 357.00" xmlns="http://www.w3.org/2000/svg" xmlns:xlink="http://www.w3.org/1999/xlink">
<g id="graph0" class="graph" transform="scale(1 1) rotate(0) translate(4 353)">
<title>SCR_DeployButtonBase</title>
<!-- Node1 -->
<g id="node1" class="node">
<title>Node1</title>
<g id="a_node1"><a xlink:title=" ">
<polygon fill="#999999" stroke="#666666" points="290,-74 167,-74 167,-55 290,-55 290,-74"/>
<text text-anchor="middle" x="228.5" y="-62" font-family="Helvetica,sans-Serif" font-size="10.00">SCR_DeployButtonBase</text>
</a>
</g>
</g>
<!-- Node7 -->
<g id="node7" class="node">
<title>Node7</title>
<g id="a_node7"><a xlink:href="interfaceSCR__FactionButton.html" target="_top" xlink:title=" ">
<polygon fill="white" stroke="#666666" points="103,-19 0,-19 0,0 103,0 103,-19"/>
<text text-anchor="middle" x="51.5" y="-7" font-family="Helvetica,sans-Serif" font-size="10.00">SCR_FactionButton</text>
</a>
</g>
</g>
<!-- Node1&#45;&gt;Node7 -->
<g id="edge6" class="edge">
<title>Node1&#45;&gt;Node7</title>
<path fill="none" stroke="#63b8ff" d="M187.97,-51.36C155.49,-41.64 110.66,-28.21 81.38,-19.45"/>
<polygon fill="#63b8ff" stroke="#63b8ff" points="186.89,-54.99 197.47,-54.51 188.9,-48.29 186.89,-54.99"/>
</g>
<!-- Node8 -->
<g id="node8" class="node">
<title>Node8</title>
<g id="a_node8"><a xlink:href="interfaceSCR__GroupButton.html" target="_top" xlink:title="Component attached to the group button.">
<polygon fill="white" stroke="#666666" points="218,-19 121,-19 121,0 218,0 218,-19"/>
<text text-anchor="middle" x="169.5" y="-7" font-family="Helvetica,sans-Serif" font-size="10.00">SCR_GroupButton</text>
</a>
</g>
</g>
<!-- Node1&#45;&gt;Node8 -->
<g id="edge7" class="edge">
<title>Node1&#45;&gt;Node8</title>
<path fill="none" stroke="#63b8ff" d="M210.54,-47.37C200.29,-38.16 187.84,-26.98 179.36,-19.36"/>
<polygon fill="#63b8ff" stroke="#63b8ff" points="207.71,-49.43 217.49,-53.51 212.39,-44.22 207.71,-49.43"/>
</g>
<!-- Node9 -->
<g id="node9" class="node">
<title>Node9</title>
<g id="a_node9"><a xlink:href="interfaceSCR__LoadoutButton.html" target="_top" xlink:title=" ">
<polygon fill="white" stroke="#666666" points="341,-19 236,-19 236,0 341,0 341,-19"/>
<text text-anchor="middle" x="288.5" y="-7" font-family="Helvetica,sans-Serif" font-size="10.00">SCR_LoadoutButton</text>
</a>
</g>
</g>
<!-- Node1&#45;&gt;Node9 -->
<g id="edge8" class="edge">
<title>Node1&#45;&gt;Node9</title>
<path fill="none" stroke="#63b8ff" d="M246.77,-47.37C257.19,-38.16 269.85,-26.98 278.47,-19.36"/>
<polygon fill="#63b8ff" stroke="#63b8ff" points="244.86,-44.27 239.68,-53.51 249.49,-49.51 244.86,-44.27"/>
</g>
<!-- Node10 -->
<g id="node10" class="node">
<title>Node10</title>
<g id="a_node10"><a xlink:href="interfaceSCR__NewGroupButton.html" target="_top" xlink:title=" ">
<polygon fill="white" stroke="#666666" points="475.5,-19 359.5,-19 359.5,0 475.5,0 475.5,-19"/>
<text text-anchor="middle" x="417.5" y="-7" font-family="Helvetica,sans-Serif" font-size="10.00">SCR_NewGroupButton</text>
</a>
</g>
</g>
<!-- Node1&#45;&gt;Node10 -->
<g id="edge9" class="edge">
<title>Node1&#45;&gt;Node10</title>
<path fill="none" stroke="#63b8ff" d="M270.87,-51.62C305.62,-41.87 354.06,-28.29 385.6,-19.45"/>
<polygon fill="#63b8ff" stroke="#63b8ff" points="270.24,-48.44 261.56,-54.51 272.13,-55.18 270.24,-48.44"/>
</g>
<!-- Node2 -->
<g id="node2" class="node">
<title>Node2</title>
<g id="a_node2"><a xlink:href="interfaceSCR__ButtonImageComponent.html" target="_top" xlink:title=" ">
<polygon fill="white" stroke="#666666" points="301.5,-129 155.5,-129 155.5,-110 301.5,-110 301.5,-129"/>
<text text-anchor="middle" x="228.5" y="-117" font-family="Helvetica,sans-Serif" font-size="10.00">SCR_ButtonImageComponent</text>
</a>
</g>
</g>
<!-- Node2&#45;&gt;Node1 -->
<g id="edge1" class="edge">
<title>Node2&#45;&gt;Node1</title>
<path fill="none" stroke="#63b8ff" d="M228.5,-98.93C228.5,-90.53 228.5,-81.13 228.5,-74.44"/>
<polygon fill="#63b8ff" stroke="#63b8ff" points="225,-98.75 228.5,-108.75 232,-98.75 225,-98.75"/>
</g>
<!-- Node3 -->
<g id="node3" class="node">
<title>Node3</title>
<g id="a_node3"><a xlink:href="interfaceSCR__ButtonBaseComponent.html" target="_top" xlink:title="Base class for any button, regardless its own content.">
<polygon fill="white" stroke="#666666" points="300,-184 157,-184 157,-165 300,-165 300,-184"/>
<text text-anchor="middle" x="228.5" y="-172" font-family="Helvetica,sans-Serif" font-size="10.00">SCR_ButtonBaseComponent</text>
</a>
</g>
</g>
<!-- Node3&#45;&gt;Node2 -->
<g id="edge2" class="edge">
<title>Node3&#45;&gt;Node2</title>
<path fill="none" stroke="#63b8ff" d="M228.5,-153.93C228.5,-145.53 228.5,-136.13 228.5,-129.44"/>
<polygon fill="#63b8ff" stroke="#63b8ff" points="225,-153.75 228.5,-163.75 232,-153.75 225,-153.75"/>
</g>
<!-- Node4 -->
<g id="node4" class="node">
<title>Node4</title>
<g id="a_node4"><a xlink:href="interfaceSCR__WLibComponentBase.html" target="_top" xlink:title="Base class for all final Reforger interactive elements.">
<polygon fill="white" stroke="#666666" points="297,-239 160,-239 160,-220 297,-220 297,-239"/>
<text text-anchor="middle" x="228.5" y="-227" font-family="Helvetica,sans-Serif" font-size="10.00">SCR_WLibComponentBase</text>
</a>
</g>
</g>
<!-- Node4&#45;&gt;Node3 -->
<g id="edge3" class="edge">
<title>Node4&#45;&gt;Node3</title>
<path fill="none" stroke="#63b8ff" d="M228.5,-208.93C228.5,-200.53 228.5,-191.13 228.5,-184.44"/>
<polygon fill="#63b8ff" stroke="#63b8ff" points="225,-208.75 228.5,-218.75 232,-208.75 225,-208.75"/>
</g>
<!-- Node5 -->
<g id="node5" class="node">
<title>Node5</title>
<g id="a_node5"><a xlink:href="interfaceSCR__ScriptedWidgetComponent.html" target="_top" xlink:title=" ">
<polygon fill="white" stroke="#666666" points="307.5,-294 149.5,-294 149.5,-275 307.5,-275 307.5,-294"/>
<text text-anchor="middle" x="228.5" y="-282" font-family="Helvetica,sans-Serif" font-size="10.00">SCR_ScriptedWidgetComponent</text>
</a>
</g>
</g>
<!-- Node5&#45;&gt;Node4 -->
<g id="edge4" class="edge">
<title>Node5&#45;&gt;Node4</title>
<path fill="none" stroke="#63b8ff" d="M228.5,-263.93C228.5,-255.53 228.5,-246.13 228.5,-239.44"/>
<polygon fill="#63b8ff" stroke="#63b8ff" points="225,-263.75 228.5,-273.75 232,-263.75 225,-263.75"/>
</g>
<!-- Node6 -->
<g id="node6" class="node">
<title>Node6</title>
<g id="a_node6"><a xlink:title=" ">
<polygon fill="white" stroke="#666666" points="295,-349 162,-349 162,-330 295,-330 295,-349"/>
<text text-anchor="middle" x="228.5" y="-337" font-family="Helvetica,sans-Serif" font-size="10.00">ScriptedWidgetComponent</text>
</a>
</g>
</g>
<!-- Node6&#45;&gt;Node5 -->
<g id="edge5" class="edge">
<title>Node6&#45;&gt;Node5</title>
<path fill="none" stroke="#63b8ff" d="M228.5,-318.93C228.5,-310.53 228.5,-301.13 228.5,-294.44"/>
<polygon fill="#63b8ff" stroke="#63b8ff" points="225,-318.75 228.5,-328.75 232,-318.75 225,-318.75"/>
</g>
</g>
</svg>
