<?xml version="1.0" encoding="UTF-8" standalone="no"?>
<!DOCTYPE svg PUBLIC "-//W3C//DTD SVG 1.1//EN"
 "http://www.w3.org/Graphics/SVG/1.1/DTD/svg11.dtd">
<!-- Generated by graphviz version 8.0.2 (20230410.1723)
 -->
<!-- Title: SCR_NoisyCameraShakeProgress Pages: 1 -->
<svg width="184pt" height="203pt"
 viewBox="0.00 0.00 184.00 203.00" xmlns="http://www.w3.org/2000/svg" xmlns:xlink="http://www.w3.org/1999/xlink">
<g id="graph0" class="graph" transform="scale(1 1) rotate(0) translate(4 199)">
<title>SCR_NoisyCameraShakeProgress</title>
<!-- Node1 -->
<g id="node1" class="node">
<title>Node1</title>
<g id="a_node1"><a xlink:title="This object implements a pseudorandom camera shake.">
<polygon fill="#999999" stroke="#666666" points="171.5,-85 4.5,-85 4.5,-66 171.5,-66 171.5,-85"/>
<text text-anchor="middle" x="88" y="-73" font-family="Helvetica,sans-Serif" font-size="10.00">SCR_NoisyCameraShakeProgress</text>
</a>
</g>
</g>
<!-- Node4 -->
<g id="node4" class="node">
<title>Node4</title>
<g id="a_node4"><a xlink:href="interfaceSCR__BuildingDestructionCameraShakeProgress.html" target="_top" xlink:title=" ">
<polygon fill="white" stroke="#666666" points="168,-30 8,-30 8,0 168,0 168,-30"/>
<text text-anchor="start" x="16" y="-18" font-family="Helvetica,sans-Serif" font-size="10.00">SCR_BuildingDestructionCamera</text>
<text text-anchor="middle" x="88" y="-7" font-family="Helvetica,sans-Serif" font-size="10.00">ShakeProgress</text>
</a>
</g>
</g>
<!-- Node1&#45;&gt;Node4 -->
<g id="edge3" class="edge">
<title>Node1&#45;&gt;Node4</title>
<path fill="none" stroke="#63b8ff" d="M88,-55.08C88,-46.92 88,-37.6 88,-30.11"/>
<polygon fill="#63b8ff" stroke="#63b8ff" points="84.5,-54.87 88,-64.87 91.5,-54.87 84.5,-54.87"/>
</g>
<!-- Node2 -->
<g id="node2" class="node">
<title>Node2</title>
<g id="a_node2"><a xlink:href="interfaceSCR__GenericCameraShakeProgress.html" target="_top" xlink:title="This object implements generic way of applying camera shake, but does not implement any shaking by it...">
<polygon fill="white" stroke="#666666" points="176,-140 0,-140 0,-121 176,-121 176,-140"/>
<text text-anchor="middle" x="88" y="-128" font-family="Helvetica,sans-Serif" font-size="10.00">SCR_GenericCameraShakeProgress</text>
</a>
</g>
</g>
<!-- Node2&#45;&gt;Node1 -->
<g id="edge1" class="edge">
<title>Node2&#45;&gt;Node1</title>
<path fill="none" stroke="#63b8ff" d="M88,-109.93C88,-101.53 88,-92.13 88,-85.44"/>
<polygon fill="#63b8ff" stroke="#63b8ff" points="84.5,-109.75 88,-119.75 91.5,-109.75 84.5,-109.75"/>
</g>
<!-- Node3 -->
<g id="node3" class="node">
<title>Node3</title>
<g id="a_node3"><a xlink:href="interfaceSCR__BaseCameraShakeProgress.html" target="_top" xlink:title="Interface for simulating individual camera shake(s).">
<polygon fill="white" stroke="#666666" points="170.5,-195 5.5,-195 5.5,-176 170.5,-176 170.5,-195"/>
<text text-anchor="middle" x="88" y="-183" font-family="Helvetica,sans-Serif" font-size="10.00">SCR_BaseCameraShakeProgress</text>
</a>
</g>
</g>
<!-- Node3&#45;&gt;Node2 -->
<g id="edge2" class="edge">
<title>Node3&#45;&gt;Node2</title>
<path fill="none" stroke="#63b8ff" d="M88,-164.93C88,-156.53 88,-147.13 88,-140.44"/>
<polygon fill="#63b8ff" stroke="#63b8ff" points="84.5,-164.75 88,-174.75 91.5,-164.75 84.5,-164.75"/>
</g>
</g>
</svg>
