<?xml version="1.0" encoding="UTF-8" standalone="no"?>
<!DOCTYPE svg PUBLIC "-//W3C//DTD SVG 1.1//EN"
 "http://www.w3.org/Graphics/SVG/1.1/DTD/svg11.dtd">
<!-- Generated by graphviz version 8.0.2 (20230410.1723)
 -->
<!-- Title: SCR_AISetActionParameters Pages: 1 -->
<svg width="625pt" height="273pt"
 viewBox="0.00 0.00 625.00 272.50" xmlns="http://www.w3.org/2000/svg" xmlns:xlink="http://www.w3.org/1999/xlink">
<g id="graph0" class="graph" transform="scale(1 1) rotate(0) translate(4 268.5)">
<title>SCR_AISetActionParameters</title>
<!-- Node1 -->
<g id="node1" class="node">
<title>Node1</title>
<g id="a_node1"><a xlink:title="Base class of node which gets action parameters from a BT node.">
<polygon fill="#999999" stroke="#666666" points="399,-153.5 255,-153.5 255,-134.5 399,-134.5 399,-153.5"/>
<text text-anchor="middle" x="327" y="-141.5" font-family="Helvetica,sans-Serif" font-size="10.00">SCR_AISetActionParameters</text>
</a>
</g>
</g>
<!-- Node4 -->
<g id="node4" class="node">
<title>Node4</title>
<g id="a_node4"><a xlink:href="interfaceSCR__AISetAttackBehaviorParameters.html" target="_top" xlink:title=" ">
<polygon fill="white" stroke="#666666" points="617,-264.5 435,-264.5 435,-245.5 617,-245.5 617,-264.5"/>
<text text-anchor="middle" x="526" y="-252.5" font-family="Helvetica,sans-Serif" font-size="10.00">SCR_AISetAttackBehaviorParameters</text>
</a>
</g>
</g>
<!-- Node1&#45;&gt;Node4 -->
<g id="edge3" class="edge">
<title>Node1&#45;&gt;Node4</title>
<path fill="none" stroke="#63b8ff" d="M343.19,-161.96C362.33,-183.34 397.3,-218.49 435,-237 441.58,-240.23 448.7,-242.88 455.96,-245.06"/>
<polygon fill="#63b8ff" stroke="#63b8ff" points="345.21,-159.95 335.99,-154.72 339.94,-164.55 345.21,-159.95"/>
</g>
<!-- Node5 -->
<g id="node5" class="node">
<title>Node5</title>
<g id="a_node5"><a xlink:href="interfaceSCR__AISetDefendActivityParameters.html" target="_top" xlink:title=" ">
<polygon fill="white" stroke="#666666" points="615,-227.5 437,-227.5 437,-208.5 615,-208.5 615,-227.5"/>
<text text-anchor="middle" x="526" y="-215.5" font-family="Helvetica,sans-Serif" font-size="10.00">SCR_AISetDefendActivityParameters</text>
</a>
</g>
</g>
<!-- Node1&#45;&gt;Node5 -->
<g id="edge4" class="edge">
<title>Node1&#45;&gt;Node5</title>
<path fill="none" stroke="#63b8ff" d="M352.5,-159.41C373.62,-172.04 405.31,-189.5 435,-200 444.01,-203.19 453.75,-205.87 463.37,-208.11"/>
<polygon fill="#63b8ff" stroke="#63b8ff" points="354.68,-156.02 344.31,-153.81 351.04,-162 354.68,-156.02"/>
</g>
<!-- Node6 -->
<g id="node6" class="node">
<title>Node6</title>
<g id="a_node6"><a xlink:href="interfaceSCR__AISetGetInActivityParameters.html" target="_top" xlink:title=" ">
<polygon fill="white" stroke="#666666" points="611.5,-190.5 440.5,-190.5 440.5,-171.5 611.5,-171.5 611.5,-190.5"/>
<text text-anchor="middle" x="526" y="-178.5" font-family="Helvetica,sans-Serif" font-size="10.00">SCR_AISetGetInActivityParameters</text>
</a>
</g>
</g>
<!-- Node1&#45;&gt;Node6 -->
<g id="edge5" class="edge">
<title>Node1&#45;&gt;Node6</title>
<path fill="none" stroke="#63b8ff" d="M391.53,-155.93C417.46,-160.8 447.1,-166.37 471.85,-171.02"/>
<polygon fill="#63b8ff" stroke="#63b8ff" points="392.53,-152.37 382.05,-153.96 391.23,-159.25 392.53,-152.37"/>
</g>
<!-- Node7 -->
<g id="node7" class="node">
<title>Node7</title>
<g id="a_node7"><a xlink:href="interfaceSCR__AISetHealActivityParameters.html" target="_top" xlink:title=" ">
<polygon fill="white" stroke="#666666" points="609.5,-153.5 442.5,-153.5 442.5,-134.5 609.5,-134.5 609.5,-153.5"/>
<text text-anchor="middle" x="526" y="-141.5" font-family="Helvetica,sans-Serif" font-size="10.00">SCR_AISetHealActivityParameters</text>
</a>
</g>
</g>
<!-- Node1&#45;&gt;Node7 -->
<g id="edge6" class="edge">
<title>Node1&#45;&gt;Node7</title>
<path fill="none" stroke="#63b8ff" d="M410.27,-144C420.8,-144 431.59,-144 442.13,-144"/>
<polygon fill="#63b8ff" stroke="#63b8ff" points="410.4,-140.5 400.4,-144 410.4,-147.5 410.4,-140.5"/>
</g>
<!-- Node8 -->
<g id="node8" class="node">
<title>Node8</title>
<g id="a_node8"><a xlink:href="interfaceSCR__AISetInvestigateBehaviorParameters.html" target="_top" xlink:title=" ">
<polygon fill="white" stroke="#666666" points="600.5,-116 451.5,-116 451.5,-86 600.5,-86 600.5,-116"/>
<text text-anchor="start" x="459.5" y="-104" font-family="Helvetica,sans-Serif" font-size="10.00">SCR_AISetInvestigateBehavior</text>
<text text-anchor="middle" x="526" y="-93" font-family="Helvetica,sans-Serif" font-size="10.00">Parameters</text>
</a>
</g>
</g>
<!-- Node1&#45;&gt;Node8 -->
<g id="edge7" class="edge">
<title>Node1&#45;&gt;Node8</title>
<path fill="none" stroke="#63b8ff" d="M384.38,-131.69C406.1,-126.95 431.17,-121.48 454.09,-116.48"/>
<polygon fill="#63b8ff" stroke="#63b8ff" points="383.71,-128.47 374.69,-134.03 385.21,-135.31 383.71,-128.47"/>
</g>
<!-- Node9 -->
<g id="node9" class="node">
<title>Node9</title>
<g id="a_node9"><a xlink:href="interfaceSCR__AISetMoveActivityParameters.html" target="_top" xlink:title=" ">
<polygon fill="white" stroke="#666666" points="611,-67.5 441,-67.5 441,-48.5 611,-48.5 611,-67.5"/>
<text text-anchor="middle" x="526" y="-55.5" font-family="Helvetica,sans-Serif" font-size="10.00">SCR_AISetMoveActivityParameters</text>
</a>
</g>
</g>
<!-- Node1&#45;&gt;Node9 -->
<g id="edge8" class="edge">
<title>Node1&#45;&gt;Node9</title>
<path fill="none" stroke="#63b8ff" d="M348.99,-127.71C369.73,-112.4 402.92,-89.95 435,-77 444.03,-73.35 453.87,-70.37 463.62,-67.93"/>
<polygon fill="#63b8ff" stroke="#63b8ff" points="347.27,-125.38 341.38,-134.19 351.48,-130.97 347.27,-125.38"/>
</g>
<!-- Node10 -->
<g id="node10" class="node">
<title>Node10</title>
<g id="a_node10"><a xlink:href="interfaceSCR__AISetObserveUnknownFireBehaviorParameters.html" target="_top" xlink:title=" ">
<polygon fill="white" stroke="#666666" points="605,-30 447,-30 447,0 605,0 605,-30"/>
<text text-anchor="start" x="455" y="-18" font-family="Helvetica,sans-Serif" font-size="10.00">SCR_AISetObserveUnknownFire</text>
<text text-anchor="middle" x="526" y="-7" font-family="Helvetica,sans-Serif" font-size="10.00">BehaviorParameters</text>
</a>
</g>
</g>
<!-- Node1&#45;&gt;Node10 -->
<g id="edge9" class="edge">
<title>Node1&#45;&gt;Node10</title>
<path fill="none" stroke="#63b8ff" d="M341.79,-125.5C360.36,-101.89 395.66,-61.44 435,-39 440.76,-35.72 446.98,-32.87 453.37,-30.4"/>
<polygon fill="#63b8ff" stroke="#63b8ff" points="338.41,-123.14 335.09,-133.2 343.96,-127.41 338.41,-123.14"/>
</g>
<!-- Node2 -->
<g id="node2" class="node">
<title>Node2</title>
<g id="a_node2"><a xlink:href="interfaceSCR__AIActionTask.html" target="_top" xlink:title=" ">
<polygon fill="white" stroke="#666666" points="219,-153.5 119,-153.5 119,-134.5 219,-134.5 219,-153.5"/>
<text text-anchor="middle" x="169" y="-141.5" font-family="Helvetica,sans-Serif" font-size="10.00">SCR_AIActionTask</text>
</a>
</g>
</g>
<!-- Node2&#45;&gt;Node1 -->
<g id="edge1" class="edge">
<title>Node2&#45;&gt;Node1</title>
<path fill="none" stroke="#63b8ff" d="M230.14,-144C238.19,-144 246.51,-144 254.73,-144"/>
<polygon fill="#63b8ff" stroke="#63b8ff" points="230.36,-140.5 220.36,-144 230.36,-147.5 230.36,-140.5"/>
</g>
<!-- Node3 -->
<g id="node3" class="node">
<title>Node3</title>
<g id="a_node3"><a xlink:title=" ">
<polygon fill="white" stroke="#666666" points="83,-153.5 0,-153.5 0,-134.5 83,-134.5 83,-153.5"/>
<text text-anchor="middle" x="41.5" y="-141.5" font-family="Helvetica,sans-Serif" font-size="10.00">AITaskScripted</text>
</a>
</g>
</g>
<!-- Node3&#45;&gt;Node2 -->
<g id="edge2" class="edge">
<title>Node3&#45;&gt;Node2</title>
<path fill="none" stroke="#63b8ff" d="M94.11,-144C102.24,-144 110.62,-144 118.7,-144"/>
<polygon fill="#63b8ff" stroke="#63b8ff" points="94.25,-140.5 84.25,-144 94.25,-147.5 94.25,-140.5"/>
</g>
</g>
</svg>
