<?xml version="1.0" encoding="UTF-8" standalone="no"?>
<!DOCTYPE svg PUBLIC "-//W3C//DTD SVG 1.1//EN"
 "http://www.w3.org/Graphics/SVG/1.1/DTD/svg11.dtd">
<!-- Generated by graphviz version 8.0.2 (20230410.1723)
 -->
<!-- Title: SCR_AISmartActionComponentClass Pages: 1 -->
<svg width="163pt" height="214pt"
 viewBox="0.00 0.00 163.00 214.00" xmlns="http://www.w3.org/2000/svg" xmlns:xlink="http://www.w3.org/1999/xlink">
<g id="graph0" class="graph" transform="scale(1 1) rotate(0) translate(4 210)">
<title>SCR_AISmartActionComponentClass</title>
<!-- Node1 -->
<g id="node1" class="node">
<title>Node1</title>
<g id="a_node1"><a xlink:title=" ">
<polygon fill="#999999" stroke="#666666" points="155,-96 0,-96 0,-66 155,-66 155,-96"/>
<text text-anchor="start" x="8" y="-84" font-family="Helvetica,sans-Serif" font-size="10.00">SCR_AISmartActionComponent</text>
<text text-anchor="middle" x="77.5" y="-73" font-family="Helvetica,sans-Serif" font-size="10.00">Class</text>
</a>
</g>
</g>
<!-- Node4 -->
<g id="node4" class="node">
<title>Node4</title>
<g id="a_node4"><a xlink:href="interfaceSCR__AISmartActionSentinelComponentClass.html" target="_top" xlink:title=" ">
<polygon fill="white" stroke="#666666" points="147.5,-30 7.5,-30 7.5,0 147.5,0 147.5,-30"/>
<text text-anchor="start" x="15.5" y="-18" font-family="Helvetica,sans-Serif" font-size="10.00">SCR_AISmartActionSentinel</text>
<text text-anchor="middle" x="77.5" y="-7" font-family="Helvetica,sans-Serif" font-size="10.00">ComponentClass</text>
</a>
</g>
</g>
<!-- Node1&#45;&gt;Node4 -->
<g id="edge3" class="edge">
<title>Node1&#45;&gt;Node4</title>
<path fill="none" stroke="#63b8ff" d="M77.5,-54.97C77.5,-46.55 77.5,-37.45 77.5,-30.16"/>
<polygon fill="#63b8ff" stroke="#63b8ff" points="74,-54.8 77.5,-64.8 81,-54.8 74,-54.8"/>
</g>
<!-- Node2 -->
<g id="node2" class="node">
<title>Node2</title>
<g id="a_node2"><a xlink:href="interfaceAISmartActionComponentClass.html" target="_top" xlink:title=" ">
<polygon fill="white" stroke="#666666" points="154.5,-151 0.5,-151 0.5,-132 154.5,-132 154.5,-151"/>
<text text-anchor="middle" x="77.5" y="-139" font-family="Helvetica,sans-Serif" font-size="10.00">AISmartActionComponentClass</text>
</a>
</g>
</g>
<!-- Node2&#45;&gt;Node1 -->
<g id="edge1" class="edge">
<title>Node2&#45;&gt;Node1</title>
<path fill="none" stroke="#63b8ff" d="M77.5,-121.08C77.5,-112.92 77.5,-103.6 77.5,-96.11"/>
<polygon fill="#63b8ff" stroke="#63b8ff" points="74,-120.87 77.5,-130.87 81,-120.87 74,-120.87"/>
</g>
<!-- Node3 -->
<g id="node3" class="node">
<title>Node3</title>
<g id="a_node3"><a xlink:title=" ">
<polygon fill="white" stroke="#666666" points="135.5,-206 19.5,-206 19.5,-187 135.5,-187 135.5,-206"/>
<text text-anchor="middle" x="77.5" y="-194" font-family="Helvetica,sans-Serif" font-size="10.00">ScriptComponentClass</text>
</a>
</g>
</g>
<!-- Node3&#45;&gt;Node2 -->
<g id="edge2" class="edge">
<title>Node3&#45;&gt;Node2</title>
<path fill="none" stroke="#63b8ff" d="M77.5,-175.93C77.5,-167.53 77.5,-158.13 77.5,-151.44"/>
<polygon fill="#63b8ff" stroke="#63b8ff" points="74,-175.75 77.5,-185.75 81,-175.75 74,-175.75"/>
</g>
</g>
</svg>
