<?xml version="1.0" encoding="UTF-8" standalone="no"?>
<!DOCTYPE svg PUBLIC "-//W3C//DTD SVG 1.1//EN"
 "http://www.w3.org/Graphics/SVG/1.1/DTD/svg11.dtd">
<!-- Generated by graphviz version 8.0.2 (20230410.1723)
 -->
<!-- Title: VehiclePerceivableComponent Pages: 1 -->
<svg width="181pt" height="247pt"
 viewBox="0.00 0.00 181.00 247.00" xmlns="http://www.w3.org/2000/svg" xmlns:xlink="http://www.w3.org/1999/xlink">
<g id="graph0" class="graph" transform="scale(1 1) rotate(0) translate(4 243)">
<title>VehiclePerceivableComponent</title>
<!-- Node1 -->
<g id="node1" class="node">
<title>Node1</title>
<g id="a_node1"><a xlink:title=" ">
<polygon fill="#999999" stroke="#666666" points="160.5,-74 12.5,-74 12.5,-55 160.5,-55 160.5,-74"/>
<text text-anchor="middle" x="86.5" y="-62" font-family="Helvetica,sans-Serif" font-size="10.00">VehiclePerceivableComponent</text>
</a>
</g>
</g>
<!-- Node5 -->
<g id="node5" class="node">
<title>Node5</title>
<g id="a_node5"><a xlink:href="interfaceSCR__VehiclePerceivableComponent.html" target="_top" xlink:title=" ">
<polygon fill="white" stroke="#666666" points="173,-19 0,-19 0,0 173,0 173,-19"/>
<text text-anchor="middle" x="86.5" y="-7" font-family="Helvetica,sans-Serif" font-size="10.00">SCR_VehiclePerceivableComponent</text>
</a>
</g>
</g>
<!-- Node1&#45;&gt;Node5 -->
<g id="edge4" class="edge">
<title>Node1&#45;&gt;Node5</title>
<path fill="none" stroke="#63b8ff" d="M86.5,-43.93C86.5,-35.53 86.5,-26.13 86.5,-19.44"/>
<polygon fill="#63b8ff" stroke="#63b8ff" points="83,-43.75 86.5,-53.75 90,-43.75 83,-43.75"/>
</g>
<!-- Node2 -->
<g id="node2" class="node">
<title>Node2</title>
<g id="a_node2"><a xlink:href="interfacePerceivableComponent.html" target="_top" xlink:title=" ">
<polygon fill="white" stroke="#666666" points="144.5,-129 28.5,-129 28.5,-110 144.5,-110 144.5,-129"/>
<text text-anchor="middle" x="86.5" y="-117" font-family="Helvetica,sans-Serif" font-size="10.00">PerceivableComponent</text>
</a>
</g>
</g>
<!-- Node2&#45;&gt;Node1 -->
<g id="edge1" class="edge">
<title>Node2&#45;&gt;Node1</title>
<path fill="none" stroke="#63b8ff" d="M86.5,-98.93C86.5,-90.53 86.5,-81.13 86.5,-74.44"/>
<polygon fill="#63b8ff" stroke="#63b8ff" points="83,-98.75 86.5,-108.75 90,-98.75 83,-98.75"/>
</g>
<!-- Node3 -->
<g id="node3" class="node">
<title>Node3</title>
<g id="a_node3"><a xlink:href="interfaceGameComponent.html" target="_top" xlink:title=" ">
<polygon fill="white" stroke="#666666" points="132.5,-184 40.5,-184 40.5,-165 132.5,-165 132.5,-184"/>
<text text-anchor="middle" x="86.5" y="-172" font-family="Helvetica,sans-Serif" font-size="10.00">GameComponent</text>
</a>
</g>
</g>
<!-- Node3&#45;&gt;Node2 -->
<g id="edge2" class="edge">
<title>Node3&#45;&gt;Node2</title>
<path fill="none" stroke="#63b8ff" d="M86.5,-153.93C86.5,-145.53 86.5,-136.13 86.5,-129.44"/>
<polygon fill="#63b8ff" stroke="#63b8ff" points="83,-153.75 86.5,-163.75 90,-153.75 83,-153.75"/>
</g>
<!-- Node4 -->
<g id="node4" class="node">
<title>Node4</title>
<g id="a_node4"><a xlink:title=" ">
<polygon fill="white" stroke="#666666" points="136.5,-239 36.5,-239 36.5,-220 136.5,-220 136.5,-239"/>
<text text-anchor="middle" x="86.5" y="-227" font-family="Helvetica,sans-Serif" font-size="10.00">GenericComponent</text>
</a>
</g>
</g>
<!-- Node4&#45;&gt;Node3 -->
<g id="edge3" class="edge">
<title>Node4&#45;&gt;Node3</title>
<path fill="none" stroke="#63b8ff" d="M86.5,-208.93C86.5,-200.53 86.5,-191.13 86.5,-184.44"/>
<polygon fill="#63b8ff" stroke="#63b8ff" points="83,-208.75 86.5,-218.75 90,-208.75 83,-208.75"/>
</g>
</g>
</svg>
