<?xml version="1.0" encoding="UTF-8" standalone="no"?>
<!DOCTYPE svg PUBLIC "-//W3C//DTD SVG 1.1//EN"
 "http://www.w3.org/Graphics/SVG/1.1/DTD/svg11.dtd">
<!-- Generated by graphviz version 8.0.2 (20230410.1723)
 -->
<!-- Title: SCR_NotificationPlayer Pages: 1 -->
<svg width="506pt" height="475pt"
 viewBox="0.00 0.00 506.00 474.50" xmlns="http://www.w3.org/2000/svg" xmlns:xlink="http://www.w3.org/1999/xlink">
<g id="graph0" class="graph" transform="scale(1 1) rotate(0) translate(4 470.5)">
<title>SCR_NotificationPlayer</title>
<!-- Node1 -->
<g id="node1" class="node">
<title>Node1</title>
<g id="a_node1"><a xlink:title="Notification Player Displays a notification: %1 = PlayerID name SCR_NotificationData: m_iParam1 = Pla...">
<polygon fill="#999999" stroke="#666666" points="297,-221 179,-221 179,-202 297,-202 297,-221"/>
<text text-anchor="middle" x="238" y="-209" font-family="Helvetica,sans-Serif" font-size="10.00">SCR_NotificationPlayer</text>
</a>
</g>
</g>
<!-- Node3 -->
<g id="node3" class="node">
<title>Node3</title>
<g id="a_node3"><a xlink:href="interfaceSCR__NotificationArsenalGameModeType.html" target="_top" xlink:title=" ">
<polygon fill="white" stroke="#666666" points="490,-466.5 341,-466.5 341,-436.5 490,-436.5 490,-466.5"/>
<text text-anchor="start" x="349" y="-454.5" font-family="Helvetica,sans-Serif" font-size="10.00">SCR_NotificationArsenalGame</text>
<text text-anchor="middle" x="415.5" y="-443.5" font-family="Helvetica,sans-Serif" font-size="10.00">ModeType</text>
</a>
</g>
</g>
<!-- Node1&#45;&gt;Node3 -->
<g id="edge2" class="edge">
<title>Node1&#45;&gt;Node3</title>
<path fill="none" stroke="#63b8ff" d="M242.05,-232.12C249.49,-274.99 272.6,-374.17 333,-427.5 336.76,-430.82 340.96,-433.68 345.41,-436.15"/>
<polygon fill="#63b8ff" stroke="#63b8ff" points="245.37,-231.7 240.32,-222.39 238.46,-232.82 245.37,-231.7"/>
</g>
<!-- Node4 -->
<g id="node4" class="node">
<title>Node4</title>
<g id="a_node4"><a xlink:href="interfaceSCR__NotificationOnKillfeedChanged.html" target="_top" xlink:title="Notification Player Displays a notification: %1 = PlayerID name Displays a notification: %2 = Killfee...">
<polygon fill="white" stroke="#666666" points="482.5,-418.5 348.5,-418.5 348.5,-388.5 482.5,-388.5 482.5,-418.5"/>
<text text-anchor="start" x="356.5" y="-406.5" font-family="Helvetica,sans-Serif" font-size="10.00">SCR_NotificationOnKillfeed</text>
<text text-anchor="middle" x="415.5" y="-395.5" font-family="Helvetica,sans-Serif" font-size="10.00">Changed</text>
</a>
</g>
</g>
<!-- Node1&#45;&gt;Node4 -->
<g id="edge3" class="edge">
<title>Node1&#45;&gt;Node4</title>
<path fill="none" stroke="#63b8ff" d="M244.7,-231.58C255.75,-266.87 283.48,-339.98 333,-379.5 337.61,-383.18 342.77,-386.3 348.2,-388.93"/>
<polygon fill="#63b8ff" stroke="#63b8ff" points="247.8,-230.75 241.58,-222.17 241.1,-232.75 247.8,-230.75"/>
</g>
<!-- Node5 -->
<g id="node5" class="node">
<title>Node5</title>
<g id="a_node5"><a xlink:href="interfaceSCR__NotificationPlayerAndEntityCallsign.html" target="_top" xlink:title="Notification Player and entity (group or character) callsign Displays a notification: %1 = PlayerID n...">
<polygon fill="white" stroke="#666666" points="483,-370.5 348,-370.5 348,-340.5 483,-340.5 483,-370.5"/>
<text text-anchor="start" x="356" y="-358.5" font-family="Helvetica,sans-Serif" font-size="10.00">SCR_NotificationPlayerAnd</text>
<text text-anchor="middle" x="415.5" y="-347.5" font-family="Helvetica,sans-Serif" font-size="10.00">EntityCallsign</text>
</a>
</g>
</g>
<!-- Node1&#45;&gt;Node5 -->
<g id="edge4" class="edge">
<title>Node1&#45;&gt;Node5</title>
<path fill="none" stroke="#63b8ff" d="M248.93,-230.62C263.69,-257.19 293.95,-305 333,-331.5 337.88,-334.81 343.23,-337.68 348.77,-340.15"/>
<polygon fill="#63b8ff" stroke="#63b8ff" points="251.71,-229.4 243.88,-222.26 245.54,-232.72 251.71,-229.4"/>
</g>
<!-- Node6 -->
<g id="node6" class="node">
<title>Node6</title>
<g id="a_node6"><a xlink:href="interfaceSCR__NotificationPlayerAndFaction.html" target="_top" xlink:title="Notification Player and Faction of that player Displays a notification: %1 = PlayerID name,...">
<polygon fill="white" stroke="#666666" points="483,-322.5 348,-322.5 348,-292.5 483,-292.5 483,-322.5"/>
<text text-anchor="start" x="356" y="-310.5" font-family="Helvetica,sans-Serif" font-size="10.00">SCR_NotificationPlayerAnd</text>
<text text-anchor="middle" x="415.5" y="-299.5" font-family="Helvetica,sans-Serif" font-size="10.00">Faction</text>
</a>
</g>
</g>
<!-- Node1&#45;&gt;Node6 -->
<g id="edge5" class="edge">
<title>Node1&#45;&gt;Node6</title>
<path fill="none" stroke="#63b8ff" d="M257.01,-228.57C274.98,-244.77 304.02,-268.78 333,-283.5 339.31,-286.71 346.12,-289.55 353.02,-292.07"/>
<polygon fill="#63b8ff" stroke="#63b8ff" points="259.85,-226.51 250.12,-222.32 255.11,-231.66 259.85,-226.51"/>
</g>
<!-- Node7 -->
<g id="node7" class="node">
<title>Node7</title>
<g id="a_node7"><a xlink:href="interfaceSCR__NotificationPlayerAndGroupName.html" target="_top" xlink:title="Notification Player and group name Displays a notification: %1 = PlayerID name, %2 = Custom Group nam...">
<polygon fill="white" stroke="#666666" points="483,-274.5 348,-274.5 348,-244.5 483,-244.5 483,-274.5"/>
<text text-anchor="start" x="356" y="-262.5" font-family="Helvetica,sans-Serif" font-size="10.00">SCR_NotificationPlayerAnd</text>
<text text-anchor="middle" x="415.5" y="-251.5" font-family="Helvetica,sans-Serif" font-size="10.00">GroupName</text>
</a>
</g>
</g>
<!-- Node1&#45;&gt;Node7 -->
<g id="edge6" class="edge">
<title>Node1&#45;&gt;Node7</title>
<path fill="none" stroke="#63b8ff" d="M285.88,-224.32C308.1,-230.4 334.82,-237.71 358.14,-244.08"/>
<polygon fill="#63b8ff" stroke="#63b8ff" points="286.93,-220.71 276.36,-221.45 285.09,-227.46 286.93,-220.71"/>
</g>
<!-- Node8 -->
<g id="node8" class="node">
<title>Node8</title>
<g id="a_node8"><a xlink:href="interfaceSCR__NotificationPlayerAndLocation.html" target="_top" xlink:title="Notification Player, distance and location Displays a notification: %1 = PlayerID name,...">
<polygon fill="white" stroke="#666666" points="483,-226.5 348,-226.5 348,-196.5 483,-196.5 483,-226.5"/>
<text text-anchor="start" x="356" y="-214.5" font-family="Helvetica,sans-Serif" font-size="10.00">SCR_NotificationPlayerAnd</text>
<text text-anchor="middle" x="415.5" y="-203.5" font-family="Helvetica,sans-Serif" font-size="10.00">Location</text>
</a>
</g>
</g>
<!-- Node1&#45;&gt;Node8 -->
<g id="edge7" class="edge">
<title>Node1&#45;&gt;Node8</title>
<path fill="none" stroke="#63b8ff" d="M308.16,-211.5C321.11,-211.5 334.63,-211.5 347.52,-211.5"/>
<polygon fill="#63b8ff" stroke="#63b8ff" points="308.44,-208 298.44,-211.5 308.44,-215 308.44,-208"/>
</g>
<!-- Node9 -->
<g id="node9" class="node">
<title>Node9</title>
<g id="a_node9"><a xlink:href="interfaceSCR__NotificationPlayerAndNumber.html" target="_top" xlink:title="Notification Player and number Displays a notification: %1 = PlayerID name, %2 = given int converted ...">
<polygon fill="white" stroke="#666666" points="483,-178.5 348,-178.5 348,-148.5 483,-148.5 483,-178.5"/>
<text text-anchor="start" x="356" y="-166.5" font-family="Helvetica,sans-Serif" font-size="10.00">SCR_NotificationPlayerAnd</text>
<text text-anchor="middle" x="415.5" y="-155.5" font-family="Helvetica,sans-Serif" font-size="10.00">Number</text>
</a>
</g>
</g>
<!-- Node1&#45;&gt;Node9 -->
<g id="edge8" class="edge">
<title>Node1&#45;&gt;Node9</title>
<path fill="none" stroke="#63b8ff" d="M285.88,-198.68C308.1,-192.6 334.82,-185.29 358.14,-178.92"/>
<polygon fill="#63b8ff" stroke="#63b8ff" points="285.09,-195.54 276.36,-201.55 286.93,-202.29 285.09,-195.54"/>
</g>
<!-- Node10 -->
<g id="node10" class="node">
<title>Node10</title>
<g id="a_node10"><a xlink:href="interfaceSCR__NotificationPlayerBanned.html" target="_top" xlink:title="Notification Player banned Displays a notification: %1 = PlayerID name, %2 = days,...">
<polygon fill="white" stroke="#666666" points="491,-130 340,-130 340,-111 491,-111 491,-130"/>
<text text-anchor="middle" x="415.5" y="-118" font-family="Helvetica,sans-Serif" font-size="10.00">SCR_NotificationPlayerBanned</text>
</a>
</g>
</g>
<!-- Node1&#45;&gt;Node10 -->
<g id="edge9" class="edge">
<title>Node1&#45;&gt;Node10</title>
<path fill="none" stroke="#63b8ff" d="M256.54,-194.33C274.35,-177.85 303.45,-153.46 333,-139.5 340.75,-135.84 349.26,-132.86 357.76,-130.43"/>
<polygon fill="#63b8ff" stroke="#63b8ff" points="254.6,-191.29 249.75,-200.71 259.41,-196.37 254.6,-191.29"/>
</g>
<!-- Node11 -->
<g id="node11" class="node">
<title>Node11</title>
<g id="a_node11"><a xlink:href="interfaceSCR__NotificationPlayerKicked.html" target="_top" xlink:title="Notification Player kicked or banned SCR_NotificationData: m_iParam1 = PlayerID, m_iParam2 = kick rea...">
<polygon fill="white" stroke="#666666" points="489.5,-93 341.5,-93 341.5,-74 489.5,-74 489.5,-93"/>
<text text-anchor="middle" x="415.5" y="-81" font-family="Helvetica,sans-Serif" font-size="10.00">SCR_NotificationPlayerKicked</text>
</a>
</g>
</g>
<!-- Node1&#45;&gt;Node11 -->
<g id="edge10" class="edge">
<title>Node1&#45;&gt;Node11</title>
<path fill="none" stroke="#63b8ff" d="M249.75,-192.56C264.95,-167.6 295.14,-124.22 333,-101.5 338.34,-98.29 344.19,-95.66 350.22,-93.49"/>
<polygon fill="#63b8ff" stroke="#63b8ff" points="246.41,-190.33 244.34,-200.72 252.44,-193.89 246.41,-190.33"/>
</g>
<!-- Node12 -->
<g id="node12" class="node">
<title>Node12</title>
<g id="a_node12"><a xlink:href="interfaceSCR__NotificationWeatherChanged.html" target="_top" xlink:title="Notification Player Displays a notification: %1 = PlayerID name SCR_NotificationData: m_iParam1 = Pla...">
<polygon fill="white" stroke="#666666" points="498,-56 333,-56 333,-37 498,-37 498,-56"/>
<text text-anchor="middle" x="415.5" y="-44" font-family="Helvetica,sans-Serif" font-size="10.00">SCR_NotificationWeatherChanged</text>
</a>
</g>
</g>
<!-- Node1&#45;&gt;Node12 -->
<g id="edge11" class="edge">
<title>Node1&#45;&gt;Node12</title>
<path fill="none" stroke="#63b8ff" d="M245.87,-191.81C258.1,-159.78 286.79,-96.77 333,-64.5 337.63,-61.26 342.75,-58.6 348.09,-56.4"/>
<polygon fill="#63b8ff" stroke="#63b8ff" points="242.38,-190.15 242.23,-200.74 248.95,-192.55 242.38,-190.15"/>
</g>
<!-- Node13 -->
<g id="node13" class="node">
<title>Node13</title>
<g id="a_node13"><a xlink:href="interfaceSCR__NotificationWindChanged.html" target="_top" xlink:title="Notification Player Displays a notification: %1 = PlayerID name SCR_NotificationData: m_iParam1 = Pla...">
<polygon fill="white" stroke="#666666" points="491,-19 340,-19 340,0 491,0 491,-19"/>
<text text-anchor="middle" x="415.5" y="-7" font-family="Helvetica,sans-Serif" font-size="10.00">SCR_NotificationWindChanged</text>
</a>
</g>
</g>
<!-- Node1&#45;&gt;Node13 -->
<g id="edge12" class="edge">
<title>Node1&#45;&gt;Node13</title>
<path fill="none" stroke="#63b8ff" d="M243.38,-191.02C252.71,-152.59 278.33,-69.75 333,-27.5 337.13,-24.31 341.71,-21.66 346.53,-19.47"/>
<polygon fill="#63b8ff" stroke="#63b8ff" points="239.77,-190.1 240.95,-200.62 246.59,-191.66 239.77,-190.1"/>
</g>
<!-- Node2 -->
<g id="node2" class="node">
<title>Node2</title>
<g id="a_node2"><a xlink:href="interfaceSCR__NotificationDisplayData.html" target="_top" xlink:title="Used to get the display information for each notification.">
<polygon fill="white" stroke="#666666" points="143,-221 0,-221 0,-202 143,-202 143,-221"/>
<text text-anchor="middle" x="71.5" y="-209" font-family="Helvetica,sans-Serif" font-size="10.00">SCR_NotificationDisplayData</text>
</a>
</g>
</g>
<!-- Node2&#45;&gt;Node1 -->
<g id="edge1" class="edge">
<title>Node2&#45;&gt;Node1</title>
<path fill="none" stroke="#63b8ff" d="M154.1,-211.5C162.41,-211.5 170.73,-211.5 178.71,-211.5"/>
<polygon fill="#63b8ff" stroke="#63b8ff" points="154.22,-208 144.22,-211.5 154.22,-215 154.22,-208"/>
</g>
</g>
</svg>
