<?xml version="1.0" encoding="UTF-8" standalone="no"?>
<!DOCTYPE svg PUBLIC "-//W3C//DTD SVG 1.1//EN"
 "http://www.w3.org/Graphics/SVG/1.1/DTD/svg11.dtd">
<!-- Generated by graphviz version 8.0.2 (20230410.1723)
 -->
<!-- Title: EntitySlotInfo Pages: 1 -->
<svg width="590pt" height="302pt"
 viewBox="0.00 0.00 589.50 302.00" xmlns="http://www.w3.org/2000/svg" xmlns:xlink="http://www.w3.org/1999/xlink">
<g id="graph0" class="graph" transform="scale(1 1) rotate(0) translate(4 298)">
<title>EntitySlotInfo</title>
<!-- Node1 -->
<g id="node1" class="node">
<title>Node1</title>
<g id="a_node1"><a xlink:title="Adds ability to attach an object to a slot.">
<polygon fill="#999999" stroke="#666666" points="294.5,-239 220.5,-239 220.5,-220 294.5,-220 294.5,-239"/>
<text text-anchor="middle" x="257.5" y="-227" font-family="Helvetica,sans-Serif" font-size="10.00">EntitySlotInfo</text>
</a>
</g>
</g>
<!-- Node3 -->
<g id="node3" class="node">
<title>Node3</title>
<g id="a_node3"><a xlink:href="interfaceFuzeSlotInfo.html" target="_top" xlink:title="Slot that is meant to be used for excplosive charge fuze.">
<polygon fill="white" stroke="#666666" points="186,-184 115,-184 115,-165 186,-165 186,-184"/>
<text text-anchor="middle" x="150.5" y="-172" font-family="Helvetica,sans-Serif" font-size="10.00">FuzeSlotInfo</text>
</a>
</g>
</g>
<!-- Node1&#45;&gt;Node3 -->
<g id="edge2" class="edge">
<title>Node1&#45;&gt;Node3</title>
<path fill="none" stroke="#63b8ff" d="M229.57,-214.67C210.24,-205.09 185.07,-192.62 168.38,-184.36"/>
<polygon fill="#63b8ff" stroke="#63b8ff" points="227.83,-218.21 238.35,-219.51 230.94,-211.93 227.83,-218.21"/>
</g>
<!-- Node4 -->
<g id="node4" class="node">
<title>Node4</title>
<g id="a_node4"><a xlink:href="interfaceInventoryStorageSlot.html" target="_top" xlink:title=" ">
<polygon fill="white" stroke="#666666" points="310.5,-184 204.5,-184 204.5,-165 310.5,-165 310.5,-184"/>
<text text-anchor="middle" x="257.5" y="-172" font-family="Helvetica,sans-Serif" font-size="10.00">InventoryStorageSlot</text>
</a>
</g>
</g>
<!-- Node1&#45;&gt;Node4 -->
<g id="edge3" class="edge">
<title>Node1&#45;&gt;Node4</title>
<path fill="none" stroke="#63b8ff" d="M257.5,-208.93C257.5,-200.53 257.5,-191.13 257.5,-184.44"/>
<polygon fill="#63b8ff" stroke="#63b8ff" points="254,-208.75 257.5,-218.75 261,-208.75 254,-208.75"/>
</g>
<!-- Node10 -->
<g id="node10" class="node">
<title>Node10</title>
<g id="a_node10"><a xlink:href="interfaceRegisteringComponentSlotInfo.html" target="_top" xlink:title="Adds ability to register managers to parent entity.">
<polygon fill="white" stroke="#666666" points="476,-184 329,-184 329,-165 476,-165 476,-184"/>
<text text-anchor="middle" x="402.5" y="-172" font-family="Helvetica,sans-Serif" font-size="10.00">RegisteringComponentSlotInfo</text>
</a>
</g>
</g>
<!-- Node1&#45;&gt;Node10 -->
<g id="edge9" class="edge">
<title>Node1&#45;&gt;Node10</title>
<path fill="none" stroke="#63b8ff" d="M292.13,-215.84C318.7,-206.13 354.71,-192.97 378.27,-184.36"/>
<polygon fill="#63b8ff" stroke="#63b8ff" points="291.29,-212.79 283.1,-219.51 293.69,-219.36 291.29,-212.79"/>
</g>
<!-- Node2 -->
<g id="node2" class="node">
<title>Node2</title>
<g id="a_node2"><a xlink:title=" ">
<polygon fill="white" stroke="#666666" points="284.5,-294 230.5,-294 230.5,-275 284.5,-275 284.5,-294"/>
<text text-anchor="middle" x="257.5" y="-282" font-family="Helvetica,sans-Serif" font-size="10.00">PointInfo</text>
</a>
</g>
</g>
<!-- Node2&#45;&gt;Node1 -->
<g id="edge1" class="edge">
<title>Node2&#45;&gt;Node1</title>
<path fill="none" stroke="#63b8ff" d="M257.5,-263.93C257.5,-255.53 257.5,-246.13 257.5,-239.44"/>
<polygon fill="#63b8ff" stroke="#63b8ff" points="254,-263.75 257.5,-273.75 261,-263.75 254,-263.75"/>
</g>
<!-- Node5 -->
<g id="node5" class="node">
<title>Node5</title>
<g id="a_node5"><a xlink:href="interfaceEquipmentStorageSlot.html" target="_top" xlink:title=" ">
<polygon fill="white" stroke="#666666" points="203.5,-129 89.5,-129 89.5,-110 203.5,-110 203.5,-129"/>
<text text-anchor="middle" x="146.5" y="-117" font-family="Helvetica,sans-Serif" font-size="10.00">EquipmentStorageSlot</text>
</a>
</g>
</g>
<!-- Node4&#45;&gt;Node5 -->
<g id="edge4" class="edge">
<title>Node4&#45;&gt;Node5</title>
<path fill="none" stroke="#63b8ff" d="M228.8,-159.8C208.71,-150.2 182.44,-137.66 165.05,-129.36"/>
<polygon fill="#63b8ff" stroke="#63b8ff" points="227.14,-163.36 237.67,-164.51 230.15,-157.04 227.14,-163.36"/>
</g>
<!-- Node9 -->
<g id="node9" class="node">
<title>Node9</title>
<g id="a_node9"><a xlink:href="interfaceLoadoutSlotInfo.html" target="_top" xlink:title=" ">
<polygon fill="white" stroke="#666666" points="305,-129 222,-129 222,-110 305,-110 305,-129"/>
<text text-anchor="middle" x="263.5" y="-117" font-family="Helvetica,sans-Serif" font-size="10.00">LoadoutSlotInfo</text>
</a>
</g>
</g>
<!-- Node4&#45;&gt;Node9 -->
<g id="edge8" class="edge">
<title>Node4&#45;&gt;Node9</title>
<path fill="none" stroke="#63b8ff" d="M259.72,-153.93C260.67,-145.53 261.73,-136.13 262.49,-129.44"/>
<polygon fill="#63b8ff" stroke="#63b8ff" points="256.14,-153.42 258.49,-163.75 263.09,-154.21 256.14,-153.42"/>
</g>
<!-- Node6 -->
<g id="node6" class="node">
<title>Node6</title>
<g id="a_node6"><a xlink:href="interfaceSCR__EquipmentStorageSlot.html" target="_top" xlink:title=" ">
<polygon fill="white" stroke="#666666" points="216.5,-74 76.5,-74 76.5,-55 216.5,-55 216.5,-74"/>
<text text-anchor="middle" x="146.5" y="-62" font-family="Helvetica,sans-Serif" font-size="10.00">SCR_EquipmentStorageSlot</text>
</a>
</g>
</g>
<!-- Node5&#45;&gt;Node6 -->
<g id="edge5" class="edge">
<title>Node5&#45;&gt;Node6</title>
<path fill="none" stroke="#63b8ff" d="M146.5,-98.93C146.5,-90.53 146.5,-81.13 146.5,-74.44"/>
<polygon fill="#63b8ff" stroke="#63b8ff" points="143,-98.75 146.5,-108.75 150,-98.75 143,-98.75"/>
</g>
<!-- Node7 -->
<g id="node7" class="node">
<title>Node7</title>
<g id="a_node7"><a xlink:href="interfaceSCR__SalineBagStorageSlot.html" target="_top" xlink:title=" ">
<polygon fill="white" stroke="#666666" points="137,-19 0,-19 0,0 137,0 137,-19"/>
<text text-anchor="middle" x="68.5" y="-7" font-family="Helvetica,sans-Serif" font-size="10.00">SCR_SalineBagStorageSlot</text>
</a>
</g>
</g>
<!-- Node6&#45;&gt;Node7 -->
<g id="edge6" class="edge">
<title>Node6&#45;&gt;Node7</title>
<path fill="none" stroke="#63b8ff" d="M124.37,-48.46C110.53,-39.06 93.2,-27.28 81.54,-19.36"/>
<polygon fill="#63b8ff" stroke="#63b8ff" points="122.03,-51.78 132.27,-54.51 125.96,-45.99 122.03,-51.78"/>
</g>
<!-- Node8 -->
<g id="node8" class="node">
<title>Node8</title>
<g id="a_node8"><a xlink:href="interfaceSCR__TourniquetStorageSlot.html" target="_top" xlink:title=" ">
<polygon fill="white" stroke="#666666" points="293.5,-19 155.5,-19 155.5,0 293.5,0 293.5,-19"/>
<text text-anchor="middle" x="224.5" y="-7" font-family="Helvetica,sans-Serif" font-size="10.00">SCR_TourniquetStorageSlot</text>
</a>
</g>
</g>
<!-- Node6&#45;&gt;Node8 -->
<g id="edge7" class="edge">
<title>Node6&#45;&gt;Node8</title>
<path fill="none" stroke="#63b8ff" d="M168.63,-48.46C182.47,-39.06 199.8,-27.28 211.46,-19.36"/>
<polygon fill="#63b8ff" stroke="#63b8ff" points="167.04,-45.99 160.73,-54.51 170.97,-51.78 167.04,-45.99"/>
</g>
<!-- Node11 -->
<g id="node11" class="node">
<title>Node11</title>
<g id="a_node11"><a xlink:href="interfaceEmissiveLightSurfaceSlot.html" target="_top" xlink:title=" ">
<polygon fill="white" stroke="#666666" points="461,-129 334,-129 334,-110 461,-110 461,-129"/>
<text text-anchor="middle" x="397.5" y="-117" font-family="Helvetica,sans-Serif" font-size="10.00">EmissiveLightSurfaceSlot</text>
</a>
</g>
</g>
<!-- Node10&#45;&gt;Node11 -->
<g id="edge10" class="edge">
<title>Node10&#45;&gt;Node11</title>
<path fill="none" stroke="#63b8ff" d="M400.65,-153.93C399.86,-145.53 398.97,-136.13 398.34,-129.44"/>
<polygon fill="#63b8ff" stroke="#63b8ff" points="397.25,-154.12 401.67,-163.75 404.22,-153.46 397.25,-154.12"/>
</g>
<!-- Node12 -->
<g id="node12" class="node">
<title>Node12</title>
<g id="a_node12"><a xlink:href="interfaceSCR__WheelSlotInfo.html" target="_top" xlink:title=" ">
<polygon fill="white" stroke="#666666" points="581.5,-129 479.5,-129 479.5,-110 581.5,-110 581.5,-129"/>
<text text-anchor="middle" x="530.5" y="-117" font-family="Helvetica,sans-Serif" font-size="10.00">SCR_WheelSlotInfo</text>
</a>
</g>
</g>
<!-- Node10&#45;&gt;Node12 -->
<g id="edge11" class="edge">
<title>Node10&#45;&gt;Node12</title>
<path fill="none" stroke="#63b8ff" d="M434.32,-160.32C457.65,-150.67 488.68,-137.82 509.11,-129.36"/>
<polygon fill="#63b8ff" stroke="#63b8ff" points="433.11,-157.45 425.21,-164.51 435.79,-163.92 433.11,-157.45"/>
</g>
</g>
</svg>
