<?xml version="1.0" encoding="UTF-8" standalone="no"?>
<!DOCTYPE svg PUBLIC "-//W3C//DTD SVG 1.1//EN"
 "http://www.w3.org/Graphics/SVG/1.1/DTD/svg11.dtd">
<!-- Generated by graphviz version 8.0.2 (20230410.1723)
 -->
<!-- Title: SCR_ButtonEffectWidgetBase Pages: 1 -->
<svg width="494pt" height="323pt"
 viewBox="0.00 0.00 494.00 323.00" xmlns="http://www.w3.org/2000/svg" xmlns:xlink="http://www.w3.org/1999/xlink">
<g id="graph0" class="graph" transform="scale(1 1) rotate(0) translate(4 319)">
<title>SCR_ButtonEffectWidgetBase</title>
<!-- Node1 -->
<g id="node1" class="node">
<title>Node1</title>
<g id="a_node1"><a xlink:title="Button effect which does something with a specific widget.">
<polygon fill="#999999" stroke="#666666" points="303,-167 154,-167 154,-148 303,-148 303,-167"/>
<text text-anchor="middle" x="228.5" y="-155" font-family="Helvetica,sans-Serif" font-size="10.00">SCR_ButtonEffectWidgetBase</text>
</a>
</g>
</g>
<!-- Node3 -->
<g id="node3" class="node">
<title>Node3</title>
<g id="a_node3"><a xlink:href="interfaceSCR__ButtonEffectColor.html" target="_top" xlink:title="Effect which colorizes a widget with given name.">
<polygon fill="white" stroke="#666666" points="471.5,-315 353.5,-315 353.5,-296 471.5,-296 471.5,-315"/>
<text text-anchor="middle" x="412.5" y="-303" font-family="Helvetica,sans-Serif" font-size="10.00">SCR_ButtonEffectColor</text>
</a>
</g>
</g>
<!-- Node1&#45;&gt;Node3 -->
<g id="edge2" class="edge">
<title>Node1&#45;&gt;Node3</title>
<path fill="none" stroke="#63b8ff" d="M240.32,-176.84C257.42,-205.56 293.49,-259.15 339,-287.5 344.17,-290.72 349.89,-293.37 355.78,-295.54"/>
<polygon fill="#63b8ff" stroke="#63b8ff" points="242.94,-175.37 234.89,-168.47 236.88,-178.88 242.94,-175.37"/>
</g>
<!-- Node4 -->
<g id="node4" class="node">
<title>Node4</title>
<g id="a_node4"><a xlink:href="interfaceSCR__ButtonEffectImage.html" target="_top" xlink:title="This effect modifies texture of an image.">
<polygon fill="white" stroke="#666666" points="473.5,-278 351.5,-278 351.5,-259 473.5,-259 473.5,-278"/>
<text text-anchor="middle" x="412.5" y="-266" font-family="Helvetica,sans-Serif" font-size="10.00">SCR_ButtonEffectImage</text>
</a>
</g>
</g>
<!-- Node1&#45;&gt;Node4 -->
<g id="edge3" class="edge">
<title>Node1&#45;&gt;Node4</title>
<path fill="none" stroke="#63b8ff" d="M245.32,-175.2C265.15,-196.29 301.16,-231.1 339,-250.5 345.23,-253.69 352.06,-256.34 358.96,-258.53"/>
<polygon fill="#63b8ff" stroke="#63b8ff" points="248.43,-173.32 239.08,-168.34 243.28,-178.07 248.43,-173.32"/>
</g>
<!-- Node5 -->
<g id="node5" class="node">
<title>Node5</title>
<g id="a_node5"><a xlink:href="interfaceSCR__ButtonEffectOpacity.html" target="_top" xlink:title="Effect which animated opacity of the target widget.">
<polygon fill="white" stroke="#666666" points="477,-241 348,-241 348,-222 477,-222 477,-241"/>
<text text-anchor="middle" x="412.5" y="-229" font-family="Helvetica,sans-Serif" font-size="10.00">SCR_ButtonEffectOpacity</text>
</a>
</g>
</g>
<!-- Node1&#45;&gt;Node5 -->
<g id="edge4" class="edge">
<title>Node1&#45;&gt;Node5</title>
<path fill="none" stroke="#63b8ff" d="M255.51,-172.96C277.22,-185.33 309.31,-202.39 339,-213.5 347.14,-216.55 355.98,-219.23 364.61,-221.53"/>
<polygon fill="#63b8ff" stroke="#63b8ff" points="257.43,-169.45 247.02,-167.47 253.93,-175.51 257.43,-169.45"/>
</g>
<!-- Node6 -->
<g id="node6" class="node">
<title>Node6</title>
<g id="a_node6"><a xlink:href="interfaceSCR__ButtonEffectPadding.html" target="_top" xlink:title="Effect which changes all padding values of a target widget.">
<polygon fill="white" stroke="#666666" points="478,-204 347,-204 347,-185 478,-185 478,-204"/>
<text text-anchor="middle" x="412.5" y="-192" font-family="Helvetica,sans-Serif" font-size="10.00">SCR_ButtonEffectPadding</text>
</a>
</g>
</g>
<!-- Node1&#45;&gt;Node6 -->
<g id="edge5" class="edge">
<title>Node1&#45;&gt;Node6</title>
<path fill="none" stroke="#63b8ff" d="M288.96,-169.59C312.8,-174.43 339.93,-179.95 362.59,-184.56"/>
<polygon fill="#63b8ff" stroke="#63b8ff" points="289.77,-165.98 279.27,-167.42 288.37,-172.84 289.77,-165.98"/>
</g>
<!-- Node7 -->
<g id="node7" class="node">
<title>Node7</title>
<g id="a_node7"><a xlink:href="interfaceSCR__ButtonEffectPosition.html" target="_top" xlink:title=" ">
<polygon fill="white" stroke="#666666" points="478,-167 347,-167 347,-148 478,-148 478,-167"/>
<text text-anchor="middle" x="412.5" y="-155" font-family="Helvetica,sans-Serif" font-size="10.00">SCR_ButtonEffectPosition</text>
</a>
</g>
</g>
<!-- Node1&#45;&gt;Node7 -->
<g id="edge6" class="edge">
<title>Node1&#45;&gt;Node7</title>
<path fill="none" stroke="#63b8ff" d="M314.14,-157.5C325.08,-157.5 336.15,-157.5 346.7,-157.5"/>
<polygon fill="#63b8ff" stroke="#63b8ff" points="314.26,-154 304.26,-157.5 314.26,-161 314.26,-154"/>
</g>
<!-- Node8 -->
<g id="node8" class="node">
<title>Node8</title>
<g id="a_node8"><a xlink:href="interfaceSCR__ButtonEffectSize.html" target="_top" xlink:title=" ">
<polygon fill="white" stroke="#666666" points="470,-130 355,-130 355,-111 470,-111 470,-130"/>
<text text-anchor="middle" x="412.5" y="-118" font-family="Helvetica,sans-Serif" font-size="10.00">SCR_ButtonEffectSize</text>
</a>
</g>
</g>
<!-- Node1&#45;&gt;Node8 -->
<g id="edge7" class="edge">
<title>Node1&#45;&gt;Node8</title>
<path fill="none" stroke="#63b8ff" d="M288.96,-145.41C312.8,-140.57 339.93,-135.05 362.59,-130.44"/>
<polygon fill="#63b8ff" stroke="#63b8ff" points="288.37,-142.16 279.27,-147.58 289.77,-149.02 288.37,-142.16"/>
</g>
<!-- Node9 -->
<g id="node9" class="node">
<title>Node9</title>
<g id="a_node9"><a xlink:href="interfaceSCR__ButtonEffectSlaveButton.html" target="_top" xlink:title="Effect which passes all subscribed events to another modular button.">
<polygon fill="white" stroke="#666666" points="486,-93 339,-93 339,-74 486,-74 486,-93"/>
<text text-anchor="middle" x="412.5" y="-81" font-family="Helvetica,sans-Serif" font-size="10.00">SCR_ButtonEffectSlaveButton</text>
</a>
</g>
</g>
<!-- Node1&#45;&gt;Node9 -->
<g id="edge8" class="edge">
<title>Node1&#45;&gt;Node9</title>
<path fill="none" stroke="#63b8ff" d="M255.51,-142.04C277.22,-129.67 309.31,-112.61 339,-101.5 347.14,-98.45 355.98,-95.77 364.61,-93.47"/>
<polygon fill="#63b8ff" stroke="#63b8ff" points="253.93,-139.49 247.02,-147.53 257.43,-145.55 253.93,-139.49"/>
</g>
<!-- Node10 -->
<g id="node10" class="node">
<title>Node10</title>
<g id="a_node10"><a xlink:href="interfaceSCR__ButtonEffectText.html" target="_top" xlink:title="Effect which changes text of a text or rich text widget.">
<polygon fill="white" stroke="#666666" points="469.5,-56 355.5,-56 355.5,-37 469.5,-37 469.5,-56"/>
<text text-anchor="middle" x="412.5" y="-44" font-family="Helvetica,sans-Serif" font-size="10.00">SCR_ButtonEffectText</text>
</a>
</g>
</g>
<!-- Node1&#45;&gt;Node10 -->
<g id="edge9" class="edge">
<title>Node1&#45;&gt;Node10</title>
<path fill="none" stroke="#63b8ff" d="M245.32,-139.8C265.15,-118.71 301.16,-83.9 339,-64.5 345.23,-61.31 352.06,-58.66 358.96,-56.47"/>
<polygon fill="#63b8ff" stroke="#63b8ff" points="243.28,-136.93 239.08,-146.66 248.43,-141.68 243.28,-136.93"/>
</g>
<!-- Node11 -->
<g id="node11" class="node">
<title>Node11</title>
<g id="a_node11"><a xlink:href="interfaceSCR__ButtonEffectVisibility.html" target="_top" xlink:title="Effect which sets a widget visible (SetVisible).">
<polygon fill="white" stroke="#666666" points="478.5,-19 346.5,-19 346.5,0 478.5,0 478.5,-19"/>
<text text-anchor="middle" x="412.5" y="-7" font-family="Helvetica,sans-Serif" font-size="10.00">SCR_ButtonEffectVisibility</text>
</a>
</g>
</g>
<!-- Node1&#45;&gt;Node11 -->
<g id="edge10" class="edge">
<title>Node1&#45;&gt;Node11</title>
<path fill="none" stroke="#63b8ff" d="M240.32,-138.16C257.42,-109.44 293.49,-55.85 339,-27.5 344.17,-24.28 349.89,-21.63 355.78,-19.46"/>
<polygon fill="#63b8ff" stroke="#63b8ff" points="236.88,-136.12 234.89,-146.53 242.94,-139.63 236.88,-136.12"/>
</g>
<!-- Node2 -->
<g id="node2" class="node">
<title>Node2</title>
<g id="a_node2"><a xlink:href="interfaceSCR__ButtonEffectBase.html" target="_top" xlink:title="Base class for modular button effects.">
<polygon fill="white" stroke="#666666" points="118,-167 0,-167 0,-148 118,-148 118,-167"/>
<text text-anchor="middle" x="59" y="-155" font-family="Helvetica,sans-Serif" font-size="10.00">SCR_ButtonEffectBase</text>
</a>
</g>
</g>
<!-- Node2&#45;&gt;Node1 -->
<g id="edge1" class="edge">
<title>Node2&#45;&gt;Node1</title>
<path fill="none" stroke="#63b8ff" d="M129.01,-157.5C137.11,-157.5 145.39,-157.5 153.56,-157.5"/>
<polygon fill="#63b8ff" stroke="#63b8ff" points="129.11,-154 119.11,-157.5 129.11,-161 129.11,-154"/>
</g>
</g>
</svg>
