<?xml version="1.0" encoding="UTF-8" standalone="no"?>
<!DOCTYPE svg PUBLIC "-//W3C//DTD SVG 1.1//EN"
 "http://www.w3.org/Graphics/SVG/1.1/DTD/svg11.dtd">
<!-- Generated by graphviz version 8.0.2 (20230410.1723)
 -->
<!-- Title: SCR_DeployMenuBaseScreenComponentClass Pages: 1 -->
<svg width="356pt" height="225pt"
 viewBox="0.00 0.00 355.50 225.00" xmlns="http://www.w3.org/2000/svg" xmlns:xlink="http://www.w3.org/1999/xlink">
<g id="graph0" class="graph" transform="scale(1 1) rotate(0) translate(4 221)">
<title>SCR_DeployMenuBaseScreenComponentClass</title>
<!-- Node1 -->
<g id="node1" class="node">
<title>Node1</title>
<g id="a_node1"><a xlink:title=" ">
<polygon fill="#999999" stroke="#666666" points="248,-96 99,-96 99,-66 248,-66 248,-96"/>
<text text-anchor="start" x="107" y="-84" font-family="Helvetica,sans-Serif" font-size="10.00">SCR_DeployMenuBaseScreen</text>
<text text-anchor="middle" x="173.5" y="-73" font-family="Helvetica,sans-Serif" font-size="10.00">ComponentClass</text>
</a>
</g>
</g>
<!-- Node4 -->
<g id="node4" class="node">
<title>Node4</title>
<g id="a_node4"><a xlink:href="interfaceSCR__DebriefingScreenComponentClass.html" target="_top" xlink:title=" ">
<polygon fill="white" stroke="#666666" points="165,-30 0,-30 0,0 165,0 165,-30"/>
<text text-anchor="start" x="8" y="-18" font-family="Helvetica,sans-Serif" font-size="10.00">SCR_DebriefingScreenComponent</text>
<text text-anchor="middle" x="82.5" y="-7" font-family="Helvetica,sans-Serif" font-size="10.00">Class</text>
</a>
</g>
</g>
<!-- Node1&#45;&gt;Node4 -->
<g id="edge3" class="edge">
<title>Node1&#45;&gt;Node4</title>
<path fill="none" stroke="#63b8ff" d="M144.39,-59.52C130.89,-50.03 115.17,-38.98 102.95,-30.39"/>
<polygon fill="#63b8ff" stroke="#63b8ff" points="142.11,-62.91 152.3,-65.8 146.14,-57.18 142.11,-62.91"/>
</g>
<!-- Node5 -->
<g id="node5" class="node">
<title>Node5</title>
<g id="a_node5"><a xlink:href="interfaceSCR__WelcomeScreenComponentClass.html" target="_top" xlink:title=" ">
<polygon fill="white" stroke="#666666" points="347.5,-30 183.5,-30 183.5,0 347.5,0 347.5,-30"/>
<text text-anchor="start" x="191.5" y="-18" font-family="Helvetica,sans-Serif" font-size="10.00">SCR_WelcomeScreenComponent</text>
<text text-anchor="middle" x="265.5" y="-7" font-family="Helvetica,sans-Serif" font-size="10.00">Class</text>
</a>
</g>
</g>
<!-- Node1&#45;&gt;Node5 -->
<g id="edge4" class="edge">
<title>Node1&#45;&gt;Node5</title>
<path fill="none" stroke="#63b8ff" d="M202.93,-59.52C216.58,-50.03 232.47,-38.98 244.82,-30.39"/>
<polygon fill="#63b8ff" stroke="#63b8ff" points="201.13,-57.21 194.92,-65.8 205.13,-62.96 201.13,-57.21"/>
</g>
<!-- Node2 -->
<g id="node2" class="node">
<title>Node2</title>
<g id="a_node2"><a xlink:href="interfaceSCR__BaseGameModeComponentClass.html" target="_top" xlink:title=" ">
<polygon fill="white" stroke="#666666" points="255.5,-162 91.5,-162 91.5,-132 255.5,-132 255.5,-162"/>
<text text-anchor="start" x="99.5" y="-150" font-family="Helvetica,sans-Serif" font-size="10.00">SCR_BaseGameModeComponent</text>
<text text-anchor="middle" x="173.5" y="-139" font-family="Helvetica,sans-Serif" font-size="10.00">Class</text>
</a>
</g>
</g>
<!-- Node2&#45;&gt;Node1 -->
<g id="edge1" class="edge">
<title>Node2&#45;&gt;Node1</title>
<path fill="none" stroke="#63b8ff" d="M173.5,-120.97C173.5,-112.55 173.5,-103.45 173.5,-96.16"/>
<polygon fill="#63b8ff" stroke="#63b8ff" points="170,-120.8 173.5,-130.8 177,-120.8 170,-120.8"/>
</g>
<!-- Node3 -->
<g id="node3" class="node">
<title>Node3</title>
<g id="a_node3"><a xlink:title=" ">
<polygon fill="white" stroke="#666666" points="231.5,-217 115.5,-217 115.5,-198 231.5,-198 231.5,-217"/>
<text text-anchor="middle" x="173.5" y="-205" font-family="Helvetica,sans-Serif" font-size="10.00">ScriptComponentClass</text>
</a>
</g>
</g>
<!-- Node3&#45;&gt;Node2 -->
<g id="edge2" class="edge">
<title>Node3&#45;&gt;Node2</title>
<path fill="none" stroke="#63b8ff" d="M173.5,-187.08C173.5,-178.92 173.5,-169.6 173.5,-162.11"/>
<polygon fill="#63b8ff" stroke="#63b8ff" points="170,-186.87 173.5,-196.87 177,-186.87 170,-186.87"/>
</g>
</g>
</svg>
