<?xml version="1.0" encoding="UTF-8" standalone="no"?>
<!DOCTYPE svg PUBLIC "-//W3C//DTD SVG 1.1//EN"
 "http://www.w3.org/Graphics/SVG/1.1/DTD/svg11.dtd">
<!-- Generated by graphviz version 8.0.2 (20230410.1723)
 -->
<!-- Title: SCR_PassiveHitZoneRegenDamageEffect Pages: 1 -->
<svg width="181pt" height="423pt"
 viewBox="0.00 0.00 181.00 423.00" xmlns="http://www.w3.org/2000/svg" xmlns:xlink="http://www.w3.org/1999/xlink">
<g id="graph0" class="graph" transform="scale(1 1) rotate(0) translate(4 419)">
<title>SCR_PassiveHitZoneRegenDamageEffect</title>
<!-- Node1 -->
<g id="node1" class="node">
<title>Node1</title>
<g id="a_node1"><a xlink:title=" ">
<polygon fill="#999999" stroke="#666666" points="173,-30 0,-30 0,0 173,0 173,-30"/>
<text text-anchor="start" x="8" y="-18" font-family="Helvetica,sans-Serif" font-size="10.00">SCR_PassiveHitZoneRegenDamage</text>
<text text-anchor="middle" x="86.5" y="-7" font-family="Helvetica,sans-Serif" font-size="10.00">Effect</text>
</a>
</g>
</g>
<!-- Node2 -->
<g id="node2" class="node">
<title>Node2</title>
<g id="a_node2"><a xlink:href="interfaceSCR__DotDamageEffect.html" target="_top" xlink:title=" ">
<polygon fill="white" stroke="#666666" points="145.5,-85 27.5,-85 27.5,-66 145.5,-66 145.5,-85"/>
<text text-anchor="middle" x="86.5" y="-73" font-family="Helvetica,sans-Serif" font-size="10.00">SCR_DotDamageEffect</text>
</a>
</g>
</g>
<!-- Node2&#45;&gt;Node1 -->
<g id="edge1" class="edge">
<title>Node2&#45;&gt;Node1</title>
<path fill="none" stroke="#63b8ff" d="M86.5,-55.08C86.5,-46.92 86.5,-37.6 86.5,-30.11"/>
<polygon fill="#63b8ff" stroke="#63b8ff" points="83,-54.87 86.5,-64.87 90,-54.87 83,-54.87"/>
</g>
<!-- Node3 -->
<g id="node3" class="node">
<title>Node3</title>
<g id="a_node3"><a xlink:href="interfaceDotDamageEffect.html" target="_top" xlink:title=" ">
<polygon fill="white" stroke="#666666" points="132.5,-140 40.5,-140 40.5,-121 132.5,-121 132.5,-140"/>
<text text-anchor="middle" x="86.5" y="-128" font-family="Helvetica,sans-Serif" font-size="10.00">DotDamageEffect</text>
</a>
</g>
</g>
<!-- Node3&#45;&gt;Node2 -->
<g id="edge2" class="edge">
<title>Node3&#45;&gt;Node2</title>
<path fill="none" stroke="#63b8ff" d="M86.5,-109.93C86.5,-101.53 86.5,-92.13 86.5,-85.44"/>
<polygon fill="#63b8ff" stroke="#63b8ff" points="83,-109.75 86.5,-119.75 90,-109.75 83,-109.75"/>
</g>
<!-- Node4 -->
<g id="node4" class="node">
<title>Node4</title>
<g id="a_node4"><a xlink:href="interfaceSCR__PersistentDamageEffect.html" target="_top" xlink:title=" ">
<polygon fill="white" stroke="#666666" points="160,-195 13,-195 13,-176 160,-176 160,-195"/>
<text text-anchor="middle" x="86.5" y="-183" font-family="Helvetica,sans-Serif" font-size="10.00">SCR_PersistentDamageEffect</text>
</a>
</g>
</g>
<!-- Node4&#45;&gt;Node3 -->
<g id="edge3" class="edge">
<title>Node4&#45;&gt;Node3</title>
<path fill="none" stroke="#63b8ff" d="M86.5,-164.93C86.5,-156.53 86.5,-147.13 86.5,-140.44"/>
<polygon fill="#63b8ff" stroke="#63b8ff" points="83,-164.75 86.5,-174.75 90,-164.75 83,-164.75"/>
</g>
<!-- Node5 -->
<g id="node5" class="node">
<title>Node5</title>
<g id="a_node5"><a xlink:href="interfacePersistentDamageEffect.html" target="_top" xlink:title=" ">
<polygon fill="white" stroke="#666666" points="147.5,-250 25.5,-250 25.5,-231 147.5,-231 147.5,-250"/>
<text text-anchor="middle" x="86.5" y="-238" font-family="Helvetica,sans-Serif" font-size="10.00">PersistentDamageEffect</text>
</a>
</g>
</g>
<!-- Node5&#45;&gt;Node4 -->
<g id="edge4" class="edge">
<title>Node5&#45;&gt;Node4</title>
<path fill="none" stroke="#63b8ff" d="M86.5,-219.93C86.5,-211.53 86.5,-202.13 86.5,-195.44"/>
<polygon fill="#63b8ff" stroke="#63b8ff" points="83,-219.75 86.5,-229.75 90,-219.75 83,-219.75"/>
</g>
<!-- Node6 -->
<g id="node6" class="node">
<title>Node6</title>
<g id="a_node6"><a xlink:href="interfaceSCR__DamageEffect.html" target="_top" xlink:title=" ">
<polygon fill="white" stroke="#666666" points="138,-305 35,-305 35,-286 138,-286 138,-305"/>
<text text-anchor="middle" x="86.5" y="-293" font-family="Helvetica,sans-Serif" font-size="10.00">SCR_DamageEffect</text>
</a>
</g>
</g>
<!-- Node6&#45;&gt;Node5 -->
<g id="edge5" class="edge">
<title>Node6&#45;&gt;Node5</title>
<path fill="none" stroke="#63b8ff" d="M86.5,-274.93C86.5,-266.53 86.5,-257.13 86.5,-250.44"/>
<polygon fill="#63b8ff" stroke="#63b8ff" points="83,-274.75 86.5,-284.75 90,-274.75 83,-274.75"/>
</g>
<!-- Node7 -->
<g id="node7" class="node">
<title>Node7</title>
<g id="a_node7"><a xlink:href="interfaceBaseDamageEffect.html" target="_top" xlink:title=" ">
<polygon fill="white" stroke="#666666" points="136.5,-360 36.5,-360 36.5,-341 136.5,-341 136.5,-360"/>
<text text-anchor="middle" x="86.5" y="-348" font-family="Helvetica,sans-Serif" font-size="10.00">BaseDamageEffect</text>
</a>
</g>
</g>
<!-- Node7&#45;&gt;Node6 -->
<g id="edge6" class="edge">
<title>Node7&#45;&gt;Node6</title>
<path fill="none" stroke="#63b8ff" d="M86.5,-329.93C86.5,-321.53 86.5,-312.13 86.5,-305.44"/>
<polygon fill="#63b8ff" stroke="#63b8ff" points="83,-329.75 86.5,-339.75 90,-329.75 83,-329.75"/>
</g>
<!-- Node8 -->
<g id="node8" class="node">
<title>Node8</title>
<g id="a_node8"><a xlink:title=" ">
<polygon fill="white" stroke="#666666" points="129.5,-415 43.5,-415 43.5,-396 129.5,-396 129.5,-415"/>
<text text-anchor="middle" x="86.5" y="-403" font-family="Helvetica,sans-Serif" font-size="10.00">ScriptAndConfig</text>
</a>
</g>
</g>
<!-- Node8&#45;&gt;Node7 -->
<g id="edge7" class="edge">
<title>Node8&#45;&gt;Node7</title>
<path fill="none" stroke="#63b8ff" d="M86.5,-384.93C86.5,-376.53 86.5,-367.13 86.5,-360.44"/>
<polygon fill="#63b8ff" stroke="#63b8ff" points="83,-384.75 86.5,-394.75 90,-384.75 83,-384.75"/>
</g>
</g>
</svg>
