<?xml version="1.0" encoding="UTF-8" standalone="no"?>
<!DOCTYPE svg PUBLIC "-//W3C//DTD SVG 1.1//EN"
 "http://www.w3.org/Graphics/SVG/1.1/DTD/svg11.dtd">
<!-- Generated by graphviz version 8.0.2 (20230410.1723)
 -->
<!-- Title: AttachmentOpticsDovetailSVD Pages: 1 -->
<svg width="157pt" height="313pt"
 viewBox="0.00 0.00 157.00 313.00" xmlns="http://www.w3.org/2000/svg" xmlns:xlink="http://www.w3.org/1999/xlink">
<g id="graph0" class="graph" transform="scale(1 1) rotate(0) translate(4 309)">
<title>AttachmentOpticsDovetailSVD</title>
<!-- Node1 -->
<g id="node1" class="node">
<title>Node1</title>
<g id="a_node1"><a xlink:title=" ">
<polygon fill="#999999" stroke="#666666" points="149,-19 0,-19 0,0 149,0 149,-19"/>
<text text-anchor="middle" x="74.5" y="-7" font-family="Helvetica,sans-Serif" font-size="10.00">AttachmentOpticsDovetailSVD</text>
</a>
</g>
</g>
<!-- Node2 -->
<g id="node2" class="node">
<title>Node2</title>
<g id="a_node2"><a xlink:href="interfaceAttachmentOpticsDovetailAKSVD.html" target="_top" xlink:title=" ">
<polygon fill="white" stroke="#666666" points="139,-85 10,-85 10,-55 139,-55 139,-85"/>
<text text-anchor="start" x="18" y="-73" font-family="Helvetica,sans-Serif" font-size="10.00">AttachmentOpticsDovetail</text>
<text text-anchor="middle" x="74.5" y="-62" font-family="Helvetica,sans-Serif" font-size="10.00">AKSVD</text>
</a>
</g>
</g>
<!-- Node2&#45;&gt;Node1 -->
<g id="edge1" class="edge">
<title>Node2&#45;&gt;Node1</title>
<path fill="none" stroke="#63b8ff" d="M74.5,-43.59C74.5,-34.85 74.5,-25.65 74.5,-19.18"/>
<polygon fill="#63b8ff" stroke="#63b8ff" points="71,-43.54 74.5,-53.54 78,-43.54 71,-43.54"/>
</g>
<!-- Node3 -->
<g id="node3" class="node">
<title>Node3</title>
<g id="a_node3"><a xlink:href="interfaceAttachmentOpticsDovetail.html" target="_top" xlink:title=" ">
<polygon fill="white" stroke="#666666" points="139,-140 10,-140 10,-121 139,-121 139,-140"/>
<text text-anchor="middle" x="74.5" y="-128" font-family="Helvetica,sans-Serif" font-size="10.00">AttachmentOpticsDovetail</text>
</a>
</g>
</g>
<!-- Node3&#45;&gt;Node2 -->
<g id="edge2" class="edge">
<title>Node3&#45;&gt;Node2</title>
<path fill="none" stroke="#63b8ff" d="M74.5,-110.08C74.5,-101.92 74.5,-92.6 74.5,-85.11"/>
<polygon fill="#63b8ff" stroke="#63b8ff" points="71,-109.87 74.5,-119.87 78,-109.87 71,-109.87"/>
</g>
<!-- Node4 -->
<g id="node4" class="node">
<title>Node4</title>
<g id="a_node4"><a xlink:href="interfaceAttachmentOptics.html" target="_top" xlink:title=" ">
<polygon fill="white" stroke="#666666" points="122,-195 27,-195 27,-176 122,-176 122,-195"/>
<text text-anchor="middle" x="74.5" y="-183" font-family="Helvetica,sans-Serif" font-size="10.00">AttachmentOptics</text>
</a>
</g>
</g>
<!-- Node4&#45;&gt;Node3 -->
<g id="edge3" class="edge">
<title>Node4&#45;&gt;Node3</title>
<path fill="none" stroke="#63b8ff" d="M74.5,-164.93C74.5,-156.53 74.5,-147.13 74.5,-140.44"/>
<polygon fill="#63b8ff" stroke="#63b8ff" points="71,-164.75 74.5,-174.75 78,-164.75 71,-164.75"/>
</g>
<!-- Node5 -->
<g id="node5" class="node">
<title>Node5</title>
<g id="a_node5"><a xlink:href="interfaceBaseAttachmentType.html" target="_top" xlink:title=" ">
<polygon fill="white" stroke="#666666" points="129.5,-250 19.5,-250 19.5,-231 129.5,-231 129.5,-250"/>
<text text-anchor="middle" x="74.5" y="-238" font-family="Helvetica,sans-Serif" font-size="10.00">BaseAttachmentType</text>
</a>
</g>
</g>
<!-- Node5&#45;&gt;Node4 -->
<g id="edge4" class="edge">
<title>Node5&#45;&gt;Node4</title>
<path fill="none" stroke="#63b8ff" d="M74.5,-219.93C74.5,-211.53 74.5,-202.13 74.5,-195.44"/>
<polygon fill="#63b8ff" stroke="#63b8ff" points="71,-219.75 74.5,-229.75 78,-219.75 71,-219.75"/>
</g>
<!-- Node6 -->
<g id="node6" class="node">
<title>Node6</title>
<g id="a_node6"><a xlink:title=" ">
<polygon fill="white" stroke="#666666" points="117.5,-305 31.5,-305 31.5,-286 117.5,-286 117.5,-305"/>
<text text-anchor="middle" x="74.5" y="-293" font-family="Helvetica,sans-Serif" font-size="10.00">ScriptAndConfig</text>
</a>
</g>
</g>
<!-- Node6&#45;&gt;Node5 -->
<g id="edge5" class="edge">
<title>Node6&#45;&gt;Node5</title>
<path fill="none" stroke="#63b8ff" d="M74.5,-274.93C74.5,-266.53 74.5,-257.13 74.5,-250.44"/>
<polygon fill="#63b8ff" stroke="#63b8ff" points="71,-274.75 74.5,-284.75 78,-274.75 71,-274.75"/>
</g>
</g>
</svg>
