<?xml version="1.0" encoding="UTF-8" standalone="no"?>
<!DOCTYPE svg PUBLIC "-//W3C//DTD SVG 1.1//EN"
 "http://www.w3.org/Graphics/SVG/1.1/DTD/svg11.dtd">
<!-- Generated by graphviz version 8.0.2 (20230410.1723)
 -->
<!-- Title: SCR_SpinBoxComponent Pages: 1 -->
<svg width="324pt" height="357pt"
 viewBox="0.00 0.00 324.00 357.00" xmlns="http://www.w3.org/2000/svg" xmlns:xlink="http://www.w3.org/1999/xlink">
<g id="graph0" class="graph" transform="scale(1 1) rotate(0) translate(4 353)">
<title>SCR_SpinBoxComponent</title>
<!-- Node1 -->
<g id="node1" class="node">
<title>Node1</title>
<g id="a_node1"><a xlink:title=" ">
<polygon fill="#999999" stroke="#666666" points="230.5,-74 102.5,-74 102.5,-55 230.5,-55 230.5,-74"/>
<text text-anchor="middle" x="166.5" y="-62" font-family="Helvetica,sans-Serif" font-size="10.00">SCR_SpinBoxComponent</text>
</a>
</g>
</g>
<!-- Node7 -->
<g id="node7" class="node">
<title>Node7</title>
<g id="a_node7"><a xlink:href="interfaceSCR__InventorySpinBoxComponent.html" target="_top" xlink:title=" ">
<polygon fill="white" stroke="#666666" points="167,-19 0,-19 0,0 167,0 167,-19"/>
<text text-anchor="middle" x="83.5" y="-7" font-family="Helvetica,sans-Serif" font-size="10.00">SCR_InventorySpinBoxComponent</text>
</a>
</g>
</g>
<!-- Node1&#45;&gt;Node7 -->
<g id="edge6" class="edge">
<title>Node1&#45;&gt;Node7</title>
<path fill="none" stroke="#63b8ff" d="M143.37,-48.73C128.58,-39.29 109.9,-27.36 97.37,-19.36"/>
<polygon fill="#63b8ff" stroke="#63b8ff" points="141.11,-52.08 151.42,-54.51 144.88,-46.18 141.11,-52.08"/>
</g>
<!-- Node8 -->
<g id="node8" class="node">
<title>Node8</title>
<g id="a_node8"><a xlink:href="interfaceSCR__SpawnPointSpinBox.html" target="_top" xlink:title=" ">
<polygon fill="white" stroke="#666666" points="316,-19 185,-19 185,0 316,0 316,-19"/>
<text text-anchor="middle" x="250.5" y="-7" font-family="Helvetica,sans-Serif" font-size="10.00">SCR_SpawnPointSpinBox</text>
</a>
</g>
</g>
<!-- Node1&#45;&gt;Node8 -->
<g id="edge7" class="edge">
<title>Node1&#45;&gt;Node8</title>
<path fill="none" stroke="#63b8ff" d="M189.91,-48.73C204.87,-39.29 223.78,-27.36 236.46,-19.36"/>
<polygon fill="#63b8ff" stroke="#63b8ff" points="188.34,-46.21 181.75,-54.51 192.07,-52.13 188.34,-46.21"/>
</g>
<!-- Node2 -->
<g id="node2" class="node">
<title>Node2</title>
<g id="a_node2"><a xlink:href="interfaceSCR__SelectionWidgetComponent.html" target="_top" xlink:title=" ">
<polygon fill="white" stroke="#666666" points="248,-129 85,-129 85,-110 248,-110 248,-129"/>
<text text-anchor="middle" x="166.5" y="-117" font-family="Helvetica,sans-Serif" font-size="10.00">SCR_SelectionWidgetComponent</text>
</a>
</g>
</g>
<!-- Node2&#45;&gt;Node1 -->
<g id="edge1" class="edge">
<title>Node2&#45;&gt;Node1</title>
<path fill="none" stroke="#63b8ff" d="M166.5,-98.93C166.5,-90.53 166.5,-81.13 166.5,-74.44"/>
<polygon fill="#63b8ff" stroke="#63b8ff" points="163,-98.75 166.5,-108.75 170,-98.75 163,-98.75"/>
</g>
<!-- Node3 -->
<g id="node3" class="node">
<title>Node3</title>
<g id="a_node3"><a xlink:href="interfaceSCR__ChangeableComponentBase.html" target="_top" xlink:title="Base class for all widgets that can change their internal state as editbox or spinbox.">
<polygon fill="white" stroke="#666666" points="249,-184 84,-184 84,-165 249,-165 249,-184"/>
<text text-anchor="middle" x="166.5" y="-172" font-family="Helvetica,sans-Serif" font-size="10.00">SCR_ChangeableComponentBase</text>
</a>
</g>
</g>
<!-- Node3&#45;&gt;Node2 -->
<g id="edge2" class="edge">
<title>Node3&#45;&gt;Node2</title>
<path fill="none" stroke="#63b8ff" d="M166.5,-153.93C166.5,-145.53 166.5,-136.13 166.5,-129.44"/>
<polygon fill="#63b8ff" stroke="#63b8ff" points="163,-153.75 166.5,-163.75 170,-153.75 163,-153.75"/>
</g>
<!-- Node4 -->
<g id="node4" class="node">
<title>Node4</title>
<g id="a_node4"><a xlink:href="interfaceSCR__WLibComponentBase.html" target="_top" xlink:title="Base class for all final Reforger interactive elements.">
<polygon fill="white" stroke="#666666" points="235,-239 98,-239 98,-220 235,-220 235,-239"/>
<text text-anchor="middle" x="166.5" y="-227" font-family="Helvetica,sans-Serif" font-size="10.00">SCR_WLibComponentBase</text>
</a>
</g>
</g>
<!-- Node4&#45;&gt;Node3 -->
<g id="edge3" class="edge">
<title>Node4&#45;&gt;Node3</title>
<path fill="none" stroke="#63b8ff" d="M166.5,-208.93C166.5,-200.53 166.5,-191.13 166.5,-184.44"/>
<polygon fill="#63b8ff" stroke="#63b8ff" points="163,-208.75 166.5,-218.75 170,-208.75 163,-208.75"/>
</g>
<!-- Node5 -->
<g id="node5" class="node">
<title>Node5</title>
<g id="a_node5"><a xlink:href="interfaceSCR__ScriptedWidgetComponent.html" target="_top" xlink:title=" ">
<polygon fill="white" stroke="#666666" points="245.5,-294 87.5,-294 87.5,-275 245.5,-275 245.5,-294"/>
<text text-anchor="middle" x="166.5" y="-282" font-family="Helvetica,sans-Serif" font-size="10.00">SCR_ScriptedWidgetComponent</text>
</a>
</g>
</g>
<!-- Node5&#45;&gt;Node4 -->
<g id="edge4" class="edge">
<title>Node5&#45;&gt;Node4</title>
<path fill="none" stroke="#63b8ff" d="M166.5,-263.93C166.5,-255.53 166.5,-246.13 166.5,-239.44"/>
<polygon fill="#63b8ff" stroke="#63b8ff" points="163,-263.75 166.5,-273.75 170,-263.75 163,-263.75"/>
</g>
<!-- Node6 -->
<g id="node6" class="node">
<title>Node6</title>
<g id="a_node6"><a xlink:title=" ">
<polygon fill="white" stroke="#666666" points="233,-349 100,-349 100,-330 233,-330 233,-349"/>
<text text-anchor="middle" x="166.5" y="-337" font-family="Helvetica,sans-Serif" font-size="10.00">ScriptedWidgetComponent</text>
</a>
</g>
</g>
<!-- Node6&#45;&gt;Node5 -->
<g id="edge5" class="edge">
<title>Node6&#45;&gt;Node5</title>
<path fill="none" stroke="#63b8ff" d="M166.5,-318.93C166.5,-310.53 166.5,-301.13 166.5,-294.44"/>
<polygon fill="#63b8ff" stroke="#63b8ff" points="163,-318.75 166.5,-328.75 170,-318.75 163,-318.75"/>
</g>
</g>
</svg>
