<?xml version="1.0" encoding="UTF-8" standalone="no"?>
<!DOCTYPE svg PUBLIC "-//W3C//DTD SVG 1.1//EN"
 "http://www.w3.org/Graphics/SVG/1.1/DTD/svg11.dtd">
<!-- Generated by graphviz version 8.0.2 (20230410.1723)
 -->
<!-- Title: ChimeraMenuBase Pages: 1 -->
<svg width="769pt" height="970pt"
 viewBox="0.00 0.00 769.00 970.00" xmlns="http://www.w3.org/2000/svg" xmlns:xlink="http://www.w3.org/1999/xlink">
<g id="graph0" class="graph" transform="scale(1 1) rotate(0) translate(4 966)">
<title>ChimeraMenuBase</title>
<!-- Node1 -->
<g id="node1" class="node">
<title>Node1</title>
<g id="a_node1"><a xlink:title="Constant variables used in various menus.">
<polygon fill="#999999" stroke="#666666" points="198,-352 99,-352 99,-333 198,-333 198,-352"/>
<text text-anchor="middle" x="148.5" y="-340" font-family="Helvetica,sans-Serif" font-size="10.00">ChimeraMenuBase</text>
</a>
</g>
</g>
<!-- Node3 -->
<g id="node3" class="node">
<title>Node3</title>
<g id="a_node3"><a xlink:href="interfaceBetaWarningDialogUI.html" target="_top" xlink:title=" ">
<polygon fill="white" stroke="#666666" points="370,-793 261,-793 261,-774 370,-774 370,-793"/>
<text text-anchor="middle" x="315.5" y="-781" font-family="Helvetica,sans-Serif" font-size="10.00">BetaWarningDialogUI</text>
</a>
</g>
</g>
<!-- Node1&#45;&gt;Node3 -->
<g id="edge2" class="edge">
<title>Node1&#45;&gt;Node3</title>
<path fill="none" stroke="#63b8ff" d="M150.71,-362.99C155.63,-439.49 176.73,-706.91 234,-765.5 241.21,-772.87 250.73,-777.52 260.69,-780.4"/>
<polygon fill="#63b8ff" stroke="#63b8ff" points="154.16,-363.18 150.05,-353.42 147.18,-363.61 154.16,-363.18"/>
</g>
<!-- Node4 -->
<g id="node4" class="node">
<title>Node4</title>
<g id="a_node4"><a xlink:href="interfaceCareerMenuUI.html" target="_top" xlink:title=" ">
<polygon fill="white" stroke="#666666" points="354.5,-756 276.5,-756 276.5,-737 354.5,-737 354.5,-756"/>
<text text-anchor="middle" x="315.5" y="-744" font-family="Helvetica,sans-Serif" font-size="10.00">CareerMenuUI</text>
</a>
</g>
</g>
<!-- Node1&#45;&gt;Node4 -->
<g id="edge3" class="edge">
<title>Node1&#45;&gt;Node4</title>
<path fill="none" stroke="#63b8ff" d="M151.13,-363.02C157.3,-435.19 181.5,-675.76 234,-728.5 245.01,-739.56 261.24,-744.47 276.25,-746.45"/>
<polygon fill="#63b8ff" stroke="#63b8ff" points="154.56,-362.94 150.24,-353.26 147.58,-363.51 154.56,-362.94"/>
</g>
<!-- Node5 -->
<g id="node5" class="node">
<title>Node5</title>
<g id="a_node5"><a xlink:href="interfaceDialogUI.html" target="_top" xlink:title=" ">
<polygon fill="white" stroke="#666666" points="342,-719 289,-719 289,-700 342,-700 342,-719"/>
<text text-anchor="middle" x="315.5" y="-707" font-family="Helvetica,sans-Serif" font-size="10.00">DialogUI</text>
</a>
</g>
</g>
<!-- Node1&#45;&gt;Node5 -->
<g id="edge4" class="edge">
<title>Node1&#45;&gt;Node5</title>
<path fill="none" stroke="#63b8ff" d="M154.11,-362.74C164.59,-406.71 192.52,-513.55 234,-595.5 255.12,-637.22 290.15,-680.83 306.11,-699.77"/>
<polygon fill="#63b8ff" stroke="#63b8ff" points="157.31,-362.03 151.63,-353.08 150.49,-363.62 157.31,-362.03"/>
</g>
<!-- Node17 -->
<g id="node17" class="node">
<title>Node17</title>
<g id="a_node17"><a xlink:href="interfaceGameOverScreenInput.html" target="_top" xlink:title=" ">
<polygon fill="white" stroke="#666666" points="372.5,-586 258.5,-586 258.5,-567 372.5,-567 372.5,-586"/>
<text text-anchor="middle" x="315.5" y="-574" font-family="Helvetica,sans-Serif" font-size="10.00">GameOverScreenInput</text>
</a>
</g>
</g>
<!-- Node1&#45;&gt;Node17 -->
<g id="edge16" class="edge">
<title>Node1&#45;&gt;Node17</title>
<path fill="none" stroke="#63b8ff" d="M151.23,-362.79C156.04,-405.84 173.5,-506.61 234,-558.5 240.96,-564.47 249.47,-568.58 258.32,-571.38"/>
<polygon fill="#63b8ff" stroke="#63b8ff" points="154.64,-362.66 150.17,-353.05 147.67,-363.35 154.64,-362.66"/>
</g>
<!-- Node18 -->
<g id="node18" class="node">
<title>Node18</title>
<g id="a_node18"><a xlink:href="interfaceMainMenuUI.html" target="_top" xlink:title=" ">
<polygon fill="white" stroke="#666666" points="351,-549 280,-549 280,-530 351,-530 351,-549"/>
<text text-anchor="middle" x="315.5" y="-537" font-family="Helvetica,sans-Serif" font-size="10.00">MainMenuUI</text>
</a>
</g>
</g>
<!-- Node1&#45;&gt;Node18 -->
<g id="edge17" class="edge">
<title>Node1&#45;&gt;Node18</title>
<path fill="none" stroke="#63b8ff" d="M153.02,-362.62C160.66,-400.03 182.43,-480.23 234,-521.5 246.86,-531.79 264.41,-536.47 279.84,-538.5"/>
<polygon fill="#63b8ff" stroke="#63b8ff" points="156.32,-362.25 151.01,-353.08 149.45,-363.56 156.32,-362.25"/>
</g>
<!-- Node19 -->
<g id="node19" class="node">
<title>Node19</title>
<g id="a_node19"><a xlink:href="interfaceMenuRootBase.html" target="_top" xlink:title="Scripted menu base class.">
<polygon fill="white" stroke="#666666" points="357,-512 274,-512 274,-493 357,-493 357,-512"/>
<text text-anchor="middle" x="315.5" y="-500" font-family="Helvetica,sans-Serif" font-size="10.00">MenuRootBase</text>
</a>
</g>
</g>
<!-- Node1&#45;&gt;Node19 -->
<g id="edge18" class="edge">
<title>Node1&#45;&gt;Node19</title>
<path fill="none" stroke="#63b8ff" d="M155.59,-362.35C166.21,-393.49 191.17,-453.47 234,-484.5 245.48,-492.82 260.12,-497.39 273.76,-499.88"/>
<polygon fill="#63b8ff" stroke="#63b8ff" points="158.74,-361.71 152.32,-353.29 152.08,-363.88 158.74,-361.71"/>
</g>
<!-- Node36 -->
<g id="node34" class="node">
<title>Node36</title>
<g id="a_node34"><a xlink:href="interfacePauseMenuUI.html" target="_top" xlink:title=" ">
<polygon fill="white" stroke="#666666" points="354,-475 277,-475 277,-456 354,-456 354,-475"/>
<text text-anchor="middle" x="315.5" y="-463" font-family="Helvetica,sans-Serif" font-size="10.00">PauseMenuUI</text>
</a>
</g>
</g>
<!-- Node1&#45;&gt;Node36 -->
<g id="edge33" class="edge">
<title>Node1&#45;&gt;Node36</title>
<path fill="none" stroke="#63b8ff" d="M159.76,-361.68C173.46,-385.38 200.01,-425.18 234,-446.5 246.77,-454.51 262.61,-459.15 276.85,-461.83"/>
<polygon fill="#63b8ff" stroke="#63b8ff" points="162.47,-360.35 154.54,-353.33 156.36,-363.77 162.47,-360.35"/>
</g>
<!-- Node37 -->
<g id="node35" class="node">
<title>Node37</title>
<g id="a_node35"><a xlink:href="interfaceSCR__ContentBrowser__GalleryDialog.html" target="_top" xlink:title=" ">
<polygon fill="white" stroke="#666666" points="371,-437.5 260,-437.5 260,-407.5 371,-407.5 371,-437.5"/>
<text text-anchor="start" x="268" y="-425.5" font-family="Helvetica,sans-Serif" font-size="10.00">SCR_ContentBrowser</text>
<text text-anchor="middle" x="315.5" y="-414.5" font-family="Helvetica,sans-Serif" font-size="10.00">_GalleryDialog</text>
</a>
</g>
</g>
<!-- Node1&#45;&gt;Node37 -->
<g id="edge34" class="edge">
<title>Node1&#45;&gt;Node37</title>
<path fill="none" stroke="#63b8ff" d="M170.3,-358.82C186.8,-371.13 210.86,-387.68 234,-398.5 242.06,-402.27 250.85,-405.6 259.56,-408.5"/>
<polygon fill="#63b8ff" stroke="#63b8ff" points="173.05,-355.75 162.97,-352.49 168.81,-361.33 173.05,-355.75"/>
</g>
<!-- Node38 -->
<g id="node36" class="node">
<title>Node38</title>
<g id="a_node36"><a xlink:href="interfaceSCR__Credits.html" target="_top" xlink:title=" ">
<polygon fill="white" stroke="#666666" points="352,-389 279,-389 279,-370 352,-370 352,-389"/>
<text text-anchor="middle" x="315.5" y="-377" font-family="Helvetica,sans-Serif" font-size="10.00">SCR_Credits</text>
</a>
</g>
</g>
<!-- Node1&#45;&gt;Node38 -->
<g id="edge35" class="edge">
<title>Node1&#45;&gt;Node38</title>
<path fill="none" stroke="#63b8ff" d="M204.33,-354.84C214.21,-357.06 224.41,-359.35 234,-361.5 248.67,-364.79 264.85,-368.41 278.83,-371.53"/>
<polygon fill="#63b8ff" stroke="#63b8ff" points="205.32,-351.25 194.79,-352.47 203.78,-358.08 205.32,-351.25"/>
</g>
<!-- Node39 -->
<g id="node37" class="node">
<title>Node39</title>
<g id="a_node37"><a xlink:href="interfaceSCR__CreditsLicenses.html" target="_top" xlink:title=" ">
<polygon fill="white" stroke="#666666" points="371.5,-352 259.5,-352 259.5,-333 371.5,-333 371.5,-352"/>
<text text-anchor="middle" x="315.5" y="-340" font-family="Helvetica,sans-Serif" font-size="10.00">SCR_CreditsLicenses</text>
</a>
</g>
</g>
<!-- Node1&#45;&gt;Node39 -->
<g id="edge36" class="edge">
<title>Node1&#45;&gt;Node39</title>
<path fill="none" stroke="#63b8ff" d="M208.72,-342.5C225.21,-342.5 243.04,-342.5 259.28,-342.5"/>
<polygon fill="#63b8ff" stroke="#63b8ff" points="209.11,-339 199.11,-342.5 209.11,-346 209.11,-339"/>
</g>
<!-- Node40 -->
<g id="node38" class="node">
<title>Node40</title>
<g id="a_node38"><a xlink:href="interfaceSCR__DeployMenuBase.html" target="_top" xlink:title="Base deploy menu class.">
<polygon fill="white" stroke="#666666" points="375,-315 256,-315 256,-296 375,-296 375,-315"/>
<text text-anchor="middle" x="315.5" y="-303" font-family="Helvetica,sans-Serif" font-size="10.00">SCR_DeployMenuBase</text>
</a>
</g>
</g>
<!-- Node1&#45;&gt;Node40 -->
<g id="edge37" class="edge">
<title>Node1&#45;&gt;Node40</title>
<path fill="none" stroke="#63b8ff" d="M204.33,-330.16C214.21,-327.94 224.41,-325.65 234,-323.5 245.6,-320.9 258.14,-318.09 269.79,-315.49"/>
<polygon fill="#63b8ff" stroke="#63b8ff" points="203.78,-326.92 194.79,-332.53 205.32,-333.75 203.78,-326.92"/>
</g>
<!-- Node45 -->
<g id="node42" class="node">
<title>Node45</title>
<g id="a_node42"><a xlink:href="interfaceSCR__GMMenu.html" target="_top" xlink:title=" ">
<polygon fill="white" stroke="#666666" points="356.5,-278 274.5,-278 274.5,-259 356.5,-259 356.5,-278"/>
<text text-anchor="middle" x="315.5" y="-266" font-family="Helvetica,sans-Serif" font-size="10.00">SCR_GMMenu</text>
</a>
</g>
</g>
<!-- Node1&#45;&gt;Node45 -->
<g id="edge41" class="edge">
<title>Node1&#45;&gt;Node45</title>
<path fill="none" stroke="#63b8ff" d="M169.53,-326.15C185.93,-313.55 210.23,-296.62 234,-286.5 246.65,-281.11 261.13,-277.24 274.29,-274.49"/>
<polygon fill="#63b8ff" stroke="#63b8ff" points="167.98,-323.71 162.28,-332.64 172.31,-329.21 167.98,-323.71"/>
</g>
<!-- Node46 -->
<g id="node43" class="node">
<title>Node46</title>
<g id="a_node43"><a xlink:href="interfaceSCR__InventoryMenuUI.html" target="_top" xlink:title="UI Script Inventory Menu UI Layout.">
<polygon fill="white" stroke="#666666" points="372,-241 259,-241 259,-222 372,-222 372,-241"/>
<text text-anchor="middle" x="315.5" y="-229" font-family="Helvetica,sans-Serif" font-size="10.00">SCR_InventoryMenuUI</text>
</a>
</g>
</g>
<!-- Node1&#45;&gt;Node46 -->
<g id="edge42" class="edge">
<title>Node1&#45;&gt;Node46</title>
<path fill="none" stroke="#63b8ff" d="M161.49,-323.42C175.99,-302 202.41,-267.86 234,-249.5 241.55,-245.11 250.08,-241.79 258.68,-239.28"/>
<polygon fill="#63b8ff" stroke="#63b8ff" points="158.08,-321.24 155.53,-331.52 163.94,-325.07 158.08,-321.24"/>
</g>
<!-- Node47 -->
<g id="node44" class="node">
<title>Node47</title>
<g id="a_node44"><a xlink:href="interfaceSCR__LoadingOverlayDialog.html" target="_top" xlink:title="Loading overlay wrapped into a dialog.">
<polygon fill="white" stroke="#666666" points="383,-204 248,-204 248,-185 383,-185 383,-204"/>
<text text-anchor="middle" x="315.5" y="-192" font-family="Helvetica,sans-Serif" font-size="10.00">SCR_LoadingOverlayDialog</text>
</a>
</g>
</g>
<!-- Node1&#45;&gt;Node47 -->
<g id="edge43" class="edge">
<title>Node1&#45;&gt;Node47</title>
<path fill="none" stroke="#63b8ff" d="M156.71,-322.71C168.32,-293.76 193.99,-240.3 234,-212.5 238.7,-209.23 243.9,-206.55 249.33,-204.34"/>
<polygon fill="#63b8ff" stroke="#63b8ff" points="153.14,-321.24 152.83,-331.83 159.68,-323.74 153.14,-321.24"/>
</g>
<!-- Node48 -->
<g id="node45" class="node">
<title>Node48</title>
<g id="a_node45"><a xlink:href="interfaceSCR__MapMenuUI.html" target="_top" xlink:title="Fullscreen map menu.">
<polygon fill="white" stroke="#666666" points="362.5,-167 268.5,-167 268.5,-148 362.5,-148 362.5,-167"/>
<text text-anchor="middle" x="315.5" y="-155" font-family="Helvetica,sans-Serif" font-size="10.00">SCR_MapMenuUI</text>
</a>
</g>
</g>
<!-- Node1&#45;&gt;Node48 -->
<g id="edge44" class="edge">
<title>Node1&#45;&gt;Node48</title>
<path fill="none" stroke="#63b8ff" d="M153.8,-322.24C162.43,-286.7 185.38,-213.32 234,-175.5 243.72,-167.94 255.99,-163.42 268.01,-160.77"/>
<polygon fill="#63b8ff" stroke="#63b8ff" points="150.21,-321.21 151.4,-331.74 157.04,-322.77 150.21,-321.21"/>
</g>
<!-- Node49 -->
<g id="node46" class="node">
<title>Node49</title>
<g id="a_node46"><a xlink:href="interfaceSCR__MultiplayerMenuComponent.html" target="_top" xlink:title=" ">
<polygon fill="white" stroke="#666666" points="397,-130 234,-130 234,-111 397,-111 397,-130"/>
<text text-anchor="middle" x="315.5" y="-118" font-family="Helvetica,sans-Serif" font-size="10.00">SCR_MultiplayerMenuComponent</text>
</a>
</g>
</g>
<!-- Node1&#45;&gt;Node49 -->
<g id="edge45" class="edge">
<title>Node1&#45;&gt;Node49</title>
<path fill="none" stroke="#63b8ff" d="M151.8,-321.9C157.57,-280.44 176.58,-186.77 234,-138.5 237.84,-135.27 242.13,-132.59 246.68,-130.37"/>
<polygon fill="#63b8ff" stroke="#63b8ff" points="148.23,-321.2 150.45,-331.56 155.18,-322.08 148.23,-321.2"/>
</g>
<!-- Node50 -->
<g id="node47" class="node">
<title>Node50</title>
<g id="a_node47"><a xlink:href="interfaceSCR__PickAssigneeDialog.html" target="_top" xlink:title=" ">
<polygon fill="white" stroke="#666666" points="380,-93 251,-93 251,-74 380,-74 380,-93"/>
<text text-anchor="middle" x="315.5" y="-81" font-family="Helvetica,sans-Serif" font-size="10.00">SCR_PickAssigneeDialog</text>
</a>
</g>
</g>
<!-- Node1&#45;&gt;Node50 -->
<g id="edge46" class="edge">
<title>Node1&#45;&gt;Node50</title>
<path fill="none" stroke="#63b8ff" d="M150.32,-321.81C153.35,-275.03 167.54,-160.59 234,-101.5 238.92,-97.12 244.68,-93.74 250.8,-91.13"/>
<polygon fill="#63b8ff" stroke="#63b8ff" points="146.78,-321.47 149.75,-331.64 153.77,-321.84 146.78,-321.47"/>
</g>
<!-- Node51 -->
<g id="node48" class="node">
<title>Node51</title>
<g id="a_node48"><a xlink:href="interfaceSCR__TaskDetailDialog.html" target="_top" xlink:title=" ">
<polygon fill="white" stroke="#666666" points="373,-56 258,-56 258,-37 373,-37 373,-56"/>
<text text-anchor="middle" x="315.5" y="-44" font-family="Helvetica,sans-Serif" font-size="10.00">SCR_TaskDetailDialog</text>
</a>
</g>
</g>
<!-- Node1&#45;&gt;Node51 -->
<g id="edge47" class="edge">
<title>Node1&#45;&gt;Node51</title>
<path fill="none" stroke="#63b8ff" d="M149.2,-321.87C149.64,-270.25 158.33,-134.69 234,-64.5 240.61,-58.36 248.85,-54.16 257.5,-51.3"/>
<polygon fill="#63b8ff" stroke="#63b8ff" points="145.7,-321.59 149.22,-331.58 152.7,-321.58 145.7,-321.59"/>
</g>
<!-- Node52 -->
<g id="node49" class="node">
<title>Node52</title>
<g id="a_node49"><a xlink:href="interfaceWidgetLibraryMenuUI.html" target="_top" xlink:title=" ">
<polygon fill="white" stroke="#666666" points="370.5,-19 260.5,-19 260.5,0 370.5,0 370.5,-19"/>
<text text-anchor="middle" x="315.5" y="-7" font-family="Helvetica,sans-Serif" font-size="10.00">WidgetLibraryMenuUI</text>
</a>
</g>
</g>
<!-- Node1&#45;&gt;Node52 -->
<g id="edge48" class="edge">
<title>Node1&#45;&gt;Node52</title>
<path fill="none" stroke="#63b8ff" d="M152.19,-322.17C160.94,-259.2 190.52,-69.19 234,-27.5 241.24,-20.56 250.53,-16.07 260.22,-13.21"/>
<polygon fill="#63b8ff" stroke="#63b8ff" points="148.64,-321.3 150.76,-331.68 155.58,-322.25 148.64,-321.3"/>
</g>
<!-- Node2 -->
<g id="node2" class="node">
<title>Node2</title>
<g id="a_node2"><a xlink:title=" ">
<polygon fill="white" stroke="#666666" points="63,-352 0,-352 0,-333 63,-333 63,-352"/>
<text text-anchor="middle" x="31.5" y="-340" font-family="Helvetica,sans-Serif" font-size="10.00">MenuBase</text>
</a>
</g>
</g>
<!-- Node2&#45;&gt;Node1 -->
<g id="edge1" class="edge">
<title>Node2&#45;&gt;Node1</title>
<path fill="none" stroke="#63b8ff" d="M74.24,-342.5C82.22,-342.5 90.64,-342.5 98.82,-342.5"/>
<polygon fill="#63b8ff" stroke="#63b8ff" points="74.32,-339 64.32,-342.5 74.32,-346 74.32,-339"/>
</g>
<!-- Node6 -->
<g id="node6" class="node">
<title>Node6</title>
<g id="a_node6"><a xlink:href="interfaceErrorDialogUI.html" target="_top" xlink:title=" ">
<polygon fill="white" stroke="#666666" points="546,-962 472,-962 472,-943 546,-943 546,-962"/>
<text text-anchor="middle" x="509" y="-950" font-family="Helvetica,sans-Serif" font-size="10.00">ErrorDialogUI</text>
</a>
</g>
</g>
<!-- Node5&#45;&gt;Node6 -->
<g id="edge5" class="edge">
<title>Node5&#45;&gt;Node6</title>
<path fill="none" stroke="#63b8ff" d="M353.18,-709.59C368.74,-711.57 385.82,-716.65 397,-728.5 460.76,-796.12 369.37,-866.76 433,-934.5 442.9,-945.04 457.8,-949.89 471.71,-951.98"/>
<polygon fill="#63b8ff" stroke="#63b8ff" points="353.49,-706.01 343.23,-708.64 352.89,-712.99 353.49,-706.01"/>
</g>
<!-- Node7 -->
<g id="node7" class="node">
<title>Node7</title>
<g id="a_node7"><a xlink:href="interfaceFeedbackDialogUI.html" target="_top" xlink:title=" ">
<polygon fill="white" stroke="#666666" points="556.5,-925 461.5,-925 461.5,-906 556.5,-906 556.5,-925"/>
<text text-anchor="middle" x="509" y="-913" font-family="Helvetica,sans-Serif" font-size="10.00">FeedbackDialogUI</text>
</a>
</g>
</g>
<!-- Node5&#45;&gt;Node7 -->
<g id="edge6" class="edge">
<title>Node5&#45;&gt;Node7</title>
<path fill="none" stroke="#63b8ff" d="M353.31,-709.82C368.74,-711.87 385.69,-716.94 397,-728.5 450.71,-783.39 379.4,-842.5 433,-897.5 440.57,-905.27 450.86,-909.92 461.39,-912.65"/>
<polygon fill="#63b8ff" stroke="#63b8ff" points="353.73,-706.25 343.45,-708.82 353.08,-713.22 353.73,-706.25"/>
</g>
<!-- Node8 -->
<g id="node8" class="node">
<title>Node8</title>
<g id="a_node8"><a xlink:href="interfaceGroupSettingsDialogUI.html" target="_top" xlink:title=" ">
<polygon fill="white" stroke="#666666" points="566.5,-888 451.5,-888 451.5,-869 566.5,-869 566.5,-888"/>
<text text-anchor="middle" x="509" y="-876" font-family="Helvetica,sans-Serif" font-size="10.00">GroupSettingsDialogUI</text>
</a>
</g>
</g>
<!-- Node5&#45;&gt;Node8 -->
<g id="edge7" class="edge">
<title>Node5&#45;&gt;Node8</title>
<path fill="none" stroke="#63b8ff" d="M353.01,-710.13C368.38,-712.23 385.37,-717.26 397,-728.5 440.73,-770.75 389.35,-818.17 433,-860.5 438.19,-865.53 444.53,-869.25 451.3,-871.97"/>
<polygon fill="#63b8ff" stroke="#63b8ff" points="353.5,-706.56 343.2,-709.06 352.81,-713.53 353.5,-706.56"/>
</g>
<!-- Node9 -->
<g id="node9" class="node">
<title>Node9</title>
<g id="a_node9"><a xlink:href="interfaceNewsDialogUI.html" target="_top" xlink:title=" ">
<polygon fill="white" stroke="#666666" points="547.5,-851 470.5,-851 470.5,-832 547.5,-832 547.5,-851"/>
<text text-anchor="middle" x="509" y="-839" font-family="Helvetica,sans-Serif" font-size="10.00">NewsDialogUI</text>
</a>
</g>
</g>
<!-- Node5&#45;&gt;Node9 -->
<g id="edge8" class="edge">
<title>Node5&#45;&gt;Node9</title>
<path fill="none" stroke="#63b8ff" d="M352.84,-710.71C368.04,-712.94 384.93,-717.91 397,-728.5 430.94,-758.28 399.12,-793.66 433,-823.5 443.25,-832.53 457.24,-837.22 470.36,-839.6"/>
<polygon fill="#63b8ff" stroke="#63b8ff" points="353.5,-707.15 343.17,-709.53 352.73,-714.11 353.5,-707.15"/>
</g>
<!-- Node10 -->
<g id="node10" class="node">
<title>Node10</title>
<g id="a_node10"><a xlink:href="interfaceReportDialogUI.html" target="_top" xlink:title=" ">
<polygon fill="white" stroke="#666666" points="549.5,-814 468.5,-814 468.5,-795 549.5,-795 549.5,-814"/>
<text text-anchor="middle" x="509" y="-802" font-family="Helvetica,sans-Serif" font-size="10.00">ReportDialogUI</text>
</a>
</g>
</g>
<!-- Node5&#45;&gt;Node10 -->
<g id="edge9" class="edge">
<title>Node5&#45;&gt;Node10</title>
<path fill="none" stroke="#63b8ff" d="M353.01,-712.05C367.76,-714.54 384.27,-719.35 397,-728.5 421.63,-746.22 408.4,-768.74 433,-786.5 443.2,-793.87 456.03,-798.25 468.17,-800.85"/>
<polygon fill="#63b8ff" stroke="#63b8ff" points="353.54,-708.45 343.16,-710.55 352.59,-715.38 353.54,-708.45"/>
</g>
<!-- Node11 -->
<g id="node11" class="node">
<title>Node11</title>
<g id="a_node11"><a xlink:href="interfaceSCR__AddonExportDialog.html" target="_top" xlink:title=" ">
<polygon fill="white" stroke="#666666" points="571.5,-777 446.5,-777 446.5,-758 571.5,-758 571.5,-777"/>
<text text-anchor="middle" x="509" y="-765" font-family="Helvetica,sans-Serif" font-size="10.00">SCR_AddonExportDialog</text>
</a>
</g>
</g>
<!-- Node5&#45;&gt;Node11 -->
<g id="edge10" class="edge">
<title>Node5&#45;&gt;Node11</title>
<path fill="none" stroke="#63b8ff" d="M353.21,-715.77C367.2,-718.77 383.11,-722.95 397,-728.5 414.2,-735.37 415.81,-742.6 433,-749.5 440.83,-752.64 449.35,-755.33 457.74,-757.59"/>
<polygon fill="#63b8ff" stroke="#63b8ff" points="353.97,-712.15 343.47,-713.61 352.59,-719.01 353.97,-712.15"/>
</g>
<!-- Node12 -->
<g id="node12" class="node">
<title>Node12</title>
<g id="a_node12"><a xlink:href="interfaceSCR__AddonsToolDialog.html" target="_top" xlink:title="Dialog with multiple addons tool for addons manager.">
<polygon fill="white" stroke="#666666" points="569,-740 449,-740 449,-721 569,-721 569,-740"/>
<text text-anchor="middle" x="509" y="-728" font-family="Helvetica,sans-Serif" font-size="10.00">SCR_AddonsToolDialog</text>
</a>
</g>
</g>
<!-- Node5&#45;&gt;Node12 -->
<g id="edge11" class="edge">
<title>Node5&#45;&gt;Node12</title>
<path fill="none" stroke="#63b8ff" d="M353.24,-713.53C380.27,-716.49 417.6,-720.59 448.82,-724.01"/>
<polygon fill="#63b8ff" stroke="#63b8ff" points="353.65,-709.94 343.33,-712.33 352.89,-716.9 353.65,-709.94"/>
</g>
<!-- Node13 -->
<g id="node13" class="node">
<title>Node13</title>
<g id="a_node13"><a xlink:href="interfaceSCR__ConfigurableDialogUiProxy.html" target="_top" xlink:title="It is here to expose the Menu API to the configurable dialog instance.">
<polygon fill="white" stroke="#666666" points="574.5,-702.5 443.5,-702.5 443.5,-672.5 574.5,-672.5 574.5,-702.5"/>
<text text-anchor="start" x="451.5" y="-690.5" font-family="Helvetica,sans-Serif" font-size="10.00">SCR_ConfigurableDialogUi</text>
<text text-anchor="middle" x="509" y="-679.5" font-family="Helvetica,sans-Serif" font-size="10.00">Proxy</text>
</a>
</g>
</g>
<!-- Node5&#45;&gt;Node13 -->
<g id="edge12" class="edge">
<title>Node5&#45;&gt;Node13</title>
<path fill="none" stroke="#63b8ff" d="M352.97,-705.31C378.4,-702.39 413.04,-698.41 443.13,-694.95"/>
<polygon fill="#63b8ff" stroke="#63b8ff" points="352.86,-701.91 343.33,-706.53 353.66,-708.87 352.86,-701.91"/>
</g>
<!-- Node14 -->
<g id="node14" class="node">
<title>Node14</title>
<g id="a_node14"><a xlink:href="interfaceSCR__GamepadRemovalUI.html" target="_top" xlink:title="Dialog displayed when the gamepad is removed.">
<polygon fill="white" stroke="#666666" points="574,-654 444,-654 444,-635 574,-635 574,-654"/>
<text text-anchor="middle" x="509" y="-642" font-family="Helvetica,sans-Serif" font-size="10.00">SCR_GamepadRemovalUI</text>
</a>
</g>
</g>
<!-- Node5&#45;&gt;Node14 -->
<g id="edge13" class="edge">
<title>Node5&#45;&gt;Node14</title>
<path fill="none" stroke="#63b8ff" d="M348.93,-695.4C372.08,-685.66 404.11,-672.82 433,-663.5 443.23,-660.2 454.39,-657.11 464.9,-654.41"/>
<polygon fill="#63b8ff" stroke="#63b8ff" points="347.79,-692.51 339.96,-699.64 350.53,-698.95 347.79,-692.51"/>
</g>
<!-- Node15 -->
<g id="node15" class="node">
<title>Node15</title>
<g id="a_node15"><a xlink:href="interfaceSCR__GroupFlagSelectionMenu.html" target="_top" xlink:title=" ">
<polygon fill="white" stroke="#666666" points="585,-617 433,-617 433,-598 585,-598 585,-617"/>
<text text-anchor="middle" x="509" y="-605" font-family="Helvetica,sans-Serif" font-size="10.00">SCR_GroupFlagSelectionMenu</text>
</a>
</g>
</g>
<!-- Node5&#45;&gt;Node15 -->
<g id="edge14" class="edge">
<title>Node5&#45;&gt;Node15</title>
<path fill="none" stroke="#63b8ff" d="M335.31,-692.69C357.26,-673.93 395.37,-643.92 433,-626.5 440.8,-622.89 449.39,-619.9 457.88,-617.44"/>
<polygon fill="#63b8ff" stroke="#63b8ff" points="333.45,-690.54 328.2,-699.75 338.04,-695.83 333.45,-690.54"/>
</g>
<!-- Node16 -->
<g id="node16" class="node">
<title>Node16</title>
<g id="a_node16"><a xlink:href="interfaceWelcomeDialogUI.html" target="_top" xlink:title=" ">
<polygon fill="white" stroke="#666666" points="556,-580 462,-580 462,-561 556,-561 556,-580"/>
<text text-anchor="middle" x="509" y="-568" font-family="Helvetica,sans-Serif" font-size="10.00">WelcomeDialogUI</text>
</a>
</g>
</g>
<!-- Node5&#45;&gt;Node16 -->
<g id="edge15" class="edge">
<title>Node5&#45;&gt;Node16</title>
<path fill="none" stroke="#63b8ff" d="M329.27,-690.93C348.58,-664.31 387.77,-615.64 433,-589.5 441.72,-584.46 451.77,-580.74 461.62,-578"/>
<polygon fill="#63b8ff" stroke="#63b8ff" points="326.01,-688.47 323.09,-698.65 331.72,-692.52 326.01,-688.47"/>
</g>
<!-- Node20 -->
<g id="node20" class="node">
<title>Node20</title>
<g id="a_node20"><a xlink:href="interfaceEditorMenuBase.html" target="_top" xlink:title="Base class for editor menus and dialogs.">
<polygon fill="white" stroke="#666666" points="553.5,-543 464.5,-543 464.5,-524 553.5,-524 553.5,-543"/>
<text text-anchor="middle" x="509" y="-531" font-family="Helvetica,sans-Serif" font-size="10.00">EditorMenuBase</text>
</a>
</g>
</g>
<!-- Node19&#45;&gt;Node20 -->
<g id="edge19" class="edge">
<title>Node19&#45;&gt;Node20</title>
<path fill="none" stroke="#63b8ff" d="M367.82,-510.81C397.87,-515.67 435.44,-521.75 464.11,-526.4"/>
<polygon fill="#63b8ff" stroke="#63b8ff" points="368.54,-507.22 358.11,-509.07 367.42,-514.13 368.54,-507.22"/>
</g>
<!-- Node24 -->
<g id="node24" class="node">
<title>Node24</title>
<g id="a_node24"><a xlink:href="interfaceSCR__FieldManualUI.html" target="_top" xlink:title=" ">
<polygon fill="white" stroke="#666666" points="561,-506 457,-506 457,-487 561,-487 561,-506"/>
<text text-anchor="middle" x="509" y="-494" font-family="Helvetica,sans-Serif" font-size="10.00">SCR_FieldManualUI</text>
</a>
</g>
</g>
<!-- Node19&#45;&gt;Node24 -->
<g id="edge23" class="edge">
<title>Node19&#45;&gt;Node24</title>
<path fill="none" stroke="#63b8ff" d="M368.1,-500.88C395.63,-500.02 429.39,-498.96 456.85,-498.1"/>
<polygon fill="#63b8ff" stroke="#63b8ff" points="368,-497.42 358.11,-501.23 368.22,-504.41 368,-497.42"/>
</g>
<!-- Node25 -->
<g id="node25" class="node">
<title>Node25</title>
<g id="a_node25"><a xlink:href="interfaceSCR__PlayMenu.html" target="_top" xlink:title=" ">
<polygon fill="white" stroke="#666666" points="552,-469 466,-469 466,-450 552,-450 552,-469"/>
<text text-anchor="middle" x="509" y="-457" font-family="Helvetica,sans-Serif" font-size="10.00">SCR_PlayMenu</text>
</a>
</g>
</g>
<!-- Node19&#45;&gt;Node25 -->
<g id="edge24" class="edge">
<title>Node19&#45;&gt;Node25</title>
<path fill="none" stroke="#63b8ff" d="M368.1,-490.97C377.71,-488.82 387.66,-486.6 397,-484.5 419.65,-479.42 444.89,-473.73 465.57,-469.07"/>
<polygon fill="#63b8ff" stroke="#63b8ff" points="367.45,-487.76 358.46,-493.36 368.98,-494.59 367.45,-487.76"/>
</g>
<!-- Node26 -->
<g id="node26" class="node">
<title>Node26</title>
<g id="a_node26"><a xlink:href="interfaceSCR__SuperMenuBase.html" target="_top" xlink:title=" ">
<polygon fill="#fff0f0" stroke="red" points="566,-432 452,-432 452,-413 566,-413 566,-432"/>
<text text-anchor="middle" x="509" y="-420" font-family="Helvetica,sans-Serif" font-size="10.00">SCR_SuperMenuBase</text>
</a>
</g>
</g>
<!-- Node19&#45;&gt;Node26 -->
<g id="edge25" class="edge">
<title>Node19&#45;&gt;Node26</title>
<path fill="none" stroke="#63b8ff" d="M367.83,-496.28C377.97,-493.63 388.19,-489.86 397,-484.5 418.29,-471.54 411.9,-454.76 433,-441.5 438.91,-437.78 445.52,-434.79 452.29,-432.39"/>
<polygon fill="#63b8ff" stroke="#63b8ff" points="367.33,-493.03 358.35,-498.65 368.88,-499.86 367.33,-493.03"/>
</g>
<!-- Node35 -->
<g id="node33" class="node">
<title>Node35</title>
<g id="a_node33"><a xlink:href="interfaceServerBrowserMenuUI.html" target="_top" xlink:title=" ">
<polygon fill="white" stroke="#666666" points="565,-395 453,-395 453,-376 565,-376 565,-395"/>
<text text-anchor="middle" x="509" y="-383" font-family="Helvetica,sans-Serif" font-size="10.00">ServerBrowserMenuUI</text>
</a>
</g>
</g>
<!-- Node19&#45;&gt;Node35 -->
<g id="edge32" class="edge">
<title>Node19&#45;&gt;Node35</title>
<path fill="none" stroke="#63b8ff" d="M367.84,-498.41C378.32,-495.64 388.68,-491.29 397,-484.5 427.22,-459.86 403.13,-429.56 433,-404.5 438.76,-399.67 445.59,-396.04 452.75,-393.32"/>
<polygon fill="#63b8ff" stroke="#63b8ff" points="367.41,-495.13 358.38,-500.67 368.9,-501.98 367.41,-495.13"/>
</g>
<!-- Node21 -->
<g id="node21" class="node">
<title>Node21</title>
<g id="a_node21"><a xlink:href="interfaceEditorAttributesDialogUI.html" target="_top" xlink:title=" ">
<polygon fill="white" stroke="#666666" points="751,-617 631,-617 631,-598 751,-598 751,-617"/>
<text text-anchor="middle" x="691" y="-605" font-family="Helvetica,sans-Serif" font-size="10.00">EditorAttributesDialogUI</text>
</a>
</g>
</g>
<!-- Node20&#45;&gt;Node21 -->
<g id="edge20" class="edge">
<title>Node20&#45;&gt;Node21</title>
<path fill="none" stroke="#63b8ff" d="M563.98,-543.32C571.3,-545.74 578.52,-548.76 585,-552.5 604.87,-563.97 601.17,-577.96 621,-589.5 626.56,-592.74 632.71,-595.4 638.98,-597.6"/>
<polygon fill="#63b8ff" stroke="#63b8ff" points="565.21,-539.74 554.62,-540.27 563.23,-546.45 565.21,-539.74"/>
</g>
<!-- Node22 -->
<g id="node22" class="node">
<title>Node22</title>
<g id="a_node22"><a xlink:href="interfaceEditorBrowserDialogUI.html" target="_top" xlink:title=" ">
<polygon fill="white" stroke="#666666" points="747.5,-580 634.5,-580 634.5,-561 747.5,-561 747.5,-580"/>
<text text-anchor="middle" x="691" y="-568" font-family="Helvetica,sans-Serif" font-size="10.00">EditorBrowserDialogUI</text>
</a>
</g>
</g>
<!-- Node20&#45;&gt;Node22 -->
<g id="edge21" class="edge">
<title>Node20&#45;&gt;Node22</title>
<path fill="none" stroke="#63b8ff" d="M564.17,-544.64C588.75,-549.69 617.58,-555.61 641.44,-560.52"/>
<polygon fill="#63b8ff" stroke="#63b8ff" points="565.07,-541.04 554.57,-542.46 563.66,-547.9 565.07,-541.04"/>
</g>
<!-- Node23 -->
<g id="node23" class="node">
<title>Node23</title>
<g id="a_node23"><a xlink:href="interfaceEditorMenuUI.html" target="_top" xlink:title=" ">
<polygon fill="white" stroke="#666666" points="728.5,-543 653.5,-543 653.5,-524 728.5,-524 728.5,-543"/>
<text text-anchor="middle" x="691" y="-531" font-family="Helvetica,sans-Serif" font-size="10.00">EditorMenuUI</text>
</a>
</g>
</g>
<!-- Node20&#45;&gt;Node23 -->
<g id="edge22" class="edge">
<title>Node20&#45;&gt;Node23</title>
<path fill="none" stroke="#63b8ff" d="M564.28,-533.5C593.04,-533.5 627.6,-533.5 653.2,-533.5"/>
<polygon fill="#63b8ff" stroke="#63b8ff" points="564.57,-530 554.57,-533.5 564.57,-537 564.57,-530"/>
</g>
<!-- Node27 -->
<g id="node27" class="node">
<title>Node27</title>
<g id="a_node27"><a xlink:href="interfaceContentBrowserDetailsMenu.html" target="_top" xlink:title=" ">
<polygon fill="white" stroke="#666666" points="761,-506 621,-506 621,-487 761,-487 761,-506"/>
<text text-anchor="middle" x="691" y="-494" font-family="Helvetica,sans-Serif" font-size="10.00">ContentBrowserDetailsMenu</text>
</a>
</g>
</g>
<!-- Node26&#45;&gt;Node27 -->
<g id="edge26" class="edge">
<title>Node26&#45;&gt;Node27</title>
<path fill="none" stroke="#63b8ff" d="M574.29,-436.19C578,-437.78 581.6,-439.54 585,-441.5 604.87,-452.97 601.17,-466.96 621,-478.5 626.56,-481.74 632.71,-484.4 638.98,-486.6"/>
<polygon fill="#63b8ff" stroke="#63b8ff" points="575.86,-432.67 565.27,-432.41 573.39,-439.22 575.86,-432.67"/>
</g>
<!-- Node28 -->
<g id="node28" class="node">
<title>Node28</title>
<g id="a_node28"><a xlink:href="interfaceContentBrowserUI.html" target="_top" xlink:title="The super menu class for WORKSHOP content browser.">
<polygon fill="white" stroke="#666666" points="738.5,-469 643.5,-469 643.5,-450 738.5,-450 738.5,-469"/>
<text text-anchor="middle" x="691" y="-457" font-family="Helvetica,sans-Serif" font-size="10.00">ContentBrowserUI</text>
</a>
</g>
</g>
<!-- Node26&#45;&gt;Node28 -->
<g id="edge27" class="edge">
<title>Node26&#45;&gt;Node28</title>
<path fill="none" stroke="#63b8ff" d="M568.7,-434.57C592.85,-439.53 620.43,-445.2 643.19,-449.88"/>
<polygon fill="#63b8ff" stroke="#63b8ff" points="569.74,-431 559.24,-432.42 568.33,-437.86 569.74,-431"/>
</g>
<!-- Node29 -->
<g id="node29" class="node">
<title>Node29</title>
<g id="a_node29"><a xlink:href="interfaceSCR__CareerProfileMenuUI.html" target="_top" xlink:title=" ">
<polygon fill="white" stroke="#666666" points="756.5,-432 625.5,-432 625.5,-413 756.5,-413 756.5,-432"/>
<text text-anchor="middle" x="691" y="-420" font-family="Helvetica,sans-Serif" font-size="10.00">SCR_CareerProfileMenuUI</text>
</a>
</g>
</g>
<!-- Node26&#45;&gt;Node29 -->
<g id="edge28" class="edge">
<title>Node26&#45;&gt;Node29</title>
<path fill="none" stroke="#63b8ff" d="M577.17,-422.5C592.9,-422.5 609.63,-422.5 625.26,-422.5"/>
<polygon fill="#63b8ff" stroke="#63b8ff" points="577.46,-419 567.46,-422.5 577.46,-426 577.46,-419"/>
</g>
<!-- Node30 -->
<g id="node30" class="node">
<title>Node30</title>
<g id="a_node30"><a xlink:href="interfaceSCR__GroupMenu.html" target="_top" xlink:title=" ">
<polygon fill="white" stroke="#666666" points="737,-395 645,-395 645,-376 737,-376 737,-395"/>
<text text-anchor="middle" x="691" y="-383" font-family="Helvetica,sans-Serif" font-size="10.00">SCR_GroupMenu</text>
</a>
</g>
</g>
<!-- Node26&#45;&gt;Node30 -->
<g id="edge29" class="edge">
<title>Node26&#45;&gt;Node30</title>
<path fill="none" stroke="#63b8ff" d="M568.92,-410.39C593.56,-405.32 621.75,-399.53 644.73,-394.81"/>
<polygon fill="#63b8ff" stroke="#63b8ff" points="568.33,-407.14 559.24,-412.58 569.74,-414 568.33,-407.14"/>
</g>
<!-- Node31 -->
<g id="node31" class="node">
<title>Node31</title>
<g id="a_node31"><a xlink:href="interfaceSCR__PlayerListMenu.html" target="_top" xlink:title=" ">
<polygon fill="white" stroke="#666666" points="746,-358 636,-358 636,-339 746,-339 746,-358"/>
<text text-anchor="middle" x="691" y="-346" font-family="Helvetica,sans-Serif" font-size="10.00">SCR_PlayerListMenu</text>
</a>
</g>
</g>
<!-- Node26&#45;&gt;Node31 -->
<g id="edge30" class="edge">
<title>Node26&#45;&gt;Node31</title>
<path fill="none" stroke="#63b8ff" d="M576.48,-408.77C579.42,-407.47 582.27,-406.05 585,-404.5 604.94,-393.15 601.25,-379.18 621,-367.5 627.2,-363.83 634.14,-360.85 641.15,-358.43"/>
<polygon fill="#63b8ff" stroke="#63b8ff" points="575.3,-405.86 567.23,-412.72 577.82,-412.39 575.3,-405.86"/>
</g>
<!-- Node32 -->
<g id="node32" class="node">
<title>Node32</title>
<g id="a_node32"><a xlink:href="interfaceSCR__ProfileSuperMenu.html" target="_top" xlink:title=" ">
<polygon fill="white" stroke="#666666" points="750.5,-321 631.5,-321 631.5,-302 750.5,-302 750.5,-321"/>
<text text-anchor="middle" x="691" y="-309" font-family="Helvetica,sans-Serif" font-size="10.00">SCR_ProfileSuperMenu</text>
</a>
</g>
</g>
<!-- Node26&#45;&gt;Node32 -->
<g id="edge31" class="edge">
<title>Node26&#45;&gt;Node32</title>
<path fill="none" stroke="#63b8ff" d="M576.1,-410.41C579.25,-408.69 582.24,-406.73 585,-404.5 613.76,-381.27 592.47,-353.01 621,-329.5 624.92,-326.27 629.35,-323.62 634.03,-321.43"/>
<polygon fill="#63b8ff" stroke="#63b8ff" points="574.91,-407.57 567.27,-414.91 577.82,-413.93 574.91,-407.57"/>
</g>
<!-- Node41 -->
<g id="node39" class="node">
<title>Node41</title>
<g id="a_node39"><a xlink:href="interfaceSCR__DeployMenuMain.html" target="_top" xlink:title="Main deploy menu with the map present.">
<polygon fill="white" stroke="#666666" points="567.5,-352 450.5,-352 450.5,-333 567.5,-333 567.5,-352"/>
<text text-anchor="middle" x="509" y="-340" font-family="Helvetica,sans-Serif" font-size="10.00">SCR_DeployMenuMain</text>
</a>
</g>
</g>
<!-- Node40&#45;&gt;Node41 -->
<g id="edge38" class="edge">
<title>Node40&#45;&gt;Node41</title>
<path fill="none" stroke="#63b8ff" d="M378.6,-317.5C403.72,-322.35 432.38,-327.89 456.34,-332.52"/>
<polygon fill="#63b8ff" stroke="#63b8ff" points="379.55,-313.92 369.07,-315.46 378.22,-320.8 379.55,-313.92"/>
</g>
<!-- Node42 -->
<g id="node40" class="node">
<title>Node42</title>
<g id="a_node40"><a xlink:href="interfaceSCR__RoleSelectionMenu.html" target="_top" xlink:title="Role selection menu for setting up player faction, group and loadout.">
<polygon fill="white" stroke="#666666" points="572,-315 446,-315 446,-296 572,-296 572,-315"/>
<text text-anchor="middle" x="509" y="-303" font-family="Helvetica,sans-Serif" font-size="10.00">SCR_RoleSelectionMenu</text>
</a>
</g>
</g>
<!-- Node40&#45;&gt;Node42 -->
<g id="edge39" class="edge">
<title>Node40&#45;&gt;Node42</title>
<path fill="none" stroke="#63b8ff" d="M386.2,-305.5C405.67,-305.5 426.69,-305.5 445.7,-305.5"/>
<polygon fill="#63b8ff" stroke="#63b8ff" points="386.26,-302 376.26,-305.5 386.26,-309 386.26,-302"/>
</g>
<!-- Node43 -->
<g id="node41" class="node">
<title>Node43</title>
<g id="a_node41"><a xlink:href="interfaceSCR__WelcomeScreenMenu.html" target="_top" xlink:title="Class that handles Welcome screen menu.">
<polygon fill="#fff0f0" stroke="red" points="578,-278 440,-278 440,-259 578,-259 578,-278"/>
<text text-anchor="middle" x="509" y="-266" font-family="Helvetica,sans-Serif" font-size="10.00">SCR_WelcomeScreenMenu</text>
</a>
</g>
</g>
<!-- Node40&#45;&gt;Node43 -->
<g id="edge40" class="edge">
<title>Node40&#45;&gt;Node43</title>
<path fill="none" stroke="#63b8ff" d="M378.6,-293.5C403.72,-288.65 432.38,-283.11 456.34,-278.48"/>
<polygon fill="#63b8ff" stroke="#63b8ff" points="378.22,-290.2 369.07,-295.54 379.55,-297.08 378.22,-290.2"/>
</g>
</g>
</svg>
