<?xml version="1.0" encoding="UTF-8" standalone="no"?>
<!DOCTYPE svg PUBLIC "-//W3C//DTD SVG 1.1//EN"
 "http://www.w3.org/Graphics/SVG/1.1/DTD/svg11.dtd">
<!-- Generated by graphviz version 8.0.2 (20230410.1723)
 -->
<!-- Title: SCR_AntennaServicePointComponentClass Pages: 1 -->
<svg width="190pt" height="225pt"
 viewBox="0.00 0.00 190.00 225.00" xmlns="http://www.w3.org/2000/svg" xmlns:xlink="http://www.w3.org/1999/xlink">
<g id="graph0" class="graph" transform="scale(1 1) rotate(0) translate(4 221)">
<title>SCR_AntennaServicePointComponentClass</title>
<!-- Node1 -->
<g id="node1" class="node">
<title>Node1</title>
<g id="a_node1"><a xlink:title=" ">
<polygon fill="#999999" stroke="#666666" points="182,-30 0,-30 0,0 182,0 182,-30"/>
<text text-anchor="start" x="8" y="-18" font-family="Helvetica,sans-Serif" font-size="10.00">SCR_AntennaServicePointComponent</text>
<text text-anchor="middle" x="91" y="-7" font-family="Helvetica,sans-Serif" font-size="10.00">Class</text>
</a>
</g>
</g>
<!-- Node2 -->
<g id="node2" class="node">
<title>Node2</title>
<g id="a_node2"><a xlink:href="interfaceSCR__ServicePointComponentClass.html" target="_top" xlink:title=" ">
<polygon fill="white" stroke="#666666" points="164,-96 18,-96 18,-66 164,-66 164,-96"/>
<text text-anchor="start" x="26" y="-84" font-family="Helvetica,sans-Serif" font-size="10.00">SCR_ServicePointComponent</text>
<text text-anchor="middle" x="91" y="-73" font-family="Helvetica,sans-Serif" font-size="10.00">Class</text>
</a>
</g>
</g>
<!-- Node2&#45;&gt;Node1 -->
<g id="edge1" class="edge">
<title>Node2&#45;&gt;Node1</title>
<path fill="none" stroke="#63b8ff" d="M91,-54.97C91,-46.55 91,-37.45 91,-30.16"/>
<polygon fill="#63b8ff" stroke="#63b8ff" points="87.5,-54.8 91,-64.8 94.5,-54.8 87.5,-54.8"/>
</g>
<!-- Node3 -->
<g id="node3" class="node">
<title>Node3</title>
<g id="a_node3"><a xlink:href="interfaceSCR__MilitaryBaseLogicComponentClass.html" target="_top" xlink:title=" ">
<polygon fill="white" stroke="#666666" points="175.5,-162 6.5,-162 6.5,-132 175.5,-132 175.5,-162"/>
<text text-anchor="start" x="14.5" y="-150" font-family="Helvetica,sans-Serif" font-size="10.00">SCR_MilitaryBaseLogicComponent</text>
<text text-anchor="middle" x="91" y="-139" font-family="Helvetica,sans-Serif" font-size="10.00">Class</text>
</a>
</g>
</g>
<!-- Node3&#45;&gt;Node2 -->
<g id="edge2" class="edge">
<title>Node3&#45;&gt;Node2</title>
<path fill="none" stroke="#63b8ff" d="M91,-120.97C91,-112.55 91,-103.45 91,-96.16"/>
<polygon fill="#63b8ff" stroke="#63b8ff" points="87.5,-120.8 91,-130.8 94.5,-120.8 87.5,-120.8"/>
</g>
<!-- Node4 -->
<g id="node4" class="node">
<title>Node4</title>
<g id="a_node4"><a xlink:title=" ">
<polygon fill="white" stroke="#666666" points="149,-217 33,-217 33,-198 149,-198 149,-217"/>
<text text-anchor="middle" x="91" y="-205" font-family="Helvetica,sans-Serif" font-size="10.00">ScriptComponentClass</text>
</a>
</g>
</g>
<!-- Node4&#45;&gt;Node3 -->
<g id="edge3" class="edge">
<title>Node4&#45;&gt;Node3</title>
<path fill="none" stroke="#63b8ff" d="M91,-187.08C91,-178.92 91,-169.6 91,-162.11"/>
<polygon fill="#63b8ff" stroke="#63b8ff" points="87.5,-186.87 91,-196.87 94.5,-186.87 87.5,-186.87"/>
</g>
</g>
</svg>
