<?xml version="1.0" encoding="UTF-8" standalone="no"?>
<!DOCTYPE svg PUBLIC "-//W3C//DTD SVG 1.1//EN"
 "http://www.w3.org/Graphics/SVG/1.1/DTD/svg11.dtd">
<!-- Generated by graphviz version 8.0.2 (20230410.1723)
 -->
<!-- Title: SCR_TriggerAreaMeshComponent Pages: 1 -->
<svg width="173pt" height="203pt"
 viewBox="0.00 0.00 173.00 203.00" xmlns="http://www.w3.org/2000/svg" xmlns:xlink="http://www.w3.org/1999/xlink">
<g id="graph0" class="graph" transform="scale(1 1) rotate(0) translate(4 199)">
<title>SCR_TriggerAreaMeshComponent</title>
<!-- Node1 -->
<g id="node1" class="node">
<title>Node1</title>
<g id="a_node1"><a xlink:title=" ">
<polygon fill="#999999" stroke="#666666" points="165,-85 0,-85 0,-66 165,-66 165,-85"/>
<text text-anchor="middle" x="82.5" y="-73" font-family="Helvetica,sans-Serif" font-size="10.00">SCR_TriggerAreaMeshComponent</text>
</a>
</g>
</g>
<!-- Node4 -->
<g id="node4" class="node">
<title>Node4</title>
<g id="a_node4"><a xlink:href="interfaceSCR__CampaignBuildingAreaMeshComponent.html" target="_top" xlink:title=" ">
<polygon fill="white" stroke="#666666" points="152.5,-30 12.5,-30 12.5,0 152.5,0 152.5,-30"/>
<text text-anchor="start" x="20.5" y="-18" font-family="Helvetica,sans-Serif" font-size="10.00">SCR_CampaignBuildingArea</text>
<text text-anchor="middle" x="82.5" y="-7" font-family="Helvetica,sans-Serif" font-size="10.00">MeshComponent</text>
</a>
</g>
</g>
<!-- Node1&#45;&gt;Node4 -->
<g id="edge3" class="edge">
<title>Node1&#45;&gt;Node4</title>
<path fill="none" stroke="#63b8ff" d="M82.5,-55.08C82.5,-46.92 82.5,-37.6 82.5,-30.11"/>
<polygon fill="#63b8ff" stroke="#63b8ff" points="79,-54.87 82.5,-64.87 86,-54.87 79,-54.87"/>
</g>
<!-- Node2 -->
<g id="node2" class="node">
<title>Node2</title>
<g id="a_node2"><a xlink:href="interfaceSCR__BaseAreaMeshComponent.html" target="_top" xlink:title=" ">
<polygon fill="white" stroke="#666666" points="161.5,-140 3.5,-140 3.5,-121 161.5,-121 161.5,-140"/>
<text text-anchor="middle" x="82.5" y="-128" font-family="Helvetica,sans-Serif" font-size="10.00">SCR_BaseAreaMeshComponent</text>
</a>
</g>
</g>
<!-- Node2&#45;&gt;Node1 -->
<g id="edge1" class="edge">
<title>Node2&#45;&gt;Node1</title>
<path fill="none" stroke="#63b8ff" d="M82.5,-109.93C82.5,-101.53 82.5,-92.13 82.5,-85.44"/>
<polygon fill="#63b8ff" stroke="#63b8ff" points="79,-109.75 82.5,-119.75 86,-109.75 79,-109.75"/>
</g>
<!-- Node3 -->
<g id="node3" class="node">
<title>Node3</title>
<g id="a_node3"><a xlink:title=" ">
<polygon fill="white" stroke="#666666" points="128.5,-195 36.5,-195 36.5,-176 128.5,-176 128.5,-195"/>
<text text-anchor="middle" x="82.5" y="-183" font-family="Helvetica,sans-Serif" font-size="10.00">ScriptComponent</text>
</a>
</g>
</g>
<!-- Node3&#45;&gt;Node2 -->
<g id="edge2" class="edge">
<title>Node3&#45;&gt;Node2</title>
<path fill="none" stroke="#63b8ff" d="M82.5,-164.93C82.5,-156.53 82.5,-147.13 82.5,-140.44"/>
<polygon fill="#63b8ff" stroke="#63b8ff" points="79,-164.75 82.5,-174.75 86,-164.75 79,-164.75"/>
</g>
</g>
</svg>
