<?xml version="1.0" encoding="UTF-8" standalone="no"?>
<!DOCTYPE svg PUBLIC "-//W3C//DTD SVG 1.1//EN"
 "http://www.w3.org/Graphics/SVG/1.1/DTD/svg11.dtd">
<!-- Generated by graphviz version 8.0.2 (20230410.1723)
 -->
<!-- Title: AnimalControllerComponentClass Pages: 1 -->
<svg width="163pt" height="203pt"
 viewBox="0.00 0.00 163.00 203.00" xmlns="http://www.w3.org/2000/svg" xmlns:xlink="http://www.w3.org/1999/xlink">
<g id="graph0" class="graph" transform="scale(1 1) rotate(0) translate(4 199)">
<title>AnimalControllerComponentClass</title>
<!-- Node1 -->
<g id="node1" class="node">
<title>Node1</title>
<g id="a_node1"><a xlink:title=" ">
<polygon fill="#999999" stroke="#666666" points="146,-30 9,-30 9,0 146,0 146,-30"/>
<text text-anchor="start" x="17" y="-18" font-family="Helvetica,sans-Serif" font-size="10.00">AnimalControllerComponent</text>
<text text-anchor="middle" x="77.5" y="-7" font-family="Helvetica,sans-Serif" font-size="10.00">Class</text>
</a>
</g>
</g>
<!-- Node2 -->
<g id="node2" class="node">
<title>Node2</title>
<g id="a_node2"><a xlink:href="interfaceBaseControllerComponentClass.html" target="_top" xlink:title=" ">
<polygon fill="white" stroke="#666666" points="155,-85 0,-85 0,-66 155,-66 155,-85"/>
<text text-anchor="middle" x="77.5" y="-73" font-family="Helvetica,sans-Serif" font-size="10.00">BaseControllerComponentClass</text>
</a>
</g>
</g>
<!-- Node2&#45;&gt;Node1 -->
<g id="edge1" class="edge">
<title>Node2&#45;&gt;Node1</title>
<path fill="none" stroke="#63b8ff" d="M77.5,-55.08C77.5,-46.92 77.5,-37.6 77.5,-30.11"/>
<polygon fill="#63b8ff" stroke="#63b8ff" points="74,-54.87 77.5,-64.87 81,-54.87 74,-54.87"/>
</g>
<!-- Node3 -->
<g id="node3" class="node">
<title>Node3</title>
<g id="a_node3"><a xlink:href="interfaceGameComponentClass.html" target="_top" xlink:title=" ">
<polygon fill="white" stroke="#666666" points="136,-140 19,-140 19,-121 136,-121 136,-140"/>
<text text-anchor="middle" x="77.5" y="-128" font-family="Helvetica,sans-Serif" font-size="10.00">GameComponentClass</text>
</a>
</g>
</g>
<!-- Node3&#45;&gt;Node2 -->
<g id="edge2" class="edge">
<title>Node3&#45;&gt;Node2</title>
<path fill="none" stroke="#63b8ff" d="M77.5,-109.93C77.5,-101.53 77.5,-92.13 77.5,-85.44"/>
<polygon fill="#63b8ff" stroke="#63b8ff" points="74,-109.75 77.5,-119.75 81,-109.75 74,-109.75"/>
</g>
<!-- Node4 -->
<g id="node4" class="node">
<title>Node4</title>
<g id="a_node4"><a xlink:title=" ">
<polygon fill="white" stroke="#666666" points="140,-195 15,-195 15,-176 140,-176 140,-195"/>
<text text-anchor="middle" x="77.5" y="-183" font-family="Helvetica,sans-Serif" font-size="10.00">GenericComponentClass</text>
</a>
</g>
</g>
<!-- Node4&#45;&gt;Node3 -->
<g id="edge3" class="edge">
<title>Node4&#45;&gt;Node3</title>
<path fill="none" stroke="#63b8ff" d="M77.5,-164.93C77.5,-156.53 77.5,-147.13 77.5,-140.44"/>
<polygon fill="#63b8ff" stroke="#63b8ff" points="74,-164.75 77.5,-174.75 81,-164.75 74,-164.75"/>
</g>
</g>
</svg>
