<?xml version="1.0" encoding="UTF-8" standalone="no"?>
<!DOCTYPE svg PUBLIC "-//W3C//DTD SVG 1.1//EN"
 "http://www.w3.org/Graphics/SVG/1.1/DTD/svg11.dtd">
<!-- Generated by graphviz version 8.0.2 (20230410.1723)
 -->
<!-- Title: ExtBaseInteractionHandlerComponent Pages: 1 -->
<svg width="178pt" height="313pt"
 viewBox="0.00 0.00 178.00 313.00" xmlns="http://www.w3.org/2000/svg" xmlns:xlink="http://www.w3.org/1999/xlink">
<g id="graph0" class="graph" transform="scale(1 1) rotate(0) translate(4 309)">
<title>ExtBaseInteractionHandlerComponent</title>
<!-- Node1 -->
<g id="node1" class="node">
<title>Node1</title>
<g id="a_node1"><a xlink:title="Collects interactions by performing a sphere cast initially and then a sphere query at the end.">
<polygon fill="#999999" stroke="#666666" points="151,-140 19,-140 19,-110 151,-110 151,-140"/>
<text text-anchor="start" x="27" y="-128" font-family="Helvetica,sans-Serif" font-size="10.00">ExtBaseInteractionHandler</text>
<text text-anchor="middle" x="85" y="-117" font-family="Helvetica,sans-Serif" font-size="10.00">Component</text>
</a>
</g>
</g>
<!-- Node5 -->
<g id="node5" class="node">
<title>Node5</title>
<g id="a_node5"><a xlink:href="interfaceInteractionHandlerComponent.html" target="_top" xlink:title="Collects interactions by performing a sphere cast initially and then a sphere query at the end.">
<polygon fill="white" stroke="#666666" points="157,-74 13,-74 13,-55 157,-55 157,-74"/>
<text text-anchor="middle" x="85" y="-62" font-family="Helvetica,sans-Serif" font-size="10.00">InteractionHandlerComponent</text>
</a>
</g>
</g>
<!-- Node1&#45;&gt;Node5 -->
<g id="edge4" class="edge">
<title>Node1&#45;&gt;Node5</title>
<path fill="none" stroke="#63b8ff" d="M85,-98.59C85,-89.85 85,-80.65 85,-74.18"/>
<polygon fill="#63b8ff" stroke="#63b8ff" points="81.5,-98.54 85,-108.54 88.5,-98.54 81.5,-98.54"/>
</g>
<!-- Node2 -->
<g id="node2" class="node">
<title>Node2</title>
<g id="a_node2"><a xlink:href="interfaceBaseInteractionHandlerComponent.html" target="_top" xlink:title="Base class for interaction handler.">
<polygon fill="white" stroke="#666666" points="168.5,-195 1.5,-195 1.5,-176 168.5,-176 168.5,-195"/>
<text text-anchor="middle" x="85" y="-183" font-family="Helvetica,sans-Serif" font-size="10.00">BaseInteractionHandlerComponent</text>
</a>
</g>
</g>
<!-- Node2&#45;&gt;Node1 -->
<g id="edge1" class="edge">
<title>Node2&#45;&gt;Node1</title>
<path fill="none" stroke="#63b8ff" d="M85,-165.08C85,-156.92 85,-147.6 85,-140.11"/>
<polygon fill="#63b8ff" stroke="#63b8ff" points="81.5,-164.87 85,-174.87 88.5,-164.87 81.5,-164.87"/>
</g>
<!-- Node3 -->
<g id="node3" class="node">
<title>Node3</title>
<g id="a_node3"><a xlink:href="interfaceGameComponent.html" target="_top" xlink:title=" ">
<polygon fill="white" stroke="#666666" points="131,-250 39,-250 39,-231 131,-231 131,-250"/>
<text text-anchor="middle" x="85" y="-238" font-family="Helvetica,sans-Serif" font-size="10.00">GameComponent</text>
</a>
</g>
</g>
<!-- Node3&#45;&gt;Node2 -->
<g id="edge2" class="edge">
<title>Node3&#45;&gt;Node2</title>
<path fill="none" stroke="#63b8ff" d="M85,-219.93C85,-211.53 85,-202.13 85,-195.44"/>
<polygon fill="#63b8ff" stroke="#63b8ff" points="81.5,-219.75 85,-229.75 88.5,-219.75 81.5,-219.75"/>
</g>
<!-- Node4 -->
<g id="node4" class="node">
<title>Node4</title>
<g id="a_node4"><a xlink:title=" ">
<polygon fill="white" stroke="#666666" points="135,-305 35,-305 35,-286 135,-286 135,-305"/>
<text text-anchor="middle" x="85" y="-293" font-family="Helvetica,sans-Serif" font-size="10.00">GenericComponent</text>
</a>
</g>
</g>
<!-- Node4&#45;&gt;Node3 -->
<g id="edge3" class="edge">
<title>Node4&#45;&gt;Node3</title>
<path fill="none" stroke="#63b8ff" d="M85,-274.93C85,-266.53 85,-257.13 85,-250.44"/>
<polygon fill="#63b8ff" stroke="#63b8ff" points="81.5,-274.75 85,-284.75 88.5,-274.75 81.5,-274.75"/>
</g>
<!-- Node6 -->
<g id="node6" class="node">
<title>Node6</title>
<g id="a_node6"><a xlink:href="interfaceSCR__InteractionHandlerComponent.html" target="_top" xlink:title="This component allows the player to interact with their environment.">
<polygon fill="white" stroke="#666666" points="170,-19 0,-19 0,0 170,0 170,-19"/>
<text text-anchor="middle" x="85" y="-7" font-family="Helvetica,sans-Serif" font-size="10.00">SCR_InteractionHandlerComponent</text>
</a>
</g>
</g>
<!-- Node5&#45;&gt;Node6 -->
<g id="edge5" class="edge">
<title>Node5&#45;&gt;Node6</title>
<path fill="none" stroke="#63b8ff" d="M85,-43.93C85,-35.53 85,-26.13 85,-19.44"/>
<polygon fill="#63b8ff" stroke="#63b8ff" points="81.5,-43.75 85,-53.75 88.5,-43.75 81.5,-43.75"/>
</g>
</g>
</svg>
