<?xml version="1.0" encoding="UTF-8" standalone="no"?>
<!DOCTYPE svg PUBLIC "-//W3C//DTD SVG 1.1//EN"
 "http://www.w3.org/Graphics/SVG/1.1/DTD/svg11.dtd">
<!-- Generated by graphviz version 8.0.2 (20230410.1723)
 -->
<!-- Title: SCR_EditableEntityBaseChildComponent Pages: 1 -->
<svg width="678pt" height="86pt"
 viewBox="0.00 0.00 678.00 86.00" xmlns="http://www.w3.org/2000/svg" xmlns:xlink="http://www.w3.org/1999/xlink">
<g id="graph0" class="graph" transform="scale(1 1) rotate(0) translate(4 82)">
<title>SCR_EditableEntityBaseChildComponent</title>
<!-- Node1 -->
<g id="node1" class="node">
<title>Node1</title>
<g id="a_node1"><a xlink:title="Base class for child editable entity component.">
<polygon fill="#999999" stroke="#666666" points="275,-54 128,-54 128,-24 275,-24 275,-54"/>
<text text-anchor="start" x="136" y="-42" font-family="Helvetica,sans-Serif" font-size="10.00">SCR_EditableEntityBaseChild</text>
<text text-anchor="middle" x="201.5" y="-31" font-family="Helvetica,sans-Serif" font-size="10.00">Component</text>
</a>
</g>
</g>
<!-- Node3 -->
<g id="node3" class="node">
<title>Node3</title>
<g id="a_node3"><a xlink:href="interfaceSCR__EditableEntityMaterialChildComponent.html" target="_top" xlink:title=" ">
<polygon fill="white" stroke="#666666" points="449.5,-78 312.5,-78 312.5,-48 449.5,-48 449.5,-78"/>
<text text-anchor="start" x="320.5" y="-66" font-family="Helvetica,sans-Serif" font-size="10.00">SCR_EditableEntityMaterial</text>
<text text-anchor="middle" x="381" y="-55" font-family="Helvetica,sans-Serif" font-size="10.00">ChildComponent</text>
</a>
</g>
</g>
<!-- Node1&#45;&gt;Node3 -->
<g id="edge2" class="edge">
<title>Node1&#45;&gt;Node3</title>
<path fill="none" stroke="#63b8ff" d="M286.36,-50.34C295.01,-51.51 303.72,-52.69 312.17,-53.83"/>
<polygon fill="#63b8ff" stroke="#63b8ff" points="286.84,-46.74 276.46,-48.87 285.91,-53.67 286.84,-46.74"/>
</g>
<!-- Node4 -->
<g id="node4" class="node">
<title>Node4</title>
<g id="a_node4"><a xlink:href="interfaceSCR__EditableEntityVisibilityChildComponent.html" target="_top" xlink:title=" ">
<polygon fill="white" stroke="#666666" points="451,-30 311,-30 311,0 451,0 451,-30"/>
<text text-anchor="start" x="319" y="-18" font-family="Helvetica,sans-Serif" font-size="10.00">SCR_EditableEntityVisibility</text>
<text text-anchor="middle" x="381" y="-7" font-family="Helvetica,sans-Serif" font-size="10.00">ChildComponent</text>
</a>
</g>
</g>
<!-- Node1&#45;&gt;Node4 -->
<g id="edge3" class="edge">
<title>Node1&#45;&gt;Node4</title>
<path fill="none" stroke="#63b8ff" d="M286.21,-27.68C294.42,-26.57 302.7,-25.45 310.75,-24.36"/>
<polygon fill="#63b8ff" stroke="#63b8ff" points="285.91,-24.33 276.46,-29.13 286.84,-31.26 285.91,-24.33"/>
</g>
<!-- Node2 -->
<g id="node2" class="node">
<title>Node2</title>
<g id="a_node2"><a xlink:title=" ">
<polygon fill="white" stroke="#666666" points="92,-48.5 0,-48.5 0,-29.5 92,-29.5 92,-48.5"/>
<text text-anchor="middle" x="46" y="-36.5" font-family="Helvetica,sans-Serif" font-size="10.00">ScriptComponent</text>
</a>
</g>
</g>
<!-- Node2&#45;&gt;Node1 -->
<g id="edge1" class="edge">
<title>Node2&#45;&gt;Node1</title>
<path fill="none" stroke="#63b8ff" d="M103.22,-39C111.18,-39 119.45,-39 127.67,-39"/>
<polygon fill="#63b8ff" stroke="#63b8ff" points="103.22,-35.5 93.22,-39 103.22,-42.5 103.22,-35.5"/>
</g>
<!-- Node5 -->
<g id="node5" class="node">
<title>Node5</title>
<g id="a_node5"><a xlink:href="interfaceSCR__EditableEntityVehicleCompartmentVisibilityChildComponent.html" target="_top" xlink:title=" ">
<polygon fill="white" stroke="#666666" points="670,-30 487,-30 487,0 670,0 670,-30"/>
<text text-anchor="start" x="495" y="-18" font-family="Helvetica,sans-Serif" font-size="10.00">SCR_EditableEntityVehicle</text>
<text text-anchor="middle" x="578.5" y="-7" font-family="Helvetica,sans-Serif" font-size="10.00">CompartmentVisibilityChildComponent</text>
</a>
</g>
</g>
<!-- Node4&#45;&gt;Node5 -->
<g id="edge4" class="edge">
<title>Node4&#45;&gt;Node5</title>
<path fill="none" stroke="#63b8ff" d="M462.32,-15C470.36,-15 478.57,-15 486.71,-15"/>
<polygon fill="#63b8ff" stroke="#63b8ff" points="462.48,-11.5 452.48,-15 462.48,-18.5 462.48,-11.5"/>
</g>
</g>
</svg>
