<?xml version="1.0" encoding="UTF-8" standalone="no"?>
<!DOCTYPE svg PUBLIC "-//W3C//DTD SVG 1.1//EN"
 "http://www.w3.org/Graphics/SVG/1.1/DTD/svg11.dtd">
<!-- Generated by graphviz version 8.0.2 (20230410.1723)
 -->
<!-- Title: SCR_CharacterCommandHandlerComponent_TestsClass Pages: 1 -->
<svg width="193pt" height="346pt"
 viewBox="0.00 0.00 193.00 346.00" xmlns="http://www.w3.org/2000/svg" xmlns:xlink="http://www.w3.org/1999/xlink">
<g id="graph0" class="graph" transform="scale(1 1) rotate(0) translate(4 342)">
<title>SCR_CharacterCommandHandlerComponent_TestsClass</title>
<!-- Node1 -->
<g id="node1" class="node">
<title>Node1</title>
<g id="a_node1"><a xlink:title=" ">
<polygon fill="#999999" stroke="#666666" points="173,-30 12,-30 12,0 173,0 173,-30"/>
<text text-anchor="start" x="20" y="-18" font-family="Helvetica,sans-Serif" font-size="10.00">SCR_CharacterCommandHandler</text>
<text text-anchor="middle" x="92.5" y="-7" font-family="Helvetica,sans-Serif" font-size="10.00">Component_TestsClass</text>
</a>
</g>
</g>
<!-- Node2 -->
<g id="node2" class="node">
<title>Node2</title>
<g id="a_node2"><a xlink:href="interfaceSCR__CharacterCommandHandlerComponentClass.html" target="_top" xlink:title=" ">
<polygon fill="white" stroke="#666666" points="173,-96 12,-96 12,-66 173,-66 173,-96"/>
<text text-anchor="start" x="20" y="-84" font-family="Helvetica,sans-Serif" font-size="10.00">SCR_CharacterCommandHandler</text>
<text text-anchor="middle" x="92.5" y="-73" font-family="Helvetica,sans-Serif" font-size="10.00">ComponentClass</text>
</a>
</g>
</g>
<!-- Node2&#45;&gt;Node1 -->
<g id="edge1" class="edge">
<title>Node2&#45;&gt;Node1</title>
<path fill="none" stroke="#63b8ff" d="M92.5,-54.97C92.5,-46.55 92.5,-37.45 92.5,-30.16"/>
<polygon fill="#63b8ff" stroke="#63b8ff" points="89,-54.8 92.5,-64.8 96,-54.8 89,-54.8"/>
</g>
<!-- Node3 -->
<g id="node3" class="node">
<title>Node3</title>
<g id="a_node3"><a xlink:href="interfaceCharacterCommandHandlerComponentClass.html" target="_top" xlink:title=" ">
<polygon fill="white" stroke="#666666" points="185,-162 0,-162 0,-132 185,-132 185,-162"/>
<text text-anchor="start" x="8" y="-150" font-family="Helvetica,sans-Serif" font-size="10.00">CharacterCommandHandlerComponent</text>
<text text-anchor="middle" x="92.5" y="-139" font-family="Helvetica,sans-Serif" font-size="10.00">Class</text>
</a>
</g>
</g>
<!-- Node3&#45;&gt;Node2 -->
<g id="edge2" class="edge">
<title>Node3&#45;&gt;Node2</title>
<path fill="none" stroke="#63b8ff" d="M92.5,-120.97C92.5,-112.55 92.5,-103.45 92.5,-96.16"/>
<polygon fill="#63b8ff" stroke="#63b8ff" points="89,-120.8 92.5,-130.8 96,-120.8 89,-120.8"/>
</g>
<!-- Node4 -->
<g id="node4" class="node">
<title>Node4</title>
<g id="a_node4"><a xlink:href="interfaceBaseCommandHandlerComponentClass.html" target="_top" xlink:title=" ">
<polygon fill="white" stroke="#666666" points="175.5,-228 9.5,-228 9.5,-198 175.5,-198 175.5,-228"/>
<text text-anchor="start" x="17.5" y="-216" font-family="Helvetica,sans-Serif" font-size="10.00">BaseCommandHandlerComponent</text>
<text text-anchor="middle" x="92.5" y="-205" font-family="Helvetica,sans-Serif" font-size="10.00">Class</text>
</a>
</g>
</g>
<!-- Node4&#45;&gt;Node3 -->
<g id="edge3" class="edge">
<title>Node4&#45;&gt;Node3</title>
<path fill="none" stroke="#63b8ff" d="M92.5,-186.97C92.5,-178.55 92.5,-169.45 92.5,-162.16"/>
<polygon fill="#63b8ff" stroke="#63b8ff" points="89,-186.8 92.5,-196.8 96,-186.8 89,-186.8"/>
</g>
<!-- Node5 -->
<g id="node5" class="node">
<title>Node5</title>
<g id="a_node5"><a xlink:href="interfaceGameComponentClass.html" target="_top" xlink:title=" ">
<polygon fill="white" stroke="#666666" points="151,-283 34,-283 34,-264 151,-264 151,-283"/>
<text text-anchor="middle" x="92.5" y="-271" font-family="Helvetica,sans-Serif" font-size="10.00">GameComponentClass</text>
</a>
</g>
</g>
<!-- Node5&#45;&gt;Node4 -->
<g id="edge4" class="edge">
<title>Node5&#45;&gt;Node4</title>
<path fill="none" stroke="#63b8ff" d="M92.5,-253.08C92.5,-244.92 92.5,-235.6 92.5,-228.11"/>
<polygon fill="#63b8ff" stroke="#63b8ff" points="89,-252.87 92.5,-262.87 96,-252.87 89,-252.87"/>
</g>
<!-- Node6 -->
<g id="node6" class="node">
<title>Node6</title>
<g id="a_node6"><a xlink:title=" ">
<polygon fill="white" stroke="#666666" points="155,-338 30,-338 30,-319 155,-319 155,-338"/>
<text text-anchor="middle" x="92.5" y="-326" font-family="Helvetica,sans-Serif" font-size="10.00">GenericComponentClass</text>
</a>
</g>
</g>
<!-- Node6&#45;&gt;Node5 -->
<g id="edge5" class="edge">
<title>Node6&#45;&gt;Node5</title>
<path fill="none" stroke="#63b8ff" d="M92.5,-307.93C92.5,-299.53 92.5,-290.13 92.5,-283.44"/>
<polygon fill="#63b8ff" stroke="#63b8ff" points="89,-307.75 92.5,-317.75 96,-307.75 89,-307.75"/>
</g>
</g>
</svg>
