<?xml version="1.0" encoding="UTF-8" standalone="no"?>
<!DOCTYPE svg PUBLIC "-//W3C//DTD SVG 1.1//EN"
 "http://www.w3.org/Graphics/SVG/1.1/DTD/svg11.dtd">
<!-- Generated by graphviz version 8.0.2 (20230410.1723)
 -->
<!-- Title: SCR_LogoOverlayEditorAttribute Pages: 1 -->
<svg width="169pt" height="203pt"
 viewBox="0.00 0.00 169.00 203.00" xmlns="http://www.w3.org/2000/svg" xmlns:xlink="http://www.w3.org/1999/xlink">
<g id="graph0" class="graph" transform="scale(1 1) rotate(0) translate(4 199)">
<title>SCR_LogoOverlayEditorAttribute</title>
<!-- Node1 -->
<g id="node1" class="node">
<title>Node1</title>
<g id="a_node1"><a xlink:title=" ">
<polygon fill="#999999" stroke="#666666" points="159.5,-19 1.5,-19 1.5,0 159.5,0 159.5,-19"/>
<text text-anchor="middle" x="80.5" y="-7" font-family="Helvetica,sans-Serif" font-size="10.00">SCR_LogoOverlayEditorAttribute</text>
</a>
</g>
</g>
<!-- Node2 -->
<g id="node2" class="node">
<title>Node2</title>
<g id="a_node2"><a xlink:href="interfaceSCR__MenuOverlayEditorAttribute.html" target="_top" xlink:title=" ">
<polygon fill="white" stroke="#666666" points="161,-74 0,-74 0,-55 161,-55 161,-74"/>
<text text-anchor="middle" x="80.5" y="-62" font-family="Helvetica,sans-Serif" font-size="10.00">SCR_MenuOverlayEditorAttribute</text>
</a>
</g>
</g>
<!-- Node2&#45;&gt;Node1 -->
<g id="edge1" class="edge">
<title>Node2&#45;&gt;Node1</title>
<path fill="none" stroke="#63b8ff" d="M80.5,-43.93C80.5,-35.53 80.5,-26.13 80.5,-19.44"/>
<polygon fill="#63b8ff" stroke="#63b8ff" points="77,-43.75 80.5,-53.75 84,-43.75 77,-43.75"/>
</g>
<!-- Node3 -->
<g id="node3" class="node">
<title>Node3</title>
<g id="a_node3"><a xlink:href="interfaceSCR__BaseDuplicatableEditorAttribute.html" target="_top" xlink:title="Attributes that never communicate can inharent from SCR_BaseDuplicatableEditorAttribute else an error...">
<polygon fill="white" stroke="#666666" points="152,-140 9,-140 9,-110 152,-110 152,-140"/>
<text text-anchor="start" x="17" y="-128" font-family="Helvetica,sans-Serif" font-size="10.00">SCR_BaseDuplicatableEditor</text>
<text text-anchor="middle" x="80.5" y="-117" font-family="Helvetica,sans-Serif" font-size="10.00">Attribute</text>
</a>
</g>
</g>
<!-- Node3&#45;&gt;Node2 -->
<g id="edge2" class="edge">
<title>Node3&#45;&gt;Node2</title>
<path fill="none" stroke="#63b8ff" d="M80.5,-98.59C80.5,-89.85 80.5,-80.65 80.5,-74.18"/>
<polygon fill="#63b8ff" stroke="#63b8ff" points="77,-98.54 80.5,-108.54 84,-98.54 77,-98.54"/>
</g>
<!-- Node4 -->
<g id="node4" class="node">
<title>Node4</title>
<g id="a_node4"><a xlink:href="interfaceSCR__BaseEditorAttribute.html" target="_top" xlink:title="Base Attribute Script for other attributes to inherent from to get and set varriables in Editor Attri...">
<polygon fill="white" stroke="#666666" points="144,-195 17,-195 17,-176 144,-176 144,-195"/>
<text text-anchor="middle" x="80.5" y="-183" font-family="Helvetica,sans-Serif" font-size="10.00">SCR_BaseEditorAttribute</text>
</a>
</g>
</g>
<!-- Node4&#45;&gt;Node3 -->
<g id="edge3" class="edge">
<title>Node4&#45;&gt;Node3</title>
<path fill="none" stroke="#63b8ff" d="M80.5,-165.08C80.5,-156.92 80.5,-147.6 80.5,-140.11"/>
<polygon fill="#63b8ff" stroke="#63b8ff" points="77,-164.87 80.5,-174.87 84,-164.87 77,-164.87"/>
</g>
</g>
</svg>
