<?xml version="1.0" encoding="UTF-8" standalone="no"?>
<!DOCTYPE svg PUBLIC "-//W3C//DTD SVG 1.1//EN"
 "http://www.w3.org/Graphics/SVG/1.1/DTD/svg11.dtd">
<!-- Generated by graphviz version 8.0.2 (20230410.1723)
 -->
<!-- Title: SCR_InfoDisplayExtended Pages: 1 -->
<svg width="1025pt" height="1235pt"
 viewBox="0.00 0.00 1025.00 1235.00" xmlns="http://www.w3.org/2000/svg" xmlns:xlink="http://www.w3.org/1999/xlink">
<g id="graph0" class="graph" transform="scale(1 1) rotate(0) translate(4 1231)">
<title>SCR_InfoDisplayExtended</title>
<!-- Node1 -->
<g id="node1" class="node">
<title>Node1</title>
<g id="a_node1"><a xlink:title=" ">
<polygon fill="#999999" stroke="#666666" points="626,-456 495,-456 495,-437 626,-437 626,-456"/>
<text text-anchor="middle" x="560.5" y="-444" font-family="Helvetica,sans-Serif" font-size="10.00">SCR_InfoDisplayExtended</text>
</a>
</g>
</g>
<!-- Node6 -->
<g id="node6" class="node">
<title>Node6</title>
<g id="a_node6"><a xlink:href="interfaceSCR__2DOpticsDisplay.html" target="_top" xlink:title=" ">
<polygon fill="white" stroke="#666666" points="801.5,-1030 686.5,-1030 686.5,-1011 801.5,-1011 801.5,-1030"/>
<text text-anchor="middle" x="744" y="-1018" font-family="Helvetica,sans-Serif" font-size="10.00">SCR_2DOpticsDisplay</text>
</a>
</g>
</g>
<!-- Node1&#45;&gt;Node6 -->
<g id="edge5" class="edge">
<title>Node1&#45;&gt;Node6</title>
<path fill="none" stroke="#63b8ff" d="M562.26,-467.02C566.07,-557.93 585.97,-923.38 662,-1002.5 668.59,-1009.36 677.16,-1013.87 686.26,-1016.8"/>
<polygon fill="#63b8ff" stroke="#63b8ff" points="565.73,-467.13 561.84,-457.28 558.74,-467.41 565.73,-467.13"/>
</g>
<!-- Node7 -->
<g id="node7" class="node">
<title>Node7</title>
<g id="a_node7"><a xlink:href="interfaceSCR__AvailableActionsDisplay.html" target="_top" xlink:title=" ">
<polygon fill="white" stroke="#666666" points="817,-993 671,-993 671,-974 817,-974 817,-993"/>
<text text-anchor="middle" x="744" y="-981" font-family="Helvetica,sans-Serif" font-size="10.00">SCR_AvailableActionsDisplay</text>
</a>
</g>
</g>
<!-- Node1&#45;&gt;Node7 -->
<g id="edge6" class="edge">
<title>Node1&#45;&gt;Node7</title>
<path fill="none" stroke="#63b8ff" d="M562.57,-467.31C567.49,-554.88 590.86,-892.38 662,-965.5 665.11,-968.7 668.66,-971.39 672.49,-973.65"/>
<polygon fill="#63b8ff" stroke="#63b8ff" points="566.02,-467.26 561.98,-457.46 559.03,-467.63 566.02,-467.26"/>
</g>
<!-- Node8 -->
<g id="node8" class="node">
<title>Node8</title>
<g id="a_node8"><a xlink:href="interfaceSCR__BaseAnalogGauge.html" target="_top" xlink:title=" ">
<polygon fill="white" stroke="#666666" points="805.5,-956 682.5,-956 682.5,-937 805.5,-937 805.5,-956"/>
<text text-anchor="middle" x="744" y="-944" font-family="Helvetica,sans-Serif" font-size="10.00">SCR_BaseAnalogGauge</text>
</a>
</g>
</g>
<!-- Node1&#45;&gt;Node8 -->
<g id="edge7" class="edge">
<title>Node1&#45;&gt;Node8</title>
<path fill="none" stroke="#63b8ff" d="M562.87,-466.87C568.87,-549.85 595.54,-861.16 662,-928.5 667.67,-934.24 674.73,-938.33 682.31,-941.22"/>
<polygon fill="#63b8ff" stroke="#63b8ff" points="566.31,-466.88 562.12,-457.15 559.33,-467.37 566.31,-466.88"/>
</g>
<!-- Node16 -->
<g id="node11" class="node">
<title>Node16</title>
<g id="a_node11"><a xlink:href="interfaceSCR__BaseInteractionDisplay.html" target="_top" xlink:title="Base class for displaying interactions in the UI.">
<polygon fill="white" stroke="#666666" points="815,-919 673,-919 673,-900 815,-900 815,-919"/>
<text text-anchor="middle" x="744" y="-907" font-family="Helvetica,sans-Serif" font-size="10.00">SCR_BaseInteractionDisplay</text>
</a>
</g>
</g>
<!-- Node1&#45;&gt;Node16 -->
<g id="edge10" class="edge">
<title>Node1&#45;&gt;Node16</title>
<path fill="none" stroke="#63b8ff" d="M563.27,-467.05C570.49,-546.22 600.36,-830.07 662,-891.5 665.16,-894.65 668.75,-897.31 672.61,-899.53"/>
<polygon fill="#63b8ff" stroke="#63b8ff" points="566.67,-466.82 562.3,-457.17 559.7,-467.44 566.67,-466.82"/>
</g>
<!-- Node18 -->
<g id="node13" class="node">
<title>Node18</title>
<g id="a_node13"><a xlink:href="interfaceSCR__BaseScreenEffect.html" target="_top" xlink:title=" ">
<polygon fill="white" stroke="#666666" points="804,-882 684,-882 684,-863 804,-863 804,-882"/>
<text text-anchor="middle" x="744" y="-870" font-family="Helvetica,sans-Serif" font-size="10.00">SCR_BaseScreenEffect</text>
</a>
</g>
</g>
<!-- Node1&#45;&gt;Node18 -->
<g id="edge12" class="edge">
<title>Node1&#45;&gt;Node18</title>
<path fill="none" stroke="#63b8ff" d="M568.45,-466.17C584.04,-509.87 623.45,-618.14 662,-706.5 688.29,-766.75 724.42,-836.95 737.77,-862.53"/>
<polygon fill="#63b8ff" stroke="#63b8ff" points="571.51,-465.31 564.86,-457.06 564.91,-467.66 571.51,-465.31"/>
</g>
<!-- Node30 -->
<g id="node25" class="node">
<title>Node30</title>
<g id="a_node25"><a xlink:href="interfaceSCR__BaseVehicleInfo.html" target="_top" xlink:title="Base class for all vehicle UI state and damage indicators.">
<polygon fill="#fff0f0" stroke="red" points="800,-697 688,-697 688,-678 800,-678 800,-697"/>
<text text-anchor="middle" x="744" y="-685" font-family="Helvetica,sans-Serif" font-size="10.00">SCR_BaseVehicleInfo</text>
</a>
</g>
</g>
<!-- Node1&#45;&gt;Node30 -->
<g id="edge24" class="edge">
<title>Node1&#45;&gt;Node30</title>
<path fill="none" stroke="#63b8ff" d="M564.55,-467.24C572.24,-511.68 596.67,-616.34 662,-669.5 669.37,-675.5 678.33,-679.6 687.56,-682.39"/>
<polygon fill="#63b8ff" stroke="#63b8ff" points="567.85,-466.72 562.81,-457.4 560.94,-467.83 567.85,-466.72"/>
</g>
<!-- Node48 -->
<g id="node32" class="node">
<title>Node48</title>
<g id="a_node32"><a xlink:href="interfaceSCR__CampaignInfoDisplay.html" target="_top" xlink:title=" ">
<polygon fill="#fff0f0" stroke="red" points="810.5,-660 677.5,-660 677.5,-641 810.5,-641 810.5,-660"/>
<text text-anchor="middle" x="744" y="-648" font-family="Helvetica,sans-Serif" font-size="10.00">SCR_CampaignInfoDisplay</text>
</a>
</g>
</g>
<!-- Node1&#45;&gt;Node48 -->
<g id="edge31" class="edge">
<title>Node1&#45;&gt;Node48</title>
<path fill="none" stroke="#63b8ff" d="M566.49,-466.97C577.05,-505.74 605.47,-589.79 662,-632.5 666.6,-635.97 671.74,-638.8 677.13,-641.1"/>
<polygon fill="#63b8ff" stroke="#63b8ff" points="569.67,-466.29 563.77,-457.49 562.89,-468.05 569.67,-466.29"/>
</g>
<!-- Node50 -->
<g id="node33" class="node">
<title>Node50</title>
<g id="a_node33"><a xlink:href="interfaceSCR__ChatHud.html" target="_top" xlink:title="This is a Chat Info Display / Chat HUD.">
<polygon fill="white" stroke="#666666" points="784,-623 704,-623 704,-604 784,-604 784,-623"/>
<text text-anchor="middle" x="744" y="-611" font-family="Helvetica,sans-Serif" font-size="10.00">SCR_ChatHud</text>
</a>
</g>
</g>
<!-- Node1&#45;&gt;Node50 -->
<g id="edge32" class="edge">
<title>Node1&#45;&gt;Node50</title>
<path fill="none" stroke="#63b8ff" d="M569.16,-466.47C582.7,-498.93 614.02,-562.81 662,-595.5 674.14,-603.77 689.47,-608.31 703.51,-610.78"/>
<polygon fill="#63b8ff" stroke="#63b8ff" points="572.09,-465.37 565.12,-457.4 565.6,-467.98 572.09,-465.37"/>
</g>
<!-- Node51 -->
<g id="node34" class="node">
<title>Node51</title>
<g id="a_node34"><a xlink:href="interfaceSCR__GameVersion.html" target="_top" xlink:title=" ">
<polygon fill="white" stroke="#666666" points="794.5,-586 693.5,-586 693.5,-567 794.5,-567 794.5,-586"/>
<text text-anchor="middle" x="744" y="-574" font-family="Helvetica,sans-Serif" font-size="10.00">SCR_GameVersion</text>
</a>
</g>
</g>
<!-- Node1&#45;&gt;Node51 -->
<g id="edge33" class="edge">
<title>Node1&#45;&gt;Node51</title>
<path fill="none" stroke="#63b8ff" d="M573.02,-465.43C589.48,-490.77 622.18,-535.22 662,-558.5 671.45,-564.03 682.43,-567.86 693.2,-570.51"/>
<polygon fill="#63b8ff" stroke="#63b8ff" points="575.65,-464.03 567.35,-457.45 569.73,-467.77 575.65,-464.03"/>
</g>
<!-- Node52 -->
<g id="node35" class="node">
<title>Node52</title>
<g id="a_node35"><a xlink:href="interfaceSCR__HintInfoDisplay.html" target="_top" xlink:title="Handles SCR_HintUIComponent when using InfoDisplay and HudManager slotting.">
<polygon fill="white" stroke="#666666" points="797.5,-549 690.5,-549 690.5,-530 797.5,-530 797.5,-549"/>
<text text-anchor="middle" x="744" y="-537" font-family="Helvetica,sans-Serif" font-size="10.00">SCR_HintInfoDisplay</text>
</a>
</g>
</g>
<!-- Node1&#45;&gt;Node52 -->
<g id="edge34" class="edge">
<title>Node1&#45;&gt;Node52</title>
<path fill="none" stroke="#63b8ff" d="M579.74,-463.92C598.77,-481.13 630.22,-506.93 662,-521.5 670.77,-525.52 680.5,-528.67 690.09,-531.13"/>
<polygon fill="#63b8ff" stroke="#63b8ff" points="582.4,-461.69 572.68,-457.47 577.64,-466.83 582.4,-461.69"/>
</g>
<!-- Node53 -->
<g id="node36" class="node">
<title>Node53</title>
<g id="a_node36"><a xlink:href="interfaceSCR__InspectCasualtyWidget.html" target="_top" xlink:title=" ">
<polygon fill="white" stroke="#666666" points="815.5,-512 672.5,-512 672.5,-493 815.5,-493 815.5,-512"/>
<text text-anchor="middle" x="744" y="-500" font-family="Helvetica,sans-Serif" font-size="10.00">SCR_InspectCasualtyWidget</text>
</a>
</g>
</g>
<!-- Node1&#45;&gt;Node53 -->
<g id="edge35" class="edge">
<title>Node1&#45;&gt;Node53</title>
<path fill="none" stroke="#63b8ff" d="M596.09,-460.42C615.31,-467.86 639.76,-476.83 662,-483.5 672.93,-486.78 684.83,-489.85 696.05,-492.52"/>
<polygon fill="#63b8ff" stroke="#63b8ff" points="597.58,-456.86 587,-456.48 595.03,-463.38 597.58,-456.86"/>
</g>
<!-- Node54 -->
<g id="node37" class="node">
<title>Node54</title>
<g id="a_node37"><a xlink:href="interfaceSCR__NameTagDisplay.html" target="_top" xlink:title="Nametag UI Attached to SCR_HUDManagerComponent which is a component of SCR_PlayerController.">
<polygon fill="white" stroke="#666666" points="802,-475 686,-475 686,-456 802,-456 802,-475"/>
<text text-anchor="middle" x="744" y="-463" font-family="Helvetica,sans-Serif" font-size="10.00">SCR_NameTagDisplay</text>
</a>
</g>
</g>
<!-- Node1&#45;&gt;Node54 -->
<g id="edge36" class="edge">
<title>Node1&#45;&gt;Node54</title>
<path fill="none" stroke="#63b8ff" d="M636.83,-454.39C653.1,-456.09 670.05,-457.86 685.51,-459.48"/>
<polygon fill="#63b8ff" stroke="#63b8ff" points="637.57,-450.84 627.26,-453.28 636.84,-457.8 637.57,-450.84"/>
</g>
<!-- Node55 -->
<g id="node38" class="node">
<title>Node55</title>
<g id="a_node38"><a xlink:href="interfaceSCR__NearbyContextDisplay.html" target="_top" xlink:title=" ">
<polygon fill="white" stroke="#666666" points="813.5,-438 674.5,-438 674.5,-419 813.5,-419 813.5,-438"/>
<text text-anchor="middle" x="744" y="-426" font-family="Helvetica,sans-Serif" font-size="10.00">SCR_NearbyContextDisplay</text>
</a>
</g>
</g>
<!-- Node1&#45;&gt;Node55 -->
<g id="edge37" class="edge">
<title>Node1&#45;&gt;Node55</title>
<path fill="none" stroke="#63b8ff" d="M636.99,-439.01C649.35,-437.79 662.09,-436.52 674.27,-435.32"/>
<polygon fill="#63b8ff" stroke="#63b8ff" points="636.86,-435.61 627.26,-440.08 637.55,-442.57 636.86,-435.61"/>
</g>
<!-- Node56 -->
<g id="node39" class="node">
<title>Node56</title>
<g id="a_node39"><a xlink:href="interfaceSCR__NotificationsLogDisplay.html" target="_top" xlink:title=" ">
<polygon fill="white" stroke="#666666" points="815.5,-401 672.5,-401 672.5,-382 815.5,-382 815.5,-401"/>
<text text-anchor="middle" x="744" y="-389" font-family="Helvetica,sans-Serif" font-size="10.00">SCR_NotificationsLogDisplay</text>
</a>
</g>
</g>
<!-- Node1&#45;&gt;Node56 -->
<g id="edge38" class="edge">
<title>Node1&#45;&gt;Node56</title>
<path fill="none" stroke="#63b8ff" d="M595.67,-432.62C614.94,-425.13 639.57,-416.09 662,-409.5 671.95,-406.58 682.71,-403.87 693.04,-401.5"/>
<polygon fill="#63b8ff" stroke="#63b8ff" points="594.59,-429.68 586.56,-436.6 597.15,-436.2 594.59,-429.68"/>
</g>
<!-- Node57 -->
<g id="node40" class="node">
<title>Node57</title>
<g id="a_node40"><a xlink:href="interfaceSCR__PlacedCommandInfoDisplay.html" target="_top" xlink:title=" ">
<polygon fill="white" stroke="#666666" points="826,-364 662,-364 662,-345 826,-345 826,-364"/>
<text text-anchor="middle" x="744" y="-352" font-family="Helvetica,sans-Serif" font-size="10.00">SCR_PlacedCommandInfoDisplay</text>
</a>
</g>
</g>
<!-- Node1&#45;&gt;Node57 -->
<g id="edge39" class="edge">
<title>Node1&#45;&gt;Node57</title>
<path fill="none" stroke="#63b8ff" d="M579.78,-429.32C598.85,-412.35 630.33,-386.9 662,-372.5 669.08,-369.28 676.78,-366.62 684.52,-364.42"/>
<polygon fill="#63b8ff" stroke="#63b8ff" points="577.75,-426.35 572.7,-435.67 582.46,-431.53 577.75,-426.35"/>
</g>
<!-- Node58 -->
<g id="node41" class="node">
<title>Node58</title>
<g id="a_node41"><a xlink:href="interfaceSCR__PreviewRichText.html" target="_top" xlink:title=" ">
<polygon fill="white" stroke="#666666" points="800.5,-327 687.5,-327 687.5,-308 800.5,-308 800.5,-327"/>
<text text-anchor="middle" x="744" y="-315" font-family="Helvetica,sans-Serif" font-size="10.00">SCR_PreviewRichText</text>
</a>
</g>
</g>
<!-- Node1&#45;&gt;Node58 -->
<g id="edge40" class="edge">
<title>Node1&#45;&gt;Node58</title>
<path fill="none" stroke="#63b8ff" d="M573.28,-427.4C589.86,-402.23 622.5,-358.48 662,-335.5 669.72,-331.01 678.45,-327.64 687.25,-325.11"/>
<polygon fill="#63b8ff" stroke="#63b8ff" points="569.81,-425.33 567.37,-435.64 575.71,-429.11 569.81,-425.33"/>
</g>
<!-- Node59 -->
<g id="node42" class="node">
<title>Node59</title>
<g id="a_node42"><a xlink:href="interfaceSCR__ScenarioFrameworkTriggerCountdownDisplay.html" target="_top" xlink:title=" ">
<polygon fill="white" stroke="#666666" points="823,-289.5 665,-289.5 665,-259.5 823,-259.5 823,-289.5"/>
<text text-anchor="start" x="673" y="-277.5" font-family="Helvetica,sans-Serif" font-size="10.00">SCR_ScenarioFrameworkTrigger</text>
<text text-anchor="middle" x="744" y="-266.5" font-family="Helvetica,sans-Serif" font-size="10.00">CountdownDisplay</text>
</a>
</g>
</g>
<!-- Node1&#45;&gt;Node59 -->
<g id="edge41" class="edge">
<title>Node1&#45;&gt;Node59</title>
<path fill="none" stroke="#63b8ff" d="M569.46,-427.03C583.42,-395.31 615.34,-332.6 662,-298.5 666.5,-295.21 671.45,-292.37 676.61,-289.92"/>
<polygon fill="#63b8ff" stroke="#63b8ff" points="565.97,-425.29 565.27,-435.86 572.41,-428.03 565.97,-425.29"/>
</g>
<!-- Node60 -->
<g id="node43" class="node">
<title>Node60</title>
<g id="a_node43"><a xlink:href="interfaceSCR__ScreenEffectsManager.html" target="_top" xlink:title=" ">
<polygon fill="white" stroke="#666666" points="814,-241 674,-241 674,-222 814,-222 814,-241"/>
<text text-anchor="middle" x="744" y="-229" font-family="Helvetica,sans-Serif" font-size="10.00">SCR_ScreenEffectsManager</text>
</a>
</g>
</g>
<!-- Node1&#45;&gt;Node60 -->
<g id="edge42" class="edge">
<title>Node1&#45;&gt;Node60</title>
<path fill="none" stroke="#63b8ff" d="M565.85,-426.41C575.62,-386.36 603.18,-296.5 662,-250.5 666.66,-246.85 671.91,-243.88 677.44,-241.47"/>
<polygon fill="#63b8ff" stroke="#63b8ff" points="562.26,-425.39 563.42,-435.93 569.09,-426.97 562.26,-425.39"/>
</g>
<!-- Node61 -->
<g id="node44" class="node">
<title>Node61</title>
<g id="a_node44"><a xlink:href="interfaceSCR__SelectionMenuDisplay.html" target="_top" xlink:title="Radial menu class for handling HUD part of menu.">
<polygon fill="#fff0f0" stroke="red" points="813.5,-204 674.5,-204 674.5,-185 813.5,-185 813.5,-204"/>
<text text-anchor="middle" x="744" y="-192" font-family="Helvetica,sans-Serif" font-size="10.00">SCR_SelectionMenuDisplay</text>
</a>
</g>
</g>
<!-- Node1&#45;&gt;Node61 -->
<g id="edge43" class="edge">
<title>Node1&#45;&gt;Node61</title>
<path fill="none" stroke="#63b8ff" d="M564.04,-425.99C570.84,-380.13 593.87,-268.95 662,-212.5 665.88,-209.28 670.22,-206.61 674.81,-204.39"/>
<polygon fill="#63b8ff" stroke="#63b8ff" points="560.47,-425.25 562.58,-435.63 567.4,-426.19 560.47,-425.25"/>
</g>
<!-- Node65 -->
<g id="node45" class="node">
<title>Node65</title>
<g id="a_node45"><a xlink:href="interfaceSCR__StatsPanelBase.html" target="_top" xlink:title=" ">
<polygon fill="#fff0f0" stroke="red" points="800.5,-167 687.5,-167 687.5,-148 800.5,-148 800.5,-167"/>
<text text-anchor="middle" x="744" y="-155" font-family="Helvetica,sans-Serif" font-size="10.00">SCR_StatsPanelBase</text>
</a>
</g>
</g>
<!-- Node1&#45;&gt;Node65 -->
<g id="edge44" class="edge">
<title>Node1&#45;&gt;Node65</title>
<path fill="none" stroke="#63b8ff" d="M562.72,-425.6C566.89,-374.54 584.96,-242.68 662,-175.5 669.17,-169.25 678.02,-165.03 687.22,-162.2"/>
<polygon fill="#63b8ff" stroke="#63b8ff" points="559.17,-425.28 561.95,-435.51 566.15,-425.78 559.17,-425.28"/>
</g>
<!-- Node69 -->
<g id="node46" class="node">
<title>Node69</title>
<g id="a_node46"><a xlink:href="interfaceSCR__VoiceoverSubtitles.html" target="_top" xlink:title=" ">
<polygon fill="white" stroke="#666666" points="805,-130 683,-130 683,-111 805,-111 805,-130"/>
<text text-anchor="middle" x="744" y="-118" font-family="Helvetica,sans-Serif" font-size="10.00">SCR_VoiceoverSubtitles</text>
</a>
</g>
</g>
<!-- Node1&#45;&gt;Node69 -->
<g id="edge45" class="edge">
<title>Node1&#45;&gt;Node69</title>
<path fill="none" stroke="#63b8ff" d="M561.65,-425.83C563.25,-370.31 575.65,-216.87 662,-138.5 667.97,-133.08 675.21,-129.17 682.87,-126.37"/>
<polygon fill="#63b8ff" stroke="#63b8ff" points="558.14,-425.6 561.45,-435.67 565.14,-425.74 558.14,-425.6"/>
</g>
<!-- Node70 -->
<g id="node47" class="node">
<title>Node70</title>
<g id="a_node47"><a xlink:href="interfaceSCR__VonDisplay.html" target="_top" xlink:title="VON display of active outgoing and incoming transmissions.">
<polygon fill="white" stroke="#666666" points="790,-93 698,-93 698,-74 790,-74 790,-93"/>
<text text-anchor="middle" x="744" y="-81" font-family="Helvetica,sans-Serif" font-size="10.00">SCR_VonDisplay</text>
</a>
</g>
</g>
<!-- Node1&#45;&gt;Node70 -->
<g id="edge46" class="edge">
<title>Node1&#45;&gt;Node70</title>
<path fill="none" stroke="#63b8ff" d="M560.81,-425.81C560.02,-365.95 566.38,-191.11 662,-101.5 671.67,-92.44 684.85,-87.56 697.77,-85.04"/>
<polygon fill="#63b8ff" stroke="#63b8ff" points="557.33,-425.85 561.06,-435.77 564.33,-425.69 557.33,-425.85"/>
</g>
<!-- Node71 -->
<g id="node48" class="node">
<title>Node71</title>
<g id="a_node48"><a xlink:href="interfaceSCR__WeaponInfo.html" target="_top" xlink:title=" ">
<polygon fill="#fff0f0" stroke="red" points="790.5,-56 697.5,-56 697.5,-37 790.5,-37 790.5,-56"/>
<text text-anchor="middle" x="744" y="-44" font-family="Helvetica,sans-Serif" font-size="10.00">SCR_WeaponInfo</text>
</a>
</g>
</g>
<!-- Node1&#45;&gt;Node71 -->
<g id="edge47" class="edge">
<title>Node1&#45;&gt;Node71</title>
<path fill="none" stroke="#63b8ff" d="M564.06,-426.15C573.47,-354.58 608.39,-116.08 662,-64.5 671.45,-55.41 684.41,-50.51 697.2,-47.97"/>
<polygon fill="#63b8ff" stroke="#63b8ff" points="560.49,-425.46 562.68,-435.82 567.43,-426.35 560.49,-425.46"/>
</g>
<!-- Node73 -->
<g id="node49" class="node">
<title>Node73</title>
<g id="a_node49"><a xlink:href="interfaceSCR__XPInfoDisplay.html" target="_top" xlink:title=" ">
<polygon fill="white" stroke="#666666" points="794.5,-19 693.5,-19 693.5,0 794.5,0 794.5,-19"/>
<text text-anchor="middle" x="744" y="-7" font-family="Helvetica,sans-Serif" font-size="10.00">SCR_XPInfoDisplay</text>
</a>
</g>
</g>
<!-- Node1&#45;&gt;Node73 -->
<g id="edge48" class="edge">
<title>Node1&#45;&gt;Node73</title>
<path fill="none" stroke="#63b8ff" d="M563.55,-426.16C571.63,-350.24 603.65,-84.88 662,-27.5 670.42,-19.22 681.76,-14.39 693.28,-11.66"/>
<polygon fill="#63b8ff" stroke="#63b8ff" points="560.02,-425.35 562.46,-435.66 566.98,-426.07 560.02,-425.35"/>
</g>
<!-- Node2 -->
<g id="node2" class="node">
<title>Node2</title>
<g id="a_node2"><a xlink:href="interfaceSCR__InfoDisplay.html" target="_top" xlink:title=" ">
<polygon fill="white" stroke="#666666" points="459,-456 370,-456 370,-437 459,-437 459,-456"/>
<text text-anchor="middle" x="414.5" y="-444" font-family="Helvetica,sans-Serif" font-size="10.00">SCR_InfoDisplay</text>
</a>
</g>
</g>
<!-- Node2&#45;&gt;Node1 -->
<g id="edge1" class="edge">
<title>Node2&#45;&gt;Node1</title>
<path fill="none" stroke="#63b8ff" d="M470.42,-446.5C478.32,-446.5 486.51,-446.5 494.58,-446.5"/>
<polygon fill="#63b8ff" stroke="#63b8ff" points="470.49,-443 460.49,-446.5 470.49,-450 470.49,-443"/>
</g>
<!-- Node3 -->
<g id="node3" class="node">
<title>Node3</title>
<g id="a_node3"><a xlink:href="interfaceGroupInfoDisplay.html" target="_top" xlink:title=" ">
<polygon fill="white" stroke="#666666" points="334,-456 244,-456 244,-437 334,-437 334,-456"/>
<text text-anchor="middle" x="289" y="-444" font-family="Helvetica,sans-Serif" font-size="10.00">GroupInfoDisplay</text>
</a>
</g>
</g>
<!-- Node3&#45;&gt;Node2 -->
<g id="edge2" class="edge">
<title>Node3&#45;&gt;Node2</title>
<path fill="none" stroke="#63b8ff" d="M345.21,-446.5C353.37,-446.5 361.68,-446.5 369.57,-446.5"/>
<polygon fill="#63b8ff" stroke="#63b8ff" points="345.24,-443 335.24,-446.5 345.24,-450 345.24,-443"/>
</g>
<!-- Node4 -->
<g id="node4" class="node">
<title>Node4</title>
<g id="a_node4"><a xlink:href="interfaceBaseInfoDisplay.html" target="_top" xlink:title=" ">
<polygon fill="white" stroke="#666666" points="208,-456 122,-456 122,-437 208,-437 208,-456"/>
<text text-anchor="middle" x="165" y="-444" font-family="Helvetica,sans-Serif" font-size="10.00">BaseInfoDisplay</text>
</a>
</g>
</g>
<!-- Node4&#45;&gt;Node3 -->
<g id="edge3" class="edge">
<title>Node4&#45;&gt;Node3</title>
<path fill="none" stroke="#63b8ff" d="M219.27,-446.5C227.41,-446.5 235.75,-446.5 243.67,-446.5"/>
<polygon fill="#63b8ff" stroke="#63b8ff" points="219.33,-443 209.33,-446.5 219.33,-450 219.33,-443"/>
</g>
<!-- Node5 -->
<g id="node5" class="node">
<title>Node5</title>
<g id="a_node5"><a xlink:title=" ">
<polygon fill="white" stroke="#666666" points="86,-456 0,-456 0,-437 86,-437 86,-456"/>
<text text-anchor="middle" x="43" y="-444" font-family="Helvetica,sans-Serif" font-size="10.00">ScriptAndConfig</text>
</a>
</g>
</g>
<!-- Node5&#45;&gt;Node4 -->
<g id="edge4" class="edge">
<title>Node5&#45;&gt;Node4</title>
<path fill="none" stroke="#63b8ff" d="M97.28,-446.5C105.45,-446.5 113.78,-446.5 121.67,-446.5"/>
<polygon fill="#63b8ff" stroke="#63b8ff" points="97.31,-443 87.31,-446.5 97.31,-450 97.31,-443"/>
</g>
<!-- Node9 -->
<g id="node9" class="node">
<title>Node9</title>
<g id="a_node9"><a xlink:href="interfaceSCR__AnalogGauge.html" target="_top" xlink:title=" ">
<polygon fill="#fff0f0" stroke="red" points="990,-1227 889,-1227 889,-1208 990,-1208 990,-1227"/>
<text text-anchor="middle" x="939.5" y="-1215" font-family="Helvetica,sans-Serif" font-size="10.00">SCR_AnalogGauge</text>
</a>
</g>
</g>
<!-- Node8&#45;&gt;Node9 -->
<g id="edge8" class="edge">
<title>Node8&#45;&gt;Node9</title>
<path fill="none" stroke="#63b8ff" d="M815.29,-956.88C819.23,-959.25 822.86,-962.1 826,-965.5 897.46,-1042.74 790.57,-1122.24 862,-1199.5 869.04,-1207.11 878.64,-1211.79 888.66,-1214.61"/>
<polygon fill="#63b8ff" stroke="#63b8ff" points="817.13,-953.39 806.61,-952.14 814.05,-959.68 817.13,-953.39"/>
</g>
<!-- Node15 -->
<g id="node10" class="node">
<title>Node15</title>
<g id="a_node10"><a xlink:href="interfaceSCR__AnalogGaugeNonLinear.html" target="_top" xlink:title=" ">
<polygon fill="white" stroke="#666666" points="1011.5,-1190 867.5,-1190 867.5,-1171 1011.5,-1171 1011.5,-1190"/>
<text text-anchor="middle" x="939.5" y="-1178" font-family="Helvetica,sans-Serif" font-size="10.00">SCR_AnalogGaugeNonLinear</text>
</a>
</g>
</g>
<!-- Node8&#45;&gt;Node15 -->
<g id="edge9" class="edge">
<title>Node8&#45;&gt;Node15</title>
<path fill="none" stroke="#63b8ff" d="M815.71,-957.3C819.47,-959.59 822.95,-962.3 826,-965.5 887.08,-1029.64 801.34,-1096.97 862,-1161.5 865.47,-1165.19 869.53,-1168.21 873.95,-1170.68"/>
<polygon fill="#63b8ff" stroke="#63b8ff" points="817.37,-953.73 806.85,-952.45 814.28,-960.01 817.37,-953.73"/>
</g>
<!-- Node17 -->
<g id="node12" class="node">
<title>Node17</title>
<g id="a_node12"><a xlink:href="interfaceSCR__ActionMenuInteractionDisplay.html" target="_top" xlink:title=" ">
<polygon fill="white" stroke="#666666" points="1009,-1152.5 870,-1152.5 870,-1122.5 1009,-1122.5 1009,-1152.5"/>
<text text-anchor="start" x="878" y="-1140.5" font-family="Helvetica,sans-Serif" font-size="10.00">SCR_ActionMenuInteraction</text>
<text text-anchor="middle" x="939.5" y="-1129.5" font-family="Helvetica,sans-Serif" font-size="10.00">Display</text>
</a>
</g>
</g>
<!-- Node16&#45;&gt;Node17 -->
<g id="edge11" class="edge">
<title>Node16&#45;&gt;Node17</title>
<path fill="none" stroke="#63b8ff" d="M822.92,-925.58C823.98,-926.5 825.01,-927.48 826,-928.5 884.09,-988.85 806.17,-1051.05 862,-1113.5 864.97,-1116.82 868.39,-1119.69 872.11,-1122.16"/>
<polygon fill="#63b8ff" stroke="#63b8ff" points="825.24,-922.23 815.03,-919.39 821.24,-927.98 825.24,-922.23"/>
</g>
<!-- Node19 -->
<g id="node14" class="node">
<title>Node19</title>
<g id="a_node14"><a xlink:href="interfaceSCR__BleedingScreenEffect.html" target="_top" xlink:title=" ">
<polygon fill="white" stroke="#666666" points="1007,-1104 872,-1104 872,-1085 1007,-1085 1007,-1104"/>
<text text-anchor="middle" x="939.5" y="-1092" font-family="Helvetica,sans-Serif" font-size="10.00">SCR_BleedingScreenEffect</text>
</a>
</g>
</g>
<!-- Node18&#45;&gt;Node19 -->
<g id="edge13" class="edge">
<title>Node18&#45;&gt;Node19</title>
<path fill="none" stroke="#63b8ff" d="M814.15,-882.45C818.51,-884.91 822.53,-887.89 826,-891.5 884.09,-951.85 803.93,-1016.13 862,-1076.5 865.03,-1079.65 868.49,-1082.29 872.24,-1084.5"/>
<polygon fill="#63b8ff" stroke="#63b8ff" points="815.72,-878.86 805.17,-877.88 812.8,-885.23 815.72,-878.86"/>
</g>
<!-- Node20 -->
<g id="node15" class="node">
<title>Node20</title>
<g id="a_node15"><a xlink:href="interfaceSCR__DamageBlurEffect.html" target="_top" xlink:title=" ">
<polygon fill="white" stroke="#666666" points="999.5,-1067 879.5,-1067 879.5,-1048 999.5,-1048 999.5,-1067"/>
<text text-anchor="middle" x="939.5" y="-1055" font-family="Helvetica,sans-Serif" font-size="10.00">SCR_DamageBlurEffect</text>
</a>
</g>
</g>
<!-- Node18&#45;&gt;Node20 -->
<g id="edge14" class="edge">
<title>Node18&#45;&gt;Node20</title>
<path fill="none" stroke="#63b8ff" d="M814.19,-882.76C818.5,-885.15 822.5,-888.03 826,-891.5 874.06,-939.17 813.95,-991.81 862,-1039.5 866.84,-1044.31 872.71,-1047.92 879.02,-1050.63"/>
<polygon fill="#63b8ff" stroke="#63b8ff" points="815.88,-879.23 805.33,-878.28 812.98,-885.6 815.88,-879.23"/>
</g>
<!-- Node21 -->
<g id="node16" class="node">
<title>Node21</title>
<g id="a_node16"><a xlink:href="interfaceSCR__DeathScreenEffect.html" target="_top" xlink:title=" ">
<polygon fill="white" stroke="#666666" points="1001,-1030 878,-1030 878,-1011 1001,-1011 1001,-1030"/>
<text text-anchor="middle" x="939.5" y="-1018" font-family="Helvetica,sans-Serif" font-size="10.00">SCR_DeathScreenEffect</text>
</a>
</g>
</g>
<!-- Node18&#45;&gt;Node21 -->
<g id="edge15" class="edge">
<title>Node18&#45;&gt;Node21</title>
<path fill="none" stroke="#63b8ff" d="M814.12,-883.18C818.42,-885.47 822.44,-888.22 826,-891.5 864.17,-926.62 823.85,-967.37 862,-1002.5 866.62,-1006.75 872.05,-1010.06 877.84,-1012.62"/>
<polygon fill="#63b8ff" stroke="#63b8ff" points="815.91,-879.7 805.35,-878.84 813.06,-886.09 815.91,-879.7"/>
</g>
<!-- Node22 -->
<g id="node17" class="node">
<title>Node22</title>
<g id="a_node17"><a xlink:href="interfaceSCR__DepthOfFieldEffect.html" target="_top" xlink:title=" ">
<polygon fill="white" stroke="#666666" points="1001,-993 878,-993 878,-974 1001,-974 1001,-993"/>
<text text-anchor="middle" x="939.5" y="-981" font-family="Helvetica,sans-Serif" font-size="10.00">SCR_DepthOfFieldEffect</text>
</a>
</g>
</g>
<!-- Node18&#45;&gt;Node22 -->
<g id="edge16" class="edge">
<title>Node18&#45;&gt;Node22</title>
<path fill="none" stroke="#63b8ff" d="M814.42,-884.15C818.54,-886.23 822.45,-888.66 826,-891.5 854.57,-914.33 833.44,-942.66 862,-965.5 866.69,-969.25 872.03,-972.24 877.65,-974.63"/>
<polygon fill="#63b8ff" stroke="#63b8ff" points="816.07,-880.63 805.5,-879.92 813.32,-887.07 816.07,-880.63"/>
</g>
<!-- Node23 -->
<g id="node18" class="node">
<title>Node23</title>
<g id="a_node18"><a xlink:href="interfaceSCR__DesaturationEffect.html" target="_top" xlink:title=" ">
<polygon fill="white" stroke="#666666" points="1000.5,-956 878.5,-956 878.5,-937 1000.5,-937 1000.5,-956"/>
<text text-anchor="middle" x="939.5" y="-944" font-family="Helvetica,sans-Serif" font-size="10.00">SCR_DesaturationEffect</text>
</a>
</g>
</g>
<!-- Node18&#45;&gt;Node23 -->
<g id="edge17" class="edge">
<title>Node18&#45;&gt;Node23</title>
<path fill="none" stroke="#63b8ff" d="M814.52,-885.96C818.5,-887.6 822.36,-889.44 826,-891.5 845.97,-902.8 842.03,-917.2 862,-928.5 867.7,-931.73 873.95,-934.38 880.35,-936.55"/>
<polygon fill="#63b8ff" stroke="#63b8ff" points="816.05,-882.43 805.45,-882.28 813.65,-889 816.05,-882.43"/>
</g>
<!-- Node24 -->
<g id="node19" class="node">
<title>Node24</title>
<g id="a_node19"><a xlink:href="interfaceSCR__DrowningScreenEffect.html" target="_top" xlink:title=" ">
<polygon fill="white" stroke="#666666" points="1008,-919 871,-919 871,-900 1008,-900 1008,-919"/>
<text text-anchor="middle" x="939.5" y="-907" font-family="Helvetica,sans-Serif" font-size="10.00">SCR_DrowningScreenEffect</text>
</a>
</g>
</g>
<!-- Node18&#45;&gt;Node24 -->
<g id="edge18" class="edge">
<title>Node18&#45;&gt;Node24</title>
<path fill="none" stroke="#63b8ff" d="M807.74,-884.5C833.13,-889.35 862.09,-894.89 886.3,-899.52"/>
<polygon fill="#63b8ff" stroke="#63b8ff" points="808.59,-880.9 798.11,-882.46 807.27,-887.78 808.59,-880.9"/>
</g>
<!-- Node25 -->
<g id="node20" class="node">
<title>Node25</title>
<g id="a_node20"><a xlink:href="interfaceSCR__FadeInOutEffect.html" target="_top" xlink:title=" ">
<polygon fill="white" stroke="#666666" points="995.5,-882 883.5,-882 883.5,-863 995.5,-863 995.5,-882"/>
<text text-anchor="middle" x="939.5" y="-870" font-family="Helvetica,sans-Serif" font-size="10.00">SCR_FadeInOutEffect</text>
</a>
</g>
</g>
<!-- Node18&#45;&gt;Node25 -->
<g id="edge19" class="edge">
<title>Node18&#45;&gt;Node25</title>
<path fill="none" stroke="#63b8ff" d="M815.18,-872.5C837.57,-872.5 862.02,-872.5 883.2,-872.5"/>
<polygon fill="#63b8ff" stroke="#63b8ff" points="815.37,-869 805.37,-872.5 815.37,-876 815.37,-869"/>
</g>
<!-- Node26 -->
<g id="node21" class="node">
<title>Node26</title>
<g id="a_node21"><a xlink:href="interfaceSCR__NoiseFilterEffect.html" target="_top" xlink:title=" ">
<polygon fill="white" stroke="#666666" points="996,-845 883,-845 883,-826 996,-826 996,-845"/>
<text text-anchor="middle" x="939.5" y="-833" font-family="Helvetica,sans-Serif" font-size="10.00">SCR_NoiseFilterEffect</text>
</a>
</g>
</g>
<!-- Node18&#45;&gt;Node26 -->
<g id="edge20" class="edge">
<title>Node18&#45;&gt;Node26</title>
<path fill="none" stroke="#63b8ff" d="M807.74,-860.5C833.13,-855.65 862.09,-850.11 886.3,-845.48"/>
<polygon fill="#63b8ff" stroke="#63b8ff" points="807.27,-857.22 798.11,-862.54 808.59,-864.1 807.27,-857.22"/>
</g>
<!-- Node27 -->
<g id="node22" class="node">
<title>Node27</title>
<g id="a_node22"><a xlink:href="interfaceSCR__RegenerationScreenEffect.html" target="_top" xlink:title=" ">
<polygon fill="white" stroke="#666666" points="1017,-808 862,-808 862,-789 1017,-789 1017,-808"/>
<text text-anchor="middle" x="939.5" y="-796" font-family="Helvetica,sans-Serif" font-size="10.00">SCR_RegenerationScreenEffect</text>
</a>
</g>
</g>
<!-- Node18&#45;&gt;Node27 -->
<g id="edge21" class="edge">
<title>Node18&#45;&gt;Node27</title>
<path fill="none" stroke="#63b8ff" d="M772.74,-857.57C796.04,-845.48 830.5,-828.69 862,-817.5 871.67,-814.06 882.24,-811.01 892.35,-808.41"/>
<polygon fill="#63b8ff" stroke="#63b8ff" points="771.4,-854.84 764.17,-862.59 774.65,-861.04 771.4,-854.84"/>
</g>
<!-- Node28 -->
<g id="node23" class="node">
<title>Node28</title>
<g id="a_node23"><a xlink:href="interfaceSCR__StaminaBlurEffect.html" target="_top" xlink:title=" ">
<polygon fill="white" stroke="#666666" points="999.5,-771 879.5,-771 879.5,-752 999.5,-752 999.5,-771"/>
<text text-anchor="middle" x="939.5" y="-759" font-family="Helvetica,sans-Serif" font-size="10.00">SCR_StaminaBlurEffect</text>
</a>
</g>
</g>
<!-- Node18&#45;&gt;Node28 -->
<g id="edge22" class="edge">
<title>Node18&#45;&gt;Node28</title>
<path fill="none" stroke="#63b8ff" d="M762.24,-855C783.72,-834.19 822.45,-799.84 862,-780.5 869.5,-776.83 877.77,-773.83 886.01,-771.39"/>
<polygon fill="#63b8ff" stroke="#63b8ff" points="760.29,-851.99 755.63,-861.51 765.21,-856.98 760.29,-851.99"/>
</g>
<!-- Node29 -->
<g id="node24" class="node">
<title>Node29</title>
<g id="a_node24"><a xlink:href="interfaceSCR__UnconsciousScreenEffect.html" target="_top" xlink:title=" ">
<polygon fill="white" stroke="#666666" points="1016.5,-734 862.5,-734 862.5,-715 1016.5,-715 1016.5,-734"/>
<text text-anchor="middle" x="939.5" y="-722" font-family="Helvetica,sans-Serif" font-size="10.00">SCR_UnconsciousScreenEffect</text>
</a>
</g>
</g>
<!-- Node18&#45;&gt;Node29 -->
<g id="edge23" class="edge">
<title>Node18&#45;&gt;Node29</title>
<path fill="none" stroke="#63b8ff" d="M756.69,-853.7C775.35,-825.31 814.64,-771.81 862,-743.5 868.23,-739.78 875.15,-736.78 882.22,-734.37"/>
<polygon fill="#63b8ff" stroke="#63b8ff" points="753.42,-851.31 750.97,-861.61 759.31,-855.09 753.42,-851.31"/>
</g>
<!-- Node31 -->
<g id="node26" class="node">
<title>Node31</title>
<g id="a_node26"><a xlink:href="interfaceSCR__FuelTankInfo.html" target="_top" xlink:title=" ">
<polygon fill="white" stroke="#666666" points="988,-697 891,-697 891,-678 988,-678 988,-697"/>
<text text-anchor="middle" x="939.5" y="-685" font-family="Helvetica,sans-Serif" font-size="10.00">SCR_FuelTankInfo</text>
</a>
</g>
</g>
<!-- Node30&#45;&gt;Node31 -->
<g id="edge25" class="edge">
<title>Node30&#45;&gt;Node31</title>
<path fill="none" stroke="#63b8ff" d="M811.38,-687.5C837.41,-687.5 866.7,-687.5 890.6,-687.5"/>
<polygon fill="#63b8ff" stroke="#63b8ff" points="811.45,-684 801.45,-687.5 811.45,-691 811.45,-684"/>
</g>
<!-- Node32 -->
<g id="node27" class="node">
<title>Node32</title>
<g id="a_node27"><a xlink:href="interfaceSCR__GearShiftInfo.html" target="_top" xlink:title=" ">
<polygon fill="white" stroke="#666666" points="988.5,-660 890.5,-660 890.5,-641 988.5,-641 988.5,-660"/>
<text text-anchor="middle" x="939.5" y="-648" font-family="Helvetica,sans-Serif" font-size="10.00">SCR_GearShiftInfo</text>
</a>
</g>
</g>
<!-- Node30&#45;&gt;Node32 -->
<g id="edge26" class="edge">
<title>Node30&#45;&gt;Node32</title>
<path fill="none" stroke="#63b8ff" d="M807.56,-675.54C834.4,-670.41 865.26,-664.5 890.28,-659.72"/>
<polygon fill="#63b8ff" stroke="#63b8ff" points="807.27,-672.22 798.11,-677.54 808.59,-679.1 807.27,-672.22"/>
</g>
<!-- Node33 -->
<g id="node28" class="node">
<title>Node33</title>
<g id="a_node28"><a xlink:href="interfaceSCR__HandBrakeInfo.html" target="_top" xlink:title=" ">
<polygon fill="white" stroke="#666666" points="992,-623 887,-623 887,-604 992,-604 992,-623"/>
<text text-anchor="middle" x="939.5" y="-611" font-family="Helvetica,sans-Serif" font-size="10.00">SCR_HandBrakeInfo</text>
</a>
</g>
</g>
<!-- Node30&#45;&gt;Node33 -->
<g id="edge27" class="edge">
<title>Node30&#45;&gt;Node33</title>
<path fill="none" stroke="#63b8ff" d="M810.61,-676.43C815.97,-674.49 821.17,-672.19 826,-669.5 846.04,-658.32 842.1,-643.93 862,-632.5 869.6,-628.14 878.17,-624.77 886.77,-622.17"/>
<polygon fill="#63b8ff" stroke="#63b8ff" points="809.64,-673.39 801.18,-679.77 811.77,-680.06 809.64,-673.39"/>
</g>
<!-- Node34 -->
<g id="node29" class="node">
<title>Node34</title>
<g id="a_node29"><a xlink:href="interfaceSCR__HitZoneInfo.html" target="_top" xlink:title=" ">
<polygon fill="#fff0f0" stroke="red" points="984.5,-586 894.5,-586 894.5,-567 984.5,-567 984.5,-586"/>
<text text-anchor="middle" x="939.5" y="-574" font-family="Helvetica,sans-Serif" font-size="10.00">SCR_HitZoneInfo</text>
</a>
</g>
</g>
<!-- Node30&#45;&gt;Node34 -->
<g id="edge28" class="edge">
<title>Node30&#45;&gt;Node34</title>
<path fill="none" stroke="#63b8ff" d="M810.52,-678.53C816.07,-676.15 821.34,-673.18 826,-669.5 854.71,-646.84 833.58,-618.52 862,-595.5 871.15,-588.09 882.78,-583.52 894.2,-580.71"/>
<polygon fill="#63b8ff" stroke="#63b8ff" points="809.52,-675.53 801.29,-682.21 811.89,-682.11 809.52,-675.53"/>
</g>
<!-- Node43 -->
<g id="node30" class="node">
<title>Node43</title>
<g id="a_node30"><a xlink:href="interfaceSCR__LightManagerInfo.html" target="_top" xlink:title=" ">
<polygon fill="white" stroke="#666666" points="997.5,-549 881.5,-549 881.5,-530 997.5,-530 997.5,-549"/>
<text text-anchor="middle" x="939.5" y="-537" font-family="Helvetica,sans-Serif" font-size="10.00">SCR_LightManagerInfo</text>
</a>
</g>
</g>
<!-- Node30&#45;&gt;Node43 -->
<g id="edge29" class="edge">
<title>Node30&#45;&gt;Node43</title>
<path fill="none" stroke="#63b8ff" d="M810.17,-679.61C815.95,-677.03 821.36,-673.72 826,-669.5 864.37,-634.61 824.06,-593.86 862,-558.5 867.51,-553.37 874.18,-549.56 881.26,-546.75"/>
<polygon fill="#63b8ff" stroke="#63b8ff" points="809.34,-676.55 801.16,-683.3 811.76,-683.12 809.34,-676.55"/>
</g>
<!-- Node44 -->
<g id="node31" class="node">
<title>Node44</title>
<g id="a_node31"><a xlink:href="interfaceSCR__LightManagerInfoMulti.html" target="_top" xlink:title=" ">
<polygon fill="#fff0f0" stroke="red" points="1008,-512 871,-512 871,-493 1008,-493 1008,-512"/>
<text text-anchor="middle" x="939.5" y="-500" font-family="Helvetica,sans-Serif" font-size="10.00">SCR_LightManagerInfoMulti</text>
</a>
</g>
</g>
<!-- Node30&#45;&gt;Node44 -->
<g id="edge30" class="edge">
<title>Node30&#45;&gt;Node44</title>
<path fill="none" stroke="#63b8ff" d="M810.25,-680.08C816.06,-677.41 821.45,-673.96 826,-669.5 874.34,-622.11 814.25,-569.48 862,-521.5 865.67,-517.81 869.93,-514.8 874.54,-512.35"/>
<polygon fill="#63b8ff" stroke="#63b8ff" points="809.29,-677.07 801.16,-683.86 811.75,-683.63 809.29,-677.07"/>
</g>
</g>
</svg>
