<?xml version="1.0" encoding="UTF-8" standalone="no"?>
<!DOCTYPE svg PUBLIC "-//W3C//DTD SVG 1.1//EN"
 "http://www.w3.org/Graphics/SVG/1.1/DTD/svg11.dtd">
<!-- Generated by graphviz version 8.0.2 (20230410.1723)
 -->
<!-- Title: SCR_TreeHitZoneV2 Pages: 1 -->
<svg width="114pt" height="192pt"
 viewBox="0.00 0.00 114.00 192.00" xmlns="http://www.w3.org/2000/svg" xmlns:xlink="http://www.w3.org/1999/xlink">
<g id="graph0" class="graph" transform="scale(1 1) rotate(0) translate(4 188)">
<title>SCR_TreeHitZoneV2</title>
<!-- Node1 -->
<g id="node1" class="node">
<title>Node1</title>
<g id="a_node1"><a xlink:title=" ">
<polygon fill="#999999" stroke="#666666" points="106,-19 0,-19 0,0 106,0 106,-19"/>
<text text-anchor="middle" x="53" y="-7" font-family="Helvetica,sans-Serif" font-size="10.00">SCR_TreeHitZoneV2</text>
</a>
</g>
</g>
<!-- Node2 -->
<g id="node2" class="node">
<title>Node2</title>
<g id="a_node2"><a xlink:href="interfaceSCR__HitZone.html" target="_top" xlink:title=" ">
<polygon fill="white" stroke="#666666" points="90.5,-74 15.5,-74 15.5,-55 90.5,-55 90.5,-74"/>
<text text-anchor="middle" x="53" y="-62" font-family="Helvetica,sans-Serif" font-size="10.00">SCR_HitZone</text>
</a>
</g>
</g>
<!-- Node2&#45;&gt;Node1 -->
<g id="edge1" class="edge">
<title>Node2&#45;&gt;Node1</title>
<path fill="none" stroke="#63b8ff" d="M53,-43.93C53,-35.53 53,-26.13 53,-19.44"/>
<polygon fill="#63b8ff" stroke="#63b8ff" points="49.5,-43.75 53,-53.75 56.5,-43.75 49.5,-43.75"/>
</g>
<!-- Node3 -->
<g id="node3" class="node">
<title>Node3</title>
<g id="a_node3"><a xlink:href="interfaceHitZone.html" target="_top" xlink:title=" ">
<polygon fill="white" stroke="#666666" points="78,-129 28,-129 28,-110 78,-110 78,-129"/>
<text text-anchor="middle" x="53" y="-117" font-family="Helvetica,sans-Serif" font-size="10.00">HitZone</text>
</a>
</g>
</g>
<!-- Node3&#45;&gt;Node2 -->
<g id="edge2" class="edge">
<title>Node3&#45;&gt;Node2</title>
<path fill="none" stroke="#63b8ff" d="M53,-98.93C53,-90.53 53,-81.13 53,-74.44"/>
<polygon fill="#63b8ff" stroke="#63b8ff" points="49.5,-98.75 53,-108.75 56.5,-98.75 49.5,-98.75"/>
</g>
<!-- Node4 -->
<g id="node4" class="node">
<title>Node4</title>
<g id="a_node4"><a xlink:title=" ">
<polygon fill="white" stroke="#666666" points="96,-184 10,-184 10,-165 96,-165 96,-184"/>
<text text-anchor="middle" x="53" y="-172" font-family="Helvetica,sans-Serif" font-size="10.00">ScriptAndConfig</text>
</a>
</g>
</g>
<!-- Node4&#45;&gt;Node3 -->
<g id="edge3" class="edge">
<title>Node4&#45;&gt;Node3</title>
<path fill="none" stroke="#63b8ff" d="M53,-153.93C53,-145.53 53,-136.13 53,-129.44"/>
<polygon fill="#63b8ff" stroke="#63b8ff" points="49.5,-153.75 53,-163.75 56.5,-153.75 49.5,-153.75"/>
</g>
</g>
</svg>
