<?xml version="1.0" encoding="UTF-8" standalone="no"?>
<!DOCTYPE svg PUBLIC "-//W3C//DTD SVG 1.1//EN"
 "http://www.w3.org/Graphics/SVG/1.1/DTD/svg11.dtd">
<!-- Generated by graphviz version 8.0.2 (20230410.1723)
 -->
<!-- Title: SCR_SpawnRequestComponentClass Pages: 1 -->
<svg width="548pt" height="134pt"
 viewBox="0.00 0.00 548.00 134.00" xmlns="http://www.w3.org/2000/svg" xmlns:xlink="http://www.w3.org/1999/xlink">
<g id="graph0" class="graph" transform="scale(1 1) rotate(0) translate(4 130)">
<title>SCR_SpawnRequestComponentClass</title>
<!-- Node1 -->
<g id="node1" class="node">
<title>Node1</title>
<g id="a_node1"><a xlink:title=" ">
<polygon fill="#999999" stroke="#666666" points="309,-78 152,-78 152,-48 309,-48 309,-78"/>
<text text-anchor="start" x="160" y="-66" font-family="Helvetica,sans-Serif" font-size="10.00">SCR_SpawnRequestComponent</text>
<text text-anchor="middle" x="230.5" y="-55" font-family="Helvetica,sans-Serif" font-size="10.00">Class</text>
</a>
</g>
</g>
<!-- Node3 -->
<g id="node3" class="node">
<title>Node3</title>
<g id="a_node3"><a xlink:href="interfaceSCR__FreeSpawnRequestComponentClass.html" target="_top" xlink:title=" ">
<polygon fill="white" stroke="#666666" points="530.5,-126 354.5,-126 354.5,-96 530.5,-96 530.5,-126"/>
<text text-anchor="start" x="362.5" y="-114" font-family="Helvetica,sans-Serif" font-size="10.00">SCR_FreeSpawnRequestComponent</text>
<text text-anchor="middle" x="442.5" y="-103" font-family="Helvetica,sans-Serif" font-size="10.00">Class</text>
</a>
</g>
</g>
<!-- Node1&#45;&gt;Node3 -->
<g id="edge2" class="edge">
<title>Node1&#45;&gt;Node3</title>
<path fill="none" stroke="#63b8ff" d="M309.67,-80.87C330.82,-85.7 353.52,-90.89 374.03,-95.58"/>
<polygon fill="#63b8ff" stroke="#63b8ff" points="310.63,-77.27 300.1,-78.45 309.07,-84.09 310.63,-77.27"/>
</g>
<!-- Node4 -->
<g id="node4" class="node">
<title>Node4</title>
<g id="a_node4"><a xlink:href="interfaceSCR__PossessSpawnRequestComponentClass.html" target="_top" xlink:title=" ">
<polygon fill="white" stroke="#666666" points="540,-78 345,-78 345,-48 540,-48 540,-78"/>
<text text-anchor="start" x="353" y="-66" font-family="Helvetica,sans-Serif" font-size="10.00">SCR_PossessSpawnRequestComponent</text>
<text text-anchor="middle" x="442.5" y="-55" font-family="Helvetica,sans-Serif" font-size="10.00">Class</text>
</a>
</g>
</g>
<!-- Node1&#45;&gt;Node4 -->
<g id="edge3" class="edge">
<title>Node1&#45;&gt;Node4</title>
<path fill="none" stroke="#63b8ff" d="M320.24,-63C328.26,-63 336.41,-63 344.5,-63"/>
<polygon fill="#63b8ff" stroke="#63b8ff" points="320.4,-59.5 310.4,-63 320.4,-66.5 320.4,-59.5"/>
</g>
<!-- Node5 -->
<g id="node5" class="node">
<title>Node5</title>
<g id="a_node5"><a xlink:href="interfaceSCR__SpawnPointRespawnRequestComponentClass.html" target="_top" xlink:title=" ">
<polygon fill="white" stroke="#666666" points="527.5,-30 357.5,-30 357.5,0 527.5,0 527.5,-30"/>
<text text-anchor="start" x="365.5" y="-18" font-family="Helvetica,sans-Serif" font-size="10.00">SCR_SpawnPointRespawnRequest</text>
<text text-anchor="middle" x="442.5" y="-7" font-family="Helvetica,sans-Serif" font-size="10.00">ComponentClass</text>
</a>
</g>
</g>
<!-- Node1&#45;&gt;Node5 -->
<g id="edge4" class="edge">
<title>Node1&#45;&gt;Node5</title>
<path fill="none" stroke="#63b8ff" d="M309.67,-45.13C330.82,-40.3 353.52,-35.11 374.03,-30.42"/>
<polygon fill="#63b8ff" stroke="#63b8ff" points="309.07,-41.91 300.1,-47.55 310.63,-48.73 309.07,-41.91"/>
</g>
<!-- Node2 -->
<g id="node2" class="node">
<title>Node2</title>
<g id="a_node2"><a xlink:title=" ">
<polygon fill="white" stroke="#666666" points="116,-72.5 0,-72.5 0,-53.5 116,-53.5 116,-72.5"/>
<text text-anchor="middle" x="58" y="-60.5" font-family="Helvetica,sans-Serif" font-size="10.00">ScriptComponentClass</text>
</a>
</g>
</g>
<!-- Node2&#45;&gt;Node1 -->
<g id="edge1" class="edge">
<title>Node2&#45;&gt;Node1</title>
<path fill="none" stroke="#63b8ff" d="M127.14,-63C135.25,-63 143.57,-63 151.8,-63"/>
<polygon fill="#63b8ff" stroke="#63b8ff" points="127.25,-59.5 117.25,-63 127.25,-66.5 127.25,-59.5"/>
</g>
</g>
</svg>
