<?xml version="1.0" encoding="UTF-8" standalone="no"?>
<!DOCTYPE svg PUBLIC "-//W3C//DTD SVG 1.1//EN"
 "http://www.w3.org/Graphics/SVG/1.1/DTD/svg11.dtd">
<!-- Generated by graphviz version 8.0.2 (20230410.1723)
 -->
<!-- Title: SCR_BasePlayerBudgetEnableEditorAttribute Pages: 1 -->
<svg width="524pt" height="182pt"
 viewBox="0.00 0.00 524.00 182.00" xmlns="http://www.w3.org/2000/svg" xmlns:xlink="http://www.w3.org/1999/xlink">
<g id="graph0" class="graph" transform="scale(1 1) rotate(0) translate(4 178)">
<title>SCR_BasePlayerBudgetEnableEditorAttribute</title>
<!-- Node1 -->
<g id="node1" class="node">
<title>Node1</title>
<g id="a_node1"><a xlink:title=" ">
<polygon fill="#999999" stroke="#666666" points="316,-102 163,-102 163,-72 316,-72 316,-102"/>
<text text-anchor="start" x="171" y="-90" font-family="Helvetica,sans-Serif" font-size="10.00">SCR_BasePlayerBudgetEnable</text>
<text text-anchor="middle" x="239.5" y="-79" font-family="Helvetica,sans-Serif" font-size="10.00">EditorAttribute</text>
</a>
</g>
</g>
<!-- Node3 -->
<g id="node3" class="node">
<title>Node3</title>
<g id="a_node3"><a xlink:href="interfaceSCR__PlayerBudgetAIEnableEditorAttribute.html" target="_top" xlink:title=" ">
<polygon fill="white" stroke="#666666" points="504,-174 364,-174 364,-144 504,-144 504,-174"/>
<text text-anchor="start" x="372" y="-162" font-family="Helvetica,sans-Serif" font-size="10.00">SCR_PlayerBudgetAIEnable</text>
<text text-anchor="middle" x="434" y="-151" font-family="Helvetica,sans-Serif" font-size="10.00">EditorAttribute</text>
</a>
</g>
</g>
<!-- Node1&#45;&gt;Node3 -->
<g id="edge2" class="edge">
<title>Node1&#45;&gt;Node3</title>
<path fill="none" stroke="#63b8ff" d="M283.26,-106.82C303.82,-115.98 328.94,-126.65 352,-135 360.27,-138 369.12,-140.9 377.81,-143.6"/>
<polygon fill="#63b8ff" stroke="#63b8ff" points="284.82,-103.23 274.26,-102.32 281.95,-109.62 284.82,-103.23"/>
</g>
<!-- Node4 -->
<g id="node4" class="node">
<title>Node4</title>
<g id="a_node4"><a xlink:href="interfaceSCR__PlayerBudgetPropEnableEditorAttribute.html" target="_top" xlink:title=" ">
<polygon fill="white" stroke="#666666" points="509.5,-126 358.5,-126 358.5,-96 509.5,-96 509.5,-126"/>
<text text-anchor="start" x="366.5" y="-114" font-family="Helvetica,sans-Serif" font-size="10.00">SCR_PlayerBudgetPropEnable</text>
<text text-anchor="middle" x="434" y="-103" font-family="Helvetica,sans-Serif" font-size="10.00">EditorAttribute</text>
</a>
</g>
</g>
<!-- Node1&#45;&gt;Node4 -->
<g id="edge3" class="edge">
<title>Node1&#45;&gt;Node4</title>
<path fill="none" stroke="#63b8ff" d="M327.06,-97.79C337.46,-99.09 348,-100.4 358.21,-101.68"/>
<polygon fill="#63b8ff" stroke="#63b8ff" points="327.66,-94.22 317.3,-96.45 326.79,-101.16 327.66,-94.22"/>
</g>
<!-- Node5 -->
<g id="node5" class="node">
<title>Node5</title>
<g id="a_node5"><a xlink:href="interfaceSCR__PlayerBudgetSystemEnableEditorAttribute.html" target="_top" xlink:title=" ">
<polygon fill="white" stroke="#666666" points="516,-78 352,-78 352,-48 516,-48 516,-78"/>
<text text-anchor="start" x="360" y="-66" font-family="Helvetica,sans-Serif" font-size="10.00">SCR_PlayerBudgetSystemEnable</text>
<text text-anchor="middle" x="434" y="-55" font-family="Helvetica,sans-Serif" font-size="10.00">EditorAttribute</text>
</a>
</g>
</g>
<!-- Node1&#45;&gt;Node5 -->
<g id="edge4" class="edge">
<title>Node1&#45;&gt;Node5</title>
<path fill="none" stroke="#63b8ff" d="M326.98,-76.22C335.15,-75.2 343.43,-74.17 351.55,-73.15"/>
<polygon fill="#63b8ff" stroke="#63b8ff" points="326.79,-72.84 317.3,-77.55 327.66,-79.78 326.79,-72.84"/>
</g>
<!-- Node6 -->
<g id="node6" class="node">
<title>Node6</title>
<g id="a_node6"><a xlink:href="interfaceSCR__PlayerBudgetVehicleEnableEditorAttribute.html" target="_top" xlink:title=" ">
<polygon fill="white" stroke="#666666" points="515.5,-30 352.5,-30 352.5,0 515.5,0 515.5,-30"/>
<text text-anchor="start" x="360.5" y="-18" font-family="Helvetica,sans-Serif" font-size="10.00">SCR_PlayerBudgetVehicleEnable</text>
<text text-anchor="middle" x="434" y="-7" font-family="Helvetica,sans-Serif" font-size="10.00">EditorAttribute</text>
</a>
</g>
</g>
<!-- Node1&#45;&gt;Node6 -->
<g id="edge5" class="edge">
<title>Node1&#45;&gt;Node6</title>
<path fill="none" stroke="#63b8ff" d="M283.26,-67.18C303.82,-58.02 328.94,-47.35 352,-39 360.27,-36 369.12,-33.1 377.81,-30.4"/>
<polygon fill="#63b8ff" stroke="#63b8ff" points="281.95,-64.38 274.26,-71.68 284.82,-70.77 281.95,-64.38"/>
</g>
<!-- Node2 -->
<g id="node2" class="node">
<title>Node2</title>
<g id="a_node2"><a xlink:href="interfaceSCR__BaseEditorAttribute.html" target="_top" xlink:title="Base Attribute Script for other attributes to inherent from to get and set varriables in Editor Attri...">
<polygon fill="white" stroke="#666666" points="127,-96.5 0,-96.5 0,-77.5 127,-77.5 127,-96.5"/>
<text text-anchor="middle" x="63.5" y="-84.5" font-family="Helvetica,sans-Serif" font-size="10.00">SCR_BaseEditorAttribute</text>
</a>
</g>
</g>
<!-- Node2&#45;&gt;Node1 -->
<g id="edge1" class="edge">
<title>Node2&#45;&gt;Node1</title>
<path fill="none" stroke="#63b8ff" d="M138.24,-87C146.34,-87 154.59,-87 162.72,-87"/>
<polygon fill="#63b8ff" stroke="#63b8ff" points="138.32,-83.5 128.32,-87 138.32,-90.5 138.32,-83.5"/>
</g>
</g>
</svg>
