<?xml version="1.0" encoding="UTF-8" standalone="no"?>
<!DOCTYPE svg PUBLIC "-//W3C//DTD SVG 1.1//EN"
 "http://www.w3.org/Graphics/SVG/1.1/DTD/svg11.dtd">
<!-- Generated by graphviz version 8.0.2 (20230410.1723)
 -->
<!-- Title: CharacterControllerComponentClass Pages: 1 -->
<svg width="183pt" height="401pt"
 viewBox="0.00 0.00 183.00 401.00" xmlns="http://www.w3.org/2000/svg" xmlns:xlink="http://www.w3.org/1999/xlink">
<g id="graph0" class="graph" transform="scale(1 1) rotate(0) translate(4 397)">
<title>CharacterControllerComponentClass</title>
<!-- Node1 -->
<g id="node1" class="node">
<title>Node1</title>
<g id="a_node1"><a xlink:title=" ">
<polygon fill="#999999" stroke="#666666" points="162,-162 13,-162 13,-132 162,-132 162,-162"/>
<text text-anchor="start" x="21" y="-150" font-family="Helvetica,sans-Serif" font-size="10.00">CharacterControllerComponent</text>
<text text-anchor="middle" x="87.5" y="-139" font-family="Helvetica,sans-Serif" font-size="10.00">Class</text>
</a>
</g>
</g>
<!-- Node6 -->
<g id="node6" class="node">
<title>Node6</title>
<g id="a_node6"><a xlink:href="interfaceSCR__CharacterControllerComponentClass.html" target="_top" xlink:title=" ">
<polygon fill="white" stroke="#666666" points="175,-96 0,-96 0,-66 175,-66 175,-96"/>
<text text-anchor="start" x="8" y="-84" font-family="Helvetica,sans-Serif" font-size="10.00">SCR_CharacterControllerComponent</text>
<text text-anchor="middle" x="87.5" y="-73" font-family="Helvetica,sans-Serif" font-size="10.00">Class</text>
</a>
</g>
</g>
<!-- Node1&#45;&gt;Node6 -->
<g id="edge5" class="edge">
<title>Node1&#45;&gt;Node6</title>
<path fill="none" stroke="#63b8ff" d="M87.5,-120.97C87.5,-112.55 87.5,-103.45 87.5,-96.16"/>
<polygon fill="#63b8ff" stroke="#63b8ff" points="84,-120.8 87.5,-130.8 91,-120.8 84,-120.8"/>
</g>
<!-- Node2 -->
<g id="node2" class="node">
<title>Node2</title>
<g id="a_node2"><a xlink:href="interfacePrimaryControllerComponentClass.html" target="_top" xlink:title=" ">
<polygon fill="white" stroke="#666666" points="158,-228 17,-228 17,-198 158,-198 158,-228"/>
<text text-anchor="start" x="25" y="-216" font-family="Helvetica,sans-Serif" font-size="10.00">PrimaryControllerComponent</text>
<text text-anchor="middle" x="87.5" y="-205" font-family="Helvetica,sans-Serif" font-size="10.00">Class</text>
</a>
</g>
</g>
<!-- Node2&#45;&gt;Node1 -->
<g id="edge1" class="edge">
<title>Node2&#45;&gt;Node1</title>
<path fill="none" stroke="#63b8ff" d="M87.5,-186.97C87.5,-178.55 87.5,-169.45 87.5,-162.16"/>
<polygon fill="#63b8ff" stroke="#63b8ff" points="84,-186.8 87.5,-196.8 91,-186.8 84,-186.8"/>
</g>
<!-- Node3 -->
<g id="node3" class="node">
<title>Node3</title>
<g id="a_node3"><a xlink:href="interfaceBaseControllerComponentClass.html" target="_top" xlink:title=" ">
<polygon fill="white" stroke="#666666" points="165,-283 10,-283 10,-264 165,-264 165,-283"/>
<text text-anchor="middle" x="87.5" y="-271" font-family="Helvetica,sans-Serif" font-size="10.00">BaseControllerComponentClass</text>
</a>
</g>
</g>
<!-- Node3&#45;&gt;Node2 -->
<g id="edge2" class="edge">
<title>Node3&#45;&gt;Node2</title>
<path fill="none" stroke="#63b8ff" d="M87.5,-253.08C87.5,-244.92 87.5,-235.6 87.5,-228.11"/>
<polygon fill="#63b8ff" stroke="#63b8ff" points="84,-252.87 87.5,-262.87 91,-252.87 84,-252.87"/>
</g>
<!-- Node4 -->
<g id="node4" class="node">
<title>Node4</title>
<g id="a_node4"><a xlink:href="interfaceGameComponentClass.html" target="_top" xlink:title=" ">
<polygon fill="white" stroke="#666666" points="146,-338 29,-338 29,-319 146,-319 146,-338"/>
<text text-anchor="middle" x="87.5" y="-326" font-family="Helvetica,sans-Serif" font-size="10.00">GameComponentClass</text>
</a>
</g>
</g>
<!-- Node4&#45;&gt;Node3 -->
<g id="edge3" class="edge">
<title>Node4&#45;&gt;Node3</title>
<path fill="none" stroke="#63b8ff" d="M87.5,-307.93C87.5,-299.53 87.5,-290.13 87.5,-283.44"/>
<polygon fill="#63b8ff" stroke="#63b8ff" points="84,-307.75 87.5,-317.75 91,-307.75 84,-307.75"/>
</g>
<!-- Node5 -->
<g id="node5" class="node">
<title>Node5</title>
<g id="a_node5"><a xlink:title=" ">
<polygon fill="white" stroke="#666666" points="150,-393 25,-393 25,-374 150,-374 150,-393"/>
<text text-anchor="middle" x="87.5" y="-381" font-family="Helvetica,sans-Serif" font-size="10.00">GenericComponentClass</text>
</a>
</g>
</g>
<!-- Node5&#45;&gt;Node4 -->
<g id="edge4" class="edge">
<title>Node5&#45;&gt;Node4</title>
<path fill="none" stroke="#63b8ff" d="M87.5,-362.93C87.5,-354.53 87.5,-345.13 87.5,-338.44"/>
<polygon fill="#63b8ff" stroke="#63b8ff" points="84,-362.75 87.5,-372.75 91,-362.75 84,-362.75"/>
</g>
<!-- Node7 -->
<g id="node7" class="node">
<title>Node7</title>
<g id="a_node7"><a xlink:href="interfaceSCR__CharacterControllerComponent__TestClass.html" target="_top" xlink:title=" ">
<polygon fill="white" stroke="#666666" points="175,-30 0,-30 0,0 175,0 175,-30"/>
<text text-anchor="start" x="8" y="-18" font-family="Helvetica,sans-Serif" font-size="10.00">SCR_CharacterControllerComponent</text>
<text text-anchor="middle" x="87.5" y="-7" font-family="Helvetica,sans-Serif" font-size="10.00">_TestClass</text>
</a>
</g>
</g>
<!-- Node6&#45;&gt;Node7 -->
<g id="edge6" class="edge">
<title>Node6&#45;&gt;Node7</title>
<path fill="none" stroke="#63b8ff" d="M87.5,-54.97C87.5,-46.55 87.5,-37.45 87.5,-30.16"/>
<polygon fill="#63b8ff" stroke="#63b8ff" points="84,-54.8 87.5,-64.8 91,-54.8 84,-54.8"/>
</g>
</g>
</svg>
