<?xml version="1.0" encoding="UTF-8" standalone="no"?>
<!DOCTYPE svg PUBLIC "-//W3C//DTD SVG 1.1//EN"
 "http://www.w3.org/Graphics/SVG/1.1/DTD/svg11.dtd">
<!-- Generated by graphviz version 8.0.2 (20230410.1723)
 -->
<!-- Title: SCR_JointBaseEntity Pages: 1 -->
<svg width="399pt" height="175pt"
 viewBox="0.00 0.00 399.00 175.00" xmlns="http://www.w3.org/2000/svg" xmlns:xlink="http://www.w3.org/1999/xlink">
<g id="graph0" class="graph" transform="scale(1 1) rotate(0) translate(4 171)">
<title>SCR_JointBaseEntity</title>
<!-- Node1 -->
<g id="node1" class="node">
<title>Node1</title>
<g id="a_node1"><a xlink:title="SCR_JointBaseEntity Class.">
<polygon fill="#999999" stroke="#666666" points="222,-93 112,-93 112,-74 222,-74 222,-93"/>
<text text-anchor="middle" x="167" y="-81" font-family="Helvetica,sans-Serif" font-size="10.00">SCR_JointBaseEntity</text>
</a>
</g>
</g>
<!-- Node3 -->
<g id="node3" class="node">
<title>Node3</title>
<g id="a_node3"><a xlink:href="interfaceSCR__Joint6DOFEntity.html" target="_top" xlink:title="SCR_Joint6DOFEntity Class.">
<polygon fill="white" stroke="#666666" points="381,-167 268,-167 268,-148 381,-148 381,-167"/>
<text text-anchor="middle" x="324.5" y="-155" font-family="Helvetica,sans-Serif" font-size="10.00">SCR_Joint6DOFEntity</text>
</a>
</g>
</g>
<!-- Node1&#45;&gt;Node3 -->
<g id="edge2" class="edge">
<title>Node1&#45;&gt;Node3</title>
<path fill="none" stroke="#63b8ff" d="M189.95,-99.68C207.58,-112.04 233.39,-128.73 258,-139.5 265.02,-142.57 272.7,-145.24 280.25,-147.52"/>
<polygon fill="#63b8ff" stroke="#63b8ff" points="192.22,-96.28 182.05,-93.32 188.15,-101.98 192.22,-96.28"/>
</g>
<!-- Node4 -->
<g id="node4" class="node">
<title>Node4</title>
<g id="a_node4"><a xlink:href="interfaceSCR__JointConeTwistEntity.html" target="_top" xlink:title="SCR_JointConeTwistEntity Class.">
<polygon fill="white" stroke="#666666" points="391,-130 258,-130 258,-111 391,-111 391,-130"/>
<text text-anchor="middle" x="324.5" y="-118" font-family="Helvetica,sans-Serif" font-size="10.00">SCR_JointConeTwistEntity</text>
</a>
</g>
</g>
<!-- Node1&#45;&gt;Node4 -->
<g id="edge3" class="edge">
<title>Node1&#45;&gt;Node4</title>
<path fill="none" stroke="#63b8ff" d="M220.19,-95.92C240.21,-100.68 262.79,-106.05 281.71,-110.56"/>
<polygon fill="#63b8ff" stroke="#63b8ff" points="221.21,-92.33 210.67,-93.42 219.59,-99.14 221.21,-92.33"/>
</g>
<!-- Node5 -->
<g id="node5" class="node">
<title>Node5</title>
<g id="a_node5"><a xlink:href="interfaceSCR__JointFixedEntity.html" target="_top" xlink:title="SCR_JointFixedEntity Class.">
<polygon fill="white" stroke="#666666" points="380.5,-93 268.5,-93 268.5,-74 380.5,-74 380.5,-93"/>
<text text-anchor="middle" x="324.5" y="-81" font-family="Helvetica,sans-Serif" font-size="10.00">SCR_JointFixedEntity</text>
</a>
</g>
</g>
<!-- Node1&#45;&gt;Node5 -->
<g id="edge4" class="edge">
<title>Node1&#45;&gt;Node5</title>
<path fill="none" stroke="#63b8ff" d="M233.32,-83.5C244.89,-83.5 256.83,-83.5 268.09,-83.5"/>
<polygon fill="#63b8ff" stroke="#63b8ff" points="233.39,-80 223.39,-83.5 233.39,-87 233.39,-80"/>
</g>
<!-- Node6 -->
<g id="node6" class="node">
<title>Node6</title>
<g id="a_node6"><a xlink:href="interfaceSCR__JointHingeEntity.html" target="_top" xlink:title="SCR_JointHingeEntity Class.">
<polygon fill="white" stroke="#666666" points="381,-56 268,-56 268,-37 381,-37 381,-56"/>
<text text-anchor="middle" x="324.5" y="-44" font-family="Helvetica,sans-Serif" font-size="10.00">SCR_JointHingeEntity</text>
</a>
</g>
</g>
<!-- Node1&#45;&gt;Node6 -->
<g id="edge5" class="edge">
<title>Node1&#45;&gt;Node6</title>
<path fill="none" stroke="#63b8ff" d="M220.19,-71.08C240.21,-66.32 262.79,-60.95 281.71,-56.44"/>
<polygon fill="#63b8ff" stroke="#63b8ff" points="219.59,-67.86 210.67,-73.58 221.21,-74.67 219.59,-67.86"/>
</g>
<!-- Node7 -->
<g id="node7" class="node">
<title>Node7</title>
<g id="a_node7"><a xlink:href="interfaceSCR__JointSliderEntity.html" target="_top" xlink:title="SCR_JointSliderEntity Class.">
<polygon fill="white" stroke="#666666" points="381,-19 268,-19 268,0 381,0 381,-19"/>
<text text-anchor="middle" x="324.5" y="-7" font-family="Helvetica,sans-Serif" font-size="10.00">SCR_JointSliderEntity</text>
</a>
</g>
</g>
<!-- Node1&#45;&gt;Node7 -->
<g id="edge6" class="edge">
<title>Node1&#45;&gt;Node7</title>
<path fill="none" stroke="#63b8ff" d="M189.95,-67.32C207.58,-54.96 233.39,-38.27 258,-27.5 265.02,-24.43 272.7,-21.76 280.25,-19.48"/>
<polygon fill="#63b8ff" stroke="#63b8ff" points="188.15,-65.02 182.05,-73.68 192.22,-70.72 188.15,-65.02"/>
</g>
<!-- Node2 -->
<g id="node2" class="node">
<title>Node2</title>
<g id="a_node2"><a xlink:title=" ">
<polygon fill="white" stroke="#666666" points="76,-93 0,-93 0,-74 76,-74 76,-93"/>
<text text-anchor="middle" x="38" y="-81" font-family="Helvetica,sans-Serif" font-size="10.00">GenericEntity</text>
</a>
</g>
</g>
<!-- Node2&#45;&gt;Node1 -->
<g id="edge1" class="edge">
<title>Node2&#45;&gt;Node1</title>
<path fill="none" stroke="#63b8ff" d="M87.17,-83.5C95.25,-83.5 103.69,-83.5 111.91,-83.5"/>
<polygon fill="#63b8ff" stroke="#63b8ff" points="87.42,-80 77.42,-83.5 87.42,-87 87.42,-80"/>
</g>
</g>
</svg>
