<?xml version="1.0" encoding="UTF-8" standalone="no"?>
<!DOCTYPE svg PUBLIC "-//W3C//DTD SVG 1.1//EN"
 "http://www.w3.org/Graphics/SVG/1.1/DTD/svg11.dtd">
<!-- Generated by graphviz version 8.0.2 (20230410.1723)
 -->
<!-- Title: SCR_PlayersPresentTriggerEntityClass Pages: 1 -->
<svg width="153pt" height="269pt"
 viewBox="0.00 0.00 153.00 269.00" xmlns="http://www.w3.org/2000/svg" xmlns:xlink="http://www.w3.org/1999/xlink">
<g id="graph0" class="graph" transform="scale(1 1) rotate(0) translate(4 265)">
<title>SCR_PlayersPresentTriggerEntityClass</title>
<!-- Node1 -->
<g id="node1" class="node">
<title>Node1</title>
<g id="a_node1"><a xlink:title=" ">
<polygon fill="#999999" stroke="#666666" points="141.5,-30 3.5,-30 3.5,0 141.5,0 141.5,-30"/>
<text text-anchor="start" x="11.5" y="-18" font-family="Helvetica,sans-Serif" font-size="10.00">SCR_PlayersPresentTrigger</text>
<text text-anchor="middle" x="72.5" y="-7" font-family="Helvetica,sans-Serif" font-size="10.00">EntityClass</text>
</a>
</g>
</g>
<!-- Node2 -->
<g id="node2" class="node">
<title>Node2</title>
<g id="a_node2"><a xlink:href="interfaceSCR__BaseTriggerEntityClass.html" target="_top" xlink:title=" ">
<polygon fill="white" stroke="#666666" points="144.5,-85 0.5,-85 0.5,-66 144.5,-66 144.5,-85"/>
<text text-anchor="middle" x="72.5" y="-73" font-family="Helvetica,sans-Serif" font-size="10.00">SCR_BaseTriggerEntityClass</text>
</a>
</g>
</g>
<!-- Node2&#45;&gt;Node1 -->
<g id="edge1" class="edge">
<title>Node2&#45;&gt;Node1</title>
<path fill="none" stroke="#63b8ff" d="M72.5,-55.08C72.5,-46.92 72.5,-37.6 72.5,-30.11"/>
<polygon fill="#63b8ff" stroke="#63b8ff" points="69,-54.87 72.5,-64.87 76,-54.87 69,-54.87"/>
</g>
<!-- Node3 -->
<g id="node3" class="node">
<title>Node3</title>
<g id="a_node3"><a xlink:href="interfaceScriptedGameTriggerEntityClass.html" target="_top" xlink:title=" ">
<polygon fill="white" stroke="#666666" points="139.5,-151 5.5,-151 5.5,-121 139.5,-121 139.5,-151"/>
<text text-anchor="start" x="13.5" y="-139" font-family="Helvetica,sans-Serif" font-size="10.00">ScriptedGameTriggerEntity</text>
<text text-anchor="middle" x="72.5" y="-128" font-family="Helvetica,sans-Serif" font-size="10.00">Class</text>
</a>
</g>
</g>
<!-- Node3&#45;&gt;Node2 -->
<g id="edge2" class="edge">
<title>Node3&#45;&gt;Node2</title>
<path fill="none" stroke="#63b8ff" d="M72.5,-109.59C72.5,-100.85 72.5,-91.65 72.5,-85.18"/>
<polygon fill="#63b8ff" stroke="#63b8ff" points="69,-109.54 72.5,-119.54 76,-109.54 69,-109.54"/>
</g>
<!-- Node4 -->
<g id="node4" class="node">
<title>Node4</title>
<g id="a_node4"><a xlink:href="interfaceBaseGameTriggerEntityClass.html" target="_top" xlink:title=" ">
<polygon fill="white" stroke="#666666" points="145,-206 0,-206 0,-187 145,-187 145,-206"/>
<text text-anchor="middle" x="72.5" y="-194" font-family="Helvetica,sans-Serif" font-size="10.00">BaseGameTriggerEntityClass</text>
</a>
</g>
</g>
<!-- Node4&#45;&gt;Node3 -->
<g id="edge3" class="edge">
<title>Node4&#45;&gt;Node3</title>
<path fill="none" stroke="#63b8ff" d="M72.5,-176.08C72.5,-167.92 72.5,-158.6 72.5,-151.11"/>
<polygon fill="#63b8ff" stroke="#63b8ff" points="69,-175.87 72.5,-185.87 76,-175.87 69,-175.87"/>
</g>
<!-- Node5 -->
<g id="node5" class="node">
<title>Node5</title>
<g id="a_node5"><a xlink:title=" ">
<polygon fill="white" stroke="#666666" points="123,-261 22,-261 22,-242 123,-242 123,-261"/>
<text text-anchor="middle" x="72.5" y="-249" font-family="Helvetica,sans-Serif" font-size="10.00">GenericEntityClass</text>
</a>
</g>
</g>
<!-- Node5&#45;&gt;Node4 -->
<g id="edge4" class="edge">
<title>Node5&#45;&gt;Node4</title>
<path fill="none" stroke="#63b8ff" d="M72.5,-230.93C72.5,-222.53 72.5,-213.13 72.5,-206.44"/>
<polygon fill="#63b8ff" stroke="#63b8ff" points="69,-230.75 72.5,-240.75 76,-230.75 69,-230.75"/>
</g>
</g>
</svg>
