<?xml version="1.0" encoding="UTF-8" standalone="no"?>
<!DOCTYPE svg PUBLIC "-//W3C//DTD SVG 1.1//EN"
 "http://www.w3.org/Graphics/SVG/1.1/DTD/svg11.dtd">
<!-- Generated by graphviz version 8.0.2 (20230410.1723)
 -->
<!-- Title: SCR_EditableDescriptorComponent Pages: 1 -->
<svg width="907pt" height="101pt"
 viewBox="0.00 0.00 907.00 101.00" xmlns="http://www.w3.org/2000/svg" xmlns:xlink="http://www.w3.org/1999/xlink">
<g id="graph0" class="graph" transform="scale(1 1) rotate(0) translate(4 97)">
<title>SCR_EditableDescriptorComponent</title>
<!-- Node1 -->
<g id="node1" class="node">
<title>Node1</title>
<g id="a_node1"><a xlink:title=" ">
<polygon fill="#999999" stroke="#666666" points="684,-56 513,-56 513,-37 684,-37 684,-56"/>
<text text-anchor="middle" x="598.5" y="-44" font-family="Helvetica,sans-Serif" font-size="10.00">SCR_EditableDescriptorComponent</text>
</a>
</g>
</g>
<!-- Node5 -->
<g id="node5" class="node">
<title>Node5</title>
<g id="a_node5"><a xlink:href="interfaceSCR__EditableSpawnPointComponent.html" target="_top" xlink:title=" ">
<polygon fill="white" stroke="#666666" points="899,-93 720,-93 720,-74 899,-74 899,-93"/>
<text text-anchor="middle" x="809.5" y="-81" font-family="Helvetica,sans-Serif" font-size="10.00">SCR_EditableSpawnPointComponent</text>
</a>
</g>
</g>
<!-- Node1&#45;&gt;Node5 -->
<g id="edge4" class="edge">
<title>Node1&#45;&gt;Node5</title>
<path fill="none" stroke="#63b8ff" d="M666.54,-58.37C694.13,-63.25 725.74,-68.85 752.12,-73.52"/>
<polygon fill="#63b8ff" stroke="#63b8ff" points="667.24,-54.76 656.78,-56.46 666.02,-61.65 667.24,-54.76"/>
</g>
<!-- Node6 -->
<g id="node6" class="node">
<title>Node6</title>
<g id="a_node6"><a xlink:href="interfaceSCR__EditableTaskComponent.html" target="_top" xlink:title=" ">
<polygon fill="white" stroke="#666666" points="883.5,-56 735.5,-56 735.5,-37 883.5,-37 883.5,-56"/>
<text text-anchor="middle" x="809.5" y="-44" font-family="Helvetica,sans-Serif" font-size="10.00">SCR_EditableTaskComponent</text>
</a>
</g>
</g>
<!-- Node1&#45;&gt;Node6 -->
<g id="edge5" class="edge">
<title>Node1&#45;&gt;Node6</title>
<path fill="none" stroke="#63b8ff" d="M694.95,-46.5C708.43,-46.5 722.11,-46.5 735.08,-46.5"/>
<polygon fill="#63b8ff" stroke="#63b8ff" points="695.21,-43 685.21,-46.5 695.21,-50 695.21,-43"/>
</g>
<!-- Node7 -->
<g id="node7" class="node">
<title>Node7</title>
<g id="a_node7"><a xlink:href="interfaceSCR__EditableWorldEntityComponent.html" target="_top" xlink:title=" ">
<polygon fill="white" stroke="#666666" points="898.5,-19 720.5,-19 720.5,0 898.5,0 898.5,-19"/>
<text text-anchor="middle" x="809.5" y="-7" font-family="Helvetica,sans-Serif" font-size="10.00">SCR_EditableWorldEntityComponent</text>
</a>
</g>
</g>
<!-- Node1&#45;&gt;Node7 -->
<g id="edge6" class="edge">
<title>Node1&#45;&gt;Node7</title>
<path fill="none" stroke="#63b8ff" d="M666.54,-34.63C694.13,-29.75 725.74,-24.15 752.12,-19.48"/>
<polygon fill="#63b8ff" stroke="#63b8ff" points="666.02,-31.35 656.78,-36.54 667.24,-38.24 666.02,-31.35"/>
</g>
<!-- Node2 -->
<g id="node2" class="node">
<title>Node2</title>
<g id="a_node2"><a xlink:href="interfaceSCR__EditableSystemComponent.html" target="_top" xlink:title=" ">
<polygon fill="white" stroke="#666666" points="477,-56 316,-56 316,-37 477,-37 477,-56"/>
<text text-anchor="middle" x="396.5" y="-44" font-family="Helvetica,sans-Serif" font-size="10.00">SCR_EditableSystemComponent</text>
</a>
</g>
</g>
<!-- Node2&#45;&gt;Node1 -->
<g id="edge1" class="edge">
<title>Node2&#45;&gt;Node1</title>
<path fill="none" stroke="#63b8ff" d="M488.14,-46.5C496.35,-46.5 504.65,-46.5 512.8,-46.5"/>
<polygon fill="#63b8ff" stroke="#63b8ff" points="488.41,-43 478.41,-46.5 488.41,-50 488.41,-43"/>
</g>
<!-- Node3 -->
<g id="node3" class="node">
<title>Node3</title>
<g id="a_node3"><a xlink:href="interfaceSCR__EditableEntityComponent.html" target="_top" xlink:title="Component defining editable entity.">
<polygon fill="white" stroke="#666666" points="280,-56 128,-56 128,-37 280,-37 280,-56"/>
<text text-anchor="middle" x="204" y="-44" font-family="Helvetica,sans-Serif" font-size="10.00">SCR_EditableEntityComponent</text>
</a>
</g>
</g>
<!-- Node3&#45;&gt;Node2 -->
<g id="edge2" class="edge">
<title>Node3&#45;&gt;Node2</title>
<path fill="none" stroke="#63b8ff" d="M291.03,-46.5C299.26,-46.5 307.58,-46.5 315.75,-46.5"/>
<polygon fill="#63b8ff" stroke="#63b8ff" points="291.29,-43 281.29,-46.5 291.29,-50 291.29,-43"/>
</g>
<!-- Node4 -->
<g id="node4" class="node">
<title>Node4</title>
<g id="a_node4"><a xlink:title=" ">
<polygon fill="white" stroke="#666666" points="92,-56 0,-56 0,-37 92,-37 92,-56"/>
<text text-anchor="middle" x="46" y="-44" font-family="Helvetica,sans-Serif" font-size="10.00">ScriptComponent</text>
</a>
</g>
</g>
<!-- Node4&#45;&gt;Node3 -->
<g id="edge3" class="edge">
<title>Node4&#45;&gt;Node3</title>
<path fill="none" stroke="#63b8ff" d="M102.87,-46.5C110.93,-46.5 119.34,-46.5 127.71,-46.5"/>
<polygon fill="#63b8ff" stroke="#63b8ff" points="103.12,-43 93.12,-46.5 103.12,-50 103.12,-43"/>
</g>
</g>
</svg>
