<?xml version="1.0" encoding="UTF-8" standalone="no"?>
<!DOCTYPE svg PUBLIC "-//W3C//DTD SVG 1.1//EN"
 "http://www.w3.org/Graphics/SVG/1.1/DTD/svg11.dtd">
<!-- Generated by graphviz version 8.0.2 (20230410.1723)
 -->
<!-- Title: SCR_ConsumableEffectHealthItems Pages: 1 -->
<svg width="605pt" height="138pt"
 viewBox="0.00 0.00 605.00 138.00" xmlns="http://www.w3.org/2000/svg" xmlns:xlink="http://www.w3.org/1999/xlink">
<g id="graph0" class="graph" transform="scale(1 1) rotate(0) translate(4 134)">
<title>SCR_ConsumableEffectHealthItems</title>
<!-- Node1 -->
<g id="node1" class="node">
<title>Node1</title>
<g id="a_node1"><a xlink:title=" ">
<polygon fill="#999999" stroke="#666666" points="420,-79.5 271,-79.5 271,-49.5 420,-49.5 420,-79.5"/>
<text text-anchor="start" x="279" y="-67.5" font-family="Helvetica,sans-Serif" font-size="10.00">SCR_ConsumableEffectHealth</text>
<text text-anchor="middle" x="345.5" y="-56.5" font-family="Helvetica,sans-Serif" font-size="10.00">Items</text>
</a>
</g>
</g>
<!-- Node4 -->
<g id="node4" class="node">
<title>Node4</title>
<g id="a_node4"><a xlink:href="interfaceSCR__ConsumableBandage.html" target="_top" xlink:title="Bandage effect.">
<polygon fill="white" stroke="#666666" points="593.5,-130 459.5,-130 459.5,-111 593.5,-111 593.5,-130"/>
<text text-anchor="middle" x="526.5" y="-118" font-family="Helvetica,sans-Serif" font-size="10.00">SCR_ConsumableBandage</text>
</a>
</g>
</g>
<!-- Node1&#45;&gt;Node4 -->
<g id="edge3" class="edge">
<title>Node1&#45;&gt;Node4</title>
<path fill="none" stroke="#63b8ff" d="M398.68,-83.57C416.74,-89.91 437.16,-96.8 456,-102.5 465.31,-105.31 475.39,-108.09 484.92,-110.58"/>
<polygon fill="#63b8ff" stroke="#63b8ff" points="399.95,-79.95 389.36,-79.91 397.62,-86.55 399.95,-79.95"/>
</g>
<!-- Node5 -->
<g id="node5" class="node">
<title>Node5</title>
<g id="a_node5"><a xlink:href="interfaceSCR__ConsumableMorphine.html" target="_top" xlink:title="Morphine effect.">
<polygon fill="white" stroke="#666666" points="594.5,-93 458.5,-93 458.5,-74 594.5,-74 594.5,-93"/>
<text text-anchor="middle" x="526.5" y="-81" font-family="Helvetica,sans-Serif" font-size="10.00">SCR_ConsumableMorphine</text>
</a>
</g>
</g>
<!-- Node1&#45;&gt;Node5 -->
<g id="edge4" class="edge">
<title>Node1&#45;&gt;Node5</title>
<path fill="none" stroke="#63b8ff" d="M431.28,-73.5C440.29,-74.46 449.37,-75.42 458.14,-76.35"/>
<polygon fill="#63b8ff" stroke="#63b8ff" points="431.65,-69.91 421.34,-72.34 430.91,-76.87 431.65,-69.91"/>
</g>
<!-- Node6 -->
<g id="node6" class="node">
<title>Node6</title>
<g id="a_node6"><a xlink:href="interfaceSCR__ConsumableSalineBag.html" target="_top" xlink:title="Saline bag effect.">
<polygon fill="white" stroke="#666666" points="596.5,-56 456.5,-56 456.5,-37 596.5,-37 596.5,-56"/>
<text text-anchor="middle" x="526.5" y="-44" font-family="Helvetica,sans-Serif" font-size="10.00">SCR_ConsumableSalineBag</text>
</a>
</g>
</g>
<!-- Node1&#45;&gt;Node6 -->
<g id="edge5" class="edge">
<title>Node1&#45;&gt;Node6</title>
<path fill="none" stroke="#63b8ff" d="M431.25,-55.98C439.59,-55.14 447.98,-54.29 456.14,-53.47"/>
<polygon fill="#63b8ff" stroke="#63b8ff" points="430.94,-52.59 421.34,-57.07 431.64,-59.56 430.94,-52.59"/>
</g>
<!-- Node7 -->
<g id="node7" class="node">
<title>Node7</title>
<g id="a_node7"><a xlink:href="interfaceSCR__ConsumableTourniquet.html" target="_top" xlink:title="Tourniquet effect.">
<polygon fill="white" stroke="#666666" points="597,-19 456,-19 456,0 597,0 597,-19"/>
<text text-anchor="middle" x="526.5" y="-7" font-family="Helvetica,sans-Serif" font-size="10.00">SCR_ConsumableTourniquet</text>
</a>
</g>
</g>
<!-- Node1&#45;&gt;Node7 -->
<g id="edge6" class="edge">
<title>Node1&#45;&gt;Node7</title>
<path fill="none" stroke="#63b8ff" d="M400.11,-45.52C417.82,-39.48 437.67,-32.96 456,-27.5 465.32,-24.72 475.41,-21.97 484.94,-19.48"/>
<polygon fill="#63b8ff" stroke="#63b8ff" points="399.28,-42.45 390.96,-49.01 401.56,-49.07 399.28,-42.45"/>
</g>
<!-- Node2 -->
<g id="node2" class="node">
<title>Node2</title>
<g id="a_node2"><a xlink:href="interfaceSCR__ConsumableEffectBase.html" target="_top" xlink:title="Effect assigned to the consumable gadget.">
<polygon fill="white" stroke="#666666" points="235,-74 92,-74 92,-55 235,-55 235,-74"/>
<text text-anchor="middle" x="163.5" y="-62" font-family="Helvetica,sans-Serif" font-size="10.00">SCR_ConsumableEffectBase</text>
</a>
</g>
</g>
<!-- Node2&#45;&gt;Node1 -->
<g id="edge1" class="edge">
<title>Node2&#45;&gt;Node1</title>
<path fill="none" stroke="#63b8ff" d="M246.37,-64.5C254.49,-64.5 262.69,-64.5 270.72,-64.5"/>
<polygon fill="#63b8ff" stroke="#63b8ff" points="246.38,-61 236.38,-64.5 246.38,-68 246.38,-61"/>
</g>
<!-- Node3 -->
<g id="node3" class="node">
<title>Node3</title>
<g id="a_node3"><a xlink:title=" ">
<polygon fill="white" stroke="#666666" points="56,-74 0,-74 0,-55 56,-55 56,-74"/>
<text text-anchor="middle" x="28" y="-62" font-family="Helvetica,sans-Serif" font-size="10.00">Managed</text>
</a>
</g>
</g>
<!-- Node3&#45;&gt;Node2 -->
<g id="edge2" class="edge">
<title>Node3&#45;&gt;Node2</title>
<path fill="none" stroke="#63b8ff" d="M67.13,-64.5C74.84,-64.5 83.18,-64.5 91.62,-64.5"/>
<polygon fill="#63b8ff" stroke="#63b8ff" points="67.34,-61 57.34,-64.5 67.34,-68 67.34,-61"/>
</g>
</g>
</svg>
