<?xml version="1.0" encoding="UTF-8" standalone="no"?>
<!DOCTYPE svg PUBLIC "-//W3C//DTD SVG 1.1//EN"
 "http://www.w3.org/Graphics/SVG/1.1/DTD/svg11.dtd">
<!-- Generated by graphviz version 8.0.2 (20230410.1723)
 -->
<!-- Title: SCR_ServerBrowserEntryComponent Pages: 1 -->
<svg width="185pt" height="258pt"
 viewBox="0.00 0.00 185.00 258.00" xmlns="http://www.w3.org/2000/svg" xmlns:xlink="http://www.w3.org/1999/xlink">
<g id="graph0" class="graph" transform="scale(1 1) rotate(0) translate(4 254)">
<title>SCR_ServerBrowserEntryComponent</title>
<!-- Node1 -->
<g id="node1" class="node">
<title>Node1</title>
<g id="a_node1"><a xlink:title="This component handles server entry and visiualization of server data.">
<polygon fill="#999999" stroke="#666666" points="177,-19 0,-19 0,0 177,0 177,-19"/>
<text text-anchor="middle" x="88.5" y="-7" font-family="Helvetica,sans-Serif" font-size="10.00">SCR_ServerBrowserEntryComponent</text>
</a>
</g>
</g>
<!-- Node2 -->
<g id="node2" class="node">
<title>Node2</title>
<g id="a_node2"><a xlink:href="interfaceSCR__BrowserListMenuEntryComponent.html" target="_top" xlink:title=" ">
<polygon fill="white" stroke="#666666" points="158.5,-85 18.5,-85 18.5,-55 158.5,-55 158.5,-85"/>
<text text-anchor="start" x="26.5" y="-73" font-family="Helvetica,sans-Serif" font-size="10.00">SCR_BrowserListMenuEntry</text>
<text text-anchor="middle" x="88.5" y="-62" font-family="Helvetica,sans-Serif" font-size="10.00">Component</text>
</a>
</g>
</g>
<!-- Node2&#45;&gt;Node1 -->
<g id="edge1" class="edge">
<title>Node2&#45;&gt;Node1</title>
<path fill="none" stroke="#63b8ff" d="M88.5,-43.59C88.5,-34.85 88.5,-25.65 88.5,-19.18"/>
<polygon fill="#63b8ff" stroke="#63b8ff" points="85,-43.54 88.5,-53.54 92,-43.54 85,-43.54"/>
</g>
<!-- Node3 -->
<g id="node3" class="node">
<title>Node3</title>
<g id="a_node3"><a xlink:href="interfaceSCR__ListMenuEntryComponent.html" target="_top" xlink:title=" ">
<polygon fill="white" stroke="#666666" points="166,-140 11,-140 11,-121 166,-121 166,-140"/>
<text text-anchor="middle" x="88.5" y="-128" font-family="Helvetica,sans-Serif" font-size="10.00">SCR_ListMenuEntryComponent</text>
</a>
</g>
</g>
<!-- Node3&#45;&gt;Node2 -->
<g id="edge2" class="edge">
<title>Node3&#45;&gt;Node2</title>
<path fill="none" stroke="#63b8ff" d="M88.5,-110.08C88.5,-101.92 88.5,-92.6 88.5,-85.11"/>
<polygon fill="#63b8ff" stroke="#63b8ff" points="85,-109.87 88.5,-119.87 92,-109.87 85,-109.87"/>
</g>
<!-- Node4 -->
<g id="node4" class="node">
<title>Node4</title>
<g id="a_node4"><a xlink:href="interfaceSCR__ScriptedWidgetComponent.html" target="_top" xlink:title=" ">
<polygon fill="white" stroke="#666666" points="167.5,-195 9.5,-195 9.5,-176 167.5,-176 167.5,-195"/>
<text text-anchor="middle" x="88.5" y="-183" font-family="Helvetica,sans-Serif" font-size="10.00">SCR_ScriptedWidgetComponent</text>
</a>
</g>
</g>
<!-- Node4&#45;&gt;Node3 -->
<g id="edge3" class="edge">
<title>Node4&#45;&gt;Node3</title>
<path fill="none" stroke="#63b8ff" d="M88.5,-164.93C88.5,-156.53 88.5,-147.13 88.5,-140.44"/>
<polygon fill="#63b8ff" stroke="#63b8ff" points="85,-164.75 88.5,-174.75 92,-164.75 85,-164.75"/>
</g>
<!-- Node5 -->
<g id="node5" class="node">
<title>Node5</title>
<g id="a_node5"><a xlink:title=" ">
<polygon fill="white" stroke="#666666" points="155,-250 22,-250 22,-231 155,-231 155,-250"/>
<text text-anchor="middle" x="88.5" y="-238" font-family="Helvetica,sans-Serif" font-size="10.00">ScriptedWidgetComponent</text>
</a>
</g>
</g>
<!-- Node5&#45;&gt;Node4 -->
<g id="edge4" class="edge">
<title>Node5&#45;&gt;Node4</title>
<path fill="none" stroke="#63b8ff" d="M88.5,-219.93C88.5,-211.53 88.5,-202.13 88.5,-195.44"/>
<polygon fill="#63b8ff" stroke="#63b8ff" points="85,-219.75 88.5,-229.75 92,-219.75 85,-219.75"/>
</g>
</g>
</svg>
