<?xml version="1.0" encoding="UTF-8" standalone="no"?>
<!DOCTYPE svg PUBLIC "-//W3C//DTD SVG 1.1//EN"
 "http://www.w3.org/Graphics/SVG/1.1/DTD/svg11.dtd">
<!-- Generated by graphviz version 8.0.2 (20230410.1723)
 -->
<!-- Title: SCR_BaseBulletDamageEffect Pages: 1 -->
<svg width="158pt" height="368pt"
 viewBox="0.00 0.00 158.00 368.00" xmlns="http://www.w3.org/2000/svg" xmlns:xlink="http://www.w3.org/1999/xlink">
<g id="graph0" class="graph" transform="scale(1 1) rotate(0) translate(4 364)">
<title>SCR_BaseBulletDamageEffect</title>
<!-- Node1 -->
<g id="node1" class="node">
<title>Node1</title>
<g id="a_node1"><a xlink:title=" ">
<polygon fill="#999999" stroke="#666666" points="150,-85 0,-85 0,-66 150,-66 150,-85"/>
<text text-anchor="middle" x="75" y="-73" font-family="Helvetica,sans-Serif" font-size="10.00">SCR_BaseBulletDamageEffect</text>
</a>
</g>
</g>
<!-- Node7 -->
<g id="node7" class="node">
<title>Node7</title>
<g id="a_node7"><a xlink:href="interfaceSCR__IncendiaryBulletDamageEffect.html" target="_top" xlink:title=" ">
<polygon fill="white" stroke="#666666" points="148.5,-30 1.5,-30 1.5,0 148.5,0 148.5,-30"/>
<text text-anchor="start" x="9.5" y="-18" font-family="Helvetica,sans-Serif" font-size="10.00">SCR_IncendiaryBulletDamage</text>
<text text-anchor="middle" x="75" y="-7" font-family="Helvetica,sans-Serif" font-size="10.00">Effect</text>
</a>
</g>
</g>
<!-- Node1&#45;&gt;Node7 -->
<g id="edge6" class="edge">
<title>Node1&#45;&gt;Node7</title>
<path fill="none" stroke="#63b8ff" d="M75,-55.08C75,-46.92 75,-37.6 75,-30.11"/>
<polygon fill="#63b8ff" stroke="#63b8ff" points="71.5,-54.87 75,-64.87 78.5,-54.87 71.5,-54.87"/>
</g>
<!-- Node2 -->
<g id="node2" class="node">
<title>Node2</title>
<g id="a_node2"><a xlink:href="interfaceSCR__InstantDamageEffect.html" target="_top" xlink:title=" ">
<polygon fill="white" stroke="#666666" points="141,-140 9,-140 9,-121 141,-121 141,-140"/>
<text text-anchor="middle" x="75" y="-128" font-family="Helvetica,sans-Serif" font-size="10.00">SCR_InstantDamageEffect</text>
</a>
</g>
</g>
<!-- Node2&#45;&gt;Node1 -->
<g id="edge1" class="edge">
<title>Node2&#45;&gt;Node1</title>
<path fill="none" stroke="#63b8ff" d="M75,-109.93C75,-101.53 75,-92.13 75,-85.44"/>
<polygon fill="#63b8ff" stroke="#63b8ff" points="71.5,-109.75 75,-119.75 78.5,-109.75 71.5,-109.75"/>
</g>
<!-- Node3 -->
<g id="node3" class="node">
<title>Node3</title>
<g id="a_node3"><a xlink:href="interfaceInstantDamageEffect.html" target="_top" xlink:title=" ">
<polygon fill="white" stroke="#666666" points="128.5,-195 21.5,-195 21.5,-176 128.5,-176 128.5,-195"/>
<text text-anchor="middle" x="75" y="-183" font-family="Helvetica,sans-Serif" font-size="10.00">InstantDamageEffect</text>
</a>
</g>
</g>
<!-- Node3&#45;&gt;Node2 -->
<g id="edge2" class="edge">
<title>Node3&#45;&gt;Node2</title>
<path fill="none" stroke="#63b8ff" d="M75,-164.93C75,-156.53 75,-147.13 75,-140.44"/>
<polygon fill="#63b8ff" stroke="#63b8ff" points="71.5,-164.75 75,-174.75 78.5,-164.75 71.5,-164.75"/>
</g>
<!-- Node4 -->
<g id="node4" class="node">
<title>Node4</title>
<g id="a_node4"><a xlink:href="interfaceSCR__DamageEffect.html" target="_top" xlink:title=" ">
<polygon fill="white" stroke="#666666" points="126.5,-250 23.5,-250 23.5,-231 126.5,-231 126.5,-250"/>
<text text-anchor="middle" x="75" y="-238" font-family="Helvetica,sans-Serif" font-size="10.00">SCR_DamageEffect</text>
</a>
</g>
</g>
<!-- Node4&#45;&gt;Node3 -->
<g id="edge3" class="edge">
<title>Node4&#45;&gt;Node3</title>
<path fill="none" stroke="#63b8ff" d="M75,-219.93C75,-211.53 75,-202.13 75,-195.44"/>
<polygon fill="#63b8ff" stroke="#63b8ff" points="71.5,-219.75 75,-229.75 78.5,-219.75 71.5,-219.75"/>
</g>
<!-- Node5 -->
<g id="node5" class="node">
<title>Node5</title>
<g id="a_node5"><a xlink:href="interfaceBaseDamageEffect.html" target="_top" xlink:title=" ">
<polygon fill="white" stroke="#666666" points="125,-305 25,-305 25,-286 125,-286 125,-305"/>
<text text-anchor="middle" x="75" y="-293" font-family="Helvetica,sans-Serif" font-size="10.00">BaseDamageEffect</text>
</a>
</g>
</g>
<!-- Node5&#45;&gt;Node4 -->
<g id="edge4" class="edge">
<title>Node5&#45;&gt;Node4</title>
<path fill="none" stroke="#63b8ff" d="M75,-274.93C75,-266.53 75,-257.13 75,-250.44"/>
<polygon fill="#63b8ff" stroke="#63b8ff" points="71.5,-274.75 75,-284.75 78.5,-274.75 71.5,-274.75"/>
</g>
<!-- Node6 -->
<g id="node6" class="node">
<title>Node6</title>
<g id="a_node6"><a xlink:title=" ">
<polygon fill="white" stroke="#666666" points="118,-360 32,-360 32,-341 118,-341 118,-360"/>
<text text-anchor="middle" x="75" y="-348" font-family="Helvetica,sans-Serif" font-size="10.00">ScriptAndConfig</text>
</a>
</g>
</g>
<!-- Node6&#45;&gt;Node5 -->
<g id="edge5" class="edge">
<title>Node6&#45;&gt;Node5</title>
<path fill="none" stroke="#63b8ff" d="M75,-329.93C75,-321.53 75,-312.13 75,-305.44"/>
<polygon fill="#63b8ff" stroke="#63b8ff" points="71.5,-329.75 75,-339.75 78.5,-329.75 71.5,-329.75"/>
</g>
</g>
</svg>
