<?xml version="1.0" encoding="UTF-8" standalone="no"?>
<!DOCTYPE svg PUBLIC "-//W3C//DTD SVG 1.1//EN"
 "http://www.w3.org/Graphics/SVG/1.1/DTD/svg11.dtd">
<!-- Generated by graphviz version 8.0.2 (20230410.1723)
 -->
<!-- Title: SCR_HitZoneGroupName Pages: 1 -->
<svg width="354pt" height="82pt"
 viewBox="0.00 0.00 354.00 82.00" xmlns="http://www.w3.org/2000/svg" xmlns:xlink="http://www.w3.org/1999/xlink">
<g id="graph0" class="graph" transform="scale(1 1) rotate(0) translate(4 78)">
<title>SCR_HitZoneGroupName</title>
<!-- Node1 -->
<g id="node1" class="node">
<title>Node1</title>
<g id="a_node1"><a xlink:title=" ">
<polygon fill="#999999" stroke="#666666" points="239,-74 112,-74 112,-55 239,-55 239,-74"/>
<text text-anchor="middle" x="175.5" y="-62" font-family="Helvetica,sans-Serif" font-size="10.00">SCR_HitZoneGroupName</text>
</a>
</g>
</g>
<!-- Node2 -->
<g id="node2" class="node">
<title>Node2</title>
<g id="a_node2"><a xlink:href="interfaceSCR__CharacterHitZoneGroupName.html" target="_top" xlink:title=" ">
<polygon fill="white" stroke="#666666" points="169,-19 0,-19 0,0 169,0 169,-19"/>
<text text-anchor="middle" x="84.5" y="-7" font-family="Helvetica,sans-Serif" font-size="10.00">SCR_CharacterHitZoneGroupName</text>
</a>
</g>
</g>
<!-- Node1&#45;&gt;Node2 -->
<g id="edge1" class="edge">
<title>Node1&#45;&gt;Node2</title>
<path fill="none" stroke="#63b8ff" d="M150.6,-49C134.32,-39.52 113.58,-27.43 99.71,-19.36"/>
<polygon fill="#63b8ff" stroke="#63b8ff" points="148.66,-52.5 159.06,-54.51 152.18,-46.45 148.66,-52.5"/>
</g>
<!-- Node3 -->
<g id="node3" class="node">
<title>Node3</title>
<g id="a_node3"><a xlink:href="interfaceSCR__VehicleHitZoneGroupName.html" target="_top" xlink:title=" ">
<polygon fill="white" stroke="#666666" points="346,-19 187,-19 187,0 346,0 346,-19"/>
<text text-anchor="middle" x="266.5" y="-7" font-family="Helvetica,sans-Serif" font-size="10.00">SCR_VehicleHitZoneGroupName</text>
</a>
</g>
</g>
<!-- Node1&#45;&gt;Node3 -->
<g id="edge2" class="edge">
<title>Node1&#45;&gt;Node3</title>
<path fill="none" stroke="#63b8ff" d="M200.4,-49C216.68,-39.52 237.42,-27.43 251.29,-19.36"/>
<polygon fill="#63b8ff" stroke="#63b8ff" points="198.82,-46.45 191.94,-54.51 202.34,-52.5 198.82,-46.45"/>
</g>
</g>
</svg>
