<?xml version="1.0" encoding="UTF-8" standalone="no"?>
<!DOCTYPE svg PUBLIC "-//W3C//DTD SVG 1.1//EN"
 "http://www.w3.org/Graphics/SVG/1.1/DTD/svg11.dtd">
<!-- Generated by graphviz version 8.0.2 (20230410.1723)
 -->
<!-- Title: BaseProjectileComponent Pages: 1 -->
<svg width="975pt" height="249pt"
 viewBox="0.00 0.00 975.00 249.00" xmlns="http://www.w3.org/2000/svg" xmlns:xlink="http://www.w3.org/1999/xlink">
<g id="graph0" class="graph" transform="scale(1 1) rotate(0) translate(4 245)">
<title>BaseProjectileComponent</title>
<!-- Node1 -->
<g id="node1" class="node">
<title>Node1</title>
<g id="a_node1"><a xlink:title=" ">
<polygon fill="#999999" stroke="#666666" points="393,-167 264,-167 264,-148 393,-148 393,-167"/>
<text text-anchor="middle" x="328.5" y="-155" font-family="Helvetica,sans-Serif" font-size="10.00">BaseProjectileComponent</text>
</a>
</g>
</g>
<!-- Node4 -->
<g id="node4" class="node">
<title>Node4</title>
<g id="a_node4"><a xlink:href="interfaceBaseMissileGuidanceComponent.html" target="_top" xlink:title=" ">
<polygon fill="white" stroke="#666666" points="590,-204 429,-204 429,-185 590,-185 590,-204"/>
<text text-anchor="middle" x="509.5" y="-192" font-family="Helvetica,sans-Serif" font-size="10.00">BaseMissileGuidanceComponent</text>
</a>
</g>
</g>
<!-- Node1&#45;&gt;Node4 -->
<g id="edge3" class="edge">
<title>Node1&#45;&gt;Node4</title>
<path fill="none" stroke="#63b8ff" d="M387.98,-169.59C411.43,-174.43 438.11,-179.95 460.4,-184.56"/>
<polygon fill="#63b8ff" stroke="#63b8ff" points="388.97,-166.01 378.47,-167.42 387.55,-172.87 388.97,-166.01"/>
</g>
<!-- Node5 -->
<g id="node5" class="node">
<title>Node5</title>
<g id="a_node5"><a xlink:href="interfaceBaseTriggerComponent.html" target="_top" xlink:title=" ">
<polygon fill="white" stroke="#666666" points="568.5,-167 450.5,-167 450.5,-148 568.5,-148 568.5,-167"/>
<text text-anchor="middle" x="509.5" y="-155" font-family="Helvetica,sans-Serif" font-size="10.00">BaseTriggerComponent</text>
</a>
</g>
</g>
<!-- Node1&#45;&gt;Node5 -->
<g id="edge4" class="edge">
<title>Node1&#45;&gt;Node5</title>
<path fill="none" stroke="#63b8ff" d="M404.35,-157.5C419.6,-157.5 435.45,-157.5 450.03,-157.5"/>
<polygon fill="#63b8ff" stroke="#63b8ff" points="404.37,-154 394.37,-157.5 404.36,-161 404.37,-154"/>
</g>
<!-- Node12 -->
<g id="node12" class="node">
<title>Node12</title>
<g id="a_node12"><a xlink:href="interfaceProjectileMoveComponent.html" target="_top" xlink:title=" ">
<polygon fill="white" stroke="#666666" points="574,-75 445,-75 445,-56 574,-56 574,-75"/>
<text text-anchor="middle" x="509.5" y="-63" font-family="Helvetica,sans-Serif" font-size="10.00">ProjectileMoveComponent</text>
</a>
</g>
</g>
<!-- Node1&#45;&gt;Node12 -->
<g id="edge11" class="edge">
<title>Node1&#45;&gt;Node12</title>
<path fill="none" stroke="#63b8ff" d="M358.3,-142.7C395.07,-123.8 457.71,-91.6 489.21,-75.41"/>
<polygon fill="#63b8ff" stroke="#63b8ff" points="356.95,-139.97 349.66,-147.65 360.15,-146.2 356.95,-139.97"/>
</g>
<!-- Node2 -->
<g id="node2" class="node">
<title>Node2</title>
<g id="a_node2"><a xlink:href="interfaceGameComponent.html" target="_top" xlink:title=" ">
<polygon fill="white" stroke="#666666" points="228,-167 136,-167 136,-148 228,-148 228,-167"/>
<text text-anchor="middle" x="182" y="-155" font-family="Helvetica,sans-Serif" font-size="10.00">GameComponent</text>
</a>
</g>
</g>
<!-- Node2&#45;&gt;Node1 -->
<g id="edge1" class="edge">
<title>Node2&#45;&gt;Node1</title>
<path fill="none" stroke="#63b8ff" d="M239.05,-157.5C247.08,-157.5 255.38,-157.5 263.55,-157.5"/>
<polygon fill="#63b8ff" stroke="#63b8ff" points="239.32,-154 229.32,-157.5 239.32,-161 239.32,-154"/>
</g>
<!-- Node3 -->
<g id="node3" class="node">
<title>Node3</title>
<g id="a_node3"><a xlink:title=" ">
<polygon fill="white" stroke="#666666" points="100,-167 0,-167 0,-148 100,-148 100,-167"/>
<text text-anchor="middle" x="50" y="-155" font-family="Helvetica,sans-Serif" font-size="10.00">GenericComponent</text>
</a>
</g>
</g>
<!-- Node3&#45;&gt;Node2 -->
<g id="edge2" class="edge">
<title>Node3&#45;&gt;Node2</title>
<path fill="none" stroke="#63b8ff" d="M110.95,-157.5C119.25,-157.5 127.66,-157.5 135.64,-157.5"/>
<polygon fill="#63b8ff" stroke="#63b8ff" points="111.15,-154 101.15,-157.5 111.15,-161 111.15,-154"/>
</g>
<!-- Node6 -->
<g id="node6" class="node">
<title>Node6</title>
<g id="a_node6"><a xlink:href="interfaceCollisionTriggerComponent.html" target="_top" xlink:title=" ">
<polygon fill="white" stroke="#666666" points="763.5,-241 631.5,-241 631.5,-222 763.5,-222 763.5,-241"/>
<text text-anchor="middle" x="697.5" y="-229" font-family="Helvetica,sans-Serif" font-size="10.00">CollisionTriggerComponent</text>
</a>
</g>
</g>
<!-- Node5&#45;&gt;Node6 -->
<g id="edge5" class="edge">
<title>Node5&#45;&gt;Node6</title>
<path fill="none" stroke="#63b8ff" d="M579.07,-171.17C582.86,-172.76 586.53,-174.53 590,-176.5 609.95,-187.84 606.14,-202.01 626,-213.5 631.58,-216.73 637.73,-219.38 644.01,-221.57"/>
<polygon fill="#63b8ff" stroke="#63b8ff" points="580.45,-167.58 569.85,-167.38 578.01,-174.14 580.45,-167.58"/>
</g>
<!-- Node7 -->
<g id="node7" class="node">
<title>Node7</title>
<g id="a_node7"><a xlink:href="interfaceProximityTriggerComponent.html" target="_top" xlink:title=" ">
<polygon fill="white" stroke="#666666" points="766,-204 629,-204 629,-185 766,-185 766,-204"/>
<text text-anchor="middle" x="697.5" y="-192" font-family="Helvetica,sans-Serif" font-size="10.00">ProximityTriggerComponent</text>
</a>
</g>
</g>
<!-- Node5&#45;&gt;Node7 -->
<g id="edge6" class="edge">
<title>Node5&#45;&gt;Node7</title>
<path fill="none" stroke="#63b8ff" d="M570.94,-169.52C595.38,-174.38 623.25,-179.93 646.52,-184.56"/>
<polygon fill="#63b8ff" stroke="#63b8ff" points="571.84,-165.93 561.34,-167.42 570.47,-172.8 571.84,-165.93"/>
</g>
<!-- Node8 -->
<g id="node8" class="node">
<title>Node8</title>
<g id="a_node8"><a xlink:href="interfaceSCR__BaseTriggerComponent.html" target="_top" xlink:title=" ">
<polygon fill="white" stroke="#666666" points="769,-167 626,-167 626,-148 769,-148 769,-167"/>
<text text-anchor="middle" x="697.5" y="-155" font-family="Helvetica,sans-Serif" font-size="10.00">SCR_BaseTriggerComponent</text>
</a>
</g>
</g>
<!-- Node5&#45;&gt;Node8 -->
<g id="edge7" class="edge">
<title>Node5&#45;&gt;Node8</title>
<path fill="none" stroke="#63b8ff" d="M579.6,-157.5C594.62,-157.5 610.54,-157.5 625.63,-157.5"/>
<polygon fill="#63b8ff" stroke="#63b8ff" points="579.84,-154 569.84,-157.5 579.84,-161 579.84,-154"/>
</g>
<!-- Node11 -->
<g id="node11" class="node">
<title>Node11</title>
<g id="a_node11"><a xlink:href="interfaceTimerTriggerComponent.html" target="_top" xlink:title=" ">
<polygon fill="white" stroke="#666666" points="757,-130 638,-130 638,-111 757,-111 757,-130"/>
<text text-anchor="middle" x="697.5" y="-118" font-family="Helvetica,sans-Serif" font-size="10.00">TimerTriggerComponent</text>
</a>
</g>
</g>
<!-- Node5&#45;&gt;Node11 -->
<g id="edge10" class="edge">
<title>Node5&#45;&gt;Node11</title>
<path fill="none" stroke="#63b8ff" d="M570.94,-145.48C595.38,-140.62 623.25,-135.07 646.52,-130.44"/>
<polygon fill="#63b8ff" stroke="#63b8ff" points="570.47,-142.2 561.34,-147.58 571.84,-149.07 570.47,-142.2"/>
</g>
<!-- Node9 -->
<g id="node9" class="node">
<title>Node9</title>
<g id="a_node9"><a xlink:href="interfaceSCR__ExplosiveTriggerComponent.html" target="_top" xlink:title=" ">
<polygon fill="white" stroke="#666666" points="967,-185 805,-185 805,-166 967,-166 967,-185"/>
<text text-anchor="middle" x="886" y="-173" font-family="Helvetica,sans-Serif" font-size="10.00">SCR_ExplosiveTriggerComponent</text>
</a>
</g>
</g>
<!-- Node8&#45;&gt;Node9 -->
<g id="edge8" class="edge">
<title>Node8&#45;&gt;Node9</title>
<path fill="none" stroke="#63b8ff" d="M780.21,-165.39C788.31,-166.17 796.52,-166.96 804.6,-167.74"/>
<polygon fill="#63b8ff" stroke="#63b8ff" points="780.56,-161.81 770.27,-164.33 779.89,-168.78 780.56,-161.81"/>
</g>
<!-- Node10 -->
<g id="node10" class="node">
<title>Node10</title>
<g id="a_node10"><a xlink:href="interfaceSCR__PressureTriggerComponent.html" target="_top" xlink:title=" ">
<polygon fill="white" stroke="#666666" points="966,-148 806,-148 806,-129 966,-129 966,-148"/>
<text text-anchor="middle" x="886" y="-136" font-family="Helvetica,sans-Serif" font-size="10.00">SCR_PressureTriggerComponent</text>
</a>
</g>
</g>
<!-- Node8&#45;&gt;Node10 -->
<g id="edge9" class="edge">
<title>Node8&#45;&gt;Node10</title>
<path fill="none" stroke="#63b8ff" d="M779.94,-149.2C788.44,-148.34 797.07,-147.46 805.54,-146.6"/>
<polygon fill="#63b8ff" stroke="#63b8ff" points="779.87,-145.79 770.27,-150.29 780.58,-152.76 779.87,-145.79"/>
</g>
<!-- Node13 -->
<g id="node13" class="node">
<title>Node13</title>
<g id="a_node13"><a xlink:href="interfaceGrenadeMoveComponent.html" target="_top" xlink:title=" ">
<polygon fill="white" stroke="#666666" points="760,-93 635,-93 635,-74 760,-74 760,-93"/>
<text text-anchor="middle" x="697.5" y="-81" font-family="Helvetica,sans-Serif" font-size="10.00">GrenadeMoveComponent</text>
</a>
</g>
</g>
<!-- Node12&#45;&gt;Node13 -->
<g id="edge12" class="edge">
<title>Node12&#45;&gt;Node13</title>
<path fill="none" stroke="#63b8ff" d="M584.96,-72.71C601.46,-74.3 618.78,-75.98 634.72,-77.52"/>
<polygon fill="#63b8ff" stroke="#63b8ff" points="585.54,-69.15 575.25,-71.67 584.87,-76.12 585.54,-69.15"/>
</g>
<!-- Node14 -->
<g id="node14" class="node">
<title>Node14</title>
<g id="a_node14"><a xlink:href="interfaceMissileMoveComponent.html" target="_top" xlink:title=" ">
<polygon fill="white" stroke="#666666" points="757,-56 638,-56 638,-37 757,-37 757,-56"/>
<text text-anchor="middle" x="697.5" y="-44" font-family="Helvetica,sans-Serif" font-size="10.00">MissileMoveComponent</text>
</a>
</g>
</g>
<!-- Node12&#45;&gt;Node14 -->
<g id="edge13" class="edge">
<title>Node12&#45;&gt;Node14</title>
<path fill="none" stroke="#63b8ff" d="M584.99,-57.89C602.46,-56.11 620.84,-54.23 637.52,-52.52"/>
<polygon fill="#63b8ff" stroke="#63b8ff" points="584.84,-54.49 575.25,-58.99 585.55,-61.45 584.84,-54.49"/>
</g>
<!-- Node15 -->
<g id="node15" class="node">
<title>Node15</title>
<g id="a_node15"><a xlink:href="interfaceShellMoveComponent.html" target="_top" xlink:title=" ">
<polygon fill="white" stroke="#666666" points="752.5,-19 642.5,-19 642.5,0 752.5,0 752.5,-19"/>
<text text-anchor="middle" x="697.5" y="-7" font-family="Helvetica,sans-Serif" font-size="10.00">ShellMoveComponent</text>
</a>
</g>
</g>
<!-- Node12&#45;&gt;Node15 -->
<g id="edge14" class="edge">
<title>Node12&#45;&gt;Node15</title>
<path fill="none" stroke="#63b8ff" d="M548.92,-52.13C571.29,-44.53 600.11,-35.05 626,-27.5 635.58,-24.7 645.96,-21.92 655.74,-19.41"/>
<polygon fill="#63b8ff" stroke="#63b8ff" points="548.14,-49.04 539.81,-55.59 550.41,-55.67 548.14,-49.04"/>
</g>
<!-- Node16 -->
<g id="node16" class="node">
<title>Node16</title>
<g id="a_node16"><a xlink:href="interfaceFlareMoveComponent.html" target="_top" xlink:title=" ">
<polygon fill="white" stroke="#666666" points="941,-19 831,-19 831,0 941,0 941,-19"/>
<text text-anchor="middle" x="886" y="-7" font-family="Helvetica,sans-Serif" font-size="10.00">FlareMoveComponent</text>
</a>
</g>
</g>
<!-- Node15&#45;&gt;Node16 -->
<g id="edge15" class="edge">
<title>Node15&#45;&gt;Node16</title>
<path fill="none" stroke="#63b8ff" d="M763.82,-9.5C785.71,-9.5 809.87,-9.5 830.81,-9.5"/>
<polygon fill="#63b8ff" stroke="#63b8ff" points="763.94,-6 753.94,-9.5 763.94,-13 763.94,-6"/>
</g>
</g>
</svg>
