<?xml version="1.0" encoding="UTF-8" standalone="no"?>
<!DOCTYPE svg PUBLIC "-//W3C//DTD SVG 1.1//EN"
 "http://www.w3.org/Graphics/SVG/1.1/DTD/svg11.dtd">
<!-- Generated by graphviz version 8.0.2 (20230410.1723)
 -->
<!-- Title: BaseUniversalInventoryStorageComponent Pages: 1 -->
<svg width="1926pt" height="143pt"
 viewBox="0.00 0.00 1926.00 142.50" xmlns="http://www.w3.org/2000/svg" xmlns:xlink="http://www.w3.org/1999/xlink">
<g id="graph0" class="graph" transform="scale(1 1) rotate(0) translate(4 138.5)">
<title>BaseUniversalInventoryStorageComponent</title>
<!-- Node1 -->
<g id="node1" class="node">
<title>Node1</title>
<g id="a_node1"><a xlink:title=" ">
<polygon fill="#999999" stroke="#666666" points="953,-78 803,-78 803,-48 953,-48 953,-78"/>
<text text-anchor="start" x="811" y="-66" font-family="Helvetica,sans-Serif" font-size="10.00">BaseUniversalInventoryStorage</text>
<text text-anchor="middle" x="878" y="-55" font-family="Helvetica,sans-Serif" font-size="10.00">Component</text>
</a>
</g>
</g>
<!-- Node7 -->
<g id="node7" class="node">
<title>Node7</title>
<g id="a_node7"><a xlink:href="interfaceUniversalInventoryStorageComponent.html" target="_top" xlink:title=" ">
<polygon fill="white" stroke="#666666" points="1117,-78 989,-78 989,-48 1117,-48 1117,-78"/>
<text text-anchor="start" x="997" y="-66" font-family="Helvetica,sans-Serif" font-size="10.00">UniversalInventoryStorage</text>
<text text-anchor="middle" x="1053" y="-55" font-family="Helvetica,sans-Serif" font-size="10.00">Component</text>
</a>
</g>
</g>
<!-- Node1&#45;&gt;Node7 -->
<g id="edge6" class="edge">
<title>Node1&#45;&gt;Node7</title>
<path fill="none" stroke="#63b8ff" d="M964.15,-63C972.37,-63 980.61,-63 988.56,-63"/>
<polygon fill="#63b8ff" stroke="#63b8ff" points="964.37,-59.5 954.37,-63 964.37,-66.5 964.37,-59.5"/>
</g>
<!-- Node2 -->
<g id="node2" class="node">
<title>Node2</title>
<g id="a_node2"><a xlink:href="interfaceScriptedBaseInventoryStorageComponent.html" target="_top" xlink:title=" ">
<polygon fill="white" stroke="#666666" points="767,-78 620,-78 620,-48 767,-48 767,-78"/>
<text text-anchor="start" x="628" y="-66" font-family="Helvetica,sans-Serif" font-size="10.00">ScriptedBaseInventoryStorage</text>
<text text-anchor="middle" x="693.5" y="-55" font-family="Helvetica,sans-Serif" font-size="10.00">Component</text>
</a>
</g>
</g>
<!-- Node2&#45;&gt;Node1 -->
<g id="edge1" class="edge">
<title>Node2&#45;&gt;Node1</title>
<path fill="none" stroke="#63b8ff" d="M778.4,-63C786.51,-63 794.7,-63 802.71,-63"/>
<polygon fill="#63b8ff" stroke="#63b8ff" points="778.42,-59.5 768.42,-63 778.42,-66.5 778.42,-59.5"/>
</g>
<!-- Node3 -->
<g id="node3" class="node">
<title>Node3</title>
<g id="a_node3"><a xlink:href="interfaceBaseInventoryStorageComponent.html" target="_top" xlink:title=" ">
<polygon fill="white" stroke="#666666" points="584,-72.5 423,-72.5 423,-53.5 584,-53.5 584,-72.5"/>
<text text-anchor="middle" x="503.5" y="-60.5" font-family="Helvetica,sans-Serif" font-size="10.00">BaseInventoryStorageComponent</text>
</a>
</g>
</g>
<!-- Node3&#45;&gt;Node2 -->
<g id="edge2" class="edge">
<title>Node3&#45;&gt;Node2</title>
<path fill="none" stroke="#63b8ff" d="M594.99,-63C603.22,-63 611.47,-63 619.51,-63"/>
<polygon fill="#63b8ff" stroke="#63b8ff" points="595.23,-59.5 585.23,-63 595.23,-66.5 595.23,-59.5"/>
</g>
<!-- Node4 -->
<g id="node4" class="node">
<title>Node4</title>
<g id="a_node4"><a xlink:href="interfaceInventoryItemComponent.html" target="_top" xlink:title=" ">
<polygon fill="white" stroke="#666666" points="387,-72.5 264,-72.5 264,-53.5 387,-53.5 387,-72.5"/>
<text text-anchor="middle" x="325.5" y="-60.5" font-family="Helvetica,sans-Serif" font-size="10.00">InventoryItemComponent</text>
</a>
</g>
</g>
<!-- Node4&#45;&gt;Node3 -->
<g id="edge3" class="edge">
<title>Node4&#45;&gt;Node3</title>
<path fill="none" stroke="#63b8ff" d="M397.96,-63C406.06,-63 414.35,-63 422.55,-63"/>
<polygon fill="#63b8ff" stroke="#63b8ff" points="398.07,-59.5 388.07,-63 398.07,-66.5 398.07,-59.5"/>
</g>
<!-- Node5 -->
<g id="node5" class="node">
<title>Node5</title>
<g id="a_node5"><a xlink:href="interfaceGameComponent.html" target="_top" xlink:title=" ">
<polygon fill="white" stroke="#666666" points="228,-72.5 136,-72.5 136,-53.5 228,-53.5 228,-72.5"/>
<text text-anchor="middle" x="182" y="-60.5" font-family="Helvetica,sans-Serif" font-size="10.00">GameComponent</text>
</a>
</g>
</g>
<!-- Node5&#45;&gt;Node4 -->
<g id="edge4" class="edge">
<title>Node5&#45;&gt;Node4</title>
<path fill="none" stroke="#63b8ff" d="M238.95,-63C247.02,-63 255.35,-63 263.51,-63"/>
<polygon fill="#63b8ff" stroke="#63b8ff" points="239.16,-59.5 229.16,-63 239.16,-66.5 239.16,-59.5"/>
</g>
<!-- Node6 -->
<g id="node6" class="node">
<title>Node6</title>
<g id="a_node6"><a xlink:title=" ">
<polygon fill="white" stroke="#666666" points="100,-72.5 0,-72.5 0,-53.5 100,-53.5 100,-72.5"/>
<text text-anchor="middle" x="50" y="-60.5" font-family="Helvetica,sans-Serif" font-size="10.00">GenericComponent</text>
</a>
</g>
</g>
<!-- Node6&#45;&gt;Node5 -->
<g id="edge5" class="edge">
<title>Node6&#45;&gt;Node5</title>
<path fill="none" stroke="#63b8ff" d="M110.95,-63C119.25,-63 127.66,-63 135.64,-63"/>
<polygon fill="#63b8ff" stroke="#63b8ff" points="111.15,-59.5 101.15,-63 111.15,-66.5 111.15,-59.5"/>
</g>
<!-- Node8 -->
<g id="node8" class="node">
<title>Node8</title>
<g id="a_node8"><a xlink:href="interfaceBaseEquipmentStorageComponent.html" target="_top" xlink:title=" ">
<polygon fill="white" stroke="#666666" points="1322,-115.5 1153,-115.5 1153,-96.5 1322,-96.5 1322,-115.5"/>
<text text-anchor="middle" x="1237.5" y="-103.5" font-family="Helvetica,sans-Serif" font-size="10.00">BaseEquipmentStorageComponent</text>
</a>
</g>
</g>
<!-- Node7&#45;&gt;Node8 -->
<g id="edge7" class="edge">
<title>Node7&#45;&gt;Node8</title>
<path fill="none" stroke="#63b8ff" d="M1127.98,-81.05C1136.41,-83.08 1144.89,-85.09 1153,-87 1165.74,-89.99 1179.58,-93.17 1192.27,-96.06"/>
<polygon fill="#63b8ff" stroke="#63b8ff" points="1128.89,-77.43 1118.34,-78.5 1127.25,-84.24 1128.89,-77.43"/>
</g>
<!-- Node13 -->
<g id="node13" class="node">
<title>Node13</title>
<g id="a_node13"><a xlink:href="interfaceSCR__CampaignArmoryStorageComponent.html" target="_top" xlink:title=" ">
<polygon fill="white" stroke="#666666" points="1313,-78 1162,-78 1162,-48 1313,-48 1313,-78"/>
<text text-anchor="start" x="1170" y="-66" font-family="Helvetica,sans-Serif" font-size="10.00">SCR_CampaignArmoryStorage</text>
<text text-anchor="middle" x="1237.5" y="-55" font-family="Helvetica,sans-Serif" font-size="10.00">Component</text>
</a>
</g>
</g>
<!-- Node7&#45;&gt;Node13 -->
<g id="edge12" class="edge">
<title>Node7&#45;&gt;Node13</title>
<path fill="none" stroke="#63b8ff" d="M1128.22,-63C1139.25,-63 1150.64,-63 1161.69,-63"/>
<polygon fill="#63b8ff" stroke="#63b8ff" points="1128.32,-59.5 1118.32,-63 1128.32,-66.5 1128.32,-59.5"/>
</g>
<!-- Node14 -->
<g id="node14" class="node">
<title>Node14</title>
<g id="a_node14"><a xlink:href="interfaceSCR__UniversalInventoryStorageComponent.html" target="_top" xlink:title="Current storage variant allows dynamic scaling of slots and handles Move/Insert/Remove operations it ...">
<polygon fill="white" stroke="#666666" points="1314,-30 1161,-30 1161,0 1314,0 1314,-30"/>
<text text-anchor="start" x="1169" y="-18" font-family="Helvetica,sans-Serif" font-size="10.00">SCR_UniversalInventoryStorage</text>
<text text-anchor="middle" x="1237.5" y="-7" font-family="Helvetica,sans-Serif" font-size="10.00">Component</text>
</a>
</g>
</g>
<!-- Node7&#45;&gt;Node14 -->
<g id="edge13" class="edge">
<title>Node7&#45;&gt;Node14</title>
<path fill="none" stroke="#63b8ff" d="M1123.19,-44.8C1141.21,-40.06 1160.45,-35 1177.86,-30.42"/>
<polygon fill="#63b8ff" stroke="#63b8ff" points="1122.53,-41.62 1113.75,-47.55 1124.31,-48.39 1122.53,-41.62"/>
</g>
<!-- Node9 -->
<g id="node9" class="node">
<title>Node9</title>
<g id="a_node9"><a xlink:href="interfaceEquipmentStorageComponent.html" target="_top" xlink:title="Current storage variant uses equipment storage slots to attach equipment to different item variants (...">
<polygon fill="white" stroke="#666666" points="1504,-115.5 1358,-115.5 1358,-96.5 1504,-96.5 1504,-115.5"/>
<text text-anchor="middle" x="1431" y="-103.5" font-family="Helvetica,sans-Serif" font-size="10.00">EquipmentStorageComponent</text>
</a>
</g>
</g>
<!-- Node8&#45;&gt;Node9 -->
<g id="edge8" class="edge">
<title>Node8&#45;&gt;Node9</title>
<path fill="none" stroke="#63b8ff" d="M1333.29,-106C1341.52,-106 1349.76,-106 1357.77,-106"/>
<polygon fill="#63b8ff" stroke="#63b8ff" points="1333.49,-102.5 1323.49,-106 1333.49,-109.5 1333.49,-102.5"/>
</g>
<!-- Node10 -->
<g id="node10" class="node">
<title>Node10</title>
<g id="a_node10"><a xlink:href="interfaceSCR__EquipmentStorageComponent.html" target="_top" xlink:title="Equipment storage are slots which are part of their parent entity but not taking up the standard carg...">
<polygon fill="white" stroke="#666666" points="1712,-115.5 1540,-115.5 1540,-96.5 1712,-96.5 1712,-115.5"/>
<text text-anchor="middle" x="1626" y="-103.5" font-family="Helvetica,sans-Serif" font-size="10.00">SCR_EquipmentStorageComponent</text>
</a>
</g>
</g>
<!-- Node9&#45;&gt;Node10 -->
<g id="edge9" class="edge">
<title>Node9&#45;&gt;Node10</title>
<path fill="none" stroke="#63b8ff" d="M1515.37,-106C1523.47,-106 1531.7,-106 1539.83,-106"/>
<polygon fill="#63b8ff" stroke="#63b8ff" points="1515.42,-102.5 1505.42,-106 1515.42,-109.5 1515.42,-102.5"/>
</g>
<!-- Node11 -->
<g id="node11" class="node">
<title>Node11</title>
<g id="a_node11"><a xlink:href="interfaceSCR__SalineStorageComponent.html" target="_top" xlink:title=" ">
<polygon fill="white" stroke="#666666" points="1909,-134.5 1757,-134.5 1757,-115.5 1909,-115.5 1909,-134.5"/>
<text text-anchor="middle" x="1833" y="-122.5" font-family="Helvetica,sans-Serif" font-size="10.00">SCR_SalineStorageComponent</text>
</a>
</g>
</g>
<!-- Node10&#45;&gt;Node11 -->
<g id="edge10" class="edge">
<title>Node10&#45;&gt;Node11</title>
<path fill="none" stroke="#63b8ff" d="M1723.22,-114.92C1734.49,-115.96 1745.87,-117.02 1756.81,-118.03"/>
<polygon fill="#63b8ff" stroke="#63b8ff" points="1723.73,-111.36 1713.45,-113.92 1723.09,-118.33 1723.73,-111.36"/>
</g>
<!-- Node12 -->
<g id="node12" class="node">
<title>Node12</title>
<g id="a_node12"><a xlink:href="interfaceSCR__TourniquetStorageComponent.html" target="_top" xlink:title=" ">
<polygon fill="white" stroke="#666666" points="1918,-97.5 1748,-97.5 1748,-78.5 1918,-78.5 1918,-97.5"/>
<text text-anchor="middle" x="1833" y="-85.5" font-family="Helvetica,sans-Serif" font-size="10.00">SCR_TourniquetStorageComponent</text>
</a>
</g>
</g>
<!-- Node10&#45;&gt;Node12 -->
<g id="edge11" class="edge">
<title>Node10&#45;&gt;Node12</title>
<path fill="none" stroke="#63b8ff" d="M1723.17,-97.56C1731.35,-96.84 1739.59,-96.11 1747.67,-95.4"/>
<polygon fill="#63b8ff" stroke="#63b8ff" points="1723.11,-94.14 1713.45,-98.5 1723.72,-101.11 1723.11,-94.14"/>
</g>
</g>
</svg>
