<?xml version="1.0" encoding="UTF-8" standalone="no"?>
<!DOCTYPE svg PUBLIC "-//W3C//DTD SVG 1.1//EN"
 "http://www.w3.org/Graphics/SVG/1.1/DTD/svg11.dtd">
<!-- Generated by graphviz version 8.0.2 (20230410.1723)
 -->
<!-- Title: SCR_JointBaseEntityClass Pages: 1 -->
<svg width="454pt" height="187pt"
 viewBox="0.00 0.00 454.00 187.00" xmlns="http://www.w3.org/2000/svg" xmlns:xlink="http://www.w3.org/1999/xlink">
<g id="graph0" class="graph" transform="scale(1 1) rotate(0) translate(4 183)">
<title>SCR_JointBaseEntityClass</title>
<!-- Node1 -->
<g id="node1" class="node">
<title>Node1</title>
<g id="a_node1"><a xlink:title=" ">
<polygon fill="#999999" stroke="#666666" points="272,-93 137,-93 137,-74 272,-74 272,-93"/>
<text text-anchor="middle" x="204.5" y="-81" font-family="Helvetica,sans-Serif" font-size="10.00">SCR_JointBaseEntityClass</text>
</a>
</g>
</g>
<!-- Node3 -->
<g id="node3" class="node">
<title>Node3</title>
<g id="a_node3"><a xlink:href="interfaceSCR__Joint6DOFEntityClass.html" target="_top" xlink:title=" ">
<polygon fill="white" stroke="#666666" points="446,-179 308,-179 308,-160 446,-160 446,-179"/>
<text text-anchor="middle" x="377" y="-167" font-family="Helvetica,sans-Serif" font-size="10.00">SCR_Joint6DOFEntityClass</text>
</a>
</g>
</g>
<!-- Node1&#45;&gt;Node3 -->
<g id="edge2" class="edge">
<title>Node1&#45;&gt;Node3</title>
<path fill="none" stroke="#63b8ff" d="M226.28,-99.84C246.24,-114.85 277.75,-136.78 308,-150.5 315.81,-154.04 324.44,-157.07 332.85,-159.6"/>
<polygon fill="#63b8ff" stroke="#63b8ff" points="228.78,-96.59 218.71,-93.29 224.53,-102.15 228.78,-96.59"/>
</g>
<!-- Node4 -->
<g id="node4" class="node">
<title>Node4</title>
<g id="a_node4"><a xlink:href="interfaceSCR__JointConeTwistEntityClass.html" target="_top" xlink:title=" ">
<polygon fill="white" stroke="#666666" points="443.5,-141.5 310.5,-141.5 310.5,-111.5 443.5,-111.5 443.5,-141.5"/>
<text text-anchor="start" x="318.5" y="-129.5" font-family="Helvetica,sans-Serif" font-size="10.00">SCR_JointConeTwistEntity</text>
<text text-anchor="middle" x="377" y="-118.5" font-family="Helvetica,sans-Serif" font-size="10.00">Class</text>
</a>
</g>
</g>
<!-- Node1&#45;&gt;Node4 -->
<g id="edge3" class="edge">
<title>Node1&#45;&gt;Node4</title>
<path fill="none" stroke="#63b8ff" d="M255.59,-96.13C274.08,-100.8 295.25,-106.13 314.63,-111.02"/>
<polygon fill="#63b8ff" stroke="#63b8ff" points="256.6,-92.52 246.04,-93.47 254.89,-99.31 256.6,-92.52"/>
</g>
<!-- Node5 -->
<g id="node5" class="node">
<title>Node5</title>
<g id="a_node5"><a xlink:href="interfaceSCR__JointFixedEntityClass.html" target="_top" xlink:title=" ">
<polygon fill="white" stroke="#666666" points="445.5,-93 308.5,-93 308.5,-74 445.5,-74 445.5,-93"/>
<text text-anchor="middle" x="377" y="-81" font-family="Helvetica,sans-Serif" font-size="10.00">SCR_JointFixedEntityClass</text>
</a>
</g>
</g>
<!-- Node1&#45;&gt;Node5 -->
<g id="edge4" class="edge">
<title>Node1&#45;&gt;Node5</title>
<path fill="none" stroke="#63b8ff" d="M283.25,-83.5C291.57,-83.5 299.98,-83.5 308.18,-83.5"/>
<polygon fill="#63b8ff" stroke="#63b8ff" points="283.4,-80 273.4,-83.5 283.4,-87 283.4,-80"/>
</g>
<!-- Node6 -->
<g id="node6" class="node">
<title>Node6</title>
<g id="a_node6"><a xlink:href="interfaceSCR__JointHingeEntityClass.html" target="_top" xlink:title=" ">
<polygon fill="white" stroke="#666666" points="445.5,-56 308.5,-56 308.5,-37 445.5,-37 445.5,-56"/>
<text text-anchor="middle" x="377" y="-44" font-family="Helvetica,sans-Serif" font-size="10.00">SCR_JointHingeEntityClass</text>
</a>
</g>
</g>
<!-- Node1&#45;&gt;Node6 -->
<g id="edge5" class="edge">
<title>Node1&#45;&gt;Node6</title>
<path fill="none" stroke="#63b8ff" d="M261.81,-71.28C283.99,-66.47 309.14,-61.01 330.18,-56.44"/>
<polygon fill="#63b8ff" stroke="#63b8ff" points="261.22,-68.04 252.19,-73.58 262.71,-74.88 261.22,-68.04"/>
</g>
<!-- Node7 -->
<g id="node7" class="node">
<title>Node7</title>
<g id="a_node7"><a xlink:href="interfaceSCR__JointSliderEntityClass.html" target="_top" xlink:title=" ">
<polygon fill="white" stroke="#666666" points="445.5,-19 308.5,-19 308.5,0 445.5,0 445.5,-19"/>
<text text-anchor="middle" x="377" y="-7" font-family="Helvetica,sans-Serif" font-size="10.00">SCR_JointSliderEntityClass</text>
</a>
</g>
</g>
<!-- Node1&#45;&gt;Node7 -->
<g id="edge6" class="edge">
<title>Node1&#45;&gt;Node7</title>
<path fill="none" stroke="#63b8ff" d="M230.03,-67.9C250.3,-55.55 280.16,-38.6 308,-27.5 315.6,-24.47 323.88,-21.79 331.96,-19.49"/>
<polygon fill="#63b8ff" stroke="#63b8ff" points="228.57,-65.3 221.9,-73.54 232.25,-71.26 228.57,-65.3"/>
</g>
<!-- Node2 -->
<g id="node2" class="node">
<title>Node2</title>
<g id="a_node2"><a xlink:title=" ">
<polygon fill="white" stroke="#666666" points="101,-93 0,-93 0,-74 101,-74 101,-93"/>
<text text-anchor="middle" x="50.5" y="-81" font-family="Helvetica,sans-Serif" font-size="10.00">GenericEntityClass</text>
</a>
</g>
</g>
<!-- Node2&#45;&gt;Node1 -->
<g id="edge1" class="edge">
<title>Node2&#45;&gt;Node1</title>
<path fill="none" stroke="#63b8ff" d="M112.13,-83.5C120.23,-83.5 128.57,-83.5 136.76,-83.5"/>
<polygon fill="#63b8ff" stroke="#63b8ff" points="112.27,-80 102.27,-83.5 112.27,-87 112.27,-80"/>
</g>
</g>
</svg>
