<?xml version="1.0" encoding="UTF-8" standalone="no"?>
<!DOCTYPE svg PUBLIC "-//W3C//DTD SVG 1.1//EN"
 "http://www.w3.org/Graphics/SVG/1.1/DTD/svg11.dtd">
<!-- Generated by graphviz version 8.0.2 (20230410.1723)
 -->
<!-- Title: BaseRadioComponentClass Pages: 1 -->
<svg width="164pt" height="258pt"
 viewBox="0.00 0.00 164.00 258.00" xmlns="http://www.w3.org/2000/svg" xmlns:xlink="http://www.w3.org/1999/xlink">
<g id="graph0" class="graph" transform="scale(1 1) rotate(0) translate(4 254)">
<title>BaseRadioComponentClass</title>
<!-- Node1 -->
<g id="node1" class="node">
<title>Node1</title>
<g id="a_node1"><a xlink:title=" ">
<polygon fill="#999999" stroke="#666666" points="147,-140 9,-140 9,-121 147,-121 147,-140"/>
<text text-anchor="middle" x="78" y="-128" font-family="Helvetica,sans-Serif" font-size="10.00">BaseRadioComponentClass</text>
</a>
</g>
</g>
<!-- Node4 -->
<g id="node4" class="node">
<title>Node4</title>
<g id="a_node4"><a xlink:href="interfaceScriptedRadioComponentClass.html" target="_top" xlink:title=" ">
<polygon fill="white" stroke="#666666" points="154,-85 2,-85 2,-66 154,-66 154,-85"/>
<text text-anchor="middle" x="78" y="-73" font-family="Helvetica,sans-Serif" font-size="10.00">ScriptedRadioComponentClass</text>
</a>
</g>
</g>
<!-- Node1&#45;&gt;Node4 -->
<g id="edge3" class="edge">
<title>Node1&#45;&gt;Node4</title>
<path fill="none" stroke="#63b8ff" d="M78,-109.93C78,-101.53 78,-92.13 78,-85.44"/>
<polygon fill="#63b8ff" stroke="#63b8ff" points="74.5,-109.75 78,-119.75 81.5,-109.75 74.5,-109.75"/>
</g>
<!-- Node2 -->
<g id="node2" class="node">
<title>Node2</title>
<g id="a_node2"><a xlink:href="interfaceGameComponentClass.html" target="_top" xlink:title=" ">
<polygon fill="white" stroke="#666666" points="136.5,-195 19.5,-195 19.5,-176 136.5,-176 136.5,-195"/>
<text text-anchor="middle" x="78" y="-183" font-family="Helvetica,sans-Serif" font-size="10.00">GameComponentClass</text>
</a>
</g>
</g>
<!-- Node2&#45;&gt;Node1 -->
<g id="edge1" class="edge">
<title>Node2&#45;&gt;Node1</title>
<path fill="none" stroke="#63b8ff" d="M78,-164.93C78,-156.53 78,-147.13 78,-140.44"/>
<polygon fill="#63b8ff" stroke="#63b8ff" points="74.5,-164.75 78,-174.75 81.5,-164.75 74.5,-164.75"/>
</g>
<!-- Node3 -->
<g id="node3" class="node">
<title>Node3</title>
<g id="a_node3"><a xlink:title=" ">
<polygon fill="white" stroke="#666666" points="140.5,-250 15.5,-250 15.5,-231 140.5,-231 140.5,-250"/>
<text text-anchor="middle" x="78" y="-238" font-family="Helvetica,sans-Serif" font-size="10.00">GenericComponentClass</text>
</a>
</g>
</g>
<!-- Node3&#45;&gt;Node2 -->
<g id="edge2" class="edge">
<title>Node3&#45;&gt;Node2</title>
<path fill="none" stroke="#63b8ff" d="M78,-219.93C78,-211.53 78,-202.13 78,-195.44"/>
<polygon fill="#63b8ff" stroke="#63b8ff" points="74.5,-219.75 78,-229.75 81.5,-219.75 74.5,-219.75"/>
</g>
<!-- Node5 -->
<g id="node5" class="node">
<title>Node5</title>
<g id="a_node5"><a xlink:href="interfaceSCR__CoverageRadioComponentClass.html" target="_top" xlink:title=" ">
<polygon fill="white" stroke="#666666" points="156,-30 0,-30 0,0 156,0 156,-30"/>
<text text-anchor="start" x="8" y="-18" font-family="Helvetica,sans-Serif" font-size="10.00">SCR_CoverageRadioComponent</text>
<text text-anchor="middle" x="78" y="-7" font-family="Helvetica,sans-Serif" font-size="10.00">Class</text>
</a>
</g>
</g>
<!-- Node4&#45;&gt;Node5 -->
<g id="edge4" class="edge">
<title>Node4&#45;&gt;Node5</title>
<path fill="none" stroke="#63b8ff" d="M78,-55.08C78,-46.92 78,-37.6 78,-30.11"/>
<polygon fill="#63b8ff" stroke="#63b8ff" points="74.5,-54.87 78,-64.87 81.5,-54.87 74.5,-54.87"/>
</g>
</g>
</svg>
