<?xml version="1.0" encoding="UTF-8" standalone="no"?>
<!DOCTYPE svg PUBLIC "-//W3C//DTD SVG 1.1//EN"
 "http://www.w3.org/Graphics/SVG/1.1/DTD/svg11.dtd">
<!-- Generated by graphviz version 8.0.2 (20230410.1723)
 -->
<!-- Title: SCR_EditableEntityBaseChildComponentClass Pages: 1 -->
<svg width="727pt" height="86pt"
 viewBox="0.00 0.00 727.00 86.00" xmlns="http://www.w3.org/2000/svg" xmlns:xlink="http://www.w3.org/1999/xlink">
<g id="graph0" class="graph" transform="scale(1 1) rotate(0) translate(4 82)">
<title>SCR_EditableEntityBaseChildComponentClass</title>
<!-- Node1 -->
<g id="node1" class="node">
<title>Node1</title>
<g id="a_node1"><a xlink:title=" ">
<polygon fill="#999999" stroke="#666666" points="299,-54 152,-54 152,-24 299,-24 299,-54"/>
<text text-anchor="start" x="160" y="-42" font-family="Helvetica,sans-Serif" font-size="10.00">SCR_EditableEntityBaseChild</text>
<text text-anchor="middle" x="225.5" y="-31" font-family="Helvetica,sans-Serif" font-size="10.00">ComponentClass</text>
</a>
</g>
</g>
<!-- Node3 -->
<g id="node3" class="node">
<title>Node3</title>
<g id="a_node3"><a xlink:href="interfaceSCR__EditableEntityMaterialChildComponentClass.html" target="_top" xlink:title=" ">
<polygon fill="white" stroke="#666666" points="473.5,-78 336.5,-78 336.5,-48 473.5,-48 473.5,-78"/>
<text text-anchor="start" x="344.5" y="-66" font-family="Helvetica,sans-Serif" font-size="10.00">SCR_EditableEntityMaterial</text>
<text text-anchor="middle" x="405" y="-55" font-family="Helvetica,sans-Serif" font-size="10.00">ChildComponentClass</text>
</a>
</g>
</g>
<!-- Node1&#45;&gt;Node3 -->
<g id="edge2" class="edge">
<title>Node1&#45;&gt;Node3</title>
<path fill="none" stroke="#63b8ff" d="M310.36,-50.34C319.01,-51.51 327.72,-52.69 336.17,-53.83"/>
<polygon fill="#63b8ff" stroke="#63b8ff" points="310.84,-46.74 300.46,-48.87 309.91,-53.67 310.84,-46.74"/>
</g>
<!-- Node4 -->
<g id="node4" class="node">
<title>Node4</title>
<g id="a_node4"><a xlink:href="interfaceSCR__EditableEntityVisibilityChildComponentClass.html" target="_top" xlink:title=" ">
<polygon fill="white" stroke="#666666" points="475,-30 335,-30 335,0 475,0 475,-30"/>
<text text-anchor="start" x="343" y="-18" font-family="Helvetica,sans-Serif" font-size="10.00">SCR_EditableEntityVisibility</text>
<text text-anchor="middle" x="405" y="-7" font-family="Helvetica,sans-Serif" font-size="10.00">ChildComponentClass</text>
</a>
</g>
</g>
<!-- Node1&#45;&gt;Node4 -->
<g id="edge3" class="edge">
<title>Node1&#45;&gt;Node4</title>
<path fill="none" stroke="#63b8ff" d="M310.21,-27.68C318.42,-26.57 326.7,-25.45 334.75,-24.36"/>
<polygon fill="#63b8ff" stroke="#63b8ff" points="309.91,-24.33 300.46,-29.13 310.84,-31.26 309.91,-24.33"/>
</g>
<!-- Node2 -->
<g id="node2" class="node">
<title>Node2</title>
<g id="a_node2"><a xlink:title=" ">
<polygon fill="white" stroke="#666666" points="116,-48.5 0,-48.5 0,-29.5 116,-29.5 116,-48.5"/>
<text text-anchor="middle" x="58" y="-36.5" font-family="Helvetica,sans-Serif" font-size="10.00">ScriptComponentClass</text>
</a>
</g>
</g>
<!-- Node2&#45;&gt;Node1 -->
<g id="edge1" class="edge">
<title>Node2&#45;&gt;Node1</title>
<path fill="none" stroke="#63b8ff" d="M127.28,-39C135.34,-39 143.6,-39 151.73,-39"/>
<polygon fill="#63b8ff" stroke="#63b8ff" points="127.42,-35.5 117.42,-39 127.42,-42.5 127.42,-35.5"/>
</g>
<!-- Node5 -->
<g id="node5" class="node">
<title>Node5</title>
<g id="a_node5"><a xlink:href="interfaceSCR__EditableEntityVehicleCompartmentVisibilityChildComponentClass.html" target="_top" xlink:title=" ">
<polygon fill="white" stroke="#666666" points="719,-30 511,-30 511,0 719,0 719,-30"/>
<text text-anchor="start" x="519" y="-18" font-family="Helvetica,sans-Serif" font-size="10.00">SCR_EditableEntityVehicle</text>
<text text-anchor="middle" x="615" y="-7" font-family="Helvetica,sans-Serif" font-size="10.00">CompartmentVisibilityChildComponentClass</text>
</a>
</g>
</g>
<!-- Node4&#45;&gt;Node5 -->
<g id="edge4" class="edge">
<title>Node4&#45;&gt;Node5</title>
<path fill="none" stroke="#63b8ff" d="M486.06,-15C494.09,-15 502.31,-15 510.53,-15"/>
<polygon fill="#63b8ff" stroke="#63b8ff" points="486.26,-11.5 476.26,-15 486.26,-18.5 486.26,-11.5"/>
</g>
</g>
</svg>
