<?xml version="1.0" encoding="UTF-8" standalone="no"?>
<!DOCTYPE svg PUBLIC "-//W3C//DTD SVG 1.1//EN"
 "http://www.w3.org/Graphics/SVG/1.1/DTD/svg11.dtd">
<!-- Generated by graphviz version 8.0.2 (20230410.1723)
 -->
<!-- Title: SCR_BaseResourceTooltipDetail Pages: 1 -->
<svg width="322pt" height="148pt"
 viewBox="0.00 0.00 322.00 148.00" xmlns="http://www.w3.org/2000/svg" xmlns:xlink="http://www.w3.org/1999/xlink">
<g id="graph0" class="graph" transform="scale(1 1) rotate(0) translate(4 144)">
<title>SCR_BaseResourceTooltipDetail</title>
<!-- Node1 -->
<g id="node1" class="node">
<title>Node1</title>
<g id="a_node1"><a xlink:title=" ">
<polygon fill="#999999" stroke="#666666" points="237.5,-85 78.5,-85 78.5,-66 237.5,-66 237.5,-85"/>
<text text-anchor="middle" x="158" y="-73" font-family="Helvetica,sans-Serif" font-size="10.00">SCR_BaseResourceTooltipDetail</text>
</a>
</g>
</g>
<!-- Node3 -->
<g id="node3" class="node">
<title>Node3</title>
<g id="a_node3"><a xlink:href="interfaceSCR__ResourceAvailableTooltipDetail.html" target="_top" xlink:title=" ">
<polygon fill="white" stroke="#666666" points="150,-30 0,-30 0,0 150,0 150,-30"/>
<text text-anchor="start" x="8" y="-18" font-family="Helvetica,sans-Serif" font-size="10.00">SCR_ResourceAvailableTooltip</text>
<text text-anchor="middle" x="75" y="-7" font-family="Helvetica,sans-Serif" font-size="10.00">Detail</text>
</a>
</g>
</g>
<!-- Node1&#45;&gt;Node3 -->
<g id="edge2" class="edge">
<title>Node1&#45;&gt;Node3</title>
<path fill="none" stroke="#63b8ff" d="M136.47,-59.33C123.83,-50.42 107.94,-39.22 95.49,-30.44"/>
<polygon fill="#63b8ff" stroke="#63b8ff" points="134.2,-62.71 144.39,-65.62 138.24,-56.99 134.2,-62.71"/>
</g>
<!-- Node4 -->
<g id="node4" class="node">
<title>Node4</title>
<g id="a_node4"><a xlink:href="interfaceSCR__ResourceStorageTooltipDetail.html" target="_top" xlink:title=" ">
<polygon fill="white" stroke="#666666" points="314,-30 168,-30 168,0 314,0 314,-30"/>
<text text-anchor="start" x="176" y="-18" font-family="Helvetica,sans-Serif" font-size="10.00">SCR_ResourceStorageTooltip</text>
<text text-anchor="middle" x="241" y="-7" font-family="Helvetica,sans-Serif" font-size="10.00">Detail</text>
</a>
</g>
</g>
<!-- Node1&#45;&gt;Node4 -->
<g id="edge3" class="edge">
<title>Node1&#45;&gt;Node4</title>
<path fill="none" stroke="#63b8ff" d="M179.53,-59.33C192.17,-50.42 208.06,-39.22 220.51,-30.44"/>
<polygon fill="#63b8ff" stroke="#63b8ff" points="177.76,-56.99 171.61,-65.62 181.8,-62.71 177.76,-56.99"/>
</g>
<!-- Node2 -->
<g id="node2" class="node">
<title>Node2</title>
<g id="a_node2"><a xlink:href="interfaceSCR__EntityTooltipDetail.html" target="_top" xlink:title=" ">
<polygon fill="white" stroke="#666666" points="218.5,-140 97.5,-140 97.5,-121 218.5,-121 218.5,-140"/>
<text text-anchor="middle" x="158" y="-128" font-family="Helvetica,sans-Serif" font-size="10.00">SCR_EntityTooltipDetail</text>
</a>
</g>
</g>
<!-- Node2&#45;&gt;Node1 -->
<g id="edge1" class="edge">
<title>Node2&#45;&gt;Node1</title>
<path fill="none" stroke="#63b8ff" d="M158,-109.93C158,-101.53 158,-92.13 158,-85.44"/>
<polygon fill="#63b8ff" stroke="#63b8ff" points="154.5,-109.75 158,-119.75 161.5,-109.75 154.5,-109.75"/>
</g>
</g>
</svg>
