<?xml version="1.0" encoding="UTF-8" standalone="no"?>
<!DOCTYPE svg PUBLIC "-//W3C//DTD SVG 1.1//EN"
 "http://www.w3.org/Graphics/SVG/1.1/DTD/svg11.dtd">
<!-- Generated by graphviz version 8.0.2 (20230410.1723)
 -->
<!-- Title: SCR_BaseTriggerComponentClass Pages: 1 -->
<svg width="348pt" height="324pt"
 viewBox="0.00 0.00 348.00 324.00" xmlns="http://www.w3.org/2000/svg" xmlns:xlink="http://www.w3.org/1999/xlink">
<g id="graph0" class="graph" transform="scale(1 1) rotate(0) translate(4 320)">
<title>SCR_BaseTriggerComponentClass</title>
<!-- Node1 -->
<g id="node1" class="node">
<title>Node1</title>
<g id="a_node1"><a xlink:title=" ">
<polygon fill="#999999" stroke="#666666" points="241.5,-96 98.5,-96 98.5,-66 241.5,-66 241.5,-96"/>
<text text-anchor="start" x="106.5" y="-84" font-family="Helvetica,sans-Serif" font-size="10.00">SCR_BaseTriggerComponent</text>
<text text-anchor="middle" x="170" y="-73" font-family="Helvetica,sans-Serif" font-size="10.00">Class</text>
</a>
</g>
</g>
<!-- Node6 -->
<g id="node6" class="node">
<title>Node6</title>
<g id="a_node6"><a xlink:href="interfaceSCR__ExplosiveTriggerComponentClass.html" target="_top" xlink:title=" ">
<polygon fill="white" stroke="#666666" points="162,-30 0,-30 0,0 162,0 162,-30"/>
<text text-anchor="start" x="8" y="-18" font-family="Helvetica,sans-Serif" font-size="10.00">SCR_ExplosiveTriggerComponent</text>
<text text-anchor="middle" x="81" y="-7" font-family="Helvetica,sans-Serif" font-size="10.00">Class</text>
</a>
</g>
</g>
<!-- Node1&#45;&gt;Node6 -->
<g id="edge5" class="edge">
<title>Node1&#45;&gt;Node6</title>
<path fill="none" stroke="#63b8ff" d="M141.53,-59.52C128.32,-50.03 112.95,-38.98 101,-30.39"/>
<polygon fill="#63b8ff" stroke="#63b8ff" points="139.09,-62.8 149.25,-65.8 143.17,-57.12 139.09,-62.8"/>
</g>
<!-- Node7 -->
<g id="node7" class="node">
<title>Node7</title>
<g id="a_node7"><a xlink:href="interfaceSCR__PressureTriggerComponentClass.html" target="_top" xlink:title=" ">
<polygon fill="white" stroke="#666666" points="340,-30 180,-30 180,0 340,0 340,-30"/>
<text text-anchor="start" x="188" y="-18" font-family="Helvetica,sans-Serif" font-size="10.00">SCR_PressureTriggerComponent</text>
<text text-anchor="middle" x="260" y="-7" font-family="Helvetica,sans-Serif" font-size="10.00">Class</text>
</a>
</g>
</g>
<!-- Node1&#45;&gt;Node7 -->
<g id="edge6" class="edge">
<title>Node1&#45;&gt;Node7</title>
<path fill="none" stroke="#63b8ff" d="M198.79,-59.52C212.14,-50.03 227.69,-38.98 239.77,-30.39"/>
<polygon fill="#63b8ff" stroke="#63b8ff" points="197.1,-57.15 190.97,-65.8 201.15,-62.85 197.1,-57.15"/>
</g>
<!-- Node2 -->
<g id="node2" class="node">
<title>Node2</title>
<g id="a_node2"><a xlink:href="interfaceBaseTriggerComponentClass.html" target="_top" xlink:title=" ">
<polygon fill="white" stroke="#666666" points="241.5,-151 98.5,-151 98.5,-132 241.5,-132 241.5,-151"/>
<text text-anchor="middle" x="170" y="-139" font-family="Helvetica,sans-Serif" font-size="10.00">BaseTriggerComponentClass</text>
</a>
</g>
</g>
<!-- Node2&#45;&gt;Node1 -->
<g id="edge1" class="edge">
<title>Node2&#45;&gt;Node1</title>
<path fill="none" stroke="#63b8ff" d="M170,-121.08C170,-112.92 170,-103.6 170,-96.11"/>
<polygon fill="#63b8ff" stroke="#63b8ff" points="166.5,-120.87 170,-130.87 173.5,-120.87 166.5,-120.87"/>
</g>
<!-- Node3 -->
<g id="node3" class="node">
<title>Node3</title>
<g id="a_node3"><a xlink:href="interfaceBaseProjectileComponentClass.html" target="_top" xlink:title=" ">
<polygon fill="white" stroke="#666666" points="247,-206 93,-206 93,-187 247,-187 247,-206"/>
<text text-anchor="middle" x="170" y="-194" font-family="Helvetica,sans-Serif" font-size="10.00">BaseProjectileComponentClass</text>
</a>
</g>
</g>
<!-- Node3&#45;&gt;Node2 -->
<g id="edge2" class="edge">
<title>Node3&#45;&gt;Node2</title>
<path fill="none" stroke="#63b8ff" d="M170,-175.93C170,-167.53 170,-158.13 170,-151.44"/>
<polygon fill="#63b8ff" stroke="#63b8ff" points="166.5,-175.75 170,-185.75 173.5,-175.75 166.5,-175.75"/>
</g>
<!-- Node4 -->
<g id="node4" class="node">
<title>Node4</title>
<g id="a_node4"><a xlink:href="interfaceGameComponentClass.html" target="_top" xlink:title=" ">
<polygon fill="white" stroke="#666666" points="228.5,-261 111.5,-261 111.5,-242 228.5,-242 228.5,-261"/>
<text text-anchor="middle" x="170" y="-249" font-family="Helvetica,sans-Serif" font-size="10.00">GameComponentClass</text>
</a>
</g>
</g>
<!-- Node4&#45;&gt;Node3 -->
<g id="edge3" class="edge">
<title>Node4&#45;&gt;Node3</title>
<path fill="none" stroke="#63b8ff" d="M170,-230.93C170,-222.53 170,-213.13 170,-206.44"/>
<polygon fill="#63b8ff" stroke="#63b8ff" points="166.5,-230.75 170,-240.75 173.5,-230.75 166.5,-230.75"/>
</g>
<!-- Node5 -->
<g id="node5" class="node">
<title>Node5</title>
<g id="a_node5"><a xlink:title=" ">
<polygon fill="white" stroke="#666666" points="232.5,-316 107.5,-316 107.5,-297 232.5,-297 232.5,-316"/>
<text text-anchor="middle" x="170" y="-304" font-family="Helvetica,sans-Serif" font-size="10.00">GenericComponentClass</text>
</a>
</g>
</g>
<!-- Node5&#45;&gt;Node4 -->
<g id="edge4" class="edge">
<title>Node5&#45;&gt;Node4</title>
<path fill="none" stroke="#63b8ff" d="M170,-285.93C170,-277.53 170,-268.13 170,-261.44"/>
<polygon fill="#63b8ff" stroke="#63b8ff" points="166.5,-285.75 170,-295.75 173.5,-285.75 166.5,-285.75"/>
</g>
</g>
</svg>
