<?xml version="1.0" encoding="UTF-8" standalone="no"?>
<!DOCTYPE svg PUBLIC "-//W3C//DTD SVG 1.1//EN"
 "http://www.w3.org/Graphics/SVG/1.1/DTD/svg11.dtd">
<!-- Generated by graphviz version 8.0.2 (20230410.1723)
 -->
<!-- Title: SCR_ReportedAddonsDialog Pages: 1 -->
<svg width="149pt" height="192pt"
 viewBox="0.00 0.00 149.00 192.00" xmlns="http://www.w3.org/2000/svg" xmlns:xlink="http://www.w3.org/1999/xlink">
<g id="graph0" class="graph" transform="scale(1 1) rotate(0) translate(4 188)">
<title>SCR_ReportedAddonsDialog</title>
<!-- Node1 -->
<g id="node1" class="node">
<title>Node1</title>
<g id="a_node1"><a xlink:title="Show list of reported mods and provide option to cancel reports.">
<polygon fill="#999999" stroke="#666666" points="141,-19 0,-19 0,0 141,0 141,-19"/>
<text text-anchor="middle" x="70.5" y="-7" font-family="Helvetica,sans-Serif" font-size="10.00">SCR_ReportedAddonsDialog</text>
</a>
</g>
</g>
<!-- Node2 -->
<g id="node2" class="node">
<title>Node2</title>
<g id="a_node2"><a xlink:href="interfaceSCR__AddonListDialog.html" target="_top" xlink:title="Shows a list of addons and some text.">
<polygon fill="white" stroke="#666666" points="127,-74 14,-74 14,-55 127,-55 127,-74"/>
<text text-anchor="middle" x="70.5" y="-62" font-family="Helvetica,sans-Serif" font-size="10.00">SCR_AddonListDialog</text>
</a>
</g>
</g>
<!-- Node2&#45;&gt;Node1 -->
<g id="edge1" class="edge">
<title>Node2&#45;&gt;Node1</title>
<path fill="none" stroke="#63b8ff" d="M70.5,-43.93C70.5,-35.53 70.5,-26.13 70.5,-19.44"/>
<polygon fill="#63b8ff" stroke="#63b8ff" points="67,-43.75 70.5,-53.75 74,-43.75 67,-43.75"/>
</g>
<!-- Node3 -->
<g id="node3" class="node">
<title>Node3</title>
<g id="a_node3"><a xlink:href="interfaceSCR__ConfigurableDialogUi.html" target="_top" xlink:title=" ">
<polygon fill="white" stroke="#666666" points="136,-129 5,-129 5,-110 136,-110 136,-129"/>
<text text-anchor="middle" x="70.5" y="-117" font-family="Helvetica,sans-Serif" font-size="10.00">SCR_ConfigurableDialogUi</text>
</a>
</g>
</g>
<!-- Node3&#45;&gt;Node2 -->
<g id="edge2" class="edge">
<title>Node3&#45;&gt;Node2</title>
<path fill="none" stroke="#63b8ff" d="M70.5,-98.93C70.5,-90.53 70.5,-81.13 70.5,-74.44"/>
<polygon fill="#63b8ff" stroke="#63b8ff" points="67,-98.75 70.5,-108.75 74,-98.75 67,-98.75"/>
</g>
<!-- Node4 -->
<g id="node4" class="node">
<title>Node4</title>
<g id="a_node4"><a xlink:title=" ">
<polygon fill="white" stroke="#666666" points="137,-184 4,-184 4,-165 137,-165 137,-184"/>
<text text-anchor="middle" x="70.5" y="-172" font-family="Helvetica,sans-Serif" font-size="10.00">ScriptedWidgetComponent</text>
</a>
</g>
</g>
<!-- Node4&#45;&gt;Node3 -->
<g id="edge3" class="edge">
<title>Node4&#45;&gt;Node3</title>
<path fill="none" stroke="#63b8ff" d="M70.5,-153.93C70.5,-145.53 70.5,-136.13 70.5,-129.44"/>
<polygon fill="#63b8ff" stroke="#63b8ff" points="67,-153.75 70.5,-163.75 74,-153.75 67,-153.75"/>
</g>
</g>
</svg>
