<?xml version="1.0" encoding="UTF-8" standalone="no"?>
<!DOCTYPE svg PUBLIC "-//W3C//DTD SVG 1.1//EN"
 "http://www.w3.org/Graphics/SVG/1.1/DTD/svg11.dtd">
<!-- Generated by graphviz version 8.0.2 (20230410.1723)
 -->
<!-- Title: SCR_DeployRequestUIBaseComponent Pages: 1 -->
<svg width="590pt" height="138pt"
 viewBox="0.00 0.00 590.00 138.00" xmlns="http://www.w3.org/2000/svg" xmlns:xlink="http://www.w3.org/1999/xlink">
<g id="graph0" class="graph" transform="scale(1 1) rotate(0) translate(4 134)">
<title>SCR_DeployRequestUIBaseComponent</title>
<!-- Node1 -->
<g id="node1" class="node">
<title>Node1</title>
<g id="a_node1"><a xlink:title=" ">
<polygon fill="#999999" stroke="#666666" points="358,-74 169,-74 169,-55 358,-55 358,-74"/>
<text text-anchor="middle" x="263.5" y="-62" font-family="Helvetica,sans-Serif" font-size="10.00">SCR_DeployRequestUIBaseComponent</text>
</a>
</g>
</g>
<!-- Node3 -->
<g id="node3" class="node">
<title>Node3</title>
<g id="a_node3"><a xlink:href="interfaceSCR__FactionRequestUIComponent.html" target="_top" xlink:title="Component responsible for displaying list of available factions and handling faction assign requests ...">
<polygon fill="white" stroke="#666666" points="572.5,-130 403.5,-130 403.5,-111 572.5,-111 572.5,-130"/>
<text text-anchor="middle" x="488" y="-118" font-family="Helvetica,sans-Serif" font-size="10.00">SCR_FactionRequestUIComponent</text>
</a>
</g>
</g>
<!-- Node1&#45;&gt;Node3 -->
<g id="edge2" class="edge">
<title>Node1&#45;&gt;Node3</title>
<path fill="none" stroke="#63b8ff" d="M305.75,-77.68C331.06,-85.5 364.22,-95.26 394,-102.5 405.99,-105.41 418.93,-108.16 431.24,-110.6"/>
<polygon fill="#63b8ff" stroke="#63b8ff" points="307,-74.1 296.42,-74.46 304.92,-80.78 307,-74.1"/>
</g>
<!-- Node4 -->
<g id="node4" class="node">
<title>Node4</title>
<g id="a_node4"><a xlink:href="interfaceSCR__GroupRequestUIComponent.html" target="_top" xlink:title="Component responsible for handling group requests and visualization in deploy menu.">
<polygon fill="white" stroke="#666666" points="569.5,-93 406.5,-93 406.5,-74 569.5,-74 569.5,-93"/>
<text text-anchor="middle" x="488" y="-81" font-family="Helvetica,sans-Serif" font-size="10.00">SCR_GroupRequestUIComponent</text>
</a>
</g>
</g>
<!-- Node1&#45;&gt;Node4 -->
<g id="edge3" class="edge">
<title>Node1&#45;&gt;Node4</title>
<path fill="none" stroke="#63b8ff" d="M369.09,-73.43C381.52,-74.49 394.06,-75.56 406.08,-76.59"/>
<polygon fill="#63b8ff" stroke="#63b8ff" points="369.48,-69.87 359.22,-72.5 368.88,-76.84 369.48,-69.87"/>
</g>
<!-- Node5 -->
<g id="node5" class="node">
<title>Node5</title>
<g id="a_node5"><a xlink:href="interfaceSCR__LoadoutRequestUIComponent.html" target="_top" xlink:title="Component responsible for requesting and visualization of available loadouts in deploy menu.">
<polygon fill="white" stroke="#666666" points="573.5,-56 402.5,-56 402.5,-37 573.5,-37 573.5,-56"/>
<text text-anchor="middle" x="488" y="-44" font-family="Helvetica,sans-Serif" font-size="10.00">SCR_LoadoutRequestUIComponent</text>
</a>
</g>
</g>
<!-- Node1&#45;&gt;Node5 -->
<g id="edge4" class="edge">
<title>Node1&#45;&gt;Node5</title>
<path fill="none" stroke="#63b8ff" d="M368.89,-56.06C380.06,-55.15 391.33,-54.24 402.24,-53.36"/>
<polygon fill="#63b8ff" stroke="#63b8ff" points="368.9,-52.62 359.22,-56.92 369.46,-59.6 368.9,-52.62"/>
</g>
<!-- Node6 -->
<g id="node6" class="node">
<title>Node6</title>
<g id="a_node6"><a xlink:href="interfaceSCR__SpawnPointRequestUIComponent.html" target="_top" xlink:title=" ">
<polygon fill="white" stroke="#666666" points="582,-19 394,-19 394,0 582,0 582,-19"/>
<text text-anchor="middle" x="488" y="-7" font-family="Helvetica,sans-Serif" font-size="10.00">SCR_SpawnPointRequestUIComponent</text>
</a>
</g>
</g>
<!-- Node1&#45;&gt;Node6 -->
<g id="edge5" class="edge">
<title>Node1&#45;&gt;Node6</title>
<path fill="none" stroke="#63b8ff" d="M306.8,-51.41C331.98,-43.87 364.65,-34.52 394,-27.5 406,-24.63 418.95,-21.9 431.26,-19.47"/>
<polygon fill="#63b8ff" stroke="#63b8ff" points="306.05,-48.28 297.49,-54.52 308.08,-54.98 306.05,-48.28"/>
</g>
<!-- Node2 -->
<g id="node2" class="node">
<title>Node2</title>
<g id="a_node2"><a xlink:title=" ">
<polygon fill="white" stroke="#666666" points="133,-74 0,-74 0,-55 133,-55 133,-74"/>
<text text-anchor="middle" x="66.5" y="-62" font-family="Helvetica,sans-Serif" font-size="10.00">ScriptedWidgetComponent</text>
</a>
</g>
</g>
<!-- Node2&#45;&gt;Node1 -->
<g id="edge1" class="edge">
<title>Node2&#45;&gt;Node1</title>
<path fill="none" stroke="#63b8ff" d="M144.09,-64.5C152.15,-64.5 160.41,-64.5 168.64,-64.5"/>
<polygon fill="#63b8ff" stroke="#63b8ff" points="144.25,-61 134.25,-64.5 144.25,-68 144.25,-61"/>
</g>
</g>
</svg>
