<?xml version="1.0" encoding="UTF-8" standalone="no"?>
<!DOCTYPE svg PUBLIC "-//W3C//DTD SVG 1.1//EN"
 "http://www.w3.org/Graphics/SVG/1.1/DTD/svg11.dtd">
<!-- Generated by graphviz version 8.0.2 (20230410.1723)
 -->
<!-- Title: ExtBaseInteractionHandlerComponentClass Pages: 1 -->
<svg width="178pt" height="346pt"
 viewBox="0.00 0.00 178.00 346.00" xmlns="http://www.w3.org/2000/svg" xmlns:xlink="http://www.w3.org/1999/xlink">
<g id="graph0" class="graph" transform="scale(1 1) rotate(0) translate(4 342)">
<title>ExtBaseInteractionHandlerComponentClass</title>
<!-- Node1 -->
<g id="node1" class="node">
<title>Node1</title>
<g id="a_node1"><a xlink:title=" ">
<polygon fill="#999999" stroke="#666666" points="151,-162 19,-162 19,-132 151,-132 151,-162"/>
<text text-anchor="start" x="27" y="-150" font-family="Helvetica,sans-Serif" font-size="10.00">ExtBaseInteractionHandler</text>
<text text-anchor="middle" x="85" y="-139" font-family="Helvetica,sans-Serif" font-size="10.00">ComponentClass</text>
</a>
</g>
</g>
<!-- Node5 -->
<g id="node5" class="node">
<title>Node5</title>
<g id="a_node5"><a xlink:href="interfaceInteractionHandlerComponentClass.html" target="_top" xlink:title=" ">
<polygon fill="white" stroke="#666666" points="157,-96 13,-96 13,-66 157,-66 157,-96"/>
<text text-anchor="start" x="21" y="-84" font-family="Helvetica,sans-Serif" font-size="10.00">InteractionHandlerComponent</text>
<text text-anchor="middle" x="85" y="-73" font-family="Helvetica,sans-Serif" font-size="10.00">Class</text>
</a>
</g>
</g>
<!-- Node1&#45;&gt;Node5 -->
<g id="edge4" class="edge">
<title>Node1&#45;&gt;Node5</title>
<path fill="none" stroke="#63b8ff" d="M85,-120.97C85,-112.55 85,-103.45 85,-96.16"/>
<polygon fill="#63b8ff" stroke="#63b8ff" points="81.5,-120.8 85,-130.8 88.5,-120.8 81.5,-120.8"/>
</g>
<!-- Node2 -->
<g id="node2" class="node">
<title>Node2</title>
<g id="a_node2"><a xlink:href="interfaceBaseInteractionHandlerComponentClass.html" target="_top" xlink:title=" ">
<polygon fill="white" stroke="#666666" points="168.5,-228 1.5,-228 1.5,-198 168.5,-198 168.5,-228"/>
<text text-anchor="start" x="9.5" y="-216" font-family="Helvetica,sans-Serif" font-size="10.00">BaseInteractionHandlerComponent</text>
<text text-anchor="middle" x="85" y="-205" font-family="Helvetica,sans-Serif" font-size="10.00">Class</text>
</a>
</g>
</g>
<!-- Node2&#45;&gt;Node1 -->
<g id="edge1" class="edge">
<title>Node2&#45;&gt;Node1</title>
<path fill="none" stroke="#63b8ff" d="M85,-186.97C85,-178.55 85,-169.45 85,-162.16"/>
<polygon fill="#63b8ff" stroke="#63b8ff" points="81.5,-186.8 85,-196.8 88.5,-186.8 81.5,-186.8"/>
</g>
<!-- Node3 -->
<g id="node3" class="node">
<title>Node3</title>
<g id="a_node3"><a xlink:href="interfaceGameComponentClass.html" target="_top" xlink:title=" ">
<polygon fill="white" stroke="#666666" points="143.5,-283 26.5,-283 26.5,-264 143.5,-264 143.5,-283"/>
<text text-anchor="middle" x="85" y="-271" font-family="Helvetica,sans-Serif" font-size="10.00">GameComponentClass</text>
</a>
</g>
</g>
<!-- Node3&#45;&gt;Node2 -->
<g id="edge2" class="edge">
<title>Node3&#45;&gt;Node2</title>
<path fill="none" stroke="#63b8ff" d="M85,-253.08C85,-244.92 85,-235.6 85,-228.11"/>
<polygon fill="#63b8ff" stroke="#63b8ff" points="81.5,-252.87 85,-262.87 88.5,-252.87 81.5,-252.87"/>
</g>
<!-- Node4 -->
<g id="node4" class="node">
<title>Node4</title>
<g id="a_node4"><a xlink:title=" ">
<polygon fill="white" stroke="#666666" points="147.5,-338 22.5,-338 22.5,-319 147.5,-319 147.5,-338"/>
<text text-anchor="middle" x="85" y="-326" font-family="Helvetica,sans-Serif" font-size="10.00">GenericComponentClass</text>
</a>
</g>
</g>
<!-- Node4&#45;&gt;Node3 -->
<g id="edge3" class="edge">
<title>Node4&#45;&gt;Node3</title>
<path fill="none" stroke="#63b8ff" d="M85,-307.93C85,-299.53 85,-290.13 85,-283.44"/>
<polygon fill="#63b8ff" stroke="#63b8ff" points="81.5,-307.75 85,-317.75 88.5,-307.75 81.5,-307.75"/>
</g>
<!-- Node6 -->
<g id="node6" class="node">
<title>Node6</title>
<g id="a_node6"><a xlink:href="interfaceSCR__InteractionHandlerComponentClass.html" target="_top" xlink:title=" ">
<polygon fill="white" stroke="#666666" points="170,-30 0,-30 0,0 170,0 170,-30"/>
<text text-anchor="start" x="8" y="-18" font-family="Helvetica,sans-Serif" font-size="10.00">SCR_InteractionHandlerComponent</text>
<text text-anchor="middle" x="85" y="-7" font-family="Helvetica,sans-Serif" font-size="10.00">Class</text>
</a>
</g>
</g>
<!-- Node5&#45;&gt;Node6 -->
<g id="edge5" class="edge">
<title>Node5&#45;&gt;Node6</title>
<path fill="none" stroke="#63b8ff" d="M85,-54.97C85,-46.55 85,-37.45 85,-30.16"/>
<polygon fill="#63b8ff" stroke="#63b8ff" points="81.5,-54.8 85,-64.8 88.5,-54.8 81.5,-54.8"/>
</g>
</g>
</svg>
