<?xml version="1.0" encoding="UTF-8" standalone="no"?>
<!DOCTYPE svg PUBLIC "-//W3C//DTD SVG 1.1//EN"
 "http://www.w3.org/Graphics/SVG/1.1/DTD/svg11.dtd">
<!-- Generated by graphviz version 8.0.2 (20230410.1723)
 -->
<!-- Title: SCR_PIPSightsComponent Pages: 1 -->
<svg width="143pt" height="302pt"
 viewBox="0.00 0.00 143.00 302.00" xmlns="http://www.w3.org/2000/svg" xmlns:xlink="http://www.w3.org/1999/xlink">
<g id="graph0" class="graph" transform="scale(1 1) rotate(0) translate(4 298)">
<title>SCR_PIPSightsComponent</title>
<!-- Node1 -->
<g id="node1" class="node">
<title>Node1</title>
<g id="a_node1"><a xlink:title=" ">
<polygon fill="#999999" stroke="#666666" points="135,-19 0,-19 0,0 135,0 135,-19"/>
<text text-anchor="middle" x="67.5" y="-7" font-family="Helvetica,sans-Serif" font-size="10.00">SCR_PIPSightsComponent</text>
</a>
</g>
</g>
<!-- Node2 -->
<g id="node2" class="node">
<title>Node2</title>
<g id="a_node2"><a xlink:href="interfaceScriptedSightsComponent.html" target="_top" xlink:title=" ">
<polygon fill="white" stroke="#666666" points="132.5,-74 2.5,-74 2.5,-55 132.5,-55 132.5,-74"/>
<text text-anchor="middle" x="67.5" y="-62" font-family="Helvetica,sans-Serif" font-size="10.00">ScriptedSightsComponent</text>
</a>
</g>
</g>
<!-- Node2&#45;&gt;Node1 -->
<g id="edge1" class="edge">
<title>Node2&#45;&gt;Node1</title>
<path fill="none" stroke="#63b8ff" d="M67.5,-43.93C67.5,-35.53 67.5,-26.13 67.5,-19.44"/>
<polygon fill="#63b8ff" stroke="#63b8ff" points="64,-43.75 67.5,-53.75 71,-43.75 64,-43.75"/>
</g>
<!-- Node3 -->
<g id="node3" class="node">
<title>Node3</title>
<g id="a_node3"><a xlink:href="interfaceSightsComponent.html" target="_top" xlink:title=" ">
<polygon fill="white" stroke="#666666" points="114.5,-129 20.5,-129 20.5,-110 114.5,-110 114.5,-129"/>
<text text-anchor="middle" x="67.5" y="-117" font-family="Helvetica,sans-Serif" font-size="10.00">SightsComponent</text>
</a>
</g>
</g>
<!-- Node3&#45;&gt;Node2 -->
<g id="edge2" class="edge">
<title>Node3&#45;&gt;Node2</title>
<path fill="none" stroke="#63b8ff" d="M67.5,-98.93C67.5,-90.53 67.5,-81.13 67.5,-74.44"/>
<polygon fill="#63b8ff" stroke="#63b8ff" points="64,-98.75 67.5,-108.75 71,-98.75 64,-98.75"/>
</g>
<!-- Node4 -->
<g id="node4" class="node">
<title>Node4</title>
<g id="a_node4"><a xlink:href="interfaceBaseSightsComponent.html" target="_top" xlink:title=" ">
<polygon fill="white" stroke="#666666" points="125.5,-184 9.5,-184 9.5,-165 125.5,-165 125.5,-184"/>
<text text-anchor="middle" x="67.5" y="-172" font-family="Helvetica,sans-Serif" font-size="10.00">BaseSightsComponent</text>
</a>
</g>
</g>
<!-- Node4&#45;&gt;Node3 -->
<g id="edge3" class="edge">
<title>Node4&#45;&gt;Node3</title>
<path fill="none" stroke="#63b8ff" d="M67.5,-153.93C67.5,-145.53 67.5,-136.13 67.5,-129.44"/>
<polygon fill="#63b8ff" stroke="#63b8ff" points="64,-153.75 67.5,-163.75 71,-153.75 64,-153.75"/>
</g>
<!-- Node5 -->
<g id="node5" class="node">
<title>Node5</title>
<g id="a_node5"><a xlink:href="interfaceGameComponent.html" target="_top" xlink:title=" ">
<polygon fill="white" stroke="#666666" points="113.5,-239 21.5,-239 21.5,-220 113.5,-220 113.5,-239"/>
<text text-anchor="middle" x="67.5" y="-227" font-family="Helvetica,sans-Serif" font-size="10.00">GameComponent</text>
</a>
</g>
</g>
<!-- Node5&#45;&gt;Node4 -->
<g id="edge4" class="edge">
<title>Node5&#45;&gt;Node4</title>
<path fill="none" stroke="#63b8ff" d="M67.5,-208.93C67.5,-200.53 67.5,-191.13 67.5,-184.44"/>
<polygon fill="#63b8ff" stroke="#63b8ff" points="64,-208.75 67.5,-218.75 71,-208.75 64,-208.75"/>
</g>
<!-- Node6 -->
<g id="node6" class="node">
<title>Node6</title>
<g id="a_node6"><a xlink:title=" ">
<polygon fill="white" stroke="#666666" points="117.5,-294 17.5,-294 17.5,-275 117.5,-275 117.5,-294"/>
<text text-anchor="middle" x="67.5" y="-282" font-family="Helvetica,sans-Serif" font-size="10.00">GenericComponent</text>
</a>
</g>
</g>
<!-- Node6&#45;&gt;Node5 -->
<g id="edge5" class="edge">
<title>Node6&#45;&gt;Node5</title>
<path fill="none" stroke="#63b8ff" d="M67.5,-263.93C67.5,-255.53 67.5,-246.13 67.5,-239.44"/>
<polygon fill="#63b8ff" stroke="#63b8ff" points="64,-263.75 67.5,-273.75 71,-263.75 64,-263.75"/>
</g>
</g>
</svg>
