<?xml version="1.0" encoding="UTF-8" standalone="no"?>
<!DOCTYPE svg PUBLIC "-//W3C//DTD SVG 1.1//EN"
 "http://www.w3.org/Graphics/SVG/1.1/DTD/svg11.dtd">
<!-- Generated by graphviz version 8.0.2 (20230410.1723)
 -->
<!-- Title: SCR_MapRulerUI Pages: 1 -->
<svg width="150pt" height="137pt"
 viewBox="0.00 0.00 150.00 137.00" xmlns="http://www.w3.org/2000/svg" xmlns:xlink="http://www.w3.org/1999/xlink">
<g id="graph0" class="graph" transform="scale(1 1) rotate(0) translate(4 133)">
<title>SCR_MapRulerUI</title>
<!-- Node1 -->
<g id="node1" class="node">
<title>Node1</title>
<g id="a_node1"><a xlink:title=" ">
<polygon fill="#999999" stroke="#666666" points="117,-19 25,-19 25,0 117,0 117,-19"/>
<text text-anchor="middle" x="71" y="-7" font-family="Helvetica,sans-Serif" font-size="10.00">SCR_MapRulerUI</text>
</a>
</g>
</g>
<!-- Node2 -->
<g id="node2" class="node">
<title>Node2</title>
<g id="a_node2"><a xlink:href="interfaceSCR__MapUIBaseComponent.html" target="_top" xlink:title=" ">
<polygon fill="white" stroke="#666666" points="142,-74 0,-74 0,-55 142,-55 142,-74"/>
<text text-anchor="middle" x="71" y="-62" font-family="Helvetica,sans-Serif" font-size="10.00">SCR_MapUIBaseComponent</text>
</a>
</g>
</g>
<!-- Node2&#45;&gt;Node1 -->
<g id="edge1" class="edge">
<title>Node2&#45;&gt;Node1</title>
<path fill="none" stroke="#63b8ff" d="M71,-43.93C71,-35.53 71,-26.13 71,-19.44"/>
<polygon fill="#63b8ff" stroke="#63b8ff" points="67.5,-43.75 71,-53.75 74.5,-43.75 67.5,-43.75"/>
</g>
<!-- Node3 -->
<g id="node3" class="node">
<title>Node3</title>
<g id="a_node3"><a xlink:title=" ">
<polygon fill="white" stroke="#666666" points="137.5,-129 4.5,-129 4.5,-110 137.5,-110 137.5,-129"/>
<text text-anchor="middle" x="71" y="-117" font-family="Helvetica,sans-Serif" font-size="10.00">ScriptedWidgetComponent</text>
</a>
</g>
</g>
<!-- Node3&#45;&gt;Node2 -->
<g id="edge2" class="edge">
<title>Node3&#45;&gt;Node2</title>
<path fill="none" stroke="#63b8ff" d="M71,-98.93C71,-90.53 71,-81.13 71,-74.44"/>
<polygon fill="#63b8ff" stroke="#63b8ff" points="67.5,-98.75 71,-108.75 74.5,-98.75 67.5,-98.75"/>
</g>
</g>
</svg>
