<?xml version="1.0" encoding="UTF-8" standalone="no"?>
<!DOCTYPE svg PUBLIC "-//W3C//DTD SVG 1.1//EN"
 "http://www.w3.org/Graphics/SVG/1.1/DTD/svg11.dtd">
<!-- Generated by graphviz version 8.0.2 (20230410.1723)
 -->
<!-- Title: SCR_MapMarkerEntryConfig Pages: 1 -->
<svg width="551pt" height="165pt"
 viewBox="0.00 0.00 551.00 164.50" xmlns="http://www.w3.org/2000/svg" xmlns:xlink="http://www.w3.org/1999/xlink">
<g id="graph0" class="graph" transform="scale(1 1) rotate(0) translate(4 160.5)">
<title>SCR_MapMarkerEntryConfig</title>
<!-- Node1 -->
<g id="node1" class="node">
<title>Node1</title>
<g id="a_node1"><a xlink:title="Base entry config.">
<polygon fill="#999999" stroke="#666666" points="141,-74 0,-74 0,-55 141,-55 141,-74"/>
<text text-anchor="middle" x="70.5" y="-62" font-family="Helvetica,sans-Serif" font-size="10.00">SCR_MapMarkerEntryConfig</text>
</a>
</g>
</g>
<!-- Node2 -->
<g id="node2" class="node">
<title>Node2</title>
<g id="a_node2"><a xlink:href="interfaceSCR__MapMarkerEntryDynamic.html" target="_top" xlink:title="Marker dynamic entry base.">
<polygon fill="white" stroke="#666666" points="332.5,-130 180.5,-130 180.5,-111 332.5,-111 332.5,-130"/>
<text text-anchor="middle" x="256.5" y="-118" font-family="Helvetica,sans-Serif" font-size="10.00">SCR_MapMarkerEntryDynamic</text>
</a>
</g>
</g>
<!-- Node1&#45;&gt;Node2 -->
<g id="edge1" class="edge">
<title>Node1&#45;&gt;Node2</title>
<path fill="none" stroke="#63b8ff" d="M107.33,-78.07C127.61,-85.49 153.54,-94.57 177,-101.5 187.89,-104.72 199.75,-107.8 210.87,-110.52"/>
<polygon fill="#63b8ff" stroke="#63b8ff" points="108.87,-74.54 98.28,-74.35 106.45,-81.1 108.87,-74.54"/>
</g>
<!-- Node5 -->
<g id="node5" class="node">
<title>Node5</title>
<g id="a_node5"><a xlink:href="interfaceSCR__MapMarkerEntryImageText.html" target="_top" xlink:title="Basic image &amp; text entry.">
<polygon fill="white" stroke="#666666" points="336,-93 177,-93 177,-74 336,-74 336,-93"/>
<text text-anchor="middle" x="256.5" y="-81" font-family="Helvetica,sans-Serif" font-size="10.00">SCR_MapMarkerEntryImageText</text>
</a>
</g>
</g>
<!-- Node1&#45;&gt;Node5 -->
<g id="edge4" class="edge">
<title>Node1&#45;&gt;Node5</title>
<path fill="none" stroke="#63b8ff" d="M152.04,-72.82C160.25,-73.66 168.6,-74.53 176.8,-75.37"/>
<polygon fill="#63b8ff" stroke="#63b8ff" points="152.63,-69.26 142.32,-71.71 151.91,-76.22 152.63,-69.26"/>
</g>
<!-- Node6 -->
<g id="node6" class="node">
<title>Node6</title>
<g id="a_node6"><a xlink:href="interfaceSCR__MapMarkerEntryMilitary.html" target="_top" xlink:title="Marker military symbol entry.">
<polygon fill="white" stroke="#666666" points="329.5,-56 183.5,-56 183.5,-37 329.5,-37 329.5,-56"/>
<text text-anchor="middle" x="256.5" y="-44" font-family="Helvetica,sans-Serif" font-size="10.00">SCR_MapMarkerEntryMilitary</text>
</a>
</g>
</g>
<!-- Node1&#45;&gt;Node6 -->
<g id="edge5" class="edge">
<title>Node1&#45;&gt;Node6</title>
<path fill="none" stroke="#63b8ff" d="M152.06,-56.62C162.45,-55.6 173.03,-54.57 183.28,-53.57"/>
<polygon fill="#63b8ff" stroke="#63b8ff" points="151.94,-53.21 142.32,-57.67 152.62,-60.18 151.94,-53.21"/>
</g>
<!-- Node7 -->
<g id="node7" class="node">
<title>Node7</title>
<g id="a_node7"><a xlink:href="interfaceSCR__MapMarkerEntryPlaced.html" target="_top" xlink:title="Marker entry which can be placed through map.">
<polygon fill="white" stroke="#666666" points="328.5,-19 184.5,-19 184.5,0 328.5,0 328.5,-19"/>
<text text-anchor="middle" x="256.5" y="-7" font-family="Helvetica,sans-Serif" font-size="10.00">SCR_MapMarkerEntryPlaced</text>
</a>
</g>
</g>
<!-- Node1&#45;&gt;Node7 -->
<g id="edge6" class="edge">
<title>Node1&#45;&gt;Node7</title>
<path fill="none" stroke="#63b8ff" d="M107.3,-50.83C127.57,-43.36 153.5,-34.29 177,-27.5 187.07,-24.59 197.98,-21.84 208.37,-19.4"/>
<polygon fill="#63b8ff" stroke="#63b8ff" points="106.41,-47.79 98.25,-54.56 108.85,-54.35 106.41,-47.79"/>
</g>
<!-- Node3 -->
<g id="node3" class="node">
<title>Node3</title>
<g id="a_node3"><a xlink:href="interfaceSCR__MapMarkerEntryDynamicExample.html" target="_top" xlink:title="Marker dynamic entry example Utilizes marker system to display player positions to everyone in the se...">
<polygon fill="white" stroke="#666666" points="533.5,-156.5 381.5,-156.5 381.5,-126.5 533.5,-126.5 533.5,-156.5"/>
<text text-anchor="start" x="389.5" y="-144.5" font-family="Helvetica,sans-Serif" font-size="10.00">SCR_MapMarkerEntryDynamic</text>
<text text-anchor="middle" x="457.5" y="-133.5" font-family="Helvetica,sans-Serif" font-size="10.00">Example</text>
</a>
</g>
</g>
<!-- Node2&#45;&gt;Node3 -->
<g id="edge2" class="edge">
<title>Node2&#45;&gt;Node3</title>
<path fill="none" stroke="#63b8ff" d="M343.62,-129.59C356.12,-130.91 368.9,-132.26 381.16,-133.55"/>
<polygon fill="#63b8ff" stroke="#63b8ff" points="344.05,-126.01 333.73,-128.44 343.31,-132.97 344.05,-126.01"/>
</g>
<!-- Node4 -->
<g id="node4" class="node">
<title>Node4</title>
<g id="a_node4"><a xlink:href="interfaceSCR__MapMarkerEntrySquadLeader.html" target="_top" xlink:title="Squad leader marker entry.">
<polygon fill="white" stroke="#666666" points="543,-108 372,-108 372,-89 543,-89 543,-108"/>
<text text-anchor="middle" x="457.5" y="-96" font-family="Helvetica,sans-Serif" font-size="10.00">SCR_MapMarkerEntrySquadLeader</text>
</a>
</g>
</g>
<!-- Node2&#45;&gt;Node4 -->
<g id="edge3" class="edge">
<title>Node2&#45;&gt;Node4</title>
<path fill="none" stroke="#63b8ff" d="M343.62,-110.98C352.97,-109.95 362.49,-108.89 371.83,-107.86"/>
<polygon fill="#63b8ff" stroke="#63b8ff" points="343.29,-107.61 333.73,-112.18 344.06,-114.56 343.29,-107.61"/>
</g>
</g>
</svg>
