<?xml version="1.0" encoding="UTF-8" standalone="no"?>
<!DOCTYPE svg PUBLIC "-//W3C//DTD SVG 1.1//EN"
 "http://www.w3.org/Graphics/SVG/1.1/DTD/svg11.dtd">
<!-- Generated by graphviz version 8.0.2 (20230410.1723)
 -->
<!-- Title: SCR_ArmorDamageManagerComponentClass Pages: 1 -->
<svg width="199pt" height="335pt"
 viewBox="0.00 0.00 199.00 335.00" xmlns="http://www.w3.org/2000/svg" xmlns:xlink="http://www.w3.org/1999/xlink">
<g id="graph0" class="graph" transform="scale(1 1) rotate(0) translate(4 331)">
<title>SCR_ArmorDamageManagerComponentClass</title>
<!-- Node1 -->
<g id="node1" class="node">
<title>Node1</title>
<g id="a_node1"><a xlink:title=" ">
<polygon fill="#999999" stroke="#666666" points="191,-30 0,-30 0,0 191,0 191,-30"/>
<text text-anchor="start" x="8" y="-18" font-family="Helvetica,sans-Serif" font-size="10.00">SCR_ArmorDamageManagerComponent</text>
<text text-anchor="middle" x="95.5" y="-7" font-family="Helvetica,sans-Serif" font-size="10.00">Class</text>
</a>
</g>
</g>
<!-- Node2 -->
<g id="node2" class="node">
<title>Node2</title>
<g id="a_node2"><a xlink:href="interfaceSCR__DamageManagerComponentClass.html" target="_top" xlink:title=" ">
<polygon fill="white" stroke="#666666" points="178,-96 13,-96 13,-66 178,-66 178,-96"/>
<text text-anchor="start" x="21" y="-84" font-family="Helvetica,sans-Serif" font-size="10.00">SCR_DamageManagerComponent</text>
<text text-anchor="middle" x="95.5" y="-73" font-family="Helvetica,sans-Serif" font-size="10.00">Class</text>
</a>
</g>
</g>
<!-- Node2&#45;&gt;Node1 -->
<g id="edge1" class="edge">
<title>Node2&#45;&gt;Node1</title>
<path fill="none" stroke="#63b8ff" d="M95.5,-54.97C95.5,-46.55 95.5,-37.45 95.5,-30.16"/>
<polygon fill="#63b8ff" stroke="#63b8ff" points="92,-54.8 95.5,-64.8 99,-54.8 92,-54.8"/>
</g>
<!-- Node3 -->
<g id="node3" class="node">
<title>Node3</title>
<g id="a_node3"><a xlink:href="interfaceDamageManagerComponentClass.html" target="_top" xlink:title=" ">
<polygon fill="white" stroke="#666666" points="177.5,-151 13.5,-151 13.5,-132 177.5,-132 177.5,-151"/>
<text text-anchor="middle" x="95.5" y="-139" font-family="Helvetica,sans-Serif" font-size="10.00">DamageManagerComponentClass</text>
</a>
</g>
</g>
<!-- Node3&#45;&gt;Node2 -->
<g id="edge2" class="edge">
<title>Node3&#45;&gt;Node2</title>
<path fill="none" stroke="#63b8ff" d="M95.5,-121.08C95.5,-112.92 95.5,-103.6 95.5,-96.11"/>
<polygon fill="#63b8ff" stroke="#63b8ff" points="92,-120.87 95.5,-130.87 99,-120.87 92,-120.87"/>
</g>
<!-- Node4 -->
<g id="node4" class="node">
<title>Node4</title>
<g id="a_node4"><a xlink:href="interfaceHitZoneContainerComponentClass.html" target="_top" xlink:title=" ">
<polygon fill="white" stroke="#666666" points="165.5,-217 25.5,-217 25.5,-187 165.5,-187 165.5,-217"/>
<text text-anchor="start" x="33.5" y="-205" font-family="Helvetica,sans-Serif" font-size="10.00">HitZoneContainerComponent</text>
<text text-anchor="middle" x="95.5" y="-194" font-family="Helvetica,sans-Serif" font-size="10.00">Class</text>
</a>
</g>
</g>
<!-- Node4&#45;&gt;Node3 -->
<g id="edge3" class="edge">
<title>Node4&#45;&gt;Node3</title>
<path fill="none" stroke="#63b8ff" d="M95.5,-175.59C95.5,-166.85 95.5,-157.65 95.5,-151.18"/>
<polygon fill="#63b8ff" stroke="#63b8ff" points="92,-175.54 95.5,-185.54 99,-175.54 92,-175.54"/>
</g>
<!-- Node5 -->
<g id="node5" class="node">
<title>Node5</title>
<g id="a_node5"><a xlink:href="interfaceGameComponentClass.html" target="_top" xlink:title=" ">
<polygon fill="white" stroke="#666666" points="154,-272 37,-272 37,-253 154,-253 154,-272"/>
<text text-anchor="middle" x="95.5" y="-260" font-family="Helvetica,sans-Serif" font-size="10.00">GameComponentClass</text>
</a>
</g>
</g>
<!-- Node5&#45;&gt;Node4 -->
<g id="edge4" class="edge">
<title>Node5&#45;&gt;Node4</title>
<path fill="none" stroke="#63b8ff" d="M95.5,-242.08C95.5,-233.92 95.5,-224.6 95.5,-217.11"/>
<polygon fill="#63b8ff" stroke="#63b8ff" points="92,-241.87 95.5,-251.87 99,-241.87 92,-241.87"/>
</g>
<!-- Node6 -->
<g id="node6" class="node">
<title>Node6</title>
<g id="a_node6"><a xlink:title=" ">
<polygon fill="white" stroke="#666666" points="158,-327 33,-327 33,-308 158,-308 158,-327"/>
<text text-anchor="middle" x="95.5" y="-315" font-family="Helvetica,sans-Serif" font-size="10.00">GenericComponentClass</text>
</a>
</g>
</g>
<!-- Node6&#45;&gt;Node5 -->
<g id="edge5" class="edge">
<title>Node6&#45;&gt;Node5</title>
<path fill="none" stroke="#63b8ff" d="M95.5,-296.93C95.5,-288.53 95.5,-279.13 95.5,-272.44"/>
<polygon fill="#63b8ff" stroke="#63b8ff" points="92,-296.75 95.5,-306.75 99,-296.75 92,-296.75"/>
</g>
</g>
</svg>
