<?xml version="1.0" encoding="UTF-8" standalone="no"?>
<!DOCTYPE svg PUBLIC "-//W3C//DTD SVG 1.1//EN"
 "http://www.w3.org/Graphics/SVG/1.1/DTD/svg11.dtd">
<!-- Generated by graphviz version 8.0.2 (20230410.1723)
 -->
<!-- Title: SCR_ResourceInteractor Pages: 1 -->
<svg width="438pt" height="258pt"
 viewBox="0.00 0.00 438.00 258.00" xmlns="http://www.w3.org/2000/svg" xmlns:xlink="http://www.w3.org/1999/xlink">
<g id="graph0" class="graph" transform="scale(1 1) rotate(0) translate(4 254)">
<title>SCR_ResourceInteractor</title>
<!-- Node1 -->
<g id="node1" class="node">
<title>Node1</title>
<g id="a_node1"><a xlink:title=" ">
<polygon fill="#999999" stroke="#666666" points="278,-140 154,-140 154,-121 278,-121 278,-140"/>
<text text-anchor="middle" x="216" y="-128" font-family="Helvetica,sans-Serif" font-size="10.00">SCR_ResourceInteractor</text>
</a>
</g>
</g>
<!-- Node4 -->
<g id="node4" class="node">
<title>Node4</title>
<g id="a_node4"><a xlink:href="interfaceSCR__ResourceConsumer.html" target="_top" xlink:title=" ">
<polygon fill="white" stroke="#666666" points="128,-85 0,-85 0,-66 128,-66 128,-85"/>
<text text-anchor="middle" x="64" y="-73" font-family="Helvetica,sans-Serif" font-size="10.00">SCR_ResourceConsumer</text>
</a>
</g>
</g>
<!-- Node1&#45;&gt;Node4 -->
<g id="edge3" class="edge">
<title>Node1&#45;&gt;Node4</title>
<path fill="none" stroke="#63b8ff" d="M180.1,-116.98C152.3,-107.29 114.47,-94.1 89.66,-85.45"/>
<polygon fill="#63b8ff" stroke="#63b8ff" points="178.62,-120.52 189.22,-120.51 180.93,-113.91 178.62,-120.52"/>
</g>
<!-- Node5 -->
<g id="node5" class="node">
<title>Node5</title>
<g id="a_node5"><a xlink:href="interfaceSCR__ResourceEncapsulator.html" target="_top" xlink:title=" ">
<polygon fill="white" stroke="#666666" points="286,-85 146,-85 146,-66 286,-66 286,-85"/>
<text text-anchor="middle" x="216" y="-73" font-family="Helvetica,sans-Serif" font-size="10.00">SCR_ResourceEncapsulator</text>
</a>
</g>
</g>
<!-- Node1&#45;&gt;Node5 -->
<g id="edge4" class="edge">
<title>Node1&#45;&gt;Node5</title>
<path fill="none" stroke="#63b8ff" d="M216,-109.93C216,-101.53 216,-92.13 216,-85.44"/>
<polygon fill="#63b8ff" stroke="#63b8ff" points="212.5,-109.75 216,-119.75 219.5,-109.75 212.5,-109.75"/>
</g>
<!-- Node8 -->
<g id="node8" class="node">
<title>Node8</title>
<g id="a_node8"><a xlink:href="interfaceSCR__ResourceGenerator.html" target="_top" xlink:title=" ">
<polygon fill="white" stroke="#666666" points="430,-85 304,-85 304,-66 430,-66 430,-85"/>
<text text-anchor="middle" x="367" y="-73" font-family="Helvetica,sans-Serif" font-size="10.00">SCR_ResourceGenerator</text>
</a>
</g>
</g>
<!-- Node1&#45;&gt;Node8 -->
<g id="edge7" class="edge">
<title>Node1&#45;&gt;Node8</title>
<path fill="none" stroke="#63b8ff" d="M251.66,-116.98C279.28,-107.29 316.86,-94.1 341.51,-85.45"/>
<polygon fill="#63b8ff" stroke="#63b8ff" points="250.89,-113.89 242.62,-120.51 253.21,-120.5 250.89,-113.89"/>
</g>
<!-- Node2 -->
<g id="node2" class="node">
<title>Node2</title>
<g id="a_node2"><a xlink:href="interfaceSCR__ResourceActor.html" target="_top" xlink:title=" ">
<polygon fill="white" stroke="#666666" points="269.5,-195 162.5,-195 162.5,-176 269.5,-176 269.5,-195"/>
<text text-anchor="middle" x="216" y="-183" font-family="Helvetica,sans-Serif" font-size="10.00">SCR_ResourceActor</text>
</a>
</g>
</g>
<!-- Node2&#45;&gt;Node1 -->
<g id="edge1" class="edge">
<title>Node2&#45;&gt;Node1</title>
<path fill="none" stroke="#63b8ff" d="M216,-164.93C216,-156.53 216,-147.13 216,-140.44"/>
<polygon fill="#63b8ff" stroke="#63b8ff" points="212.5,-164.75 216,-174.75 219.5,-164.75 212.5,-164.75"/>
</g>
<!-- Node3 -->
<g id="node3" class="node">
<title>Node3</title>
<g id="a_node3"><a xlink:title=" ">
<polygon fill="white" stroke="#666666" points="259,-250 173,-250 173,-231 259,-231 259,-250"/>
<text text-anchor="middle" x="216" y="-238" font-family="Helvetica,sans-Serif" font-size="10.00">ScriptAndConfig</text>
</a>
</g>
</g>
<!-- Node3&#45;&gt;Node2 -->
<g id="edge2" class="edge">
<title>Node3&#45;&gt;Node2</title>
<path fill="none" stroke="#63b8ff" d="M216,-219.93C216,-211.53 216,-202.13 216,-195.44"/>
<polygon fill="#63b8ff" stroke="#63b8ff" points="212.5,-219.75 216,-229.75 219.5,-219.75 212.5,-219.75"/>
</g>
<!-- Node6 -->
<g id="node6" class="node">
<title>Node6</title>
<g id="a_node6"><a xlink:href="interfaceSCR__ResourceEncapsulatorAssimilated.html" target="_top" xlink:title=" ">
<polygon fill="white" stroke="#666666" points="207,-30 67,-30 67,0 207,0 207,-30"/>
<text text-anchor="start" x="75" y="-18" font-family="Helvetica,sans-Serif" font-size="10.00">SCR_ResourceEncapsulator</text>
<text text-anchor="middle" x="137" y="-7" font-family="Helvetica,sans-Serif" font-size="10.00">Assimilated</text>
</a>
</g>
</g>
<!-- Node5&#45;&gt;Node6 -->
<g id="edge5" class="edge">
<title>Node5&#45;&gt;Node6</title>
<path fill="none" stroke="#63b8ff" d="M195.51,-59.33C183.48,-50.42 168.36,-39.22 156.5,-30.44"/>
<polygon fill="#63b8ff" stroke="#63b8ff" points="192.88,-62.48 203,-65.62 197.05,-56.85 192.88,-62.48"/>
</g>
<!-- Node7 -->
<g id="node7" class="node">
<title>Node7</title>
<g id="a_node7"><a xlink:href="interfaceSCR__ResourceEncapsulatorDelegated.html" target="_top" xlink:title=" ">
<polygon fill="white" stroke="#666666" points="365,-30 225,-30 225,0 365,0 365,-30"/>
<text text-anchor="start" x="233" y="-18" font-family="Helvetica,sans-Serif" font-size="10.00">SCR_ResourceEncapsulator</text>
<text text-anchor="middle" x="295" y="-7" font-family="Helvetica,sans-Serif" font-size="10.00">Delegated</text>
</a>
</g>
</g>
<!-- Node5&#45;&gt;Node7 -->
<g id="edge6" class="edge">
<title>Node5&#45;&gt;Node7</title>
<path fill="none" stroke="#63b8ff" d="M236.49,-59.33C248.52,-50.42 263.64,-39.22 275.5,-30.44"/>
<polygon fill="#63b8ff" stroke="#63b8ff" points="234.95,-56.85 229,-65.62 239.12,-62.48 234.95,-56.85"/>
</g>
</g>
</svg>
