<?xml version="1.0" encoding="UTF-8" standalone="no"?>
<!DOCTYPE svg PUBLIC "-//W3C//DTD SVG 1.1//EN"
 "http://www.w3.org/Graphics/SVG/1.1/DTD/svg11.dtd">
<!-- Generated by graphviz version 8.0.2 (20230410.1723)
 -->
<!-- Title: DialogUI Pages: 1 -->
<svg width="483pt" height="409pt"
 viewBox="0.00 0.00 483.00 409.00" xmlns="http://www.w3.org/2000/svg" xmlns:xlink="http://www.w3.org/1999/xlink">
<g id="graph0" class="graph" transform="scale(1 1) rotate(0) translate(4 405)">
<title>DialogUI</title>
<!-- Node1 -->
<g id="node1" class="node">
<title>Node1</title>
<g id="a_node1"><a xlink:title=" ">
<polygon fill="#999999" stroke="#666666" points="287,-216 234,-216 234,-197 287,-197 287,-216"/>
<text text-anchor="middle" x="260.5" y="-204" font-family="Helvetica,sans-Serif" font-size="10.00">DialogUI</text>
</a>
</g>
</g>
<!-- Node4 -->
<g id="node4" class="node">
<title>Node4</title>
<g id="a_node4"><a xlink:href="interfaceErrorDialogUI.html" target="_top" xlink:title=" ">
<polygon fill="white" stroke="#666666" points="436,-401 362,-401 362,-382 436,-382 436,-401"/>
<text text-anchor="middle" x="399" y="-389" font-family="Helvetica,sans-Serif" font-size="10.00">ErrorDialogUI</text>
</a>
</g>
</g>
<!-- Node1&#45;&gt;Node4 -->
<g id="edge3" class="edge">
<title>Node1&#45;&gt;Node4</title>
<path fill="none" stroke="#63b8ff" d="M262.98,-227C266.67,-262.36 279.42,-334.75 323,-373.5 333.61,-382.93 348.29,-387.64 361.85,-389.92"/>
<polygon fill="#63b8ff" stroke="#63b8ff" points="266.39,-226.8 262.02,-217.15 259.41,-227.42 266.39,-226.8"/>
</g>
<!-- Node5 -->
<g id="node5" class="node">
<title>Node5</title>
<g id="a_node5"><a xlink:href="interfaceFeedbackDialogUI.html" target="_top" xlink:title=" ">
<polygon fill="white" stroke="#666666" points="446.5,-364 351.5,-364 351.5,-345 446.5,-345 446.5,-364"/>
<text text-anchor="middle" x="399" y="-352" font-family="Helvetica,sans-Serif" font-size="10.00">FeedbackDialogUI</text>
</a>
</g>
</g>
<!-- Node1&#45;&gt;Node5 -->
<g id="edge4" class="edge">
<title>Node1&#45;&gt;Node5</title>
<path fill="none" stroke="#63b8ff" d="M265.4,-226.92C272.01,-255.82 288.25,-308.27 323,-336.5 331,-343 340.98,-347.22 351.01,-349.94"/>
<polygon fill="#63b8ff" stroke="#63b8ff" points="268.68,-226.5 263.19,-217.44 261.83,-227.94 268.68,-226.5"/>
</g>
<!-- Node6 -->
<g id="node6" class="node">
<title>Node6</title>
<g id="a_node6"><a xlink:href="interfaceGroupSettingsDialogUI.html" target="_top" xlink:title=" ">
<polygon fill="white" stroke="#666666" points="456.5,-327 341.5,-327 341.5,-308 456.5,-308 456.5,-327"/>
<text text-anchor="middle" x="399" y="-315" font-family="Helvetica,sans-Serif" font-size="10.00">GroupSettingsDialogUI</text>
</a>
</g>
</g>
<!-- Node1&#45;&gt;Node6 -->
<g id="edge5" class="edge">
<title>Node1&#45;&gt;Node6</title>
<path fill="none" stroke="#63b8ff" d="M269.34,-226.37C278.81,-247.76 296.81,-281.15 323,-299.5 328.48,-303.34 334.69,-306.37 341.12,-308.75"/>
<polygon fill="#63b8ff" stroke="#63b8ff" points="272.26,-225.3 265.16,-217.43 265.81,-228.01 272.26,-225.3"/>
</g>
<!-- Node7 -->
<g id="node7" class="node">
<title>Node7</title>
<g id="a_node7"><a xlink:href="interfaceNewsDialogUI.html" target="_top" xlink:title=" ">
<polygon fill="white" stroke="#666666" points="437.5,-290 360.5,-290 360.5,-271 437.5,-271 437.5,-290"/>
<text text-anchor="middle" x="399" y="-278" font-family="Helvetica,sans-Serif" font-size="10.00">NewsDialogUI</text>
</a>
</g>
</g>
<!-- Node1&#45;&gt;Node7 -->
<g id="edge6" class="edge">
<title>Node1&#45;&gt;Node7</title>
<path fill="none" stroke="#63b8ff" d="M276.6,-224.38C288.09,-236.86 304.96,-252.94 323,-262.5 334.36,-268.52 347.75,-272.55 360.04,-275.25"/>
<polygon fill="#63b8ff" stroke="#63b8ff" points="279.81,-222.6 270.55,-217.44 274.57,-227.24 279.81,-222.6"/>
</g>
<!-- Node8 -->
<g id="node8" class="node">
<title>Node8</title>
<g id="a_node8"><a xlink:href="interfaceReportDialogUI.html" target="_top" xlink:title=" ">
<polygon fill="white" stroke="#666666" points="439.5,-253 358.5,-253 358.5,-234 439.5,-234 439.5,-253"/>
<text text-anchor="middle" x="399" y="-241" font-family="Helvetica,sans-Serif" font-size="10.00">ReportDialogUI</text>
</a>
</g>
</g>
<!-- Node1&#45;&gt;Node8 -->
<g id="edge7" class="edge">
<title>Node1&#45;&gt;Node8</title>
<path fill="none" stroke="#63b8ff" d="M297.88,-218.16C306.11,-220.68 314.83,-223.26 323,-225.5 334.36,-228.62 346.78,-231.72 358.18,-234.44"/>
<polygon fill="#63b8ff" stroke="#63b8ff" points="299.01,-214.54 288.43,-214.91 296.94,-221.22 299.01,-214.54"/>
</g>
<!-- Node9 -->
<g id="node9" class="node">
<title>Node9</title>
<g id="a_node9"><a xlink:href="interfaceSCR__AddonExportDialog.html" target="_top" xlink:title=" ">
<polygon fill="white" stroke="#666666" points="461.5,-216 336.5,-216 336.5,-197 461.5,-197 461.5,-216"/>
<text text-anchor="middle" x="399" y="-204" font-family="Helvetica,sans-Serif" font-size="10.00">SCR_AddonExportDialog</text>
</a>
</g>
</g>
<!-- Node1&#45;&gt;Node9 -->
<g id="edge8" class="edge">
<title>Node1&#45;&gt;Node9</title>
<path fill="none" stroke="#63b8ff" d="M298.17,-206.5C309.87,-206.5 323.16,-206.5 336.14,-206.5"/>
<polygon fill="#63b8ff" stroke="#63b8ff" points="298.5,-203 288.5,-206.5 298.5,-210 298.5,-203"/>
</g>
<!-- Node10 -->
<g id="node10" class="node">
<title>Node10</title>
<g id="a_node10"><a xlink:href="interfaceSCR__AddonsToolDialog.html" target="_top" xlink:title="Dialog with multiple addons tool for addons manager.">
<polygon fill="white" stroke="#666666" points="459,-179 339,-179 339,-160 459,-160 459,-179"/>
<text text-anchor="middle" x="399" y="-167" font-family="Helvetica,sans-Serif" font-size="10.00">SCR_AddonsToolDialog</text>
</a>
</g>
</g>
<!-- Node1&#45;&gt;Node10 -->
<g id="edge9" class="edge">
<title>Node1&#45;&gt;Node10</title>
<path fill="none" stroke="#63b8ff" d="M297.88,-194.84C306.11,-192.32 314.83,-189.74 323,-187.5 333.07,-184.74 343.97,-181.99 354.25,-179.5"/>
<polygon fill="#63b8ff" stroke="#63b8ff" points="296.94,-191.78 288.43,-198.09 299.01,-198.46 296.94,-191.78"/>
</g>
<!-- Node11 -->
<g id="node11" class="node">
<title>Node11</title>
<g id="a_node11"><a xlink:href="interfaceSCR__ConfigurableDialogUiProxy.html" target="_top" xlink:title="It is here to expose the Menu API to the configurable dialog instance.">
<polygon fill="white" stroke="#666666" points="464.5,-141.5 333.5,-141.5 333.5,-111.5 464.5,-111.5 464.5,-141.5"/>
<text text-anchor="start" x="341.5" y="-129.5" font-family="Helvetica,sans-Serif" font-size="10.00">SCR_ConfigurableDialogUi</text>
<text text-anchor="middle" x="399" y="-118.5" font-family="Helvetica,sans-Serif" font-size="10.00">Proxy</text>
</a>
</g>
</g>
<!-- Node1&#45;&gt;Node11 -->
<g id="edge10" class="edge">
<title>Node1&#45;&gt;Node11</title>
<path fill="none" stroke="#63b8ff" d="M276.82,-189.02C288.42,-176.73 305.33,-160.72 323,-150.5 328.56,-147.28 334.61,-144.44 340.78,-141.94"/>
<polygon fill="#63b8ff" stroke="#63b8ff" points="274.85,-186.07 270.69,-195.81 280.02,-190.79 274.85,-186.07"/>
</g>
<!-- Node12 -->
<g id="node12" class="node">
<title>Node12</title>
<g id="a_node12"><a xlink:href="interfaceSCR__GamepadRemovalUI.html" target="_top" xlink:title="Dialog displayed when the gamepad is removed.">
<polygon fill="white" stroke="#666666" points="464,-93 334,-93 334,-74 464,-74 464,-93"/>
<text text-anchor="middle" x="399" y="-81" font-family="Helvetica,sans-Serif" font-size="10.00">SCR_GamepadRemovalUI</text>
</a>
</g>
</g>
<!-- Node1&#45;&gt;Node12 -->
<g id="edge11" class="edge">
<title>Node1&#45;&gt;Node12</title>
<path fill="none" stroke="#63b8ff" d="M267.97,-186.47C276.66,-162.79 294.42,-123.89 323,-102.5 327.95,-98.8 333.54,-95.81 339.38,-93.41"/>
<polygon fill="#63b8ff" stroke="#63b8ff" points="264.38,-185.14 264.42,-195.74 271,-187.43 264.38,-185.14"/>
</g>
<!-- Node13 -->
<g id="node13" class="node">
<title>Node13</title>
<g id="a_node13"><a xlink:href="interfaceSCR__GroupFlagSelectionMenu.html" target="_top" xlink:title=" ">
<polygon fill="white" stroke="#666666" points="475,-56 323,-56 323,-37 475,-37 475,-56"/>
<text text-anchor="middle" x="399" y="-44" font-family="Helvetica,sans-Serif" font-size="10.00">SCR_GroupFlagSelectionMenu</text>
</a>
</g>
</g>
<!-- Node1&#45;&gt;Node13 -->
<g id="edge12" class="edge">
<title>Node1&#45;&gt;Node13</title>
<path fill="none" stroke="#63b8ff" d="M264.49,-186.03C270.15,-154.93 285.41,-96.08 323,-64.5 326.79,-61.31 331.06,-58.67 335.58,-56.48"/>
<polygon fill="#63b8ff" stroke="#63b8ff" points="260.89,-185.38 262.72,-195.82 267.79,-186.52 260.89,-185.38"/>
</g>
<!-- Node14 -->
<g id="node14" class="node">
<title>Node14</title>
<g id="a_node14"><a xlink:href="interfaceWelcomeDialogUI.html" target="_top" xlink:title=" ">
<polygon fill="white" stroke="#666666" points="446,-19 352,-19 352,0 446,0 446,-19"/>
<text text-anchor="middle" x="399" y="-7" font-family="Helvetica,sans-Serif" font-size="10.00">WelcomeDialogUI</text>
</a>
</g>
</g>
<!-- Node1&#45;&gt;Node14 -->
<g id="edge13" class="edge">
<title>Node1&#45;&gt;Node14</title>
<path fill="none" stroke="#63b8ff" d="M262.39,-186.08C265.15,-148.82 276.48,-69.78 323,-27.5 330.93,-20.29 341.22,-15.84 351.64,-13.11"/>
<polygon fill="#63b8ff" stroke="#63b8ff" points="258.86,-185.42 261.76,-195.61 265.85,-185.83 258.86,-185.42"/>
</g>
<!-- Node2 -->
<g id="node2" class="node">
<title>Node2</title>
<g id="a_node2"><a xlink:href="interfaceChimeraMenuBase.html" target="_top" xlink:title="Constant variables used in various menus.">
<polygon fill="white" stroke="#666666" points="198,-216 99,-216 99,-197 198,-197 198,-216"/>
<text text-anchor="middle" x="148.5" y="-204" font-family="Helvetica,sans-Serif" font-size="10.00">ChimeraMenuBase</text>
</a>
</g>
</g>
<!-- Node2&#45;&gt;Node1 -->
<g id="edge1" class="edge">
<title>Node2&#45;&gt;Node1</title>
<path fill="none" stroke="#63b8ff" d="M209.27,-206.5C217.84,-206.5 226.25,-206.5 233.67,-206.5"/>
<polygon fill="#63b8ff" stroke="#63b8ff" points="209.39,-203 199.39,-206.5 209.39,-210 209.39,-203"/>
</g>
<!-- Node3 -->
<g id="node3" class="node">
<title>Node3</title>
<g id="a_node3"><a xlink:title=" ">
<polygon fill="white" stroke="#666666" points="63,-216 0,-216 0,-197 63,-197 63,-216"/>
<text text-anchor="middle" x="31.5" y="-204" font-family="Helvetica,sans-Serif" font-size="10.00">MenuBase</text>
</a>
</g>
</g>
<!-- Node3&#45;&gt;Node2 -->
<g id="edge2" class="edge">
<title>Node3&#45;&gt;Node2</title>
<path fill="none" stroke="#63b8ff" d="M74.24,-206.5C82.22,-206.5 90.64,-206.5 98.82,-206.5"/>
<polygon fill="#63b8ff" stroke="#63b8ff" points="74.32,-203 64.32,-206.5 74.32,-210 74.32,-203"/>
</g>
</g>
</svg>
