<?xml version="1.0" encoding="UTF-8" standalone="no"?>
<!DOCTYPE svg PUBLIC "-//W3C//DTD SVG 1.1//EN"
 "http://www.w3.org/Graphics/SVG/1.1/DTD/svg11.dtd">
<!-- Generated by graphviz version 8.0.2 (20230410.1723)
 -->
<!-- Title: SCR_ScenarioFrameworkSlotBase Pages: 1 -->
<svg width="1124pt" height="321pt"
 viewBox="0.00 0.00 1124.00 321.00" xmlns="http://www.w3.org/2000/svg" xmlns:xlink="http://www.w3.org/1999/xlink">
<g id="graph0" class="graph" transform="scale(1 1) rotate(0) translate(4 317)">
<title>SCR_ScenarioFrameworkSlotBase</title>
<!-- Node1 -->
<g id="node1" class="node">
<title>Node1</title>
<g id="a_node1"><a xlink:title=" ">
<polygon fill="#999999" stroke="#666666" points="507,-174 339,-174 339,-155 507,-155 507,-174"/>
<text text-anchor="middle" x="423" y="-162" font-family="Helvetica,sans-Serif" font-size="10.00">SCR_ScenarioFrameworkSlotBase</text>
</a>
</g>
</g>
<!-- Node4 -->
<g id="node4" class="node">
<title>Node4</title>
<g id="a_node4"><a xlink:href="interfaceSCR__ScenarioFrameworkSlotAI.html" target="_top" xlink:title=" ">
<polygon fill="white" stroke="#666666" points="704,-286 549,-286 549,-267 704,-267 704,-286"/>
<text text-anchor="middle" x="626.5" y="-274" font-family="Helvetica,sans-Serif" font-size="10.00">SCR_ScenarioFrameworkSlotAI</text>
</a>
</g>
</g>
<!-- Node1&#45;&gt;Node4 -->
<g id="edge3" class="edge">
<title>Node1&#45;&gt;Node4</title>
<path fill="none" stroke="#63b8ff" d="M450.82,-179.74C474.9,-193.38 511.25,-213.9 543,-231.5 564.98,-243.68 590.37,-257.49 607.11,-266.56"/>
<polygon fill="#63b8ff" stroke="#63b8ff" points="452.73,-176.23 442.3,-174.34 449.27,-182.32 452.73,-176.23"/>
</g>
<!-- Node6 -->
<g id="node6" class="node">
<title>Node6</title>
<g id="a_node6"><a xlink:href="interfaceSCR__ScenarioFrameworkSlotMarker.html" target="_top" xlink:title=" ">
<polygon fill="white" stroke="#666666" points="699.5,-222.5 553.5,-222.5 553.5,-192.5 699.5,-192.5 699.5,-222.5"/>
<text text-anchor="start" x="561.5" y="-210.5" font-family="Helvetica,sans-Serif" font-size="10.00">SCR_ScenarioFrameworkSlot</text>
<text text-anchor="middle" x="626.5" y="-199.5" font-family="Helvetica,sans-Serif" font-size="10.00">Marker</text>
</a>
</g>
</g>
<!-- Node1&#45;&gt;Node6 -->
<g id="edge5" class="edge">
<title>Node1&#45;&gt;Node6</title>
<path fill="none" stroke="#63b8ff" d="M481.42,-176.75C503.81,-181.53 529.73,-187.06 553.36,-192.11"/>
<polygon fill="#63b8ff" stroke="#63b8ff" points="482.24,-173.14 471.73,-174.47 480.78,-179.98 482.24,-173.14"/>
</g>
<!-- Node7 -->
<g id="node7" class="node">
<title>Node7</title>
<g id="a_node7"><a xlink:href="interfaceSCR__ScenarioFrameworkSlotTask.html" target="_top" xlink:title=" ">
<polygon fill="white" stroke="#666666" points="710,-174 543,-174 543,-155 710,-155 710,-174"/>
<text text-anchor="middle" x="626.5" y="-162" font-family="Helvetica,sans-Serif" font-size="10.00">SCR_ScenarioFrameworkSlotTask</text>
</a>
</g>
</g>
<!-- Node1&#45;&gt;Node7 -->
<g id="edge6" class="edge">
<title>Node1&#45;&gt;Node7</title>
<path fill="none" stroke="#63b8ff" d="M518.17,-164.5C526.4,-164.5 534.68,-164.5 542.8,-164.5"/>
<polygon fill="#63b8ff" stroke="#63b8ff" points="518.41,-161 508.41,-164.5 518.41,-168 518.41,-161"/>
</g>
<!-- Node16 -->
<g id="node16" class="node">
<title>Node16</title>
<g id="a_node16"><a xlink:href="interfaceSCR__ScenarioFrameworkSlotTrigger.html" target="_top" xlink:title=" ">
<polygon fill="white" stroke="#666666" points="699.5,-136.5 553.5,-136.5 553.5,-106.5 699.5,-106.5 699.5,-136.5"/>
<text text-anchor="start" x="561.5" y="-124.5" font-family="Helvetica,sans-Serif" font-size="10.00">SCR_ScenarioFrameworkSlot</text>
<text text-anchor="middle" x="626.5" y="-113.5" font-family="Helvetica,sans-Serif" font-size="10.00">Trigger</text>
</a>
</g>
</g>
<!-- Node1&#45;&gt;Node16 -->
<g id="edge15" class="edge">
<title>Node1&#45;&gt;Node16</title>
<path fill="none" stroke="#63b8ff" d="M481.42,-152.25C503.81,-147.47 529.73,-141.94 553.36,-136.89"/>
<polygon fill="#63b8ff" stroke="#63b8ff" points="480.78,-149.02 471.73,-154.53 482.24,-155.86 480.78,-149.02"/>
</g>
<!-- Node17 -->
<g id="node17" class="node">
<title>Node17</title>
<g id="a_node17"><a xlink:href="interfaceSCR__ScenarioFrameworkSlotWaypoint.html" target="_top" xlink:title=" ">
<polygon fill="white" stroke="#666666" points="699.5,-88.5 553.5,-88.5 553.5,-58.5 699.5,-58.5 699.5,-88.5"/>
<text text-anchor="start" x="561.5" y="-76.5" font-family="Helvetica,sans-Serif" font-size="10.00">SCR_ScenarioFrameworkSlot</text>
<text text-anchor="middle" x="626.5" y="-65.5" font-family="Helvetica,sans-Serif" font-size="10.00">Waypoint</text>
</a>
</g>
</g>
<!-- Node1&#45;&gt;Node17 -->
<g id="edge16" class="edge">
<title>Node1&#45;&gt;Node17</title>
<path fill="none" stroke="#63b8ff" d="M448.01,-148.8C471.47,-134 508.58,-111.97 543,-97.5 550.43,-94.38 558.39,-91.51 566.33,-88.92"/>
<polygon fill="#63b8ff" stroke="#63b8ff" points="446.38,-146.33 439.83,-154.66 450.15,-152.23 446.38,-146.33"/>
</g>
<!-- Node2 -->
<g id="node2" class="node">
<title>Node2</title>
<g id="a_node2"><a xlink:href="interfaceSCR__ScenarioFrameworkLayerBase.html" target="_top" xlink:title=" ">
<polygon fill="white" stroke="#666666" points="303,-174 128,-174 128,-155 303,-155 303,-174"/>
<text text-anchor="middle" x="215.5" y="-162" font-family="Helvetica,sans-Serif" font-size="10.00">SCR_ScenarioFrameworkLayerBase</text>
</a>
</g>
</g>
<!-- Node2&#45;&gt;Node1 -->
<g id="edge1" class="edge">
<title>Node2&#45;&gt;Node1</title>
<path fill="none" stroke="#63b8ff" d="M314.13,-164.5C322.36,-164.5 330.63,-164.5 338.73,-164.5"/>
<polygon fill="#63b8ff" stroke="#63b8ff" points="314.35,-161 304.35,-164.5 314.35,-168 314.35,-161"/>
</g>
<!-- Node3 -->
<g id="node3" class="node">
<title>Node3</title>
<g id="a_node3"><a xlink:title=" ">
<polygon fill="white" stroke="#666666" points="92,-174 0,-174 0,-155 92,-155 92,-174"/>
<text text-anchor="middle" x="46" y="-162" font-family="Helvetica,sans-Serif" font-size="10.00">ScriptComponent</text>
</a>
</g>
</g>
<!-- Node3&#45;&gt;Node2 -->
<g id="edge2" class="edge">
<title>Node3&#45;&gt;Node2</title>
<path fill="none" stroke="#63b8ff" d="M103.16,-164.5C111.02,-164.5 119.24,-164.5 127.5,-164.5"/>
<polygon fill="#63b8ff" stroke="#63b8ff" points="103.33,-161 93.33,-164.5 103.33,-168 103.33,-161"/>
</g>
<!-- Node5 -->
<g id="node5" class="node">
<title>Node5</title>
<g id="a_node5"><a xlink:href="interfaceSCR__ScenarioFrameworkQRFSlotAI.html" target="_top" xlink:title=" ">
<polygon fill="white" stroke="#666666" points="921,-313 746,-313 746,-294 921,-294 921,-313"/>
<text text-anchor="middle" x="833.5" y="-301" font-family="Helvetica,sans-Serif" font-size="10.00">SCR_ScenarioFrameworkQRFSlotAI</text>
</a>
</g>
</g>
<!-- Node4&#45;&gt;Node5 -->
<g id="edge4" class="edge">
<title>Node4&#45;&gt;Node5</title>
<path fill="none" stroke="#63b8ff" d="M714,-287.89C728.2,-289.76 742.81,-291.69 756.72,-293.52"/>
<polygon fill="#63b8ff" stroke="#63b8ff" points="714.62,-284.31 704.25,-286.48 713.71,-291.25 714.62,-284.31"/>
</g>
<!-- Node8 -->
<g id="node8" class="node">
<title>Node8</title>
<g id="a_node8"><a xlink:href="interfaceSCR__ScenarioFrameworkSlotClearArea.html" target="_top" xlink:title=" ">
<polygon fill="white" stroke="#666666" points="906.5,-275.5 760.5,-275.5 760.5,-245.5 906.5,-245.5 906.5,-275.5"/>
<text text-anchor="start" x="768.5" y="-263.5" font-family="Helvetica,sans-Serif" font-size="10.00">SCR_ScenarioFrameworkSlot</text>
<text text-anchor="middle" x="833.5" y="-252.5" font-family="Helvetica,sans-Serif" font-size="10.00">ClearArea</text>
</a>
</g>
</g>
<!-- Node7&#45;&gt;Node8 -->
<g id="edge7" class="edge">
<title>Node7&#45;&gt;Node8</title>
<path fill="none" stroke="#63b8ff" d="M702.41,-178.95C705.04,-180.33 707.58,-181.84 710,-183.5 733.5,-199.58 722.86,-219.9 746,-236.5 750.56,-239.77 755.55,-242.6 760.75,-245.04"/>
<polygon fill="#63b8ff" stroke="#63b8ff" points="704.1,-175.42 693.55,-174.49 701.22,-181.8 704.1,-175.42"/>
</g>
<!-- Node9 -->
<g id="node9" class="node">
<title>Node9</title>
<g id="a_node9"><a xlink:href="interfaceSCR__ScenarioFrameworkSlotDelivery.html" target="_top" xlink:title=" ">
<polygon fill="white" stroke="#666666" points="906.5,-227.5 760.5,-227.5 760.5,-197.5 906.5,-197.5 906.5,-227.5"/>
<text text-anchor="start" x="768.5" y="-215.5" font-family="Helvetica,sans-Serif" font-size="10.00">SCR_ScenarioFrameworkSlot</text>
<text text-anchor="middle" x="833.5" y="-204.5" font-family="Helvetica,sans-Serif" font-size="10.00">Delivery</text>
</a>
</g>
</g>
<!-- Node7&#45;&gt;Node9 -->
<g id="edge8" class="edge">
<title>Node7&#45;&gt;Node9</title>
<path fill="none" stroke="#63b8ff" d="M681.36,-176.85C690.9,-179.06 700.74,-181.34 710,-183.5 728.73,-187.87 749.06,-192.67 767.67,-197.07"/>
<polygon fill="#63b8ff" stroke="#63b8ff" points="682.29,-173.25 671.76,-174.41 680.71,-180.07 682.29,-173.25"/>
</g>
<!-- Node10 -->
<g id="node10" class="node">
<title>Node10</title>
<g id="a_node10"><a xlink:href="interfaceSCR__ScenarioFrameworkSlotDestroy.html" target="_top" xlink:title=" ">
<polygon fill="white" stroke="#666666" points="906.5,-179.5 760.5,-179.5 760.5,-149.5 906.5,-149.5 906.5,-179.5"/>
<text text-anchor="start" x="768.5" y="-167.5" font-family="Helvetica,sans-Serif" font-size="10.00">SCR_ScenarioFrameworkSlot</text>
<text text-anchor="middle" x="833.5" y="-156.5" font-family="Helvetica,sans-Serif" font-size="10.00">Destroy</text>
</a>
</g>
</g>
<!-- Node7&#45;&gt;Node10 -->
<g id="edge9" class="edge">
<title>Node7&#45;&gt;Node10</title>
<path fill="none" stroke="#63b8ff" d="M721.24,-164.5C734.35,-164.5 747.65,-164.5 760.28,-164.5"/>
<polygon fill="#63b8ff" stroke="#63b8ff" points="721.29,-161 711.29,-164.5 721.29,-168 721.29,-161"/>
</g>
<!-- Node11 -->
<g id="node11" class="node">
<title>Node11</title>
<g id="a_node11"><a xlink:href="interfaceSCR__ScenarioFrameworkSlotExtraction.html" target="_top" xlink:title=" ">
<polygon fill="white" stroke="#666666" points="906.5,-131.5 760.5,-131.5 760.5,-101.5 906.5,-101.5 906.5,-131.5"/>
<text text-anchor="start" x="768.5" y="-119.5" font-family="Helvetica,sans-Serif" font-size="10.00">SCR_ScenarioFrameworkSlot</text>
<text text-anchor="middle" x="833.5" y="-108.5" font-family="Helvetica,sans-Serif" font-size="10.00">Extraction</text>
</a>
</g>
</g>
<!-- Node7&#45;&gt;Node11 -->
<g id="edge10" class="edge">
<title>Node7&#45;&gt;Node11</title>
<path fill="none" stroke="#63b8ff" d="M681.36,-152.15C690.9,-149.94 700.74,-147.66 710,-145.5 728.73,-141.13 749.06,-136.33 767.67,-131.93"/>
<polygon fill="#63b8ff" stroke="#63b8ff" points="680.71,-148.93 671.76,-154.59 682.29,-155.75 680.71,-148.93"/>
</g>
<!-- Node12 -->
<g id="node12" class="node">
<title>Node12</title>
<g id="a_node12"><a xlink:href="interfaceSCR__ScenarioFrameworkSlotPick.html" target="_top" xlink:title=" ">
<polygon fill="white" stroke="#666666" points="916,-83 751,-83 751,-64 916,-64 916,-83"/>
<text text-anchor="middle" x="833.5" y="-71" font-family="Helvetica,sans-Serif" font-size="10.00">SCR_ScenarioFrameworkSlotPick</text>
</a>
</g>
</g>
<!-- Node7&#45;&gt;Node12 -->
<g id="edge11" class="edge">
<title>Node7&#45;&gt;Node12</title>
<path fill="none" stroke="#63b8ff" d="M702.41,-150.05C705.04,-148.67 707.58,-147.16 710,-145.5 733.5,-129.42 722.42,-108.47 746,-92.5 751.47,-88.79 757.55,-85.8 763.87,-83.37"/>
<polygon fill="#63b8ff" stroke="#63b8ff" points="701.22,-147.2 693.55,-154.51 704.1,-153.58 701.22,-147.2"/>
</g>
<!-- Node13 -->
<g id="node13" class="node">
<title>Node13</title>
<g id="a_node13"><a xlink:href="interfaceSCR__ScenarioFrameworkSlotTaskAI.html" target="_top" xlink:title=" ">
<polygon fill="white" stroke="#666666" points="906.5,-45.5 760.5,-45.5 760.5,-15.5 906.5,-15.5 906.5,-45.5"/>
<text text-anchor="start" x="768.5" y="-33.5" font-family="Helvetica,sans-Serif" font-size="10.00">SCR_ScenarioFrameworkSlot</text>
<text text-anchor="middle" x="833.5" y="-22.5" font-family="Helvetica,sans-Serif" font-size="10.00">TaskAI</text>
</a>
</g>
</g>
<!-- Node7&#45;&gt;Node13 -->
<g id="edge12" class="edge">
<title>Node7&#45;&gt;Node13</title>
<path fill="none" stroke="#63b8ff" d="M705.01,-149.32C706.75,-148.14 708.41,-146.87 710,-145.5 742.98,-117.14 713.66,-83.58 746,-54.5 750.29,-50.64 755.14,-47.4 760.31,-44.68"/>
<polygon fill="#63b8ff" stroke="#63b8ff" points="703.81,-146.55 696.87,-154.55 707.29,-152.62 703.81,-146.55"/>
</g>
<!-- Node14 -->
<g id="node14" class="node">
<title>Node14</title>
<g id="a_node14"><a xlink:href="interfaceSCR__ScenarioFrameworkSlotDefend.html" target="_top" xlink:title=" ">
<polygon fill="white" stroke="#666666" points="1109.5,-67.5 963.5,-67.5 963.5,-37.5 1109.5,-37.5 1109.5,-67.5"/>
<text text-anchor="start" x="971.5" y="-55.5" font-family="Helvetica,sans-Serif" font-size="10.00">SCR_ScenarioFrameworkSlot</text>
<text text-anchor="middle" x="1036.5" y="-44.5" font-family="Helvetica,sans-Serif" font-size="10.00">Defend</text>
</a>
</g>
</g>
<!-- Node13&#45;&gt;Node14 -->
<g id="edge13" class="edge">
<title>Node13&#45;&gt;Node14</title>
<path fill="none" stroke="#63b8ff" d="M917.67,-39.6C932.77,-41.26 948.42,-42.97 963.18,-44.58"/>
<polygon fill="#63b8ff" stroke="#63b8ff" points="918.1,-36.02 907.78,-38.41 917.34,-42.98 918.1,-36.02"/>
</g>
<!-- Node15 -->
<g id="node15" class="node">
<title>Node15</title>
<g id="a_node15"><a xlink:href="interfaceSCR__ScenarioFrameworkSlotKill.html" target="_top" xlink:title=" ">
<polygon fill="white" stroke="#666666" points="1116,-19 957,-19 957,0 1116,0 1116,-19"/>
<text text-anchor="middle" x="1036.5" y="-7" font-family="Helvetica,sans-Serif" font-size="10.00">SCR_ScenarioFrameworkSlotKill</text>
</a>
</g>
</g>
<!-- Node13&#45;&gt;Node15 -->
<g id="edge14" class="edge">
<title>Node13&#45;&gt;Node15</title>
<path fill="none" stroke="#63b8ff" d="M917.55,-21.82C930.51,-20.47 943.86,-19.07 956.72,-17.73"/>
<polygon fill="#63b8ff" stroke="#63b8ff" points="917.36,-18.43 907.78,-22.95 918.09,-25.39 917.36,-18.43"/>
</g>
</g>
</svg>
