<?xml version="1.0" encoding="UTF-8" standalone="no"?>
<!DOCTYPE svg PUBLIC "-//W3C//DTD SVG 1.1//EN"
 "http://www.w3.org/Graphics/SVG/1.1/DTD/svg11.dtd">
<!-- Generated by graphviz version 8.0.2 (20230410.1723)
 -->
<!-- Title: SCR_BaseSupportStationComponent Pages: 1 -->
<svg width="738pt" height="188pt"
 viewBox="0.00 0.00 738.00 187.50" xmlns="http://www.w3.org/2000/svg" xmlns:xlink="http://www.w3.org/1999/xlink">
<g id="graph0" class="graph" transform="scale(1 1) rotate(0) translate(4 183.5)">
<title>SCR_BaseSupportStationComponent</title>
<!-- Node1 -->
<g id="node1" class="node">
<title>Node1</title>
<g id="a_node1"><a xlink:title=" ">
<polygon fill="#999999" stroke="#666666" points="307,-93.5 128,-93.5 128,-74.5 307,-74.5 307,-93.5"/>
<text text-anchor="middle" x="217.5" y="-81.5" font-family="Helvetica,sans-Serif" font-size="10.00">SCR_BaseSupportStationComponent</text>
</a>
</g>
</g>
<!-- Node3 -->
<g id="node3" class="node">
<title>Node3</title>
<g id="a_node3"><a xlink:href="interfaceSCR__BaseDamageHealSupportStationComponent.html" target="_top" xlink:title=" ">
<polygon fill="white" stroke="#666666" points="507.5,-164 353.5,-164 353.5,-134 507.5,-134 507.5,-164"/>
<text text-anchor="start" x="361.5" y="-152" font-family="Helvetica,sans-Serif" font-size="10.00">SCR_BaseDamageHealSupport</text>
<text text-anchor="middle" x="430.5" y="-141" font-family="Helvetica,sans-Serif" font-size="10.00">StationComponent</text>
</a>
</g>
</g>
<!-- Node1&#45;&gt;Node3 -->
<g id="edge2" class="edge">
<title>Node1&#45;&gt;Node3</title>
<path fill="none" stroke="#63b8ff" d="M258.89,-97.31C283.21,-105.24 314.82,-115.4 343,-124 353.32,-127.15 364.36,-130.41 374.98,-133.51"/>
<polygon fill="#63b8ff" stroke="#63b8ff" points="260.2,-93.73 249.61,-93.95 258.03,-100.38 260.2,-93.73"/>
</g>
<!-- Node6 -->
<g id="node6" class="node">
<title>Node6</title>
<g id="a_node6"><a xlink:href="interfaceSCR__FuelSupportStationComponent.html" target="_top" xlink:title=" ">
<polygon fill="white" stroke="#666666" points="518,-115.5 343,-115.5 343,-96.5 518,-96.5 518,-115.5"/>
<text text-anchor="middle" x="430.5" y="-103.5" font-family="Helvetica,sans-Serif" font-size="10.00">SCR_FuelSupportStationComponent</text>
</a>
</g>
</g>
<!-- Node1&#45;&gt;Node6 -->
<g id="edge5" class="edge">
<title>Node1&#45;&gt;Node6</title>
<path fill="none" stroke="#63b8ff" d="M318.14,-94.39C326.36,-95.25 334.64,-96.11 342.76,-96.96"/>
<polygon fill="#63b8ff" stroke="#63b8ff" points="318.68,-90.82 308.37,-93.27 317.95,-97.78 318.68,-90.82"/>
</g>
<!-- Node7 -->
<g id="node7" class="node">
<title>Node7</title>
<g id="a_node7"><a xlink:href="interfaceSCR__LoadCasualtySupportStationComponent.html" target="_top" xlink:title=" ">
<polygon fill="white" stroke="#666666" points="513.5,-78 347.5,-78 347.5,-48 513.5,-48 513.5,-78"/>
<text text-anchor="start" x="355.5" y="-66" font-family="Helvetica,sans-Serif" font-size="10.00">SCR_LoadCasualtySupportStation</text>
<text text-anchor="middle" x="430.5" y="-55" font-family="Helvetica,sans-Serif" font-size="10.00">Component</text>
</a>
</g>
</g>
<!-- Node1&#45;&gt;Node7 -->
<g id="edge6" class="edge">
<title>Node1&#45;&gt;Node7</title>
<path fill="none" stroke="#63b8ff" d="M318.24,-74.07C327.91,-73.11 337.65,-72.14 347.12,-71.2"/>
<polygon fill="#63b8ff" stroke="#63b8ff" points="317.98,-70.68 308.37,-75.15 318.67,-77.65 317.98,-70.68"/>
</g>
<!-- Node8 -->
<g id="node8" class="node">
<title>Node8</title>
<g id="a_node8"><a xlink:href="interfaceSCR__ResupplySupportStationComponent.html" target="_top" xlink:title=" ">
<polygon fill="white" stroke="#666666" points="504,-30 357,-30 357,0 504,0 504,-30"/>
<text text-anchor="start" x="365" y="-18" font-family="Helvetica,sans-Serif" font-size="10.00">SCR_ResupplySupportStation</text>
<text text-anchor="middle" x="430.5" y="-7" font-family="Helvetica,sans-Serif" font-size="10.00">Component</text>
</a>
</g>
</g>
<!-- Node1&#45;&gt;Node8 -->
<g id="edge7" class="edge">
<title>Node1&#45;&gt;Node8</title>
<path fill="none" stroke="#63b8ff" d="M254.08,-70.32C278.84,-61.01 312.73,-48.65 343,-39 352.21,-36.06 362.03,-33.14 371.62,-30.4"/>
<polygon fill="#63b8ff" stroke="#63b8ff" points="253.17,-67.3 245.06,-74.12 255.65,-73.85 253.17,-67.3"/>
</g>
<!-- Node2 -->
<g id="node2" class="node">
<title>Node2</title>
<g id="a_node2"><a xlink:title=" ">
<polygon fill="white" stroke="#666666" points="92,-93.5 0,-93.5 0,-74.5 92,-74.5 92,-93.5"/>
<text text-anchor="middle" x="46" y="-81.5" font-family="Helvetica,sans-Serif" font-size="10.00">ScriptComponent</text>
</a>
</g>
</g>
<!-- Node2&#45;&gt;Node1 -->
<g id="edge1" class="edge">
<title>Node2&#45;&gt;Node1</title>
<path fill="none" stroke="#63b8ff" d="M103.29,-84C111.18,-84 119.44,-84 127.75,-84"/>
<polygon fill="#63b8ff" stroke="#63b8ff" points="103.42,-80.5 93.42,-84 103.42,-87.5 103.42,-80.5"/>
</g>
<!-- Node4 -->
<g id="node4" class="node">
<title>Node4</title>
<g id="a_node4"><a xlink:href="interfaceSCR__HealSupportStationComponent.html" target="_top" xlink:title=" ">
<polygon fill="white" stroke="#666666" points="730,-179.5 554,-179.5 554,-160.5 730,-160.5 730,-179.5"/>
<text text-anchor="middle" x="642" y="-167.5" font-family="Helvetica,sans-Serif" font-size="10.00">SCR_HealSupportStationComponent</text>
</a>
</g>
</g>
<!-- Node3&#45;&gt;Node4 -->
<g id="edge3" class="edge">
<title>Node3&#45;&gt;Node4</title>
<path fill="none" stroke="#63b8ff" d="M518.38,-157.71C530.09,-158.88 542.11,-160.09 553.82,-161.26"/>
<polygon fill="#63b8ff" stroke="#63b8ff" points="519.03,-154.16 508.73,-156.64 518.33,-161.12 519.03,-154.16"/>
</g>
<!-- Node5 -->
<g id="node5" class="node">
<title>Node5</title>
<g id="a_node5"><a xlink:href="interfaceSCR__RepairSupportStationComponent.html" target="_top" xlink:title=" ">
<polygon fill="white" stroke="#666666" points="709,-142 575,-142 575,-112 709,-112 709,-142"/>
<text text-anchor="start" x="583" y="-130" font-family="Helvetica,sans-Serif" font-size="10.00">SCR_RepairSupportStation</text>
<text text-anchor="middle" x="642" y="-119" font-family="Helvetica,sans-Serif" font-size="10.00">Component</text>
</a>
</g>
</g>
<!-- Node3&#45;&gt;Node5 -->
<g id="edge4" class="edge">
<title>Node3&#45;&gt;Node5</title>
<path fill="none" stroke="#63b8ff" d="M518.62,-139.85C537.31,-137.89 556.76,-135.85 574.52,-133.98"/>
<polygon fill="#63b8ff" stroke="#63b8ff" points="518.31,-136.47 508.73,-141 519.04,-143.43 518.31,-136.47"/>
</g>
<!-- Node9 -->
<g id="node9" class="node">
<title>Node9</title>
<g id="a_node9"><a xlink:href="interfaceSCR__ResupplyMedicalGadgetSupportStationComponent.html" target="_top" xlink:title=" ">
<polygon fill="white" stroke="#666666" points="716,-30 568,-30 568,0 716,0 716,-30"/>
<text text-anchor="start" x="576" y="-18" font-family="Helvetica,sans-Serif" font-size="10.00">SCR_ResupplyMedicalGadget</text>
<text text-anchor="middle" x="642" y="-7" font-family="Helvetica,sans-Serif" font-size="10.00">SupportStationComponent</text>
</a>
</g>
</g>
<!-- Node8&#45;&gt;Node9 -->
<g id="edge8" class="edge">
<title>Node8&#45;&gt;Node9</title>
<path fill="none" stroke="#63b8ff" d="M515.15,-15C532.49,-15 550.63,-15 567.57,-15"/>
<polygon fill="#63b8ff" stroke="#63b8ff" points="515.48,-11.5 505.48,-15 515.48,-18.5 515.48,-11.5"/>
</g>
</g>
</svg>
