<?xml version="1.0" encoding="UTF-8" standalone="no"?>
<!DOCTYPE svg PUBLIC "-//W3C//DTD SVG 1.1//EN"
 "http://www.w3.org/Graphics/SVG/1.1/DTD/svg11.dtd">
<!-- Generated by graphviz version 8.0.2 (20230410.1723)
 -->
<!-- Title: SCR_ScenarioFrameworkWaypointWait Pages: 1 -->
<svg width="198pt" height="214pt"
 viewBox="0.00 0.00 198.00 214.00" xmlns="http://www.w3.org/2000/svg" xmlns:xlink="http://www.w3.org/1999/xlink">
<g id="graph0" class="graph" transform="scale(1 1) rotate(0) translate(4 210)">
<title>SCR_ScenarioFrameworkWaypointWait</title>
<!-- Node1 -->
<g id="node1" class="node">
<title>Node1</title>
<g id="a_node1"><a xlink:title=" ">
<polygon fill="#999999" stroke="#666666" points="190,-19 0,-19 0,0 190,0 190,-19"/>
<text text-anchor="middle" x="95" y="-7" font-family="Helvetica,sans-Serif" font-size="10.00">SCR_ScenarioFrameworkWaypointWait</text>
</a>
</g>
</g>
<!-- Node2 -->
<g id="node2" class="node">
<title>Node2</title>
<g id="a_node2"><a xlink:href="interfaceSCR__ScenarioFrameworkWaypointTimed.html" target="_top" xlink:title=" ">
<polygon fill="white" stroke="#666666" points="180,-85 10,-85 10,-55 180,-55 180,-85"/>
<text text-anchor="start" x="18" y="-73" font-family="Helvetica,sans-Serif" font-size="10.00">SCR_ScenarioFrameworkWaypoint</text>
<text text-anchor="middle" x="95" y="-62" font-family="Helvetica,sans-Serif" font-size="10.00">Timed</text>
</a>
</g>
</g>
<!-- Node2&#45;&gt;Node1 -->
<g id="edge1" class="edge">
<title>Node2&#45;&gt;Node1</title>
<path fill="none" stroke="#63b8ff" d="M95,-43.59C95,-34.85 95,-25.65 95,-19.18"/>
<polygon fill="#63b8ff" stroke="#63b8ff" points="91.5,-43.54 95,-53.54 98.5,-43.54 91.5,-43.54"/>
</g>
<!-- Node3 -->
<g id="node3" class="node">
<title>Node3</title>
<g id="a_node3"><a xlink:href="interfaceSCR__ScenarioFrameworkWaypointScripted.html" target="_top" xlink:title=" ">
<polygon fill="white" stroke="#666666" points="180,-151 10,-151 10,-121 180,-121 180,-151"/>
<text text-anchor="start" x="18" y="-139" font-family="Helvetica,sans-Serif" font-size="10.00">SCR_ScenarioFrameworkWaypoint</text>
<text text-anchor="middle" x="95" y="-128" font-family="Helvetica,sans-Serif" font-size="10.00">Scripted</text>
</a>
</g>
</g>
<!-- Node3&#45;&gt;Node2 -->
<g id="edge2" class="edge">
<title>Node3&#45;&gt;Node2</title>
<path fill="none" stroke="#63b8ff" d="M95,-109.97C95,-101.55 95,-92.45 95,-85.16"/>
<polygon fill="#63b8ff" stroke="#63b8ff" points="91.5,-109.8 95,-119.8 98.5,-109.8 91.5,-109.8"/>
</g>
<!-- Node4 -->
<g id="node4" class="node">
<title>Node4</title>
<g id="a_node4"><a xlink:href="interfaceSCR__ScenarioFrameworkWaypoint.html" target="_top" xlink:title=" ">
<polygon fill="white" stroke="#666666" points="180,-206 10,-206 10,-187 180,-187 180,-206"/>
<text text-anchor="middle" x="95" y="-194" font-family="Helvetica,sans-Serif" font-size="10.00">SCR_ScenarioFrameworkWaypoint</text>
</a>
</g>
</g>
<!-- Node4&#45;&gt;Node3 -->
<g id="edge3" class="edge">
<title>Node4&#45;&gt;Node3</title>
<path fill="none" stroke="#63b8ff" d="M95,-176.08C95,-167.92 95,-158.6 95,-151.11"/>
<polygon fill="#63b8ff" stroke="#63b8ff" points="91.5,-175.87 95,-185.87 98.5,-175.87 91.5,-175.87"/>
</g>
</g>
</svg>
