<?xml version="1.0" encoding="UTF-8" standalone="no"?>
<!DOCTYPE svg PUBLIC "-//W3C//DTD SVG 1.1//EN"
 "http://www.w3.org/Graphics/SVG/1.1/DTD/svg11.dtd">
<!-- Generated by graphviz version 8.0.2 (20230410.1723)
 -->
<!-- Title: SCR_ScenarioFrameworkLayerStruct Pages: 1 -->
<svg width="160pt" height="214pt"
 viewBox="0.00 0.00 160.00 214.00" xmlns="http://www.w3.org/2000/svg" xmlns:xlink="http://www.w3.org/1999/xlink">
<g id="graph0" class="graph" transform="scale(1 1) rotate(0) translate(4 210)">
<title>SCR_ScenarioFrameworkLayerStruct</title>
<!-- Node1 -->
<g id="node1" class="node">
<title>Node1</title>
<g id="a_node1"><a xlink:title=" ">
<polygon fill="#999999" stroke="#666666" points="152,-96 0,-96 0,-66 152,-66 152,-96"/>
<text text-anchor="start" x="8" y="-84" font-family="Helvetica,sans-Serif" font-size="10.00">SCR_ScenarioFrameworkLayer</text>
<text text-anchor="middle" x="76" y="-73" font-family="Helvetica,sans-Serif" font-size="10.00">Struct</text>
</a>
</g>
</g>
<!-- Node4 -->
<g id="node4" class="node">
<title>Node4</title>
<g id="a_node4"><a xlink:href="interfaceSCR__ScenarioFrameworkAreaStruct.html" target="_top" xlink:title=" ">
<polygon fill="white" stroke="#666666" points="150.5,-30 1.5,-30 1.5,0 150.5,0 150.5,-30"/>
<text text-anchor="start" x="9.5" y="-18" font-family="Helvetica,sans-Serif" font-size="10.00">SCR_ScenarioFrameworkArea</text>
<text text-anchor="middle" x="76" y="-7" font-family="Helvetica,sans-Serif" font-size="10.00">Struct</text>
</a>
</g>
</g>
<!-- Node1&#45;&gt;Node4 -->
<g id="edge3" class="edge">
<title>Node1&#45;&gt;Node4</title>
<path fill="none" stroke="#63b8ff" d="M76,-54.97C76,-46.55 76,-37.45 76,-30.16"/>
<polygon fill="#63b8ff" stroke="#63b8ff" points="72.5,-54.8 76,-64.8 79.5,-54.8 72.5,-54.8"/>
</g>
<!-- Node2 -->
<g id="node2" class="node">
<title>Node2</title>
<g id="a_node2"><a xlink:href="interfaceSCR__JsonApiStruct.html" target="_top" xlink:title="Base struct for use in SCR_DSSessionCallback.">
<polygon fill="white" stroke="#666666" points="127.5,-151 24.5,-151 24.5,-132 127.5,-132 127.5,-151"/>
<text text-anchor="middle" x="76" y="-139" font-family="Helvetica,sans-Serif" font-size="10.00">SCR_JsonApiStruct</text>
</a>
</g>
</g>
<!-- Node2&#45;&gt;Node1 -->
<g id="edge1" class="edge">
<title>Node2&#45;&gt;Node1</title>
<path fill="none" stroke="#63b8ff" d="M76,-121.08C76,-112.92 76,-103.6 76,-96.11"/>
<polygon fill="#63b8ff" stroke="#63b8ff" points="72.5,-120.87 76,-130.87 79.5,-120.87 72.5,-120.87"/>
</g>
<!-- Node3 -->
<g id="node3" class="node">
<title>Node3</title>
<g id="a_node3"><a xlink:title=" ">
<polygon fill="white" stroke="#666666" points="114.5,-206 37.5,-206 37.5,-187 114.5,-187 114.5,-206"/>
<text text-anchor="middle" x="76" y="-194" font-family="Helvetica,sans-Serif" font-size="10.00">JsonApiStruct</text>
</a>
</g>
</g>
<!-- Node3&#45;&gt;Node2 -->
<g id="edge2" class="edge">
<title>Node3&#45;&gt;Node2</title>
<path fill="none" stroke="#63b8ff" d="M76,-175.93C76,-167.53 76,-158.13 76,-151.44"/>
<polygon fill="#63b8ff" stroke="#63b8ff" points="72.5,-175.75 76,-185.75 79.5,-175.75 72.5,-175.75"/>
</g>
</g>
</svg>
