<?xml version="1.0" encoding="UTF-8" standalone="no"?>
<!DOCTYPE svg PUBLIC "-//W3C//DTD SVG 1.1//EN"
 "http://www.w3.org/Graphics/SVG/1.1/DTD/svg11.dtd">
<!-- Generated by graphviz version 8.0.2 (20230410.1723)
 -->
<!-- Title: SCR_InstantDamageEffect Pages: 1 -->
<svg width="1067pt" height="323pt"
 viewBox="0.00 0.00 1067.00 323.00" xmlns="http://www.w3.org/2000/svg" xmlns:xlink="http://www.w3.org/1999/xlink">
<g id="graph0" class="graph" transform="scale(1 1) rotate(0) translate(4 319)">
<title>SCR_InstantDamageEffect</title>
<!-- Node1 -->
<g id="node1" class="node">
<title>Node1</title>
<g id="a_node1"><a xlink:title=" ">
<polygon fill="#999999" stroke="#666666" points="672,-167 540,-167 540,-148 672,-148 672,-167"/>
<text text-anchor="middle" x="606" y="-155" font-family="Helvetica,sans-Serif" font-size="10.00">SCR_InstantDamageEffect</text>
</a>
</g>
</g>
<!-- Node6 -->
<g id="node6" class="node">
<title>Node6</title>
<g id="a_node6"><a xlink:href="interfaceSCR__BandageDamageEffect.html" target="_top" xlink:title=" ">
<polygon fill="white" stroke="#666666" points="861,-315 720,-315 720,-296 861,-296 861,-315"/>
<text text-anchor="middle" x="790.5" y="-303" font-family="Helvetica,sans-Serif" font-size="10.00">SCR_BandageDamageEffect</text>
</a>
</g>
</g>
<!-- Node1&#45;&gt;Node6 -->
<g id="edge5" class="edge">
<title>Node1&#45;&gt;Node6</title>
<path fill="none" stroke="#63b8ff" d="M616.78,-177.15C632.12,-205.86 664.62,-258.83 708,-286.5 713.76,-290.17 720.15,-293.14 726.74,-295.53"/>
<polygon fill="#63b8ff" stroke="#63b8ff" points="619.46,-175.71 611.75,-168.44 613.24,-178.93 619.46,-175.71"/>
</g>
<!-- Node7 -->
<g id="node7" class="node">
<title>Node7</title>
<g id="a_node7"><a xlink:href="interfaceSCR__BaseBulletDamageEffect.html" target="_top" xlink:title=" ">
<polygon fill="white" stroke="#666666" points="865.5,-278 715.5,-278 715.5,-259 865.5,-259 865.5,-278"/>
<text text-anchor="middle" x="790.5" y="-266" font-family="Helvetica,sans-Serif" font-size="10.00">SCR_BaseBulletDamageEffect</text>
</a>
</g>
</g>
<!-- Node1&#45;&gt;Node7 -->
<g id="edge6" class="edge">
<title>Node1&#45;&gt;Node7</title>
<path fill="none" stroke="#63b8ff" d="M621.77,-175.7C639.87,-196.73 672.52,-230.85 708,-249.5 715.07,-253.22 722.87,-256.21 730.75,-258.63"/>
<polygon fill="#63b8ff" stroke="#63b8ff" points="623.85,-173.72 614.74,-168.31 618.48,-178.22 623.85,-173.72"/>
</g>
<!-- Node9 -->
<g id="node9" class="node">
<title>Node9</title>
<g id="a_node9"><a xlink:href="interfaceSCR__CollisionDamageEffect.html" target="_top" xlink:title=" ">
<polygon fill="white" stroke="#666666" points="860.5,-241 720.5,-241 720.5,-222 860.5,-222 860.5,-241"/>
<text text-anchor="middle" x="790.5" y="-229" font-family="Helvetica,sans-Serif" font-size="10.00">SCR_CollisionDamageEffect</text>
</a>
</g>
</g>
<!-- Node1&#45;&gt;Node9 -->
<g id="edge8" class="edge">
<title>Node1&#45;&gt;Node9</title>
<path fill="none" stroke="#63b8ff" d="M631.36,-173.21C651.28,-185.44 680.55,-202.05 708,-212.5 717.37,-216.07 727.61,-219.09 737.57,-221.61"/>
<polygon fill="#63b8ff" stroke="#63b8ff" points="633.46,-169.76 623.12,-167.43 629.75,-175.7 633.46,-169.76"/>
</g>
<!-- Node10 -->
<g id="node10" class="node">
<title>Node10</title>
<g id="a_node10"><a xlink:href="interfaceSCR__DrowningDamageEffect.html" target="_top" xlink:title=" ">
<polygon fill="white" stroke="#666666" points="862,-204 719,-204 719,-185 862,-185 862,-204"/>
<text text-anchor="middle" x="790.5" y="-192" font-family="Helvetica,sans-Serif" font-size="10.00">SCR_DrowningDamageEffect</text>
</a>
</g>
</g>
<!-- Node1&#45;&gt;Node10 -->
<g id="edge9" class="edge">
<title>Node1&#45;&gt;Node10</title>
<path fill="none" stroke="#63b8ff" d="M666.63,-169.59C690.53,-174.43 717.73,-179.95 740.46,-184.56"/>
<polygon fill="#63b8ff" stroke="#63b8ff" points="667.4,-165.97 656.91,-167.42 666.01,-172.83 667.4,-165.97"/>
</g>
<!-- Node11 -->
<g id="node11" class="node">
<title>Node11</title>
<g id="a_node11"><a xlink:href="interfaceSCR__ExplosionDamageEffect.html" target="_top" xlink:title=" ">
<polygon fill="white" stroke="#666666" points="863.5,-167 717.5,-167 717.5,-148 863.5,-148 863.5,-167"/>
<text text-anchor="middle" x="790.5" y="-155" font-family="Helvetica,sans-Serif" font-size="10.00">SCR_ExplosionDamageEffect</text>
</a>
</g>
</g>
<!-- Node1&#45;&gt;Node11 -->
<g id="edge10" class="edge">
<title>Node1&#45;&gt;Node11</title>
<path fill="none" stroke="#63b8ff" d="M683.07,-157.5C694.35,-157.5 705.95,-157.5 717.16,-157.5"/>
<polygon fill="#63b8ff" stroke="#63b8ff" points="683.37,-154 673.37,-157.5 683.37,-161 683.37,-154"/>
</g>
<!-- Node13 -->
<g id="node13" class="node">
<title>Node13</title>
<g id="a_node13"><a xlink:href="interfaceSCR__FragmentationDamageEffect.html" target="_top" xlink:title=" ">
<polygon fill="white" stroke="#666666" points="873,-130 708,-130 708,-111 873,-111 873,-130"/>
<text text-anchor="middle" x="790.5" y="-118" font-family="Helvetica,sans-Serif" font-size="10.00">SCR_FragmentationDamageEffect</text>
</a>
</g>
</g>
<!-- Node1&#45;&gt;Node13 -->
<g id="edge12" class="edge">
<title>Node1&#45;&gt;Node13</title>
<path fill="none" stroke="#63b8ff" d="M666.63,-145.41C690.53,-140.57 717.73,-135.05 740.46,-130.44"/>
<polygon fill="#63b8ff" stroke="#63b8ff" points="666.01,-142.17 656.91,-147.58 667.4,-149.03 666.01,-142.17"/>
</g>
<!-- Node14 -->
<g id="node14" class="node">
<title>Node14</title>
<g id="a_node14"><a xlink:href="interfaceSCR__IncendiaryDamageEffect.html" target="_top" xlink:title=" ">
<polygon fill="white" stroke="#666666" points="864,-93 717,-93 717,-74 864,-74 864,-93"/>
<text text-anchor="middle" x="790.5" y="-81" font-family="Helvetica,sans-Serif" font-size="10.00">SCR_IncendiaryDamageEffect</text>
</a>
</g>
</g>
<!-- Node1&#45;&gt;Node14 -->
<g id="edge13" class="edge">
<title>Node1&#45;&gt;Node14</title>
<path fill="none" stroke="#63b8ff" d="M630.94,-141.62C650.83,-129.08 680.25,-112 708,-101.5 716.27,-98.37 725.22,-95.71 734.07,-93.47"/>
<polygon fill="#63b8ff" stroke="#63b8ff" points="629.26,-139.18 622.74,-147.53 633.04,-145.07 629.26,-139.18"/>
</g>
<!-- Node15 -->
<g id="node15" class="node">
<title>Node15</title>
<g id="a_node15"><a xlink:href="interfaceSCR__MeleeDamageEffect.html" target="_top" xlink:title=" ">
<polygon fill="white" stroke="#666666" points="855,-56 726,-56 726,-37 855,-37 855,-56"/>
<text text-anchor="middle" x="790.5" y="-44" font-family="Helvetica,sans-Serif" font-size="10.00">SCR_MeleeDamageEffect</text>
</a>
</g>
</g>
<!-- Node1&#45;&gt;Node15 -->
<g id="edge14" class="edge">
<title>Node1&#45;&gt;Node15</title>
<path fill="none" stroke="#63b8ff" d="M621.45,-139.32C639.42,-118 672.13,-83.21 708,-64.5 714.17,-61.28 720.89,-58.64 727.73,-56.47"/>
<polygon fill="#63b8ff" stroke="#63b8ff" points="618.34,-136.59 614.69,-146.54 623.74,-141.04 618.34,-136.59"/>
</g>
<!-- Node16 -->
<g id="node16" class="node">
<title>Node16</title>
<g id="a_node16"><a xlink:href="interfaceUnknownDamageEffect.html" target="_top" xlink:title=" ">
<polygon fill="white" stroke="#666666" points="849,-19 732,-19 732,0 849,0 849,-19"/>
<text text-anchor="middle" x="790.5" y="-7" font-family="Helvetica,sans-Serif" font-size="10.00">UnknownDamageEffect</text>
</a>
</g>
</g>
<!-- Node1&#45;&gt;Node16 -->
<g id="edge15" class="edge">
<title>Node1&#45;&gt;Node16</title>
<path fill="none" stroke="#63b8ff" d="M616.47,-138.05C631.61,-109.15 664.09,-55.26 708,-27.5 715.23,-22.93 723.45,-19.51 731.83,-16.96"/>
<polygon fill="#63b8ff" stroke="#63b8ff" points="612.93,-136.3 611.53,-146.81 619.17,-139.47 612.93,-136.3"/>
</g>
<!-- Node2 -->
<g id="node2" class="node">
<title>Node2</title>
<g id="a_node2"><a xlink:href="interfaceInstantDamageEffect.html" target="_top" xlink:title=" ">
<polygon fill="white" stroke="#666666" points="504,-167 397,-167 397,-148 504,-148 504,-167"/>
<text text-anchor="middle" x="450.5" y="-155" font-family="Helvetica,sans-Serif" font-size="10.00">InstantDamageEffect</text>
</a>
</g>
</g>
<!-- Node2&#45;&gt;Node1 -->
<g id="edge1" class="edge">
<title>Node2&#45;&gt;Node1</title>
<path fill="none" stroke="#63b8ff" d="M515.17,-157.5C523.24,-157.5 531.5,-157.5 539.6,-157.5"/>
<polygon fill="#63b8ff" stroke="#63b8ff" points="515.33,-154 505.33,-157.5 515.33,-161 515.33,-154"/>
</g>
<!-- Node3 -->
<g id="node3" class="node">
<title>Node3</title>
<g id="a_node3"><a xlink:href="interfaceSCR__DamageEffect.html" target="_top" xlink:title=" ">
<polygon fill="white" stroke="#666666" points="361,-167 258,-167 258,-148 361,-148 361,-167"/>
<text text-anchor="middle" x="309.5" y="-155" font-family="Helvetica,sans-Serif" font-size="10.00">SCR_DamageEffect</text>
</a>
</g>
</g>
<!-- Node3&#45;&gt;Node2 -->
<g id="edge2" class="edge">
<title>Node3&#45;&gt;Node2</title>
<path fill="none" stroke="#63b8ff" d="M372.39,-157.5C380.49,-157.5 388.74,-157.5 396.67,-157.5"/>
<polygon fill="#63b8ff" stroke="#63b8ff" points="372.47,-154 362.47,-157.5 372.47,-161 372.47,-154"/>
</g>
<!-- Node4 -->
<g id="node4" class="node">
<title>Node4</title>
<g id="a_node4"><a xlink:href="interfaceBaseDamageEffect.html" target="_top" xlink:title=" ">
<polygon fill="white" stroke="#666666" points="222,-167 122,-167 122,-148 222,-148 222,-167"/>
<text text-anchor="middle" x="172" y="-155" font-family="Helvetica,sans-Serif" font-size="10.00">BaseDamageEffect</text>
</a>
</g>
</g>
<!-- Node4&#45;&gt;Node3 -->
<g id="edge3" class="edge">
<title>Node4&#45;&gt;Node3</title>
<path fill="none" stroke="#63b8ff" d="M233.26,-157.5C241.4,-157.5 249.69,-157.5 257.64,-157.5"/>
<polygon fill="#63b8ff" stroke="#63b8ff" points="233.3,-154 223.3,-157.5 233.3,-161 233.3,-154"/>
</g>
<!-- Node5 -->
<g id="node5" class="node">
<title>Node5</title>
<g id="a_node5"><a xlink:title=" ">
<polygon fill="white" stroke="#666666" points="86,-167 0,-167 0,-148 86,-148 86,-167"/>
<text text-anchor="middle" x="43" y="-155" font-family="Helvetica,sans-Serif" font-size="10.00">ScriptAndConfig</text>
</a>
</g>
</g>
<!-- Node5&#45;&gt;Node4 -->
<g id="edge4" class="edge">
<title>Node5&#45;&gt;Node4</title>
<path fill="none" stroke="#63b8ff" d="M97.23,-157.5C105.39,-157.5 113.79,-157.5 121.86,-157.5"/>
<polygon fill="#63b8ff" stroke="#63b8ff" points="97.29,-154 87.29,-157.5 97.29,-161 97.29,-154"/>
</g>
<!-- Node8 -->
<g id="node8" class="node">
<title>Node8</title>
<g id="a_node8"><a xlink:href="interfaceSCR__IncendiaryBulletDamageEffect.html" target="_top" xlink:title=" ">
<polygon fill="white" stroke="#666666" points="1057.5,-283.5 910.5,-283.5 910.5,-253.5 1057.5,-253.5 1057.5,-283.5"/>
<text text-anchor="start" x="918.5" y="-271.5" font-family="Helvetica,sans-Serif" font-size="10.00">SCR_IncendiaryBulletDamage</text>
<text text-anchor="middle" x="984" y="-260.5" font-family="Helvetica,sans-Serif" font-size="10.00">Effect</text>
</a>
</g>
</g>
<!-- Node7&#45;&gt;Node8 -->
<g id="edge7" class="edge">
<title>Node7&#45;&gt;Node8</title>
<path fill="none" stroke="#63b8ff" d="M876.53,-268.5C887.8,-268.5 899.27,-268.5 910.3,-268.5"/>
<polygon fill="#63b8ff" stroke="#63b8ff" points="876.81,-265 866.81,-268.5 876.81,-272 876.81,-265"/>
</g>
<!-- Node12 -->
<g id="node12" class="node">
<title>Node12</title>
<g id="a_node12"><a xlink:href="interfaceSCR__BlastForceDamageEffect.html" target="_top" xlink:title=" ">
<polygon fill="white" stroke="#666666" points="1059,-167 909,-167 909,-148 1059,-148 1059,-167"/>
<text text-anchor="middle" x="984" y="-155" font-family="Helvetica,sans-Serif" font-size="10.00">SCR_BlastForceDamageEffect</text>
</a>
</g>
</g>
<!-- Node11&#45;&gt;Node12 -->
<g id="edge11" class="edge">
<title>Node11&#45;&gt;Node12</title>
<path fill="none" stroke="#63b8ff" d="M874.63,-157.5C885.93,-157.5 897.46,-157.5 908.59,-157.5"/>
<polygon fill="#63b8ff" stroke="#63b8ff" points="874.9,-154 864.9,-157.5 874.9,-161 874.9,-154"/>
</g>
</g>
</svg>
