<?xml version="1.0" encoding="UTF-8" standalone="no"?>
<!DOCTYPE svg PUBLIC "-//W3C//DTD SVG 1.1//EN"
 "http://www.w3.org/Graphics/SVG/1.1/DTD/svg11.dtd">
<!-- Generated by graphviz version 8.0.2 (20230410.1723)
 -->
<!-- Title: SCR_AIFireteamsActivity Pages: 1 -->
<svg width="1041pt" height="113pt"
 viewBox="0.00 0.00 1041.00 112.50" xmlns="http://www.w3.org/2000/svg" xmlns:xlink="http://www.w3.org/1999/xlink">
<g id="graph0" class="graph" transform="scale(1 1) rotate(0) translate(4 108.5)">
<title>SCR_AIFireteamsActivity</title>
<!-- Node1 -->
<g id="node1" class="node">
<title>Node1</title>
<g id="a_node1"><a xlink:title="Base class for all group activities which are related to fireteams.">
<polygon fill="#999999" stroke="#666666" points="638,-67.5 512,-67.5 512,-48.5 638,-48.5 638,-67.5"/>
<text text-anchor="middle" x="575" y="-55.5" font-family="Helvetica,sans-Serif" font-size="10.00">SCR_AIFireteamsActivity</text>
</a>
</g>
</g>
<!-- Node6 -->
<g id="node6" class="node">
<title>Node6</title>
<g id="a_node6"><a xlink:href="interfaceSCR__AIFireteamsClusterActivity.html" target="_top" xlink:title="Class for activities which are assigned for some fireteams to do something with target cluster.">
<polygon fill="white" stroke="#666666" points="831,-67.5 674,-67.5 674,-48.5 831,-48.5 831,-67.5"/>
<text text-anchor="middle" x="752.5" y="-55.5" font-family="Helvetica,sans-Serif" font-size="10.00">SCR_AIFireteamsClusterActivity</text>
</a>
</g>
</g>
<!-- Node1&#45;&gt;Node6 -->
<g id="edge5" class="edge">
<title>Node1&#45;&gt;Node6</title>
<path fill="none" stroke="#63b8ff" d="M649.24,-58C657.31,-58 665.55,-58 673.67,-58"/>
<polygon fill="#63b8ff" stroke="#63b8ff" points="649.37,-54.5 639.37,-58 649.37,-61.5 649.37,-54.5"/>
</g>
<!-- Node2 -->
<g id="node2" class="node">
<title>Node2</title>
<g id="a_node2"><a xlink:href="interfaceSCR__AIActivityBase.html" target="_top" xlink:title=" ">
<polygon fill="white" stroke="#666666" points="476,-67.5 371,-67.5 371,-48.5 476,-48.5 476,-67.5"/>
<text text-anchor="middle" x="423.5" y="-55.5" font-family="Helvetica,sans-Serif" font-size="10.00">SCR_AIActivityBase</text>
</a>
</g>
</g>
<!-- Node2&#45;&gt;Node1 -->
<g id="edge1" class="edge">
<title>Node2&#45;&gt;Node1</title>
<path fill="none" stroke="#63b8ff" d="M487.23,-58C495.32,-58 503.59,-58 511.67,-58"/>
<polygon fill="#63b8ff" stroke="#63b8ff" points="487.37,-54.5 477.37,-58 487.37,-61.5 487.37,-54.5"/>
</g>
<!-- Node3 -->
<g id="node3" class="node">
<title>Node3</title>
<g id="a_node3"><a xlink:href="interfaceSCR__AIActionBase.html" target="_top" xlink:title=" ">
<polygon fill="white" stroke="#666666" points="335,-67.5 234,-67.5 234,-48.5 335,-48.5 335,-67.5"/>
<text text-anchor="middle" x="284.5" y="-55.5" font-family="Helvetica,sans-Serif" font-size="10.00">SCR_AIActionBase</text>
</a>
</g>
</g>
<!-- Node3&#45;&gt;Node2 -->
<g id="edge2" class="edge">
<title>Node3&#45;&gt;Node2</title>
<path fill="none" stroke="#63b8ff" d="M346.28,-58C354.4,-58 362.67,-58 370.62,-58"/>
<polygon fill="#63b8ff" stroke="#63b8ff" points="346.35,-54.5 336.35,-58 346.35,-61.5 346.35,-54.5"/>
</g>
<!-- Node4 -->
<g id="node4" class="node">
<title>Node4</title>
<g id="a_node4"><a xlink:href="interfaceAIActionBase.html" target="_top" xlink:title=" ">
<polygon fill="white" stroke="#666666" points="198,-67.5 122,-67.5 122,-48.5 198,-48.5 198,-67.5"/>
<text text-anchor="middle" x="160" y="-55.5" font-family="Helvetica,sans-Serif" font-size="10.00">AIActionBase</text>
</a>
</g>
</g>
<!-- Node4&#45;&gt;Node3 -->
<g id="edge3" class="edge">
<title>Node4&#45;&gt;Node3</title>
<path fill="none" stroke="#63b8ff" d="M209.15,-58C217.2,-58 225.57,-58 233.67,-58"/>
<polygon fill="#63b8ff" stroke="#63b8ff" points="209.42,-54.5 199.42,-58 209.42,-61.5 209.42,-54.5"/>
</g>
<!-- Node5 -->
<g id="node5" class="node">
<title>Node5</title>
<g id="a_node5"><a xlink:title=" ">
<polygon fill="white" stroke="#666666" points="86,-67.5 0,-67.5 0,-48.5 86,-48.5 86,-67.5"/>
<text text-anchor="middle" x="43" y="-55.5" font-family="Helvetica,sans-Serif" font-size="10.00">ScriptAndConfig</text>
</a>
</g>
</g>
<!-- Node5&#45;&gt;Node4 -->
<g id="edge4" class="edge">
<title>Node5&#45;&gt;Node4</title>
<path fill="none" stroke="#63b8ff" d="M97.48,-58C105.64,-58 113.9,-58 121.61,-58"/>
<polygon fill="#63b8ff" stroke="#63b8ff" points="97.5,-54.5 87.5,-58 97.49,-61.5 97.5,-54.5"/>
</g>
<!-- Node7 -->
<g id="node7" class="node">
<title>Node7</title>
<g id="a_node7"><a xlink:href="interfaceSCR__AIAttackClusterActivity.html" target="_top" xlink:title=" ">
<polygon fill="white" stroke="#666666" points="1021,-104.5 879,-104.5 879,-85.5 1021,-85.5 1021,-104.5"/>
<text text-anchor="middle" x="950" y="-92.5" font-family="Helvetica,sans-Serif" font-size="10.00">SCR_AIAttackClusterActivity</text>
</a>
</g>
</g>
<!-- Node6&#45;&gt;Node7 -->
<g id="edge6" class="edge">
<title>Node6&#45;&gt;Node7</title>
<path fill="none" stroke="#63b8ff" d="M816.89,-70C842.54,-74.85 871.8,-80.39 896.26,-85.02"/>
<polygon fill="#63b8ff" stroke="#63b8ff" points="817.62,-66.38 807.15,-67.96 816.32,-73.26 817.62,-66.38"/>
</g>
<!-- Node8 -->
<g id="node8" class="node">
<title>Node8</title>
<g id="a_node8"><a xlink:href="interfaceSCR__AIDefendFromClusterActivity.html" target="_top" xlink:title=" ">
<polygon fill="white" stroke="#666666" points="1033,-67.5 867,-67.5 867,-48.5 1033,-48.5 1033,-67.5"/>
<text text-anchor="middle" x="950" y="-55.5" font-family="Helvetica,sans-Serif" font-size="10.00">SCR_AIDefendFromClusterActivity</text>
</a>
</g>
</g>
<!-- Node6&#45;&gt;Node8 -->
<g id="edge7" class="edge">
<title>Node6&#45;&gt;Node8</title>
<path fill="none" stroke="#63b8ff" d="M842.3,-58C850.4,-58 858.59,-58 866.63,-58"/>
<polygon fill="#63b8ff" stroke="#63b8ff" points="842.33,-54.5 832.33,-58 842.33,-61.5 842.33,-54.5"/>
</g>
<!-- Node9 -->
<g id="node9" class="node">
<title>Node9</title>
<g id="a_node9"><a xlink:href="interfaceSCR__AIInvestigateClusterActivity.html" target="_top" xlink:title=" ">
<polygon fill="white" stroke="#666666" points="1014,-30 886,-30 886,0 1014,0 1014,-30"/>
<text text-anchor="start" x="894" y="-18" font-family="Helvetica,sans-Serif" font-size="10.00">SCR_AIInvestigateCluster</text>
<text text-anchor="middle" x="950" y="-7" font-family="Helvetica,sans-Serif" font-size="10.00">Activity</text>
</a>
</g>
</g>
<!-- Node6&#45;&gt;Node9 -->
<g id="edge8" class="edge">
<title>Node6&#45;&gt;Node9</title>
<path fill="none" stroke="#63b8ff" d="M809.48,-45.69C833.3,-40.45 861.2,-34.31 885.76,-28.91"/>
<polygon fill="#63b8ff" stroke="#63b8ff" points="808.86,-42.46 799.84,-48.03 810.36,-49.3 808.86,-42.46"/>
</g>
</g>
</svg>
