<?xml version="1.0" encoding="UTF-8" standalone="no"?>
<!DOCTYPE svg PUBLIC "-//W3C//DTD SVG 1.1//EN"
 "http://www.w3.org/Graphics/SVG/1.1/DTD/svg11.dtd">
<!-- Generated by graphviz version 8.0.2 (20230410.1723)
 -->
<!-- Title: SCR_PIPSightsComponentClass Pages: 1 -->
<svg width="168pt" height="302pt"
 viewBox="0.00 0.00 168.00 302.00" xmlns="http://www.w3.org/2000/svg" xmlns:xlink="http://www.w3.org/1999/xlink">
<g id="graph0" class="graph" transform="scale(1 1) rotate(0) translate(4 298)">
<title>SCR_PIPSightsComponentClass</title>
<!-- Node1 -->
<g id="node1" class="node">
<title>Node1</title>
<g id="a_node1"><a xlink:title=" ">
<polygon fill="#999999" stroke="#666666" points="160,-19 0,-19 0,0 160,0 160,-19"/>
<text text-anchor="middle" x="80" y="-7" font-family="Helvetica,sans-Serif" font-size="10.00">SCR_PIPSightsComponentClass</text>
</a>
</g>
</g>
<!-- Node2 -->
<g id="node2" class="node">
<title>Node2</title>
<g id="a_node2"><a xlink:href="interfaceScriptedSightsComponentClass.html" target="_top" xlink:title=" ">
<polygon fill="white" stroke="#666666" points="157.5,-74 2.5,-74 2.5,-55 157.5,-55 157.5,-74"/>
<text text-anchor="middle" x="80" y="-62" font-family="Helvetica,sans-Serif" font-size="10.00">ScriptedSightsComponentClass</text>
</a>
</g>
</g>
<!-- Node2&#45;&gt;Node1 -->
<g id="edge1" class="edge">
<title>Node2&#45;&gt;Node1</title>
<path fill="none" stroke="#63b8ff" d="M80,-43.93C80,-35.53 80,-26.13 80,-19.44"/>
<polygon fill="#63b8ff" stroke="#63b8ff" points="76.5,-43.75 80,-53.75 83.5,-43.75 76.5,-43.75"/>
</g>
<!-- Node3 -->
<g id="node3" class="node">
<title>Node3</title>
<g id="a_node3"><a xlink:href="interfaceSightsComponentClass.html" target="_top" xlink:title=" ">
<polygon fill="white" stroke="#666666" points="139.5,-129 20.5,-129 20.5,-110 139.5,-110 139.5,-129"/>
<text text-anchor="middle" x="80" y="-117" font-family="Helvetica,sans-Serif" font-size="10.00">SightsComponentClass</text>
</a>
</g>
</g>
<!-- Node3&#45;&gt;Node2 -->
<g id="edge2" class="edge">
<title>Node3&#45;&gt;Node2</title>
<path fill="none" stroke="#63b8ff" d="M80,-98.93C80,-90.53 80,-81.13 80,-74.44"/>
<polygon fill="#63b8ff" stroke="#63b8ff" points="76.5,-98.75 80,-108.75 83.5,-98.75 76.5,-98.75"/>
</g>
<!-- Node4 -->
<g id="node4" class="node">
<title>Node4</title>
<g id="a_node4"><a xlink:href="interfaceBaseSightsComponentClass.html" target="_top" xlink:title=" ">
<polygon fill="white" stroke="#666666" points="150.5,-184 9.5,-184 9.5,-165 150.5,-165 150.5,-184"/>
<text text-anchor="middle" x="80" y="-172" font-family="Helvetica,sans-Serif" font-size="10.00">BaseSightsComponentClass</text>
</a>
</g>
</g>
<!-- Node4&#45;&gt;Node3 -->
<g id="edge3" class="edge">
<title>Node4&#45;&gt;Node3</title>
<path fill="none" stroke="#63b8ff" d="M80,-153.93C80,-145.53 80,-136.13 80,-129.44"/>
<polygon fill="#63b8ff" stroke="#63b8ff" points="76.5,-153.75 80,-163.75 83.5,-153.75 76.5,-153.75"/>
</g>
<!-- Node5 -->
<g id="node5" class="node">
<title>Node5</title>
<g id="a_node5"><a xlink:href="interfaceGameComponentClass.html" target="_top" xlink:title=" ">
<polygon fill="white" stroke="#666666" points="138.5,-239 21.5,-239 21.5,-220 138.5,-220 138.5,-239"/>
<text text-anchor="middle" x="80" y="-227" font-family="Helvetica,sans-Serif" font-size="10.00">GameComponentClass</text>
</a>
</g>
</g>
<!-- Node5&#45;&gt;Node4 -->
<g id="edge4" class="edge">
<title>Node5&#45;&gt;Node4</title>
<path fill="none" stroke="#63b8ff" d="M80,-208.93C80,-200.53 80,-191.13 80,-184.44"/>
<polygon fill="#63b8ff" stroke="#63b8ff" points="76.5,-208.75 80,-218.75 83.5,-208.75 76.5,-208.75"/>
</g>
<!-- Node6 -->
<g id="node6" class="node">
<title>Node6</title>
<g id="a_node6"><a xlink:title=" ">
<polygon fill="white" stroke="#666666" points="142.5,-294 17.5,-294 17.5,-275 142.5,-275 142.5,-294"/>
<text text-anchor="middle" x="80" y="-282" font-family="Helvetica,sans-Serif" font-size="10.00">GenericComponentClass</text>
</a>
</g>
</g>
<!-- Node6&#45;&gt;Node5 -->
<g id="edge5" class="edge">
<title>Node6&#45;&gt;Node5</title>
<path fill="none" stroke="#63b8ff" d="M80,-263.93C80,-255.53 80,-246.13 80,-239.44"/>
<polygon fill="#63b8ff" stroke="#63b8ff" points="76.5,-263.75 80,-273.75 83.5,-263.75 76.5,-263.75"/>
</g>
</g>
</svg>
