<?xml version="1.0" encoding="UTF-8" standalone="no"?>
<!DOCTYPE svg PUBLIC "-//W3C//DTD SVG 1.1//EN"
 "http://www.w3.org/Graphics/SVG/1.1/DTD/svg11.dtd">
<!-- Generated by graphviz version 8.0.2 (20230410.1723)
 -->
<!-- Title: SCR_DestructionDamageManagerComponent Pages: 1 -->
<svg width="346pt" height="434pt"
 viewBox="0.00 0.00 346.00 434.00" xmlns="http://www.w3.org/2000/svg" xmlns:xlink="http://www.w3.org/1999/xlink">
<g id="graph0" class="graph" transform="scale(1 1) rotate(0) translate(4 430)">
<title>SCR_DestructionDamageManagerComponent</title>
<!-- Node1 -->
<g id="node1" class="node">
<title>Node1</title>
<g id="a_node1"><a xlink:title="Base destruction component, destruction types extend from this.">
<polygon fill="#999999" stroke="#666666" points="255,-151 90,-151 90,-121 255,-121 255,-151"/>
<text text-anchor="start" x="98" y="-139" font-family="Helvetica,sans-Serif" font-size="10.00">SCR_DestructionDamageManager</text>
<text text-anchor="middle" x="172.5" y="-128" font-family="Helvetica,sans-Serif" font-size="10.00">Component</text>
</a>
</g>
</g>
<!-- Node7 -->
<g id="node7" class="node">
<title>Node7</title>
<g id="a_node7"><a xlink:href="interfaceSCR__DestructionFractalComponent.html" target="_top" xlink:title="Fractal destruction component. For objects that should shatter/splinter etc.">
<polygon fill="white" stroke="#666666" points="171,-79.5 0,-79.5 0,-60.5 171,-60.5 171,-79.5"/>
<text text-anchor="middle" x="85.5" y="-67.5" font-family="Helvetica,sans-Serif" font-size="10.00">SCR_DestructionFractalComponent</text>
</a>
</g>
</g>
<!-- Node1&#45;&gt;Node7 -->
<g id="edge6" class="edge">
<title>Node1&#45;&gt;Node7</title>
<path fill="none" stroke="#63b8ff" d="M144.75,-114.58C128.83,-102.87 109.66,-88.77 97.52,-79.84"/>
<polygon fill="#63b8ff" stroke="#63b8ff" points="142.06,-117.69 152.19,-120.8 146.21,-112.05 142.06,-117.69"/>
</g>
<!-- Node8 -->
<g id="node8" class="node">
<title>Node8</title>
<g id="a_node8"><a xlink:href="interfaceSCR__DestructionMultiPhaseComponent.html" target="_top" xlink:title="Multi&#45;Phase destruction component, for objects that go through several destruction states.">
<polygon fill="white" stroke="#666666" points="329.5,-85 189.5,-85 189.5,-55 329.5,-55 329.5,-85"/>
<text text-anchor="start" x="197.5" y="-73" font-family="Helvetica,sans-Serif" font-size="10.00">SCR_DestructionMultiPhase</text>
<text text-anchor="middle" x="259.5" y="-62" font-family="Helvetica,sans-Serif" font-size="10.00">Component</text>
</a>
</g>
</g>
<!-- Node1&#45;&gt;Node8 -->
<g id="edge7" class="edge">
<title>Node1&#45;&gt;Node8</title>
<path fill="none" stroke="#63b8ff" d="M200.34,-114.52C213.24,-105.03 228.26,-93.98 239.95,-85.39"/>
<polygon fill="#63b8ff" stroke="#63b8ff" points="198.79,-112.05 192.81,-120.8 202.94,-117.69 198.79,-112.05"/>
</g>
<!-- Node2 -->
<g id="node2" class="node">
<title>Node2</title>
<g id="a_node2"><a xlink:href="interfaceSCR__DamageManagerComponent.html" target="_top" xlink:title=" ">
<polygon fill="white" stroke="#666666" points="255,-206 90,-206 90,-187 255,-187 255,-206"/>
<text text-anchor="middle" x="172.5" y="-194" font-family="Helvetica,sans-Serif" font-size="10.00">SCR_DamageManagerComponent</text>
</a>
</g>
</g>
<!-- Node2&#45;&gt;Node1 -->
<g id="edge1" class="edge">
<title>Node2&#45;&gt;Node1</title>
<path fill="none" stroke="#63b8ff" d="M172.5,-176.08C172.5,-167.92 172.5,-158.6 172.5,-151.11"/>
<polygon fill="#63b8ff" stroke="#63b8ff" points="169,-175.87 172.5,-185.87 176,-175.87 169,-175.87"/>
</g>
<!-- Node3 -->
<g id="node3" class="node">
<title>Node3</title>
<g id="a_node3"><a xlink:href="interfaceDamageManagerComponent.html" target="_top" xlink:title=" ">
<polygon fill="white" stroke="#666666" points="242.5,-261 102.5,-261 102.5,-242 242.5,-242 242.5,-261"/>
<text text-anchor="middle" x="172.5" y="-249" font-family="Helvetica,sans-Serif" font-size="10.00">DamageManagerComponent</text>
</a>
</g>
</g>
<!-- Node3&#45;&gt;Node2 -->
<g id="edge2" class="edge">
<title>Node3&#45;&gt;Node2</title>
<path fill="none" stroke="#63b8ff" d="M172.5,-230.93C172.5,-222.53 172.5,-213.13 172.5,-206.44"/>
<polygon fill="#63b8ff" stroke="#63b8ff" points="169,-230.75 172.5,-240.75 176,-230.75 169,-230.75"/>
</g>
<!-- Node4 -->
<g id="node4" class="node">
<title>Node4</title>
<g id="a_node4"><a xlink:href="interfaceHitZoneContainerComponent.html" target="_top" xlink:title=" ">
<polygon fill="white" stroke="#666666" points="242.5,-316 102.5,-316 102.5,-297 242.5,-297 242.5,-316"/>
<text text-anchor="middle" x="172.5" y="-304" font-family="Helvetica,sans-Serif" font-size="10.00">HitZoneContainerComponent</text>
</a>
</g>
</g>
<!-- Node4&#45;&gt;Node3 -->
<g id="edge3" class="edge">
<title>Node4&#45;&gt;Node3</title>
<path fill="none" stroke="#63b8ff" d="M172.5,-285.93C172.5,-277.53 172.5,-268.13 172.5,-261.44"/>
<polygon fill="#63b8ff" stroke="#63b8ff" points="169,-285.75 172.5,-295.75 176,-285.75 169,-285.75"/>
</g>
<!-- Node5 -->
<g id="node5" class="node">
<title>Node5</title>
<g id="a_node5"><a xlink:href="interfaceGameComponent.html" target="_top" xlink:title=" ">
<polygon fill="white" stroke="#666666" points="218.5,-371 126.5,-371 126.5,-352 218.5,-352 218.5,-371"/>
<text text-anchor="middle" x="172.5" y="-359" font-family="Helvetica,sans-Serif" font-size="10.00">GameComponent</text>
</a>
</g>
</g>
<!-- Node5&#45;&gt;Node4 -->
<g id="edge4" class="edge">
<title>Node5&#45;&gt;Node4</title>
<path fill="none" stroke="#63b8ff" d="M172.5,-340.93C172.5,-332.53 172.5,-323.13 172.5,-316.44"/>
<polygon fill="#63b8ff" stroke="#63b8ff" points="169,-340.75 172.5,-350.75 176,-340.75 169,-340.75"/>
</g>
<!-- Node6 -->
<g id="node6" class="node">
<title>Node6</title>
<g id="a_node6"><a xlink:title=" ">
<polygon fill="white" stroke="#666666" points="222.5,-426 122.5,-426 122.5,-407 222.5,-407 222.5,-426"/>
<text text-anchor="middle" x="172.5" y="-414" font-family="Helvetica,sans-Serif" font-size="10.00">GenericComponent</text>
</a>
</g>
</g>
<!-- Node6&#45;&gt;Node5 -->
<g id="edge5" class="edge">
<title>Node6&#45;&gt;Node5</title>
<path fill="none" stroke="#63b8ff" d="M172.5,-395.93C172.5,-387.53 172.5,-378.13 172.5,-371.44"/>
<polygon fill="#63b8ff" stroke="#63b8ff" points="169,-395.75 172.5,-405.75 176,-395.75 169,-395.75"/>
</g>
<!-- Node9 -->
<g id="node9" class="node">
<title>Node9</title>
<g id="a_node9"><a xlink:href="interfaceSCR__DestructionTireComponent.html" target="_top" xlink:title="Tire destruction component, for destruction and deformation of tires.">
<polygon fill="white" stroke="#666666" points="338,-19 181,-19 181,0 338,0 338,-19"/>
<text text-anchor="middle" x="259.5" y="-7" font-family="Helvetica,sans-Serif" font-size="10.00">SCR_DestructionTireComponent</text>
</a>
</g>
</g>
<!-- Node8&#45;&gt;Node9 -->
<g id="edge8" class="edge">
<title>Node8&#45;&gt;Node9</title>
<path fill="none" stroke="#63b8ff" d="M259.5,-43.59C259.5,-34.85 259.5,-25.65 259.5,-19.18"/>
<polygon fill="#63b8ff" stroke="#63b8ff" points="256,-43.54 259.5,-53.54 263,-43.54 256,-43.54"/>
</g>
</g>
</svg>
