<?xml version="1.0" encoding="UTF-8" standalone="no"?>
<!DOCTYPE svg PUBLIC "-//W3C//DTD SVG 1.1//EN"
 "http://www.w3.org/Graphics/SVG/1.1/DTD/svg11.dtd">
<!-- Generated by graphviz version 8.0.2 (20230410.1723)
 -->
<!-- Title: SCR_PingContextAction Pages: 1 -->
<svg width="134pt" height="137pt"
 viewBox="0.00 0.00 134.00 137.00" xmlns="http://www.w3.org/2000/svg" xmlns:xlink="http://www.w3.org/1999/xlink">
<g id="graph0" class="graph" transform="scale(1 1) rotate(0) translate(4 133)">
<title>SCR_PingContextAction</title>
<!-- Node1 -->
<g id="node1" class="node">
<title>Node1</title>
<g id="a_node1"><a xlink:title=" ">
<polygon fill="#999999" stroke="#666666" points="124.5,-19 1.5,-19 1.5,0 124.5,0 124.5,-19"/>
<text text-anchor="middle" x="63" y="-7" font-family="Helvetica,sans-Serif" font-size="10.00">SCR_PingContextAction</text>
</a>
</g>
</g>
<!-- Node2 -->
<g id="node2" class="node">
<title>Node2</title>
<g id="a_node2"><a xlink:href="interfaceSCR__BaseContextAction.html" target="_top" xlink:title="Base container class for editor context actions.">
<polygon fill="white" stroke="#666666" points="126,-74 0,-74 0,-55 126,-55 126,-74"/>
<text text-anchor="middle" x="63" y="-62" font-family="Helvetica,sans-Serif" font-size="10.00">SCR_BaseContextAction</text>
</a>
</g>
</g>
<!-- Node2&#45;&gt;Node1 -->
<g id="edge1" class="edge">
<title>Node2&#45;&gt;Node1</title>
<path fill="none" stroke="#63b8ff" d="M63,-43.93C63,-35.53 63,-26.13 63,-19.44"/>
<polygon fill="#63b8ff" stroke="#63b8ff" points="59.5,-43.75 63,-53.75 66.5,-43.75 59.5,-43.75"/>
</g>
<!-- Node3 -->
<g id="node3" class="node">
<title>Node3</title>
<g id="a_node3"><a xlink:href="interfaceSCR__BaseEditorAction.html" target="_top" xlink:title="Base container class for all editor action types (ContextActions, WaypointActions,...">
<polygon fill="white" stroke="#666666" points="122,-129 4,-129 4,-110 122,-110 122,-129"/>
<text text-anchor="middle" x="63" y="-117" font-family="Helvetica,sans-Serif" font-size="10.00">SCR_BaseEditorAction</text>
</a>
</g>
</g>
<!-- Node3&#45;&gt;Node2 -->
<g id="edge2" class="edge">
<title>Node3&#45;&gt;Node2</title>
<path fill="none" stroke="#63b8ff" d="M63,-98.93C63,-90.53 63,-81.13 63,-74.44"/>
<polygon fill="#63b8ff" stroke="#63b8ff" points="59.5,-98.75 63,-108.75 66.5,-98.75 59.5,-98.75"/>
</g>
</g>
</svg>
