<?xml version="1.0" encoding="UTF-8" standalone="no"?>
<!DOCTYPE svg PUBLIC "-//W3C//DTD SVG 1.1//EN"
 "http://www.w3.org/Graphics/SVG/1.1/DTD/svg11.dtd">
<!-- Generated by graphviz version 8.0.2 (20230410.1723)
 -->
<!-- Title: SCR_TransportTaskSupportEntity Pages: 1 -->
<svg width="153pt" height="214pt"
 viewBox="0.00 0.00 153.00 214.00" xmlns="http://www.w3.org/2000/svg" xmlns:xlink="http://www.w3.org/1999/xlink">
<g id="graph0" class="graph" transform="scale(1 1) rotate(0) translate(4 210)">
<title>SCR_TransportTaskSupportEntity</title>
<!-- Node1 -->
<g id="node1" class="node">
<title>Node1</title>
<g id="a_node1"><a xlink:title=" ">
<polygon fill="#999999" stroke="#666666" points="141,-30 4,-30 4,0 141,0 141,-30"/>
<text text-anchor="start" x="12" y="-18" font-family="Helvetica,sans-Serif" font-size="10.00">SCR_TransportTaskSupport</text>
<text text-anchor="middle" x="72.5" y="-7" font-family="Helvetica,sans-Serif" font-size="10.00">Entity</text>
</a>
</g>
</g>
<!-- Node2 -->
<g id="node2" class="node">
<title>Node2</title>
<g id="a_node2"><a xlink:href="interfaceSCR__RequestedTaskSupportEntity.html" target="_top" xlink:title=" ">
<polygon fill="white" stroke="#666666" points="144,-96 1,-96 1,-66 144,-66 144,-96"/>
<text text-anchor="start" x="9" y="-84" font-family="Helvetica,sans-Serif" font-size="10.00">SCR_RequestedTaskSupport</text>
<text text-anchor="middle" x="72.5" y="-73" font-family="Helvetica,sans-Serif" font-size="10.00">Entity</text>
</a>
</g>
</g>
<!-- Node2&#45;&gt;Node1 -->
<g id="edge1" class="edge">
<title>Node2&#45;&gt;Node1</title>
<path fill="none" stroke="#63b8ff" d="M72.5,-54.97C72.5,-46.55 72.5,-37.45 72.5,-30.16"/>
<polygon fill="#63b8ff" stroke="#63b8ff" points="69,-54.8 72.5,-64.8 76,-54.8 69,-54.8"/>
</g>
<!-- Node3 -->
<g id="node3" class="node">
<title>Node3</title>
<g id="a_node3"><a xlink:href="interfaceSCR__BaseTaskSupportEntity.html" target="_top" xlink:title=" ">
<polygon fill="white" stroke="#666666" points="145,-151 0,-151 0,-132 145,-132 145,-151"/>
<text text-anchor="middle" x="72.5" y="-139" font-family="Helvetica,sans-Serif" font-size="10.00">SCR_BaseTaskSupportEntity</text>
</a>
</g>
</g>
<!-- Node3&#45;&gt;Node2 -->
<g id="edge2" class="edge">
<title>Node3&#45;&gt;Node2</title>
<path fill="none" stroke="#63b8ff" d="M72.5,-121.08C72.5,-112.92 72.5,-103.6 72.5,-96.11"/>
<polygon fill="#63b8ff" stroke="#63b8ff" points="69,-120.87 72.5,-130.87 76,-120.87 69,-120.87"/>
</g>
<!-- Node4 -->
<g id="node4" class="node">
<title>Node4</title>
<g id="a_node4"><a xlink:title=" ">
<polygon fill="white" stroke="#666666" points="110.5,-206 34.5,-206 34.5,-187 110.5,-187 110.5,-206"/>
<text text-anchor="middle" x="72.5" y="-194" font-family="Helvetica,sans-Serif" font-size="10.00">GenericEntity</text>
</a>
</g>
</g>
<!-- Node4&#45;&gt;Node3 -->
<g id="edge3" class="edge">
<title>Node4&#45;&gt;Node3</title>
<path fill="none" stroke="#63b8ff" d="M72.5,-175.93C72.5,-167.53 72.5,-158.13 72.5,-151.44"/>
<polygon fill="#63b8ff" stroke="#63b8ff" points="69,-175.75 72.5,-185.75 76,-175.75 69,-175.75"/>
</g>
</g>
</svg>
