<?xml version="1.0" encoding="UTF-8" standalone="no"?>
<!DOCTYPE svg PUBLIC "-//W3C//DTD SVG 1.1//EN"
 "http://www.w3.org/Graphics/SVG/1.1/DTD/svg11.dtd">
<!-- Generated by graphviz version 8.0.2 (20230410.1723)
 -->
<!-- Title: SCR_EntitySpawnerCharacterSlotComponent Pages: 1 -->
<svg width="180pt" height="148pt"
 viewBox="0.00 0.00 180.00 148.00" xmlns="http://www.w3.org/2000/svg" xmlns:xlink="http://www.w3.org/1999/xlink">
<g id="graph0" class="graph" transform="scale(1 1) rotate(0) translate(4 144)">
<title>SCR_EntitySpawnerCharacterSlotComponent</title>
<!-- Node1 -->
<g id="node1" class="node">
<title>Node1</title>
<g id="a_node1"><a xlink:title="Specifies slot to be used with nearby Entity Spawner Components.">
<polygon fill="#999999" stroke="#666666" points="159.5,-30 12.5,-30 12.5,0 159.5,0 159.5,-30"/>
<text text-anchor="start" x="20.5" y="-18" font-family="Helvetica,sans-Serif" font-size="10.00">SCR_EntitySpawnerCharacter</text>
<text text-anchor="middle" x="86" y="-7" font-family="Helvetica,sans-Serif" font-size="10.00">SlotComponent</text>
</a>
</g>
</g>
<!-- Node2 -->
<g id="node2" class="node">
<title>Node2</title>
<g id="a_node2"><a xlink:href="interfaceSCR__EntitySpawnerSlotComponent.html" target="_top" xlink:title="Specifies slot to be used with nearby Entity Spawner Components.">
<polygon fill="white" stroke="#666666" points="172,-85 0,-85 0,-66 172,-66 172,-85"/>
<text text-anchor="middle" x="86" y="-73" font-family="Helvetica,sans-Serif" font-size="10.00">SCR_EntitySpawnerSlotComponent</text>
</a>
</g>
</g>
<!-- Node2&#45;&gt;Node1 -->
<g id="edge1" class="edge">
<title>Node2&#45;&gt;Node1</title>
<path fill="none" stroke="#63b8ff" d="M86,-55.08C86,-46.92 86,-37.6 86,-30.11"/>
<polygon fill="#63b8ff" stroke="#63b8ff" points="82.5,-54.87 86,-64.87 89.5,-54.87 82.5,-54.87"/>
</g>
<!-- Node3 -->
<g id="node3" class="node">
<title>Node3</title>
<g id="a_node3"><a xlink:title=" ">
<polygon fill="white" stroke="#666666" points="132,-140 40,-140 40,-121 132,-121 132,-140"/>
<text text-anchor="middle" x="86" y="-128" font-family="Helvetica,sans-Serif" font-size="10.00">ScriptComponent</text>
</a>
</g>
</g>
<!-- Node3&#45;&gt;Node2 -->
<g id="edge2" class="edge">
<title>Node3&#45;&gt;Node2</title>
<path fill="none" stroke="#63b8ff" d="M86,-109.93C86,-101.53 86,-92.13 86,-85.44"/>
<polygon fill="#63b8ff" stroke="#63b8ff" points="82.5,-109.75 86,-119.75 89.5,-109.75 82.5,-109.75"/>
</g>
</g>
</svg>
