<?xml version="1.0" encoding="UTF-8" standalone="no"?>
<!DOCTYPE svg PUBLIC "-//W3C//DTD SVG 1.1//EN"
 "http://www.w3.org/Graphics/SVG/1.1/DTD/svg11.dtd">
<!-- Generated by graphviz version 8.0.2 (20230410.1723)
 -->
<!-- Title: SCR_CampaignBuildingBudgetEditorComponentClass Pages: 1 -->
<svg width="172pt" height="214pt"
 viewBox="0.00 0.00 172.00 214.00" xmlns="http://www.w3.org/2000/svg" xmlns:xlink="http://www.w3.org/1999/xlink">
<g id="graph0" class="graph" transform="scale(1 1) rotate(0) translate(4 210)">
<title>SCR_CampaignBuildingBudgetEditorComponentClass</title>
<!-- Node1 -->
<g id="node1" class="node">
<title>Node1</title>
<g id="a_node1"><a xlink:title=" ">
<polygon fill="#999999" stroke="#666666" points="157.5,-30 6.5,-30 6.5,0 157.5,0 157.5,-30"/>
<text text-anchor="start" x="14.5" y="-18" font-family="Helvetica,sans-Serif" font-size="10.00">SCR_CampaignBuildingBudget</text>
<text text-anchor="middle" x="82" y="-7" font-family="Helvetica,sans-Serif" font-size="10.00">EditorComponentClass</text>
</a>
</g>
</g>
<!-- Node2 -->
<g id="node2" class="node">
<title>Node2</title>
<g id="a_node2"><a xlink:href="interfaceSCR__BudgetEditorComponentClass.html" target="_top" xlink:title=" ">
<polygon fill="white" stroke="#666666" points="156,-96 8,-96 8,-66 156,-66 156,-96"/>
<text text-anchor="start" x="16" y="-84" font-family="Helvetica,sans-Serif" font-size="10.00">SCR_BudgetEditorComponent</text>
<text text-anchor="middle" x="82" y="-73" font-family="Helvetica,sans-Serif" font-size="10.00">Class</text>
</a>
</g>
</g>
<!-- Node2&#45;&gt;Node1 -->
<g id="edge1" class="edge">
<title>Node2&#45;&gt;Node1</title>
<path fill="none" stroke="#63b8ff" d="M82,-54.97C82,-46.55 82,-37.45 82,-30.16"/>
<polygon fill="#63b8ff" stroke="#63b8ff" points="78.5,-54.8 82,-64.8 85.5,-54.8 78.5,-54.8"/>
</g>
<!-- Node3 -->
<g id="node3" class="node">
<title>Node3</title>
<g id="a_node3"><a xlink:href="interfaceSCR__BaseEditorComponentClass.html" target="_top" xlink:title=" ">
<polygon fill="white" stroke="#666666" points="164,-151 0,-151 0,-132 164,-132 164,-151"/>
<text text-anchor="middle" x="82" y="-139" font-family="Helvetica,sans-Serif" font-size="10.00">SCR_BaseEditorComponentClass</text>
</a>
</g>
</g>
<!-- Node3&#45;&gt;Node2 -->
<g id="edge2" class="edge">
<title>Node3&#45;&gt;Node2</title>
<path fill="none" stroke="#63b8ff" d="M82,-121.08C82,-112.92 82,-103.6 82,-96.11"/>
<polygon fill="#63b8ff" stroke="#63b8ff" points="78.5,-120.87 82,-130.87 85.5,-120.87 78.5,-120.87"/>
</g>
<!-- Node4 -->
<g id="node4" class="node">
<title>Node4</title>
<g id="a_node4"><a xlink:title=" ">
<polygon fill="white" stroke="#666666" points="140,-206 24,-206 24,-187 140,-187 140,-206"/>
<text text-anchor="middle" x="82" y="-194" font-family="Helvetica,sans-Serif" font-size="10.00">ScriptComponentClass</text>
</a>
</g>
</g>
<!-- Node4&#45;&gt;Node3 -->
<g id="edge3" class="edge">
<title>Node4&#45;&gt;Node3</title>
<path fill="none" stroke="#63b8ff" d="M82,-175.93C82,-167.53 82,-158.13 82,-151.44"/>
<polygon fill="#63b8ff" stroke="#63b8ff" points="78.5,-175.75 82,-185.75 85.5,-175.75 78.5,-175.75"/>
</g>
</g>
</svg>
