<?xml version="1.0" encoding="UTF-8" standalone="no"?>
<!DOCTYPE svg PUBLIC "-//W3C//DTD SVG 1.1//EN"
 "http://www.w3.org/Graphics/SVG/1.1/DTD/svg11.dtd">
<!-- Generated by graphviz version 8.0.2 (20230410.1723)
 -->
<!-- Title: SCR_AISendMessageBase Pages: 1 -->
<svg width="633pt" height="150pt"
 viewBox="0.00 0.00 633.00 150.00" xmlns="http://www.w3.org/2000/svg" xmlns:xlink="http://www.w3.org/1999/xlink">
<g id="graph0" class="graph" transform="scale(1 1) rotate(0) translate(4 146)">
<title>SCR_AISendMessageBase</title>
<!-- Node1 -->
<g id="node1" class="node">
<title>Node1</title>
<g id="a_node1"><a xlink:title="Base class for nodes sending message.">
<polygon fill="#999999" stroke="#666666" points="255,-62 119,-62 119,-43 255,-43 255,-62"/>
<text text-anchor="middle" x="187" y="-50" font-family="Helvetica,sans-Serif" font-size="10.00">SCR_AISendMessageBase</text>
</a>
</g>
</g>
<!-- Node3 -->
<g id="node3" class="node">
<title>Node3</title>
<g id="a_node3"><a xlink:href="interfaceSCR__AISendMessageGeneric.html" target="_top" xlink:title="Class for generic nodes with extra input ports which send messages.">
<polygon fill="white" stroke="#666666" points="446.5,-105 299.5,-105 299.5,-86 446.5,-86 446.5,-105"/>
<text text-anchor="middle" x="373" y="-93" font-family="Helvetica,sans-Serif" font-size="10.00">SCR_AISendMessageGeneric</text>
</a>
</g>
</g>
<!-- Node1&#45;&gt;Node3 -->
<g id="edge2" class="edge">
<title>Node1&#45;&gt;Node3</title>
<path fill="none" stroke="#63b8ff" d="M241.09,-64.91C269.08,-71.45 302.96,-79.36 329.24,-85.51"/>
<polygon fill="#63b8ff" stroke="#63b8ff" points="242.21,-61.34 231.68,-62.47 240.62,-68.16 242.21,-61.34"/>
</g>
<!-- Node7 -->
<g id="node7" class="node">
<title>Node7</title>
<g id="a_node7"><a xlink:href="interfaceSCR__AISendMessage__ActionFailed.html" target="_top" xlink:title=" ">
<polygon fill="white" stroke="#666666" points="446,-67.5 300,-67.5 300,-37.5 446,-37.5 446,-67.5"/>
<text text-anchor="start" x="308" y="-55.5" font-family="Helvetica,sans-Serif" font-size="10.00">SCR_AISendMessage_Action</text>
<text text-anchor="middle" x="373" y="-44.5" font-family="Helvetica,sans-Serif" font-size="10.00">Failed</text>
</a>
</g>
</g>
<!-- Node1&#45;&gt;Node7 -->
<g id="edge6" class="edge">
<title>Node1&#45;&gt;Node7</title>
<path fill="none" stroke="#63b8ff" d="M266.38,-52.5C277.4,-52.5 288.68,-52.5 299.58,-52.5"/>
<polygon fill="#63b8ff" stroke="#63b8ff" points="266.47,-49 256.47,-52.5 266.47,-56 266.47,-49"/>
</g>
<!-- Node8 -->
<g id="node8" class="node">
<title>Node8</title>
<g id="a_node8"><a xlink:href="interfaceSCR__AISendMessage__HealFailed.html" target="_top" xlink:title=" ">
<polygon fill="white" stroke="#666666" points="455,-19 291,-19 291,0 455,0 455,-19"/>
<text text-anchor="middle" x="373" y="-7" font-family="Helvetica,sans-Serif" font-size="10.00">SCR_AISendMessage_HealFailed</text>
</a>
</g>
</g>
<!-- Node1&#45;&gt;Node8 -->
<g id="edge7" class="edge">
<title>Node1&#45;&gt;Node8</title>
<path fill="none" stroke="#63b8ff" d="M241.09,-40.09C269.08,-33.55 302.96,-25.64 329.24,-19.49"/>
<polygon fill="#63b8ff" stroke="#63b8ff" points="240.62,-36.84 231.68,-42.53 242.21,-43.66 240.62,-36.84"/>
</g>
<!-- Node2 -->
<g id="node2" class="node">
<title>Node2</title>
<g id="a_node2"><a xlink:title=" ">
<polygon fill="white" stroke="#666666" points="83,-62 0,-62 0,-43 83,-43 83,-62"/>
<text text-anchor="middle" x="41.5" y="-50" font-family="Helvetica,sans-Serif" font-size="10.00">AITaskScripted</text>
</a>
</g>
</g>
<!-- Node2&#45;&gt;Node1 -->
<g id="edge1" class="edge">
<title>Node2&#45;&gt;Node1</title>
<path fill="none" stroke="#63b8ff" d="M94.15,-52.5C102.08,-52.5 110.35,-52.5 118.55,-52.5"/>
<polygon fill="#63b8ff" stroke="#63b8ff" points="94.24,-49 84.24,-52.5 94.24,-56 94.24,-49"/>
</g>
<!-- Node4 -->
<g id="node4" class="node">
<title>Node4</title>
<g id="a_node4"><a xlink:href="interfaceSCR__AISendGoalMessage.html" target="_top" xlink:title=" ">
<polygon fill="white" stroke="#666666" points="625,-142 491,-142 491,-123 625,-123 625,-142"/>
<text text-anchor="middle" x="558" y="-130" font-family="Helvetica,sans-Serif" font-size="10.00">SCR_AISendGoalMessage</text>
</a>
</g>
</g>
<!-- Node3&#45;&gt;Node4 -->
<g id="edge3" class="edge">
<title>Node3&#45;&gt;Node4</title>
<path fill="none" stroke="#63b8ff" d="M433.79,-107.59C457.76,-112.43 485.04,-117.95 507.82,-122.56"/>
<polygon fill="#63b8ff" stroke="#63b8ff" points="434.54,-103.97 424.04,-105.42 433.15,-110.83 434.54,-103.97"/>
</g>
<!-- Node5 -->
<g id="node5" class="node">
<title>Node5</title>
<g id="a_node5"><a xlink:href="interfaceSCR__AISendInfoMessage.html" target="_top" xlink:title=" ">
<polygon fill="white" stroke="#666666" points="622,-105 494,-105 494,-86 622,-86 622,-105"/>
<text text-anchor="middle" x="558" y="-93" font-family="Helvetica,sans-Serif" font-size="10.00">SCR_AISendInfoMessage</text>
</a>
</g>
</g>
<!-- Node3&#45;&gt;Node5 -->
<g id="edge4" class="edge">
<title>Node3&#45;&gt;Node5</title>
<path fill="none" stroke="#63b8ff" d="M457.81,-95.5C469.83,-95.5 482.02,-95.5 493.56,-95.5"/>
<polygon fill="#63b8ff" stroke="#63b8ff" points="457.85,-92 447.85,-95.5 457.85,-99 457.85,-92"/>
</g>
<!-- Node6 -->
<g id="node6" class="node">
<title>Node6</title>
<g id="a_node6"><a xlink:href="interfaceSCR__AISendOrder.html" target="_top" xlink:title=" ">
<polygon fill="white" stroke="#666666" points="607,-68 509,-68 509,-49 607,-49 607,-68"/>
<text text-anchor="middle" x="558" y="-56" font-family="Helvetica,sans-Serif" font-size="10.00">SCR_AISendOrder</text>
</a>
</g>
</g>
<!-- Node3&#45;&gt;Node6 -->
<g id="edge5" class="edge">
<title>Node3&#45;&gt;Node6</title>
<path fill="none" stroke="#63b8ff" d="M433.6,-83.45C457.94,-78.53 485.74,-72.91 508.77,-68.25"/>
<polygon fill="#63b8ff" stroke="#63b8ff" points="433.15,-80.17 424.04,-85.58 434.54,-87.03 433.15,-80.17"/>
</g>
</g>
</svg>
