<?xml version="1.0" encoding="UTF-8" standalone="no"?>
<!DOCTYPE svg PUBLIC "-//W3C//DTD SVG 1.1//EN"
 "http://www.w3.org/Graphics/SVG/1.1/DTD/svg11.dtd">
<!-- Generated by graphviz version 8.0.2 (20230410.1723)
 -->
<!-- Title: SCR_DeviceBlockUIName Pages: 1 -->
<svg width="274pt" height="192pt"
 viewBox="0.00 0.00 274.00 192.00" xmlns="http://www.w3.org/2000/svg" xmlns:xlink="http://www.w3.org/1999/xlink">
<g id="graph0" class="graph" transform="scale(1 1) rotate(0) translate(4 188)">
<title>SCR_DeviceBlockUIName</title>
<!-- Node1 -->
<g id="node1" class="node">
<title>Node1</title>
<g id="a_node1"><a xlink:title=" ">
<polygon fill="#999999" stroke="#666666" points="200.5,-74 70.5,-74 70.5,-55 200.5,-55 200.5,-74"/>
<text text-anchor="middle" x="135.5" y="-62" font-family="Helvetica,sans-Serif" font-size="10.00">SCR_DeviceBlockUIName</text>
</a>
</g>
</g>
<!-- Node4 -->
<g id="node4" class="node">
<title>Node4</title>
<g id="a_node4"><a xlink:href="interfaceSCR__ActionBlockUIName.html" target="_top" xlink:title=" ">
<polygon fill="white" stroke="#666666" points="129,-19 0,-19 0,0 129,0 129,-19"/>
<text text-anchor="middle" x="64.5" y="-7" font-family="Helvetica,sans-Serif" font-size="10.00">SCR_ActionBlockUIName</text>
</a>
</g>
</g>
<!-- Node1&#45;&gt;Node4 -->
<g id="edge3" class="edge">
<title>Node1&#45;&gt;Node4</title>
<path fill="none" stroke="#63b8ff" d="M114.99,-48.19C102.46,-38.84 86.88,-27.21 76.37,-19.36"/>
<polygon fill="#63b8ff" stroke="#63b8ff" points="112.35,-51.33 122.46,-54.51 116.54,-45.72 112.35,-51.33"/>
</g>
<!-- Node5 -->
<g id="node5" class="node">
<title>Node5</title>
<g id="a_node5"><a xlink:href="interfaceSCR__KeyBlockUIName.html" target="_top" xlink:title=" ">
<polygon fill="white" stroke="#666666" points="266,-19 147,-19 147,0 266,0 266,-19"/>
<text text-anchor="middle" x="206.5" y="-7" font-family="Helvetica,sans-Serif" font-size="10.00">SCR_KeyBlockUIName</text>
</a>
</g>
</g>
<!-- Node1&#45;&gt;Node5 -->
<g id="edge4" class="edge">
<title>Node1&#45;&gt;Node5</title>
<path fill="none" stroke="#63b8ff" d="M156.01,-48.19C168.54,-38.84 184.12,-27.21 194.63,-19.36"/>
<polygon fill="#63b8ff" stroke="#63b8ff" points="154.46,-45.72 148.54,-54.51 158.65,-51.33 154.46,-45.72"/>
</g>
<!-- Node2 -->
<g id="node2" class="node">
<title>Node2</title>
<g id="a_node2"><a xlink:href="interfaceSCR__SubBlockUIName.html" target="_top" xlink:title=" ">
<polygon fill="white" stroke="#666666" points="195,-129 76,-129 76,-110 195,-110 195,-129"/>
<text text-anchor="middle" x="135.5" y="-117" font-family="Helvetica,sans-Serif" font-size="10.00">SCR_SubBlockUIName</text>
</a>
</g>
</g>
<!-- Node2&#45;&gt;Node1 -->
<g id="edge1" class="edge">
<title>Node2&#45;&gt;Node1</title>
<path fill="none" stroke="#63b8ff" d="M135.5,-98.93C135.5,-90.53 135.5,-81.13 135.5,-74.44"/>
<polygon fill="#63b8ff" stroke="#63b8ff" points="132,-98.75 135.5,-108.75 139,-98.75 132,-98.75"/>
</g>
<!-- Node3 -->
<g id="node3" class="node">
<title>Node3</title>
<g id="a_node3"><a xlink:href="interfaceSCR__UIName.html" target="_top" xlink:title="Class used to hold UI name.">
<polygon fill="white" stroke="#666666" points="174,-184 97,-184 97,-165 174,-165 174,-184"/>
<text text-anchor="middle" x="135.5" y="-172" font-family="Helvetica,sans-Serif" font-size="10.00">SCR_UIName</text>
</a>
</g>
</g>
<!-- Node3&#45;&gt;Node2 -->
<g id="edge2" class="edge">
<title>Node3&#45;&gt;Node2</title>
<path fill="none" stroke="#63b8ff" d="M135.5,-153.93C135.5,-145.53 135.5,-136.13 135.5,-129.44"/>
<polygon fill="#63b8ff" stroke="#63b8ff" points="132,-153.75 135.5,-163.75 139,-153.75 132,-153.75"/>
</g>
</g>
</svg>
