<?xml version="1.0" encoding="UTF-8" standalone="no"?>
<!DOCTYPE svg PUBLIC "-//W3C//DTD SVG 1.1//EN"
 "http://www.w3.org/Graphics/SVG/1.1/DTD/svg11.dtd">
<!-- Generated by graphviz version 8.0.2 (20230410.1723)
 -->
<!-- Title: LocParserRule_Custom_BaseParam Pages: 1 -->
<svg width="282pt" height="278pt"
 viewBox="0.00 0.00 282.00 278.00" xmlns="http://www.w3.org/2000/svg" xmlns:xlink="http://www.w3.org/1999/xlink">
<g id="graph0" class="graph" transform="scale(1 1) rotate(0) translate(4 274)">
<title>LocParserRule_Custom_BaseParam</title>
<!-- Node1 -->
<g id="node1" class="node">
<title>Node1</title>
<g id="a_node1"><a xlink:title=" ">
<polygon fill="#999999" stroke="#666666" points="119,-150 0,-150 0,-120 119,-120 119,-150"/>
<text text-anchor="start" x="8" y="-138" font-family="Helvetica,sans-Serif" font-size="10.00">LocParserRule_Custom</text>
<text text-anchor="middle" x="59.5" y="-127" font-family="Helvetica,sans-Serif" font-size="10.00">_BaseParam</text>
</a>
</g>
</g>
<!-- Node2 -->
<g id="node2" class="node">
<title>Node2</title>
<g id="a_node2"><a xlink:href="interfaceLocParserRule__Custom__EnumParam.html" target="_top" xlink:title=" ">
<polygon fill="white" stroke="#666666" points="274,-270 155,-270 155,-240 274,-240 274,-270"/>
<text text-anchor="start" x="163" y="-258" font-family="Helvetica,sans-Serif" font-size="10.00">LocParserRule_Custom</text>
<text text-anchor="middle" x="214.5" y="-247" font-family="Helvetica,sans-Serif" font-size="10.00">_EnumParam</text>
</a>
</g>
</g>
<!-- Node1&#45;&gt;Node2 -->
<g id="edge1" class="edge">
<title>Node1&#45;&gt;Node2</title>
<path fill="none" stroke="#63b8ff" d="M79.01,-158.65C96.66,-179.91 124.93,-210.81 155,-231 159.74,-234.18 164.97,-237.06 170.29,-239.63"/>
<polygon fill="#63b8ff" stroke="#63b8ff" points="81.15,-156.74 72.13,-151.19 75.72,-161.16 81.15,-156.74"/>
</g>
<!-- Node3 -->
<g id="node3" class="node">
<title>Node3</title>
<g id="a_node3"><a xlink:href="interfaceLocParserRule__Custom__HintParam.html" target="_top" xlink:title=" ">
<polygon fill="white" stroke="#666666" points="274,-222 155,-222 155,-192 274,-192 274,-222"/>
<text text-anchor="start" x="163" y="-210" font-family="Helvetica,sans-Serif" font-size="10.00">LocParserRule_Custom</text>
<text text-anchor="middle" x="214.5" y="-199" font-family="Helvetica,sans-Serif" font-size="10.00">_HintParam</text>
</a>
</g>
</g>
<!-- Node1&#45;&gt;Node3 -->
<g id="edge2" class="edge">
<title>Node1&#45;&gt;Node3</title>
<path fill="none" stroke="#63b8ff" d="M98.77,-155.32C115.83,-164.15 136.26,-174.41 155,-183 161.29,-185.88 168.02,-188.8 174.61,-191.56"/>
<polygon fill="#63b8ff" stroke="#63b8ff" points="100.64,-151.83 90.16,-150.32 97.41,-158.04 100.64,-151.83"/>
</g>
<!-- Node4 -->
<g id="node4" class="node">
<title>Node4</title>
<g id="a_node4"><a xlink:href="interfaceLocParserRule__Custom__IndexParam.html" target="_top" xlink:title=" ">
<polygon fill="white" stroke="#666666" points="274,-174 155,-174 155,-144 274,-144 274,-174"/>
<text text-anchor="start" x="163" y="-162" font-family="Helvetica,sans-Serif" font-size="10.00">LocParserRule_Custom</text>
<text text-anchor="middle" x="214.5" y="-151" font-family="Helvetica,sans-Serif" font-size="10.00">_IndexParam</text>
</a>
</g>
</g>
<!-- Node1&#45;&gt;Node4 -->
<g id="edge3" class="edge">
<title>Node1&#45;&gt;Node4</title>
<path fill="none" stroke="#63b8ff" d="M129.98,-145.9C138.23,-147.19 146.6,-148.51 154.69,-149.77"/>
<polygon fill="#63b8ff" stroke="#63b8ff" points="130.64,-142.3 120.22,-144.21 129.55,-149.22 130.64,-142.3"/>
</g>
<!-- Node5 -->
<g id="node5" class="node">
<title>Node5</title>
<g id="a_node5"><a xlink:href="interfaceLocParserRule__Custom__NotificationParam.html" target="_top" xlink:title=" ">
<polygon fill="white" stroke="#666666" points="274,-126 155,-126 155,-96 274,-96 274,-126"/>
<text text-anchor="start" x="163" y="-114" font-family="Helvetica,sans-Serif" font-size="10.00">LocParserRule_Custom</text>
<text text-anchor="middle" x="214.5" y="-103" font-family="Helvetica,sans-Serif" font-size="10.00">_NotificationParam</text>
</a>
</g>
</g>
<!-- Node1&#45;&gt;Node5 -->
<g id="edge4" class="edge">
<title>Node1&#45;&gt;Node5</title>
<path fill="none" stroke="#63b8ff" d="M129.98,-124.1C138.23,-122.81 146.6,-121.49 154.69,-120.23"/>
<polygon fill="#63b8ff" stroke="#63b8ff" points="129.55,-120.78 120.22,-125.79 130.64,-127.7 129.55,-120.78"/>
</g>
<!-- Node6 -->
<g id="node6" class="node">
<title>Node6</title>
<g id="a_node6"><a xlink:href="interfaceLocParserRule__Custom__ResourceNameParam.html" target="_top" xlink:title=" ">
<polygon fill="white" stroke="#666666" points="274,-78 155,-78 155,-48 274,-48 274,-78"/>
<text text-anchor="start" x="163" y="-66" font-family="Helvetica,sans-Serif" font-size="10.00">LocParserRule_Custom</text>
<text text-anchor="middle" x="214.5" y="-55" font-family="Helvetica,sans-Serif" font-size="10.00">_ResourceNameParam</text>
</a>
</g>
</g>
<!-- Node1&#45;&gt;Node6 -->
<g id="edge5" class="edge">
<title>Node1&#45;&gt;Node6</title>
<path fill="none" stroke="#63b8ff" d="M98.77,-114.68C115.83,-105.85 136.26,-95.59 155,-87 161.29,-84.12 168.02,-81.2 174.61,-78.44"/>
<polygon fill="#63b8ff" stroke="#63b8ff" points="97.41,-111.96 90.16,-119.68 100.64,-118.17 97.41,-111.96"/>
</g>
<!-- Node7 -->
<g id="node7" class="node">
<title>Node7</title>
<g id="a_node7"><a xlink:href="interfaceLocParserRule__Custom__StringParam.html" target="_top" xlink:title=" ">
<polygon fill="white" stroke="#666666" points="274,-30 155,-30 155,0 274,0 274,-30"/>
<text text-anchor="start" x="163" y="-18" font-family="Helvetica,sans-Serif" font-size="10.00">LocParserRule_Custom</text>
<text text-anchor="middle" x="214.5" y="-7" font-family="Helvetica,sans-Serif" font-size="10.00">_StringParam</text>
</a>
</g>
</g>
<!-- Node1&#45;&gt;Node7 -->
<g id="edge6" class="edge">
<title>Node1&#45;&gt;Node7</title>
<path fill="none" stroke="#63b8ff" d="M79.01,-111.35C96.66,-90.09 124.93,-59.19 155,-39 159.74,-35.82 164.97,-32.94 170.29,-30.37"/>
<polygon fill="#63b8ff" stroke="#63b8ff" points="75.72,-108.84 72.13,-118.81 81.15,-113.26 75.72,-108.84"/>
</g>
</g>
</svg>
