<?xml version="1.0" encoding="UTF-8" standalone="no"?>
<!DOCTYPE svg PUBLIC "-//W3C//DTD SVG 1.1//EN"
 "http://www.w3.org/Graphics/SVG/1.1/DTD/svg11.dtd">
<!-- Generated by graphviz version 8.0.2 (20230410.1723)
 -->
<!-- Title: SCR_BaseGroupEntry Pages: 1 -->
<svg width="148pt" height="313pt"
 viewBox="0.00 0.00 148.00 313.00" xmlns="http://www.w3.org/2000/svg" xmlns:xlink="http://www.w3.org/1999/xlink">
<g id="graph0" class="graph" transform="scale(1 1) rotate(0) translate(4 309)">
<title>SCR_BaseGroupEntry</title>
<!-- Node1 -->
<g id="node1" class="node">
<title>Node1</title>
<g id="a_node1"><a xlink:title="An abstract wrapper to provide common interface for items that can be stored in a BaseGroup.">
<polygon fill="#999999" stroke="#666666" points="127,-74 13,-74 13,-55 127,-55 127,-74"/>
<text text-anchor="middle" x="70" y="-62" font-family="Helvetica,sans-Serif" font-size="10.00">SCR_BaseGroupEntry</text>
</a>
</g>
</g>
<!-- Node6 -->
<g id="node6" class="node">
<title>Node6</title>
<g id="a_node6"><a xlink:href="interfaceSCR__GroupWeaponEntry.html" target="_top" xlink:title="Implementation of base group for switching that can be created via passing in a list of WeaponSlotCom...">
<polygon fill="white" stroke="#666666" points="134,-19 6,-19 6,0 134,0 134,-19"/>
<text text-anchor="middle" x="70" y="-7" font-family="Helvetica,sans-Serif" font-size="10.00">SCR_GroupWeaponEntry</text>
</a>
</g>
</g>
<!-- Node1&#45;&gt;Node6 -->
<g id="edge5" class="edge">
<title>Node1&#45;&gt;Node6</title>
<path fill="none" stroke="#63b8ff" d="M70,-43.93C70,-35.53 70,-26.13 70,-19.44"/>
<polygon fill="#63b8ff" stroke="#63b8ff" points="66.5,-43.75 70,-53.75 73.5,-43.75 66.5,-43.75"/>
</g>
<!-- Node2 -->
<g id="node2" class="node">
<title>Node2</title>
<g id="a_node2"><a xlink:href="interfaceScriptedSelectionMenuEntry.html" target="_top" xlink:title=" ">
<polygon fill="white" stroke="#666666" points="140,-129 0,-129 0,-110 140,-110 140,-129"/>
<text text-anchor="middle" x="70" y="-117" font-family="Helvetica,sans-Serif" font-size="10.00">ScriptedSelectionMenuEntry</text>
</a>
</g>
</g>
<!-- Node2&#45;&gt;Node1 -->
<g id="edge1" class="edge">
<title>Node2&#45;&gt;Node1</title>
<path fill="none" stroke="#63b8ff" d="M70,-98.93C70,-90.53 70,-81.13 70,-74.44"/>
<polygon fill="#63b8ff" stroke="#63b8ff" points="66.5,-98.75 70,-108.75 73.5,-98.75 66.5,-98.75"/>
</g>
<!-- Node3 -->
<g id="node3" class="node">
<title>Node3</title>
<g id="a_node3"><a xlink:href="interfaceBaseScriptedSelectionMenuEntry.html" target="_top" xlink:title=" ">
<polygon fill="white" stroke="#666666" points="140,-195 0,-195 0,-165 140,-165 140,-195"/>
<text text-anchor="start" x="8" y="-183" font-family="Helvetica,sans-Serif" font-size="10.00">BaseScriptedSelectionMenu</text>
<text text-anchor="middle" x="70" y="-172" font-family="Helvetica,sans-Serif" font-size="10.00">Entry</text>
</a>
</g>
</g>
<!-- Node3&#45;&gt;Node2 -->
<g id="edge2" class="edge">
<title>Node3&#45;&gt;Node2</title>
<path fill="none" stroke="#63b8ff" d="M70,-153.59C70,-144.85 70,-135.65 70,-129.18"/>
<polygon fill="#63b8ff" stroke="#63b8ff" points="66.5,-153.54 70,-163.54 73.5,-153.54 66.5,-153.54"/>
</g>
<!-- Node4 -->
<g id="node4" class="node">
<title>Node4</title>
<g id="a_node4"><a xlink:href="interfaceBaseSelectionMenuEntry.html" target="_top" xlink:title=" ">
<polygon fill="white" stroke="#666666" points="133.5,-250 6.5,-250 6.5,-231 133.5,-231 133.5,-250"/>
<text text-anchor="middle" x="70" y="-238" font-family="Helvetica,sans-Serif" font-size="10.00">BaseSelectionMenuEntry</text>
</a>
</g>
</g>
<!-- Node4&#45;&gt;Node3 -->
<g id="edge3" class="edge">
<title>Node4&#45;&gt;Node3</title>
<path fill="none" stroke="#63b8ff" d="M70,-220.08C70,-211.92 70,-202.6 70,-195.11"/>
<polygon fill="#63b8ff" stroke="#63b8ff" points="66.5,-219.87 70,-229.87 73.5,-219.87 66.5,-219.87"/>
</g>
<!-- Node5 -->
<g id="node5" class="node">
<title>Node5</title>
<g id="a_node5"><a xlink:title=" ">
<polygon fill="white" stroke="#666666" points="113,-305 27,-305 27,-286 113,-286 113,-305"/>
<text text-anchor="middle" x="70" y="-293" font-family="Helvetica,sans-Serif" font-size="10.00">ScriptAndConfig</text>
</a>
</g>
</g>
<!-- Node5&#45;&gt;Node4 -->
<g id="edge4" class="edge">
<title>Node5&#45;&gt;Node4</title>
<path fill="none" stroke="#63b8ff" d="M70,-274.93C70,-266.53 70,-257.13 70,-250.44"/>
<polygon fill="#63b8ff" stroke="#63b8ff" points="66.5,-274.75 70,-284.75 73.5,-274.75 66.5,-274.75"/>
</g>
</g>
</svg>
