<?xml version="1.0" encoding="UTF-8" standalone="no"?>
<!DOCTYPE svg PUBLIC "-//W3C//DTD SVG 1.1//EN"
 "http://www.w3.org/Graphics/SVG/1.1/DTD/svg11.dtd">
<!-- Generated by graphviz version 8.0.2 (20230410.1723)
 -->
<!-- Title: SCR_ScenarioFrameworkTaskAreaClass Pages: 1 -->
<svg width="324pt" height="280pt"
 viewBox="0.00 0.00 324.00 280.00" xmlns="http://www.w3.org/2000/svg" xmlns:xlink="http://www.w3.org/1999/xlink">
<g id="graph0" class="graph" transform="scale(1 1) rotate(0) translate(4 276)">
<title>SCR_ScenarioFrameworkTaskAreaClass</title>
<!-- Node1 -->
<g id="node1" class="node">
<title>Node1</title>
<g id="a_node1"><a xlink:title=" ">
<polygon fill="#999999" stroke="#666666" points="232,-96 83,-96 83,-66 232,-66 232,-96"/>
<text text-anchor="start" x="91" y="-84" font-family="Helvetica,sans-Serif" font-size="10.00">SCR_ScenarioFrameworkTask</text>
<text text-anchor="middle" x="157.5" y="-73" font-family="Helvetica,sans-Serif" font-size="10.00">AreaClass</text>
</a>
</g>
</g>
<!-- Node5 -->
<g id="node5" class="node">
<title>Node5</title>
<g id="a_node5"><a xlink:href="interfaceSCR__ScenarioFrameworkTaskClearAreaClass.html" target="_top" xlink:title=" ">
<polygon fill="white" stroke="#666666" points="149,-30 0,-30 0,0 149,0 149,-30"/>
<text text-anchor="start" x="8" y="-18" font-family="Helvetica,sans-Serif" font-size="10.00">SCR_ScenarioFrameworkTask</text>
<text text-anchor="middle" x="74.5" y="-7" font-family="Helvetica,sans-Serif" font-size="10.00">ClearAreaClass</text>
</a>
</g>
</g>
<!-- Node1&#45;&gt;Node5 -->
<g id="edge4" class="edge">
<title>Node1&#45;&gt;Node5</title>
<path fill="none" stroke="#63b8ff" d="M130.59,-59.25C118.36,-49.82 104.19,-38.9 93.16,-30.39"/>
<polygon fill="#63b8ff" stroke="#63b8ff" points="128.02,-62.46 138.08,-65.8 132.3,-56.92 128.02,-62.46"/>
</g>
<!-- Node6 -->
<g id="node6" class="node">
<title>Node6</title>
<g id="a_node6"><a xlink:href="interfaceSCR__ScenarioFrameworkTaskExtractClass.html" target="_top" xlink:title=" ">
<polygon fill="white" stroke="#666666" points="316,-30 167,-30 167,0 316,0 316,-30"/>
<text text-anchor="start" x="175" y="-18" font-family="Helvetica,sans-Serif" font-size="10.00">SCR_ScenarioFrameworkTask</text>
<text text-anchor="middle" x="241.5" y="-7" font-family="Helvetica,sans-Serif" font-size="10.00">ExtractClass</text>
</a>
</g>
</g>
<!-- Node1&#45;&gt;Node6 -->
<g id="edge5" class="edge">
<title>Node1&#45;&gt;Node6</title>
<path fill="none" stroke="#63b8ff" d="M184.74,-59.25C197.11,-49.82 211.45,-38.9 222.62,-30.39"/>
<polygon fill="#63b8ff" stroke="#63b8ff" points="182.98,-56.95 177.14,-65.8 187.22,-62.52 182.98,-56.95"/>
</g>
<!-- Node2 -->
<g id="node2" class="node">
<title>Node2</title>
<g id="a_node2"><a xlink:href="interfaceSCR__ScenarioFrameworkTaskClass.html" target="_top" xlink:title=" ">
<polygon fill="white" stroke="#666666" points="232,-162 83,-162 83,-132 232,-132 232,-162"/>
<text text-anchor="start" x="91" y="-150" font-family="Helvetica,sans-Serif" font-size="10.00">SCR_ScenarioFrameworkTask</text>
<text text-anchor="middle" x="157.5" y="-139" font-family="Helvetica,sans-Serif" font-size="10.00">Class</text>
</a>
</g>
</g>
<!-- Node2&#45;&gt;Node1 -->
<g id="edge1" class="edge">
<title>Node2&#45;&gt;Node1</title>
<path fill="none" stroke="#63b8ff" d="M157.5,-120.97C157.5,-112.55 157.5,-103.45 157.5,-96.16"/>
<polygon fill="#63b8ff" stroke="#63b8ff" points="154,-120.8 157.5,-130.8 161,-120.8 154,-120.8"/>
</g>
<!-- Node3 -->
<g id="node3" class="node">
<title>Node3</title>
<g id="a_node3"><a xlink:href="interfaceSCR__BaseTaskClass.html" target="_top" xlink:title=" ">
<polygon fill="white" stroke="#666666" points="212.5,-217 102.5,-217 102.5,-198 212.5,-198 212.5,-217"/>
<text text-anchor="middle" x="157.5" y="-205" font-family="Helvetica,sans-Serif" font-size="10.00">SCR_BaseTaskClass</text>
</a>
</g>
</g>
<!-- Node3&#45;&gt;Node2 -->
<g id="edge2" class="edge">
<title>Node3&#45;&gt;Node2</title>
<path fill="none" stroke="#63b8ff" d="M157.5,-187.08C157.5,-178.92 157.5,-169.6 157.5,-162.11"/>
<polygon fill="#63b8ff" stroke="#63b8ff" points="154,-186.87 157.5,-196.87 161,-186.87 154,-186.87"/>
</g>
<!-- Node4 -->
<g id="node4" class="node">
<title>Node4</title>
<g id="a_node4"><a xlink:title=" ">
<polygon fill="white" stroke="#666666" points="208,-272 107,-272 107,-253 208,-253 208,-272"/>
<text text-anchor="middle" x="157.5" y="-260" font-family="Helvetica,sans-Serif" font-size="10.00">GenericEntityClass</text>
</a>
</g>
</g>
<!-- Node4&#45;&gt;Node3 -->
<g id="edge3" class="edge">
<title>Node4&#45;&gt;Node3</title>
<path fill="none" stroke="#63b8ff" d="M157.5,-241.93C157.5,-233.53 157.5,-224.13 157.5,-217.44"/>
<polygon fill="#63b8ff" stroke="#63b8ff" points="154,-241.75 157.5,-251.75 161,-241.75 154,-241.75"/>
</g>
</g>
</svg>
