<?xml version="1.0" encoding="UTF-8" standalone="no"?>
<!DOCTYPE svg PUBLIC "-//W3C//DTD SVG 1.1//EN"
 "http://www.w3.org/Graphics/SVG/1.1/DTD/svg11.dtd">
<!-- Generated by graphviz version 8.0.2 (20230410.1723)
 -->
<!-- Title: ScriptGameComponent Pages: 1 -->
<svg width="658pt" height="384pt"
 viewBox="0.00 0.00 658.00 384.00" xmlns="http://www.w3.org/2000/svg" xmlns:xlink="http://www.w3.org/1999/xlink">
<g id="graph0" class="graph" transform="scale(1 1) rotate(0) translate(4 380)">
<title>ScriptGameComponent</title>
<!-- Node1 -->
<g id="node1" class="node">
<title>Node1</title>
<g id="a_node1"><a xlink:title=" ">
<polygon fill="#999999" stroke="#666666" points="246,-178 128,-178 128,-159 246,-159 246,-178"/>
<text text-anchor="middle" x="187" y="-166" font-family="Helvetica,sans-Serif" font-size="10.00">ScriptGameComponent</text>
</a>
</g>
</g>
<!-- Node3 -->
<g id="node3" class="node">
<title>Node3</title>
<g id="a_node3"><a xlink:href="interfaceSCR__ExplosiveChargeComponent.html" target="_top" xlink:title=" ">
<polygon fill="white" stroke="#666666" points="447.5,-271 283.5,-271 283.5,-252 447.5,-252 447.5,-271"/>
<text text-anchor="middle" x="365.5" y="-259" font-family="Helvetica,sans-Serif" font-size="10.00">SCR_ExplosiveChargeComponent</text>
</a>
</g>
</g>
<!-- Node1&#45;&gt;Node3 -->
<g id="edge2" class="edge">
<title>Node1&#45;&gt;Node3</title>
<path fill="none" stroke="#63b8ff" d="M204.79,-185.95C222.4,-203.21 251.7,-229.08 282,-243.5 288.75,-246.71 296.09,-249.36 303.51,-251.54"/>
<polygon fill="#63b8ff" stroke="#63b8ff" points="207.66,-183.87 198.12,-179.25 202.7,-188.81 207.66,-183.87"/>
</g>
<!-- Node4 -->
<g id="node4" class="node">
<title>Node4</title>
<g id="a_node4"><a xlink:href="interfaceSCR__FuelConsumptionComponent.html" target="_top" xlink:title=" ">
<polygon fill="white" stroke="#666666" points="449,-234 282,-234 282,-215 449,-215 449,-234"/>
<text text-anchor="middle" x="365.5" y="-222" font-family="Helvetica,sans-Serif" font-size="10.00">SCR_FuelConsumptionComponent</text>
</a>
</g>
</g>
<!-- Node1&#45;&gt;Node4 -->
<g id="edge3" class="edge">
<title>Node1&#45;&gt;Node4</title>
<path fill="none" stroke="#63b8ff" d="M219.61,-182.84C237.62,-190.62 260.77,-199.94 282,-206.5 291.81,-209.53 302.42,-212.25 312.66,-214.6"/>
<polygon fill="#63b8ff" stroke="#63b8ff" points="221.22,-179.28 210.65,-178.48 218.41,-185.7 221.22,-179.28"/>
</g>
<!-- Node5 -->
<g id="node5" class="node">
<title>Node5</title>
<g id="a_node5"><a xlink:href="interfaceSCR__GadgetComponent.html" target="_top" xlink:title="Gadget base class.">
<polygon fill="white" stroke="#666666" points="427,-197 304,-197 304,-178 427,-178 427,-197"/>
<text text-anchor="middle" x="365.5" y="-185" font-family="Helvetica,sans-Serif" font-size="10.00">SCR_GadgetComponent</text>
</a>
</g>
</g>
<!-- Node1&#45;&gt;Node5 -->
<g id="edge4" class="edge">
<title>Node1&#45;&gt;Node5</title>
<path fill="none" stroke="#63b8ff" d="M256.8,-175.91C272.22,-177.57 288.48,-179.32 303.56,-180.94"/>
<polygon fill="#63b8ff" stroke="#63b8ff" points="257.6,-172.36 247.28,-174.77 256.85,-179.32 257.6,-172.36"/>
</g>
<!-- Node16 -->
<g id="node16" class="node">
<title>Node16</title>
<g id="a_node16"><a xlink:href="interfaceSCR__GadgetManagerComponent.html" target="_top" xlink:title=" ">
<polygon fill="white" stroke="#666666" points="446,-160 285,-160 285,-141 446,-141 446,-160"/>
<text text-anchor="middle" x="365.5" y="-148" font-family="Helvetica,sans-Serif" font-size="10.00">SCR_GadgetManagerComponent</text>
</a>
</g>
</g>
<!-- Node1&#45;&gt;Node16 -->
<g id="edge15" class="edge">
<title>Node1&#45;&gt;Node16</title>
<path fill="none" stroke="#63b8ff" d="M257.1,-161.45C266.1,-160.54 275.38,-159.59 284.54,-158.65"/>
<polygon fill="#63b8ff" stroke="#63b8ff" points="256.88,-158.06 247.28,-162.56 257.59,-165.02 256.88,-158.06"/>
</g>
<!-- Node17 -->
<g id="node17" class="node">
<title>Node17</title>
<g id="a_node17"><a xlink:href="interfaceSCR__PowerComponent.html" target="_top" xlink:title=" ">
<polygon fill="white" stroke="#666666" points="425,-123 306,-123 306,-104 425,-104 425,-123"/>
<text text-anchor="middle" x="365.5" y="-111" font-family="Helvetica,sans-Serif" font-size="10.00">SCR_PowerComponent</text>
</a>
</g>
</g>
<!-- Node1&#45;&gt;Node17 -->
<g id="edge16" class="edge">
<title>Node1&#45;&gt;Node17</title>
<path fill="none" stroke="#63b8ff" d="M220.01,-154.43C237.98,-146.9 260.96,-137.89 282,-131.5 291.82,-128.52 302.44,-125.82 312.68,-123.48"/>
<polygon fill="#63b8ff" stroke="#63b8ff" points="218.89,-151.52 211.06,-158.66 221.63,-157.96 218.89,-151.52"/>
</g>
<!-- Node18 -->
<g id="node18" class="node">
<title>Node18</title>
<g id="a_node18"><a xlink:href="interfaceSCR__VehicleDustPerWheel.html" target="_top" xlink:title=" ">
<polygon fill="white" stroke="#666666" points="434,-86 297,-86 297,-67 434,-67 434,-86"/>
<text text-anchor="middle" x="365.5" y="-74" font-family="Helvetica,sans-Serif" font-size="10.00">SCR_VehicleDustPerWheel</text>
</a>
</g>
</g>
<!-- Node1&#45;&gt;Node18 -->
<g id="edge17" class="edge">
<title>Node1&#45;&gt;Node18</title>
<path fill="none" stroke="#63b8ff" d="M205.12,-151.02C222.8,-133.99 251.98,-108.67 282,-94.5 288.89,-91.25 296.39,-88.57 303.96,-86.38"/>
<polygon fill="#63b8ff" stroke="#63b8ff" points="203.07,-148.11 198.4,-157.62 207.98,-153.09 203.07,-148.11"/>
</g>
<!-- Node2 -->
<g id="node2" class="node">
<title>Node2</title>
<g id="a_node2"><a xlink:title=" ">
<polygon fill="white" stroke="#666666" points="92,-178 0,-178 0,-159 92,-159 92,-178"/>
<text text-anchor="middle" x="46" y="-166" font-family="Helvetica,sans-Serif" font-size="10.00">ScriptComponent</text>
</a>
</g>
</g>
<!-- Node2&#45;&gt;Node1 -->
<g id="edge1" class="edge">
<title>Node2&#45;&gt;Node1</title>
<path fill="none" stroke="#63b8ff" d="M103.08,-168.5C111.26,-168.5 119.7,-168.5 127.92,-168.5"/>
<polygon fill="#63b8ff" stroke="#63b8ff" points="103.13,-165 93.13,-168.5 103.13,-172 103.13,-165"/>
</g>
<!-- Node6 -->
<g id="node6" class="node">
<title>Node6</title>
<g id="a_node6"><a xlink:href="interfaceSCR__BinocularsComponent.html" target="_top" xlink:title=" ">
<polygon fill="white" stroke="#666666" points="636,-376 499,-376 499,-357 636,-357 636,-376"/>
<text text-anchor="middle" x="567.5" y="-364" font-family="Helvetica,sans-Serif" font-size="10.00">SCR_BinocularsComponent</text>
</a>
</g>
</g>
<!-- Node5&#45;&gt;Node6 -->
<g id="edge5" class="edge">
<title>Node5&#45;&gt;Node6</title>
<path fill="none" stroke="#63b8ff" d="M437.14,-197.81C441.46,-200.19 445.47,-203.06 449,-206.5 495.27,-251.69 438.79,-302.25 485,-347.5 489.05,-351.46 493.75,-354.66 498.82,-357.23"/>
<polygon fill="#63b8ff" stroke="#63b8ff" points="438.82,-194.27 428.27,-193.33 435.93,-200.65 438.82,-194.27"/>
</g>
<!-- Node7 -->
<g id="node7" class="node">
<title>Node7</title>
<g id="a_node7"><a xlink:href="interfaceSCR__CampaignBuildingGadgetToolComponent.html" target="_top" xlink:title=" ">
<polygon fill="white" stroke="#666666" points="643.5,-338.5 491.5,-338.5 491.5,-308.5 643.5,-308.5 643.5,-338.5"/>
<text text-anchor="start" x="499.5" y="-326.5" font-family="Helvetica,sans-Serif" font-size="10.00">SCR_CampaignBuildingGadget</text>
<text text-anchor="middle" x="567.5" y="-315.5" font-family="Helvetica,sans-Serif" font-size="10.00">ToolComponent</text>
</a>
</g>
</g>
<!-- Node5&#45;&gt;Node7 -->
<g id="edge6" class="edge">
<title>Node5&#45;&gt;Node7</title>
<path fill="none" stroke="#63b8ff" d="M437.49,-198.71C441.61,-200.9 445.5,-203.47 449,-206.5 482.5,-235.52 452.39,-269.49 485,-299.5 488.58,-302.8 492.59,-305.64 496.87,-308.1"/>
<polygon fill="#63b8ff" stroke="#63b8ff" points="439.05,-195.14 428.49,-194.3 436.23,-201.54 439.05,-195.14"/>
</g>
<!-- Node8 -->
<g id="node8" class="node">
<title>Node8</title>
<g id="a_node8"><a xlink:href="interfaceSCR__CompassComponent.html" target="_top" xlink:title="Compass component.">
<polygon fill="white" stroke="#666666" points="634,-290 501,-290 501,-271 634,-271 634,-290"/>
<text text-anchor="middle" x="567.5" y="-278" font-family="Helvetica,sans-Serif" font-size="10.00">SCR_CompassComponent</text>
</a>
</g>
</g>
<!-- Node5&#45;&gt;Node8 -->
<g id="edge7" class="edge">
<title>Node5&#45;&gt;Node8</title>
<path fill="none" stroke="#63b8ff" d="M437.28,-199.78C441.4,-201.71 445.35,-203.93 449,-206.5 473.2,-223.52 460.72,-245.59 485,-262.5 489.76,-265.81 495.02,-268.53 500.51,-270.76"/>
<polygon fill="#63b8ff" stroke="#63b8ff" points="438.99,-196.29 428.41,-195.79 436.37,-202.78 438.99,-196.29"/>
</g>
<!-- Node9 -->
<g id="node9" class="node">
<title>Node9</title>
<g id="a_node9"><a xlink:href="interfaceSCR__ConsumableItemComponent.html" target="_top" xlink:title=" ">
<polygon fill="white" stroke="#666666" points="649.5,-253 485.5,-253 485.5,-234 649.5,-234 649.5,-253"/>
<text text-anchor="middle" x="567.5" y="-241" font-family="Helvetica,sans-Serif" font-size="10.00">SCR_ConsumableItemComponent</text>
</a>
</g>
</g>
<!-- Node5&#45;&gt;Node9 -->
<g id="edge8" class="edge">
<title>Node5&#45;&gt;Node9</title>
<path fill="none" stroke="#63b8ff" d="M429.49,-200.21C436.15,-202.09 442.76,-204.18 449,-206.5 465.96,-212.81 468.01,-219.27 485,-225.5 493.57,-228.64 502.86,-231.33 511.99,-233.59"/>
<polygon fill="#63b8ff" stroke="#63b8ff" points="430.6,-196.62 420.03,-197.45 428.81,-203.39 430.6,-196.62"/>
</g>
<!-- Node10 -->
<g id="node10" class="node">
<title>Node10</title>
<g id="a_node10"><a xlink:href="interfaceSCR__DetonatorGadgetComponent.html" target="_top" xlink:title=" ">
<polygon fill="white" stroke="#666666" points="650,-216 485,-216 485,-197 650,-197 650,-216"/>
<text text-anchor="middle" x="567.5" y="-204" font-family="Helvetica,sans-Serif" font-size="10.00">SCR_DetonatorGadgetComponent</text>
</a>
</g>
</g>
<!-- Node5&#45;&gt;Node10 -->
<g id="edge9" class="edge">
<title>Node5&#45;&gt;Node10</title>
<path fill="none" stroke="#63b8ff" d="M438.1,-194.3C453.17,-195.73 469.17,-197.25 484.58,-198.72"/>
<polygon fill="#63b8ff" stroke="#63b8ff" points="438.61,-190.74 428.32,-193.28 437.95,-197.71 438.61,-190.74"/>
</g>
<!-- Node11 -->
<g id="node11" class="node">
<title>Node11</title>
<g id="a_node11"><a xlink:href="interfaceSCR__FlashlightComponent.html" target="_top" xlink:title=" ">
<polygon fill="white" stroke="#666666" points="634.5,-179 500.5,-179 500.5,-160 634.5,-160 634.5,-179"/>
<text text-anchor="middle" x="567.5" y="-167" font-family="Helvetica,sans-Serif" font-size="10.00">SCR_FlashlightComponent</text>
</a>
</g>
</g>
<!-- Node5&#45;&gt;Node11 -->
<g id="edge10" class="edge">
<title>Node5&#45;&gt;Node11</title>
<path fill="none" stroke="#63b8ff" d="M438.03,-181.06C458.24,-179.24 480.15,-177.27 500.05,-175.48"/>
<polygon fill="#63b8ff" stroke="#63b8ff" points="437.97,-177.64 428.32,-182.03 438.59,-184.62 437.97,-177.64"/>
</g>
<!-- Node12 -->
<g id="node12" class="node">
<title>Node12</title>
<g id="a_node12"><a xlink:href="interfaceSCR__MapGadgetComponent.html" target="_top" xlink:title="Map gadget component.">
<polygon fill="white" stroke="#666666" points="638.5,-142 496.5,-142 496.5,-123 638.5,-123 638.5,-142"/>
<text text-anchor="middle" x="567.5" y="-130" font-family="Helvetica,sans-Serif" font-size="10.00">SCR_MapGadgetComponent</text>
</a>
</g>
</g>
<!-- Node5&#45;&gt;Node12 -->
<g id="edge11" class="edge">
<title>Node5&#45;&gt;Node12</title>
<path fill="none" stroke="#63b8ff" d="M432.37,-174.82C438.05,-173.22 443.66,-171.45 449,-169.5 465.99,-163.29 468.01,-156.73 485,-150.5 493.57,-147.36 502.86,-144.67 511.99,-142.41"/>
<polygon fill="#63b8ff" stroke="#63b8ff" points="431.89,-171.59 423.12,-177.53 433.68,-178.36 431.89,-171.59"/>
</g>
<!-- Node13 -->
<g id="node13" class="node">
<title>Node13</title>
<g id="a_node13"><a xlink:href="interfaceSCR__RadioComponent.html" target="_top" xlink:title=" ">
<polygon fill="white" stroke="#666666" points="625.5,-105 509.5,-105 509.5,-86 625.5,-86 625.5,-105"/>
<text text-anchor="middle" x="567.5" y="-93" font-family="Helvetica,sans-Serif" font-size="10.00">SCR_RadioComponent</text>
</a>
</g>
</g>
<!-- Node5&#45;&gt;Node13 -->
<g id="edge12" class="edge">
<title>Node5&#45;&gt;Node13</title>
<path fill="none" stroke="#63b8ff" d="M437.61,-175.96C441.61,-174.11 445.44,-171.97 449,-169.5 473.3,-152.62 460.72,-130.41 485,-113.5 492.25,-108.45 500.68,-104.78 509.3,-102.13"/>
<polygon fill="#63b8ff" stroke="#63b8ff" points="436.41,-173.07 428.39,-180 438.98,-179.58 436.41,-173.07"/>
</g>
<!-- Node14 -->
<g id="node14" class="node">
<title>Node14</title>
<g id="a_node14"><a xlink:href="interfaceSCR__SupportStationGadgetComponent.html" target="_top" xlink:title=" ">
<polygon fill="white" stroke="#666666" points="636.5,-67.5 498.5,-67.5 498.5,-37.5 636.5,-37.5 636.5,-67.5"/>
<text text-anchor="start" x="506.5" y="-55.5" font-family="Helvetica,sans-Serif" font-size="10.00">SCR_SupportStationGadget</text>
<text text-anchor="middle" x="567.5" y="-44.5" font-family="Helvetica,sans-Serif" font-size="10.00">Component</text>
</a>
</g>
</g>
<!-- Node5&#45;&gt;Node14 -->
<g id="edge13" class="edge">
<title>Node5&#45;&gt;Node14</title>
<path fill="none" stroke="#63b8ff" d="M437.47,-177.18C441.6,-175.04 445.49,-172.5 449,-169.5 482.67,-140.67 452.39,-106.51 485,-76.5 488.91,-72.9 493.33,-69.85 498.04,-67.24"/>
<polygon fill="#63b8ff" stroke="#63b8ff" points="436.27,-174.32 428.47,-181.48 439.04,-180.75 436.27,-174.32"/>
</g>
<!-- Node15 -->
<g id="node15" class="node">
<title>Node15</title>
<g id="a_node15"><a xlink:href="interfaceSCR__WristwatchComponent.html" target="_top" xlink:title=" ">
<polygon fill="white" stroke="#666666" points="637.5,-19 497.5,-19 497.5,0 637.5,0 637.5,-19"/>
<text text-anchor="middle" x="567.5" y="-7" font-family="Helvetica,sans-Serif" font-size="10.00">SCR_WristwatchComponent</text>
</a>
</g>
</g>
<!-- Node5&#45;&gt;Node15 -->
<g id="edge14" class="edge">
<title>Node5&#45;&gt;Node15</title>
<path fill="none" stroke="#63b8ff" d="M437.11,-178.08C441.44,-175.74 445.46,-172.91 449,-169.5 495.53,-124.58 438.79,-73.75 485,-28.5 488.74,-24.84 493.03,-21.83 497.66,-19.37"/>
<polygon fill="#63b8ff" stroke="#63b8ff" points="435.96,-175.2 428.24,-182.45 438.8,-181.6 435.96,-175.2"/>
</g>
</g>
</svg>
