<?xml version="1.0" encoding="UTF-8" standalone="no"?>
<!DOCTYPE svg PUBLIC "-//W3C//DTD SVG 1.1//EN"
 "http://www.w3.org/Graphics/SVG/1.1/DTD/svg11.dtd">
<!-- Generated by graphviz version 8.0.2 (20230410.1723)
 -->
<!-- Title: SCR_AIMoveInFormationBehavior Pages: 1 -->
<svg width="169pt" height="302pt"
 viewBox="0.00 0.00 169.00 302.00" xmlns="http://www.w3.org/2000/svg" xmlns:xlink="http://www.w3.org/1999/xlink">
<g id="graph0" class="graph" transform="scale(1 1) rotate(0) translate(4 298)">
<title>SCR_AIMoveInFormationBehavior</title>
<!-- Node1 -->
<g id="node1" class="node">
<title>Node1</title>
<g id="a_node1"><a xlink:title=" ">
<polygon fill="#999999" stroke="#666666" points="161,-19 0,-19 0,0 161,0 161,-19"/>
<text text-anchor="middle" x="80.5" y="-7" font-family="Helvetica,sans-Serif" font-size="10.00">SCR_AIMoveInFormationBehavior</text>
</a>
</g>
</g>
<!-- Node2 -->
<g id="node2" class="node">
<title>Node2</title>
<g id="a_node2"><a xlink:href="interfaceSCR__AIMoveBehaviorBase.html" target="_top" xlink:title=" ">
<polygon fill="white" stroke="#666666" points="147,-74 14,-74 14,-55 147,-55 147,-74"/>
<text text-anchor="middle" x="80.5" y="-62" font-family="Helvetica,sans-Serif" font-size="10.00">SCR_AIMoveBehaviorBase</text>
</a>
</g>
</g>
<!-- Node2&#45;&gt;Node1 -->
<g id="edge1" class="edge">
<title>Node2&#45;&gt;Node1</title>
<path fill="none" stroke="#63b8ff" d="M80.5,-43.93C80.5,-35.53 80.5,-26.13 80.5,-19.44"/>
<polygon fill="#63b8ff" stroke="#63b8ff" points="77,-43.75 80.5,-53.75 84,-43.75 77,-43.75"/>
</g>
<!-- Node3 -->
<g id="node3" class="node">
<title>Node3</title>
<g id="a_node3"><a xlink:href="interfaceSCR__AIBehaviorBase.html" target="_top" xlink:title=" ">
<polygon fill="white" stroke="#666666" points="135.5,-129 25.5,-129 25.5,-110 135.5,-110 135.5,-129"/>
<text text-anchor="middle" x="80.5" y="-117" font-family="Helvetica,sans-Serif" font-size="10.00">SCR_AIBehaviorBase</text>
</a>
</g>
</g>
<!-- Node3&#45;&gt;Node2 -->
<g id="edge2" class="edge">
<title>Node3&#45;&gt;Node2</title>
<path fill="none" stroke="#63b8ff" d="M80.5,-98.93C80.5,-90.53 80.5,-81.13 80.5,-74.44"/>
<polygon fill="#63b8ff" stroke="#63b8ff" points="77,-98.75 80.5,-108.75 84,-98.75 77,-98.75"/>
</g>
<!-- Node4 -->
<g id="node4" class="node">
<title>Node4</title>
<g id="a_node4"><a xlink:href="interfaceSCR__AIActionBase.html" target="_top" xlink:title=" ">
<polygon fill="white" stroke="#666666" points="131,-184 30,-184 30,-165 131,-165 131,-184"/>
<text text-anchor="middle" x="80.5" y="-172" font-family="Helvetica,sans-Serif" font-size="10.00">SCR_AIActionBase</text>
</a>
</g>
</g>
<!-- Node4&#45;&gt;Node3 -->
<g id="edge3" class="edge">
<title>Node4&#45;&gt;Node3</title>
<path fill="none" stroke="#63b8ff" d="M80.5,-153.93C80.5,-145.53 80.5,-136.13 80.5,-129.44"/>
<polygon fill="#63b8ff" stroke="#63b8ff" points="77,-153.75 80.5,-163.75 84,-153.75 77,-153.75"/>
</g>
<!-- Node5 -->
<g id="node5" class="node">
<title>Node5</title>
<g id="a_node5"><a xlink:href="interfaceAIActionBase.html" target="_top" xlink:title=" ">
<polygon fill="white" stroke="#666666" points="118.5,-239 42.5,-239 42.5,-220 118.5,-220 118.5,-239"/>
<text text-anchor="middle" x="80.5" y="-227" font-family="Helvetica,sans-Serif" font-size="10.00">AIActionBase</text>
</a>
</g>
</g>
<!-- Node5&#45;&gt;Node4 -->
<g id="edge4" class="edge">
<title>Node5&#45;&gt;Node4</title>
<path fill="none" stroke="#63b8ff" d="M80.5,-208.93C80.5,-200.53 80.5,-191.13 80.5,-184.44"/>
<polygon fill="#63b8ff" stroke="#63b8ff" points="77,-208.75 80.5,-218.75 84,-208.75 77,-208.75"/>
</g>
<!-- Node6 -->
<g id="node6" class="node">
<title>Node6</title>
<g id="a_node6"><a xlink:title=" ">
<polygon fill="white" stroke="#666666" points="123.5,-294 37.5,-294 37.5,-275 123.5,-275 123.5,-294"/>
<text text-anchor="middle" x="80.5" y="-282" font-family="Helvetica,sans-Serif" font-size="10.00">ScriptAndConfig</text>
</a>
</g>
</g>
<!-- Node6&#45;&gt;Node5 -->
<g id="edge5" class="edge">
<title>Node6&#45;&gt;Node5</title>
<path fill="none" stroke="#63b8ff" d="M80.5,-263.93C80.5,-255.53 80.5,-246.13 80.5,-239.44"/>
<polygon fill="#63b8ff" stroke="#63b8ff" points="77,-263.75 80.5,-273.75 84,-263.75 77,-263.75"/>
</g>
</g>
</svg>
