<?xml version="1.0" encoding="UTF-8" standalone="no"?>
<!DOCTYPE svg PUBLIC "-//W3C//DTD SVG 1.1//EN"
 "http://www.w3.org/Graphics/SVG/1.1/DTD/svg11.dtd">
<!-- Generated by graphviz version 8.0.2 (20230410.1723)
 -->
<!-- Title: ProjectileMoveComponentClass Pages: 1 -->
<svg width="474pt" height="302pt"
 viewBox="0.00 0.00 473.50 302.00" xmlns="http://www.w3.org/2000/svg" xmlns:xlink="http://www.w3.org/1999/xlink">
<g id="graph0" class="graph" transform="scale(1 1) rotate(0) translate(4 298)">
<title>ProjectileMoveComponentClass</title>
<!-- Node1 -->
<g id="node1" class="node">
<title>Node1</title>
<g id="a_node1"><a xlink:title=" ">
<polygon fill="#999999" stroke="#666666" points="317,-129 163,-129 163,-110 317,-110 317,-129"/>
<text text-anchor="middle" x="240" y="-117" font-family="Helvetica,sans-Serif" font-size="10.00">ProjectileMoveComponentClass</text>
</a>
</g>
</g>
<!-- Node5 -->
<g id="node5" class="node">
<title>Node5</title>
<g id="a_node5"><a xlink:href="interfaceGrenadeMoveComponentClass.html" target="_top" xlink:title=" ">
<polygon fill="white" stroke="#666666" points="150,-74 0,-74 0,-55 150,-55 150,-74"/>
<text text-anchor="middle" x="75" y="-62" font-family="Helvetica,sans-Serif" font-size="10.00">GrenadeMoveComponentClass</text>
</a>
</g>
</g>
<!-- Node1&#45;&gt;Node5 -->
<g id="edge4" class="edge">
<title>Node1&#45;&gt;Node5</title>
<path fill="none" stroke="#63b8ff" d="M201.83,-106.24C171.58,-96.52 130.03,-83.18 102.85,-74.45"/>
<polygon fill="#63b8ff" stroke="#63b8ff" points="200.42,-109.78 211.01,-109.51 202.56,-103.12 200.42,-109.78"/>
</g>
<!-- Node6 -->
<g id="node6" class="node">
<title>Node6</title>
<g id="a_node6"><a xlink:href="interfaceMissileMoveComponentClass.html" target="_top" xlink:title=" ">
<polygon fill="white" stroke="#666666" points="312,-74 168,-74 168,-55 312,-55 312,-74"/>
<text text-anchor="middle" x="240" y="-62" font-family="Helvetica,sans-Serif" font-size="10.00">MissileMoveComponentClass</text>
</a>
</g>
</g>
<!-- Node1&#45;&gt;Node6 -->
<g id="edge5" class="edge">
<title>Node1&#45;&gt;Node6</title>
<path fill="none" stroke="#63b8ff" d="M240,-98.93C240,-90.53 240,-81.13 240,-74.44"/>
<polygon fill="#63b8ff" stroke="#63b8ff" points="236.5,-98.75 240,-108.75 243.5,-98.75 236.5,-98.75"/>
</g>
<!-- Node7 -->
<g id="node7" class="node">
<title>Node7</title>
<g id="a_node7"><a xlink:href="interfaceShellMoveComponentClass.html" target="_top" xlink:title=" ">
<polygon fill="white" stroke="#666666" points="465.5,-74 330.5,-74 330.5,-55 465.5,-55 465.5,-74"/>
<text text-anchor="middle" x="398" y="-62" font-family="Helvetica,sans-Serif" font-size="10.00">ShellMoveComponentClass</text>
</a>
</g>
</g>
<!-- Node1&#45;&gt;Node7 -->
<g id="edge6" class="edge">
<title>Node1&#45;&gt;Node7</title>
<path fill="none" stroke="#63b8ff" d="M276.94,-106.11C305.87,-96.41 345.42,-83.14 371.33,-74.45"/>
<polygon fill="#63b8ff" stroke="#63b8ff" points="276.17,-103.01 267.8,-109.51 278.4,-109.65 276.17,-103.01"/>
</g>
<!-- Node2 -->
<g id="node2" class="node">
<title>Node2</title>
<g id="a_node2"><a xlink:href="interfaceBaseProjectileComponentClass.html" target="_top" xlink:title=" ">
<polygon fill="white" stroke="#666666" points="317,-184 163,-184 163,-165 317,-165 317,-184"/>
<text text-anchor="middle" x="240" y="-172" font-family="Helvetica,sans-Serif" font-size="10.00">BaseProjectileComponentClass</text>
</a>
</g>
</g>
<!-- Node2&#45;&gt;Node1 -->
<g id="edge1" class="edge">
<title>Node2&#45;&gt;Node1</title>
<path fill="none" stroke="#63b8ff" d="M240,-153.93C240,-145.53 240,-136.13 240,-129.44"/>
<polygon fill="#63b8ff" stroke="#63b8ff" points="236.5,-153.75 240,-163.75 243.5,-153.75 236.5,-153.75"/>
</g>
<!-- Node3 -->
<g id="node3" class="node">
<title>Node3</title>
<g id="a_node3"><a xlink:href="interfaceGameComponentClass.html" target="_top" xlink:title=" ">
<polygon fill="white" stroke="#666666" points="298.5,-239 181.5,-239 181.5,-220 298.5,-220 298.5,-239"/>
<text text-anchor="middle" x="240" y="-227" font-family="Helvetica,sans-Serif" font-size="10.00">GameComponentClass</text>
</a>
</g>
</g>
<!-- Node3&#45;&gt;Node2 -->
<g id="edge2" class="edge">
<title>Node3&#45;&gt;Node2</title>
<path fill="none" stroke="#63b8ff" d="M240,-208.93C240,-200.53 240,-191.13 240,-184.44"/>
<polygon fill="#63b8ff" stroke="#63b8ff" points="236.5,-208.75 240,-218.75 243.5,-208.75 236.5,-208.75"/>
</g>
<!-- Node4 -->
<g id="node4" class="node">
<title>Node4</title>
<g id="a_node4"><a xlink:title=" ">
<polygon fill="white" stroke="#666666" points="302.5,-294 177.5,-294 177.5,-275 302.5,-275 302.5,-294"/>
<text text-anchor="middle" x="240" y="-282" font-family="Helvetica,sans-Serif" font-size="10.00">GenericComponentClass</text>
</a>
</g>
</g>
<!-- Node4&#45;&gt;Node3 -->
<g id="edge3" class="edge">
<title>Node4&#45;&gt;Node3</title>
<path fill="none" stroke="#63b8ff" d="M240,-263.93C240,-255.53 240,-246.13 240,-239.44"/>
<polygon fill="#63b8ff" stroke="#63b8ff" points="236.5,-263.75 240,-273.75 243.5,-263.75 236.5,-263.75"/>
</g>
<!-- Node8 -->
<g id="node8" class="node">
<title>Node8</title>
<g id="a_node8"><a xlink:href="interfaceFlareMoveComponentClass.html" target="_top" xlink:title=" ">
<polygon fill="white" stroke="#666666" points="465.5,-19 330.5,-19 330.5,0 465.5,0 465.5,-19"/>
<text text-anchor="middle" x="398" y="-7" font-family="Helvetica,sans-Serif" font-size="10.00">FlareMoveComponentClass</text>
</a>
</g>
</g>
<!-- Node7&#45;&gt;Node8 -->
<g id="edge7" class="edge">
<title>Node7&#45;&gt;Node8</title>
<path fill="none" stroke="#63b8ff" d="M398,-43.93C398,-35.53 398,-26.13 398,-19.44"/>
<polygon fill="#63b8ff" stroke="#63b8ff" points="394.5,-43.75 398,-53.75 401.5,-43.75 394.5,-43.75"/>
</g>
</g>
</svg>
