<?xml version="1.0" encoding="UTF-8" standalone="no"?>
<!DOCTYPE svg PUBLIC "-//W3C//DTD SVG 1.1//EN"
 "http://www.w3.org/Graphics/SVG/1.1/DTD/svg11.dtd">
<!-- Generated by graphviz version 8.0.2 (20230410.1723)
 -->
<!-- Title: CameraBase Pages: 1 -->
<svg width="440pt" height="192pt"
 viewBox="0.00 0.00 439.50 192.00" xmlns="http://www.w3.org/2000/svg" xmlns:xlink="http://www.w3.org/1999/xlink">
<g id="graph0" class="graph" transform="scale(1 1) rotate(0) translate(4 188)">
<title>CameraBase</title>
<!-- Node1 -->
<g id="node1" class="node">
<title>Node1</title>
<g id="a_node1"><a xlink:title=" ">
<polygon fill="#999999" stroke="#666666" points="237.5,-129 164.5,-129 164.5,-110 237.5,-110 237.5,-129"/>
<text text-anchor="middle" x="201" y="-117" font-family="Helvetica,sans-Serif" font-size="10.00">CameraBase</text>
</a>
</g>
</g>
<!-- Node3 -->
<g id="node3" class="node">
<title>Node3</title>
<g id="a_node3"><a xlink:href="interfacePlayerCamera.html" target="_top" xlink:title=" ">
<polygon fill="white" stroke="#666666" points="78,-74 0,-74 0,-55 78,-55 78,-74"/>
<text text-anchor="middle" x="39" y="-62" font-family="Helvetica,sans-Serif" font-size="10.00">PlayerCamera</text>
</a>
</g>
</g>
<!-- Node1&#45;&gt;Node3 -->
<g id="edge2" class="edge">
<title>Node1&#45;&gt;Node3</title>
<path fill="none" stroke="#63b8ff" d="M163.13,-106.11C133.47,-96.41 92.91,-83.14 66.35,-74.45"/>
<polygon fill="#63b8ff" stroke="#63b8ff" points="161.93,-109.73 172.52,-109.51 164.1,-103.07 161.93,-109.73"/>
</g>
<!-- Node4 -->
<g id="node4" class="node">
<title>Node4</title>
<g id="a_node4"><a xlink:href="interfaceSCR__CameraBase.html" target="_top" xlink:title="Base class for scripted cameras.">
<polygon fill="white" stroke="#666666" points="194,-74 96,-74 96,-55 194,-55 194,-74"/>
<text text-anchor="middle" x="145" y="-62" font-family="Helvetica,sans-Serif" font-size="10.00">SCR_CameraBase</text>
</a>
</g>
</g>
<!-- Node1&#45;&gt;Node4 -->
<g id="edge3" class="edge">
<title>Node1&#45;&gt;Node4</title>
<path fill="none" stroke="#63b8ff" d="M183.66,-102.09C173.99,-92.94 162.33,-81.9 154.36,-74.36"/>
<polygon fill="#63b8ff" stroke="#63b8ff" points="180.83,-104.18 190.5,-108.51 185.64,-99.09 180.83,-104.18"/>
</g>
<!-- Node6 -->
<g id="node6" class="node">
<title>Node6</title>
<g id="a_node6"><a xlink:href="interfaceSCR__PIPCamera.html" target="_top" xlink:title=" ">
<polygon fill="white" stroke="#666666" points="304,-74 212,-74 212,-55 304,-55 304,-74"/>
<text text-anchor="middle" x="258" y="-62" font-family="Helvetica,sans-Serif" font-size="10.00">SCR_PIPCamera</text>
</a>
</g>
</g>
<!-- Node1&#45;&gt;Node6 -->
<g id="edge5" class="edge">
<title>Node1&#45;&gt;Node6</title>
<path fill="none" stroke="#63b8ff" d="M218.65,-102.09C228.49,-92.94 240.36,-81.9 248.47,-74.36"/>
<polygon fill="#63b8ff" stroke="#63b8ff" points="216.61,-99.14 211.67,-108.51 221.38,-104.26 216.61,-99.14"/>
</g>
<!-- Node7 -->
<g id="node7" class="node">
<title>Node7</title>
<g id="a_node7"><a xlink:href="interfaceScriptedCameraBase.html" target="_top" xlink:title=" ">
<polygon fill="white" stroke="#666666" points="431.5,-74 322.5,-74 322.5,-55 431.5,-55 431.5,-74"/>
<text text-anchor="middle" x="377" y="-62" font-family="Helvetica,sans-Serif" font-size="10.00">ScriptedCameraBase</text>
</a>
</g>
</g>
<!-- Node1&#45;&gt;Node7 -->
<g id="edge6" class="edge">
<title>Node1&#45;&gt;Node7</title>
<path fill="none" stroke="#63b8ff" d="M241.3,-106.36C273.6,-96.64 318.18,-83.21 347.29,-74.45"/>
<polygon fill="#63b8ff" stroke="#63b8ff" points="240.42,-103.27 231.86,-109.51 242.44,-109.98 240.42,-103.27"/>
</g>
<!-- Node2 -->
<g id="node2" class="node">
<title>Node2</title>
<g id="a_node2"><a xlink:title=" ">
<polygon fill="white" stroke="#666666" points="239,-184 163,-184 163,-165 239,-165 239,-184"/>
<text text-anchor="middle" x="201" y="-172" font-family="Helvetica,sans-Serif" font-size="10.00">GenericEntity</text>
</a>
</g>
</g>
<!-- Node2&#45;&gt;Node1 -->
<g id="edge1" class="edge">
<title>Node2&#45;&gt;Node1</title>
<path fill="none" stroke="#63b8ff" d="M201,-153.93C201,-145.53 201,-136.13 201,-129.44"/>
<polygon fill="#63b8ff" stroke="#63b8ff" points="197.5,-153.75 201,-163.75 204.5,-153.75 197.5,-153.75"/>
</g>
<!-- Node5 -->
<g id="node5" class="node">
<title>Node5</title>
<g id="a_node5"><a xlink:href="interfaceSCR__ManualCamera.html" target="_top" xlink:title="Entity for managing manual camera and its components.">
<polygon fill="white" stroke="#666666" points="198.5,-19 91.5,-19 91.5,0 198.5,0 198.5,-19"/>
<text text-anchor="middle" x="145" y="-7" font-family="Helvetica,sans-Serif" font-size="10.00">SCR_ManualCamera</text>
</a>
</g>
</g>
<!-- Node4&#45;&gt;Node5 -->
<g id="edge4" class="edge">
<title>Node4&#45;&gt;Node5</title>
<path fill="none" stroke="#63b8ff" d="M145,-43.93C145,-35.53 145,-26.13 145,-19.44"/>
<polygon fill="#63b8ff" stroke="#63b8ff" points="141.5,-43.75 145,-53.75 148.5,-43.75 141.5,-43.75"/>
</g>
</g>
</svg>
