<?xml version="1.0" encoding="UTF-8" standalone="no"?>
<!DOCTYPE svg PUBLIC "-//W3C//DTD SVG 1.1//EN"
 "http://www.w3.org/Graphics/SVG/1.1/DTD/svg11.dtd">
<!-- Generated by graphviz version 8.0.2 (20230410.1723)
 -->
<!-- Title: InventoryItemComponentClass Pages: 1 -->
<svg width="2084pt" height="410pt"
 viewBox="0.00 0.00 2084.00 410.00" xmlns="http://www.w3.org/2000/svg" xmlns:xlink="http://www.w3.org/1999/xlink">
<g id="graph0" class="graph" transform="scale(1 1) rotate(0) translate(4 406)">
<title>InventoryItemComponentClass</title>
<!-- Node1 -->
<g id="node1" class="node">
<title>Node1</title>
<g id="a_node1"><a xlink:title=" ">
<polygon fill="#999999" stroke="#666666" points="462,-120.5 314,-120.5 314,-101.5 462,-101.5 462,-120.5"/>
<text text-anchor="middle" x="388" y="-108.5" font-family="Helvetica,sans-Serif" font-size="10.00">InventoryItemComponentClass</text>
</a>
</g>
</g>
<!-- Node4 -->
<g id="node4" class="node">
<title>Node4</title>
<g id="a_node4"><a xlink:href="interfaceBaseInventoryStorageComponentClass.html" target="_top" xlink:title=" ">
<polygon fill="white" stroke="#666666" points="664,-234 503,-234 503,-204 664,-204 664,-234"/>
<text text-anchor="start" x="511" y="-222" font-family="Helvetica,sans-Serif" font-size="10.00">BaseInventoryStorageComponent</text>
<text text-anchor="middle" x="583.5" y="-211" font-family="Helvetica,sans-Serif" font-size="10.00">Class</text>
</a>
</g>
</g>
<!-- Node1&#45;&gt;Node4 -->
<g id="edge3" class="edge">
<title>Node1&#45;&gt;Node4</title>
<path fill="none" stroke="#63b8ff" d="M410.95,-127.21C432.46,-142.68 466.5,-166.07 498,-183 512.05,-190.55 528.01,-197.7 542.25,-203.6"/>
<polygon fill="#63b8ff" stroke="#63b8ff" points="413.42,-123.96 403.27,-120.91 409.31,-129.62 413.42,-123.96"/>
</g>
<!-- Node25 -->
<g id="node25" class="node">
<title>Node25</title>
<g id="a_node25"><a xlink:href="interfaceInventoryMagazineComponentClass.html" target="_top" xlink:title=" ">
<polygon fill="white" stroke="#666666" points="656.5,-174 510.5,-174 510.5,-144 656.5,-144 656.5,-174"/>
<text text-anchor="start" x="518.5" y="-162" font-family="Helvetica,sans-Serif" font-size="10.00">InventoryMagazineComponent</text>
<text text-anchor="middle" x="583.5" y="-151" font-family="Helvetica,sans-Serif" font-size="10.00">Class</text>
</a>
</g>
</g>
<!-- Node1&#45;&gt;Node25 -->
<g id="edge24" class="edge">
<title>Node1&#45;&gt;Node25</title>
<path fill="none" stroke="#63b8ff" d="M439.68,-123.57C464.38,-129.7 494.3,-137.12 520.36,-143.58"/>
<polygon fill="#63b8ff" stroke="#63b8ff" points="440.64,-119.96 430.09,-120.95 438.96,-126.75 440.64,-119.96"/>
</g>
<!-- Node26 -->
<g id="node26" class="node">
<title>Node26</title>
<g id="a_node26"><a xlink:href="interfaceSCR__BaseInventoryItemComponentClass.html" target="_top" xlink:title=" ">
<polygon fill="white" stroke="#666666" points="669,-126 498,-126 498,-96 669,-96 669,-126"/>
<text text-anchor="start" x="506" y="-114" font-family="Helvetica,sans-Serif" font-size="10.00">SCR_BaseInventoryItemComponent</text>
<text text-anchor="middle" x="583.5" y="-103" font-family="Helvetica,sans-Serif" font-size="10.00">Class</text>
</a>
</g>
</g>
<!-- Node1&#45;&gt;Node26 -->
<g id="edge25" class="edge">
<title>Node1&#45;&gt;Node26</title>
<path fill="none" stroke="#63b8ff" d="M473.37,-111C481.46,-111 489.67,-111 497.77,-111"/>
<polygon fill="#63b8ff" stroke="#63b8ff" points="473.43,-107.5 463.43,-111 473.43,-114.5 473.43,-107.5"/>
</g>
<!-- Node30 -->
<g id="node30" class="node">
<title>Node30</title>
<g id="a_node30"><a xlink:href="interfaceSCR__DeployableInventoryItemInventoryComponentClass.html" target="_top" xlink:title=" ">
<polygon fill="white" stroke="#666666" points="657,-78 510,-78 510,-48 657,-48 657,-78"/>
<text text-anchor="start" x="518" y="-66" font-family="Helvetica,sans-Serif" font-size="10.00">SCR_DeployableInventoryItem</text>
<text text-anchor="middle" x="583.5" y="-55" font-family="Helvetica,sans-Serif" font-size="10.00">InventoryComponentClass</text>
</a>
</g>
</g>
<!-- Node1&#45;&gt;Node30 -->
<g id="edge29" class="edge">
<title>Node1&#45;&gt;Node30</title>
<path fill="none" stroke="#63b8ff" d="M439.68,-98.43C464.38,-92.3 494.3,-84.88 520.36,-78.42"/>
<polygon fill="#63b8ff" stroke="#63b8ff" points="438.96,-95.25 430.09,-101.05 440.64,-102.04 438.96,-95.25"/>
</g>
<!-- Node31 -->
<g id="node31" class="node">
<title>Node31</title>
<g id="a_node31"><a xlink:href="interfaceSCR__FuelInventoryItemComponentClass.html" target="_top" xlink:title=" ">
<polygon fill="white" stroke="#666666" points="667,-30 500,-30 500,0 667,0 667,-30"/>
<text text-anchor="start" x="508" y="-18" font-family="Helvetica,sans-Serif" font-size="10.00">SCR_FuelInventoryItemComponent</text>
<text text-anchor="middle" x="583.5" y="-7" font-family="Helvetica,sans-Serif" font-size="10.00">Class</text>
</a>
</g>
</g>
<!-- Node1&#45;&gt;Node31 -->
<g id="edge30" class="edge">
<title>Node1&#45;&gt;Node31</title>
<path fill="none" stroke="#63b8ff" d="M409.46,-94.69C430.57,-78.56 464.96,-54.16 498,-39 504.93,-35.82 512.38,-32.97 519.87,-30.43"/>
<polygon fill="#63b8ff" stroke="#63b8ff" points="407.77,-92.35 402.02,-101.25 412.06,-97.88 407.77,-92.35"/>
</g>
<!-- Node2 -->
<g id="node2" class="node">
<title>Node2</title>
<g id="a_node2"><a xlink:href="interfaceGameComponentClass.html" target="_top" xlink:title=" ">
<polygon fill="white" stroke="#666666" points="278,-120.5 161,-120.5 161,-101.5 278,-101.5 278,-120.5"/>
<text text-anchor="middle" x="219.5" y="-108.5" font-family="Helvetica,sans-Serif" font-size="10.00">GameComponentClass</text>
</a>
</g>
</g>
<!-- Node2&#45;&gt;Node1 -->
<g id="edge1" class="edge">
<title>Node2&#45;&gt;Node1</title>
<path fill="none" stroke="#63b8ff" d="M289.19,-111C297.31,-111 305.61,-111 313.79,-111"/>
<polygon fill="#63b8ff" stroke="#63b8ff" points="289.27,-107.5 279.27,-111 289.27,-114.5 289.27,-107.5"/>
</g>
<!-- Node3 -->
<g id="node3" class="node">
<title>Node3</title>
<g id="a_node3"><a xlink:title=" ">
<polygon fill="white" stroke="#666666" points="125,-120.5 0,-120.5 0,-101.5 125,-101.5 125,-120.5"/>
<text text-anchor="middle" x="62.5" y="-108.5" font-family="Helvetica,sans-Serif" font-size="10.00">GenericComponentClass</text>
</a>
</g>
</g>
<!-- Node3&#45;&gt;Node2 -->
<g id="edge2" class="edge">
<title>Node3&#45;&gt;Node2</title>
<path fill="none" stroke="#63b8ff" d="M135.96,-111C144.2,-111 152.52,-111 160.53,-111"/>
<polygon fill="#63b8ff" stroke="#63b8ff" points="136.21,-107.5 126.21,-111 136.21,-114.5 136.21,-107.5"/>
</g>
<!-- Node5 -->
<g id="node5" class="node">
<title>Node5</title>
<g id="a_node5"><a xlink:href="interfaceScriptedBaseInventoryStorageComponentClass.html" target="_top" xlink:title=" ">
<polygon fill="white" stroke="#666666" points="852,-258 705,-258 705,-228 852,-228 852,-258"/>
<text text-anchor="start" x="713" y="-246" font-family="Helvetica,sans-Serif" font-size="10.00">ScriptedBaseInventoryStorage</text>
<text text-anchor="middle" x="778.5" y="-235" font-family="Helvetica,sans-Serif" font-size="10.00">ComponentClass</text>
</a>
</g>
</g>
<!-- Node4&#45;&gt;Node5 -->
<g id="edge4" class="edge">
<title>Node4&#45;&gt;Node5</title>
<path fill="none" stroke="#63b8ff" d="M675.13,-230.27C685.07,-231.51 695.09,-232.75 704.77,-233.96"/>
<polygon fill="#63b8ff" stroke="#63b8ff" points="675.75,-226.7 665.39,-228.93 674.89,-233.64 675.75,-226.7"/>
</g>
<!-- Node6 -->
<g id="node6" class="node">
<title>Node6</title>
<g id="a_node6"><a xlink:href="interfaceAttachmentsStorageComponentClass.html" target="_top" xlink:title=" ">
<polygon fill="white" stroke="#666666" points="1050.5,-402 895.5,-402 895.5,-372 1050.5,-372 1050.5,-402"/>
<text text-anchor="start" x="903.5" y="-390" font-family="Helvetica,sans-Serif" font-size="10.00">AttachmentsStorageComponent</text>
<text text-anchor="middle" x="973" y="-379" font-family="Helvetica,sans-Serif" font-size="10.00">Class</text>
</a>
</g>
</g>
<!-- Node5&#45;&gt;Node6 -->
<g id="edge5" class="edge">
<title>Node5&#45;&gt;Node6</title>
<path fill="none" stroke="#63b8ff" d="M795.19,-267.3C814.03,-294.55 848.12,-338.16 888,-363 893.28,-366.29 899.02,-369.14 904.94,-371.61"/>
<polygon fill="#63b8ff" stroke="#63b8ff" points="797.68,-265.73 789.18,-259.4 791.88,-269.65 797.68,-265.73"/>
</g>
<!-- Node7 -->
<g id="node7" class="node">
<title>Node7</title>
<g id="a_node7"><a xlink:href="interfaceBaseEquipedWeaponStorageComponentClass.html" target="_top" xlink:title=" ">
<polygon fill="white" stroke="#666666" points="1045,-354 901,-354 901,-324 1045,-324 1045,-354"/>
<text text-anchor="start" x="909" y="-342" font-family="Helvetica,sans-Serif" font-size="10.00">BaseEquipedWeaponStorage</text>
<text text-anchor="middle" x="973" y="-331" font-family="Helvetica,sans-Serif" font-size="10.00">ComponentClass</text>
</a>
</g>
</g>
<!-- Node5&#45;&gt;Node7 -->
<g id="edge6" class="edge">
<title>Node5&#45;&gt;Node7</title>
<path fill="none" stroke="#63b8ff" d="M807.55,-265.12C828.66,-280.88 858.85,-301.56 888,-315 894.89,-318.18 902.29,-321.03 909.74,-323.56"/>
<polygon fill="#63b8ff" stroke="#63b8ff" points="809.89,-261.75 799.81,-258.49 805.66,-267.32 809.89,-261.75"/>
</g>
<!-- Node9 -->
<g id="node9" class="node">
<title>Node9</title>
<g id="a_node9"><a xlink:href="interfaceBaseUniversalInventoryStorageComponentClass.html" target="_top" xlink:title=" ">
<polygon fill="white" stroke="#666666" points="1048,-306 898,-306 898,-276 1048,-276 1048,-306"/>
<text text-anchor="start" x="906" y="-294" font-family="Helvetica,sans-Serif" font-size="10.00">BaseUniversalInventoryStorage</text>
<text text-anchor="middle" x="973" y="-283" font-family="Helvetica,sans-Serif" font-size="10.00">ComponentClass</text>
</a>
</g>
</g>
<!-- Node5&#45;&gt;Node9 -->
<g id="edge8" class="edge">
<title>Node5&#45;&gt;Node9</title>
<path fill="none" stroke="#63b8ff" d="M851.95,-261.07C871.11,-265.84 891.61,-270.95 910.15,-275.58"/>
<polygon fill="#63b8ff" stroke="#63b8ff" points="853.02,-257.48 842.47,-258.45 851.32,-264.27 853.02,-257.48"/>
</g>
<!-- Node18 -->
<g id="node18" class="node">
<title>Node18</title>
<g id="a_node18"><a xlink:href="interfaceClothNodeStorageComponentClass.html" target="_top" xlink:title=" ">
<polygon fill="white" stroke="#666666" points="1045.5,-258 900.5,-258 900.5,-228 1045.5,-228 1045.5,-258"/>
<text text-anchor="start" x="908.5" y="-246" font-family="Helvetica,sans-Serif" font-size="10.00">ClothNodeStorageComponent</text>
<text text-anchor="middle" x="973" y="-235" font-family="Helvetica,sans-Serif" font-size="10.00">Class</text>
</a>
</g>
</g>
<!-- Node5&#45;&gt;Node18 -->
<g id="edge17" class="edge">
<title>Node5&#45;&gt;Node18</title>
<path fill="none" stroke="#63b8ff" d="M863.03,-243C875.37,-243 888,-243 900.08,-243"/>
<polygon fill="#63b8ff" stroke="#63b8ff" points="863.28,-239.5 853.28,-243 863.28,-246.5 863.28,-239.5"/>
</g>
<!-- Node19 -->
<g id="node19" class="node">
<title>Node19</title>
<g id="a_node19"><a xlink:href="interfaceEquipedLoadoutStorageComponentClass.html" target="_top" xlink:title=" ">
<polygon fill="white" stroke="#666666" points="1058,-210 888,-210 888,-180 1058,-180 1058,-210"/>
<text text-anchor="start" x="896" y="-198" font-family="Helvetica,sans-Serif" font-size="10.00">EquipedLoadoutStorageComponent</text>
<text text-anchor="middle" x="973" y="-187" font-family="Helvetica,sans-Serif" font-size="10.00">Class</text>
</a>
</g>
</g>
<!-- Node5&#45;&gt;Node19 -->
<g id="edge18" class="edge">
<title>Node5&#45;&gt;Node19</title>
<path fill="none" stroke="#63b8ff" d="M851.95,-224.93C871.11,-220.16 891.61,-215.05 910.15,-210.42"/>
<polygon fill="#63b8ff" stroke="#63b8ff" points="851.32,-221.73 842.47,-227.55 853.02,-228.52 851.32,-221.73"/>
</g>
<!-- Node23 -->
<g id="node23" class="node">
<title>Node23</title>
<g id="a_node23"><a xlink:href="interfaceWeaponAttachmentsStorageComponentClass.html" target="_top" xlink:title=" ">
<polygon fill="white" stroke="#666666" points="1044,-162 902,-162 902,-132 1044,-132 1044,-162"/>
<text text-anchor="start" x="910" y="-150" font-family="Helvetica,sans-Serif" font-size="10.00">WeaponAttachmentsStorage</text>
<text text-anchor="middle" x="973" y="-139" font-family="Helvetica,sans-Serif" font-size="10.00">ComponentClass</text>
</a>
</g>
</g>
<!-- Node5&#45;&gt;Node23 -->
<g id="edge22" class="edge">
<title>Node5&#45;&gt;Node23</title>
<path fill="none" stroke="#63b8ff" d="M807.55,-220.88C828.66,-205.12 858.85,-184.44 888,-171 894.89,-167.82 902.29,-164.97 909.74,-162.44"/>
<polygon fill="#63b8ff" stroke="#63b8ff" points="805.66,-218.68 799.81,-227.51 809.89,-224.25 805.66,-218.68"/>
</g>
<!-- Node8 -->
<g id="node8" class="node">
<title>Node8</title>
<g id="a_node8"><a xlink:href="interfaceEquipedWeaponStorageComponentClass.html" target="_top" xlink:title=" ">
<polygon fill="white" stroke="#666666" points="1265,-354 1094,-354 1094,-324 1265,-324 1265,-354"/>
<text text-anchor="start" x="1102" y="-342" font-family="Helvetica,sans-Serif" font-size="10.00">EquipedWeaponStorageComponent</text>
<text text-anchor="middle" x="1179.5" y="-331" font-family="Helvetica,sans-Serif" font-size="10.00">Class</text>
</a>
</g>
</g>
<!-- Node7&#45;&gt;Node8 -->
<g id="edge7" class="edge">
<title>Node7&#45;&gt;Node8</title>
<path fill="none" stroke="#63b8ff" d="M1056.04,-339C1068.47,-339 1081.32,-339 1093.81,-339"/>
<polygon fill="#63b8ff" stroke="#63b8ff" points="1056.24,-335.5 1046.24,-339 1056.24,-342.5 1056.24,-335.5"/>
</g>
<!-- Node10 -->
<g id="node10" class="node">
<title>Node10</title>
<g id="a_node10"><a xlink:href="interfaceUniversalInventoryStorageComponentClass.html" target="_top" xlink:title=" ">
<polygon fill="white" stroke="#666666" points="1243.5,-306 1115.5,-306 1115.5,-276 1243.5,-276 1243.5,-306"/>
<text text-anchor="start" x="1123.5" y="-294" font-family="Helvetica,sans-Serif" font-size="10.00">UniversalInventoryStorage</text>
<text text-anchor="middle" x="1179.5" y="-283" font-family="Helvetica,sans-Serif" font-size="10.00">ComponentClass</text>
</a>
</g>
</g>
<!-- Node9&#45;&gt;Node10 -->
<g id="edge9" class="edge">
<title>Node9&#45;&gt;Node10</title>
<path fill="none" stroke="#63b8ff" d="M1059.33,-291C1078.07,-291 1097.58,-291 1115.27,-291"/>
<polygon fill="#63b8ff" stroke="#63b8ff" points="1059.41,-287.5 1049.41,-291 1059.41,-294.5 1059.41,-287.5"/>
</g>
<!-- Node11 -->
<g id="node11" class="node">
<title>Node11</title>
<g id="a_node11"><a xlink:href="interfaceBaseEquipmentStorageComponentClass.html" target="_top" xlink:title=" ">
<polygon fill="white" stroke="#666666" points="1470,-354 1301,-354 1301,-324 1470,-324 1470,-354"/>
<text text-anchor="start" x="1309" y="-342" font-family="Helvetica,sans-Serif" font-size="10.00">BaseEquipmentStorageComponent</text>
<text text-anchor="middle" x="1385.5" y="-331" font-family="Helvetica,sans-Serif" font-size="10.00">Class</text>
</a>
</g>
</g>
<!-- Node10&#45;&gt;Node11 -->
<g id="edge10" class="edge">
<title>Node10&#45;&gt;Node11</title>
<path fill="none" stroke="#63b8ff" d="M1254.41,-308.39C1275.42,-313.33 1298.15,-318.68 1318.64,-323.5"/>
<polygon fill="#63b8ff" stroke="#63b8ff" points="1255.46,-304.81 1244.93,-305.92 1253.86,-311.62 1255.46,-304.81"/>
</g>
<!-- Node16 -->
<g id="node16" class="node">
<title>Node16</title>
<g id="a_node16"><a xlink:href="interfaceSCR__CampaignArmoryStorageComponentClass.html" target="_top" xlink:title=" ">
<polygon fill="white" stroke="#666666" points="1461,-306 1310,-306 1310,-276 1461,-276 1461,-306"/>
<text text-anchor="start" x="1318" y="-294" font-family="Helvetica,sans-Serif" font-size="10.00">SCR_CampaignArmoryStorage</text>
<text text-anchor="middle" x="1385.5" y="-283" font-family="Helvetica,sans-Serif" font-size="10.00">ComponentClass</text>
</a>
</g>
</g>
<!-- Node10&#45;&gt;Node16 -->
<g id="edge15" class="edge">
<title>Node10&#45;&gt;Node16</title>
<path fill="none" stroke="#63b8ff" d="M1254.86,-291C1272.72,-291 1291.79,-291 1309.66,-291"/>
<polygon fill="#63b8ff" stroke="#63b8ff" points="1254.93,-287.5 1244.93,-291 1254.93,-294.5 1254.93,-287.5"/>
</g>
<!-- Node17 -->
<g id="node17" class="node">
<title>Node17</title>
<g id="a_node17"><a xlink:href="interfaceSCR__UniversalInventoryStorageComponentClass.html" target="_top" xlink:title=" ">
<polygon fill="white" stroke="#666666" points="1462,-258 1309,-258 1309,-228 1462,-228 1462,-258"/>
<text text-anchor="start" x="1317" y="-246" font-family="Helvetica,sans-Serif" font-size="10.00">SCR_UniversalInventoryStorage</text>
<text text-anchor="middle" x="1385.5" y="-235" font-family="Helvetica,sans-Serif" font-size="10.00">ComponentClass</text>
</a>
</g>
</g>
<!-- Node10&#45;&gt;Node17 -->
<g id="edge16" class="edge">
<title>Node10&#45;&gt;Node17</title>
<path fill="none" stroke="#63b8ff" d="M1254.41,-273.61C1275.42,-268.67 1298.15,-263.32 1318.64,-258.5"/>
<polygon fill="#63b8ff" stroke="#63b8ff" points="1253.86,-270.38 1244.93,-276.08 1255.46,-277.19 1253.86,-270.38"/>
</g>
<!-- Node12 -->
<g id="node12" class="node">
<title>Node12</title>
<g id="a_node12"><a xlink:href="interfaceEquipmentStorageComponentClass.html" target="_top" xlink:title=" ">
<polygon fill="white" stroke="#666666" points="1657,-354 1511,-354 1511,-324 1657,-324 1657,-354"/>
<text text-anchor="start" x="1519" y="-342" font-family="Helvetica,sans-Serif" font-size="10.00">EquipmentStorageComponent</text>
<text text-anchor="middle" x="1584" y="-331" font-family="Helvetica,sans-Serif" font-size="10.00">Class</text>
</a>
</g>
</g>
<!-- Node11&#45;&gt;Node12 -->
<g id="edge11" class="edge">
<title>Node11&#45;&gt;Node12</title>
<path fill="none" stroke="#63b8ff" d="M1481.1,-339C1490.99,-339 1500.94,-339 1510.53,-339"/>
<polygon fill="#63b8ff" stroke="#63b8ff" points="1481.4,-335.5 1471.4,-339 1481.4,-342.5 1481.4,-335.5"/>
</g>
<!-- Node13 -->
<g id="node13" class="node">
<title>Node13</title>
<g id="a_node13"><a xlink:href="interfaceSCR__EquipmentStorageComponentClass.html" target="_top" xlink:title=" ">
<polygon fill="white" stroke="#666666" points="1870,-354 1698,-354 1698,-324 1870,-324 1870,-354"/>
<text text-anchor="start" x="1706" y="-342" font-family="Helvetica,sans-Serif" font-size="10.00">SCR_EquipmentStorageComponent</text>
<text text-anchor="middle" x="1784" y="-331" font-family="Helvetica,sans-Serif" font-size="10.00">Class</text>
</a>
</g>
</g>
<!-- Node12&#45;&gt;Node13 -->
<g id="edge12" class="edge">
<title>Node12&#45;&gt;Node13</title>
<path fill="none" stroke="#63b8ff" d="M1668.24,-339C1678,-339 1687.98,-339 1697.77,-339"/>
<polygon fill="#63b8ff" stroke="#63b8ff" points="1668.32,-335.5 1658.32,-339 1668.32,-342.5 1668.32,-335.5"/>
</g>
<!-- Node14 -->
<g id="node14" class="node">
<title>Node14</title>
<g id="a_node14"><a xlink:href="interfaceSCR__SalineStorageComponentClass.html" target="_top" xlink:title=" ">
<polygon fill="white" stroke="#666666" points="2067,-378 1915,-378 1915,-348 2067,-348 2067,-378"/>
<text text-anchor="start" x="1923" y="-366" font-family="Helvetica,sans-Serif" font-size="10.00">SCR_SalineStorageComponent</text>
<text text-anchor="middle" x="1991" y="-355" font-family="Helvetica,sans-Serif" font-size="10.00">Class</text>
</a>
</g>
</g>
<!-- Node13&#45;&gt;Node14 -->
<g id="edge13" class="edge">
<title>Node13&#45;&gt;Node14</title>
<path fill="none" stroke="#63b8ff" d="M1881.22,-350.26C1892.49,-351.58 1903.87,-352.92 1914.81,-354.2"/>
<polygon fill="#63b8ff" stroke="#63b8ff" points="1881.79,-346.69 1871.45,-349 1880.98,-353.64 1881.79,-346.69"/>
</g>
<!-- Node15 -->
<g id="node15" class="node">
<title>Node15</title>
<g id="a_node15"><a xlink:href="interfaceSCR__TourniquetStorageComponentClass.html" target="_top" xlink:title=" ">
<polygon fill="white" stroke="#666666" points="2076,-330 1906,-330 1906,-300 2076,-300 2076,-330"/>
<text text-anchor="start" x="1914" y="-318" font-family="Helvetica,sans-Serif" font-size="10.00">SCR_TourniquetStorageComponent</text>
<text text-anchor="middle" x="1991" y="-307" font-family="Helvetica,sans-Serif" font-size="10.00">Class</text>
</a>
</g>
</g>
<!-- Node13&#45;&gt;Node15 -->
<g id="edge14" class="edge">
<title>Node13&#45;&gt;Node15</title>
<path fill="none" stroke="#63b8ff" d="M1881.17,-327.74C1889.35,-326.78 1897.59,-325.82 1905.67,-324.87"/>
<polygon fill="#63b8ff" stroke="#63b8ff" points="1880.98,-324.36 1871.45,-329 1881.79,-331.31 1880.98,-324.36"/>
</g>
<!-- Node20 -->
<g id="node20" class="node">
<title>Node20</title>
<g id="a_node20"><a xlink:href="interfaceSCR__EquipedLoadoutStorageComponentClass.html" target="_top" xlink:title=" ">
<polygon fill="white" stroke="#666666" points="1252.5,-210 1106.5,-210 1106.5,-180 1252.5,-180 1252.5,-210"/>
<text text-anchor="start" x="1114.5" y="-198" font-family="Helvetica,sans-Serif" font-size="10.00">SCR_EquipedLoadoutStorage</text>
<text text-anchor="middle" x="1179.5" y="-187" font-family="Helvetica,sans-Serif" font-size="10.00">ComponentClass</text>
</a>
</g>
</g>
<!-- Node19&#45;&gt;Node20 -->
<g id="edge19" class="edge">
<title>Node19&#45;&gt;Node20</title>
<path fill="none" stroke="#63b8ff" d="M1069.2,-195C1081.6,-195 1094.14,-195 1106.08,-195"/>
<polygon fill="#63b8ff" stroke="#63b8ff" points="1069.36,-191.5 1059.36,-195 1069.36,-198.5 1069.36,-191.5"/>
</g>
<!-- Node21 -->
<g id="node21" class="node">
<title>Node21</title>
<g id="a_node21"><a xlink:href="interfaceCharacterInventoryStorageComponentClass.html" target="_top" xlink:title=" ">
<polygon fill="white" stroke="#666666" points="1451,-210 1320,-210 1320,-180 1451,-180 1451,-210"/>
<text text-anchor="start" x="1328" y="-198" font-family="Helvetica,sans-Serif" font-size="10.00">CharacterInventoryStorage</text>
<text text-anchor="middle" x="1385.5" y="-187" font-family="Helvetica,sans-Serif" font-size="10.00">ComponentClass</text>
</a>
</g>
</g>
<!-- Node20&#45;&gt;Node21 -->
<g id="edge20" class="edge">
<title>Node20&#45;&gt;Node21</title>
<path fill="none" stroke="#63b8ff" d="M1263.85,-195C1282.47,-195 1301.96,-195 1319.7,-195"/>
<polygon fill="#63b8ff" stroke="#63b8ff" points="1264,-191.5 1254,-195 1264,-198.5 1264,-191.5"/>
</g>
<!-- Node22 -->
<g id="node22" class="node">
<title>Node22</title>
<g id="a_node22"><a xlink:href="interfaceSCR__CharacterInventoryStorageComponentClass.html" target="_top" xlink:title=" ">
<polygon fill="white" stroke="#666666" points="1662,-210 1506,-210 1506,-180 1662,-180 1662,-210"/>
<text text-anchor="start" x="1514" y="-198" font-family="Helvetica,sans-Serif" font-size="10.00">SCR_CharacterInventoryStorage</text>
<text text-anchor="middle" x="1584" y="-187" font-family="Helvetica,sans-Serif" font-size="10.00">ComponentClass</text>
</a>
</g>
</g>
<!-- Node21&#45;&gt;Node22 -->
<g id="edge21" class="edge">
<title>Node21&#45;&gt;Node22</title>
<path fill="none" stroke="#63b8ff" d="M1462.12,-195C1476.35,-195 1491.25,-195 1505.54,-195"/>
<polygon fill="#63b8ff" stroke="#63b8ff" points="1462.39,-191.5 1452.39,-195 1462.39,-198.5 1462.39,-191.5"/>
</g>
<!-- Node24 -->
<g id="node24" class="node">
<title>Node24</title>
<g id="a_node24"><a xlink:href="interfaceSCR__WeaponAttachmentsStorageComponentClass.html" target="_top" xlink:title=" ">
<polygon fill="white" stroke="#666666" points="1263,-162 1096,-162 1096,-132 1263,-132 1263,-162"/>
<text text-anchor="start" x="1104" y="-150" font-family="Helvetica,sans-Serif" font-size="10.00">SCR_WeaponAttachmentsStorage</text>
<text text-anchor="middle" x="1179.5" y="-139" font-family="Helvetica,sans-Serif" font-size="10.00">ComponentClass</text>
</a>
</g>
</g>
<!-- Node23&#45;&gt;Node24 -->
<g id="edge23" class="edge">
<title>Node23&#45;&gt;Node24</title>
<path fill="none" stroke="#63b8ff" d="M1055.38,-147C1068.63,-147 1082.38,-147 1095.67,-147"/>
<polygon fill="#63b8ff" stroke="#63b8ff" points="1055.38,-143.5 1045.38,-147 1055.38,-150.5 1055.38,-143.5"/>
</g>
<!-- Node27 -->
<g id="node27" class="node">
<title>Node27</title>
<g id="a_node27"><a xlink:href="interfaceSCR__PlaceableInventoryItemComponentClass.html" target="_top" xlink:title=" ">
<polygon fill="white" stroke="#666666" points="849.5,-114 707.5,-114 707.5,-84 849.5,-84 849.5,-114"/>
<text text-anchor="start" x="715.5" y="-102" font-family="Helvetica,sans-Serif" font-size="10.00">SCR_PlaceableInventoryItem</text>
<text text-anchor="middle" x="778.5" y="-91" font-family="Helvetica,sans-Serif" font-size="10.00">ComponentClass</text>
</a>
</g>
</g>
<!-- Node26&#45;&gt;Node27 -->
<g id="edge26" class="edge">
<title>Node26&#45;&gt;Node27</title>
<path fill="none" stroke="#63b8ff" d="M680.14,-105.05C689.29,-104.48 698.44,-103.92 707.28,-103.37"/>
<polygon fill="#63b8ff" stroke="#63b8ff" points="680.2,-101.61 670.43,-105.72 680.63,-108.59 680.2,-101.61"/>
</g>
<!-- Node28 -->
<g id="node28" class="node">
<title>Node28</title>
<g id="a_node28"><a xlink:href="interfaceSCR__ExplosiveChargeInventoryItemComponentClass.html" target="_top" xlink:title=" ">
<polygon fill="white" stroke="#666666" points="1049,-114 897,-114 897,-84 1049,-84 1049,-114"/>
<text text-anchor="start" x="905" y="-102" font-family="Helvetica,sans-Serif" font-size="10.00">SCR_ExplosiveChargeInventory</text>
<text text-anchor="middle" x="973" y="-91" font-family="Helvetica,sans-Serif" font-size="10.00">ItemComponentClass</text>
</a>
</g>
</g>
<!-- Node27&#45;&gt;Node28 -->
<g id="edge27" class="edge">
<title>Node27&#45;&gt;Node28</title>
<path fill="none" stroke="#63b8ff" d="M860.67,-99C872.61,-99 884.87,-99 896.69,-99"/>
<polygon fill="#63b8ff" stroke="#63b8ff" points="860.81,-95.5 850.81,-99 860.81,-102.5 860.81,-95.5"/>
</g>
<!-- Node29 -->
<g id="node29" class="node">
<title>Node29</title>
<g id="a_node29"><a xlink:href="interfaceSCR__MineInventoryItemComponentClass.html" target="_top" xlink:title=" ">
<polygon fill="white" stroke="#666666" points="1058,-66 888,-66 888,-36 1058,-36 1058,-66"/>
<text text-anchor="start" x="896" y="-54" font-family="Helvetica,sans-Serif" font-size="10.00">SCR_MineInventoryItemComponent</text>
<text text-anchor="middle" x="973" y="-43" font-family="Helvetica,sans-Serif" font-size="10.00">Class</text>
</a>
</g>
</g>
<!-- Node27&#45;&gt;Node29 -->
<g id="edge28" class="edge">
<title>Node27&#45;&gt;Node29</title>
<path fill="none" stroke="#63b8ff" d="M851.95,-80.93C871.11,-76.16 891.61,-71.05 910.15,-66.42"/>
<polygon fill="#63b8ff" stroke="#63b8ff" points="851.32,-77.73 842.47,-83.55 853.02,-84.52 851.32,-77.73"/>
</g>
</g>
</svg>
