<?xml version="1.0" encoding="UTF-8" standalone="no"?>
<!DOCTYPE svg PUBLIC "-//W3C//DTD SVG 1.1//EN"
 "http://www.w3.org/Graphics/SVG/1.1/DTD/svg11.dtd">
<!-- Generated by graphviz version 8.0.2 (20230410.1723)
 -->
<!-- Title: SCR_EditorModeRadialEntry Pages: 1 -->
<svg width="150pt" height="258pt"
 viewBox="0.00 0.00 150.00 258.00" xmlns="http://www.w3.org/2000/svg" xmlns:xlink="http://www.w3.org/1999/xlink">
<g id="graph0" class="graph" transform="scale(1 1) rotate(0) translate(4 254)">
<title>SCR_EditorModeRadialEntry</title>
<!-- Node1 -->
<g id="node1" class="node">
<title>Node1</title>
<g id="a_node1"><a xlink:title=" ">
<polygon fill="#999999" stroke="#666666" points="142,-19 0,-19 0,0 142,0 142,-19"/>
<text text-anchor="middle" x="71" y="-7" font-family="Helvetica,sans-Serif" font-size="10.00">SCR_EditorModeRadialEntry</text>
</a>
</g>
</g>
<!-- Node2 -->
<g id="node2" class="node">
<title>Node2</title>
<g id="a_node2"><a xlink:href="interfaceScriptedSelectionMenuEntry.html" target="_top" xlink:title=" ">
<polygon fill="white" stroke="#666666" points="141,-74 1,-74 1,-55 141,-55 141,-74"/>
<text text-anchor="middle" x="71" y="-62" font-family="Helvetica,sans-Serif" font-size="10.00">ScriptedSelectionMenuEntry</text>
</a>
</g>
</g>
<!-- Node2&#45;&gt;Node1 -->
<g id="edge1" class="edge">
<title>Node2&#45;&gt;Node1</title>
<path fill="none" stroke="#63b8ff" d="M71,-43.93C71,-35.53 71,-26.13 71,-19.44"/>
<polygon fill="#63b8ff" stroke="#63b8ff" points="67.5,-43.75 71,-53.75 74.5,-43.75 67.5,-43.75"/>
</g>
<!-- Node3 -->
<g id="node3" class="node">
<title>Node3</title>
<g id="a_node3"><a xlink:href="interfaceBaseScriptedSelectionMenuEntry.html" target="_top" xlink:title=" ">
<polygon fill="white" stroke="#666666" points="141,-140 1,-140 1,-110 141,-110 141,-140"/>
<text text-anchor="start" x="9" y="-128" font-family="Helvetica,sans-Serif" font-size="10.00">BaseScriptedSelectionMenu</text>
<text text-anchor="middle" x="71" y="-117" font-family="Helvetica,sans-Serif" font-size="10.00">Entry</text>
</a>
</g>
</g>
<!-- Node3&#45;&gt;Node2 -->
<g id="edge2" class="edge">
<title>Node3&#45;&gt;Node2</title>
<path fill="none" stroke="#63b8ff" d="M71,-98.59C71,-89.85 71,-80.65 71,-74.18"/>
<polygon fill="#63b8ff" stroke="#63b8ff" points="67.5,-98.54 71,-108.54 74.5,-98.54 67.5,-98.54"/>
</g>
<!-- Node4 -->
<g id="node4" class="node">
<title>Node4</title>
<g id="a_node4"><a xlink:href="interfaceBaseSelectionMenuEntry.html" target="_top" xlink:title=" ">
<polygon fill="white" stroke="#666666" points="134.5,-195 7.5,-195 7.5,-176 134.5,-176 134.5,-195"/>
<text text-anchor="middle" x="71" y="-183" font-family="Helvetica,sans-Serif" font-size="10.00">BaseSelectionMenuEntry</text>
</a>
</g>
</g>
<!-- Node4&#45;&gt;Node3 -->
<g id="edge3" class="edge">
<title>Node4&#45;&gt;Node3</title>
<path fill="none" stroke="#63b8ff" d="M71,-165.08C71,-156.92 71,-147.6 71,-140.11"/>
<polygon fill="#63b8ff" stroke="#63b8ff" points="67.5,-164.87 71,-174.87 74.5,-164.87 67.5,-164.87"/>
</g>
<!-- Node5 -->
<g id="node5" class="node">
<title>Node5</title>
<g id="a_node5"><a xlink:title=" ">
<polygon fill="white" stroke="#666666" points="114,-250 28,-250 28,-231 114,-231 114,-250"/>
<text text-anchor="middle" x="71" y="-238" font-family="Helvetica,sans-Serif" font-size="10.00">ScriptAndConfig</text>
</a>
</g>
</g>
<!-- Node5&#45;&gt;Node4 -->
<g id="edge4" class="edge">
<title>Node5&#45;&gt;Node4</title>
<path fill="none" stroke="#63b8ff" d="M71,-219.93C71,-211.53 71,-202.13 71,-195.44"/>
<polygon fill="#63b8ff" stroke="#63b8ff" points="67.5,-219.75 71,-229.75 74.5,-219.75 67.5,-219.75"/>
</g>
</g>
</svg>
