<?xml version="1.0" encoding="UTF-8" standalone="no"?>
<!DOCTYPE svg PUBLIC "-//W3C//DTD SVG 1.1//EN"
 "http://www.w3.org/Graphics/SVG/1.1/DTD/svg11.dtd">
<!-- Generated by graphviz version 8.0.2 (20230410.1723)
 -->
<!-- Title: SCR_EntitiesEditorUIComponent Pages: 1 -->
<svg width="167pt" height="258pt"
 viewBox="0.00 0.00 167.00 258.00" xmlns="http://www.w3.org/2000/svg" xmlns:xlink="http://www.w3.org/1999/xlink">
<g id="graph0" class="graph" transform="scale(1 1) rotate(0) translate(4 254)">
<title>SCR_EntitiesEditorUIComponent</title>
<!-- Node1 -->
<g id="node1" class="node">
<title>Node1</title>
<g id="a_node1"><a xlink:title=" ">
<polygon fill="#999999" stroke="#666666" points="159,-19 0,-19 0,0 159,0 159,-19"/>
<text text-anchor="middle" x="79.5" y="-7" font-family="Helvetica,sans-Serif" font-size="10.00">SCR_EntitiesEditorUIComponent</text>
</a>
</g>
</g>
<!-- Node2 -->
<g id="node2" class="node">
<title>Node2</title>
<g id="a_node2"><a xlink:href="interfaceSCR__EditableEntitySlotManagerUIComponent.html" target="_top" xlink:title=" ">
<polygon fill="white" stroke="#666666" points="158.5,-85 0.5,-85 0.5,-55 158.5,-55 158.5,-85"/>
<text text-anchor="start" x="8.5" y="-73" font-family="Helvetica,sans-Serif" font-size="10.00">SCR_EditableEntitySlotManager</text>
<text text-anchor="middle" x="79.5" y="-62" font-family="Helvetica,sans-Serif" font-size="10.00">UIComponent</text>
</a>
</g>
</g>
<!-- Node2&#45;&gt;Node1 -->
<g id="edge1" class="edge">
<title>Node2&#45;&gt;Node1</title>
<path fill="none" stroke="#63b8ff" d="M79.5,-43.59C79.5,-34.85 79.5,-25.65 79.5,-19.18"/>
<polygon fill="#63b8ff" stroke="#63b8ff" points="76,-43.54 79.5,-53.54 83,-43.54 76,-43.54"/>
</g>
<!-- Node3 -->
<g id="node3" class="node">
<title>Node3</title>
<g id="a_node3"><a xlink:href="interfaceSCR__BaseEditorUIComponent.html" target="_top" xlink:title=" ">
<polygon fill="white" stroke="#666666" points="154,-140 5,-140 5,-121 154,-121 154,-140"/>
<text text-anchor="middle" x="79.5" y="-128" font-family="Helvetica,sans-Serif" font-size="10.00">SCR_BaseEditorUIComponent</text>
</a>
</g>
</g>
<!-- Node3&#45;&gt;Node2 -->
<g id="edge2" class="edge">
<title>Node3&#45;&gt;Node2</title>
<path fill="none" stroke="#63b8ff" d="M79.5,-110.08C79.5,-101.92 79.5,-92.6 79.5,-85.11"/>
<polygon fill="#63b8ff" stroke="#63b8ff" points="76,-109.87 79.5,-119.87 83,-109.87 76,-109.87"/>
</g>
<!-- Node4 -->
<g id="node4" class="node">
<title>Node4</title>
<g id="a_node4"><a xlink:href="interfaceMenuRootSubComponent.html" target="_top" xlink:title="Widget component which is linked to menu it&#39;s part of.">
<polygon fill="white" stroke="#666666" points="143.5,-195 15.5,-195 15.5,-176 143.5,-176 143.5,-195"/>
<text text-anchor="middle" x="79.5" y="-183" font-family="Helvetica,sans-Serif" font-size="10.00">MenuRootSubComponent</text>
</a>
</g>
</g>
<!-- Node4&#45;&gt;Node3 -->
<g id="edge3" class="edge">
<title>Node4&#45;&gt;Node3</title>
<path fill="none" stroke="#63b8ff" d="M79.5,-164.93C79.5,-156.53 79.5,-147.13 79.5,-140.44"/>
<polygon fill="#63b8ff" stroke="#63b8ff" points="76,-164.75 79.5,-174.75 83,-164.75 76,-164.75"/>
</g>
<!-- Node5 -->
<g id="node5" class="node">
<title>Node5</title>
<g id="a_node5"><a xlink:title=" ">
<polygon fill="white" stroke="#666666" points="146,-250 13,-250 13,-231 146,-231 146,-250"/>
<text text-anchor="middle" x="79.5" y="-238" font-family="Helvetica,sans-Serif" font-size="10.00">ScriptedWidgetComponent</text>
</a>
</g>
</g>
<!-- Node5&#45;&gt;Node4 -->
<g id="edge4" class="edge">
<title>Node5&#45;&gt;Node4</title>
<path fill="none" stroke="#63b8ff" d="M79.5,-219.93C79.5,-211.53 79.5,-202.13 79.5,-195.44"/>
<polygon fill="#63b8ff" stroke="#63b8ff" points="76,-219.75 79.5,-229.75 83,-219.75 76,-219.75"/>
</g>
</g>
</svg>
