<?xml version="1.0" encoding="UTF-8" standalone="no"?>
<!DOCTYPE svg PUBLIC "-//W3C//DTD SVG 1.1//EN"
 "http://www.w3.org/Graphics/SVG/1.1/DTD/svg11.dtd">
<!-- Generated by graphviz version 8.0.2 (20230410.1723)
 -->
<!-- Title: SCR_AdvancedActionRowComponent Pages: 1 -->
<svg width="188pt" height="137pt"
 viewBox="0.00 0.00 188.00 137.00" xmlns="http://www.w3.org/2000/svg" xmlns:xlink="http://www.w3.org/1999/xlink">
<g id="graph0" class="graph" transform="scale(1 1) rotate(0) translate(4 133)">
<title>SCR_AdvancedActionRowComponent</title>
<!-- Node1 -->
<g id="node1" class="node">
<title>Node1</title>
<g id="a_node1"><a xlink:title=" ">
<polygon fill="#999999" stroke="#666666" points="180,-19 0,-19 0,0 180,0 180,-19"/>
<text text-anchor="middle" x="90" y="-7" font-family="Helvetica,sans-Serif" font-size="10.00">SCR_AdvancedActionRowComponent</text>
</a>
</g>
</g>
<!-- Node2 -->
<g id="node2" class="node">
<title>Node2</title>
<g id="a_node2"><a xlink:href="interfaceSCR__ScriptedWidgetComponent.html" target="_top" xlink:title=" ">
<polygon fill="white" stroke="#666666" points="169,-74 11,-74 11,-55 169,-55 169,-74"/>
<text text-anchor="middle" x="90" y="-62" font-family="Helvetica,sans-Serif" font-size="10.00">SCR_ScriptedWidgetComponent</text>
</a>
</g>
</g>
<!-- Node2&#45;&gt;Node1 -->
<g id="edge1" class="edge">
<title>Node2&#45;&gt;Node1</title>
<path fill="none" stroke="#63b8ff" d="M90,-43.93C90,-35.53 90,-26.13 90,-19.44"/>
<polygon fill="#63b8ff" stroke="#63b8ff" points="86.5,-43.75 90,-53.75 93.5,-43.75 86.5,-43.75"/>
</g>
<!-- Node3 -->
<g id="node3" class="node">
<title>Node3</title>
<g id="a_node3"><a xlink:title=" ">
<polygon fill="white" stroke="#666666" points="156.5,-129 23.5,-129 23.5,-110 156.5,-110 156.5,-129"/>
<text text-anchor="middle" x="90" y="-117" font-family="Helvetica,sans-Serif" font-size="10.00">ScriptedWidgetComponent</text>
</a>
</g>
</g>
<!-- Node3&#45;&gt;Node2 -->
<g id="edge2" class="edge">
<title>Node3&#45;&gt;Node2</title>
<path fill="none" stroke="#63b8ff" d="M90,-98.93C90,-90.53 90,-81.13 90,-74.44"/>
<polygon fill="#63b8ff" stroke="#63b8ff" points="86.5,-98.75 90,-108.75 93.5,-98.75 86.5,-98.75"/>
</g>
</g>
</svg>
