<?xml version="1.0" encoding="UTF-8" standalone="no"?>
<!DOCTYPE svg PUBLIC "-//W3C//DTD SVG 1.1//EN"
 "http://www.w3.org/Graphics/SVG/1.1/DTD/svg11.dtd">
<!-- Generated by graphviz version 8.0.2 (20230410.1723)
 -->
<!-- Title: CharacterControllerComponent Pages: 1 -->
<svg width="207pt" height="357pt"
 viewBox="0.00 0.00 207.00 357.00" xmlns="http://www.w3.org/2000/svg" xmlns:xlink="http://www.w3.org/1999/xlink">
<g id="graph0" class="graph" transform="scale(1 1) rotate(0) translate(4 353)">
<title>CharacterControllerComponent</title>
<!-- Node1 -->
<g id="node1" class="node">
<title>Node1</title>
<g id="a_node1"><a xlink:title=" ">
<polygon fill="#999999" stroke="#666666" points="174,-129 25,-129 25,-110 174,-110 174,-129"/>
<text text-anchor="middle" x="99.5" y="-117" font-family="Helvetica,sans-Serif" font-size="10.00">CharacterControllerComponent</text>
</a>
</g>
</g>
<!-- Node6 -->
<g id="node6" class="node">
<title>Node6</title>
<g id="a_node6"><a xlink:href="interfaceSCR__CharacterControllerComponent.html" target="_top" xlink:title=" ">
<polygon fill="white" stroke="#666666" points="187,-74 12,-74 12,-55 187,-55 187,-74"/>
<text text-anchor="middle" x="99.5" y="-62" font-family="Helvetica,sans-Serif" font-size="10.00">SCR_CharacterControllerComponent</text>
</a>
</g>
</g>
<!-- Node1&#45;&gt;Node6 -->
<g id="edge5" class="edge">
<title>Node1&#45;&gt;Node6</title>
<path fill="none" stroke="#63b8ff" d="M99.5,-98.93C99.5,-90.53 99.5,-81.13 99.5,-74.44"/>
<polygon fill="#63b8ff" stroke="#63b8ff" points="96,-98.75 99.5,-108.75 103,-98.75 96,-98.75"/>
</g>
<!-- Node2 -->
<g id="node2" class="node">
<title>Node2</title>
<g id="a_node2"><a xlink:href="interfacePrimaryControllerComponent.html" target="_top" xlink:title=" ">
<polygon fill="white" stroke="#666666" points="170,-184 29,-184 29,-165 170,-165 170,-184"/>
<text text-anchor="middle" x="99.5" y="-172" font-family="Helvetica,sans-Serif" font-size="10.00">PrimaryControllerComponent</text>
</a>
</g>
</g>
<!-- Node2&#45;&gt;Node1 -->
<g id="edge1" class="edge">
<title>Node2&#45;&gt;Node1</title>
<path fill="none" stroke="#63b8ff" d="M99.5,-153.93C99.5,-145.53 99.5,-136.13 99.5,-129.44"/>
<polygon fill="#63b8ff" stroke="#63b8ff" points="96,-153.75 99.5,-163.75 103,-153.75 96,-153.75"/>
</g>
<!-- Node3 -->
<g id="node3" class="node">
<title>Node3</title>
<g id="a_node3"><a xlink:href="interfaceBaseControllerComponent.html" target="_top" xlink:title=" ">
<polygon fill="white" stroke="#666666" points="164.5,-239 34.5,-239 34.5,-220 164.5,-220 164.5,-239"/>
<text text-anchor="middle" x="99.5" y="-227" font-family="Helvetica,sans-Serif" font-size="10.00">BaseControllerComponent</text>
</a>
</g>
</g>
<!-- Node3&#45;&gt;Node2 -->
<g id="edge2" class="edge">
<title>Node3&#45;&gt;Node2</title>
<path fill="none" stroke="#63b8ff" d="M99.5,-208.93C99.5,-200.53 99.5,-191.13 99.5,-184.44"/>
<polygon fill="#63b8ff" stroke="#63b8ff" points="96,-208.75 99.5,-218.75 103,-208.75 96,-208.75"/>
</g>
<!-- Node4 -->
<g id="node4" class="node">
<title>Node4</title>
<g id="a_node4"><a xlink:href="interfaceGameComponent.html" target="_top" xlink:title=" ">
<polygon fill="white" stroke="#666666" points="145.5,-294 53.5,-294 53.5,-275 145.5,-275 145.5,-294"/>
<text text-anchor="middle" x="99.5" y="-282" font-family="Helvetica,sans-Serif" font-size="10.00">GameComponent</text>
</a>
</g>
</g>
<!-- Node4&#45;&gt;Node3 -->
<g id="edge3" class="edge">
<title>Node4&#45;&gt;Node3</title>
<path fill="none" stroke="#63b8ff" d="M99.5,-263.93C99.5,-255.53 99.5,-246.13 99.5,-239.44"/>
<polygon fill="#63b8ff" stroke="#63b8ff" points="96,-263.75 99.5,-273.75 103,-263.75 96,-263.75"/>
</g>
<!-- Node5 -->
<g id="node5" class="node">
<title>Node5</title>
<g id="a_node5"><a xlink:title=" ">
<polygon fill="white" stroke="#666666" points="149.5,-349 49.5,-349 49.5,-330 149.5,-330 149.5,-349"/>
<text text-anchor="middle" x="99.5" y="-337" font-family="Helvetica,sans-Serif" font-size="10.00">GenericComponent</text>
</a>
</g>
</g>
<!-- Node5&#45;&gt;Node4 -->
<g id="edge4" class="edge">
<title>Node5&#45;&gt;Node4</title>
<path fill="none" stroke="#63b8ff" d="M99.5,-318.93C99.5,-310.53 99.5,-301.13 99.5,-294.44"/>
<polygon fill="#63b8ff" stroke="#63b8ff" points="96,-318.75 99.5,-328.75 103,-318.75 96,-318.75"/>
</g>
<!-- Node7 -->
<g id="node7" class="node">
<title>Node7</title>
<g id="a_node7"><a xlink:href="interfaceSCR__CharacterControllerComponent__Test.html" target="_top" xlink:title=" ">
<polygon fill="white" stroke="#666666" points="199,-19 0,-19 0,0 199,0 199,-19"/>
<text text-anchor="middle" x="99.5" y="-7" font-family="Helvetica,sans-Serif" font-size="10.00">SCR_CharacterControllerComponent_Test</text>
</a>
</g>
</g>
<!-- Node6&#45;&gt;Node7 -->
<g id="edge6" class="edge">
<title>Node6&#45;&gt;Node7</title>
<path fill="none" stroke="#63b8ff" d="M99.5,-43.93C99.5,-35.53 99.5,-26.13 99.5,-19.44"/>
<polygon fill="#63b8ff" stroke="#63b8ff" points="96,-43.75 99.5,-53.75 103,-43.75 96,-43.75"/>
</g>
</g>
</svg>
