<?xml version="1.0" encoding="UTF-8" standalone="no"?>
<!DOCTYPE svg PUBLIC "-//W3C//DTD SVG 1.1//EN"
 "http://www.w3.org/Graphics/SVG/1.1/DTD/svg11.dtd">
<!-- Generated by graphviz version 8.0.2 (20230410.1723)
 -->
<!-- Title: SCR_AIMessageInfo Pages: 1 -->
<svg width="727pt" height="249pt"
 viewBox="0.00 0.00 727.00 249.00" xmlns="http://www.w3.org/2000/svg" xmlns:xlink="http://www.w3.org/1999/xlink">
<g id="graph0" class="graph" transform="scale(1 1) rotate(0) translate(4 245)">
<title>SCR_AIMessageInfo</title>
<!-- Node1 -->
<g id="node1" class="node">
<title>Node1</title>
<g id="a_node1"><a xlink:title=" ">
<polygon fill="#999999" stroke="#666666" points="356,-130 250,-130 250,-111 356,-111 356,-130"/>
<text text-anchor="middle" x="303" y="-118" font-family="Helvetica,sans-Serif" font-size="10.00">SCR_AIMessageInfo</text>
</a>
</g>
</g>
<!-- Node4 -->
<g id="node4" class="node">
<title>Node4</title>
<g id="a_node4"><a xlink:href="interfaceSCR__AIMessage__ActionFailed.html" target="_top" xlink:title=" ">
<polygon fill="white" stroke="#666666" points="544,-241 394,-241 394,-222 544,-222 544,-241"/>
<text text-anchor="middle" x="469" y="-229" font-family="Helvetica,sans-Serif" font-size="10.00">SCR_AIMessage_ActionFailed</text>
</a>
</g>
</g>
<!-- Node1&#45;&gt;Node4 -->
<g id="edge3" class="edge">
<title>Node1&#45;&gt;Node4</title>
<path fill="none" stroke="#63b8ff" d="M316.81,-139.22C332.2,-160.27 359.99,-193.91 392,-212.5 398.35,-216.19 405.4,-219.17 412.58,-221.57"/>
<polygon fill="#63b8ff" stroke="#63b8ff" points="319.1,-137.41 310.46,-131.28 313.4,-141.46 319.1,-137.41"/>
</g>
<!-- Node5 -->
<g id="node5" class="node">
<title>Node5</title>
<g id="a_node5"><a xlink:href="interfaceSCR__AIMessage__FoundCorpse.html" target="_top" xlink:title=" ">
<polygon fill="white" stroke="#666666" points="546,-204 392,-204 392,-185 546,-185 546,-204"/>
<text text-anchor="middle" x="469" y="-192" font-family="Helvetica,sans-Serif" font-size="10.00">SCR_AIMessage_FoundCorpse</text>
</a>
</g>
</g>
<!-- Node1&#45;&gt;Node5 -->
<g id="edge4" class="edge">
<title>Node1&#45;&gt;Node5</title>
<path fill="none" stroke="#63b8ff" d="M325.68,-136.76C342.88,-148.97 367.94,-165.28 392,-175.5 400.39,-179.06 409.59,-182.06 418.61,-184.55"/>
<polygon fill="#63b8ff" stroke="#63b8ff" points="328.15,-133.5 317.99,-130.46 324.04,-139.17 328.15,-133.5"/>
</g>
<!-- Node7 -->
<g id="node7" class="node">
<title>Node7</title>
<g id="a_node7"><a xlink:href="interfaceSCR__AIMessage__HealFailed.html" target="_top" xlink:title=" ">
<polygon fill="white" stroke="#666666" points="540,-167 398,-167 398,-148 540,-148 540,-167"/>
<text text-anchor="middle" x="469" y="-155" font-family="Helvetica,sans-Serif" font-size="10.00">SCR_AIMessage_HealFailed</text>
</a>
</g>
</g>
<!-- Node1&#45;&gt;Node7 -->
<g id="edge6" class="edge">
<title>Node1&#45;&gt;Node7</title>
<path fill="none" stroke="#63b8ff" d="M358.46,-132.79C379.72,-137.58 403.78,-143.01 423.93,-147.56"/>
<polygon fill="#63b8ff" stroke="#63b8ff" points="359.47,-129.2 348.95,-130.42 357.93,-136.03 359.47,-129.2"/>
</g>
<!-- Node8 -->
<g id="node8" class="node">
<title>Node8</title>
<g id="a_node8"><a xlink:href="interfaceSCR__AIMessage__NoAmmo.html" target="_top" xlink:title=" ">
<polygon fill="white" stroke="#666666" points="537.5,-130 400.5,-130 400.5,-111 537.5,-111 537.5,-130"/>
<text text-anchor="middle" x="469" y="-118" font-family="Helvetica,sans-Serif" font-size="10.00">SCR_AIMessage_NoAmmo</text>
</a>
</g>
</g>
<!-- Node1&#45;&gt;Node8 -->
<g id="edge7" class="edge">
<title>Node1&#45;&gt;Node8</title>
<path fill="none" stroke="#63b8ff" d="M367.04,-120.5C377.92,-120.5 389.27,-120.5 400.27,-120.5"/>
<polygon fill="#63b8ff" stroke="#63b8ff" points="367.34,-117 357.34,-120.5 367.34,-124 367.34,-117"/>
</g>
<!-- Node9 -->
<g id="node9" class="node">
<title>Node9</title>
<g id="a_node9"><a xlink:href="interfaceSCR__AIMessage__SitRep.html" target="_top" xlink:title=" ">
<polygon fill="white" stroke="#666666" points="531.5,-93 406.5,-93 406.5,-74 531.5,-74 531.5,-93"/>
<text text-anchor="middle" x="469" y="-81" font-family="Helvetica,sans-Serif" font-size="10.00">SCR_AIMessage_SitRep</text>
</a>
</g>
</g>
<!-- Node1&#45;&gt;Node9 -->
<g id="edge8" class="edge">
<title>Node1&#45;&gt;Node9</title>
<path fill="none" stroke="#63b8ff" d="M358.46,-108.21C379.72,-103.42 403.78,-97.99 423.93,-93.44"/>
<polygon fill="#63b8ff" stroke="#63b8ff" points="357.93,-104.97 348.95,-110.58 359.47,-111.8 357.93,-104.97"/>
</g>
<!-- Node10 -->
<g id="node10" class="node">
<title>Node10</title>
<g id="a_node10"><a xlink:href="interfaceSCR__AIMessage__Target.html" target="_top" xlink:title=" ">
<polygon fill="white" stroke="#666666" points="530.5,-56 407.5,-56 407.5,-37 530.5,-37 530.5,-56"/>
<text text-anchor="middle" x="469" y="-44" font-family="Helvetica,sans-Serif" font-size="10.00">SCR_AIMessage_Target</text>
</a>
</g>
</g>
<!-- Node1&#45;&gt;Node10 -->
<g id="edge9" class="edge">
<title>Node1&#45;&gt;Node10</title>
<path fill="none" stroke="#63b8ff" d="M325.3,-104.06C342.46,-91.55 367.65,-74.78 392,-64.5 399.49,-61.33 407.65,-58.66 415.75,-56.43"/>
<polygon fill="#63b8ff" stroke="#63b8ff" points="323.58,-101.72 317.65,-110.5 327.76,-107.33 323.58,-101.72"/>
</g>
<!-- Node11 -->
<g id="node11" class="node">
<title>Node11</title>
<g id="a_node11"><a xlink:href="interfaceSCR__AIMessage__UnderFire.html" target="_top" xlink:title=" ">
<polygon fill="white" stroke="#666666" points="538,-19 400,-19 400,0 538,0 538,-19"/>
<text text-anchor="middle" x="469" y="-7" font-family="Helvetica,sans-Serif" font-size="10.00">SCR_AIMessage_UnderFire</text>
</a>
</g>
</g>
<!-- Node1&#45;&gt;Node11 -->
<g id="edge10" class="edge">
<title>Node1&#45;&gt;Node11</title>
<path fill="none" stroke="#63b8ff" d="M316.51,-101.79C331.78,-80.47 359.6,-46.17 392,-27.5 397.64,-24.25 403.84,-21.59 410.18,-19.4"/>
<polygon fill="#63b8ff" stroke="#63b8ff" points="313.24,-99.36 310.41,-109.57 318.99,-103.35 313.24,-99.36"/>
</g>
<!-- Node2 -->
<g id="node2" class="node">
<title>Node2</title>
<g id="a_node2"><a xlink:href="interfaceSCR__AIMessageBase.html" target="_top" xlink:title=" ">
<polygon fill="white" stroke="#666666" points="214,-130 101,-130 101,-111 214,-111 214,-130"/>
<text text-anchor="middle" x="157.5" y="-118" font-family="Helvetica,sans-Serif" font-size="10.00">SCR_AIMessageBase</text>
</a>
</g>
</g>
<!-- Node2&#45;&gt;Node1 -->
<g id="edge1" class="edge">
<title>Node2&#45;&gt;Node1</title>
<path fill="none" stroke="#63b8ff" d="M225.16,-120.5C233.43,-120.5 241.78,-120.5 249.78,-120.5"/>
<polygon fill="#63b8ff" stroke="#63b8ff" points="225.39,-117 215.39,-120.5 225.39,-124 225.39,-117"/>
</g>
<!-- Node3 -->
<g id="node3" class="node">
<title>Node3</title>
<g id="a_node3"><a xlink:title=" ">
<polygon fill="white" stroke="#666666" points="65,-130 0,-130 0,-111 65,-111 65,-130"/>
<text text-anchor="middle" x="32.5" y="-118" font-family="Helvetica,sans-Serif" font-size="10.00">AIMessage</text>
</a>
</g>
</g>
<!-- Node3&#45;&gt;Node2 -->
<g id="edge2" class="edge">
<title>Node3&#45;&gt;Node2</title>
<path fill="none" stroke="#63b8ff" d="M76.32,-120.5C84.24,-120.5 92.61,-120.5 100.84,-120.5"/>
<polygon fill="#63b8ff" stroke="#63b8ff" points="76.5,-117 66.5,-120.5 76.5,-124 76.5,-117"/>
</g>
<!-- Node6 -->
<g id="node6" class="node">
<title>Node6</title>
<g id="a_node6"><a xlink:href="interfaceSCR__AIMessage__Wounded.html" target="_top" xlink:title=" ">
<polygon fill="white" stroke="#666666" points="719,-204 582,-204 582,-185 719,-185 719,-204"/>
<text text-anchor="middle" x="650.5" y="-192" font-family="Helvetica,sans-Serif" font-size="10.00">SCR_AIMessage_Wounded</text>
</a>
</g>
</g>
<!-- Node5&#45;&gt;Node6 -->
<g id="edge5" class="edge">
<title>Node5&#45;&gt;Node6</title>
<path fill="none" stroke="#63b8ff" d="M557.18,-194.5C565.42,-194.5 573.68,-194.5 581.7,-194.5"/>
<polygon fill="#63b8ff" stroke="#63b8ff" points="557.38,-191 547.38,-194.5 557.38,-198 557.38,-191"/>
</g>
</g>
</svg>
