<?xml version="1.0" encoding="UTF-8" standalone="no"?>
<!DOCTYPE svg PUBLIC "-//W3C//DTD SVG 1.1//EN"
 "http://www.w3.org/Graphics/SVG/1.1/DTD/svg11.dtd">
<!-- Generated by graphviz version 8.0.2 (20230410.1723)
 -->
<!-- Title: SCR_DestructionFractalComponent Pages: 1 -->
<svg width="179pt" height="368pt"
 viewBox="0.00 0.00 179.00 368.00" xmlns="http://www.w3.org/2000/svg" xmlns:xlink="http://www.w3.org/1999/xlink">
<g id="graph0" class="graph" transform="scale(1 1) rotate(0) translate(4 364)">
<title>SCR_DestructionFractalComponent</title>
<!-- Node1 -->
<g id="node1" class="node">
<title>Node1</title>
<g id="a_node1"><a xlink:title="Fractal destruction component. For objects that should shatter/splinter etc.">
<polygon fill="#999999" stroke="#666666" points="171,-19 0,-19 0,0 171,0 171,-19"/>
<text text-anchor="middle" x="85.5" y="-7" font-family="Helvetica,sans-Serif" font-size="10.00">SCR_DestructionFractalComponent</text>
</a>
</g>
</g>
<!-- Node2 -->
<g id="node2" class="node">
<title>Node2</title>
<g id="a_node2"><a xlink:href="interfaceSCR__DestructionDamageManagerComponent.html" target="_top" xlink:title="Base destruction component, destruction types extend from this.">
<polygon fill="white" stroke="#666666" points="168,-85 3,-85 3,-55 168,-55 168,-85"/>
<text text-anchor="start" x="11" y="-73" font-family="Helvetica,sans-Serif" font-size="10.00">SCR_DestructionDamageManager</text>
<text text-anchor="middle" x="85.5" y="-62" font-family="Helvetica,sans-Serif" font-size="10.00">Component</text>
</a>
</g>
</g>
<!-- Node2&#45;&gt;Node1 -->
<g id="edge1" class="edge">
<title>Node2&#45;&gt;Node1</title>
<path fill="none" stroke="#63b8ff" d="M85.5,-43.59C85.5,-34.85 85.5,-25.65 85.5,-19.18"/>
<polygon fill="#63b8ff" stroke="#63b8ff" points="82,-43.54 85.5,-53.54 89,-43.54 82,-43.54"/>
</g>
<!-- Node3 -->
<g id="node3" class="node">
<title>Node3</title>
<g id="a_node3"><a xlink:href="interfaceSCR__DamageManagerComponent.html" target="_top" xlink:title=" ">
<polygon fill="white" stroke="#666666" points="168,-140 3,-140 3,-121 168,-121 168,-140"/>
<text text-anchor="middle" x="85.5" y="-128" font-family="Helvetica,sans-Serif" font-size="10.00">SCR_DamageManagerComponent</text>
</a>
</g>
</g>
<!-- Node3&#45;&gt;Node2 -->
<g id="edge2" class="edge">
<title>Node3&#45;&gt;Node2</title>
<path fill="none" stroke="#63b8ff" d="M85.5,-110.08C85.5,-101.92 85.5,-92.6 85.5,-85.11"/>
<polygon fill="#63b8ff" stroke="#63b8ff" points="82,-109.87 85.5,-119.87 89,-109.87 82,-109.87"/>
</g>
<!-- Node4 -->
<g id="node4" class="node">
<title>Node4</title>
<g id="a_node4"><a xlink:href="interfaceDamageManagerComponent.html" target="_top" xlink:title=" ">
<polygon fill="white" stroke="#666666" points="155.5,-195 15.5,-195 15.5,-176 155.5,-176 155.5,-195"/>
<text text-anchor="middle" x="85.5" y="-183" font-family="Helvetica,sans-Serif" font-size="10.00">DamageManagerComponent</text>
</a>
</g>
</g>
<!-- Node4&#45;&gt;Node3 -->
<g id="edge3" class="edge">
<title>Node4&#45;&gt;Node3</title>
<path fill="none" stroke="#63b8ff" d="M85.5,-164.93C85.5,-156.53 85.5,-147.13 85.5,-140.44"/>
<polygon fill="#63b8ff" stroke="#63b8ff" points="82,-164.75 85.5,-174.75 89,-164.75 82,-164.75"/>
</g>
<!-- Node5 -->
<g id="node5" class="node">
<title>Node5</title>
<g id="a_node5"><a xlink:href="interfaceHitZoneContainerComponent.html" target="_top" xlink:title=" ">
<polygon fill="white" stroke="#666666" points="155.5,-250 15.5,-250 15.5,-231 155.5,-231 155.5,-250"/>
<text text-anchor="middle" x="85.5" y="-238" font-family="Helvetica,sans-Serif" font-size="10.00">HitZoneContainerComponent</text>
</a>
</g>
</g>
<!-- Node5&#45;&gt;Node4 -->
<g id="edge4" class="edge">
<title>Node5&#45;&gt;Node4</title>
<path fill="none" stroke="#63b8ff" d="M85.5,-219.93C85.5,-211.53 85.5,-202.13 85.5,-195.44"/>
<polygon fill="#63b8ff" stroke="#63b8ff" points="82,-219.75 85.5,-229.75 89,-219.75 82,-219.75"/>
</g>
<!-- Node6 -->
<g id="node6" class="node">
<title>Node6</title>
<g id="a_node6"><a xlink:href="interfaceGameComponent.html" target="_top" xlink:title=" ">
<polygon fill="white" stroke="#666666" points="131.5,-305 39.5,-305 39.5,-286 131.5,-286 131.5,-305"/>
<text text-anchor="middle" x="85.5" y="-293" font-family="Helvetica,sans-Serif" font-size="10.00">GameComponent</text>
</a>
</g>
</g>
<!-- Node6&#45;&gt;Node5 -->
<g id="edge5" class="edge">
<title>Node6&#45;&gt;Node5</title>
<path fill="none" stroke="#63b8ff" d="M85.5,-274.93C85.5,-266.53 85.5,-257.13 85.5,-250.44"/>
<polygon fill="#63b8ff" stroke="#63b8ff" points="82,-274.75 85.5,-284.75 89,-274.75 82,-274.75"/>
</g>
<!-- Node7 -->
<g id="node7" class="node">
<title>Node7</title>
<g id="a_node7"><a xlink:title=" ">
<polygon fill="white" stroke="#666666" points="135.5,-360 35.5,-360 35.5,-341 135.5,-341 135.5,-360"/>
<text text-anchor="middle" x="85.5" y="-348" font-family="Helvetica,sans-Serif" font-size="10.00">GenericComponent</text>
</a>
</g>
</g>
<!-- Node7&#45;&gt;Node6 -->
<g id="edge6" class="edge">
<title>Node7&#45;&gt;Node6</title>
<path fill="none" stroke="#63b8ff" d="M85.5,-329.93C85.5,-321.53 85.5,-312.13 85.5,-305.44"/>
<polygon fill="#63b8ff" stroke="#63b8ff" points="82,-329.75 85.5,-339.75 89,-329.75 82,-329.75"/>
</g>
</g>
</svg>
