<?xml version="1.0" encoding="UTF-8" standalone="no"?>
<!DOCTYPE svg PUBLIC "-//W3C//DTD SVG 1.1//EN"
 "http://www.w3.org/Graphics/SVG/1.1/DTD/svg11.dtd">
<!-- Generated by graphviz version 8.0.2 (20230410.1723)
 -->
<!-- Title: SCR_BackendCallback Pages: 1 -->
<svg width="471pt" height="175pt"
 viewBox="0.00 0.00 471.00 175.00" xmlns="http://www.w3.org/2000/svg" xmlns:xlink="http://www.w3.org/1999/xlink">
<g id="graph0" class="graph" transform="scale(1 1) rotate(0) translate(4 171)">
<title>SCR_BackendCallback</title>
<!-- Node1 -->
<g id="node1" class="node">
<title>Node1</title>
<g id="a_node1"><a xlink:title="Scripted backend callback class unifying backend response.">
<polygon fill="#999999" stroke="#666666" points="246,-93 128,-93 128,-74 246,-74 246,-93"/>
<text text-anchor="middle" x="187" y="-81" font-family="Helvetica,sans-Serif" font-size="10.00">SCR_BackendCallback</text>
</a>
</g>
</g>
<!-- Node3 -->
<g id="node3" class="node">
<title>Node3</title>
<g id="a_node3"><a xlink:href="interfaceSCR__BackendCallbackRoomMods.html" target="_top" xlink:title=" ">
<polygon fill="white" stroke="#666666" points="456,-167 289,-167 289,-148 456,-148 456,-167"/>
<text text-anchor="middle" x="372.5" y="-155" font-family="Helvetica,sans-Serif" font-size="10.00">SCR_BackendCallbackRoomMods</text>
</a>
</g>
</g>
<!-- Node1&#45;&gt;Node3 -->
<g id="edge2" class="edge">
<title>Node1&#45;&gt;Node3</title>
<path fill="none" stroke="#63b8ff" d="M210.26,-99.72C228.64,-112.37 255.86,-129.42 282,-139.5 290.28,-142.69 299.22,-145.35 308.14,-147.55"/>
<polygon fill="#63b8ff" stroke="#63b8ff" points="212.45,-96.29 202.26,-93.4 208.43,-102.01 212.45,-96.29"/>
</g>
<!-- Node4 -->
<g id="node4" class="node">
<title>Node4</title>
<g id="a_node4"><a xlink:href="interfaceSCR__BackendCallbackWorkshopItem.html" target="_top" xlink:title=" ">
<polygon fill="white" stroke="#666666" points="463,-130 282,-130 282,-111 463,-111 463,-130"/>
<text text-anchor="middle" x="372.5" y="-118" font-family="Helvetica,sans-Serif" font-size="10.00">SCR_BackendCallbackWorkshopItem</text>
</a>
</g>
</g>
<!-- Node1&#45;&gt;Node4 -->
<g id="edge3" class="edge">
<title>Node1&#45;&gt;Node4</title>
<path fill="none" stroke="#63b8ff" d="M247.95,-95.63C259.26,-97.91 270.99,-100.28 282,-102.5 294.9,-105.1 308.84,-107.91 321.79,-110.51"/>
<polygon fill="#63b8ff" stroke="#63b8ff" points="248.77,-92.02 238.27,-93.47 247.38,-98.88 248.77,-92.02"/>
</g>
<!-- Node5 -->
<g id="node5" class="node">
<title>Node5</title>
<g id="a_node5"><a xlink:href="interfaceSCR__RoomCallback.html" target="_top" xlink:title="Scripted room callback specific for single room.">
<polygon fill="white" stroke="#666666" points="425,-93 320,-93 320,-74 425,-74 425,-93"/>
<text text-anchor="middle" x="372.5" y="-81" font-family="Helvetica,sans-Serif" font-size="10.00">SCR_RoomCallback</text>
</a>
</g>
</g>
<!-- Node1&#45;&gt;Node5 -->
<g id="edge4" class="edge">
<title>Node1&#45;&gt;Node5</title>
<path fill="none" stroke="#63b8ff" d="M257.27,-83.5C277.92,-83.5 300.2,-83.5 319.54,-83.5"/>
<polygon fill="#63b8ff" stroke="#63b8ff" points="257.31,-80 247.31,-83.5 257.31,-87 257.31,-80"/>
</g>
<!-- Node6 -->
<g id="node6" class="node">
<title>Node6</title>
<g id="a_node6"><a xlink:href="interfaceSCR__ServerSaveRequestCallback.html" target="_top" xlink:title=" ">
<polygon fill="white" stroke="#666666" points="454.5,-56 290.5,-56 290.5,-37 454.5,-37 454.5,-56"/>
<text text-anchor="middle" x="372.5" y="-44" font-family="Helvetica,sans-Serif" font-size="10.00">SCR_ServerSaveRequestCallback</text>
</a>
</g>
</g>
<!-- Node1&#45;&gt;Node6 -->
<g id="edge5" class="edge">
<title>Node1&#45;&gt;Node6</title>
<path fill="none" stroke="#63b8ff" d="M247.95,-71.37C259.26,-69.09 270.99,-66.72 282,-64.5 294.9,-61.9 308.84,-59.09 321.79,-56.49"/>
<polygon fill="#63b8ff" stroke="#63b8ff" points="247.38,-68.12 238.27,-73.53 248.77,-74.98 247.38,-68.12"/>
</g>
<!-- Node7 -->
<g id="node7" class="node">
<title>Node7</title>
<g id="a_node7"><a xlink:href="interfaceSCR__ServerSaveUploadCallback.html" target="_top" xlink:title=" ">
<polygon fill="white" stroke="#666666" points="451.5,-19 293.5,-19 293.5,0 451.5,0 451.5,-19"/>
<text text-anchor="middle" x="372.5" y="-7" font-family="Helvetica,sans-Serif" font-size="10.00">SCR_ServerSaveUploadCallback</text>
</a>
</g>
</g>
<!-- Node1&#45;&gt;Node7 -->
<g id="edge6" class="edge">
<title>Node1&#45;&gt;Node7</title>
<path fill="none" stroke="#63b8ff" d="M210.26,-67.28C228.64,-54.63 255.86,-37.58 282,-27.5 290.28,-24.31 299.22,-21.65 308.14,-19.45"/>
<polygon fill="#63b8ff" stroke="#63b8ff" points="208.43,-64.99 202.26,-73.6 212.45,-70.71 208.43,-64.99"/>
</g>
<!-- Node2 -->
<g id="node2" class="node">
<title>Node2</title>
<g id="a_node2"><a xlink:title=" ">
<polygon fill="white" stroke="#666666" points="92,-93 0,-93 0,-74 92,-74 92,-93"/>
<text text-anchor="middle" x="46" y="-81" font-family="Helvetica,sans-Serif" font-size="10.00">BackendCallback</text>
</a>
</g>
</g>
<!-- Node2&#45;&gt;Node1 -->
<g id="edge1" class="edge">
<title>Node2&#45;&gt;Node1</title>
<path fill="none" stroke="#63b8ff" d="M103.08,-83.5C111.26,-83.5 119.7,-83.5 127.92,-83.5"/>
<polygon fill="#63b8ff" stroke="#63b8ff" points="103.13,-80 93.13,-83.5 103.13,-87 103.13,-80"/>
</g>
</g>
</svg>
