<?xml version="1.0" encoding="UTF-8" standalone="no"?>
<!DOCTYPE svg PUBLIC "-//W3C//DTD SVG 1.1//EN"
 "http://www.w3.org/Graphics/SVG/1.1/DTD/svg11.dtd">
<!-- Generated by graphviz version 8.0.2 (20230410.1723)
 -->
<!-- Title: SCR_BaseDamageHealSupportStationComponentClass Pages: 1 -->
<svg width="336pt" height="225pt"
 viewBox="0.00 0.00 336.00 225.00" xmlns="http://www.w3.org/2000/svg" xmlns:xlink="http://www.w3.org/1999/xlink">
<g id="graph0" class="graph" transform="scale(1 1) rotate(0) translate(4 221)">
<title>SCR_BaseDamageHealSupportStationComponentClass</title>
<!-- Node1 -->
<g id="node1" class="node">
<title>Node1</title>
<g id="a_node1"><a xlink:title=" ">
<polygon fill="#999999" stroke="#666666" points="251,-96 97,-96 97,-66 251,-66 251,-96"/>
<text text-anchor="start" x="105" y="-84" font-family="Helvetica,sans-Serif" font-size="10.00">SCR_BaseDamageHealSupport</text>
<text text-anchor="middle" x="174" y="-73" font-family="Helvetica,sans-Serif" font-size="10.00">StationComponentClass</text>
</a>
</g>
</g>
<!-- Node4 -->
<g id="node4" class="node">
<title>Node4</title>
<g id="a_node4"><a xlink:href="interfaceSCR__HealSupportStationComponentClass.html" target="_top" xlink:title=" ">
<polygon fill="white" stroke="#666666" points="176,-30 0,-30 0,0 176,0 176,-30"/>
<text text-anchor="start" x="8" y="-18" font-family="Helvetica,sans-Serif" font-size="10.00">SCR_HealSupportStationComponent</text>
<text text-anchor="middle" x="88" y="-7" font-family="Helvetica,sans-Serif" font-size="10.00">Class</text>
</a>
</g>
</g>
<!-- Node1&#45;&gt;Node4 -->
<g id="edge3" class="edge">
<title>Node1&#45;&gt;Node4</title>
<path fill="none" stroke="#63b8ff" d="M146.12,-59.25C133.44,-49.82 118.77,-38.9 107.33,-30.39"/>
<polygon fill="#63b8ff" stroke="#63b8ff" points="143.8,-62.63 153.91,-65.8 147.98,-57.02 143.8,-62.63"/>
</g>
<!-- Node5 -->
<g id="node5" class="node">
<title>Node5</title>
<g id="a_node5"><a xlink:href="interfaceSCR__RepairSupportStationComponentClass.html" target="_top" xlink:title=" ">
<polygon fill="white" stroke="#666666" points="328,-30 194,-30 194,0 328,0 328,-30"/>
<text text-anchor="start" x="202" y="-18" font-family="Helvetica,sans-Serif" font-size="10.00">SCR_RepairSupportStation</text>
<text text-anchor="middle" x="261" y="-7" font-family="Helvetica,sans-Serif" font-size="10.00">ComponentClass</text>
</a>
</g>
</g>
<!-- Node1&#45;&gt;Node5 -->
<g id="edge4" class="edge">
<title>Node1&#45;&gt;Node5</title>
<path fill="none" stroke="#63b8ff" d="M201.84,-59.52C214.74,-50.03 229.76,-38.98 241.45,-30.39"/>
<polygon fill="#63b8ff" stroke="#63b8ff" points="200.29,-57.05 194.31,-65.8 204.44,-62.69 200.29,-57.05"/>
</g>
<!-- Node2 -->
<g id="node2" class="node">
<title>Node2</title>
<g id="a_node2"><a xlink:href="interfaceSCR__BaseSupportStationComponentClass.html" target="_top" xlink:title=" ">
<polygon fill="white" stroke="#666666" points="263.5,-162 84.5,-162 84.5,-132 263.5,-132 263.5,-162"/>
<text text-anchor="start" x="92.5" y="-150" font-family="Helvetica,sans-Serif" font-size="10.00">SCR_BaseSupportStationComponent</text>
<text text-anchor="middle" x="174" y="-139" font-family="Helvetica,sans-Serif" font-size="10.00">Class</text>
</a>
</g>
</g>
<!-- Node2&#45;&gt;Node1 -->
<g id="edge1" class="edge">
<title>Node2&#45;&gt;Node1</title>
<path fill="none" stroke="#63b8ff" d="M174,-120.97C174,-112.55 174,-103.45 174,-96.16"/>
<polygon fill="#63b8ff" stroke="#63b8ff" points="170.5,-120.8 174,-130.8 177.5,-120.8 170.5,-120.8"/>
</g>
<!-- Node3 -->
<g id="node3" class="node">
<title>Node3</title>
<g id="a_node3"><a xlink:title=" ">
<polygon fill="white" stroke="#666666" points="232,-217 116,-217 116,-198 232,-198 232,-217"/>
<text text-anchor="middle" x="174" y="-205" font-family="Helvetica,sans-Serif" font-size="10.00">ScriptComponentClass</text>
</a>
</g>
</g>
<!-- Node3&#45;&gt;Node2 -->
<g id="edge2" class="edge">
<title>Node3&#45;&gt;Node2</title>
<path fill="none" stroke="#63b8ff" d="M174,-187.08C174,-178.92 174,-169.6 174,-162.11"/>
<polygon fill="#63b8ff" stroke="#63b8ff" points="170.5,-186.87 174,-196.87 177.5,-186.87 170.5,-186.87"/>
</g>
</g>
</svg>
