<?xml version="1.0" encoding="UTF-8" standalone="no"?>
<!DOCTYPE svg PUBLIC "-//W3C//DTD SVG 1.1//EN"
 "http://www.w3.org/Graphics/SVG/1.1/DTD/svg11.dtd">
<!-- Generated by graphviz version 8.0.2 (20230410.1723)
 -->
<!-- Title: SCR_NotificationPlayerTargetEditableEntity Pages: 1 -->
<svg width="153pt" height="159pt"
 viewBox="0.00 0.00 153.00 159.00" xmlns="http://www.w3.org/2000/svg" xmlns:xlink="http://www.w3.org/1999/xlink">
<g id="graph0" class="graph" transform="scale(1 1) rotate(0) translate(4 155)">
<title>SCR_NotificationPlayerTargetEditableEntity</title>
<!-- Node1 -->
<g id="node1" class="node">
<title>Node1</title>
<g id="a_node1"><a xlink:title="Notification Player with target Editable Entity Display info Displays a notification: %1 = Player nam...">
<polygon fill="#999999" stroke="#666666" points="145,-96 0,-96 0,-66 145,-66 145,-96"/>
<text text-anchor="start" x="8" y="-84" font-family="Helvetica,sans-Serif" font-size="10.00">SCR_NotificationPlayerTarget</text>
<text text-anchor="middle" x="72.5" y="-73" font-family="Helvetica,sans-Serif" font-size="10.00">EditableEntity</text>
</a>
</g>
</g>
<!-- Node3 -->
<g id="node3" class="node">
<title>Node3</title>
<g id="a_node3"><a xlink:href="interfaceSCR__NotificationEditableEntityEditableEntityTarget.html" target="_top" xlink:title="Notification Editable Entity with target Editable Entity Display info Displays a notification: %1 = E...">
<polygon fill="white" stroke="#666666" points="137.5,-30 7.5,-30 7.5,0 137.5,0 137.5,-30"/>
<text text-anchor="start" x="15.5" y="-18" font-family="Helvetica,sans-Serif" font-size="10.00">SCR_NotificationEditable</text>
<text text-anchor="middle" x="72.5" y="-7" font-family="Helvetica,sans-Serif" font-size="10.00">EntityEditableEntityTarget</text>
</a>
</g>
</g>
<!-- Node1&#45;&gt;Node3 -->
<g id="edge2" class="edge">
<title>Node1&#45;&gt;Node3</title>
<path fill="none" stroke="#63b8ff" d="M72.5,-54.97C72.5,-46.55 72.5,-37.45 72.5,-30.16"/>
<polygon fill="#63b8ff" stroke="#63b8ff" points="69,-54.8 72.5,-64.8 76,-54.8 69,-54.8"/>
</g>
<!-- Node2 -->
<g id="node2" class="node">
<title>Node2</title>
<g id="a_node2"><a xlink:href="interfaceSCR__NotificationDisplayData.html" target="_top" xlink:title="Used to get the display information for each notification.">
<polygon fill="white" stroke="#666666" points="144,-151 1,-151 1,-132 144,-132 144,-151"/>
<text text-anchor="middle" x="72.5" y="-139" font-family="Helvetica,sans-Serif" font-size="10.00">SCR_NotificationDisplayData</text>
</a>
</g>
</g>
<!-- Node2&#45;&gt;Node1 -->
<g id="edge1" class="edge">
<title>Node2&#45;&gt;Node1</title>
<path fill="none" stroke="#63b8ff" d="M72.5,-121.08C72.5,-112.92 72.5,-103.6 72.5,-96.11"/>
<polygon fill="#63b8ff" stroke="#63b8ff" points="69,-120.87 72.5,-130.87 76,-120.87 69,-120.87"/>
</g>
</g>
</svg>
