<?xml version="1.0" encoding="UTF-8" standalone="no"?>
<!DOCTYPE svg PUBLIC "-//W3C//DTD SVG 1.1//EN"
 "http://www.w3.org/Graphics/SVG/1.1/DTD/svg11.dtd">
<!-- Generated by graphviz version 8.0.2 (20230410.1723)
 -->
<!-- Title: SCR_CampaignTaskSupportEntityClass Pages: 1 -->
<svg width="174pt" height="225pt"
 viewBox="0.00 0.00 174.00 225.00" xmlns="http://www.w3.org/2000/svg" xmlns:xlink="http://www.w3.org/1999/xlink">
<g id="graph0" class="graph" transform="scale(1 1) rotate(0) translate(4 221)">
<title>SCR_CampaignTaskSupportEntityClass</title>
<!-- Node1 -->
<g id="node1" class="node">
<title>Node1</title>
<g id="a_node1"><a xlink:title=" ">
<polygon fill="#999999" stroke="#666666" points="166,-30 0,-30 0,0 166,0 166,-30"/>
<text text-anchor="start" x="8" y="-18" font-family="Helvetica,sans-Serif" font-size="10.00">SCR_CampaignTaskSupportEntity</text>
<text text-anchor="middle" x="83" y="-7" font-family="Helvetica,sans-Serif" font-size="10.00">Class</text>
</a>
</g>
</g>
<!-- Node2 -->
<g id="node2" class="node">
<title>Node2</title>
<g id="a_node2"><a xlink:href="interfaceSCR__CampaignBaseTaskSupportEntityClass.html" target="_top" xlink:title=" ">
<polygon fill="white" stroke="#666666" points="164.5,-96 1.5,-96 1.5,-66 164.5,-66 164.5,-96"/>
<text text-anchor="start" x="9.5" y="-84" font-family="Helvetica,sans-Serif" font-size="10.00">SCR_CampaignBaseTaskSupport</text>
<text text-anchor="middle" x="83" y="-73" font-family="Helvetica,sans-Serif" font-size="10.00">EntityClass</text>
</a>
</g>
</g>
<!-- Node2&#45;&gt;Node1 -->
<g id="edge1" class="edge">
<title>Node2&#45;&gt;Node1</title>
<path fill="none" stroke="#63b8ff" d="M83,-54.97C83,-46.55 83,-37.45 83,-30.16"/>
<polygon fill="#63b8ff" stroke="#63b8ff" points="79.5,-54.8 83,-64.8 86.5,-54.8 79.5,-54.8"/>
</g>
<!-- Node3 -->
<g id="node3" class="node">
<title>Node3</title>
<g id="a_node3"><a xlink:href="interfaceSCR__BaseTaskSupportEntityClass.html" target="_top" xlink:title=" ">
<polygon fill="white" stroke="#666666" points="155.5,-162 10.5,-162 10.5,-132 155.5,-132 155.5,-162"/>
<text text-anchor="start" x="18.5" y="-150" font-family="Helvetica,sans-Serif" font-size="10.00">SCR_BaseTaskSupportEntity</text>
<text text-anchor="middle" x="83" y="-139" font-family="Helvetica,sans-Serif" font-size="10.00">Class</text>
</a>
</g>
</g>
<!-- Node3&#45;&gt;Node2 -->
<g id="edge2" class="edge">
<title>Node3&#45;&gt;Node2</title>
<path fill="none" stroke="#63b8ff" d="M83,-120.97C83,-112.55 83,-103.45 83,-96.16"/>
<polygon fill="#63b8ff" stroke="#63b8ff" points="79.5,-120.8 83,-130.8 86.5,-120.8 79.5,-120.8"/>
</g>
<!-- Node4 -->
<g id="node4" class="node">
<title>Node4</title>
<g id="a_node4"><a xlink:title=" ">
<polygon fill="white" stroke="#666666" points="133.5,-217 32.5,-217 32.5,-198 133.5,-198 133.5,-217"/>
<text text-anchor="middle" x="83" y="-205" font-family="Helvetica,sans-Serif" font-size="10.00">GenericEntityClass</text>
</a>
</g>
</g>
<!-- Node4&#45;&gt;Node3 -->
<g id="edge3" class="edge">
<title>Node4&#45;&gt;Node3</title>
<path fill="none" stroke="#63b8ff" d="M83,-187.08C83,-178.92 83,-169.6 83,-162.11"/>
<polygon fill="#63b8ff" stroke="#63b8ff" points="79.5,-186.87 83,-196.87 86.5,-186.87 79.5,-186.87"/>
</g>
</g>
</svg>
