<?xml version="1.0" encoding="UTF-8" standalone="no"?>
<!DOCTYPE svg PUBLIC "-//W3C//DTD SVG 1.1//EN"
 "http://www.w3.org/Graphics/SVG/1.1/DTD/svg11.dtd">
<!-- Generated by graphviz version 8.0.2 (20230410.1723)
 -->
<!-- Title: SCR_WeaponAttachmentsStorageComponent Pages: 1 -->
<svg width="175pt" height="390pt"
 viewBox="0.00 0.00 175.00 390.00" xmlns="http://www.w3.org/2000/svg" xmlns:xlink="http://www.w3.org/1999/xlink">
<g id="graph0" class="graph" transform="scale(1 1) rotate(0) translate(4 386)">
<title>SCR_WeaponAttachmentsStorageComponent</title>
<!-- Node1 -->
<g id="node1" class="node">
<title>Node1</title>
<g id="a_node1"><a xlink:title=" ">
<polygon fill="#999999" stroke="#666666" points="167,-30 0,-30 0,0 167,0 167,-30"/>
<text text-anchor="start" x="8" y="-18" font-family="Helvetica,sans-Serif" font-size="10.00">SCR_WeaponAttachmentsStorage</text>
<text text-anchor="middle" x="83.5" y="-7" font-family="Helvetica,sans-Serif" font-size="10.00">Component</text>
</a>
</g>
</g>
<!-- Node2 -->
<g id="node2" class="node">
<title>Node2</title>
<g id="a_node2"><a xlink:href="interfaceWeaponAttachmentsStorageComponent.html" target="_top" xlink:title=" ">
<polygon fill="white" stroke="#666666" points="154.5,-96 12.5,-96 12.5,-66 154.5,-66 154.5,-96"/>
<text text-anchor="start" x="20.5" y="-84" font-family="Helvetica,sans-Serif" font-size="10.00">WeaponAttachmentsStorage</text>
<text text-anchor="middle" x="83.5" y="-73" font-family="Helvetica,sans-Serif" font-size="10.00">Component</text>
</a>
</g>
</g>
<!-- Node2&#45;&gt;Node1 -->
<g id="edge1" class="edge">
<title>Node2&#45;&gt;Node1</title>
<path fill="none" stroke="#63b8ff" d="M83.5,-54.97C83.5,-46.55 83.5,-37.45 83.5,-30.16"/>
<polygon fill="#63b8ff" stroke="#63b8ff" points="80,-54.8 83.5,-64.8 87,-54.8 80,-54.8"/>
</g>
<!-- Node3 -->
<g id="node3" class="node">
<title>Node3</title>
<g id="a_node3"><a xlink:href="interfaceScriptedBaseInventoryStorageComponent.html" target="_top" xlink:title=" ">
<polygon fill="white" stroke="#666666" points="157,-162 10,-162 10,-132 157,-132 157,-162"/>
<text text-anchor="start" x="18" y="-150" font-family="Helvetica,sans-Serif" font-size="10.00">ScriptedBaseInventoryStorage</text>
<text text-anchor="middle" x="83.5" y="-139" font-family="Helvetica,sans-Serif" font-size="10.00">Component</text>
</a>
</g>
</g>
<!-- Node3&#45;&gt;Node2 -->
<g id="edge2" class="edge">
<title>Node3&#45;&gt;Node2</title>
<path fill="none" stroke="#63b8ff" d="M83.5,-120.97C83.5,-112.55 83.5,-103.45 83.5,-96.16"/>
<polygon fill="#63b8ff" stroke="#63b8ff" points="80,-120.8 83.5,-130.8 87,-120.8 80,-120.8"/>
</g>
<!-- Node4 -->
<g id="node4" class="node">
<title>Node4</title>
<g id="a_node4"><a xlink:href="interfaceBaseInventoryStorageComponent.html" target="_top" xlink:title=" ">
<polygon fill="white" stroke="#666666" points="164,-217 3,-217 3,-198 164,-198 164,-217"/>
<text text-anchor="middle" x="83.5" y="-205" font-family="Helvetica,sans-Serif" font-size="10.00">BaseInventoryStorageComponent</text>
</a>
</g>
</g>
<!-- Node4&#45;&gt;Node3 -->
<g id="edge3" class="edge">
<title>Node4&#45;&gt;Node3</title>
<path fill="none" stroke="#63b8ff" d="M83.5,-187.08C83.5,-178.92 83.5,-169.6 83.5,-162.11"/>
<polygon fill="#63b8ff" stroke="#63b8ff" points="80,-186.87 83.5,-196.87 87,-186.87 80,-186.87"/>
</g>
<!-- Node5 -->
<g id="node5" class="node">
<title>Node5</title>
<g id="a_node5"><a xlink:href="interfaceInventoryItemComponent.html" target="_top" xlink:title=" ">
<polygon fill="white" stroke="#666666" points="145,-272 22,-272 22,-253 145,-253 145,-272"/>
<text text-anchor="middle" x="83.5" y="-260" font-family="Helvetica,sans-Serif" font-size="10.00">InventoryItemComponent</text>
</a>
</g>
</g>
<!-- Node5&#45;&gt;Node4 -->
<g id="edge4" class="edge">
<title>Node5&#45;&gt;Node4</title>
<path fill="none" stroke="#63b8ff" d="M83.5,-241.93C83.5,-233.53 83.5,-224.13 83.5,-217.44"/>
<polygon fill="#63b8ff" stroke="#63b8ff" points="80,-241.75 83.5,-251.75 87,-241.75 80,-241.75"/>
</g>
<!-- Node6 -->
<g id="node6" class="node">
<title>Node6</title>
<g id="a_node6"><a xlink:href="interfaceGameComponent.html" target="_top" xlink:title=" ">
<polygon fill="white" stroke="#666666" points="129.5,-327 37.5,-327 37.5,-308 129.5,-308 129.5,-327"/>
<text text-anchor="middle" x="83.5" y="-315" font-family="Helvetica,sans-Serif" font-size="10.00">GameComponent</text>
</a>
</g>
</g>
<!-- Node6&#45;&gt;Node5 -->
<g id="edge5" class="edge">
<title>Node6&#45;&gt;Node5</title>
<path fill="none" stroke="#63b8ff" d="M83.5,-296.93C83.5,-288.53 83.5,-279.13 83.5,-272.44"/>
<polygon fill="#63b8ff" stroke="#63b8ff" points="80,-296.75 83.5,-306.75 87,-296.75 80,-296.75"/>
</g>
<!-- Node7 -->
<g id="node7" class="node">
<title>Node7</title>
<g id="a_node7"><a xlink:title=" ">
<polygon fill="white" stroke="#666666" points="133.5,-382 33.5,-382 33.5,-363 133.5,-363 133.5,-382"/>
<text text-anchor="middle" x="83.5" y="-370" font-family="Helvetica,sans-Serif" font-size="10.00">GenericComponent</text>
</a>
</g>
</g>
<!-- Node7&#45;&gt;Node6 -->
<g id="edge6" class="edge">
<title>Node7&#45;&gt;Node6</title>
<path fill="none" stroke="#63b8ff" d="M83.5,-351.93C83.5,-343.53 83.5,-334.13 83.5,-327.44"/>
<polygon fill="#63b8ff" stroke="#63b8ff" points="80,-351.75 83.5,-361.75 87,-351.75 80,-351.75"/>
</g>
</g>
</svg>
