<?xml version="1.0" encoding="UTF-8" standalone="no"?>
<!DOCTYPE svg PUBLIC "-//W3C//DTD SVG 1.1//EN"
 "http://www.w3.org/Graphics/SVG/1.1/DTD/svg11.dtd">
<!-- Generated by graphviz version 8.0.2 (20230410.1723)
 -->
<!-- Title: TimeAndWeatherManagerEntityClass Pages: 1 -->
<svg width="163pt" height="170pt"
 viewBox="0.00 0.00 163.00 170.00" xmlns="http://www.w3.org/2000/svg" xmlns:xlink="http://www.w3.org/1999/xlink">
<g id="graph0" class="graph" transform="scale(1 1) rotate(0) translate(4 166)">
<title>TimeAndWeatherManagerEntityClass</title>
<!-- Node1 -->
<g id="node1" class="node">
<title>Node1</title>
<g id="a_node1"><a xlink:title=" ">
<polygon fill="#999999" stroke="#666666" points="155,-30 0,-30 0,0 155,0 155,-30"/>
<text text-anchor="start" x="8" y="-18" font-family="Helvetica,sans-Serif" font-size="10.00">TimeAndWeatherManagerEntity</text>
<text text-anchor="middle" x="77.5" y="-7" font-family="Helvetica,sans-Serif" font-size="10.00">Class</text>
</a>
</g>
</g>
<!-- Node2 -->
<g id="node2" class="node">
<title>Node2</title>
<g id="a_node2"><a xlink:href="interfaceBaseTimeAndWeatherManagerEntityClass.html" target="_top" xlink:title=" ">
<polygon fill="white" stroke="#666666" points="153.5,-96 1.5,-96 1.5,-66 153.5,-66 153.5,-96"/>
<text text-anchor="start" x="9.5" y="-84" font-family="Helvetica,sans-Serif" font-size="10.00">BaseTimeAndWeatherManager</text>
<text text-anchor="middle" x="77.5" y="-73" font-family="Helvetica,sans-Serif" font-size="10.00">EntityClass</text>
</a>
</g>
</g>
<!-- Node2&#45;&gt;Node1 -->
<g id="edge1" class="edge">
<title>Node2&#45;&gt;Node1</title>
<path fill="none" stroke="#63b8ff" d="M77.5,-54.97C77.5,-46.55 77.5,-37.45 77.5,-30.16"/>
<polygon fill="#63b8ff" stroke="#63b8ff" points="74,-54.8 77.5,-64.8 81,-54.8 74,-54.8"/>
</g>
<!-- Node3 -->
<g id="node3" class="node">
<title>Node3</title>
<g id="a_node3"><a xlink:title=" ">
<polygon fill="white" stroke="#666666" points="147,-162 8,-162 8,-132 147,-132 147,-162"/>
<text text-anchor="start" x="16" y="-150" font-family="Helvetica,sans-Serif" font-size="10.00">BaseWeatherManagerEntity</text>
<text text-anchor="middle" x="77.5" y="-139" font-family="Helvetica,sans-Serif" font-size="10.00">Class</text>
</a>
</g>
</g>
<!-- Node3&#45;&gt;Node2 -->
<g id="edge2" class="edge">
<title>Node3&#45;&gt;Node2</title>
<path fill="none" stroke="#63b8ff" d="M77.5,-120.97C77.5,-112.55 77.5,-103.45 77.5,-96.16"/>
<polygon fill="#63b8ff" stroke="#63b8ff" points="74,-120.8 77.5,-130.8 81,-120.8 74,-120.8"/>
</g>
</g>
</svg>
