<?xml version="1.0" encoding="UTF-8" standalone="no"?>
<!DOCTYPE svg PUBLIC "-//W3C//DTD SVG 1.1//EN"
 "http://www.w3.org/Graphics/SVG/1.1/DTD/svg11.dtd">
<!-- Generated by graphviz version 8.0.2 (20230410.1723)
 -->
<!-- Title: SCR_GameModeSFManagerClass Pages: 1 -->
<svg width="190pt" height="214pt"
 viewBox="0.00 0.00 190.00 214.00" xmlns="http://www.w3.org/2000/svg" xmlns:xlink="http://www.w3.org/1999/xlink">
<g id="graph0" class="graph" transform="scale(1 1) rotate(0) translate(4 210)">
<title>SCR_GameModeSFManagerClass</title>
<!-- Node1 -->
<g id="node1" class="node">
<title>Node1</title>
<g id="a_node1"><a xlink:title=" ">
<polygon fill="#999999" stroke="#666666" points="174.5,-85 7.5,-85 7.5,-66 174.5,-66 174.5,-85"/>
<text text-anchor="middle" x="91" y="-73" font-family="Helvetica,sans-Serif" font-size="10.00">SCR_GameModeSFManagerClass</text>
</a>
</g>
</g>
<!-- Node4 -->
<g id="node4" class="node">
<title>Node4</title>
<g id="a_node4"><a xlink:href="interfaceSCR__GameModeCombatOpsManagerClass.html" target="_top" xlink:title=" ">
<polygon fill="white" stroke="#666666" points="182,-30 0,-30 0,0 182,0 182,-30"/>
<text text-anchor="start" x="8" y="-18" font-family="Helvetica,sans-Serif" font-size="10.00">SCR_GameModeCombatOpsManager</text>
<text text-anchor="middle" x="91" y="-7" font-family="Helvetica,sans-Serif" font-size="10.00">Class</text>
</a>
</g>
</g>
<!-- Node1&#45;&gt;Node4 -->
<g id="edge3" class="edge">
<title>Node1&#45;&gt;Node4</title>
<path fill="none" stroke="#63b8ff" d="M91,-55.08C91,-46.92 91,-37.6 91,-30.11"/>
<polygon fill="#63b8ff" stroke="#63b8ff" points="87.5,-54.87 91,-64.87 94.5,-54.87 87.5,-54.87"/>
</g>
<!-- Node2 -->
<g id="node2" class="node">
<title>Node2</title>
<g id="a_node2"><a xlink:href="interfaceSCR__BaseGameModeComponentClass.html" target="_top" xlink:title=" ">
<polygon fill="white" stroke="#666666" points="173,-151 9,-151 9,-121 173,-121 173,-151"/>
<text text-anchor="start" x="17" y="-139" font-family="Helvetica,sans-Serif" font-size="10.00">SCR_BaseGameModeComponent</text>
<text text-anchor="middle" x="91" y="-128" font-family="Helvetica,sans-Serif" font-size="10.00">Class</text>
</a>
</g>
</g>
<!-- Node2&#45;&gt;Node1 -->
<g id="edge1" class="edge">
<title>Node2&#45;&gt;Node1</title>
<path fill="none" stroke="#63b8ff" d="M91,-109.59C91,-100.85 91,-91.65 91,-85.18"/>
<polygon fill="#63b8ff" stroke="#63b8ff" points="87.5,-109.54 91,-119.54 94.5,-109.54 87.5,-109.54"/>
</g>
<!-- Node3 -->
<g id="node3" class="node">
<title>Node3</title>
<g id="a_node3"><a xlink:title=" ">
<polygon fill="white" stroke="#666666" points="149,-206 33,-206 33,-187 149,-187 149,-206"/>
<text text-anchor="middle" x="91" y="-194" font-family="Helvetica,sans-Serif" font-size="10.00">ScriptComponentClass</text>
</a>
</g>
</g>
<!-- Node3&#45;&gt;Node2 -->
<g id="edge2" class="edge">
<title>Node3&#45;&gt;Node2</title>
<path fill="none" stroke="#63b8ff" d="M91,-176.08C91,-167.92 91,-158.6 91,-151.11"/>
<polygon fill="#63b8ff" stroke="#63b8ff" points="87.5,-175.87 91,-185.87 94.5,-175.87 87.5,-175.87"/>
</g>
</g>
</svg>
