<?xml version="1.0" encoding="UTF-8" standalone="no"?>
<!DOCTYPE svg PUBLIC "-//W3C//DTD SVG 1.1//EN"
 "http://www.w3.org/Graphics/SVG/1.1/DTD/svg11.dtd">
<!-- Generated by graphviz version 8.0.2 (20230410.1723)
 -->
<!-- Title: SCR_MenuOverlayEditorAttribute Pages: 1 -->
<svg width="340pt" height="214pt"
 viewBox="0.00 0.00 340.00 214.00" xmlns="http://www.w3.org/2000/svg" xmlns:xlink="http://www.w3.org/1999/xlink">
<g id="graph0" class="graph" transform="scale(1 1) rotate(0) translate(4 210)">
<title>SCR_MenuOverlayEditorAttribute</title>
<!-- Node1 -->
<g id="node1" class="node">
<title>Node1</title>
<g id="a_node1"><a xlink:title=" ">
<polygon fill="#999999" stroke="#666666" points="246.5,-85 85.5,-85 85.5,-66 246.5,-66 246.5,-85"/>
<text text-anchor="middle" x="166" y="-73" font-family="Helvetica,sans-Serif" font-size="10.00">SCR_MenuOverlayEditorAttribute</text>
</a>
</g>
</g>
<!-- Node4 -->
<g id="node4" class="node">
<title>Node4</title>
<g id="a_node4"><a xlink:href="interfaceSCR__LogoOverlayEditorAttribute.html" target="_top" xlink:title=" ">
<polygon fill="white" stroke="#666666" points="158,-24.5 0,-24.5 0,-5.5 158,-5.5 158,-24.5"/>
<text text-anchor="middle" x="79" y="-12.5" font-family="Helvetica,sans-Serif" font-size="10.00">SCR_LogoOverlayEditorAttribute</text>
</a>
</g>
</g>
<!-- Node1&#45;&gt;Node4 -->
<g id="edge3" class="edge">
<title>Node1&#45;&gt;Node4</title>
<path fill="none" stroke="#63b8ff" d="M143.92,-59.66C127.65,-48.72 106.05,-34.19 92.34,-24.97"/>
<polygon fill="#63b8ff" stroke="#63b8ff" points="141.54,-62.94 151.79,-65.62 145.44,-57.13 141.54,-62.94"/>
</g>
<!-- Node5 -->
<g id="node5" class="node">
<title>Node5</title>
<g id="a_node5"><a xlink:href="interfaceSCR__LogoOverlayPositionEditorAttribute.html" target="_top" xlink:title=" ">
<polygon fill="white" stroke="#666666" points="332,-30 176,-30 176,0 332,0 332,-30"/>
<text text-anchor="start" x="184" y="-18" font-family="Helvetica,sans-Serif" font-size="10.00">SCR_LogoOverlayPositionEditor</text>
<text text-anchor="middle" x="254" y="-7" font-family="Helvetica,sans-Serif" font-size="10.00">Attribute</text>
</a>
</g>
</g>
<!-- Node1&#45;&gt;Node5 -->
<g id="edge4" class="edge">
<title>Node1&#45;&gt;Node5</title>
<path fill="none" stroke="#63b8ff" d="M188.43,-59.59C201.9,-50.64 218.94,-39.3 232.28,-30.44"/>
<polygon fill="#63b8ff" stroke="#63b8ff" points="186.76,-57.16 180.37,-65.62 190.63,-62.99 186.76,-57.16"/>
</g>
<!-- Node2 -->
<g id="node2" class="node">
<title>Node2</title>
<g id="a_node2"><a xlink:href="interfaceSCR__BaseDuplicatableEditorAttribute.html" target="_top" xlink:title="Attributes that never communicate can inharent from SCR_BaseDuplicatableEditorAttribute else an error...">
<polygon fill="white" stroke="#666666" points="237.5,-151 94.5,-151 94.5,-121 237.5,-121 237.5,-151"/>
<text text-anchor="start" x="102.5" y="-139" font-family="Helvetica,sans-Serif" font-size="10.00">SCR_BaseDuplicatableEditor</text>
<text text-anchor="middle" x="166" y="-128" font-family="Helvetica,sans-Serif" font-size="10.00">Attribute</text>
</a>
</g>
</g>
<!-- Node2&#45;&gt;Node1 -->
<g id="edge1" class="edge">
<title>Node2&#45;&gt;Node1</title>
<path fill="none" stroke="#63b8ff" d="M166,-109.59C166,-100.85 166,-91.65 166,-85.18"/>
<polygon fill="#63b8ff" stroke="#63b8ff" points="162.5,-109.54 166,-119.54 169.5,-109.54 162.5,-109.54"/>
</g>
<!-- Node3 -->
<g id="node3" class="node">
<title>Node3</title>
<g id="a_node3"><a xlink:href="interfaceSCR__BaseEditorAttribute.html" target="_top" xlink:title="Base Attribute Script for other attributes to inherent from to get and set varriables in Editor Attri...">
<polygon fill="white" stroke="#666666" points="229.5,-206 102.5,-206 102.5,-187 229.5,-187 229.5,-206"/>
<text text-anchor="middle" x="166" y="-194" font-family="Helvetica,sans-Serif" font-size="10.00">SCR_BaseEditorAttribute</text>
</a>
</g>
</g>
<!-- Node3&#45;&gt;Node2 -->
<g id="edge2" class="edge">
<title>Node3&#45;&gt;Node2</title>
<path fill="none" stroke="#63b8ff" d="M166,-176.08C166,-167.92 166,-158.6 166,-151.11"/>
<polygon fill="#63b8ff" stroke="#63b8ff" points="162.5,-175.87 166,-185.87 169.5,-175.87 162.5,-175.87"/>
</g>
</g>
</svg>
