<?xml version="1.0" encoding="UTF-8" standalone="no"?>
<!DOCTYPE svg PUBLIC "-//W3C//DTD SVG 1.1//EN"
 "http://www.w3.org/Graphics/SVG/1.1/DTD/svg11.dtd">
<!-- Generated by graphviz version 8.0.2 (20230410.1723)
 -->
<!-- Title: PreviewRenderAttributes Pages: 1 -->
<svg width="320pt" height="203pt"
 viewBox="0.00 0.00 319.50 203.00" xmlns="http://www.w3.org/2000/svg" xmlns:xlink="http://www.w3.org/1999/xlink">
<g id="graph0" class="graph" transform="scale(1 1) rotate(0) translate(4 199)">
<title>PreviewRenderAttributes</title>
<!-- Node1 -->
<g id="node1" class="node">
<title>Node1</title>
<g id="a_node1"><a xlink:title=" ">
<polygon fill="#999999" stroke="#666666" points="220.5,-85 98.5,-85 98.5,-66 220.5,-66 220.5,-85"/>
<text text-anchor="middle" x="159.5" y="-73" font-family="Helvetica,sans-Serif" font-size="10.00">PreviewRenderAttributes</text>
</a>
</g>
</g>
<!-- Node4 -->
<g id="node4" class="node">
<title>Node4</title>
<g id="a_node4"><a xlink:href="interfaceSCR__CharacterInventoryPreviewAttributes.html" target="_top" xlink:title=" ">
<polygon fill="white" stroke="#666666" points="155,-30 0,-30 0,0 155,0 155,-30"/>
<text text-anchor="start" x="8" y="-18" font-family="Helvetica,sans-Serif" font-size="10.00">SCR_CharacterInventoryPreview</text>
<text text-anchor="middle" x="77.5" y="-7" font-family="Helvetica,sans-Serif" font-size="10.00">Attributes</text>
</a>
</g>
</g>
<!-- Node1&#45;&gt;Node4 -->
<g id="edge3" class="edge">
<title>Node1&#45;&gt;Node4</title>
<path fill="none" stroke="#63b8ff" d="M138.23,-59.33C125.74,-50.42 110.05,-39.22 97.74,-30.44"/>
<polygon fill="#63b8ff" stroke="#63b8ff" points="135.87,-62.66 146.05,-65.62 139.94,-56.96 135.87,-62.66"/>
</g>
<!-- Node5 -->
<g id="node5" class="node">
<title>Node5</title>
<g id="a_node5"><a xlink:href="interfaceSCR__VONPreviewAttributes.html" target="_top" xlink:title="Render widget preview attributes for VON menu.">
<polygon fill="white" stroke="#666666" points="311.5,-24.5 173.5,-24.5 173.5,-5.5 311.5,-5.5 311.5,-24.5"/>
<text text-anchor="middle" x="242.5" y="-12.5" font-family="Helvetica,sans-Serif" font-size="10.00">SCR_VONPreviewAttributes</text>
</a>
</g>
</g>
<!-- Node1&#45;&gt;Node5 -->
<g id="edge4" class="edge">
<title>Node1&#45;&gt;Node5</title>
<path fill="none" stroke="#63b8ff" d="M181,-59.35C196.47,-48.44 216.81,-34.11 229.78,-24.97"/>
<polygon fill="#63b8ff" stroke="#63b8ff" points="179.26,-56.99 173.11,-65.62 183.3,-62.71 179.26,-56.99"/>
</g>
<!-- Node2 -->
<g id="node2" class="node">
<title>Node2</title>
<g id="a_node2"><a xlink:href="interfaceBaseItemAttributeData.html" target="_top" xlink:title=" ">
<polygon fill="white" stroke="#666666" points="217,-140 102,-140 102,-121 217,-121 217,-140"/>
<text text-anchor="middle" x="159.5" y="-128" font-family="Helvetica,sans-Serif" font-size="10.00">BaseItemAttributeData</text>
</a>
</g>
</g>
<!-- Node2&#45;&gt;Node1 -->
<g id="edge1" class="edge">
<title>Node2&#45;&gt;Node1</title>
<path fill="none" stroke="#63b8ff" d="M159.5,-109.93C159.5,-101.53 159.5,-92.13 159.5,-85.44"/>
<polygon fill="#63b8ff" stroke="#63b8ff" points="156,-109.75 159.5,-119.75 163,-109.75 156,-109.75"/>
</g>
<!-- Node3 -->
<g id="node3" class="node">
<title>Node3</title>
<g id="a_node3"><a xlink:title=" ">
<polygon fill="white" stroke="#666666" points="202.5,-195 116.5,-195 116.5,-176 202.5,-176 202.5,-195"/>
<text text-anchor="middle" x="159.5" y="-183" font-family="Helvetica,sans-Serif" font-size="10.00">ScriptAndConfig</text>
</a>
</g>
</g>
<!-- Node3&#45;&gt;Node2 -->
<g id="edge2" class="edge">
<title>Node3&#45;&gt;Node2</title>
<path fill="none" stroke="#63b8ff" d="M159.5,-164.93C159.5,-156.53 159.5,-147.13 159.5,-140.44"/>
<polygon fill="#63b8ff" stroke="#63b8ff" points="156,-164.75 159.5,-174.75 163,-164.75 156,-164.75"/>
</g>
</g>
</svg>
