<?xml version="1.0" encoding="UTF-8" standalone="no"?>
<!DOCTYPE svg PUBLIC "-//W3C//DTD SVG 1.1//EN"
 "http://www.w3.org/Graphics/SVG/1.1/DTD/svg11.dtd">
<!-- Generated by graphviz version 8.0.2 (20230410.1723)
 -->
<!-- Title: SCR_PrefabEditingPlugin Pages: 1 -->
<svg width="176pt" height="203pt"
 viewBox="0.00 0.00 176.00 203.00" xmlns="http://www.w3.org/2000/svg" xmlns:xlink="http://www.w3.org/1999/xlink">
<g id="graph0" class="graph" transform="scale(1 1) rotate(0) translate(4 199)">
<title>SCR_PrefabEditingPlugin</title>
<!-- Node1 -->
<g id="node1" class="node">
<title>Node1</title>
<g id="a_node1"><a xlink:title=" ">
<polygon fill="#999999" stroke="#666666" points="147.5,-85 20.5,-85 20.5,-66 147.5,-66 147.5,-85"/>
<text text-anchor="middle" x="84" y="-73" font-family="Helvetica,sans-Serif" font-size="10.00">SCR_PrefabEditingPlugin</text>
</a>
</g>
</g>
<!-- Node4 -->
<g id="node4" class="node">
<title>Node4</title>
<g id="a_node4"><a xlink:href="interfaceSCR__PrefabEditingPluginResourceManager.html" target="_top" xlink:title=" ">
<polygon fill="white" stroke="#666666" points="168,-30 0,-30 0,0 168,0 168,-30"/>
<text text-anchor="start" x="8" y="-18" font-family="Helvetica,sans-Serif" font-size="10.00">SCR_PrefabEditingPluginResource</text>
<text text-anchor="middle" x="84" y="-7" font-family="Helvetica,sans-Serif" font-size="10.00">Manager</text>
</a>
</g>
</g>
<!-- Node1&#45;&gt;Node4 -->
<g id="edge3" class="edge">
<title>Node1&#45;&gt;Node4</title>
<path fill="none" stroke="#63b8ff" d="M84,-55.08C84,-46.92 84,-37.6 84,-30.11"/>
<polygon fill="#63b8ff" stroke="#63b8ff" points="80.5,-54.87 84,-64.87 87.5,-54.87 80.5,-54.87"/>
</g>
<!-- Node2 -->
<g id="node2" class="node">
<title>Node2</title>
<g id="a_node2"><a xlink:href="interfaceSCR__PrefabEditingPluginBase.html" target="_top" xlink:title=" ">
<polygon fill="white" stroke="#666666" points="158.5,-140 9.5,-140 9.5,-121 158.5,-121 158.5,-140"/>
<text text-anchor="middle" x="84" y="-128" font-family="Helvetica,sans-Serif" font-size="10.00">SCR_PrefabEditingPluginBase</text>
</a>
</g>
</g>
<!-- Node2&#45;&gt;Node1 -->
<g id="edge1" class="edge">
<title>Node2&#45;&gt;Node1</title>
<path fill="none" stroke="#63b8ff" d="M84,-109.93C84,-101.53 84,-92.13 84,-85.44"/>
<polygon fill="#63b8ff" stroke="#63b8ff" points="80.5,-109.75 84,-119.75 87.5,-109.75 80.5,-109.75"/>
</g>
<!-- Node3 -->
<g id="node3" class="node">
<title>Node3</title>
<g id="a_node3"><a xlink:title=" ">
<polygon fill="white" stroke="#666666" points="130.5,-195 37.5,-195 37.5,-176 130.5,-176 130.5,-195"/>
<text text-anchor="middle" x="84" y="-183" font-family="Helvetica,sans-Serif" font-size="10.00">WorkbenchPlugin</text>
</a>
</g>
</g>
<!-- Node3&#45;&gt;Node2 -->
<g id="edge2" class="edge">
<title>Node3&#45;&gt;Node2</title>
<path fill="none" stroke="#63b8ff" d="M84,-164.93C84,-156.53 84,-147.13 84,-140.44"/>
<polygon fill="#63b8ff" stroke="#63b8ff" points="80.5,-164.75 84,-174.75 87.5,-164.75 80.5,-164.75"/>
</g>
</g>
</svg>
