<?xml version="1.0" encoding="UTF-8" standalone="no"?>
<!DOCTYPE svg PUBLIC "-//W3C//DTD SVG 1.1//EN"
 "http://www.w3.org/Graphics/SVG/1.1/DTD/svg11.dtd">
<!-- Generated by graphviz version 8.0.2 (20230410.1723)
 -->
<!-- Title: SCR_DeployMenuBaseScreenLayout Pages: 1 -->
<svg width="356pt" height="159pt"
 viewBox="0.00 0.00 355.50 159.00" xmlns="http://www.w3.org/2000/svg" xmlns:xlink="http://www.w3.org/1999/xlink">
<g id="graph0" class="graph" transform="scale(1 1) rotate(0) translate(4 155)">
<title>SCR_DeployMenuBaseScreenLayout</title>
<!-- Node1 -->
<g id="node1" class="node">
<title>Node1</title>
<g id="a_node1"><a xlink:title="Base class for Deploy menu layouts.">
<polygon fill="#999999" stroke="#666666" points="239,-96 90,-96 90,-66 239,-66 239,-96"/>
<text text-anchor="start" x="98" y="-84" font-family="Helvetica,sans-Serif" font-size="10.00">SCR_DeployMenuBaseScreen</text>
<text text-anchor="middle" x="164.5" y="-73" font-family="Helvetica,sans-Serif" font-size="10.00">Layout</text>
</a>
</g>
</g>
<!-- Node3 -->
<g id="node3" class="node">
<title>Node3</title>
<g id="a_node3"><a xlink:href="interfaceSCR__DebriefingScreenUnevenFourTiles.html" target="_top" xlink:title="Class handling layout for UnevenFourTiles.">
<polygon fill="white" stroke="#666666" points="147,-30 0,-30 0,0 147,0 147,-30"/>
<text text-anchor="start" x="8" y="-18" font-family="Helvetica,sans-Serif" font-size="10.00">SCR_DebriefingScreenUneven</text>
<text text-anchor="middle" x="73.5" y="-7" font-family="Helvetica,sans-Serif" font-size="10.00">FourTiles</text>
</a>
</g>
</g>
<!-- Node1&#45;&gt;Node3 -->
<g id="edge2" class="edge">
<title>Node1&#45;&gt;Node3</title>
<path fill="none" stroke="#63b8ff" d="M135.39,-59.52C121.89,-50.03 106.17,-38.98 93.95,-30.39"/>
<polygon fill="#63b8ff" stroke="#63b8ff" points="133.11,-62.91 143.3,-65.8 137.14,-57.18 133.11,-62.91"/>
</g>
<!-- Node4 -->
<g id="node4" class="node">
<title>Node4</title>
<g id="a_node4"><a xlink:href="interfaceSCR__WelcomeScreenThreeHorizontalColumns.html" target="_top" xlink:title="Class handling layout for ThreeHorizontalColumns.">
<polygon fill="white" stroke="#666666" points="347.5,-30 165.5,-30 165.5,0 347.5,0 347.5,-30"/>
<text text-anchor="start" x="173.5" y="-18" font-family="Helvetica,sans-Serif" font-size="10.00">SCR_WelcomeScreenThreeHorizontal</text>
<text text-anchor="middle" x="256.5" y="-7" font-family="Helvetica,sans-Serif" font-size="10.00">Columns</text>
</a>
</g>
</g>
<!-- Node1&#45;&gt;Node4 -->
<g id="edge3" class="edge">
<title>Node1&#45;&gt;Node4</title>
<path fill="none" stroke="#63b8ff" d="M193.93,-59.52C207.58,-50.03 223.47,-38.98 235.82,-30.39"/>
<polygon fill="#63b8ff" stroke="#63b8ff" points="192.13,-57.21 185.92,-65.8 196.13,-62.96 192.13,-57.21"/>
</g>
<!-- Node2 -->
<g id="node2" class="node">
<title>Node2</title>
<g id="a_node2"><a xlink:title=" ">
<polygon fill="white" stroke="#666666" points="207.5,-151 121.5,-151 121.5,-132 207.5,-132 207.5,-151"/>
<text text-anchor="middle" x="164.5" y="-139" font-family="Helvetica,sans-Serif" font-size="10.00">ScriptAndConfig</text>
</a>
</g>
</g>
<!-- Node2&#45;&gt;Node1 -->
<g id="edge1" class="edge">
<title>Node2&#45;&gt;Node1</title>
<path fill="none" stroke="#63b8ff" d="M164.5,-121.08C164.5,-112.92 164.5,-103.6 164.5,-96.11"/>
<polygon fill="#63b8ff" stroke="#63b8ff" points="161,-120.87 164.5,-130.87 168,-120.87 161,-120.87"/>
</g>
</g>
</svg>
