<?xml version="1.0" encoding="UTF-8" standalone="no"?>
<!DOCTYPE svg PUBLIC "-//W3C//DTD SVG 1.1//EN"
 "http://www.w3.org/Graphics/SVG/1.1/DTD/svg11.dtd">
<!-- Generated by graphviz version 8.0.2 (20230410.1723)
 -->
<!-- Title: InventoryStorageSlot Pages: 1 -->
<svg width="313pt" height="302pt"
 viewBox="0.00 0.00 313.00 302.00" xmlns="http://www.w3.org/2000/svg" xmlns:xlink="http://www.w3.org/1999/xlink">
<g id="graph0" class="graph" transform="scale(1 1) rotate(0) translate(4 298)">
<title>InventoryStorageSlot</title>
<!-- Node1 -->
<g id="node1" class="node">
<title>Node1</title>
<g id="a_node1"><a xlink:title=" ">
<polygon fill="#999999" stroke="#666666" points="257.5,-184 151.5,-184 151.5,-165 257.5,-165 257.5,-184"/>
<text text-anchor="middle" x="204.5" y="-172" font-family="Helvetica,sans-Serif" font-size="10.00">InventoryStorageSlot</text>
</a>
</g>
</g>
<!-- Node4 -->
<g id="node4" class="node">
<title>Node4</title>
<g id="a_node4"><a xlink:href="interfaceEquipmentStorageSlot.html" target="_top" xlink:title=" ">
<polygon fill="white" stroke="#666666" points="203.5,-129 89.5,-129 89.5,-110 203.5,-110 203.5,-129"/>
<text text-anchor="middle" x="146.5" y="-117" font-family="Helvetica,sans-Serif" font-size="10.00">EquipmentStorageSlot</text>
</a>
</g>
</g>
<!-- Node1&#45;&gt;Node4 -->
<g id="edge3" class="edge">
<title>Node1&#45;&gt;Node4</title>
<path fill="none" stroke="#63b8ff" d="M186.84,-157.37C176.77,-148.16 164.53,-136.98 156.19,-129.36"/>
<polygon fill="#63b8ff" stroke="#63b8ff" points="183.92,-159.35 193.66,-163.51 188.64,-154.18 183.92,-159.35"/>
</g>
<!-- Node8 -->
<g id="node8" class="node">
<title>Node8</title>
<g id="a_node8"><a xlink:href="interfaceLoadoutSlotInfo.html" target="_top" xlink:title=" ">
<polygon fill="white" stroke="#666666" points="305,-129 222,-129 222,-110 305,-110 305,-129"/>
<text text-anchor="middle" x="263.5" y="-117" font-family="Helvetica,sans-Serif" font-size="10.00">LoadoutSlotInfo</text>
</a>
</g>
</g>
<!-- Node1&#45;&gt;Node8 -->
<g id="edge7" class="edge">
<title>Node1&#45;&gt;Node8</title>
<path fill="none" stroke="#63b8ff" d="M222.46,-157.37C232.71,-148.16 245.16,-136.98 253.64,-129.36"/>
<polygon fill="#63b8ff" stroke="#63b8ff" points="220.61,-154.22 215.51,-163.51 225.29,-159.43 220.61,-154.22"/>
</g>
<!-- Node2 -->
<g id="node2" class="node">
<title>Node2</title>
<g id="a_node2"><a xlink:href="interfaceEntitySlotInfo.html" target="_top" xlink:title="Adds ability to attach an object to a slot.">
<polygon fill="white" stroke="#666666" points="241.5,-239 167.5,-239 167.5,-220 241.5,-220 241.5,-239"/>
<text text-anchor="middle" x="204.5" y="-227" font-family="Helvetica,sans-Serif" font-size="10.00">EntitySlotInfo</text>
</a>
</g>
</g>
<!-- Node2&#45;&gt;Node1 -->
<g id="edge1" class="edge">
<title>Node2&#45;&gt;Node1</title>
<path fill="none" stroke="#63b8ff" d="M204.5,-208.93C204.5,-200.53 204.5,-191.13 204.5,-184.44"/>
<polygon fill="#63b8ff" stroke="#63b8ff" points="201,-208.75 204.5,-218.75 208,-208.75 201,-208.75"/>
</g>
<!-- Node3 -->
<g id="node3" class="node">
<title>Node3</title>
<g id="a_node3"><a xlink:title=" ">
<polygon fill="white" stroke="#666666" points="231.5,-294 177.5,-294 177.5,-275 231.5,-275 231.5,-294"/>
<text text-anchor="middle" x="204.5" y="-282" font-family="Helvetica,sans-Serif" font-size="10.00">PointInfo</text>
</a>
</g>
</g>
<!-- Node3&#45;&gt;Node2 -->
<g id="edge2" class="edge">
<title>Node3&#45;&gt;Node2</title>
<path fill="none" stroke="#63b8ff" d="M204.5,-263.93C204.5,-255.53 204.5,-246.13 204.5,-239.44"/>
<polygon fill="#63b8ff" stroke="#63b8ff" points="201,-263.75 204.5,-273.75 208,-263.75 201,-263.75"/>
</g>
<!-- Node5 -->
<g id="node5" class="node">
<title>Node5</title>
<g id="a_node5"><a xlink:href="interfaceSCR__EquipmentStorageSlot.html" target="_top" xlink:title=" ">
<polygon fill="white" stroke="#666666" points="216.5,-74 76.5,-74 76.5,-55 216.5,-55 216.5,-74"/>
<text text-anchor="middle" x="146.5" y="-62" font-family="Helvetica,sans-Serif" font-size="10.00">SCR_EquipmentStorageSlot</text>
</a>
</g>
</g>
<!-- Node4&#45;&gt;Node5 -->
<g id="edge4" class="edge">
<title>Node4&#45;&gt;Node5</title>
<path fill="none" stroke="#63b8ff" d="M146.5,-98.93C146.5,-90.53 146.5,-81.13 146.5,-74.44"/>
<polygon fill="#63b8ff" stroke="#63b8ff" points="143,-98.75 146.5,-108.75 150,-98.75 143,-98.75"/>
</g>
<!-- Node6 -->
<g id="node6" class="node">
<title>Node6</title>
<g id="a_node6"><a xlink:href="interfaceSCR__SalineBagStorageSlot.html" target="_top" xlink:title=" ">
<polygon fill="white" stroke="#666666" points="137,-19 0,-19 0,0 137,0 137,-19"/>
<text text-anchor="middle" x="68.5" y="-7" font-family="Helvetica,sans-Serif" font-size="10.00">SCR_SalineBagStorageSlot</text>
</a>
</g>
</g>
<!-- Node5&#45;&gt;Node6 -->
<g id="edge5" class="edge">
<title>Node5&#45;&gt;Node6</title>
<path fill="none" stroke="#63b8ff" d="M124.37,-48.46C110.53,-39.06 93.2,-27.28 81.54,-19.36"/>
<polygon fill="#63b8ff" stroke="#63b8ff" points="122.03,-51.78 132.27,-54.51 125.96,-45.99 122.03,-51.78"/>
</g>
<!-- Node7 -->
<g id="node7" class="node">
<title>Node7</title>
<g id="a_node7"><a xlink:href="interfaceSCR__TourniquetStorageSlot.html" target="_top" xlink:title=" ">
<polygon fill="white" stroke="#666666" points="293.5,-19 155.5,-19 155.5,0 293.5,0 293.5,-19"/>
<text text-anchor="middle" x="224.5" y="-7" font-family="Helvetica,sans-Serif" font-size="10.00">SCR_TourniquetStorageSlot</text>
</a>
</g>
</g>
<!-- Node5&#45;&gt;Node7 -->
<g id="edge6" class="edge">
<title>Node5&#45;&gt;Node7</title>
<path fill="none" stroke="#63b8ff" d="M168.63,-48.46C182.47,-39.06 199.8,-27.28 211.46,-19.36"/>
<polygon fill="#63b8ff" stroke="#63b8ff" points="167.04,-45.99 160.73,-54.51 170.97,-51.78 167.04,-45.99"/>
</g>
</g>
</svg>
