<?xml version="1.0" encoding="UTF-8" standalone="no"?>
<!DOCTYPE svg PUBLIC "-//W3C//DTD SVG 1.1//EN"
 "http://www.w3.org/Graphics/SVG/1.1/DTD/svg11.dtd">
<!-- Generated by graphviz version 8.0.2 (20230410.1723)
 -->
<!-- Title: SCR_BaseFactionCheckUserAction Pages: 1 -->
<svg width="154pt" height="379pt"
 viewBox="0.00 0.00 154.00 379.00" xmlns="http://www.w3.org/2000/svg" xmlns:xlink="http://www.w3.org/1999/xlink">
<g id="graph0" class="graph" transform="scale(1 1) rotate(0) translate(4 375)">
<title>SCR_BaseFactionCheckUserAction</title>
<!-- Node1 -->
<g id="node1" class="node">
<title>Node1</title>
<g id="a_node1"><a xlink:title=" ">
<polygon fill="#999999" stroke="#666666" points="145.5,-85 0.5,-85 0.5,-55 145.5,-55 145.5,-85"/>
<text text-anchor="start" x="8.5" y="-73" font-family="Helvetica,sans-Serif" font-size="10.00">SCR_BaseFactionCheckUser</text>
<text text-anchor="middle" x="73" y="-62" font-family="Helvetica,sans-Serif" font-size="10.00">Action</text>
</a>
</g>
</g>
<!-- Node7 -->
<g id="node7" class="node">
<title>Node7</title>
<g id="a_node7"><a xlink:href="interfaceSCR__SaveArsenalLoadout.html" target="_top" xlink:title=" ">
<polygon fill="white" stroke="#666666" points="138.5,-19 7.5,-19 7.5,0 138.5,0 138.5,-19"/>
<text text-anchor="middle" x="73" y="-7" font-family="Helvetica,sans-Serif" font-size="10.00">SCR_SaveArsenalLoadout</text>
</a>
</g>
</g>
<!-- Node1&#45;&gt;Node7 -->
<g id="edge6" class="edge">
<title>Node1&#45;&gt;Node7</title>
<path fill="none" stroke="#63b8ff" d="M73,-43.59C73,-34.85 73,-25.65 73,-19.18"/>
<polygon fill="#63b8ff" stroke="#63b8ff" points="69.5,-43.54 73,-53.54 76.5,-43.54 69.5,-43.54"/>
</g>
<!-- Node2 -->
<g id="node2" class="node">
<title>Node2</title>
<g id="a_node2"><a xlink:href="interfaceSCR__BaseAudioScriptedUserAction.html" target="_top" xlink:title="A scripted action class having optional logic for playing audio as well as checking if the faction is...">
<polygon fill="white" stroke="#666666" points="146,-151 0,-151 0,-121 146,-121 146,-151"/>
<text text-anchor="start" x="8" y="-139" font-family="Helvetica,sans-Serif" font-size="10.00">SCR_BaseAudioScriptedUser</text>
<text text-anchor="middle" x="73" y="-128" font-family="Helvetica,sans-Serif" font-size="10.00">Action</text>
</a>
</g>
</g>
<!-- Node2&#45;&gt;Node1 -->
<g id="edge1" class="edge">
<title>Node2&#45;&gt;Node1</title>
<path fill="none" stroke="#63b8ff" d="M73,-109.97C73,-101.55 73,-92.45 73,-85.16"/>
<polygon fill="#63b8ff" stroke="#63b8ff" points="69.5,-109.8 73,-119.8 76.5,-109.8 69.5,-109.8"/>
</g>
<!-- Node3 -->
<g id="node3" class="node">
<title>Node3</title>
<g id="a_node3"><a xlink:href="interfaceSCR__ScriptedUserAction.html" target="_top" xlink:title="A scripted action class having optional logic to check if vehicle is valid.">
<polygon fill="white" stroke="#666666" points="136,-206 10,-206 10,-187 136,-187 136,-206"/>
<text text-anchor="middle" x="73" y="-194" font-family="Helvetica,sans-Serif" font-size="10.00">SCR_ScriptedUserAction</text>
</a>
</g>
</g>
<!-- Node3&#45;&gt;Node2 -->
<g id="edge2" class="edge">
<title>Node3&#45;&gt;Node2</title>
<path fill="none" stroke="#63b8ff" d="M73,-176.08C73,-167.92 73,-158.6 73,-151.11"/>
<polygon fill="#63b8ff" stroke="#63b8ff" points="69.5,-175.87 73,-185.87 76.5,-175.87 69.5,-175.87"/>
</g>
<!-- Node4 -->
<g id="node4" class="node">
<title>Node4</title>
<g id="a_node4"><a xlink:href="interfaceScriptedUserAction.html" target="_top" xlink:title=" ">
<polygon fill="white" stroke="#666666" points="123.5,-261 22.5,-261 22.5,-242 123.5,-242 123.5,-261"/>
<text text-anchor="middle" x="73" y="-249" font-family="Helvetica,sans-Serif" font-size="10.00">ScriptedUserAction</text>
</a>
</g>
</g>
<!-- Node4&#45;&gt;Node3 -->
<g id="edge3" class="edge">
<title>Node4&#45;&gt;Node3</title>
<path fill="none" stroke="#63b8ff" d="M73,-230.93C73,-222.53 73,-213.13 73,-206.44"/>
<polygon fill="#63b8ff" stroke="#63b8ff" points="69.5,-230.75 73,-240.75 76.5,-230.75 69.5,-230.75"/>
</g>
<!-- Node5 -->
<g id="node5" class="node">
<title>Node5</title>
<g id="a_node5"><a xlink:href="interfaceBaseUserAction.html" target="_top" xlink:title=" ">
<polygon fill="white" stroke="#666666" points="116.5,-316 29.5,-316 29.5,-297 116.5,-297 116.5,-316"/>
<text text-anchor="middle" x="73" y="-304" font-family="Helvetica,sans-Serif" font-size="10.00">BaseUserAction</text>
</a>
</g>
</g>
<!-- Node5&#45;&gt;Node4 -->
<g id="edge4" class="edge">
<title>Node5&#45;&gt;Node4</title>
<path fill="none" stroke="#63b8ff" d="M73,-285.93C73,-277.53 73,-268.13 73,-261.44"/>
<polygon fill="#63b8ff" stroke="#63b8ff" points="69.5,-285.75 73,-295.75 76.5,-285.75 69.5,-285.75"/>
</g>
<!-- Node6 -->
<g id="node6" class="node">
<title>Node6</title>
<g id="a_node6"><a xlink:title=" ">
<polygon fill="white" stroke="#666666" points="116,-371 30,-371 30,-352 116,-352 116,-371"/>
<text text-anchor="middle" x="73" y="-359" font-family="Helvetica,sans-Serif" font-size="10.00">ScriptAndConfig</text>
</a>
</g>
</g>
<!-- Node6&#45;&gt;Node5 -->
<g id="edge5" class="edge">
<title>Node6&#45;&gt;Node5</title>
<path fill="none" stroke="#63b8ff" d="M73,-340.93C73,-332.53 73,-323.13 73,-316.44"/>
<polygon fill="#63b8ff" stroke="#63b8ff" points="69.5,-340.75 73,-350.75 76.5,-340.75 69.5,-340.75"/>
</g>
</g>
</svg>
