<?xml version="1.0" encoding="UTF-8" standalone="no"?>
<!DOCTYPE svg PUBLIC "-//W3C//DTD SVG 1.1//EN"
 "http://www.w3.org/Graphics/SVG/1.1/DTD/svg11.dtd">
<!-- Generated by graphviz version 8.0.2 (20230410.1723)
 -->
<!-- Title: SCR_HZInfoHeli Pages: 1 -->
<svg width="527pt" height="467pt"
 viewBox="0.00 0.00 526.50 467.00" xmlns="http://www.w3.org/2000/svg" xmlns:xlink="http://www.w3.org/1999/xlink">
<g id="graph0" class="graph" transform="scale(1 1) rotate(0) translate(4 463)">
<title>SCR_HZInfoHeli</title>
<!-- Node1 -->
<g id="node1" class="node">
<title>Node1</title>
<g id="a_node1"><a xlink:title=" ">
<polygon fill="#999999" stroke="#666666" points="306,-74 220,-74 220,-55 306,-55 306,-74"/>
<text text-anchor="middle" x="263" y="-62" font-family="Helvetica,sans-Serif" font-size="10.00">SCR_HZInfoHeli</text>
</a>
</g>
</g>
<!-- Node9 -->
<g id="node9" class="node">
<title>Node9</title>
<g id="a_node9"><a xlink:href="interfaceSCR__HZInfoEngineHeli.html" target="_top" xlink:title=" ">
<polygon fill="white" stroke="#666666" points="116,-19 0,-19 0,0 116,0 116,-19"/>
<text text-anchor="middle" x="58" y="-7" font-family="Helvetica,sans-Serif" font-size="10.00">SCR_HZInfoEngineHeli</text>
</a>
</g>
</g>
<!-- Node1&#45;&gt;Node9 -->
<g id="edge8" class="edge">
<title>Node1&#45;&gt;Node9</title>
<path fill="none" stroke="#63b8ff" d="M218.01,-51.87C180.25,-42.11 127.1,-28.37 92.6,-19.45"/>
<polygon fill="#63b8ff" stroke="#63b8ff" points="216.67,-55.39 227.22,-54.51 218.42,-48.62 216.67,-55.39"/>
</g>
<!-- Node10 -->
<g id="node10" class="node">
<title>Node10</title>
<g id="a_node10"><a xlink:href="interfaceSCR__HZInfoGearboxHeli.html" target="_top" xlink:title=" ">
<polygon fill="white" stroke="#666666" points="256,-19 134,-19 134,0 256,0 256,-19"/>
<text text-anchor="middle" x="195" y="-7" font-family="Helvetica,sans-Serif" font-size="10.00">SCR_HZInfoGearboxHeli</text>
</a>
</g>
</g>
<!-- Node1&#45;&gt;Node10 -->
<g id="edge9" class="edge">
<title>Node1&#45;&gt;Node10</title>
<path fill="none" stroke="#63b8ff" d="M243,-47.92C231.07,-38.61 216.34,-27.13 206.36,-19.36"/>
<polygon fill="#63b8ff" stroke="#63b8ff" points="240.43,-51.12 250.46,-54.51 244.73,-45.6 240.43,-51.12"/>
</g>
<!-- Node11 -->
<g id="node11" class="node">
<title>Node11</title>
<g id="a_node11"><a xlink:href="interfaceSCR__HZInfoRotorMain.html" target="_top" xlink:title=" ">
<polygon fill="white" stroke="#666666" points="387.5,-19 274.5,-19 274.5,0 387.5,0 387.5,-19"/>
<text text-anchor="middle" x="331" y="-7" font-family="Helvetica,sans-Serif" font-size="10.00">SCR_HZInfoRotorMain</text>
</a>
</g>
</g>
<!-- Node1&#45;&gt;Node11 -->
<g id="edge10" class="edge">
<title>Node1&#45;&gt;Node11</title>
<path fill="none" stroke="#63b8ff" d="M283,-47.92C294.93,-38.61 309.66,-27.13 319.64,-19.36"/>
<polygon fill="#63b8ff" stroke="#63b8ff" points="281.27,-45.6 275.54,-54.51 285.57,-51.12 281.27,-45.6"/>
</g>
<!-- Node12 -->
<g id="node12" class="node">
<title>Node12</title>
<g id="a_node12"><a xlink:href="interfaceSCR__HZInfoRotorRear.html" target="_top" xlink:title=" ">
<polygon fill="white" stroke="#666666" points="518.5,-19 405.5,-19 405.5,0 518.5,0 518.5,-19"/>
<text text-anchor="middle" x="462" y="-7" font-family="Helvetica,sans-Serif" font-size="10.00">SCR_HZInfoRotorRear</text>
</a>
</g>
</g>
<!-- Node1&#45;&gt;Node12 -->
<g id="edge11" class="edge">
<title>Node1&#45;&gt;Node12</title>
<path fill="none" stroke="#63b8ff" d="M307.14,-51.74C343.76,-41.99 395.06,-28.33 428.41,-19.45"/>
<polygon fill="#63b8ff" stroke="#63b8ff" points="306.52,-48.55 297.76,-54.51 308.32,-55.32 306.52,-48.55"/>
</g>
<!-- Node2 -->
<g id="node2" class="node">
<title>Node2</title>
<g id="a_node2"><a xlink:href="interfaceSCR__HitZoneInfo.html" target="_top" xlink:title=" ">
<polygon fill="white" stroke="#666666" points="308,-129 218,-129 218,-110 308,-110 308,-129"/>
<text text-anchor="middle" x="263" y="-117" font-family="Helvetica,sans-Serif" font-size="10.00">SCR_HitZoneInfo</text>
</a>
</g>
</g>
<!-- Node2&#45;&gt;Node1 -->
<g id="edge1" class="edge">
<title>Node2&#45;&gt;Node1</title>
<path fill="none" stroke="#63b8ff" d="M263,-98.93C263,-90.53 263,-81.13 263,-74.44"/>
<polygon fill="#63b8ff" stroke="#63b8ff" points="259.5,-98.75 263,-108.75 266.5,-98.75 259.5,-98.75"/>
</g>
<!-- Node3 -->
<g id="node3" class="node">
<title>Node3</title>
<g id="a_node3"><a xlink:href="interfaceSCR__BaseVehicleInfo.html" target="_top" xlink:title="Base class for all vehicle UI state and damage indicators.">
<polygon fill="white" stroke="#666666" points="319,-184 207,-184 207,-165 319,-165 319,-184"/>
<text text-anchor="middle" x="263" y="-172" font-family="Helvetica,sans-Serif" font-size="10.00">SCR_BaseVehicleInfo</text>
</a>
</g>
</g>
<!-- Node3&#45;&gt;Node2 -->
<g id="edge2" class="edge">
<title>Node3&#45;&gt;Node2</title>
<path fill="none" stroke="#63b8ff" d="M263,-153.93C263,-145.53 263,-136.13 263,-129.44"/>
<polygon fill="#63b8ff" stroke="#63b8ff" points="259.5,-153.75 263,-163.75 266.5,-153.75 259.5,-153.75"/>
</g>
<!-- Node4 -->
<g id="node4" class="node">
<title>Node4</title>
<g id="a_node4"><a xlink:href="interfaceSCR__InfoDisplayExtended.html" target="_top" xlink:title=" ">
<polygon fill="white" stroke="#666666" points="328.5,-239 197.5,-239 197.5,-220 328.5,-220 328.5,-239"/>
<text text-anchor="middle" x="263" y="-227" font-family="Helvetica,sans-Serif" font-size="10.00">SCR_InfoDisplayExtended</text>
</a>
</g>
</g>
<!-- Node4&#45;&gt;Node3 -->
<g id="edge3" class="edge">
<title>Node4&#45;&gt;Node3</title>
<path fill="none" stroke="#63b8ff" d="M263,-208.93C263,-200.53 263,-191.13 263,-184.44"/>
<polygon fill="#63b8ff" stroke="#63b8ff" points="259.5,-208.75 263,-218.75 266.5,-208.75 259.5,-208.75"/>
</g>
<!-- Node5 -->
<g id="node5" class="node">
<title>Node5</title>
<g id="a_node5"><a xlink:href="interfaceSCR__InfoDisplay.html" target="_top" xlink:title=" ">
<polygon fill="white" stroke="#666666" points="307.5,-294 218.5,-294 218.5,-275 307.5,-275 307.5,-294"/>
<text text-anchor="middle" x="263" y="-282" font-family="Helvetica,sans-Serif" font-size="10.00">SCR_InfoDisplay</text>
</a>
</g>
</g>
<!-- Node5&#45;&gt;Node4 -->
<g id="edge4" class="edge">
<title>Node5&#45;&gt;Node4</title>
<path fill="none" stroke="#63b8ff" d="M263,-263.93C263,-255.53 263,-246.13 263,-239.44"/>
<polygon fill="#63b8ff" stroke="#63b8ff" points="259.5,-263.75 263,-273.75 266.5,-263.75 259.5,-263.75"/>
</g>
<!-- Node6 -->
<g id="node6" class="node">
<title>Node6</title>
<g id="a_node6"><a xlink:href="interfaceGroupInfoDisplay.html" target="_top" xlink:title=" ">
<polygon fill="white" stroke="#666666" points="308,-349 218,-349 218,-330 308,-330 308,-349"/>
<text text-anchor="middle" x="263" y="-337" font-family="Helvetica,sans-Serif" font-size="10.00">GroupInfoDisplay</text>
</a>
</g>
</g>
<!-- Node6&#45;&gt;Node5 -->
<g id="edge5" class="edge">
<title>Node6&#45;&gt;Node5</title>
<path fill="none" stroke="#63b8ff" d="M263,-318.93C263,-310.53 263,-301.13 263,-294.44"/>
<polygon fill="#63b8ff" stroke="#63b8ff" points="259.5,-318.75 263,-328.75 266.5,-318.75 259.5,-318.75"/>
</g>
<!-- Node7 -->
<g id="node7" class="node">
<title>Node7</title>
<g id="a_node7"><a xlink:href="interfaceBaseInfoDisplay.html" target="_top" xlink:title=" ">
<polygon fill="white" stroke="#666666" points="306,-404 220,-404 220,-385 306,-385 306,-404"/>
<text text-anchor="middle" x="263" y="-392" font-family="Helvetica,sans-Serif" font-size="10.00">BaseInfoDisplay</text>
</a>
</g>
</g>
<!-- Node7&#45;&gt;Node6 -->
<g id="edge6" class="edge">
<title>Node7&#45;&gt;Node6</title>
<path fill="none" stroke="#63b8ff" d="M263,-373.93C263,-365.53 263,-356.13 263,-349.44"/>
<polygon fill="#63b8ff" stroke="#63b8ff" points="259.5,-373.75 263,-383.75 266.5,-373.75 259.5,-373.75"/>
</g>
<!-- Node8 -->
<g id="node8" class="node">
<title>Node8</title>
<g id="a_node8"><a xlink:title=" ">
<polygon fill="white" stroke="#666666" points="306,-459 220,-459 220,-440 306,-440 306,-459"/>
<text text-anchor="middle" x="263" y="-447" font-family="Helvetica,sans-Serif" font-size="10.00">ScriptAndConfig</text>
</a>
</g>
</g>
<!-- Node8&#45;&gt;Node7 -->
<g id="edge7" class="edge">
<title>Node8&#45;&gt;Node7</title>
<path fill="none" stroke="#63b8ff" d="M263,-428.93C263,-420.53 263,-411.13 263,-404.44"/>
<polygon fill="#63b8ff" stroke="#63b8ff" points="259.5,-428.75 263,-438.75 266.5,-428.75 259.5,-428.75"/>
</g>
</g>
</svg>
