<?xml version="1.0" encoding="UTF-8" standalone="no"?>
<!DOCTYPE svg PUBLIC "-//W3C//DTD SVG 1.1//EN"
 "http://www.w3.org/Graphics/SVG/1.1/DTD/svg11.dtd">
<!-- Generated by graphviz version 8.0.2 (20230410.1723)
 -->
<!-- Title: SCR_SelectedEntitiesContextAction Pages: 1 -->
<svg width="865pt" height="1078pt"
 viewBox="0.00 0.00 865.00 1077.50" xmlns="http://www.w3.org/2000/svg" xmlns:xlink="http://www.w3.org/1999/xlink">
<g id="graph0" class="graph" transform="scale(1 1) rotate(0) translate(4 1073.5)">
<title>SCR_SelectedEntitiesContextAction</title>
<!-- Node1 -->
<g id="node1" class="node">
<title>Node1</title>
<g id="a_node1"><a xlink:title="Base container class for editor context actions which apply to selected entities.">
<polygon fill="#999999" stroke="#666666" points="463,-573.5 316,-573.5 316,-543.5 463,-543.5 463,-573.5"/>
<text text-anchor="start" x="324" y="-561.5" font-family="Helvetica,sans-Serif" font-size="10.00">SCR_SelectedEntitiesContext</text>
<text text-anchor="middle" x="389.5" y="-550.5" font-family="Helvetica,sans-Serif" font-size="10.00">Action</text>
</a>
</g>
</g>
<!-- Node4 -->
<g id="node4" class="node">
<title>Node4</title>
<g id="a_node4"><a xlink:href="interfaceSCR__BleedCharacterContextAction.html" target="_top" xlink:title=" ">
<polygon fill="white" stroke="#666666" points="657.5,-1069.5 514.5,-1069.5 514.5,-1039.5 657.5,-1039.5 657.5,-1069.5"/>
<text text-anchor="start" x="522.5" y="-1057.5" font-family="Helvetica,sans-Serif" font-size="10.00">SCR_BleedCharacterContext</text>
<text text-anchor="middle" x="586" y="-1046.5" font-family="Helvetica,sans-Serif" font-size="10.00">Action</text>
</a>
</g>
</g>
<!-- Node1&#45;&gt;Node4 -->
<g id="edge3" class="edge">
<title>Node1&#45;&gt;Node4</title>
<path fill="none" stroke="#63b8ff" d="M393.02,-584.22C402.21,-672.83 436.67,-963.55 499,-1029.5 503.38,-1034.13 508.56,-1037.92 514.18,-1041.02"/>
<polygon fill="#63b8ff" stroke="#63b8ff" points="396.43,-584.14 391.94,-574.55 389.47,-584.85 396.43,-584.14"/>
</g>
<!-- Node5 -->
<g id="node5" class="node">
<title>Node5</title>
<g id="a_node5"><a xlink:href="interfaceSCR__BombardContextAction.html" target="_top" xlink:title=" ">
<polygon fill="white" stroke="#666666" points="657.5,-1021 514.5,-1021 514.5,-1002 657.5,-1002 657.5,-1021"/>
<text text-anchor="middle" x="586" y="-1009" font-family="Helvetica,sans-Serif" font-size="10.00">SCR_BombardContextAction</text>
</a>
</g>
</g>
<!-- Node1&#45;&gt;Node5 -->
<g id="edge4" class="edge">
<title>Node1&#45;&gt;Node5</title>
<path fill="none" stroke="#63b8ff" d="M393.43,-584.54C403.5,-669.18 439.32,-934.44 499,-992.5 503.38,-996.76 508.5,-1000.16 514.01,-1002.86"/>
<polygon fill="#63b8ff" stroke="#63b8ff" points="396.82,-584.36 392.19,-574.83 389.87,-585.17 396.82,-584.36"/>
</g>
<!-- Node6 -->
<g id="node6" class="node">
<title>Node6</title>
<g id="a_node6"><a xlink:href="interfaceSCR__CaptureBasesContextAction.html" target="_top" xlink:title=" ">
<polygon fill="white" stroke="#666666" points="668.5,-984 503.5,-984 503.5,-965 668.5,-965 668.5,-984"/>
<text text-anchor="middle" x="586" y="-972" font-family="Helvetica,sans-Serif" font-size="10.00">SCR_CaptureBasesContextAction</text>
</a>
</g>
</g>
<!-- Node1&#45;&gt;Node6 -->
<g id="edge5" class="edge">
<title>Node1&#45;&gt;Node6</title>
<path fill="none" stroke="#63b8ff" d="M394.06,-584.41C405.54,-664.06 444,-903.15 499,-955.5 502.77,-959.08 507.05,-962.05 511.64,-964.5"/>
<polygon fill="#63b8ff" stroke="#63b8ff" points="397.44,-584.26 392.57,-574.85 390.5,-585.24 397.44,-584.26"/>
</g>
<!-- Node7 -->
<g id="node7" class="node">
<title>Node7</title>
<g id="a_node7"><a xlink:href="interfaceSCR__ChooseAndSpawnOccupantsContextAction.html" target="_top" xlink:title=" ">
<polygon fill="white" stroke="#666666" points="670.5,-946.5 501.5,-946.5 501.5,-916.5 670.5,-916.5 670.5,-946.5"/>
<text text-anchor="start" x="509.5" y="-934.5" font-family="Helvetica,sans-Serif" font-size="10.00">SCR_ChooseAndSpawnOccupants</text>
<text text-anchor="middle" x="586" y="-923.5" font-family="Helvetica,sans-Serif" font-size="10.00">ContextAction</text>
</a>
</g>
</g>
<!-- Node1&#45;&gt;Node7 -->
<g id="edge6" class="edge">
<title>Node1&#45;&gt;Node7</title>
<path fill="none" stroke="#63b8ff" d="M390.71,-584.73C392.68,-649.1 406.92,-816.18 499,-906.5 502.77,-910.2 507.06,-913.36 511.66,-916.06"/>
<polygon fill="#63b8ff" stroke="#63b8ff" points="394.19,-584.86 390.47,-574.95 387.19,-585.02 394.19,-584.86"/>
</g>
<!-- Node8 -->
<g id="node8" class="node">
<title>Node8</title>
<g id="a_node8"><a xlink:href="interfaceSCR__CopyContextAction.html" target="_top" xlink:title=" ">
<polygon fill="white" stroke="#666666" points="649,-898 523,-898 523,-879 649,-879 649,-898"/>
<text text-anchor="middle" x="586" y="-886" font-family="Helvetica,sans-Serif" font-size="10.00">SCR_CopyContextAction</text>
</a>
</g>
</g>
<!-- Node1&#45;&gt;Node8 -->
<g id="edge7" class="edge">
<title>Node1&#45;&gt;Node8</title>
<path fill="none" stroke="#63b8ff" d="M391.47,-584.74C395.17,-644.84 413.02,-793.13 499,-869.5 505.74,-875.49 513.95,-879.73 522.58,-882.71"/>
<polygon fill="#63b8ff" stroke="#63b8ff" points="394.92,-584.75 390.9,-574.95 387.93,-585.12 394.92,-584.75"/>
</g>
<!-- Node9 -->
<g id="node9" class="node">
<title>Node9</title>
<g id="a_node9"><a xlink:href="interfaceSCR__CreateLayerContextAction.html" target="_top" xlink:title=" ">
<polygon fill="white" stroke="#666666" points="664,-861 508,-861 508,-842 664,-842 664,-861"/>
<text text-anchor="middle" x="586" y="-849" font-family="Helvetica,sans-Serif" font-size="10.00">SCR_CreateLayerContextAction</text>
</a>
</g>
</g>
<!-- Node1&#45;&gt;Node9 -->
<g id="edge8" class="edge">
<title>Node1&#45;&gt;Node9</title>
<path fill="none" stroke="#63b8ff" d="M392.86,-584.61C399.27,-639.46 422.08,-766.97 499,-832.5 503.31,-836.17 508.16,-839.17 513.33,-841.63"/>
<polygon fill="#63b8ff" stroke="#63b8ff" points="396.24,-584.34 391.7,-574.77 389.28,-585.08 396.24,-584.34"/>
</g>
<!-- Node10 -->
<g id="node10" class="node">
<title>Node10</title>
<g id="a_node10"><a xlink:href="interfaceSCR__CutContextAction.html" target="_top" xlink:title=" ">
<polygon fill="white" stroke="#666666" points="645.5,-824 526.5,-824 526.5,-805 645.5,-805 645.5,-824"/>
<text text-anchor="middle" x="586" y="-812" font-family="Helvetica,sans-Serif" font-size="10.00">SCR_CutContextAction</text>
</a>
</g>
</g>
<!-- Node1&#45;&gt;Node10 -->
<g id="edge9" class="edge">
<title>Node1&#45;&gt;Node10</title>
<path fill="none" stroke="#63b8ff" d="M394.63,-584.5C403.88,-633.76 431.05,-740.61 499,-795.5 506.85,-801.84 516.37,-806.18 526.17,-809.12"/>
<polygon fill="#63b8ff" stroke="#63b8ff" points="397.93,-584.06 392.74,-574.83 391.04,-585.28 397.93,-584.06"/>
</g>
<!-- Node11 -->
<g id="node11" class="node">
<title>Node11</title>
<g id="a_node11"><a xlink:href="interfaceSCR__DefendContextAction.html" target="_top" xlink:title=" ">
<polygon fill="white" stroke="#666666" points="653,-787 519,-787 519,-768 653,-768 653,-787"/>
<text text-anchor="middle" x="586" y="-775" font-family="Helvetica,sans-Serif" font-size="10.00">SCR_DefendContextAction</text>
</a>
</g>
</g>
<!-- Node1&#45;&gt;Node11 -->
<g id="edge10" class="edge">
<title>Node1&#45;&gt;Node11</title>
<path fill="none" stroke="#63b8ff" d="M396.99,-584.39C409.21,-627.58 439.91,-713.99 499,-758.5 504.86,-762.92 511.55,-766.34 518.55,-769"/>
<polygon fill="#63b8ff" stroke="#63b8ff" points="400.14,-583.64 394.14,-574.9 393.38,-585.47 400.14,-583.64"/>
</g>
<!-- Node12 -->
<g id="node12" class="node">
<title>Node12</title>
<g id="a_node12"><a xlink:href="interfaceSCR__DeleteSelectedContextAction.html" target="_top" xlink:title=" ">
<polygon fill="white" stroke="#666666" points="657,-749.5 515,-749.5 515,-719.5 657,-719.5 657,-749.5"/>
<text text-anchor="start" x="523" y="-737.5" font-family="Helvetica,sans-Serif" font-size="10.00">SCR_DeleteSelectedContext</text>
<text text-anchor="middle" x="586" y="-726.5" font-family="Helvetica,sans-Serif" font-size="10.00">Action</text>
</a>
</g>
</g>
<!-- Node1&#45;&gt;Node12 -->
<g id="edge11" class="edge">
<title>Node1&#45;&gt;Node12</title>
<path fill="none" stroke="#63b8ff" d="M401.87,-583.5C418.44,-617.15 452.42,-676.57 499,-709.5 504.21,-713.18 509.95,-716.32 515.93,-719"/>
<polygon fill="#63b8ff" stroke="#63b8ff" points="404.77,-582.45 397.29,-574.95 398.46,-585.48 404.77,-582.45"/>
</g>
<!-- Node14 -->
<g id="node14" class="node">
<title>Node14</title>
<g id="a_node14"><a xlink:href="interfaceSCR__DisembarkContextAction.html" target="_top" xlink:title=" ">
<polygon fill="white" stroke="#666666" points="661,-701 511,-701 511,-682 661,-682 661,-701"/>
<text text-anchor="middle" x="586" y="-689" font-family="Helvetica,sans-Serif" font-size="10.00">SCR_DisembarkContextAction</text>
</a>
</g>
</g>
<!-- Node1&#45;&gt;Node14 -->
<g id="edge13" class="edge">
<title>Node1&#45;&gt;Node14</title>
<path fill="none" stroke="#63b8ff" d="M406.77,-582.76C425.75,-609.06 459.58,-650.26 499,-672.5 505.53,-676.18 512.7,-679.15 520.04,-681.54"/>
<polygon fill="#63b8ff" stroke="#63b8ff" points="409.09,-580.97 400.47,-574.81 403.36,-585 409.09,-580.97"/>
</g>
<!-- Node15 -->
<g id="node15" class="node">
<title>Node15</title>
<g id="a_node15"><a xlink:href="interfaceSCR__FuelEntityContextAction.html" target="_top" xlink:title=" ">
<polygon fill="white" stroke="#666666" points="660,-664 512,-664 512,-645 660,-645 660,-664"/>
<text text-anchor="middle" x="586" y="-652" font-family="Helvetica,sans-Serif" font-size="10.00">SCR_FuelEntityContextAction</text>
</a>
</g>
</g>
<!-- Node1&#45;&gt;Node15 -->
<g id="edge14" class="edge">
<title>Node1&#45;&gt;Node15</title>
<path fill="none" stroke="#63b8ff" d="M415.88,-581.01C436.79,-598.39 467.96,-621.74 499,-635.5 507.25,-639.16 516.26,-642.14 525.25,-644.56"/>
<polygon fill="#63b8ff" stroke="#63b8ff" points="418.46,-577.76 408.57,-573.97 413.94,-583.1 418.46,-577.76"/>
</g>
<!-- Node16 -->
<g id="node16" class="node">
<title>Node16</title>
<g id="a_node16"><a xlink:href="interfaceSCR__HealEntitiesContextAction.html" target="_top" xlink:title=" ">
<polygon fill="white" stroke="#666666" points="664,-627 508,-627 508,-608 664,-608 664,-627"/>
<text text-anchor="middle" x="586" y="-615" font-family="Helvetica,sans-Serif" font-size="10.00">SCR_HealEntitiesContextAction</text>
</a>
</g>
</g>
<!-- Node1&#45;&gt;Node16 -->
<g id="edge15" class="edge">
<title>Node1&#45;&gt;Node16</title>
<path fill="none" stroke="#63b8ff" d="M438.53,-577.8C457.22,-584.89 478.93,-592.61 499,-598.5 510.44,-601.86 522.9,-604.93 534.69,-607.59"/>
<polygon fill="#63b8ff" stroke="#63b8ff" points="440.08,-574.26 429.49,-573.95 437.57,-580.8 440.08,-574.26"/>
</g>
<!-- Node17 -->
<g id="node17" class="node">
<title>Node17</title>
<g id="a_node17"><a xlink:href="interfaceSCR__KickPlayerContextAction.html" target="_top" xlink:title=" ">
<polygon fill="white" stroke="#666666" points="661.5,-590 510.5,-590 510.5,-571 661.5,-571 661.5,-590"/>
<text text-anchor="middle" x="586" y="-578" font-family="Helvetica,sans-Serif" font-size="10.00">SCR_KickPlayerContextAction</text>
</a>
</g>
</g>
<!-- Node1&#45;&gt;Node17 -->
<g id="edge16" class="edge">
<title>Node1&#45;&gt;Node17</title>
<path fill="none" stroke="#63b8ff" d="M474.36,-567.99C486.32,-569.34 498.55,-570.72 510.32,-572.05"/>
<polygon fill="#63b8ff" stroke="#63b8ff" points="474.81,-564.4 464.48,-566.75 474.02,-571.36 474.81,-564.4"/>
</g>
<!-- Node18 -->
<g id="node18" class="node">
<title>Node18</title>
<g id="a_node18"><a xlink:href="interfaceSCR__NeutralizeEntityContextAction.html" target="_top" xlink:title=" ">
<polygon fill="white" stroke="#666666" points="658.5,-552.5 513.5,-552.5 513.5,-522.5 658.5,-522.5 658.5,-552.5"/>
<text text-anchor="start" x="521.5" y="-540.5" font-family="Helvetica,sans-Serif" font-size="10.00">SCR_NeutralizeEntityContext</text>
<text text-anchor="middle" x="586" y="-529.5" font-family="Helvetica,sans-Serif" font-size="10.00">Action</text>
</a>
</g>
</g>
<!-- Node1&#45;&gt;Node18 -->
<g id="edge17" class="edge">
<title>Node1&#45;&gt;Node18</title>
<path fill="none" stroke="#63b8ff" d="M474.28,-549.45C487.25,-548.05 500.55,-546.62 513.23,-545.25"/>
<polygon fill="#63b8ff" stroke="#63b8ff" points="474.04,-546.07 464.48,-550.62 474.8,-553.03 474.04,-546.07"/>
</g>
<!-- Node19 -->
<g id="node19" class="node">
<title>Node19</title>
<g id="a_node19"><a xlink:href="interfaceSCR__OrientToSeaNormalContextAction.html" target="_top" xlink:title=" ">
<polygon fill="white" stroke="#666666" points="666.5,-504.5 505.5,-504.5 505.5,-474.5 666.5,-474.5 666.5,-504.5"/>
<text text-anchor="start" x="513.5" y="-492.5" font-family="Helvetica,sans-Serif" font-size="10.00">SCR_OrientToSeaNormalContext</text>
<text text-anchor="middle" x="586" y="-481.5" font-family="Helvetica,sans-Serif" font-size="10.00">Action</text>
</a>
</g>
</g>
<!-- Node1&#45;&gt;Node19 -->
<g id="edge18" class="edge">
<title>Node1&#45;&gt;Node19</title>
<path fill="none" stroke="#63b8ff" d="M434.88,-538.67C454.35,-530.34 477.6,-520.89 499,-513.5 507.64,-510.51 516.87,-507.63 525.96,-504.96"/>
<polygon fill="#63b8ff" stroke="#63b8ff" points="433.57,-535.85 425.78,-543.03 436.35,-542.28 433.57,-535.85"/>
</g>
<!-- Node20 -->
<g id="node20" class="node">
<title>Node20</title>
<g id="a_node20"><a xlink:href="interfaceSCR__OrientToTerrainContextAction.html" target="_top" xlink:title=" ">
<polygon fill="white" stroke="#666666" points="657,-456.5 515,-456.5 515,-426.5 657,-426.5 657,-456.5"/>
<text text-anchor="start" x="523" y="-444.5" font-family="Helvetica,sans-Serif" font-size="10.00">SCR_OrientToTerrainContext</text>
<text text-anchor="middle" x="586" y="-433.5" font-family="Helvetica,sans-Serif" font-size="10.00">Action</text>
</a>
</g>
</g>
<!-- Node1&#45;&gt;Node20 -->
<g id="edge19" class="edge">
<title>Node1&#45;&gt;Node20</title>
<path fill="none" stroke="#63b8ff" d="M411.5,-535.46C431.93,-514.38 464.8,-483.76 499,-465.5 505.15,-462.21 511.8,-459.34 518.58,-456.84"/>
<polygon fill="#63b8ff" stroke="#63b8ff" points="409.4,-532.64 405.05,-542.31 414.48,-537.47 409.4,-532.64"/>
</g>
<!-- Node21 -->
<g id="node21" class="node">
<title>Node21</title>
<g id="a_node21"><a xlink:href="interfaceSCR__RemoveBleedCharacterContextAction.html" target="_top" xlink:title=" ">
<polygon fill="white" stroke="#666666" points="657.5,-408.5 514.5,-408.5 514.5,-378.5 657.5,-378.5 657.5,-408.5"/>
<text text-anchor="start" x="522.5" y="-396.5" font-family="Helvetica,sans-Serif" font-size="10.00">SCR_RemoveBleedCharacter</text>
<text text-anchor="middle" x="586" y="-385.5" font-family="Helvetica,sans-Serif" font-size="10.00">ContextAction</text>
</a>
</g>
</g>
<!-- Node1&#45;&gt;Node21 -->
<g id="edge20" class="edge">
<title>Node1&#45;&gt;Node21</title>
<path fill="none" stroke="#63b8ff" d="M403.01,-533.7C420.27,-501.99 454.41,-447.59 499,-417.5 503.88,-414.21 509.21,-411.36 514.74,-408.9"/>
<polygon fill="#63b8ff" stroke="#63b8ff" points="399.59,-531.67 398,-542.14 405.78,-534.95 399.59,-531.67"/>
</g>
<!-- Node22 -->
<g id="node22" class="node">
<title>Node22</title>
<g id="a_node22"><a xlink:href="interfaceSCR__RemoveWeaponContextAction.html" target="_top" xlink:title=" ">
<polygon fill="white" stroke="#666666" points="673,-360 499,-360 499,-341 673,-341 673,-360"/>
<text text-anchor="middle" x="586" y="-348" font-family="Helvetica,sans-Serif" font-size="10.00">SCR_RemoveWeaponContextAction</text>
</a>
</g>
</g>
<!-- Node1&#45;&gt;Node22 -->
<g id="edge21" class="edge">
<title>Node1&#45;&gt;Node22</title>
<path fill="none" stroke="#63b8ff" d="M397.79,-532.84C410.88,-491.61 442.44,-411.05 499,-369.5 504.05,-365.79 509.69,-362.78 515.6,-360.34"/>
<polygon fill="#63b8ff" stroke="#63b8ff" points="394.22,-531.54 394.65,-542.13 400.91,-533.59 394.22,-531.54"/>
</g>
<!-- Node23 -->
<g id="node23" class="node">
<title>Node23</title>
<g id="a_node23"><a xlink:href="interfaceSCR__ResupplyContextAction.html" target="_top" xlink:title=" ">
<polygon fill="white" stroke="#666666" points="658,-323 514,-323 514,-304 658,-304 658,-323"/>
<text text-anchor="middle" x="586" y="-311" font-family="Helvetica,sans-Serif" font-size="10.00">SCR_ResupplyContextAction</text>
</a>
</g>
</g>
<!-- Node1&#45;&gt;Node23 -->
<g id="edge22" class="edge">
<title>Node1&#45;&gt;Node23</title>
<path fill="none" stroke="#63b8ff" d="M395.13,-532.51C405.08,-484.76 433.14,-383.21 499,-331.5 503.44,-328.01 508.39,-325.16 513.62,-322.83"/>
<polygon fill="#63b8ff" stroke="#63b8ff" points="391.53,-531.68 393.03,-542.17 398.4,-533.04 391.53,-531.68"/>
</g>
<!-- Node24 -->
<g id="node24" class="node">
<title>Node24</title>
<g id="a_node24"><a xlink:href="interfaceSCR__SelectOccupantsContextAction.html" target="_top" xlink:title=" ">
<polygon fill="white" stroke="#666666" points="661.5,-285.5 510.5,-285.5 510.5,-255.5 661.5,-255.5 661.5,-285.5"/>
<text text-anchor="start" x="518.5" y="-273.5" font-family="Helvetica,sans-Serif" font-size="10.00">SCR_SelectOccupantsContext</text>
<text text-anchor="middle" x="586" y="-262.5" font-family="Helvetica,sans-Serif" font-size="10.00">Action</text>
</a>
</g>
</g>
<!-- Node1&#45;&gt;Node24 -->
<g id="edge23" class="edge">
<title>Node1&#45;&gt;Node24</title>
<path fill="none" stroke="#63b8ff" d="M393.66,-532.18C401.44,-479.12 426.51,-358.92 499,-294.5 502.71,-291.21 506.83,-288.36 511.21,-285.9"/>
<polygon fill="#63b8ff" stroke="#63b8ff" points="390.06,-531.63 392.17,-542.01 397,-532.58 390.06,-531.63"/>
</g>
<!-- Node25 -->
<g id="node25" class="node">
<title>Node25</title>
<g id="a_node25"><a xlink:href="interfaceSCR__SetFireVehicleContextAction.html" target="_top" xlink:title=" ">
<polygon fill="white" stroke="#666666" points="656,-237.5 516,-237.5 516,-207.5 656,-207.5 656,-237.5"/>
<text text-anchor="start" x="524" y="-225.5" font-family="Helvetica,sans-Serif" font-size="10.00">SCR_SetFireVehicleContext</text>
<text text-anchor="middle" x="586" y="-214.5" font-family="Helvetica,sans-Serif" font-size="10.00">Action</text>
</a>
</g>
</g>
<!-- Node1&#45;&gt;Node25 -->
<g id="edge24" class="edge">
<title>Node1&#45;&gt;Node25</title>
<path fill="none" stroke="#63b8ff" d="M391.73,-532.5C395.99,-472.89 414.94,-325.46 499,-246.5 503.86,-241.94 509.51,-238.23 515.55,-235.22"/>
<polygon fill="#63b8ff" stroke="#63b8ff" points="388.19,-532 391.06,-542.2 395.18,-532.44 388.19,-532"/>
</g>
<!-- Node26 -->
<g id="node26" class="node">
<title>Node26</title>
<g id="a_node26"><a xlink:href="interfaceSCR__SnapToTerrainContextAction.html" target="_top" xlink:title=" ">
<polygon fill="white" stroke="#666666" points="655,-189.5 517,-189.5 517,-159.5 655,-159.5 655,-189.5"/>
<text text-anchor="start" x="525" y="-177.5" font-family="Helvetica,sans-Serif" font-size="10.00">SCR_SnapToTerrainContext</text>
<text text-anchor="middle" x="586" y="-166.5" font-family="Helvetica,sans-Serif" font-size="10.00">Action</text>
</a>
</g>
</g>
<!-- Node1&#45;&gt;Node26 -->
<g id="edge25" class="edge">
<title>Node1&#45;&gt;Node26</title>
<path fill="none" stroke="#63b8ff" d="M390.32,-532.65C391.32,-466.97 403.32,-292.23 499,-198.5 504.09,-193.51 510.13,-189.54 516.62,-186.38"/>
<polygon fill="#63b8ff" stroke="#63b8ff" points="386.81,-532.24 390.24,-542.26 393.81,-532.29 386.81,-532.24"/>
</g>
<!-- Node27 -->
<g id="node27" class="node">
<title>Node27</title>
<g id="a_node27"><a xlink:href="interfaceSCR__SpawnOccupantsContextAction.html" target="_top" xlink:title=" ">
<polygon fill="white" stroke="#666666" points="662,-141.5 510,-141.5 510,-111.5 662,-111.5 662,-141.5"/>
<text text-anchor="start" x="518" y="-129.5" font-family="Helvetica,sans-Serif" font-size="10.00">SCR_SpawnOccupantsContext</text>
<text text-anchor="middle" x="586" y="-118.5" font-family="Helvetica,sans-Serif" font-size="10.00">Action</text>
</a>
</g>
</g>
<!-- Node1&#45;&gt;Node27 -->
<g id="edge26" class="edge">
<title>Node1&#45;&gt;Node27</title>
<path fill="none" stroke="#63b8ff" d="M394.01,-532.56C405.45,-451.66 444.14,-206.04 499,-150.5 502.27,-147.19 505.95,-144.33 509.91,-141.85"/>
<polygon fill="#63b8ff" stroke="#63b8ff" points="390.43,-531.87 392.52,-542.26 397.36,-532.84 390.43,-531.87"/>
</g>
<!-- Node28 -->
<g id="node28" class="node">
<title>Node28</title>
<g id="a_node28"><a xlink:href="interfaceSCR__SupplyBasesContextAction.html" target="_top" xlink:title=" ">
<polygon fill="white" stroke="#666666" points="666.5,-93 505.5,-93 505.5,-74 666.5,-74 666.5,-93"/>
<text text-anchor="middle" x="586" y="-81" font-family="Helvetica,sans-Serif" font-size="10.00">SCR_SupplyBasesContextAction</text>
</a>
</g>
</g>
<!-- Node1&#45;&gt;Node28 -->
<g id="edge27" class="edge">
<title>Node1&#45;&gt;Node28</title>
<path fill="none" stroke="#63b8ff" d="M393.08,-532.6C402.31,-445.33 436.47,-164.02 499,-102.5 502.71,-98.85 506.94,-95.84 511.51,-93.36"/>
<polygon fill="#63b8ff" stroke="#63b8ff" points="389.52,-532.06 391.97,-542.36 396.48,-532.78 389.52,-532.06"/>
</g>
<!-- Node29 -->
<g id="node29" class="node">
<title>Node29</title>
<g id="a_node29"><a xlink:href="interfaceSCR__TaskActivateContextAction.html" target="_top" xlink:title=" ">
<polygon fill="white" stroke="#666666" points="665.5,-56 506.5,-56 506.5,-37 665.5,-37 665.5,-56"/>
<text text-anchor="middle" x="586" y="-44" font-family="Helvetica,sans-Serif" font-size="10.00">SCR_TaskActivateContextAction</text>
</a>
</g>
</g>
<!-- Node1&#45;&gt;Node29 -->
<g id="edge28" class="edge">
<title>Node1&#45;&gt;Node29</title>
<path fill="none" stroke="#63b8ff" d="M392.57,-532.25C400.42,-439.84 431.3,-131.53 499,-64.5 502.25,-61.28 505.92,-58.57 509.87,-56.29"/>
<polygon fill="#63b8ff" stroke="#63b8ff" points="389.01,-531.87 391.68,-542.12 395.99,-532.44 389.01,-531.87"/>
</g>
<!-- Node30 -->
<g id="node30" class="node">
<title>Node30</title>
<g id="a_node30"><a xlink:href="interfaceSCR__TaskContextAction.html" target="_top" xlink:title=" ">
<polygon fill="white" stroke="#666666" points="648.5,-19 523.5,-19 523.5,0 648.5,0 648.5,-19"/>
<text text-anchor="middle" x="586" y="-7" font-family="Helvetica,sans-Serif" font-size="10.00">SCR_TaskContextAction</text>
</a>
</g>
</g>
<!-- Node1&#45;&gt;Node30 -->
<g id="edge29" class="edge">
<title>Node1&#45;&gt;Node30</title>
<path fill="none" stroke="#63b8ff" d="M392.14,-532.2C398.74,-435.34 426.52,-100.32 499,-27.5 505.67,-20.8 514.16,-16.28 523.18,-13.3"/>
<polygon fill="#63b8ff" stroke="#63b8ff" points="388.59,-531.83 391.43,-542.04 395.58,-532.3 388.59,-531.83"/>
</g>
<!-- Node2 -->
<g id="node2" class="node">
<title>Node2</title>
<g id="a_node2"><a xlink:href="interfaceSCR__BaseContextAction.html" target="_top" xlink:title="Base container class for editor context actions.">
<polygon fill="white" stroke="#666666" points="280,-568 154,-568 154,-549 280,-549 280,-568"/>
<text text-anchor="middle" x="217" y="-556" font-family="Helvetica,sans-Serif" font-size="10.00">SCR_BaseContextAction</text>
</a>
</g>
</g>
<!-- Node2&#45;&gt;Node1 -->
<g id="edge1" class="edge">
<title>Node2&#45;&gt;Node1</title>
<path fill="none" stroke="#63b8ff" d="M290.99,-558.5C299.11,-558.5 307.38,-558.5 315.5,-558.5"/>
<polygon fill="#63b8ff" stroke="#63b8ff" points="291.04,-555 281.04,-558.5 291.04,-562 291.04,-555"/>
</g>
<!-- Node3 -->
<g id="node3" class="node">
<title>Node3</title>
<g id="a_node3"><a xlink:href="interfaceSCR__BaseEditorAction.html" target="_top" xlink:title="Base container class for all editor action types (ContextActions, WaypointActions,...">
<polygon fill="white" stroke="#666666" points="118,-568 0,-568 0,-549 118,-549 118,-568"/>
<text text-anchor="middle" x="59" y="-556" font-family="Helvetica,sans-Serif" font-size="10.00">SCR_BaseEditorAction</text>
</a>
</g>
</g>
<!-- Node3&#45;&gt;Node2 -->
<g id="edge2" class="edge">
<title>Node3&#45;&gt;Node2</title>
<path fill="none" stroke="#63b8ff" d="M128.84,-558.5C137.11,-558.5 145.51,-558.5 153.68,-558.5"/>
<polygon fill="#63b8ff" stroke="#63b8ff" points="129.09,-555 119.09,-558.5 129.09,-562 129.09,-555"/>
</g>
<!-- Node13 -->
<g id="node13" class="node">
<title>Node13</title>
<g id="a_node13"><a xlink:href="interfaceSCR__CampaignBuildingDeleteSelectedContextAction.html" target="_top" xlink:title=" ">
<polygon fill="white" stroke="#666666" points="857,-749.5 709,-749.5 709,-719.5 857,-719.5 857,-749.5"/>
<text text-anchor="start" x="717" y="-737.5" font-family="Helvetica,sans-Serif" font-size="10.00">SCR_CampaignBuildingDelete</text>
<text text-anchor="middle" x="783" y="-726.5" font-family="Helvetica,sans-Serif" font-size="10.00">SelectedContextAction</text>
</a>
</g>
</g>
<!-- Node12&#45;&gt;Node13 -->
<g id="edge12" class="edge">
<title>Node12&#45;&gt;Node13</title>
<path fill="none" stroke="#63b8ff" d="M668.1,-734.5C681.57,-734.5 695.48,-734.5 708.75,-734.5"/>
<polygon fill="#63b8ff" stroke="#63b8ff" points="668.4,-731 658.4,-734.5 668.4,-738 668.4,-731"/>
</g>
</g>
</svg>
