<?xml version="1.0" encoding="UTF-8" standalone="no"?>
<!DOCTYPE svg PUBLIC "-//W3C//DTD SVG 1.1//EN"
 "http://www.w3.org/Graphics/SVG/1.1/DTD/svg11.dtd">
<!-- Generated by graphviz version 8.0.2 (20230410.1723)
 -->
<!-- Title: ScrServerCommand Pages: 1 -->
<svg width="314pt" height="82pt"
 viewBox="0.00 0.00 314.00 82.00" xmlns="http://www.w3.org/2000/svg" xmlns:xlink="http://www.w3.org/1999/xlink">
<g id="graph0" class="graph" transform="scale(1 1) rotate(0) translate(4 78)">
<title>ScrServerCommand</title>
<!-- Node1 -->
<g id="node1" class="node">
<title>Node1</title>
<g id="a_node1"><a xlink:title=" ">
<polygon fill="#999999" stroke="#666666" points="187.5,-74 84.5,-74 84.5,-55 187.5,-55 187.5,-74"/>
<text text-anchor="middle" x="136" y="-62" font-family="Helvetica,sans-Serif" font-size="10.00">ScrServerCommand</text>
</a>
</g>
</g>
<!-- Node2 -->
<g id="node2" class="node">
<title>Node2</title>
<g id="a_node2"><a xlink:href="interfaceBanCommand.html" target="_top" xlink:title=" ">
<polygon fill="white" stroke="#666666" points="78,-19 0,-19 0,0 78,0 78,-19"/>
<text text-anchor="middle" x="39" y="-7" font-family="Helvetica,sans-Serif" font-size="10.00">BanCommand</text>
</a>
</g>
</g>
<!-- Node1&#45;&gt;Node2 -->
<g id="edge1" class="edge">
<title>Node1&#45;&gt;Node2</title>
<path fill="none" stroke="#63b8ff" d="M109.95,-49.27C92.52,-39.74 70.13,-27.51 55.21,-19.36"/>
<polygon fill="#63b8ff" stroke="#63b8ff" points="108.09,-52.79 118.55,-54.51 111.45,-46.64 108.09,-52.79"/>
</g>
<!-- Node3 -->
<g id="node3" class="node">
<title>Node3</title>
<g id="a_node3"><a xlink:href="interfaceKickCommand.html" target="_top" xlink:title=" ">
<polygon fill="white" stroke="#666666" points="176,-19 96,-19 96,0 176,0 176,-19"/>
<text text-anchor="middle" x="136" y="-7" font-family="Helvetica,sans-Serif" font-size="10.00">KickCommand</text>
</a>
</g>
</g>
<!-- Node1&#45;&gt;Node3 -->
<g id="edge2" class="edge">
<title>Node1&#45;&gt;Node3</title>
<path fill="none" stroke="#63b8ff" d="M136,-43.93C136,-35.53 136,-26.13 136,-19.44"/>
<polygon fill="#63b8ff" stroke="#63b8ff" points="132.5,-43.75 136,-53.75 139.5,-43.75 132.5,-43.75"/>
</g>
<!-- Node4 -->
<g id="node4" class="node">
<title>Node4</title>
<g id="a_node4"><a xlink:href="interfaceUploadSaveCommand.html" target="_top" xlink:title=" ">
<polygon fill="white" stroke="#666666" points="306,-19 194,-19 194,0 306,0 306,-19"/>
<text text-anchor="middle" x="250" y="-7" font-family="Helvetica,sans-Serif" font-size="10.00">UploadSaveCommand</text>
</a>
</g>
</g>
<!-- Node1&#45;&gt;Node4 -->
<g id="edge3" class="edge">
<title>Node1&#45;&gt;Node4</title>
<path fill="none" stroke="#63b8ff" d="M165.19,-49.93C185.86,-40.32 213,-27.7 230.95,-19.36"/>
<polygon fill="#63b8ff" stroke="#63b8ff" points="163.93,-47.12 156.34,-54.51 166.88,-53.47 163.93,-47.12"/>
</g>
</g>
</svg>
