<?xml version="1.0" encoding="UTF-8" standalone="no"?>
<!DOCTYPE svg PUBLIC "-//W3C//DTD SVG 1.1//EN"
 "http://www.w3.org/Graphics/SVG/1.1/DTD/svg11.dtd">
<!-- Generated by graphviz version 8.0.2 (20230410.1723)
 -->
<!-- Title: SCR_ContentBrowser_GalleryDialog Pages: 1 -->
<svg width="119pt" height="148pt"
 viewBox="0.00 0.00 119.00 148.00" xmlns="http://www.w3.org/2000/svg" xmlns:xlink="http://www.w3.org/1999/xlink">
<g id="graph0" class="graph" transform="scale(1 1) rotate(0) translate(4 144)">
<title>SCR_ContentBrowser_GalleryDialog</title>
<!-- Node1 -->
<g id="node1" class="node">
<title>Node1</title>
<g id="a_node1"><a xlink:title=" ">
<polygon fill="#999999" stroke="#666666" points="111,-30 0,-30 0,0 111,0 111,-30"/>
<text text-anchor="start" x="8" y="-18" font-family="Helvetica,sans-Serif" font-size="10.00">SCR_ContentBrowser</text>
<text text-anchor="middle" x="55.5" y="-7" font-family="Helvetica,sans-Serif" font-size="10.00">_GalleryDialog</text>
</a>
</g>
</g>
<!-- Node2 -->
<g id="node2" class="node">
<title>Node2</title>
<g id="a_node2"><a xlink:href="interfaceChimeraMenuBase.html" target="_top" xlink:title="Constant variables used in various menus.">
<polygon fill="white" stroke="#666666" points="105,-85 6,-85 6,-66 105,-66 105,-85"/>
<text text-anchor="middle" x="55.5" y="-73" font-family="Helvetica,sans-Serif" font-size="10.00">ChimeraMenuBase</text>
</a>
</g>
</g>
<!-- Node2&#45;&gt;Node1 -->
<g id="edge1" class="edge">
<title>Node2&#45;&gt;Node1</title>
<path fill="none" stroke="#63b8ff" d="M55.5,-55.08C55.5,-46.92 55.5,-37.6 55.5,-30.11"/>
<polygon fill="#63b8ff" stroke="#63b8ff" points="52,-54.87 55.5,-64.87 59,-54.87 52,-54.87"/>
</g>
<!-- Node3 -->
<g id="node3" class="node">
<title>Node3</title>
<g id="a_node3"><a xlink:title=" ">
<polygon fill="white" stroke="#666666" points="87,-140 24,-140 24,-121 87,-121 87,-140"/>
<text text-anchor="middle" x="55.5" y="-128" font-family="Helvetica,sans-Serif" font-size="10.00">MenuBase</text>
</a>
</g>
</g>
<!-- Node3&#45;&gt;Node2 -->
<g id="edge2" class="edge">
<title>Node3&#45;&gt;Node2</title>
<path fill="none" stroke="#63b8ff" d="M55.5,-109.93C55.5,-101.53 55.5,-92.13 55.5,-85.44"/>
<polygon fill="#63b8ff" stroke="#63b8ff" points="52,-109.75 55.5,-119.75 59,-109.75 52,-109.75"/>
</g>
</g>
</svg>
