<?xml version="1.0" encoding="UTF-8" standalone="no"?>
<!DOCTYPE svg PUBLIC "-//W3C//DTD SVG 1.1//EN"
 "http://www.w3.org/Graphics/SVG/1.1/DTD/svg11.dtd">
<!-- Generated by graphviz version 8.0.2 (20230410.1723)
 -->
<!-- Title: AttachmentUnderbarrelRIS1913 Pages: 1 -->
<svg width="295pt" height="313pt"
 viewBox="0.00 0.00 295.00 313.00" xmlns="http://www.w3.org/2000/svg" xmlns:xlink="http://www.w3.org/1999/xlink">
<g id="graph0" class="graph" transform="scale(1 1) rotate(0) translate(4 309)">
<title>AttachmentUnderbarrelRIS1913</title>
<!-- Node1 -->
<g id="node1" class="node">
<title>Node1</title>
<g id="a_node1"><a xlink:title=" ">
<polygon fill="#999999" stroke="#666666" points="213,-140 60,-140 60,-121 213,-121 213,-140"/>
<text text-anchor="middle" x="136.5" y="-128" font-family="Helvetica,sans-Serif" font-size="10.00">AttachmentUnderbarrelRIS1913</text>
</a>
</g>
</g>
<!-- Node5 -->
<g id="node5" class="node">
<title>Node5</title>
<g id="a_node5"><a xlink:href="interfaceAttachmentRIS1913.html" target="_top" xlink:title=" ">
<polygon fill="white" stroke="#666666" points="115.5,-79.5 11.5,-79.5 11.5,-60.5 115.5,-60.5 115.5,-79.5"/>
<text text-anchor="middle" x="63.5" y="-67.5" font-family="Helvetica,sans-Serif" font-size="10.00">AttachmentRIS1913</text>
</a>
</g>
</g>
<!-- Node1&#45;&gt;Node5 -->
<g id="edge4" class="edge">
<title>Node1&#45;&gt;Node5</title>
<path fill="none" stroke="#63b8ff" d="M117.21,-114.04C103.65,-103.17 85.99,-89.02 74.69,-79.97"/>
<polygon fill="#63b8ff" stroke="#63b8ff" points="114.42,-117.09 124.41,-120.62 118.8,-111.63 114.42,-117.09"/>
</g>
<!-- Node7 -->
<g id="node7" class="node">
<title>Node7</title>
<g id="a_node7"><a xlink:href="interfaceAttachmentUnderbarrelRIS1913Short.html" target="_top" xlink:title=" ">
<polygon fill="white" stroke="#666666" points="287,-85 134,-85 134,-55 287,-55 287,-85"/>
<text text-anchor="start" x="142" y="-73" font-family="Helvetica,sans-Serif" font-size="10.00">AttachmentUnderbarrelRIS1913</text>
<text text-anchor="middle" x="210.5" y="-62" font-family="Helvetica,sans-Serif" font-size="10.00">Short</text>
</a>
</g>
</g>
<!-- Node1&#45;&gt;Node7 -->
<g id="edge6" class="edge">
<title>Node1&#45;&gt;Node7</title>
<path fill="none" stroke="#63b8ff" d="M156.36,-113.8C167.52,-104.98 181.35,-94.05 192.23,-85.44"/>
<polygon fill="#63b8ff" stroke="#63b8ff" points="154.41,-111.67 148.74,-120.62 158.75,-117.16 154.41,-111.67"/>
</g>
<!-- Node2 -->
<g id="node2" class="node">
<title>Node2</title>
<g id="a_node2"><a xlink:href="interfaceAttachmentUnderBarrel.html" target="_top" xlink:title=" ">
<polygon fill="white" stroke="#666666" points="195.5,-195 77.5,-195 77.5,-176 195.5,-176 195.5,-195"/>
<text text-anchor="middle" x="136.5" y="-183" font-family="Helvetica,sans-Serif" font-size="10.00">AttachmentUnderBarrel</text>
</a>
</g>
</g>
<!-- Node2&#45;&gt;Node1 -->
<g id="edge1" class="edge">
<title>Node2&#45;&gt;Node1</title>
<path fill="none" stroke="#63b8ff" d="M136.5,-164.93C136.5,-156.53 136.5,-147.13 136.5,-140.44"/>
<polygon fill="#63b8ff" stroke="#63b8ff" points="133,-164.75 136.5,-174.75 140,-164.75 133,-164.75"/>
</g>
<!-- Node3 -->
<g id="node3" class="node">
<title>Node3</title>
<g id="a_node3"><a xlink:href="interfaceBaseAttachmentType.html" target="_top" xlink:title=" ">
<polygon fill="white" stroke="#666666" points="191.5,-250 81.5,-250 81.5,-231 191.5,-231 191.5,-250"/>
<text text-anchor="middle" x="136.5" y="-238" font-family="Helvetica,sans-Serif" font-size="10.00">BaseAttachmentType</text>
</a>
</g>
</g>
<!-- Node3&#45;&gt;Node2 -->
<g id="edge2" class="edge">
<title>Node3&#45;&gt;Node2</title>
<path fill="none" stroke="#63b8ff" d="M136.5,-219.93C136.5,-211.53 136.5,-202.13 136.5,-195.44"/>
<polygon fill="#63b8ff" stroke="#63b8ff" points="133,-219.75 136.5,-229.75 140,-219.75 133,-219.75"/>
</g>
<!-- Node4 -->
<g id="node4" class="node">
<title>Node4</title>
<g id="a_node4"><a xlink:title=" ">
<polygon fill="white" stroke="#666666" points="179.5,-305 93.5,-305 93.5,-286 179.5,-286 179.5,-305"/>
<text text-anchor="middle" x="136.5" y="-293" font-family="Helvetica,sans-Serif" font-size="10.00">ScriptAndConfig</text>
</a>
</g>
</g>
<!-- Node4&#45;&gt;Node3 -->
<g id="edge3" class="edge">
<title>Node4&#45;&gt;Node3</title>
<path fill="none" stroke="#63b8ff" d="M136.5,-274.93C136.5,-266.53 136.5,-257.13 136.5,-250.44"/>
<polygon fill="#63b8ff" stroke="#63b8ff" points="133,-274.75 136.5,-284.75 140,-274.75 133,-274.75"/>
</g>
<!-- Node6 -->
<g id="node6" class="node">
<title>Node6</title>
<g id="a_node6"><a xlink:href="interfaceAttachmentRIS1913Short.html" target="_top" xlink:title=" ">
<polygon fill="white" stroke="#666666" points="127,-19 0,-19 0,0 127,0 127,-19"/>
<text text-anchor="middle" x="63.5" y="-7" font-family="Helvetica,sans-Serif" font-size="10.00">AttachmentRIS1913Short</text>
</a>
</g>
</g>
<!-- Node5&#45;&gt;Node6 -->
<g id="edge5" class="edge">
<title>Node5&#45;&gt;Node6</title>
<path fill="none" stroke="#63b8ff" d="M63.5,-49.49C63.5,-39.22 63.5,-27.13 63.5,-19.17"/>
<polygon fill="#63b8ff" stroke="#63b8ff" points="60,-49.37 63.5,-59.37 67,-49.37 60,-49.37"/>
</g>
</g>
</svg>
