<?xml version="1.0" encoding="UTF-8" standalone="no"?>
<!DOCTYPE svg PUBLIC "-//W3C//DTD SVG 1.1//EN"
 "http://www.w3.org/Graphics/SVG/1.1/DTD/svg11.dtd">
<!-- Generated by graphviz version 8.0.2 (20230410.1723)
 -->
<!-- Title: SCR_CustomTriggerConditions Pages: 1 -->
<svg width="346pt" height="86pt"
 viewBox="0.00 0.00 346.00 86.00" xmlns="http://www.w3.org/2000/svg" xmlns:xlink="http://www.w3.org/1999/xlink">
<g id="graph0" class="graph" transform="scale(1 1) rotate(0) translate(4 82)">
<title>SCR_CustomTriggerConditions</title>
<!-- Node1 -->
<g id="node1" class="node">
<title>Node1</title>
<g id="a_node1"><a xlink:title=" ">
<polygon fill="#999999" stroke="#666666" points="151,-48.5 0,-48.5 0,-29.5 151,-29.5 151,-48.5"/>
<text text-anchor="middle" x="75.5" y="-36.5" font-family="Helvetica,sans-Serif" font-size="10.00">SCR_CustomTriggerConditions</text>
</a>
</g>
</g>
<!-- Node2 -->
<g id="node2" class="node">
<title>Node2</title>
<g id="a_node2"><a xlink:href="interfaceSCR__CustomTriggerConditionsSpecificClassNameCount.html" target="_top" xlink:title=" ">
<polygon fill="white" stroke="#666666" points="338,-78 187,-78 187,-48 338,-48 338,-78"/>
<text text-anchor="start" x="195" y="-66" font-family="Helvetica,sans-Serif" font-size="10.00">SCR_CustomTriggerConditions</text>
<text text-anchor="middle" x="262.5" y="-55" font-family="Helvetica,sans-Serif" font-size="10.00">SpecificClassNameCount</text>
</a>
</g>
</g>
<!-- Node1&#45;&gt;Node2 -->
<g id="edge1" class="edge">
<title>Node1&#45;&gt;Node2</title>
<path fill="none" stroke="#63b8ff" d="M162.18,-50.12C170.38,-51.18 178.64,-52.25 186.71,-53.3"/>
<polygon fill="#63b8ff" stroke="#63b8ff" points="162.85,-46.54 152.48,-48.73 161.95,-53.48 162.85,-46.54"/>
</g>
<!-- Node3 -->
<g id="node3" class="node">
<title>Node3</title>
<g id="a_node3"><a xlink:href="interfaceSCR__CustomTriggerConditionsSpecificPrefabCount.html" target="_top" xlink:title=" ">
<polygon fill="white" stroke="#666666" points="338,-30 187,-30 187,0 338,0 338,-30"/>
<text text-anchor="start" x="195" y="-18" font-family="Helvetica,sans-Serif" font-size="10.00">SCR_CustomTriggerConditions</text>
<text text-anchor="middle" x="262.5" y="-7" font-family="Helvetica,sans-Serif" font-size="10.00">SpecificPrefabCount</text>
</a>
</g>
</g>
<!-- Node1&#45;&gt;Node3 -->
<g id="edge2" class="edge">
<title>Node1&#45;&gt;Node3</title>
<path fill="none" stroke="#63b8ff" d="M162.18,-27.88C170.38,-26.82 178.64,-25.75 186.71,-24.7"/>
<polygon fill="#63b8ff" stroke="#63b8ff" points="161.95,-24.52 152.48,-29.27 162.85,-31.46 161.95,-24.52"/>
</g>
</g>
</svg>
