<?xml version="1.0" encoding="UTF-8" standalone="no"?>
<!DOCTYPE svg PUBLIC "-//W3C//DTD SVG 1.1//EN"
 "http://www.w3.org/Graphics/SVG/1.1/DTD/svg11.dtd">
<!-- Generated by graphviz version 8.0.2 (20230410.1723)
 -->
<!-- Title: UnknownDamageEffect Pages: 1 -->
<svg width="140pt" height="302pt"
 viewBox="0.00 0.00 140.00 302.00" xmlns="http://www.w3.org/2000/svg" xmlns:xlink="http://www.w3.org/1999/xlink">
<g id="graph0" class="graph" transform="scale(1 1) rotate(0) translate(4 298)">
<title>UnknownDamageEffect</title>
<!-- Node1 -->
<g id="node1" class="node">
<title>Node1</title>
<g id="a_node1"><a xlink:title=" ">
<polygon fill="#999999" stroke="#666666" points="124.5,-19 7.5,-19 7.5,0 124.5,0 124.5,-19"/>
<text text-anchor="middle" x="66" y="-7" font-family="Helvetica,sans-Serif" font-size="10.00">UnknownDamageEffect</text>
</a>
</g>
</g>
<!-- Node2 -->
<g id="node2" class="node">
<title>Node2</title>
<g id="a_node2"><a xlink:href="interfaceSCR__InstantDamageEffect.html" target="_top" xlink:title=" ">
<polygon fill="white" stroke="#666666" points="132,-74 0,-74 0,-55 132,-55 132,-74"/>
<text text-anchor="middle" x="66" y="-62" font-family="Helvetica,sans-Serif" font-size="10.00">SCR_InstantDamageEffect</text>
</a>
</g>
</g>
<!-- Node2&#45;&gt;Node1 -->
<g id="edge1" class="edge">
<title>Node2&#45;&gt;Node1</title>
<path fill="none" stroke="#63b8ff" d="M66,-43.93C66,-35.53 66,-26.13 66,-19.44"/>
<polygon fill="#63b8ff" stroke="#63b8ff" points="62.5,-43.75 66,-53.75 69.5,-43.75 62.5,-43.75"/>
</g>
<!-- Node3 -->
<g id="node3" class="node">
<title>Node3</title>
<g id="a_node3"><a xlink:href="interfaceInstantDamageEffect.html" target="_top" xlink:title=" ">
<polygon fill="white" stroke="#666666" points="119.5,-129 12.5,-129 12.5,-110 119.5,-110 119.5,-129"/>
<text text-anchor="middle" x="66" y="-117" font-family="Helvetica,sans-Serif" font-size="10.00">InstantDamageEffect</text>
</a>
</g>
</g>
<!-- Node3&#45;&gt;Node2 -->
<g id="edge2" class="edge">
<title>Node3&#45;&gt;Node2</title>
<path fill="none" stroke="#63b8ff" d="M66,-98.93C66,-90.53 66,-81.13 66,-74.44"/>
<polygon fill="#63b8ff" stroke="#63b8ff" points="62.5,-98.75 66,-108.75 69.5,-98.75 62.5,-98.75"/>
</g>
<!-- Node4 -->
<g id="node4" class="node">
<title>Node4</title>
<g id="a_node4"><a xlink:href="interfaceSCR__DamageEffect.html" target="_top" xlink:title=" ">
<polygon fill="white" stroke="#666666" points="117.5,-184 14.5,-184 14.5,-165 117.5,-165 117.5,-184"/>
<text text-anchor="middle" x="66" y="-172" font-family="Helvetica,sans-Serif" font-size="10.00">SCR_DamageEffect</text>
</a>
</g>
</g>
<!-- Node4&#45;&gt;Node3 -->
<g id="edge3" class="edge">
<title>Node4&#45;&gt;Node3</title>
<path fill="none" stroke="#63b8ff" d="M66,-153.93C66,-145.53 66,-136.13 66,-129.44"/>
<polygon fill="#63b8ff" stroke="#63b8ff" points="62.5,-153.75 66,-163.75 69.5,-153.75 62.5,-153.75"/>
</g>
<!-- Node5 -->
<g id="node5" class="node">
<title>Node5</title>
<g id="a_node5"><a xlink:href="interfaceBaseDamageEffect.html" target="_top" xlink:title=" ">
<polygon fill="white" stroke="#666666" points="116,-239 16,-239 16,-220 116,-220 116,-239"/>
<text text-anchor="middle" x="66" y="-227" font-family="Helvetica,sans-Serif" font-size="10.00">BaseDamageEffect</text>
</a>
</g>
</g>
<!-- Node5&#45;&gt;Node4 -->
<g id="edge4" class="edge">
<title>Node5&#45;&gt;Node4</title>
<path fill="none" stroke="#63b8ff" d="M66,-208.93C66,-200.53 66,-191.13 66,-184.44"/>
<polygon fill="#63b8ff" stroke="#63b8ff" points="62.5,-208.75 66,-218.75 69.5,-208.75 62.5,-208.75"/>
</g>
<!-- Node6 -->
<g id="node6" class="node">
<title>Node6</title>
<g id="a_node6"><a xlink:title=" ">
<polygon fill="white" stroke="#666666" points="109,-294 23,-294 23,-275 109,-275 109,-294"/>
<text text-anchor="middle" x="66" y="-282" font-family="Helvetica,sans-Serif" font-size="10.00">ScriptAndConfig</text>
</a>
</g>
</g>
<!-- Node6&#45;&gt;Node5 -->
<g id="edge5" class="edge">
<title>Node6&#45;&gt;Node5</title>
<path fill="none" stroke="#63b8ff" d="M66,-263.93C66,-255.53 66,-246.13 66,-239.44"/>
<polygon fill="#63b8ff" stroke="#63b8ff" points="62.5,-263.75 66,-273.75 69.5,-263.75 62.5,-263.75"/>
</g>
</g>
</svg>
