<?xml version="1.0" encoding="UTF-8" standalone="no"?>
<!DOCTYPE svg PUBLIC "-//W3C//DTD SVG 1.1//EN"
 "http://www.w3.org/Graphics/SVG/1.1/DTD/svg11.dtd">
<!-- Generated by graphviz version 8.0.2 (20230410.1723)
 -->
<!-- Title: MuzzleInMagComponentClass Pages: 1 -->
<svg width="326pt" height="258pt"
 viewBox="0.00 0.00 325.50 258.00" xmlns="http://www.w3.org/2000/svg" xmlns:xlink="http://www.w3.org/1999/xlink">
<g id="graph0" class="graph" transform="scale(1 1) rotate(0) translate(4 254)">
<title>MuzzleInMagComponentClass</title>
<!-- Node1 -->
<g id="node1" class="node">
<title>Node1</title>
<g id="a_node1"><a xlink:title=" ">
<polygon fill="#999999" stroke="#666666" points="233.5,-85 84.5,-85 84.5,-66 233.5,-66 233.5,-85"/>
<text text-anchor="middle" x="159" y="-73" font-family="Helvetica,sans-Serif" font-size="10.00">MuzzleInMagComponentClass</text>
</a>
</g>
</g>
<!-- Node5 -->
<g id="node5" class="node">
<title>Node5</title>
<g id="a_node5"><a xlink:href="interfaceMortarMuzzleComponentClass.html" target="_top" xlink:title=" ">
<polygon fill="white" stroke="#666666" points="150,-24.5 0,-24.5 0,-5.5 150,-5.5 150,-24.5"/>
<text text-anchor="middle" x="75" y="-12.5" font-family="Helvetica,sans-Serif" font-size="10.00">MortarMuzzleComponentClass</text>
</a>
</g>
</g>
<!-- Node1&#45;&gt;Node5 -->
<g id="edge4" class="edge">
<title>Node1&#45;&gt;Node5</title>
<path fill="none" stroke="#63b8ff" d="M137.24,-59.35C121.59,-48.44 101,-34.11 87.88,-24.97"/>
<polygon fill="#63b8ff" stroke="#63b8ff" points="135.04,-62.77 145.24,-65.62 139.04,-57.03 135.04,-62.77"/>
</g>
<!-- Node6 -->
<g id="node6" class="node">
<title>Node6</title>
<g id="a_node6"><a xlink:href="interfaceSCR__MuzzleInMagComponentClass.html" target="_top" xlink:title=" ">
<polygon fill="white" stroke="#666666" points="317.5,-30 168.5,-30 168.5,0 317.5,0 317.5,-30"/>
<text text-anchor="start" x="176.5" y="-18" font-family="Helvetica,sans-Serif" font-size="10.00">SCR_MuzzleInMagComponent</text>
<text text-anchor="middle" x="243" y="-7" font-family="Helvetica,sans-Serif" font-size="10.00">Class</text>
</a>
</g>
</g>
<!-- Node1&#45;&gt;Node6 -->
<g id="edge5" class="edge">
<title>Node1&#45;&gt;Node6</title>
<path fill="none" stroke="#63b8ff" d="M180.41,-59.59C193.27,-50.64 209.54,-39.3 222.27,-30.44"/>
<polygon fill="#63b8ff" stroke="#63b8ff" points="178.96,-57.03 172.76,-65.62 182.96,-62.77 178.96,-57.03"/>
</g>
<!-- Node2 -->
<g id="node2" class="node">
<title>Node2</title>
<g id="a_node2"><a xlink:href="interfaceBaseMuzzleComponentClass.html" target="_top" xlink:title=" ">
<polygon fill="white" stroke="#666666" points="231.5,-140 86.5,-140 86.5,-121 231.5,-121 231.5,-140"/>
<text text-anchor="middle" x="159" y="-128" font-family="Helvetica,sans-Serif" font-size="10.00">BaseMuzzleComponentClass</text>
</a>
</g>
</g>
<!-- Node2&#45;&gt;Node1 -->
<g id="edge1" class="edge">
<title>Node2&#45;&gt;Node1</title>
<path fill="none" stroke="#63b8ff" d="M159,-109.93C159,-101.53 159,-92.13 159,-85.44"/>
<polygon fill="#63b8ff" stroke="#63b8ff" points="155.5,-109.75 159,-119.75 162.5,-109.75 155.5,-109.75"/>
</g>
<!-- Node3 -->
<g id="node3" class="node">
<title>Node3</title>
<g id="a_node3"><a xlink:href="interfaceGameComponentClass.html" target="_top" xlink:title=" ">
<polygon fill="white" stroke="#666666" points="217.5,-195 100.5,-195 100.5,-176 217.5,-176 217.5,-195"/>
<text text-anchor="middle" x="159" y="-183" font-family="Helvetica,sans-Serif" font-size="10.00">GameComponentClass</text>
</a>
</g>
</g>
<!-- Node3&#45;&gt;Node2 -->
<g id="edge2" class="edge">
<title>Node3&#45;&gt;Node2</title>
<path fill="none" stroke="#63b8ff" d="M159,-164.93C159,-156.53 159,-147.13 159,-140.44"/>
<polygon fill="#63b8ff" stroke="#63b8ff" points="155.5,-164.75 159,-174.75 162.5,-164.75 155.5,-164.75"/>
</g>
<!-- Node4 -->
<g id="node4" class="node">
<title>Node4</title>
<g id="a_node4"><a xlink:title=" ">
<polygon fill="white" stroke="#666666" points="221.5,-250 96.5,-250 96.5,-231 221.5,-231 221.5,-250"/>
<text text-anchor="middle" x="159" y="-238" font-family="Helvetica,sans-Serif" font-size="10.00">GenericComponentClass</text>
</a>
</g>
</g>
<!-- Node4&#45;&gt;Node3 -->
<g id="edge3" class="edge">
<title>Node4&#45;&gt;Node3</title>
<path fill="none" stroke="#63b8ff" d="M159,-219.93C159,-211.53 159,-202.13 159,-195.44"/>
<polygon fill="#63b8ff" stroke="#63b8ff" points="155.5,-219.75 159,-229.75 162.5,-219.75 155.5,-219.75"/>
</g>
</g>
</svg>
