<?xml version="1.0" encoding="UTF-8" standalone="no"?>
<!DOCTYPE svg PUBLIC "-//W3C//DTD SVG 1.1//EN"
 "http://www.w3.org/Graphics/SVG/1.1/DTD/svg11.dtd">
<!-- Generated by graphviz version 8.0.2 (20230410.1723)
 -->
<!-- Title: SCR_AIWaypointClass Pages: 1 -->
<svg width="826pt" height="219pt"
 viewBox="0.00 0.00 826.00 218.50" xmlns="http://www.w3.org/2000/svg" xmlns:xlink="http://www.w3.org/1999/xlink">
<g id="graph0" class="graph" transform="scale(1 1) rotate(0) translate(4 214.5)">
<title>SCR_AIWaypointClass</title>
<!-- Node1 -->
<g id="node1" class="node">
<title>Node1</title>
<g id="a_node1"><a xlink:title=" ">
<polygon fill="#999999" stroke="#666666" points="245,-93 128,-93 128,-74 245,-74 245,-93"/>
<text text-anchor="middle" x="186.5" y="-81" font-family="Helvetica,sans-Serif" font-size="10.00">SCR_AIWaypointClass</text>
</a>
</g>
</g>
<!-- Node3 -->
<g id="node3" class="node">
<title>Node3</title>
<g id="a_node3"><a xlink:href="interfaceSCR__BoardingWaypointClass.html" target="_top" xlink:title=" ">
<polygon fill="white" stroke="#666666" points="438,-179 292,-179 292,-160 438,-160 438,-179"/>
<text text-anchor="middle" x="365" y="-167" font-family="Helvetica,sans-Serif" font-size="10.00">SCR_BoardingWaypointClass</text>
</a>
</g>
</g>
<!-- Node1&#45;&gt;Node3 -->
<g id="edge2" class="edge">
<title>Node1&#45;&gt;Node3</title>
<path fill="none" stroke="#63b8ff" d="M206.01,-100.2C223.94,-115.51 252.52,-137.67 281,-150.5 289.09,-154.14 297.94,-157.12 306.76,-159.55"/>
<polygon fill="#63b8ff" stroke="#63b8ff" points="208.95,-97.25 199.11,-93.32 204.35,-102.53 208.95,-97.25"/>
</g>
<!-- Node6 -->
<g id="node6" class="node">
<title>Node6</title>
<g id="a_node6"><a xlink:href="interfaceSCR__DeploySmokeCoverWaypointClass.html" target="_top" xlink:title=" ">
<polygon fill="white" stroke="#666666" points="449,-141.5 281,-141.5 281,-111.5 449,-111.5 449,-141.5"/>
<text text-anchor="start" x="289" y="-129.5" font-family="Helvetica,sans-Serif" font-size="10.00">SCR_DeploySmokeCoverWaypoint</text>
<text text-anchor="middle" x="365" y="-118.5" font-family="Helvetica,sans-Serif" font-size="10.00">Class</text>
</a>
</g>
</g>
<!-- Node1&#45;&gt;Node6 -->
<g id="edge5" class="edge">
<title>Node1&#45;&gt;Node6</title>
<path fill="none" stroke="#63b8ff" d="M239.08,-96.07C258.29,-100.75 280.31,-106.11 300.47,-111.02"/>
<polygon fill="#63b8ff" stroke="#63b8ff" points="239.98,-92.44 229.44,-93.47 238.32,-99.24 239.98,-92.44"/>
</g>
<!-- Node7 -->
<g id="node7" class="node">
<title>Node7</title>
<g id="a_node7"><a xlink:href="interfaceSCR__EntityWaypointClass.html" target="_top" xlink:title=" ">
<polygon fill="white" stroke="#666666" points="432,-93 298,-93 298,-74 432,-74 432,-93"/>
<text text-anchor="middle" x="365" y="-81" font-family="Helvetica,sans-Serif" font-size="10.00">SCR_EntityWaypointClass</text>
</a>
</g>
</g>
<!-- Node1&#45;&gt;Node7 -->
<g id="edge6" class="edge">
<title>Node1&#45;&gt;Node7</title>
<path fill="none" stroke="#63b8ff" d="M256.05,-83.5C269.67,-83.5 283.95,-83.5 297.5,-83.5"/>
<polygon fill="#63b8ff" stroke="#63b8ff" points="256.29,-80 246.29,-83.5 256.29,-87 256.29,-80"/>
</g>
<!-- Node11 -->
<g id="node11" class="node">
<title>Node11</title>
<g id="a_node11"><a xlink:href="interfaceSCR__SmartActionWaypointClass.html" target="_top" xlink:title=" ">
<polygon fill="white" stroke="#666666" points="446,-56 284,-56 284,-37 446,-37 446,-56"/>
<text text-anchor="middle" x="365" y="-44" font-family="Helvetica,sans-Serif" font-size="10.00">SCR_SmartActionWaypointClass</text>
</a>
</g>
</g>
<!-- Node1&#45;&gt;Node11 -->
<g id="edge10" class="edge">
<title>Node1&#45;&gt;Node11</title>
<path fill="none" stroke="#63b8ff" d="M245.48,-71.35C268.52,-66.52 294.69,-61.03 316.57,-56.44"/>
<polygon fill="#63b8ff" stroke="#63b8ff" points="244.87,-68.11 235.8,-73.58 246.3,-74.96 244.87,-68.11"/>
</g>
<!-- Node12 -->
<g id="node12" class="node">
<title>Node12</title>
<g id="a_node12"><a xlink:href="interfaceSCR__TransportWaypointClass.html" target="_top" xlink:title=" ">
<polygon fill="white" stroke="#666666" points="439.5,-19 290.5,-19 290.5,0 439.5,0 439.5,-19"/>
<text text-anchor="middle" x="365" y="-7" font-family="Helvetica,sans-Serif" font-size="10.00">SCR_TransportWaypointClass</text>
</a>
</g>
</g>
<!-- Node1&#45;&gt;Node12 -->
<g id="edge11" class="edge">
<title>Node1&#45;&gt;Node12</title>
<path fill="none" stroke="#63b8ff" d="M209.67,-67.38C227.96,-54.79 255.05,-37.76 281,-27.5 289.09,-24.3 297.86,-21.62 306.57,-19.39"/>
<polygon fill="#63b8ff" stroke="#63b8ff" points="207.88,-65.06 201.71,-73.67 211.9,-70.79 207.88,-65.06"/>
</g>
<!-- Node2 -->
<g id="node2" class="node">
<title>Node2</title>
<g id="a_node2"><a xlink:title=" ">
<polygon fill="white" stroke="#666666" points="92,-93 0,-93 0,-74 92,-74 92,-93"/>
<text text-anchor="middle" x="46" y="-81" font-family="Helvetica,sans-Serif" font-size="10.00">AIWaypointClass</text>
</a>
</g>
</g>
<!-- Node2&#45;&gt;Node1 -->
<g id="edge1" class="edge">
<title>Node2&#45;&gt;Node1</title>
<path fill="none" stroke="#63b8ff" d="M103.24,-83.5C111.38,-83.5 119.76,-83.5 127.92,-83.5"/>
<polygon fill="#63b8ff" stroke="#63b8ff" points="103.35,-80 93.35,-83.5 103.35,-87 103.35,-80"/>
</g>
<!-- Node4 -->
<g id="node4" class="node">
<title>Node4</title>
<g id="a_node4"><a xlink:href="interfaceSCR__BoardingEntityWaypointClass.html" target="_top" xlink:title=" ">
<polygon fill="white" stroke="#666666" points="632.5,-210.5 485.5,-210.5 485.5,-180.5 632.5,-180.5 632.5,-210.5"/>
<text text-anchor="start" x="493.5" y="-198.5" font-family="Helvetica,sans-Serif" font-size="10.00">SCR_BoardingEntityWaypoint</text>
<text text-anchor="middle" x="559" y="-187.5" font-family="Helvetica,sans-Serif" font-size="10.00">Class</text>
</a>
</g>
</g>
<!-- Node3&#45;&gt;Node4 -->
<g id="edge3" class="edge">
<title>Node3&#45;&gt;Node4</title>
<path fill="none" stroke="#63b8ff" d="M449.2,-180.77C461.15,-182.39 473.38,-184.04 485.11,-185.63"/>
<polygon fill="#63b8ff" stroke="#63b8ff" points="449.69,-177.17 439.31,-179.29 448.75,-184.1 449.69,-177.17"/>
</g>
<!-- Node5 -->
<g id="node5" class="node">
<title>Node5</title>
<g id="a_node5"><a xlink:href="interfaceSCR__BoardingTimedWaypointClass.html" target="_top" xlink:title=" ">
<polygon fill="white" stroke="#666666" points="633,-162.5 485,-162.5 485,-132.5 633,-132.5 633,-162.5"/>
<text text-anchor="start" x="493" y="-150.5" font-family="Helvetica,sans-Serif" font-size="10.00">SCR_BoardingTimedWaypoint</text>
<text text-anchor="middle" x="559" y="-139.5" font-family="Helvetica,sans-Serif" font-size="10.00">Class</text>
</a>
</g>
</g>
<!-- Node3&#45;&gt;Node5 -->
<g id="edge4" class="edge">
<title>Node3&#45;&gt;Node5</title>
<path fill="none" stroke="#63b8ff" d="M449.12,-159.98C460.99,-158.62 473.13,-157.22 484.79,-155.89"/>
<polygon fill="#63b8ff" stroke="#63b8ff" points="448.85,-156.6 439.31,-161.21 449.65,-163.55 448.85,-156.6"/>
</g>
<!-- Node8 -->
<g id="node8" class="node">
<title>Node8</title>
<g id="a_node8"><a xlink:href="interfaceSCR__TimedWaypointClass.html" target="_top" xlink:title=" ">
<polygon fill="white" stroke="#666666" points="626,-93 492,-93 492,-74 626,-74 626,-93"/>
<text text-anchor="middle" x="559" y="-81" font-family="Helvetica,sans-Serif" font-size="10.00">SCR_TimedWaypointClass</text>
</a>
</g>
</g>
<!-- Node7&#45;&gt;Node8 -->
<g id="edge7" class="edge">
<title>Node7&#45;&gt;Node8</title>
<path fill="none" stroke="#63b8ff" d="M443.3,-83.5C459.32,-83.5 476.06,-83.5 491.65,-83.5"/>
<polygon fill="#63b8ff" stroke="#63b8ff" points="443.34,-80 433.34,-83.5 443.34,-87 443.34,-80"/>
</g>
<!-- Node9 -->
<g id="node9" class="node">
<title>Node9</title>
<g id="a_node9"><a xlink:href="interfaceSCR__DefendWaypointClass.html" target="_top" xlink:title=" ">
<polygon fill="white" stroke="#666666" points="812.5,-112 674.5,-112 674.5,-93 812.5,-93 812.5,-112"/>
<text text-anchor="middle" x="743.5" y="-100" font-family="Helvetica,sans-Serif" font-size="10.00">SCR_DefendWaypointClass</text>
</a>
</g>
</g>
<!-- Node8&#45;&gt;Node9 -->
<g id="edge8" class="edge">
<title>Node8&#45;&gt;Node9</title>
<path fill="none" stroke="#63b8ff" d="M637.07,-91.52C649.33,-92.8 661.95,-94.11 674,-95.37"/>
<polygon fill="#63b8ff" stroke="#63b8ff" points="637.71,-87.97 627.4,-90.41 636.99,-94.93 637.71,-87.97"/>
</g>
<!-- Node10 -->
<g id="node10" class="node">
<title>Node10</title>
<g id="a_node10"><a xlink:href="interfaceSCR__SuppressWaypointClass.html" target="_top" xlink:title=" ">
<polygon fill="white" stroke="#666666" points="818,-75 669,-75 669,-56 818,-56 818,-75"/>
<text text-anchor="middle" x="743.5" y="-63" font-family="Helvetica,sans-Serif" font-size="10.00">SCR_SuppressWaypointClass</text>
</a>
</g>
</g>
<!-- Node8&#45;&gt;Node10 -->
<g id="edge9" class="edge">
<title>Node8&#45;&gt;Node10</title>
<path fill="none" stroke="#63b8ff" d="M637.18,-75.89C647.64,-74.86 658.35,-73.8 668.74,-72.77"/>
<polygon fill="#63b8ff" stroke="#63b8ff" points="637.01,-72.49 627.4,-76.95 637.7,-79.45 637.01,-72.49"/>
</g>
</g>
</svg>
