<?xml version="1.0" encoding="UTF-8" standalone="no"?>
<!DOCTYPE svg PUBLIC "-//W3C//DTD SVG 1.1//EN"
 "http://www.w3.org/Graphics/SVG/1.1/DTD/svg11.dtd">
<!-- Generated by graphviz version 8.0.2 (20230410.1723)
 -->
<!-- Title: SCR_BaseDeployableSpawnPointComponent Pages: 1 -->
<svg width="172pt" height="225pt"
 viewBox="0.00 0.00 172.00 225.00" xmlns="http://www.w3.org/2000/svg" xmlns:xlink="http://www.w3.org/1999/xlink">
<g id="graph0" class="graph" transform="scale(1 1) rotate(0) translate(4 221)">
<title>SCR_BaseDeployableSpawnPointComponent</title>
<!-- Node1 -->
<g id="node1" class="node">
<title>Node1</title>
<g id="a_node1"><a xlink:title="Base class which all deployable spawn points / radios inherit from.">
<polygon fill="#999999" stroke="#666666" points="164,-96 0,-96 0,-66 164,-66 164,-96"/>
<text text-anchor="start" x="8" y="-84" font-family="Helvetica,sans-Serif" font-size="10.00">SCR_BaseDeployableSpawnPoint</text>
<text text-anchor="middle" x="82" y="-73" font-family="Helvetica,sans-Serif" font-size="10.00">Component</text>
</a>
</g>
</g>
<!-- Node4 -->
<g id="node4" class="node">
<title>Node4</title>
<g id="a_node4"><a xlink:href="interfaceSCR__RestrictedDeployableSpawnPointComponent.html" target="_top" xlink:title="Deployable spawn point with configurable conditions.">
<polygon fill="white" stroke="#666666" points="149,-30 15,-30 15,0 149,0 149,-30"/>
<text text-anchor="start" x="23" y="-18" font-family="Helvetica,sans-Serif" font-size="10.00">SCR_RestrictedDeployable</text>
<text text-anchor="middle" x="82" y="-7" font-family="Helvetica,sans-Serif" font-size="10.00">SpawnPointComponent</text>
</a>
</g>
</g>
<!-- Node1&#45;&gt;Node4 -->
<g id="edge3" class="edge">
<title>Node1&#45;&gt;Node4</title>
<path fill="none" stroke="#63b8ff" d="M82,-54.97C82,-46.55 82,-37.45 82,-30.16"/>
<polygon fill="#63b8ff" stroke="#63b8ff" points="78.5,-54.8 82,-64.8 85.5,-54.8 78.5,-54.8"/>
</g>
<!-- Node2 -->
<g id="node2" class="node">
<title>Node2</title>
<g id="a_node2"><a xlink:href="interfaceSCR__BaseDeployableInventoryItemComponent.html" target="_top" xlink:title="Base class which all deployable inventory items inherit from.">
<polygon fill="white" stroke="#666666" points="157.5,-162 6.5,-162 6.5,-132 157.5,-132 157.5,-162"/>
<text text-anchor="start" x="14.5" y="-150" font-family="Helvetica,sans-Serif" font-size="10.00">SCR_BaseDeployableInventory</text>
<text text-anchor="middle" x="82" y="-139" font-family="Helvetica,sans-Serif" font-size="10.00">ItemComponent</text>
</a>
</g>
</g>
<!-- Node2&#45;&gt;Node1 -->
<g id="edge1" class="edge">
<title>Node2&#45;&gt;Node1</title>
<path fill="none" stroke="#63b8ff" d="M82,-120.97C82,-112.55 82,-103.45 82,-96.16"/>
<polygon fill="#63b8ff" stroke="#63b8ff" points="78.5,-120.8 82,-130.8 85.5,-120.8 78.5,-120.8"/>
</g>
<!-- Node3 -->
<g id="node3" class="node">
<title>Node3</title>
<g id="a_node3"><a xlink:title=" ">
<polygon fill="white" stroke="#666666" points="128,-217 36,-217 36,-198 128,-198 128,-217"/>
<text text-anchor="middle" x="82" y="-205" font-family="Helvetica,sans-Serif" font-size="10.00">ScriptComponent</text>
</a>
</g>
</g>
<!-- Node3&#45;&gt;Node2 -->
<g id="edge2" class="edge">
<title>Node3&#45;&gt;Node2</title>
<path fill="none" stroke="#63b8ff" d="M82,-187.08C82,-178.92 82,-169.6 82,-162.11"/>
<polygon fill="#63b8ff" stroke="#63b8ff" points="78.5,-186.87 82,-196.87 85.5,-186.87 78.5,-186.87"/>
</g>
</g>
</svg>
