<?xml version="1.0" encoding="UTF-8" standalone="no"?>
<!DOCTYPE svg PUBLIC "-//W3C//DTD SVG 1.1//EN"
 "http://www.w3.org/Graphics/SVG/1.1/DTD/svg11.dtd">
<!-- Generated by graphviz version 8.0.2 (20230410.1723)
 -->
<!-- Title: MenuRootSubComponent Pages: 1 -->
<svg width="750pt" height="1541pt"
 viewBox="0.00 0.00 750.00 1540.50" xmlns="http://www.w3.org/2000/svg" xmlns:xlink="http://www.w3.org/1999/xlink">
<g id="graph0" class="graph" transform="scale(1 1) rotate(0) translate(4 1536.5)">
<title>MenuRootSubComponent</title>
<!-- Node1 -->
<g id="node1" class="node">
<title>Node1</title>
<g id="a_node1"><a xlink:title="Widget component which is linked to menu it&#39;s part of.">
<polygon fill="#999999" stroke="#666666" points="297,-222 169,-222 169,-203 297,-203 297,-222"/>
<text text-anchor="middle" x="233" y="-210" font-family="Helvetica,sans-Serif" font-size="10.00">MenuRootSubComponent</text>
</a>
</g>
</g>
<!-- Node3 -->
<g id="node3" class="node">
<title>Node3</title>
<g id="a_node3"><a xlink:href="interfaceSCR__AssetBrowserAccessEditorUIComponent.html" target="_top" xlink:title=" ">
<polygon fill="white" stroke="#666666" points="503,-960.5 342,-960.5 342,-930.5 503,-930.5 503,-960.5"/>
<text text-anchor="start" x="350" y="-948.5" font-family="Helvetica,sans-Serif" font-size="10.00">SCR_AssetBrowserAccessEditor</text>
<text text-anchor="middle" x="422.5" y="-937.5" font-family="Helvetica,sans-Serif" font-size="10.00">UIComponent</text>
</a>
</g>
</g>
<!-- Node1&#45;&gt;Node3 -->
<g id="edge2" class="edge">
<title>Node1&#45;&gt;Node3</title>
<path fill="none" stroke="#63b8ff" d="M233.93,-233.29C234.02,-338.96 239.63,-815.55 333,-921.5 335.95,-924.84 339.31,-927.74 342.96,-930.26"/>
<polygon fill="#63b8ff" stroke="#63b8ff" points="237.43,-233.3 233.94,-223.3 230.43,-233.29 237.43,-233.3"/>
</g>
<!-- Node4 -->
<g id="node4" class="node">
<title>Node4</title>
<g id="a_node4"><a xlink:href="interfaceSCR__AttributesEditorUIComponent.html" target="_top" xlink:title=" ">
<polygon fill="white" stroke="#666666" points="506.5,-912 338.5,-912 338.5,-893 506.5,-893 506.5,-912"/>
<text text-anchor="middle" x="422.5" y="-900" font-family="Helvetica,sans-Serif" font-size="10.00">SCR_AttributesEditorUIComponent</text>
</a>
</g>
</g>
<!-- Node1&#45;&gt;Node4 -->
<g id="edge3" class="edge">
<title>Node1&#45;&gt;Node4</title>
<path fill="none" stroke="#63b8ff" d="M233.98,-233.28C234.33,-335.9 241.15,-787.51 333,-884.5 336.02,-887.69 339.44,-890.39 343.13,-892.68"/>
<polygon fill="#63b8ff" stroke="#63b8ff" points="237.48,-233.31 233.97,-223.31 230.48,-233.32 237.48,-233.31"/>
</g>
<!-- Node5 -->
<g id="node5" class="node">
<title>Node5</title>
<g id="a_node5"><a xlink:href="interfaceSCR__BaseEditorUIComponent.html" target="_top" xlink:title=" ">
<polygon fill="white" stroke="#666666" points="497,-875 348,-875 348,-856 497,-856 497,-875"/>
<text text-anchor="middle" x="422.5" y="-863" font-family="Helvetica,sans-Serif" font-size="10.00">SCR_BaseEditorUIComponent</text>
</a>
</g>
</g>
<!-- Node1&#45;&gt;Node5 -->
<g id="edge4" class="edge">
<title>Node1&#45;&gt;Node5</title>
<path fill="none" stroke="#63b8ff" d="M239.85,-232.87C269,-334.4 398,-783.64 418.69,-855.73"/>
<polygon fill="#63b8ff" stroke="#63b8ff" points="242.99,-232.14 236.87,-223.5 236.27,-234.07 242.99,-232.14"/>
</g>
<!-- Node52 -->
<g id="node34" class="node">
<title>Node52</title>
<g id="a_node34"><a xlink:href="interfaceSCR__BaseModeEditorUIComponent.html" target="_top" xlink:title=" ">
<polygon fill="white" stroke="#666666" points="509,-315 336,-315 336,-296 509,-296 509,-315"/>
<text text-anchor="middle" x="422.5" y="-303" font-family="Helvetica,sans-Serif" font-size="10.00">SCR_BaseModeEditorUIComponent</text>
</a>
</g>
</g>
<!-- Node1&#45;&gt;Node52 -->
<g id="edge33" class="edge">
<title>Node1&#45;&gt;Node52</title>
<path fill="none" stroke="#63b8ff" d="M251.56,-229.77C270.2,-247.08 301.28,-273.16 333,-287.5 340.14,-290.73 347.87,-293.38 355.69,-295.56"/>
<polygon fill="#63b8ff" stroke="#63b8ff" points="254.35,-227.64 244.69,-223.29 249.53,-232.72 254.35,-227.64"/>
</g>
<!-- Node58 -->
<g id="node40" class="node">
<title>Node58</title>
<g id="a_node40"><a xlink:href="interfaceSCR__BasePaginationUIComponent.html" target="_top" xlink:title=" ">
<polygon fill="white" stroke="#666666" points="507,-278 338,-278 338,-259 507,-259 507,-278"/>
<text text-anchor="middle" x="422.5" y="-266" font-family="Helvetica,sans-Serif" font-size="10.00">SCR_BasePaginationUIComponent</text>
</a>
</g>
</g>
<!-- Node1&#45;&gt;Node58 -->
<g id="edge39" class="edge">
<title>Node1&#45;&gt;Node58</title>
<path fill="none" stroke="#63b8ff" d="M266.42,-226.51C285.53,-234.37 310.33,-243.89 333,-250.5 343.39,-253.53 354.6,-256.23 365.45,-258.56"/>
<polygon fill="#63b8ff" stroke="#63b8ff" points="268.02,-222.97 257.44,-222.34 265.32,-229.42 268.02,-222.97"/>
</g>
<!-- Node61 -->
<g id="node43" class="node">
<title>Node61</title>
<g id="a_node43"><a xlink:href="interfaceSCR__ButtonHintEditorUIComponent.html" target="_top" xlink:title=" ">
<polygon fill="white" stroke="#666666" points="508.5,-241 336.5,-241 336.5,-222 508.5,-222 508.5,-241"/>
<text text-anchor="middle" x="422.5" y="-229" font-family="Helvetica,sans-Serif" font-size="10.00">SCR_ButtonHintEditorUIComponent</text>
</a>
</g>
</g>
<!-- Node1&#45;&gt;Node61 -->
<g id="edge42" class="edge">
<title>Node1&#45;&gt;Node61</title>
<path fill="none" stroke="#63b8ff" d="M308.13,-220.01C317.33,-220.94 326.79,-221.9 336.14,-222.85"/>
<polygon fill="#63b8ff" stroke="#63b8ff" points="308.78,-216.46 298.48,-218.93 308.08,-223.42 308.78,-216.46"/>
</g>
<!-- Node62 -->
<g id="node44" class="node">
<title>Node62</title>
<g id="a_node44"><a xlink:href="interfaceSCR__CameraInfoEditorUIComponent.html" target="_top" xlink:title=" ">
<polygon fill="white" stroke="#666666" points="510,-204 335,-204 335,-185 510,-185 510,-204"/>
<text text-anchor="middle" x="422.5" y="-192" font-family="Helvetica,sans-Serif" font-size="10.00">SCR_CameraInfoEditorUIComponent</text>
</a>
</g>
</g>
<!-- Node1&#45;&gt;Node62 -->
<g id="edge43" class="edge">
<title>Node1&#45;&gt;Node62</title>
<path fill="none" stroke="#63b8ff" d="M308.34,-205.36C317.04,-204.53 325.96,-203.67 334.81,-202.82"/>
<polygon fill="#63b8ff" stroke="#63b8ff" points="308.1,-201.97 298.48,-206.41 308.77,-208.93 308.1,-201.97"/>
</g>
<!-- Node63 -->
<g id="node45" class="node">
<title>Node63</title>
<g id="a_node45"><a xlink:href="interfaceSCR__CompassUIComponent.html" target="_top" xlink:title="Simple radial compass which will rotate based on current camera position.">
<polygon fill="white" stroke="#666666" points="493.5,-167 351.5,-167 351.5,-148 493.5,-148 493.5,-167"/>
<text text-anchor="middle" x="422.5" y="-155" font-family="Helvetica,sans-Serif" font-size="10.00">SCR_CompassUIComponent</text>
</a>
</g>
</g>
<!-- Node1&#45;&gt;Node63 -->
<g id="edge44" class="edge">
<title>Node1&#45;&gt;Node63</title>
<path fill="none" stroke="#63b8ff" d="M267.21,-198.6C286.23,-191.01 310.68,-181.9 333,-175.5 343.55,-172.48 354.95,-169.76 365.94,-167.41"/>
<polygon fill="#63b8ff" stroke="#63b8ff" points="266.21,-195.63 258.26,-202.62 268.84,-202.12 266.21,-195.63"/>
</g>
<!-- Node64 -->
<g id="node46" class="node">
<title>Node64</title>
<g id="a_node46"><a xlink:href="interfaceSCR__EditableEntityLinkUIComponent.html" target="_top" xlink:title=" ">
<polygon fill="#fff0f0" stroke="red" points="512,-130 333,-130 333,-111 512,-111 512,-130"/>
<text text-anchor="middle" x="422.5" y="-118" font-family="Helvetica,sans-Serif" font-size="10.00">SCR_EditableEntityLinkUIComponent</text>
</a>
</g>
</g>
<!-- Node1&#45;&gt;Node64 -->
<g id="edge45" class="edge">
<title>Node1&#45;&gt;Node64</title>
<path fill="none" stroke="#63b8ff" d="M251.91,-195.19C270.61,-178.12 301.56,-152.59 333,-138.5 340.15,-135.29 347.89,-132.65 355.71,-130.48"/>
<polygon fill="#63b8ff" stroke="#63b8ff" points="249.91,-192.2 244.99,-201.59 254.69,-197.32 249.91,-192.2"/>
</g>
<!-- Node66 -->
<g id="node47" class="node">
<title>Node66</title>
<g id="a_node47"><a xlink:href="interfaceSCR__IngameClockUIComponent.html" target="_top" xlink:title="Gets the Ingame time and displays it on a UI text element.">
<polygon fill="white" stroke="#666666" points="501,-93 344,-93 344,-74 501,-74 501,-93"/>
<text text-anchor="middle" x="422.5" y="-81" font-family="Helvetica,sans-Serif" font-size="10.00">SCR_IngameClockUIComponent</text>
</a>
</g>
</g>
<!-- Node1&#45;&gt;Node66 -->
<g id="edge46" class="edge">
<title>Node1&#45;&gt;Node66</title>
<path fill="none" stroke="#63b8ff" d="M245.48,-193.29C261.66,-168.01 293.64,-124.12 333,-101.5 338.57,-98.3 344.63,-95.66 350.88,-93.49"/>
<polygon fill="#63b8ff" stroke="#63b8ff" points="242.01,-191.24 239.71,-201.58 247.96,-194.93 242.01,-191.24"/>
</g>
<!-- Node67 -->
<g id="node48" class="node">
<title>Node67</title>
<g id="a_node48"><a xlink:href="interfaceSCR__NotificationsLogComponent.html" target="_top" xlink:title="Notification UI that displays the Notification Entires Holds general functions such as scroll history...">
<polygon fill="white" stroke="#666666" points="503,-56 342,-56 342,-37 503,-37 503,-56"/>
<text text-anchor="middle" x="422.5" y="-44" font-family="Helvetica,sans-Serif" font-size="10.00">SCR_NotificationsLogComponent</text>
</a>
</g>
</g>
<!-- Node1&#45;&gt;Node67 -->
<g id="edge47" class="edge">
<title>Node1&#45;&gt;Node67</title>
<path fill="none" stroke="#63b8ff" d="M241.43,-192.57C254.61,-160.19 285.24,-96.55 333,-64.5 337.82,-61.27 343.09,-58.59 348.59,-56.38"/>
<polygon fill="#63b8ff" stroke="#63b8ff" points="237.89,-191.03 237.5,-201.62 244.41,-193.58 237.89,-191.03"/>
</g>
<!-- Node68 -->
<g id="node49" class="node">
<title>Node68</title>
<g id="a_node49"><a xlink:href="interfaceSCR__SessionDurationUIComponent.html" target="_top" xlink:title="Displays current session duration of the gamemode.">
<polygon fill="white" stroke="#666666" points="508.5,-19 336.5,-19 336.5,0 508.5,0 508.5,-19"/>
<text text-anchor="middle" x="422.5" y="-7" font-family="Helvetica,sans-Serif" font-size="10.00">SCR_SessionDurationUIComponent</text>
</a>
</g>
</g>
<!-- Node1&#45;&gt;Node68 -->
<g id="edge48" class="edge">
<title>Node1&#45;&gt;Node68</title>
<path fill="none" stroke="#63b8ff" d="M238.79,-192.05C248.97,-153.34 276.6,-69.5 333,-27.5 337.28,-24.32 341.98,-21.66 346.91,-19.45"/>
<polygon fill="#63b8ff" stroke="#63b8ff" points="235.2,-190.97 236.17,-201.52 241.99,-192.66 235.2,-190.97"/>
</g>
<!-- Node2 -->
<g id="node2" class="node">
<title>Node2</title>
<g id="a_node2"><a xlink:title=" ">
<polygon fill="white" stroke="#666666" points="133,-222 0,-222 0,-203 133,-203 133,-222"/>
<text text-anchor="middle" x="66.5" y="-210" font-family="Helvetica,sans-Serif" font-size="10.00">ScriptedWidgetComponent</text>
</a>
</g>
</g>
<!-- Node2&#45;&gt;Node1 -->
<g id="edge1" class="edge">
<title>Node2&#45;&gt;Node1</title>
<path fill="none" stroke="#63b8ff" d="M144.46,-212.5C152.57,-212.5 160.76,-212.5 168.7,-212.5"/>
<polygon fill="#63b8ff" stroke="#63b8ff" points="144.46,-209 134.46,-212.5 144.46,-216 144.46,-209"/>
</g>
<!-- Node6 -->
<g id="node6" class="node">
<title>Node6</title>
<g id="a_node6"><a xlink:href="interfaceSCR__AttributesButtonEditorUIComponent.html" target="_top" xlink:title=" ">
<polygon fill="white" stroke="#666666" points="714,-1532.5 576,-1532.5 576,-1502.5 714,-1502.5 714,-1532.5"/>
<text text-anchor="start" x="584" y="-1520.5" font-family="Helvetica,sans-Serif" font-size="10.00">SCR_AttributesButtonEditor</text>
<text text-anchor="middle" x="645" y="-1509.5" font-family="Helvetica,sans-Serif" font-size="10.00">UIComponent</text>
</a>
</g>
</g>
<!-- Node5&#45;&gt;Node6 -->
<g id="edge5" class="edge">
<title>Node5&#45;&gt;Node6</title>
<path fill="none" stroke="#63b8ff" d="M506.15,-878.81C508.25,-880.52 510.21,-882.41 512,-884.5 600.28,-987.38 461.45,-1389.15 548,-1493.5 555.24,-1502.23 565.13,-1508.05 575.81,-1511.89"/>
<polygon fill="#63b8ff" stroke="#63b8ff" points="508.72,-875.65 498.45,-873.07 504.87,-881.5 508.72,-875.65"/>
</g>
<!-- Node7 -->
<g id="node7" class="node">
<title>Node7</title>
<g id="a_node7"><a xlink:href="interfaceSCR__BaseContextMenuEditorUIComponent.html" target="_top" xlink:title=" ">
<polygon fill="#fff0f0" stroke="red" points="719,-1484.5 571,-1484.5 571,-1454.5 719,-1454.5 719,-1484.5"/>
<text text-anchor="start" x="579" y="-1472.5" font-family="Helvetica,sans-Serif" font-size="10.00">SCR_BaseContextMenuEditor</text>
<text text-anchor="middle" x="645" y="-1461.5" font-family="Helvetica,sans-Serif" font-size="10.00">UIComponent</text>
</a>
</g>
</g>
<!-- Node5&#45;&gt;Node7 -->
<g id="edge6" class="edge">
<title>Node5&#45;&gt;Node7</title>
<path fill="none" stroke="#63b8ff" d="M506.14,-878.82C508.24,-880.53 510.2,-882.42 512,-884.5 593.59,-979.1 468.01,-1349.55 548,-1445.5 554.05,-1452.76 561.93,-1458 570.58,-1461.77"/>
<polygon fill="#63b8ff" stroke="#63b8ff" points="508.7,-875.66 498.43,-873.09 504.85,-881.51 508.7,-875.66"/>
</g>
<!-- Node10 -->
<g id="node8" class="node">
<title>Node10</title>
<g id="a_node8"><a xlink:href="interfaceSCR__BaseTooltipEditorUIComponent.html" target="_top" xlink:title=" ">
<polygon fill="#fff0f0" stroke="red" points="733.5,-1436 556.5,-1436 556.5,-1417 733.5,-1417 733.5,-1436"/>
<text text-anchor="middle" x="645" y="-1424" font-family="Helvetica,sans-Serif" font-size="10.00">SCR_BaseTooltipEditorUIComponent</text>
</a>
</g>
</g>
<!-- Node5&#45;&gt;Node10 -->
<g id="edge7" class="edge">
<title>Node5&#45;&gt;Node10</title>
<path fill="none" stroke="#63b8ff" d="M506.13,-878.83C508.23,-880.54 510.2,-882.42 512,-884.5 588.29,-972.54 471,-1320.08 548,-1407.5 551.14,-1411.07 554.75,-1414.09 558.68,-1416.63"/>
<polygon fill="#63b8ff" stroke="#63b8ff" points="508.68,-875.67 498.4,-873.11 504.84,-881.52 508.68,-875.67"/>
</g>
<!-- Node13 -->
<g id="node9" class="node">
<title>Node13</title>
<g id="a_node9"><a xlink:href="interfaceSCR__BaseTooltipTargetEditorUIComponent.html" target="_top" xlink:title=" ">
<polygon fill="#fff0f0" stroke="red" points="718,-1398.5 572,-1398.5 572,-1368.5 718,-1368.5 718,-1398.5"/>
<text text-anchor="start" x="580" y="-1386.5" font-family="Helvetica,sans-Serif" font-size="10.00">SCR_BaseTooltipTargetEditor</text>
<text text-anchor="middle" x="645" y="-1375.5" font-family="Helvetica,sans-Serif" font-size="10.00">UIComponent</text>
</a>
</g>
</g>
<!-- Node5&#45;&gt;Node13 -->
<g id="edge8" class="edge">
<title>Node5&#45;&gt;Node13</title>
<path fill="none" stroke="#63b8ff" d="M506.11,-878.85C508.22,-880.55 510.19,-882.43 512,-884.5 581.6,-964.26 479.75,-1278.59 548,-1359.5 554.31,-1366.99 562.58,-1372.33 571.6,-1376.11"/>
<polygon fill="#63b8ff" stroke="#63b8ff" points="508.65,-875.68 498.37,-873.14 504.82,-881.54 508.65,-875.68"/>
</g>
<!-- Node16 -->
<g id="node10" class="node">
<title>Node16</title>
<g id="a_node10"><a xlink:href="interfaceSCR__BudgetEditorUIComponent.html" target="_top" xlink:title=" ">
<polygon fill="#fff0f0" stroke="red" points="723.5,-1350 566.5,-1350 566.5,-1331 723.5,-1331 723.5,-1350"/>
<text text-anchor="middle" x="645" y="-1338" font-family="Helvetica,sans-Serif" font-size="10.00">SCR_BudgetEditorUIComponent</text>
</a>
</g>
</g>
<!-- Node5&#45;&gt;Node16 -->
<g id="edge9" class="edge">
<title>Node5&#45;&gt;Node16</title>
<path fill="none" stroke="#63b8ff" d="M506.09,-878.87C508.21,-880.56 510.19,-882.43 512,-884.5 576.45,-957.88 482.6,-1249.97 548,-1322.5 553.11,-1328.17 559.39,-1332.4 566.27,-1335.52"/>
<polygon fill="#63b8ff" stroke="#63b8ff" points="508.62,-875.69 498.33,-873.17 504.81,-881.55 508.62,-875.69"/>
</g>
<!-- Node18 -->
<g id="node11" class="node">
<title>Node18</title>
<g id="a_node11"><a xlink:href="interfaceSCR__BudgetUIComponent.html" target="_top" xlink:title="Component to display budget progress.">
<polygon fill="white" stroke="#666666" points="710.5,-1313 579.5,-1313 579.5,-1294 710.5,-1294 710.5,-1313"/>
<text text-anchor="middle" x="645" y="-1301" font-family="Helvetica,sans-Serif" font-size="10.00">SCR_BudgetUIComponent</text>
</a>
</g>
</g>
<!-- Node5&#45;&gt;Node18 -->
<g id="edge10" class="edge">
<title>Node5&#45;&gt;Node18</title>
<path fill="none" stroke="#63b8ff" d="M506.07,-878.88C508.19,-880.57 510.18,-882.44 512,-884.5 571.15,-951.33 488.31,-1218.15 548,-1284.5 556.18,-1293.59 567.35,-1299.08 579.19,-1302.26"/>
<polygon fill="#63b8ff" stroke="#63b8ff" points="508.59,-875.7 498.3,-873.2 504.79,-881.57 508.59,-875.7"/>
</g>
<!-- Node19 -->
<g id="node12" class="node">
<title>Node19</title>
<g id="a_node12"><a xlink:href="interfaceSCR__CampaignBuildingServicesEditorUIComponent.html" target="_top" xlink:title=" ">
<polygon fill="white" stroke="#666666" points="723.5,-1275.5 566.5,-1275.5 566.5,-1245.5 723.5,-1245.5 723.5,-1275.5"/>
<text text-anchor="start" x="574.5" y="-1263.5" font-family="Helvetica,sans-Serif" font-size="10.00">SCR_CampaignBuildingServices</text>
<text text-anchor="middle" x="645" y="-1252.5" font-family="Helvetica,sans-Serif" font-size="10.00">EditorUIComponent</text>
</a>
</g>
</g>
<!-- Node5&#45;&gt;Node19 -->
<g id="edge11" class="edge">
<title>Node5&#45;&gt;Node19</title>
<path fill="none" stroke="#63b8ff" d="M506.04,-878.91C508.17,-880.59 510.16,-882.45 512,-884.5 616.94,-1001.62 445.03,-1117.64 548,-1236.5 553.06,-1242.34 559.31,-1246.87 566.17,-1250.37"/>
<polygon fill="#63b8ff" stroke="#63b8ff" points="508.54,-875.72 498.23,-873.25 504.75,-881.61 508.54,-875.72"/>
</g>
<!-- Node20 -->
<g id="node13" class="node">
<title>Node20</title>
<g id="a_node13"><a xlink:href="interfaceSCR__CampaignBuildingSupplyEditorUIComponent.html" target="_top" xlink:title=" ">
<polygon fill="white" stroke="#666666" points="720,-1227.5 570,-1227.5 570,-1197.5 720,-1197.5 720,-1227.5"/>
<text text-anchor="start" x="578" y="-1215.5" font-family="Helvetica,sans-Serif" font-size="10.00">SCR_CampaignBuildingSupply</text>
<text text-anchor="middle" x="645" y="-1204.5" font-family="Helvetica,sans-Serif" font-size="10.00">EditorUIComponent</text>
</a>
</g>
</g>
<!-- Node5&#45;&gt;Node20 -->
<g id="edge12" class="edge">
<title>Node5&#45;&gt;Node20</title>
<path fill="none" stroke="#63b8ff" d="M505.99,-878.95C508.14,-880.62 510.15,-882.47 512,-884.5 603.6,-985.1 458.1,-1086.38 548,-1188.5 553.9,-1195.21 561.37,-1200.18 569.52,-1203.84"/>
<polygon fill="#63b8ff" stroke="#63b8ff" points="508.47,-875.74 498.15,-873.33 504.71,-881.65 508.47,-875.74"/>
</g>
<!-- Node21 -->
<g id="node14" class="node">
<title>Node21</title>
<g id="a_node14"><a xlink:href="interfaceSCR__ContentBrowserFiltersEditorUIComponent.html" target="_top" xlink:title=" ">
<polygon fill="white" stroke="#666666" points="714,-1179.5 576,-1179.5 576,-1149.5 714,-1149.5 714,-1179.5"/>
<text text-anchor="start" x="584" y="-1167.5" font-family="Helvetica,sans-Serif" font-size="10.00">SCR_ContentBrowserFilters</text>
<text text-anchor="middle" x="645" y="-1156.5" font-family="Helvetica,sans-Serif" font-size="10.00">EditorUIComponent</text>
</a>
</g>
</g>
<!-- Node5&#45;&gt;Node21 -->
<g id="edge13" class="edge">
<title>Node5&#45;&gt;Node21</title>
<path fill="none" stroke="#63b8ff" d="M506.55,-879.48C508.48,-881.01 510.3,-882.68 512,-884.5 590.28,-968.61 471.14,-1055.09 548,-1140.5 555.47,-1148.8 565.34,-1154.43 575.9,-1158.22"/>
<polygon fill="#63b8ff" stroke="#63b8ff" points="508.77,-876.1 498.46,-873.64 504.98,-881.99 508.77,-876.1"/>
</g>
<!-- Node22 -->
<g id="node15" class="node">
<title>Node22</title>
<g id="a_node15"><a xlink:href="interfaceSCR__CursorEditorUIComponent.html" target="_top" xlink:title=" ">
<polygon fill="white" stroke="#666666" points="722.5,-1131 567.5,-1131 567.5,-1112 722.5,-1112 722.5,-1131"/>
<text text-anchor="middle" x="645" y="-1119" font-family="Helvetica,sans-Serif" font-size="10.00">SCR_CursorEditorUIComponent</text>
</a>
</g>
</g>
<!-- Node5&#45;&gt;Node22 -->
<g id="edge14" class="edge">
<title>Node5&#45;&gt;Node22</title>
<path fill="none" stroke="#63b8ff" d="M506.49,-879.53C508.44,-881.04 510.28,-882.7 512,-884.5 580.04,-955.92 479.04,-1032.97 548,-1103.5 553.45,-1109.08 560.05,-1113.23 567.19,-1116.29"/>
<polygon fill="#63b8ff" stroke="#63b8ff" points="508.67,-876.14 498.35,-873.75 504.93,-882.05 508.67,-876.14"/>
</g>
<!-- Node23 -->
<g id="node16" class="node">
<title>Node23</title>
<g id="a_node16"><a xlink:href="interfaceSCR__DialogEditorUIComponent.html" target="_top" xlink:title=" ">
<polygon fill="#fff0f0" stroke="red" points="721.5,-1094 568.5,-1094 568.5,-1075 721.5,-1075 721.5,-1094"/>
<text text-anchor="middle" x="645" y="-1082" font-family="Helvetica,sans-Serif" font-size="10.00">SCR_DialogEditorUIComponent</text>
</a>
</g>
</g>
<!-- Node5&#45;&gt;Node23 -->
<g id="edge15" class="edge">
<title>Node5&#45;&gt;Node23</title>
<path fill="none" stroke="#63b8ff" d="M506.41,-879.61C508.38,-881.1 510.25,-882.73 512,-884.5 569.56,-942.93 489.98,-1007.53 548,-1065.5 553.77,-1071.26 560.75,-1075.53 568.29,-1078.67"/>
<polygon fill="#63b8ff" stroke="#63b8ff" points="508.54,-876.19 498.19,-873.9 504.85,-882.14 508.54,-876.19"/>
</g>
<!-- Node32 -->
<g id="node17" class="node">
<title>Node32</title>
<g id="a_node17"><a xlink:href="interfaceSCR__EditAttributesEditorUIComponent.html" target="_top" xlink:title=" ">
<polygon fill="white" stroke="#666666" points="708.5,-1056.5 581.5,-1056.5 581.5,-1026.5 708.5,-1026.5 708.5,-1056.5"/>
<text text-anchor="start" x="589.5" y="-1044.5" font-family="Helvetica,sans-Serif" font-size="10.00">SCR_EditAttributesEditor</text>
<text text-anchor="middle" x="645" y="-1033.5" font-family="Helvetica,sans-Serif" font-size="10.00">UIComponent</text>
</a>
</g>
</g>
<!-- Node5&#45;&gt;Node32 -->
<g id="edge16" class="edge">
<title>Node5&#45;&gt;Node32</title>
<path fill="none" stroke="#63b8ff" d="M506.41,-879.88C508.37,-881.29 510.24,-882.83 512,-884.5 556.43,-926.64 504.28,-974.62 548,-1017.5 557.08,-1026.4 568.93,-1032.16 581.19,-1035.85"/>
<polygon fill="#63b8ff" stroke="#63b8ff" points="508.68,-876.56 498.3,-874.43 505.09,-882.57 508.68,-876.56"/>
</g>
<!-- Node33 -->
<g id="node18" class="node">
<title>Node33</title>
<g id="a_node18"><a xlink:href="interfaceSCR__EditableEntitySlotManagerUIComponent.html" target="_top" xlink:title=" ">
<polygon fill="#fff0f0" stroke="red" points="724,-1008.5 566,-1008.5 566,-978.5 724,-978.5 724,-1008.5"/>
<text text-anchor="start" x="574" y="-996.5" font-family="Helvetica,sans-Serif" font-size="10.00">SCR_EditableEntitySlotManager</text>
<text text-anchor="middle" x="645" y="-985.5" font-family="Helvetica,sans-Serif" font-size="10.00">UIComponent</text>
</a>
</g>
</g>
<!-- Node5&#45;&gt;Node33 -->
<g id="edge17" class="edge">
<title>Node5&#45;&gt;Node33</title>
<path fill="none" stroke="#63b8ff" d="M506.74,-880.61C508.56,-881.82 510.32,-883.11 512,-884.5 543.62,-910.64 516.82,-942.83 548,-969.5 553.35,-974.08 559.45,-977.81 565.92,-980.84"/>
<polygon fill="#63b8ff" stroke="#63b8ff" points="508.59,-877.08 498.15,-875.29 505.2,-883.2 508.59,-877.08"/>
</g>
<!-- Node35 -->
<g id="node19" class="node">
<title>Node35</title>
<g id="a_node19"><a xlink:href="interfaceSCR__EditorStateConditionUIComponent.html" target="_top" xlink:title=" ">
<polygon fill="white" stroke="#666666" points="710.5,-960.5 579.5,-960.5 579.5,-930.5 710.5,-930.5 710.5,-960.5"/>
<text text-anchor="start" x="587.5" y="-948.5" font-family="Helvetica,sans-Serif" font-size="10.00">SCR_EditorStateCondition</text>
<text text-anchor="middle" x="645" y="-937.5" font-family="Helvetica,sans-Serif" font-size="10.00">UIComponent</text>
</a>
</g>
</g>
<!-- Node5&#45;&gt;Node35 -->
<g id="edge18" class="edge">
<title>Node5&#45;&gt;Node35</title>
<path fill="none" stroke="#63b8ff" d="M500.43,-879.02C504.43,-880.64 508.32,-882.46 512,-884.5 532.08,-895.61 528.11,-910.06 548,-921.5 557.53,-926.98 568.3,-931.22 579.08,-934.5"/>
<polygon fill="#63b8ff" stroke="#63b8ff" points="501.89,-875.46 491.3,-875.37 499.52,-882.05 501.89,-875.46"/>
</g>
<!-- Node36 -->
<g id="node20" class="node">
<title>Node36</title>
<g id="a_node20"><a xlink:href="interfaceSCR__HideEditorUIComponent.html" target="_top" xlink:title=" ">
<polygon fill="white" stroke="#666666" points="718,-912 572,-912 572,-893 718,-893 718,-912"/>
<text text-anchor="middle" x="645" y="-900" font-family="Helvetica,sans-Serif" font-size="10.00">SCR_HideEditorUIComponent</text>
</a>
</g>
</g>
<!-- Node5&#45;&gt;Node36 -->
<g id="edge19" class="edge">
<title>Node5&#45;&gt;Node36</title>
<path fill="none" stroke="#63b8ff" d="M493.45,-877.24C522.75,-882.15 556.44,-887.81 584.51,-892.52"/>
<polygon fill="#63b8ff" stroke="#63b8ff" points="494.32,-873.67 483.88,-875.46 493.16,-880.57 494.32,-873.67"/>
</g>
<!-- Node37 -->
<g id="node21" class="node">
<title>Node37</title>
<g id="a_node21"><a xlink:href="interfaceSCR__LayerAutoEnterUIComponent.html" target="_top" xlink:title=" ">
<polygon fill="white" stroke="#666666" points="729,-875 561,-875 561,-856 729,-856 729,-875"/>
<text text-anchor="middle" x="645" y="-863" font-family="Helvetica,sans-Serif" font-size="10.00">SCR_LayerAutoEnterUIComponent</text>
</a>
</g>
</g>
<!-- Node5&#45;&gt;Node37 -->
<g id="edge20" class="edge">
<title>Node5&#45;&gt;Node37</title>
<path fill="none" stroke="#63b8ff" d="M507.9,-865.5C525.26,-865.5 543.52,-865.5 560.83,-865.5"/>
<polygon fill="#63b8ff" stroke="#63b8ff" points="508.23,-862 498.23,-865.5 508.23,-869 508.23,-862"/>
</g>
<!-- Node38 -->
<g id="node22" class="node">
<title>Node38</title>
<g id="a_node22"><a xlink:href="interfaceSCR__LayersEditorUIComponent.html" target="_top" xlink:title="Creates the elements for the layer Ui menu If a Layer is selected this menu will show which layer is ...">
<polygon fill="white" stroke="#666666" points="722.5,-838 567.5,-838 567.5,-819 722.5,-819 722.5,-838"/>
<text text-anchor="middle" x="645" y="-826" font-family="Helvetica,sans-Serif" font-size="10.00">SCR_LayersEditorUIComponent</text>
</a>
</g>
</g>
<!-- Node5&#45;&gt;Node38 -->
<g id="edge21" class="edge">
<title>Node5&#45;&gt;Node38</title>
<path fill="none" stroke="#63b8ff" d="M493.45,-853.76C522.75,-848.85 556.44,-843.19 584.51,-838.48"/>
<polygon fill="#63b8ff" stroke="#63b8ff" points="493.16,-850.43 483.88,-855.54 494.32,-857.33 493.16,-850.43"/>
</g>
<!-- Node39 -->
<g id="node23" class="node">
<title>Node39</title>
<g id="a_node23"><a xlink:href="interfaceSCR__MapEditorUIComponent.html" target="_top" xlink:title=" ">
<polygon fill="white" stroke="#666666" points="717.5,-801 572.5,-801 572.5,-782 717.5,-782 717.5,-801"/>
<text text-anchor="middle" x="645" y="-789" font-family="Helvetica,sans-Serif" font-size="10.00">SCR_MapEditorUIComponent</text>
</a>
</g>
</g>
<!-- Node5&#45;&gt;Node39 -->
<g id="edge22" class="edge">
<title>Node5&#45;&gt;Node39</title>
<path fill="none" stroke="#63b8ff" d="M451.89,-850.79C476.69,-838.48 513.93,-821.25 548,-810.5 559.18,-806.97 571.31,-803.97 583.06,-801.46"/>
<polygon fill="#63b8ff" stroke="#63b8ff" points="450.76,-847.95 443.4,-855.57 453.9,-854.2 450.76,-847.95"/>
</g>
<!-- Node40 -->
<g id="node24" class="node">
<title>Node40</title>
<g id="a_node24"><a xlink:href="interfaceSCR__MouseAreaEditorUIComponent.html" target="_top" xlink:title=" ">
<polygon fill="white" stroke="#666666" points="733,-764 557,-764 557,-745 733,-745 733,-764"/>
<text text-anchor="middle" x="645" y="-752" font-family="Helvetica,sans-Serif" font-size="10.00">SCR_MouseAreaEditorUIComponent</text>
</a>
</g>
</g>
<!-- Node5&#45;&gt;Node40 -->
<g id="edge23" class="edge">
<title>Node5&#45;&gt;Node40</title>
<path fill="none" stroke="#63b8ff" d="M441.25,-848.33C464.04,-827.3 505.71,-792.18 548,-773.5 556.31,-769.83 565.35,-766.86 574.43,-764.46"/>
<polygon fill="#63b8ff" stroke="#63b8ff" points="439.37,-845.23 434.48,-854.63 444.16,-850.33 439.37,-845.23"/>
</g>
<!-- Node41 -->
<g id="node25" class="node">
<title>Node41</title>
<g id="a_node25"><a xlink:href="interfaceSCR__PingEditorUIComponent.html" target="_top" xlink:title=" ">
<polygon fill="white" stroke="#666666" points="718,-727 572,-727 572,-708 718,-708 718,-727"/>
<text text-anchor="middle" x="645" y="-715" font-family="Helvetica,sans-Serif" font-size="10.00">SCR_PingEditorUIComponent</text>
</a>
</g>
</g>
<!-- Node5&#45;&gt;Node41 -->
<g id="edge24" class="edge">
<title>Node5&#45;&gt;Node41</title>
<path fill="none" stroke="#63b8ff" d="M435.77,-846.84C455.69,-818.2 497.89,-763.83 548,-736.5 555.31,-732.51 563.34,-729.36 571.54,-726.86"/>
<polygon fill="#63b8ff" stroke="#63b8ff" points="432.4,-844.58 429.69,-854.82 438.2,-848.51 432.4,-844.58"/>
</g>
<!-- Node42 -->
<g id="node26" class="node">
<title>Node42</title>
<g id="a_node26"><a xlink:href="interfaceSCR__PlayerHubWarningEditorUIComponent.html" target="_top" xlink:title=" ">
<polygon fill="white" stroke="#666666" points="719.5,-689.5 570.5,-689.5 570.5,-659.5 719.5,-659.5 719.5,-689.5"/>
<text text-anchor="start" x="578.5" y="-677.5" font-family="Helvetica,sans-Serif" font-size="10.00">SCR_PlayerHubWarningEditor</text>
<text text-anchor="middle" x="645" y="-666.5" font-family="Helvetica,sans-Serif" font-size="10.00">UIComponent</text>
</a>
</g>
</g>
<!-- Node5&#45;&gt;Node42 -->
<g id="edge25" class="edge">
<title>Node5&#45;&gt;Node42</title>
<path fill="none" stroke="#63b8ff" d="M432.39,-846.36C449.59,-811.54 490.8,-737.88 548,-699.5 554.86,-694.89 562.53,-691.14 570.45,-688.07"/>
<polygon fill="#63b8ff" stroke="#63b8ff" points="429.02,-844.31 427.84,-854.84 435.32,-847.35 429.02,-844.31"/>
</g>
<!-- Node43 -->
<g id="node27" class="node">
<title>Node43</title>
<g id="a_node27"><a xlink:href="interfaceSCR__PlayersListEditorUIComponent.html" target="_top" xlink:title=" ">
<polygon fill="white" stroke="#666666" points="732.5,-641 557.5,-641 557.5,-622 732.5,-622 732.5,-641"/>
<text text-anchor="middle" x="645" y="-629" font-family="Helvetica,sans-Serif" font-size="10.00">SCR_PlayersListEditorUIComponent</text>
</a>
</g>
</g>
<!-- Node5&#45;&gt;Node43 -->
<g id="edge26" class="edge">
<title>Node5&#45;&gt;Node43</title>
<path fill="none" stroke="#63b8ff" d="M429.01,-845.27C441.91,-801.98 478.4,-700.26 548,-650.5 553.11,-646.84 558.75,-643.85 564.66,-641.4"/>
<polygon fill="#63b8ff" stroke="#63b8ff" points="425.37,-844.26 425.99,-854.84 432.1,-846.19 425.37,-844.26"/>
</g>
<!-- Node44 -->
<g id="node28" class="node">
<title>Node44</title>
<g id="a_node28"><a xlink:href="interfaceSCR__PreviewEntityEditorUIComponent.html" target="_top" xlink:title=" ">
<polygon fill="#fff0f0" stroke="red" points="737.5,-604 552.5,-604 552.5,-585 737.5,-585 737.5,-604"/>
<text text-anchor="middle" x="645" y="-592" font-family="Helvetica,sans-Serif" font-size="10.00">SCR_PreviewEntityEditorUIComponent</text>
</a>
</g>
</g>
<!-- Node5&#45;&gt;Node44 -->
<g id="edge27" class="edge">
<title>Node5&#45;&gt;Node44</title>
<path fill="none" stroke="#63b8ff" d="M427.28,-844.85C437.36,-796.11 469.61,-673.55 548,-613.5 552.72,-609.88 557.95,-606.9 563.45,-604.45"/>
<polygon fill="#63b8ff" stroke="#63b8ff" points="423.67,-844.08 425.19,-854.56 430.54,-845.42 423.67,-844.08"/>
</g>
<!-- Node47 -->
<g id="node29" class="node">
<title>Node47</title>
<g id="a_node29"><a xlink:href="interfaceSCR__QuickPlacingEditorUIComponent.html" target="_top" xlink:title=" ">
<polygon fill="white" stroke="#666666" points="737,-567 553,-567 553,-548 737,-548 737,-567"/>
<text text-anchor="middle" x="645" y="-555" font-family="Helvetica,sans-Serif" font-size="10.00">SCR_QuickPlacingEditorUIComponent</text>
</a>
</g>
</g>
<!-- Node5&#45;&gt;Node47 -->
<g id="edge28" class="edge">
<title>Node5&#45;&gt;Node47</title>
<path fill="none" stroke="#63b8ff" d="M425.88,-844.79C433.2,-791.21 460.49,-647.22 548,-576.5 552.49,-572.87 557.49,-569.87 562.77,-567.39"/>
<polygon fill="#63b8ff" stroke="#63b8ff" points="422.3,-844.23 424.51,-854.6 429.24,-845.11 422.3,-844.23"/>
</g>
<!-- Node48 -->
<g id="node30" class="node">
<title>Node48</title>
<g id="a_node30"><a xlink:href="interfaceSCR__SelectionEditorUIComponent.html" target="_top" xlink:title=" ">
<polygon fill="white" stroke="#666666" points="728.5,-530 561.5,-530 561.5,-511 728.5,-511 728.5,-530"/>
<text text-anchor="middle" x="645" y="-518" font-family="Helvetica,sans-Serif" font-size="10.00">SCR_SelectionEditorUIComponent</text>
</a>
</g>
</g>
<!-- Node5&#45;&gt;Node48 -->
<g id="edge29" class="edge">
<title>Node5&#45;&gt;Node48</title>
<path fill="none" stroke="#63b8ff" d="M424.75,-844.93C429.45,-786.96 451.15,-621.19 548,-539.5 552.29,-535.89 557.06,-532.89 562.13,-530.41"/>
<polygon fill="#63b8ff" stroke="#63b8ff" points="421.21,-844.37 423.99,-854.59 428.19,-844.87 421.21,-844.37"/>
</g>
<!-- Node49 -->
<g id="node31" class="node">
<title>Node49</title>
<g id="a_node31"><a xlink:href="interfaceSCR__TooltipAreaEditorUIComponent.html" target="_top" xlink:title=" ">
<polygon fill="white" stroke="#666666" points="732.5,-493 557.5,-493 557.5,-474 732.5,-474 732.5,-493"/>
<text text-anchor="middle" x="645" y="-481" font-family="Helvetica,sans-Serif" font-size="10.00">SCR_TooltipAreaEditorUIComponent</text>
</a>
</g>
</g>
<!-- Node5&#45;&gt;Node49 -->
<g id="edge30" class="edge">
<title>Node5&#45;&gt;Node49</title>
<path fill="none" stroke="#63b8ff" d="M423.85,-845.14C426.07,-783.16 441.68,-595.36 548,-502.5 552.09,-498.92 556.67,-495.94 561.53,-493.47"/>
<polygon fill="#63b8ff" stroke="#63b8ff" points="420.33,-844.7 423.56,-854.79 427.33,-844.89 420.33,-844.7"/>
</g>
<!-- Node50 -->
<g id="node32" class="node">
<title>Node50</title>
<g id="a_node32"><a xlink:href="interfaceSCR__TooltipManagerEditorUIComponent.html" target="_top" xlink:title=" ">
<polygon fill="white" stroke="#666666" points="712,-455.5 578,-455.5 578,-425.5 712,-425.5 712,-455.5"/>
<text text-anchor="start" x="586" y="-443.5" font-family="Helvetica,sans-Serif" font-size="10.00">SCR_TooltipManagerEditor</text>
<text text-anchor="middle" x="645" y="-432.5" font-family="Helvetica,sans-Serif" font-size="10.00">UIComponent</text>
</a>
</g>
</g>
<!-- Node5&#45;&gt;Node50 -->
<g id="edge31" class="edge">
<title>Node5&#45;&gt;Node50</title>
<path fill="none" stroke="#63b8ff" d="M423.37,-844.72C424.13,-778.83 435.78,-572.57 548,-465.5 556.35,-457.53 566.9,-452.03 577.94,-448.23"/>
<polygon fill="#63b8ff" stroke="#63b8ff" points="419.87,-844.64 423.33,-854.65 426.87,-844.66 419.87,-844.64"/>
</g>
<!-- Node51 -->
<g id="node33" class="node">
<title>Node51</title>
<g id="a_node33"><a xlink:href="interfaceSCR__WaypointLinesEditorUIComponent.html" target="_top" xlink:title=" ">
<polygon fill="white" stroke="#666666" points="740.5,-407 549.5,-407 549.5,-388 740.5,-388 740.5,-407"/>
<text text-anchor="middle" x="645" y="-395" font-family="Helvetica,sans-Serif" font-size="10.00">SCR_WaypointLinesEditorUIComponent</text>
</a>
</g>
</g>
<!-- Node5&#45;&gt;Node51 -->
<g id="edge32" class="edge">
<title>Node5&#45;&gt;Node51</title>
<path fill="none" stroke="#63b8ff" d="M426.29,-845.16C437.63,-765.63 482.7,-477.07 548,-416.5 551.86,-412.92 556.2,-409.93 560.83,-407.43"/>
<polygon fill="#63b8ff" stroke="#63b8ff" points="422.74,-844.31 424.82,-854.7 429.67,-845.28 422.74,-844.31"/>
</g>
<!-- Node53 -->
<g id="node35" class="node">
<title>Node53</title>
<g id="a_node35"><a xlink:href="interfaceSCR__AdminModeEditorUIComponent.html" target="_top" xlink:title=" ">
<polygon fill="white" stroke="#666666" points="734,-370 556,-370 556,-351 734,-351 734,-370"/>
<text text-anchor="middle" x="645" y="-358" font-family="Helvetica,sans-Serif" font-size="10.00">SCR_AdminModeEditorUIComponent</text>
</a>
</g>
</g>
<!-- Node52&#45;&gt;Node53 -->
<g id="edge34" class="edge">
<title>Node52&#45;&gt;Node53</title>
<path fill="none" stroke="#63b8ff" d="M463.94,-318.68C488.16,-326.27 519.65,-335.65 548,-342.5 560.03,-345.41 573.01,-348.12 585.41,-350.51"/>
<polygon fill="#63b8ff" stroke="#63b8ff" points="465.3,-315.12 454.71,-315.43 463.18,-321.79 465.3,-315.12"/>
</g>
<!-- Node54 -->
<g id="node36" class="node">
<title>Node54</title>
<g id="a_node36"><a xlink:href="interfaceSCR__CommandModeEditorUIComponent.html" target="_top" xlink:title=" ">
<polygon fill="white" stroke="#666666" points="742,-333 548,-333 548,-314 742,-314 742,-333"/>
<text text-anchor="middle" x="645" y="-321" font-family="Helvetica,sans-Serif" font-size="10.00">SCR_CommandModeEditorUIComponent</text>
</a>
</g>
</g>
<!-- Node52&#45;&gt;Node54 -->
<g id="edge35" class="edge">
<title>Node52&#45;&gt;Node54</title>
<path fill="none" stroke="#63b8ff" d="M520.08,-313.38C529.26,-314.13 538.57,-314.89 547.75,-315.64"/>
<polygon fill="#63b8ff" stroke="#63b8ff" points="520.63,-309.84 510.38,-312.51 520.06,-316.81 520.63,-309.84"/>
</g>
<!-- Node55 -->
<g id="node37" class="node">
<title>Node55</title>
<g id="a_node37"><a xlink:href="interfaceSCR__EditModeEditorUIComponent.html" target="_top" xlink:title=" ">
<polygon fill="white" stroke="#666666" points="728.5,-296 561.5,-296 561.5,-277 728.5,-277 728.5,-296"/>
<text text-anchor="middle" x="645" y="-284" font-family="Helvetica,sans-Serif" font-size="10.00">SCR_EditModeEditorUIComponent</text>
</a>
</g>
</g>
<!-- Node52&#45;&gt;Node55 -->
<g id="edge36" class="edge">
<title>Node52&#45;&gt;Node55</title>
<path fill="none" stroke="#63b8ff" d="M520.26,-297.16C533.93,-295.98 547.88,-294.78 561.24,-293.63"/>
<polygon fill="#63b8ff" stroke="#63b8ff" points="520.05,-293.75 510.38,-298.1 520.65,-300.73 520.05,-293.75"/>
</g>
<!-- Node56 -->
<g id="node38" class="node">
<title>Node56</title>
<g id="a_node38"><a xlink:href="interfaceSCR__PhotoModeEditorUIComponent.html" target="_top" xlink:title=" ">
<polygon fill="white" stroke="#666666" points="733,-259 557,-259 557,-240 733,-240 733,-259"/>
<text text-anchor="middle" x="645" y="-247" font-family="Helvetica,sans-Serif" font-size="10.00">SCR_PhotoModeEditorUIComponent</text>
</a>
</g>
</g>
<!-- Node52&#45;&gt;Node56 -->
<g id="edge37" class="edge">
<title>Node52&#45;&gt;Node56</title>
<path fill="none" stroke="#63b8ff" d="M494.76,-292.87C500.65,-291.26 506.46,-289.48 512,-287.5 529.04,-281.41 530.95,-274.54 548,-268.5 558.17,-264.9 569.2,-261.91 580.04,-259.46"/>
<polygon fill="#63b8ff" stroke="#63b8ff" points="493.95,-289.72 485.12,-295.57 495.67,-296.5 493.95,-289.72"/>
</g>
<!-- Node57 -->
<g id="node39" class="node">
<title>Node57</title>
<g id="a_node39"><a xlink:href="interfaceSCR__SpectateModeEditorUIComponent.html" target="_top" xlink:title=" ">
<polygon fill="white" stroke="#666666" points="739.5,-222 550.5,-222 550.5,-203 739.5,-203 739.5,-222"/>
<text text-anchor="middle" x="645" y="-210" font-family="Helvetica,sans-Serif" font-size="10.00">SCR_SpectateModeEditorUIComponent</text>
</a>
</g>
</g>
<!-- Node52&#45;&gt;Node57 -->
<g id="edge38" class="edge">
<title>Node52&#45;&gt;Node57</title>
<path fill="none" stroke="#63b8ff" d="M506.59,-290.86C508.44,-289.81 510.25,-288.7 512,-287.5 536.42,-270.79 523.54,-248.14 548,-231.5 553.34,-227.87 559.21,-224.9 565.33,-222.47"/>
<polygon fill="#63b8ff" stroke="#63b8ff" points="505.4,-288.03 497.92,-295.53 508.45,-294.33 505.4,-288.03"/>
</g>
<!-- Node59 -->
<g id="node41" class="node">
<title>Node59</title>
<g id="a_node41"><a xlink:href="interfaceSCR__ContentBrowserEditorUIComponent.html" target="_top" xlink:title="The Content Browser Window in the Content Browser Dialog.">
<polygon fill="white" stroke="#666666" points="713.5,-184.5 576.5,-184.5 576.5,-154.5 713.5,-154.5 713.5,-184.5"/>
<text text-anchor="start" x="584.5" y="-172.5" font-family="Helvetica,sans-Serif" font-size="10.00">SCR_ContentBrowserEditor</text>
<text text-anchor="middle" x="645" y="-161.5" font-family="Helvetica,sans-Serif" font-size="10.00">UIComponent</text>
</a>
</g>
</g>
<!-- Node58&#45;&gt;Node59 -->
<g id="edge40" class="edge">
<title>Node58&#45;&gt;Node59</title>
<path fill="none" stroke="#63b8ff" d="M506.6,-253.88C508.45,-252.83 510.26,-251.7 512,-250.5 536.66,-233.48 523.72,-211.06 548,-193.5 556.35,-187.46 566.06,-182.93 576.04,-179.54"/>
<polygon fill="#63b8ff" stroke="#63b8ff" points="505.41,-251.05 497.95,-258.57 508.47,-257.35 505.41,-251.05"/>
</g>
<!-- Node60 -->
<g id="node42" class="node">
<title>Node60</title>
<g id="a_node42"><a xlink:href="interfaceSCR__ExternalPaginationUIComponent.html" target="_top" xlink:title=" ">
<polygon fill="white" stroke="#666666" points="736,-136 554,-136 554,-117 736,-117 736,-136"/>
<text text-anchor="middle" x="645" y="-124" font-family="Helvetica,sans-Serif" font-size="10.00">SCR_ExternalPaginationUIComponent</text>
</a>
</g>
</g>
<!-- Node58&#45;&gt;Node60 -->
<g id="edge41" class="edge">
<title>Node58&#45;&gt;Node60</title>
<path fill="none" stroke="#63b8ff" d="M509.19,-252.81C510.15,-252.07 511.09,-251.3 512,-250.5 549.07,-217.95 510.84,-177.95 548,-145.5 552.09,-141.92 556.67,-138.94 561.53,-136.47"/>
<polygon fill="#63b8ff" stroke="#63b8ff" points="507.53,-250.35 500.96,-258.66 511.28,-256.26 507.53,-250.35"/>
</g>
</g>
</svg>
