<?xml version="1.0" encoding="UTF-8" standalone="no"?>
<!DOCTYPE svg PUBLIC "-//W3C//DTD SVG 1.1//EN"
 "http://www.w3.org/Graphics/SVG/1.1/DTD/svg11.dtd">
<!-- Generated by graphviz version 8.0.2 (20230410.1723)
 -->
<!-- Title: Music Pages: 1 -->
<svg width="615pt" height="261pt"
 viewBox="0.00 0.00 615.00 261.00" xmlns="http://www.w3.org/2000/svg" xmlns:xlink="http://www.w3.org/1999/xlink">
<g id="graph0" class="graph" transform="scale(1 1) rotate(0) translate(4 257)">
<title>Music</title>
<!-- Node1 -->
<g id="node1" class="node">
<title>Node1</title>
<g id="a_node1"><a xlink:title=" ">
<polygon fill="#999999" stroke="#666666" points="165,-136 122,-136 122,-117 165,-117 165,-136"/>
<text text-anchor="middle" x="143.5" y="-124" font-family="Helvetica,sans-Serif" font-size="10.00">Music</text>
</a>
</g>
</g>
<!-- Node3 -->
<g id="node3" class="node">
<title>Node3</title>
<g id="a_node3"><a xlink:href="interfaceScriptedMusic.html" target="_top" xlink:title=" ">
<polygon fill="white" stroke="#666666" points="280,-136 201,-136 201,-117 280,-117 280,-136"/>
<text text-anchor="middle" x="240.5" y="-124" font-family="Helvetica,sans-Serif" font-size="10.00">ScriptedMusic</text>
</a>
</g>
</g>
<!-- Node1&#45;&gt;Node3 -->
<g id="edge2" class="edge">
<title>Node1&#45;&gt;Node3</title>
<path fill="none" stroke="#63b8ff" d="M176.03,-126.5C183.88,-126.5 192.38,-126.5 200.55,-126.5"/>
<polygon fill="#63b8ff" stroke="#63b8ff" points="176.11,-123 166.11,-126.5 176.11,-130 176.11,-123"/>
</g>
<!-- Node2 -->
<g id="node2" class="node">
<title>Node2</title>
<g id="a_node2"><a xlink:title=" ">
<polygon fill="white" stroke="#666666" points="86,-136 0,-136 0,-117 86,-117 86,-136"/>
<text text-anchor="middle" x="43" y="-124" font-family="Helvetica,sans-Serif" font-size="10.00">ScriptAndConfig</text>
</a>
</g>
</g>
<!-- Node2&#45;&gt;Node1 -->
<g id="edge1" class="edge">
<title>Node2&#45;&gt;Node1</title>
<path fill="none" stroke="#63b8ff" d="M97.28,-126.5C105.91,-126.5 114.38,-126.5 121.6,-126.5"/>
<polygon fill="#63b8ff" stroke="#63b8ff" points="97.34,-123 87.34,-126.5 97.34,-130 97.34,-123"/>
</g>
<!-- Node4 -->
<g id="node4" class="node">
<title>Node4</title>
<g id="a_node4"><a xlink:href="interfaceLocationMusic.html" target="_top" xlink:title=" ">
<polygon fill="white" stroke="#666666" points="431,-253 351,-253 351,-234 431,-234 431,-253"/>
<text text-anchor="middle" x="391" y="-241" font-family="Helvetica,sans-Serif" font-size="10.00">LocationMusic</text>
</a>
</g>
</g>
<!-- Node3&#45;&gt;Node4 -->
<g id="edge3" class="edge">
<title>Node3&#45;&gt;Node4</title>
<path fill="none" stroke="#63b8ff" d="M251.16,-146.06C263.23,-168.45 286.01,-204.59 316,-224.5 326.28,-231.32 338.85,-235.7 350.7,-238.5"/>
<polygon fill="#63b8ff" stroke="#63b8ff" points="253.81,-144.58 246.11,-137.31 247.6,-147.8 253.81,-144.58"/>
</g>
<!-- Node6 -->
<g id="node6" class="node">
<title>Node6</title>
<g id="a_node6"><a xlink:href="interfaceSCR__BaseCaptureMusic.html" target="_top" xlink:title=" ">
<polygon fill="white" stroke="#666666" points="453.5,-216 328.5,-216 328.5,-197 453.5,-197 453.5,-216"/>
<text text-anchor="middle" x="391" y="-204" font-family="Helvetica,sans-Serif" font-size="10.00">SCR_BaseCaptureMusic</text>
</a>
</g>
</g>
<!-- Node3&#45;&gt;Node6 -->
<g id="edge5" class="edge">
<title>Node3&#45;&gt;Node6</title>
<path fill="none" stroke="#63b8ff" d="M258.08,-143.72C272.25,-157.48 293.81,-176.26 316,-187.5 323.22,-191.16 331.2,-194.15 339.17,-196.58"/>
<polygon fill="#63b8ff" stroke="#63b8ff" points="261.19,-141.88 251.64,-137.29 256.24,-146.84 261.19,-141.88"/>
</g>
<!-- Node7 -->
<g id="node7" class="node">
<title>Node7</title>
<g id="a_node7"><a xlink:href="interfaceSCR__DeathMusic.html" target="_top" xlink:title=" ">
<polygon fill="white" stroke="#666666" points="438,-179 344,-179 344,-160 438,-160 438,-179"/>
<text text-anchor="middle" x="391" y="-167" font-family="Helvetica,sans-Serif" font-size="10.00">SCR_DeathMusic</text>
</a>
</g>
</g>
<!-- Node3&#45;&gt;Node7 -->
<g id="edge6" class="edge">
<title>Node3&#45;&gt;Node7</title>
<path fill="none" stroke="#63b8ff" d="M281.42,-139.85C292.57,-143.45 304.72,-147.24 316,-150.5 326.83,-153.63 338.63,-156.78 349.55,-159.59"/>
<polygon fill="#63b8ff" stroke="#63b8ff" points="282.69,-136.26 272.1,-136.49 280.53,-142.91 282.69,-136.26"/>
</g>
<!-- Node8 -->
<g id="node8" class="node">
<title>Node8</title>
<g id="a_node8"><a xlink:href="interfaceSCR__EnterEnemyMilitaryBaseMusic.html" target="_top" xlink:title=" ">
<polygon fill="white" stroke="#666666" points="466,-141.5 316,-141.5 316,-111.5 466,-111.5 466,-141.5"/>
<text text-anchor="start" x="324" y="-129.5" font-family="Helvetica,sans-Serif" font-size="10.00">SCR_EnterEnemyMilitaryBase</text>
<text text-anchor="middle" x="391" y="-118.5" font-family="Helvetica,sans-Serif" font-size="10.00">Music</text>
</a>
</g>
</g>
<!-- Node3&#45;&gt;Node8 -->
<g id="edge7" class="edge">
<title>Node3&#45;&gt;Node8</title>
<path fill="none" stroke="#63b8ff" d="M290.99,-126.5C298.9,-126.5 307.23,-126.5 315.57,-126.5"/>
<polygon fill="#63b8ff" stroke="#63b8ff" points="291.13,-123 281.13,-126.5 291.13,-130 291.13,-123"/>
</g>
<!-- Node9 -->
<g id="node9" class="node">
<title>Node9</title>
<g id="a_node9"><a xlink:href="interfaceSCR__GameEndMusic.html" target="_top" xlink:title=" ">
<polygon fill="white" stroke="#666666" points="447,-93 335,-93 335,-74 447,-74 447,-93"/>
<text text-anchor="middle" x="391" y="-81" font-family="Helvetica,sans-Serif" font-size="10.00">SCR_GameEndMusic</text>
</a>
</g>
</g>
<!-- Node3&#45;&gt;Node9 -->
<g id="edge8" class="edge">
<title>Node3&#45;&gt;Node9</title>
<path fill="none" stroke="#63b8ff" d="M281.42,-113.15C292.57,-109.55 304.72,-105.76 316,-102.5 326.83,-99.37 338.63,-96.22 349.55,-93.41"/>
<polygon fill="#63b8ff" stroke="#63b8ff" points="280.53,-110.09 272.1,-116.51 282.69,-116.74 280.53,-110.09"/>
</g>
<!-- Node10 -->
<g id="node10" class="node">
<title>Node10</title>
<g id="a_node10"><a xlink:href="interfaceSCR__RespawnMusic.html" target="_top" xlink:title=" ">
<polygon fill="white" stroke="#666666" points="445,-56 337,-56 337,-37 445,-37 445,-56"/>
<text text-anchor="middle" x="391" y="-44" font-family="Helvetica,sans-Serif" font-size="10.00">SCR_RespawnMusic</text>
</a>
</g>
</g>
<!-- Node3&#45;&gt;Node10 -->
<g id="edge9" class="edge">
<title>Node3&#45;&gt;Node10</title>
<path fill="none" stroke="#63b8ff" d="M257.51,-109.38C271.62,-95.31 293.38,-75.88 316,-64.5 322.5,-61.23 329.62,-58.53 336.79,-56.32"/>
<polygon fill="#63b8ff" stroke="#63b8ff" points="255.61,-106.34 251.15,-115.95 260.63,-111.23 255.61,-106.34"/>
</g>
<!-- Node11 -->
<g id="node11" class="node">
<title>Node11</title>
<g id="a_node11"><a xlink:href="interfaceSCR__SpawnMusic.html" target="_top" xlink:title=" ">
<polygon fill="white" stroke="#666666" points="440,-19 342,-19 342,0 440,0 440,-19"/>
<text text-anchor="middle" x="391" y="-7" font-family="Helvetica,sans-Serif" font-size="10.00">SCR_SpawnMusic</text>
</a>
</g>
</g>
<!-- Node3&#45;&gt;Node11 -->
<g id="edge10" class="edge">
<title>Node3&#45;&gt;Node11</title>
<path fill="none" stroke="#63b8ff" d="M250.9,-106.98C262.84,-84.32 285.6,-47.51 316,-27.5 323.73,-22.41 332.77,-18.76 341.82,-16.14"/>
<polygon fill="#63b8ff" stroke="#63b8ff" points="247.45,-105.05 246.06,-115.55 253.69,-108.21 247.45,-105.05"/>
</g>
<!-- Node5 -->
<g id="node5" class="node">
<title>Node5</title>
<g id="a_node5"><a xlink:href="interfaceSCR__LocationMusic.html" target="_top" xlink:title=" ">
<polygon fill="white" stroke="#666666" points="607,-253 502,-253 502,-234 607,-234 607,-253"/>
<text text-anchor="middle" x="554.5" y="-241" font-family="Helvetica,sans-Serif" font-size="10.00">SCR_LocationMusic</text>
</a>
</g>
</g>
<!-- Node4&#45;&gt;Node5 -->
<g id="edge4" class="edge">
<title>Node4&#45;&gt;Node5</title>
<path fill="none" stroke="#63b8ff" d="M441.91,-243.5C460.87,-243.5 482.5,-243.5 501.64,-243.5"/>
<polygon fill="#63b8ff" stroke="#63b8ff" points="442.09,-240 432.09,-243.5 442.09,-247 442.09,-240"/>
</g>
</g>
</svg>
