<?xml version="1.0" encoding="UTF-8" standalone="no"?>
<!DOCTYPE svg PUBLIC "-//W3C//DTD SVG 1.1//EN"
 "http://www.w3.org/Graphics/SVG/1.1/DTD/svg11.dtd">
<!-- Generated by graphviz version 8.0.2 (20230410.1723)
 -->
<!-- Title: SCR_ResourceEncapsulatorDelegated Pages: 1 -->
<svg width="148pt" height="258pt"
 viewBox="0.00 0.00 148.00 258.00" xmlns="http://www.w3.org/2000/svg" xmlns:xlink="http://www.w3.org/1999/xlink">
<g id="graph0" class="graph" transform="scale(1 1) rotate(0) translate(4 254)">
<title>SCR_ResourceEncapsulatorDelegated</title>
<!-- Node1 -->
<g id="node1" class="node">
<title>Node1</title>
<g id="a_node1"><a xlink:title=" ">
<polygon fill="#999999" stroke="#666666" points="140,-30 0,-30 0,0 140,0 140,-30"/>
<text text-anchor="start" x="8" y="-18" font-family="Helvetica,sans-Serif" font-size="10.00">SCR_ResourceEncapsulator</text>
<text text-anchor="middle" x="70" y="-7" font-family="Helvetica,sans-Serif" font-size="10.00">Delegated</text>
</a>
</g>
</g>
<!-- Node2 -->
<g id="node2" class="node">
<title>Node2</title>
<g id="a_node2"><a xlink:href="interfaceSCR__ResourceEncapsulator.html" target="_top" xlink:title=" ">
<polygon fill="white" stroke="#666666" points="140,-85 0,-85 0,-66 140,-66 140,-85"/>
<text text-anchor="middle" x="70" y="-73" font-family="Helvetica,sans-Serif" font-size="10.00">SCR_ResourceEncapsulator</text>
</a>
</g>
</g>
<!-- Node2&#45;&gt;Node1 -->
<g id="edge1" class="edge">
<title>Node2&#45;&gt;Node1</title>
<path fill="none" stroke="#63b8ff" d="M70,-55.08C70,-46.92 70,-37.6 70,-30.11"/>
<polygon fill="#63b8ff" stroke="#63b8ff" points="66.5,-54.87 70,-64.87 73.5,-54.87 66.5,-54.87"/>
</g>
<!-- Node3 -->
<g id="node3" class="node">
<title>Node3</title>
<g id="a_node3"><a xlink:href="interfaceSCR__ResourceInteractor.html" target="_top" xlink:title=" ">
<polygon fill="white" stroke="#666666" points="132,-140 8,-140 8,-121 132,-121 132,-140"/>
<text text-anchor="middle" x="70" y="-128" font-family="Helvetica,sans-Serif" font-size="10.00">SCR_ResourceInteractor</text>
</a>
</g>
</g>
<!-- Node3&#45;&gt;Node2 -->
<g id="edge2" class="edge">
<title>Node3&#45;&gt;Node2</title>
<path fill="none" stroke="#63b8ff" d="M70,-109.93C70,-101.53 70,-92.13 70,-85.44"/>
<polygon fill="#63b8ff" stroke="#63b8ff" points="66.5,-109.75 70,-119.75 73.5,-109.75 66.5,-109.75"/>
</g>
<!-- Node4 -->
<g id="node4" class="node">
<title>Node4</title>
<g id="a_node4"><a xlink:href="interfaceSCR__ResourceActor.html" target="_top" xlink:title=" ">
<polygon fill="white" stroke="#666666" points="123.5,-195 16.5,-195 16.5,-176 123.5,-176 123.5,-195"/>
<text text-anchor="middle" x="70" y="-183" font-family="Helvetica,sans-Serif" font-size="10.00">SCR_ResourceActor</text>
</a>
</g>
</g>
<!-- Node4&#45;&gt;Node3 -->
<g id="edge3" class="edge">
<title>Node4&#45;&gt;Node3</title>
<path fill="none" stroke="#63b8ff" d="M70,-164.93C70,-156.53 70,-147.13 70,-140.44"/>
<polygon fill="#63b8ff" stroke="#63b8ff" points="66.5,-164.75 70,-174.75 73.5,-164.75 66.5,-164.75"/>
</g>
<!-- Node5 -->
<g id="node5" class="node">
<title>Node5</title>
<g id="a_node5"><a xlink:title=" ">
<polygon fill="white" stroke="#666666" points="113,-250 27,-250 27,-231 113,-231 113,-250"/>
<text text-anchor="middle" x="70" y="-238" font-family="Helvetica,sans-Serif" font-size="10.00">ScriptAndConfig</text>
</a>
</g>
</g>
<!-- Node5&#45;&gt;Node4 -->
<g id="edge4" class="edge">
<title>Node5&#45;&gt;Node4</title>
<path fill="none" stroke="#63b8ff" d="M70,-219.93C70,-211.53 70,-202.13 70,-195.44"/>
<polygon fill="#63b8ff" stroke="#63b8ff" points="66.5,-219.75 70,-229.75 73.5,-219.75 66.5,-219.75"/>
</g>
</g>
</svg>
