<?xml version="1.0" encoding="UTF-8" standalone="no"?>
<!DOCTYPE svg PUBLIC "-//W3C//DTD SVG 1.1//EN"
 "http://www.w3.org/Graphics/SVG/1.1/DTD/svg11.dtd">
<!-- Generated by graphviz version 8.0.2 (20230410.1723)
 -->
<!-- Title: SCR_SetEnableDamageVehicleEditorAttribute Pages: 1 -->
<svg width="175pt" height="280pt"
 viewBox="0.00 0.00 175.00 280.00" xmlns="http://www.w3.org/2000/svg" xmlns:xlink="http://www.w3.org/1999/xlink">
<g id="graph0" class="graph" transform="scale(1 1) rotate(0) translate(4 276)">
<title>SCR_SetEnableDamageVehicleEditorAttribute</title>
<!-- Node1 -->
<g id="node1" class="node">
<title>Node1</title>
<g id="a_node1"><a xlink:title=" ">
<polygon fill="#999999" stroke="#666666" points="161,-30 6,-30 6,0 161,0 161,-30"/>
<text text-anchor="start" x="14" y="-18" font-family="Helvetica,sans-Serif" font-size="10.00">SCR_SetEnableDamageVehicle</text>
<text text-anchor="middle" x="83.5" y="-7" font-family="Helvetica,sans-Serif" font-size="10.00">EditorAttribute</text>
</a>
</g>
</g>
<!-- Node2 -->
<g id="node2" class="node">
<title>Node2</title>
<g id="a_node2"><a xlink:href="interfaceSCR__SetEnableDamageEditorAttribute.html" target="_top" xlink:title=" ">
<polygon fill="white" stroke="#666666" points="158,-96 9,-96 9,-66 158,-66 158,-96"/>
<text text-anchor="start" x="17" y="-84" font-family="Helvetica,sans-Serif" font-size="10.00">SCR_SetEnableDamageEditor</text>
<text text-anchor="middle" x="83.5" y="-73" font-family="Helvetica,sans-Serif" font-size="10.00">Attribute</text>
</a>
</g>
</g>
<!-- Node2&#45;&gt;Node1 -->
<g id="edge1" class="edge">
<title>Node2&#45;&gt;Node1</title>
<path fill="none" stroke="#63b8ff" d="M83.5,-54.97C83.5,-46.55 83.5,-37.45 83.5,-30.16"/>
<polygon fill="#63b8ff" stroke="#63b8ff" points="80,-54.8 83.5,-64.8 87,-54.8 80,-54.8"/>
</g>
<!-- Node3 -->
<g id="node3" class="node">
<title>Node3</title>
<g id="a_node3"><a xlink:href="interfaceSCR__ValidTypeBaseValueListEditorAttribute.html" target="_top" xlink:title=" ">
<polygon fill="white" stroke="#666666" points="157.5,-162 9.5,-162 9.5,-132 157.5,-132 157.5,-162"/>
<text text-anchor="start" x="17.5" y="-150" font-family="Helvetica,sans-Serif" font-size="10.00">SCR_ValidTypeBaseValueList</text>
<text text-anchor="middle" x="83.5" y="-139" font-family="Helvetica,sans-Serif" font-size="10.00">EditorAttribute</text>
</a>
</g>
</g>
<!-- Node3&#45;&gt;Node2 -->
<g id="edge2" class="edge">
<title>Node3&#45;&gt;Node2</title>
<path fill="none" stroke="#63b8ff" d="M83.5,-120.97C83.5,-112.55 83.5,-103.45 83.5,-96.16"/>
<polygon fill="#63b8ff" stroke="#63b8ff" points="80,-120.8 83.5,-130.8 87,-120.8 80,-120.8"/>
</g>
<!-- Node4 -->
<g id="node4" class="node">
<title>Node4</title>
<g id="a_node4"><a xlink:href="interfaceSCR__BaseValueListEditorAttribute.html" target="_top" xlink:title="Attribute base for slider values for other attributes to inherent from.">
<polygon fill="white" stroke="#666666" points="167,-217 0,-217 0,-198 167,-198 167,-217"/>
<text text-anchor="middle" x="83.5" y="-205" font-family="Helvetica,sans-Serif" font-size="10.00">SCR_BaseValueListEditorAttribute</text>
</a>
</g>
</g>
<!-- Node4&#45;&gt;Node3 -->
<g id="edge3" class="edge">
<title>Node4&#45;&gt;Node3</title>
<path fill="none" stroke="#63b8ff" d="M83.5,-187.08C83.5,-178.92 83.5,-169.6 83.5,-162.11"/>
<polygon fill="#63b8ff" stroke="#63b8ff" points="80,-186.87 83.5,-196.87 87,-186.87 80,-186.87"/>
</g>
<!-- Node5 -->
<g id="node5" class="node">
<title>Node5</title>
<g id="a_node5"><a xlink:href="interfaceSCR__BaseEditorAttribute.html" target="_top" xlink:title="Base Attribute Script for other attributes to inherent from to get and set varriables in Editor Attri...">
<polygon fill="white" stroke="#666666" points="147,-272 20,-272 20,-253 147,-253 147,-272"/>
<text text-anchor="middle" x="83.5" y="-260" font-family="Helvetica,sans-Serif" font-size="10.00">SCR_BaseEditorAttribute</text>
</a>
</g>
</g>
<!-- Node5&#45;&gt;Node4 -->
<g id="edge4" class="edge">
<title>Node5&#45;&gt;Node4</title>
<path fill="none" stroke="#63b8ff" d="M83.5,-241.93C83.5,-233.53 83.5,-224.13 83.5,-217.44"/>
<polygon fill="#63b8ff" stroke="#63b8ff" points="80,-241.75 83.5,-251.75 87,-241.75 80,-241.75"/>
</g>
</g>
</svg>
