<?xml version="1.0" encoding="UTF-8" standalone="no"?>
<!DOCTYPE svg PUBLIC "-//W3C//DTD SVG 1.1//EN"
 "http://www.w3.org/Graphics/SVG/1.1/DTD/svg11.dtd">
<!-- Generated by graphviz version 8.0.2 (20230410.1723)
 -->
<!-- Title: SCR_DescriptorDefIcon Pages: 1 -->
<svg width="152pt" height="137pt"
 viewBox="0.00 0.00 152.00 137.00" xmlns="http://www.w3.org/2000/svg" xmlns:xlink="http://www.w3.org/1999/xlink">
<g id="graph0" class="graph" transform="scale(1 1) rotate(0) translate(4 133)">
<title>SCR_DescriptorDefIcon</title>
<!-- Node1 -->
<g id="node1" class="node">
<title>Node1</title>
<g id="a_node1"><a xlink:title="Descriptor icon type defaults.">
<polygon fill="#999999" stroke="#666666" points="131.5,-74 12.5,-74 12.5,-55 131.5,-55 131.5,-74"/>
<text text-anchor="middle" x="72" y="-62" font-family="Helvetica,sans-Serif" font-size="10.00">SCR_DescriptorDefIcon</text>
</a>
</g>
</g>
<!-- Node3 -->
<g id="node3" class="node">
<title>Node3</title>
<g id="a_node3"><a xlink:href="interfaceSCR__DescriptorDefIconText.html" target="_top" xlink:title="Descriptor icon with text type defaults.">
<polygon fill="white" stroke="#666666" points="140.5,-19 3.5,-19 3.5,0 140.5,0 140.5,-19"/>
<text text-anchor="middle" x="72" y="-7" font-family="Helvetica,sans-Serif" font-size="10.00">SCR_DescriptorDefIconText</text>
</a>
</g>
</g>
<!-- Node1&#45;&gt;Node3 -->
<g id="edge2" class="edge">
<title>Node1&#45;&gt;Node3</title>
<path fill="none" stroke="#63b8ff" d="M72,-43.93C72,-35.53 72,-26.13 72,-19.44"/>
<polygon fill="#63b8ff" stroke="#63b8ff" points="68.5,-43.75 72,-53.75 75.5,-43.75 68.5,-43.75"/>
</g>
<!-- Node2 -->
<g id="node2" class="node">
<title>Node2</title>
<g id="a_node2"><a xlink:href="interfaceSCR__DescriptorDefaultsBase.html" target="_top" xlink:title="Configuration of descriptor defaults.">
<polygon fill="white" stroke="#666666" points="144,-129 0,-129 0,-110 144,-110 144,-129"/>
<text text-anchor="middle" x="72" y="-117" font-family="Helvetica,sans-Serif" font-size="10.00">SCR_DescriptorDefaultsBase</text>
</a>
</g>
</g>
<!-- Node2&#45;&gt;Node1 -->
<g id="edge1" class="edge">
<title>Node2&#45;&gt;Node1</title>
<path fill="none" stroke="#63b8ff" d="M72,-98.93C72,-90.53 72,-81.13 72,-74.44"/>
<polygon fill="#63b8ff" stroke="#63b8ff" points="68.5,-98.75 72,-108.75 75.5,-98.75 68.5,-98.75"/>
</g>
</g>
</svg>
