<?xml version="1.0" encoding="UTF-8" standalone="no"?>
<!DOCTYPE svg PUBLIC "-//W3C//DTD SVG 1.1//EN"
 "http://www.w3.org/Graphics/SVG/1.1/DTD/svg11.dtd">
<!-- Generated by graphviz version 8.0.2 (20230410.1723)
 -->
<!-- Title: RegisteringComponentSlotInfo Pages: 1 -->
<svg width="256pt" height="192pt"
 viewBox="0.00 0.00 255.50 192.00" xmlns="http://www.w3.org/2000/svg" xmlns:xlink="http://www.w3.org/1999/xlink">
<g id="graph0" class="graph" transform="scale(1 1) rotate(0) translate(4 188)">
<title>RegisteringComponentSlotInfo</title>
<!-- Node1 -->
<g id="node1" class="node">
<title>Node1</title>
<g id="a_node1"><a xlink:title="Adds ability to register managers to parent entity.">
<polygon fill="#999999" stroke="#666666" points="203,-74 56,-74 56,-55 203,-55 203,-74"/>
<text text-anchor="middle" x="129.5" y="-62" font-family="Helvetica,sans-Serif" font-size="10.00">RegisteringComponentSlotInfo</text>
</a>
</g>
</g>
<!-- Node4 -->
<g id="node4" class="node">
<title>Node4</title>
<g id="a_node4"><a xlink:href="interfaceEmissiveLightSurfaceSlot.html" target="_top" xlink:title=" ">
<polygon fill="white" stroke="#666666" points="127,-19 0,-19 0,0 127,0 127,-19"/>
<text text-anchor="middle" x="63.5" y="-7" font-family="Helvetica,sans-Serif" font-size="10.00">EmissiveLightSurfaceSlot</text>
</a>
</g>
</g>
<!-- Node1&#45;&gt;Node4 -->
<g id="edge3" class="edge">
<title>Node1&#45;&gt;Node4</title>
<path fill="none" stroke="#63b8ff" d="M109.75,-47.64C98.23,-38.39 84.11,-27.05 74.53,-19.36"/>
<polygon fill="#63b8ff" stroke="#63b8ff" points="107.32,-50.98 117.3,-54.51 111.7,-45.52 107.32,-50.98"/>
</g>
<!-- Node5 -->
<g id="node5" class="node">
<title>Node5</title>
<g id="a_node5"><a xlink:href="interfaceSCR__WheelSlotInfo.html" target="_top" xlink:title=" ">
<polygon fill="white" stroke="#666666" points="247.5,-19 145.5,-19 145.5,0 247.5,0 247.5,-19"/>
<text text-anchor="middle" x="196.5" y="-7" font-family="Helvetica,sans-Serif" font-size="10.00">SCR_WheelSlotInfo</text>
</a>
</g>
</g>
<!-- Node1&#45;&gt;Node5 -->
<g id="edge4" class="edge">
<title>Node1&#45;&gt;Node5</title>
<path fill="none" stroke="#63b8ff" d="M149.2,-47.92C160.96,-38.61 175.48,-27.13 185.3,-19.36"/>
<polygon fill="#63b8ff" stroke="#63b8ff" points="147.54,-45.56 141.87,-54.51 151.88,-51.05 147.54,-45.56"/>
</g>
<!-- Node2 -->
<g id="node2" class="node">
<title>Node2</title>
<g id="a_node2"><a xlink:href="interfaceEntitySlotInfo.html" target="_top" xlink:title="Adds ability to attach an object to a slot.">
<polygon fill="white" stroke="#666666" points="166.5,-129 92.5,-129 92.5,-110 166.5,-110 166.5,-129"/>
<text text-anchor="middle" x="129.5" y="-117" font-family="Helvetica,sans-Serif" font-size="10.00">EntitySlotInfo</text>
</a>
</g>
</g>
<!-- Node2&#45;&gt;Node1 -->
<g id="edge1" class="edge">
<title>Node2&#45;&gt;Node1</title>
<path fill="none" stroke="#63b8ff" d="M129.5,-98.93C129.5,-90.53 129.5,-81.13 129.5,-74.44"/>
<polygon fill="#63b8ff" stroke="#63b8ff" points="126,-98.75 129.5,-108.75 133,-98.75 126,-98.75"/>
</g>
<!-- Node3 -->
<g id="node3" class="node">
<title>Node3</title>
<g id="a_node3"><a xlink:title=" ">
<polygon fill="white" stroke="#666666" points="156.5,-184 102.5,-184 102.5,-165 156.5,-165 156.5,-184"/>
<text text-anchor="middle" x="129.5" y="-172" font-family="Helvetica,sans-Serif" font-size="10.00">PointInfo</text>
</a>
</g>
</g>
<!-- Node3&#45;&gt;Node2 -->
<g id="edge2" class="edge">
<title>Node3&#45;&gt;Node2</title>
<path fill="none" stroke="#63b8ff" d="M129.5,-153.93C129.5,-145.53 129.5,-136.13 129.5,-129.44"/>
<polygon fill="#63b8ff" stroke="#63b8ff" points="126,-153.75 129.5,-163.75 133,-153.75 126,-153.75"/>
</g>
</g>
</svg>
