<?xml version="1.0" encoding="UTF-8" standalone="no"?>
<!DOCTYPE svg PUBLIC "-//W3C//DTD SVG 1.1//EN"
 "http://www.w3.org/Graphics/SVG/1.1/DTD/svg11.dtd">
<!-- Generated by graphviz version 8.0.2 (20230410.1723)
 -->
<!-- Title: SCR_BTParamBase Pages: 1 -->
<svg width="458pt" height="148pt"
 viewBox="0.00 0.00 458.00 148.00" xmlns="http://www.w3.org/2000/svg" xmlns:xlink="http://www.w3.org/1999/xlink">
<g id="graph0" class="graph" transform="scale(1 1) rotate(0) translate(4 144)">
<title>SCR_BTParamBase</title>
<!-- Node1 -->
<g id="node1" class="node">
<title>Node1</title>
<g id="a_node1"><a xlink:title="Base BT parameter class to be used in SCR_AIActionParams.">
<polygon fill="#999999" stroke="#666666" points="270.5,-85 165.5,-85 165.5,-66 270.5,-66 270.5,-85"/>
<text text-anchor="middle" x="218" y="-73" font-family="Helvetica,sans-Serif" font-size="10.00">SCR_BTParamBase</text>
</a>
</g>
</g>
<!-- Node3 -->
<g id="node3" class="node">
<title>Node3</title>
<g id="a_node3"><a xlink:href="interfaceSCR__BTParam.html" target="_top" xlink:title="Parameter with data of specific type.">
<polygon fill="white" stroke="#666666" points="134,-24.5 0,-24.5 0,-5.5 134,-5.5 134,-24.5"/>
<text text-anchor="middle" x="67" y="-12.5" font-family="Helvetica,sans-Serif" font-size="10.00">SCR_BTParam&lt; Class T &gt;</text>
</a>
</g>
</g>
<!-- Node1&#45;&gt;Node3 -->
<g id="edge2" class="edge">
<title>Node1&#45;&gt;Node3</title>
<path fill="none" stroke="#63b8ff" d="M185.1,-61.75C156.41,-50.64 115.51,-34.8 90.15,-24.97"/>
<polygon fill="#63b8ff" stroke="#63b8ff" points="183.48,-65.27 194.07,-65.62 186.01,-58.74 183.48,-65.27"/>
</g>
<!-- Node4 -->
<g id="node4" class="node">
<title>Node4</title>
<g id="a_node4"><a xlink:href="interfaceSCR__BTParamAssignable.html" target="_top" xlink:title="Same as SCR_BTParam&lt;T&gt;, but can be assigned or not (from script side).">
<polygon fill="white" stroke="#666666" points="283.5,-30 152.5,-30 152.5,0 283.5,0 283.5,-30"/>
<text text-anchor="start" x="160.5" y="-18" font-family="Helvetica,sans-Serif" font-size="10.00">SCR_BTParamAssignable</text>
<text text-anchor="middle" x="218" y="-7" font-family="Helvetica,sans-Serif" font-size="10.00">&lt; Class T &gt;</text>
</a>
</g>
</g>
<!-- Node1&#45;&gt;Node4 -->
<g id="edge3" class="edge">
<title>Node1&#45;&gt;Node4</title>
<path fill="none" stroke="#63b8ff" d="M218,-55.08C218,-46.92 218,-37.6 218,-30.11"/>
<polygon fill="#63b8ff" stroke="#63b8ff" points="214.5,-54.87 218,-64.87 221.5,-54.87 214.5,-54.87"/>
</g>
<!-- Node5 -->
<g id="node5" class="node">
<title>Node5</title>
<g id="a_node5"><a xlink:href="interfaceSCR__BTParamRef.html" target="_top" xlink:title=" ">
<polygon fill="white" stroke="#666666" points="450,-24.5 302,-24.5 302,-5.5 450,-5.5 450,-24.5"/>
<text text-anchor="middle" x="376" y="-12.5" font-family="Helvetica,sans-Serif" font-size="10.00">SCR_BTParamRef&lt; Class T &gt;</text>
</a>
</g>
</g>
<!-- Node1&#45;&gt;Node5 -->
<g id="edge4" class="edge">
<title>Node1&#45;&gt;Node5</title>
<path fill="none" stroke="#63b8ff" d="M252.03,-61.9C282.07,-50.78 325.12,-34.84 351.78,-24.97"/>
<polygon fill="#63b8ff" stroke="#63b8ff" points="251.16,-58.86 243,-65.62 253.59,-65.43 251.16,-58.86"/>
</g>
<!-- Node2 -->
<g id="node2" class="node">
<title>Node2</title>
<g id="a_node2"><a xlink:title=" ">
<polygon fill="white" stroke="#666666" points="246,-140 190,-140 190,-121 246,-121 246,-140"/>
<text text-anchor="middle" x="218" y="-128" font-family="Helvetica,sans-Serif" font-size="10.00">Managed</text>
</a>
</g>
</g>
<!-- Node2&#45;&gt;Node1 -->
<g id="edge1" class="edge">
<title>Node2&#45;&gt;Node1</title>
<path fill="none" stroke="#63b8ff" d="M218,-109.93C218,-101.53 218,-92.13 218,-85.44"/>
<polygon fill="#63b8ff" stroke="#63b8ff" points="214.5,-109.75 218,-119.75 221.5,-109.75 214.5,-109.75"/>
</g>
</g>
</svg>
