<?xml version="1.0" encoding="UTF-8" standalone="no"?>
<!DOCTYPE svg PUBLIC "-//W3C//DTD SVG 1.1//EN"
 "http://www.w3.org/Graphics/SVG/1.1/DTD/svg11.dtd">
<!-- Generated by graphviz version 8.0.2 (20230410.1723)
 -->
<!-- Title: AIFlock Pages: 1 -->
<svg width="67pt" height="192pt"
 viewBox="0.00 0.00 67.00 192.00" xmlns="http://www.w3.org/2000/svg" xmlns:xlink="http://www.w3.org/1999/xlink">
<g id="graph0" class="graph" transform="scale(1 1) rotate(0) translate(4 188)">
<title>AIFlock</title>
<!-- Node1 -->
<g id="node1" class="node">
<title>Node1</title>
<g id="a_node1"><a xlink:title=" ">
<polygon fill="#999999" stroke="#666666" points="54.5,-74 4.5,-74 4.5,-55 54.5,-55 54.5,-74"/>
<text text-anchor="middle" x="29.5" y="-62" font-family="Helvetica,sans-Serif" font-size="10.00">AIFlock</text>
</a>
</g>
</g>
<!-- Node4 -->
<g id="node4" class="node">
<title>Node4</title>
<g id="a_node4"><a xlink:href="interfaceSCR__Bird.html" target="_top" xlink:title=" ">
<polygon fill="white" stroke="#666666" points="59,-19 0,-19 0,0 59,0 59,-19"/>
<text text-anchor="middle" x="29.5" y="-7" font-family="Helvetica,sans-Serif" font-size="10.00">SCR_Bird</text>
</a>
</g>
</g>
<!-- Node1&#45;&gt;Node4 -->
<g id="edge3" class="edge">
<title>Node1&#45;&gt;Node4</title>
<path fill="none" stroke="#63b8ff" d="M29.5,-43.93C29.5,-35.53 29.5,-26.13 29.5,-19.44"/>
<polygon fill="#63b8ff" stroke="#63b8ff" points="26,-43.75 29.5,-53.75 33,-43.75 26,-43.75"/>
</g>
<!-- Node2 -->
<g id="node2" class="node">
<title>Node2</title>
<g id="a_node2"><a xlink:href="interfaceAIAnimal.html" target="_top" xlink:title=" ">
<polygon fill="white" stroke="#666666" points="57.5,-129 1.5,-129 1.5,-110 57.5,-110 57.5,-129"/>
<text text-anchor="middle" x="29.5" y="-117" font-family="Helvetica,sans-Serif" font-size="10.00">AIAnimal</text>
</a>
</g>
</g>
<!-- Node2&#45;&gt;Node1 -->
<g id="edge1" class="edge">
<title>Node2&#45;&gt;Node1</title>
<path fill="none" stroke="#63b8ff" d="M29.5,-98.93C29.5,-90.53 29.5,-81.13 29.5,-74.44"/>
<polygon fill="#63b8ff" stroke="#63b8ff" points="26,-98.75 29.5,-108.75 33,-98.75 26,-98.75"/>
</g>
<!-- Node3 -->
<g id="node3" class="node">
<title>Node3</title>
<g id="a_node3"><a xlink:title=" ">
<polygon fill="white" stroke="#666666" points="55,-184 4,-184 4,-165 55,-165 55,-184"/>
<text text-anchor="middle" x="29.5" y="-172" font-family="Helvetica,sans-Serif" font-size="10.00">AIAgent</text>
</a>
</g>
</g>
<!-- Node3&#45;&gt;Node2 -->
<g id="edge2" class="edge">
<title>Node3&#45;&gt;Node2</title>
<path fill="none" stroke="#63b8ff" d="M29.5,-153.93C29.5,-145.53 29.5,-136.13 29.5,-129.44"/>
<polygon fill="#63b8ff" stroke="#63b8ff" points="26,-153.75 29.5,-163.75 33,-153.75 26,-153.75"/>
</g>
</g>
</svg>
