<?xml version="1.0" encoding="UTF-8" standalone="no"?>
<!DOCTYPE svg PUBLIC "-//W3C//DTD SVG 1.1//EN"
 "http://www.w3.org/Graphics/SVG/1.1/DTD/svg11.dtd">
<!-- Generated by graphviz version 8.0.2 (20230410.1723)
 -->
<!-- Title: SCR_AICharacterStats Pages: 1 -->
<svg width="256pt" height="137pt"
 viewBox="0.00 0.00 255.50 137.00" xmlns="http://www.w3.org/2000/svg" xmlns:xlink="http://www.w3.org/1999/xlink">
<g id="graph0" class="graph" transform="scale(1 1) rotate(0) translate(4 133)">
<title>SCR_AICharacterStats</title>
<!-- Node1 -->
<g id="node1" class="node">
<title>Node1</title>
<g id="a_node1"><a xlink:title=" ">
<polygon fill="#999999" stroke="#666666" points="172.5,-74 56.5,-74 56.5,-55 172.5,-55 172.5,-74"/>
<text text-anchor="middle" x="114.5" y="-62" font-family="Helvetica,sans-Serif" font-size="10.00">SCR_AICharacterStats</text>
</a>
</g>
</g>
<!-- Node3 -->
<g id="node3" class="node">
<title>Node3</title>
<g id="a_node3"><a xlink:href="interfaceSCR__AISetStance.html" target="_top" xlink:title=" ">
<polygon fill="white" stroke="#666666" points="97,-19 0,-19 0,0 97,0 97,-19"/>
<text text-anchor="middle" x="48.5" y="-7" font-family="Helvetica,sans-Serif" font-size="10.00">SCR_AISetStance</text>
</a>
</g>
</g>
<!-- Node1&#45;&gt;Node3 -->
<g id="edge2" class="edge">
<title>Node1&#45;&gt;Node3</title>
<path fill="none" stroke="#63b8ff" d="M94.75,-47.64C83.23,-38.39 69.11,-27.05 59.53,-19.36"/>
<polygon fill="#63b8ff" stroke="#63b8ff" points="92.32,-50.98 102.3,-54.51 96.7,-45.52 92.32,-50.98"/>
</g>
<!-- Node4 -->
<g id="node4" class="node">
<title>Node4</title>
<g id="a_node4"><a xlink:href="interfaceSCR__AISetWeaponRaised.html" target="_top" xlink:title=" ">
<polygon fill="white" stroke="#666666" points="247.5,-19 115.5,-19 115.5,0 247.5,0 247.5,-19"/>
<text text-anchor="middle" x="181.5" y="-7" font-family="Helvetica,sans-Serif" font-size="10.00">SCR_AISetWeaponRaised</text>
</a>
</g>
</g>
<!-- Node1&#45;&gt;Node4 -->
<g id="edge3" class="edge">
<title>Node1&#45;&gt;Node4</title>
<path fill="none" stroke="#63b8ff" d="M134.2,-47.92C145.96,-38.61 160.48,-27.13 170.3,-19.36"/>
<polygon fill="#63b8ff" stroke="#63b8ff" points="132.54,-45.56 126.87,-54.51 136.88,-51.05 132.54,-45.56"/>
</g>
<!-- Node2 -->
<g id="node2" class="node">
<title>Node2</title>
<g id="a_node2"><a xlink:title=" ">
<polygon fill="white" stroke="#666666" points="156,-129 73,-129 73,-110 156,-110 156,-129"/>
<text text-anchor="middle" x="114.5" y="-117" font-family="Helvetica,sans-Serif" font-size="10.00">AITaskScripted</text>
</a>
</g>
</g>
<!-- Node2&#45;&gt;Node1 -->
<g id="edge1" class="edge">
<title>Node2&#45;&gt;Node1</title>
<path fill="none" stroke="#63b8ff" d="M114.5,-98.93C114.5,-90.53 114.5,-81.13 114.5,-74.44"/>
<polygon fill="#63b8ff" stroke="#63b8ff" points="111,-98.75 114.5,-108.75 118,-98.75 111,-98.75"/>
</g>
</g>
</svg>
