<?xml version="1.0" encoding="UTF-8" standalone="no"?>
<!DOCTYPE svg PUBLIC "-//W3C//DTD SVG 1.1//EN"
 "http://www.w3.org/Graphics/SVG/1.1/DTD/svg11.dtd">
<!-- Generated by graphviz version 8.0.2 (20230410.1723)
 -->
<!-- Title: SCR_InspectionUserAction Pages: 1 -->
<svg width="867pt" height="101pt"
 viewBox="0.00 0.00 867.00 101.00" xmlns="http://www.w3.org/2000/svg" xmlns:xlink="http://www.w3.org/1999/xlink">
<g id="graph0" class="graph" transform="scale(1 1) rotate(0) translate(4 97)">
<title>SCR_InspectionUserAction</title>
<!-- Node1 -->
<g id="node1" class="node">
<title>Node1</title>
<g id="a_node1"><a xlink:title=" ">
<polygon fill="#999999" stroke="#666666" points="660,-56 526,-56 526,-37 660,-37 660,-56"/>
<text text-anchor="middle" x="593" y="-44" font-family="Helvetica,sans-Serif" font-size="10.00">SCR_InspectionUserAction</text>
</a>
</g>
</g>
<!-- Node6 -->
<g id="node6" class="node">
<title>Node6</title>
<g id="a_node6"><a xlink:href="interfaceSCR__DetachMagazineUserAction.html" target="_top" xlink:title=" ">
<polygon fill="white" stroke="#666666" points="859,-93 696,-93 696,-74 859,-74 859,-93"/>
<text text-anchor="middle" x="777.5" y="-81" font-family="Helvetica,sans-Serif" font-size="10.00">SCR_DetachMagazineUserAction</text>
</a>
</g>
</g>
<!-- Node1&#45;&gt;Node6 -->
<g id="edge5" class="edge">
<title>Node1&#45;&gt;Node6</title>
<path fill="none" stroke="#63b8ff" d="M653.63,-58.59C677.53,-63.43 704.73,-68.95 727.46,-73.56"/>
<polygon fill="#63b8ff" stroke="#63b8ff" points="654.4,-54.97 643.91,-56.42 653.01,-61.83 654.4,-54.97"/>
</g>
<!-- Node7 -->
<g id="node7" class="node">
<title>Node7</title>
<g id="a_node7"><a xlink:href="interfaceSCR__FireModeSwitchUserAction.html" target="_top" xlink:title=" ">
<polygon fill="white" stroke="#666666" points="857.5,-56 697.5,-56 697.5,-37 857.5,-37 857.5,-56"/>
<text text-anchor="middle" x="777.5" y="-44" font-family="Helvetica,sans-Serif" font-size="10.00">SCR_FireModeSwitchUserAction</text>
</a>
</g>
</g>
<!-- Node1&#45;&gt;Node7 -->
<g id="edge6" class="edge">
<title>Node1&#45;&gt;Node7</title>
<path fill="none" stroke="#63b8ff" d="M671.16,-46.5C679.75,-46.5 688.5,-46.5 697.11,-46.5"/>
<polygon fill="#63b8ff" stroke="#63b8ff" points="671.4,-43 661.4,-46.5 671.4,-50 671.4,-43"/>
</g>
<!-- Node8 -->
<g id="node8" class="node">
<title>Node8</title>
<g id="a_node8"><a xlink:href="interfaceSCR__ToggleSafetyUserAction.html" target="_top" xlink:title=" ">
<polygon fill="white" stroke="#666666" points="850.5,-19 704.5,-19 704.5,0 850.5,0 850.5,-19"/>
<text text-anchor="middle" x="777.5" y="-7" font-family="Helvetica,sans-Serif" font-size="10.00">SCR_ToggleSafetyUserAction</text>
</a>
</g>
</g>
<!-- Node1&#45;&gt;Node8 -->
<g id="edge7" class="edge">
<title>Node1&#45;&gt;Node8</title>
<path fill="none" stroke="#63b8ff" d="M653.63,-34.41C677.53,-29.57 704.73,-24.05 727.46,-19.44"/>
<polygon fill="#63b8ff" stroke="#63b8ff" points="653.01,-31.17 643.91,-36.58 654.4,-38.03 653.01,-31.17"/>
</g>
<!-- Node2 -->
<g id="node2" class="node">
<title>Node2</title>
<g id="a_node2"><a xlink:href="interfaceSCR__InventoryAction.html" target="_top" xlink:title="modded version for to be used with the inventory 2.0">
<polygon fill="white" stroke="#666666" points="490,-56 382,-56 382,-37 490,-37 490,-56"/>
<text text-anchor="middle" x="436" y="-44" font-family="Helvetica,sans-Serif" font-size="10.00">SCR_InventoryAction</text>
</a>
</g>
</g>
<!-- Node2&#45;&gt;Node1 -->
<g id="edge1" class="edge">
<title>Node2&#45;&gt;Node1</title>
<path fill="none" stroke="#63b8ff" d="M501.21,-46.5C509.29,-46.5 517.57,-46.5 525.69,-46.5"/>
<polygon fill="#63b8ff" stroke="#63b8ff" points="501.34,-43 491.34,-46.5 501.34,-50 501.34,-43"/>
</g>
<!-- Node3 -->
<g id="node3" class="node">
<title>Node3</title>
<g id="a_node3"><a xlink:href="interfaceScriptedUserAction.html" target="_top" xlink:title=" ">
<polygon fill="white" stroke="#666666" points="346,-56 245,-56 245,-37 346,-37 346,-56"/>
<text text-anchor="middle" x="295.5" y="-44" font-family="Helvetica,sans-Serif" font-size="10.00">ScriptedUserAction</text>
</a>
</g>
</g>
<!-- Node3&#45;&gt;Node2 -->
<g id="edge2" class="edge">
<title>Node3&#45;&gt;Node2</title>
<path fill="none" stroke="#63b8ff" d="M357.07,-46.5C365.21,-46.5 373.51,-46.5 381.52,-46.5"/>
<polygon fill="#63b8ff" stroke="#63b8ff" points="357.11,-43 347.11,-46.5 357.11,-50 357.11,-43"/>
</g>
<!-- Node4 -->
<g id="node4" class="node">
<title>Node4</title>
<g id="a_node4"><a xlink:href="interfaceBaseUserAction.html" target="_top" xlink:title=" ">
<polygon fill="white" stroke="#666666" points="209,-56 122,-56 122,-37 209,-37 209,-56"/>
<text text-anchor="middle" x="165.5" y="-44" font-family="Helvetica,sans-Serif" font-size="10.00">BaseUserAction</text>
</a>
</g>
</g>
<!-- Node4&#45;&gt;Node3 -->
<g id="edge3" class="edge">
<title>Node4&#45;&gt;Node3</title>
<path fill="none" stroke="#63b8ff" d="M220.34,-46.5C228.44,-46.5 236.77,-46.5 244.78,-46.5"/>
<polygon fill="#63b8ff" stroke="#63b8ff" points="220.48,-43 210.48,-46.5 220.48,-50 220.48,-43"/>
</g>
<!-- Node5 -->
<g id="node5" class="node">
<title>Node5</title>
<g id="a_node5"><a xlink:title=" ">
<polygon fill="white" stroke="#666666" points="86,-56 0,-56 0,-37 86,-37 86,-56"/>
<text text-anchor="middle" x="43" y="-44" font-family="Helvetica,sans-Serif" font-size="10.00">ScriptAndConfig</text>
</a>
</g>
</g>
<!-- Node5&#45;&gt;Node4 -->
<g id="edge4" class="edge">
<title>Node5&#45;&gt;Node4</title>
<path fill="none" stroke="#63b8ff" d="M97.37,-46.5C105.47,-46.5 113.74,-46.5 121.59,-46.5"/>
<polygon fill="#63b8ff" stroke="#63b8ff" points="97.48,-43 87.48,-46.5 97.48,-50 97.48,-43"/>
</g>
</g>
</svg>
