<?xml version="1.0" encoding="UTF-8" standalone="no"?>
<!DOCTYPE svg PUBLIC "-//W3C//DTD SVG 1.1//EN"
 "http://www.w3.org/Graphics/SVG/1.1/DTD/svg11.dtd">
<!-- Generated by graphviz version 8.0.2 (20230410.1723)
 -->
<!-- Title: SCR_NTStateConfigBase Pages: 1 -->
<svg width="218pt" height="82pt"
 viewBox="0.00 0.00 217.50 82.00" xmlns="http://www.w3.org/2000/svg" xmlns:xlink="http://www.w3.org/1999/xlink">
<g id="graph0" class="graph" transform="scale(1 1) rotate(0) translate(4 78)">
<title>SCR_NTStateConfigBase</title>
<!-- Node1 -->
<g id="node1" class="node">
<title>Node1</title>
<g id="a_node1"><a xlink:title="Nametag element state config.">
<polygon fill="#999999" stroke="#666666" points="168,-74 41,-74 41,-55 168,-55 168,-74"/>
<text text-anchor="middle" x="104.5" y="-62" font-family="Helvetica,sans-Serif" font-size="10.00">SCR_NTStateConfigBase</text>
</a>
</g>
</g>
<!-- Node2 -->
<g id="node2" class="node">
<title>Node2</title>
<g id="a_node2"><a xlink:href="interfaceSCR__NTStateIcon.html" target="_top" xlink:title="Nametag icon element state config.">
<polygon fill="white" stroke="#666666" points="95,-19 0,-19 0,0 95,0 95,-19"/>
<text text-anchor="middle" x="47.5" y="-7" font-family="Helvetica,sans-Serif" font-size="10.00">SCR_NTStateIcon</text>
</a>
</g>
</g>
<!-- Node1&#45;&gt;Node2 -->
<g id="edge1" class="edge">
<title>Node1&#45;&gt;Node2</title>
<path fill="none" stroke="#63b8ff" d="M86.85,-47.09C77.01,-37.94 65.14,-26.9 57.03,-19.36"/>
<polygon fill="#63b8ff" stroke="#63b8ff" points="84.12,-49.26 93.83,-53.51 88.89,-44.14 84.12,-49.26"/>
</g>
<!-- Node3 -->
<g id="node3" class="node">
<title>Node3</title>
<g id="a_node3"><a xlink:href="interfaceSCR__NTStateText.html" target="_top" xlink:title="Nametag text element state config.">
<polygon fill="white" stroke="#666666" points="209.5,-19 113.5,-19 113.5,0 209.5,0 209.5,-19"/>
<text text-anchor="middle" x="161.5" y="-7" font-family="Helvetica,sans-Serif" font-size="10.00">SCR_NTStateText</text>
</a>
</g>
</g>
<!-- Node1&#45;&gt;Node3 -->
<g id="edge2" class="edge">
<title>Node1&#45;&gt;Node3</title>
<path fill="none" stroke="#63b8ff" d="M122.15,-47.09C131.99,-37.94 143.86,-26.9 151.97,-19.36"/>
<polygon fill="#63b8ff" stroke="#63b8ff" points="120.11,-44.14 115.17,-53.51 124.88,-49.26 120.11,-44.14"/>
</g>
</g>
</svg>
