<?xml version="1.0" encoding="UTF-8" standalone="no"?>
<!DOCTYPE svg PUBLIC "-//W3C//DTD SVG 1.1//EN"
 "http://www.w3.org/Graphics/SVG/1.1/DTD/svg11.dtd">
<!-- Generated by graphviz version 8.0.2 (20230410.1723)
 -->
<!-- Title: SCR_RadialMenuDisplay Pages: 1 -->
<svg width="268pt" height="412pt"
 viewBox="0.00 0.00 268.00 412.00" xmlns="http://www.w3.org/2000/svg" xmlns:xlink="http://www.w3.org/1999/xlink">
<g id="graph0" class="graph" transform="scale(1 1) rotate(0) translate(4 408)">
<title>SCR_RadialMenuDisplay</title>
<!-- Node1 -->
<g id="node1" class="node">
<title>Node1</title>
<g id="a_node1"><a xlink:title="Radial menu class for handling HUD part of menu.">
<polygon fill="#999999" stroke="#666666" points="191.5,-74 66.5,-74 66.5,-55 191.5,-55 191.5,-74"/>
<text text-anchor="middle" x="129" y="-62" font-family="Helvetica,sans-Serif" font-size="10.00">SCR_RadialMenuDisplay</text>
</a>
</g>
</g>
<!-- Node8 -->
<g id="node8" class="node">
<title>Node8</title>
<g id="a_node8"><a xlink:href="interfaceSCR__MapRadialDisplay.html" target="_top" xlink:title="Info display within hud manager of player controller.">
<polygon fill="white" stroke="#666666" points="120,-19 0,-19 0,0 120,0 120,-19"/>
<text text-anchor="middle" x="60" y="-7" font-family="Helvetica,sans-Serif" font-size="10.00">SCR_MapRadialDisplay</text>
</a>
</g>
</g>
<!-- Node1&#45;&gt;Node8 -->
<g id="edge7" class="edge">
<title>Node1&#45;&gt;Node8</title>
<path fill="none" stroke="#63b8ff" d="M108.71,-47.92C96.6,-38.61 81.65,-27.13 71.53,-19.36"/>
<polygon fill="#63b8ff" stroke="#63b8ff" points="106.23,-51.19 116.3,-54.51 110.5,-45.64 106.23,-51.19"/>
</g>
<!-- Node9 -->
<g id="node9" class="node">
<title>Node9</title>
<g id="a_node9"><a xlink:href="interfaceSCR__VONRadialDisplay.html" target="_top" xlink:title="Info display within hud manager of player controller.">
<polygon fill="white" stroke="#666666" points="260,-19 138,-19 138,0 260,0 260,-19"/>
<text text-anchor="middle" x="199" y="-7" font-family="Helvetica,sans-Serif" font-size="10.00">SCR_VONRadialDisplay</text>
</a>
</g>
</g>
<!-- Node1&#45;&gt;Node9 -->
<g id="edge8" class="edge">
<title>Node1&#45;&gt;Node9</title>
<path fill="none" stroke="#63b8ff" d="M149.58,-47.92C161.87,-38.61 177.04,-27.13 187.3,-19.36"/>
<polygon fill="#63b8ff" stroke="#63b8ff" points="147.73,-45.68 141.87,-54.51 151.96,-51.26 147.73,-45.68"/>
</g>
<!-- Node2 -->
<g id="node2" class="node">
<title>Node2</title>
<g id="a_node2"><a xlink:href="interfaceSCR__SelectionMenuDisplay.html" target="_top" xlink:title="Radial menu class for handling HUD part of menu.">
<polygon fill="white" stroke="#666666" points="198.5,-129 59.5,-129 59.5,-110 198.5,-110 198.5,-129"/>
<text text-anchor="middle" x="129" y="-117" font-family="Helvetica,sans-Serif" font-size="10.00">SCR_SelectionMenuDisplay</text>
</a>
</g>
</g>
<!-- Node2&#45;&gt;Node1 -->
<g id="edge1" class="edge">
<title>Node2&#45;&gt;Node1</title>
<path fill="none" stroke="#63b8ff" d="M129,-98.93C129,-90.53 129,-81.13 129,-74.44"/>
<polygon fill="#63b8ff" stroke="#63b8ff" points="125.5,-98.75 129,-108.75 132.5,-98.75 125.5,-98.75"/>
</g>
<!-- Node3 -->
<g id="node3" class="node">
<title>Node3</title>
<g id="a_node3"><a xlink:href="interfaceSCR__InfoDisplayExtended.html" target="_top" xlink:title=" ">
<polygon fill="white" stroke="#666666" points="194.5,-184 63.5,-184 63.5,-165 194.5,-165 194.5,-184"/>
<text text-anchor="middle" x="129" y="-172" font-family="Helvetica,sans-Serif" font-size="10.00">SCR_InfoDisplayExtended</text>
</a>
</g>
</g>
<!-- Node3&#45;&gt;Node2 -->
<g id="edge2" class="edge">
<title>Node3&#45;&gt;Node2</title>
<path fill="none" stroke="#63b8ff" d="M129,-153.93C129,-145.53 129,-136.13 129,-129.44"/>
<polygon fill="#63b8ff" stroke="#63b8ff" points="125.5,-153.75 129,-163.75 132.5,-153.75 125.5,-153.75"/>
</g>
<!-- Node4 -->
<g id="node4" class="node">
<title>Node4</title>
<g id="a_node4"><a xlink:href="interfaceSCR__InfoDisplay.html" target="_top" xlink:title=" ">
<polygon fill="white" stroke="#666666" points="173.5,-239 84.5,-239 84.5,-220 173.5,-220 173.5,-239"/>
<text text-anchor="middle" x="129" y="-227" font-family="Helvetica,sans-Serif" font-size="10.00">SCR_InfoDisplay</text>
</a>
</g>
</g>
<!-- Node4&#45;&gt;Node3 -->
<g id="edge3" class="edge">
<title>Node4&#45;&gt;Node3</title>
<path fill="none" stroke="#63b8ff" d="M129,-208.93C129,-200.53 129,-191.13 129,-184.44"/>
<polygon fill="#63b8ff" stroke="#63b8ff" points="125.5,-208.75 129,-218.75 132.5,-208.75 125.5,-208.75"/>
</g>
<!-- Node5 -->
<g id="node5" class="node">
<title>Node5</title>
<g id="a_node5"><a xlink:href="interfaceGroupInfoDisplay.html" target="_top" xlink:title=" ">
<polygon fill="white" stroke="#666666" points="174,-294 84,-294 84,-275 174,-275 174,-294"/>
<text text-anchor="middle" x="129" y="-282" font-family="Helvetica,sans-Serif" font-size="10.00">GroupInfoDisplay</text>
</a>
</g>
</g>
<!-- Node5&#45;&gt;Node4 -->
<g id="edge4" class="edge">
<title>Node5&#45;&gt;Node4</title>
<path fill="none" stroke="#63b8ff" d="M129,-263.93C129,-255.53 129,-246.13 129,-239.44"/>
<polygon fill="#63b8ff" stroke="#63b8ff" points="125.5,-263.75 129,-273.75 132.5,-263.75 125.5,-263.75"/>
</g>
<!-- Node6 -->
<g id="node6" class="node">
<title>Node6</title>
<g id="a_node6"><a xlink:href="interfaceBaseInfoDisplay.html" target="_top" xlink:title=" ">
<polygon fill="white" stroke="#666666" points="172,-349 86,-349 86,-330 172,-330 172,-349"/>
<text text-anchor="middle" x="129" y="-337" font-family="Helvetica,sans-Serif" font-size="10.00">BaseInfoDisplay</text>
</a>
</g>
</g>
<!-- Node6&#45;&gt;Node5 -->
<g id="edge5" class="edge">
<title>Node6&#45;&gt;Node5</title>
<path fill="none" stroke="#63b8ff" d="M129,-318.93C129,-310.53 129,-301.13 129,-294.44"/>
<polygon fill="#63b8ff" stroke="#63b8ff" points="125.5,-318.75 129,-328.75 132.5,-318.75 125.5,-318.75"/>
</g>
<!-- Node7 -->
<g id="node7" class="node">
<title>Node7</title>
<g id="a_node7"><a xlink:title=" ">
<polygon fill="white" stroke="#666666" points="172,-404 86,-404 86,-385 172,-385 172,-404"/>
<text text-anchor="middle" x="129" y="-392" font-family="Helvetica,sans-Serif" font-size="10.00">ScriptAndConfig</text>
</a>
</g>
</g>
<!-- Node7&#45;&gt;Node6 -->
<g id="edge6" class="edge">
<title>Node7&#45;&gt;Node6</title>
<path fill="none" stroke="#63b8ff" d="M129,-373.93C129,-365.53 129,-356.13 129,-349.44"/>
<polygon fill="#63b8ff" stroke="#63b8ff" points="125.5,-373.75 129,-383.75 132.5,-373.75 125.5,-373.75"/>
</g>
</g>
</svg>
