<?xml version="1.0" encoding="UTF-8" standalone="no"?>
<!DOCTYPE svg PUBLIC "-//W3C//DTD SVG 1.1//EN"
 "http://www.w3.org/Graphics/SVG/1.1/DTD/svg11.dtd">
<!-- Generated by graphviz version 8.0.2 (20230410.1723)
 -->
<!-- Title: SCR_MineDamageManager Pages: 1 -->
<svg width="173pt" height="302pt"
 viewBox="0.00 0.00 173.00 302.00" xmlns="http://www.w3.org/2000/svg" xmlns:xlink="http://www.w3.org/1999/xlink">
<g id="graph0" class="graph" transform="scale(1 1) rotate(0) translate(4 298)">
<title>SCR_MineDamageManager</title>
<!-- Node1 -->
<g id="node1" class="node">
<title>Node1</title>
<g id="a_node1"><a xlink:title=" ">
<polygon fill="#999999" stroke="#666666" points="151,-19 14,-19 14,0 151,0 151,-19"/>
<text text-anchor="middle" x="82.5" y="-7" font-family="Helvetica,sans-Serif" font-size="10.00">SCR_MineDamageManager</text>
</a>
</g>
</g>
<!-- Node2 -->
<g id="node2" class="node">
<title>Node2</title>
<g id="a_node2"><a xlink:href="interfaceSCR__DamageManagerComponent.html" target="_top" xlink:title=" ">
<polygon fill="white" stroke="#666666" points="165,-74 0,-74 0,-55 165,-55 165,-74"/>
<text text-anchor="middle" x="82.5" y="-62" font-family="Helvetica,sans-Serif" font-size="10.00">SCR_DamageManagerComponent</text>
</a>
</g>
</g>
<!-- Node2&#45;&gt;Node1 -->
<g id="edge1" class="edge">
<title>Node2&#45;&gt;Node1</title>
<path fill="none" stroke="#63b8ff" d="M82.5,-43.93C82.5,-35.53 82.5,-26.13 82.5,-19.44"/>
<polygon fill="#63b8ff" stroke="#63b8ff" points="79,-43.75 82.5,-53.75 86,-43.75 79,-43.75"/>
</g>
<!-- Node3 -->
<g id="node3" class="node">
<title>Node3</title>
<g id="a_node3"><a xlink:href="interfaceDamageManagerComponent.html" target="_top" xlink:title=" ">
<polygon fill="white" stroke="#666666" points="152.5,-129 12.5,-129 12.5,-110 152.5,-110 152.5,-129"/>
<text text-anchor="middle" x="82.5" y="-117" font-family="Helvetica,sans-Serif" font-size="10.00">DamageManagerComponent</text>
</a>
</g>
</g>
<!-- Node3&#45;&gt;Node2 -->
<g id="edge2" class="edge">
<title>Node3&#45;&gt;Node2</title>
<path fill="none" stroke="#63b8ff" d="M82.5,-98.93C82.5,-90.53 82.5,-81.13 82.5,-74.44"/>
<polygon fill="#63b8ff" stroke="#63b8ff" points="79,-98.75 82.5,-108.75 86,-98.75 79,-98.75"/>
</g>
<!-- Node4 -->
<g id="node4" class="node">
<title>Node4</title>
<g id="a_node4"><a xlink:href="interfaceHitZoneContainerComponent.html" target="_top" xlink:title=" ">
<polygon fill="white" stroke="#666666" points="152.5,-184 12.5,-184 12.5,-165 152.5,-165 152.5,-184"/>
<text text-anchor="middle" x="82.5" y="-172" font-family="Helvetica,sans-Serif" font-size="10.00">HitZoneContainerComponent</text>
</a>
</g>
</g>
<!-- Node4&#45;&gt;Node3 -->
<g id="edge3" class="edge">
<title>Node4&#45;&gt;Node3</title>
<path fill="none" stroke="#63b8ff" d="M82.5,-153.93C82.5,-145.53 82.5,-136.13 82.5,-129.44"/>
<polygon fill="#63b8ff" stroke="#63b8ff" points="79,-153.75 82.5,-163.75 86,-153.75 79,-153.75"/>
</g>
<!-- Node5 -->
<g id="node5" class="node">
<title>Node5</title>
<g id="a_node5"><a xlink:href="interfaceGameComponent.html" target="_top" xlink:title=" ">
<polygon fill="white" stroke="#666666" points="128.5,-239 36.5,-239 36.5,-220 128.5,-220 128.5,-239"/>
<text text-anchor="middle" x="82.5" y="-227" font-family="Helvetica,sans-Serif" font-size="10.00">GameComponent</text>
</a>
</g>
</g>
<!-- Node5&#45;&gt;Node4 -->
<g id="edge4" class="edge">
<title>Node5&#45;&gt;Node4</title>
<path fill="none" stroke="#63b8ff" d="M82.5,-208.93C82.5,-200.53 82.5,-191.13 82.5,-184.44"/>
<polygon fill="#63b8ff" stroke="#63b8ff" points="79,-208.75 82.5,-218.75 86,-208.75 79,-208.75"/>
</g>
<!-- Node6 -->
<g id="node6" class="node">
<title>Node6</title>
<g id="a_node6"><a xlink:title=" ">
<polygon fill="white" stroke="#666666" points="132.5,-294 32.5,-294 32.5,-275 132.5,-275 132.5,-294"/>
<text text-anchor="middle" x="82.5" y="-282" font-family="Helvetica,sans-Serif" font-size="10.00">GenericComponent</text>
</a>
</g>
</g>
<!-- Node6&#45;&gt;Node5 -->
<g id="edge5" class="edge">
<title>Node6&#45;&gt;Node5</title>
<path fill="none" stroke="#63b8ff" d="M82.5,-263.93C82.5,-255.53 82.5,-246.13 82.5,-239.44"/>
<polygon fill="#63b8ff" stroke="#63b8ff" points="79,-263.75 82.5,-273.75 86,-263.75 79,-263.75"/>
</g>
</g>
</svg>
