<?xml version="1.0" encoding="UTF-8" standalone="no"?>
<!DOCTYPE svg PUBLIC "-//W3C//DTD SVG 1.1//EN"
 "http://www.w3.org/Graphics/SVG/1.1/DTD/svg11.dtd">
<!-- Generated by graphviz version 8.0.2 (20230410.1723)
 -->
<!-- Title: SCR_UIName Pages: 1 -->
<svg width="1038pt" height="789pt"
 viewBox="0.00 0.00 1038.00 789.00" xmlns="http://www.w3.org/2000/svg" xmlns:xlink="http://www.w3.org/1999/xlink">
<g id="graph0" class="graph" transform="scale(1 1) rotate(0) translate(4 785)">
<title>SCR_UIName</title>
<!-- Node1 -->
<g id="node1" class="node">
<title>Node1</title>
<g id="a_node1"><a xlink:title="Class used to hold UI name.">
<polygon fill="#999999" stroke="#666666" points="77,-532 0,-532 0,-513 77,-513 77,-532"/>
<text text-anchor="middle" x="38.5" y="-520" font-family="Helvetica,sans-Serif" font-size="10.00">SCR_UIName</text>
</a>
</g>
</g>
<!-- Node2 -->
<g id="node2" class="node">
<title>Node2</title>
<g id="a_node2"><a xlink:href="interfaceSCR__SubBlockUIName.html" target="_top" xlink:title=" ">
<polygon fill="white" stroke="#666666" points="252,-688 133,-688 133,-669 252,-669 252,-688"/>
<text text-anchor="middle" x="192.5" y="-676" font-family="Helvetica,sans-Serif" font-size="10.00">SCR_SubBlockUIName</text>
</a>
</g>
</g>
<!-- Node1&#45;&gt;Node2 -->
<g id="edge1" class="edge">
<title>Node1&#45;&gt;Node2</title>
<path fill="none" stroke="#63b8ff" d="M56.29,-539.73C88.24,-572.53 156.83,-642.92 182,-668.75"/>
<polygon fill="#63b8ff" stroke="#63b8ff" points="59.49,-537.98 50.01,-533.26 54.48,-542.86 59.49,-537.98"/>
</g>
<!-- Node10 -->
<g id="node10" class="node">
<title>Node10</title>
<g id="a_node10"><a xlink:href="interfaceSCR__UIDescription.html" target="_top" xlink:title="Class used to hold UI name and description.">
<polygon fill="white" stroke="#666666" points="242.5,-532 142.5,-532 142.5,-513 242.5,-513 242.5,-532"/>
<text text-anchor="middle" x="192.5" y="-520" font-family="Helvetica,sans-Serif" font-size="10.00">SCR_UIDescription</text>
</a>
</g>
</g>
<!-- Node1&#45;&gt;Node10 -->
<g id="edge9" class="edge">
<title>Node1&#45;&gt;Node10</title>
<path fill="none" stroke="#63b8ff" d="M88.43,-522.5C105.65,-522.5 125.01,-522.5 142.26,-522.5"/>
<polygon fill="#63b8ff" stroke="#63b8ff" points="88.46,-519 78.46,-522.5 88.46,-526 88.46,-519"/>
</g>
<!-- Node57 -->
<g id="node49" class="node">
<title>Node57</title>
<g id="a_node49"><a xlink:href="interfaceSCR__UIInfoSpawnRequestResult.html" target="_top" xlink:title=" ">
<polygon fill="white" stroke="#666666" points="272,-495 113,-495 113,-476 272,-476 272,-495"/>
<text text-anchor="middle" x="192.5" y="-483" font-family="Helvetica,sans-Serif" font-size="10.00">SCR_UIInfoSpawnRequestResult</text>
</a>
</g>
</g>
<!-- Node1&#45;&gt;Node57 -->
<g id="edge48" class="edge">
<title>Node1&#45;&gt;Node57</title>
<path fill="none" stroke="#63b8ff" d="M87.74,-510.67C96.16,-508.61 104.83,-506.49 113,-504.5 125.13,-501.55 138.31,-498.35 150.35,-495.44"/>
<polygon fill="#63b8ff" stroke="#63b8ff" points="87.15,-507.45 78.26,-513.23 88.81,-514.25 87.15,-507.45"/>
</g>
<!-- Node3 -->
<g id="node3" class="node">
<title>Node3</title>
<g id="a_node3"><a xlink:href="interfaceSCR__BulletPointBlockUIName.html" target="_top" xlink:title=" ">
<polygon fill="white" stroke="#666666" points="457,-781 308,-781 308,-762 457,-762 457,-781"/>
<text text-anchor="middle" x="382.5" y="-769" font-family="Helvetica,sans-Serif" font-size="10.00">SCR_BulletPointBlockUIName</text>
</a>
</g>
</g>
<!-- Node2&#45;&gt;Node3 -->
<g id="edge2" class="edge">
<title>Node2&#45;&gt;Node3</title>
<path fill="none" stroke="#63b8ff" d="M213.89,-694.97C235.88,-711.96 272.53,-738.08 308,-753.5 315.23,-756.64 323.11,-759.3 330.93,-761.53"/>
<polygon fill="#63b8ff" stroke="#63b8ff" points="216.43,-691.73 206.41,-688.3 212.11,-697.23 216.43,-691.73"/>
</g>
<!-- Node4 -->
<g id="node4" class="node">
<title>Node4</title>
<g id="a_node4"><a xlink:href="interfaceSCR__DeviceBlockUIName.html" target="_top" xlink:title=" ">
<polygon fill="white" stroke="#666666" points="447.5,-744 317.5,-744 317.5,-725 447.5,-725 447.5,-744"/>
<text text-anchor="middle" x="382.5" y="-732" font-family="Helvetica,sans-Serif" font-size="10.00">SCR_DeviceBlockUIName</text>
</a>
</g>
</g>
<!-- Node2&#45;&gt;Node4 -->
<g id="edge3" class="edge">
<title>Node2&#45;&gt;Node4</title>
<path fill="none" stroke="#63b8ff" d="M231.4,-691.93C253.59,-699.58 282.23,-709.08 308,-716.5 317.72,-719.3 328.24,-722.04 338.21,-724.51"/>
<polygon fill="#63b8ff" stroke="#63b8ff" points="232.67,-688.31 222.07,-688.34 230.37,-694.93 232.67,-688.31"/>
</g>
<!-- Node7 -->
<g id="node7" class="node">
<title>Node7</title>
<g id="a_node7"><a xlink:href="interfaceSCR__ImageBlockUIName.html" target="_top" xlink:title=" ">
<polygon fill="white" stroke="#666666" points="446.5,-707 318.5,-707 318.5,-688 446.5,-688 446.5,-707"/>
<text text-anchor="middle" x="382.5" y="-695" font-family="Helvetica,sans-Serif" font-size="10.00">SCR_ImageBlockUIName</text>
</a>
</g>
</g>
<!-- Node2&#45;&gt;Node7 -->
<g id="edge6" class="edge">
<title>Node2&#45;&gt;Node7</title>
<path fill="none" stroke="#63b8ff" d="M263.2,-685.54C281.22,-687.36 300.51,-689.31 318.18,-691.1"/>
<polygon fill="#63b8ff" stroke="#63b8ff" points="263.77,-681.98 253.47,-684.46 263.07,-688.95 263.77,-681.98"/>
</g>
<!-- Node8 -->
<g id="node8" class="node">
<title>Node8</title>
<g id="a_node8"><a xlink:href="interfaceSCR__SimpleTagBlockUIName.html" target="_top" xlink:title=" ">
<polygon fill="white" stroke="#666666" points="456,-670 309,-670 309,-651 456,-651 456,-670"/>
<text text-anchor="middle" x="382.5" y="-658" font-family="Helvetica,sans-Serif" font-size="10.00">SCR_SimpleTagBlockUIName</text>
</a>
</g>
</g>
<!-- Node2&#45;&gt;Node8 -->
<g id="edge7" class="edge">
<title>Node2&#45;&gt;Node8</title>
<path fill="none" stroke="#63b8ff" d="M263.08,-671.84C277.89,-670.42 293.58,-668.92 308.52,-667.49"/>
<polygon fill="#63b8ff" stroke="#63b8ff" points="263.09,-668.42 253.47,-672.85 263.76,-675.38 263.09,-668.42"/>
</g>
<!-- Node9 -->
<g id="node9" class="node">
<title>Node9</title>
<g id="a_node9"><a xlink:href="interfaceSCR__TipBlockUIName.html" target="_top" xlink:title=" ">
<polygon fill="white" stroke="#666666" points="439.5,-633 325.5,-633 325.5,-614 439.5,-614 439.5,-633"/>
<text text-anchor="middle" x="382.5" y="-621" font-family="Helvetica,sans-Serif" font-size="10.00">SCR_TipBlockUIName</text>
</a>
</g>
</g>
<!-- Node2&#45;&gt;Node9 -->
<g id="edge8" class="edge">
<title>Node2&#45;&gt;Node9</title>
<path fill="none" stroke="#63b8ff" d="M233.75,-665.29C255.63,-658.24 283.21,-649.6 308,-642.5 318.77,-639.42 330.49,-636.29 341.34,-633.48"/>
<polygon fill="#63b8ff" stroke="#63b8ff" points="232.94,-662.19 224.51,-668.6 235.1,-668.85 232.94,-662.19"/>
</g>
<!-- Node5 -->
<g id="node5" class="node">
<title>Node5</title>
<g id="a_node5"><a xlink:href="interfaceSCR__ActionBlockUIName.html" target="_top" xlink:title=" ">
<polygon fill="white" stroke="#666666" points="625.5,-781 496.5,-781 496.5,-762 625.5,-762 625.5,-781"/>
<text text-anchor="middle" x="561" y="-769" font-family="Helvetica,sans-Serif" font-size="10.00">SCR_ActionBlockUIName</text>
</a>
</g>
</g>
<!-- Node4&#45;&gt;Node5 -->
<g id="edge4" class="edge">
<title>Node4&#45;&gt;Node5</title>
<path fill="none" stroke="#63b8ff" d="M441.48,-746.65C464.52,-751.48 490.69,-756.97 512.57,-761.56"/>
<polygon fill="#63b8ff" stroke="#63b8ff" points="442.3,-743.04 431.8,-744.42 440.87,-749.89 442.3,-743.04"/>
</g>
<!-- Node6 -->
<g id="node6" class="node">
<title>Node6</title>
<g id="a_node6"><a xlink:href="interfaceSCR__KeyBlockUIName.html" target="_top" xlink:title=" ">
<polygon fill="white" stroke="#666666" points="620.5,-744 501.5,-744 501.5,-725 620.5,-725 620.5,-744"/>
<text text-anchor="middle" x="561" y="-732" font-family="Helvetica,sans-Serif" font-size="10.00">SCR_KeyBlockUIName</text>
</a>
</g>
</g>
<!-- Node4&#45;&gt;Node6 -->
<g id="edge5" class="edge">
<title>Node4&#45;&gt;Node6</title>
<path fill="none" stroke="#63b8ff" d="M458.73,-734.5C472.96,-734.5 487.64,-734.5 501.26,-734.5"/>
<polygon fill="#63b8ff" stroke="#63b8ff" points="458.97,-731 448.97,-734.5 458.97,-738 458.97,-731"/>
</g>
<!-- Node11 -->
<g id="node11" class="node">
<title>Node11</title>
<g id="a_node11"><a xlink:href="interfaceSCR__ArsenalSaveTypeUIInfo.html" target="_top" xlink:title=" ">
<polygon fill="white" stroke="#666666" points="453,-532 312,-532 312,-513 453,-513 453,-532"/>
<text text-anchor="middle" x="382.5" y="-520" font-family="Helvetica,sans-Serif" font-size="10.00">SCR_ArsenalSaveTypeUIInfo</text>
</a>
</g>
</g>
<!-- Node10&#45;&gt;Node11 -->
<g id="edge10" class="edge">
<title>Node10&#45;&gt;Node11</title>
<path fill="none" stroke="#63b8ff" d="M253.77,-522.5C272.19,-522.5 292.59,-522.5 311.58,-522.5"/>
<polygon fill="#63b8ff" stroke="#63b8ff" points="253.89,-519 243.89,-522.5 253.89,-526 253.89,-519"/>
</g>
<!-- Node12 -->
<g id="node12" class="node">
<title>Node12</title>
<g id="a_node12"><a xlink:href="interfaceSCR__UIInfo.html" target="_top" xlink:title="Class used to hold UI information.">
<polygon fill="white" stroke="#666666" points="415.5,-430 349.5,-430 349.5,-411 415.5,-411 415.5,-430"/>
<text text-anchor="middle" x="382.5" y="-418" font-family="Helvetica,sans-Serif" font-size="10.00">SCR_UIInfo</text>
</a>
</g>
</g>
<!-- Node10&#45;&gt;Node12 -->
<g id="edge11" class="edge">
<title>Node10&#45;&gt;Node12</title>
<path fill="none" stroke="#63b8ff" d="M253.04,-511.73C259.58,-509.7 266.02,-507.31 272,-504.5 313.41,-485.01 353.98,-447.84 371.92,-430.23"/>
<polygon fill="#63b8ff" stroke="#63b8ff" points="252.43,-508.54 243.75,-514.61 254.32,-515.28 252.43,-508.54"/>
</g>
<!-- Node13 -->
<g id="node13" class="node">
<title>Node13</title>
<g id="a_node13"><a xlink:href="interfaceSCR__AIGroupUIInfo.html" target="_top" xlink:title=" ">
<polygon fill="white" stroke="#666666" points="611.5,-707 510.5,-707 510.5,-688 611.5,-688 611.5,-707"/>
<text text-anchor="middle" x="561" y="-695" font-family="Helvetica,sans-Serif" font-size="10.00">SCR_AIGroupUIInfo</text>
</a>
</g>
</g>
<!-- Node12&#45;&gt;Node13 -->
<g id="edge12" class="edge">
<title>Node12&#45;&gt;Node13</title>
<path fill="none" stroke="#63b8ff" d="M403.41,-437.63C420.31,-453.31 443.86,-478.04 457,-504.5 492.31,-575.62 438.55,-621.7 493,-679.5 497.71,-684.5 503.64,-688.16 510.02,-690.84"/>
<polygon fill="#63b8ff" stroke="#63b8ff" points="406.03,-435.39 396.26,-431.29 401.35,-440.59 406.03,-435.39"/>
</g>
<!-- Node14 -->
<g id="node14" class="node">
<title>Node14</title>
<g id="a_node14"><a xlink:href="interfaceSCR__BlockUIInfo.html" target="_top" xlink:title=" ">
<polygon fill="white" stroke="#666666" points="606.5,-670 515.5,-670 515.5,-651 606.5,-651 606.5,-670"/>
<text text-anchor="middle" x="561" y="-658" font-family="Helvetica,sans-Serif" font-size="10.00">SCR_BlockUIInfo</text>
</a>
</g>
</g>
<!-- Node12&#45;&gt;Node14 -->
<g id="edge13" class="edge">
<title>Node12&#45;&gt;Node14</title>
<path fill="none" stroke="#63b8ff" d="M403.07,-437.8C419.76,-453.6 443.18,-478.4 457,-504.5 486.66,-560.52 448.34,-597.52 493,-642.5 499.02,-648.57 506.86,-652.66 515.04,-655.39"/>
<polygon fill="#63b8ff" stroke="#63b8ff" points="405.77,-435.61 396.04,-431.41 401.02,-440.76 405.77,-435.61"/>
</g>
<!-- Node17 -->
<g id="node17" class="node">
<title>Node17</title>
<g id="a_node17"><a xlink:href="interfaceSCR__BudgetUIInfo.html" target="_top" xlink:title=" ">
<polygon fill="white" stroke="#666666" points="609.5,-633 512.5,-633 512.5,-614 609.5,-614 609.5,-633"/>
<text text-anchor="middle" x="561" y="-621" font-family="Helvetica,sans-Serif" font-size="10.00">SCR_BudgetUIInfo</text>
</a>
</g>
</g>
<!-- Node12&#45;&gt;Node17 -->
<g id="edge16" class="edge">
<title>Node12&#45;&gt;Node17</title>
<path fill="none" stroke="#63b8ff" d="M402.24,-437.85C418.59,-453.83 441.97,-478.88 457,-504.5 481.12,-545.6 457.98,-573.18 493,-605.5 498.49,-610.57 505.25,-614.23 512.34,-616.88"/>
<polygon fill="#63b8ff" stroke="#63b8ff" points="405.07,-435.74 395.42,-431.36 400.23,-440.8 405.07,-435.74"/>
</g>
<!-- Node18 -->
<g id="node18" class="node">
<title>Node18</title>
<g id="a_node18"><a xlink:href="interfaceSCR__ColorUIInfo.html" target="_top" xlink:title=" ">
<polygon fill="white" stroke="#666666" points="605.5,-596 516.5,-596 516.5,-577 605.5,-577 605.5,-596"/>
<text text-anchor="middle" x="561" y="-584" font-family="Helvetica,sans-Serif" font-size="10.00">SCR_ColorUIInfo</text>
</a>
</g>
</g>
<!-- Node12&#45;&gt;Node18 -->
<g id="edge17" class="edge">
<title>Node12&#45;&gt;Node18</title>
<path fill="none" stroke="#63b8ff" d="M400.7,-437.96C416.37,-454.36 439.66,-479.98 457,-504.5 475.85,-531.14 467.23,-548.48 493,-568.5 499.75,-573.75 507.91,-577.47 516.18,-580.1"/>
<polygon fill="#63b8ff" stroke="#63b8ff" points="403.74,-436.03 394.27,-431.28 398.71,-440.9 403.74,-436.03"/>
</g>
<!-- Node27 -->
<g id="node21" class="node">
<title>Node27</title>
<g id="a_node21"><a xlink:href="interfaceSCR__DamageStateUIInfo.html" target="_top" xlink:title=" ">
<polygon fill="white" stroke="#666666" points="623.5,-559 498.5,-559 498.5,-540 623.5,-540 623.5,-559"/>
<text text-anchor="middle" x="561" y="-547" font-family="Helvetica,sans-Serif" font-size="10.00">SCR_DamageStateUIInfo</text>
</a>
</g>
</g>
<!-- Node12&#45;&gt;Node27 -->
<g id="edge20" class="edge">
<title>Node12&#45;&gt;Node27</title>
<path fill="none" stroke="#63b8ff" d="M399.11,-438.48C423.82,-466.55 471.36,-518.9 493,-531.5 498.52,-534.71 504.62,-537.37 510.83,-539.55"/>
<polygon fill="#63b8ff" stroke="#63b8ff" points="401.17,-436.52 391.95,-431.3 395.9,-441.13 401.17,-436.52"/>
</g>
<!-- Node28 -->
<g id="node22" class="node">
<title>Node28</title>
<g id="a_node22"><a xlink:href="interfaceSCR__EditableEntityUIInfo.html" target="_top" xlink:title=" ">
<polygon fill="white" stroke="#666666" points="624.5,-522 497.5,-522 497.5,-503 624.5,-503 624.5,-522"/>
<text text-anchor="middle" x="561" y="-510" font-family="Helvetica,sans-Serif" font-size="10.00">SCR_EditableEntityUIInfo</text>
</a>
</g>
</g>
<!-- Node12&#45;&gt;Node28 -->
<g id="edge21" class="edge">
<title>Node12&#45;&gt;Node28</title>
<path fill="none" stroke="#63b8ff" d="M403.6,-437.12C424.69,-453.79 459.37,-479.14 493,-494.5 499.79,-497.6 507.23,-500.26 514.59,-502.5"/>
<polygon fill="#63b8ff" stroke="#63b8ff" points="406.17,-433.89 396.19,-430.35 401.78,-439.35 406.17,-433.89"/>
</g>
<!-- Node34 -->
<g id="node28" class="node">
<title>Node34</title>
<g id="a_node28"><a xlink:href="interfaceSCR__EditorAttributeUIInfo.html" target="_top" xlink:title="UIInfo used by editor attribute system.">
<polygon fill="white" stroke="#666666" points="625,-485 497,-485 497,-466 625,-466 625,-485"/>
<text text-anchor="middle" x="561" y="-473" font-family="Helvetica,sans-Serif" font-size="10.00">SCR_EditorAttributeUIInfo</text>
</a>
</g>
</g>
<!-- Node12&#45;&gt;Node34 -->
<g id="edge27" class="edge">
<title>Node12&#45;&gt;Node34</title>
<path fill="none" stroke="#63b8ff" d="M421.37,-433.96C442.37,-441.25 469.01,-450.23 493,-457.5 502.11,-460.26 511.97,-463.03 521.26,-465.54"/>
<polygon fill="#63b8ff" stroke="#63b8ff" points="422.84,-430.41 412.25,-430.42 420.53,-437.02 422.84,-430.41"/>
</g>
<!-- Node35 -->
<g id="node29" class="node">
<title>Node35</title>
<g id="a_node29"><a xlink:href="interfaceSCR__EditorModeUIInfo.html" target="_top" xlink:title=" ">
<polygon fill="white" stroke="#666666" points="619,-448 503,-448 503,-429 619,-429 619,-448"/>
<text text-anchor="middle" x="561" y="-436" font-family="Helvetica,sans-Serif" font-size="10.00">SCR_EditorModeUIInfo</text>
</a>
</g>
</g>
<!-- Node12&#45;&gt;Node35 -->
<g id="edge28" class="edge">
<title>Node12&#45;&gt;Node35</title>
<path fill="none" stroke="#63b8ff" d="M426.65,-424.9C449.58,-427.24 478.08,-430.15 502.83,-432.67"/>
<polygon fill="#63b8ff" stroke="#63b8ff" points="427.18,-421.33 416.87,-423.8 426.47,-428.3 427.18,-421.33"/>
</g>
<!-- Node36 -->
<g id="node30" class="node">
<title>Node36</title>
<g id="a_node30"><a xlink:href="interfaceSCR__InputActionUIInfo.html" target="_top" xlink:title=" ">
<polygon fill="white" stroke="#666666" points="618.5,-411 503.5,-411 503.5,-392 618.5,-392 618.5,-411"/>
<text text-anchor="middle" x="561" y="-399" font-family="Helvetica,sans-Serif" font-size="10.00">SCR_InputActionUIInfo</text>
</a>
</g>
</g>
<!-- Node12&#45;&gt;Node36 -->
<g id="edge29" class="edge">
<title>Node12&#45;&gt;Node36</title>
<path fill="none" stroke="#63b8ff" d="M426.69,-415.85C449.73,-413.37 478.37,-410.29 503.19,-407.62"/>
<polygon fill="#63b8ff" stroke="#63b8ff" points="426.44,-412.46 416.87,-417.02 427.19,-419.42 426.44,-412.46"/>
</g>
<!-- Node37 -->
<g id="node31" class="node">
<title>Node37</title>
<g id="a_node31"><a xlink:href="interfaceSCR__MoonPhaseUIInfo.html" target="_top" xlink:title=" ">
<polygon fill="white" stroke="#666666" points="620,-374 502,-374 502,-355 620,-355 620,-374"/>
<text text-anchor="middle" x="561" y="-362" font-family="Helvetica,sans-Serif" font-size="10.00">SCR_MoonPhaseUIInfo</text>
</a>
</g>
</g>
<!-- Node12&#45;&gt;Node37 -->
<g id="edge30" class="edge">
<title>Node12&#45;&gt;Node37</title>
<path fill="none" stroke="#63b8ff" d="M422.13,-406.93C443.03,-399.72 469.34,-390.85 493,-383.5 502.93,-380.42 513.75,-377.26 523.74,-374.43"/>
<polygon fill="#63b8ff" stroke="#63b8ff" points="421.04,-403.95 412.73,-410.53 423.33,-410.56 421.04,-403.95"/>
</g>
<!-- Node38 -->
<g id="node32" class="node">
<title>Node38</title>
<g id="a_node32"><a xlink:href="interfaceSCR__OverridableUIInfo.html" target="_top" xlink:title="UI info class with setter functions.">
<polygon fill="white" stroke="#666666" points="618,-337 504,-337 504,-318 618,-318 618,-337"/>
<text text-anchor="middle" x="561" y="-325" font-family="Helvetica,sans-Serif" font-size="10.00">SCR_OverridableUIInfo</text>
</a>
</g>
</g>
<!-- Node12&#45;&gt;Node38 -->
<g id="edge31" class="edge">
<title>Node12&#45;&gt;Node38</title>
<path fill="none" stroke="#63b8ff" d="M403.65,-403.97C424.76,-387.38 459.47,-362.09 493,-346.5 500.56,-342.98 508.92,-339.98 517.09,-337.47"/>
<polygon fill="#63b8ff" stroke="#63b8ff" points="401.84,-401.74 396.21,-410.71 406.21,-407.2 401.84,-401.74"/>
</g>
<!-- Node39 -->
<g id="node33" class="node">
<title>Node39</title>
<g id="a_node33"><a xlink:href="interfaceSCR__PlayerUIInfo.html" target="_top" xlink:title=" ">
<polygon fill="white" stroke="#666666" points="608,-300 514,-300 514,-281 608,-281 608,-300"/>
<text text-anchor="middle" x="561" y="-288" font-family="Helvetica,sans-Serif" font-size="10.00">SCR_PlayerUIInfo</text>
</a>
</g>
</g>
<!-- Node12&#45;&gt;Node39 -->
<g id="edge32" class="edge">
<title>Node12&#45;&gt;Node39</title>
<path fill="none" stroke="#63b8ff" d="M396.99,-401.73C415.75,-376.97 452.07,-333.72 493,-309.5 499.35,-305.74 506.47,-302.7 513.65,-300.24"/>
<polygon fill="#63b8ff" stroke="#63b8ff" points="393.61,-399.4 390.47,-409.52 399.24,-403.57 393.61,-399.4"/>
</g>
<!-- Node40 -->
<g id="node34" class="node">
<title>Node40</title>
<g id="a_node34"><a xlink:href="interfaceSCR__SelectionMenuEntry.html" target="_top" xlink:title="Scripted selection menu entry based on UI info for storing data into SCR_SelectionMenu.">
<polygon fill="white" stroke="#666666" points="626,-263 496,-263 496,-244 626,-244 626,-263"/>
<text text-anchor="middle" x="561" y="-251" font-family="Helvetica,sans-Serif" font-size="10.00">SCR_SelectionMenuEntry</text>
</a>
</g>
</g>
<!-- Node12&#45;&gt;Node40 -->
<g id="edge33" class="edge">
<title>Node12&#45;&gt;Node40</title>
<path fill="none" stroke="#63b8ff" d="M392.6,-400.97C408.43,-369.16 444.09,-306.33 493,-272.5 498.37,-268.79 504.46,-265.79 510.72,-263.38"/>
<polygon fill="#63b8ff" stroke="#63b8ff" points="389.04,-399.3 387.84,-409.83 395.34,-402.35 389.04,-399.3"/>
</g>
<!-- Node51 -->
<g id="node43" class="node">
<title>Node51</title>
<g id="a_node43"><a xlink:href="interfaceSCR__SimpleMessageUIInfo.html" target="_top" xlink:title=" ">
<polygon fill="white" stroke="#666666" points="629,-226 493,-226 493,-207 629,-207 629,-226"/>
<text text-anchor="middle" x="561" y="-214" font-family="Helvetica,sans-Serif" font-size="10.00">SCR_SimpleMessageUIInfo</text>
</a>
</g>
</g>
<!-- Node12&#45;&gt;Node51 -->
<g id="edge42" class="edge">
<title>Node12&#45;&gt;Node51</title>
<path fill="none" stroke="#63b8ff" d="M389.76,-400.41C402.66,-362.31 435.92,-279.46 493,-235.5 497.79,-231.81 503.26,-228.84 508.97,-226.44"/>
<polygon fill="#63b8ff" stroke="#63b8ff" points="386.17,-399.11 386.4,-409.7 392.83,-401.28 386.17,-399.11"/>
</g>
<!-- Node52 -->
<g id="node44" class="node">
<title>Node52</title>
<g id="a_node44"><a xlink:href="interfaceSCR__UINotificationInfo.html" target="_top" xlink:title="UIInfo used by the Notifications system.">
<polygon fill="white" stroke="#666666" points="618,-189 504,-189 504,-170 618,-170 618,-189"/>
<text text-anchor="middle" x="561" y="-177" font-family="Helvetica,sans-Serif" font-size="10.00">SCR_UINotificationInfo</text>
</a>
</g>
</g>
<!-- Node12&#45;&gt;Node52 -->
<g id="edge43" class="edge">
<title>Node12&#45;&gt;Node52</title>
<path fill="none" stroke="#63b8ff" d="M387.69,-400.1C397.76,-356.34 427.5,-253.05 493,-198.5 497.46,-194.79 502.6,-191.8 508.01,-189.39"/>
<polygon fill="#63b8ff" stroke="#63b8ff" points="384.08,-399.25 385.36,-409.77 390.91,-400.75 384.08,-399.25"/>
</g>
<!-- Node55 -->
<g id="node47" class="node">
<title>Node55</title>
<g id="a_node47"><a xlink:href="interfaceSCR__VotingUIInfo.html" target="_top" xlink:title=" ">
<polygon fill="white" stroke="#666666" points="608,-152 514,-152 514,-133 608,-133 608,-152"/>
<text text-anchor="middle" x="561" y="-140" font-family="Helvetica,sans-Serif" font-size="10.00">SCR_VotingUIInfo</text>
</a>
</g>
</g>
<!-- Node12&#45;&gt;Node55 -->
<g id="edge46" class="edge">
<title>Node12&#45;&gt;Node55</title>
<path fill="none" stroke="#63b8ff" d="M386.16,-399.76C393.56,-350.73 418.97,-226.9 493,-161.5 498.89,-156.3 506.11,-152.51 513.6,-149.76"/>
<polygon fill="#63b8ff" stroke="#63b8ff" points="382.57,-399.14 384.65,-409.53 389.5,-400.12 382.57,-399.14"/>
</g>
<!-- Node56 -->
<g id="node48" class="node">
<title>Node56</title>
<g id="a_node48"><a xlink:href="interfaceUIInfoAssetCard.html" target="_top" xlink:title=" ">
<polygon fill="white" stroke="#666666" points="604,-115 518,-115 518,-96 604,-96 604,-115"/>
<text text-anchor="middle" x="561" y="-103" font-family="Helvetica,sans-Serif" font-size="10.00">UIInfoAssetCard</text>
</a>
</g>
</g>
<!-- Node12&#45;&gt;Node56 -->
<g id="edge47" class="edge">
<title>Node12&#45;&gt;Node56</title>
<path fill="none" stroke="#63b8ff" d="M384.92,-399.77C389.74,-346.04 410.15,-201.12 493,-124.5 499.83,-118.18 508.62,-113.94 517.56,-111.11"/>
<polygon fill="#63b8ff" stroke="#63b8ff" points="381.36,-399.35 384.06,-409.59 388.34,-399.9 381.36,-399.35"/>
</g>
<!-- Node15 -->
<g id="node15" class="node">
<title>Node15</title>
<g id="a_node15"><a xlink:href="interfaceSCR__FormatUIInfo.html" target="_top" xlink:title=" ">
<polygon fill="white" stroke="#666666" points="800.5,-707 703.5,-707 703.5,-688 800.5,-688 800.5,-707"/>
<text text-anchor="middle" x="752" y="-695" font-family="Helvetica,sans-Serif" font-size="10.00">SCR_FormatUIInfo</text>
</a>
</g>
</g>
<!-- Node14&#45;&gt;Node15 -->
<g id="edge14" class="edge">
<title>Node14&#45;&gt;Node15</title>
<path fill="none" stroke="#63b8ff" d="M617.33,-671.33C644.57,-676.66 677.09,-683.03 703.23,-688.15"/>
<polygon fill="#63b8ff" stroke="#63b8ff" points="618.28,-667.75 607.79,-669.27 616.93,-674.62 618.28,-667.75"/>
</g>
<!-- Node16 -->
<g id="node16" class="node">
<title>Node16</title>
<g id="a_node16"><a xlink:href="interfaceSCR__HintUIInfo.html" target="_top" xlink:title=" ">
<polygon fill="white" stroke="#666666" points="793.5,-670 710.5,-670 710.5,-651 793.5,-651 793.5,-670"/>
<text text-anchor="middle" x="752" y="-658" font-family="Helvetica,sans-Serif" font-size="10.00">SCR_HintUIInfo</text>
</a>
</g>
</g>
<!-- Node14&#45;&gt;Node16 -->
<g id="edge15" class="edge">
<title>Node14&#45;&gt;Node16</title>
<path fill="none" stroke="#63b8ff" d="M617.41,-660.5C647.07,-660.5 682.97,-660.5 710.08,-660.5"/>
<polygon fill="#63b8ff" stroke="#63b8ff" points="617.79,-657 607.79,-660.5 617.79,-664 617.79,-657"/>
</g>
<!-- Node19 -->
<g id="node19" class="node">
<title>Node19</title>
<g id="a_node19"><a xlink:href="interfaceSCR__InventoryItemHintUIInfo.html" target="_top" xlink:title=" ">
<polygon fill="#fff0f0" stroke="red" points="822,-633 682,-633 682,-614 822,-614 822,-633"/>
<text text-anchor="middle" x="752" y="-621" font-family="Helvetica,sans-Serif" font-size="10.00">SCR_InventoryItemHintUIInfo</text>
</a>
</g>
</g>
<!-- Node18&#45;&gt;Node19 -->
<g id="edge18" class="edge">
<title>Node18&#45;&gt;Node19</title>
<path fill="none" stroke="#63b8ff" d="M616.4,-597.15C642.74,-602.31 674.17,-608.46 700.04,-613.52"/>
<polygon fill="#63b8ff" stroke="#63b8ff" points="617.32,-593.57 606.84,-595.08 615.98,-600.44 617.32,-593.57"/>
</g>
<!-- Node20 -->
<g id="node20" class="node">
<title>Node20</title>
<g id="a_node20"><a xlink:href="interfaceSCR__BaseSupplyItemHintUIInfo.html" target="_top" xlink:title=" ">
<polygon fill="#fff0f0" stroke="red" points="1030,-633 875,-633 875,-614 1030,-614 1030,-633"/>
<text text-anchor="middle" x="952.5" y="-621" font-family="Helvetica,sans-Serif" font-size="10.00">SCR_BaseSupplyItemHintUIInfo</text>
</a>
</g>
</g>
<!-- Node19&#45;&gt;Node20 -->
<g id="edge19" class="edge">
<title>Node19&#45;&gt;Node20</title>
<path fill="none" stroke="#63b8ff" d="M833.26,-623.5C846.92,-623.5 861.09,-623.5 874.66,-623.5"/>
<polygon fill="#63b8ff" stroke="#63b8ff" points="833.43,-620 823.43,-623.5 833.43,-627 833.43,-620"/>
</g>
<!-- Node29 -->
<g id="node23" class="node">
<title>Node29</title>
<g id="a_node23"><a xlink:href="interfaceSCR__EditableCommentUIInfo.html" target="_top" xlink:title=" ">
<polygon fill="white" stroke="#666666" points="823.5,-596 680.5,-596 680.5,-577 823.5,-577 823.5,-596"/>
<text text-anchor="middle" x="752" y="-584" font-family="Helvetica,sans-Serif" font-size="10.00">SCR_EditableCommentUIInfo</text>
</a>
</g>
</g>
<!-- Node28&#45;&gt;Node29 -->
<g id="edge22" class="edge">
<title>Node28&#45;&gt;Node29</title>
<path fill="none" stroke="#63b8ff" d="M619.03,-526.37C622.49,-527.91 625.84,-529.62 629,-531.5 648.71,-543.25 644.89,-557.45 665,-568.5 670.88,-571.73 677.28,-574.39 683.85,-576.57"/>
<polygon fill="#63b8ff" stroke="#63b8ff" points="620.67,-522.86 610.08,-522.45 618.1,-529.37 620.67,-522.86"/>
</g>
<!-- Node30 -->
<g id="node24" class="node">
<title>Node30</title>
<g id="a_node24"><a xlink:href="interfaceSCR__EditableDescriptorUIInfo.html" target="_top" xlink:title=" ">
<polygon fill="white" stroke="#666666" points="825,-559 679,-559 679,-540 825,-540 825,-559"/>
<text text-anchor="middle" x="752" y="-547" font-family="Helvetica,sans-Serif" font-size="10.00">SCR_EditableDescriptorUIInfo</text>
</a>
</g>
</g>
<!-- Node28&#45;&gt;Node30 -->
<g id="edge23" class="edge">
<title>Node28&#45;&gt;Node30</title>
<path fill="none" stroke="#63b8ff" d="M623.42,-524.52C648.25,-529.38 676.57,-534.93 700.21,-539.56"/>
<polygon fill="#63b8ff" stroke="#63b8ff" points="624.13,-520.9 613.65,-522.42 622.79,-527.77 624.13,-520.9"/>
</g>
<!-- Node31 -->
<g id="node25" class="node">
<title>Node31</title>
<g id="a_node25"><a xlink:href="interfaceSCR__EditableGroupUIInfo.html" target="_top" xlink:title=" ">
<polygon fill="white" stroke="#666666" points="816,-522 688,-522 688,-503 816,-503 816,-522"/>
<text text-anchor="middle" x="752" y="-510" font-family="Helvetica,sans-Serif" font-size="10.00">SCR_EditableGroupUIInfo</text>
</a>
</g>
</g>
<!-- Node28&#45;&gt;Node31 -->
<g id="edge24" class="edge">
<title>Node28&#45;&gt;Node31</title>
<path fill="none" stroke="#63b8ff" d="M635.51,-512.5C652.75,-512.5 670.96,-512.5 687.7,-512.5"/>
<polygon fill="#63b8ff" stroke="#63b8ff" points="635.93,-509 625.93,-512.5 635.93,-516 635.93,-509"/>
</g>
<!-- Node32 -->
<g id="node26" class="node">
<title>Node32</title>
<g id="a_node26"><a xlink:href="interfaceSCR__EditableLinkedContentBrowserUIInfo.html" target="_top" xlink:title=" ">
<polygon fill="white" stroke="#666666" points="822,-484.5 682,-484.5 682,-454.5 822,-454.5 822,-484.5"/>
<text text-anchor="start" x="690" y="-472.5" font-family="Helvetica,sans-Serif" font-size="10.00">SCR_EditableLinkedContent</text>
<text text-anchor="middle" x="752" y="-461.5" font-family="Helvetica,sans-Serif" font-size="10.00">BrowserUIInfo</text>
</a>
</g>
</g>
<!-- Node28&#45;&gt;Node32 -->
<g id="edge25" class="edge">
<title>Node28&#45;&gt;Node32</title>
<path fill="none" stroke="#63b8ff" d="M616.38,-500.13C637.14,-495.4 661.09,-489.96 682.97,-484.98"/>
<polygon fill="#63b8ff" stroke="#63b8ff" points="615.81,-496.9 606.84,-502.53 617.36,-503.72 615.81,-496.9"/>
</g>
<!-- Node33 -->
<g id="node27" class="node">
<title>Node33</title>
<g id="a_node27"><a xlink:href="interfaceSCR__EditableVehicleUIInfo.html" target="_top" xlink:title=" ">
<polygon fill="white" stroke="#666666" points="819,-436 685,-436 685,-417 819,-417 819,-436"/>
<text text-anchor="middle" x="752" y="-424" font-family="Helvetica,sans-Serif" font-size="10.00">SCR_EditableVehicleUIInfo</text>
</a>
</g>
</g>
<!-- Node28&#45;&gt;Node33 -->
<g id="edge26" class="edge">
<title>Node28&#45;&gt;Node33</title>
<path fill="none" stroke="#63b8ff" d="M622.93,-498.19C625.03,-497.05 627.06,-495.83 629,-494.5 651.31,-479.25 642.36,-460.25 665,-445.5 671.02,-441.58 677.73,-438.46 684.67,-435.97"/>
<polygon fill="#63b8ff" stroke="#63b8ff" points="621.97,-495.24 614.37,-502.62 624.91,-501.59 621.97,-495.24"/>
</g>
<!-- Node41 -->
<g id="node35" class="node">
<title>Node41</title>
<g id="a_node35"><a xlink:href="interfaceSCR__EditorActionSelectionMenuEntry.html" target="_top" xlink:title="A wrapper class utilized by SCR_ActionsRadialMenuEditorComponent for creating a specialized Entry (SC...">
<polygon fill="white" stroke="#666666" points="820,-398.5 684,-398.5 684,-368.5 820,-368.5 820,-398.5"/>
<text text-anchor="start" x="692" y="-386.5" font-family="Helvetica,sans-Serif" font-size="10.00">SCR_EditorActionSelection</text>
<text text-anchor="middle" x="752" y="-375.5" font-family="Helvetica,sans-Serif" font-size="10.00">MenuEntry</text>
</a>
</g>
</g>
<!-- Node40&#45;&gt;Node41 -->
<g id="edge34" class="edge">
<title>Node40&#45;&gt;Node41</title>
<path fill="none" stroke="#63b8ff" d="M624.06,-268.63C625.79,-269.83 627.44,-271.11 629,-272.5 660.26,-300.32 633.69,-331.74 665,-359.5 670.45,-364.33 676.8,-368.2 683.53,-371.29"/>
<polygon fill="#63b8ff" stroke="#63b8ff" points="626.32,-265.32 615.9,-263.41 622.86,-271.41 626.32,-265.32"/>
</g>
<!-- Node42 -->
<g id="node36" class="node">
<title>Node42</title>
<g id="a_node36"><a xlink:href="interfaceSCR__ItemSelectionMenuEntry.html" target="_top" xlink:title=" ">
<polygon fill="white" stroke="#666666" points="826.5,-350 677.5,-350 677.5,-331 826.5,-331 826.5,-350"/>
<text text-anchor="middle" x="752" y="-338" font-family="Helvetica,sans-Serif" font-size="10.00">SCR_ItemSelectionMenuEntry</text>
</a>
</g>
</g>
<!-- Node40&#45;&gt;Node42 -->
<g id="edge35" class="edge">
<title>Node40&#45;&gt;Node42</title>
<path fill="none" stroke="#63b8ff" d="M621.48,-267.92C624.1,-269.31 626.62,-270.83 629,-272.5 651.42,-288.22 642.04,-307.57 665,-322.5 669.99,-325.74 675.45,-328.42 681.13,-330.62"/>
<polygon fill="#63b8ff" stroke="#63b8ff" points="623.23,-264.42 612.68,-263.45 620.33,-270.79 623.23,-264.42"/>
</g>
<!-- Node43 -->
<g id="node37" class="node">
<title>Node43</title>
<g id="a_node37"><a xlink:href="interfaceSCR__MapMarkerMenuEntry.html" target="_top" xlink:title="Base entry for marker selection menu.">
<polygon fill="white" stroke="#666666" points="821,-313 683,-313 683,-294 821,-294 821,-313"/>
<text text-anchor="middle" x="752" y="-301" font-family="Helvetica,sans-Serif" font-size="10.00">SCR_MapMarkerMenuEntry</text>
</a>
</g>
</g>
<!-- Node40&#45;&gt;Node43 -->
<g id="edge36" class="edge">
<title>Node40&#45;&gt;Node43</title>
<path fill="none" stroke="#63b8ff" d="M609.3,-266.46C615.94,-268.41 622.66,-270.46 629,-272.5 645.19,-277.71 648.63,-280.86 665,-285.5 675.42,-288.46 686.67,-291.16 697.5,-293.52"/>
<polygon fill="#63b8ff" stroke="#63b8ff" points="610.58,-262.9 600,-263.49 608.64,-269.63 610.58,-262.9"/>
</g>
<!-- Node44 -->
<g id="node38" class="node">
<title>Node44</title>
<g id="a_node38"><a xlink:href="interfaceSCR__MapMenuCommandingEntry.html" target="_top" xlink:title=" ">
<polygon fill="white" stroke="#666666" points="834.5,-276 669.5,-276 669.5,-257 834.5,-257 834.5,-276"/>
<text text-anchor="middle" x="752" y="-264" font-family="Helvetica,sans-Serif" font-size="10.00">SCR_MapMenuCommandingEntry</text>
</a>
</g>
</g>
<!-- Node40&#45;&gt;Node44 -->
<g id="edge37" class="edge">
<title>Node40&#45;&gt;Node44</title>
<path fill="none" stroke="#63b8ff" d="M637.1,-258.67C647.64,-259.39 658.53,-260.14 669.19,-260.87"/>
<polygon fill="#63b8ff" stroke="#63b8ff" points="637.47,-255.11 627.25,-257.92 636.99,-262.1 637.47,-255.11"/>
</g>
<!-- Node45 -->
<g id="node39" class="node">
<title>Node45</title>
<g id="a_node39"><a xlink:href="interfaceSCR__MapMenuRequestedTaskEntry.html" target="_top" xlink:title=" ">
<polygon fill="white" stroke="#666666" points="828,-238.5 676,-238.5 676,-208.5 828,-208.5 828,-238.5"/>
<text text-anchor="start" x="684" y="-226.5" font-family="Helvetica,sans-Serif" font-size="10.00">SCR_MapMenuRequestedTask</text>
<text text-anchor="middle" x="752" y="-215.5" font-family="Helvetica,sans-Serif" font-size="10.00">Entry</text>
</a>
</g>
</g>
<!-- Node40&#45;&gt;Node45 -->
<g id="edge38" class="edge">
<title>Node40&#45;&gt;Node45</title>
<path fill="none" stroke="#63b8ff" d="M635.75,-241.79C648.82,-239.72 662.44,-237.56 675.54,-235.48"/>
<polygon fill="#63b8ff" stroke="#63b8ff" points="635.26,-238.49 625.93,-243.51 636.36,-245.4 635.26,-238.49"/>
</g>
<!-- Node46 -->
<g id="node40" class="node">
<title>Node46</title>
<g id="a_node40"><a xlink:href="interfaceSCR__SelectionMenuCategoryEntry.html" target="_top" xlink:title="Scripted selection menu category, that can contain multiple entries.">
<polygon fill="#fff0f0" stroke="red" points="825,-190.5 679,-190.5 679,-160.5 825,-160.5 825,-190.5"/>
<text text-anchor="start" x="687" y="-178.5" font-family="Helvetica,sans-Serif" font-size="10.00">SCR_SelectionMenuCategory</text>
<text text-anchor="middle" x="752" y="-167.5" font-family="Helvetica,sans-Serif" font-size="10.00">Entry</text>
</a>
</g>
</g>
<!-- Node40&#45;&gt;Node46 -->
<g id="edge39" class="edge">
<title>Node40&#45;&gt;Node46</title>
<path fill="none" stroke="#63b8ff" d="M621.17,-239.51C623.87,-238.28 626.5,-236.95 629,-235.5 648.59,-224.18 645.46,-210.91 665,-199.5 670.62,-196.22 676.71,-193.36 682.97,-190.89"/>
<polygon fill="#63b8ff" stroke="#63b8ff" points="620.13,-236.56 612.15,-243.52 622.73,-243.06 620.13,-236.56"/>
</g>
<!-- Node48 -->
<g id="node41" class="node">
<title>Node48</title>
<g id="a_node41"><a xlink:href="interfaceSCR__SelectionMenuEntryCommand.html" target="_top" xlink:title=" ">
<polygon fill="white" stroke="#666666" points="839,-142 665,-142 665,-123 839,-123 839,-142"/>
<text text-anchor="middle" x="752" y="-130" font-family="Helvetica,sans-Serif" font-size="10.00">SCR_SelectionMenuEntryCommand</text>
</a>
</g>
</g>
<!-- Node40&#45;&gt;Node48 -->
<g id="edge40" class="edge">
<title>Node40&#45;&gt;Node48</title>
<path fill="none" stroke="#63b8ff" d="M625.73,-238.1C626.86,-237.27 627.95,-236.41 629,-235.5 659.69,-208.9 633.72,-177.41 665,-151.5 669.48,-147.79 674.52,-144.77 679.86,-142.31"/>
<polygon fill="#63b8ff" stroke="#63b8ff" points="624.31,-235.46 617.5,-243.58 627.88,-241.48 624.31,-235.46"/>
</g>
<!-- Node49 -->
<g id="node42" class="node">
<title>Node49</title>
<g id="a_node42"><a xlink:href="interfaceSCR__VONEntry.html" target="_top" xlink:title="Voice over network entry data class, used for management of communication methods.">
<polygon fill="#fff0f0" stroke="red" points="795,-105 709,-105 709,-86 795,-86 795,-105"/>
<text text-anchor="middle" x="752" y="-93" font-family="Helvetica,sans-Serif" font-size="10.00">SCR_VONEntry</text>
</a>
</g>
</g>
<!-- Node40&#45;&gt;Node49 -->
<g id="edge41" class="edge">
<title>Node40&#45;&gt;Node49</title>
<path fill="none" stroke="#63b8ff" d="M626.78,-237.52C627.54,-236.87 628.28,-236.2 629,-235.5 669.2,-196.36 623.93,-152.73 665,-114.5 676.75,-103.56 693.33,-98.4 708.8,-96.12"/>
<polygon fill="#63b8ff" stroke="#63b8ff" points="625.21,-235.03 618.88,-243.52 629.12,-240.83 625.21,-235.03"/>
</g>
<!-- Node53 -->
<g id="node45" class="node">
<title>Node53</title>
<g id="a_node45"><a xlink:href="interfaceSCR__ColoredTextNotificationUIInfo.html" target="_top" xlink:title=" ">
<polygon fill="white" stroke="#666666" points="823,-67.5 681,-67.5 681,-37.5 823,-37.5 823,-67.5"/>
<text text-anchor="start" x="689" y="-55.5" font-family="Helvetica,sans-Serif" font-size="10.00">SCR_ColoredTextNotification</text>
<text text-anchor="middle" x="752" y="-44.5" font-family="Helvetica,sans-Serif" font-size="10.00">UIInfo</text>
</a>
</g>
</g>
<!-- Node52&#45;&gt;Node53 -->
<g id="edge44" class="edge">
<title>Node52&#45;&gt;Node53</title>
<path fill="none" stroke="#63b8ff" d="M625.73,-164.1C626.86,-163.27 627.95,-162.41 629,-161.5 659.69,-134.9 634.58,-104.42 665,-77.5 669.66,-73.38 674.96,-69.93 680.59,-67.06"/>
<polygon fill="#63b8ff" stroke="#63b8ff" points="624.31,-161.46 617.5,-169.58 627.88,-167.48 624.31,-161.46"/>
</g>
<!-- Node54 -->
<g id="node46" class="node">
<title>Node54</title>
<g id="a_node46"><a xlink:href="interfaceSCR__SplitNotificationUIInfo.html" target="_top" xlink:title=" ">
<polygon fill="white" stroke="#666666" points="819,-19 685,-19 685,0 819,0 819,-19"/>
<text text-anchor="middle" x="752" y="-7" font-family="Helvetica,sans-Serif" font-size="10.00">SCR_SplitNotificationUIInfo</text>
</a>
</g>
</g>
<!-- Node52&#45;&gt;Node54 -->
<g id="edge45" class="edge">
<title>Node52&#45;&gt;Node54</title>
<path fill="none" stroke="#63b8ff" d="M626.8,-163.54C627.56,-162.89 628.29,-162.21 629,-161.5 672.34,-118.24 620.69,-70.77 665,-28.5 670.64,-23.12 677.45,-19.12 684.73,-16.18"/>
<polygon fill="#63b8ff" stroke="#63b8ff" points="625.23,-161.06 618.96,-169.61 629.19,-166.84 625.23,-161.06"/>
</g>
</g>
</svg>
