<?xml version="1.0" encoding="UTF-8" standalone="no"?>
<!DOCTYPE svg PUBLIC "-//W3C//DTD SVG 1.1//EN"
 "http://www.w3.org/Graphics/SVG/1.1/DTD/svg11.dtd">
<!-- Generated by graphviz version 8.0.2 (20230410.1723)
 -->
<!-- Title: WideForestGeneratorClusterObject Pages: 1 -->
<svg width="162pt" height="269pt"
 viewBox="0.00 0.00 162.00 269.00" xmlns="http://www.w3.org/2000/svg" xmlns:xlink="http://www.w3.org/1999/xlink">
<g id="graph0" class="graph" transform="scale(1 1) rotate(0) translate(4 265)">
<title>WideForestGeneratorClusterObject</title>
<!-- Node1 -->
<g id="node1" class="node">
<title>Node1</title>
<g id="a_node1"><a xlink:title=" ">
<polygon fill="#999999" stroke="#666666" points="147,-30 7,-30 7,0 147,0 147,-30"/>
<text text-anchor="start" x="15" y="-18" font-family="Helvetica,sans-Serif" font-size="10.00">WideForestGeneratorCluster</text>
<text text-anchor="middle" x="77" y="-7" font-family="Helvetica,sans-Serif" font-size="10.00">Object</text>
</a>
</g>
</g>
<!-- Node2 -->
<g id="node2" class="node">
<title>Node2</title>
<g id="a_node2"><a xlink:href="interfaceSmallForestGeneratorClusterObject.html" target="_top" xlink:title=" ">
<polygon fill="white" stroke="#666666" points="148.5,-96 5.5,-96 5.5,-66 148.5,-66 148.5,-96"/>
<text text-anchor="start" x="13.5" y="-84" font-family="Helvetica,sans-Serif" font-size="10.00">SmallForestGeneratorCluster</text>
<text text-anchor="middle" x="77" y="-73" font-family="Helvetica,sans-Serif" font-size="10.00">Object</text>
</a>
</g>
</g>
<!-- Node2&#45;&gt;Node1 -->
<g id="edge1" class="edge">
<title>Node2&#45;&gt;Node1</title>
<path fill="none" stroke="#63b8ff" d="M77,-54.97C77,-46.55 77,-37.45 77,-30.16"/>
<polygon fill="#63b8ff" stroke="#63b8ff" points="73.5,-54.8 77,-64.8 80.5,-54.8 73.5,-54.8"/>
</g>
<!-- Node3 -->
<g id="node3" class="node">
<title>Node3</title>
<g id="a_node3"><a xlink:href="interfaceSCR__ForestGeneratorTreeBase.html" target="_top" xlink:title=" ">
<polygon fill="white" stroke="#666666" points="154,-151 0,-151 0,-132 154,-132 154,-151"/>
<text text-anchor="middle" x="77" y="-139" font-family="Helvetica,sans-Serif" font-size="10.00">SCR_ForestGeneratorTreeBase</text>
</a>
</g>
</g>
<!-- Node3&#45;&gt;Node2 -->
<g id="edge2" class="edge">
<title>Node3&#45;&gt;Node2</title>
<path fill="none" stroke="#63b8ff" d="M77,-121.08C77,-112.92 77,-103.6 77,-96.11"/>
<polygon fill="#63b8ff" stroke="#63b8ff" points="73.5,-120.87 77,-130.87 80.5,-120.87 73.5,-120.87"/>
</g>
<!-- Node4 -->
<g id="node4" class="node">
<title>Node4</title>
<g id="a_node4"><a xlink:href="interfaceForestGeneratorTreeBase.html" target="_top" xlink:title=" ">
<polygon fill="white" stroke="#666666" points="141,-206 13,-206 13,-187 141,-187 141,-206"/>
<text text-anchor="middle" x="77" y="-194" font-family="Helvetica,sans-Serif" font-size="10.00">ForestGeneratorTreeBase</text>
</a>
</g>
</g>
<!-- Node4&#45;&gt;Node3 -->
<g id="edge3" class="edge">
<title>Node4&#45;&gt;Node3</title>
<path fill="none" stroke="#63b8ff" d="M77,-175.93C77,-167.53 77,-158.13 77,-151.44"/>
<polygon fill="#63b8ff" stroke="#63b8ff" points="73.5,-175.75 77,-185.75 80.5,-175.75 73.5,-175.75"/>
</g>
<!-- Node5 -->
<g id="node5" class="node">
<title>Node5</title>
<g id="a_node5"><a xlink:title=" ">
<polygon fill="white" stroke="#666666" points="105,-261 49,-261 49,-242 105,-242 105,-261"/>
<text text-anchor="middle" x="77" y="-249" font-family="Helvetica,sans-Serif" font-size="10.00">Managed</text>
</a>
</g>
</g>
<!-- Node5&#45;&gt;Node4 -->
<g id="edge4" class="edge">
<title>Node5&#45;&gt;Node4</title>
<path fill="none" stroke="#63b8ff" d="M77,-230.93C77,-222.53 77,-213.13 77,-206.44"/>
<polygon fill="#63b8ff" stroke="#63b8ff" points="73.5,-230.75 77,-240.75 80.5,-230.75 73.5,-230.75"/>
</g>
</g>
</svg>
