<?xml version="1.0" encoding="UTF-8" standalone="no"?>
<!DOCTYPE svg PUBLIC "-//W3C//DTD SVG 1.1//EN"
 "http://www.w3.org/Graphics/SVG/1.1/DTD/svg11.dtd">
<!-- Generated by graphviz version 8.0.2 (20230410.1723)
 -->
<!-- Title: SCR_DoctorCompartmentSlot Pages: 1 -->
<svg width="154pt" height="247pt"
 viewBox="0.00 0.00 154.00 247.00" xmlns="http://www.w3.org/2000/svg" xmlns:xlink="http://www.w3.org/1999/xlink">
<g id="graph0" class="graph" transform="scale(1 1) rotate(0) translate(4 243)">
<title>SCR_DoctorCompartmentSlot</title>
<!-- Node1 -->
<g id="node1" class="node">
<title>Node1</title>
<g id="a_node1"><a xlink:title=" ">
<polygon fill="#999999" stroke="#666666" points="146,-19 0,-19 0,0 146,0 146,-19"/>
<text text-anchor="middle" x="73" y="-7" font-family="Helvetica,sans-Serif" font-size="10.00">SCR_DoctorCompartmentSlot</text>
</a>
</g>
</g>
<!-- Node2 -->
<g id="node2" class="node">
<title>Node2</title>
<g id="a_node2"><a xlink:href="interfaceCargoCompartmentSlot.html" target="_top" xlink:title=" ">
<polygon fill="white" stroke="#666666" points="132,-74 14,-74 14,-55 132,-55 132,-74"/>
<text text-anchor="middle" x="73" y="-62" font-family="Helvetica,sans-Serif" font-size="10.00">CargoCompartmentSlot</text>
</a>
</g>
</g>
<!-- Node2&#45;&gt;Node1 -->
<g id="edge1" class="edge">
<title>Node2&#45;&gt;Node1</title>
<path fill="none" stroke="#63b8ff" d="M73,-43.93C73,-35.53 73,-26.13 73,-19.44"/>
<polygon fill="#63b8ff" stroke="#63b8ff" points="69.5,-43.75 73,-53.75 76.5,-43.75 69.5,-43.75"/>
</g>
<!-- Node3 -->
<g id="node3" class="node">
<title>Node3</title>
<g id="a_node3"><a xlink:href="interfaceBaseCompartmentSlot.html" target="_top" xlink:title=" ">
<polygon fill="white" stroke="#666666" points="130.5,-129 15.5,-129 15.5,-110 130.5,-110 130.5,-129"/>
<text text-anchor="middle" x="73" y="-117" font-family="Helvetica,sans-Serif" font-size="10.00">BaseCompartmentSlot</text>
</a>
</g>
</g>
<!-- Node3&#45;&gt;Node2 -->
<g id="edge2" class="edge">
<title>Node3&#45;&gt;Node2</title>
<path fill="none" stroke="#63b8ff" d="M73,-98.93C73,-90.53 73,-81.13 73,-74.44"/>
<polygon fill="#63b8ff" stroke="#63b8ff" points="69.5,-98.75 73,-108.75 76.5,-98.75 69.5,-98.75"/>
</g>
<!-- Node4 -->
<g id="node4" class="node">
<title>Node4</title>
<g id="a_node4"><a xlink:href="interfaceExtBaseCompartmentSlot.html" target="_top" xlink:title=" ">
<polygon fill="white" stroke="#666666" points="138,-184 8,-184 8,-165 138,-165 138,-184"/>
<text text-anchor="middle" x="73" y="-172" font-family="Helvetica,sans-Serif" font-size="10.00">ExtBaseCompartmentSlot</text>
</a>
</g>
</g>
<!-- Node4&#45;&gt;Node3 -->
<g id="edge3" class="edge">
<title>Node4&#45;&gt;Node3</title>
<path fill="none" stroke="#63b8ff" d="M73,-153.93C73,-145.53 73,-136.13 73,-129.44"/>
<polygon fill="#63b8ff" stroke="#63b8ff" points="69.5,-153.75 73,-163.75 76.5,-153.75 69.5,-153.75"/>
</g>
<!-- Node5 -->
<g id="node5" class="node">
<title>Node5</title>
<g id="a_node5"><a xlink:title=" ">
<polygon fill="white" stroke="#666666" points="116,-239 30,-239 30,-220 116,-220 116,-239"/>
<text text-anchor="middle" x="73" y="-227" font-family="Helvetica,sans-Serif" font-size="10.00">ScriptAndConfig</text>
</a>
</g>
</g>
<!-- Node5&#45;&gt;Node4 -->
<g id="edge4" class="edge">
<title>Node5&#45;&gt;Node4</title>
<path fill="none" stroke="#63b8ff" d="M73,-208.93C73,-200.53 73,-191.13 73,-184.44"/>
<polygon fill="#63b8ff" stroke="#63b8ff" points="69.5,-208.75 73,-218.75 76.5,-208.75 69.5,-208.75"/>
</g>
</g>
</svg>
