<?xml version="1.0" encoding="UTF-8" standalone="no"?>
<!DOCTYPE svg PUBLIC "-//W3C//DTD SVG 1.1//EN"
 "http://www.w3.org/Graphics/SVG/1.1/DTD/svg11.dtd">
<!-- Generated by graphviz version 8.0.2 (20230410.1723)
 -->
<!-- Title: InventoryStorageManagerComponent Pages: 1 -->
<svg width="976pt" height="134pt"
 viewBox="0.00 0.00 976.00 134.00" xmlns="http://www.w3.org/2000/svg" xmlns:xlink="http://www.w3.org/1999/xlink">
<g id="graph0" class="graph" transform="scale(1 1) rotate(0) translate(4 130)">
<title>InventoryStorageManagerComponent</title>
<!-- Node1 -->
<g id="node1" class="node">
<title>Node1</title>
<g id="a_node1"><a xlink:title=" ">
<polygon fill="#999999" stroke="#666666" points="440,-48.5 264,-48.5 264,-29.5 440,-29.5 440,-48.5"/>
<text text-anchor="middle" x="352" y="-36.5" font-family="Helvetica,sans-Serif" font-size="10.00">InventoryStorageManagerComponent</text>
</a>
</g>
</g>
<!-- Node4 -->
<g id="node4" class="node">
<title>Node4</title>
<g id="a_node4"><a xlink:href="interfaceScriptedInventoryStorageManagerComponent.html" target="_top" xlink:title=" ">
<polygon fill="white" stroke="#666666" points="603,-78 478,-78 478,-48 603,-48 603,-78"/>
<text text-anchor="start" x="486" y="-66" font-family="Helvetica,sans-Serif" font-size="10.00">ScriptedInventoryStorage</text>
<text text-anchor="middle" x="540.5" y="-55" font-family="Helvetica,sans-Serif" font-size="10.00">ManagerComponent</text>
</a>
</g>
</g>
<!-- Node1&#45;&gt;Node4 -->
<g id="edge3" class="edge">
<title>Node1&#45;&gt;Node4</title>
<path fill="none" stroke="#63b8ff" d="M441.23,-50.35C453.52,-51.94 465.93,-53.53 477.6,-55.03"/>
<polygon fill="#63b8ff" stroke="#63b8ff" points="441.84,-46.77 431.47,-48.97 440.94,-53.72 441.84,-46.77"/>
</g>
<!-- Node9 -->
<g id="node9" class="node">
<title>Node9</title>
<g id="a_node9"><a xlink:href="interfaceSerializerInventoryStorageManagerComponent.html" target="_top" xlink:title=" ">
<polygon fill="white" stroke="#666666" points="605,-30 476,-30 476,0 605,0 605,-30"/>
<text text-anchor="start" x="484" y="-18" font-family="Helvetica,sans-Serif" font-size="10.00">SerializerInventoryStorage</text>
<text text-anchor="middle" x="540.5" y="-7" font-family="Helvetica,sans-Serif" font-size="10.00">ManagerComponent</text>
</a>
</g>
</g>
<!-- Node1&#45;&gt;Node9 -->
<g id="edge8" class="edge">
<title>Node1&#45;&gt;Node9</title>
<path fill="none" stroke="#63b8ff" d="M441.1,-27.66C452.73,-26.17 464.46,-24.66 475.58,-23.23"/>
<polygon fill="#63b8ff" stroke="#63b8ff" points="440.94,-24.28 431.47,-29.03 441.84,-31.23 440.94,-24.28"/>
</g>
<!-- Node2 -->
<g id="node2" class="node">
<title>Node2</title>
<g id="a_node2"><a xlink:href="interfaceGameComponent.html" target="_top" xlink:title=" ">
<polygon fill="white" stroke="#666666" points="228,-48.5 136,-48.5 136,-29.5 228,-29.5 228,-48.5"/>
<text text-anchor="middle" x="182" y="-36.5" font-family="Helvetica,sans-Serif" font-size="10.00">GameComponent</text>
</a>
</g>
</g>
<!-- Node2&#45;&gt;Node1 -->
<g id="edge1" class="edge">
<title>Node2&#45;&gt;Node1</title>
<path fill="none" stroke="#63b8ff" d="M239.33,-39C247.21,-39 255.45,-39 263.74,-39"/>
<polygon fill="#63b8ff" stroke="#63b8ff" points="239.46,-35.5 229.46,-39 239.46,-42.5 239.46,-35.5"/>
</g>
<!-- Node3 -->
<g id="node3" class="node">
<title>Node3</title>
<g id="a_node3"><a xlink:title=" ">
<polygon fill="white" stroke="#666666" points="100,-48.5 0,-48.5 0,-29.5 100,-29.5 100,-48.5"/>
<text text-anchor="middle" x="50" y="-36.5" font-family="Helvetica,sans-Serif" font-size="10.00">GenericComponent</text>
</a>
</g>
</g>
<!-- Node3&#45;&gt;Node2 -->
<g id="edge2" class="edge">
<title>Node3&#45;&gt;Node2</title>
<path fill="none" stroke="#63b8ff" d="M110.95,-39C119.25,-39 127.66,-39 135.64,-39"/>
<polygon fill="#63b8ff" stroke="#63b8ff" points="111.15,-35.5 101.15,-39 111.15,-42.5 111.15,-35.5"/>
</g>
<!-- Node5 -->
<g id="node5" class="node">
<title>Node5</title>
<g id="a_node5"><a xlink:href="interfaceSCR__ArsenalInventoryStorageManagerComponent.html" target="_top" xlink:title=" ">
<polygon fill="white" stroke="#666666" points="790.5,-126 643.5,-126 643.5,-96 790.5,-96 790.5,-126"/>
<text text-anchor="start" x="651.5" y="-114" font-family="Helvetica,sans-Serif" font-size="10.00">SCR_ArsenalInventoryStorage</text>
<text text-anchor="middle" x="717" y="-103" font-family="Helvetica,sans-Serif" font-size="10.00">ManagerComponent</text>
</a>
</g>
</g>
<!-- Node4&#45;&gt;Node5 -->
<g id="edge4" class="edge">
<title>Node4&#45;&gt;Node5</title>
<path fill="none" stroke="#63b8ff" d="M608.14,-81.33C625.23,-86.03 643.44,-91.04 659.93,-95.58"/>
<polygon fill="#63b8ff" stroke="#63b8ff" points="609.24,-77.73 598.67,-78.45 607.39,-84.48 609.24,-77.73"/>
</g>
<!-- Node6 -->
<g id="node6" class="node">
<title>Node6</title>
<g id="a_node6"><a xlink:href="interfaceSCR__InventoryStorageManagerComponent.html" target="_top" xlink:title=" ">
<polygon fill="white" stroke="#666666" points="793,-78 641,-78 641,-48 793,-48 793,-78"/>
<text text-anchor="start" x="649" y="-66" font-family="Helvetica,sans-Serif" font-size="10.00">SCR_InventoryStorageManager</text>
<text text-anchor="middle" x="717" y="-55" font-family="Helvetica,sans-Serif" font-size="10.00">Component</text>
</a>
</g>
</g>
<!-- Node4&#45;&gt;Node6 -->
<g id="edge5" class="edge">
<title>Node4&#45;&gt;Node6</title>
<path fill="none" stroke="#63b8ff" d="M613.73,-63C622.62,-63 631.72,-63 640.65,-63"/>
<polygon fill="#63b8ff" stroke="#63b8ff" points="614.02,-59.5 604.02,-63 614.02,-66.5 614.02,-59.5"/>
</g>
<!-- Node8 -->
<g id="node8" class="node">
<title>Node8</title>
<g id="a_node8"><a xlink:href="interfaceSCR__VehicleInventoryStorageManagerComponent.html" target="_top" xlink:title=" ">
<polygon fill="white" stroke="#666666" points="790,-30 644,-30 644,0 790,0 790,-30"/>
<text text-anchor="start" x="652" y="-18" font-family="Helvetica,sans-Serif" font-size="10.00">SCR_VehicleInventoryStorage</text>
<text text-anchor="middle" x="717" y="-7" font-family="Helvetica,sans-Serif" font-size="10.00">ManagerComponent</text>
</a>
</g>
</g>
<!-- Node4&#45;&gt;Node8 -->
<g id="edge7" class="edge">
<title>Node4&#45;&gt;Node8</title>
<path fill="none" stroke="#63b8ff" d="M608.14,-44.67C625.23,-39.97 643.44,-34.96 659.93,-30.42"/>
<polygon fill="#63b8ff" stroke="#63b8ff" points="607.39,-41.52 598.67,-47.55 609.24,-48.27 607.39,-41.52"/>
</g>
<!-- Node7 -->
<g id="node7" class="node">
<title>Node7</title>
<g id="a_node7"><a xlink:href="interfaceSCR__TurretInventoryStorageManagerComponent.html" target="_top" xlink:title=" ">
<polygon fill="white" stroke="#666666" points="968,-78 829,-78 829,-48 968,-48 968,-78"/>
<text text-anchor="start" x="837" y="-66" font-family="Helvetica,sans-Serif" font-size="10.00">SCR_TurretInventoryStorage</text>
<text text-anchor="middle" x="898.5" y="-55" font-family="Helvetica,sans-Serif" font-size="10.00">ManagerComponent</text>
</a>
</g>
</g>
<!-- Node6&#45;&gt;Node7 -->
<g id="edge6" class="edge">
<title>Node6&#45;&gt;Node7</title>
<path fill="none" stroke="#63b8ff" d="M804.11,-63C812.34,-63 820.61,-63 828.64,-63"/>
<polygon fill="#63b8ff" stroke="#63b8ff" points="804.34,-59.5 794.34,-63 804.34,-66.5 804.34,-59.5"/>
</g>
</g>
</svg>
