<?xml version="1.0" encoding="UTF-8" standalone="no"?>
<!DOCTYPE svg PUBLIC "-//W3C//DTD SVG 1.1//EN"
 "http://www.w3.org/Graphics/SVG/1.1/DTD/svg11.dtd">
<!-- Generated by graphviz version 8.0.2 (20230410.1723)
 -->
<!-- Title: SCR_ContentBrowserDetails_OverviewSubMenu Pages: 1 -->
<svg width="166pt" height="269pt"
 viewBox="0.00 0.00 166.00 269.00" xmlns="http://www.w3.org/2000/svg" xmlns:xlink="http://www.w3.org/1999/xlink">
<g id="graph0" class="graph" transform="scale(1 1) rotate(0) translate(4 265)">
<title>SCR_ContentBrowserDetails_OverviewSubMenu</title>
<!-- Node1 -->
<g id="node1" class="node">
<title>Node1</title>
<g id="a_node1"><a xlink:title=" ">
<polygon fill="#999999" stroke="#666666" points="149.5,-30 8.5,-30 8.5,0 149.5,0 149.5,-30"/>
<text text-anchor="start" x="16.5" y="-18" font-family="Helvetica,sans-Serif" font-size="10.00">SCR_ContentBrowserDetails</text>
<text text-anchor="middle" x="79" y="-7" font-family="Helvetica,sans-Serif" font-size="10.00">_OverviewSubMenu</text>
</a>
</g>
</g>
<!-- Node2 -->
<g id="node2" class="node">
<title>Node2</title>
<g id="a_node2"><a xlink:href="interfaceSCR__ContentBrowser__ScenarioSubMenuBase.html" target="_top" xlink:title=" ">
<polygon fill="white" stroke="#666666" points="141,-96 17,-96 17,-66 141,-66 141,-96"/>
<text text-anchor="start" x="25" y="-84" font-family="Helvetica,sans-Serif" font-size="10.00">SCR_ContentBrowser</text>
<text text-anchor="middle" x="79" y="-73" font-family="Helvetica,sans-Serif" font-size="10.00">_ScenarioSubMenuBase</text>
</a>
</g>
</g>
<!-- Node2&#45;&gt;Node1 -->
<g id="edge1" class="edge">
<title>Node2&#45;&gt;Node1</title>
<path fill="none" stroke="#63b8ff" d="M79,-54.97C79,-46.55 79,-37.45 79,-30.16"/>
<polygon fill="#63b8ff" stroke="#63b8ff" points="75.5,-54.8 79,-64.8 82.5,-54.8 75.5,-54.8"/>
</g>
<!-- Node3 -->
<g id="node3" class="node">
<title>Node3</title>
<g id="a_node3"><a xlink:href="interfaceSCR__SubMenuBase.html" target="_top" xlink:title=" ">
<polygon fill="white" stroke="#666666" points="132,-151 26,-151 26,-132 132,-132 132,-151"/>
<text text-anchor="middle" x="79" y="-139" font-family="Helvetica,sans-Serif" font-size="10.00">SCR_SubMenuBase</text>
</a>
</g>
</g>
<!-- Node3&#45;&gt;Node2 -->
<g id="edge2" class="edge">
<title>Node3&#45;&gt;Node2</title>
<path fill="none" stroke="#63b8ff" d="M79,-121.08C79,-112.92 79,-103.6 79,-96.11"/>
<polygon fill="#63b8ff" stroke="#63b8ff" points="75.5,-120.87 79,-130.87 82.5,-120.87 75.5,-120.87"/>
</g>
<!-- Node4 -->
<g id="node4" class="node">
<title>Node4</title>
<g id="a_node4"><a xlink:href="interfaceSCR__ScriptedWidgetComponent.html" target="_top" xlink:title=" ">
<polygon fill="white" stroke="#666666" points="158,-206 0,-206 0,-187 158,-187 158,-206"/>
<text text-anchor="middle" x="79" y="-194" font-family="Helvetica,sans-Serif" font-size="10.00">SCR_ScriptedWidgetComponent</text>
</a>
</g>
</g>
<!-- Node4&#45;&gt;Node3 -->
<g id="edge3" class="edge">
<title>Node4&#45;&gt;Node3</title>
<path fill="none" stroke="#63b8ff" d="M79,-175.93C79,-167.53 79,-158.13 79,-151.44"/>
<polygon fill="#63b8ff" stroke="#63b8ff" points="75.5,-175.75 79,-185.75 82.5,-175.75 75.5,-175.75"/>
</g>
<!-- Node5 -->
<g id="node5" class="node">
<title>Node5</title>
<g id="a_node5"><a xlink:title=" ">
<polygon fill="white" stroke="#666666" points="145.5,-261 12.5,-261 12.5,-242 145.5,-242 145.5,-261"/>
<text text-anchor="middle" x="79" y="-249" font-family="Helvetica,sans-Serif" font-size="10.00">ScriptedWidgetComponent</text>
</a>
</g>
</g>
<!-- Node5&#45;&gt;Node4 -->
<g id="edge4" class="edge">
<title>Node5&#45;&gt;Node4</title>
<path fill="none" stroke="#63b8ff" d="M79,-230.93C79,-222.53 79,-213.13 79,-206.44"/>
<polygon fill="#63b8ff" stroke="#63b8ff" points="75.5,-230.75 79,-240.75 82.5,-230.75 75.5,-230.75"/>
</g>
</g>
</svg>
