<?xml version="1.0" encoding="UTF-8" standalone="no"?>
<!DOCTYPE svg PUBLIC "-//W3C//DTD SVG 1.1//EN"
 "http://www.w3.org/Graphics/SVG/1.1/DTD/svg11.dtd">
<!-- Generated by graphviz version 8.0.2 (20230410.1723)
 -->
<!-- Title: SCR_EditableEntityInteraction Pages: 1 -->
<svg width="356pt" height="150pt"
 viewBox="0.00 0.00 356.00 149.50" xmlns="http://www.w3.org/2000/svg" xmlns:xlink="http://www.w3.org/1999/xlink">
<g id="graph0" class="graph" transform="scale(1 1) rotate(0) translate(4 145.5)">
<title>SCR_EditableEntityInteraction</title>
<!-- Node1 -->
<g id="node1" class="node">
<title>Node1</title>
<g id="a_node1"><a xlink:title=" ">
<polygon fill="#999999" stroke="#666666" points="148,-74 0,-74 0,-55 148,-55 148,-74"/>
<text text-anchor="middle" x="74" y="-62" font-family="Helvetica,sans-Serif" font-size="10.00">SCR_EditableEntityInteraction</text>
</a>
</g>
</g>
<!-- Node2 -->
<g id="node2" class="node">
<title>Node2</title>
<g id="a_node2"><a xlink:href="interfaceSCR__EditableAttachableEntityInteraction.html" target="_top" xlink:title=" ">
<polygon fill="white" stroke="#666666" points="340.5,-141.5 191.5,-141.5 191.5,-111.5 340.5,-111.5 340.5,-141.5"/>
<text text-anchor="start" x="199.5" y="-129.5" font-family="Helvetica,sans-Serif" font-size="10.00">SCR_EditableAttachableEntity</text>
<text text-anchor="middle" x="266" y="-118.5" font-family="Helvetica,sans-Serif" font-size="10.00">Interaction</text>
</a>
</g>
</g>
<!-- Node1&#45;&gt;Node2 -->
<g id="edge1" class="edge">
<title>Node1&#45;&gt;Node2</title>
<path fill="none" stroke="#63b8ff" d="M112.31,-78C133.29,-85.46 160.01,-94.77 184,-102.5 192.93,-105.38 202.46,-108.32 211.73,-111.11"/>
<polygon fill="#63b8ff" stroke="#63b8ff" points="113.8,-74.46 103.2,-74.39 111.44,-81.05 113.8,-74.46"/>
</g>
<!-- Node3 -->
<g id="node3" class="node">
<title>Node3</title>
<g id="a_node3"><a xlink:href="interfaceSCR__EditableCharacterInteraction.html" target="_top" xlink:title=" ">
<polygon fill="white" stroke="#666666" points="348,-93 184,-93 184,-74 348,-74 348,-93"/>
<text text-anchor="middle" x="266" y="-81" font-family="Helvetica,sans-Serif" font-size="10.00">SCR_EditableCharacterInteraction</text>
</a>
</g>
</g>
<!-- Node1&#45;&gt;Node3 -->
<g id="edge2" class="edge">
<title>Node1&#45;&gt;Node3</title>
<path fill="none" stroke="#63b8ff" d="M159.34,-72.93C167.38,-73.74 175.52,-74.55 183.53,-75.35"/>
<polygon fill="#63b8ff" stroke="#63b8ff" points="159.76,-69.36 149.46,-71.85 159.06,-76.32 159.76,-69.36"/>
</g>
<!-- Node4 -->
<g id="node4" class="node">
<title>Node4</title>
<g id="a_node4"><a xlink:href="interfaceSCR__EditableGroupInteraction.html" target="_top" xlink:title=" ">
<polygon fill="white" stroke="#666666" points="340.5,-56 191.5,-56 191.5,-37 340.5,-37 340.5,-56"/>
<text text-anchor="middle" x="266" y="-44" font-family="Helvetica,sans-Serif" font-size="10.00">SCR_EditableGroupInteraction</text>
</a>
</g>
</g>
<!-- Node1&#45;&gt;Node4 -->
<g id="edge3" class="edge">
<title>Node1&#45;&gt;Node4</title>
<path fill="none" stroke="#63b8ff" d="M159.39,-56.51C169.96,-55.5 180.71,-54.48 191.11,-53.5"/>
<polygon fill="#63b8ff" stroke="#63b8ff" points="159.08,-53.11 149.46,-57.54 159.74,-60.08 159.08,-53.11"/>
</g>
<!-- Node5 -->
<g id="node5" class="node">
<title>Node5</title>
<g id="a_node5"><a xlink:href="interfaceSCR__EditableWaypointInteraction.html" target="_top" xlink:title=" ">
<polygon fill="white" stroke="#666666" points="348,-19 184,-19 184,0 348,0 348,-19"/>
<text text-anchor="middle" x="266" y="-7" font-family="Helvetica,sans-Serif" font-size="10.00">SCR_EditableWaypointInteraction</text>
</a>
</g>
</g>
<!-- Node1&#45;&gt;Node5 -->
<g id="edge4" class="edge">
<title>Node1&#45;&gt;Node5</title>
<path fill="none" stroke="#63b8ff" d="M112.92,-51.06C133.76,-43.9 160.15,-35.22 184,-28.5 195.4,-25.29 207.81,-22.18 219.41,-19.45"/>
<polygon fill="#63b8ff" stroke="#63b8ff" points="111.87,-48.06 103.57,-54.64 114.16,-54.68 111.87,-48.06"/>
</g>
</g>
</svg>
