<?xml version="1.0" encoding="UTF-8" standalone="no"?>
<!DOCTYPE svg PUBLIC "-//W3C//DTD SVG 1.1//EN"
 "http://www.w3.org/Graphics/SVG/1.1/DTD/svg11.dtd">
<!-- Generated by graphviz version 8.0.2 (20230410.1723)
 -->
<!-- Title: SCR_BaseGroup Pages: 1 -->
<svg width="148pt" height="258pt"
 viewBox="0.00 0.00 148.00 258.00" xmlns="http://www.w3.org/2000/svg" xmlns:xlink="http://www.w3.org/1999/xlink">
<g id="graph0" class="graph" transform="scale(1 1) rotate(0) translate(4 254)">
<title>SCR_BaseGroup</title>
<!-- Node1 -->
<g id="node1" class="node">
<title>Node1</title>
<g id="a_node1"><a xlink:title="An abstract class to be implemented by the user to provide the WeaponSwitchingGroupManager with a val...">
<polygon fill="#999999" stroke="#666666" points="115.5,-19 24.5,-19 24.5,0 115.5,0 115.5,-19"/>
<text text-anchor="middle" x="70" y="-7" font-family="Helvetica,sans-Serif" font-size="10.00">SCR_BaseGroup</text>
</a>
</g>
</g>
<!-- Node2 -->
<g id="node2" class="node">
<title>Node2</title>
<g id="a_node2"><a xlink:href="interfaceScriptedSelectionMenuEntry.html" target="_top" xlink:title=" ">
<polygon fill="white" stroke="#666666" points="140,-74 0,-74 0,-55 140,-55 140,-74"/>
<text text-anchor="middle" x="70" y="-62" font-family="Helvetica,sans-Serif" font-size="10.00">ScriptedSelectionMenuEntry</text>
</a>
</g>
</g>
<!-- Node2&#45;&gt;Node1 -->
<g id="edge1" class="edge">
<title>Node2&#45;&gt;Node1</title>
<path fill="none" stroke="#63b8ff" d="M70,-43.93C70,-35.53 70,-26.13 70,-19.44"/>
<polygon fill="#63b8ff" stroke="#63b8ff" points="66.5,-43.75 70,-53.75 73.5,-43.75 66.5,-43.75"/>
</g>
<!-- Node3 -->
<g id="node3" class="node">
<title>Node3</title>
<g id="a_node3"><a xlink:href="interfaceBaseScriptedSelectionMenuEntry.html" target="_top" xlink:title=" ">
<polygon fill="white" stroke="#666666" points="140,-140 0,-140 0,-110 140,-110 140,-140"/>
<text text-anchor="start" x="8" y="-128" font-family="Helvetica,sans-Serif" font-size="10.00">BaseScriptedSelectionMenu</text>
<text text-anchor="middle" x="70" y="-117" font-family="Helvetica,sans-Serif" font-size="10.00">Entry</text>
</a>
</g>
</g>
<!-- Node3&#45;&gt;Node2 -->
<g id="edge2" class="edge">
<title>Node3&#45;&gt;Node2</title>
<path fill="none" stroke="#63b8ff" d="M70,-98.59C70,-89.85 70,-80.65 70,-74.18"/>
<polygon fill="#63b8ff" stroke="#63b8ff" points="66.5,-98.54 70,-108.54 73.5,-98.54 66.5,-98.54"/>
</g>
<!-- Node4 -->
<g id="node4" class="node">
<title>Node4</title>
<g id="a_node4"><a xlink:href="interfaceBaseSelectionMenuEntry.html" target="_top" xlink:title=" ">
<polygon fill="white" stroke="#666666" points="133.5,-195 6.5,-195 6.5,-176 133.5,-176 133.5,-195"/>
<text text-anchor="middle" x="70" y="-183" font-family="Helvetica,sans-Serif" font-size="10.00">BaseSelectionMenuEntry</text>
</a>
</g>
</g>
<!-- Node4&#45;&gt;Node3 -->
<g id="edge3" class="edge">
<title>Node4&#45;&gt;Node3</title>
<path fill="none" stroke="#63b8ff" d="M70,-165.08C70,-156.92 70,-147.6 70,-140.11"/>
<polygon fill="#63b8ff" stroke="#63b8ff" points="66.5,-164.87 70,-174.87 73.5,-164.87 66.5,-164.87"/>
</g>
<!-- Node5 -->
<g id="node5" class="node">
<title>Node5</title>
<g id="a_node5"><a xlink:title=" ">
<polygon fill="white" stroke="#666666" points="113,-250 27,-250 27,-231 113,-231 113,-250"/>
<text text-anchor="middle" x="70" y="-238" font-family="Helvetica,sans-Serif" font-size="10.00">ScriptAndConfig</text>
</a>
</g>
</g>
<!-- Node5&#45;&gt;Node4 -->
<g id="edge4" class="edge">
<title>Node5&#45;&gt;Node4</title>
<path fill="none" stroke="#63b8ff" d="M70,-219.93C70,-211.53 70,-202.13 70,-195.44"/>
<polygon fill="#63b8ff" stroke="#63b8ff" points="66.5,-219.75 70,-229.75 73.5,-219.75 66.5,-219.75"/>
</g>
</g>
</svg>
