<?xml version="1.0" encoding="UTF-8" standalone="no"?>
<!DOCTYPE svg PUBLIC "-//W3C//DTD SVG 1.1//EN"
 "http://www.w3.org/Graphics/SVG/1.1/DTD/svg11.dtd">
<!-- Generated by graphviz version 8.0.2 (20230410.1723)
 -->
<!-- Title: BaseMagazineWell Pages: 1 -->
<svg width="727pt" height="767pt"
 viewBox="0.00 0.00 727.00 767.00" xmlns="http://www.w3.org/2000/svg" xmlns:xlink="http://www.w3.org/1999/xlink">
<g id="graph0" class="graph" transform="scale(1 1) rotate(0) translate(4 763)">
<title>BaseMagazineWell</title>
<!-- Node1 -->
<g id="node1" class="node">
<title>Node1</title>
<g id="a_node1"><a xlink:title=" ">
<polygon fill="#999999" stroke="#666666" points="369,-389 268,-389 268,-370 369,-370 369,-389"/>
<text text-anchor="middle" x="318.5" y="-377" font-family="Helvetica,sans-Serif" font-size="10.00">BaseMagazineWell</text>
</a>
</g>
</g>
<!-- Node4 -->
<g id="node4" class="node">
<title>Node4</title>
<g id="a_node4"><a xlink:href="interfaceMagazineWellAK545.html" target="_top" xlink:title=" ">
<polygon fill="white" stroke="#666666" points="523,-759 416,-759 416,-740 523,-740 523,-759"/>
<text text-anchor="middle" x="469.5" y="-747" font-family="Helvetica,sans-Serif" font-size="10.00">MagazineWellAK545</text>
</a>
</g>
</g>
<!-- Node1&#45;&gt;Node4 -->
<g id="edge3" class="edge">
<title>Node1&#45;&gt;Node4</title>
<path fill="none" stroke="#63b8ff" d="M321.76,-399.87C329.65,-467.45 358.09,-682.78 405,-731.5 408.1,-734.72 411.73,-737.38 415.65,-739.57"/>
<polygon fill="#63b8ff" stroke="#63b8ff" points="325.17,-399.9 320.56,-390.36 318.22,-400.69 325.17,-399.9"/>
</g>
<!-- Node6 -->
<g id="node6" class="node">
<title>Node6</title>
<g id="a_node6"><a xlink:href="interfaceMagazineWellKPVT.html" target="_top" xlink:title=" ">
<polygon fill="white" stroke="#666666" points="521.5,-722 417.5,-722 417.5,-703 521.5,-703 521.5,-722"/>
<text text-anchor="middle" x="469.5" y="-710" font-family="Helvetica,sans-Serif" font-size="10.00">MagazineWellKPVT</text>
</a>
</g>
</g>
<!-- Node1&#45;&gt;Node6 -->
<g id="edge5" class="edge">
<title>Node1&#45;&gt;Node6</title>
<path fill="none" stroke="#63b8ff" d="M318.64,-400.28C317.51,-456.14 322.39,-610.97 405,-694.5 408.55,-698.08 412.75,-700.97 417.28,-703.29"/>
<polygon fill="#63b8ff" stroke="#63b8ff" points="322.16,-400.48 318.97,-390.37 315.17,-400.26 322.16,-400.48"/>
</g>
<!-- Node7 -->
<g id="node7" class="node">
<title>Node7</title>
<g id="a_node7"><a xlink:href="interfaceMagazineWellM14.html" target="_top" xlink:title=" ">
<polygon fill="white" stroke="#666666" points="518,-685 421,-685 421,-666 518,-666 518,-685"/>
<text text-anchor="middle" x="469.5" y="-673" font-family="Helvetica,sans-Serif" font-size="10.00">MagazineWellM14</text>
</a>
</g>
</g>
<!-- Node1&#45;&gt;Node7 -->
<g id="edge6" class="edge">
<title>Node1&#45;&gt;Node7</title>
<path fill="none" stroke="#63b8ff" d="M319.53,-400.21C320.77,-451.49 331.3,-585.41 405,-657.5 409.42,-661.83 414.81,-665.13 420.55,-667.65"/>
<polygon fill="#63b8ff" stroke="#63b8ff" points="323.02,-400.24 319.38,-390.29 316.02,-400.34 323.02,-400.24"/>
</g>
<!-- Node8 -->
<g id="node8" class="node">
<title>Node8</title>
<g id="a_node8"><a xlink:href="interfaceMagazineWellM203.html" target="_top" xlink:title=" ">
<polygon fill="white" stroke="#666666" points="520.5,-648 418.5,-648 418.5,-629 520.5,-629 520.5,-648"/>
<text text-anchor="middle" x="469.5" y="-636" font-family="Helvetica,sans-Serif" font-size="10.00">MagazineWellM203</text>
</a>
</g>
</g>
<!-- Node1&#45;&gt;Node8 -->
<g id="edge7" class="edge">
<title>Node1&#45;&gt;Node8</title>
<path fill="none" stroke="#63b8ff" d="M320.68,-400.25C324.45,-446.71 340.18,-559.74 405,-620.5 408.85,-624.1 413.36,-627 418.18,-629.31"/>
<polygon fill="#63b8ff" stroke="#63b8ff" points="324.11,-400.21 319.92,-390.48 317.13,-400.7 324.11,-400.21"/>
</g>
<!-- Node9 -->
<g id="node9" class="node">
<title>Node9</title>
<g id="a_node9"><a xlink:href="interfaceMagazineWellM249.html" target="_top" xlink:title=" ">
<polygon fill="white" stroke="#666666" points="520.5,-611 418.5,-611 418.5,-592 520.5,-592 520.5,-611"/>
<text text-anchor="middle" x="469.5" y="-599" font-family="Helvetica,sans-Serif" font-size="10.00">MagazineWellM249</text>
</a>
</g>
</g>
<!-- Node1&#45;&gt;Node9 -->
<g id="edge8" class="edge">
<title>Node1&#45;&gt;Node9</title>
<path fill="none" stroke="#63b8ff" d="M322.18,-400.1C328.63,-441.22 348.88,-533.77 405,-583.5 408.86,-586.92 413.32,-589.69 418.06,-591.94"/>
<polygon fill="#63b8ff" stroke="#63b8ff" points="325.51,-399.71 320.62,-390.31 318.58,-400.71 325.51,-399.71"/>
</g>
<!-- Node10 -->
<g id="node10" class="node">
<title>Node10</title>
<g id="a_node10"><a xlink:href="interfaceMagazineWellM2HB.html" target="_top" xlink:title=" ">
<polygon fill="white" stroke="#666666" points="522,-574 417,-574 417,-555 522,-555 522,-574"/>
<text text-anchor="middle" x="469.5" y="-562" font-family="Helvetica,sans-Serif" font-size="10.00">MagazineWellM2HB</text>
</a>
</g>
</g>
<!-- Node1&#45;&gt;Node10 -->
<g id="edge9" class="edge">
<title>Node1&#45;&gt;Node10</title>
<path fill="none" stroke="#63b8ff" d="M324.14,-399.49C333.34,-434.6 357.26,-507.34 405,-546.5 408.99,-549.77 413.53,-552.45 418.32,-554.64"/>
<polygon fill="#63b8ff" stroke="#63b8ff" points="327.37,-398.99 321.57,-390.13 320.58,-400.67 327.37,-398.99"/>
</g>
<!-- Node11 -->
<g id="node11" class="node">
<title>Node11</title>
<g id="a_node11"><a xlink:href="interfaceMagazineWellM60.html" target="_top" xlink:title=" ">
<polygon fill="white" stroke="#666666" points="518,-537 421,-537 421,-518 518,-518 518,-537"/>
<text text-anchor="middle" x="469.5" y="-525" font-family="Helvetica,sans-Serif" font-size="10.00">MagazineWellM60</text>
</a>
</g>
</g>
<!-- Node1&#45;&gt;Node11 -->
<g id="edge10" class="edge">
<title>Node1&#45;&gt;Node11</title>
<path fill="none" stroke="#63b8ff" d="M327.24,-399.42C339.42,-428.11 365.77,-480.74 405,-509.5 409.71,-512.96 415.07,-515.75 420.62,-518.01"/>
<polygon fill="#63b8ff" stroke="#63b8ff" points="330.17,-398.32 323.15,-390.38 323.68,-400.96 330.17,-398.32"/>
</g>
<!-- Node12 -->
<g id="node12" class="node">
<title>Node12</title>
<g id="a_node12"><a xlink:href="interfaceMagazineWellM60D.html" target="_top" xlink:title=" ">
<polygon fill="white" stroke="#666666" points="521.5,-500 417.5,-500 417.5,-481 521.5,-481 521.5,-500"/>
<text text-anchor="middle" x="469.5" y="-488" font-family="Helvetica,sans-Serif" font-size="10.00">MagazineWellM60D</text>
</a>
</g>
</g>
<!-- Node1&#45;&gt;Node12 -->
<g id="edge11" class="edge">
<title>Node1&#45;&gt;Node12</title>
<path fill="none" stroke="#63b8ff" d="M332.21,-398.3C347.24,-419.13 374.15,-452.31 405,-471.5 410.86,-475.15 417.47,-478.13 424.14,-480.55"/>
<polygon fill="#63b8ff" stroke="#63b8ff" points="334.6,-396.61 325.99,-390.43 328.87,-400.63 334.6,-396.61"/>
</g>
<!-- Node13 -->
<g id="node13" class="node">
<title>Node13</title>
<g id="a_node13"><a xlink:href="interfaceMagazineWellM9Beretta.html" target="_top" xlink:title=" ">
<polygon fill="white" stroke="#666666" points="531,-463 408,-463 408,-444 531,-444 531,-463"/>
<text text-anchor="middle" x="469.5" y="-451" font-family="Helvetica,sans-Serif" font-size="10.00">MagazineWellM9Beretta</text>
</a>
</g>
</g>
<!-- Node1&#45;&gt;Node13 -->
<g id="edge12" class="edge">
<title>Node1&#45;&gt;Node13</title>
<path fill="none" stroke="#63b8ff" d="M340.92,-395.7C357.65,-407.74 381.87,-423.86 405,-434.5 412.53,-437.96 420.84,-440.98 428.91,-443.53"/>
<polygon fill="#63b8ff" stroke="#63b8ff" points="343.58,-392.58 333.45,-389.49 339.45,-398.23 343.58,-392.58"/>
</g>
<!-- Node14 -->
<g id="node14" class="node">
<title>Node14</title>
<g id="a_node14"><a xlink:href="interfaceMagazineWellMakarovPM.html" target="_top" xlink:title=" ">
<polygon fill="white" stroke="#666666" points="534,-426 405,-426 405,-407 534,-407 534,-426"/>
<text text-anchor="middle" x="469.5" y="-414" font-family="Helvetica,sans-Serif" font-size="10.00">MagazineWellMakarovPM</text>
</a>
</g>
</g>
<!-- Node1&#45;&gt;Node14 -->
<g id="edge13" class="edge">
<title>Node1&#45;&gt;Node14</title>
<path fill="none" stroke="#63b8ff" d="M370.04,-392.05C389.09,-396.78 410.49,-402.1 428.46,-406.56"/>
<polygon fill="#63b8ff" stroke="#63b8ff" points="370.98,-388.43 360.43,-389.42 369.29,-395.22 370.98,-388.43"/>
</g>
<!-- Node15 -->
<g id="node15" class="node">
<title>Node15</title>
<g id="a_node15"><a xlink:href="interfaceMagazineWellMortar.html" target="_top" xlink:title=" ">
<polygon fill="white" stroke="#666666" points="522.5,-389 416.5,-389 416.5,-370 522.5,-370 522.5,-389"/>
<text text-anchor="middle" x="469.5" y="-377" font-family="Helvetica,sans-Serif" font-size="10.00">MagazineWellMortar</text>
</a>
</g>
</g>
<!-- Node1&#45;&gt;Node15 -->
<g id="edge14" class="edge">
<title>Node1&#45;&gt;Node15</title>
<path fill="none" stroke="#63b8ff" d="M379.93,-379.5C391.89,-379.5 404.36,-379.5 416.04,-379.5"/>
<polygon fill="#63b8ff" stroke="#63b8ff" points="380.11,-376 370.11,-379.5 380.11,-383 380.11,-376"/>
</g>
<!-- Node16 -->
<g id="node16" class="node">
<title>Node16</title>
<g id="a_node16"><a xlink:href="interfaceMagazineWellNSV.html" target="_top" xlink:title=" ">
<polygon fill="white" stroke="#666666" points="518.5,-352 420.5,-352 420.5,-333 518.5,-333 518.5,-352"/>
<text text-anchor="middle" x="469.5" y="-340" font-family="Helvetica,sans-Serif" font-size="10.00">MagazineWellNSV</text>
</a>
</g>
</g>
<!-- Node1&#45;&gt;Node16 -->
<g id="edge15" class="edge">
<title>Node1&#45;&gt;Node16</title>
<path fill="none" stroke="#63b8ff" d="M370.04,-366.95C389.09,-362.22 410.49,-356.9 428.46,-352.44"/>
<polygon fill="#63b8ff" stroke="#63b8ff" points="369.29,-363.78 360.43,-369.58 370.98,-370.57 369.29,-363.78"/>
</g>
<!-- Node17 -->
<g id="node17" class="node">
<title>Node17</title>
<g id="a_node17"><a xlink:href="interfaceMagazineWellPKM.html" target="_top" xlink:title=" ">
<polygon fill="white" stroke="#666666" points="519.5,-315 419.5,-315 419.5,-296 519.5,-296 519.5,-315"/>
<text text-anchor="middle" x="469.5" y="-303" font-family="Helvetica,sans-Serif" font-size="10.00">MagazineWellPKM</text>
</a>
</g>
</g>
<!-- Node1&#45;&gt;Node17 -->
<g id="edge16" class="edge">
<title>Node1&#45;&gt;Node17</title>
<path fill="none" stroke="#63b8ff" d="M340.25,-363.32C356.95,-350.95 381.44,-334.25 405,-323.5 411.78,-320.41 419.21,-317.73 426.52,-315.45"/>
<polygon fill="#63b8ff" stroke="#63b8ff" points="338.7,-360.86 332.83,-369.68 342.92,-366.44 338.7,-360.86"/>
</g>
<!-- Node18 -->
<g id="node18" class="node">
<title>Node18</title>
<g id="a_node18"><a xlink:href="interfaceMagazineWellPKMT.html" target="_top" xlink:title=" ">
<polygon fill="white" stroke="#666666" points="522,-278 417,-278 417,-259 522,-259 522,-278"/>
<text text-anchor="middle" x="469.5" y="-266" font-family="Helvetica,sans-Serif" font-size="10.00">MagazineWellPKMT</text>
</a>
</g>
</g>
<!-- Node1&#45;&gt;Node18 -->
<g id="edge17" class="edge">
<title>Node1&#45;&gt;Node18</title>
<path fill="none" stroke="#63b8ff" d="M331.88,-360.74C346.77,-339.62 373.72,-305.76 405,-286.5 410.17,-283.32 415.92,-280.68 421.79,-278.5"/>
<polygon fill="#63b8ff" stroke="#63b8ff" points="328.5,-358.47 325.74,-368.7 334.28,-362.43 328.5,-358.47"/>
</g>
<!-- Node19 -->
<g id="node19" class="node">
<title>Node19</title>
<g id="a_node19"><a xlink:href="interfaceMagazineWellRPG7.html" target="_top" xlink:title=" ">
<polygon fill="white" stroke="#666666" points="521.5,-241 417.5,-241 417.5,-222 521.5,-222 521.5,-241"/>
<text text-anchor="middle" x="469.5" y="-229" font-family="Helvetica,sans-Serif" font-size="10.00">MagazineWellRPG7</text>
</a>
</g>
</g>
<!-- Node1&#45;&gt;Node19 -->
<g id="edge18" class="edge">
<title>Node1&#45;&gt;Node19</title>
<path fill="none" stroke="#63b8ff" d="M327.24,-359.58C339.42,-330.89 365.77,-278.26 405,-249.5 409.44,-246.25 414.44,-243.58 419.64,-241.4"/>
<polygon fill="#63b8ff" stroke="#63b8ff" points="323.68,-358.04 323.15,-368.62 330.17,-360.68 323.68,-358.04"/>
</g>
<!-- Node20 -->
<g id="node20" class="node">
<title>Node20</title>
<g id="a_node20"><a xlink:href="interfaceMagazineWellRU__GP.html" target="_top" xlink:title=" ">
<polygon fill="white" stroke="#666666" points="525,-204 414,-204 414,-185 525,-185 525,-204"/>
<text text-anchor="middle" x="469.5" y="-192" font-family="Helvetica,sans-Serif" font-size="10.00">MagazineWellRU_GP</text>
</a>
</g>
</g>
<!-- Node1&#45;&gt;Node20 -->
<g id="edge19" class="edge">
<title>Node1&#45;&gt;Node20</title>
<path fill="none" stroke="#63b8ff" d="M324.14,-359.51C333.34,-324.4 357.26,-251.66 405,-212.5 408.99,-209.23 413.53,-206.55 418.32,-204.36"/>
<polygon fill="#63b8ff" stroke="#63b8ff" points="320.58,-358.33 321.57,-368.87 327.37,-360.01 320.58,-358.33"/>
</g>
<!-- Node21 -->
<g id="node21" class="node">
<title>Node21</title>
<g id="a_node21"><a xlink:href="interfaceMagazineWellSVD.html" target="_top" xlink:title=" ">
<polygon fill="white" stroke="#666666" points="518.5,-167 420.5,-167 420.5,-148 518.5,-148 518.5,-167"/>
<text text-anchor="middle" x="469.5" y="-155" font-family="Helvetica,sans-Serif" font-size="10.00">MagazineWellSVD</text>
</a>
</g>
</g>
<!-- Node1&#45;&gt;Node21 -->
<g id="edge20" class="edge">
<title>Node1&#45;&gt;Node21</title>
<path fill="none" stroke="#63b8ff" d="M322.18,-358.9C328.63,-317.78 348.88,-225.23 405,-175.5 409.46,-171.55 414.73,-168.46 420.29,-166.05"/>
<polygon fill="#63b8ff" stroke="#63b8ff" points="318.58,-358.29 320.62,-368.69 325.51,-359.29 318.58,-358.29"/>
</g>
<!-- Node22 -->
<g id="node22" class="node">
<title>Node22</title>
<g id="a_node22"><a xlink:href="interfaceMagazineWellStanag556.html" target="_top" xlink:title=" ">
<polygon fill="white" stroke="#666666" points="532,-130 407,-130 407,-111 532,-111 532,-130"/>
<text text-anchor="middle" x="469.5" y="-118" font-family="Helvetica,sans-Serif" font-size="10.00">MagazineWellStanag556</text>
</a>
</g>
</g>
<!-- Node1&#45;&gt;Node22 -->
<g id="edge21" class="edge">
<title>Node1&#45;&gt;Node22</title>
<path fill="none" stroke="#63b8ff" d="M320.68,-358.75C324.45,-312.29 340.18,-199.26 405,-138.5 408.43,-135.29 412.39,-132.64 416.62,-130.46"/>
<polygon fill="#63b8ff" stroke="#63b8ff" points="317.13,-358.3 319.92,-368.52 324.11,-358.79 317.13,-358.3"/>
</g>
<!-- Node24 -->
<g id="node24" class="node">
<title>Node24</title>
<g id="a_node24"><a xlink:href="interfaceMagazineWellUK59.html" target="_top" xlink:title=" ">
<polygon fill="white" stroke="#666666" points="520.5,-93 418.5,-93 418.5,-74 520.5,-74 520.5,-93"/>
<text text-anchor="middle" x="469.5" y="-81" font-family="Helvetica,sans-Serif" font-size="10.00">MagazineWellUK59</text>
</a>
</g>
</g>
<!-- Node1&#45;&gt;Node24 -->
<g id="edge23" class="edge">
<title>Node1&#45;&gt;Node24</title>
<path fill="none" stroke="#63b8ff" d="M319.53,-358.79C320.77,-307.51 331.3,-173.59 405,-101.5 408.77,-97.81 413.23,-94.87 418.02,-92.52"/>
<polygon fill="#63b8ff" stroke="#63b8ff" points="316.02,-358.66 319.38,-368.71 323.02,-358.76 316.02,-358.66"/>
</g>
<!-- Node25 -->
<g id="node25" class="node">
<title>Node25</title>
<g id="a_node25"><a xlink:href="interfaceMagazineWellUS__UGL.html" target="_top" xlink:title=" ">
<polygon fill="white" stroke="#666666" points="527.5,-56 411.5,-56 411.5,-37 527.5,-37 527.5,-56"/>
<text text-anchor="middle" x="469.5" y="-44" font-family="Helvetica,sans-Serif" font-size="10.00">MagazineWellUS_UGL</text>
</a>
</g>
</g>
<!-- Node1&#45;&gt;Node25 -->
<g id="edge24" class="edge">
<title>Node1&#45;&gt;Node25</title>
<path fill="none" stroke="#63b8ff" d="M318.64,-358.72C317.51,-302.86 322.39,-148.03 405,-64.5 408.22,-61.24 411.99,-58.56 416.05,-56.36"/>
<polygon fill="#63b8ff" stroke="#63b8ff" points="315.17,-358.74 318.97,-368.63 322.16,-358.52 315.17,-358.74"/>
</g>
<!-- Node26 -->
<g id="node26" class="node">
<title>Node26</title>
<g id="a_node26"><a xlink:href="interfaceMagazineWellVZ58__762.html" target="_top" xlink:title=" ">
<polygon fill="white" stroke="#666666" points="530.5,-19 408.5,-19 408.5,0 530.5,0 530.5,-19"/>
<text text-anchor="middle" x="469.5" y="-7" font-family="Helvetica,sans-Serif" font-size="10.00">MagazineWellVZ58_762</text>
</a>
</g>
</g>
<!-- Node1&#45;&gt;Node26 -->
<g id="edge25" class="edge">
<title>Node1&#45;&gt;Node26</title>
<path fill="none" stroke="#63b8ff" d="M321.76,-359.13C329.65,-291.55 358.09,-76.22 405,-27.5 408.1,-24.28 411.73,-21.62 415.65,-19.43"/>
<polygon fill="#63b8ff" stroke="#63b8ff" points="318.22,-358.31 320.56,-368.64 325.17,-359.1 318.22,-358.31"/>
</g>
<!-- Node2 -->
<g id="node2" class="node">
<title>Node2</title>
<g id="a_node2"><a xlink:href="interfaceBaseAttachmentType.html" target="_top" xlink:title=" ">
<polygon fill="white" stroke="#666666" points="232,-389 122,-389 122,-370 232,-370 232,-389"/>
<text text-anchor="middle" x="177" y="-377" font-family="Helvetica,sans-Serif" font-size="10.00">BaseAttachmentType</text>
</a>
</g>
</g>
<!-- Node2&#45;&gt;Node1 -->
<g id="edge1" class="edge">
<title>Node2&#45;&gt;Node1</title>
<path fill="none" stroke="#63b8ff" d="M243.09,-379.5C251.34,-379.5 259.68,-379.5 267.64,-379.5"/>
<polygon fill="#63b8ff" stroke="#63b8ff" points="243.33,-376 233.33,-379.5 243.33,-383 243.33,-376"/>
</g>
<!-- Node3 -->
<g id="node3" class="node">
<title>Node3</title>
<g id="a_node3"><a xlink:title=" ">
<polygon fill="white" stroke="#666666" points="86,-389 0,-389 0,-370 86,-370 86,-389"/>
<text text-anchor="middle" x="43" y="-377" font-family="Helvetica,sans-Serif" font-size="10.00">ScriptAndConfig</text>
</a>
</g>
</g>
<!-- Node3&#45;&gt;Node2 -->
<g id="edge2" class="edge">
<title>Node3&#45;&gt;Node2</title>
<path fill="none" stroke="#63b8ff" d="M97.48,-379.5C105.4,-379.5 113.57,-379.5 121.52,-379.5"/>
<polygon fill="#63b8ff" stroke="#63b8ff" points="97.49,-376 87.49,-379.5 97.49,-383 97.49,-376"/>
</g>
<!-- Node5 -->
<g id="node5" class="node">
<title>Node5</title>
<g id="a_node5"><a xlink:href="interfaceMagazineWellAK545Small.html" target="_top" xlink:title=" ">
<polygon fill="white" stroke="#666666" points="710.5,-759 578.5,-759 578.5,-740 710.5,-740 710.5,-759"/>
<text text-anchor="middle" x="644.5" y="-747" font-family="Helvetica,sans-Serif" font-size="10.00">MagazineWellAK545Small</text>
</a>
</g>
</g>
<!-- Node4&#45;&gt;Node5 -->
<g id="edge4" class="edge">
<title>Node4&#45;&gt;Node5</title>
<path fill="none" stroke="#63b8ff" d="M534.12,-749.5C548.47,-749.5 563.73,-749.5 578.15,-749.5"/>
<polygon fill="#63b8ff" stroke="#63b8ff" points="534.35,-746 524.35,-749.5 534.35,-753 534.35,-746"/>
</g>
<!-- Node23 -->
<g id="node23" class="node">
<title>Node23</title>
<g id="a_node23"><a xlink:href="interfaceMagazineWellStanag556Small.html" target="_top" xlink:title=" ">
<polygon fill="white" stroke="#666666" points="719,-130 570,-130 570,-111 719,-111 719,-130"/>
<text text-anchor="middle" x="644.5" y="-118" font-family="Helvetica,sans-Serif" font-size="10.00">MagazineWellStanag556Small</text>
</a>
</g>
</g>
<!-- Node22&#45;&gt;Node23 -->
<g id="edge22" class="edge">
<title>Node22&#45;&gt;Node23</title>
<path fill="none" stroke="#63b8ff" d="M543.33,-120.5C552.01,-120.5 560.87,-120.5 569.56,-120.5"/>
<polygon fill="#63b8ff" stroke="#63b8ff" points="543.47,-117 533.47,-120.5 543.47,-124 543.47,-117"/>
</g>
</g>
</svg>
