<?xml version="1.0" encoding="UTF-8" standalone="no"?>
<!DOCTYPE svg PUBLIC "-//W3C//DTD SVG 1.1//EN"
 "http://www.w3.org/Graphics/SVG/1.1/DTD/svg11.dtd">
<!-- Generated by graphviz version 8.0.2 (20230410.1723)
 -->
<!-- Title: SCR_TabDialog Pages: 1 -->
<svg width="334pt" height="203pt"
 viewBox="0.00 0.00 334.00 203.00" xmlns="http://www.w3.org/2000/svg" xmlns:xlink="http://www.w3.org/1999/xlink">
<g id="graph0" class="graph" transform="scale(1 1) rotate(0) translate(4 199)">
<title>SCR_TabDialog</title>
<!-- Node1 -->
<g id="node1" class="node">
<title>Node1</title>
<g id="a_node1"><a xlink:title="Class for tab dialogs, relies on a SCR_SuperMenuComponent placed on content layout root widget Do you...">
<polygon fill="#999999" stroke="#666666" points="203.5,-85 118.5,-85 118.5,-66 203.5,-66 203.5,-85"/>
<text text-anchor="middle" x="161" y="-73" font-family="Helvetica,sans-Serif" font-size="10.00">SCR_TabDialog</text>
</a>
</g>
</g>
<!-- Node4 -->
<g id="node4" class="node">
<title>Node4</title>
<g id="a_node4"><a xlink:href="interfaceAddonsToolsUI.html" target="_top" xlink:title=" ">
<polygon fill="white" stroke="#666666" points="82,-24.5 0,-24.5 0,-5.5 82,-5.5 82,-24.5"/>
<text text-anchor="middle" x="41" y="-12.5" font-family="Helvetica,sans-Serif" font-size="10.00">AddonsToolsUI</text>
</a>
</g>
</g>
<!-- Node1&#45;&gt;Node4 -->
<g id="edge3" class="edge">
<title>Node1&#45;&gt;Node4</title>
<path fill="none" stroke="#63b8ff" d="M133.03,-60.87C110.35,-49.81 79.02,-34.54 59.4,-24.97"/>
<polygon fill="#63b8ff" stroke="#63b8ff" points="131.25,-64.38 141.77,-65.62 134.32,-58.09 131.25,-64.38"/>
</g>
<!-- Node5 -->
<g id="node5" class="node">
<title>Node5</title>
<g id="a_node5"><a xlink:href="interfaceSCR__DownloadManager__Dialog.html" target="_top" xlink:title=" ">
<polygon fill="white" stroke="#666666" points="222,-30 100,-30 100,0 222,0 222,-30"/>
<text text-anchor="start" x="108" y="-18" font-family="Helvetica,sans-Serif" font-size="10.00">SCR_DownloadManager</text>
<text text-anchor="middle" x="161" y="-7" font-family="Helvetica,sans-Serif" font-size="10.00">_Dialog</text>
</a>
</g>
</g>
<!-- Node1&#45;&gt;Node5 -->
<g id="edge4" class="edge">
<title>Node1&#45;&gt;Node5</title>
<path fill="none" stroke="#63b8ff" d="M161,-55.08C161,-46.92 161,-37.6 161,-30.11"/>
<polygon fill="#63b8ff" stroke="#63b8ff" points="157.5,-54.87 161,-64.87 164.5,-54.87 157.5,-54.87"/>
</g>
<!-- Node6 -->
<g id="node6" class="node">
<title>Node6</title>
<g id="a_node6"><a xlink:href="interfaceServerHostingUI.html" target="_top" xlink:title=" ">
<polygon fill="white" stroke="#666666" points="326,-24.5 240,-24.5 240,-5.5 326,-5.5 326,-24.5"/>
<text text-anchor="middle" x="283" y="-12.5" font-family="Helvetica,sans-Serif" font-size="10.00">ServerHostingUI</text>
</a>
</g>
</g>
<!-- Node1&#45;&gt;Node6 -->
<g id="edge5" class="edge">
<title>Node1&#45;&gt;Node6</title>
<path fill="none" stroke="#63b8ff" d="M189.43,-60.87C212.49,-49.81 244.34,-34.54 264.3,-24.97"/>
<polygon fill="#63b8ff" stroke="#63b8ff" points="188.03,-58.14 180.53,-65.62 191.06,-64.45 188.03,-58.14"/>
</g>
<!-- Node2 -->
<g id="node2" class="node">
<title>Node2</title>
<g id="a_node2"><a xlink:href="interfaceSCR__ConfigurableDialogUi.html" target="_top" xlink:title=" ">
<polygon fill="white" stroke="#666666" points="226.5,-140 95.5,-140 95.5,-121 226.5,-121 226.5,-140"/>
<text text-anchor="middle" x="161" y="-128" font-family="Helvetica,sans-Serif" font-size="10.00">SCR_ConfigurableDialogUi</text>
</a>
</g>
</g>
<!-- Node2&#45;&gt;Node1 -->
<g id="edge1" class="edge">
<title>Node2&#45;&gt;Node1</title>
<path fill="none" stroke="#63b8ff" d="M161,-109.93C161,-101.53 161,-92.13 161,-85.44"/>
<polygon fill="#63b8ff" stroke="#63b8ff" points="157.5,-109.75 161,-119.75 164.5,-109.75 157.5,-109.75"/>
</g>
<!-- Node3 -->
<g id="node3" class="node">
<title>Node3</title>
<g id="a_node3"><a xlink:title=" ">
<polygon fill="white" stroke="#666666" points="227.5,-195 94.5,-195 94.5,-176 227.5,-176 227.5,-195"/>
<text text-anchor="middle" x="161" y="-183" font-family="Helvetica,sans-Serif" font-size="10.00">ScriptedWidgetComponent</text>
</a>
</g>
</g>
<!-- Node3&#45;&gt;Node2 -->
<g id="edge2" class="edge">
<title>Node3&#45;&gt;Node2</title>
<path fill="none" stroke="#63b8ff" d="M161,-164.93C161,-156.53 161,-147.13 161,-140.44"/>
<polygon fill="#63b8ff" stroke="#63b8ff" points="157.5,-164.75 161,-174.75 164.5,-164.75 157.5,-164.75"/>
</g>
</g>
</svg>
