<?xml version="1.0" encoding="UTF-8" standalone="no"?>
<!DOCTYPE svg PUBLIC "-//W3C//DTD SVG 1.1//EN"
 "http://www.w3.org/Graphics/SVG/1.1/DTD/svg11.dtd">
<!-- Generated by graphviz version 8.0.2 (20230410.1723)
 -->
<!-- Title: LightUserAction Pages: 1 -->
<svg width="819pt" height="261pt"
 viewBox="0.00 0.00 819.00 261.00" xmlns="http://www.w3.org/2000/svg" xmlns:xlink="http://www.w3.org/1999/xlink">
<g id="graph0" class="graph" transform="scale(1 1) rotate(0) translate(4 257)">
<title>LightUserAction</title>
<!-- Node1 -->
<g id="node1" class="node">
<title>Node1</title>
<g id="a_node1"><a xlink:title=" ">
<polygon fill="#999999" stroke="#666666" points="612,-142 526,-142 526,-123 612,-123 612,-142"/>
<text text-anchor="middle" x="569" y="-130" font-family="Helvetica,sans-Serif" font-size="10.00">LightUserAction</text>
</a>
</g>
</g>
<!-- Node6 -->
<g id="node6" class="node">
<title>Node6</title>
<g id="a_node6"><a xlink:href="interfaceSCR__LightsDashboardUserAction.html" target="_top" xlink:title=" ">
<polygon fill="white" stroke="#666666" points="811,-253 648,-253 648,-234 811,-234 811,-253"/>
<text text-anchor="middle" x="729.5" y="-241" font-family="Helvetica,sans-Serif" font-size="10.00">SCR_LightsDashboardUserAction</text>
</a>
</g>
</g>
<!-- Node1&#45;&gt;Node6 -->
<g id="edge5" class="edge">
<title>Node1&#45;&gt;Node6</title>
<path fill="none" stroke="#63b8ff" d="M580.89,-151.88C593.98,-173.32 617.98,-207.24 648,-225.5 653.38,-228.77 659.29,-231.45 665.39,-233.65"/>
<polygon fill="#63b8ff" stroke="#63b8ff" points="583.45,-150.33 575.36,-143.48 577.42,-153.88 583.45,-150.33"/>
</g>
<!-- Node7 -->
<g id="node7" class="node">
<title>Node7</title>
<g id="a_node7"><a xlink:href="interfaceSCR__LightsHazardUserAction.html" target="_top" xlink:title=" ">
<polygon fill="white" stroke="#666666" points="803,-216 656,-216 656,-197 803,-197 803,-216"/>
<text text-anchor="middle" x="729.5" y="-204" font-family="Helvetica,sans-Serif" font-size="10.00">SCR_LightsHazardUserAction</text>
</a>
</g>
</g>
<!-- Node1&#45;&gt;Node7 -->
<g id="edge6" class="edge">
<title>Node1&#45;&gt;Node7</title>
<path fill="none" stroke="#63b8ff" d="M588.69,-149.26C603.71,-161.86 625.87,-178.58 648,-188.5 655.19,-191.72 663,-194.39 670.84,-196.59"/>
<polygon fill="#63b8ff" stroke="#63b8ff" points="591.6,-146.28 581.73,-142.4 587.03,-151.58 591.6,-146.28"/>
</g>
<!-- Node8 -->
<g id="node8" class="node">
<title>Node8</title>
<g id="a_node8"><a xlink:href="interfaceSCR__LightsHiBeamsUserAction.html" target="_top" xlink:title=" ">
<polygon fill="white" stroke="#666666" points="807.5,-179 651.5,-179 651.5,-160 807.5,-160 807.5,-179"/>
<text text-anchor="middle" x="729.5" y="-167" font-family="Helvetica,sans-Serif" font-size="10.00">SCR_LightsHiBeamsUserAction</text>
</a>
</g>
</g>
<!-- Node1&#45;&gt;Node8 -->
<g id="edge7" class="edge">
<title>Node1&#45;&gt;Node8</title>
<path fill="none" stroke="#63b8ff" d="M620.57,-144.97C629.69,-147.17 639.12,-149.43 648,-151.5 659.44,-154.17 671.8,-156.98 683.34,-159.56"/>
<polygon fill="#63b8ff" stroke="#63b8ff" points="621.59,-141.37 611.05,-142.41 619.94,-148.17 621.59,-141.37"/>
</g>
<!-- Node9 -->
<g id="node9" class="node">
<title>Node9</title>
<g id="a_node9"><a xlink:href="interfaceSCR__LightsPresenceUserAction.html" target="_top" xlink:title=" ">
<polygon fill="white" stroke="#666666" points="808.5,-142 650.5,-142 650.5,-123 808.5,-123 808.5,-142"/>
<text text-anchor="middle" x="729.5" y="-130" font-family="Helvetica,sans-Serif" font-size="10.00">SCR_LightsPresenceUserAction</text>
</a>
</g>
</g>
<!-- Node1&#45;&gt;Node9 -->
<g id="edge8" class="edge">
<title>Node1&#45;&gt;Node9</title>
<path fill="none" stroke="#63b8ff" d="M623.46,-132.5C632.04,-132.5 641.08,-132.5 650.1,-132.5"/>
<polygon fill="#63b8ff" stroke="#63b8ff" points="623.48,-129 613.48,-132.5 623.48,-136 623.48,-129"/>
</g>
<!-- Node10 -->
<g id="node10" class="node">
<title>Node10</title>
<g id="a_node10"><a xlink:href="interfaceSCR__LightsSearchLightUserAction.html" target="_top" xlink:title=" ">
<polygon fill="white" stroke="#666666" points="799.5,-104.5 659.5,-104.5 659.5,-74.5 799.5,-74.5 799.5,-104.5"/>
<text text-anchor="start" x="667.5" y="-92.5" font-family="Helvetica,sans-Serif" font-size="10.00">SCR_LightsSearchLightUser</text>
<text text-anchor="middle" x="729.5" y="-81.5" font-family="Helvetica,sans-Serif" font-size="10.00">Action</text>
</a>
</g>
</g>
<!-- Node1&#45;&gt;Node10 -->
<g id="edge9" class="edge">
<title>Node1&#45;&gt;Node10</title>
<path fill="none" stroke="#63b8ff" d="M617.05,-119.74C634.12,-115.1 653.6,-109.82 671.45,-104.98"/>
<polygon fill="#63b8ff" stroke="#63b8ff" points="616.5,-116.53 607.76,-122.53 618.33,-123.29 616.5,-116.53"/>
</g>
<!-- Node11 -->
<g id="node11" class="node">
<title>Node11</title>
<g id="a_node11"><a xlink:href="interfaceSCR__LightsTurnLeftUserAction.html" target="_top" xlink:title=" ">
<polygon fill="white" stroke="#666666" points="805,-56 654,-56 654,-37 805,-37 805,-56"/>
<text text-anchor="middle" x="729.5" y="-44" font-family="Helvetica,sans-Serif" font-size="10.00">SCR_LightsTurnLeftUserAction</text>
</a>
</g>
</g>
<!-- Node1&#45;&gt;Node11 -->
<g id="edge10" class="edge">
<title>Node1&#45;&gt;Node11</title>
<path fill="none" stroke="#63b8ff" d="M585.74,-114.87C600.38,-99.56 623.57,-77.93 648,-65.5 655.17,-61.85 663.05,-58.89 670.99,-56.49"/>
<polygon fill="#63b8ff" stroke="#63b8ff" points="583.77,-111.93 579.53,-121.64 588.9,-116.69 583.77,-111.93"/>
</g>
<!-- Node12 -->
<g id="node12" class="node">
<title>Node12</title>
<g id="a_node12"><a xlink:href="interfaceSCR__LightsTurnRightUserAction.html" target="_top" xlink:title=" ">
<polygon fill="white" stroke="#666666" points="808.5,-19 650.5,-19 650.5,0 808.5,0 808.5,-19"/>
<text text-anchor="middle" x="729.5" y="-7" font-family="Helvetica,sans-Serif" font-size="10.00">SCR_LightsTurnRightUserAction</text>
</a>
</g>
</g>
<!-- Node1&#45;&gt;Node12 -->
<g id="edge11" class="edge">
<title>Node1&#45;&gt;Node12</title>
<path fill="none" stroke="#63b8ff" d="M579.17,-112.75C591.37,-88.72 615.3,-48.74 648,-27.5 652.92,-24.3 658.34,-21.67 663.95,-19.5"/>
<polygon fill="#63b8ff" stroke="#63b8ff" points="575.63,-111.02 574.39,-121.54 581.92,-114.09 575.63,-111.02"/>
</g>
<!-- Node2 -->
<g id="node2" class="node">
<title>Node2</title>
<g id="a_node2"><a xlink:href="interfaceBaseLightUserAction.html" target="_top" xlink:title=" ">
<polygon fill="white" stroke="#666666" points="490,-142 382,-142 382,-123 490,-123 490,-142"/>
<text text-anchor="middle" x="436" y="-130" font-family="Helvetica,sans-Serif" font-size="10.00">BaseLightUserAction</text>
</a>
</g>
</g>
<!-- Node2&#45;&gt;Node1 -->
<g id="edge1" class="edge">
<title>Node2&#45;&gt;Node1</title>
<path fill="none" stroke="#63b8ff" d="M501.14,-132.5C509.44,-132.5 517.78,-132.5 525.6,-132.5"/>
<polygon fill="#63b8ff" stroke="#63b8ff" points="501.28,-129 491.28,-132.5 501.28,-136 501.28,-129"/>
</g>
<!-- Node3 -->
<g id="node3" class="node">
<title>Node3</title>
<g id="a_node3"><a xlink:href="interfaceScriptedUserAction.html" target="_top" xlink:title=" ">
<polygon fill="white" stroke="#666666" points="346,-142 245,-142 245,-123 346,-123 346,-142"/>
<text text-anchor="middle" x="295.5" y="-130" font-family="Helvetica,sans-Serif" font-size="10.00">ScriptedUserAction</text>
</a>
</g>
</g>
<!-- Node3&#45;&gt;Node2 -->
<g id="edge2" class="edge">
<title>Node3&#45;&gt;Node2</title>
<path fill="none" stroke="#63b8ff" d="M357.07,-132.5C365.21,-132.5 373.51,-132.5 381.52,-132.5"/>
<polygon fill="#63b8ff" stroke="#63b8ff" points="357.11,-129 347.11,-132.5 357.11,-136 357.11,-129"/>
</g>
<!-- Node4 -->
<g id="node4" class="node">
<title>Node4</title>
<g id="a_node4"><a xlink:href="interfaceBaseUserAction.html" target="_top" xlink:title=" ">
<polygon fill="white" stroke="#666666" points="209,-142 122,-142 122,-123 209,-123 209,-142"/>
<text text-anchor="middle" x="165.5" y="-130" font-family="Helvetica,sans-Serif" font-size="10.00">BaseUserAction</text>
</a>
</g>
</g>
<!-- Node4&#45;&gt;Node3 -->
<g id="edge3" class="edge">
<title>Node4&#45;&gt;Node3</title>
<path fill="none" stroke="#63b8ff" d="M220.34,-132.5C228.44,-132.5 236.77,-132.5 244.78,-132.5"/>
<polygon fill="#63b8ff" stroke="#63b8ff" points="220.48,-129 210.48,-132.5 220.48,-136 220.48,-129"/>
</g>
<!-- Node5 -->
<g id="node5" class="node">
<title>Node5</title>
<g id="a_node5"><a xlink:title=" ">
<polygon fill="white" stroke="#666666" points="86,-142 0,-142 0,-123 86,-123 86,-142"/>
<text text-anchor="middle" x="43" y="-130" font-family="Helvetica,sans-Serif" font-size="10.00">ScriptAndConfig</text>
</a>
</g>
</g>
<!-- Node5&#45;&gt;Node4 -->
<g id="edge4" class="edge">
<title>Node5&#45;&gt;Node4</title>
<path fill="none" stroke="#63b8ff" d="M97.37,-132.5C105.47,-132.5 113.74,-132.5 121.59,-132.5"/>
<polygon fill="#63b8ff" stroke="#63b8ff" points="97.48,-129 87.48,-132.5 97.48,-136 97.48,-129"/>
</g>
</g>
</svg>
