<?xml version="1.0" encoding="UTF-8" standalone="no"?>
<!DOCTYPE svg PUBLIC "-//W3C//DTD SVG 1.1//EN"
 "http://www.w3.org/Graphics/SVG/1.1/DTD/svg11.dtd">
<!-- Generated by graphviz version 8.0.2 (20230410.1723)
 -->
<!-- Title: SCR_NameTagRulesetBase Pages: 1 -->
<svg width="328pt" height="137pt"
 viewBox="0.00 0.00 327.50 137.00" xmlns="http://www.w3.org/2000/svg" xmlns:xlink="http://www.w3.org/1999/xlink">
<g id="graph0" class="graph" transform="scale(1 1) rotate(0) translate(4 133)">
<title>SCR_NameTagRulesetBase</title>
<!-- Node1 -->
<g id="node1" class="node">
<title>Node1</title>
<g id="a_node1"><a xlink:title="Base class for nametag visiblity ruleset &#45; single tag displayed continuously.">
<polygon fill="#999999" stroke="#666666" points="232.5,-74 93.5,-74 93.5,-55 232.5,-55 232.5,-74"/>
<text text-anchor="middle" x="163" y="-62" font-family="Helvetica,sans-Serif" font-size="10.00">SCR_NameTagRulesetBase</text>
</a>
</g>
</g>
<!-- Node3 -->
<g id="node3" class="node">
<title>Node3</title>
<g id="a_node3"><a xlink:href="interfaceSCR__NameTagRulesetFriendlies.html" target="_top" xlink:title=" ">
<polygon fill="white" stroke="#666666" points="158,-19 0,-19 0,0 158,0 158,-19"/>
<text text-anchor="middle" x="79" y="-7" font-family="Helvetica,sans-Serif" font-size="10.00">SCR_NameTagRulesetFriendlies</text>
</a>
</g>
</g>
<!-- Node1&#45;&gt;Node3 -->
<g id="edge2" class="edge">
<title>Node1&#45;&gt;Node3</title>
<path fill="none" stroke="#63b8ff" d="M139.59,-48.73C124.63,-39.29 105.72,-27.36 93.04,-19.36"/>
<polygon fill="#63b8ff" stroke="#63b8ff" points="137.43,-52.13 147.75,-54.51 141.16,-46.21 137.43,-52.13"/>
</g>
<!-- Node4 -->
<g id="node4" class="node">
<title>Node4</title>
<g id="a_node4"><a xlink:href="interfaceSCR__NameTagRulesetSingle.html" target="_top" xlink:title=" ">
<polygon fill="white" stroke="#666666" points="319.5,-19 176.5,-19 176.5,0 319.5,0 319.5,-19"/>
<text text-anchor="middle" x="248" y="-7" font-family="Helvetica,sans-Serif" font-size="10.00">SCR_NameTagRulesetSingle</text>
</a>
</g>
</g>
<!-- Node1&#45;&gt;Node4 -->
<g id="edge3" class="edge">
<title>Node1&#45;&gt;Node4</title>
<path fill="none" stroke="#63b8ff" d="M186.69,-48.73C201.83,-39.29 220.96,-27.36 233.79,-19.36"/>
<polygon fill="#63b8ff" stroke="#63b8ff" points="185.05,-46.25 178.42,-54.51 188.76,-52.19 185.05,-46.25"/>
</g>
<!-- Node2 -->
<g id="node2" class="node">
<title>Node2</title>
<g id="a_node2"><a xlink:title=" ">
<polygon fill="white" stroke="#666666" points="191,-129 135,-129 135,-110 191,-110 191,-129"/>
<text text-anchor="middle" x="163" y="-117" font-family="Helvetica,sans-Serif" font-size="10.00">Managed</text>
</a>
</g>
</g>
<!-- Node2&#45;&gt;Node1 -->
<g id="edge1" class="edge">
<title>Node2&#45;&gt;Node1</title>
<path fill="none" stroke="#63b8ff" d="M163,-98.93C163,-90.53 163,-81.13 163,-74.44"/>
<polygon fill="#63b8ff" stroke="#63b8ff" points="159.5,-98.75 163,-108.75 166.5,-98.75 159.5,-98.75"/>
</g>
</g>
</svg>
