<?xml version="1.0" encoding="UTF-8" standalone="no"?>
<!DOCTYPE svg PUBLIC "-//W3C//DTD SVG 1.1//EN"
 "http://www.w3.org/Graphics/SVG/1.1/DTD/svg11.dtd">
<!-- Generated by graphviz version 8.0.2 (20230410.1723)
 -->
<!-- Title: SCR_SliderEditorAttributeUIComponent Pages: 1 -->
<svg width="312pt" height="214pt"
 viewBox="0.00 0.00 312.00 214.00" xmlns="http://www.w3.org/2000/svg" xmlns:xlink="http://www.w3.org/1999/xlink">
<g id="graph0" class="graph" transform="scale(1 1) rotate(0) translate(4 210)">
<title>SCR_SliderEditorAttributeUIComponent</title>
<!-- Node1 -->
<g id="node1" class="node">
<title>Node1</title>
<g id="a_node1"><a xlink:title=" ">
<polygon fill="#999999" stroke="#666666" points="208.5,-96 79.5,-96 79.5,-66 208.5,-66 208.5,-96"/>
<text text-anchor="start" x="87.5" y="-84" font-family="Helvetica,sans-Serif" font-size="10.00">SCR_SliderEditorAttribute</text>
<text text-anchor="middle" x="144" y="-73" font-family="Helvetica,sans-Serif" font-size="10.00">UIComponent</text>
</a>
</g>
</g>
<!-- Node4 -->
<g id="node4" class="node">
<title>Node4</title>
<g id="a_node4"><a xlink:href="interfaceSCR__SliderBloodAttributeComponent.html" target="_top" xlink:title=" ">
<polygon fill="white" stroke="#666666" points="128,-30 0,-30 0,0 128,0 128,-30"/>
<text text-anchor="start" x="8" y="-18" font-family="Helvetica,sans-Serif" font-size="10.00">SCR_SliderBloodAttribute</text>
<text text-anchor="middle" x="64" y="-7" font-family="Helvetica,sans-Serif" font-size="10.00">Component</text>
</a>
</g>
</g>
<!-- Node1&#45;&gt;Node4 -->
<g id="edge3" class="edge">
<title>Node1&#45;&gt;Node4</title>
<path fill="none" stroke="#63b8ff" d="M117.72,-58.97C106.01,-49.61 92.52,-38.81 81.98,-30.39"/>
<polygon fill="#63b8ff" stroke="#63b8ff" points="115.25,-62.28 125.25,-65.8 119.62,-56.82 115.25,-62.28"/>
</g>
<!-- Node5 -->
<g id="node5" class="node">
<title>Node5</title>
<g id="a_node5"><a xlink:href="interfaceSCR__VectorSliderEditorAttributeUIComponent.html" target="_top" xlink:title=" ">
<polygon fill="white" stroke="#666666" points="304,-30 146,-30 146,0 304,0 304,-30"/>
<text text-anchor="start" x="154" y="-18" font-family="Helvetica,sans-Serif" font-size="10.00">SCR_VectorSliderEditorAttribute</text>
<text text-anchor="middle" x="225" y="-7" font-family="Helvetica,sans-Serif" font-size="10.00">UIComponent</text>
</a>
</g>
</g>
<!-- Node1&#45;&gt;Node5 -->
<g id="edge4" class="edge">
<title>Node1&#45;&gt;Node5</title>
<path fill="none" stroke="#63b8ff" d="M170.26,-59.25C182.2,-49.82 196.02,-38.9 206.79,-30.39"/>
<polygon fill="#63b8ff" stroke="#63b8ff" points="168.65,-56.85 162.98,-65.8 172.99,-62.34 168.65,-56.85"/>
</g>
<!-- Node2 -->
<g id="node2" class="node">
<title>Node2</title>
<g id="a_node2"><a xlink:href="interfaceSCR__BaseEditorAttributeUIComponent.html" target="_top" xlink:title=" ">
<polygon fill="white" stroke="#666666" points="236.5,-151 51.5,-151 51.5,-132 236.5,-132 236.5,-151"/>
<text text-anchor="middle" x="144" y="-139" font-family="Helvetica,sans-Serif" font-size="10.00">SCR_BaseEditorAttributeUIComponent</text>
</a>
</g>
</g>
<!-- Node2&#45;&gt;Node1 -->
<g id="edge1" class="edge">
<title>Node2&#45;&gt;Node1</title>
<path fill="none" stroke="#63b8ff" d="M144,-121.08C144,-112.92 144,-103.6 144,-96.11"/>
<polygon fill="#63b8ff" stroke="#63b8ff" points="140.5,-120.87 144,-130.87 147.5,-120.87 140.5,-120.87"/>
</g>
<!-- Node3 -->
<g id="node3" class="node">
<title>Node3</title>
<g id="a_node3"><a xlink:title=" ">
<polygon fill="white" stroke="#666666" points="210.5,-206 77.5,-206 77.5,-187 210.5,-187 210.5,-206"/>
<text text-anchor="middle" x="144" y="-194" font-family="Helvetica,sans-Serif" font-size="10.00">ScriptedWidgetComponent</text>
</a>
</g>
</g>
<!-- Node3&#45;&gt;Node2 -->
<g id="edge2" class="edge">
<title>Node3&#45;&gt;Node2</title>
<path fill="none" stroke="#63b8ff" d="M144,-175.93C144,-167.53 144,-158.13 144,-151.44"/>
<polygon fill="#63b8ff" stroke="#63b8ff" points="140.5,-175.75 144,-185.75 147.5,-175.75 140.5,-175.75"/>
</g>
</g>
</svg>
