<?xml version="1.0" encoding="UTF-8" standalone="no"?>
<!DOCTYPE svg PUBLIC "-//W3C//DTD SVG 1.1//EN"
 "http://www.w3.org/Graphics/SVG/1.1/DTD/svg11.dtd">
<!-- Generated by graphviz version 8.0.2 (20230410.1723)
 -->
<!-- Title: SCR_TimePresetsAttributeUIComponent Pages: 1 -->
<svg width="193pt" height="203pt"
 viewBox="0.00 0.00 193.00 203.00" xmlns="http://www.w3.org/2000/svg" xmlns:xlink="http://www.w3.org/1999/xlink">
<g id="graph0" class="graph" transform="scale(1 1) rotate(0) translate(4 199)">
<title>SCR_TimePresetsAttributeUIComponent</title>
<!-- Node1 -->
<g id="node1" class="node">
<title>Node1</title>
<g id="a_node1"><a xlink:title=" ">
<polygon fill="#999999" stroke="#666666" points="159.5,-30 25.5,-30 25.5,0 159.5,0 159.5,-30"/>
<text text-anchor="start" x="33.5" y="-18" font-family="Helvetica,sans-Serif" font-size="10.00">SCR_TimePresetsAttribute</text>
<text text-anchor="middle" x="92.5" y="-7" font-family="Helvetica,sans-Serif" font-size="10.00">UIComponent</text>
</a>
</g>
</g>
<!-- Node2 -->
<g id="node2" class="node">
<title>Node2</title>
<g id="a_node2"><a xlink:href="interfaceSCR__ButtonBoxAttributeUIComponent.html" target="_top" xlink:title=" ">
<polygon fill="white" stroke="#666666" points="184,-85 1,-85 1,-66 184,-66 184,-85"/>
<text text-anchor="middle" x="92.5" y="-73" font-family="Helvetica,sans-Serif" font-size="10.00">SCR_ButtonBoxAttributeUIComponent</text>
</a>
</g>
</g>
<!-- Node2&#45;&gt;Node1 -->
<g id="edge1" class="edge">
<title>Node2&#45;&gt;Node1</title>
<path fill="none" stroke="#63b8ff" d="M92.5,-55.08C92.5,-46.92 92.5,-37.6 92.5,-30.11"/>
<polygon fill="#63b8ff" stroke="#63b8ff" points="89,-54.87 92.5,-64.87 96,-54.87 89,-54.87"/>
</g>
<!-- Node3 -->
<g id="node3" class="node">
<title>Node3</title>
<g id="a_node3"><a xlink:href="interfaceSCR__BaseEditorAttributeUIComponent.html" target="_top" xlink:title=" ">
<polygon fill="white" stroke="#666666" points="185,-140 0,-140 0,-121 185,-121 185,-140"/>
<text text-anchor="middle" x="92.5" y="-128" font-family="Helvetica,sans-Serif" font-size="10.00">SCR_BaseEditorAttributeUIComponent</text>
</a>
</g>
</g>
<!-- Node3&#45;&gt;Node2 -->
<g id="edge2" class="edge">
<title>Node3&#45;&gt;Node2</title>
<path fill="none" stroke="#63b8ff" d="M92.5,-109.93C92.5,-101.53 92.5,-92.13 92.5,-85.44"/>
<polygon fill="#63b8ff" stroke="#63b8ff" points="89,-109.75 92.5,-119.75 96,-109.75 89,-109.75"/>
</g>
<!-- Node4 -->
<g id="node4" class="node">
<title>Node4</title>
<g id="a_node4"><a xlink:title=" ">
<polygon fill="white" stroke="#666666" points="159,-195 26,-195 26,-176 159,-176 159,-195"/>
<text text-anchor="middle" x="92.5" y="-183" font-family="Helvetica,sans-Serif" font-size="10.00">ScriptedWidgetComponent</text>
</a>
</g>
</g>
<!-- Node4&#45;&gt;Node3 -->
<g id="edge3" class="edge">
<title>Node4&#45;&gt;Node3</title>
<path fill="none" stroke="#63b8ff" d="M92.5,-164.93C92.5,-156.53 92.5,-147.13 92.5,-140.44"/>
<polygon fill="#63b8ff" stroke="#63b8ff" points="89,-164.75 92.5,-174.75 96,-164.75 89,-164.75"/>
</g>
</g>
</svg>
