<?xml version="1.0" encoding="UTF-8" standalone="no"?>
<!DOCTYPE svg PUBLIC "-//W3C//DTD SVG 1.1//EN"
 "http://www.w3.org/Graphics/SVG/1.1/DTD/svg11.dtd">
<!-- Generated by graphviz version 8.0.2 (20230410.1723)
 -->
<!-- Title: SCR_SpawnData Pages: 1 -->
<svg width="429pt" height="82pt"
 viewBox="0.00 0.00 429.00 82.00" xmlns="http://www.w3.org/2000/svg" xmlns:xlink="http://www.w3.org/1999/xlink">
<g id="graph0" class="graph" transform="scale(1 1) rotate(0) translate(4 78)">
<title>SCR_SpawnData</title>
<!-- Node1 -->
<g id="node1" class="node">
<title>Node1</title>
<g id="a_node1"><a xlink:title="The most basic payload that can be derived and sent via SCR_SpawnRequestComponent to be handled by SC...">
<polygon fill="#999999" stroke="#666666" points="240.5,-74 148.5,-74 148.5,-55 240.5,-55 240.5,-74"/>
<text text-anchor="middle" x="194.5" y="-62" font-family="Helvetica,sans-Serif" font-size="10.00">SCR_SpawnData</text>
</a>
</g>
</g>
<!-- Node2 -->
<g id="node2" class="node">
<title>Node2</title>
<g id="a_node2"><a xlink:href="interfaceSCR__FreeSpawnData.html" target="_top" xlink:title=" ">
<polygon fill="white" stroke="#666666" points="111,-19 0,-19 0,0 111,0 111,-19"/>
<text text-anchor="middle" x="55.5" y="-7" font-family="Helvetica,sans-Serif" font-size="10.00">SCR_FreeSpawnData</text>
</a>
</g>
</g>
<!-- Node1&#45;&gt;Node2 -->
<g id="edge1" class="edge">
<title>Node1&#45;&gt;Node2</title>
<path fill="none" stroke="#63b8ff" d="M160.96,-50.71C135.53,-41.01 101.21,-27.93 78.73,-19.36"/>
<polygon fill="#63b8ff" stroke="#63b8ff" points="159.33,-54.22 169.92,-54.51 161.82,-47.68 159.33,-54.22"/>
</g>
<!-- Node3 -->
<g id="node3" class="node">
<title>Node3</title>
<g id="a_node3"><a xlink:href="interfaceSCR__PossessSpawnData.html" target="_top" xlink:title=" ">
<polygon fill="white" stroke="#666666" points="259.5,-19 129.5,-19 129.5,0 259.5,0 259.5,-19"/>
<text text-anchor="middle" x="194.5" y="-7" font-family="Helvetica,sans-Serif" font-size="10.00">SCR_PossessSpawnData</text>
</a>
</g>
</g>
<!-- Node1&#45;&gt;Node3 -->
<g id="edge2" class="edge">
<title>Node1&#45;&gt;Node3</title>
<path fill="none" stroke="#63b8ff" d="M194.5,-43.93C194.5,-35.53 194.5,-26.13 194.5,-19.44"/>
<polygon fill="#63b8ff" stroke="#63b8ff" points="191,-43.75 194.5,-53.75 198,-43.75 191,-43.75"/>
</g>
<!-- Node4 -->
<g id="node4" class="node">
<title>Node4</title>
<g id="a_node4"><a xlink:href="interfaceSCR__SpawnPointSpawnData.html" target="_top" xlink:title=" ">
<polygon fill="white" stroke="#666666" points="421,-19 278,-19 278,0 421,0 421,-19"/>
<text text-anchor="middle" x="349.5" y="-7" font-family="Helvetica,sans-Serif" font-size="10.00">SCR_SpawnPointSpawnData</text>
</a>
</g>
</g>
<!-- Node1&#45;&gt;Node4 -->
<g id="edge3" class="edge">
<title>Node1&#45;&gt;Node4</title>
<path fill="none" stroke="#63b8ff" d="M231.11,-50.98C259.46,-41.29 298.03,-28.1 323.34,-19.45"/>
<polygon fill="#63b8ff" stroke="#63b8ff" points="230.12,-47.96 221.79,-54.51 232.39,-54.59 230.12,-47.96"/>
</g>
</g>
</svg>
