<?xml version="1.0" encoding="UTF-8" standalone="no"?>
<!DOCTYPE svg PUBLIC "-//W3C//DTD SVG 1.1//EN"
 "http://www.w3.org/Graphics/SVG/1.1/DTD/svg11.dtd">
<!-- Generated by graphviz version 8.0.2 (20230410.1723)
 -->
<!-- Title: SCR_InvCallBack Pages: 1 -->
<svg width="513pt" height="258pt"
 viewBox="0.00 0.00 512.50 258.00" xmlns="http://www.w3.org/2000/svg" xmlns:xlink="http://www.w3.org/1999/xlink">
<g id="graph0" class="graph" transform="scale(1 1) rotate(0) translate(4 254)">
<title>SCR_InvCallBack</title>
<!-- Node1 -->
<g id="node1" class="node">
<title>Node1</title>
<g id="a_node1"><a xlink:title=" ">
<polygon fill="#999999" stroke="#666666" points="306.5,-74 214.5,-74 214.5,-55 306.5,-55 306.5,-74"/>
<text text-anchor="middle" x="260.5" y="-62" font-family="Helvetica,sans-Serif" font-size="10.00">SCR_InvCallBack</text>
</a>
</g>
</g>
<!-- Node5 -->
<g id="node5" class="node">
<title>Node5</title>
<g id="a_node5"><a xlink:href="interfaceSCR__EquipGearCB.html" target="_top" xlink:title=" ">
<polygon fill="white" stroke="#666666" points="101,-19 0,-19 0,0 101,0 101,-19"/>
<text text-anchor="middle" x="50.5" y="-7" font-family="Helvetica,sans-Serif" font-size="10.00">SCR_EquipGearCB</text>
</a>
</g>
</g>
<!-- Node1&#45;&gt;Node5 -->
<g id="edge4" class="edge">
<title>Node1&#45;&gt;Node5</title>
<path fill="none" stroke="#63b8ff" d="M214.41,-51.87C175.74,-42.11 121.29,-28.37 85.95,-19.45"/>
<polygon fill="#63b8ff" stroke="#63b8ff" points="213.32,-55.46 223.88,-54.51 215.04,-48.67 213.32,-55.46"/>
</g>
<!-- Node6 -->
<g id="node6" class="node">
<title>Node6</title>
<g id="a_node6"><a xlink:href="interfaceSCR__EquipNextGrenadeCB.html" target="_top" xlink:title=" ">
<polygon fill="white" stroke="#666666" points="256,-19 119,-19 119,0 256,0 256,-19"/>
<text text-anchor="middle" x="187.5" y="-7" font-family="Helvetica,sans-Serif" font-size="10.00">SCR_EquipNextGrenadeCB</text>
</a>
</g>
</g>
<!-- Node1&#45;&gt;Node6 -->
<g id="edge5" class="edge">
<title>Node1&#45;&gt;Node6</title>
<path fill="none" stroke="#63b8ff" d="M239.41,-48.19C226.53,-38.84 210.51,-27.21 199.7,-19.36"/>
<polygon fill="#63b8ff" stroke="#63b8ff" points="236.97,-51.47 247.12,-54.51 241.08,-45.8 236.97,-51.47"/>
</g>
<!-- Node7 -->
<g id="node7" class="node">
<title>Node7</title>
<g id="a_node7"><a xlink:href="interfaceSCR__InvCallBackCheck.html" target="_top" xlink:title=" ">
<polygon fill="white" stroke="#666666" points="394.5,-19 274.5,-19 274.5,0 394.5,0 394.5,-19"/>
<text text-anchor="middle" x="334.5" y="-7" font-family="Helvetica,sans-Serif" font-size="10.00">SCR_InvCallBackCheck</text>
</a>
</g>
</g>
<!-- Node1&#45;&gt;Node7 -->
<g id="edge6" class="edge">
<title>Node1&#45;&gt;Node7</title>
<path fill="none" stroke="#63b8ff" d="M281.88,-48.19C294.94,-38.84 311.18,-27.21 322.13,-19.36"/>
<polygon fill="#63b8ff" stroke="#63b8ff" points="280.15,-45.84 274.05,-54.51 284.22,-51.53 280.15,-45.84"/>
</g>
<!-- Node8 -->
<g id="node8" class="node">
<title>Node8</title>
<g id="a_node8"><a xlink:href="interfaceSCR__InvEquipCB.html" target="_top" xlink:title=" ">
<polygon fill="white" stroke="#666666" points="504.5,-19 412.5,-19 412.5,0 504.5,0 504.5,-19"/>
<text text-anchor="middle" x="458.5" y="-7" font-family="Helvetica,sans-Serif" font-size="10.00">SCR_InvEquipCB</text>
</a>
</g>
</g>
<!-- Node1&#45;&gt;Node8 -->
<g id="edge7" class="edge">
<title>Node1&#45;&gt;Node8</title>
<path fill="none" stroke="#63b8ff" d="M304.42,-51.74C340.86,-41.99 391.9,-28.33 425.08,-19.45"/>
<polygon fill="#63b8ff" stroke="#63b8ff" points="303.84,-48.54 295.09,-54.51 305.65,-55.3 303.84,-48.54"/>
</g>
<!-- Node2 -->
<g id="node2" class="node">
<title>Node2</title>
<g id="a_node2"><a xlink:href="interfaceScriptedInventoryOperationCallback.html" target="_top" xlink:title=" ">
<polygon fill="white" stroke="#666666" points="327,-140 194,-140 194,-110 327,-110 327,-140"/>
<text text-anchor="start" x="202" y="-128" font-family="Helvetica,sans-Serif" font-size="10.00">ScriptedInventoryOperation</text>
<text text-anchor="middle" x="260.5" y="-117" font-family="Helvetica,sans-Serif" font-size="10.00">Callback</text>
</a>
</g>
</g>
<!-- Node2&#45;&gt;Node1 -->
<g id="edge1" class="edge">
<title>Node2&#45;&gt;Node1</title>
<path fill="none" stroke="#63b8ff" d="M260.5,-98.59C260.5,-89.85 260.5,-80.65 260.5,-74.18"/>
<polygon fill="#63b8ff" stroke="#63b8ff" points="257,-98.54 260.5,-108.54 264,-98.54 257,-98.54"/>
</g>
<!-- Node3 -->
<g id="node3" class="node">
<title>Node3</title>
<g id="a_node3"><a xlink:href="interfaceInventoryOperationCallback.html" target="_top" xlink:title=" ">
<polygon fill="white" stroke="#666666" points="327.5,-195 193.5,-195 193.5,-176 327.5,-176 327.5,-195"/>
<text text-anchor="middle" x="260.5" y="-183" font-family="Helvetica,sans-Serif" font-size="10.00">InventoryOperationCallback</text>
</a>
</g>
</g>
<!-- Node3&#45;&gt;Node2 -->
<g id="edge2" class="edge">
<title>Node3&#45;&gt;Node2</title>
<path fill="none" stroke="#63b8ff" d="M260.5,-165.08C260.5,-156.92 260.5,-147.6 260.5,-140.11"/>
<polygon fill="#63b8ff" stroke="#63b8ff" points="257,-164.87 260.5,-174.87 264,-164.87 257,-164.87"/>
</g>
<!-- Node4 -->
<g id="node4" class="node">
<title>Node4</title>
<g id="a_node4"><a xlink:title=" ">
<polygon fill="white" stroke="#666666" points="288.5,-250 232.5,-250 232.5,-231 288.5,-231 288.5,-250"/>
<text text-anchor="middle" x="260.5" y="-238" font-family="Helvetica,sans-Serif" font-size="10.00">Managed</text>
</a>
</g>
</g>
<!-- Node4&#45;&gt;Node3 -->
<g id="edge3" class="edge">
<title>Node4&#45;&gt;Node3</title>
<path fill="none" stroke="#63b8ff" d="M260.5,-219.93C260.5,-211.53 260.5,-202.13 260.5,-195.44"/>
<polygon fill="#63b8ff" stroke="#63b8ff" points="257,-219.75 260.5,-229.75 264,-219.75 257,-219.75"/>
</g>
</g>
</svg>
