<?xml version="1.0" encoding="UTF-8" standalone="no"?>
<!DOCTYPE svg PUBLIC "-//W3C//DTD SVG 1.1//EN"
 "http://www.w3.org/Graphics/SVG/1.1/DTD/svg11.dtd">
<!-- Generated by graphviz version 8.0.2 (20230410.1723)
 -->
<!-- Title: ProjectileMoveComponent Pages: 1 -->
<svg width="399pt" height="302pt"
 viewBox="0.00 0.00 398.50 302.00" xmlns="http://www.w3.org/2000/svg" xmlns:xlink="http://www.w3.org/1999/xlink">
<g id="graph0" class="graph" transform="scale(1 1) rotate(0) translate(4 298)">
<title>ProjectileMoveComponent</title>
<!-- Node1 -->
<g id="node1" class="node">
<title>Node1</title>
<g id="a_node1"><a xlink:title=" ">
<polygon fill="#999999" stroke="#666666" points="267,-129 138,-129 138,-110 267,-110 267,-129"/>
<text text-anchor="middle" x="202.5" y="-117" font-family="Helvetica,sans-Serif" font-size="10.00">ProjectileMoveComponent</text>
</a>
</g>
</g>
<!-- Node5 -->
<g id="node5" class="node">
<title>Node5</title>
<g id="a_node5"><a xlink:href="interfaceGrenadeMoveComponent.html" target="_top" xlink:title=" ">
<polygon fill="white" stroke="#666666" points="125,-74 0,-74 0,-55 125,-55 125,-74"/>
<text text-anchor="middle" x="62.5" y="-62" font-family="Helvetica,sans-Serif" font-size="10.00">GrenadeMoveComponent</text>
</a>
</g>
</g>
<!-- Node1&#45;&gt;Node5 -->
<g id="edge4" class="edge">
<title>Node1&#45;&gt;Node5</title>
<path fill="none" stroke="#63b8ff" d="M168.72,-105.71C143.1,-96.01 108.54,-82.93 85.9,-74.36"/>
<polygon fill="#63b8ff" stroke="#63b8ff" points="167.16,-109.24 177.75,-109.51 169.64,-102.7 167.16,-109.24"/>
</g>
<!-- Node6 -->
<g id="node6" class="node">
<title>Node6</title>
<g id="a_node6"><a xlink:href="interfaceMissileMoveComponent.html" target="_top" xlink:title=" ">
<polygon fill="white" stroke="#666666" points="262,-74 143,-74 143,-55 262,-55 262,-74"/>
<text text-anchor="middle" x="202.5" y="-62" font-family="Helvetica,sans-Serif" font-size="10.00">MissileMoveComponent</text>
</a>
</g>
</g>
<!-- Node1&#45;&gt;Node6 -->
<g id="edge5" class="edge">
<title>Node1&#45;&gt;Node6</title>
<path fill="none" stroke="#63b8ff" d="M202.5,-98.93C202.5,-90.53 202.5,-81.13 202.5,-74.44"/>
<polygon fill="#63b8ff" stroke="#63b8ff" points="199,-98.75 202.5,-108.75 206,-98.75 199,-98.75"/>
</g>
<!-- Node7 -->
<g id="node7" class="node">
<title>Node7</title>
<g id="a_node7"><a xlink:href="interfaceShellMoveComponent.html" target="_top" xlink:title=" ">
<polygon fill="white" stroke="#666666" points="390.5,-74 280.5,-74 280.5,-55 390.5,-55 390.5,-74"/>
<text text-anchor="middle" x="335.5" y="-62" font-family="Helvetica,sans-Serif" font-size="10.00">ShellMoveComponent</text>
</a>
</g>
</g>
<!-- Node1&#45;&gt;Node7 -->
<g id="edge6" class="edge">
<title>Node1&#45;&gt;Node7</title>
<path fill="none" stroke="#63b8ff" d="M235.24,-105.45C259.51,-95.78 291.95,-82.85 313.27,-74.36"/>
<polygon fill="#63b8ff" stroke="#63b8ff" points="234.06,-102.56 226.06,-109.51 236.65,-109.06 234.06,-102.56"/>
</g>
<!-- Node2 -->
<g id="node2" class="node">
<title>Node2</title>
<g id="a_node2"><a xlink:href="interfaceBaseProjectileComponent.html" target="_top" xlink:title=" ">
<polygon fill="white" stroke="#666666" points="267,-184 138,-184 138,-165 267,-165 267,-184"/>
<text text-anchor="middle" x="202.5" y="-172" font-family="Helvetica,sans-Serif" font-size="10.00">BaseProjectileComponent</text>
</a>
</g>
</g>
<!-- Node2&#45;&gt;Node1 -->
<g id="edge1" class="edge">
<title>Node2&#45;&gt;Node1</title>
<path fill="none" stroke="#63b8ff" d="M202.5,-153.93C202.5,-145.53 202.5,-136.13 202.5,-129.44"/>
<polygon fill="#63b8ff" stroke="#63b8ff" points="199,-153.75 202.5,-163.75 206,-153.75 199,-153.75"/>
</g>
<!-- Node3 -->
<g id="node3" class="node">
<title>Node3</title>
<g id="a_node3"><a xlink:href="interfaceGameComponent.html" target="_top" xlink:title=" ">
<polygon fill="white" stroke="#666666" points="248.5,-239 156.5,-239 156.5,-220 248.5,-220 248.5,-239"/>
<text text-anchor="middle" x="202.5" y="-227" font-family="Helvetica,sans-Serif" font-size="10.00">GameComponent</text>
</a>
</g>
</g>
<!-- Node3&#45;&gt;Node2 -->
<g id="edge2" class="edge">
<title>Node3&#45;&gt;Node2</title>
<path fill="none" stroke="#63b8ff" d="M202.5,-208.93C202.5,-200.53 202.5,-191.13 202.5,-184.44"/>
<polygon fill="#63b8ff" stroke="#63b8ff" points="199,-208.75 202.5,-218.75 206,-208.75 199,-208.75"/>
</g>
<!-- Node4 -->
<g id="node4" class="node">
<title>Node4</title>
<g id="a_node4"><a xlink:title=" ">
<polygon fill="white" stroke="#666666" points="252.5,-294 152.5,-294 152.5,-275 252.5,-275 252.5,-294"/>
<text text-anchor="middle" x="202.5" y="-282" font-family="Helvetica,sans-Serif" font-size="10.00">GenericComponent</text>
</a>
</g>
</g>
<!-- Node4&#45;&gt;Node3 -->
<g id="edge3" class="edge">
<title>Node4&#45;&gt;Node3</title>
<path fill="none" stroke="#63b8ff" d="M202.5,-263.93C202.5,-255.53 202.5,-246.13 202.5,-239.44"/>
<polygon fill="#63b8ff" stroke="#63b8ff" points="199,-263.75 202.5,-273.75 206,-263.75 199,-263.75"/>
</g>
<!-- Node8 -->
<g id="node8" class="node">
<title>Node8</title>
<g id="a_node8"><a xlink:href="interfaceFlareMoveComponent.html" target="_top" xlink:title=" ">
<polygon fill="white" stroke="#666666" points="390.5,-19 280.5,-19 280.5,0 390.5,0 390.5,-19"/>
<text text-anchor="middle" x="335.5" y="-7" font-family="Helvetica,sans-Serif" font-size="10.00">FlareMoveComponent</text>
</a>
</g>
</g>
<!-- Node7&#45;&gt;Node8 -->
<g id="edge7" class="edge">
<title>Node7&#45;&gt;Node8</title>
<path fill="none" stroke="#63b8ff" d="M335.5,-43.93C335.5,-35.53 335.5,-26.13 335.5,-19.44"/>
<polygon fill="#63b8ff" stroke="#63b8ff" points="332,-43.75 335.5,-53.75 339,-43.75 332,-43.75"/>
</g>
</g>
</svg>
