<?xml version="1.0" encoding="UTF-8" standalone="no"?>
<!DOCTYPE svg PUBLIC "-//W3C//DTD SVG 1.1//EN"
 "http://www.w3.org/Graphics/SVG/1.1/DTD/svg11.dtd">
<!-- Generated by graphviz version 8.0.2 (20230410.1723)
 -->
<!-- Title: SCR_CommandingManagerComponentClass Pages: 1 -->
<svg width="194pt" height="159pt"
 viewBox="0.00 0.00 194.00 159.00" xmlns="http://www.w3.org/2000/svg" xmlns:xlink="http://www.w3.org/1999/xlink">
<g id="graph0" class="graph" transform="scale(1 1) rotate(0) translate(4 155)">
<title>SCR_CommandingManagerComponentClass</title>
<!-- Node1 -->
<g id="node1" class="node">
<title>Node1</title>
<g id="a_node1"><a xlink:title=" ">
<polygon fill="#999999" stroke="#666666" points="186,-30 0,-30 0,0 186,0 186,-30"/>
<text text-anchor="start" x="8" y="-18" font-family="Helvetica,sans-Serif" font-size="10.00">SCR_CommandingManagerComponent</text>
<text text-anchor="middle" x="93" y="-7" font-family="Helvetica,sans-Serif" font-size="10.00">Class</text>
</a>
</g>
</g>
<!-- Node2 -->
<g id="node2" class="node">
<title>Node2</title>
<g id="a_node2"><a xlink:href="interfaceSCR__BaseGameModeComponentClass.html" target="_top" xlink:title=" ">
<polygon fill="white" stroke="#666666" points="175,-96 11,-96 11,-66 175,-66 175,-96"/>
<text text-anchor="start" x="19" y="-84" font-family="Helvetica,sans-Serif" font-size="10.00">SCR_BaseGameModeComponent</text>
<text text-anchor="middle" x="93" y="-73" font-family="Helvetica,sans-Serif" font-size="10.00">Class</text>
</a>
</g>
</g>
<!-- Node2&#45;&gt;Node1 -->
<g id="edge1" class="edge">
<title>Node2&#45;&gt;Node1</title>
<path fill="none" stroke="#63b8ff" d="M93,-54.97C93,-46.55 93,-37.45 93,-30.16"/>
<polygon fill="#63b8ff" stroke="#63b8ff" points="89.5,-54.8 93,-64.8 96.5,-54.8 89.5,-54.8"/>
</g>
<!-- Node3 -->
<g id="node3" class="node">
<title>Node3</title>
<g id="a_node3"><a xlink:title=" ">
<polygon fill="white" stroke="#666666" points="151,-151 35,-151 35,-132 151,-132 151,-151"/>
<text text-anchor="middle" x="93" y="-139" font-family="Helvetica,sans-Serif" font-size="10.00">ScriptComponentClass</text>
</a>
</g>
</g>
<!-- Node3&#45;&gt;Node2 -->
<g id="edge2" class="edge">
<title>Node3&#45;&gt;Node2</title>
<path fill="none" stroke="#63b8ff" d="M93,-121.08C93,-112.92 93,-103.6 93,-96.11"/>
<polygon fill="#63b8ff" stroke="#63b8ff" points="89.5,-120.87 93,-130.87 96.5,-120.87 89.5,-120.87"/>
</g>
</g>
</svg>
