<?xml version="1.0" encoding="UTF-8" standalone="no"?>
<!DOCTYPE svg PUBLIC "-//W3C//DTD SVG 1.1//EN"
 "http://www.w3.org/Graphics/SVG/1.1/DTD/svg11.dtd">
<!-- Generated by graphviz version 8.0.2 (20230410.1723)
 -->
<!-- Title: SCR_NTTextBase Pages: 1 -->
<svg width="208pt" height="137pt"
 viewBox="0.00 0.00 207.50 137.00" xmlns="http://www.w3.org/2000/svg" xmlns:xlink="http://www.w3.org/1999/xlink">
<g id="graph0" class="graph" transform="scale(1 1) rotate(0) translate(4 133)">
<title>SCR_NTTextBase</title>
<!-- Node1 -->
<g id="node1" class="node">
<title>Node1</title>
<g id="a_node1"><a xlink:title="Base nametag element for text.">
<polygon fill="#999999" stroke="#666666" points="141.5,-74 46.5,-74 46.5,-55 141.5,-55 141.5,-74"/>
<text text-anchor="middle" x="94" y="-62" font-family="Helvetica,sans-Serif" font-size="10.00">SCR_NTTextBase</text>
</a>
</g>
</g>
<!-- Node3 -->
<g id="node3" class="node">
<title>Node3</title>
<g id="a_node3"><a xlink:href="interfaceSCR__NTName.html" target="_top" xlink:title="Nametag element for name text.">
<polygon fill="white" stroke="#666666" points="80,-19 0,-19 0,0 80,0 80,-19"/>
<text text-anchor="middle" x="40" y="-7" font-family="Helvetica,sans-Serif" font-size="10.00">SCR_NTName</text>
</a>
</g>
</g>
<!-- Node1&#45;&gt;Node3 -->
<g id="edge2" class="edge">
<title>Node1&#45;&gt;Node3</title>
<path fill="none" stroke="#63b8ff" d="M77.25,-47.06C67.96,-37.95 56.78,-26.97 49.11,-19.44"/>
<polygon fill="#63b8ff" stroke="#63b8ff" points="74.49,-49.24 84.08,-53.75 79.4,-44.25 74.49,-49.24"/>
</g>
<!-- Node4 -->
<g id="node4" class="node">
<title>Node4</title>
<g id="a_node4"><a xlink:href="interfaceSCR__NTTextDebug.html" target="_top" xlink:title="Nametag element for distance debug text.">
<polygon fill="white" stroke="#666666" points="199.5,-19 98.5,-19 98.5,0 199.5,0 199.5,-19"/>
<text text-anchor="middle" x="149" y="-7" font-family="Helvetica,sans-Serif" font-size="10.00">SCR_NTTextDebug</text>
</a>
</g>
</g>
<!-- Node1&#45;&gt;Node4 -->
<g id="edge3" class="edge">
<title>Node1&#45;&gt;Node4</title>
<path fill="none" stroke="#63b8ff" d="M110.77,-47.34C120.28,-38.17 131.82,-27.05 139.72,-19.44"/>
<polygon fill="#63b8ff" stroke="#63b8ff" points="108.85,-44.29 104.08,-53.75 113.71,-49.33 108.85,-44.29"/>
</g>
<!-- Node2 -->
<g id="node2" class="node">
<title>Node2</title>
<g id="a_node2"><a xlink:href="interfaceSCR__NTElementBase.html" target="_top" xlink:title="Nametag zone element base class, not for setup.">
<polygon fill="white" stroke="#666666" points="150.5,-129 37.5,-129 37.5,-110 150.5,-110 150.5,-129"/>
<text text-anchor="middle" x="94" y="-117" font-family="Helvetica,sans-Serif" font-size="10.00">SCR_NTElementBase</text>
</a>
</g>
</g>
<!-- Node2&#45;&gt;Node1 -->
<g id="edge1" class="edge">
<title>Node2&#45;&gt;Node1</title>
<path fill="none" stroke="#63b8ff" d="M94,-98.93C94,-90.53 94,-81.13 94,-74.44"/>
<polygon fill="#63b8ff" stroke="#63b8ff" points="90.5,-98.75 94,-108.75 97.5,-98.75 90.5,-98.75"/>
</g>
</g>
</svg>
