<?xml version="1.0" encoding="UTF-8" standalone="no"?>
<!DOCTYPE svg PUBLIC "-//W3C//DTD SVG 1.1//EN"
 "http://www.w3.org/Graphics/SVG/1.1/DTD/svg11.dtd">
<!-- Generated by graphviz version 8.0.2 (20230410.1723)
 -->
<!-- Title: BaseAttachmentType Pages: 1 -->
<svg width="583pt" height="1433pt"
 viewBox="0.00 0.00 583.00 1433.00" xmlns="http://www.w3.org/2000/svg" xmlns:xlink="http://www.w3.org/1999/xlink">
<g id="graph0" class="graph" transform="scale(1 1) rotate(0) translate(4 1429)">
<title>BaseAttachmentType</title>
<!-- Node1 -->
<g id="node1" class="node">
<title>Node1</title>
<g id="a_node1"><a xlink:title=" ">
<polygon fill="#999999" stroke="#666666" points="232,-916 122,-916 122,-897 232,-897 232,-916"/>
<text text-anchor="middle" x="177" y="-904" font-family="Helvetica,sans-Serif" font-size="10.00">BaseAttachmentType</text>
</a>
</g>
</g>
<!-- Node3 -->
<g id="node3" class="node">
<title>Node3</title>
<g id="a_node3"><a xlink:href="interfaceAttachmentBayonet.html" target="_top" xlink:title=" ">
<polygon fill="white" stroke="#666666" points="378.5,-1369 275.5,-1369 275.5,-1350 378.5,-1350 378.5,-1369"/>
<text text-anchor="middle" x="327" y="-1357" font-family="Helvetica,sans-Serif" font-size="10.00">AttachmentBayonet</text>
</a>
</g>
</g>
<!-- Node1&#45;&gt;Node3 -->
<g id="edge2" class="edge">
<title>Node1&#45;&gt;Node3</title>
<path fill="none" stroke="#63b8ff" d="M180.26,-927.32C187.13,-985.17 210.87,-1151.88 268,-1277.5 280.99,-1306.07 304.39,-1335 317.14,-1349.66"/>
<polygon fill="#63b8ff" stroke="#63b8ff" points="183.63,-926.94 179.02,-917.4 176.68,-927.73 183.63,-926.94"/>
</g>
<!-- Node7 -->
<g id="node7" class="node">
<title>Node7</title>
<g id="a_node7"><a xlink:href="interfaceAttachmentHandGuard.html" target="_top" xlink:title=" ">
<polygon fill="white" stroke="#666666" points="385,-1268 269,-1268 269,-1249 385,-1249 385,-1268"/>
<text text-anchor="middle" x="327" y="-1256" font-family="Helvetica,sans-Serif" font-size="10.00">AttachmentHandGuard</text>
</a>
</g>
</g>
<!-- Node1&#45;&gt;Node7 -->
<g id="edge6" class="edge">
<title>Node1&#45;&gt;Node7</title>
<path fill="none" stroke="#63b8ff" d="M183.87,-926.59C196.79,-969.79 229.59,-1074.35 268,-1157.5 284.11,-1192.38 308.26,-1231.12 319.64,-1248.78"/>
<polygon fill="#63b8ff" stroke="#63b8ff" points="187.03,-925.92 180.83,-917.32 180.32,-927.9 187.03,-925.92"/>
</g>
<!-- Node9 -->
<g id="node9" class="node">
<title>Node9</title>
<g id="a_node9"><a xlink:href="interfaceAttachmentMuzzle.html" target="_top" xlink:title=" ">
<polygon fill="white" stroke="#666666" points="376,-1148 278,-1148 278,-1129 376,-1129 376,-1148"/>
<text text-anchor="middle" x="327" y="-1136" font-family="Helvetica,sans-Serif" font-size="10.00">AttachmentMuzzle</text>
</a>
</g>
</g>
<!-- Node1&#45;&gt;Node9 -->
<g id="edge8" class="edge">
<title>Node1&#45;&gt;Node9</title>
<path fill="none" stroke="#63b8ff" d="M190.18,-925.59C220.22,-972.68 297.07,-1093.16 319.66,-1128.57"/>
<polygon fill="#63b8ff" stroke="#63b8ff" points="192.69,-924.02 184.36,-917.47 186.79,-927.78 192.69,-924.02"/>
</g>
<!-- Node20 -->
<g id="node17" class="node">
<title>Node20</title>
<g id="a_node17"><a xlink:href="interfaceAttachmentOptics.html" target="_top" xlink:title=" ">
<polygon fill="white" stroke="#666666" points="374.5,-930 279.5,-930 279.5,-911 374.5,-911 374.5,-930"/>
<text text-anchor="middle" x="327" y="-918" font-family="Helvetica,sans-Serif" font-size="10.00">AttachmentOptics</text>
</a>
</g>
</g>
<!-- Node1&#45;&gt;Node20 -->
<g id="edge16" class="edge">
<title>Node1&#45;&gt;Node20</title>
<path fill="none" stroke="#63b8ff" d="M242.85,-912.63C255.03,-913.79 267.55,-914.97 279.05,-916.06"/>
<polygon fill="#63b8ff" stroke="#63b8ff" points="243.55,-909.09 233.27,-911.63 242.9,-916.06 243.55,-909.09"/>
</g>
<!-- Node33 -->
<g id="node23" class="node">
<title>Node33</title>
<g id="a_node23"><a xlink:href="interfaceAttachmentStock.html" target="_top" xlink:title=" ">
<polygon fill="white" stroke="#666666" points="373,-861 281,-861 281,-842 373,-842 373,-861"/>
<text text-anchor="middle" x="327" y="-849" font-family="Helvetica,sans-Serif" font-size="10.00">AttachmentStock</text>
</a>
</g>
</g>
<!-- Node1&#45;&gt;Node33 -->
<g id="edge22" class="edge">
<title>Node1&#45;&gt;Node33</title>
<path fill="none" stroke="#63b8ff" d="M214.77,-892.84C241.04,-883.07 275.78,-870.16 299.4,-861.39"/>
<polygon fill="#63b8ff" stroke="#63b8ff" points="213.96,-889.78 205.8,-896.54 216.39,-896.34 213.96,-889.78"/>
</g>
<!-- Node35 -->
<g id="node25" class="node">
<title>Node35</title>
<g id="a_node25"><a xlink:href="interfaceAttachmentUnderBarrel.html" target="_top" xlink:title=" ">
<polygon fill="white" stroke="#666666" points="386,-777 268,-777 268,-758 386,-758 386,-777"/>
<text text-anchor="middle" x="327" y="-765" font-family="Helvetica,sans-Serif" font-size="10.00">AttachmentUnderBarrel</text>
</a>
</g>
</g>
<!-- Node1&#45;&gt;Node35 -->
<g id="edge24" class="edge">
<title>Node1&#45;&gt;Node35</title>
<path fill="none" stroke="#63b8ff" d="M196.62,-889.01C228.04,-859.5 290.59,-800.76 315.45,-777.41"/>
<polygon fill="#63b8ff" stroke="#63b8ff" points="194.54,-886.11 189.64,-895.5 199.33,-891.21 194.54,-886.11"/>
</g>
<!-- Node42 -->
<g id="node29" class="node">
<title>Node42</title>
<g id="a_node29"><a xlink:href="interfaceBaseMagazineWell.html" target="_top" xlink:title=" ">
<polygon fill="#fff0f0" stroke="red" points="377.5,-389 276.5,-389 276.5,-370 377.5,-370 377.5,-389"/>
<text text-anchor="middle" x="327" y="-377" font-family="Helvetica,sans-Serif" font-size="10.00">BaseMagazineWell</text>
</a>
</g>
</g>
<!-- Node1&#45;&gt;Node42 -->
<g id="edge28" class="edge">
<title>Node1&#45;&gt;Node42</title>
<path fill="none" stroke="#63b8ff" d="M183.6,-886.56C208.12,-799.24 305.61,-452.11 323.25,-389.28"/>
<polygon fill="#63b8ff" stroke="#63b8ff" points="180.03,-885.33 180.7,-895.9 186.77,-887.22 180.03,-885.33"/>
</g>
<!-- Node66 -->
<g id="node49" class="node">
<title>Node66</title>
<g id="a_node49"><a xlink:href="interfaceLoadoutAreaType.html" target="_top" xlink:title=" ">
<polygon fill="#fff0f0" stroke="red" points="373,-352 281,-352 281,-333 373,-333 373,-352"/>
<text text-anchor="middle" x="327" y="-340" font-family="Helvetica,sans-Serif" font-size="10.00">LoadoutAreaType</text>
</a>
</g>
</g>
<!-- Node1&#45;&gt;Node66 -->
<g id="edge48" class="edge">
<title>Node1&#45;&gt;Node66</title>
<path fill="none" stroke="#63b8ff" d="M178.59,-885.66C181.57,-795.67 197.64,-441.27 268,-360.5 271.53,-356.45 275.96,-353.29 280.78,-350.84"/>
<polygon fill="#63b8ff" stroke="#63b8ff" points="175.07,-885.44 178.26,-895.55 182.06,-885.66 175.07,-885.44"/>
</g>
<!-- Node2 -->
<g id="node2" class="node">
<title>Node2</title>
<g id="a_node2"><a xlink:title=" ">
<polygon fill="white" stroke="#666666" points="86,-916 0,-916 0,-897 86,-897 86,-916"/>
<text text-anchor="middle" x="43" y="-904" font-family="Helvetica,sans-Serif" font-size="10.00">ScriptAndConfig</text>
</a>
</g>
</g>
<!-- Node2&#45;&gt;Node1 -->
<g id="edge1" class="edge">
<title>Node2&#45;&gt;Node1</title>
<path fill="none" stroke="#63b8ff" d="M97.48,-906.5C105.4,-906.5 113.57,-906.5 121.52,-906.5"/>
<polygon fill="#63b8ff" stroke="#63b8ff" points="97.49,-903 87.49,-906.5 97.49,-910 97.49,-903"/>
</g>
<!-- Node4 -->
<g id="node4" class="node">
<title>Node4</title>
<g id="a_node4"><a xlink:href="interfaceAttachmentBayonet6Kh4.html" target="_top" xlink:title=" ">
<polygon fill="white" stroke="#666666" points="561,-1425 436,-1425 436,-1406 561,-1406 561,-1425"/>
<text text-anchor="middle" x="498.5" y="-1413" font-family="Helvetica,sans-Serif" font-size="10.00">AttachmentBayonet6Kh4</text>
</a>
</g>
</g>
<!-- Node3&#45;&gt;Node4 -->
<g id="edge3" class="edge">
<title>Node3&#45;&gt;Node4</title>
<path fill="none" stroke="#63b8ff" d="M359.66,-1373.68C377.69,-1381.41 400.83,-1390.74 422,-1397.5 431.24,-1400.45 441.26,-1403.17 450.88,-1405.54"/>
<polygon fill="#63b8ff" stroke="#63b8ff" points="361.26,-1370.13 350.69,-1369.35 358.47,-1376.55 361.26,-1370.13"/>
</g>
<!-- Node5 -->
<g id="node5" class="node">
<title>Node5</title>
<g id="a_node5"><a xlink:href="interfaceAttachmentBayonetM9.html" target="_top" xlink:title=" ">
<polygon fill="white" stroke="#666666" points="556.5,-1388 440.5,-1388 440.5,-1369 556.5,-1369 556.5,-1388"/>
<text text-anchor="middle" x="498.5" y="-1376" font-family="Helvetica,sans-Serif" font-size="10.00">AttachmentBayonetM9</text>
</a>
</g>
</g>
<!-- Node3&#45;&gt;Node5 -->
<g id="edge4" class="edge">
<title>Node3&#45;&gt;Node5</title>
<path fill="none" stroke="#63b8ff" d="M389.51,-1366.39C406.04,-1368.25 423.85,-1370.24 440.15,-1372.07"/>
<polygon fill="#63b8ff" stroke="#63b8ff" points="390.18,-1362.84 379.86,-1365.2 389.4,-1369.79 390.18,-1362.84"/>
</g>
<!-- Node6 -->
<g id="node6" class="node">
<title>Node6</title>
<g id="a_node6"><a xlink:href="interfaceAttachmentBayonetVz58.html" target="_top" xlink:title=" ">
<polygon fill="white" stroke="#666666" points="561,-1351 436,-1351 436,-1332 561,-1332 561,-1351"/>
<text text-anchor="middle" x="498.5" y="-1339" font-family="Helvetica,sans-Serif" font-size="10.00">AttachmentBayonetVz58</text>
</a>
</g>
</g>
<!-- Node3&#45;&gt;Node6 -->
<g id="edge5" class="edge">
<title>Node3&#45;&gt;Node6</title>
<path fill="none" stroke="#63b8ff" d="M389.56,-1352.96C404.55,-1351.37 420.59,-1349.67 435.6,-1348.07"/>
<polygon fill="#63b8ff" stroke="#63b8ff" points="389.43,-1349.56 379.86,-1354.1 390.17,-1356.52 389.43,-1349.56"/>
</g>
<!-- Node8 -->
<g id="node8" class="node">
<title>Node8</title>
<g id="a_node8"><a xlink:href="interfaceAttachmentHandGuardM16.html" target="_top" xlink:title=" ">
<polygon fill="white" stroke="#666666" points="565.5,-1314 431.5,-1314 431.5,-1295 565.5,-1295 565.5,-1314"/>
<text text-anchor="middle" x="498.5" y="-1302" font-family="Helvetica,sans-Serif" font-size="10.00">AttachmentHandGuardM16</text>
</a>
</g>
</g>
<!-- Node7&#45;&gt;Node8 -->
<g id="edge7" class="edge">
<title>Node7&#45;&gt;Node8</title>
<path fill="none" stroke="#63b8ff" d="M369.89,-1271.52C386.11,-1276.42 404.86,-1281.91 422,-1286.5 432.28,-1289.25 443.41,-1292.02 453.88,-1294.54"/>
<polygon fill="#63b8ff" stroke="#63b8ff" points="371.22,-1267.96 360.64,-1268.4 369.19,-1274.66 371.22,-1267.96"/>
</g>
<!-- Node10 -->
<g id="node10" class="node">
<title>Node10</title>
<g id="a_node10"><a xlink:href="interfaceAttachmentMuzzle308.html" target="_top" xlink:title=" ">
<polygon fill="white" stroke="#666666" points="555.5,-1277 441.5,-1277 441.5,-1258 555.5,-1258 555.5,-1277"/>
<text text-anchor="middle" x="498.5" y="-1265" font-family="Helvetica,sans-Serif" font-size="10.00">AttachmentMuzzle308</text>
</a>
</g>
</g>
<!-- Node9&#45;&gt;Node10 -->
<g id="edge9" class="edge">
<title>Node9&#45;&gt;Node10</title>
<path fill="none" stroke="#63b8ff" d="M338.77,-1157.52C353.98,-1182.6 384.18,-1226.26 422,-1249.5 427.85,-1253.1 434.37,-1255.98 441.06,-1258.28"/>
<polygon fill="#63b8ff" stroke="#63b8ff" points="341.44,-1156.16 333.35,-1149.31 335.4,-1159.71 341.44,-1156.16"/>
</g>
<!-- Node11 -->
<g id="node11" class="node">
<title>Node11</title>
<g id="a_node11"><a xlink:href="interfaceAttachmentMuzzle545__39.html" target="_top" xlink:title=" ">
<polygon fill="white" stroke="#666666" points="563.5,-1240 433.5,-1240 433.5,-1221 563.5,-1221 563.5,-1240"/>
<text text-anchor="middle" x="498.5" y="-1228" font-family="Helvetica,sans-Serif" font-size="10.00">AttachmentMuzzle545_39</text>
</a>
</g>
</g>
<!-- Node9&#45;&gt;Node11 -->
<g id="edge10" class="edge">
<title>Node9&#45;&gt;Node11</title>
<path fill="none" stroke="#63b8ff" d="M345.17,-1155.86C362.9,-1172.79 392.11,-1198.05 422,-1212.5 428.67,-1215.73 435.96,-1218.4 443.3,-1220.6"/>
<polygon fill="#63b8ff" stroke="#63b8ff" points="348.04,-1153.79 338.44,-1149.3 343.14,-1158.79 348.04,-1153.79"/>
</g>
<!-- Node12 -->
<g id="node12" class="node">
<title>Node12</title>
<g id="a_node12"><a xlink:href="interfaceAttachmentMuzzle556__45.html" target="_top" xlink:title=" ">
<polygon fill="white" stroke="#666666" points="563.5,-1203 433.5,-1203 433.5,-1184 563.5,-1184 563.5,-1203"/>
<text text-anchor="middle" x="498.5" y="-1191" font-family="Helvetica,sans-Serif" font-size="10.00">AttachmentMuzzle556_45</text>
</a>
</g>
</g>
<!-- Node9&#45;&gt;Node12 -->
<g id="edge11" class="edge">
<title>Node9&#45;&gt;Node12</title>
<path fill="none" stroke="#63b8ff" d="M360.41,-1152.57C378.35,-1160.02 401.16,-1168.95 422,-1175.5 431.38,-1178.45 441.56,-1181.18 451.3,-1183.58"/>
<polygon fill="#63b8ff" stroke="#63b8ff" points="362.05,-1149.04 351.47,-1148.38 359.33,-1155.49 362.05,-1149.04"/>
</g>
<!-- Node13 -->
<g id="node13" class="node">
<title>Node13</title>
<g id="a_node13"><a xlink:href="interfaceAttachmentMuzzle762__39.html" target="_top" xlink:title=" ">
<polygon fill="white" stroke="#666666" points="563.5,-1166 433.5,-1166 433.5,-1147 563.5,-1147 563.5,-1166"/>
<text text-anchor="middle" x="498.5" y="-1154" font-family="Helvetica,sans-Serif" font-size="10.00">AttachmentMuzzle762_39</text>
</a>
</g>
</g>
<!-- Node9&#45;&gt;Node13 -->
<g id="edge12" class="edge">
<title>Node9&#45;&gt;Node13</title>
<path fill="none" stroke="#63b8ff" d="M386.77,-1144.74C401.73,-1146.33 417.89,-1148.05 433.11,-1149.66"/>
<polygon fill="#63b8ff" stroke="#63b8ff" points="387.43,-1141.19 377.12,-1143.61 386.69,-1148.15 387.43,-1141.19"/>
</g>
<!-- Node14 -->
<g id="node14" class="node">
<title>Node14</title>
<g id="a_node14"><a xlink:href="interfaceAttachmentMuzzle762__51.html" target="_top" xlink:title=" ">
<polygon fill="white" stroke="#666666" points="563.5,-1129 433.5,-1129 433.5,-1110 563.5,-1110 563.5,-1129"/>
<text text-anchor="middle" x="498.5" y="-1117" font-family="Helvetica,sans-Serif" font-size="10.00">AttachmentMuzzle762_51</text>
</a>
</g>
</g>
<!-- Node9&#45;&gt;Node14 -->
<g id="edge13" class="edge">
<title>Node9&#45;&gt;Node14</title>
<path fill="none" stroke="#63b8ff" d="M386.77,-1131.91C401.73,-1130.24 417.89,-1128.42 433.11,-1126.72"/>
<polygon fill="#63b8ff" stroke="#63b8ff" points="386.67,-1128.51 377.12,-1133.11 387.45,-1135.47 386.67,-1128.51"/>
</g>
<!-- Node15 -->
<g id="node15" class="node">
<title>Node15</title>
<g id="a_node15"><a xlink:href="interfaceAttachmentMuzzle762__54.html" target="_top" xlink:title=" ">
<polygon fill="white" stroke="#666666" points="563.5,-1092 433.5,-1092 433.5,-1073 563.5,-1073 563.5,-1092"/>
<text text-anchor="middle" x="498.5" y="-1080" font-family="Helvetica,sans-Serif" font-size="10.00">AttachmentMuzzle762_54</text>
</a>
</g>
</g>
<!-- Node9&#45;&gt;Node15 -->
<g id="edge14" class="edge">
<title>Node9&#45;&gt;Node15</title>
<path fill="none" stroke="#63b8ff" d="M360.81,-1124.39C378.7,-1117 401.34,-1108.13 422,-1101.5 432.3,-1098.19 443.53,-1095.1 454.11,-1092.4"/>
<polygon fill="#63b8ff" stroke="#63b8ff" points="359.75,-1121.45 351.88,-1128.54 362.45,-1127.91 359.75,-1121.45"/>
</g>
<!-- Node16 -->
<g id="node16" class="node">
<title>Node16</title>
<g id="a_node16"><a xlink:href="interfaceAttachmentMuzzlePistol.html" target="_top" xlink:title=" ">
<polygon fill="#fff0f0" stroke="red" points="560,-1055 437,-1055 437,-1036 560,-1036 560,-1055"/>
<text text-anchor="middle" x="498.5" y="-1043" font-family="Helvetica,sans-Serif" font-size="10.00">AttachmentMuzzlePistol</text>
</a>
</g>
</g>
<!-- Node9&#45;&gt;Node16 -->
<g id="edge15" class="edge">
<title>Node9&#45;&gt;Node16</title>
<path fill="none" stroke="#63b8ff" d="M345.21,-1121.22C362.97,-1104.35 392.2,-1079.14 422,-1064.5 429.4,-1060.86 437.56,-1057.88 445.7,-1055.45"/>
<polygon fill="#63b8ff" stroke="#63b8ff" points="343.2,-1118.27 338.46,-1127.75 348.07,-1123.29 343.2,-1118.27"/>
</g>
<!-- Node21 -->
<g id="node18" class="node">
<title>Node21</title>
<g id="a_node18"><a xlink:href="interfaceAttachmentOpticsCarryHandle.html" target="_top" xlink:title=" ">
<polygon fill="white" stroke="#666666" points="573,-1018 424,-1018 424,-999 573,-999 573,-1018"/>
<text text-anchor="middle" x="498.5" y="-1006" font-family="Helvetica,sans-Serif" font-size="10.00">AttachmentOpticsCarryHandle</text>
</a>
</g>
</g>
<!-- Node20&#45;&gt;Node21 -->
<g id="edge17" class="edge">
<title>Node20&#45;&gt;Node21</title>
<path fill="none" stroke="#63b8ff" d="M346.22,-937.66C364.16,-953.63 393.01,-976.96 422,-990.5 428.84,-993.69 436.3,-996.35 443.78,-998.56"/>
<polygon fill="#63b8ff" stroke="#63b8ff" points="349.09,-935.63 339.34,-931.48 344.38,-940.81 349.09,-935.63"/>
</g>
<!-- Node22 -->
<g id="node19" class="node">
<title>Node22</title>
<g id="a_node19"><a xlink:href="interfaceAttachmentOpticsDovetail.html" target="_top" xlink:title=" ">
<polygon fill="#fff0f0" stroke="red" points="563,-981 434,-981 434,-962 563,-962 563,-981"/>
<text text-anchor="middle" x="498.5" y="-969" font-family="Helvetica,sans-Serif" font-size="10.00">AttachmentOpticsDovetail</text>
</a>
</g>
</g>
<!-- Node20&#45;&gt;Node22 -->
<g id="edge18" class="edge">
<title>Node20&#45;&gt;Node22</title>
<path fill="none" stroke="#63b8ff" d="M364.35,-934.25C381.67,-940.54 402.76,-947.85 422,-953.5 431.7,-956.35 442.19,-959.07 452.18,-961.5"/>
<polygon fill="#63b8ff" stroke="#63b8ff" points="365.69,-930.65 355.1,-930.48 363.28,-937.22 365.69,-930.65"/>
</g>
<!-- Node27 -->
<g id="node20" class="node">
<title>Node27</title>
<g id="a_node20"><a xlink:href="interfaceAttachmentOpticsDovetailUK59.html" target="_top" xlink:title=" ">
<polygon fill="white" stroke="#666666" points="575,-944 422,-944 422,-925 575,-925 575,-944"/>
<text text-anchor="middle" x="498.5" y="-932" font-family="Helvetica,sans-Serif" font-size="10.00">AttachmentOpticsDovetailUK59</text>
</a>
</g>
</g>
<!-- Node20&#45;&gt;Node27 -->
<g id="edge19" class="edge">
<title>Node20&#45;&gt;Node27</title>
<path fill="none" stroke="#63b8ff" d="M385.6,-925.26C397.17,-926.21 409.5,-927.23 421.59,-928.23"/>
<polygon fill="#63b8ff" stroke="#63b8ff" points="386.02,-921.7 375.77,-924.36 385.44,-928.67 386.02,-921.7"/>
</g>
<!-- Node28 -->
<g id="node21" class="node">
<title>Node28</title>
<g id="a_node21"><a xlink:href="interfaceAttachmentOpticsM21.html" target="_top" xlink:title=" ">
<polygon fill="white" stroke="#666666" points="555.5,-907 441.5,-907 441.5,-888 555.5,-888 555.5,-907"/>
<text text-anchor="middle" x="498.5" y="-895" font-family="Helvetica,sans-Serif" font-size="10.00">AttachmentOpticsM21</text>
</a>
</g>
</g>
<!-- Node20&#45;&gt;Node28 -->
<g id="edge20" class="edge">
<title>Node20&#45;&gt;Node28</title>
<path fill="none" stroke="#63b8ff" d="M385.42,-912.71C403.44,-910.26 423.31,-907.57 441.25,-905.13"/>
<polygon fill="#63b8ff" stroke="#63b8ff" points="385.2,-909.34 375.77,-914.15 386.15,-916.28 385.2,-909.34"/>
</g>
<!-- Node29 -->
<g id="node22" class="node">
<title>Node29</title>
<g id="a_node22"><a xlink:href="interfaceAttachmentOpticsRIS1913.html" target="_top" xlink:title=" ">
<polygon fill="#fff0f0" stroke="red" points="564.5,-870 432.5,-870 432.5,-851 564.5,-851 564.5,-870"/>
<text text-anchor="middle" x="498.5" y="-858" font-family="Helvetica,sans-Serif" font-size="10.00">AttachmentOpticsRIS1913</text>
</a>
</g>
</g>
<!-- Node20&#45;&gt;Node29 -->
<g id="edge21" class="edge">
<title>Node20&#45;&gt;Node29</title>
<path fill="none" stroke="#63b8ff" d="M357.13,-905.79C375.42,-896.99 399.68,-886.07 422,-878.5 430.8,-875.51 440.35,-872.83 449.59,-870.5"/>
<polygon fill="#63b8ff" stroke="#63b8ff" points="355.82,-903.02 348.38,-910.56 358.9,-909.31 355.82,-903.02"/>
</g>
<!-- Node34 -->
<g id="node24" class="node">
<title>Node34</title>
<g id="a_node24"><a xlink:href="interfaceAttachmentStockVz58.html" target="_top" xlink:title=" ">
<polygon fill="white" stroke="#666666" points="556,-833 441,-833 441,-814 556,-814 556,-833"/>
<text text-anchor="middle" x="498.5" y="-821" font-family="Helvetica,sans-Serif" font-size="10.00">AttachmentStockVz58</text>
</a>
</g>
</g>
<!-- Node33&#45;&gt;Node34 -->
<g id="edge23" class="edge">
<title>Node33&#45;&gt;Node34</title>
<path fill="none" stroke="#63b8ff" d="M384.16,-842.22C402.34,-839.22 422.5,-835.89 440.73,-832.88"/>
<polygon fill="#63b8ff" stroke="#63b8ff" points="383.72,-838.91 374.42,-844 384.86,-845.82 383.72,-838.91"/>
</g>
<!-- Node36 -->
<g id="node26" class="node">
<title>Node36</title>
<g id="a_node26"><a xlink:href="interfaceAttachmentUnderBarrelGP25.html" target="_top" xlink:title=" ">
<polygon fill="white" stroke="#666666" points="570,-796 427,-796 427,-777 570,-777 570,-796"/>
<text text-anchor="middle" x="498.5" y="-784" font-family="Helvetica,sans-Serif" font-size="10.00">AttachmentUnderBarrelGP25</text>
</a>
</g>
</g>
<!-- Node35&#45;&gt;Node36 -->
<g id="edge25" class="edge">
<title>Node35&#45;&gt;Node36</title>
<path fill="none" stroke="#63b8ff" d="M397.19,-775.26C406.95,-776.35 416.99,-777.47 426.77,-778.57"/>
<polygon fill="#63b8ff" stroke="#63b8ff" points="397.66,-771.67 387.33,-774.04 396.88,-778.63 397.66,-771.67"/>
</g>
<!-- Node37 -->
<g id="node27" class="node">
<title>Node37</title>
<g id="a_node27"><a xlink:href="interfaceAttachmentUnderBarrelM203.html" target="_top" xlink:title=" ">
<polygon fill="white" stroke="#666666" points="569.5,-759 427.5,-759 427.5,-740 569.5,-740 569.5,-759"/>
<text text-anchor="middle" x="498.5" y="-747" font-family="Helvetica,sans-Serif" font-size="10.00">AttachmentUnderBarrelM203</text>
</a>
</g>
</g>
<!-- Node35&#45;&gt;Node37 -->
<g id="edge26" class="edge">
<title>Node35&#45;&gt;Node37</title>
<path fill="none" stroke="#63b8ff" d="M396.96,-760.18C406.88,-759.12 417.11,-758.04 427.06,-756.98"/>
<polygon fill="#63b8ff" stroke="#63b8ff" points="396.91,-756.77 387.33,-761.31 397.65,-763.73 396.91,-756.77"/>
</g>
<!-- Node38 -->
<g id="node28" class="node">
<title>Node38</title>
<g id="a_node28"><a xlink:href="interfaceAttachmentUnderbarrelRIS1913.html" target="_top" xlink:title=" ">
<polygon fill="#fff0f0" stroke="red" points="575,-722 422,-722 422,-703 575,-703 575,-722"/>
<text text-anchor="middle" x="498.5" y="-710" font-family="Helvetica,sans-Serif" font-size="10.00">AttachmentUnderbarrelRIS1913</text>
</a>
</g>
</g>
<!-- Node35&#45;&gt;Node38 -->
<g id="edge27" class="edge">
<title>Node35&#45;&gt;Node38</title>
<path fill="none" stroke="#63b8ff" d="M360.41,-753.43C378.35,-745.98 401.16,-737.05 422,-730.5 431.38,-727.55 441.56,-724.82 451.3,-722.42"/>
<polygon fill="#63b8ff" stroke="#63b8ff" points="359.33,-750.51 351.47,-757.62 362.05,-756.96 359.33,-750.51"/>
</g>
<!-- Node43 -->
<g id="node30" class="node">
<title>Node43</title>
<g id="a_node30"><a xlink:href="interfaceMagazineWellAK545.html" target="_top" xlink:title=" ">
<polygon fill="#fff0f0" stroke="red" points="552,-685 445,-685 445,-666 552,-666 552,-685"/>
<text text-anchor="middle" x="498.5" y="-673" font-family="Helvetica,sans-Serif" font-size="10.00">MagazineWellAK545</text>
</a>
</g>
</g>
<!-- Node42&#45;&gt;Node43 -->
<g id="edge29" class="edge">
<title>Node42&#45;&gt;Node43</title>
<path fill="none" stroke="#63b8ff" d="M328.63,-400.32C331.35,-451.85 345.79,-586.2 422,-656.5 428.36,-662.37 436.26,-666.49 444.53,-669.37"/>
<polygon fill="#63b8ff" stroke="#63b8ff" points="332.08,-400.19 328.16,-390.35 325.09,-400.49 332.08,-400.19"/>
</g>
<!-- Node45 -->
<g id="node31" class="node">
<title>Node45</title>
<g id="a_node31"><a xlink:href="interfaceMagazineWellKPVT.html" target="_top" xlink:title=" ">
<polygon fill="white" stroke="#666666" points="550.5,-648 446.5,-648 446.5,-629 550.5,-629 550.5,-648"/>
<text text-anchor="middle" x="498.5" y="-636" font-family="Helvetica,sans-Serif" font-size="10.00">MagazineWellKPVT</text>
</a>
</g>
</g>
<!-- Node42&#45;&gt;Node45 -->
<g id="edge30" class="edge">
<title>Node42&#45;&gt;Node45</title>
<path fill="none" stroke="#63b8ff" d="M329.84,-400.04C335.13,-446.49 354.64,-560.18 422,-619.5 428.9,-625.57 437.46,-629.76 446.31,-632.64"/>
<polygon fill="#63b8ff" stroke="#63b8ff" points="333.24,-399.87 328.74,-390.28 326.27,-400.59 333.24,-399.87"/>
</g>
<!-- Node46 -->
<g id="node32" class="node">
<title>Node46</title>
<g id="a_node32"><a xlink:href="interfaceMagazineWellM14.html" target="_top" xlink:title=" ">
<polygon fill="white" stroke="#666666" points="547,-611 450,-611 450,-592 547,-592 547,-611"/>
<text text-anchor="middle" x="498.5" y="-599" font-family="Helvetica,sans-Serif" font-size="10.00">MagazineWellM14</text>
</a>
</g>
</g>
<!-- Node42&#45;&gt;Node46 -->
<g id="edge31" class="edge">
<title>Node42&#45;&gt;Node46</title>
<path fill="none" stroke="#63b8ff" d="M331.45,-399.92C339.5,-441.04 363.47,-534.02 422,-582.5 429.91,-589.05 439.78,-593.39 449.74,-596.25"/>
<polygon fill="#63b8ff" stroke="#63b8ff" points="334.76,-399.56 329.51,-390.35 327.87,-400.82 334.76,-399.56"/>
</g>
<!-- Node47 -->
<g id="node33" class="node">
<title>Node47</title>
<g id="a_node33"><a xlink:href="interfaceMagazineWellM203.html" target="_top" xlink:title=" ">
<polygon fill="white" stroke="#666666" points="549.5,-574 447.5,-574 447.5,-555 549.5,-555 549.5,-574"/>
<text text-anchor="middle" x="498.5" y="-562" font-family="Helvetica,sans-Serif" font-size="10.00">MagazineWellM203</text>
</a>
</g>
</g>
<!-- Node42&#45;&gt;Node47 -->
<g id="edge32" class="edge">
<title>Node42&#45;&gt;Node47</title>
<path fill="none" stroke="#63b8ff" d="M333.62,-399.55C344.54,-434.73 372.06,-507.45 422,-545.5 429.42,-551.15 438.32,-555.14 447.37,-557.94"/>
<polygon fill="#63b8ff" stroke="#63b8ff" points="336.73,-398.75 330.54,-390.16 330.02,-400.74 336.73,-398.75"/>
</g>
<!-- Node48 -->
<g id="node34" class="node">
<title>Node48</title>
<g id="a_node34"><a xlink:href="interfaceMagazineWellM249.html" target="_top" xlink:title=" ">
<polygon fill="white" stroke="#666666" points="549.5,-537 447.5,-537 447.5,-518 549.5,-518 549.5,-537"/>
<text text-anchor="middle" x="498.5" y="-525" font-family="Helvetica,sans-Serif" font-size="10.00">MagazineWellM249</text>
</a>
</g>
</g>
<!-- Node42&#45;&gt;Node48 -->
<g id="edge33" class="edge">
<title>Node42&#45;&gt;Node48</title>
<path fill="none" stroke="#63b8ff" d="M336.8,-399.05C350.69,-427.63 380.45,-480.45 422,-508.5 429.51,-513.57 438.25,-517.28 447.08,-520.01"/>
<polygon fill="#63b8ff" stroke="#63b8ff" points="339.68,-397.95 332.26,-390.39 333.34,-400.93 339.68,-397.95"/>
</g>
<!-- Node49 -->
<g id="node35" class="node">
<title>Node49</title>
<g id="a_node35"><a xlink:href="interfaceMagazineWellM2HB.html" target="_top" xlink:title=" ">
<polygon fill="white" stroke="#666666" points="551,-500 446,-500 446,-481 551,-481 551,-500"/>
<text text-anchor="middle" x="498.5" y="-488" font-family="Helvetica,sans-Serif" font-size="10.00">MagazineWellM2HB</text>
</a>
</g>
</g>
<!-- Node42&#45;&gt;Node49 -->
<g id="edge34" class="edge">
<title>Node42&#45;&gt;Node49</title>
<path fill="none" stroke="#63b8ff" d="M341.75,-397.91C358.42,-418.9 388.48,-452.73 422,-471.5 429.31,-475.6 437.51,-478.82 445.74,-481.36"/>
<polygon fill="#63b8ff" stroke="#63b8ff" points="343.96,-396.03 335.07,-390.27 338.42,-400.32 343.96,-396.03"/>
</g>
<!-- Node50 -->
<g id="node36" class="node">
<title>Node50</title>
<g id="a_node36"><a xlink:href="interfaceMagazineWellM60.html" target="_top" xlink:title=" ">
<polygon fill="white" stroke="#666666" points="547,-463 450,-463 450,-444 547,-444 547,-463"/>
<text text-anchor="middle" x="498.5" y="-451" font-family="Helvetica,sans-Serif" font-size="10.00">MagazineWellM60</text>
</a>
</g>
</g>
<!-- Node42&#45;&gt;Node50 -->
<g id="edge35" class="edge">
<title>Node42&#45;&gt;Node50</title>
<path fill="none" stroke="#63b8ff" d="M351.07,-395.5C369.54,-407.68 396.48,-424.07 422,-434.5 430.76,-438.08 440.37,-441.12 449.72,-443.65"/>
<polygon fill="#63b8ff" stroke="#63b8ff" points="353.25,-392.08 343,-389.4 349.35,-397.89 353.25,-392.08"/>
</g>
<!-- Node51 -->
<g id="node37" class="node">
<title>Node51</title>
<g id="a_node37"><a xlink:href="interfaceMagazineWellM60D.html" target="_top" xlink:title=" ">
<polygon fill="white" stroke="#666666" points="550.5,-426 446.5,-426 446.5,-407 550.5,-407 550.5,-426"/>
<text text-anchor="middle" x="498.5" y="-414" font-family="Helvetica,sans-Serif" font-size="10.00">MagazineWellM60D</text>
</a>
</g>
</g>
<!-- Node42&#45;&gt;Node51 -->
<g id="edge36" class="edge">
<title>Node42&#45;&gt;Node51</title>
<path fill="none" stroke="#63b8ff" d="M383.98,-391.72C406.03,-396.53 431.04,-401.99 451.95,-406.56"/>
<polygon fill="#63b8ff" stroke="#63b8ff" points="384.94,-388.13 374.42,-389.42 383.45,-394.97 384.94,-388.13"/>
</g>
<!-- Node52 -->
<g id="node38" class="node">
<title>Node52</title>
<g id="a_node38"><a xlink:href="interfaceMagazineWellM9Beretta.html" target="_top" xlink:title=" ">
<polygon fill="white" stroke="#666666" points="560,-389 437,-389 437,-370 560,-370 560,-389"/>
<text text-anchor="middle" x="498.5" y="-377" font-family="Helvetica,sans-Serif" font-size="10.00">MagazineWellM9Beretta</text>
</a>
</g>
</g>
<!-- Node42&#45;&gt;Node52 -->
<g id="edge37" class="edge">
<title>Node42&#45;&gt;Node52</title>
<path fill="none" stroke="#63b8ff" d="M388.51,-379.5C404.11,-379.5 420.9,-379.5 436.52,-379.5"/>
<polygon fill="#63b8ff" stroke="#63b8ff" points="388.94,-376 378.94,-379.5 388.94,-383 388.94,-376"/>
</g>
<!-- Node53 -->
<g id="node39" class="node">
<title>Node53</title>
<g id="a_node39"><a xlink:href="interfaceMagazineWellMakarovPM.html" target="_top" xlink:title=" ">
<polygon fill="white" stroke="#666666" points="563,-352 434,-352 434,-333 563,-333 563,-352"/>
<text text-anchor="middle" x="498.5" y="-340" font-family="Helvetica,sans-Serif" font-size="10.00">MagazineWellMakarovPM</text>
</a>
</g>
</g>
<!-- Node42&#45;&gt;Node53 -->
<g id="edge38" class="edge">
<title>Node42&#45;&gt;Node53</title>
<path fill="none" stroke="#63b8ff" d="M383.98,-367.28C406.03,-362.47 431.04,-357.01 451.95,-352.44"/>
<polygon fill="#63b8ff" stroke="#63b8ff" points="383.45,-364.03 374.42,-369.58 384.94,-370.87 383.45,-364.03"/>
</g>
<!-- Node54 -->
<g id="node40" class="node">
<title>Node54</title>
<g id="a_node40"><a xlink:href="interfaceMagazineWellMortar.html" target="_top" xlink:title=" ">
<polygon fill="white" stroke="#666666" points="551.5,-315 445.5,-315 445.5,-296 551.5,-296 551.5,-315"/>
<text text-anchor="middle" x="498.5" y="-303" font-family="Helvetica,sans-Serif" font-size="10.00">MagazineWellMortar</text>
</a>
</g>
</g>
<!-- Node42&#45;&gt;Node54 -->
<g id="edge39" class="edge">
<title>Node42&#45;&gt;Node54</title>
<path fill="none" stroke="#63b8ff" d="M377.2,-365.3C380.25,-363.84 383.21,-362.24 386,-360.5 405.47,-348.35 402.05,-334.83 422,-323.5 429.15,-319.44 437.18,-316.29 445.26,-313.85"/>
<polygon fill="#63b8ff" stroke="#63b8ff" points="376.07,-362.4 368.23,-369.53 378.8,-368.84 376.07,-362.4"/>
</g>
<!-- Node55 -->
<g id="node41" class="node">
<title>Node55</title>
<g id="a_node41"><a xlink:href="interfaceMagazineWellNSV.html" target="_top" xlink:title=" ">
<polygon fill="white" stroke="#666666" points="547.5,-278 449.5,-278 449.5,-259 547.5,-259 547.5,-278"/>
<text text-anchor="middle" x="498.5" y="-266" font-family="Helvetica,sans-Serif" font-size="10.00">MagazineWellNSV</text>
</a>
</g>
</g>
<!-- Node42&#45;&gt;Node55 -->
<g id="edge40" class="edge">
<title>Node42&#45;&gt;Node55</title>
<path fill="none" stroke="#63b8ff" d="M380.96,-364.36C382.72,-363.17 384.41,-361.88 386,-360.5 413.56,-336.46 393.47,-309.38 422,-286.5 429.78,-280.26 439.37,-276.12 449.07,-273.4"/>
<polygon fill="#63b8ff" stroke="#63b8ff" points="379.63,-361.65 372.59,-369.57 383.03,-367.77 379.63,-361.65"/>
</g>
<!-- Node56 -->
<g id="node42" class="node">
<title>Node56</title>
<g id="a_node42"><a xlink:href="interfaceMagazineWellPKM.html" target="_top" xlink:title=" ">
<polygon fill="white" stroke="#666666" points="548.5,-241 448.5,-241 448.5,-222 548.5,-222 548.5,-241"/>
<text text-anchor="middle" x="498.5" y="-229" font-family="Helvetica,sans-Serif" font-size="10.00">MagazineWellPKM</text>
</a>
</g>
</g>
<!-- Node42&#45;&gt;Node56 -->
<g id="edge41" class="edge">
<title>Node42&#45;&gt;Node56</title>
<path fill="none" stroke="#63b8ff" d="M382.36,-363.74C383.64,-362.73 384.85,-361.65 386,-360.5 422.62,-323.77 383.9,-284.68 422,-249.5 429.33,-242.74 438.72,-238.38 448.39,-235.6"/>
<polygon fill="#63b8ff" stroke="#63b8ff" points="380.81,-361.22 374.25,-369.53 384.57,-367.13 380.81,-361.22"/>
</g>
<!-- Node57 -->
<g id="node43" class="node">
<title>Node57</title>
<g id="a_node43"><a xlink:href="interfaceMagazineWellPKMT.html" target="_top" xlink:title=" ">
<polygon fill="white" stroke="#666666" points="551,-204 446,-204 446,-185 551,-185 551,-204"/>
<text text-anchor="middle" x="498.5" y="-192" font-family="Helvetica,sans-Serif" font-size="10.00">MagazineWellPKMT</text>
</a>
</g>
</g>
<!-- Node42&#45;&gt;Node57 -->
<g id="edge42" class="edge">
<title>Node42&#45;&gt;Node57</title>
<path fill="none" stroke="#63b8ff" d="M382.56,-363.79C383.77,-362.76 384.92,-361.67 386,-360.5 431.97,-310.8 374.02,-260.26 422,-212.5 428.49,-206.04 436.87,-201.74 445.66,-198.91"/>
<polygon fill="#63b8ff" stroke="#63b8ff" points="381.17,-361.18 374.81,-369.65 385.06,-366.99 381.17,-361.18"/>
</g>
<!-- Node58 -->
<g id="node44" class="node">
<title>Node58</title>
<g id="a_node44"><a xlink:href="interfaceMagazineWellRPG7.html" target="_top" xlink:title=" ">
<polygon fill="white" stroke="#666666" points="550.5,-167 446.5,-167 446.5,-148 550.5,-148 550.5,-167"/>
<text text-anchor="middle" x="498.5" y="-155" font-family="Helvetica,sans-Serif" font-size="10.00">MagazineWellRPG7</text>
</a>
</g>
</g>
<!-- Node42&#45;&gt;Node58 -->
<g id="edge43" class="edge">
<title>Node42&#45;&gt;Node58</title>
<path fill="none" stroke="#63b8ff" d="M383.05,-363.48C384.09,-362.54 385.07,-361.55 386,-360.5 441.43,-297.7 364.02,-235.96 422,-175.5 428.53,-168.69 437.13,-164.26 446.19,-161.42"/>
<polygon fill="#63b8ff" stroke="#63b8ff" points="381.43,-361.04 375.26,-369.65 385.46,-366.77 381.43,-361.04"/>
</g>
<!-- Node59 -->
<g id="node45" class="node">
<title>Node59</title>
<g id="a_node45"><a xlink:href="interfaceMagazineWellRU__GP.html" target="_top" xlink:title=" ">
<polygon fill="white" stroke="#666666" points="554,-130 443,-130 443,-111 554,-111 554,-130"/>
<text text-anchor="middle" x="498.5" y="-118" font-family="Helvetica,sans-Serif" font-size="10.00">MagazineWellRU_GP</text>
</a>
</g>
</g>
<!-- Node42&#45;&gt;Node59 -->
<g id="edge44" class="edge">
<title>Node42&#45;&gt;Node59</title>
<path fill="none" stroke="#63b8ff" d="M383.49,-363.15C384.37,-362.31 385.21,-361.43 386,-360.5 450.96,-284.53 353.96,-211.72 422,-138.5 427.6,-132.48 434.81,-128.3 442.56,-125.44"/>
<polygon fill="#63b8ff" stroke="#63b8ff" points="381.67,-360.87 375.66,-369.6 385.8,-366.53 381.67,-360.87"/>
</g>
<!-- Node60 -->
<g id="node46" class="node">
<title>Node60</title>
<g id="a_node46"><a xlink:href="interfaceMagazineWellSVD.html" target="_top" xlink:title=" ">
<polygon fill="white" stroke="#666666" points="547.5,-93 449.5,-93 449.5,-74 547.5,-74 547.5,-93"/>
<text text-anchor="middle" x="498.5" y="-81" font-family="Helvetica,sans-Serif" font-size="10.00">MagazineWellSVD</text>
</a>
</g>
</g>
<!-- Node42&#45;&gt;Node60 -->
<g id="edge45" class="edge">
<title>Node42&#45;&gt;Node60</title>
<path fill="none" stroke="#63b8ff" d="M383.58,-363.11C384.43,-362.29 385.24,-361.41 386,-360.5 460.53,-271.33 343.86,-187.52 422,-101.5 429.07,-93.72 438.84,-89.01 449.01,-86.22"/>
<polygon fill="#63b8ff" stroke="#63b8ff" points="381.94,-360.72 376.02,-369.51 386.13,-366.33 381.94,-360.72"/>
</g>
<!-- Node61 -->
<g id="node47" class="node">
<title>Node61</title>
<g id="a_node47"><a xlink:href="interfaceMagazineWellStanag556.html" target="_top" xlink:title=" ">
<polygon fill="#fff0f0" stroke="red" points="561,-56 436,-56 436,-37 561,-37 561,-56"/>
<text text-anchor="middle" x="498.5" y="-44" font-family="Helvetica,sans-Serif" font-size="10.00">MagazineWellStanag556</text>
</a>
</g>
</g>
<!-- Node42&#45;&gt;Node61 -->
<g id="edge46" class="edge">
<title>Node42&#45;&gt;Node61</title>
<path fill="none" stroke="#63b8ff" d="M383.6,-363.13C384.44,-362.3 385.24,-361.42 386,-360.5 470.11,-258.09 333.73,-163.35 422,-64.5 425.86,-60.18 430.55,-56.8 435.69,-54.17"/>
<polygon fill="#63b8ff" stroke="#63b8ff" points="381.96,-360.74 376.09,-369.56 386.17,-366.33 381.96,-360.74"/>
</g>
<!-- Node63 -->
<g id="node48" class="node">
<title>Node63</title>
<g id="a_node48"><a xlink:href="interfaceMagazineWellUK59.html" target="_top" xlink:title=" ">
<polygon fill="white" stroke="#666666" points="549.5,-19 447.5,-19 447.5,0 549.5,0 549.5,-19"/>
<text text-anchor="middle" x="498.5" y="-7" font-family="Helvetica,sans-Serif" font-size="10.00">MagazineWellUK59</text>
</a>
</g>
</g>
<!-- Node42&#45;&gt;Node63 -->
<g id="edge47" class="edge">
<title>Node42&#45;&gt;Node63</title>
<path fill="none" stroke="#63b8ff" d="M383.62,-363.15C384.45,-362.31 385.25,-361.43 386,-360.5 479.71,-244.84 323.59,-139.2 422,-27.5 428.59,-20.02 437.68,-15.36 447.27,-12.51"/>
<polygon fill="#63b8ff" stroke="#63b8ff" points="381.97,-360.76 376.14,-369.61 386.21,-366.33 381.97,-360.76"/>
</g>
</g>
</svg>
