<?xml version="1.0" encoding="UTF-8" standalone="no"?>
<!DOCTYPE svg PUBLIC "-//W3C//DTD SVG 1.1//EN"
 "http://www.w3.org/Graphics/SVG/1.1/DTD/svg11.dtd">
<!-- Generated by graphviz version 8.0.2 (20230410.1723)
 -->
<!-- Title: SCR_ScenarioFrameworkSlotTaskClass Pages: 1 -->
<svg width="1040pt" height="302pt"
 viewBox="0.00 0.00 1040.00 302.00" xmlns="http://www.w3.org/2000/svg" xmlns:xlink="http://www.w3.org/1999/xlink">
<g id="graph0" class="graph" transform="scale(1 1) rotate(0) translate(4 298)">
<title>SCR_ScenarioFrameworkSlotTaskClass</title>
<!-- Node1 -->
<g id="node1" class="node">
<title>Node1</title>
<g id="a_node1"><a xlink:title=" ">
<polygon fill="#999999" stroke="#666666" points="668,-174 522,-174 522,-144 668,-144 668,-174"/>
<text text-anchor="start" x="530" y="-162" font-family="Helvetica,sans-Serif" font-size="10.00">SCR_ScenarioFrameworkSlot</text>
<text text-anchor="middle" x="595" y="-151" font-family="Helvetica,sans-Serif" font-size="10.00">TaskClass</text>
</a>
</g>
</g>
<!-- Node5 -->
<g id="node5" class="node">
<title>Node5</title>
<g id="a_node5"><a xlink:href="interfaceSCR__ScenarioFrameworkSlotClearAreaClass.html" target="_top" xlink:title=" ">
<polygon fill="white" stroke="#666666" points="850,-294 704,-294 704,-264 850,-264 850,-294"/>
<text text-anchor="start" x="712" y="-282" font-family="Helvetica,sans-Serif" font-size="10.00">SCR_ScenarioFrameworkSlot</text>
<text text-anchor="middle" x="777" y="-271" font-family="Helvetica,sans-Serif" font-size="10.00">ClearAreaClass</text>
</a>
</g>
</g>
<!-- Node1&#45;&gt;Node5 -->
<g id="edge4" class="edge">
<title>Node1&#45;&gt;Node5</title>
<path fill="none" stroke="#63b8ff" d="M616.95,-182.43C637.32,-203.94 670.06,-235.38 704,-255 709.59,-258.23 715.68,-261.11 721.87,-263.64"/>
<polygon fill="#63b8ff" stroke="#63b8ff" points="619.9,-180.38 610.52,-175.43 614.77,-185.14 619.9,-180.38"/>
</g>
<!-- Node6 -->
<g id="node6" class="node">
<title>Node6</title>
<g id="a_node6"><a xlink:href="interfaceSCR__ScenarioFrameworkSlotDeliveryClass.html" target="_top" xlink:title=" ">
<polygon fill="white" stroke="#666666" points="850,-246 704,-246 704,-216 850,-216 850,-246"/>
<text text-anchor="start" x="712" y="-234" font-family="Helvetica,sans-Serif" font-size="10.00">SCR_ScenarioFrameworkSlot</text>
<text text-anchor="middle" x="777" y="-223" font-family="Helvetica,sans-Serif" font-size="10.00">DeliveryClass</text>
</a>
</g>
</g>
<!-- Node1&#45;&gt;Node6 -->
<g id="edge5" class="edge">
<title>Node1&#45;&gt;Node6</title>
<path fill="none" stroke="#63b8ff" d="M638.2,-178.89C657.99,-187.92 682.01,-198.47 704,-207 711.62,-209.95 719.77,-212.88 727.75,-215.63"/>
<polygon fill="#63b8ff" stroke="#63b8ff" points="639.81,-175.32 629.27,-174.32 636.89,-181.68 639.81,-175.32"/>
</g>
<!-- Node7 -->
<g id="node7" class="node">
<title>Node7</title>
<g id="a_node7"><a xlink:href="interfaceSCR__ScenarioFrameworkSlotDestroyClass.html" target="_top" xlink:title=" ">
<polygon fill="white" stroke="#666666" points="850,-198 704,-198 704,-168 850,-168 850,-198"/>
<text text-anchor="start" x="712" y="-186" font-family="Helvetica,sans-Serif" font-size="10.00">SCR_ScenarioFrameworkSlot</text>
<text text-anchor="middle" x="777" y="-175" font-family="Helvetica,sans-Serif" font-size="10.00">DestroyClass</text>
</a>
</g>
</g>
<!-- Node1&#45;&gt;Node7 -->
<g id="edge6" class="edge">
<title>Node1&#45;&gt;Node7</title>
<path fill="none" stroke="#63b8ff" d="M679.15,-170.09C687.35,-171.18 695.63,-172.28 703.71,-173.36"/>
<polygon fill="#63b8ff" stroke="#63b8ff" points="679.81,-166.51 669.43,-168.66 678.88,-173.45 679.81,-166.51"/>
</g>
<!-- Node8 -->
<g id="node8" class="node">
<title>Node8</title>
<g id="a_node8"><a xlink:href="interfaceSCR__ScenarioFrameworkSlotExtractionClass.html" target="_top" xlink:title=" ">
<polygon fill="white" stroke="#666666" points="850,-150 704,-150 704,-120 850,-120 850,-150"/>
<text text-anchor="start" x="712" y="-138" font-family="Helvetica,sans-Serif" font-size="10.00">SCR_ScenarioFrameworkSlot</text>
<text text-anchor="middle" x="777" y="-127" font-family="Helvetica,sans-Serif" font-size="10.00">ExtractionClass</text>
</a>
</g>
</g>
<!-- Node1&#45;&gt;Node8 -->
<g id="edge7" class="edge">
<title>Node1&#45;&gt;Node8</title>
<path fill="none" stroke="#63b8ff" d="M679.15,-147.91C687.35,-146.82 695.63,-145.72 703.71,-144.64"/>
<polygon fill="#63b8ff" stroke="#63b8ff" points="678.88,-144.55 669.43,-149.34 679.81,-151.49 678.88,-144.55"/>
</g>
<!-- Node9 -->
<g id="node9" class="node">
<title>Node9</title>
<g id="a_node9"><a xlink:href="interfaceSCR__ScenarioFrameworkSlotPickClass.html" target="_top" xlink:title=" ">
<polygon fill="white" stroke="#666666" points="850,-102 704,-102 704,-72 850,-72 850,-102"/>
<text text-anchor="start" x="712" y="-90" font-family="Helvetica,sans-Serif" font-size="10.00">SCR_ScenarioFrameworkSlot</text>
<text text-anchor="middle" x="777" y="-79" font-family="Helvetica,sans-Serif" font-size="10.00">PickClass</text>
</a>
</g>
</g>
<!-- Node1&#45;&gt;Node9 -->
<g id="edge8" class="edge">
<title>Node1&#45;&gt;Node9</title>
<path fill="none" stroke="#63b8ff" d="M638.2,-139.11C657.99,-130.08 682.01,-119.53 704,-111 711.62,-108.05 719.77,-105.12 727.75,-102.37"/>
<polygon fill="#63b8ff" stroke="#63b8ff" points="636.89,-136.32 629.27,-143.68 639.81,-142.68 636.89,-136.32"/>
</g>
<!-- Node10 -->
<g id="node10" class="node">
<title>Node10</title>
<g id="a_node10"><a xlink:href="interfaceSCR__ScenarioFrameworkSlotTaskAIClass.html" target="_top" xlink:title=" ">
<polygon fill="white" stroke="#666666" points="850,-54 704,-54 704,-24 850,-24 850,-54"/>
<text text-anchor="start" x="712" y="-42" font-family="Helvetica,sans-Serif" font-size="10.00">SCR_ScenarioFrameworkSlot</text>
<text text-anchor="middle" x="777" y="-31" font-family="Helvetica,sans-Serif" font-size="10.00">TaskAIClass</text>
</a>
</g>
</g>
<!-- Node1&#45;&gt;Node10 -->
<g id="edge9" class="edge">
<title>Node1&#45;&gt;Node10</title>
<path fill="none" stroke="#63b8ff" d="M616.95,-135.57C637.32,-114.06 670.06,-82.62 704,-63 709.59,-59.77 715.68,-56.89 721.87,-54.36"/>
<polygon fill="#63b8ff" stroke="#63b8ff" points="614.77,-132.86 610.52,-142.57 619.9,-137.62 614.77,-132.86"/>
</g>
<!-- Node2 -->
<g id="node2" class="node">
<title>Node2</title>
<g id="a_node2"><a xlink:href="interfaceSCR__ScenarioFrameworkSlotBaseClass.html" target="_top" xlink:title=" ">
<polygon fill="white" stroke="#666666" points="486,-174 340,-174 340,-144 486,-144 486,-174"/>
<text text-anchor="start" x="348" y="-162" font-family="Helvetica,sans-Serif" font-size="10.00">SCR_ScenarioFrameworkSlot</text>
<text text-anchor="middle" x="413" y="-151" font-family="Helvetica,sans-Serif" font-size="10.00">BaseClass</text>
</a>
</g>
</g>
<!-- Node2&#45;&gt;Node1 -->
<g id="edge1" class="edge">
<title>Node2&#45;&gt;Node1</title>
<path fill="none" stroke="#63b8ff" d="M497.43,-159C505.54,-159 513.72,-159 521.71,-159"/>
<polygon fill="#63b8ff" stroke="#63b8ff" points="497.43,-155.5 487.43,-159 497.43,-162.5 497.43,-155.5"/>
</g>
<!-- Node3 -->
<g id="node3" class="node">
<title>Node3</title>
<g id="a_node3"><a xlink:href="interfaceSCR__ScenarioFrameworkLayerBaseClass.html" target="_top" xlink:title=" ">
<polygon fill="white" stroke="#666666" points="304,-174 152,-174 152,-144 304,-144 304,-174"/>
<text text-anchor="start" x="160" y="-162" font-family="Helvetica,sans-Serif" font-size="10.00">SCR_ScenarioFrameworkLayer</text>
<text text-anchor="middle" x="228" y="-151" font-family="Helvetica,sans-Serif" font-size="10.00">BaseClass</text>
</a>
</g>
</g>
<!-- Node3&#45;&gt;Node2 -->
<g id="edge2" class="edge">
<title>Node3&#45;&gt;Node2</title>
<path fill="none" stroke="#63b8ff" d="M315.46,-159C323.55,-159 331.69,-159 339.63,-159"/>
<polygon fill="#63b8ff" stroke="#63b8ff" points="315.49,-155.5 305.49,-159 315.49,-162.5 315.49,-155.5"/>
</g>
<!-- Node4 -->
<g id="node4" class="node">
<title>Node4</title>
<g id="a_node4"><a xlink:title=" ">
<polygon fill="white" stroke="#666666" points="116,-168.5 0,-168.5 0,-149.5 116,-149.5 116,-168.5"/>
<text text-anchor="middle" x="58" y="-156.5" font-family="Helvetica,sans-Serif" font-size="10.00">ScriptComponentClass</text>
</a>
</g>
</g>
<!-- Node4&#45;&gt;Node3 -->
<g id="edge3" class="edge">
<title>Node4&#45;&gt;Node3</title>
<path fill="none" stroke="#63b8ff" d="M127.22,-159C135.32,-159 143.61,-159 151.79,-159"/>
<polygon fill="#63b8ff" stroke="#63b8ff" points="127.35,-155.5 117.35,-159 127.35,-162.5 127.35,-155.5"/>
</g>
<!-- Node11 -->
<g id="node11" class="node">
<title>Node11</title>
<g id="a_node11"><a xlink:href="interfaceSCR__ScenarioFrameworkSlotDefendClass.html" target="_top" xlink:title=" ">
<polygon fill="white" stroke="#666666" points="1032,-78 886,-78 886,-48 1032,-48 1032,-78"/>
<text text-anchor="start" x="894" y="-66" font-family="Helvetica,sans-Serif" font-size="10.00">SCR_ScenarioFrameworkSlot</text>
<text text-anchor="middle" x="959" y="-55" font-family="Helvetica,sans-Serif" font-size="10.00">DefendClass</text>
</a>
</g>
</g>
<!-- Node10&#45;&gt;Node11 -->
<g id="edge10" class="edge">
<title>Node10&#45;&gt;Node11</title>
<path fill="none" stroke="#63b8ff" d="M861.15,-50.09C869.35,-51.18 877.63,-52.28 885.71,-53.36"/>
<polygon fill="#63b8ff" stroke="#63b8ff" points="861.81,-46.51 851.43,-48.66 860.88,-53.45 861.81,-46.51"/>
</g>
<!-- Node12 -->
<g id="node12" class="node">
<title>Node12</title>
<g id="a_node12"><a xlink:href="interfaceSCR__ScenarioFrameworkSlotKillClass.html" target="_top" xlink:title=" ">
<polygon fill="white" stroke="#666666" points="1032,-30 886,-30 886,0 1032,0 1032,-30"/>
<text text-anchor="start" x="894" y="-18" font-family="Helvetica,sans-Serif" font-size="10.00">SCR_ScenarioFrameworkSlot</text>
<text text-anchor="middle" x="959" y="-7" font-family="Helvetica,sans-Serif" font-size="10.00">KillClass</text>
</a>
</g>
</g>
<!-- Node10&#45;&gt;Node12 -->
<g id="edge11" class="edge">
<title>Node10&#45;&gt;Node12</title>
<path fill="none" stroke="#63b8ff" d="M861.15,-27.91C869.35,-26.82 877.63,-25.72 885.71,-24.64"/>
<polygon fill="#63b8ff" stroke="#63b8ff" points="860.88,-24.55 851.43,-29.34 861.81,-31.49 860.88,-24.55"/>
</g>
</g>
</svg>
