<?xml version="1.0" encoding="UTF-8" standalone="no"?>
<!DOCTYPE svg PUBLIC "-//W3C//DTD SVG 1.1//EN"
 "http://www.w3.org/Graphics/SVG/1.1/DTD/svg11.dtd">
<!-- Generated by graphviz version 8.0.2 (20230410.1723)
 -->
<!-- Title: BuoyancyComponentClass Pages: 1 -->
<svg width="370pt" height="214pt"
 viewBox="0.00 0.00 370.00 214.00" xmlns="http://www.w3.org/2000/svg" xmlns:xlink="http://www.w3.org/1999/xlink">
<g id="graph0" class="graph" transform="scale(1 1) rotate(0) translate(4 210)">
<title>BuoyancyComponentClass</title>
<!-- Node1 -->
<g id="node1" class="node">
<title>Node1</title>
<g id="a_node1"><a xlink:title=" ">
<polygon fill="#999999" stroke="#666666" points="249.5,-151 115.5,-151 115.5,-132 249.5,-132 249.5,-151"/>
<text text-anchor="middle" x="182.5" y="-139" font-family="Helvetica,sans-Serif" font-size="10.00">BuoyancyComponentClass</text>
</a>
</g>
</g>
<!-- Node3 -->
<g id="node3" class="node">
<title>Node3</title>
<g id="a_node3"><a xlink:href="interfaceCharacterBuoyancyComponentClass.html" target="_top" xlink:title=" ">
<polygon fill="white" stroke="#666666" points="176.5,-96 24.5,-96 24.5,-66 176.5,-66 176.5,-96"/>
<text text-anchor="start" x="32.5" y="-84" font-family="Helvetica,sans-Serif" font-size="10.00">CharacterBuoyancyComponent</text>
<text text-anchor="middle" x="100.5" y="-73" font-family="Helvetica,sans-Serif" font-size="10.00">Class</text>
</a>
</g>
</g>
<!-- Node1&#45;&gt;Node3 -->
<g id="edge2" class="edge">
<title>Node1&#45;&gt;Node3</title>
<path fill="none" stroke="#63b8ff" d="M161.23,-125.33C148.74,-116.42 133.05,-105.22 120.74,-96.44"/>
<polygon fill="#63b8ff" stroke="#63b8ff" points="158.87,-128.66 169.05,-131.62 162.94,-122.96 158.87,-128.66"/>
</g>
<!-- Node5 -->
<g id="node5" class="node">
<title>Node5</title>
<g id="a_node5"><a xlink:href="interfaceVehicleBuoyancyComponentClass.html" target="_top" xlink:title=" ">
<polygon fill="white" stroke="#666666" points="342.5,-96 200.5,-96 200.5,-66 342.5,-66 342.5,-96"/>
<text text-anchor="start" x="208.5" y="-84" font-family="Helvetica,sans-Serif" font-size="10.00">VehicleBuoyancyComponent</text>
<text text-anchor="middle" x="271.5" y="-73" font-family="Helvetica,sans-Serif" font-size="10.00">Class</text>
</a>
</g>
</g>
<!-- Node1&#45;&gt;Node5 -->
<g id="edge4" class="edge">
<title>Node1&#45;&gt;Node5</title>
<path fill="none" stroke="#63b8ff" d="M205.19,-125.59C218.81,-116.64 236.04,-105.3 249.53,-96.44"/>
<polygon fill="#63b8ff" stroke="#63b8ff" points="203.45,-123.2 197.02,-131.62 207.3,-129.05 203.45,-123.2"/>
</g>
<!-- Node2 -->
<g id="node2" class="node">
<title>Node2</title>
<g id="a_node2"><a xlink:title=" ">
<polygon fill="white" stroke="#666666" points="245,-206 120,-206 120,-187 245,-187 245,-206"/>
<text text-anchor="middle" x="182.5" y="-194" font-family="Helvetica,sans-Serif" font-size="10.00">GenericComponentClass</text>
</a>
</g>
</g>
<!-- Node2&#45;&gt;Node1 -->
<g id="edge1" class="edge">
<title>Node2&#45;&gt;Node1</title>
<path fill="none" stroke="#63b8ff" d="M182.5,-175.93C182.5,-167.53 182.5,-158.13 182.5,-151.44"/>
<polygon fill="#63b8ff" stroke="#63b8ff" points="179,-175.75 182.5,-185.75 186,-175.75 179,-175.75"/>
</g>
<!-- Node4 -->
<g id="node4" class="node">
<title>Node4</title>
<g id="a_node4"><a xlink:href="interfaceSCR__CharacterBuoyancyComponentClass.html" target="_top" xlink:title=" ">
<polygon fill="white" stroke="#666666" points="177,-30 0,-30 0,0 177,0 177,-30"/>
<text text-anchor="start" x="8" y="-18" font-family="Helvetica,sans-Serif" font-size="10.00">SCR_CharacterBuoyancyComponent</text>
<text text-anchor="middle" x="88.5" y="-7" font-family="Helvetica,sans-Serif" font-size="10.00">Class</text>
</a>
</g>
</g>
<!-- Node3&#45;&gt;Node4 -->
<g id="edge3" class="edge">
<title>Node3&#45;&gt;Node4</title>
<path fill="none" stroke="#63b8ff" d="M95.86,-55.25C94.27,-46.75 92.54,-37.53 91.16,-30.16"/>
<polygon fill="#63b8ff" stroke="#63b8ff" points="92.55,-55.61 97.84,-64.8 99.43,-54.32 92.55,-55.61"/>
</g>
<!-- Node6 -->
<g id="node6" class="node">
<title>Node6</title>
<g id="a_node6"><a xlink:href="interfaceSCR__VehicleBuoyancyComponentClass.html" target="_top" xlink:title=" ">
<polygon fill="white" stroke="#666666" points="362,-30 195,-30 195,0 362,0 362,-30"/>
<text text-anchor="start" x="203" y="-18" font-family="Helvetica,sans-Serif" font-size="10.00">SCR_VehicleBuoyancyComponent</text>
<text text-anchor="middle" x="278.5" y="-7" font-family="Helvetica,sans-Serif" font-size="10.00">Class</text>
</a>
</g>
</g>
<!-- Node5&#45;&gt;Node6 -->
<g id="edge5" class="edge">
<title>Node5&#45;&gt;Node6</title>
<path fill="none" stroke="#63b8ff" d="M274.24,-54.97C275.16,-46.55 276.15,-37.45 276.95,-30.16"/>
<polygon fill="#63b8ff" stroke="#63b8ff" points="270.66,-54.48 273.05,-64.8 277.62,-55.24 270.66,-54.48"/>
</g>
</g>
</svg>
