<?xml version="1.0" encoding="UTF-8" standalone="no"?>
<!DOCTYPE svg PUBLIC "-//W3C//DTD SVG 1.1//EN"
 "http://www.w3.org/Graphics/SVG/1.1/DTD/svg11.dtd">
<!-- Generated by graphviz version 8.0.2 (20230410.1723)
 -->
<!-- Title: SCR_HealingUserAction Pages: 1 -->
<svg width="683pt" height="138pt"
 viewBox="0.00 0.00 683.00 138.00" xmlns="http://www.w3.org/2000/svg" xmlns:xlink="http://www.w3.org/1999/xlink">
<g id="graph0" class="graph" transform="scale(1 1) rotate(0) translate(4 134)">
<title>SCR_HealingUserAction</title>
<!-- Node1 -->
<g id="node1" class="node">
<title>Node1</title>
<g id="a_node1"><a xlink:title=" ">
<polygon fill="#999999" stroke="#666666" points="504,-74 382,-74 382,-55 504,-55 504,-74"/>
<text text-anchor="middle" x="443" y="-62" font-family="Helvetica,sans-Serif" font-size="10.00">SCR_HealingUserAction</text>
</a>
</g>
</g>
<!-- Node5 -->
<g id="node5" class="node">
<title>Node5</title>
<g id="a_node5"><a xlink:href="interfaceSCR__BandageUserAction.html" target="_top" xlink:title=" ">
<polygon fill="white" stroke="#666666" points="671.5,-130 543.5,-130 543.5,-111 671.5,-111 671.5,-130"/>
<text text-anchor="middle" x="607.5" y="-118" font-family="Helvetica,sans-Serif" font-size="10.00">SCR_BandageUserAction</text>
</a>
</g>
</g>
<!-- Node1&#45;&gt;Node5 -->
<g id="edge4" class="edge">
<title>Node1&#45;&gt;Node5</title>
<path fill="none" stroke="#63b8ff" d="M476.92,-78.6C495.3,-86.19 518.71,-95.43 540,-102.5 548.63,-105.36 557.99,-108.12 566.9,-110.57"/>
<polygon fill="#63b8ff" stroke="#63b8ff" points="478.59,-75.08 468.01,-74.45 475.89,-81.54 478.59,-75.08"/>
</g>
<!-- Node6 -->
<g id="node6" class="node">
<title>Node6</title>
<g id="a_node6"><a xlink:href="interfaceSCR__MorphineUserAction.html" target="_top" xlink:title=" ">
<polygon fill="white" stroke="#666666" points="672.5,-93 542.5,-93 542.5,-74 672.5,-74 672.5,-93"/>
<text text-anchor="middle" x="607.5" y="-81" font-family="Helvetica,sans-Serif" font-size="10.00">SCR_MorphineUserAction</text>
</a>
</g>
</g>
<!-- Node1&#45;&gt;Node6 -->
<g id="edge5" class="edge">
<title>Node1&#45;&gt;Node6</title>
<path fill="none" stroke="#63b8ff" d="M514.94,-72.79C523.96,-73.85 533.15,-74.92 542.06,-75.97"/>
<polygon fill="#63b8ff" stroke="#63b8ff" points="515.39,-69.21 505.05,-71.52 514.57,-76.16 515.39,-69.21"/>
</g>
<!-- Node7 -->
<g id="node7" class="node">
<title>Node7</title>
<g id="a_node7"><a xlink:href="interfaceSCR__SalineBagUserAction.html" target="_top" xlink:title=" ">
<polygon fill="white" stroke="#666666" points="674.5,-56 540.5,-56 540.5,-37 674.5,-37 674.5,-56"/>
<text text-anchor="middle" x="607.5" y="-44" font-family="Helvetica,sans-Serif" font-size="10.00">SCR_SalineBagUserAction</text>
</a>
</g>
</g>
<!-- Node1&#45;&gt;Node7 -->
<g id="edge6" class="edge">
<title>Node1&#45;&gt;Node7</title>
<path fill="none" stroke="#63b8ff" d="M514.94,-56.64C523.31,-55.71 531.83,-54.77 540.14,-53.85"/>
<polygon fill="#63b8ff" stroke="#63b8ff" points="514.6,-53.27 505.05,-57.85 515.37,-60.23 514.6,-53.27"/>
</g>
<!-- Node8 -->
<g id="node8" class="node">
<title>Node8</title>
<g id="a_node8"><a xlink:href="interfaceSCR__TourniquetUserAction.html" target="_top" xlink:title=" ">
<polygon fill="white" stroke="#666666" points="675,-19 540,-19 540,0 675,0 675,-19"/>
<text text-anchor="middle" x="607.5" y="-7" font-family="Helvetica,sans-Serif" font-size="10.00">SCR_TourniquetUserAction</text>
</a>
</g>
</g>
<!-- Node1&#45;&gt;Node8 -->
<g id="edge7" class="edge">
<title>Node1&#45;&gt;Node8</title>
<path fill="none" stroke="#63b8ff" d="M477.95,-50.43C496.19,-43.12 519.14,-34.32 540,-27.5 548.64,-24.67 558.01,-21.94 566.92,-19.49"/>
<polygon fill="#63b8ff" stroke="#63b8ff" points="476.78,-47.53 468.82,-54.53 479.4,-54.02 476.78,-47.53"/>
</g>
<!-- Node2 -->
<g id="node2" class="node">
<title>Node2</title>
<g id="a_node2"><a xlink:href="interfaceScriptedUserAction.html" target="_top" xlink:title=" ">
<polygon fill="white" stroke="#666666" points="346,-74 245,-74 245,-55 346,-55 346,-74"/>
<text text-anchor="middle" x="295.5" y="-62" font-family="Helvetica,sans-Serif" font-size="10.00">ScriptedUserAction</text>
</a>
</g>
</g>
<!-- Node2&#45;&gt;Node1 -->
<g id="edge1" class="edge">
<title>Node2&#45;&gt;Node1</title>
<path fill="none" stroke="#63b8ff" d="M357.1,-64.5C365.25,-64.5 373.6,-64.5 381.74,-64.5"/>
<polygon fill="#63b8ff" stroke="#63b8ff" points="357.17,-61 347.17,-64.5 357.17,-68 357.17,-61"/>
</g>
<!-- Node3 -->
<g id="node3" class="node">
<title>Node3</title>
<g id="a_node3"><a xlink:href="interfaceBaseUserAction.html" target="_top" xlink:title=" ">
<polygon fill="white" stroke="#666666" points="209,-74 122,-74 122,-55 209,-55 209,-74"/>
<text text-anchor="middle" x="165.5" y="-62" font-family="Helvetica,sans-Serif" font-size="10.00">BaseUserAction</text>
</a>
</g>
</g>
<!-- Node3&#45;&gt;Node2 -->
<g id="edge2" class="edge">
<title>Node3&#45;&gt;Node2</title>
<path fill="none" stroke="#63b8ff" d="M220.34,-64.5C228.44,-64.5 236.77,-64.5 244.78,-64.5"/>
<polygon fill="#63b8ff" stroke="#63b8ff" points="220.48,-61 210.48,-64.5 220.48,-68 220.48,-61"/>
</g>
<!-- Node4 -->
<g id="node4" class="node">
<title>Node4</title>
<g id="a_node4"><a xlink:title=" ">
<polygon fill="white" stroke="#666666" points="86,-74 0,-74 0,-55 86,-55 86,-74"/>
<text text-anchor="middle" x="43" y="-62" font-family="Helvetica,sans-Serif" font-size="10.00">ScriptAndConfig</text>
</a>
</g>
</g>
<!-- Node4&#45;&gt;Node3 -->
<g id="edge3" class="edge">
<title>Node4&#45;&gt;Node3</title>
<path fill="none" stroke="#63b8ff" d="M97.37,-64.5C105.47,-64.5 113.74,-64.5 121.59,-64.5"/>
<polygon fill="#63b8ff" stroke="#63b8ff" points="97.48,-61 87.48,-64.5 97.48,-68 97.48,-61"/>
</g>
</g>
</svg>
