<?xml version="1.0" encoding="UTF-8" standalone="no"?>
<!DOCTYPE svg PUBLIC "-//W3C//DTD SVG 1.1//EN"
 "http://www.w3.org/Graphics/SVG/1.1/DTD/svg11.dtd">
<!-- Generated by graphviz version 8.0.2 (20230410.1723)
 -->
<!-- Title: SCR_BaseFactionTriggerEntity Pages: 1 -->
<svg width="301pt" height="379pt"
 viewBox="0.00 0.00 300.50 379.00" xmlns="http://www.w3.org/2000/svg" xmlns:xlink="http://www.w3.org/1999/xlink">
<g id="graph0" class="graph" transform="scale(1 1) rotate(0) translate(4 375)">
<title>SCR_BaseFactionTriggerEntity</title>
<!-- Node1 -->
<g id="node1" class="node">
<title>Node1</title>
<g id="a_node1"><a xlink:title=" ">
<polygon fill="#999999" stroke="#666666" points="227,-151 75,-151 75,-132 227,-132 227,-151"/>
<text text-anchor="middle" x="151" y="-139" font-family="Helvetica,sans-Serif" font-size="10.00">SCR_BaseFactionTriggerEntity</text>
</a>
</g>
</g>
<!-- Node6 -->
<g id="node6" class="node">
<title>Node6</title>
<g id="a_node6"><a xlink:href="interfaceSCR__FactionControlTriggerEntity.html" target="_top" xlink:title=" ">
<polygon fill="white" stroke="#666666" points="143,-96 9,-96 9,-66 143,-66 143,-96"/>
<text text-anchor="start" x="17" y="-84" font-family="Helvetica,sans-Serif" font-size="10.00">SCR_FactionControlTrigger</text>
<text text-anchor="middle" x="76" y="-73" font-family="Helvetica,sans-Serif" font-size="10.00">Entity</text>
</a>
</g>
</g>
<!-- Node1&#45;&gt;Node6 -->
<g id="edge5" class="edge">
<title>Node1&#45;&gt;Node6</title>
<path fill="none" stroke="#63b8ff" d="M131.21,-125.06C119.84,-116.2 105.66,-105.13 94.51,-96.44"/>
<polygon fill="#63b8ff" stroke="#63b8ff" points="128.57,-128.22 138.61,-131.62 132.88,-122.7 128.57,-128.22"/>
</g>
<!-- Node8 -->
<g id="node8" class="node">
<title>Node8</title>
<g id="a_node8"><a xlink:href="interfaceSCR__FactionPlayerTriggerEntity.html" target="_top" xlink:title=" ">
<polygon fill="white" stroke="#666666" points="292.5,-96 161.5,-96 161.5,-66 292.5,-66 292.5,-96"/>
<text text-anchor="start" x="169.5" y="-84" font-family="Helvetica,sans-Serif" font-size="10.00">SCR_FactionPlayerTrigger</text>
<text text-anchor="middle" x="227" y="-73" font-family="Helvetica,sans-Serif" font-size="10.00">Entity</text>
</a>
</g>
</g>
<!-- Node1&#45;&gt;Node8 -->
<g id="edge7" class="edge">
<title>Node1&#45;&gt;Node8</title>
<path fill="none" stroke="#63b8ff" d="M171.05,-125.06C182.57,-116.2 196.95,-105.13 208.24,-96.44"/>
<polygon fill="#63b8ff" stroke="#63b8ff" points="169.33,-122.74 163.54,-131.62 173.6,-128.29 169.33,-122.74"/>
</g>
<!-- Node2 -->
<g id="node2" class="node">
<title>Node2</title>
<g id="a_node2"><a xlink:href="interfaceSCR__BaseTriggerEntity.html" target="_top" xlink:title="Basic scripted trigger which offers external invoekrs for major events like activation or deactivatio...">
<polygon fill="white" stroke="#666666" points="210.5,-206 91.5,-206 91.5,-187 210.5,-187 210.5,-206"/>
<text text-anchor="middle" x="151" y="-194" font-family="Helvetica,sans-Serif" font-size="10.00">SCR_BaseTriggerEntity</text>
</a>
</g>
</g>
<!-- Node2&#45;&gt;Node1 -->
<g id="edge1" class="edge">
<title>Node2&#45;&gt;Node1</title>
<path fill="none" stroke="#63b8ff" d="M151,-175.93C151,-167.53 151,-158.13 151,-151.44"/>
<polygon fill="#63b8ff" stroke="#63b8ff" points="147.5,-175.75 151,-185.75 154.5,-175.75 147.5,-175.75"/>
</g>
<!-- Node3 -->
<g id="node3" class="node">
<title>Node3</title>
<g id="a_node3"><a xlink:href="interfaceScriptedGameTriggerEntity.html" target="_top" xlink:title=" ">
<polygon fill="white" stroke="#666666" points="218,-261 84,-261 84,-242 218,-242 218,-261"/>
<text text-anchor="middle" x="151" y="-249" font-family="Helvetica,sans-Serif" font-size="10.00">ScriptedGameTriggerEntity</text>
</a>
</g>
</g>
<!-- Node3&#45;&gt;Node2 -->
<g id="edge2" class="edge">
<title>Node3&#45;&gt;Node2</title>
<path fill="none" stroke="#63b8ff" d="M151,-230.93C151,-222.53 151,-213.13 151,-206.44"/>
<polygon fill="#63b8ff" stroke="#63b8ff" points="147.5,-230.75 151,-240.75 154.5,-230.75 147.5,-230.75"/>
</g>
<!-- Node4 -->
<g id="node4" class="node">
<title>Node4</title>
<g id="a_node4"><a xlink:href="interfaceBaseGameTriggerEntity.html" target="_top" xlink:title=" ">
<polygon fill="white" stroke="#666666" points="211,-316 91,-316 91,-297 211,-297 211,-316"/>
<text text-anchor="middle" x="151" y="-304" font-family="Helvetica,sans-Serif" font-size="10.00">BaseGameTriggerEntity</text>
</a>
</g>
</g>
<!-- Node4&#45;&gt;Node3 -->
<g id="edge3" class="edge">
<title>Node4&#45;&gt;Node3</title>
<path fill="none" stroke="#63b8ff" d="M151,-285.93C151,-277.53 151,-268.13 151,-261.44"/>
<polygon fill="#63b8ff" stroke="#63b8ff" points="147.5,-285.75 151,-295.75 154.5,-285.75 147.5,-285.75"/>
</g>
<!-- Node5 -->
<g id="node5" class="node">
<title>Node5</title>
<g id="a_node5"><a xlink:title=" ">
<polygon fill="white" stroke="#666666" points="189,-371 113,-371 113,-352 189,-352 189,-371"/>
<text text-anchor="middle" x="151" y="-359" font-family="Helvetica,sans-Serif" font-size="10.00">GenericEntity</text>
</a>
</g>
</g>
<!-- Node5&#45;&gt;Node4 -->
<g id="edge4" class="edge">
<title>Node5&#45;&gt;Node4</title>
<path fill="none" stroke="#63b8ff" d="M151,-340.93C151,-332.53 151,-323.13 151,-316.44"/>
<polygon fill="#63b8ff" stroke="#63b8ff" points="147.5,-340.75 151,-350.75 154.5,-340.75 147.5,-340.75"/>
</g>
<!-- Node7 -->
<g id="node7" class="node">
<title>Node7</title>
<g id="a_node7"><a xlink:href="interfaceSCR__FactionDominanceTriggerEntity.html" target="_top" xlink:title=" ">
<polygon fill="white" stroke="#666666" points="152,-30 0,-30 0,0 152,0 152,-30"/>
<text text-anchor="start" x="8" y="-18" font-family="Helvetica,sans-Serif" font-size="10.00">SCR_FactionDominanceTrigger</text>
<text text-anchor="middle" x="76" y="-7" font-family="Helvetica,sans-Serif" font-size="10.00">Entity</text>
</a>
</g>
</g>
<!-- Node6&#45;&gt;Node7 -->
<g id="edge6" class="edge">
<title>Node6&#45;&gt;Node7</title>
<path fill="none" stroke="#63b8ff" d="M76,-54.97C76,-46.55 76,-37.45 76,-30.16"/>
<polygon fill="#63b8ff" stroke="#63b8ff" points="72.5,-54.8 76,-64.8 79.5,-54.8 72.5,-54.8"/>
</g>
</g>
</svg>
