<?xml version="1.0" encoding="UTF-8" standalone="no"?>
<!DOCTYPE svg PUBLIC "-//W3C//DTD SVG 1.1//EN"
 "http://www.w3.org/Graphics/SVG/1.1/DTD/svg11.dtd">
<!-- Generated by graphviz version 8.0.2 (20230410.1723)
 -->
<!-- Title: SCR_SuperMenuBase Pages: 1 -->
<svg width="651pt" height="286pt"
 viewBox="0.00 0.00 651.00 286.00" xmlns="http://www.w3.org/2000/svg" xmlns:xlink="http://www.w3.org/1999/xlink">
<g id="graph0" class="graph" transform="scale(1 1) rotate(0) translate(4 282)">
<title>SCR_SuperMenuBase</title>
<!-- Node1 -->
<g id="node1" class="node">
<title>Node1</title>
<g id="a_node1"><a xlink:title=" ">
<polygon fill="#999999" stroke="#666666" points="467,-148 353,-148 353,-129 467,-129 467,-148"/>
<text text-anchor="middle" x="410" y="-136" font-family="Helvetica,sans-Serif" font-size="10.00">SCR_SuperMenuBase</text>
</a>
</g>
</g>
<!-- Node5 -->
<g id="node5" class="node">
<title>Node5</title>
<g id="a_node5"><a xlink:href="interfaceContentBrowserDetailsMenu.html" target="_top" xlink:title=" ">
<polygon fill="white" stroke="#666666" points="643,-278 503,-278 503,-259 643,-259 643,-278"/>
<text text-anchor="middle" x="573" y="-266" font-family="Helvetica,sans-Serif" font-size="10.00">ContentBrowserDetailsMenu</text>
</a>
</g>
</g>
<!-- Node1&#45;&gt;Node5 -->
<g id="edge4" class="edge">
<title>Node1&#45;&gt;Node5</title>
<path fill="none" stroke="#63b8ff" d="M421.46,-157.58C436.27,-182.75 465.74,-226.66 503,-250.5 508.01,-253.7 513.56,-256.34 519.28,-258.5"/>
<polygon fill="#63b8ff" stroke="#63b8ff" points="424.19,-156.29 416.2,-149.34 418.11,-159.76 424.19,-156.29"/>
</g>
<!-- Node6 -->
<g id="node6" class="node">
<title>Node6</title>
<g id="a_node6"><a xlink:href="interfaceContentBrowserUI.html" target="_top" xlink:title="The super menu class for WORKSHOP content browser.">
<polygon fill="white" stroke="#666666" points="620.5,-241 525.5,-241 525.5,-222 620.5,-222 620.5,-241"/>
<text text-anchor="middle" x="573" y="-229" font-family="Helvetica,sans-Serif" font-size="10.00">ContentBrowserUI</text>
</a>
</g>
</g>
<!-- Node1&#45;&gt;Node6 -->
<g id="edge5" class="edge">
<title>Node1&#45;&gt;Node6</title>
<path fill="none" stroke="#63b8ff" d="M427.76,-155.99C445.07,-173.06 473.63,-198.6 503,-213.5 509.96,-217.03 517.67,-219.91 525.34,-222.25"/>
<polygon fill="#63b8ff" stroke="#63b8ff" points="430.73,-154.01 421.21,-149.37 425.76,-158.93 430.73,-154.01"/>
</g>
<!-- Node7 -->
<g id="node7" class="node">
<title>Node7</title>
<g id="a_node7"><a xlink:href="interfaceSCR__CareerProfileMenuUI.html" target="_top" xlink:title=" ">
<polygon fill="white" stroke="#666666" points="638.5,-204 507.5,-204 507.5,-185 638.5,-185 638.5,-204"/>
<text text-anchor="middle" x="573" y="-192" font-family="Helvetica,sans-Serif" font-size="10.00">SCR_CareerProfileMenuUI</text>
</a>
</g>
</g>
<!-- Node1&#45;&gt;Node7 -->
<g id="edge6" class="edge">
<title>Node1&#45;&gt;Node7</title>
<path fill="none" stroke="#63b8ff" d="M442.36,-152.7C459.96,-160.36 482.45,-169.61 503,-176.5 511.69,-179.41 521.12,-182.14 530.13,-184.56"/>
<polygon fill="#63b8ff" stroke="#63b8ff" points="444.18,-149.24 433.62,-148.41 441.36,-155.64 444.18,-149.24"/>
</g>
<!-- Node8 -->
<g id="node8" class="node">
<title>Node8</title>
<g id="a_node8"><a xlink:href="interfaceSCR__GroupMenu.html" target="_top" xlink:title=" ">
<polygon fill="white" stroke="#666666" points="619,-167 527,-167 527,-148 619,-148 619,-167"/>
<text text-anchor="middle" x="573" y="-155" font-family="Helvetica,sans-Serif" font-size="10.00">SCR_GroupMenu</text>
</a>
</g>
</g>
<!-- Node1&#45;&gt;Node8 -->
<g id="edge7" class="edge">
<title>Node1&#45;&gt;Node8</title>
<path fill="none" stroke="#63b8ff" d="M477.94,-146.4C494.33,-148.33 511.5,-150.36 526.61,-152.14"/>
<polygon fill="#63b8ff" stroke="#63b8ff" points="478.65,-142.84 468.31,-145.15 477.83,-149.79 478.65,-142.84"/>
</g>
<!-- Node9 -->
<g id="node9" class="node">
<title>Node9</title>
<g id="a_node9"><a xlink:href="interfaceSCR__PlayerListMenu.html" target="_top" xlink:title=" ">
<polygon fill="white" stroke="#666666" points="628,-130 518,-130 518,-111 628,-111 628,-130"/>
<text text-anchor="middle" x="573" y="-118" font-family="Helvetica,sans-Serif" font-size="10.00">SCR_PlayerListMenu</text>
</a>
</g>
</g>
<!-- Node1&#45;&gt;Node9 -->
<g id="edge8" class="edge">
<title>Node1&#45;&gt;Node9</title>
<path fill="none" stroke="#63b8ff" d="M478.2,-130.99C491.34,-129.52 504.96,-128 517.62,-126.58"/>
<polygon fill="#63b8ff" stroke="#63b8ff" points="477.86,-127.61 468.31,-132.2 478.64,-134.57 477.86,-127.61"/>
</g>
<!-- Node10 -->
<g id="node10" class="node">
<title>Node10</title>
<g id="a_node10"><a xlink:href="interfaceSCR__ProfileSuperMenu.html" target="_top" xlink:title=" ">
<polygon fill="white" stroke="#666666" points="632.5,-93 513.5,-93 513.5,-74 632.5,-74 632.5,-93"/>
<text text-anchor="middle" x="573" y="-81" font-family="Helvetica,sans-Serif" font-size="10.00">SCR_ProfileSuperMenu</text>
</a>
</g>
</g>
<!-- Node1&#45;&gt;Node10 -->
<g id="edge9" class="edge">
<title>Node1&#45;&gt;Node10</title>
<path fill="none" stroke="#63b8ff" d="M443.11,-124.42C460.61,-117.04 482.77,-108.18 503,-101.5 511.82,-98.59 521.39,-95.84 530.52,-93.41"/>
<polygon fill="#63b8ff" stroke="#63b8ff" points="442.21,-121.42 434.39,-128.56 444.96,-127.86 442.21,-121.42"/>
</g>
<!-- Node11 -->
<g id="node11" class="node">
<title>Node11</title>
<g id="a_node11"><a xlink:href="interfaceSCR__ScenarioMenu.html" target="_top" xlink:title=" ">
<polygon fill="white" stroke="#666666" points="625,-56 521,-56 521,-37 625,-37 625,-56"/>
<text text-anchor="middle" x="573" y="-44" font-family="Helvetica,sans-Serif" font-size="10.00">SCR_ScenarioMenu</text>
</a>
</g>
</g>
<!-- Node1&#45;&gt;Node11 -->
<g id="edge10" class="edge">
<title>Node1&#45;&gt;Node11</title>
<path fill="none" stroke="#63b8ff" d="M428.08,-120.98C445.45,-104.14 473.89,-79.15 503,-64.5 509.3,-61.33 516.22,-58.68 523.17,-56.47"/>
<polygon fill="#63b8ff" stroke="#63b8ff" points="426.12,-117.99 421.49,-127.52 431.05,-122.96 426.12,-117.99"/>
</g>
<!-- Node12 -->
<g id="node12" class="node">
<title>Node12</title>
<g id="a_node12"><a xlink:href="interfaceSCR__SettingsSuperMenu.html" target="_top" xlink:title=" ">
<polygon fill="white" stroke="#666666" points="637,-19 509,-19 509,0 637,0 637,-19"/>
<text text-anchor="middle" x="573" y="-7" font-family="Helvetica,sans-Serif" font-size="10.00">SCR_SettingsSuperMenu</text>
</a>
</g>
</g>
<!-- Node1&#45;&gt;Node12 -->
<g id="edge11" class="edge">
<title>Node1&#45;&gt;Node12</title>
<path fill="none" stroke="#63b8ff" d="M421.71,-119.26C436.63,-94.26 466.05,-51.02 503,-27.5 508.12,-24.24 513.8,-21.57 519.65,-19.38"/>
<polygon fill="#63b8ff" stroke="#63b8ff" points="418.19,-117.34 416.22,-127.75 424.25,-120.84 418.19,-117.34"/>
</g>
<!-- Node2 -->
<g id="node2" class="node">
<title>Node2</title>
<g id="a_node2"><a xlink:href="interfaceMenuRootBase.html" target="_top" xlink:title="Scripted menu base class.">
<polygon fill="white" stroke="#666666" points="317,-148 234,-148 234,-129 317,-129 317,-148"/>
<text text-anchor="middle" x="275.5" y="-136" font-family="Helvetica,sans-Serif" font-size="10.00">MenuRootBase</text>
</a>
</g>
</g>
<!-- Node2&#45;&gt;Node1 -->
<g id="edge1" class="edge">
<title>Node2&#45;&gt;Node1</title>
<path fill="none" stroke="#63b8ff" d="M328.17,-138.5C336.3,-138.5 344.73,-138.5 352.95,-138.5"/>
<polygon fill="#63b8ff" stroke="#63b8ff" points="328.34,-135 318.34,-138.5 328.34,-142 328.34,-135"/>
</g>
<!-- Node3 -->
<g id="node3" class="node">
<title>Node3</title>
<g id="a_node3"><a xlink:href="interfaceChimeraMenuBase.html" target="_top" xlink:title="Constant variables used in various menus.">
<polygon fill="white" stroke="#666666" points="198,-148 99,-148 99,-129 198,-129 198,-148"/>
<text text-anchor="middle" x="148.5" y="-136" font-family="Helvetica,sans-Serif" font-size="10.00">ChimeraMenuBase</text>
</a>
</g>
</g>
<!-- Node3&#45;&gt;Node2 -->
<g id="edge2" class="edge">
<title>Node3&#45;&gt;Node2</title>
<path fill="none" stroke="#63b8ff" d="M209.11,-138.5C217.48,-138.5 225.92,-138.5 233.84,-138.5"/>
<polygon fill="#63b8ff" stroke="#63b8ff" points="209.19,-135 199.19,-138.5 209.19,-142 209.19,-135"/>
</g>
<!-- Node4 -->
<g id="node4" class="node">
<title>Node4</title>
<g id="a_node4"><a xlink:title=" ">
<polygon fill="white" stroke="#666666" points="63,-148 0,-148 0,-129 63,-129 63,-148"/>
<text text-anchor="middle" x="31.5" y="-136" font-family="Helvetica,sans-Serif" font-size="10.00">MenuBase</text>
</a>
</g>
</g>
<!-- Node4&#45;&gt;Node3 -->
<g id="edge3" class="edge">
<title>Node4&#45;&gt;Node3</title>
<path fill="none" stroke="#63b8ff" d="M74.24,-138.5C82.22,-138.5 90.64,-138.5 98.82,-138.5"/>
<polygon fill="#63b8ff" stroke="#63b8ff" points="74.32,-135 64.32,-138.5 74.32,-142 74.32,-135"/>
</g>
</g>
</svg>
