<?xml version="1.0" encoding="UTF-8" standalone="no"?>
<!DOCTYPE svg PUBLIC "-//W3C//DTD SVG 1.1//EN"
 "http://www.w3.org/Graphics/SVG/1.1/DTD/svg11.dtd">
<!-- Generated by graphviz version 8.0.2 (20230410.1723)
 -->
<!-- Title: SCR_EditorActionsManagerComponentClass Pages: 1 -->
<svg width="169pt" height="269pt"
 viewBox="0.00 0.00 169.00 269.00" xmlns="http://www.w3.org/2000/svg" xmlns:xlink="http://www.w3.org/1999/xlink">
<g id="graph0" class="graph" transform="scale(1 1) rotate(0) translate(4 265)">
<title>SCR_EditorActionsManagerComponentClass</title>
<!-- Node1 -->
<g id="node1" class="node">
<title>Node1</title>
<g id="a_node1"><a xlink:title=" ">
<polygon fill="#999999" stroke="#666666" points="149.5,-30 11.5,-30 11.5,0 149.5,0 149.5,-30"/>
<text text-anchor="start" x="19.5" y="-18" font-family="Helvetica,sans-Serif" font-size="10.00">SCR_EditorActionsManager</text>
<text text-anchor="middle" x="80.5" y="-7" font-family="Helvetica,sans-Serif" font-size="10.00">ComponentClass</text>
</a>
</g>
</g>
<!-- Node2 -->
<g id="node2" class="node">
<title>Node2</title>
<g id="a_node2"><a xlink:href="interfaceActionsManagerComponentClass.html" target="_top" xlink:title=" ">
<polygon fill="white" stroke="#666666" points="161,-85 0,-85 0,-66 161,-66 161,-85"/>
<text text-anchor="middle" x="80.5" y="-73" font-family="Helvetica,sans-Serif" font-size="10.00">ActionsManagerComponentClass</text>
</a>
</g>
</g>
<!-- Node2&#45;&gt;Node1 -->
<g id="edge1" class="edge">
<title>Node2&#45;&gt;Node1</title>
<path fill="none" stroke="#63b8ff" d="M80.5,-55.08C80.5,-46.92 80.5,-37.6 80.5,-30.11"/>
<polygon fill="#63b8ff" stroke="#63b8ff" points="77,-54.87 80.5,-64.87 84,-54.87 77,-54.87"/>
</g>
<!-- Node3 -->
<g id="node3" class="node">
<title>Node3</title>
<g id="a_node3"><a xlink:href="interfaceBaseActionsManagerComponentClass.html" target="_top" xlink:title=" ">
<polygon fill="white" stroke="#666666" points="160,-151 1,-151 1,-121 160,-121 160,-151"/>
<text text-anchor="start" x="9" y="-139" font-family="Helvetica,sans-Serif" font-size="10.00">BaseActionsManagerComponent</text>
<text text-anchor="middle" x="80.5" y="-128" font-family="Helvetica,sans-Serif" font-size="10.00">Class</text>
</a>
</g>
</g>
<!-- Node3&#45;&gt;Node2 -->
<g id="edge2" class="edge">
<title>Node3&#45;&gt;Node2</title>
<path fill="none" stroke="#63b8ff" d="M80.5,-109.59C80.5,-100.85 80.5,-91.65 80.5,-85.18"/>
<polygon fill="#63b8ff" stroke="#63b8ff" points="77,-109.54 80.5,-119.54 84,-109.54 77,-109.54"/>
</g>
<!-- Node4 -->
<g id="node4" class="node">
<title>Node4</title>
<g id="a_node4"><a xlink:href="interfaceGameComponentClass.html" target="_top" xlink:title=" ">
<polygon fill="white" stroke="#666666" points="139,-206 22,-206 22,-187 139,-187 139,-206"/>
<text text-anchor="middle" x="80.5" y="-194" font-family="Helvetica,sans-Serif" font-size="10.00">GameComponentClass</text>
</a>
</g>
</g>
<!-- Node4&#45;&gt;Node3 -->
<g id="edge3" class="edge">
<title>Node4&#45;&gt;Node3</title>
<path fill="none" stroke="#63b8ff" d="M80.5,-176.08C80.5,-167.92 80.5,-158.6 80.5,-151.11"/>
<polygon fill="#63b8ff" stroke="#63b8ff" points="77,-175.87 80.5,-185.87 84,-175.87 77,-175.87"/>
</g>
<!-- Node5 -->
<g id="node5" class="node">
<title>Node5</title>
<g id="a_node5"><a xlink:title=" ">
<polygon fill="white" stroke="#666666" points="143,-261 18,-261 18,-242 143,-242 143,-261"/>
<text text-anchor="middle" x="80.5" y="-249" font-family="Helvetica,sans-Serif" font-size="10.00">GenericComponentClass</text>
</a>
</g>
</g>
<!-- Node5&#45;&gt;Node4 -->
<g id="edge4" class="edge">
<title>Node5&#45;&gt;Node4</title>
<path fill="none" stroke="#63b8ff" d="M80.5,-230.93C80.5,-222.53 80.5,-213.13 80.5,-206.44"/>
<polygon fill="#63b8ff" stroke="#63b8ff" points="77,-230.75 80.5,-240.75 84,-230.75 77,-230.75"/>
</g>
</g>
</svg>
