<?xml version="1.0" encoding="UTF-8" standalone="no"?>
<!DOCTYPE svg PUBLIC "-//W3C//DTD SVG 1.1//EN"
 "http://www.w3.org/Graphics/SVG/1.1/DTD/svg11.dtd">
<!-- Generated by graphviz version 8.0.2 (20230410.1723)
 -->
<!-- Title: SCR_EditableSpawnPointComponent Pages: 1 -->
<svg width="187pt" height="247pt"
 viewBox="0.00 0.00 187.00 247.00" xmlns="http://www.w3.org/2000/svg" xmlns:xlink="http://www.w3.org/1999/xlink">
<g id="graph0" class="graph" transform="scale(1 1) rotate(0) translate(4 243)">
<title>SCR_EditableSpawnPointComponent</title>
<!-- Node1 -->
<g id="node1" class="node">
<title>Node1</title>
<g id="a_node1"><a xlink:title=" ">
<polygon fill="#999999" stroke="#666666" points="179,-19 0,-19 0,0 179,0 179,-19"/>
<text text-anchor="middle" x="89.5" y="-7" font-family="Helvetica,sans-Serif" font-size="10.00">SCR_EditableSpawnPointComponent</text>
</a>
</g>
</g>
<!-- Node2 -->
<g id="node2" class="node">
<title>Node2</title>
<g id="a_node2"><a xlink:href="interfaceSCR__EditableDescriptorComponent.html" target="_top" xlink:title=" ">
<polygon fill="white" stroke="#666666" points="175,-74 4,-74 4,-55 175,-55 175,-74"/>
<text text-anchor="middle" x="89.5" y="-62" font-family="Helvetica,sans-Serif" font-size="10.00">SCR_EditableDescriptorComponent</text>
</a>
</g>
</g>
<!-- Node2&#45;&gt;Node1 -->
<g id="edge1" class="edge">
<title>Node2&#45;&gt;Node1</title>
<path fill="none" stroke="#63b8ff" d="M89.5,-43.93C89.5,-35.53 89.5,-26.13 89.5,-19.44"/>
<polygon fill="#63b8ff" stroke="#63b8ff" points="86,-43.75 89.5,-53.75 93,-43.75 86,-43.75"/>
</g>
<!-- Node3 -->
<g id="node3" class="node">
<title>Node3</title>
<g id="a_node3"><a xlink:href="interfaceSCR__EditableSystemComponent.html" target="_top" xlink:title=" ">
<polygon fill="white" stroke="#666666" points="170,-129 9,-129 9,-110 170,-110 170,-129"/>
<text text-anchor="middle" x="89.5" y="-117" font-family="Helvetica,sans-Serif" font-size="10.00">SCR_EditableSystemComponent</text>
</a>
</g>
</g>
<!-- Node3&#45;&gt;Node2 -->
<g id="edge2" class="edge">
<title>Node3&#45;&gt;Node2</title>
<path fill="none" stroke="#63b8ff" d="M89.5,-98.93C89.5,-90.53 89.5,-81.13 89.5,-74.44"/>
<polygon fill="#63b8ff" stroke="#63b8ff" points="86,-98.75 89.5,-108.75 93,-98.75 86,-98.75"/>
</g>
<!-- Node4 -->
<g id="node4" class="node">
<title>Node4</title>
<g id="a_node4"><a xlink:href="interfaceSCR__EditableEntityComponent.html" target="_top" xlink:title="Component defining editable entity.">
<polygon fill="white" stroke="#666666" points="165.5,-184 13.5,-184 13.5,-165 165.5,-165 165.5,-184"/>
<text text-anchor="middle" x="89.5" y="-172" font-family="Helvetica,sans-Serif" font-size="10.00">SCR_EditableEntityComponent</text>
</a>
</g>
</g>
<!-- Node4&#45;&gt;Node3 -->
<g id="edge3" class="edge">
<title>Node4&#45;&gt;Node3</title>
<path fill="none" stroke="#63b8ff" d="M89.5,-153.93C89.5,-145.53 89.5,-136.13 89.5,-129.44"/>
<polygon fill="#63b8ff" stroke="#63b8ff" points="86,-153.75 89.5,-163.75 93,-153.75 86,-153.75"/>
</g>
<!-- Node5 -->
<g id="node5" class="node">
<title>Node5</title>
<g id="a_node5"><a xlink:title=" ">
<polygon fill="white" stroke="#666666" points="135.5,-239 43.5,-239 43.5,-220 135.5,-220 135.5,-239"/>
<text text-anchor="middle" x="89.5" y="-227" font-family="Helvetica,sans-Serif" font-size="10.00">ScriptComponent</text>
</a>
</g>
</g>
<!-- Node5&#45;&gt;Node4 -->
<g id="edge4" class="edge">
<title>Node5&#45;&gt;Node4</title>
<path fill="none" stroke="#63b8ff" d="M89.5,-208.93C89.5,-200.53 89.5,-191.13 89.5,-184.44"/>
<polygon fill="#63b8ff" stroke="#63b8ff" points="86,-208.75 89.5,-218.75 93,-208.75 86,-208.75"/>
</g>
</g>
</svg>
