<?xml version="1.0" encoding="UTF-8" standalone="no"?>
<!DOCTYPE svg PUBLIC "-//W3C//DTD SVG 1.1//EN"
 "http://www.w3.org/Graphics/SVG/1.1/DTD/svg11.dtd">
<!-- Generated by graphviz version 8.0.2 (20230410.1723)
 -->
<!-- Title: SCR_PlayerCommandingMenuCommand Pages: 1 -->
<svg width="159pt" height="159pt"
 viewBox="0.00 0.00 159.00 159.00" xmlns="http://www.w3.org/2000/svg" xmlns:xlink="http://www.w3.org/1999/xlink">
<g id="graph0" class="graph" transform="scale(1 1) rotate(0) translate(4 155)">
<title>SCR_PlayerCommandingMenuCommand</title>
<!-- Node1 -->
<g id="node1" class="node">
<title>Node1</title>
<g id="a_node1"><a xlink:title="Commanding menu commanding element class.">
<polygon fill="#999999" stroke="#666666" points="151,-30 0,-30 0,0 151,0 151,-30"/>
<text text-anchor="start" x="8" y="-18" font-family="Helvetica,sans-Serif" font-size="10.00">SCR_PlayerCommandingMenu</text>
<text text-anchor="middle" x="75.5" y="-7" font-family="Helvetica,sans-Serif" font-size="10.00">Command</text>
</a>
</g>
</g>
<!-- Node2 -->
<g id="node2" class="node">
<title>Node2</title>
<g id="a_node2"><a xlink:href="interfaceSCR__PlayerCommandingMenuBaseElement.html" target="_top" xlink:title="Commanding menu base element class.">
<polygon fill="white" stroke="#666666" points="151,-96 0,-96 0,-66 151,-66 151,-96"/>
<text text-anchor="start" x="8" y="-84" font-family="Helvetica,sans-Serif" font-size="10.00">SCR_PlayerCommandingMenu</text>
<text text-anchor="middle" x="75.5" y="-73" font-family="Helvetica,sans-Serif" font-size="10.00">BaseElement</text>
</a>
</g>
</g>
<!-- Node2&#45;&gt;Node1 -->
<g id="edge1" class="edge">
<title>Node2&#45;&gt;Node1</title>
<path fill="none" stroke="#63b8ff" d="M75.5,-54.97C75.5,-46.55 75.5,-37.45 75.5,-30.16"/>
<polygon fill="#63b8ff" stroke="#63b8ff" points="72,-54.8 75.5,-64.8 79,-54.8 72,-54.8"/>
</g>
<!-- Node3 -->
<g id="node3" class="node">
<title>Node3</title>
<g id="a_node3"><a xlink:title=" ">
<polygon fill="white" stroke="#666666" points="103.5,-151 47.5,-151 47.5,-132 103.5,-132 103.5,-151"/>
<text text-anchor="middle" x="75.5" y="-139" font-family="Helvetica,sans-Serif" font-size="10.00">Managed</text>
</a>
</g>
</g>
<!-- Node3&#45;&gt;Node2 -->
<g id="edge2" class="edge">
<title>Node3&#45;&gt;Node2</title>
<path fill="none" stroke="#63b8ff" d="M75.5,-121.08C75.5,-112.92 75.5,-103.6 75.5,-96.11"/>
<polygon fill="#63b8ff" stroke="#63b8ff" points="72,-120.87 75.5,-130.87 79,-120.87 72,-120.87"/>
</g>
</g>
</svg>
