<?xml version="1.0" encoding="UTF-8" standalone="no"?>
<!DOCTYPE svg PUBLIC "-//W3C//DTD SVG 1.1//EN"
 "http://www.w3.org/Graphics/SVG/1.1/DTD/svg11.dtd">
<!-- Generated by graphviz version 8.0.2 (20230410.1723)
 -->
<!-- Title: SCR_ValidTypeBaseEditorAttribute Pages: 1 -->
<svg width="336pt" height="137pt"
 viewBox="0.00 0.00 335.50 137.00" xmlns="http://www.w3.org/2000/svg" xmlns:xlink="http://www.w3.org/1999/xlink">
<g id="graph0" class="graph" transform="scale(1 1) rotate(0) translate(4 133)">
<title>SCR_ValidTypeBaseEditorAttribute</title>
<!-- Node1 -->
<g id="node1" class="node">
<title>Node1</title>
<g id="a_node1"><a xlink:title=" ">
<polygon fill="#999999" stroke="#666666" points="241,-74 71,-74 71,-55 241,-55 241,-74"/>
<text text-anchor="middle" x="156" y="-62" font-family="Helvetica,sans-Serif" font-size="10.00">SCR_ValidTypeBaseEditorAttribute</text>
</a>
</g>
</g>
<!-- Node3 -->
<g id="node3" class="node">
<title>Node3</title>
<g id="a_node3"><a xlink:href="interfaceSCR__PositionEditorAttribute.html" target="_top" xlink:title=" ">
<polygon fill="white" stroke="#666666" points="140,-19 0,-19 0,0 140,0 140,-19"/>
<text text-anchor="middle" x="70" y="-7" font-family="Helvetica,sans-Serif" font-size="10.00">SCR_PositionEditorAttribute</text>
</a>
</g>
</g>
<!-- Node1&#45;&gt;Node3 -->
<g id="edge2" class="edge">
<title>Node1&#45;&gt;Node3</title>
<path fill="none" stroke="#63b8ff" d="M132.47,-49C117.08,-39.52 97.48,-27.43 84.37,-19.36"/>
<polygon fill="#63b8ff" stroke="#63b8ff" points="130.06,-52.24 140.41,-54.51 133.73,-46.28 130.06,-52.24"/>
</g>
<!-- Node4 -->
<g id="node4" class="node">
<title>Node4</title>
<g id="a_node4"><a xlink:href="interfaceSCR__SnapYPositionEditorAttribute.html" target="_top" xlink:title="An local attribute that dictates if position that is set is snapped to ground.">
<polygon fill="white" stroke="#666666" points="327.5,-19 158.5,-19 158.5,0 327.5,0 327.5,-19"/>
<text text-anchor="middle" x="243" y="-7" font-family="Helvetica,sans-Serif" font-size="10.00">SCR_SnapYPositionEditorAttribute</text>
</a>
</g>
</g>
<!-- Node1&#45;&gt;Node4 -->
<g id="edge3" class="edge">
<title>Node1&#45;&gt;Node4</title>
<path fill="none" stroke="#63b8ff" d="M179.8,-49C195.37,-39.52 215.2,-27.43 228.46,-19.36"/>
<polygon fill="#63b8ff" stroke="#63b8ff" points="178.48,-46.32 171.76,-54.51 182.12,-52.3 178.48,-46.32"/>
</g>
<!-- Node2 -->
<g id="node2" class="node">
<title>Node2</title>
<g id="a_node2"><a xlink:href="interfaceSCR__BaseEditorAttribute.html" target="_top" xlink:title="Base Attribute Script for other attributes to inherent from to get and set varriables in Editor Attri...">
<polygon fill="white" stroke="#666666" points="219.5,-129 92.5,-129 92.5,-110 219.5,-110 219.5,-129"/>
<text text-anchor="middle" x="156" y="-117" font-family="Helvetica,sans-Serif" font-size="10.00">SCR_BaseEditorAttribute</text>
</a>
</g>
</g>
<!-- Node2&#45;&gt;Node1 -->
<g id="edge1" class="edge">
<title>Node2&#45;&gt;Node1</title>
<path fill="none" stroke="#63b8ff" d="M156,-98.93C156,-90.53 156,-81.13 156,-74.44"/>
<polygon fill="#63b8ff" stroke="#63b8ff" points="152.5,-98.75 156,-108.75 159.5,-98.75 152.5,-98.75"/>
</g>
</g>
</svg>
