<?xml version="1.0" encoding="UTF-8" standalone="no"?>
<!DOCTYPE svg PUBLIC "-//W3C//DTD SVG 1.1//EN"
 "http://www.w3.org/Graphics/SVG/1.1/DTD/svg11.dtd">
<!-- Generated by graphviz version 8.0.2 (20230410.1723)
 -->
<!-- Title: SCR_ScenarioFrameworkLayerBaseClass Pages: 1 -->
<svg width="1087pt" height="590pt"
 viewBox="0.00 0.00 1087.00 590.00" xmlns="http://www.w3.org/2000/svg" xmlns:xlink="http://www.w3.org/1999/xlink">
<g id="graph0" class="graph" transform="scale(1 1) rotate(0) translate(4 586)">
<title>SCR_ScenarioFrameworkLayerBaseClass</title>
<!-- Node1 -->
<g id="node1" class="node">
<title>Node1</title>
<g id="a_node1"><a xlink:title=" ">
<polygon fill="#999999" stroke="#666666" points="304,-438 152,-438 152,-408 304,-408 304,-438"/>
<text text-anchor="start" x="160" y="-426" font-family="Helvetica,sans-Serif" font-size="10.00">SCR_ScenarioFrameworkLayer</text>
<text text-anchor="middle" x="228" y="-415" font-family="Helvetica,sans-Serif" font-size="10.00">BaseClass</text>
</a>
</g>
</g>
<!-- Node3 -->
<g id="node3" class="node">
<title>Node3</title>
<g id="a_node3"><a xlink:href="interfaceSCR__ScenarioFrameworkAreaClass.html" target="_top" xlink:title=" ">
<polygon fill="white" stroke="#666666" points="490.5,-486 341.5,-486 341.5,-456 490.5,-456 490.5,-486"/>
<text text-anchor="start" x="349.5" y="-474" font-family="Helvetica,sans-Serif" font-size="10.00">SCR_ScenarioFrameworkArea</text>
<text text-anchor="middle" x="416" y="-463" font-family="Helvetica,sans-Serif" font-size="10.00">Class</text>
</a>
</g>
</g>
<!-- Node1&#45;&gt;Node3 -->
<g id="edge2" class="edge">
<title>Node1&#45;&gt;Node3</title>
<path fill="none" stroke="#63b8ff" d="M299.52,-441.2C317.88,-445.94 337.49,-451 355.24,-455.58"/>
<polygon fill="#63b8ff" stroke="#63b8ff" points="300.43,-437.56 289.88,-438.45 298.68,-444.34 300.43,-437.56"/>
</g>
<!-- Node4 -->
<g id="node4" class="node">
<title>Node4</title>
<g id="a_node4"><a xlink:href="interfaceSCR__ScenarioFrameworkLayerTaskClass.html" target="_top" xlink:title=" ">
<polygon fill="white" stroke="#666666" points="492,-438 340,-438 340,-408 492,-408 492,-438"/>
<text text-anchor="start" x="348" y="-426" font-family="Helvetica,sans-Serif" font-size="10.00">SCR_ScenarioFrameworkLayer</text>
<text text-anchor="middle" x="416" y="-415" font-family="Helvetica,sans-Serif" font-size="10.00">TaskClass</text>
</a>
</g>
</g>
<!-- Node1&#45;&gt;Node4 -->
<g id="edge3" class="edge">
<title>Node1&#45;&gt;Node4</title>
<path fill="none" stroke="#63b8ff" d="M315.33,-423C323.4,-423 331.54,-423 339.51,-423"/>
<polygon fill="#63b8ff" stroke="#63b8ff" points="315.39,-419.5 305.39,-423 315.39,-426.5 315.39,-419.5"/>
</g>
<!-- Node11 -->
<g id="node11" class="node">
<title>Node11</title>
<g id="a_node11"><a xlink:href="interfaceSCR__ScenarioFrameworkSlotBaseClass.html" target="_top" xlink:title=" ">
<polygon fill="white" stroke="#666666" points="489,-222 343,-222 343,-192 489,-192 489,-222"/>
<text text-anchor="start" x="351" y="-210" font-family="Helvetica,sans-Serif" font-size="10.00">SCR_ScenarioFrameworkSlot</text>
<text text-anchor="middle" x="416" y="-199" font-family="Helvetica,sans-Serif" font-size="10.00">BaseClass</text>
</a>
</g>
</g>
<!-- Node1&#45;&gt;Node11 -->
<g id="edge10" class="edge">
<title>Node1&#45;&gt;Node11</title>
<path fill="none" stroke="#63b8ff" d="M249.11,-399.65C287.33,-355.27 369.5,-259.84 401.69,-222.46"/>
<polygon fill="#63b8ff" stroke="#63b8ff" points="245.95,-396.95 242.08,-406.81 251.26,-401.52 245.95,-396.95"/>
</g>
<!-- Node2 -->
<g id="node2" class="node">
<title>Node2</title>
<g id="a_node2"><a xlink:title=" ">
<polygon fill="white" stroke="#666666" points="116,-432.5 0,-432.5 0,-413.5 116,-413.5 116,-432.5"/>
<text text-anchor="middle" x="58" y="-420.5" font-family="Helvetica,sans-Serif" font-size="10.00">ScriptComponentClass</text>
</a>
</g>
</g>
<!-- Node2&#45;&gt;Node1 -->
<g id="edge1" class="edge">
<title>Node2&#45;&gt;Node1</title>
<path fill="none" stroke="#63b8ff" d="M127.22,-423C135.32,-423 143.61,-423 151.79,-423"/>
<polygon fill="#63b8ff" stroke="#63b8ff" points="127.35,-419.5 117.35,-423 127.35,-426.5 127.35,-419.5"/>
</g>
<!-- Node5 -->
<g id="node5" class="node">
<title>Node5</title>
<g id="a_node5"><a xlink:href="interfaceSCR__ScenarioFrameworkInventoryLoaderClass.html" target="_top" xlink:title=" ">
<polygon fill="white" stroke="#666666" points="695,-582 528,-582 528,-552 695,-552 695,-582"/>
<text text-anchor="start" x="536" y="-570" font-family="Helvetica,sans-Serif" font-size="10.00">SCR_ScenarioFrameworkInventory</text>
<text text-anchor="middle" x="611.5" y="-559" font-family="Helvetica,sans-Serif" font-size="10.00">LoaderClass</text>
</a>
</g>
</g>
<!-- Node4&#45;&gt;Node5 -->
<g id="edge4" class="edge">
<title>Node4&#45;&gt;Node5</title>
<path fill="none" stroke="#63b8ff" d="M489.32,-444.61C490.24,-445.38 491.13,-446.18 492,-447 525,-478.42 494.58,-512.02 528,-543 531.61,-546.35 535.66,-549.23 539.98,-551.71"/>
<polygon fill="#63b8ff" stroke="#63b8ff" points="491.63,-441.26 481.43,-438.4 487.62,-447 491.63,-441.26"/>
</g>
<!-- Node6 -->
<g id="node6" class="node">
<title>Node6</title>
<g id="a_node6"><a xlink:href="interfaceSCR__ScenarioFrameworkLayerTaskClearAreaClass.html" target="_top" xlink:title=" ">
<polygon fill="white" stroke="#666666" points="687.5,-534 535.5,-534 535.5,-504 687.5,-504 687.5,-534"/>
<text text-anchor="start" x="543.5" y="-522" font-family="Helvetica,sans-Serif" font-size="10.00">SCR_ScenarioFrameworkLayer</text>
<text text-anchor="middle" x="611.5" y="-511" font-family="Helvetica,sans-Serif" font-size="10.00">TaskClearAreaClass</text>
</a>
</g>
</g>
<!-- Node4&#45;&gt;Node6 -->
<g id="edge5" class="edge">
<title>Node4&#45;&gt;Node6</title>
<path fill="none" stroke="#63b8ff" d="M486.68,-443.52C488.51,-444.62 490.29,-445.78 492,-447 513.73,-462.46 506.07,-479.83 528,-495 532.78,-498.31 538.03,-501.17 543.47,-503.64"/>
<polygon fill="#63b8ff" stroke="#63b8ff" points="488.65,-440.07 478.18,-438.47 485.37,-446.26 488.65,-440.07"/>
</g>
<!-- Node7 -->
<g id="node7" class="node">
<title>Node7</title>
<g id="a_node7"><a xlink:href="interfaceSCR__ScenarioFrameworkLayerTaskDefendClass.html" target="_top" xlink:title=" ">
<polygon fill="white" stroke="#666666" points="687.5,-486 535.5,-486 535.5,-456 687.5,-456 687.5,-486"/>
<text text-anchor="start" x="543.5" y="-474" font-family="Helvetica,sans-Serif" font-size="10.00">SCR_ScenarioFrameworkLayer</text>
<text text-anchor="middle" x="611.5" y="-463" font-family="Helvetica,sans-Serif" font-size="10.00">TaskDefendClass</text>
</a>
</g>
</g>
<!-- Node4&#45;&gt;Node7 -->
<g id="edge6" class="edge">
<title>Node4&#45;&gt;Node7</title>
<path fill="none" stroke="#63b8ff" d="M489.83,-441.07C509.09,-445.84 529.69,-450.95 548.33,-455.58"/>
<polygon fill="#63b8ff" stroke="#63b8ff" points="490.84,-437.46 480.29,-438.45 489.15,-444.26 490.84,-437.46"/>
</g>
<!-- Node8 -->
<g id="node8" class="node">
<title>Node8</title>
<g id="a_node8"><a xlink:href="interfaceSCR__ScenarioFrameworkLayerTaskDeliverClass.html" target="_top" xlink:title=" ">
<polygon fill="white" stroke="#666666" points="687.5,-438 535.5,-438 535.5,-408 687.5,-408 687.5,-438"/>
<text text-anchor="start" x="543.5" y="-426" font-family="Helvetica,sans-Serif" font-size="10.00">SCR_ScenarioFrameworkLayer</text>
<text text-anchor="middle" x="611.5" y="-415" font-family="Helvetica,sans-Serif" font-size="10.00">TaskDeliverClass</text>
</a>
</g>
</g>
<!-- Node4&#45;&gt;Node8 -->
<g id="edge7" class="edge">
<title>Node4&#45;&gt;Node8</title>
<path fill="none" stroke="#63b8ff" d="M503.3,-423C513.88,-423 524.62,-423 535.02,-423"/>
<polygon fill="#63b8ff" stroke="#63b8ff" points="503.37,-419.5 493.37,-423 503.37,-426.5 503.37,-419.5"/>
</g>
<!-- Node9 -->
<g id="node9" class="node">
<title>Node9</title>
<g id="a_node9"><a xlink:href="interfaceSCR__ScenarioFrameworkLayerTaskDestroyClass.html" target="_top" xlink:title=" ">
<polygon fill="white" stroke="#666666" points="687.5,-390 535.5,-390 535.5,-360 687.5,-360 687.5,-390"/>
<text text-anchor="start" x="543.5" y="-378" font-family="Helvetica,sans-Serif" font-size="10.00">SCR_ScenarioFrameworkLayer</text>
<text text-anchor="middle" x="611.5" y="-367" font-family="Helvetica,sans-Serif" font-size="10.00">TaskDestroyClass</text>
</a>
</g>
</g>
<!-- Node4&#45;&gt;Node9 -->
<g id="edge8" class="edge">
<title>Node4&#45;&gt;Node9</title>
<path fill="none" stroke="#63b8ff" d="M489.83,-404.93C509.09,-400.16 529.69,-395.05 548.33,-390.42"/>
<polygon fill="#63b8ff" stroke="#63b8ff" points="489.15,-401.74 480.29,-407.55 490.84,-408.54 489.15,-401.74"/>
</g>
<!-- Node10 -->
<g id="node10" class="node">
<title>Node10</title>
<g id="a_node10"><a xlink:href="interfaceSCR__ScenarioFrameworkLayerTaskKillClass.html" target="_top" xlink:title=" ">
<polygon fill="white" stroke="#666666" points="687.5,-342 535.5,-342 535.5,-312 687.5,-312 687.5,-342"/>
<text text-anchor="start" x="543.5" y="-330" font-family="Helvetica,sans-Serif" font-size="10.00">SCR_ScenarioFrameworkLayer</text>
<text text-anchor="middle" x="611.5" y="-319" font-family="Helvetica,sans-Serif" font-size="10.00">TaskKillClass</text>
</a>
</g>
</g>
<!-- Node4&#45;&gt;Node10 -->
<g id="edge9" class="edge">
<title>Node4&#45;&gt;Node10</title>
<path fill="none" stroke="#63b8ff" d="M445.5,-401.17C467.16,-385.43 498.21,-364.63 528,-351 534.92,-347.83 542.35,-344.98 549.83,-342.43"/>
<polygon fill="#63b8ff" stroke="#63b8ff" points="443.79,-398.81 437.82,-407.57 447.95,-404.45 443.79,-398.81"/>
</g>
<!-- Node12 -->
<g id="node12" class="node">
<title>Node12</title>
<g id="a_node12"><a xlink:href="interfaceSCR__ScenarioFrameworkSlotAIClass.html" target="_top" xlink:title=" ">
<polygon fill="white" stroke="#666666" points="684.5,-294 538.5,-294 538.5,-264 684.5,-264 684.5,-294"/>
<text text-anchor="start" x="546.5" y="-282" font-family="Helvetica,sans-Serif" font-size="10.00">SCR_ScenarioFrameworkSlot</text>
<text text-anchor="middle" x="611.5" y="-271" font-family="Helvetica,sans-Serif" font-size="10.00">AIClass</text>
</a>
</g>
</g>
<!-- Node11&#45;&gt;Node12 -->
<g id="edge11" class="edge">
<title>Node11&#45;&gt;Node12</title>
<path fill="none" stroke="#63b8ff" d="M459.54,-226.88C480,-236.06 505.02,-246.72 528,-255 536.28,-257.98 545.13,-260.86 553.84,-263.53"/>
<polygon fill="#63b8ff" stroke="#63b8ff" points="461.15,-223.31 450.59,-222.38 458.26,-229.69 461.15,-223.31"/>
</g>
<!-- Node14 -->
<g id="node14" class="node">
<title>Node14</title>
<g id="a_node14"><a xlink:href="interfaceSCR__ScenarioFrameworkSlotMarkerClass.html" target="_top" xlink:title=" ">
<polygon fill="white" stroke="#666666" points="684.5,-246 538.5,-246 538.5,-216 684.5,-216 684.5,-246"/>
<text text-anchor="start" x="546.5" y="-234" font-family="Helvetica,sans-Serif" font-size="10.00">SCR_ScenarioFrameworkSlot</text>
<text text-anchor="middle" x="611.5" y="-223" font-family="Helvetica,sans-Serif" font-size="10.00">MarkerClass</text>
</a>
</g>
</g>
<!-- Node11&#45;&gt;Node14 -->
<g id="edge13" class="edge">
<title>Node11&#45;&gt;Node14</title>
<path fill="none" stroke="#63b8ff" d="M499.94,-217.29C512.69,-218.87 525.77,-220.49 538.26,-222.04"/>
<polygon fill="#63b8ff" stroke="#63b8ff" points="500.68,-213.73 490.33,-215.97 499.82,-220.68 500.68,-213.73"/>
</g>
<!-- Node15 -->
<g id="node15" class="node">
<title>Node15</title>
<g id="a_node15"><a xlink:href="interfaceSCR__ScenarioFrameworkSlotTaskClass.html" target="_top" xlink:title=" ">
<polygon fill="white" stroke="#666666" points="684.5,-198 538.5,-198 538.5,-168 684.5,-168 684.5,-198"/>
<text text-anchor="start" x="546.5" y="-186" font-family="Helvetica,sans-Serif" font-size="10.00">SCR_ScenarioFrameworkSlot</text>
<text text-anchor="middle" x="611.5" y="-175" font-family="Helvetica,sans-Serif" font-size="10.00">TaskClass</text>
</a>
</g>
</g>
<!-- Node11&#45;&gt;Node15 -->
<g id="edge14" class="edge">
<title>Node11&#45;&gt;Node15</title>
<path fill="none" stroke="#63b8ff" d="M499.94,-196.71C512.69,-195.13 525.77,-193.51 538.26,-191.96"/>
<polygon fill="#63b8ff" stroke="#63b8ff" points="499.82,-193.32 490.33,-198.03 500.68,-200.27 499.82,-193.32"/>
</g>
<!-- Node24 -->
<g id="node24" class="node">
<title>Node24</title>
<g id="a_node24"><a xlink:href="interfaceSCR__ScenarioFrameworkSlotTriggerClass.html" target="_top" xlink:title=" ">
<polygon fill="white" stroke="#666666" points="684.5,-150 538.5,-150 538.5,-120 684.5,-120 684.5,-150"/>
<text text-anchor="start" x="546.5" y="-138" font-family="Helvetica,sans-Serif" font-size="10.00">SCR_ScenarioFrameworkSlot</text>
<text text-anchor="middle" x="611.5" y="-127" font-family="Helvetica,sans-Serif" font-size="10.00">TriggerClass</text>
</a>
</g>
</g>
<!-- Node11&#45;&gt;Node24 -->
<g id="edge23" class="edge">
<title>Node11&#45;&gt;Node24</title>
<path fill="none" stroke="#63b8ff" d="M459.54,-187.12C480,-177.94 505.02,-167.28 528,-159 536.28,-156.02 545.13,-153.14 553.84,-150.47"/>
<polygon fill="#63b8ff" stroke="#63b8ff" points="458.26,-184.31 450.59,-191.62 461.15,-190.69 458.26,-184.31"/>
</g>
<!-- Node25 -->
<g id="node25" class="node">
<title>Node25</title>
<g id="a_node25"><a xlink:href="interfaceSCR__ScenarioFrameworkSlotWaypointClass.html" target="_top" xlink:title=" ">
<polygon fill="white" stroke="#666666" points="684.5,-102 538.5,-102 538.5,-72 684.5,-72 684.5,-102"/>
<text text-anchor="start" x="546.5" y="-90" font-family="Helvetica,sans-Serif" font-size="10.00">SCR_ScenarioFrameworkSlot</text>
<text text-anchor="middle" x="611.5" y="-79" font-family="Helvetica,sans-Serif" font-size="10.00">WaypointClass</text>
</a>
</g>
</g>
<!-- Node11&#45;&gt;Node25 -->
<g id="edge24" class="edge">
<title>Node11&#45;&gt;Node25</title>
<path fill="none" stroke="#63b8ff" d="M437.86,-183.95C458.71,-162.23 492.67,-130.21 528,-111 534.03,-107.72 540.55,-104.85 547.2,-102.34"/>
<polygon fill="#63b8ff" stroke="#63b8ff" points="435.85,-181.05 431.54,-190.73 440.94,-185.85 435.85,-181.05"/>
</g>
<!-- Node13 -->
<g id="node13" class="node">
<title>Node13</title>
<g id="a_node13"><a xlink:href="interfaceSCR__ScenarioFrameworkQRFSlotAIClass.html" target="_top" xlink:title=" ">
<polygon fill="white" stroke="#666666" points="897,-342 731,-342 731,-312 897,-312 897,-342"/>
<text text-anchor="start" x="739" y="-330" font-family="Helvetica,sans-Serif" font-size="10.00">SCR_ScenarioFrameworkQRFSlot</text>
<text text-anchor="middle" x="814" y="-319" font-family="Helvetica,sans-Serif" font-size="10.00">AIClass</text>
</a>
</g>
</g>
<!-- Node12&#45;&gt;Node13 -->
<g id="edge12" class="edge">
<title>Node12&#45;&gt;Node13</title>
<path fill="none" stroke="#63b8ff" d="M687.69,-297C707.72,-301.8 729.18,-306.93 748.58,-311.58"/>
<polygon fill="#63b8ff" stroke="#63b8ff" points="688.58,-293.38 678.04,-294.45 686.95,-300.18 688.58,-293.38"/>
</g>
<!-- Node16 -->
<g id="node16" class="node">
<title>Node16</title>
<g id="a_node16"><a xlink:href="interfaceSCR__ScenarioFrameworkSlotClearAreaClass.html" target="_top" xlink:title=" ">
<polygon fill="white" stroke="#666666" points="887,-294 741,-294 741,-264 887,-264 887,-294"/>
<text text-anchor="start" x="749" y="-282" font-family="Helvetica,sans-Serif" font-size="10.00">SCR_ScenarioFrameworkSlot</text>
<text text-anchor="middle" x="814" y="-271" font-family="Helvetica,sans-Serif" font-size="10.00">ClearAreaClass</text>
</a>
</g>
</g>
<!-- Node15&#45;&gt;Node16 -->
<g id="edge15" class="edge">
<title>Node15&#45;&gt;Node16</title>
<path fill="none" stroke="#63b8ff" d="M688.96,-203.19C691.04,-204.39 693.06,-205.66 695,-207 716.93,-222.17 709.08,-239.81 731,-255 735.75,-258.3 740.96,-261.14 746.38,-263.6"/>
<polygon fill="#63b8ff" stroke="#63b8ff" points="691.02,-199.8 680.53,-198.36 687.84,-206.03 691.02,-199.8"/>
</g>
<!-- Node17 -->
<g id="node17" class="node">
<title>Node17</title>
<g id="a_node17"><a xlink:href="interfaceSCR__ScenarioFrameworkSlotDeliveryClass.html" target="_top" xlink:title=" ">
<polygon fill="white" stroke="#666666" points="887,-246 741,-246 741,-216 887,-216 887,-246"/>
<text text-anchor="start" x="749" y="-234" font-family="Helvetica,sans-Serif" font-size="10.00">SCR_ScenarioFrameworkSlot</text>
<text text-anchor="middle" x="814" y="-223" font-family="Helvetica,sans-Serif" font-size="10.00">DeliveryClass</text>
</a>
</g>
</g>
<!-- Node15&#45;&gt;Node17 -->
<g id="edge16" class="edge">
<title>Node15&#45;&gt;Node17</title>
<path fill="none" stroke="#63b8ff" d="M687.69,-201C707.72,-205.8 729.18,-210.93 748.58,-215.58"/>
<polygon fill="#63b8ff" stroke="#63b8ff" points="688.58,-197.38 678.04,-198.45 686.95,-204.18 688.58,-197.38"/>
</g>
<!-- Node18 -->
<g id="node18" class="node">
<title>Node18</title>
<g id="a_node18"><a xlink:href="interfaceSCR__ScenarioFrameworkSlotDestroyClass.html" target="_top" xlink:title=" ">
<polygon fill="white" stroke="#666666" points="887,-198 741,-198 741,-168 887,-168 887,-198"/>
<text text-anchor="start" x="749" y="-186" font-family="Helvetica,sans-Serif" font-size="10.00">SCR_ScenarioFrameworkSlot</text>
<text text-anchor="middle" x="814" y="-175" font-family="Helvetica,sans-Serif" font-size="10.00">DestroyClass</text>
</a>
</g>
</g>
<!-- Node15&#45;&gt;Node18 -->
<g id="edge17" class="edge">
<title>Node15&#45;&gt;Node18</title>
<path fill="none" stroke="#63b8ff" d="M695.66,-183C710.62,-183 726.1,-183 740.72,-183"/>
<polygon fill="#63b8ff" stroke="#63b8ff" points="695.89,-179.5 685.89,-183 695.89,-186.5 695.89,-179.5"/>
</g>
<!-- Node19 -->
<g id="node19" class="node">
<title>Node19</title>
<g id="a_node19"><a xlink:href="interfaceSCR__ScenarioFrameworkSlotExtractionClass.html" target="_top" xlink:title=" ">
<polygon fill="white" stroke="#666666" points="887,-150 741,-150 741,-120 887,-120 887,-150"/>
<text text-anchor="start" x="749" y="-138" font-family="Helvetica,sans-Serif" font-size="10.00">SCR_ScenarioFrameworkSlot</text>
<text text-anchor="middle" x="814" y="-127" font-family="Helvetica,sans-Serif" font-size="10.00">ExtractionClass</text>
</a>
</g>
</g>
<!-- Node15&#45;&gt;Node19 -->
<g id="edge18" class="edge">
<title>Node15&#45;&gt;Node19</title>
<path fill="none" stroke="#63b8ff" d="M687.69,-165C707.72,-160.2 729.18,-155.07 748.58,-150.42"/>
<polygon fill="#63b8ff" stroke="#63b8ff" points="686.95,-161.82 678.04,-167.55 688.58,-168.62 686.95,-161.82"/>
</g>
<!-- Node20 -->
<g id="node20" class="node">
<title>Node20</title>
<g id="a_node20"><a xlink:href="interfaceSCR__ScenarioFrameworkSlotPickClass.html" target="_top" xlink:title=" ">
<polygon fill="white" stroke="#666666" points="887,-102 741,-102 741,-72 887,-72 887,-102"/>
<text text-anchor="start" x="749" y="-90" font-family="Helvetica,sans-Serif" font-size="10.00">SCR_ScenarioFrameworkSlot</text>
<text text-anchor="middle" x="814" y="-79" font-family="Helvetica,sans-Serif" font-size="10.00">PickClass</text>
</a>
</g>
</g>
<!-- Node15&#45;&gt;Node20 -->
<g id="edge19" class="edge">
<title>Node15&#45;&gt;Node20</title>
<path fill="none" stroke="#63b8ff" d="M688.96,-162.81C691.04,-161.61 693.06,-160.34 695,-159 716.93,-143.83 709.08,-126.19 731,-111 735.75,-107.7 740.96,-104.86 746.38,-102.4"/>
<polygon fill="#63b8ff" stroke="#63b8ff" points="687.84,-159.97 680.53,-167.64 691.02,-166.2 687.84,-159.97"/>
</g>
<!-- Node21 -->
<g id="node21" class="node">
<title>Node21</title>
<g id="a_node21"><a xlink:href="interfaceSCR__ScenarioFrameworkSlotTaskAIClass.html" target="_top" xlink:title=" ">
<polygon fill="white" stroke="#666666" points="887,-54 741,-54 741,-24 887,-24 887,-54"/>
<text text-anchor="start" x="749" y="-42" font-family="Helvetica,sans-Serif" font-size="10.00">SCR_ScenarioFrameworkSlot</text>
<text text-anchor="middle" x="814" y="-31" font-family="Helvetica,sans-Serif" font-size="10.00">TaskAIClass</text>
</a>
</g>
</g>
<!-- Node15&#45;&gt;Node21 -->
<g id="edge20" class="edge">
<title>Node15&#45;&gt;Node21</title>
<path fill="none" stroke="#63b8ff" d="M691.85,-161.71C692.93,-160.85 693.98,-159.94 695,-159 728.42,-128.02 697.61,-94.01 731,-63 734.59,-59.67 738.61,-56.8 742.9,-54.32"/>
<polygon fill="#63b8ff" stroke="#63b8ff" points="690.33,-159.2 684.02,-167.71 694.26,-164.99 690.33,-159.2"/>
</g>
<!-- Node22 -->
<g id="node22" class="node">
<title>Node22</title>
<g id="a_node22"><a xlink:href="interfaceSCR__ScenarioFrameworkSlotDefendClass.html" target="_top" xlink:title=" ">
<polygon fill="white" stroke="#666666" points="1079,-78 933,-78 933,-48 1079,-48 1079,-78"/>
<text text-anchor="start" x="941" y="-66" font-family="Helvetica,sans-Serif" font-size="10.00">SCR_ScenarioFrameworkSlot</text>
<text text-anchor="middle" x="1006" y="-55" font-family="Helvetica,sans-Serif" font-size="10.00">DefendClass</text>
</a>
</g>
</g>
<!-- Node21&#45;&gt;Node22 -->
<g id="edge21" class="edge">
<title>Node21&#45;&gt;Node22</title>
<path fill="none" stroke="#63b8ff" d="M898.23,-49.51C909.65,-50.96 921.31,-52.43 932.51,-53.84"/>
<polygon fill="#63b8ff" stroke="#63b8ff" points="898.73,-45.92 888.37,-48.14 897.86,-52.87 898.73,-45.92"/>
</g>
<!-- Node23 -->
<g id="node23" class="node">
<title>Node23</title>
<g id="a_node23"><a xlink:href="interfaceSCR__ScenarioFrameworkSlotKillClass.html" target="_top" xlink:title=" ">
<polygon fill="white" stroke="#666666" points="1079,-30 933,-30 933,0 1079,0 1079,-30"/>
<text text-anchor="start" x="941" y="-18" font-family="Helvetica,sans-Serif" font-size="10.00">SCR_ScenarioFrameworkSlot</text>
<text text-anchor="middle" x="1006" y="-7" font-family="Helvetica,sans-Serif" font-size="10.00">KillClass</text>
</a>
</g>
</g>
<!-- Node21&#45;&gt;Node23 -->
<g id="edge22" class="edge">
<title>Node21&#45;&gt;Node23</title>
<path fill="none" stroke="#63b8ff" d="M898.23,-28.49C909.65,-27.04 921.31,-25.57 932.51,-24.16"/>
<polygon fill="#63b8ff" stroke="#63b8ff" points="897.86,-25.13 888.37,-29.86 898.73,-32.08 897.86,-25.13"/>
</g>
</g>
</svg>
