<?xml version="1.0" encoding="UTF-8" standalone="no"?>
<!DOCTYPE svg PUBLIC "-//W3C//DTD SVG 1.1//EN"
 "http://www.w3.org/Graphics/SVG/1.1/DTD/svg11.dtd">
<!-- Generated by graphviz version 8.0.2 (20230410.1723)
 -->
<!-- Title: SCR_WaypointBaseCommandAction Pages: 1 -->
<svg width="186pt" height="247pt"
 viewBox="0.00 0.00 186.00 247.00" xmlns="http://www.w3.org/2000/svg" xmlns:xlink="http://www.w3.org/1999/xlink">
<g id="graph0" class="graph" transform="scale(1 1) rotate(0) translate(4 243)">
<title>SCR_WaypointBaseCommandAction</title>
<!-- Node1 -->
<g id="node1" class="node">
<title>Node1</title>
<g id="a_node1"><a xlink:title=" ">
<polygon fill="#999999" stroke="#666666" points="178,-19 0,-19 0,0 178,0 178,-19"/>
<text text-anchor="middle" x="89" y="-7" font-family="Helvetica,sans-Serif" font-size="10.00">SCR_WaypointBaseCommandAction</text>
</a>
</g>
</g>
<!-- Node2 -->
<g id="node2" class="node">
<title>Node2</title>
<g id="a_node2"><a xlink:href="interfaceSCR__BaseCommandAction.html" target="_top" xlink:title=" ">
<polygon fill="white" stroke="#666666" points="157.5,-74 20.5,-74 20.5,-55 157.5,-55 157.5,-74"/>
<text text-anchor="middle" x="89" y="-62" font-family="Helvetica,sans-Serif" font-size="10.00">SCR_BaseCommandAction</text>
</a>
</g>
</g>
<!-- Node2&#45;&gt;Node1 -->
<g id="edge1" class="edge">
<title>Node2&#45;&gt;Node1</title>
<path fill="none" stroke="#63b8ff" d="M89,-43.93C89,-35.53 89,-26.13 89,-19.44"/>
<polygon fill="#63b8ff" stroke="#63b8ff" points="85.5,-43.75 89,-53.75 92.5,-43.75 85.5,-43.75"/>
</g>
<!-- Node3 -->
<g id="node3" class="node">
<title>Node3</title>
<g id="a_node3"><a xlink:href="interfaceSCR__BaseToggleToolbarAction.html" target="_top" xlink:title=" ">
<polygon fill="white" stroke="#666666" points="165,-129 13,-129 13,-110 165,-110 165,-129"/>
<text text-anchor="middle" x="89" y="-117" font-family="Helvetica,sans-Serif" font-size="10.00">SCR_BaseToggleToolbarAction</text>
</a>
</g>
</g>
<!-- Node3&#45;&gt;Node2 -->
<g id="edge2" class="edge">
<title>Node3&#45;&gt;Node2</title>
<path fill="none" stroke="#63b8ff" d="M89,-98.93C89,-90.53 89,-81.13 89,-74.44"/>
<polygon fill="#63b8ff" stroke="#63b8ff" points="85.5,-98.75 89,-108.75 92.5,-98.75 85.5,-98.75"/>
</g>
<!-- Node4 -->
<g id="node4" class="node">
<title>Node4</title>
<g id="a_node4"><a xlink:href="interfaceSCR__EditorToolbarAction.html" target="_top" xlink:title=" ">
<polygon fill="white" stroke="#666666" points="152.5,-184 25.5,-184 25.5,-165 152.5,-165 152.5,-184"/>
<text text-anchor="middle" x="89" y="-172" font-family="Helvetica,sans-Serif" font-size="10.00">SCR_EditorToolbarAction</text>
</a>
</g>
</g>
<!-- Node4&#45;&gt;Node3 -->
<g id="edge3" class="edge">
<title>Node4&#45;&gt;Node3</title>
<path fill="none" stroke="#63b8ff" d="M89,-153.93C89,-145.53 89,-136.13 89,-129.44"/>
<polygon fill="#63b8ff" stroke="#63b8ff" points="85.5,-153.75 89,-163.75 92.5,-153.75 85.5,-153.75"/>
</g>
<!-- Node5 -->
<g id="node5" class="node">
<title>Node5</title>
<g id="a_node5"><a xlink:href="interfaceSCR__BaseEditorAction.html" target="_top" xlink:title="Base container class for all editor action types (ContextActions, WaypointActions,...">
<polygon fill="white" stroke="#666666" points="148,-239 30,-239 30,-220 148,-220 148,-239"/>
<text text-anchor="middle" x="89" y="-227" font-family="Helvetica,sans-Serif" font-size="10.00">SCR_BaseEditorAction</text>
</a>
</g>
</g>
<!-- Node5&#45;&gt;Node4 -->
<g id="edge4" class="edge">
<title>Node5&#45;&gt;Node4</title>
<path fill="none" stroke="#63b8ff" d="M89,-208.93C89,-200.53 89,-191.13 89,-184.44"/>
<polygon fill="#63b8ff" stroke="#63b8ff" points="85.5,-208.75 89,-218.75 92.5,-208.75 85.5,-208.75"/>
</g>
</g>
</svg>
