<?xml version="1.0" encoding="UTF-8" standalone="no"?>
<!DOCTYPE svg PUBLIC "-//W3C//DTD SVG 1.1//EN"
 "http://www.w3.org/Graphics/SVG/1.1/DTD/svg11.dtd">
<!-- Generated by graphviz version 8.0.2 (20230410.1723)
 -->
<!-- Title: SCR_ArsenalWeaponRackEquipmentEditorAttribute Pages: 1 -->
<svg width="188pt" height="390pt"
 viewBox="0.00 0.00 188.00 390.00" xmlns="http://www.w3.org/2000/svg" xmlns:xlink="http://www.w3.org/1999/xlink">
<g id="graph0" class="graph" transform="scale(1 1) rotate(0) translate(4 386)">
<title>SCR_ArsenalWeaponRackEquipmentEditorAttribute</title>
<!-- Node1 -->
<g id="node1" class="node">
<title>Node1</title>
<g id="a_node1"><a xlink:title=" ">
<polygon fill="#999999" stroke="#666666" points="180,-30 0,-30 0,0 180,0 180,-30"/>
<text text-anchor="start" x="8" y="-18" font-family="Helvetica,sans-Serif" font-size="10.00">SCR_ArsenalWeaponRackEquipment</text>
<text text-anchor="middle" x="90" y="-7" font-family="Helvetica,sans-Serif" font-size="10.00">EditorAttribute</text>
</a>
</g>
</g>
<!-- Node2 -->
<g id="node2" class="node">
<title>Node2</title>
<g id="a_node2"><a xlink:href="interfaceSCR__ArsenalBaseEditorAttribute.html" target="_top" xlink:title=" ">
<polygon fill="white" stroke="#666666" points="170,-85 10,-85 10,-66 170,-66 170,-85"/>
<text text-anchor="middle" x="90" y="-73" font-family="Helvetica,sans-Serif" font-size="10.00">SCR_ArsenalBaseEditorAttribute</text>
</a>
</g>
</g>
<!-- Node2&#45;&gt;Node1 -->
<g id="edge1" class="edge">
<title>Node2&#45;&gt;Node1</title>
<path fill="none" stroke="#63b8ff" d="M90,-55.08C90,-46.92 90,-37.6 90,-30.11"/>
<polygon fill="#63b8ff" stroke="#63b8ff" points="86.5,-54.87 90,-64.87 93.5,-54.87 86.5,-54.87"/>
</g>
<!-- Node3 -->
<g id="node3" class="node">
<title>Node3</title>
<g id="a_node3"><a xlink:href="interfaceSCR__LoadoutBaseEditorAttribute.html" target="_top" xlink:title=" ">
<polygon fill="white" stroke="#666666" points="170.5,-140 9.5,-140 9.5,-121 170.5,-121 170.5,-140"/>
<text text-anchor="middle" x="90" y="-128" font-family="Helvetica,sans-Serif" font-size="10.00">SCR_LoadoutBaseEditorAttribute</text>
</a>
</g>
</g>
<!-- Node3&#45;&gt;Node2 -->
<g id="edge2" class="edge">
<title>Node3&#45;&gt;Node2</title>
<path fill="none" stroke="#63b8ff" d="M90,-109.93C90,-101.53 90,-92.13 90,-85.44"/>
<polygon fill="#63b8ff" stroke="#63b8ff" points="86.5,-109.75 90,-119.75 93.5,-109.75 86.5,-109.75"/>
</g>
<!-- Node4 -->
<g id="node4" class="node">
<title>Node4</title>
<g id="a_node4"><a xlink:href="interfaceSCR__BaseMultiSelectPresetsEditorAttribute.html" target="_top" xlink:title=" ">
<polygon fill="white" stroke="#666666" points="163.5,-206 16.5,-206 16.5,-176 163.5,-176 163.5,-206"/>
<text text-anchor="start" x="24.5" y="-194" font-family="Helvetica,sans-Serif" font-size="10.00">SCR_BaseMultiSelectPresets</text>
<text text-anchor="middle" x="90" y="-183" font-family="Helvetica,sans-Serif" font-size="10.00">EditorAttribute</text>
</a>
</g>
</g>
<!-- Node4&#45;&gt;Node3 -->
<g id="edge3" class="edge">
<title>Node4&#45;&gt;Node3</title>
<path fill="none" stroke="#63b8ff" d="M90,-164.59C90,-155.85 90,-146.65 90,-140.18"/>
<polygon fill="#63b8ff" stroke="#63b8ff" points="86.5,-164.54 90,-174.54 93.5,-164.54 86.5,-164.54"/>
</g>
<!-- Node5 -->
<g id="node5" class="node">
<title>Node5</title>
<g id="a_node5"><a xlink:href="interfaceSCR__BasePresetsEditorAttribute.html" target="_top" xlink:title="Attribute base for Name, icon and float value for other attributes to inherent from.">
<polygon fill="white" stroke="#666666" points="170.5,-261 9.5,-261 9.5,-242 170.5,-242 170.5,-261"/>
<text text-anchor="middle" x="90" y="-249" font-family="Helvetica,sans-Serif" font-size="10.00">SCR_BasePresetsEditorAttribute</text>
</a>
</g>
</g>
<!-- Node5&#45;&gt;Node4 -->
<g id="edge4" class="edge">
<title>Node5&#45;&gt;Node4</title>
<path fill="none" stroke="#63b8ff" d="M90,-231.08C90,-222.92 90,-213.6 90,-206.11"/>
<polygon fill="#63b8ff" stroke="#63b8ff" points="86.5,-230.87 90,-240.87 93.5,-230.87 86.5,-230.87"/>
</g>
<!-- Node6 -->
<g id="node6" class="node">
<title>Node6</title>
<g id="a_node6"><a xlink:href="interfaceSCR__BaseFloatValueHolderEditorAttribute.html" target="_top" xlink:title="Attribute base for Name, icon and float value for other attributes to inherent from.">
<polygon fill="white" stroke="#666666" points="159.5,-327 20.5,-327 20.5,-297 159.5,-297 159.5,-327"/>
<text text-anchor="start" x="28.5" y="-315" font-family="Helvetica,sans-Serif" font-size="10.00">SCR_BaseFloatValueHolder</text>
<text text-anchor="middle" x="90" y="-304" font-family="Helvetica,sans-Serif" font-size="10.00">EditorAttribute</text>
</a>
</g>
</g>
<!-- Node6&#45;&gt;Node5 -->
<g id="edge5" class="edge">
<title>Node6&#45;&gt;Node5</title>
<path fill="none" stroke="#63b8ff" d="M90,-285.59C90,-276.85 90,-267.65 90,-261.18"/>
<polygon fill="#63b8ff" stroke="#63b8ff" points="86.5,-285.54 90,-295.54 93.5,-285.54 86.5,-285.54"/>
</g>
<!-- Node7 -->
<g id="node7" class="node">
<title>Node7</title>
<g id="a_node7"><a xlink:href="interfaceSCR__BaseEditorAttribute.html" target="_top" xlink:title="Base Attribute Script for other attributes to inherent from to get and set varriables in Editor Attri...">
<polygon fill="white" stroke="#666666" points="153.5,-382 26.5,-382 26.5,-363 153.5,-363 153.5,-382"/>
<text text-anchor="middle" x="90" y="-370" font-family="Helvetica,sans-Serif" font-size="10.00">SCR_BaseEditorAttribute</text>
</a>
</g>
</g>
<!-- Node7&#45;&gt;Node6 -->
<g id="edge6" class="edge">
<title>Node7&#45;&gt;Node6</title>
<path fill="none" stroke="#63b8ff" d="M90,-352.08C90,-343.92 90,-334.6 90,-327.11"/>
<polygon fill="#63b8ff" stroke="#63b8ff" points="86.5,-351.87 90,-361.87 93.5,-351.87 86.5,-351.87"/>
</g>
</g>
</svg>
