<?xml version="1.0" encoding="UTF-8" standalone="no"?>
<!DOCTYPE svg PUBLIC "-//W3C//DTD SVG 1.1//EN"
 "http://www.w3.org/Graphics/SVG/1.1/DTD/svg11.dtd">
<!-- Generated by graphviz version 8.0.2 (20230410.1723)
 -->
<!-- Title: SCR_AIGetFollowActivityParameters Pages: 1 -->
<svg width="184pt" height="192pt"
 viewBox="0.00 0.00 184.00 192.00" xmlns="http://www.w3.org/2000/svg" xmlns:xlink="http://www.w3.org/1999/xlink">
<g id="graph0" class="graph" transform="scale(1 1) rotate(0) translate(4 188)">
<title>SCR_AIGetFollowActivityParameters</title>
<!-- Node1 -->
<g id="node1" class="node">
<title>Node1</title>
<g id="a_node1"><a xlink:title=" ">
<polygon fill="#999999" stroke="#666666" points="176,-19 0,-19 0,0 176,0 176,-19"/>
<text text-anchor="middle" x="88" y="-7" font-family="Helvetica,sans-Serif" font-size="10.00">SCR_AIGetFollowActivityParameters</text>
</a>
</g>
</g>
<!-- Node2 -->
<g id="node2" class="node">
<title>Node2</title>
<g id="a_node2"><a xlink:href="interfaceSCR__AIGetActionParameters.html" target="_top" xlink:title="Base class of node which outputs action parameters to Behavior Tree variables.">
<polygon fill="white" stroke="#666666" points="160.5,-74 15.5,-74 15.5,-55 160.5,-55 160.5,-74"/>
<text text-anchor="middle" x="88" y="-62" font-family="Helvetica,sans-Serif" font-size="10.00">SCR_AIGetActionParameters</text>
</a>
</g>
</g>
<!-- Node2&#45;&gt;Node1 -->
<g id="edge1" class="edge">
<title>Node2&#45;&gt;Node1</title>
<path fill="none" stroke="#63b8ff" d="M88,-43.93C88,-35.53 88,-26.13 88,-19.44"/>
<polygon fill="#63b8ff" stroke="#63b8ff" points="84.5,-43.75 88,-53.75 91.5,-43.75 84.5,-43.75"/>
</g>
<!-- Node3 -->
<g id="node3" class="node">
<title>Node3</title>
<g id="a_node3"><a xlink:href="interfaceSCR__AIActionTask.html" target="_top" xlink:title=" ">
<polygon fill="white" stroke="#666666" points="138,-129 38,-129 38,-110 138,-110 138,-129"/>
<text text-anchor="middle" x="88" y="-117" font-family="Helvetica,sans-Serif" font-size="10.00">SCR_AIActionTask</text>
</a>
</g>
</g>
<!-- Node3&#45;&gt;Node2 -->
<g id="edge2" class="edge">
<title>Node3&#45;&gt;Node2</title>
<path fill="none" stroke="#63b8ff" d="M88,-98.93C88,-90.53 88,-81.13 88,-74.44"/>
<polygon fill="#63b8ff" stroke="#63b8ff" points="84.5,-98.75 88,-108.75 91.5,-98.75 84.5,-98.75"/>
</g>
<!-- Node4 -->
<g id="node4" class="node">
<title>Node4</title>
<g id="a_node4"><a xlink:title=" ">
<polygon fill="white" stroke="#666666" points="129.5,-184 46.5,-184 46.5,-165 129.5,-165 129.5,-184"/>
<text text-anchor="middle" x="88" y="-172" font-family="Helvetica,sans-Serif" font-size="10.00">AITaskScripted</text>
</a>
</g>
</g>
<!-- Node4&#45;&gt;Node3 -->
<g id="edge3" class="edge">
<title>Node4&#45;&gt;Node3</title>
<path fill="none" stroke="#63b8ff" d="M88,-153.93C88,-145.53 88,-136.13 88,-129.44"/>
<polygon fill="#63b8ff" stroke="#63b8ff" points="84.5,-153.75 88,-163.75 91.5,-153.75 84.5,-153.75"/>
</g>
</g>
</svg>
