<?xml version="1.0" encoding="UTF-8" standalone="no"?>
<!DOCTYPE svg PUBLIC "-//W3C//DTD SVG 1.1//EN"
 "http://www.w3.org/Graphics/SVG/1.1/DTD/svg11.dtd">
<!-- Generated by graphviz version 8.0.2 (20230410.1723)
 -->
<!-- Title: SCR_SetEnableDamageEditorAttribute Pages: 1 -->
<svg width="908pt" height="134pt"
 viewBox="0.00 0.00 908.00 134.00" xmlns="http://www.w3.org/2000/svg" xmlns:xlink="http://www.w3.org/1999/xlink">
<g id="graph0" class="graph" transform="scale(1 1) rotate(0) translate(4 130)">
<title>SCR_SetEnableDamageEditorAttribute</title>
<!-- Node1 -->
<g id="node1" class="node">
<title>Node1</title>
<g id="a_node1"><a xlink:title=" ">
<polygon fill="#999999" stroke="#666666" points="699,-78 550,-78 550,-48 699,-48 699,-78"/>
<text text-anchor="start" x="558" y="-66" font-family="Helvetica,sans-Serif" font-size="10.00">SCR_SetEnableDamageEditor</text>
<text text-anchor="middle" x="624.5" y="-55" font-family="Helvetica,sans-Serif" font-size="10.00">Attribute</text>
</a>
</g>
</g>
<!-- Node5 -->
<g id="node5" class="node">
<title>Node5</title>
<g id="a_node5"><a xlink:href="interfaceSCR__SetEnableDamageCharacterEditorAttribute.html" target="_top" xlink:title=" ">
<polygon fill="white" stroke="#666666" points="900,-126 735,-126 735,-96 900,-96 900,-126"/>
<text text-anchor="start" x="743" y="-114" font-family="Helvetica,sans-Serif" font-size="10.00">SCR_SetEnableDamageCharacter</text>
<text text-anchor="middle" x="817.5" y="-103" font-family="Helvetica,sans-Serif" font-size="10.00">EditorAttribute</text>
</a>
</g>
</g>
<!-- Node1&#45;&gt;Node5 -->
<g id="edge4" class="edge">
<title>Node1&#45;&gt;Node5</title>
<path fill="none" stroke="#63b8ff" d="M697.65,-81.13C716.58,-85.89 736.82,-90.98 755.13,-95.58"/>
<polygon fill="#63b8ff" stroke="#63b8ff" points="698.54,-77.49 687.98,-78.45 696.83,-84.28 698.54,-77.49"/>
</g>
<!-- Node6 -->
<g id="node6" class="node">
<title>Node6</title>
<g id="a_node6"><a xlink:href="interfaceSCR__SetEnableDamageOtherEditorAttribute.html" target="_top" xlink:title=" ">
<polygon fill="white" stroke="#666666" points="891,-78 744,-78 744,-48 891,-48 891,-78"/>
<text text-anchor="start" x="752" y="-66" font-family="Helvetica,sans-Serif" font-size="10.00">SCR_SetEnableDamageOther</text>
<text text-anchor="middle" x="817.5" y="-55" font-family="Helvetica,sans-Serif" font-size="10.00">EditorAttribute</text>
</a>
</g>
</g>
<!-- Node1&#45;&gt;Node6 -->
<g id="edge5" class="edge">
<title>Node1&#45;&gt;Node6</title>
<path fill="none" stroke="#63b8ff" d="M710.05,-63C721.31,-63 732.77,-63 743.79,-63"/>
<polygon fill="#63b8ff" stroke="#63b8ff" points="710.35,-59.5 700.35,-63 710.35,-66.5 710.35,-59.5"/>
</g>
<!-- Node7 -->
<g id="node7" class="node">
<title>Node7</title>
<g id="a_node7"><a xlink:href="interfaceSCR__SetEnableDamageVehicleEditorAttribute.html" target="_top" xlink:title=" ">
<polygon fill="white" stroke="#666666" points="895,-30 740,-30 740,0 895,0 895,-30"/>
<text text-anchor="start" x="748" y="-18" font-family="Helvetica,sans-Serif" font-size="10.00">SCR_SetEnableDamageVehicle</text>
<text text-anchor="middle" x="817.5" y="-7" font-family="Helvetica,sans-Serif" font-size="10.00">EditorAttribute</text>
</a>
</g>
</g>
<!-- Node1&#45;&gt;Node7 -->
<g id="edge6" class="edge">
<title>Node1&#45;&gt;Node7</title>
<path fill="none" stroke="#63b8ff" d="M697.65,-44.87C716.58,-40.11 736.82,-35.02 755.13,-30.42"/>
<polygon fill="#63b8ff" stroke="#63b8ff" points="696.83,-41.72 687.98,-47.55 698.54,-48.51 696.83,-41.72"/>
</g>
<!-- Node2 -->
<g id="node2" class="node">
<title>Node2</title>
<g id="a_node2"><a xlink:href="interfaceSCR__ValidTypeBaseValueListEditorAttribute.html" target="_top" xlink:title=" ">
<polygon fill="white" stroke="#666666" points="514,-78 366,-78 366,-48 514,-48 514,-78"/>
<text text-anchor="start" x="374" y="-66" font-family="Helvetica,sans-Serif" font-size="10.00">SCR_ValidTypeBaseValueList</text>
<text text-anchor="middle" x="440" y="-55" font-family="Helvetica,sans-Serif" font-size="10.00">EditorAttribute</text>
</a>
</g>
</g>
<!-- Node2&#45;&gt;Node1 -->
<g id="edge1" class="edge">
<title>Node2&#45;&gt;Node1</title>
<path fill="none" stroke="#63b8ff" d="M525.4,-63C533.48,-63 541.64,-63 549.62,-63"/>
<polygon fill="#63b8ff" stroke="#63b8ff" points="525.44,-59.5 515.44,-63 525.44,-66.5 525.44,-59.5"/>
</g>
<!-- Node3 -->
<g id="node3" class="node">
<title>Node3</title>
<g id="a_node3"><a xlink:href="interfaceSCR__BaseValueListEditorAttribute.html" target="_top" xlink:title="Attribute base for slider values for other attributes to inherent from.">
<polygon fill="white" stroke="#666666" points="330,-72.5 163,-72.5 163,-53.5 330,-53.5 330,-72.5"/>
<text text-anchor="middle" x="246.5" y="-60.5" font-family="Helvetica,sans-Serif" font-size="10.00">SCR_BaseValueListEditorAttribute</text>
</a>
</g>
</g>
<!-- Node3&#45;&gt;Node2 -->
<g id="edge2" class="edge">
<title>Node3&#45;&gt;Node2</title>
<path fill="none" stroke="#63b8ff" d="M341.15,-63C349.37,-63 357.61,-63 365.62,-63"/>
<polygon fill="#63b8ff" stroke="#63b8ff" points="341.38,-59.5 331.38,-63 341.38,-66.5 341.38,-59.5"/>
</g>
<!-- Node4 -->
<g id="node4" class="node">
<title>Node4</title>
<g id="a_node4"><a xlink:href="interfaceSCR__BaseEditorAttribute.html" target="_top" xlink:title="Base Attribute Script for other attributes to inherent from to get and set varriables in Editor Attri...">
<polygon fill="white" stroke="#666666" points="127,-72.5 0,-72.5 0,-53.5 127,-53.5 127,-72.5"/>
<text text-anchor="middle" x="63.5" y="-60.5" font-family="Helvetica,sans-Serif" font-size="10.00">SCR_BaseEditorAttribute</text>
</a>
</g>
</g>
<!-- Node4&#45;&gt;Node3 -->
<g id="edge3" class="edge">
<title>Node4&#45;&gt;Node3</title>
<path fill="none" stroke="#63b8ff" d="M138.18,-63C146.27,-63 154.54,-63 162.73,-63"/>
<polygon fill="#63b8ff" stroke="#63b8ff" points="138.3,-59.5 128.3,-63 138.3,-66.5 138.3,-59.5"/>
</g>
</g>
</svg>
