<?xml version="1.0" encoding="UTF-8" standalone="no"?>
<!DOCTYPE svg PUBLIC "-//W3C//DTD SVG 1.1//EN"
 "http://www.w3.org/Graphics/SVG/1.1/DTD/svg11.dtd">
<!-- Generated by graphviz version 8.0.2 (20230410.1723)
 -->
<!-- Title: BaseZeroingGenerator Pages: 1 -->
<svg width="651pt" height="138pt"
 viewBox="0.00 0.00 651.00 138.00" xmlns="http://www.w3.org/2000/svg" xmlns:xlink="http://www.w3.org/1999/xlink">
<g id="graph0" class="graph" transform="scale(1 1) rotate(0) translate(4 134)">
<title>BaseZeroingGenerator</title>
<!-- Node1 -->
<g id="node1" class="node">
<title>Node1</title>
<g id="a_node1"><a xlink:title="BaseZeroingGenerator is an object used for generating zeroing information in Workbench.">
<polygon fill="#999999" stroke="#666666" points="235,-74 122,-74 122,-55 235,-55 235,-74"/>
<text text-anchor="middle" x="178.5" y="-62" font-family="Helvetica,sans-Serif" font-size="10.00">BaseZeroingGenerator</text>
</a>
</g>
</g>
<!-- Node3 -->
<g id="node3" class="node">
<title>Node3</title>
<g id="a_node3"><a xlink:href="interfaceFrontSightGLZeroingGenerator.html" target="_top" xlink:title=" ">
<polygon fill="white" stroke="#666666" points="427.5,-130 278.5,-130 278.5,-111 427.5,-111 427.5,-130"/>
<text text-anchor="middle" x="353" y="-118" font-family="Helvetica,sans-Serif" font-size="10.00">FrontSightGLZeroingGenerator</text>
</a>
</g>
</g>
<!-- Node1&#45;&gt;Node3 -->
<g id="edge2" class="edge">
<title>Node1&#45;&gt;Node3</title>
<path fill="none" stroke="#63b8ff" d="M210.24,-78.85C227.77,-86.63 250.3,-95.96 271,-102.5 280.48,-105.5 290.73,-108.18 300.65,-110.51"/>
<polygon fill="#63b8ff" stroke="#63b8ff" points="212.11,-75.4 201.55,-74.48 209.23,-81.78 212.11,-75.4"/>
</g>
<!-- Node4 -->
<g id="node4" class="node">
<title>Node4</title>
<g id="a_node4"><a xlink:href="interfaceRearSightZeroingGenerator.html" target="_top" xlink:title=" ">
<polygon fill="white" stroke="#666666" points="420,-93 286,-93 286,-74 420,-74 420,-93"/>
<text text-anchor="middle" x="353" y="-81" font-family="Helvetica,sans-Serif" font-size="10.00">RearSightZeroingGenerator</text>
</a>
</g>
</g>
<!-- Node1&#45;&gt;Node4 -->
<g id="edge3" class="edge">
<title>Node1&#45;&gt;Node4</title>
<path fill="none" stroke="#63b8ff" d="M245.84,-71.81C258.92,-73.25 272.65,-74.76 285.73,-76.2"/>
<polygon fill="#63b8ff" stroke="#63b8ff" points="246.35,-68.23 236.03,-70.62 245.59,-75.19 246.35,-68.23"/>
</g>
<!-- Node5 -->
<g id="node5" class="node">
<title>Node5</title>
<g id="a_node5"><a xlink:href="interfaceRotatingApertureZeroingGenerator.html" target="_top" xlink:title=" ">
<polygon fill="white" stroke="#666666" points="435,-56 271,-56 271,-37 435,-37 435,-56"/>
<text text-anchor="middle" x="353" y="-44" font-family="Helvetica,sans-Serif" font-size="10.00">RotatingApertureZeroingGenerator</text>
</a>
</g>
</g>
<!-- Node1&#45;&gt;Node5 -->
<g id="edge4" class="edge">
<title>Node1&#45;&gt;Node5</title>
<path fill="none" stroke="#63b8ff" d="M245.86,-57.58C253.93,-56.73 262.25,-55.87 270.51,-55"/>
<polygon fill="#63b8ff" stroke="#63b8ff" points="245.61,-54.19 236.03,-58.71 246.34,-61.15 245.61,-54.19"/>
</g>
<!-- Node6 -->
<g id="node6" class="node">
<title>Node6</title>
<g id="a_node6"><a xlink:href="interfaceScriptedBaseZeroingGenerator.html" target="_top" xlink:title=" ">
<polygon fill="white" stroke="#666666" points="427.5,-19 278.5,-19 278.5,0 427.5,0 427.5,-19"/>
<text text-anchor="middle" x="353" y="-7" font-family="Helvetica,sans-Serif" font-size="10.00">ScriptedBaseZeroingGenerator</text>
</a>
</g>
</g>
<!-- Node1&#45;&gt;Node6 -->
<g id="edge5" class="edge">
<title>Node1&#45;&gt;Node6</title>
<path fill="none" stroke="#63b8ff" d="M210.63,-50.42C228.11,-42.89 250.48,-33.88 271,-27.5 280.63,-24.51 291.05,-21.8 301.11,-19.46"/>
<polygon fill="#63b8ff" stroke="#63b8ff" points="209.71,-47.44 201.95,-54.65 212.51,-53.85 209.71,-47.44"/>
</g>
<!-- Node2 -->
<g id="node2" class="node">
<title>Node2</title>
<g id="a_node2"><a xlink:title=" ">
<polygon fill="white" stroke="#666666" points="86,-74 0,-74 0,-55 86,-55 86,-74"/>
<text text-anchor="middle" x="43" y="-62" font-family="Helvetica,sans-Serif" font-size="10.00">ScriptAndConfig</text>
</a>
</g>
</g>
<!-- Node2&#45;&gt;Node1 -->
<g id="edge1" class="edge">
<title>Node2&#45;&gt;Node1</title>
<path fill="none" stroke="#63b8ff" d="M97.11,-64.5C105.25,-64.5 113.66,-64.5 121.85,-64.5"/>
<polygon fill="#63b8ff" stroke="#63b8ff" points="97.24,-61 87.24,-64.5 97.24,-68 97.24,-61"/>
</g>
<!-- Node7 -->
<g id="node7" class="node">
<title>Node7</title>
<g id="a_node7"><a xlink:href="interfaceSCR__2DPiPScopeZeroingGenerator.html" target="_top" xlink:title=" ">
<polygon fill="white" stroke="#666666" points="643,-19 471,-19 471,0 643,0 643,-19"/>
<text text-anchor="middle" x="557" y="-7" font-family="Helvetica,sans-Serif" font-size="10.00">SCR_2DPiPScopeZeroingGenerator</text>
</a>
</g>
</g>
<!-- Node6&#45;&gt;Node7 -->
<g id="edge6" class="edge">
<title>Node6&#45;&gt;Node7</title>
<path fill="none" stroke="#63b8ff" d="M438.72,-9.5C449.32,-9.5 460.17,-9.5 470.78,-9.5"/>
<polygon fill="#63b8ff" stroke="#63b8ff" points="438.78,-6 428.78,-9.5 438.78,-13 438.78,-6"/>
</g>
</g>
</svg>
