<?xml version="1.0" encoding="UTF-8" standalone="no"?>
<!DOCTYPE svg PUBLIC "-//W3C//DTD SVG 1.1//EN"
 "http://www.w3.org/Graphics/SVG/1.1/DTD/svg11.dtd">
<!-- Generated by graphviz version 8.0.2 (20230410.1723)
 -->
<!-- Title: SCR_ArsenalSaveTypeAttribute Pages: 1 -->
<svg width="162pt" height="148pt"
 viewBox="0.00 0.00 162.00 148.00" xmlns="http://www.w3.org/2000/svg" xmlns:xlink="http://www.w3.org/1999/xlink">
<g id="graph0" class="graph" transform="scale(1 1) rotate(0) translate(4 144)">
<title>SCR_ArsenalSaveTypeAttribute</title>
<!-- Node1 -->
<g id="node1" class="node">
<title>Node1</title>
<g id="a_node1"><a xlink:title=" ">
<polygon fill="#999999" stroke="#666666" points="154,-19 0,-19 0,0 154,0 154,-19"/>
<text text-anchor="middle" x="77" y="-7" font-family="Helvetica,sans-Serif" font-size="10.00">SCR_ArsenalSaveTypeAttribute</text>
</a>
</g>
</g>
<!-- Node2 -->
<g id="node2" class="node">
<title>Node2</title>
<g id="a_node2"><a xlink:href="interfaceSCR__BaseFloatValueHolderEditorAttribute.html" target="_top" xlink:title="Attribute base for Name, icon and float value for other attributes to inherent from.">
<polygon fill="white" stroke="#666666" points="146.5,-85 7.5,-85 7.5,-55 146.5,-55 146.5,-85"/>
<text text-anchor="start" x="15.5" y="-73" font-family="Helvetica,sans-Serif" font-size="10.00">SCR_BaseFloatValueHolder</text>
<text text-anchor="middle" x="77" y="-62" font-family="Helvetica,sans-Serif" font-size="10.00">EditorAttribute</text>
</a>
</g>
</g>
<!-- Node2&#45;&gt;Node1 -->
<g id="edge1" class="edge">
<title>Node2&#45;&gt;Node1</title>
<path fill="none" stroke="#63b8ff" d="M77,-43.59C77,-34.85 77,-25.65 77,-19.18"/>
<polygon fill="#63b8ff" stroke="#63b8ff" points="73.5,-43.54 77,-53.54 80.5,-43.54 73.5,-43.54"/>
</g>
<!-- Node3 -->
<g id="node3" class="node">
<title>Node3</title>
<g id="a_node3"><a xlink:href="interfaceSCR__BaseEditorAttribute.html" target="_top" xlink:title="Base Attribute Script for other attributes to inherent from to get and set varriables in Editor Attri...">
<polygon fill="white" stroke="#666666" points="140.5,-140 13.5,-140 13.5,-121 140.5,-121 140.5,-140"/>
<text text-anchor="middle" x="77" y="-128" font-family="Helvetica,sans-Serif" font-size="10.00">SCR_BaseEditorAttribute</text>
</a>
</g>
</g>
<!-- Node3&#45;&gt;Node2 -->
<g id="edge2" class="edge">
<title>Node3&#45;&gt;Node2</title>
<path fill="none" stroke="#63b8ff" d="M77,-110.08C77,-101.92 77,-92.6 77,-85.11"/>
<polygon fill="#63b8ff" stroke="#63b8ff" points="73.5,-109.87 77,-119.87 80.5,-109.87 73.5,-109.87"/>
</g>
</g>
</svg>
