<?xml version="1.0" encoding="UTF-8" standalone="no"?>
<!DOCTYPE svg PUBLIC "-//W3C//DTD SVG 1.1//EN"
 "http://www.w3.org/Graphics/SVG/1.1/DTD/svg11.dtd">
<!-- Generated by graphviz version 8.0.2 (20230410.1723)
 -->
<!-- Title: SCR_ChatMessagePrivate Pages: 1 -->
<svg width="144pt" height="137pt"
 viewBox="0.00 0.00 144.00 137.00" xmlns="http://www.w3.org/2000/svg" xmlns:xlink="http://www.w3.org/1999/xlink">
<g id="graph0" class="graph" transform="scale(1 1) rotate(0) translate(4 133)">
<title>SCR_ChatMessagePrivate</title>
<!-- Node1 -->
<g id="node1" class="node">
<title>Node1</title>
<g id="a_node1"><a xlink:title="Private message Adds a specific receiver ID.">
<polygon fill="#999999" stroke="#666666" points="133.5,-19 2.5,-19 2.5,0 133.5,0 133.5,-19"/>
<text text-anchor="middle" x="68" y="-7" font-family="Helvetica,sans-Serif" font-size="10.00">SCR_ChatMessagePrivate</text>
</a>
</g>
</g>
<!-- Node2 -->
<g id="node2" class="node">
<title>Node2</title>
<g id="a_node2"><a xlink:href="interfaceSCR__ChatMessageGeneral.html" target="_top" xlink:title="Generic messages, used by players: they originate from someone, sometimes directed to someone,...">
<polygon fill="white" stroke="#666666" points="136,-74 0,-74 0,-55 136,-55 136,-74"/>
<text text-anchor="middle" x="68" y="-62" font-family="Helvetica,sans-Serif" font-size="10.00">SCR_ChatMessageGeneral</text>
</a>
</g>
</g>
<!-- Node2&#45;&gt;Node1 -->
<g id="edge1" class="edge">
<title>Node2&#45;&gt;Node1</title>
<path fill="none" stroke="#63b8ff" d="M68,-43.93C68,-35.53 68,-26.13 68,-19.44"/>
<polygon fill="#63b8ff" stroke="#63b8ff" points="64.5,-43.75 68,-53.75 71.5,-43.75 64.5,-43.75"/>
</g>
<!-- Node3 -->
<g id="node3" class="node">
<title>Node3</title>
<g id="a_node3"><a xlink:href="interfaceSCR__ChatMessage.html" target="_top" xlink:title="Classes for chat messages.">
<polygon fill="white" stroke="#666666" points="119,-129 17,-129 17,-110 119,-110 119,-129"/>
<text text-anchor="middle" x="68" y="-117" font-family="Helvetica,sans-Serif" font-size="10.00">SCR_ChatMessage</text>
</a>
</g>
</g>
<!-- Node3&#45;&gt;Node2 -->
<g id="edge2" class="edge">
<title>Node3&#45;&gt;Node2</title>
<path fill="none" stroke="#63b8ff" d="M68,-98.93C68,-90.53 68,-81.13 68,-74.44"/>
<polygon fill="#63b8ff" stroke="#63b8ff" points="64.5,-98.75 68,-108.75 71.5,-98.75 64.5,-98.75"/>
</g>
</g>
</svg>
