<?xml version="1.0" encoding="UTF-8" standalone="no"?>
<!DOCTYPE svg PUBLIC "-//W3C//DTD SVG 1.1//EN"
 "http://www.w3.org/Graphics/SVG/1.1/DTD/svg11.dtd">
<!-- Generated by graphviz version 8.0.2 (20230410.1723)
 -->
<!-- Title: SCR_AIMessage_SeekAndDestroy Pages: 1 -->
<svg width="178pt" height="247pt"
 viewBox="0.00 0.00 178.00 247.00" xmlns="http://www.w3.org/2000/svg" xmlns:xlink="http://www.w3.org/1999/xlink">
<g id="graph0" class="graph" transform="scale(1 1) rotate(0) translate(4 243)">
<title>SCR_AIMessage_SeekAndDestroy</title>
<!-- Node1 -->
<g id="node1" class="node">
<title>Node1</title>
<g id="a_node1"><a xlink:title=" ">
<polygon fill="#999999" stroke="#666666" points="170,-19 0,-19 0,0 170,0 170,-19"/>
<text text-anchor="middle" x="85" y="-7" font-family="Helvetica,sans-Serif" font-size="10.00">SCR_AIMessage_SeekAndDestroy</text>
</a>
</g>
</g>
<!-- Node2 -->
<g id="node2" class="node">
<title>Node2</title>
<g id="a_node2"><a xlink:href="interfaceSCR__AIMessage__Move.html" target="_top" xlink:title=" ">
<polygon fill="white" stroke="#666666" points="144.5,-74 25.5,-74 25.5,-55 144.5,-55 144.5,-74"/>
<text text-anchor="middle" x="85" y="-62" font-family="Helvetica,sans-Serif" font-size="10.00">SCR_AIMessage_Move</text>
</a>
</g>
</g>
<!-- Node2&#45;&gt;Node1 -->
<g id="edge1" class="edge">
<title>Node2&#45;&gt;Node1</title>
<path fill="none" stroke="#63b8ff" d="M85,-43.93C85,-35.53 85,-26.13 85,-19.44"/>
<polygon fill="#63b8ff" stroke="#63b8ff" points="81.5,-43.75 85,-53.75 88.5,-43.75 81.5,-43.75"/>
</g>
<!-- Node3 -->
<g id="node3" class="node">
<title>Node3</title>
<g id="a_node3"><a xlink:href="interfaceSCR__AIMessageGoal.html" target="_top" xlink:title=" ">
<polygon fill="white" stroke="#666666" points="140.5,-129 29.5,-129 29.5,-110 140.5,-110 140.5,-129"/>
<text text-anchor="middle" x="85" y="-117" font-family="Helvetica,sans-Serif" font-size="10.00">SCR_AIMessageGoal</text>
</a>
</g>
</g>
<!-- Node3&#45;&gt;Node2 -->
<g id="edge2" class="edge">
<title>Node3&#45;&gt;Node2</title>
<path fill="none" stroke="#63b8ff" d="M85,-98.93C85,-90.53 85,-81.13 85,-74.44"/>
<polygon fill="#63b8ff" stroke="#63b8ff" points="81.5,-98.75 85,-108.75 88.5,-98.75 81.5,-98.75"/>
</g>
<!-- Node4 -->
<g id="node4" class="node">
<title>Node4</title>
<g id="a_node4"><a xlink:href="interfaceSCR__AIMessageBase.html" target="_top" xlink:title=" ">
<polygon fill="white" stroke="#666666" points="141.5,-184 28.5,-184 28.5,-165 141.5,-165 141.5,-184"/>
<text text-anchor="middle" x="85" y="-172" font-family="Helvetica,sans-Serif" font-size="10.00">SCR_AIMessageBase</text>
</a>
</g>
</g>
<!-- Node4&#45;&gt;Node3 -->
<g id="edge3" class="edge">
<title>Node4&#45;&gt;Node3</title>
<path fill="none" stroke="#63b8ff" d="M85,-153.93C85,-145.53 85,-136.13 85,-129.44"/>
<polygon fill="#63b8ff" stroke="#63b8ff" points="81.5,-153.75 85,-163.75 88.5,-153.75 81.5,-153.75"/>
</g>
<!-- Node5 -->
<g id="node5" class="node">
<title>Node5</title>
<g id="a_node5"><a xlink:title=" ">
<polygon fill="white" stroke="#666666" points="117.5,-239 52.5,-239 52.5,-220 117.5,-220 117.5,-239"/>
<text text-anchor="middle" x="85" y="-227" font-family="Helvetica,sans-Serif" font-size="10.00">AIMessage</text>
</a>
</g>
</g>
<!-- Node5&#45;&gt;Node4 -->
<g id="edge4" class="edge">
<title>Node5&#45;&gt;Node4</title>
<path fill="none" stroke="#63b8ff" d="M85,-208.93C85,-200.53 85,-191.13 85,-184.44"/>
<polygon fill="#63b8ff" stroke="#63b8ff" points="81.5,-208.75 85,-218.75 88.5,-208.75 81.5,-208.75"/>
</g>
</g>
</svg>
