<?xml version="1.0" encoding="UTF-8" standalone="no"?>
<!DOCTYPE svg PUBLIC "-//W3C//DTD SVG 1.1//EN"
 "http://www.w3.org/Graphics/SVG/1.1/DTD/svg11.dtd">
<!-- Generated by graphviz version 8.0.2 (20230410.1723)
 -->
<!-- Title: SCR_GameEndMusic Pages: 1 -->
<svg width="120pt" height="192pt"
 viewBox="0.00 0.00 120.00 192.00" xmlns="http://www.w3.org/2000/svg" xmlns:xlink="http://www.w3.org/1999/xlink">
<g id="graph0" class="graph" transform="scale(1 1) rotate(0) translate(4 188)">
<title>SCR_GameEndMusic</title>
<!-- Node1 -->
<g id="node1" class="node">
<title>Node1</title>
<g id="a_node1"><a xlink:title=" ">
<polygon fill="#999999" stroke="#666666" points="112,-19 0,-19 0,0 112,0 112,-19"/>
<text text-anchor="middle" x="56" y="-7" font-family="Helvetica,sans-Serif" font-size="10.00">SCR_GameEndMusic</text>
</a>
</g>
</g>
<!-- Node2 -->
<g id="node2" class="node">
<title>Node2</title>
<g id="a_node2"><a xlink:href="interfaceScriptedMusic.html" target="_top" xlink:title=" ">
<polygon fill="white" stroke="#666666" points="95.5,-74 16.5,-74 16.5,-55 95.5,-55 95.5,-74"/>
<text text-anchor="middle" x="56" y="-62" font-family="Helvetica,sans-Serif" font-size="10.00">ScriptedMusic</text>
</a>
</g>
</g>
<!-- Node2&#45;&gt;Node1 -->
<g id="edge1" class="edge">
<title>Node2&#45;&gt;Node1</title>
<path fill="none" stroke="#63b8ff" d="M56,-43.93C56,-35.53 56,-26.13 56,-19.44"/>
<polygon fill="#63b8ff" stroke="#63b8ff" points="52.5,-43.75 56,-53.75 59.5,-43.75 52.5,-43.75"/>
</g>
<!-- Node3 -->
<g id="node3" class="node">
<title>Node3</title>
<g id="a_node3"><a xlink:href="interfaceMusic.html" target="_top" xlink:title=" ">
<polygon fill="white" stroke="#666666" points="77.5,-129 34.5,-129 34.5,-110 77.5,-110 77.5,-129"/>
<text text-anchor="middle" x="56" y="-117" font-family="Helvetica,sans-Serif" font-size="10.00">Music</text>
</a>
</g>
</g>
<!-- Node3&#45;&gt;Node2 -->
<g id="edge2" class="edge">
<title>Node3&#45;&gt;Node2</title>
<path fill="none" stroke="#63b8ff" d="M56,-98.93C56,-90.53 56,-81.13 56,-74.44"/>
<polygon fill="#63b8ff" stroke="#63b8ff" points="52.5,-98.75 56,-108.75 59.5,-98.75 52.5,-98.75"/>
</g>
<!-- Node4 -->
<g id="node4" class="node">
<title>Node4</title>
<g id="a_node4"><a xlink:title=" ">
<polygon fill="white" stroke="#666666" points="99,-184 13,-184 13,-165 99,-165 99,-184"/>
<text text-anchor="middle" x="56" y="-172" font-family="Helvetica,sans-Serif" font-size="10.00">ScriptAndConfig</text>
</a>
</g>
</g>
<!-- Node4&#45;&gt;Node3 -->
<g id="edge3" class="edge">
<title>Node4&#45;&gt;Node3</title>
<path fill="none" stroke="#63b8ff" d="M56,-153.93C56,-145.53 56,-136.13 56,-129.44"/>
<polygon fill="#63b8ff" stroke="#63b8ff" points="52.5,-153.75 56,-163.75 59.5,-153.75 52.5,-153.75"/>
</g>
</g>
</svg>
