<?xml version="1.0" encoding="UTF-8" standalone="no"?>
<!DOCTYPE svg PUBLIC "-//W3C//DTD SVG 1.1//EN"
 "http://www.w3.org/Graphics/SVG/1.1/DTD/svg11.dtd">
<!-- Generated by graphviz version 8.0.2 (20230410.1723)
 -->
<!-- Title: SCR_AIReactionBase Pages: 1 -->
<svg width="240pt" height="82pt"
 viewBox="0.00 0.00 240.00 82.00" xmlns="http://www.w3.org/2000/svg" xmlns:xlink="http://www.w3.org/1999/xlink">
<g id="graph0" class="graph" transform="scale(1 1) rotate(0) translate(4 78)">
<title>SCR_AIReactionBase</title>
<!-- Node1 -->
<g id="node1" class="node">
<title>Node1</title>
<g id="a_node1"><a xlink:title=" ">
<polygon fill="#999999" stroke="#666666" points="170,-74 58,-74 58,-55 170,-55 170,-74"/>
<text text-anchor="middle" x="114" y="-62" font-family="Helvetica,sans-Serif" font-size="10.00">SCR_AIReactionBase</text>
</a>
</g>
</g>
<!-- Node2 -->
<g id="node2" class="node">
<title>Node2</title>
<g id="a_node2"><a xlink:href="interfaceSCR__AIIdleReaction.html" target="_top" xlink:title=" ">
<polygon fill="white" stroke="#666666" points="104,-19 0,-19 0,0 104,0 104,-19"/>
<text text-anchor="middle" x="52" y="-7" font-family="Helvetica,sans-Serif" font-size="10.00">SCR_AIIdleReaction</text>
</a>
</g>
</g>
<!-- Node1&#45;&gt;Node2 -->
<g id="edge1" class="edge">
<title>Node1&#45;&gt;Node2</title>
<path fill="none" stroke="#63b8ff" d="M95.13,-47.37C84.36,-38.16 71.28,-26.98 62.36,-19.36"/>
<polygon fill="#63b8ff" stroke="#63b8ff" points="92.61,-50.67 102.48,-54.51 97.16,-45.35 92.61,-50.67"/>
</g>
<!-- Node3 -->
<g id="node3" class="node">
<title>Node3</title>
<g id="a_node3"><a xlink:href="interfaceSCR__AIWaitReaction.html" target="_top" xlink:title=" ">
<polygon fill="white" stroke="#666666" points="232,-19 122,-19 122,0 232,0 232,-19"/>
<text text-anchor="middle" x="177" y="-7" font-family="Helvetica,sans-Serif" font-size="10.00">SCR_AIWaitReaction</text>
</a>
</g>
</g>
<!-- Node1&#45;&gt;Node3 -->
<g id="edge2" class="edge">
<title>Node1&#45;&gt;Node3</title>
<path fill="none" stroke="#63b8ff" d="M132.85,-47.64C143.85,-38.39 157.32,-27.05 166.47,-19.36"/>
<polygon fill="#63b8ff" stroke="#63b8ff" points="131.09,-45.39 125.69,-54.51 135.59,-50.75 131.09,-45.39"/>
</g>
</g>
</svg>
