<?xml version="1.0" encoding="UTF-8" standalone="no"?>
<!DOCTYPE svg PUBLIC "-//W3C//DTD SVG 1.1//EN"
 "http://www.w3.org/Graphics/SVG/1.1/DTD/svg11.dtd">
<!-- Generated by graphviz version 8.0.2 (20230410.1723)
 -->
<!-- Title: AttachmentMuzzle Pages: 1 -->
<svg width="695pt" height="286pt"
 viewBox="0.00 0.00 695.00 286.00" xmlns="http://www.w3.org/2000/svg" xmlns:xlink="http://www.w3.org/1999/xlink">
<g id="graph0" class="graph" transform="scale(1 1) rotate(0) translate(4 282)">
<title>AttachmentMuzzle</title>
<!-- Node1 -->
<g id="node1" class="node">
<title>Node1</title>
<g id="a_node1"><a xlink:title=" ">
<polygon fill="#999999" stroke="#666666" points="366,-167 268,-167 268,-148 366,-148 366,-167"/>
<text text-anchor="middle" x="317" y="-155" font-family="Helvetica,sans-Serif" font-size="10.00">AttachmentMuzzle</text>
</a>
</g>
</g>
<!-- Node4 -->
<g id="node4" class="node">
<title>Node4</title>
<g id="a_node4"><a xlink:href="interfaceAttachmentMuzzle308.html" target="_top" xlink:title=" ">
<polygon fill="white" stroke="#666666" points="524,-278 410,-278 410,-259 524,-259 524,-278"/>
<text text-anchor="middle" x="467" y="-266" font-family="Helvetica,sans-Serif" font-size="10.00">AttachmentMuzzle308</text>
</a>
</g>
</g>
<!-- Node1&#45;&gt;Node4 -->
<g id="edge3" class="edge">
<title>Node1&#45;&gt;Node4</title>
<path fill="none" stroke="#63b8ff" d="M330.08,-176.28C344.63,-197.41 371.04,-231.29 402,-250.5 407.2,-253.72 412.99,-256.39 418.9,-258.58"/>
<polygon fill="#63b8ff" stroke="#63b8ff" points="332.55,-174.68 324.08,-168.31 326.73,-178.57 332.55,-174.68"/>
</g>
<!-- Node5 -->
<g id="node5" class="node">
<title>Node5</title>
<g id="a_node5"><a xlink:href="interfaceAttachmentMuzzle545__39.html" target="_top" xlink:title=" ">
<polygon fill="white" stroke="#666666" points="532,-241 402,-241 402,-222 532,-222 532,-241"/>
<text text-anchor="middle" x="467" y="-229" font-family="Helvetica,sans-Serif" font-size="10.00">AttachmentMuzzle545_39</text>
</a>
</g>
</g>
<!-- Node1&#45;&gt;Node5 -->
<g id="edge4" class="edge">
<title>Node1&#45;&gt;Node5</title>
<path fill="none" stroke="#63b8ff" d="M338.33,-173.72C354.71,-186.1 378.76,-202.81 402,-213.5 408.71,-216.59 416.07,-219.26 423.33,-221.52"/>
<polygon fill="#63b8ff" stroke="#63b8ff" points="341.13,-170.69 331.08,-167.35 336.86,-176.23 341.13,-170.69"/>
</g>
<!-- Node6 -->
<g id="node6" class="node">
<title>Node6</title>
<g id="a_node6"><a xlink:href="interfaceAttachmentMuzzle556__45.html" target="_top" xlink:title=" ">
<polygon fill="white" stroke="#666666" points="532,-204 402,-204 402,-185 532,-185 532,-204"/>
<text text-anchor="middle" x="467" y="-192" font-family="Helvetica,sans-Serif" font-size="10.00">AttachmentMuzzle556_45</text>
</a>
</g>
</g>
<!-- Node1&#45;&gt;Node6 -->
<g id="edge5" class="edge">
<title>Node1&#45;&gt;Node6</title>
<path fill="none" stroke="#63b8ff" d="M368.2,-170.05C387.13,-174.78 408.38,-180.1 426.23,-184.56"/>
<polygon fill="#63b8ff" stroke="#63b8ff" points="369.21,-166.45 358.66,-167.42 367.51,-173.24 369.21,-166.45"/>
</g>
<!-- Node7 -->
<g id="node7" class="node">
<title>Node7</title>
<g id="a_node7"><a xlink:href="interfaceAttachmentMuzzle762__39.html" target="_top" xlink:title=" ">
<polygon fill="white" stroke="#666666" points="532,-167 402,-167 402,-148 532,-148 532,-167"/>
<text text-anchor="middle" x="467" y="-155" font-family="Helvetica,sans-Serif" font-size="10.00">AttachmentMuzzle762_39</text>
</a>
</g>
</g>
<!-- Node1&#45;&gt;Node7 -->
<g id="edge6" class="edge">
<title>Node1&#45;&gt;Node7</title>
<path fill="none" stroke="#63b8ff" d="M377.2,-157.5C385.21,-157.5 393.46,-157.5 401.55,-157.5"/>
<polygon fill="#63b8ff" stroke="#63b8ff" points="377.46,-154 367.46,-157.5 377.46,-161 377.46,-154"/>
</g>
<!-- Node8 -->
<g id="node8" class="node">
<title>Node8</title>
<g id="a_node8"><a xlink:href="interfaceAttachmentMuzzle762__51.html" target="_top" xlink:title=" ">
<polygon fill="white" stroke="#666666" points="532,-130 402,-130 402,-111 532,-111 532,-130"/>
<text text-anchor="middle" x="467" y="-118" font-family="Helvetica,sans-Serif" font-size="10.00">AttachmentMuzzle762_51</text>
</a>
</g>
</g>
<!-- Node1&#45;&gt;Node8 -->
<g id="edge7" class="edge">
<title>Node1&#45;&gt;Node8</title>
<path fill="none" stroke="#63b8ff" d="M368.2,-144.95C387.13,-140.22 408.38,-134.9 426.23,-130.44"/>
<polygon fill="#63b8ff" stroke="#63b8ff" points="367.51,-141.76 358.66,-147.58 369.21,-148.55 367.51,-141.76"/>
</g>
<!-- Node9 -->
<g id="node9" class="node">
<title>Node9</title>
<g id="a_node9"><a xlink:href="interfaceAttachmentMuzzle762__54.html" target="_top" xlink:title=" ">
<polygon fill="white" stroke="#666666" points="532,-93 402,-93 402,-74 532,-74 532,-93"/>
<text text-anchor="middle" x="467" y="-81" font-family="Helvetica,sans-Serif" font-size="10.00">AttachmentMuzzle762_54</text>
</a>
</g>
</g>
<!-- Node1&#45;&gt;Node9 -->
<g id="edge8" class="edge">
<title>Node1&#45;&gt;Node9</title>
<path fill="none" stroke="#63b8ff" d="M338.33,-141.28C354.71,-128.9 378.76,-112.19 402,-101.5 408.71,-98.41 416.07,-95.74 423.33,-93.48"/>
<polygon fill="#63b8ff" stroke="#63b8ff" points="336.86,-138.77 331.08,-147.65 341.13,-144.31 336.86,-138.77"/>
</g>
<!-- Node10 -->
<g id="node10" class="node">
<title>Node10</title>
<g id="a_node10"><a xlink:href="interfaceAttachmentMuzzlePistol.html" target="_top" xlink:title=" ">
<polygon fill="white" stroke="#666666" points="528.5,-56 405.5,-56 405.5,-37 528.5,-37 528.5,-56"/>
<text text-anchor="middle" x="467" y="-44" font-family="Helvetica,sans-Serif" font-size="10.00">AttachmentMuzzlePistol</text>
</a>
</g>
</g>
<!-- Node1&#45;&gt;Node10 -->
<g id="edge9" class="edge">
<title>Node1&#45;&gt;Node10</title>
<path fill="none" stroke="#63b8ff" d="M330.08,-138.72C344.63,-117.59 371.04,-83.71 402,-64.5 407.2,-61.28 412.99,-58.61 418.9,-56.42"/>
<polygon fill="#63b8ff" stroke="#63b8ff" points="326.73,-136.43 324.08,-146.69 332.55,-140.32 326.73,-136.43"/>
</g>
<!-- Node2 -->
<g id="node2" class="node">
<title>Node2</title>
<g id="a_node2"><a xlink:href="interfaceBaseAttachmentType.html" target="_top" xlink:title=" ">
<polygon fill="white" stroke="#666666" points="232,-167 122,-167 122,-148 232,-148 232,-167"/>
<text text-anchor="middle" x="177" y="-155" font-family="Helvetica,sans-Serif" font-size="10.00">BaseAttachmentType</text>
</a>
</g>
</g>
<!-- Node2&#45;&gt;Node1 -->
<g id="edge1" class="edge">
<title>Node2&#45;&gt;Node1</title>
<path fill="none" stroke="#63b8ff" d="M243.04,-157.5C251.39,-157.5 259.82,-157.5 267.84,-157.5"/>
<polygon fill="#63b8ff" stroke="#63b8ff" points="243.15,-154 233.15,-157.5 243.15,-161 243.15,-154"/>
</g>
<!-- Node3 -->
<g id="node3" class="node">
<title>Node3</title>
<g id="a_node3"><a xlink:title=" ">
<polygon fill="white" stroke="#666666" points="86,-167 0,-167 0,-148 86,-148 86,-167"/>
<text text-anchor="middle" x="43" y="-155" font-family="Helvetica,sans-Serif" font-size="10.00">ScriptAndConfig</text>
</a>
</g>
</g>
<!-- Node3&#45;&gt;Node2 -->
<g id="edge2" class="edge">
<title>Node3&#45;&gt;Node2</title>
<path fill="none" stroke="#63b8ff" d="M97.48,-157.5C105.4,-157.5 113.57,-157.5 121.52,-157.5"/>
<polygon fill="#63b8ff" stroke="#63b8ff" points="97.49,-154 87.49,-157.5 97.49,-161 97.49,-154"/>
</g>
<!-- Node11 -->
<g id="node11" class="node">
<title>Node11</title>
<g id="a_node11"><a xlink:href="interfaceAttachmentMuzzle45.html" target="_top" xlink:title=" ">
<polygon fill="white" stroke="#666666" points="682,-93 573,-93 573,-74 682,-74 682,-93"/>
<text text-anchor="middle" x="627.5" y="-81" font-family="Helvetica,sans-Serif" font-size="10.00">AttachmentMuzzle45</text>
</a>
</g>
</g>
<!-- Node10&#45;&gt;Node11 -->
<g id="edge10" class="edge">
<title>Node10&#45;&gt;Node11</title>
<path fill="none" stroke="#63b8ff" d="M520.91,-58.85C541.39,-63.63 564.53,-69.03 583.91,-73.56"/>
<polygon fill="#63b8ff" stroke="#63b8ff" points="522.01,-55.28 511.48,-56.42 520.42,-62.1 522.01,-55.28"/>
</g>
<!-- Node12 -->
<g id="node12" class="node">
<title>Node12</title>
<g id="a_node12"><a xlink:href="interfaceAttachmentMuzzle9__18.html" target="_top" xlink:title=" ">
<polygon fill="white" stroke="#666666" points="687,-56 568,-56 568,-37 687,-37 687,-56"/>
<text text-anchor="middle" x="627.5" y="-44" font-family="Helvetica,sans-Serif" font-size="10.00">AttachmentMuzzle9_18</text>
</a>
</g>
</g>
<!-- Node10&#45;&gt;Node12 -->
<g id="edge11" class="edge">
<title>Node10&#45;&gt;Node12</title>
<path fill="none" stroke="#63b8ff" d="M539.71,-46.5C549.06,-46.5 558.56,-46.5 567.66,-46.5"/>
<polygon fill="#63b8ff" stroke="#63b8ff" points="539.83,-43 529.83,-46.5 539.83,-50 539.83,-43"/>
</g>
<!-- Node13 -->
<g id="node13" class="node">
<title>Node13</title>
<g id="a_node13"><a xlink:href="interfaceAttachmentMuzzle9__19.html" target="_top" xlink:title=" ">
<polygon fill="white" stroke="#666666" points="687,-19 568,-19 568,0 687,0 687,-19"/>
<text text-anchor="middle" x="627.5" y="-7" font-family="Helvetica,sans-Serif" font-size="10.00">AttachmentMuzzle9_19</text>
</a>
</g>
</g>
<!-- Node10&#45;&gt;Node13 -->
<g id="edge12" class="edge">
<title>Node10&#45;&gt;Node13</title>
<path fill="none" stroke="#63b8ff" d="M520.91,-34.15C541.39,-29.37 564.53,-23.97 583.91,-19.44"/>
<polygon fill="#63b8ff" stroke="#63b8ff" points="520.42,-30.9 511.48,-36.58 522.01,-37.72 520.42,-30.9"/>
</g>
</g>
</svg>
