<?xml version="1.0" encoding="UTF-8" standalone="no"?>
<!DOCTYPE svg PUBLIC "-//W3C//DTD SVG 1.1//EN"
 "http://www.w3.org/Graphics/SVG/1.1/DTD/svg11.dtd">
<!-- Generated by graphviz version 8.0.2 (20230410.1723)
 -->
<!-- Title: SCR_ItemSelectionMenuEntry Pages: 1 -->
<svg width="157pt" height="247pt"
 viewBox="0.00 0.00 157.00 247.00" xmlns="http://www.w3.org/2000/svg" xmlns:xlink="http://www.w3.org/1999/xlink">
<g id="graph0" class="graph" transform="scale(1 1) rotate(0) translate(4 243)">
<title>SCR_ItemSelectionMenuEntry</title>
<!-- Node1 -->
<g id="node1" class="node">
<title>Node1</title>
<g id="a_node1"><a xlink:title=" ">
<polygon fill="#999999" stroke="#666666" points="149,-19 0,-19 0,0 149,0 149,-19"/>
<text text-anchor="middle" x="74.5" y="-7" font-family="Helvetica,sans-Serif" font-size="10.00">SCR_ItemSelectionMenuEntry</text>
</a>
</g>
</g>
<!-- Node2 -->
<g id="node2" class="node">
<title>Node2</title>
<g id="a_node2"><a xlink:href="interfaceSCR__SelectionMenuEntry.html" target="_top" xlink:title="Scripted selection menu entry based on UI info for storing data into SCR_SelectionMenu.">
<polygon fill="white" stroke="#666666" points="139.5,-74 9.5,-74 9.5,-55 139.5,-55 139.5,-74"/>
<text text-anchor="middle" x="74.5" y="-62" font-family="Helvetica,sans-Serif" font-size="10.00">SCR_SelectionMenuEntry</text>
</a>
</g>
</g>
<!-- Node2&#45;&gt;Node1 -->
<g id="edge1" class="edge">
<title>Node2&#45;&gt;Node1</title>
<path fill="none" stroke="#63b8ff" d="M74.5,-43.93C74.5,-35.53 74.5,-26.13 74.5,-19.44"/>
<polygon fill="#63b8ff" stroke="#63b8ff" points="71,-43.75 74.5,-53.75 78,-43.75 71,-43.75"/>
</g>
<!-- Node3 -->
<g id="node3" class="node">
<title>Node3</title>
<g id="a_node3"><a xlink:href="interfaceSCR__UIInfo.html" target="_top" xlink:title="Class used to hold UI information.">
<polygon fill="white" stroke="#666666" points="107.5,-129 41.5,-129 41.5,-110 107.5,-110 107.5,-129"/>
<text text-anchor="middle" x="74.5" y="-117" font-family="Helvetica,sans-Serif" font-size="10.00">SCR_UIInfo</text>
</a>
</g>
</g>
<!-- Node3&#45;&gt;Node2 -->
<g id="edge2" class="edge">
<title>Node3&#45;&gt;Node2</title>
<path fill="none" stroke="#63b8ff" d="M74.5,-98.93C74.5,-90.53 74.5,-81.13 74.5,-74.44"/>
<polygon fill="#63b8ff" stroke="#63b8ff" points="71,-98.75 74.5,-108.75 78,-98.75 71,-98.75"/>
</g>
<!-- Node4 -->
<g id="node4" class="node">
<title>Node4</title>
<g id="a_node4"><a xlink:href="interfaceSCR__UIDescription.html" target="_top" xlink:title="Class used to hold UI name and description.">
<polygon fill="white" stroke="#666666" points="124.5,-184 24.5,-184 24.5,-165 124.5,-165 124.5,-184"/>
<text text-anchor="middle" x="74.5" y="-172" font-family="Helvetica,sans-Serif" font-size="10.00">SCR_UIDescription</text>
</a>
</g>
</g>
<!-- Node4&#45;&gt;Node3 -->
<g id="edge3" class="edge">
<title>Node4&#45;&gt;Node3</title>
<path fill="none" stroke="#63b8ff" d="M74.5,-153.93C74.5,-145.53 74.5,-136.13 74.5,-129.44"/>
<polygon fill="#63b8ff" stroke="#63b8ff" points="71,-153.75 74.5,-163.75 78,-153.75 71,-153.75"/>
</g>
<!-- Node5 -->
<g id="node5" class="node">
<title>Node5</title>
<g id="a_node5"><a xlink:href="interfaceSCR__UIName.html" target="_top" xlink:title="Class used to hold UI name.">
<polygon fill="white" stroke="#666666" points="113,-239 36,-239 36,-220 113,-220 113,-239"/>
<text text-anchor="middle" x="74.5" y="-227" font-family="Helvetica,sans-Serif" font-size="10.00">SCR_UIName</text>
</a>
</g>
</g>
<!-- Node5&#45;&gt;Node4 -->
<g id="edge4" class="edge">
<title>Node5&#45;&gt;Node4</title>
<path fill="none" stroke="#63b8ff" d="M74.5,-208.93C74.5,-200.53 74.5,-191.13 74.5,-184.44"/>
<polygon fill="#63b8ff" stroke="#63b8ff" points="71,-208.75 74.5,-218.75 78,-208.75 71,-208.75"/>
</g>
</g>
</svg>
