<?xml version="1.0" encoding="UTF-8" standalone="no"?>
<!DOCTYPE svg PUBLIC "-//W3C//DTD SVG 1.1//EN"
 "http://www.w3.org/Graphics/SVG/1.1/DTD/svg11.dtd">
<!-- Generated by graphviz version 8.0.2 (20230410.1723)
 -->
<!-- Title: SCR_PlayerFactionAffiliationComponent Pages: 1 -->
<svg width="171pt" height="258pt"
 viewBox="0.00 0.00 171.00 258.00" xmlns="http://www.w3.org/2000/svg" xmlns:xlink="http://www.w3.org/1999/xlink">
<g id="graph0" class="graph" transform="scale(1 1) rotate(0) translate(4 254)">
<title>SCR_PlayerFactionAffiliationComponent</title>
<!-- Node1 -->
<g id="node1" class="node">
<title>Node1</title>
<g id="a_node1"><a xlink:title="This component should be attached to a PlayerController.">
<polygon fill="#999999" stroke="#666666" points="152,-30 11,-30 11,0 152,0 152,-30"/>
<text text-anchor="start" x="19" y="-18" font-family="Helvetica,sans-Serif" font-size="10.00">SCR_PlayerFactionAffiliation</text>
<text text-anchor="middle" x="81.5" y="-7" font-family="Helvetica,sans-Serif" font-size="10.00">Component</text>
</a>
</g>
</g>
<!-- Node2 -->
<g id="node2" class="node">
<title>Node2</title>
<g id="a_node2"><a xlink:href="interfaceSCR__FactionAffiliationComponent.html" target="_top" xlink:title=" ">
<polygon fill="white" stroke="#666666" points="163,-85 0,-85 0,-66 163,-66 163,-85"/>
<text text-anchor="middle" x="81.5" y="-73" font-family="Helvetica,sans-Serif" font-size="10.00">SCR_FactionAffiliationComponent</text>
</a>
</g>
</g>
<!-- Node2&#45;&gt;Node1 -->
<g id="edge1" class="edge">
<title>Node2&#45;&gt;Node1</title>
<path fill="none" stroke="#63b8ff" d="M81.5,-55.08C81.5,-46.92 81.5,-37.6 81.5,-30.11"/>
<polygon fill="#63b8ff" stroke="#63b8ff" points="78,-54.87 81.5,-64.87 85,-54.87 78,-54.87"/>
</g>
<!-- Node3 -->
<g id="node3" class="node">
<title>Node3</title>
<g id="a_node3"><a xlink:href="interfaceFactionAffiliationComponent.html" target="_top" xlink:title=" ">
<polygon fill="white" stroke="#666666" points="150,-140 13,-140 13,-121 150,-121 150,-140"/>
<text text-anchor="middle" x="81.5" y="-128" font-family="Helvetica,sans-Serif" font-size="10.00">FactionAffiliationComponent</text>
</a>
</g>
</g>
<!-- Node3&#45;&gt;Node2 -->
<g id="edge2" class="edge">
<title>Node3&#45;&gt;Node2</title>
<path fill="none" stroke="#63b8ff" d="M81.5,-109.93C81.5,-101.53 81.5,-92.13 81.5,-85.44"/>
<polygon fill="#63b8ff" stroke="#63b8ff" points="78,-109.75 81.5,-119.75 85,-109.75 78,-109.75"/>
</g>
<!-- Node4 -->
<g id="node4" class="node">
<title>Node4</title>
<g id="a_node4"><a xlink:href="interfaceGameComponent.html" target="_top" xlink:title=" ">
<polygon fill="white" stroke="#666666" points="127.5,-195 35.5,-195 35.5,-176 127.5,-176 127.5,-195"/>
<text text-anchor="middle" x="81.5" y="-183" font-family="Helvetica,sans-Serif" font-size="10.00">GameComponent</text>
</a>
</g>
</g>
<!-- Node4&#45;&gt;Node3 -->
<g id="edge3" class="edge">
<title>Node4&#45;&gt;Node3</title>
<path fill="none" stroke="#63b8ff" d="M81.5,-164.93C81.5,-156.53 81.5,-147.13 81.5,-140.44"/>
<polygon fill="#63b8ff" stroke="#63b8ff" points="78,-164.75 81.5,-174.75 85,-164.75 78,-164.75"/>
</g>
<!-- Node5 -->
<g id="node5" class="node">
<title>Node5</title>
<g id="a_node5"><a xlink:title=" ">
<polygon fill="white" stroke="#666666" points="131.5,-250 31.5,-250 31.5,-231 131.5,-231 131.5,-250"/>
<text text-anchor="middle" x="81.5" y="-238" font-family="Helvetica,sans-Serif" font-size="10.00">GenericComponent</text>
</a>
</g>
</g>
<!-- Node5&#45;&gt;Node4 -->
<g id="edge4" class="edge">
<title>Node5&#45;&gt;Node4</title>
<path fill="none" stroke="#63b8ff" d="M81.5,-219.93C81.5,-211.53 81.5,-202.13 81.5,-195.44"/>
<polygon fill="#63b8ff" stroke="#63b8ff" points="78,-219.75 81.5,-229.75 85,-219.75 78,-219.75"/>
</g>
</g>
</svg>
