<?xml version="1.0" encoding="UTF-8" standalone="no"?>
<!DOCTYPE svg PUBLIC "-//W3C//DTD SVG 1.1//EN"
 "http://www.w3.org/Graphics/SVG/1.1/DTD/svg11.dtd">
<!-- Generated by graphviz version 8.0.2 (20230410.1723)
 -->
<!-- Title: SCR_BaseScreenEffect Pages: 1 -->
<svg width="981pt" height="397pt"
 viewBox="0.00 0.00 981.00 397.00" xmlns="http://www.w3.org/2000/svg" xmlns:xlink="http://www.w3.org/1999/xlink">
<g id="graph0" class="graph" transform="scale(1 1) rotate(0) translate(4 393)">
<title>SCR_BaseScreenEffect</title>
<!-- Node1 -->
<g id="node1" class="node">
<title>Node1</title>
<g id="a_node1"><a xlink:title=" ">
<polygon fill="#999999" stroke="#666666" points="782,-204 662,-204 662,-185 782,-185 782,-204"/>
<text text-anchor="middle" x="722" y="-192" font-family="Helvetica,sans-Serif" font-size="10.00">SCR_BaseScreenEffect</text>
</a>
</g>
</g>
<!-- Node7 -->
<g id="node7" class="node">
<title>Node7</title>
<g id="a_node7"><a xlink:href="interfaceSCR__BleedingScreenEffect.html" target="_top" xlink:title=" ">
<polygon fill="white" stroke="#666666" points="963,-389 828,-389 828,-370 963,-370 963,-389"/>
<text text-anchor="middle" x="895.5" y="-377" font-family="Helvetica,sans-Serif" font-size="10.00">SCR_BleedingScreenEffect</text>
</a>
</g>
</g>
<!-- Node1&#45;&gt;Node7 -->
<g id="edge6" class="edge">
<title>Node1&#45;&gt;Node7</title>
<path fill="none" stroke="#63b8ff" d="M728.64,-214.75C739.63,-250.27 767.37,-323.62 818,-361.5 822.37,-364.77 827.24,-367.46 832.35,-369.66"/>
<polygon fill="#63b8ff" stroke="#63b8ff" points="731.74,-213.86 725.55,-205.26 725.02,-215.84 731.74,-213.86"/>
</g>
<!-- Node8 -->
<g id="node8" class="node">
<title>Node8</title>
<g id="a_node8"><a xlink:href="interfaceSCR__DamageBlurEffect.html" target="_top" xlink:title=" ">
<polygon fill="white" stroke="#666666" points="955.5,-352 835.5,-352 835.5,-333 955.5,-333 955.5,-352"/>
<text text-anchor="middle" x="895.5" y="-340" font-family="Helvetica,sans-Serif" font-size="10.00">SCR_DamageBlurEffect</text>
</a>
</g>
</g>
<!-- Node1&#45;&gt;Node8 -->
<g id="edge7" class="edge">
<title>Node1&#45;&gt;Node8</title>
<path fill="none" stroke="#63b8ff" d="M731.65,-213.87C745.54,-242.67 775.65,-296.42 818,-324.5 823.23,-327.97 829.05,-330.77 835.08,-333.04"/>
<polygon fill="#63b8ff" stroke="#63b8ff" points="734.52,-212.74 727.12,-205.15 728.17,-215.7 734.52,-212.74"/>
</g>
<!-- Node9 -->
<g id="node9" class="node">
<title>Node9</title>
<g id="a_node9"><a xlink:href="interfaceSCR__DeathScreenEffect.html" target="_top" xlink:title=" ">
<polygon fill="white" stroke="#666666" points="957,-315 834,-315 834,-296 957,-296 957,-315"/>
<text text-anchor="middle" x="895.5" y="-303" font-family="Helvetica,sans-Serif" font-size="10.00">SCR_DeathScreenEffect</text>
</a>
</g>
</g>
<!-- Node1&#45;&gt;Node9 -->
<g id="edge8" class="edge">
<title>Node1&#45;&gt;Node9</title>
<path fill="none" stroke="#63b8ff" d="M736.62,-212.91C753.37,-234.19 783.83,-268.7 818,-287.5 823.86,-290.72 830.28,-293.37 836.82,-295.55"/>
<polygon fill="#63b8ff" stroke="#63b8ff" points="738.98,-211.23 730.11,-205.42 733.42,-215.49 738.98,-211.23"/>
</g>
<!-- Node10 -->
<g id="node10" class="node">
<title>Node10</title>
<g id="a_node10"><a xlink:href="interfaceSCR__DepthOfFieldEffect.html" target="_top" xlink:title=" ">
<polygon fill="white" stroke="#666666" points="957,-278 834,-278 834,-259 957,-259 957,-278"/>
<text text-anchor="middle" x="895.5" y="-266" font-family="Helvetica,sans-Serif" font-size="10.00">SCR_DepthOfFieldEffect</text>
</a>
</g>
</g>
<!-- Node1&#45;&gt;Node10 -->
<g id="edge9" class="edge">
<title>Node1&#45;&gt;Node10</title>
<path fill="none" stroke="#63b8ff" d="M745.68,-210.53C764.32,-223.03 791.83,-239.99 818,-250.5 825.85,-253.65 834.38,-256.33 842.81,-258.59"/>
<polygon fill="#63b8ff" stroke="#63b8ff" points="748.02,-207.21 737.79,-204.45 744.07,-212.98 748.02,-207.21"/>
</g>
<!-- Node11 -->
<g id="node11" class="node">
<title>Node11</title>
<g id="a_node11"><a xlink:href="interfaceSCR__DesaturationEffect.html" target="_top" xlink:title=" ">
<polygon fill="white" stroke="#666666" points="956.5,-241 834.5,-241 834.5,-222 956.5,-222 956.5,-241"/>
<text text-anchor="middle" x="895.5" y="-229" font-family="Helvetica,sans-Serif" font-size="10.00">SCR_DesaturationEffect</text>
</a>
</g>
</g>
<!-- Node1&#45;&gt;Node11 -->
<g id="edge10" class="edge">
<title>Node1&#45;&gt;Node11</title>
<path fill="none" stroke="#63b8ff" d="M779.64,-206.72C801.95,-211.53 827.25,-216.99 848.41,-221.56"/>
<polygon fill="#63b8ff" stroke="#63b8ff" points="780.47,-203.1 769.96,-204.42 779,-209.95 780.47,-203.1"/>
</g>
<!-- Node12 -->
<g id="node12" class="node">
<title>Node12</title>
<g id="a_node12"><a xlink:href="interfaceSCR__DrowningScreenEffect.html" target="_top" xlink:title=" ">
<polygon fill="white" stroke="#666666" points="964,-204 827,-204 827,-185 964,-185 964,-204"/>
<text text-anchor="middle" x="895.5" y="-192" font-family="Helvetica,sans-Serif" font-size="10.00">SCR_DrowningScreenEffect</text>
</a>
</g>
</g>
<!-- Node1&#45;&gt;Node12 -->
<g id="edge11" class="edge">
<title>Node1&#45;&gt;Node12</title>
<path fill="none" stroke="#63b8ff" d="M792.95,-194.5C804.04,-194.5 815.49,-194.5 826.53,-194.5"/>
<polygon fill="#63b8ff" stroke="#63b8ff" points="793.02,-191 783.02,-194.5 793.02,-198 793.02,-191"/>
</g>
<!-- Node13 -->
<g id="node13" class="node">
<title>Node13</title>
<g id="a_node13"><a xlink:href="interfaceSCR__FadeInOutEffect.html" target="_top" xlink:title=" ">
<polygon fill="white" stroke="#666666" points="951.5,-167 839.5,-167 839.5,-148 951.5,-148 951.5,-167"/>
<text text-anchor="middle" x="895.5" y="-155" font-family="Helvetica,sans-Serif" font-size="10.00">SCR_FadeInOutEffect</text>
</a>
</g>
</g>
<!-- Node1&#45;&gt;Node13 -->
<g id="edge12" class="edge">
<title>Node1&#45;&gt;Node13</title>
<path fill="none" stroke="#63b8ff" d="M779.64,-182.28C801.95,-177.47 827.25,-172.01 848.41,-167.44"/>
<polygon fill="#63b8ff" stroke="#63b8ff" points="779,-179.05 769.96,-184.58 780.47,-185.9 779,-179.05"/>
</g>
<!-- Node14 -->
<g id="node14" class="node">
<title>Node14</title>
<g id="a_node14"><a xlink:href="interfaceSCR__NoiseFilterEffect.html" target="_top" xlink:title=" ">
<polygon fill="white" stroke="#666666" points="952,-130 839,-130 839,-111 952,-111 952,-130"/>
<text text-anchor="middle" x="895.5" y="-118" font-family="Helvetica,sans-Serif" font-size="10.00">SCR_NoiseFilterEffect</text>
</a>
</g>
</g>
<!-- Node1&#45;&gt;Node14 -->
<g id="edge13" class="edge">
<title>Node1&#45;&gt;Node14</title>
<path fill="none" stroke="#63b8ff" d="M745.68,-178.47C764.32,-165.97 791.83,-149.01 818,-138.5 825.85,-135.35 834.38,-132.67 842.81,-130.41"/>
<polygon fill="#63b8ff" stroke="#63b8ff" points="744.07,-176.02 737.79,-184.55 748.02,-181.79 744.07,-176.02"/>
</g>
<!-- Node15 -->
<g id="node15" class="node">
<title>Node15</title>
<g id="a_node15"><a xlink:href="interfaceSCR__RegenerationScreenEffect.html" target="_top" xlink:title=" ">
<polygon fill="white" stroke="#666666" points="973,-93 818,-93 818,-74 973,-74 973,-93"/>
<text text-anchor="middle" x="895.5" y="-81" font-family="Helvetica,sans-Serif" font-size="10.00">SCR_RegenerationScreenEffect</text>
</a>
</g>
</g>
<!-- Node1&#45;&gt;Node15 -->
<g id="edge14" class="edge">
<title>Node1&#45;&gt;Node15</title>
<path fill="none" stroke="#63b8ff" d="M736.62,-176.09C753.37,-154.81 783.83,-120.3 818,-101.5 823.86,-98.28 830.28,-95.63 836.82,-93.45"/>
<polygon fill="#63b8ff" stroke="#63b8ff" points="733.42,-173.51 730.11,-183.58 738.98,-177.77 733.42,-173.51"/>
</g>
<!-- Node16 -->
<g id="node16" class="node">
<title>Node16</title>
<g id="a_node16"><a xlink:href="interfaceSCR__StaminaBlurEffect.html" target="_top" xlink:title=" ">
<polygon fill="white" stroke="#666666" points="955.5,-56 835.5,-56 835.5,-37 955.5,-37 955.5,-56"/>
<text text-anchor="middle" x="895.5" y="-44" font-family="Helvetica,sans-Serif" font-size="10.00">SCR_StaminaBlurEffect</text>
</a>
</g>
</g>
<!-- Node1&#45;&gt;Node16 -->
<g id="edge15" class="edge">
<title>Node1&#45;&gt;Node16</title>
<path fill="none" stroke="#63b8ff" d="M731.65,-175.13C745.54,-146.33 775.65,-92.58 818,-64.5 823.23,-61.03 829.05,-58.23 835.08,-55.96"/>
<polygon fill="#63b8ff" stroke="#63b8ff" points="728.17,-173.3 727.12,-183.85 734.52,-176.26 728.17,-173.3"/>
</g>
<!-- Node17 -->
<g id="node17" class="node">
<title>Node17</title>
<g id="a_node17"><a xlink:href="interfaceSCR__UnconsciousScreenEffect.html" target="_top" xlink:title=" ">
<polygon fill="white" stroke="#666666" points="972.5,-19 818.5,-19 818.5,0 972.5,0 972.5,-19"/>
<text text-anchor="middle" x="895.5" y="-7" font-family="Helvetica,sans-Serif" font-size="10.00">SCR_UnconsciousScreenEffect</text>
</a>
</g>
</g>
<!-- Node1&#45;&gt;Node17 -->
<g id="edge16" class="edge">
<title>Node1&#45;&gt;Node17</title>
<path fill="none" stroke="#63b8ff" d="M728.64,-174.25C739.63,-138.73 767.37,-65.38 818,-27.5 822.37,-24.23 827.24,-21.54 832.35,-19.34"/>
<polygon fill="#63b8ff" stroke="#63b8ff" points="725.02,-173.16 725.55,-183.74 731.74,-175.14 725.02,-173.16"/>
</g>
<!-- Node2 -->
<g id="node2" class="node">
<title>Node2</title>
<g id="a_node2"><a xlink:href="interfaceSCR__InfoDisplayExtended.html" target="_top" xlink:title=" ">
<polygon fill="white" stroke="#666666" points="626,-204 495,-204 495,-185 626,-185 626,-204"/>
<text text-anchor="middle" x="560.5" y="-192" font-family="Helvetica,sans-Serif" font-size="10.00">SCR_InfoDisplayExtended</text>
</a>
</g>
</g>
<!-- Node2&#45;&gt;Node1 -->
<g id="edge1" class="edge">
<title>Node2&#45;&gt;Node1</title>
<path fill="none" stroke="#63b8ff" d="M637.11,-194.5C645.32,-194.5 653.6,-194.5 661.58,-194.5"/>
<polygon fill="#63b8ff" stroke="#63b8ff" points="637.37,-191 627.37,-194.5 637.37,-198 637.37,-191"/>
</g>
<!-- Node3 -->
<g id="node3" class="node">
<title>Node3</title>
<g id="a_node3"><a xlink:href="interfaceSCR__InfoDisplay.html" target="_top" xlink:title=" ">
<polygon fill="white" stroke="#666666" points="459,-204 370,-204 370,-185 459,-185 459,-204"/>
<text text-anchor="middle" x="414.5" y="-192" font-family="Helvetica,sans-Serif" font-size="10.00">SCR_InfoDisplay</text>
</a>
</g>
</g>
<!-- Node3&#45;&gt;Node2 -->
<g id="edge2" class="edge">
<title>Node3&#45;&gt;Node2</title>
<path fill="none" stroke="#63b8ff" d="M470.42,-194.5C478.32,-194.5 486.51,-194.5 494.58,-194.5"/>
<polygon fill="#63b8ff" stroke="#63b8ff" points="470.49,-191 460.49,-194.5 470.49,-198 470.49,-191"/>
</g>
<!-- Node4 -->
<g id="node4" class="node">
<title>Node4</title>
<g id="a_node4"><a xlink:href="interfaceGroupInfoDisplay.html" target="_top" xlink:title=" ">
<polygon fill="white" stroke="#666666" points="334,-204 244,-204 244,-185 334,-185 334,-204"/>
<text text-anchor="middle" x="289" y="-192" font-family="Helvetica,sans-Serif" font-size="10.00">GroupInfoDisplay</text>
</a>
</g>
</g>
<!-- Node4&#45;&gt;Node3 -->
<g id="edge3" class="edge">
<title>Node4&#45;&gt;Node3</title>
<path fill="none" stroke="#63b8ff" d="M345.21,-194.5C353.37,-194.5 361.68,-194.5 369.57,-194.5"/>
<polygon fill="#63b8ff" stroke="#63b8ff" points="345.24,-191 335.24,-194.5 345.24,-198 345.24,-191"/>
</g>
<!-- Node5 -->
<g id="node5" class="node">
<title>Node5</title>
<g id="a_node5"><a xlink:href="interfaceBaseInfoDisplay.html" target="_top" xlink:title=" ">
<polygon fill="white" stroke="#666666" points="208,-204 122,-204 122,-185 208,-185 208,-204"/>
<text text-anchor="middle" x="165" y="-192" font-family="Helvetica,sans-Serif" font-size="10.00">BaseInfoDisplay</text>
</a>
</g>
</g>
<!-- Node5&#45;&gt;Node4 -->
<g id="edge4" class="edge">
<title>Node5&#45;&gt;Node4</title>
<path fill="none" stroke="#63b8ff" d="M219.27,-194.5C227.41,-194.5 235.75,-194.5 243.67,-194.5"/>
<polygon fill="#63b8ff" stroke="#63b8ff" points="219.33,-191 209.33,-194.5 219.33,-198 219.33,-191"/>
</g>
<!-- Node6 -->
<g id="node6" class="node">
<title>Node6</title>
<g id="a_node6"><a xlink:title=" ">
<polygon fill="white" stroke="#666666" points="86,-204 0,-204 0,-185 86,-185 86,-204"/>
<text text-anchor="middle" x="43" y="-192" font-family="Helvetica,sans-Serif" font-size="10.00">ScriptAndConfig</text>
</a>
</g>
</g>
<!-- Node6&#45;&gt;Node5 -->
<g id="edge5" class="edge">
<title>Node6&#45;&gt;Node5</title>
<path fill="none" stroke="#63b8ff" d="M97.28,-194.5C105.45,-194.5 113.78,-194.5 121.67,-194.5"/>
<polygon fill="#63b8ff" stroke="#63b8ff" points="97.31,-191 87.31,-194.5 97.31,-198 97.31,-191"/>
</g>
</g>
</svg>
