<?xml version="1.0" encoding="UTF-8" standalone="no"?>
<!DOCTYPE svg PUBLIC "-//W3C//DTD SVG 1.1//EN"
 "http://www.w3.org/Graphics/SVG/1.1/DTD/svg11.dtd">
<!-- Generated by graphviz version 8.0.2 (20230410.1723)
 -->
<!-- Title: UniversalInventoryStorageComponentClass Pages: 1 -->
<svg width="2001pt" height="158pt"
 viewBox="0.00 0.00 2001.00 158.00" xmlns="http://www.w3.org/2000/svg" xmlns:xlink="http://www.w3.org/1999/xlink">
<g id="graph0" class="graph" transform="scale(1 1) rotate(0) translate(4 154)">
<title>UniversalInventoryStorageComponentClass</title>
<!-- Node1 -->
<g id="node1" class="node">
<title>Node1</title>
<g id="a_node1"><a xlink:title=" ">
<polygon fill="#999999" stroke="#666666" points="1192,-78 1064,-78 1064,-48 1192,-48 1192,-78"/>
<text text-anchor="start" x="1072" y="-66" font-family="Helvetica,sans-Serif" font-size="10.00">UniversalInventoryStorage</text>
<text text-anchor="middle" x="1128" y="-55" font-family="Helvetica,sans-Serif" font-size="10.00">ComponentClass</text>
</a>
</g>
</g>
<!-- Node8 -->
<g id="node8" class="node">
<title>Node8</title>
<g id="a_node8"><a xlink:href="interfaceBaseEquipmentStorageComponentClass.html" target="_top" xlink:title=" ">
<polygon fill="white" stroke="#666666" points="1397,-126 1228,-126 1228,-96 1397,-96 1397,-126"/>
<text text-anchor="start" x="1236" y="-114" font-family="Helvetica,sans-Serif" font-size="10.00">BaseEquipmentStorageComponent</text>
<text text-anchor="middle" x="1312.5" y="-103" font-family="Helvetica,sans-Serif" font-size="10.00">Class</text>
</a>
</g>
</g>
<!-- Node1&#45;&gt;Node8 -->
<g id="edge7" class="edge">
<title>Node1&#45;&gt;Node8</title>
<path fill="none" stroke="#63b8ff" d="M1198.19,-81.2C1216.21,-85.94 1235.45,-91 1252.86,-95.58"/>
<polygon fill="#63b8ff" stroke="#63b8ff" points="1199.31,-77.61 1188.75,-78.45 1197.53,-84.38 1199.31,-77.61"/>
</g>
<!-- Node13 -->
<g id="node13" class="node">
<title>Node13</title>
<g id="a_node13"><a xlink:href="interfaceSCR__CampaignArmoryStorageComponentClass.html" target="_top" xlink:title=" ">
<polygon fill="white" stroke="#666666" points="1388,-78 1237,-78 1237,-48 1388,-48 1388,-78"/>
<text text-anchor="start" x="1245" y="-66" font-family="Helvetica,sans-Serif" font-size="10.00">SCR_CampaignArmoryStorage</text>
<text text-anchor="middle" x="1312.5" y="-55" font-family="Helvetica,sans-Serif" font-size="10.00">ComponentClass</text>
</a>
</g>
</g>
<!-- Node1&#45;&gt;Node13 -->
<g id="edge12" class="edge">
<title>Node1&#45;&gt;Node13</title>
<path fill="none" stroke="#63b8ff" d="M1203.22,-63C1214.25,-63 1225.64,-63 1236.69,-63"/>
<polygon fill="#63b8ff" stroke="#63b8ff" points="1203.32,-59.5 1193.32,-63 1203.32,-66.5 1203.32,-59.5"/>
</g>
<!-- Node14 -->
<g id="node14" class="node">
<title>Node14</title>
<g id="a_node14"><a xlink:href="interfaceSCR__UniversalInventoryStorageComponentClass.html" target="_top" xlink:title=" ">
<polygon fill="white" stroke="#666666" points="1389,-30 1236,-30 1236,0 1389,0 1389,-30"/>
<text text-anchor="start" x="1244" y="-18" font-family="Helvetica,sans-Serif" font-size="10.00">SCR_UniversalInventoryStorage</text>
<text text-anchor="middle" x="1312.5" y="-7" font-family="Helvetica,sans-Serif" font-size="10.00">ComponentClass</text>
</a>
</g>
</g>
<!-- Node1&#45;&gt;Node14 -->
<g id="edge13" class="edge">
<title>Node1&#45;&gt;Node14</title>
<path fill="none" stroke="#63b8ff" d="M1198.19,-44.8C1216.21,-40.06 1235.45,-35 1252.86,-30.42"/>
<polygon fill="#63b8ff" stroke="#63b8ff" points="1197.53,-41.62 1188.75,-47.55 1199.31,-48.39 1197.53,-41.62"/>
</g>
<!-- Node2 -->
<g id="node2" class="node">
<title>Node2</title>
<g id="a_node2"><a xlink:href="interfaceBaseUniversalInventoryStorageComponentClass.html" target="_top" xlink:title=" ">
<polygon fill="white" stroke="#666666" points="1028,-78 878,-78 878,-48 1028,-48 1028,-78"/>
<text text-anchor="start" x="886" y="-66" font-family="Helvetica,sans-Serif" font-size="10.00">BaseUniversalInventoryStorage</text>
<text text-anchor="middle" x="953" y="-55" font-family="Helvetica,sans-Serif" font-size="10.00">ComponentClass</text>
</a>
</g>
</g>
<!-- Node2&#45;&gt;Node1 -->
<g id="edge1" class="edge">
<title>Node2&#45;&gt;Node1</title>
<path fill="none" stroke="#63b8ff" d="M1039.15,-63C1047.37,-63 1055.61,-63 1063.56,-63"/>
<polygon fill="#63b8ff" stroke="#63b8ff" points="1039.37,-59.5 1029.37,-63 1039.37,-66.5 1039.37,-59.5"/>
</g>
<!-- Node3 -->
<g id="node3" class="node">
<title>Node3</title>
<g id="a_node3"><a xlink:href="interfaceScriptedBaseInventoryStorageComponentClass.html" target="_top" xlink:title=" ">
<polygon fill="white" stroke="#666666" points="842,-78 695,-78 695,-48 842,-48 842,-78"/>
<text text-anchor="start" x="703" y="-66" font-family="Helvetica,sans-Serif" font-size="10.00">ScriptedBaseInventoryStorage</text>
<text text-anchor="middle" x="768.5" y="-55" font-family="Helvetica,sans-Serif" font-size="10.00">ComponentClass</text>
</a>
</g>
</g>
<!-- Node3&#45;&gt;Node2 -->
<g id="edge2" class="edge">
<title>Node3&#45;&gt;Node2</title>
<path fill="none" stroke="#63b8ff" d="M853.4,-63C861.51,-63 869.7,-63 877.71,-63"/>
<polygon fill="#63b8ff" stroke="#63b8ff" points="853.42,-59.5 843.42,-63 853.42,-66.5 853.42,-59.5"/>
</g>
<!-- Node4 -->
<g id="node4" class="node">
<title>Node4</title>
<g id="a_node4"><a xlink:href="interfaceBaseInventoryStorageComponentClass.html" target="_top" xlink:title=" ">
<polygon fill="white" stroke="#666666" points="659,-78 498,-78 498,-48 659,-48 659,-78"/>
<text text-anchor="start" x="506" y="-66" font-family="Helvetica,sans-Serif" font-size="10.00">BaseInventoryStorageComponent</text>
<text text-anchor="middle" x="578.5" y="-55" font-family="Helvetica,sans-Serif" font-size="10.00">Class</text>
</a>
</g>
</g>
<!-- Node4&#45;&gt;Node3 -->
<g id="edge3" class="edge">
<title>Node4&#45;&gt;Node3</title>
<path fill="none" stroke="#63b8ff" d="M669.99,-63C678.22,-63 686.47,-63 694.51,-63"/>
<polygon fill="#63b8ff" stroke="#63b8ff" points="670.23,-59.5 660.23,-63 670.23,-66.5 670.23,-59.5"/>
</g>
<!-- Node5 -->
<g id="node5" class="node">
<title>Node5</title>
<g id="a_node5"><a xlink:href="interfaceInventoryItemComponentClass.html" target="_top" xlink:title=" ">
<polygon fill="white" stroke="#666666" points="462,-72.5 314,-72.5 314,-53.5 462,-53.5 462,-72.5"/>
<text text-anchor="middle" x="388" y="-60.5" font-family="Helvetica,sans-Serif" font-size="10.00">InventoryItemComponentClass</text>
</a>
</g>
</g>
<!-- Node5&#45;&gt;Node4 -->
<g id="edge4" class="edge">
<title>Node5&#45;&gt;Node4</title>
<path fill="none" stroke="#63b8ff" d="M473.38,-63C481.48,-63 489.68,-63 497.73,-63"/>
<polygon fill="#63b8ff" stroke="#63b8ff" points="473.42,-59.5 463.42,-63 473.42,-66.5 473.42,-59.5"/>
</g>
<!-- Node6 -->
<g id="node6" class="node">
<title>Node6</title>
<g id="a_node6"><a xlink:href="interfaceGameComponentClass.html" target="_top" xlink:title=" ">
<polygon fill="white" stroke="#666666" points="278,-72.5 161,-72.5 161,-53.5 278,-53.5 278,-72.5"/>
<text text-anchor="middle" x="219.5" y="-60.5" font-family="Helvetica,sans-Serif" font-size="10.00">GameComponentClass</text>
</a>
</g>
</g>
<!-- Node6&#45;&gt;Node5 -->
<g id="edge5" class="edge">
<title>Node6&#45;&gt;Node5</title>
<path fill="none" stroke="#63b8ff" d="M289.19,-63C297.31,-63 305.61,-63 313.79,-63"/>
<polygon fill="#63b8ff" stroke="#63b8ff" points="289.27,-59.5 279.27,-63 289.27,-66.5 289.27,-59.5"/>
</g>
<!-- Node7 -->
<g id="node7" class="node">
<title>Node7</title>
<g id="a_node7"><a xlink:title=" ">
<polygon fill="white" stroke="#666666" points="125,-72.5 0,-72.5 0,-53.5 125,-53.5 125,-72.5"/>
<text text-anchor="middle" x="62.5" y="-60.5" font-family="Helvetica,sans-Serif" font-size="10.00">GenericComponentClass</text>
</a>
</g>
</g>
<!-- Node7&#45;&gt;Node6 -->
<g id="edge6" class="edge">
<title>Node7&#45;&gt;Node6</title>
<path fill="none" stroke="#63b8ff" d="M135.96,-63C144.2,-63 152.52,-63 160.53,-63"/>
<polygon fill="#63b8ff" stroke="#63b8ff" points="136.21,-59.5 126.21,-63 136.21,-66.5 136.21,-59.5"/>
</g>
<!-- Node9 -->
<g id="node9" class="node">
<title>Node9</title>
<g id="a_node9"><a xlink:href="interfaceEquipmentStorageComponentClass.html" target="_top" xlink:title=" ">
<polygon fill="white" stroke="#666666" points="1579,-126 1433,-126 1433,-96 1579,-96 1579,-126"/>
<text text-anchor="start" x="1441" y="-114" font-family="Helvetica,sans-Serif" font-size="10.00">EquipmentStorageComponent</text>
<text text-anchor="middle" x="1506" y="-103" font-family="Helvetica,sans-Serif" font-size="10.00">Class</text>
</a>
</g>
</g>
<!-- Node8&#45;&gt;Node9 -->
<g id="edge8" class="edge">
<title>Node8&#45;&gt;Node9</title>
<path fill="none" stroke="#63b8ff" d="M1408.29,-111C1416.52,-111 1424.76,-111 1432.77,-111"/>
<polygon fill="#63b8ff" stroke="#63b8ff" points="1408.49,-107.5 1398.49,-111 1408.49,-114.5 1408.49,-107.5"/>
</g>
<!-- Node10 -->
<g id="node10" class="node">
<title>Node10</title>
<g id="a_node10"><a xlink:href="interfaceSCR__EquipmentStorageComponentClass.html" target="_top" xlink:title=" ">
<polygon fill="white" stroke="#666666" points="1787,-126 1615,-126 1615,-96 1787,-96 1787,-126"/>
<text text-anchor="start" x="1623" y="-114" font-family="Helvetica,sans-Serif" font-size="10.00">SCR_EquipmentStorageComponent</text>
<text text-anchor="middle" x="1701" y="-103" font-family="Helvetica,sans-Serif" font-size="10.00">Class</text>
</a>
</g>
</g>
<!-- Node9&#45;&gt;Node10 -->
<g id="edge9" class="edge">
<title>Node9&#45;&gt;Node10</title>
<path fill="none" stroke="#63b8ff" d="M1590.37,-111C1598.47,-111 1606.7,-111 1614.83,-111"/>
<polygon fill="#63b8ff" stroke="#63b8ff" points="1590.42,-107.5 1580.42,-111 1590.42,-114.5 1590.42,-107.5"/>
</g>
<!-- Node11 -->
<g id="node11" class="node">
<title>Node11</title>
<g id="a_node11"><a xlink:href="interfaceSCR__SalineStorageComponentClass.html" target="_top" xlink:title=" ">
<polygon fill="white" stroke="#666666" points="1984,-150 1832,-150 1832,-120 1984,-120 1984,-150"/>
<text text-anchor="start" x="1840" y="-138" font-family="Helvetica,sans-Serif" font-size="10.00">SCR_SalineStorageComponent</text>
<text text-anchor="middle" x="1908" y="-127" font-family="Helvetica,sans-Serif" font-size="10.00">Class</text>
</a>
</g>
</g>
<!-- Node10&#45;&gt;Node11 -->
<g id="edge10" class="edge">
<title>Node10&#45;&gt;Node11</title>
<path fill="none" stroke="#63b8ff" d="M1798.22,-122.26C1809.49,-123.58 1820.87,-124.92 1831.81,-126.2"/>
<polygon fill="#63b8ff" stroke="#63b8ff" points="1798.79,-118.69 1788.45,-121 1797.98,-125.64 1798.79,-118.69"/>
</g>
<!-- Node12 -->
<g id="node12" class="node">
<title>Node12</title>
<g id="a_node12"><a xlink:href="interfaceSCR__TourniquetStorageComponentClass.html" target="_top" xlink:title=" ">
<polygon fill="white" stroke="#666666" points="1993,-102 1823,-102 1823,-72 1993,-72 1993,-102"/>
<text text-anchor="start" x="1831" y="-90" font-family="Helvetica,sans-Serif" font-size="10.00">SCR_TourniquetStorageComponent</text>
<text text-anchor="middle" x="1908" y="-79" font-family="Helvetica,sans-Serif" font-size="10.00">Class</text>
</a>
</g>
</g>
<!-- Node10&#45;&gt;Node12 -->
<g id="edge11" class="edge">
<title>Node10&#45;&gt;Node12</title>
<path fill="none" stroke="#63b8ff" d="M1798.17,-99.74C1806.35,-98.78 1814.59,-97.82 1822.67,-96.87"/>
<polygon fill="#63b8ff" stroke="#63b8ff" points="1797.98,-96.36 1788.45,-101 1798.79,-103.31 1797.98,-96.36"/>
</g>
</g>
</svg>
