<?xml version="1.0" encoding="UTF-8" standalone="no"?>
<!DOCTYPE svg PUBLIC "-//W3C//DTD SVG 1.1//EN"
 "http://www.w3.org/Graphics/SVG/1.1/DTD/svg11.dtd">
<!-- Generated by graphviz version 8.0.2 (20230410.1723)
 -->
<!-- Title: SCR_SpawnLogic Pages: 1 -->
<svg width="260pt" height="82pt"
 viewBox="0.00 0.00 260.00 82.00" xmlns="http://www.w3.org/2000/svg" xmlns:xlink="http://www.w3.org/1999/xlink">
<g id="graph0" class="graph" transform="scale(1 1) rotate(0) translate(4 78)">
<title>SCR_SpawnLogic</title>
<!-- Node1 -->
<g id="node1" class="node">
<title>Node1</title>
<g id="a_node1"><a xlink:title=" ">
<polygon fill="#999999" stroke="#666666" points="172,-74 77,-74 77,-55 172,-55 172,-74"/>
<text text-anchor="middle" x="124.5" y="-62" font-family="Helvetica,sans-Serif" font-size="10.00">SCR_SpawnLogic</text>
</a>
</g>
</g>
<!-- Node2 -->
<g id="node2" class="node">
<title>Node2</title>
<g id="a_node2"><a xlink:href="interfaceSCR__AutoSpawnLogic.html" target="_top" xlink:title=" ">
<polygon fill="white" stroke="#666666" points="115,-19 0,-19 0,0 115,0 115,-19"/>
<text text-anchor="middle" x="57.5" y="-7" font-family="Helvetica,sans-Serif" font-size="10.00">SCR_AutoSpawnLogic</text>
</a>
</g>
</g>
<!-- Node1&#45;&gt;Node2 -->
<g id="edge1" class="edge">
<title>Node1&#45;&gt;Node2</title>
<path fill="none" stroke="#63b8ff" d="M104.8,-47.92C93.04,-38.61 78.52,-27.13 68.7,-19.36"/>
<polygon fill="#63b8ff" stroke="#63b8ff" points="102.12,-51.05 112.13,-54.51 106.46,-45.56 102.12,-51.05"/>
</g>
<!-- Node3 -->
<g id="node3" class="node">
<title>Node3</title>
<g id="a_node3"><a xlink:href="interfaceSCR__MenuSpawnLogic.html" target="_top" xlink:title=" ">
<polygon fill="white" stroke="#666666" points="252,-19 133,-19 133,0 252,0 252,-19"/>
<text text-anchor="middle" x="192.5" y="-7" font-family="Helvetica,sans-Serif" font-size="10.00">SCR_MenuSpawnLogic</text>
</a>
</g>
</g>
<!-- Node1&#45;&gt;Node3 -->
<g id="edge2" class="edge">
<title>Node1&#45;&gt;Node3</title>
<path fill="none" stroke="#63b8ff" d="M144.5,-47.92C156.43,-38.61 171.16,-27.13 181.14,-19.36"/>
<polygon fill="#63b8ff" stroke="#63b8ff" points="142.77,-45.6 137.04,-54.51 147.07,-51.12 142.77,-45.6"/>
</g>
</g>
</svg>
