<?xml version="1.0" encoding="UTF-8" standalone="no"?>
<!DOCTYPE svg PUBLIC "-//W3C//DTD SVG 1.1//EN"
 "http://www.w3.org/Graphics/SVG/1.1/DTD/svg11.dtd">
<!-- Generated by graphviz version 8.0.2 (20230410.1723)
 -->
<!-- Title: SCR_MapMarkerMenuCategory Pages: 1 -->
<svg width="162pt" height="313pt"
 viewBox="0.00 0.00 162.00 313.00" xmlns="http://www.w3.org/2000/svg" xmlns:xlink="http://www.w3.org/1999/xlink">
<g id="graph0" class="graph" transform="scale(1 1) rotate(0) translate(4 309)">
<title>SCR_MapMarkerMenuCategory</title>
<!-- Node1 -->
<g id="node1" class="node">
<title>Node1</title>
<g id="a_node1"><a xlink:title="Base category entry for marker selection menu.">
<polygon fill="#999999" stroke="#666666" points="154,-19 0,-19 0,0 154,0 154,-19"/>
<text text-anchor="middle" x="77" y="-7" font-family="Helvetica,sans-Serif" font-size="10.00">SCR_MapMarkerMenuCategory</text>
</a>
</g>
</g>
<!-- Node2 -->
<g id="node2" class="node">
<title>Node2</title>
<g id="a_node2"><a xlink:href="interfaceSCR__SelectionMenuCategoryEntry.html" target="_top" xlink:title="Scripted selection menu category, that can contain multiple entries.">
<polygon fill="white" stroke="#666666" points="150,-85 4,-85 4,-55 150,-55 150,-85"/>
<text text-anchor="start" x="12" y="-73" font-family="Helvetica,sans-Serif" font-size="10.00">SCR_SelectionMenuCategory</text>
<text text-anchor="middle" x="77" y="-62" font-family="Helvetica,sans-Serif" font-size="10.00">Entry</text>
</a>
</g>
</g>
<!-- Node2&#45;&gt;Node1 -->
<g id="edge1" class="edge">
<title>Node2&#45;&gt;Node1</title>
<path fill="none" stroke="#63b8ff" d="M77,-43.59C77,-34.85 77,-25.65 77,-19.18"/>
<polygon fill="#63b8ff" stroke="#63b8ff" points="73.5,-43.54 77,-53.54 80.5,-43.54 73.5,-43.54"/>
</g>
<!-- Node3 -->
<g id="node3" class="node">
<title>Node3</title>
<g id="a_node3"><a xlink:href="interfaceSCR__SelectionMenuEntry.html" target="_top" xlink:title="Scripted selection menu entry based on UI info for storing data into SCR_SelectionMenu.">
<polygon fill="white" stroke="#666666" points="142,-140 12,-140 12,-121 142,-121 142,-140"/>
<text text-anchor="middle" x="77" y="-128" font-family="Helvetica,sans-Serif" font-size="10.00">SCR_SelectionMenuEntry</text>
</a>
</g>
</g>
<!-- Node3&#45;&gt;Node2 -->
<g id="edge2" class="edge">
<title>Node3&#45;&gt;Node2</title>
<path fill="none" stroke="#63b8ff" d="M77,-110.08C77,-101.92 77,-92.6 77,-85.11"/>
<polygon fill="#63b8ff" stroke="#63b8ff" points="73.5,-109.87 77,-119.87 80.5,-109.87 73.5,-109.87"/>
</g>
<!-- Node4 -->
<g id="node4" class="node">
<title>Node4</title>
<g id="a_node4"><a xlink:href="interfaceSCR__UIInfo.html" target="_top" xlink:title="Class used to hold UI information.">
<polygon fill="white" stroke="#666666" points="110,-195 44,-195 44,-176 110,-176 110,-195"/>
<text text-anchor="middle" x="77" y="-183" font-family="Helvetica,sans-Serif" font-size="10.00">SCR_UIInfo</text>
</a>
</g>
</g>
<!-- Node4&#45;&gt;Node3 -->
<g id="edge3" class="edge">
<title>Node4&#45;&gt;Node3</title>
<path fill="none" stroke="#63b8ff" d="M77,-164.93C77,-156.53 77,-147.13 77,-140.44"/>
<polygon fill="#63b8ff" stroke="#63b8ff" points="73.5,-164.75 77,-174.75 80.5,-164.75 73.5,-164.75"/>
</g>
<!-- Node5 -->
<g id="node5" class="node">
<title>Node5</title>
<g id="a_node5"><a xlink:href="interfaceSCR__UIDescription.html" target="_top" xlink:title="Class used to hold UI name and description.">
<polygon fill="white" stroke="#666666" points="127,-250 27,-250 27,-231 127,-231 127,-250"/>
<text text-anchor="middle" x="77" y="-238" font-family="Helvetica,sans-Serif" font-size="10.00">SCR_UIDescription</text>
</a>
</g>
</g>
<!-- Node5&#45;&gt;Node4 -->
<g id="edge4" class="edge">
<title>Node5&#45;&gt;Node4</title>
<path fill="none" stroke="#63b8ff" d="M77,-219.93C77,-211.53 77,-202.13 77,-195.44"/>
<polygon fill="#63b8ff" stroke="#63b8ff" points="73.5,-219.75 77,-229.75 80.5,-219.75 73.5,-219.75"/>
</g>
<!-- Node6 -->
<g id="node6" class="node">
<title>Node6</title>
<g id="a_node6"><a xlink:href="interfaceSCR__UIName.html" target="_top" xlink:title="Class used to hold UI name.">
<polygon fill="white" stroke="#666666" points="115.5,-305 38.5,-305 38.5,-286 115.5,-286 115.5,-305"/>
<text text-anchor="middle" x="77" y="-293" font-family="Helvetica,sans-Serif" font-size="10.00">SCR_UIName</text>
</a>
</g>
</g>
<!-- Node6&#45;&gt;Node5 -->
<g id="edge5" class="edge">
<title>Node6&#45;&gt;Node5</title>
<path fill="none" stroke="#63b8ff" d="M77,-274.93C77,-266.53 77,-257.13 77,-250.44"/>
<polygon fill="#63b8ff" stroke="#63b8ff" points="73.5,-274.75 77,-284.75 80.5,-274.75 73.5,-274.75"/>
</g>
</g>
</svg>
