<?xml version="1.0" encoding="UTF-8" standalone="no"?>
<!DOCTYPE svg PUBLIC "-//W3C//DTD SVG 1.1//EN"
 "http://www.w3.org/Graphics/SVG/1.1/DTD/svg11.dtd">
<!-- Generated by graphviz version 8.0.2 (20230410.1723)
 -->
<!-- Title: SCR_AICombatMoveLogicBase Pages: 1 -->
<svg width="288pt" height="148pt"
 viewBox="0.00 0.00 288.00 148.00" xmlns="http://www.w3.org/2000/svg" xmlns:xlink="http://www.w3.org/1999/xlink">
<g id="graph0" class="graph" transform="scale(1 1) rotate(0) translate(4 144)">
<title>SCR_AICombatMoveLogicBase</title>
<!-- Node1 -->
<g id="node1" class="node">
<title>Node1</title>
<g id="a_node1"><a xlink:title="Base class for combat movement.">
<polygon fill="#999999" stroke="#666666" points="216,-85 63,-85 63,-66 216,-66 216,-85"/>
<text text-anchor="middle" x="139.5" y="-73" font-family="Helvetica,sans-Serif" font-size="10.00">SCR_AICombatMoveLogicBase</text>
</a>
</g>
</g>
<!-- Node3 -->
<g id="node3" class="node">
<title>Node3</title>
<g id="a_node3"><a xlink:href="interfaceSCR__AICombatMoveLogic__Attack.html" target="_top" xlink:title="Combat movement node for attack behavior, which is aimed at BaseTarget.">
<polygon fill="white" stroke="#666666" points="131,-30 0,-30 0,0 131,0 131,-30"/>
<text text-anchor="start" x="8" y="-18" font-family="Helvetica,sans-Serif" font-size="10.00">SCR_AICombatMoveLogic</text>
<text text-anchor="middle" x="65.5" y="-7" font-family="Helvetica,sans-Serif" font-size="10.00">_Attack</text>
</a>
</g>
</g>
<!-- Node1&#45;&gt;Node3 -->
<g id="edge2" class="edge">
<title>Node1&#45;&gt;Node3</title>
<path fill="none" stroke="#63b8ff" d="M119.64,-58.8C108.48,-49.98 94.65,-39.05 83.77,-30.44"/>
<polygon fill="#63b8ff" stroke="#63b8ff" points="117.25,-62.16 127.26,-65.62 121.59,-56.67 117.25,-62.16"/>
</g>
<!-- Node4 -->
<g id="node4" class="node">
<title>Node4</title>
<g id="a_node4"><a xlink:href="interfaceSCR__AICombatMoveLogic__Suppressive.html" target="_top" xlink:title="Combat move logic when doing suppressive fire.">
<polygon fill="white" stroke="#666666" points="280,-30 149,-30 149,0 280,0 280,-30"/>
<text text-anchor="start" x="157" y="-18" font-family="Helvetica,sans-Serif" font-size="10.00">SCR_AICombatMoveLogic</text>
<text text-anchor="middle" x="214.5" y="-7" font-family="Helvetica,sans-Serif" font-size="10.00">_Suppressive</text>
</a>
</g>
</g>
<!-- Node1&#45;&gt;Node4 -->
<g id="edge3" class="edge">
<title>Node1&#45;&gt;Node4</title>
<path fill="none" stroke="#63b8ff" d="M159.29,-59.06C170.66,-50.2 184.84,-39.13 195.99,-30.44"/>
<polygon fill="#63b8ff" stroke="#63b8ff" points="157.62,-56.7 151.89,-65.62 161.93,-62.22 157.62,-56.7"/>
</g>
<!-- Node2 -->
<g id="node2" class="node">
<title>Node2</title>
<g id="a_node2"><a xlink:title=" ">
<polygon fill="white" stroke="#666666" points="181,-140 98,-140 98,-121 181,-121 181,-140"/>
<text text-anchor="middle" x="139.5" y="-128" font-family="Helvetica,sans-Serif" font-size="10.00">AITaskScripted</text>
</a>
</g>
</g>
<!-- Node2&#45;&gt;Node1 -->
<g id="edge1" class="edge">
<title>Node2&#45;&gt;Node1</title>
<path fill="none" stroke="#63b8ff" d="M139.5,-109.93C139.5,-101.53 139.5,-92.13 139.5,-85.44"/>
<polygon fill="#63b8ff" stroke="#63b8ff" points="136,-109.75 139.5,-119.75 143,-109.75 136,-109.75"/>
</g>
</g>
</svg>
