<?xml version="1.0" encoding="UTF-8" standalone="no"?>
<!DOCTYPE svg PUBLIC "-//W3C//DTD SVG 1.1//EN"
 "http://www.w3.org/Graphics/SVG/1.1/DTD/svg11.dtd">
<!-- Generated by graphviz version 8.0.2 (20230410.1723)
 -->
<!-- Title: BaseCompartmentSlot Pages: 1 -->
<svg width="489pt" height="247pt"
 viewBox="0.00 0.00 488.50 247.00" xmlns="http://www.w3.org/2000/svg" xmlns:xlink="http://www.w3.org/1999/xlink">
<g id="graph0" class="graph" transform="scale(1 1) rotate(0) translate(4 243)">
<title>BaseCompartmentSlot</title>
<!-- Node1 -->
<g id="node1" class="node">
<title>Node1</title>
<g id="a_node1"><a xlink:title=" ">
<polygon fill="#999999" stroke="#666666" points="346.5,-129 231.5,-129 231.5,-110 346.5,-110 346.5,-129"/>
<text text-anchor="middle" x="289" y="-117" font-family="Helvetica,sans-Serif" font-size="10.00">BaseCompartmentSlot</text>
</a>
</g>
</g>
<!-- Node4 -->
<g id="node4" class="node">
<title>Node4</title>
<g id="a_node4"><a xlink:href="interfaceCargoCompartmentSlot.html" target="_top" xlink:title=" ">
<polygon fill="white" stroke="#666666" points="215,-74 97,-74 97,-55 215,-55 215,-74"/>
<text text-anchor="middle" x="156" y="-62" font-family="Helvetica,sans-Serif" font-size="10.00">CargoCompartmentSlot</text>
</a>
</g>
</g>
<!-- Node1&#45;&gt;Node4 -->
<g id="edge3" class="edge">
<title>Node1&#45;&gt;Node4</title>
<path fill="none" stroke="#63b8ff" d="M256.26,-105.45C231.99,-95.78 199.55,-82.85 178.23,-74.36"/>
<polygon fill="#63b8ff" stroke="#63b8ff" points="254.85,-109.06 265.44,-109.51 257.44,-102.56 254.85,-109.06"/>
</g>
<!-- Node7 -->
<g id="node7" class="node">
<title>Node7</title>
<g id="a_node7"><a xlink:href="interfacePilotCompartmentSlot.html" target="_top" xlink:title=" ">
<polygon fill="white" stroke="#666666" points="345,-74 233,-74 233,-55 345,-55 345,-74"/>
<text text-anchor="middle" x="289" y="-62" font-family="Helvetica,sans-Serif" font-size="10.00">PilotCompartmentSlot</text>
</a>
</g>
</g>
<!-- Node1&#45;&gt;Node7 -->
<g id="edge6" class="edge">
<title>Node1&#45;&gt;Node7</title>
<path fill="none" stroke="#63b8ff" d="M289,-98.93C289,-90.53 289,-81.13 289,-74.44"/>
<polygon fill="#63b8ff" stroke="#63b8ff" points="285.5,-98.75 289,-108.75 292.5,-98.75 285.5,-98.75"/>
</g>
<!-- Node8 -->
<g id="node8" class="node">
<title>Node8</title>
<g id="a_node8"><a xlink:href="interfaceTurretCompartmentSlot.html" target="_top" xlink:title=" ">
<polygon fill="white" stroke="#666666" points="480.5,-74 363.5,-74 363.5,-55 480.5,-55 480.5,-74"/>
<text text-anchor="middle" x="422" y="-62" font-family="Helvetica,sans-Serif" font-size="10.00">TurretCompartmentSlot</text>
</a>
</g>
</g>
<!-- Node1&#45;&gt;Node8 -->
<g id="edge7" class="edge">
<title>Node1&#45;&gt;Node8</title>
<path fill="none" stroke="#63b8ff" d="M321.74,-105.45C346.01,-95.78 378.45,-82.85 399.77,-74.36"/>
<polygon fill="#63b8ff" stroke="#63b8ff" points="320.56,-102.56 312.56,-109.51 323.15,-109.06 320.56,-102.56"/>
</g>
<!-- Node2 -->
<g id="node2" class="node">
<title>Node2</title>
<g id="a_node2"><a xlink:href="interfaceExtBaseCompartmentSlot.html" target="_top" xlink:title=" ">
<polygon fill="white" stroke="#666666" points="354,-184 224,-184 224,-165 354,-165 354,-184"/>
<text text-anchor="middle" x="289" y="-172" font-family="Helvetica,sans-Serif" font-size="10.00">ExtBaseCompartmentSlot</text>
</a>
</g>
</g>
<!-- Node2&#45;&gt;Node1 -->
<g id="edge1" class="edge">
<title>Node2&#45;&gt;Node1</title>
<path fill="none" stroke="#63b8ff" d="M289,-153.93C289,-145.53 289,-136.13 289,-129.44"/>
<polygon fill="#63b8ff" stroke="#63b8ff" points="285.5,-153.75 289,-163.75 292.5,-153.75 285.5,-153.75"/>
</g>
<!-- Node3 -->
<g id="node3" class="node">
<title>Node3</title>
<g id="a_node3"><a xlink:title=" ">
<polygon fill="white" stroke="#666666" points="332,-239 246,-239 246,-220 332,-220 332,-239"/>
<text text-anchor="middle" x="289" y="-227" font-family="Helvetica,sans-Serif" font-size="10.00">ScriptAndConfig</text>
</a>
</g>
</g>
<!-- Node3&#45;&gt;Node2 -->
<g id="edge2" class="edge">
<title>Node3&#45;&gt;Node2</title>
<path fill="none" stroke="#63b8ff" d="M289,-208.93C289,-200.53 289,-191.13 289,-184.44"/>
<polygon fill="#63b8ff" stroke="#63b8ff" points="285.5,-208.75 289,-218.75 292.5,-208.75 285.5,-208.75"/>
</g>
<!-- Node5 -->
<g id="node5" class="node">
<title>Node5</title>
<g id="a_node5"><a xlink:href="interfaceSCR__DoctorCompartmentSlot.html" target="_top" xlink:title=" ">
<polygon fill="white" stroke="#666666" points="146,-19 0,-19 0,0 146,0 146,-19"/>
<text text-anchor="middle" x="73" y="-7" font-family="Helvetica,sans-Serif" font-size="10.00">SCR_DoctorCompartmentSlot</text>
</a>
</g>
</g>
<!-- Node4&#45;&gt;Node5 -->
<g id="edge4" class="edge">
<title>Node4&#45;&gt;Node5</title>
<path fill="none" stroke="#63b8ff" d="M132.87,-48.73C118.08,-39.29 99.4,-27.36 86.87,-19.36"/>
<polygon fill="#63b8ff" stroke="#63b8ff" points="130.61,-52.08 140.92,-54.51 134.38,-46.18 130.61,-52.08"/>
</g>
<!-- Node6 -->
<g id="node6" class="node">
<title>Node6</title>
<g id="a_node6"><a xlink:href="interfaceSCR__PatientCompartmentSlot.html" target="_top" xlink:title=" ">
<polygon fill="white" stroke="#666666" points="313.5,-19 164.5,-19 164.5,0 313.5,0 313.5,-19"/>
<text text-anchor="middle" x="239" y="-7" font-family="Helvetica,sans-Serif" font-size="10.00">SCR_PatientCompartmentSlot</text>
</a>
</g>
</g>
<!-- Node4&#45;&gt;Node6 -->
<g id="edge5" class="edge">
<title>Node4&#45;&gt;Node6</title>
<path fill="none" stroke="#63b8ff" d="M179.13,-48.73C193.92,-39.29 212.6,-27.36 225.13,-19.36"/>
<polygon fill="#63b8ff" stroke="#63b8ff" points="177.62,-46.18 171.08,-54.51 181.39,-52.08 177.62,-46.18"/>
</g>
</g>
</svg>
