<?xml version="1.0" encoding="UTF-8" standalone="no"?>
<!DOCTYPE svg PUBLIC "-//W3C//DTD SVG 1.1//EN"
 "http://www.w3.org/Graphics/SVG/1.1/DTD/svg11.dtd">
<!-- Generated by graphviz version 8.0.2 (20230410.1723)
 -->
<!-- Title: BuoyancyComponent Pages: 1 -->
<svg width="370pt" height="192pt"
 viewBox="0.00 0.00 370.00 192.00" xmlns="http://www.w3.org/2000/svg" xmlns:xlink="http://www.w3.org/1999/xlink">
<g id="graph0" class="graph" transform="scale(1 1) rotate(0) translate(4 188)">
<title>BuoyancyComponent</title>
<!-- Node1 -->
<g id="node1" class="node">
<title>Node1</title>
<g id="a_node1"><a xlink:title=" ">
<polygon fill="#999999" stroke="#666666" points="237.5,-129 127.5,-129 127.5,-110 237.5,-110 237.5,-129"/>
<text text-anchor="middle" x="182.5" y="-117" font-family="Helvetica,sans-Serif" font-size="10.00">BuoyancyComponent</text>
</a>
</g>
</g>
<!-- Node3 -->
<g id="node3" class="node">
<title>Node3</title>
<g id="a_node3"><a xlink:href="interfaceCharacterBuoyancyComponent.html" target="_top" xlink:title=" ">
<polygon fill="white" stroke="#666666" points="176.5,-74 24.5,-74 24.5,-55 176.5,-55 176.5,-74"/>
<text text-anchor="middle" x="100.5" y="-62" font-family="Helvetica,sans-Serif" font-size="10.00">CharacterBuoyancyComponent</text>
</a>
</g>
</g>
<!-- Node1&#45;&gt;Node3 -->
<g id="edge2" class="edge">
<title>Node1&#45;&gt;Node3</title>
<path fill="none" stroke="#63b8ff" d="M159.65,-103.73C145.04,-94.29 126.58,-82.36 114.2,-74.36"/>
<polygon fill="#63b8ff" stroke="#63b8ff" points="157.29,-107.02 167.59,-109.51 161.09,-101.14 157.29,-107.02"/>
</g>
<!-- Node5 -->
<g id="node5" class="node">
<title>Node5</title>
<g id="a_node5"><a xlink:href="interfaceVehicleBuoyancyComponent.html" target="_top" xlink:title=" ">
<polygon fill="white" stroke="#666666" points="342.5,-74 200.5,-74 200.5,-55 342.5,-55 342.5,-74"/>
<text text-anchor="middle" x="271.5" y="-62" font-family="Helvetica,sans-Serif" font-size="10.00">VehicleBuoyancyComponent</text>
</a>
</g>
</g>
<!-- Node1&#45;&gt;Node5 -->
<g id="edge4" class="edge">
<title>Node1&#45;&gt;Node5</title>
<path fill="none" stroke="#63b8ff" d="M206.85,-104C222.77,-94.52 243.06,-82.43 256.63,-74.36"/>
<polygon fill="#63b8ff" stroke="#63b8ff" points="205.4,-101.39 198.6,-109.51 208.98,-107.4 205.4,-101.39"/>
</g>
<!-- Node2 -->
<g id="node2" class="node">
<title>Node2</title>
<g id="a_node2"><a xlink:title=" ">
<polygon fill="white" stroke="#666666" points="232.5,-184 132.5,-184 132.5,-165 232.5,-165 232.5,-184"/>
<text text-anchor="middle" x="182.5" y="-172" font-family="Helvetica,sans-Serif" font-size="10.00">GenericComponent</text>
</a>
</g>
</g>
<!-- Node2&#45;&gt;Node1 -->
<g id="edge1" class="edge">
<title>Node2&#45;&gt;Node1</title>
<path fill="none" stroke="#63b8ff" d="M182.5,-153.93C182.5,-145.53 182.5,-136.13 182.5,-129.44"/>
<polygon fill="#63b8ff" stroke="#63b8ff" points="179,-153.75 182.5,-163.75 186,-153.75 179,-153.75"/>
</g>
<!-- Node4 -->
<g id="node4" class="node">
<title>Node4</title>
<g id="a_node4"><a xlink:href="interfaceSCR__CharacterBuoyancyComponent.html" target="_top" xlink:title=" ">
<polygon fill="white" stroke="#666666" points="177,-19 0,-19 0,0 177,0 177,-19"/>
<text text-anchor="middle" x="88.5" y="-7" font-family="Helvetica,sans-Serif" font-size="10.00">SCR_CharacterBuoyancyComponent</text>
</a>
</g>
</g>
<!-- Node3&#45;&gt;Node4 -->
<g id="edge3" class="edge">
<title>Node3&#45;&gt;Node4</title>
<path fill="none" stroke="#63b8ff" d="M96.13,-44.22C94.22,-35.74 92.06,-26.21 90.52,-19.44"/>
<polygon fill="#63b8ff" stroke="#63b8ff" points="92.9,-44.77 98.52,-53.75 99.72,-43.22 92.9,-44.77"/>
</g>
<!-- Node6 -->
<g id="node6" class="node">
<title>Node6</title>
<g id="a_node6"><a xlink:href="interfaceSCR__VehicleBuoyancyComponent.html" target="_top" xlink:title=" ">
<polygon fill="white" stroke="#666666" points="362,-19 195,-19 195,0 362,0 362,-19"/>
<text text-anchor="middle" x="278.5" y="-7" font-family="Helvetica,sans-Serif" font-size="10.00">SCR_VehicleBuoyancyComponent</text>
</a>
</g>
</g>
<!-- Node5&#45;&gt;Node6 -->
<g id="edge5" class="edge">
<title>Node5&#45;&gt;Node6</title>
<path fill="none" stroke="#63b8ff" d="M274.09,-43.93C275.19,-35.53 276.44,-26.13 277.32,-19.44"/>
<polygon fill="#63b8ff" stroke="#63b8ff" points="270.5,-43.38 272.66,-53.75 277.44,-44.29 270.5,-43.38"/>
</g>
</g>
</svg>
