<?xml version="1.0" encoding="UTF-8" standalone="no"?>
<!DOCTYPE svg PUBLIC "-//W3C//DTD SVG 1.1//EN"
 "http://www.w3.org/Graphics/SVG/1.1/DTD/svg11.dtd">
<!-- Generated by graphviz version 8.0.2 (20230410.1723)
 -->
<!-- Title: SCR_BasePrefabSpawnerClass Pages: 1 -->
<svg width="163pt" height="137pt"
 viewBox="0.00 0.00 163.00 137.00" xmlns="http://www.w3.org/2000/svg" xmlns:xlink="http://www.w3.org/1999/xlink">
<g id="graph0" class="graph" transform="scale(1 1) rotate(0) translate(4 133)">
<title>SCR_BasePrefabSpawnerClass</title>
<!-- Node1 -->
<g id="node1" class="node">
<title>Node1</title>
<g id="a_node1"><a xlink:title=" ">
<polygon fill="#999999" stroke="#666666" points="155,-74 0,-74 0,-55 155,-55 155,-74"/>
<text text-anchor="middle" x="77.5" y="-62" font-family="Helvetica,sans-Serif" font-size="10.00">SCR_BasePrefabSpawnerClass</text>
</a>
</g>
</g>
<!-- Node3 -->
<g id="node3" class="node">
<title>Node3</title>
<g id="a_node3"><a xlink:href="interfaceSCR__VehicleSpawnClass.html" target="_top" xlink:title=" ">
<polygon fill="white" stroke="#666666" points="141.5,-19 13.5,-19 13.5,0 141.5,0 141.5,-19"/>
<text text-anchor="middle" x="77.5" y="-7" font-family="Helvetica,sans-Serif" font-size="10.00">SCR_VehicleSpawnClass</text>
</a>
</g>
</g>
<!-- Node1&#45;&gt;Node3 -->
<g id="edge2" class="edge">
<title>Node1&#45;&gt;Node3</title>
<path fill="none" stroke="#63b8ff" d="M77.5,-43.93C77.5,-35.53 77.5,-26.13 77.5,-19.44"/>
<polygon fill="#63b8ff" stroke="#63b8ff" points="74,-43.75 77.5,-53.75 81,-43.75 74,-43.75"/>
</g>
<!-- Node2 -->
<g id="node2" class="node">
<title>Node2</title>
<g id="a_node2"><a xlink:title=" ">
<polygon fill="white" stroke="#666666" points="128,-129 27,-129 27,-110 128,-110 128,-129"/>
<text text-anchor="middle" x="77.5" y="-117" font-family="Helvetica,sans-Serif" font-size="10.00">GenericEntityClass</text>
</a>
</g>
</g>
<!-- Node2&#45;&gt;Node1 -->
<g id="edge1" class="edge">
<title>Node2&#45;&gt;Node1</title>
<path fill="none" stroke="#63b8ff" d="M77.5,-98.93C77.5,-90.53 77.5,-81.13 77.5,-74.44"/>
<polygon fill="#63b8ff" stroke="#63b8ff" points="74,-98.75 77.5,-108.75 81,-98.75 74,-98.75"/>
</g>
</g>
</svg>
