<?xml version="1.0" encoding="UTF-8" standalone="no"?>
<!DOCTYPE svg PUBLIC "-//W3C//DTD SVG 1.1//EN"
 "http://www.w3.org/Graphics/SVG/1.1/DTD/svg11.dtd">
<!-- Generated by graphviz version 8.0.2 (20230410.1723)
 -->
<!-- Title: SCR_CampaignBuildingCooldownBudgetToEvaluateData Pages: 1 -->
<svg width="170pt" height="170pt"
 viewBox="0.00 0.00 170.00 170.00" xmlns="http://www.w3.org/2000/svg" xmlns:xlink="http://www.w3.org/1999/xlink">
<g id="graph0" class="graph" transform="scale(1 1) rotate(0) translate(4 166)">
<title>SCR_CampaignBuildingCooldownBudgetToEvaluateData</title>
<!-- Node1 -->
<g id="node1" class="node">
<title>Node1</title>
<g id="a_node1"><a xlink:title=" ">
<polygon fill="#999999" stroke="#666666" points="162,-96 0,-96 0,-66 162,-66 162,-96"/>
<text text-anchor="start" x="8" y="-84" font-family="Helvetica,sans-Serif" font-size="10.00">SCR_CampaignBuildingCooldown</text>
<text text-anchor="middle" x="81" y="-73" font-family="Helvetica,sans-Serif" font-size="10.00">BudgetToEvaluateData</text>
</a>
</g>
</g>
<!-- Node3 -->
<g id="node3" class="node">
<title>Node3</title>
<g id="a_node3"><a xlink:href="interfaceSCR__CampaignBuildingCooldownWithRankBudgetToEvaluateData.html" target="_top" xlink:title=" ">
<polygon fill="white" stroke="#666666" points="162,-30 0,-30 0,0 162,0 162,-30"/>
<text text-anchor="start" x="8" y="-18" font-family="Helvetica,sans-Serif" font-size="10.00">SCR_CampaignBuildingCooldown</text>
<text text-anchor="middle" x="81" y="-7" font-family="Helvetica,sans-Serif" font-size="10.00">WithRankBudgetToEvaluateData</text>
</a>
</g>
</g>
<!-- Node1&#45;&gt;Node3 -->
<g id="edge2" class="edge">
<title>Node1&#45;&gt;Node3</title>
<path fill="none" stroke="#63b8ff" d="M81,-54.97C81,-46.55 81,-37.45 81,-30.16"/>
<polygon fill="#63b8ff" stroke="#63b8ff" points="77.5,-54.8 81,-64.8 84.5,-54.8 77.5,-54.8"/>
</g>
<!-- Node2 -->
<g id="node2" class="node">
<title>Node2</title>
<g id="a_node2"><a xlink:href="interfaceSCR__CampaignBuildingBudgetToEvaluateData.html" target="_top" xlink:title=" ">
<polygon fill="white" stroke="#666666" points="156.5,-162 5.5,-162 5.5,-132 156.5,-132 156.5,-162"/>
<text text-anchor="start" x="13.5" y="-150" font-family="Helvetica,sans-Serif" font-size="10.00">SCR_CampaignBuildingBudget</text>
<text text-anchor="middle" x="81" y="-139" font-family="Helvetica,sans-Serif" font-size="10.00">ToEvaluateData</text>
</a>
</g>
</g>
<!-- Node2&#45;&gt;Node1 -->
<g id="edge1" class="edge">
<title>Node2&#45;&gt;Node1</title>
<path fill="none" stroke="#63b8ff" d="M81,-120.97C81,-112.55 81,-103.45 81,-96.16"/>
<polygon fill="#63b8ff" stroke="#63b8ff" points="77.5,-120.8 81,-130.8 84.5,-120.8 77.5,-120.8"/>
</g>
</g>
</svg>
