<?xml version="1.0" encoding="UTF-8" standalone="no"?>
<!DOCTYPE svg PUBLIC "-//W3C//DTD SVG 1.1//EN"
 "http://www.w3.org/Graphics/SVG/1.1/DTD/svg11.dtd">
<!-- Generated by graphviz version 8.0.2 (20230410.1723)
 -->
<!-- Title: SCR_AIDefendBehavior Pages: 1 -->
<svg width="126pt" height="247pt"
 viewBox="0.00 0.00 126.00 247.00" xmlns="http://www.w3.org/2000/svg" xmlns:xlink="http://www.w3.org/1999/xlink">
<g id="graph0" class="graph" transform="scale(1 1) rotate(0) translate(4 243)">
<title>SCR_AIDefendBehavior</title>
<!-- Node1 -->
<g id="node1" class="node">
<title>Node1</title>
<g id="a_node1"><a xlink:title=" ">
<polygon fill="#999999" stroke="#666666" points="118,-19 0,-19 0,0 118,0 118,-19"/>
<text text-anchor="middle" x="59" y="-7" font-family="Helvetica,sans-Serif" font-size="10.00">SCR_AIDefendBehavior</text>
</a>
</g>
</g>
<!-- Node2 -->
<g id="node2" class="node">
<title>Node2</title>
<g id="a_node2"><a xlink:href="interfaceSCR__AIBehaviorBase.html" target="_top" xlink:title=" ">
<polygon fill="white" stroke="#666666" points="114,-74 4,-74 4,-55 114,-55 114,-74"/>
<text text-anchor="middle" x="59" y="-62" font-family="Helvetica,sans-Serif" font-size="10.00">SCR_AIBehaviorBase</text>
</a>
</g>
</g>
<!-- Node2&#45;&gt;Node1 -->
<g id="edge1" class="edge">
<title>Node2&#45;&gt;Node1</title>
<path fill="none" stroke="#63b8ff" d="M59,-43.93C59,-35.53 59,-26.13 59,-19.44"/>
<polygon fill="#63b8ff" stroke="#63b8ff" points="55.5,-43.75 59,-53.75 62.5,-43.75 55.5,-43.75"/>
</g>
<!-- Node3 -->
<g id="node3" class="node">
<title>Node3</title>
<g id="a_node3"><a xlink:href="interfaceSCR__AIActionBase.html" target="_top" xlink:title=" ">
<polygon fill="white" stroke="#666666" points="109.5,-129 8.5,-129 8.5,-110 109.5,-110 109.5,-129"/>
<text text-anchor="middle" x="59" y="-117" font-family="Helvetica,sans-Serif" font-size="10.00">SCR_AIActionBase</text>
</a>
</g>
</g>
<!-- Node3&#45;&gt;Node2 -->
<g id="edge2" class="edge">
<title>Node3&#45;&gt;Node2</title>
<path fill="none" stroke="#63b8ff" d="M59,-98.93C59,-90.53 59,-81.13 59,-74.44"/>
<polygon fill="#63b8ff" stroke="#63b8ff" points="55.5,-98.75 59,-108.75 62.5,-98.75 55.5,-98.75"/>
</g>
<!-- Node4 -->
<g id="node4" class="node">
<title>Node4</title>
<g id="a_node4"><a xlink:href="interfaceAIActionBase.html" target="_top" xlink:title=" ">
<polygon fill="white" stroke="#666666" points="97,-184 21,-184 21,-165 97,-165 97,-184"/>
<text text-anchor="middle" x="59" y="-172" font-family="Helvetica,sans-Serif" font-size="10.00">AIActionBase</text>
</a>
</g>
</g>
<!-- Node4&#45;&gt;Node3 -->
<g id="edge3" class="edge">
<title>Node4&#45;&gt;Node3</title>
<path fill="none" stroke="#63b8ff" d="M59,-153.93C59,-145.53 59,-136.13 59,-129.44"/>
<polygon fill="#63b8ff" stroke="#63b8ff" points="55.5,-153.75 59,-163.75 62.5,-153.75 55.5,-153.75"/>
</g>
<!-- Node5 -->
<g id="node5" class="node">
<title>Node5</title>
<g id="a_node5"><a xlink:title=" ">
<polygon fill="white" stroke="#666666" points="102,-239 16,-239 16,-220 102,-220 102,-239"/>
<text text-anchor="middle" x="59" y="-227" font-family="Helvetica,sans-Serif" font-size="10.00">ScriptAndConfig</text>
</a>
</g>
</g>
<!-- Node5&#45;&gt;Node4 -->
<g id="edge4" class="edge">
<title>Node5&#45;&gt;Node4</title>
<path fill="none" stroke="#63b8ff" d="M59,-208.93C59,-200.53 59,-191.13 59,-184.44"/>
<polygon fill="#63b8ff" stroke="#63b8ff" points="55.5,-208.75 59,-218.75 62.5,-208.75 55.5,-208.75"/>
</g>
</g>
</svg>
