<?xml version="1.0" encoding="UTF-8" standalone="no"?>
<!DOCTYPE svg PUBLIC "-//W3C//DTD SVG 1.1//EN"
 "http://www.w3.org/Graphics/SVG/1.1/DTD/svg11.dtd">
<!-- Generated by graphviz version 8.0.2 (20230410.1723)
 -->
<!-- Title: SCR_ScenarioFrameworkLayerBase Pages: 1 -->
<svg width="1129pt" height="509pt"
 viewBox="0.00 0.00 1129.00 508.50" xmlns="http://www.w3.org/2000/svg" xmlns:xlink="http://www.w3.org/1999/xlink">
<g id="graph0" class="graph" transform="scale(1 1) rotate(0) translate(4 504.5)">
<title>SCR_ScenarioFrameworkLayerBase</title>
<!-- Node1 -->
<g id="node1" class="node">
<title>Node1</title>
<g id="a_node1"><a xlink:title=" ">
<polygon fill="#999999" stroke="#666666" points="303,-396 128,-396 128,-377 303,-377 303,-396"/>
<text text-anchor="middle" x="215.5" y="-384" font-family="Helvetica,sans-Serif" font-size="10.00">SCR_ScenarioFrameworkLayerBase</text>
</a>
</g>
</g>
<!-- Node3 -->
<g id="node3" class="node">
<title>Node3</title>
<g id="a_node3"><a xlink:href="interfaceSCR__ScenarioFrameworkArea.html" target="_top" xlink:title="Class is managing the area including the Slots (prefab Slot.et).">
<polygon fill="white" stroke="#666666" points="500,-461 351,-461 351,-442 500,-442 500,-461"/>
<text text-anchor="middle" x="425.5" y="-449" font-family="Helvetica,sans-Serif" font-size="10.00">SCR_ScenarioFrameworkArea</text>
</a>
</g>
</g>
<!-- Node1&#45;&gt;Node3 -->
<g id="edge2" class="edge">
<title>Node1&#45;&gt;Node3</title>
<path fill="none" stroke="#63b8ff" d="M250.26,-400.64C274.62,-410.48 308.46,-423.42 339,-432.5 350.22,-435.84 362.43,-438.88 374.01,-441.52"/>
<polygon fill="#63b8ff" stroke="#63b8ff" points="251.69,-397.04 241.1,-396.5 249.04,-403.52 251.69,-397.04"/>
</g>
<!-- Node4 -->
<g id="node4" class="node">
<title>Node4</title>
<g id="a_node4"><a xlink:href="interfaceSCR__ScenarioFrameworkInventoryLoader.html" target="_top" xlink:title=" ">
<polygon fill="white" stroke="#666666" points="509,-423.5 342,-423.5 342,-393.5 509,-393.5 509,-423.5"/>
<text text-anchor="start" x="350" y="-411.5" font-family="Helvetica,sans-Serif" font-size="10.00">SCR_ScenarioFrameworkInventory</text>
<text text-anchor="middle" x="425.5" y="-400.5" font-family="Helvetica,sans-Serif" font-size="10.00">Loader</text>
</a>
</g>
</g>
<!-- Node1&#45;&gt;Node4 -->
<g id="edge3" class="edge">
<title>Node1&#45;&gt;Node4</title>
<path fill="none" stroke="#63b8ff" d="M313.99,-396.81C323.23,-397.79 332.53,-398.77 341.6,-399.73"/>
<polygon fill="#63b8ff" stroke="#63b8ff" points="314.52,-393.24 304.2,-395.67 313.78,-400.2 314.52,-393.24"/>
</g>
<!-- Node5 -->
<g id="node5" class="node">
<title>Node5</title>
<g id="a_node5"><a xlink:href="interfaceSCR__ScenarioFrameworkLayerTask.html" target="_top" xlink:title=" ">
<polygon fill="white" stroke="#666666" points="512,-375 339,-375 339,-356 512,-356 512,-375"/>
<text text-anchor="middle" x="425.5" y="-363" font-family="Helvetica,sans-Serif" font-size="10.00">SCR_ScenarioFrameworkLayerTask</text>
</a>
</g>
</g>
<!-- Node1&#45;&gt;Node5 -->
<g id="edge4" class="edge">
<title>Node1&#45;&gt;Node5</title>
<path fill="none" stroke="#63b8ff" d="M313.97,-376.66C322.2,-375.83 330.48,-374.99 338.6,-374.17"/>
<polygon fill="#63b8ff" stroke="#63b8ff" points="313.8,-373.26 304.2,-377.75 314.51,-380.22 313.8,-373.26"/>
</g>
<!-- Node11 -->
<g id="node11" class="node">
<title>Node11</title>
<g id="a_node11"><a xlink:href="interfaceSCR__ScenarioFrameworkSlotBase.html" target="_top" xlink:title=" ">
<polygon fill="white" stroke="#666666" points="509.5,-196 341.5,-196 341.5,-177 509.5,-177 509.5,-196"/>
<text text-anchor="middle" x="425.5" y="-184" font-family="Helvetica,sans-Serif" font-size="10.00">SCR_ScenarioFrameworkSlotBase</text>
</a>
</g>
</g>
<!-- Node1&#45;&gt;Node11 -->
<g id="edge10" class="edge">
<title>Node1&#45;&gt;Node11</title>
<path fill="none" stroke="#63b8ff" d="M234.63,-369.07C276.89,-328.43 380.9,-228.42 414.12,-196.48"/>
<polygon fill="#63b8ff" stroke="#63b8ff" points="232.6,-366.13 227.81,-375.58 237.45,-371.17 232.6,-366.13"/>
</g>
<!-- Node2 -->
<g id="node2" class="node">
<title>Node2</title>
<g id="a_node2"><a xlink:title=" ">
<polygon fill="white" stroke="#666666" points="92,-396 0,-396 0,-377 92,-377 92,-396"/>
<text text-anchor="middle" x="46" y="-384" font-family="Helvetica,sans-Serif" font-size="10.00">ScriptComponent</text>
</a>
</g>
</g>
<!-- Node2&#45;&gt;Node1 -->
<g id="edge1" class="edge">
<title>Node2&#45;&gt;Node1</title>
<path fill="none" stroke="#63b8ff" d="M103.16,-386.5C111.02,-386.5 119.24,-386.5 127.5,-386.5"/>
<polygon fill="#63b8ff" stroke="#63b8ff" points="103.33,-383 93.33,-386.5 103.33,-390 103.33,-383"/>
</g>
<!-- Node6 -->
<g id="node6" class="node">
<title>Node6</title>
<g id="a_node6"><a xlink:href="interfaceSCR__ScenarioFrameworkLayerTaskClearArea.html" target="_top" xlink:title=" ">
<polygon fill="white" stroke="#666666" points="707.5,-500.5 555.5,-500.5 555.5,-470.5 707.5,-470.5 707.5,-500.5"/>
<text text-anchor="start" x="563.5" y="-488.5" font-family="Helvetica,sans-Serif" font-size="10.00">SCR_ScenarioFrameworkLayer</text>
<text text-anchor="middle" x="631.5" y="-477.5" font-family="Helvetica,sans-Serif" font-size="10.00">TaskClearArea</text>
</a>
</g>
</g>
<!-- Node5&#45;&gt;Node6 -->
<g id="edge5" class="edge">
<title>Node5&#45;&gt;Node6</title>
<path fill="none" stroke="#63b8ff" d="M506.1,-380.31C508.15,-381.6 510.12,-382.99 512,-384.5 541.47,-408.14 519.31,-436.92 548,-461.5 551.85,-464.8 556.14,-467.65 560.67,-470.1"/>
<polygon fill="#63b8ff" stroke="#63b8ff" points="508.15,-376.91 497.68,-375.31 504.87,-383.09 508.15,-376.91"/>
</g>
<!-- Node7 -->
<g id="node7" class="node">
<title>Node7</title>
<g id="a_node7"><a xlink:href="interfaceSCR__ScenarioFrameworkLayerTaskDefend.html" target="_top" xlink:title=" ">
<polygon fill="white" stroke="#666666" points="707.5,-452.5 555.5,-452.5 555.5,-422.5 707.5,-422.5 707.5,-452.5"/>
<text text-anchor="start" x="563.5" y="-440.5" font-family="Helvetica,sans-Serif" font-size="10.00">SCR_ScenarioFrameworkLayer</text>
<text text-anchor="middle" x="631.5" y="-429.5" font-family="Helvetica,sans-Serif" font-size="10.00">TaskDefend</text>
</a>
</g>
</g>
<!-- Node5&#45;&gt;Node7 -->
<g id="edge6" class="edge">
<title>Node5&#45;&gt;Node7</title>
<path fill="none" stroke="#63b8ff" d="M497.7,-378.64C502.63,-380.37 507.44,-382.31 512,-384.5 530.51,-393.41 529.78,-404 548,-413.5 554.22,-416.74 560.93,-419.6 567.75,-422.11"/>
<polygon fill="#63b8ff" stroke="#63b8ff" points="499.06,-375.09 488.47,-375.41 496.95,-381.76 499.06,-375.09"/>
</g>
<!-- Node8 -->
<g id="node8" class="node">
<title>Node8</title>
<g id="a_node8"><a xlink:href="interfaceSCR__ScenarioFrameworkLayerTaskDeliver.html" target="_top" xlink:title=" ">
<polygon fill="white" stroke="#666666" points="707.5,-404.5 555.5,-404.5 555.5,-374.5 707.5,-374.5 707.5,-404.5"/>
<text text-anchor="start" x="563.5" y="-392.5" font-family="Helvetica,sans-Serif" font-size="10.00">SCR_ScenarioFrameworkLayer</text>
<text text-anchor="middle" x="631.5" y="-381.5" font-family="Helvetica,sans-Serif" font-size="10.00">TaskDeliver</text>
</a>
</g>
</g>
<!-- Node5&#45;&gt;Node8 -->
<g id="edge7" class="edge">
<title>Node5&#45;&gt;Node8</title>
<path fill="none" stroke="#63b8ff" d="M521.89,-376.72C533.04,-378.03 544.31,-379.36 555.14,-380.63"/>
<polygon fill="#63b8ff" stroke="#63b8ff" points="522.58,-373.16 512.24,-375.47 521.76,-380.11 522.58,-373.16"/>
</g>
<!-- Node9 -->
<g id="node9" class="node">
<title>Node9</title>
<g id="a_node9"><a xlink:href="interfaceSCR__ScenarioFrameworkLayerTaskDestroy.html" target="_top" xlink:title=" ">
<polygon fill="white" stroke="#666666" points="707.5,-356.5 555.5,-356.5 555.5,-326.5 707.5,-326.5 707.5,-356.5"/>
<text text-anchor="start" x="563.5" y="-344.5" font-family="Helvetica,sans-Serif" font-size="10.00">SCR_ScenarioFrameworkLayer</text>
<text text-anchor="middle" x="631.5" y="-333.5" font-family="Helvetica,sans-Serif" font-size="10.00">TaskDestroy</text>
</a>
</g>
</g>
<!-- Node5&#45;&gt;Node9 -->
<g id="edge8" class="edge">
<title>Node5&#45;&gt;Node9</title>
<path fill="none" stroke="#63b8ff" d="M521.89,-354.28C533.04,-352.97 544.31,-351.64 555.14,-350.37"/>
<polygon fill="#63b8ff" stroke="#63b8ff" points="521.76,-350.89 512.24,-355.53 522.58,-357.84 521.76,-350.89"/>
</g>
<!-- Node10 -->
<g id="node10" class="node">
<title>Node10</title>
<g id="a_node10"><a xlink:href="interfaceSCR__ScenarioFrameworkLayerTaskKill.html" target="_top" xlink:title=" ">
<polygon fill="white" stroke="#666666" points="707.5,-308.5 555.5,-308.5 555.5,-278.5 707.5,-278.5 707.5,-308.5"/>
<text text-anchor="start" x="563.5" y="-296.5" font-family="Helvetica,sans-Serif" font-size="10.00">SCR_ScenarioFrameworkLayer</text>
<text text-anchor="middle" x="631.5" y="-285.5" font-family="Helvetica,sans-Serif" font-size="10.00">TaskKill</text>
</a>
</g>
</g>
<!-- Node5&#45;&gt;Node10 -->
<g id="edge9" class="edge">
<title>Node5&#45;&gt;Node10</title>
<path fill="none" stroke="#63b8ff" d="M459.65,-351.44C483.9,-341.38 517.72,-327.86 548,-317.5 556.61,-314.55 565.8,-311.65 574.81,-308.93"/>
<polygon fill="#63b8ff" stroke="#63b8ff" points="458.43,-348.57 450.55,-355.65 461.13,-355.03 458.43,-348.57"/>
</g>
<!-- Node12 -->
<g id="node12" class="node">
<title>Node12</title>
<g id="a_node12"><a xlink:href="interfaceSCR__ScenarioFrameworkSlotAI.html" target="_top" xlink:title=" ">
<polygon fill="white" stroke="#666666" points="709,-260 554,-260 554,-241 709,-241 709,-260"/>
<text text-anchor="middle" x="631.5" y="-248" font-family="Helvetica,sans-Serif" font-size="10.00">SCR_ScenarioFrameworkSlotAI</text>
</a>
</g>
</g>
<!-- Node11&#45;&gt;Node12 -->
<g id="edge11" class="edge">
<title>Node11&#45;&gt;Node12</title>
<path fill="none" stroke="#63b8ff" d="M460.47,-200.42C484.62,-209.98 517.96,-222.52 548,-231.5 559.12,-234.83 571.24,-237.91 582.67,-240.58"/>
<polygon fill="#63b8ff" stroke="#63b8ff" points="461.98,-196.85 451.4,-196.39 459.38,-203.35 461.98,-196.85"/>
</g>
<!-- Node14 -->
<g id="node14" class="node">
<title>Node14</title>
<g id="a_node14"><a xlink:href="interfaceSCR__ScenarioFrameworkSlotMarker.html" target="_top" xlink:title=" ">
<polygon fill="white" stroke="#666666" points="704.5,-222.5 558.5,-222.5 558.5,-192.5 704.5,-192.5 704.5,-222.5"/>
<text text-anchor="start" x="566.5" y="-210.5" font-family="Helvetica,sans-Serif" font-size="10.00">SCR_ScenarioFrameworkSlot</text>
<text text-anchor="middle" x="631.5" y="-199.5" font-family="Helvetica,sans-Serif" font-size="10.00">Marker</text>
</a>
</g>
</g>
<!-- Node11&#45;&gt;Node14 -->
<g id="edge13" class="edge">
<title>Node11&#45;&gt;Node14</title>
<path fill="none" stroke="#63b8ff" d="M520.4,-196.17C533.12,-197.48 546.02,-198.8 558.28,-200.07"/>
<polygon fill="#63b8ff" stroke="#63b8ff" points="521.07,-192.61 510.77,-195.07 520.36,-199.58 521.07,-192.61"/>
</g>
<!-- Node15 -->
<g id="node15" class="node">
<title>Node15</title>
<g id="a_node15"><a xlink:href="interfaceSCR__ScenarioFrameworkSlotTask.html" target="_top" xlink:title=" ">
<polygon fill="white" stroke="#666666" points="715,-174 548,-174 548,-155 715,-155 715,-174"/>
<text text-anchor="middle" x="631.5" y="-162" font-family="Helvetica,sans-Serif" font-size="10.00">SCR_ScenarioFrameworkSlotTask</text>
</a>
</g>
</g>
<!-- Node11&#45;&gt;Node15 -->
<g id="edge14" class="edge">
<title>Node11&#45;&gt;Node15</title>
<path fill="none" stroke="#63b8ff" d="M520.44,-176.37C529.58,-175.38 538.81,-174.39 547.83,-173.42"/>
<polygon fill="#63b8ff" stroke="#63b8ff" points="520.34,-172.97 510.77,-177.52 521.09,-179.93 520.34,-172.97"/>
</g>
<!-- Node24 -->
<g id="node24" class="node">
<title>Node24</title>
<g id="a_node24"><a xlink:href="interfaceSCR__ScenarioFrameworkSlotTrigger.html" target="_top" xlink:title=" ">
<polygon fill="white" stroke="#666666" points="704.5,-136.5 558.5,-136.5 558.5,-106.5 704.5,-106.5 704.5,-136.5"/>
<text text-anchor="start" x="566.5" y="-124.5" font-family="Helvetica,sans-Serif" font-size="10.00">SCR_ScenarioFrameworkSlot</text>
<text text-anchor="middle" x="631.5" y="-113.5" font-family="Helvetica,sans-Serif" font-size="10.00">Trigger</text>
</a>
</g>
</g>
<!-- Node11&#45;&gt;Node24 -->
<g id="edge23" class="edge">
<title>Node11&#45;&gt;Node24</title>
<path fill="none" stroke="#63b8ff" d="M465.24,-172.96C489.04,-164.76 520.19,-154.23 548,-145.5 557.11,-142.64 566.82,-139.71 576.26,-136.92"/>
<polygon fill="#63b8ff" stroke="#63b8ff" points="464.17,-169.97 455.87,-176.55 466.46,-176.59 464.17,-169.97"/>
</g>
<!-- Node25 -->
<g id="node25" class="node">
<title>Node25</title>
<g id="a_node25"><a xlink:href="interfaceSCR__ScenarioFrameworkSlotWaypoint.html" target="_top" xlink:title=" ">
<polygon fill="white" stroke="#666666" points="704.5,-88.5 558.5,-88.5 558.5,-58.5 704.5,-58.5 704.5,-88.5"/>
<text text-anchor="start" x="566.5" y="-76.5" font-family="Helvetica,sans-Serif" font-size="10.00">SCR_ScenarioFrameworkSlot</text>
<text text-anchor="middle" x="631.5" y="-65.5" font-family="Helvetica,sans-Serif" font-size="10.00">Waypoint</text>
</a>
</g>
</g>
<!-- Node11&#45;&gt;Node25 -->
<g id="edge24" class="edge">
<title>Node11&#45;&gt;Node25</title>
<path fill="none" stroke="#63b8ff" d="M445.12,-169.59C467.87,-149.75 508.24,-117.08 548,-97.5 554.56,-94.27 561.63,-91.4 568.77,-88.86"/>
<polygon fill="#63b8ff" stroke="#63b8ff" points="443.2,-166.5 438.04,-175.75 447.85,-171.74 443.2,-166.5"/>
</g>
<!-- Node13 -->
<g id="node13" class="node">
<title>Node13</title>
<g id="a_node13"><a xlink:href="interfaceSCR__ScenarioFrameworkQRFSlotAI.html" target="_top" xlink:title=" ">
<polygon fill="white" stroke="#666666" points="926,-313 751,-313 751,-294 926,-294 926,-313"/>
<text text-anchor="middle" x="838.5" y="-301" font-family="Helvetica,sans-Serif" font-size="10.00">SCR_ScenarioFrameworkQRFSlotAI</text>
</a>
</g>
</g>
<!-- Node12&#45;&gt;Node13 -->
<g id="edge12" class="edge">
<title>Node12&#45;&gt;Node13</title>
<path fill="none" stroke="#63b8ff" d="M692.2,-262.99C699.92,-264.97 707.69,-267.15 715,-269.5 731.5,-274.8 734.47,-279.29 751,-284.5 761.85,-287.92 773.66,-290.95 784.96,-293.53"/>
<polygon fill="#63b8ff" stroke="#63b8ff" points="693.28,-259.4 682.73,-260.41 691.6,-266.2 693.28,-259.4"/>
</g>
<!-- Node16 -->
<g id="node16" class="node">
<title>Node16</title>
<g id="a_node16"><a xlink:href="interfaceSCR__ScenarioFrameworkSlotClearArea.html" target="_top" xlink:title=" ">
<polygon fill="white" stroke="#666666" points="911.5,-275.5 765.5,-275.5 765.5,-245.5 911.5,-245.5 911.5,-275.5"/>
<text text-anchor="start" x="773.5" y="-263.5" font-family="Helvetica,sans-Serif" font-size="10.00">SCR_ScenarioFrameworkSlot</text>
<text text-anchor="middle" x="838.5" y="-252.5" font-family="Helvetica,sans-Serif" font-size="10.00">ClearArea</text>
</a>
</g>
</g>
<!-- Node15&#45;&gt;Node16 -->
<g id="edge15" class="edge">
<title>Node15&#45;&gt;Node16</title>
<path fill="none" stroke="#63b8ff" d="M707.41,-178.95C710.04,-180.33 712.58,-181.84 715,-183.5 738.5,-199.58 727.86,-219.9 751,-236.5 755.56,-239.77 760.55,-242.6 765.75,-245.04"/>
<polygon fill="#63b8ff" stroke="#63b8ff" points="709.1,-175.42 698.55,-174.49 706.22,-181.8 709.1,-175.42"/>
</g>
<!-- Node17 -->
<g id="node17" class="node">
<title>Node17</title>
<g id="a_node17"><a xlink:href="interfaceSCR__ScenarioFrameworkSlotDelivery.html" target="_top" xlink:title=" ">
<polygon fill="white" stroke="#666666" points="911.5,-227.5 765.5,-227.5 765.5,-197.5 911.5,-197.5 911.5,-227.5"/>
<text text-anchor="start" x="773.5" y="-215.5" font-family="Helvetica,sans-Serif" font-size="10.00">SCR_ScenarioFrameworkSlot</text>
<text text-anchor="middle" x="838.5" y="-204.5" font-family="Helvetica,sans-Serif" font-size="10.00">Delivery</text>
</a>
</g>
</g>
<!-- Node15&#45;&gt;Node17 -->
<g id="edge16" class="edge">
<title>Node15&#45;&gt;Node17</title>
<path fill="none" stroke="#63b8ff" d="M686.36,-176.85C695.9,-179.06 705.74,-181.34 715,-183.5 733.73,-187.87 754.06,-192.67 772.67,-197.07"/>
<polygon fill="#63b8ff" stroke="#63b8ff" points="687.29,-173.25 676.76,-174.41 685.71,-180.07 687.29,-173.25"/>
</g>
<!-- Node18 -->
<g id="node18" class="node">
<title>Node18</title>
<g id="a_node18"><a xlink:href="interfaceSCR__ScenarioFrameworkSlotDestroy.html" target="_top" xlink:title=" ">
<polygon fill="white" stroke="#666666" points="911.5,-179.5 765.5,-179.5 765.5,-149.5 911.5,-149.5 911.5,-179.5"/>
<text text-anchor="start" x="773.5" y="-167.5" font-family="Helvetica,sans-Serif" font-size="10.00">SCR_ScenarioFrameworkSlot</text>
<text text-anchor="middle" x="838.5" y="-156.5" font-family="Helvetica,sans-Serif" font-size="10.00">Destroy</text>
</a>
</g>
</g>
<!-- Node15&#45;&gt;Node18 -->
<g id="edge17" class="edge">
<title>Node15&#45;&gt;Node18</title>
<path fill="none" stroke="#63b8ff" d="M726.24,-164.5C739.35,-164.5 752.65,-164.5 765.28,-164.5"/>
<polygon fill="#63b8ff" stroke="#63b8ff" points="726.29,-161 716.29,-164.5 726.29,-168 726.29,-161"/>
</g>
<!-- Node19 -->
<g id="node19" class="node">
<title>Node19</title>
<g id="a_node19"><a xlink:href="interfaceSCR__ScenarioFrameworkSlotExtraction.html" target="_top" xlink:title=" ">
<polygon fill="white" stroke="#666666" points="911.5,-131.5 765.5,-131.5 765.5,-101.5 911.5,-101.5 911.5,-131.5"/>
<text text-anchor="start" x="773.5" y="-119.5" font-family="Helvetica,sans-Serif" font-size="10.00">SCR_ScenarioFrameworkSlot</text>
<text text-anchor="middle" x="838.5" y="-108.5" font-family="Helvetica,sans-Serif" font-size="10.00">Extraction</text>
</a>
</g>
</g>
<!-- Node15&#45;&gt;Node19 -->
<g id="edge18" class="edge">
<title>Node15&#45;&gt;Node19</title>
<path fill="none" stroke="#63b8ff" d="M686.36,-152.15C695.9,-149.94 705.74,-147.66 715,-145.5 733.73,-141.13 754.06,-136.33 772.67,-131.93"/>
<polygon fill="#63b8ff" stroke="#63b8ff" points="685.71,-148.93 676.76,-154.59 687.29,-155.75 685.71,-148.93"/>
</g>
<!-- Node20 -->
<g id="node20" class="node">
<title>Node20</title>
<g id="a_node20"><a xlink:href="interfaceSCR__ScenarioFrameworkSlotPick.html" target="_top" xlink:title=" ">
<polygon fill="white" stroke="#666666" points="921,-83 756,-83 756,-64 921,-64 921,-83"/>
<text text-anchor="middle" x="838.5" y="-71" font-family="Helvetica,sans-Serif" font-size="10.00">SCR_ScenarioFrameworkSlotPick</text>
</a>
</g>
</g>
<!-- Node15&#45;&gt;Node20 -->
<g id="edge19" class="edge">
<title>Node15&#45;&gt;Node20</title>
<path fill="none" stroke="#63b8ff" d="M707.41,-150.05C710.04,-148.67 712.58,-147.16 715,-145.5 738.5,-129.42 727.42,-108.47 751,-92.5 756.47,-88.79 762.55,-85.8 768.87,-83.37"/>
<polygon fill="#63b8ff" stroke="#63b8ff" points="706.22,-147.2 698.55,-154.51 709.1,-153.58 706.22,-147.2"/>
</g>
<!-- Node21 -->
<g id="node21" class="node">
<title>Node21</title>
<g id="a_node21"><a xlink:href="interfaceSCR__ScenarioFrameworkSlotTaskAI.html" target="_top" xlink:title=" ">
<polygon fill="white" stroke="#666666" points="911.5,-45.5 765.5,-45.5 765.5,-15.5 911.5,-15.5 911.5,-45.5"/>
<text text-anchor="start" x="773.5" y="-33.5" font-family="Helvetica,sans-Serif" font-size="10.00">SCR_ScenarioFrameworkSlot</text>
<text text-anchor="middle" x="838.5" y="-22.5" font-family="Helvetica,sans-Serif" font-size="10.00">TaskAI</text>
</a>
</g>
</g>
<!-- Node15&#45;&gt;Node21 -->
<g id="edge20" class="edge">
<title>Node15&#45;&gt;Node21</title>
<path fill="none" stroke="#63b8ff" d="M710.01,-149.32C711.75,-148.14 713.41,-146.87 715,-145.5 747.98,-117.14 718.66,-83.58 751,-54.5 755.29,-50.64 760.14,-47.4 765.31,-44.68"/>
<polygon fill="#63b8ff" stroke="#63b8ff" points="708.81,-146.55 701.87,-154.55 712.29,-152.62 708.81,-146.55"/>
</g>
<!-- Node22 -->
<g id="node22" class="node">
<title>Node22</title>
<g id="a_node22"><a xlink:href="interfaceSCR__ScenarioFrameworkSlotDefend.html" target="_top" xlink:title=" ">
<polygon fill="white" stroke="#666666" points="1114.5,-67.5 968.5,-67.5 968.5,-37.5 1114.5,-37.5 1114.5,-67.5"/>
<text text-anchor="start" x="976.5" y="-55.5" font-family="Helvetica,sans-Serif" font-size="10.00">SCR_ScenarioFrameworkSlot</text>
<text text-anchor="middle" x="1041.5" y="-44.5" font-family="Helvetica,sans-Serif" font-size="10.00">Defend</text>
</a>
</g>
</g>
<!-- Node21&#45;&gt;Node22 -->
<g id="edge21" class="edge">
<title>Node21&#45;&gt;Node22</title>
<path fill="none" stroke="#63b8ff" d="M922.67,-39.6C937.77,-41.26 953.42,-42.97 968.18,-44.58"/>
<polygon fill="#63b8ff" stroke="#63b8ff" points="923.1,-36.02 912.78,-38.41 922.34,-42.98 923.1,-36.02"/>
</g>
<!-- Node23 -->
<g id="node23" class="node">
<title>Node23</title>
<g id="a_node23"><a xlink:href="interfaceSCR__ScenarioFrameworkSlotKill.html" target="_top" xlink:title=" ">
<polygon fill="white" stroke="#666666" points="1121,-19 962,-19 962,0 1121,0 1121,-19"/>
<text text-anchor="middle" x="1041.5" y="-7" font-family="Helvetica,sans-Serif" font-size="10.00">SCR_ScenarioFrameworkSlotKill</text>
</a>
</g>
</g>
<!-- Node21&#45;&gt;Node23 -->
<g id="edge22" class="edge">
<title>Node21&#45;&gt;Node23</title>
<path fill="none" stroke="#63b8ff" d="M922.55,-21.82C935.51,-20.47 948.86,-19.07 961.72,-17.73"/>
<polygon fill="#63b8ff" stroke="#63b8ff" points="922.36,-18.43 912.78,-22.95 923.09,-25.39 922.36,-18.43"/>
</g>
</g>
</svg>
