<?xml version="1.0" encoding="UTF-8" standalone="no"?>
<!DOCTYPE svg PUBLIC "-//W3C//DTD SVG 1.1//EN"
 "http://www.w3.org/Graphics/SVG/1.1/DTD/svg11.dtd">
<!-- Generated by graphviz version 8.0.2 (20230410.1723)
 -->
<!-- Title: SCR_FactionsToolbarEditorUIComponent Pages: 1 -->
<svg width="188pt" height="379pt"
 viewBox="0.00 0.00 188.00 379.00" xmlns="http://www.w3.org/2000/svg" xmlns:xlink="http://www.w3.org/1999/xlink">
<g id="graph0" class="graph" transform="scale(1 1) rotate(0) translate(4 375)">
<title>SCR_FactionsToolbarEditorUIComponent</title>
<!-- Node1 -->
<g id="node1" class="node">
<title>Node1</title>
<g id="a_node1"><a xlink:title=" ">
<polygon fill="#999999" stroke="#666666" points="158.5,-30 21.5,-30 21.5,0 158.5,0 158.5,-30"/>
<text text-anchor="start" x="29.5" y="-18" font-family="Helvetica,sans-Serif" font-size="10.00">SCR_FactionsToolbarEditor</text>
<text text-anchor="middle" x="90" y="-7" font-family="Helvetica,sans-Serif" font-size="10.00">UIComponent</text>
</a>
</g>
</g>
<!-- Node2 -->
<g id="node2" class="node">
<title>Node2</title>
<g id="a_node2"><a xlink:href="interfaceSCR__EntitiesToolbarEditorUIComponent.html" target="_top" xlink:title=" ">
<polygon fill="white" stroke="#666666" points="156,-96 24,-96 24,-66 156,-66 156,-96"/>
<text text-anchor="start" x="32" y="-84" font-family="Helvetica,sans-Serif" font-size="10.00">SCR_EntitiesToolbarEditor</text>
<text text-anchor="middle" x="90" y="-73" font-family="Helvetica,sans-Serif" font-size="10.00">UIComponent</text>
</a>
</g>
</g>
<!-- Node2&#45;&gt;Node1 -->
<g id="edge1" class="edge">
<title>Node2&#45;&gt;Node1</title>
<path fill="none" stroke="#63b8ff" d="M90,-54.97C90,-46.55 90,-37.45 90,-30.16"/>
<polygon fill="#63b8ff" stroke="#63b8ff" points="86.5,-54.8 90,-64.8 93.5,-54.8 86.5,-54.8"/>
</g>
<!-- Node3 -->
<g id="node3" class="node">
<title>Node3</title>
<g id="a_node3"><a xlink:href="interfaceSCR__BaseToolbarEditorUIComponent.html" target="_top" xlink:title=" ">
<polygon fill="white" stroke="#666666" points="180,-151 0,-151 0,-132 180,-132 180,-151"/>
<text text-anchor="middle" x="90" y="-139" font-family="Helvetica,sans-Serif" font-size="10.00">SCR_BaseToolbarEditorUIComponent</text>
</a>
</g>
</g>
<!-- Node3&#45;&gt;Node2 -->
<g id="edge2" class="edge">
<title>Node3&#45;&gt;Node2</title>
<path fill="none" stroke="#63b8ff" d="M90,-121.08C90,-112.92 90,-103.6 90,-96.11"/>
<polygon fill="#63b8ff" stroke="#63b8ff" points="86.5,-120.87 90,-130.87 93.5,-120.87 86.5,-120.87"/>
</g>
<!-- Node4 -->
<g id="node4" class="node">
<title>Node4</title>
<g id="a_node4"><a xlink:href="interfaceSCR__DialogEditorUIComponent.html" target="_top" xlink:title=" ">
<polygon fill="white" stroke="#666666" points="166.5,-206 13.5,-206 13.5,-187 166.5,-187 166.5,-206"/>
<text text-anchor="middle" x="90" y="-194" font-family="Helvetica,sans-Serif" font-size="10.00">SCR_DialogEditorUIComponent</text>
</a>
</g>
</g>
<!-- Node4&#45;&gt;Node3 -->
<g id="edge3" class="edge">
<title>Node4&#45;&gt;Node3</title>
<path fill="none" stroke="#63b8ff" d="M90,-175.93C90,-167.53 90,-158.13 90,-151.44"/>
<polygon fill="#63b8ff" stroke="#63b8ff" points="86.5,-175.75 90,-185.75 93.5,-175.75 86.5,-175.75"/>
</g>
<!-- Node5 -->
<g id="node5" class="node">
<title>Node5</title>
<g id="a_node5"><a xlink:href="interfaceSCR__BaseEditorUIComponent.html" target="_top" xlink:title=" ">
<polygon fill="white" stroke="#666666" points="164.5,-261 15.5,-261 15.5,-242 164.5,-242 164.5,-261"/>
<text text-anchor="middle" x="90" y="-249" font-family="Helvetica,sans-Serif" font-size="10.00">SCR_BaseEditorUIComponent</text>
</a>
</g>
</g>
<!-- Node5&#45;&gt;Node4 -->
<g id="edge4" class="edge">
<title>Node5&#45;&gt;Node4</title>
<path fill="none" stroke="#63b8ff" d="M90,-230.93C90,-222.53 90,-213.13 90,-206.44"/>
<polygon fill="#63b8ff" stroke="#63b8ff" points="86.5,-230.75 90,-240.75 93.5,-230.75 86.5,-230.75"/>
</g>
<!-- Node6 -->
<g id="node6" class="node">
<title>Node6</title>
<g id="a_node6"><a xlink:href="interfaceMenuRootSubComponent.html" target="_top" xlink:title="Widget component which is linked to menu it&#39;s part of.">
<polygon fill="white" stroke="#666666" points="154,-316 26,-316 26,-297 154,-297 154,-316"/>
<text text-anchor="middle" x="90" y="-304" font-family="Helvetica,sans-Serif" font-size="10.00">MenuRootSubComponent</text>
</a>
</g>
</g>
<!-- Node6&#45;&gt;Node5 -->
<g id="edge5" class="edge">
<title>Node6&#45;&gt;Node5</title>
<path fill="none" stroke="#63b8ff" d="M90,-285.93C90,-277.53 90,-268.13 90,-261.44"/>
<polygon fill="#63b8ff" stroke="#63b8ff" points="86.5,-285.75 90,-295.75 93.5,-285.75 86.5,-285.75"/>
</g>
<!-- Node7 -->
<g id="node7" class="node">
<title>Node7</title>
<g id="a_node7"><a xlink:title=" ">
<polygon fill="white" stroke="#666666" points="156.5,-371 23.5,-371 23.5,-352 156.5,-352 156.5,-371"/>
<text text-anchor="middle" x="90" y="-359" font-family="Helvetica,sans-Serif" font-size="10.00">ScriptedWidgetComponent</text>
</a>
</g>
</g>
<!-- Node7&#45;&gt;Node6 -->
<g id="edge6" class="edge">
<title>Node7&#45;&gt;Node6</title>
<path fill="none" stroke="#63b8ff" d="M90,-340.93C90,-332.53 90,-323.13 90,-316.44"/>
<polygon fill="#63b8ff" stroke="#63b8ff" points="86.5,-340.75 90,-350.75 93.5,-340.75 86.5,-340.75"/>
</g>
</g>
</svg>
