<?xml version="1.0" encoding="UTF-8" standalone="no"?>
<!DOCTYPE svg PUBLIC "-//W3C//DTD SVG 1.1//EN"
 "http://www.w3.org/Graphics/SVG/1.1/DTD/svg11.dtd">
<!-- Generated by graphviz version 8.0.2 (20230410.1723)
 -->
<!-- Title: SCR_EditableEntitySceneSlotUIComponent Pages: 1 -->
<svg width="156pt" height="225pt"
 viewBox="0.00 0.00 156.00 225.00" xmlns="http://www.w3.org/2000/svg" xmlns:xlink="http://www.w3.org/1999/xlink">
<g id="graph0" class="graph" transform="scale(1 1) rotate(0) translate(4 221)">
<title>SCR_EditableEntitySceneSlotUIComponent</title>
<!-- Node1 -->
<g id="node1" class="node">
<title>Node1</title>
<g id="a_node1"><a xlink:title=" ">
<polygon fill="#999999" stroke="#666666" points="148,-96 0,-96 0,-66 148,-66 148,-96"/>
<text text-anchor="start" x="8" y="-84" font-family="Helvetica,sans-Serif" font-size="10.00">SCR_EditableEntitySceneSlot</text>
<text text-anchor="middle" x="74" y="-73" font-family="Helvetica,sans-Serif" font-size="10.00">UIComponent</text>
</a>
</g>
</g>
<!-- Node4 -->
<g id="node4" class="node">
<title>Node4</title>
<g id="a_node4"><a xlink:href="interfaceSCR__EditableEntityCustomSlotUIComponent.html" target="_top" xlink:title=" ">
<polygon fill="white" stroke="#666666" points="142.5,-30 5.5,-30 5.5,0 142.5,0 142.5,-30"/>
<text text-anchor="start" x="13.5" y="-18" font-family="Helvetica,sans-Serif" font-size="10.00">SCR_EditableEntityCustom</text>
<text text-anchor="middle" x="74" y="-7" font-family="Helvetica,sans-Serif" font-size="10.00">SlotUIComponent</text>
</a>
</g>
</g>
<!-- Node1&#45;&gt;Node4 -->
<g id="edge3" class="edge">
<title>Node1&#45;&gt;Node4</title>
<path fill="none" stroke="#63b8ff" d="M74,-54.97C74,-46.55 74,-37.45 74,-30.16"/>
<polygon fill="#63b8ff" stroke="#63b8ff" points="70.5,-54.8 74,-64.8 77.5,-54.8 70.5,-54.8"/>
</g>
<!-- Node2 -->
<g id="node2" class="node">
<title>Node2</title>
<g id="a_node2"><a xlink:href="interfaceSCR__EditableEntityBaseSlotUIComponent.html" target="_top" xlink:title="Slot for icons representing editable entity.">
<polygon fill="white" stroke="#666666" points="145.5,-162 2.5,-162 2.5,-132 145.5,-132 145.5,-162"/>
<text text-anchor="start" x="10.5" y="-150" font-family="Helvetica,sans-Serif" font-size="10.00">SCR_EditableEntityBaseSlot</text>
<text text-anchor="middle" x="74" y="-139" font-family="Helvetica,sans-Serif" font-size="10.00">UIComponent</text>
</a>
</g>
</g>
<!-- Node2&#45;&gt;Node1 -->
<g id="edge1" class="edge">
<title>Node2&#45;&gt;Node1</title>
<path fill="none" stroke="#63b8ff" d="M74,-120.97C74,-112.55 74,-103.45 74,-96.16"/>
<polygon fill="#63b8ff" stroke="#63b8ff" points="70.5,-120.8 74,-130.8 77.5,-120.8 70.5,-120.8"/>
</g>
<!-- Node3 -->
<g id="node3" class="node">
<title>Node3</title>
<g id="a_node3"><a xlink:title=" ">
<polygon fill="white" stroke="#666666" points="140.5,-217 7.5,-217 7.5,-198 140.5,-198 140.5,-217"/>
<text text-anchor="middle" x="74" y="-205" font-family="Helvetica,sans-Serif" font-size="10.00">ScriptedWidgetComponent</text>
</a>
</g>
</g>
<!-- Node3&#45;&gt;Node2 -->
<g id="edge2" class="edge">
<title>Node3&#45;&gt;Node2</title>
<path fill="none" stroke="#63b8ff" d="M74,-187.08C74,-178.92 74,-169.6 74,-162.11"/>
<polygon fill="#63b8ff" stroke="#63b8ff" points="70.5,-186.87 74,-196.87 77.5,-186.87 70.5,-186.87"/>
</g>
</g>
</svg>
