<?xml version="1.0" encoding="UTF-8" standalone="no"?>
<!DOCTYPE svg PUBLIC "-//W3C//DTD SVG 1.1//EN"
 "http://www.w3.org/Graphics/SVG/1.1/DTD/svg11.dtd">
<!-- Generated by graphviz version 8.0.2 (20230410.1723)
 -->
<!-- Title: SCR_EntityFactionEditorAttribute Pages: 1 -->
<svg width="177pt" height="258pt"
 viewBox="0.00 0.00 177.00 258.00" xmlns="http://www.w3.org/2000/svg" xmlns:xlink="http://www.w3.org/1999/xlink">
<g id="graph0" class="graph" transform="scale(1 1) rotate(0) translate(4 254)">
<title>SCR_EntityFactionEditorAttribute</title>
<!-- Node1 -->
<g id="node1" class="node">
<title>Node1</title>
<g id="a_node1"><a xlink:title="A Generic entity faction changer.">
<polygon fill="#999999" stroke="#666666" points="165.5,-19 3.5,-19 3.5,0 165.5,0 165.5,-19"/>
<text text-anchor="middle" x="84.5" y="-7" font-family="Helvetica,sans-Serif" font-size="10.00">SCR_EntityFactionEditorAttribute</text>
</a>
</g>
</g>
<!-- Node2 -->
<g id="node2" class="node">
<title>Node2</title>
<g id="a_node2"><a xlink:href="interfaceSCR__BaseFactionEditableAttribute.html" target="_top" xlink:title="Group Faction Attribute for getting and setting varriables in Editor Attribute window.">
<polygon fill="white" stroke="#666666" points="169,-74 0,-74 0,-55 169,-55 169,-74"/>
<text text-anchor="middle" x="84.5" y="-62" font-family="Helvetica,sans-Serif" font-size="10.00">SCR_BaseFactionEditableAttribute</text>
</a>
</g>
</g>
<!-- Node2&#45;&gt;Node1 -->
<g id="edge1" class="edge">
<title>Node2&#45;&gt;Node1</title>
<path fill="none" stroke="#63b8ff" d="M84.5,-43.93C84.5,-35.53 84.5,-26.13 84.5,-19.44"/>
<polygon fill="#63b8ff" stroke="#63b8ff" points="81,-43.75 84.5,-53.75 88,-43.75 81,-43.75"/>
</g>
<!-- Node3 -->
<g id="node3" class="node">
<title>Node3</title>
<g id="a_node3"><a xlink:href="interfaceSCR__BasePresetsEditorAttribute.html" target="_top" xlink:title="Attribute base for Name, icon and float value for other attributes to inherent from.">
<polygon fill="white" stroke="#666666" points="165,-129 4,-129 4,-110 165,-110 165,-129"/>
<text text-anchor="middle" x="84.5" y="-117" font-family="Helvetica,sans-Serif" font-size="10.00">SCR_BasePresetsEditorAttribute</text>
</a>
</g>
</g>
<!-- Node3&#45;&gt;Node2 -->
<g id="edge2" class="edge">
<title>Node3&#45;&gt;Node2</title>
<path fill="none" stroke="#63b8ff" d="M84.5,-98.93C84.5,-90.53 84.5,-81.13 84.5,-74.44"/>
<polygon fill="#63b8ff" stroke="#63b8ff" points="81,-98.75 84.5,-108.75 88,-98.75 81,-98.75"/>
</g>
<!-- Node4 -->
<g id="node4" class="node">
<title>Node4</title>
<g id="a_node4"><a xlink:href="interfaceSCR__BaseFloatValueHolderEditorAttribute.html" target="_top" xlink:title="Attribute base for Name, icon and float value for other attributes to inherent from.">
<polygon fill="white" stroke="#666666" points="154,-195 15,-195 15,-165 154,-165 154,-195"/>
<text text-anchor="start" x="23" y="-183" font-family="Helvetica,sans-Serif" font-size="10.00">SCR_BaseFloatValueHolder</text>
<text text-anchor="middle" x="84.5" y="-172" font-family="Helvetica,sans-Serif" font-size="10.00">EditorAttribute</text>
</a>
</g>
</g>
<!-- Node4&#45;&gt;Node3 -->
<g id="edge3" class="edge">
<title>Node4&#45;&gt;Node3</title>
<path fill="none" stroke="#63b8ff" d="M84.5,-153.59C84.5,-144.85 84.5,-135.65 84.5,-129.18"/>
<polygon fill="#63b8ff" stroke="#63b8ff" points="81,-153.54 84.5,-163.54 88,-153.54 81,-153.54"/>
</g>
<!-- Node5 -->
<g id="node5" class="node">
<title>Node5</title>
<g id="a_node5"><a xlink:href="interfaceSCR__BaseEditorAttribute.html" target="_top" xlink:title="Base Attribute Script for other attributes to inherent from to get and set varriables in Editor Attri...">
<polygon fill="white" stroke="#666666" points="148,-250 21,-250 21,-231 148,-231 148,-250"/>
<text text-anchor="middle" x="84.5" y="-238" font-family="Helvetica,sans-Serif" font-size="10.00">SCR_BaseEditorAttribute</text>
</a>
</g>
</g>
<!-- Node5&#45;&gt;Node4 -->
<g id="edge4" class="edge">
<title>Node5&#45;&gt;Node4</title>
<path fill="none" stroke="#63b8ff" d="M84.5,-220.08C84.5,-211.92 84.5,-202.6 84.5,-195.11"/>
<polygon fill="#63b8ff" stroke="#63b8ff" points="81,-219.87 84.5,-229.87 88,-219.87 81,-219.87"/>
</g>
</g>
</svg>
