<?xml version="1.0" encoding="UTF-8" standalone="no"?>
<!DOCTYPE svg PUBLIC "-//W3C//DTD SVG 1.1//EN"
 "http://www.w3.org/Graphics/SVG/1.1/DTD/svg11.dtd">
<!-- Generated by graphviz version 8.0.2 (20230410.1723)
 -->
<!-- Title: SCR_FireplaceComponent Pages: 1 -->
<svg width="143pt" height="203pt"
 viewBox="0.00 0.00 143.00 203.00" xmlns="http://www.w3.org/2000/svg" xmlns:xlink="http://www.w3.org/1999/xlink">
<g id="graph0" class="graph" transform="scale(1 1) rotate(0) translate(4 199)">
<title>SCR_FireplaceComponent</title>
<!-- Node1 -->
<g id="node1" class="node">
<title>Node1</title>
<g id="a_node1"><a xlink:title=" ">
<polygon fill="#999999" stroke="#666666" points="133,-19 2,-19 2,0 133,0 133,-19"/>
<text text-anchor="middle" x="67.5" y="-7" font-family="Helvetica,sans-Serif" font-size="10.00">SCR_FireplaceComponent</text>
</a>
</g>
</g>
<!-- Node2 -->
<g id="node2" class="node">
<title>Node2</title>
<g id="a_node2"><a xlink:href="interfaceSCR__BaseInteractiveLightComponent.html" target="_top" xlink:title=" ">
<polygon fill="white" stroke="#666666" points="132,-85 3,-85 3,-55 132,-55 132,-85"/>
<text text-anchor="start" x="11" y="-73" font-family="Helvetica,sans-Serif" font-size="10.00">SCR_BaseInteractiveLight</text>
<text text-anchor="middle" x="67.5" y="-62" font-family="Helvetica,sans-Serif" font-size="10.00">Component</text>
</a>
</g>
</g>
<!-- Node2&#45;&gt;Node1 -->
<g id="edge1" class="edge">
<title>Node2&#45;&gt;Node1</title>
<path fill="none" stroke="#63b8ff" d="M67.5,-43.59C67.5,-34.85 67.5,-25.65 67.5,-19.18"/>
<polygon fill="#63b8ff" stroke="#63b8ff" points="64,-43.54 67.5,-53.54 71,-43.54 64,-43.54"/>
</g>
<!-- Node3 -->
<g id="node3" class="node">
<title>Node3</title>
<g id="a_node3"><a xlink:href="interfaceSCR__BaseLightComponent.html" target="_top" xlink:title=" ">
<polygon fill="white" stroke="#666666" points="135,-140 0,-140 0,-121 135,-121 135,-140"/>
<text text-anchor="middle" x="67.5" y="-128" font-family="Helvetica,sans-Serif" font-size="10.00">SCR_BaseLightComponent</text>
</a>
</g>
</g>
<!-- Node3&#45;&gt;Node2 -->
<g id="edge2" class="edge">
<title>Node3&#45;&gt;Node2</title>
<path fill="none" stroke="#63b8ff" d="M67.5,-110.08C67.5,-101.92 67.5,-92.6 67.5,-85.11"/>
<polygon fill="#63b8ff" stroke="#63b8ff" points="64,-109.87 67.5,-119.87 71,-109.87 64,-109.87"/>
</g>
<!-- Node4 -->
<g id="node4" class="node">
<title>Node4</title>
<g id="a_node4"><a xlink:title=" ">
<polygon fill="white" stroke="#666666" points="113.5,-195 21.5,-195 21.5,-176 113.5,-176 113.5,-195"/>
<text text-anchor="middle" x="67.5" y="-183" font-family="Helvetica,sans-Serif" font-size="10.00">ScriptComponent</text>
</a>
</g>
</g>
<!-- Node4&#45;&gt;Node3 -->
<g id="edge3" class="edge">
<title>Node4&#45;&gt;Node3</title>
<path fill="none" stroke="#63b8ff" d="M67.5,-164.93C67.5,-156.53 67.5,-147.13 67.5,-140.44"/>
<polygon fill="#63b8ff" stroke="#63b8ff" points="64,-164.75 67.5,-174.75 71,-164.75 64,-164.75"/>
</g>
</g>
</svg>
