<?xml version="1.0" encoding="UTF-8" standalone="no"?>
<!DOCTYPE svg PUBLIC "-//W3C//DTD SVG 1.1//EN"
 "http://www.w3.org/Graphics/SVG/1.1/DTD/svg11.dtd">
<!-- Generated by graphviz version 8.0.2 (20230410.1723)
 -->
<!-- Title: SCR_DayTimeInfoBase Pages: 1 -->
<svg width="415pt" height="82pt"
 viewBox="0.00 0.00 414.50 82.00" xmlns="http://www.w3.org/2000/svg" xmlns:xlink="http://www.w3.org/1999/xlink">
<g id="graph0" class="graph" transform="scale(1 1) rotate(0) translate(4 78)">
<title>SCR_DayTimeInfoBase</title>
<!-- Node1 -->
<g id="node1" class="node">
<title>Node1</title>
<g id="a_node1"><a xlink:title=" ">
<polygon fill="#999999" stroke="#666666" points="260,-74 142,-74 142,-55 260,-55 260,-74"/>
<text text-anchor="middle" x="201" y="-62" font-family="Helvetica,sans-Serif" font-size="10.00">SCR_DayTimeInfoBase</text>
</a>
</g>
</g>
<!-- Node2 -->
<g id="node2" class="node">
<title>Node2</title>
<g id="a_node2"><a xlink:href="interfaceSCR__DayTimeInfoAuto.html" target="_top" xlink:title=" ">
<polygon fill="white" stroke="#666666" points="116,-19 0,-19 0,0 116,0 116,-19"/>
<text text-anchor="middle" x="58" y="-7" font-family="Helvetica,sans-Serif" font-size="10.00">SCR_DayTimeInfoAuto</text>
</a>
</g>
</g>
<!-- Node1&#45;&gt;Node2 -->
<g id="edge1" class="edge">
<title>Node1&#45;&gt;Node2</title>
<path fill="none" stroke="#63b8ff" d="M166.5,-50.71C140.33,-41.01 105.03,-27.93 81.9,-19.36"/>
<polygon fill="#63b8ff" stroke="#63b8ff" points="165.15,-54.32 175.74,-54.51 167.58,-47.75 165.15,-54.32"/>
</g>
<!-- Node3 -->
<g id="node3" class="node">
<title>Node3</title>
<g id="a_node3"><a xlink:href="interfaceSCR__DayTimeInfoBetween.html" target="_top" xlink:title=" ">
<polygon fill="white" stroke="#666666" points="267.5,-19 134.5,-19 134.5,0 267.5,0 267.5,-19"/>
<text text-anchor="middle" x="201" y="-7" font-family="Helvetica,sans-Serif" font-size="10.00">SCR_DayTimeInfoBetween</text>
</a>
</g>
</g>
<!-- Node1&#45;&gt;Node3 -->
<g id="edge2" class="edge">
<title>Node1&#45;&gt;Node3</title>
<path fill="none" stroke="#63b8ff" d="M201,-43.93C201,-35.53 201,-26.13 201,-19.44"/>
<polygon fill="#63b8ff" stroke="#63b8ff" points="197.5,-43.75 201,-53.75 204.5,-43.75 197.5,-43.75"/>
</g>
<!-- Node4 -->
<g id="node4" class="node">
<title>Node4</title>
<g id="a_node4"><a xlink:href="interfaceSCR__DayTimeInfoStatic.html" target="_top" xlink:title=" ">
<polygon fill="white" stroke="#666666" points="406.5,-19 285.5,-19 285.5,0 406.5,0 406.5,-19"/>
<text text-anchor="middle" x="346" y="-7" font-family="Helvetica,sans-Serif" font-size="10.00">SCR_DayTimeInfoStatic</text>
</a>
</g>
</g>
<!-- Node1&#45;&gt;Node4 -->
<g id="edge3" class="edge">
<title>Node1&#45;&gt;Node4</title>
<path fill="none" stroke="#63b8ff" d="M235.63,-50.84C262.2,-41.13 298.21,-27.97 321.77,-19.36"/>
<polygon fill="#63b8ff" stroke="#63b8ff" points="234.79,-47.79 226.6,-54.51 237.19,-54.36 234.79,-47.79"/>
</g>
</g>
</svg>
