<?xml version="1.0" encoding="UTF-8" standalone="no"?>
<!DOCTYPE svg PUBLIC "-//W3C//DTD SVG 1.1//EN"
 "http://www.w3.org/Graphics/SVG/1.1/DTD/svg11.dtd">
<!-- Generated by graphviz version 8.0.2 (20230410.1723)
 -->
<!-- Title: UIInfo Pages: 1 -->
<svg width="485pt" height="286pt"
 viewBox="0.00 0.00 485.00 286.00" xmlns="http://www.w3.org/2000/svg" xmlns:xlink="http://www.w3.org/1999/xlink">
<g id="graph0" class="graph" transform="scale(1 1) rotate(0) translate(4 282)">
<title>UIInfo</title>
<!-- Node1 -->
<g id="node1" class="node">
<title>Node1</title>
<g id="a_node1"><a xlink:title="UIInfo &#45; declare object, allows to define UI elements.">
<polygon fill="#999999" stroke="#666666" points="163,-148 122,-148 122,-129 163,-129 163,-148"/>
<text text-anchor="middle" x="142.5" y="-136" font-family="Helvetica,sans-Serif" font-size="10.00">UIInfo</text>
</a>
</g>
</g>
<!-- Node3 -->
<g id="node3" class="node">
<title>Node3</title>
<g id="a_node3"><a xlink:href="interfaceMagazineUIInfo.html" target="_top" xlink:title="Forward declaration of UIInfo Serves as a container of data to be displayed on player UI.">
<polygon fill="white" stroke="#666666" points="310.5,-278 227.5,-278 227.5,-259 310.5,-259 310.5,-278"/>
<text text-anchor="middle" x="269" y="-266" font-family="Helvetica,sans-Serif" font-size="10.00">MagazineUIInfo</text>
</a>
</g>
</g>
<!-- Node1&#45;&gt;Node3 -->
<g id="edge2" class="edge">
<title>Node1&#45;&gt;Node3</title>
<path fill="none" stroke="#63b8ff" d="M148.08,-158.86C154.83,-184.16 169.94,-226.85 199,-250.5 207.07,-257.06 217.27,-261.26 227.34,-263.93"/>
<polygon fill="#63b8ff" stroke="#63b8ff" points="151.26,-158.17 145.47,-149.3 144.47,-159.85 151.26,-158.17"/>
</g>
<!-- Node4 -->
<g id="node4" class="node">
<title>Node4</title>
<g id="a_node4"><a xlink:href="interfaceMuzzleUIInfo.html" target="_top" xlink:title="Forward declaration of UIInfo Serves as a container of data to be displayed on player UI.">
<polygon fill="white" stroke="#666666" points="305,-241 233,-241 233,-222 305,-222 305,-241"/>
<text text-anchor="middle" x="269" y="-229" font-family="Helvetica,sans-Serif" font-size="10.00">MuzzleUIInfo</text>
</a>
</g>
</g>
<!-- Node1&#45;&gt;Node4 -->
<g id="edge3" class="edge">
<title>Node1&#45;&gt;Node4</title>
<path fill="none" stroke="#63b8ff" d="M153.06,-158.07C162.44,-175.22 178.33,-199.53 199,-213.5 208.95,-220.23 221.26,-224.44 232.73,-227.08"/>
<polygon fill="#63b8ff" stroke="#63b8ff" points="155.8,-156.73 148.08,-149.47 149.58,-159.96 155.8,-156.73"/>
</g>
<!-- Node5 -->
<g id="node5" class="node">
<title>Node5</title>
<g id="a_node5"><a xlink:href="interfaceSCR__ActionContextUIInfo.html" target="_top" xlink:title=" ">
<polygon fill="white" stroke="#666666" points="333,-204 205,-204 205,-185 333,-185 333,-204"/>
<text text-anchor="middle" x="269" y="-192" font-family="Helvetica,sans-Serif" font-size="10.00">SCR_ActionContextUIInfo</text>
</a>
</g>
</g>
<!-- Node1&#45;&gt;Node5 -->
<g id="edge4" class="edge">
<title>Node1&#45;&gt;Node5</title>
<path fill="none" stroke="#63b8ff" d="M163.59,-154.76C173.71,-162.28 186.47,-170.79 199,-176.5 205.87,-179.63 213.39,-182.29 220.85,-184.53"/>
<polygon fill="#63b8ff" stroke="#63b8ff" points="166.18,-151.56 156.12,-148.24 161.91,-157.11 166.18,-151.56"/>
</g>
<!-- Node6 -->
<g id="node6" class="node">
<title>Node6</title>
<g id="a_node6"><a xlink:href="interfaceSCR__ActionUIInfo.html" target="_top" xlink:title=" ">
<polygon fill="white" stroke="#666666" points="316,-167 222,-167 222,-148 316,-148 316,-167"/>
<text text-anchor="middle" x="269" y="-155" font-family="Helvetica,sans-Serif" font-size="10.00">SCR_ActionUIInfo</text>
</a>
</g>
</g>
<!-- Node1&#45;&gt;Node6 -->
<g id="edge5" class="edge">
<title>Node1&#45;&gt;Node6</title>
<path fill="none" stroke="#63b8ff" d="M174,-143.15C188.36,-145.35 205.81,-148.01 221.75,-150.44"/>
<polygon fill="#63b8ff" stroke="#63b8ff" points="174.64,-139.56 164.23,-141.51 173.58,-146.48 174.64,-139.56"/>
</g>
<!-- Node7 -->
<g id="node7" class="node">
<title>Node7</title>
<g id="a_node7"><a xlink:href="interfaceSCR__FactionUIInfo.html" target="_top" xlink:title="Forward declaration of UIInfo Serves as a container of data to be displayed on player UI.">
<polygon fill="white" stroke="#666666" points="318,-130 220,-130 220,-111 318,-111 318,-130"/>
<text text-anchor="middle" x="269" y="-118" font-family="Helvetica,sans-Serif" font-size="10.00">SCR_FactionUIInfo</text>
</a>
</g>
</g>
<!-- Node1&#45;&gt;Node7 -->
<g id="edge6" class="edge">
<title>Node1&#45;&gt;Node7</title>
<path fill="none" stroke="#63b8ff" d="M174.01,-134.09C187.73,-132.1 204.27,-129.71 219.62,-127.49"/>
<polygon fill="#63b8ff" stroke="#63b8ff" points="173.62,-130.75 164.23,-135.65 174.63,-137.68 173.62,-130.75"/>
</g>
<!-- Node8 -->
<g id="node8" class="node">
<title>Node8</title>
<g id="a_node8"><a xlink:href="interfaceSCR__InventoryDamageUIInfo.html" target="_top" xlink:title=" ">
<polygon fill="white" stroke="#666666" points="339,-93 199,-93 199,-74 339,-74 339,-93"/>
<text text-anchor="middle" x="269" y="-81" font-family="Helvetica,sans-Serif" font-size="10.00">SCR_InventoryDamageUIInfo</text>
</a>
</g>
</g>
<!-- Node1&#45;&gt;Node8 -->
<g id="edge7" class="edge">
<title>Node1&#45;&gt;Node8</title>
<path fill="none" stroke="#63b8ff" d="M164.36,-122.19C174.37,-115 186.83,-106.96 199,-101.5 206,-98.36 213.66,-95.68 221.25,-93.43"/>
<polygon fill="#63b8ff" stroke="#63b8ff" points="162.52,-119.93 156.58,-128.71 166.7,-125.55 162.52,-119.93"/>
</g>
<!-- Node9 -->
<g id="node9" class="node">
<title>Node9</title>
<g id="a_node9"><a xlink:href="interfaceSCR__InventoryUIInfo.html" target="_top" xlink:title=" ">
<polygon fill="white" stroke="#666666" points="321,-56 217,-56 217,-37 321,-37 321,-56"/>
<text text-anchor="middle" x="269" y="-44" font-family="Helvetica,sans-Serif" font-size="10.00">SCR_InventoryUIInfo</text>
</a>
</g>
</g>
<!-- Node1&#45;&gt;Node9 -->
<g id="edge8" class="edge">
<title>Node1&#45;&gt;Node9</title>
<path fill="none" stroke="#63b8ff" d="M153.13,-119.19C162.55,-102.27 178.46,-78.29 199,-64.5 204.34,-60.91 210.37,-58.04 216.57,-55.74"/>
<polygon fill="#63b8ff" stroke="#63b8ff" points="149.7,-117.19 148.12,-127.66 155.89,-120.46 149.7,-117.19"/>
</g>
<!-- Node11 -->
<g id="node11" class="node">
<title>Node11</title>
<g id="a_node11"><a xlink:href="interfaceWeaponUIInfo.html" target="_top" xlink:title="Forward declaration of UIInfo Serves as a container of data to be displayed on player UI.">
<polygon fill="white" stroke="#666666" points="307.5,-19 230.5,-19 230.5,0 307.5,0 307.5,-19"/>
<text text-anchor="middle" x="269" y="-7" font-family="Helvetica,sans-Serif" font-size="10.00">WeaponUIInfo</text>
</a>
</g>
</g>
<!-- Node1&#45;&gt;Node11 -->
<g id="edge10" class="edge">
<title>Node1&#45;&gt;Node11</title>
<path fill="none" stroke="#63b8ff" d="M148.13,-118.31C154.94,-93.24 170.1,-50.92 199,-27.5 207.85,-20.33 219.25,-15.99 230.22,-13.37"/>
<polygon fill="#63b8ff" stroke="#63b8ff" points="144.54,-117.23 145.5,-127.78 151.33,-118.94 144.54,-117.23"/>
</g>
<!-- Node2 -->
<g id="node2" class="node">
<title>Node2</title>
<g id="a_node2"><a xlink:title=" ">
<polygon fill="white" stroke="#666666" points="86,-148 0,-148 0,-129 86,-129 86,-148"/>
<text text-anchor="middle" x="43" y="-136" font-family="Helvetica,sans-Serif" font-size="10.00">ScriptAndConfig</text>
</a>
</g>
</g>
<!-- Node2&#45;&gt;Node1 -->
<g id="edge1" class="edge">
<title>Node2&#45;&gt;Node1</title>
<path fill="none" stroke="#63b8ff" d="M97.42,-138.5C106.03,-138.5 114.45,-138.5 121.59,-138.5"/>
<polygon fill="#63b8ff" stroke="#63b8ff" points="97.48,-135 87.48,-138.5 97.48,-142 97.48,-135"/>
</g>
<!-- Node10 -->
<g id="node10" class="node">
<title>Node10</title>
<g id="a_node10"><a xlink:href="interfaceSCR__ItemHintUIInfo.html" target="_top" xlink:title=" ">
<polygon fill="white" stroke="#666666" points="477,-56 375,-56 375,-37 477,-37 477,-56"/>
<text text-anchor="middle" x="426" y="-44" font-family="Helvetica,sans-Serif" font-size="10.00">SCR_ItemHintUIInfo</text>
</a>
</g>
</g>
<!-- Node9&#45;&gt;Node10 -->
<g id="edge9" class="edge">
<title>Node9&#45;&gt;Node10</title>
<path fill="none" stroke="#63b8ff" d="M331.87,-46.5C346.08,-46.5 361.01,-46.5 374.66,-46.5"/>
<polygon fill="#63b8ff" stroke="#63b8ff" points="332.18,-43 322.18,-46.5 332.18,-50 332.18,-43"/>
</g>
<!-- Node12 -->
<g id="node12" class="node">
<title>Node12</title>
<g id="a_node12"><a xlink:href="interfaceGrenadeUIInfo.html" target="_top" xlink:title=" ">
<polygon fill="white" stroke="#666666" points="464.5,-19 387.5,-19 387.5,0 464.5,0 464.5,-19"/>
<text text-anchor="middle" x="426" y="-7" font-family="Helvetica,sans-Serif" font-size="10.00">GrenadeUIInfo</text>
</a>
</g>
</g>
<!-- Node11&#45;&gt;Node12 -->
<g id="edge11" class="edge">
<title>Node11&#45;&gt;Node12</title>
<path fill="none" stroke="#63b8ff" d="M318.77,-9.5C340.87,-9.5 366.6,-9.5 387.21,-9.5"/>
<polygon fill="#63b8ff" stroke="#63b8ff" points="318.92,-6 308.92,-9.5 318.92,-13 318.92,-6"/>
</g>
</g>
</svg>
