<?xml version="1.0" encoding="UTF-8" standalone="no"?>
<!DOCTYPE svg PUBLIC "-//W3C//DTD SVG 1.1//EN"
 "http://www.w3.org/Graphics/SVG/1.1/DTD/svg11.dtd">
<!-- Generated by graphviz version 8.0.2 (20230410.1723)
 -->
<!-- Title: SCR_InventoryAttachmentPointUI Pages: 1 -->
<svg width="294pt" height="203pt"
 viewBox="0.00 0.00 294.00 203.00" xmlns="http://www.w3.org/2000/svg" xmlns:xlink="http://www.w3.org/1999/xlink">
<g id="graph0" class="graph" transform="scale(1 1) rotate(0) translate(4 199)">
<title>SCR_InventoryAttachmentPointUI</title>
<!-- Node1 -->
<g id="node1" class="node">
<title>Node1</title>
<g id="a_node1"><a xlink:title=" ">
<polygon fill="#999999" stroke="#666666" points="230,-85 68,-85 68,-66 230,-66 230,-85"/>
<text text-anchor="middle" x="149" y="-73" font-family="Helvetica,sans-Serif" font-size="10.00">SCR_InventoryAttachmentPointUI</text>
</a>
</g>
</g>
<!-- Node4 -->
<g id="node4" class="node">
<title>Node4</title>
<g id="a_node4"><a xlink:href="interfaceSCR__InventoryGearInspectionPointUI.html" target="_top" xlink:title=" ">
<polygon fill="white" stroke="#666666" points="146,-30 0,-30 0,0 146,0 146,-30"/>
<text text-anchor="start" x="8" y="-18" font-family="Helvetica,sans-Serif" font-size="10.00">SCR_InventoryGearInspection</text>
<text text-anchor="middle" x="73" y="-7" font-family="Helvetica,sans-Serif" font-size="10.00">PointUI</text>
</a>
</g>
</g>
<!-- Node1&#45;&gt;Node4 -->
<g id="edge3" class="edge">
<title>Node1&#45;&gt;Node4</title>
<path fill="none" stroke="#63b8ff" d="M128.95,-59.06C117.43,-50.2 103.05,-39.13 91.76,-30.44"/>
<polygon fill="#63b8ff" stroke="#63b8ff" points="126.4,-62.29 136.46,-65.62 130.67,-56.74 126.4,-62.29"/>
</g>
<!-- Node5 -->
<g id="node5" class="node">
<title>Node5</title>
<g id="a_node5"><a xlink:href="interfaceSCR__InventoryHitZoneUI.html" target="_top" xlink:title=" ">
<polygon fill="white" stroke="#666666" points="286,-24.5 164,-24.5 164,-5.5 286,-5.5 286,-24.5"/>
<text text-anchor="middle" x="225" y="-12.5" font-family="Helvetica,sans-Serif" font-size="10.00">SCR_InventoryHitZoneUI</text>
</a>
</g>
</g>
<!-- Node1&#45;&gt;Node5 -->
<g id="edge4" class="edge">
<title>Node1&#45;&gt;Node5</title>
<path fill="none" stroke="#63b8ff" d="M169.09,-59.04C183.2,-48.17 201.59,-34.02 213.35,-24.97"/>
<polygon fill="#63b8ff" stroke="#63b8ff" points="167.33,-56.74 161.54,-65.62 171.6,-62.29 167.33,-56.74"/>
</g>
<!-- Node2 -->
<g id="node2" class="node">
<title>Node2</title>
<g id="a_node2"><a xlink:href="interfaceSCR__InventoryStorageBaseUI.html" target="_top" xlink:title="UI Script Inventory of type: non&#45;uniform grid storage.">
<polygon fill="white" stroke="#666666" points="222,-140 76,-140 76,-121 222,-121 222,-140"/>
<text text-anchor="middle" x="149" y="-128" font-family="Helvetica,sans-Serif" font-size="10.00">SCR_InventoryStorageBaseUI</text>
</a>
</g>
</g>
<!-- Node2&#45;&gt;Node1 -->
<g id="edge1" class="edge">
<title>Node2&#45;&gt;Node1</title>
<path fill="none" stroke="#63b8ff" d="M149,-109.93C149,-101.53 149,-92.13 149,-85.44"/>
<polygon fill="#63b8ff" stroke="#63b8ff" points="145.5,-109.75 149,-119.75 152.5,-109.75 145.5,-109.75"/>
</g>
<!-- Node3 -->
<g id="node3" class="node">
<title>Node3</title>
<g id="a_node3"><a xlink:title=" ">
<polygon fill="white" stroke="#666666" points="215.5,-195 82.5,-195 82.5,-176 215.5,-176 215.5,-195"/>
<text text-anchor="middle" x="149" y="-183" font-family="Helvetica,sans-Serif" font-size="10.00">ScriptedWidgetComponent</text>
</a>
</g>
</g>
<!-- Node3&#45;&gt;Node2 -->
<g id="edge2" class="edge">
<title>Node3&#45;&gt;Node2</title>
<path fill="none" stroke="#63b8ff" d="M149,-164.93C149,-156.53 149,-147.13 149,-140.44"/>
<polygon fill="#63b8ff" stroke="#63b8ff" points="145.5,-164.75 149,-174.75 152.5,-164.75 145.5,-164.75"/>
</g>
</g>
</svg>
