<?xml version="1.0" encoding="UTF-8" standalone="no"?>
<!DOCTYPE svg PUBLIC "-//W3C//DTD SVG 1.1//EN"
 "http://www.w3.org/Graphics/SVG/1.1/DTD/svg11.dtd">
<!-- Generated by graphviz version 8.0.2 (20230410.1723)
 -->
<!-- Title: AIActionBase Pages: 1 -->
<svg width="948pt" height="1247pt"
 viewBox="0.00 0.00 948.00 1247.00" xmlns="http://www.w3.org/2000/svg" xmlns:xlink="http://www.w3.org/1999/xlink">
<g id="graph0" class="graph" transform="scale(1 1) rotate(0) translate(4 1243)">
<title>AIActionBase</title>
<!-- Node1 -->
<g id="node1" class="node">
<title>Node1</title>
<g id="a_node1"><a xlink:title=" ">
<polygon fill="#999999" stroke="#666666" points="198,-440 122,-440 122,-421 198,-421 198,-440"/>
<text text-anchor="middle" x="160" y="-428" font-family="Helvetica,sans-Serif" font-size="10.00">AIActionBase</text>
</a>
</g>
</g>
<!-- Node3 -->
<g id="node3" class="node">
<title>Node3</title>
<g id="a_node3"><a xlink:href="interfaceSCR__AIActionBase.html" target="_top" xlink:title=" ">
<polygon fill="white" stroke="#666666" points="335,-440 234,-440 234,-421 335,-421 335,-440"/>
<text text-anchor="middle" x="284.5" y="-428" font-family="Helvetica,sans-Serif" font-size="10.00">SCR_AIActionBase</text>
</a>
</g>
</g>
<!-- Node1&#45;&gt;Node3 -->
<g id="edge2" class="edge">
<title>Node1&#45;&gt;Node3</title>
<path fill="none" stroke="#63b8ff" d="M209.15,-430.5C217.2,-430.5 225.57,-430.5 233.67,-430.5"/>
<polygon fill="#63b8ff" stroke="#63b8ff" points="209.42,-427 199.42,-430.5 209.42,-434 209.42,-427"/>
</g>
<!-- Node2 -->
<g id="node2" class="node">
<title>Node2</title>
<g id="a_node2"><a xlink:title=" ">
<polygon fill="white" stroke="#666666" points="86,-440 0,-440 0,-421 86,-421 86,-440"/>
<text text-anchor="middle" x="43" y="-428" font-family="Helvetica,sans-Serif" font-size="10.00">ScriptAndConfig</text>
</a>
</g>
</g>
<!-- Node2&#45;&gt;Node1 -->
<g id="edge1" class="edge">
<title>Node2&#45;&gt;Node1</title>
<path fill="none" stroke="#63b8ff" d="M97.48,-430.5C105.64,-430.5 113.9,-430.5 121.61,-430.5"/>
<polygon fill="#63b8ff" stroke="#63b8ff" points="97.5,-427 87.5,-430.5 97.49,-434 97.5,-427"/>
</g>
<!-- Node4 -->
<g id="node4" class="node">
<title>Node4</title>
<g id="a_node4"><a xlink:href="interfaceSCR__AIActivityBase.html" target="_top" xlink:title=" ">
<polygon fill="white" stroke="#666666" points="502.5,-1017 397.5,-1017 397.5,-998 502.5,-998 502.5,-1017"/>
<text text-anchor="middle" x="450" y="-1005" font-family="Helvetica,sans-Serif" font-size="10.00">SCR_AIActivityBase</text>
</a>
</g>
</g>
<!-- Node3&#45;&gt;Node4 -->
<g id="edge3" class="edge">
<title>Node3&#45;&gt;Node4</title>
<path fill="none" stroke="#63b8ff" d="M291.16,-450.49C317.47,-543.33 427.23,-930.66 446.2,-997.62"/>
<polygon fill="#63b8ff" stroke="#63b8ff" points="294.3,-449.7 288.2,-441.03 287.56,-451.61 294.3,-449.7"/>
</g>
<!-- Node22 -->
<g id="node19" class="node">
<title>Node22</title>
<g id="a_node19"><a xlink:href="interfaceSCR__AIBehaviorBase.html" target="_top" xlink:title=" ">
<polygon fill="white" stroke="#666666" points="505,-440 395,-440 395,-421 505,-421 505,-440"/>
<text text-anchor="middle" x="450" y="-428" font-family="Helvetica,sans-Serif" font-size="10.00">SCR_AIBehaviorBase</text>
</a>
</g>
</g>
<!-- Node3&#45;&gt;Node22 -->
<g id="edge18" class="edge">
<title>Node3&#45;&gt;Node22</title>
<path fill="none" stroke="#63b8ff" d="M346.2,-430.5C362.05,-430.5 379.02,-430.5 394.52,-430.5"/>
<polygon fill="#63b8ff" stroke="#63b8ff" points="346.44,-427 336.44,-430.5 346.44,-434 346.44,-427"/>
</g>
<!-- Node56 -->
<g id="node48" class="node">
<title>Node56</title>
<g id="a_node48"><a xlink:href="interfaceSCR__AICompositeActionParallel.html" target="_top" xlink:title=" ">
<polygon fill="white" stroke="#666666" points="529,-222 371,-222 371,-203 529,-203 529,-222"/>
<text text-anchor="middle" x="450" y="-210" font-family="Helvetica,sans-Serif" font-size="10.00">SCR_AICompositeActionParallel</text>
</a>
</g>
</g>
<!-- Node3&#45;&gt;Node56 -->
<g id="edge47" class="edge">
<title>Node3&#45;&gt;Node56</title>
<path fill="none" stroke="#63b8ff" d="M299.43,-411.93C332.73,-367.53 416.06,-256.41 441.51,-222.49"/>
<polygon fill="#63b8ff" stroke="#63b8ff" points="296.15,-409.47 292.95,-419.57 301.75,-413.67 296.15,-409.47"/>
</g>
<!-- Node5 -->
<g id="node5" class="node">
<title>Node5</title>
<g id="a_node5"><a xlink:href="interfaceSCR__AIDefendActivity.html" target="_top" xlink:title=" ">
<polygon fill="white" stroke="#666666" points="706,-1239 593,-1239 593,-1220 706,-1220 706,-1239"/>
<text text-anchor="middle" x="649.5" y="-1227" font-family="Helvetica,sans-Serif" font-size="10.00">SCR_AIDefendActivity</text>
</a>
</g>
</g>
<!-- Node4&#45;&gt;Node5 -->
<g id="edge4" class="edge">
<title>Node4&#45;&gt;Node5</title>
<path fill="none" stroke="#63b8ff" d="M456.13,-1027.43C467.87,-1068.78 500.73,-1163.97 565,-1211.5 573.11,-1217.5 582.8,-1221.58 592.66,-1224.34"/>
<polygon fill="#63b8ff" stroke="#63b8ff" points="459.32,-1026.8 453.32,-1018.07 452.56,-1028.64 459.32,-1026.8"/>
</g>
<!-- Node6 -->
<g id="node6" class="node">
<title>Node6</title>
<g id="a_node6"><a xlink:href="interfaceSCR__AIFireteamsActivity.html" target="_top" xlink:title="Base class for all group activities which are related to fireteams.">
<polygon fill="white" stroke="#666666" points="712.5,-1202 586.5,-1202 586.5,-1183 712.5,-1183 712.5,-1202"/>
<text text-anchor="middle" x="649.5" y="-1190" font-family="Helvetica,sans-Serif" font-size="10.00">SCR_AIFireteamsActivity</text>
</a>
</g>
</g>
<!-- Node4&#45;&gt;Node6 -->
<g id="edge5" class="edge">
<title>Node4&#45;&gt;Node6</title>
<path fill="none" stroke="#63b8ff" d="M458.7,-1027.43C473.52,-1063.01 509.54,-1137.2 565,-1174.5 571.4,-1178.8 578.64,-1182.1 586.13,-1184.62"/>
<polygon fill="#63b8ff" stroke="#63b8ff" points="461.61,-1026.3 454.63,-1018.33 455.12,-1028.92 461.61,-1026.3"/>
</g>
<!-- Node11 -->
<g id="node8" class="node">
<title>Node11</title>
<g id="a_node8"><a xlink:href="interfaceSCR__AIFollowActivity.html" target="_top" xlink:title=" ">
<polygon fill="white" stroke="#666666" points="704.5,-1165 594.5,-1165 594.5,-1146 704.5,-1146 704.5,-1165"/>
<text text-anchor="middle" x="649.5" y="-1153" font-family="Helvetica,sans-Serif" font-size="10.00">SCR_AIFollowActivity</text>
</a>
</g>
</g>
<!-- Node4&#45;&gt;Node11 -->
<g id="edge7" class="edge">
<title>Node4&#45;&gt;Node11</title>
<path fill="none" stroke="#63b8ff" d="M462.09,-1026.59C479.92,-1055.44 517.76,-1109.72 565,-1137.5 573.82,-1142.69 583.95,-1146.39 594.05,-1149.02"/>
<polygon fill="#63b8ff" stroke="#63b8ff" points="464.61,-1024.98 456.45,-1018.21 458.61,-1028.58 464.61,-1024.98"/>
</g>
<!-- Node12 -->
<g id="node9" class="node">
<title>Node12</title>
<g id="a_node9"><a xlink:href="interfaceSCR__AIGetInActivity.html" target="_top" xlink:title=" ">
<polygon fill="white" stroke="#666666" points="702.5,-1128 596.5,-1128 596.5,-1109 702.5,-1109 702.5,-1128"/>
<text text-anchor="middle" x="649.5" y="-1116" font-family="Helvetica,sans-Serif" font-size="10.00">SCR_AIGetInActivity</text>
</a>
</g>
</g>
<!-- Node4&#45;&gt;Node12 -->
<g id="edge8" class="edge">
<title>Node4&#45;&gt;Node12</title>
<path fill="none" stroke="#63b8ff" d="M467.52,-1025.37C488.21,-1046.64 525.75,-1081.62 565,-1100.5 574.62,-1105.13 585.44,-1108.58 596.01,-1111.14"/>
<polygon fill="#63b8ff" stroke="#63b8ff" points="470.4,-1023.27 460.96,-1018.44 465.33,-1028.1 470.4,-1023.27"/>
</g>
<!-- Node13 -->
<g id="node10" class="node">
<title>Node13</title>
<g id="a_node10"><a xlink:href="interfaceSCR__AIGetOutActivity.html" target="_top" xlink:title=" ">
<polygon fill="white" stroke="#666666" points="706.5,-1091 592.5,-1091 592.5,-1072 706.5,-1072 706.5,-1091"/>
<text text-anchor="middle" x="649.5" y="-1079" font-family="Helvetica,sans-Serif" font-size="10.00">SCR_AIGetOutActivity</text>
</a>
</g>
</g>
<!-- Node4&#45;&gt;Node13 -->
<g id="edge9" class="edge">
<title>Node4&#45;&gt;Node13</title>
<path fill="none" stroke="#63b8ff" d="M477.37,-1022.76C499.98,-1035.28 533.75,-1052.64 565,-1063.5 573.96,-1066.62 583.67,-1069.3 593.18,-1071.57"/>
<polygon fill="#63b8ff" stroke="#63b8ff" points="479.25,-1019.24 468.82,-1017.39 475.82,-1025.34 479.25,-1019.24"/>
</g>
<!-- Node14 -->
<g id="node11" class="node">
<title>Node14</title>
<g id="a_node11"><a xlink:href="interfaceSCR__AIHealActivity.html" target="_top" xlink:title=" ">
<polygon fill="white" stroke="#666666" points="700.5,-1054 598.5,-1054 598.5,-1035 700.5,-1035 700.5,-1054"/>
<text text-anchor="middle" x="649.5" y="-1042" font-family="Helvetica,sans-Serif" font-size="10.00">SCR_AIHealActivity</text>
</a>
</g>
</g>
<!-- Node4&#45;&gt;Node14 -->
<g id="edge10" class="edge">
<title>Node4&#45;&gt;Node14</title>
<path fill="none" stroke="#63b8ff" d="M513.53,-1019.21C540.89,-1024.34 572.54,-1030.27 598.32,-1035.1"/>
<polygon fill="#63b8ff" stroke="#63b8ff" points="514.36,-1015.62 503.89,-1017.22 513.08,-1022.5 514.36,-1015.62"/>
</g>
<!-- Node15 -->
<g id="node12" class="node">
<title>Node15</title>
<g id="a_node12"><a xlink:href="interfaceSCR__AIIdleActivity.html" target="_top" xlink:title=" ">
<polygon fill="white" stroke="#666666" points="698.5,-1017 600.5,-1017 600.5,-998 698.5,-998 698.5,-1017"/>
<text text-anchor="middle" x="649.5" y="-1005" font-family="Helvetica,sans-Serif" font-size="10.00">SCR_AIIdleActivity</text>
</a>
</g>
</g>
<!-- Node4&#45;&gt;Node15 -->
<g id="edge11" class="edge">
<title>Node4&#45;&gt;Node15</title>
<path fill="none" stroke="#63b8ff" d="M513.74,-1007.5C541.65,-1007.5 574,-1007.5 600.01,-1007.5"/>
<polygon fill="#63b8ff" stroke="#63b8ff" points="513.89,-1004 503.89,-1007.5 513.89,-1011 513.89,-1004"/>
</g>
<!-- Node16 -->
<g id="node13" class="node">
<title>Node16</title>
<g id="a_node13"><a xlink:href="interfaceSCR__AIMoveActivity.html" target="_top" xlink:title=" ">
<polygon fill="white" stroke="#666666" points="702,-980 597,-980 597,-961 702,-961 702,-980"/>
<text text-anchor="middle" x="649.5" y="-968" font-family="Helvetica,sans-Serif" font-size="10.00">SCR_AIMoveActivity</text>
</a>
</g>
</g>
<!-- Node4&#45;&gt;Node16 -->
<g id="edge12" class="edge">
<title>Node4&#45;&gt;Node16</title>
<path fill="none" stroke="#63b8ff" d="M513.68,-995.76C540.4,-990.75 571.2,-984.98 596.61,-980.22"/>
<polygon fill="#63b8ff" stroke="#63b8ff" points="513.08,-992.5 503.89,-997.78 514.36,-999.38 513.08,-992.5"/>
</g>
<!-- Node18 -->
<g id="node15" class="node">
<title>Node18</title>
<g id="a_node15"><a xlink:href="interfaceSCR__AIPerformActionActivity.html" target="_top" xlink:title=" ">
<polygon fill="white" stroke="#666666" points="721.5,-943 577.5,-943 577.5,-924 721.5,-924 721.5,-943"/>
<text text-anchor="middle" x="649.5" y="-931" font-family="Helvetica,sans-Serif" font-size="10.00">SCR_AIPerformActionActivity</text>
</a>
</g>
</g>
<!-- Node4&#45;&gt;Node18 -->
<g id="edge14" class="edge">
<title>Node4&#45;&gt;Node18</title>
<path fill="none" stroke="#63b8ff" d="M477.83,-992.41C500.48,-980.21 534.06,-963.33 565,-952.5 574.96,-949.01 585.82,-946 596.32,-943.46"/>
<polygon fill="#63b8ff" stroke="#63b8ff" points="476.34,-989.79 469.24,-997.65 479.7,-995.93 476.34,-989.79"/>
</g>
<!-- Node19 -->
<g id="node16" class="node">
<title>Node19</title>
<g id="a_node16"><a xlink:href="interfaceSCR__AIResupplyActivity.html" target="_top" xlink:title=" ">
<polygon fill="white" stroke="#666666" points="711,-906 588,-906 588,-887 711,-887 711,-906"/>
<text text-anchor="middle" x="649.5" y="-894" font-family="Helvetica,sans-Serif" font-size="10.00">SCR_AIResupplyActivity</text>
</a>
</g>
</g>
<!-- Node4&#45;&gt;Node19 -->
<g id="edge15" class="edge">
<title>Node4&#45;&gt;Node19</title>
<path fill="none" stroke="#63b8ff" d="M467.59,-989.9C488.36,-968.95 525.98,-934.42 565,-915.5 572.63,-911.8 580.99,-908.81 589.4,-906.39"/>
<polygon fill="#63b8ff" stroke="#63b8ff" points="465.46,-987.1 461.01,-996.71 470.49,-991.98 465.46,-987.1"/>
</g>
<!-- Node20 -->
<g id="node17" class="node">
<title>Node20</title>
<g id="a_node17"><a xlink:href="interfaceSCR__AISuppressActivity.html" target="_top" xlink:title=" ">
<polygon fill="white" stroke="#666666" points="711.5,-869 587.5,-869 587.5,-850 711.5,-850 711.5,-869"/>
<text text-anchor="middle" x="649.5" y="-857" font-family="Helvetica,sans-Serif" font-size="10.00">SCR_AISuppressActivity</text>
</a>
</g>
</g>
<!-- Node4&#45;&gt;Node20 -->
<g id="edge16" class="edge">
<title>Node4&#45;&gt;Node20</title>
<path fill="none" stroke="#63b8ff" d="M462.43,-988.2C480.46,-959.56 518.3,-906.2 565,-878.5 571.78,-874.48 579.33,-871.31 587.04,-868.81"/>
<polygon fill="#63b8ff" stroke="#63b8ff" points="458.95,-986.19 456.71,-996.55 464.92,-989.85 458.95,-986.19"/>
</g>
<!-- Node21 -->
<g id="node18" class="node">
<title>Node21</title>
<g id="a_node18"><a xlink:href="interfaceSCR__AIVehicleCombatActivity.html" target="_top" xlink:title="Activity which handles combat of a group if it has vehicles.">
<polygon fill="white" stroke="#666666" points="724,-832 575,-832 575,-813 724,-813 724,-832"/>
<text text-anchor="middle" x="649.5" y="-820" font-family="Helvetica,sans-Serif" font-size="10.00">SCR_AIVehicleCombatActivity</text>
</a>
</g>
</g>
<!-- Node4&#45;&gt;Node21 -->
<g id="edge17" class="edge">
<title>Node4&#45;&gt;Node21</title>
<path fill="none" stroke="#63b8ff" d="M458.77,-987.75C473.72,-952.48 509.93,-878.89 565,-841.5 570.41,-837.83 576.43,-834.85 582.69,-832.45"/>
<polygon fill="#63b8ff" stroke="#63b8ff" points="455.22,-986.18 454.67,-996.76 461.7,-988.83 455.22,-986.18"/>
</g>
<!-- Node7 -->
<g id="node7" class="node">
<title>Node7</title>
<g id="a_node7"><a xlink:href="interfaceSCR__AIFireteamsClusterActivity.html" target="_top" xlink:title="Class for activities which are assigned for some fireteams to do something with target cluster.">
<polygon fill="#fff0f0" stroke="red" points="933.5,-1202 776.5,-1202 776.5,-1183 933.5,-1183 933.5,-1202"/>
<text text-anchor="middle" x="855" y="-1190" font-family="Helvetica,sans-Serif" font-size="10.00">SCR_AIFireteamsClusterActivity</text>
</a>
</g>
</g>
<!-- Node6&#45;&gt;Node7 -->
<g id="edge6" class="edge">
<title>Node6&#45;&gt;Node7</title>
<path fill="none" stroke="#63b8ff" d="M723.92,-1192.5C740.91,-1192.5 759.05,-1192.5 776.22,-1192.5"/>
<polygon fill="#63b8ff" stroke="#63b8ff" points="723.94,-1189 713.94,-1192.5 723.94,-1196 723.94,-1189"/>
</g>
<!-- Node17 -->
<g id="node14" class="node">
<title>Node17</title>
<g id="a_node14"><a xlink:href="interfaceSCR__AISeekAndDestroyActivity.html" target="_top" xlink:title=" ">
<polygon fill="white" stroke="#666666" points="933,-980 777,-980 777,-961 933,-961 933,-980"/>
<text text-anchor="middle" x="855" y="-968" font-family="Helvetica,sans-Serif" font-size="10.00">SCR_AISeekAndDestroyActivity</text>
</a>
</g>
</g>
<!-- Node16&#45;&gt;Node17 -->
<g id="edge13" class="edge">
<title>Node16&#45;&gt;Node17</title>
<path fill="none" stroke="#63b8ff" d="M713.27,-970.5C733.37,-970.5 755.85,-970.5 776.85,-970.5"/>
<polygon fill="#63b8ff" stroke="#63b8ff" points="713.38,-967 703.38,-970.5 713.38,-974 713.38,-967"/>
</g>
<!-- Node23 -->
<g id="node20" class="node">
<title>Node23</title>
<g id="a_node20"><a xlink:href="interfaceSCR__AIAttackBehavior.html" target="_top" xlink:title=" ">
<polygon fill="white" stroke="#666666" points="707.5,-795 591.5,-795 591.5,-776 707.5,-776 707.5,-795"/>
<text text-anchor="middle" x="649.5" y="-783" font-family="Helvetica,sans-Serif" font-size="10.00">SCR_AIAttackBehavior</text>
</a>
</g>
</g>
<!-- Node22&#45;&gt;Node23 -->
<g id="edge19" class="edge">
<title>Node22&#45;&gt;Node23</title>
<path fill="none" stroke="#63b8ff" d="M451.36,-451.21C453.56,-510.36 468.4,-681.32 565,-767.5 572.41,-774.11 581.67,-778.5 591.29,-781.37"/>
<polygon fill="#63b8ff" stroke="#63b8ff" points="454.83,-451.26 451.05,-441.36 447.83,-451.45 454.83,-451.26"/>
</g>
<!-- Node24 -->
<g id="node21" class="node">
<title>Node24</title>
<g id="a_node21"><a xlink:href="interfaceSCR__AIDefendBehavior.html" target="_top" xlink:title=" ">
<polygon fill="white" stroke="#666666" points="708.5,-758 590.5,-758 590.5,-739 708.5,-739 708.5,-758"/>
<text text-anchor="middle" x="649.5" y="-746" font-family="Helvetica,sans-Serif" font-size="10.00">SCR_AIDefendBehavior</text>
</a>
</g>
</g>
<!-- Node22&#45;&gt;Node24 -->
<g id="edge20" class="edge">
<title>Node22&#45;&gt;Node24</title>
<path fill="none" stroke="#63b8ff" d="M452.33,-451.12C457.01,-505.78 477.59,-655.38 565,-730.5 572.2,-736.69 581.02,-740.9 590.19,-743.75"/>
<polygon fill="#63b8ff" stroke="#63b8ff" points="455.76,-451.12 451.52,-441.42 448.78,-451.65 455.76,-451.12"/>
</g>
<!-- Node25 -->
<g id="node22" class="node">
<title>Node25</title>
<g id="a_node22"><a xlink:href="interfaceSCR__AIFindFirePositionBehavior.html" target="_top" xlink:title="Behavior which makes AI walk around a position while keeping beyond some minimal distance.">
<polygon fill="white" stroke="#666666" points="728.5,-721 570.5,-721 570.5,-702 728.5,-702 728.5,-721"/>
<text text-anchor="middle" x="649.5" y="-709" font-family="Helvetica,sans-Serif" font-size="10.00">SCR_AIFindFirePositionBehavior</text>
</a>
</g>
</g>
<!-- Node22&#45;&gt;Node25 -->
<g id="edge21" class="edge">
<title>Node22&#45;&gt;Node25</title>
<path fill="none" stroke="#63b8ff" d="M453.52,-450.89C460.8,-500.71 486.63,-629.2 565,-693.5 568.9,-696.7 573.23,-699.36 577.82,-701.58"/>
<polygon fill="#63b8ff" stroke="#63b8ff" points="456.89,-450.69 452.07,-441.25 449.95,-451.63 456.89,-450.69"/>
</g>
<!-- Node26 -->
<g id="node23" class="node">
<title>Node26</title>
<g id="a_node23"><a xlink:href="interfaceSCR__AIFireIllumFlareBehavior.html" target="_top" xlink:title=" ">
<polygon fill="white" stroke="#666666" points="722.5,-684 576.5,-684 576.5,-665 722.5,-665 722.5,-684"/>
<text text-anchor="middle" x="649.5" y="-672" font-family="Helvetica,sans-Serif" font-size="10.00">SCR_AIFireIllumFlareBehavior</text>
</a>
</g>
</g>
<!-- Node22&#45;&gt;Node26 -->
<g id="edge22" class="edge">
<title>Node22&#45;&gt;Node26</title>
<path fill="none" stroke="#63b8ff" d="M455.11,-450.56C465.31,-494.92 496.07,-601.69 565,-655.5 569.69,-659.16 574.95,-662.14 580.49,-664.56"/>
<polygon fill="#63b8ff" stroke="#63b8ff" points="458.37,-450.04 452.82,-441.02 451.53,-451.53 458.37,-450.04"/>
</g>
<!-- Node27 -->
<g id="node24" class="node">
<title>Node27</title>
<g id="a_node24"><a xlink:href="interfaceSCR__AIHealBehavior.html" target="_top" xlink:title=" ">
<polygon fill="white" stroke="#666666" points="703,-647 596,-647 596,-628 703,-628 703,-647"/>
<text text-anchor="middle" x="649.5" y="-635" font-family="Helvetica,sans-Serif" font-size="10.00">SCR_AIHealBehavior</text>
</a>
</g>
</g>
<!-- Node22&#45;&gt;Node27 -->
<g id="edge23" class="edge">
<title>Node22&#45;&gt;Node27</title>
<path fill="none" stroke="#63b8ff" d="M457.1,-450.16C470.16,-488.87 504.7,-575.02 565,-618.5 574.04,-625.02 584.96,-629.35 595.86,-632.22"/>
<polygon fill="#63b8ff" stroke="#63b8ff" points="460.27,-449.59 453.85,-441.16 453.61,-451.75 460.27,-449.59"/>
</g>
<!-- Node28 -->
<g id="node25" class="node">
<title>Node28</title>
<g id="a_node25"><a xlink:href="interfaceSCR__AIHealWaitBehavior.html" target="_top" xlink:title="Behavior for waiting until AI is healed by someone else.">
<polygon fill="white" stroke="#666666" points="713.5,-610 585.5,-610 585.5,-591 713.5,-591 713.5,-610"/>
<text text-anchor="middle" x="649.5" y="-598" font-family="Helvetica,sans-Serif" font-size="10.00">SCR_AIHealWaitBehavior</text>
</a>
</g>
</g>
<!-- Node22&#45;&gt;Node28 -->
<g id="edge24" class="edge">
<title>Node22&#45;&gt;Node28</title>
<path fill="none" stroke="#63b8ff" d="M459.94,-449.82C476.06,-482.41 513.2,-548.01 565,-581.5 571.12,-585.46 577.95,-588.59 585.01,-591.08"/>
<polygon fill="#63b8ff" stroke="#63b8ff" points="462.77,-448.63 455.29,-441.13 456.46,-451.66 462.77,-448.63"/>
</g>
<!-- Node29 -->
<g id="node26" class="node">
<title>Node29</title>
<g id="a_node26"><a xlink:href="interfaceSCR__AIIdleBehavior.html" target="_top" xlink:title=" ">
<polygon fill="white" stroke="#666666" points="701,-573 598,-573 598,-554 701,-554 701,-573"/>
<text text-anchor="middle" x="649.5" y="-561" font-family="Helvetica,sans-Serif" font-size="10.00">SCR_AIIdleBehavior</text>
</a>
</g>
</g>
<!-- Node22&#45;&gt;Node29 -->
<g id="edge25" class="edge">
<title>Node22&#45;&gt;Node29</title>
<path fill="none" stroke="#63b8ff" d="M464.08,-448.99C483.21,-474.59 521.33,-520.38 565,-544.5 575.02,-550.03 586.57,-553.96 597.82,-556.74"/>
<polygon fill="#63b8ff" stroke="#63b8ff" points="466.43,-447.27 457.71,-441.26 460.77,-451.4 466.43,-447.27"/>
</g>
<!-- Node31 -->
<g id="node28" class="node">
<title>Node31</title>
<g id="a_node28"><a xlink:href="interfaceSCR__AIMedicHealBehavior.html" target="_top" xlink:title=" ">
<polygon fill="white" stroke="#666666" points="716.5,-536 582.5,-536 582.5,-517 716.5,-517 716.5,-536"/>
<text text-anchor="middle" x="649.5" y="-524" font-family="Helvetica,sans-Serif" font-size="10.00">SCR_AIMedicHealBehavior</text>
</a>
</g>
</g>
<!-- Node22&#45;&gt;Node31 -->
<g id="edge27" class="edge">
<title>Node22&#45;&gt;Node31</title>
<path fill="none" stroke="#63b8ff" d="M470.81,-447.27C492.55,-464.83 529.14,-491.96 565,-507.5 573.46,-511.16 582.72,-514.17 591.89,-516.62"/>
<polygon fill="#63b8ff" stroke="#63b8ff" points="473.4,-444.04 463.45,-440.4 468.95,-449.45 473.4,-444.04"/>
</g>
<!-- Node32 -->
<g id="node29" class="node">
<title>Node32</title>
<g id="a_node29"><a xlink:href="interfaceSCR__AIMoveBehaviorBase.html" target="_top" xlink:title=" ">
<polygon fill="white" stroke="#666666" points="716,-499 583,-499 583,-480 716,-480 716,-499"/>
<text text-anchor="middle" x="649.5" y="-487" font-family="Helvetica,sans-Serif" font-size="10.00">SCR_AIMoveBehaviorBase</text>
</a>
</g>
</g>
<!-- Node22&#45;&gt;Node32 -->
<g id="edge28" class="edge">
<title>Node22&#45;&gt;Node32</title>
<path fill="none" stroke="#63b8ff" d="M486.56,-444.15C508.88,-452.42 538.38,-462.83 565,-470.5 576.43,-473.79 588.87,-476.88 600.57,-479.58"/>
<polygon fill="#63b8ff" stroke="#63b8ff" points="488.13,-440.63 477.54,-440.4 485.68,-447.18 488.13,-440.63"/>
</g>
<!-- Node37 -->
<g id="node34" class="node">
<title>Node37</title>
<g id="a_node34"><a xlink:href="interfaceSCR__AIMoveFromDangerBehavior.html" target="_top" xlink:title="Behavior for short&#45;lived fast reactions to get away from some danger source.">
<polygon fill="#fff0f0" stroke="red" points="731.5,-462 567.5,-462 567.5,-443 731.5,-443 731.5,-462"/>
<text text-anchor="middle" x="649.5" y="-450" font-family="Helvetica,sans-Serif" font-size="10.00">SCR_AIMoveFromDangerBehavior</text>
</a>
</g>
</g>
<!-- Node22&#45;&gt;Node37 -->
<g id="edge33" class="edge">
<title>Node22&#45;&gt;Node37</title>
<path fill="none" stroke="#63b8ff" d="M516.02,-437.74C532.37,-439.56 550.14,-441.54 567.18,-443.44"/>
<polygon fill="#63b8ff" stroke="#63b8ff" points="516.82,-434.2 506.49,-436.57 516.04,-441.16 516.82,-434.2"/>
</g>
<!-- Node43 -->
<g id="node38" class="node">
<title>Node43</title>
<g id="a_node38"><a xlink:href="interfaceSCR__AIObserveUnknownFireBehavior.html" target="_top" xlink:title="Behavior to observe supposed location of where gunshot came from.">
<polygon fill="white" stroke="#666666" points="721,-424.5 578,-424.5 578,-394.5 721,-394.5 721,-424.5"/>
<text text-anchor="start" x="586" y="-412.5" font-family="Helvetica,sans-Serif" font-size="10.00">SCR_AIObserveUnknownFire</text>
<text text-anchor="middle" x="649.5" y="-401.5" font-family="Helvetica,sans-Serif" font-size="10.00">Behavior</text>
</a>
</g>
</g>
<!-- Node22&#45;&gt;Node43 -->
<g id="edge37" class="edge">
<title>Node22&#45;&gt;Node43</title>
<path fill="none" stroke="#63b8ff" d="M516.18,-423.57C535.84,-421.48 557.51,-419.17 577.53,-417.05"/>
<polygon fill="#63b8ff" stroke="#63b8ff" points="516.06,-420.17 506.49,-424.71 516.8,-427.13 516.06,-420.17"/>
</g>
<!-- Node44 -->
<g id="node39" class="node">
<title>Node44</title>
<g id="a_node39"><a xlink:href="interfaceSCR__AIPerformActionBehavior.html" target="_top" xlink:title=" ">
<polygon fill="white" stroke="#666666" points="724,-376 575,-376 575,-357 724,-357 724,-376"/>
<text text-anchor="middle" x="649.5" y="-364" font-family="Helvetica,sans-Serif" font-size="10.00">SCR_AIPerformActionBehavior</text>
</a>
</g>
</g>
<!-- Node22&#45;&gt;Node44 -->
<g id="edge38" class="edge">
<title>Node22&#45;&gt;Node44</title>
<path fill="none" stroke="#63b8ff" d="M483.39,-416.19C505.96,-406.59 536.92,-394.18 565,-385.5 575.94,-382.12 587.85,-379.05 599.16,-376.42"/>
<polygon fill="#63b8ff" stroke="#63b8ff" points="482.15,-413.34 474.35,-420.5 484.92,-419.77 482.15,-413.34"/>
</g>
<!-- Node45 -->
<g id="node40" class="node">
<title>Node45</title>
<g id="a_node40"><a xlink:href="interfaceSCR__AIPickupInventoryItemsBehavior.html" target="_top" xlink:title=" ">
<polygon fill="white" stroke="#666666" points="721,-338.5 578,-338.5 578,-308.5 721,-308.5 721,-338.5"/>
<text text-anchor="start" x="586" y="-326.5" font-family="Helvetica,sans-Serif" font-size="10.00">SCR_AIPickupInventoryItems</text>
<text text-anchor="middle" x="649.5" y="-315.5" font-family="Helvetica,sans-Serif" font-size="10.00">Behavior</text>
</a>
</g>
</g>
<!-- Node22&#45;&gt;Node45 -->
<g id="edge39" class="edge">
<title>Node22&#45;&gt;Node45</title>
<path fill="none" stroke="#63b8ff" d="M469.78,-413.59C491.34,-394.99 528.46,-365.36 565,-347.5 571.5,-344.32 578.51,-341.49 585.59,-338.99"/>
<polygon fill="#63b8ff" stroke="#63b8ff" points="468.01,-411.37 462.8,-420.6 472.62,-416.63 468.01,-411.37"/>
</g>
<!-- Node46 -->
<g id="node41" class="node">
<title>Node46</title>
<g id="a_node41"><a xlink:href="interfaceSCR__AIProvideAmmoBehavior.html" target="_top" xlink:title="Behavior for one soldier to provide ammunition to another one.">
<polygon fill="white" stroke="#666666" points="723.5,-290 575.5,-290 575.5,-271 723.5,-271 723.5,-290"/>
<text text-anchor="middle" x="649.5" y="-278" font-family="Helvetica,sans-Serif" font-size="10.00">SCR_AIProvideAmmoBehavior</text>
</a>
</g>
</g>
<!-- Node22&#45;&gt;Node46 -->
<g id="edge40" class="edge">
<title>Node22&#45;&gt;Node46</title>
<path fill="none" stroke="#63b8ff" d="M462.1,-411.33C479.92,-382.34 517.76,-327.76 565,-299.5 571.12,-295.84 577.89,-292.88 584.83,-290.49"/>
<polygon fill="#63b8ff" stroke="#63b8ff" points="458.59,-409.37 456.46,-419.75 464.59,-412.97 458.59,-409.37"/>
</g>
<!-- Node47 -->
<g id="node42" class="node">
<title>Node47</title>
<g id="a_node42"><a xlink:href="interfaceSCR__AIRetreatFromTargetBehavior.html" target="_top" xlink:title=" ">
<polygon fill="white" stroke="#666666" points="734,-253 565,-253 565,-234 734,-234 734,-253"/>
<text text-anchor="middle" x="649.5" y="-241" font-family="Helvetica,sans-Serif" font-size="10.00">SCR_AIRetreatFromTargetBehavior</text>
</a>
</g>
</g>
<!-- Node22&#45;&gt;Node47 -->
<g id="edge41" class="edge">
<title>Node22&#45;&gt;Node47</title>
<path fill="none" stroke="#63b8ff" d="M458.63,-410.33C473.34,-374.33 509.19,-299.26 565,-261.5 569.79,-258.26 575.06,-255.59 580.55,-253.39"/>
<polygon fill="#63b8ff" stroke="#63b8ff" points="455.01,-408.96 454.6,-419.55 461.52,-411.53 455.01,-408.96"/>
</g>
<!-- Node48 -->
<g id="node43" class="node">
<title>Node48</title>
<g id="a_node43"><a xlink:href="interfaceSCR__AIRetreatWhileLookAtBehavior.html" target="_top" xlink:title=" ">
<polygon fill="white" stroke="#666666" points="718.5,-215.5 580.5,-215.5 580.5,-185.5 718.5,-185.5 718.5,-215.5"/>
<text text-anchor="start" x="588.5" y="-203.5" font-family="Helvetica,sans-Serif" font-size="10.00">SCR_AIRetreatWhileLookAt</text>
<text text-anchor="middle" x="649.5" y="-192.5" font-family="Helvetica,sans-Serif" font-size="10.00">Behavior</text>
</a>
</g>
</g>
<!-- Node22&#45;&gt;Node48 -->
<g id="edge42" class="edge">
<title>Node22&#45;&gt;Node48</title>
<path fill="none" stroke="#63b8ff" d="M456.5,-410.15C468.77,-368.75 502.3,-274.44 565,-224.5 569.6,-220.83 574.74,-217.73 580.14,-215.1"/>
<polygon fill="#63b8ff" stroke="#63b8ff" points="452.91,-408.98 453.55,-419.55 459.65,-410.89 452.91,-408.98"/>
</g>
<!-- Node49 -->
<g id="node44" class="node">
<title>Node49</title>
<g id="a_node44"><a xlink:href="interfaceSCR__AISuppressBehavior.html" target="_top" xlink:title="Behavior for AI suppressing an area.">
<polygon fill="#fff0f0" stroke="red" points="714,-167 585,-167 585,-148 714,-148 714,-167"/>
<text text-anchor="middle" x="649.5" y="-155" font-family="Helvetica,sans-Serif" font-size="10.00">SCR_AISuppressBehavior</text>
</a>
</g>
</g>
<!-- Node22&#45;&gt;Node49 -->
<g id="edge43" class="edge">
<title>Node22&#45;&gt;Node49</title>
<path fill="none" stroke="#63b8ff" d="M458.67,-410.78C480.95,-353.92 545.33,-192.62 565,-176.5 570.87,-171.7 577.71,-168.05 584.91,-165.29"/>
<polygon fill="#63b8ff" stroke="#63b8ff" points="455.18,-409.1 454.8,-419.69 461.7,-411.65 455.18,-409.1"/>
</g>
<!-- Node51 -->
<g id="node45" class="node">
<title>Node51</title>
<g id="a_node45"><a xlink:href="interfaceSCR__AIThrowGrenadeToBehavior.html" target="_top" xlink:title=" ">
<polygon fill="white" stroke="#666666" points="730,-130 569,-130 569,-111 730,-111 730,-130"/>
<text text-anchor="middle" x="649.5" y="-118" font-family="Helvetica,sans-Serif" font-size="10.00">SCR_AIThrowGrenadeToBehavior</text>
</a>
</g>
</g>
<!-- Node22&#45;&gt;Node51 -->
<g id="edge44" class="edge">
<title>Node22&#45;&gt;Node51</title>
<path fill="none" stroke="#63b8ff" d="M458.63,-410.93C484.14,-345.52 564.83,-138.65 565,-138.5 568.73,-135.33 572.88,-132.67 577.29,-130.46"/>
<polygon fill="#63b8ff" stroke="#63b8ff" points="455.16,-409.2 454.79,-419.79 461.68,-411.75 455.16,-409.2"/>
</g>
<!-- Node52 -->
<g id="node46" class="node">
<title>Node52</title>
<g id="a_node46"><a xlink:href="interfaceSCR__AIVehicleBehavior.html" target="_top" xlink:title=" ">
<polygon fill="#fff0f0" stroke="red" points="709.5,-93 589.5,-93 589.5,-74 709.5,-74 709.5,-93"/>
<text text-anchor="middle" x="649.5" y="-81" font-family="Helvetica,sans-Serif" font-size="10.00">SCR_AIVehicleBehavior</text>
</a>
</g>
</g>
<!-- Node22&#45;&gt;Node52 -->
<g id="edge45" class="edge">
<title>Node22&#45;&gt;Node52</title>
<path fill="none" stroke="#63b8ff" d="M459.53,-410.58C474.65,-374.89 506.65,-297.49 529,-230.5 547.84,-174.04 521.67,-142.31 565,-101.5 571.8,-95.09 580.31,-90.75 589.28,-87.84"/>
<polygon fill="#63b8ff" stroke="#63b8ff" points="455.95,-409.07 455.25,-419.64 462.39,-411.81 455.95,-409.07"/>
</g>
<!-- Node55 -->
<g id="node47" class="node">
<title>Node55</title>
<g id="a_node47"><a xlink:href="interfaceSCR__AIWaitBehavior.html" target="_top" xlink:title=" ">
<polygon fill="white" stroke="#666666" points="703.5,-56 595.5,-56 595.5,-37 703.5,-37 703.5,-56"/>
<text text-anchor="middle" x="649.5" y="-44" font-family="Helvetica,sans-Serif" font-size="10.00">SCR_AIWaitBehavior</text>
</a>
</g>
</g>
<!-- Node22&#45;&gt;Node55 -->
<g id="edge46" class="edge">
<title>Node22&#45;&gt;Node55</title>
<path fill="none" stroke="#63b8ff" d="M459.93,-410.71C475.68,-375.21 508.62,-298.12 529,-230.5 550.78,-158.22 511.59,-117.85 565,-64.5 573.18,-56.33 584.13,-51.46 595.4,-48.65"/>
<polygon fill="#63b8ff" stroke="#63b8ff" points="456.35,-409.15 455.46,-419.71 462.74,-412.01 456.35,-409.15"/>
</g>
<!-- Node30 -->
<g id="node27" class="node">
<title>Node30</title>
<g id="a_node27"><a xlink:href="interfaceSCR__AIIdleBehavior__Driver.html" target="_top" xlink:title=" ">
<polygon fill="white" stroke="#666666" points="906.5,-651.5 803.5,-651.5 803.5,-621.5 906.5,-621.5 906.5,-651.5"/>
<text text-anchor="start" x="811.5" y="-639.5" font-family="Helvetica,sans-Serif" font-size="10.00">SCR_AIIdleBehavior</text>
<text text-anchor="middle" x="855" y="-628.5" font-family="Helvetica,sans-Serif" font-size="10.00">_Driver</text>
</a>
</g>
</g>
<!-- Node29&#45;&gt;Node30 -->
<g id="edge26" class="edge">
<title>Node29&#45;&gt;Node30</title>
<path fill="none" stroke="#63b8ff" d="M711.75,-573.11C719.43,-575.35 727.03,-578.11 734,-581.5 752.72,-590.63 751.64,-601.66 770,-611.5 780.33,-617.03 792.04,-621.5 803.37,-625.04"/>
<polygon fill="#63b8ff" stroke="#63b8ff" points="712.83,-569.51 702.27,-570.36 711.05,-576.28 712.83,-569.51"/>
</g>
<!-- Node33 -->
<g id="node30" class="node">
<title>Node33</title>
<g id="a_node30"><a xlink:href="interfaceSCR__AIFollowInFormationBehavior.html" target="_top" xlink:title=" ">
<polygon fill="white" stroke="#666666" points="938.5,-603 771.5,-603 771.5,-584 938.5,-584 938.5,-603"/>
<text text-anchor="middle" x="855" y="-591" font-family="Helvetica,sans-Serif" font-size="10.00">SCR_AIFollowInFormationBehavior</text>
</a>
</g>
</g>
<!-- Node32&#45;&gt;Node33 -->
<g id="edge29" class="edge">
<title>Node32&#45;&gt;Node33</title>
<path fill="none" stroke="#63b8ff" d="M726.08,-502.4C728.85,-503.93 731.5,-505.62 734,-507.5 761.01,-527.82 743.09,-554.04 770,-574.5 774.88,-578.21 780.35,-581.22 786.1,-583.66"/>
<polygon fill="#63b8ff" stroke="#63b8ff" points="727.84,-498.9 717.3,-497.85 724.89,-505.24 727.84,-498.9"/>
</g>
<!-- Node34 -->
<g id="node31" class="node">
<title>Node34</title>
<g id="a_node31"><a xlink:href="interfaceSCR__AIMoveAndInvestigateBehavior.html" target="_top" xlink:title=" ">
<polygon fill="white" stroke="#666666" points="923.5,-565.5 786.5,-565.5 786.5,-535.5 923.5,-535.5 923.5,-565.5"/>
<text text-anchor="start" x="794.5" y="-553.5" font-family="Helvetica,sans-Serif" font-size="10.00">SCR_AIMoveAndInvestigate</text>
<text text-anchor="middle" x="855" y="-542.5" font-family="Helvetica,sans-Serif" font-size="10.00">Behavior</text>
</a>
</g>
</g>
<!-- Node32&#45;&gt;Node34 -->
<g id="edge30" class="edge">
<title>Node32&#45;&gt;Node34</title>
<path fill="none" stroke="#63b8ff" d="M716.85,-502.19C722.7,-503.8 728.49,-505.56 734,-507.5 750.88,-513.43 753.36,-518.92 770,-525.5 778.63,-528.91 787.92,-532.12 797.06,-535.02"/>
<polygon fill="#63b8ff" stroke="#63b8ff" points="717.85,-498.58 707.29,-499.48 716.1,-505.36 717.85,-498.58"/>
</g>
<!-- Node35 -->
<g id="node32" class="node">
<title>Node35</title>
<g id="a_node32"><a xlink:href="interfaceSCR__AIMoveInFormationBehavior.html" target="_top" xlink:title=" ">
<polygon fill="white" stroke="#666666" points="935.5,-517 774.5,-517 774.5,-498 935.5,-498 935.5,-517"/>
<text text-anchor="middle" x="855" y="-505" font-family="Helvetica,sans-Serif" font-size="10.00">SCR_AIMoveInFormationBehavior</text>
</a>
</g>
</g>
<!-- Node32&#45;&gt;Node35 -->
<g id="edge31" class="edge">
<title>Node32&#45;&gt;Node35</title>
<path fill="none" stroke="#63b8ff" d="M726.85,-496.25C742.32,-497.62 758.63,-499.06 774.21,-500.44"/>
<polygon fill="#63b8ff" stroke="#63b8ff" points="727.56,-492.71 717.29,-495.32 726.94,-499.69 727.56,-492.71"/>
</g>
<!-- Node36 -->
<g id="node33" class="node">
<title>Node36</title>
<g id="a_node33"><a xlink:href="interfaceSCR__AIMoveIndividuallyBehavior.html" target="_top" xlink:title=" ">
<polygon fill="white" stroke="#666666" points="933.5,-480 776.5,-480 776.5,-461 933.5,-461 933.5,-480"/>
<text text-anchor="middle" x="855" y="-468" font-family="Helvetica,sans-Serif" font-size="10.00">SCR_AIMoveIndividuallyBehavior</text>
</a>
</g>
</g>
<!-- Node32&#45;&gt;Node36 -->
<g id="edge32" class="edge">
<title>Node32&#45;&gt;Node36</title>
<path fill="none" stroke="#63b8ff" d="M727.18,-482.34C743.15,-480.85 760,-479.28 776.02,-477.78"/>
<polygon fill="#63b8ff" stroke="#63b8ff" points="726.92,-478.94 717.29,-483.36 727.57,-485.91 726.92,-478.94"/>
</g>
<!-- Node38 -->
<g id="node35" class="node">
<title>Node38</title>
<g id="a_node35"><a xlink:href="interfaceSCR__AIMoveFromGrenadeBehavior.html" target="_top" xlink:title=" ">
<polygon fill="white" stroke="#666666" points="940,-443 770,-443 770,-424 940,-424 940,-443"/>
<text text-anchor="middle" x="855" y="-431" font-family="Helvetica,sans-Serif" font-size="10.00">SCR_AIMoveFromGrenadeBehavior</text>
</a>
</g>
</g>
<!-- Node37&#45;&gt;Node38 -->
<g id="edge34" class="edge">
<title>Node37&#45;&gt;Node38</title>
<path fill="none" stroke="#63b8ff" d="M742.74,-443.89C751.77,-443.05 760.89,-442.19 769.83,-441.36"/>
<polygon fill="#63b8ff" stroke="#63b8ff" points="742.44,-440.49 732.81,-444.91 743.09,-447.46 742.44,-440.49"/>
</g>
<!-- Node39 -->
<g id="node36" class="node">
<title>Node39</title>
<g id="a_node36"><a xlink:href="interfaceSCR__AIMoveFromIncomingVehicleBehavior.html" target="_top" xlink:title=" ">
<polygon fill="white" stroke="#666666" points="938.5,-405.5 771.5,-405.5 771.5,-375.5 938.5,-375.5 938.5,-405.5"/>
<text text-anchor="start" x="779.5" y="-393.5" font-family="Helvetica,sans-Serif" font-size="10.00">SCR_AIMoveFromIncomingVehicle</text>
<text text-anchor="middle" x="855" y="-382.5" font-family="Helvetica,sans-Serif" font-size="10.00">Behavior</text>
</a>
</g>
</g>
<!-- Node37&#45;&gt;Node39 -->
<g id="edge35" class="edge">
<title>Node37&#45;&gt;Node39</title>
<path fill="none" stroke="#63b8ff" d="M714.26,-439.83C720.99,-437.94 727.69,-435.84 734,-433.5 750.97,-427.22 753.21,-421.24 770,-414.5 777.74,-411.39 786.03,-408.51 794.28,-405.9"/>
<polygon fill="#63b8ff" stroke="#63b8ff" points="713.46,-436.68 704.67,-442.6 715.23,-443.45 713.46,-436.68"/>
</g>
<!-- Node40 -->
<g id="node37" class="node">
<title>Node40</title>
<g id="a_node37"><a xlink:href="interfaceSCR__AIMoveFromUnknownFire.html" target="_top" xlink:title=" ">
<polygon fill="white" stroke="#666666" points="931,-357 779,-357 779,-338 931,-338 931,-357"/>
<text text-anchor="middle" x="855" y="-345" font-family="Helvetica,sans-Serif" font-size="10.00">SCR_AIMoveFromUnknownFire</text>
</a>
</g>
</g>
<!-- Node37&#45;&gt;Node40 -->
<g id="edge36" class="edge">
<title>Node37&#45;&gt;Node40</title>
<path fill="none" stroke="#63b8ff" d="M727.82,-437.66C729.96,-436.39 732.03,-435 734,-433.5 760.9,-413.02 743.09,-386.96 770,-366.5 774.88,-362.79 780.35,-359.78 786.1,-357.34"/>
<polygon fill="#63b8ff" stroke="#63b8ff" points="726.35,-434.99 719,-442.62 729.5,-441.24 726.35,-434.99"/>
</g>
<!-- Node57 -->
<g id="node49" class="node">
<title>Node57</title>
<g id="a_node49"><a xlink:href="interfaceSCR__AIClustersCompositeAction.html" target="_top" xlink:title="Composite parallel action for holding activities for target clusters.">
<polygon fill="white" stroke="#666666" points="730,-19 569,-19 569,0 730,0 730,-19"/>
<text text-anchor="middle" x="649.5" y="-7" font-family="Helvetica,sans-Serif" font-size="10.00">SCR_AIClustersCompositeAction</text>
</a>
</g>
</g>
<!-- Node56&#45;&gt;Node57 -->
<g id="edge48" class="edge">
<title>Node56&#45;&gt;Node57</title>
<path fill="none" stroke="#63b8ff" d="M457.33,-192.56C470.63,-154.09 505.28,-69.72 565,-27.5 569.6,-24.25 574.68,-21.56 579.98,-19.35"/>
<polygon fill="#63b8ff" stroke="#63b8ff" points="453.85,-190.93 454.01,-201.52 460.5,-193.14 453.85,-190.93"/>
</g>
</g>
</svg>
