<?xml version="1.0" encoding="UTF-8" standalone="no"?>
<!DOCTYPE svg PUBLIC "-//W3C//DTD SVG 1.1//EN"
 "http://www.w3.org/Graphics/SVG/1.1/DTD/svg11.dtd">
<!-- Generated by graphviz version 8.0.2 (20230410.1723)
 -->
<!-- Title: SCR_PowerPole Pages: 1 -->
<svg width="174pt" height="357pt"
 viewBox="0.00 0.00 174.00 357.00" xmlns="http://www.w3.org/2000/svg" xmlns:xlink="http://www.w3.org/1999/xlink">
<g id="graph0" class="graph" transform="scale(1 1) rotate(0) translate(4 353)">
<title>SCR_PowerPole</title>
<!-- Node1 -->
<g id="node1" class="node">
<title>Node1</title>
<g id="a_node1"><a xlink:title=" ">
<polygon fill="#999999" stroke="#666666" points="127.5,-129 38.5,-129 38.5,-110 127.5,-110 127.5,-129"/>
<text text-anchor="middle" x="83" y="-117" font-family="Helvetica,sans-Serif" font-size="10.00">SCR_PowerPole</text>
</a>
</g>
</g>
<!-- Node6 -->
<g id="node6" class="node">
<title>Node6</title>
<g id="a_node6"><a xlink:href="interfaceSCR__JunctionPowerPole.html" target="_top" xlink:title=" ">
<polygon fill="white" stroke="#666666" points="145.5,-74 20.5,-74 20.5,-55 145.5,-55 145.5,-74"/>
<text text-anchor="middle" x="83" y="-62" font-family="Helvetica,sans-Serif" font-size="10.00">SCR_JunctionPowerPole</text>
</a>
</g>
</g>
<!-- Node1&#45;&gt;Node6 -->
<g id="edge5" class="edge">
<title>Node1&#45;&gt;Node6</title>
<path fill="none" stroke="#63b8ff" d="M83,-98.93C83,-90.53 83,-81.13 83,-74.44"/>
<polygon fill="#63b8ff" stroke="#63b8ff" points="79.5,-98.75 83,-108.75 86.5,-98.75 79.5,-98.75"/>
</g>
<!-- Node2 -->
<g id="node2" class="node">
<title>Node2</title>
<g id="a_node2"><a xlink:href="interfacePowerPoleEntity.html" target="_top" xlink:title=" ">
<polygon fill="white" stroke="#666666" points="127.5,-184 38.5,-184 38.5,-165 127.5,-165 127.5,-184"/>
<text text-anchor="middle" x="83" y="-172" font-family="Helvetica,sans-Serif" font-size="10.00">PowerPoleEntity</text>
</a>
</g>
</g>
<!-- Node2&#45;&gt;Node1 -->
<g id="edge1" class="edge">
<title>Node2&#45;&gt;Node1</title>
<path fill="none" stroke="#63b8ff" d="M83,-153.93C83,-145.53 83,-136.13 83,-129.44"/>
<polygon fill="#63b8ff" stroke="#63b8ff" points="79.5,-153.75 83,-163.75 86.5,-153.75 79.5,-153.75"/>
</g>
<!-- Node3 -->
<g id="node3" class="node">
<title>Node3</title>
<g id="a_node3"><a xlink:href="interfaceSCR__DestructibleEntity.html" target="_top" xlink:title=" ">
<polygon fill="white" stroke="#666666" points="142.5,-239 23.5,-239 23.5,-220 142.5,-220 142.5,-239"/>
<text text-anchor="middle" x="83" y="-227" font-family="Helvetica,sans-Serif" font-size="10.00">SCR_DestructibleEntity</text>
</a>
</g>
</g>
<!-- Node3&#45;&gt;Node2 -->
<g id="edge2" class="edge">
<title>Node3&#45;&gt;Node2</title>
<path fill="none" stroke="#63b8ff" d="M83,-208.93C83,-200.53 83,-191.13 83,-184.44"/>
<polygon fill="#63b8ff" stroke="#63b8ff" points="79.5,-208.75 83,-218.75 86.5,-208.75 79.5,-208.75"/>
</g>
<!-- Node4 -->
<g id="node4" class="node">
<title>Node4</title>
<g id="a_node4"><a xlink:href="interfaceDestructibleEntity.html" target="_top" xlink:title=" ">
<polygon fill="white" stroke="#666666" points="130,-294 36,-294 36,-275 130,-275 130,-294"/>
<text text-anchor="middle" x="83" y="-282" font-family="Helvetica,sans-Serif" font-size="10.00">DestructibleEntity</text>
</a>
</g>
</g>
<!-- Node4&#45;&gt;Node3 -->
<g id="edge3" class="edge">
<title>Node4&#45;&gt;Node3</title>
<path fill="none" stroke="#63b8ff" d="M83,-263.93C83,-255.53 83,-246.13 83,-239.44"/>
<polygon fill="#63b8ff" stroke="#63b8ff" points="79.5,-263.75 83,-273.75 86.5,-263.75 79.5,-263.75"/>
</g>
<!-- Node5 -->
<g id="node5" class="node">
<title>Node5</title>
<g id="a_node5"><a xlink:title=" ">
<polygon fill="white" stroke="#666666" points="130,-349 36,-349 36,-330 130,-330 130,-349"/>
<text text-anchor="middle" x="83" y="-337" font-family="Helvetica,sans-Serif" font-size="10.00">StaticModelEntity</text>
</a>
</g>
</g>
<!-- Node5&#45;&gt;Node4 -->
<g id="edge4" class="edge">
<title>Node5&#45;&gt;Node4</title>
<path fill="none" stroke="#63b8ff" d="M83,-318.93C83,-310.53 83,-301.13 83,-294.44"/>
<polygon fill="#63b8ff" stroke="#63b8ff" points="79.5,-318.75 83,-328.75 86.5,-318.75 79.5,-318.75"/>
</g>
<!-- Node7 -->
<g id="node7" class="node">
<title>Node7</title>
<g id="a_node7"><a xlink:href="interfaceSCR__BranchedJunctionPowerPole.html" target="_top" xlink:title=" ">
<polygon fill="white" stroke="#666666" points="166,-19 0,-19 0,0 166,0 166,-19"/>
<text text-anchor="middle" x="83" y="-7" font-family="Helvetica,sans-Serif" font-size="10.00">SCR_BranchedJunctionPowerPole</text>
</a>
</g>
</g>
<!-- Node6&#45;&gt;Node7 -->
<g id="edge6" class="edge">
<title>Node6&#45;&gt;Node7</title>
<path fill="none" stroke="#63b8ff" d="M83,-43.93C83,-35.53 83,-26.13 83,-19.44"/>
<polygon fill="#63b8ff" stroke="#63b8ff" points="79.5,-43.75 83,-53.75 86.5,-43.75 79.5,-43.75"/>
</g>
</g>
</svg>
