<?xml version="1.0" encoding="UTF-8" standalone="no"?>
<!DOCTYPE svg PUBLIC "-//W3C//DTD SVG 1.1//EN"
 "http://www.w3.org/Graphics/SVG/1.1/DTD/svg11.dtd">
<!-- Generated by graphviz version 8.0.2 (20230410.1723)
 -->
<!-- Title: SCR_LoadoutBaseEditorAttribute Pages: 1 -->
<svg width="1510pt" height="316pt"
 viewBox="0.00 0.00 1510.00 316.00" xmlns="http://www.w3.org/2000/svg" xmlns:xlink="http://www.w3.org/1999/xlink">
<g id="graph0" class="graph" transform="scale(1 1) rotate(0) translate(4 312)">
<title>SCR_LoadoutBaseEditorAttribute</title>
<!-- Node1 -->
<g id="node1" class="node">
<title>Node1</title>
<g id="a_node1"><a xlink:title=" ">
<polygon fill="#999999" stroke="#666666" points="879,-144.5 718,-144.5 718,-125.5 879,-125.5 879,-144.5"/>
<text text-anchor="middle" x="798.5" y="-132.5" font-family="Helvetica,sans-Serif" font-size="10.00">SCR_LoadoutBaseEditorAttribute</text>
</a>
</g>
</g>
<!-- Node6 -->
<g id="node6" class="node">
<title>Node6</title>
<g id="a_node6"><a xlink:href="interfaceSCR__ArsenalBaseEditorAttribute.html" target="_top" xlink:title=" ">
<polygon fill="white" stroke="#666666" points="1075,-216.5 915,-216.5 915,-197.5 1075,-197.5 1075,-216.5"/>
<text text-anchor="middle" x="995" y="-204.5" font-family="Helvetica,sans-Serif" font-size="10.00">SCR_ArsenalBaseEditorAttribute</text>
</a>
</g>
</g>
<!-- Node1&#45;&gt;Node6 -->
<g id="edge5" class="edge">
<title>Node1&#45;&gt;Node6</title>
<path fill="none" stroke="#63b8ff" d="M836.3,-148.62C874.42,-162.73 933.06,-184.44 967.06,-197.03"/>
<polygon fill="#63b8ff" stroke="#63b8ff" points="837.73,-145.05 827.14,-144.86 835.3,-151.61 837.73,-145.05"/>
</g>
<!-- Node12 -->
<g id="node12" class="node">
<title>Node12</title>
<g id="a_node12"><a xlink:href="interfaceSCR__FactionLoadoutBaseEditorAttribute.html" target="_top" xlink:title=" ">
<polygon fill="white" stroke="#666666" points="1073.5,-102 916.5,-102 916.5,-72 1073.5,-72 1073.5,-102"/>
<text text-anchor="start" x="924.5" y="-90" font-family="Helvetica,sans-Serif" font-size="10.00">SCR_FactionLoadoutBaseEditor</text>
<text text-anchor="middle" x="995" y="-79" font-family="Helvetica,sans-Serif" font-size="10.00">Attribute</text>
</a>
</g>
</g>
<!-- Node1&#45;&gt;Node12 -->
<g id="edge11" class="edge">
<title>Node1&#45;&gt;Node12</title>
<path fill="none" stroke="#63b8ff" d="M850.45,-122.43C875.27,-116.3 905.34,-108.88 931.53,-102.42"/>
<polygon fill="#63b8ff" stroke="#63b8ff" points="849.67,-119.26 840.8,-125.05 851.35,-126.06 849.67,-119.26"/>
</g>
<!-- Node2 -->
<g id="node2" class="node">
<title>Node2</title>
<g id="a_node2"><a xlink:href="interfaceSCR__BaseMultiSelectPresetsEditorAttribute.html" target="_top" xlink:title=" ">
<polygon fill="white" stroke="#666666" points="682,-150 535,-150 535,-120 682,-120 682,-150"/>
<text text-anchor="start" x="543" y="-138" font-family="Helvetica,sans-Serif" font-size="10.00">SCR_BaseMultiSelectPresets</text>
<text text-anchor="middle" x="608.5" y="-127" font-family="Helvetica,sans-Serif" font-size="10.00">EditorAttribute</text>
</a>
</g>
</g>
<!-- Node2&#45;&gt;Node1 -->
<g id="edge1" class="edge">
<title>Node2&#45;&gt;Node1</title>
<path fill="none" stroke="#63b8ff" d="M693.4,-135C701.49,-135 709.68,-135 717.73,-135"/>
<polygon fill="#63b8ff" stroke="#63b8ff" points="693.45,-131.5 683.45,-135 693.45,-138.5 693.45,-131.5"/>
</g>
<!-- Node3 -->
<g id="node3" class="node">
<title>Node3</title>
<g id="a_node3"><a xlink:href="interfaceSCR__BasePresetsEditorAttribute.html" target="_top" xlink:title="Attribute base for Name, icon and float value for other attributes to inherent from.">
<polygon fill="white" stroke="#666666" points="499,-144.5 338,-144.5 338,-125.5 499,-125.5 499,-144.5"/>
<text text-anchor="middle" x="418.5" y="-132.5" font-family="Helvetica,sans-Serif" font-size="10.00">SCR_BasePresetsEditorAttribute</text>
</a>
</g>
</g>
<!-- Node3&#45;&gt;Node2 -->
<g id="edge2" class="edge">
<title>Node3&#45;&gt;Node2</title>
<path fill="none" stroke="#63b8ff" d="M509.99,-135C518.22,-135 526.47,-135 534.51,-135"/>
<polygon fill="#63b8ff" stroke="#63b8ff" points="510.23,-131.5 500.23,-135 510.23,-138.5 510.23,-131.5"/>
</g>
<!-- Node4 -->
<g id="node4" class="node">
<title>Node4</title>
<g id="a_node4"><a xlink:href="interfaceSCR__BaseFloatValueHolderEditorAttribute.html" target="_top" xlink:title="Attribute base for Name, icon and float value for other attributes to inherent from.">
<polygon fill="white" stroke="#666666" points="302,-150 163,-150 163,-120 302,-120 302,-150"/>
<text text-anchor="start" x="171" y="-138" font-family="Helvetica,sans-Serif" font-size="10.00">SCR_BaseFloatValueHolder</text>
<text text-anchor="middle" x="232.5" y="-127" font-family="Helvetica,sans-Serif" font-size="10.00">EditorAttribute</text>
</a>
</g>
</g>
<!-- Node4&#45;&gt;Node3 -->
<g id="edge3" class="edge">
<title>Node4&#45;&gt;Node3</title>
<path fill="none" stroke="#63b8ff" d="M313.22,-135C321.32,-135 329.55,-135 337.65,-135"/>
<polygon fill="#63b8ff" stroke="#63b8ff" points="313.28,-131.5 303.28,-135 313.28,-138.5 313.28,-131.5"/>
</g>
<!-- Node5 -->
<g id="node5" class="node">
<title>Node5</title>
<g id="a_node5"><a xlink:href="interfaceSCR__BaseEditorAttribute.html" target="_top" xlink:title="Base Attribute Script for other attributes to inherent from to get and set varriables in Editor Attri...">
<polygon fill="white" stroke="#666666" points="127,-144.5 0,-144.5 0,-125.5 127,-125.5 127,-144.5"/>
<text text-anchor="middle" x="63.5" y="-132.5" font-family="Helvetica,sans-Serif" font-size="10.00">SCR_BaseEditorAttribute</text>
</a>
</g>
</g>
<!-- Node5&#45;&gt;Node4 -->
<g id="edge4" class="edge">
<title>Node5&#45;&gt;Node4</title>
<path fill="none" stroke="#63b8ff" d="M138.14,-135C146.28,-135 154.54,-135 162.61,-135"/>
<polygon fill="#63b8ff" stroke="#63b8ff" points="138.16,-131.5 128.16,-135 138.16,-138.5 138.16,-131.5"/>
</g>
<!-- Node7 -->
<g id="node7" class="node">
<title>Node7</title>
<g id="a_node7"><a xlink:href="interfaceSCR__ArsenalEquipmentEditorAttribute.html" target="_top" xlink:title=" ">
<polygon fill="white" stroke="#666666" points="1274.5,-308 1127.5,-308 1127.5,-278 1274.5,-278 1274.5,-308"/>
<text text-anchor="start" x="1135.5" y="-296" font-family="Helvetica,sans-Serif" font-size="10.00">SCR_ArsenalEquipmentEditor</text>
<text text-anchor="middle" x="1201" y="-285" font-family="Helvetica,sans-Serif" font-size="10.00">Attribute</text>
</a>
</g>
</g>
<!-- Node6&#45;&gt;Node7 -->
<g id="edge6" class="edge">
<title>Node6&#45;&gt;Node7</title>
<path fill="none" stroke="#63b8ff" d="M1021.14,-222.36C1043.95,-235.79 1078.83,-255.12 1111,-268 1119.79,-271.52 1129.26,-274.74 1138.62,-277.62"/>
<polygon fill="#63b8ff" stroke="#63b8ff" points="1023.24,-218.93 1012.85,-216.82 1019.65,-224.95 1023.24,-218.93"/>
</g>
<!-- Node8 -->
<g id="node8" class="node">
<title>Node8</title>
<g id="a_node8"><a xlink:href="interfaceSCR__ArsenalOutfitEditorAttribute.html" target="_top" xlink:title=" ">
<polygon fill="white" stroke="#666666" points="1281.5,-259.5 1120.5,-259.5 1120.5,-240.5 1281.5,-240.5 1281.5,-259.5"/>
<text text-anchor="middle" x="1201" y="-247.5" font-family="Helvetica,sans-Serif" font-size="10.00">SCR_ArsenalOutfitEditorAttribute</text>
</a>
</g>
</g>
<!-- Node6&#45;&gt;Node8 -->
<g id="edge7" class="edge">
<title>Node6&#45;&gt;Node8</title>
<path fill="none" stroke="#63b8ff" d="M1054.04,-219.23C1085.23,-225.81 1123.19,-233.81 1152.59,-240.01"/>
<polygon fill="#63b8ff" stroke="#63b8ff" points="1054.82,-215.61 1044.31,-216.97 1053.38,-222.46 1054.82,-215.61"/>
</g>
<!-- Node9 -->
<g id="node9" class="node">
<title>Node9</title>
<g id="a_node9"><a xlink:href="interfaceSCR__ArsenalWeaponRackEquipmentEditorAttribute.html" target="_top" xlink:title=" ">
<polygon fill="white" stroke="#666666" points="1291,-222 1111,-222 1111,-192 1291,-192 1291,-222"/>
<text text-anchor="start" x="1119" y="-210" font-family="Helvetica,sans-Serif" font-size="10.00">SCR_ArsenalWeaponRackEquipment</text>
<text text-anchor="middle" x="1201" y="-199" font-family="Helvetica,sans-Serif" font-size="10.00">EditorAttribute</text>
</a>
</g>
</g>
<!-- Node6&#45;&gt;Node9 -->
<g id="edge8" class="edge">
<title>Node6&#45;&gt;Node9</title>
<path fill="none" stroke="#63b8ff" d="M1086.36,-207C1094.41,-207 1102.56,-207 1110.61,-207"/>
<polygon fill="#63b8ff" stroke="#63b8ff" points="1086.46,-203.5 1076.46,-207 1086.46,-210.5 1086.46,-203.5"/>
</g>
<!-- Node10 -->
<g id="node10" class="node">
<title>Node10</title>
<g id="a_node10"><a xlink:href="interfaceSCR__ArsenalWeaponsEditorAttribute.html" target="_top" xlink:title=" ">
<polygon fill="white" stroke="#666666" points="1272,-174 1130,-174 1130,-144 1272,-144 1272,-174"/>
<text text-anchor="start" x="1138" y="-162" font-family="Helvetica,sans-Serif" font-size="10.00">SCR_ArsenalWeaponsEditor</text>
<text text-anchor="middle" x="1201" y="-151" font-family="Helvetica,sans-Serif" font-size="10.00">Attribute</text>
</a>
</g>
</g>
<!-- Node6&#45;&gt;Node10 -->
<g id="edge9" class="edge">
<title>Node6&#45;&gt;Node10</title>
<path fill="none" stroke="#63b8ff" d="M1048.73,-194.59C1074.9,-188.43 1106.76,-180.94 1134.48,-174.42"/>
<polygon fill="#63b8ff" stroke="#63b8ff" points="1048.2,-191.36 1039.27,-197.05 1049.8,-198.17 1048.2,-191.36"/>
</g>
<!-- Node11 -->
<g id="node11" class="node">
<title>Node11</title>
<g id="a_node11"><a xlink:href="interfaceSCR__ArsenalWeaponRackWeaponsEditorAttribute.html" target="_top" xlink:title=" ">
<polygon fill="white" stroke="#666666" points="1502,-174 1327,-174 1327,-144 1502,-144 1502,-174"/>
<text text-anchor="start" x="1335" y="-162" font-family="Helvetica,sans-Serif" font-size="10.00">SCR_ArsenalWeaponRackWeapons</text>
<text text-anchor="middle" x="1414.5" y="-151" font-family="Helvetica,sans-Serif" font-size="10.00">EditorAttribute</text>
</a>
</g>
</g>
<!-- Node10&#45;&gt;Node11 -->
<g id="edge10" class="edge">
<title>Node10&#45;&gt;Node11</title>
<path fill="none" stroke="#63b8ff" d="M1283.2,-159C1297.48,-159 1312.4,-159 1326.82,-159"/>
<polygon fill="#63b8ff" stroke="#63b8ff" points="1283.43,-155.5 1273.43,-159 1283.43,-162.5 1283.43,-155.5"/>
</g>
<!-- Node13 -->
<g id="node13" class="node">
<title>Node13</title>
<g id="a_node13"><a xlink:href="interfaceSCR__FactionLoadoutEquipmentEditorAttribute.html" target="_top" xlink:title=" ">
<polygon fill="white" stroke="#666666" points="1278.5,-126 1123.5,-126 1123.5,-96 1278.5,-96 1278.5,-126"/>
<text text-anchor="start" x="1131.5" y="-114" font-family="Helvetica,sans-Serif" font-size="10.00">SCR_FactionLoadoutEquipment</text>
<text text-anchor="middle" x="1201" y="-103" font-family="Helvetica,sans-Serif" font-size="10.00">EditorAttribute</text>
</a>
</g>
</g>
<!-- Node12&#45;&gt;Node13 -->
<g id="edge12" class="edge">
<title>Node12&#45;&gt;Node13</title>
<path fill="none" stroke="#63b8ff" d="M1084.66,-97.43C1097.45,-98.93 1110.52,-100.47 1123.06,-101.95"/>
<polygon fill="#63b8ff" stroke="#63b8ff" points="1085.34,-93.87 1075,-96.18 1084.52,-100.82 1085.34,-93.87"/>
</g>
<!-- Node14 -->
<g id="node14" class="node">
<title>Node14</title>
<g id="a_node14"><a xlink:href="interfaceSCR__FactionLoadoutOutfitEditorAttribute.html" target="_top" xlink:title=" ">
<polygon fill="white" stroke="#666666" points="1267,-78 1135,-78 1135,-48 1267,-48 1267,-78"/>
<text text-anchor="start" x="1143" y="-66" font-family="Helvetica,sans-Serif" font-size="10.00">SCR_FactionLoadoutOutfit</text>
<text text-anchor="middle" x="1201" y="-55" font-family="Helvetica,sans-Serif" font-size="10.00">EditorAttribute</text>
</a>
</g>
</g>
<!-- Node12&#45;&gt;Node14 -->
<g id="edge13" class="edge">
<title>Node12&#45;&gt;Node14</title>
<path fill="none" stroke="#63b8ff" d="M1084.9,-76.54C1101.62,-74.57 1118.82,-72.55 1134.66,-70.69"/>
<polygon fill="#63b8ff" stroke="#63b8ff" points="1084.52,-73.18 1075,-77.82 1085.34,-80.13 1084.52,-73.18"/>
</g>
<!-- Node15 -->
<g id="node15" class="node">
<title>Node15</title>
<g id="a_node15"><a xlink:href="interfaceSCR__FactionLoadoutWeaponsEditorAttribute.html" target="_top" xlink:title=" ">
<polygon fill="white" stroke="#666666" points="1276,-30 1126,-30 1126,0 1276,0 1276,-30"/>
<text text-anchor="start" x="1134" y="-18" font-family="Helvetica,sans-Serif" font-size="10.00">SCR_FactionLoadoutWeapons</text>
<text text-anchor="middle" x="1201" y="-7" font-family="Helvetica,sans-Serif" font-size="10.00">EditorAttribute</text>
</a>
</g>
</g>
<!-- Node12&#45;&gt;Node15 -->
<g id="edge14" class="edge">
<title>Node12&#45;&gt;Node15</title>
<path fill="none" stroke="#63b8ff" d="M1039.78,-67.13C1061.02,-57.89 1087.07,-47.18 1111,-39 1119.78,-36 1129.15,-33.12 1138.4,-30.47"/>
<polygon fill="#63b8ff" stroke="#63b8ff" points="1038.51,-64.3 1030.76,-71.52 1041.33,-70.71 1038.51,-64.3"/>
</g>
</g>
</svg>
