<?xml version="1.0" encoding="UTF-8" standalone="no"?>
<!DOCTYPE svg PUBLIC "-//W3C//DTD SVG 1.1//EN"
 "http://www.w3.org/Graphics/SVG/1.1/DTD/svg11.dtd">
<!-- Generated by graphviz version 8.0.2 (20230410.1723)
 -->
<!-- Title: SCR_BasePreviewEntity Pages: 1 -->
<svg width="289pt" height="247pt"
 viewBox="0.00 0.00 289.00 247.00" xmlns="http://www.w3.org/2000/svg" xmlns:xlink="http://www.w3.org/1999/xlink">
<g id="graph0" class="graph" transform="scale(1 1) rotate(0) translate(4 243)">
<title>SCR_BasePreviewEntity</title>
<!-- Node1 -->
<g id="node1" class="node">
<title>Node1</title>
<g id="a_node1"><a xlink:title="Generic preview entity used to represent another entity is simplified form.">
<polygon fill="#999999" stroke="#666666" points="203.5,-184 80.5,-184 80.5,-165 203.5,-165 203.5,-184"/>
<text text-anchor="middle" x="142" y="-172" font-family="Helvetica,sans-Serif" font-size="10.00">SCR_BasePreviewEntity</text>
</a>
</g>
</g>
<!-- Node3 -->
<g id="node3" class="node">
<title>Node3</title>
<g id="a_node3"><a xlink:href="interfaceSCR__GenericPreviewEntity.html" target="_top" xlink:title="Preview entity created from existing entities.">
<polygon fill="white" stroke="#666666" points="135,-129 1,-129 1,-110 135,-110 135,-129"/>
<text text-anchor="middle" x="68" y="-117" font-family="Helvetica,sans-Serif" font-size="10.00">SCR_GenericPreviewEntity</text>
</a>
</g>
</g>
<!-- Node1&#45;&gt;Node3 -->
<g id="edge2" class="edge">
<title>Node1&#45;&gt;Node3</title>
<path fill="none" stroke="#63b8ff" d="M120.62,-158.19C107.56,-148.84 91.32,-137.21 80.37,-129.36"/>
<polygon fill="#63b8ff" stroke="#63b8ff" points="118.28,-161.53 128.45,-164.51 122.35,-155.84 118.28,-161.53"/>
</g>
<!-- Node6 -->
<g id="node6" class="node">
<title>Node6</title>
<g id="a_node6"><a xlink:href="interfaceSCR__PrefabPreviewEntity.html" target="_top" xlink:title="Preview entity created from entity prefab.">
<polygon fill="white" stroke="#666666" points="281,-129 153,-129 153,-110 281,-110 281,-129"/>
<text text-anchor="middle" x="217" y="-117" font-family="Helvetica,sans-Serif" font-size="10.00">SCR_PrefabPreviewEntity</text>
</a>
</g>
</g>
<!-- Node1&#45;&gt;Node6 -->
<g id="edge5" class="edge">
<title>Node1&#45;&gt;Node6</title>
<path fill="none" stroke="#63b8ff" d="M163.67,-158.19C176.9,-148.84 193.36,-137.21 204.47,-129.36"/>
<polygon fill="#63b8ff" stroke="#63b8ff" points="161.87,-155.88 155.72,-164.51 165.91,-161.6 161.87,-155.88"/>
</g>
<!-- Node2 -->
<g id="node2" class="node">
<title>Node2</title>
<g id="a_node2"><a xlink:title=" ">
<polygon fill="white" stroke="#666666" points="180,-239 104,-239 104,-220 180,-220 180,-239"/>
<text text-anchor="middle" x="142" y="-227" font-family="Helvetica,sans-Serif" font-size="10.00">GenericEntity</text>
</a>
</g>
</g>
<!-- Node2&#45;&gt;Node1 -->
<g id="edge1" class="edge">
<title>Node2&#45;&gt;Node1</title>
<path fill="none" stroke="#63b8ff" d="M142,-208.93C142,-200.53 142,-191.13 142,-184.44"/>
<polygon fill="#63b8ff" stroke="#63b8ff" points="138.5,-208.75 142,-218.75 145.5,-208.75 138.5,-208.75"/>
</g>
<!-- Node4 -->
<g id="node4" class="node">
<title>Node4</title>
<g id="a_node4"><a xlink:href="interfaceSCR__EditablePreviewEntity.html" target="_top" xlink:title="Preview entity created from existing editable entities.">
<polygon fill="white" stroke="#666666" points="136,-74 0,-74 0,-55 136,-55 136,-74"/>
<text text-anchor="middle" x="68" y="-62" font-family="Helvetica,sans-Serif" font-size="10.00">SCR_EditablePreviewEntity</text>
</a>
</g>
</g>
<!-- Node3&#45;&gt;Node4 -->
<g id="edge3" class="edge">
<title>Node3&#45;&gt;Node4</title>
<path fill="none" stroke="#63b8ff" d="M68,-98.93C68,-90.53 68,-81.13 68,-74.44"/>
<polygon fill="#63b8ff" stroke="#63b8ff" points="64.5,-98.75 68,-108.75 71.5,-98.75 64.5,-98.75"/>
</g>
<!-- Node5 -->
<g id="node5" class="node">
<title>Node5</title>
<g id="a_node5"><a xlink:href="interfaceSCR__RefPreviewEntity.html" target="_top" xlink:title="Reference entity used to position edited entities according to preview.">
<polygon fill="white" stroke="#666666" points="125.5,-19 10.5,-19 10.5,0 125.5,0 125.5,-19"/>
<text text-anchor="middle" x="68" y="-7" font-family="Helvetica,sans-Serif" font-size="10.00">SCR_RefPreviewEntity</text>
</a>
</g>
</g>
<!-- Node4&#45;&gt;Node5 -->
<g id="edge4" class="edge">
<title>Node4&#45;&gt;Node5</title>
<path fill="none" stroke="#63b8ff" d="M68,-43.93C68,-35.53 68,-26.13 68,-19.44"/>
<polygon fill="#63b8ff" stroke="#63b8ff" points="64.5,-43.75 68,-53.75 71.5,-43.75 64.5,-43.75"/>
</g>
</g>
</svg>
