<?xml version="1.0" encoding="UTF-8" standalone="no"?>
<!DOCTYPE svg PUBLIC "-//W3C//DTD SVG 1.1//EN"
 "http://www.w3.org/Graphics/SVG/1.1/DTD/svg11.dtd">
<!-- Generated by graphviz version 8.0.2 (20230410.1723)
 -->
<!-- Title: SCR_SpawnPointSpawnHandlerComponent Pages: 1 -->
<svg width="164pt" height="148pt"
 viewBox="0.00 0.00 164.00 148.00" xmlns="http://www.w3.org/2000/svg" xmlns:xlink="http://www.w3.org/1999/xlink">
<g id="graph0" class="graph" transform="scale(1 1) rotate(0) translate(4 144)">
<title>SCR_SpawnPointSpawnHandlerComponent</title>
<!-- Node1 -->
<g id="node1" class="node">
<title>Node1</title>
<g id="a_node1"><a xlink:title=" ">
<polygon fill="#999999" stroke="#666666" points="156,-30 0,-30 0,0 156,0 156,-30"/>
<text text-anchor="start" x="8" y="-18" font-family="Helvetica,sans-Serif" font-size="10.00">SCR_SpawnPointSpawnHandler</text>
<text text-anchor="middle" x="78" y="-7" font-family="Helvetica,sans-Serif" font-size="10.00">Component</text>
</a>
</g>
</g>
<!-- Node2 -->
<g id="node2" class="node">
<title>Node2</title>
<g id="a_node2"><a xlink:href="interfaceSCR__SpawnHandlerComponent.html" target="_top" xlink:title="SCR_SpawnRequestComponent &lt;&#45;&gt; SCR_SpawnHandlerComponent.">
<polygon fill="white" stroke="#666666" points="155,-85 1,-85 1,-66 155,-66 155,-85"/>
<text text-anchor="middle" x="78" y="-73" font-family="Helvetica,sans-Serif" font-size="10.00">SCR_SpawnHandlerComponent</text>
</a>
</g>
</g>
<!-- Node2&#45;&gt;Node1 -->
<g id="edge1" class="edge">
<title>Node2&#45;&gt;Node1</title>
<path fill="none" stroke="#63b8ff" d="M78,-55.08C78,-46.92 78,-37.6 78,-30.11"/>
<polygon fill="#63b8ff" stroke="#63b8ff" points="74.5,-54.87 78,-64.87 81.5,-54.87 74.5,-54.87"/>
</g>
<!-- Node3 -->
<g id="node3" class="node">
<title>Node3</title>
<g id="a_node3"><a xlink:title=" ">
<polygon fill="white" stroke="#666666" points="124,-140 32,-140 32,-121 124,-121 124,-140"/>
<text text-anchor="middle" x="78" y="-128" font-family="Helvetica,sans-Serif" font-size="10.00">ScriptComponent</text>
</a>
</g>
</g>
<!-- Node3&#45;&gt;Node2 -->
<g id="edge2" class="edge">
<title>Node3&#45;&gt;Node2</title>
<path fill="none" stroke="#63b8ff" d="M78,-109.93C78,-101.53 78,-92.13 78,-85.44"/>
<polygon fill="#63b8ff" stroke="#63b8ff" points="74.5,-109.75 78,-119.75 81.5,-109.75 74.5,-109.75"/>
</g>
</g>
</svg>
