<?xml version="1.0" encoding="UTF-8" standalone="no"?>
<!DOCTYPE svg PUBLIC "-//W3C//DTD SVG 1.1//EN"
 "http://www.w3.org/Graphics/SVG/1.1/DTD/svg11.dtd">
<!-- Generated by graphviz version 8.0.2 (20230410.1723)
 -->
<!-- Title: SCR_WheeledDamageManagerComponent Pages: 1 -->
<svg width="173pt" height="379pt"
 viewBox="0.00 0.00 173.00 379.00" xmlns="http://www.w3.org/2000/svg" xmlns:xlink="http://www.w3.org/1999/xlink">
<g id="graph0" class="graph" transform="scale(1 1) rotate(0) translate(4 375)">
<title>SCR_WheeledDamageManagerComponent</title>
<!-- Node1 -->
<g id="node1" class="node">
<title>Node1</title>
<g id="a_node1"><a xlink:title=" ">
<polygon fill="#999999" stroke="#666666" points="159.5,-30 5.5,-30 5.5,0 159.5,0 159.5,-30"/>
<text text-anchor="start" x="13.5" y="-18" font-family="Helvetica,sans-Serif" font-size="10.00">SCR_WheeledDamageManager</text>
<text text-anchor="middle" x="82.5" y="-7" font-family="Helvetica,sans-Serif" font-size="10.00">Component</text>
</a>
</g>
</g>
<!-- Node2 -->
<g id="node2" class="node">
<title>Node2</title>
<g id="a_node2"><a xlink:href="interfaceSCR__VehicleDamageManagerComponent.html" target="_top" xlink:title=" ">
<polygon fill="white" stroke="#666666" points="156.5,-96 8.5,-96 8.5,-66 156.5,-66 156.5,-96"/>
<text text-anchor="start" x="16.5" y="-84" font-family="Helvetica,sans-Serif" font-size="10.00">SCR_VehicleDamageManager</text>
<text text-anchor="middle" x="82.5" y="-73" font-family="Helvetica,sans-Serif" font-size="10.00">Component</text>
</a>
</g>
</g>
<!-- Node2&#45;&gt;Node1 -->
<g id="edge1" class="edge">
<title>Node2&#45;&gt;Node1</title>
<path fill="none" stroke="#63b8ff" d="M82.5,-54.97C82.5,-46.55 82.5,-37.45 82.5,-30.16"/>
<polygon fill="#63b8ff" stroke="#63b8ff" points="79,-54.8 82.5,-64.8 86,-54.8 79,-54.8"/>
</g>
<!-- Node3 -->
<g id="node3" class="node">
<title>Node3</title>
<g id="a_node3"><a xlink:href="interfaceSCR__DamageManagerComponent.html" target="_top" xlink:title=" ">
<polygon fill="white" stroke="#666666" points="165,-151 0,-151 0,-132 165,-132 165,-151"/>
<text text-anchor="middle" x="82.5" y="-139" font-family="Helvetica,sans-Serif" font-size="10.00">SCR_DamageManagerComponent</text>
</a>
</g>
</g>
<!-- Node3&#45;&gt;Node2 -->
<g id="edge2" class="edge">
<title>Node3&#45;&gt;Node2</title>
<path fill="none" stroke="#63b8ff" d="M82.5,-121.08C82.5,-112.92 82.5,-103.6 82.5,-96.11"/>
<polygon fill="#63b8ff" stroke="#63b8ff" points="79,-120.87 82.5,-130.87 86,-120.87 79,-120.87"/>
</g>
<!-- Node4 -->
<g id="node4" class="node">
<title>Node4</title>
<g id="a_node4"><a xlink:href="interfaceDamageManagerComponent.html" target="_top" xlink:title=" ">
<polygon fill="white" stroke="#666666" points="152.5,-206 12.5,-206 12.5,-187 152.5,-187 152.5,-206"/>
<text text-anchor="middle" x="82.5" y="-194" font-family="Helvetica,sans-Serif" font-size="10.00">DamageManagerComponent</text>
</a>
</g>
</g>
<!-- Node4&#45;&gt;Node3 -->
<g id="edge3" class="edge">
<title>Node4&#45;&gt;Node3</title>
<path fill="none" stroke="#63b8ff" d="M82.5,-175.93C82.5,-167.53 82.5,-158.13 82.5,-151.44"/>
<polygon fill="#63b8ff" stroke="#63b8ff" points="79,-175.75 82.5,-185.75 86,-175.75 79,-175.75"/>
</g>
<!-- Node5 -->
<g id="node5" class="node">
<title>Node5</title>
<g id="a_node5"><a xlink:href="interfaceHitZoneContainerComponent.html" target="_top" xlink:title=" ">
<polygon fill="white" stroke="#666666" points="152.5,-261 12.5,-261 12.5,-242 152.5,-242 152.5,-261"/>
<text text-anchor="middle" x="82.5" y="-249" font-family="Helvetica,sans-Serif" font-size="10.00">HitZoneContainerComponent</text>
</a>
</g>
</g>
<!-- Node5&#45;&gt;Node4 -->
<g id="edge4" class="edge">
<title>Node5&#45;&gt;Node4</title>
<path fill="none" stroke="#63b8ff" d="M82.5,-230.93C82.5,-222.53 82.5,-213.13 82.5,-206.44"/>
<polygon fill="#63b8ff" stroke="#63b8ff" points="79,-230.75 82.5,-240.75 86,-230.75 79,-230.75"/>
</g>
<!-- Node6 -->
<g id="node6" class="node">
<title>Node6</title>
<g id="a_node6"><a xlink:href="interfaceGameComponent.html" target="_top" xlink:title=" ">
<polygon fill="white" stroke="#666666" points="128.5,-316 36.5,-316 36.5,-297 128.5,-297 128.5,-316"/>
<text text-anchor="middle" x="82.5" y="-304" font-family="Helvetica,sans-Serif" font-size="10.00">GameComponent</text>
</a>
</g>
</g>
<!-- Node6&#45;&gt;Node5 -->
<g id="edge5" class="edge">
<title>Node6&#45;&gt;Node5</title>
<path fill="none" stroke="#63b8ff" d="M82.5,-285.93C82.5,-277.53 82.5,-268.13 82.5,-261.44"/>
<polygon fill="#63b8ff" stroke="#63b8ff" points="79,-285.75 82.5,-295.75 86,-285.75 79,-285.75"/>
</g>
<!-- Node7 -->
<g id="node7" class="node">
<title>Node7</title>
<g id="a_node7"><a xlink:title=" ">
<polygon fill="white" stroke="#666666" points="132.5,-371 32.5,-371 32.5,-352 132.5,-352 132.5,-371"/>
<text text-anchor="middle" x="82.5" y="-359" font-family="Helvetica,sans-Serif" font-size="10.00">GenericComponent</text>
</a>
</g>
</g>
<!-- Node7&#45;&gt;Node6 -->
<g id="edge6" class="edge">
<title>Node7&#45;&gt;Node6</title>
<path fill="none" stroke="#63b8ff" d="M82.5,-340.93C82.5,-332.53 82.5,-323.13 82.5,-316.44"/>
<polygon fill="#63b8ff" stroke="#63b8ff" points="79,-340.75 82.5,-350.75 86,-340.75 79,-340.75"/>
</g>
</g>
</svg>
